<?xml version="1.0" encoding="UTF-8" standalone="no"?>
<svg width="3012px" height="512px" viewBox="0 0 3012 512" version="1.1" xmlns="http://www.w3.org/2000/svg" xmlns:xlink="http://www.w3.org/1999/xlink" xmlns:sketch="http://www.bohemiancoding.com/sketch/ns">
    <!-- Generator: Sketch 3.5.2 (25235) - http://www.bohemiancoding.com/sketch -->
    <title>harrow-io-logo-with-text</title>
    <desc>Created with Sketch.</desc>
    <defs></defs>
    <g id="Page-1" stroke="none" stroke-width="1" fill="none" fill-rule="evenodd" sketch:type="MSPage">
        <g id="harrow-io-logo-with-text" sketch:type="MSArtboardGroup">
            <path d="M686,400.321332 L686,115.916847 L734.011062,115.916847 L734.011062,239.199478 L875.196121,239.199478 L875.196121,115.916847 L923.207171,115.916847 L923.207171,400.321332 L875.196121,400.321332 L875.196121,283.955549 L734.011062,283.955549 L734.011062,400.321332 L686,400.321332 L686,400.321332 Z M1029.84635,335.628466 L1001.36521,400.321332 L950.099173,400.321332 L1075.41616,115.916847 L1126.68221,115.916847 L1251.99921,400.321332 L1200.73316,400.321332 L1172.25203,335.628466 L1029.84635,335.628466 L1029.84635,335.628466 Z M1152.7221,291.279269 L1101.04919,174.099739 L1049.37627,291.279269 L1152.7221,291.279269 L1152.7221,291.279269 Z M1505.92654,208.277101 C1505.92654,255.203398 1485.44744,284.769234 1444.48866,296.975497 L1518.94649,400.321332 L1457.91548,400.321332 L1389.96762,304.706091 L1326.90225,304.706091 L1326.90225,400.321332 L1278.8912,400.321332 L1278.8912,115.916847 L1384.67827,115.916847 C1428.07832,115.916847 1459.136,123.240494 1477.85227,137.888009 C1496.56854,152.535523 1505.92654,175.99832 1505.92654,208.277101 L1505.92654,208.277101 L1505.92654,208.277101 Z M1442.04742,248.557565 C1451.81243,240.148807 1456.69486,226.654309 1456.69486,208.073665 C1456.69486,189.493021 1451.67681,176.74445 1441.64055,169.827568 C1431.60429,162.910686 1413.70204,159.452298 1387.93326,159.452298 L1326.90225,159.452298 L1326.90225,261.17064 L1386.71264,261.17064 C1413.83767,261.17064 1432.28241,256.966323 1442.04742,248.557565 L1442.04742,248.557565 L1442.04742,248.557565 Z M1789.55562,208.277101 C1789.55562,255.203398 1769.07654,284.769234 1728.11774,296.975497 L1802.57557,400.321332 L1741.54457,400.321332 L1673.59672,304.706091 L1610.53134,304.706091 L1610.53134,400.321332 L1562.52028,400.321332 L1562.52028,115.916847 L1668.30736,115.916847 C1711.7074,115.916847 1742.76509,123.240494 1761.48136,137.888009 C1780.19763,152.535523 1789.55562,175.99832 1789.55562,208.277101 L1789.55562,208.277101 L1789.55562,208.277101 Z M1725.6765,248.557565 C1735.44152,240.148807 1740.32395,226.654309 1740.32395,208.073665 C1740.32395,189.493021 1735.30589,176.74445 1725.26963,169.827568 C1715.23337,162.910686 1697.33112,159.452298 1671.56235,159.452298 L1610.53134,159.452298 L1610.53134,261.17064 L1670.34173,261.17064 C1697.46675,261.17064 1715.91149,256.966323 1725.6765,248.557565 L1725.6765,248.557565 L1725.6765,248.557565 Z M1967.00133,152.942324 C1938.7913,152.942324 1914.98945,162.978433 1895.59505,183.050953 C1876.20065,203.123472 1866.50361,227.46782 1866.50361,256.084723 C1866.50361,284.701625 1876.20065,309.045973 1895.59505,329.118492 C1914.98945,349.191012 1938.7913,359.227121 1967.00133,359.227121 C1995.21135,359.227121 2019.01321,349.191012 2038.4076,329.118492 C2057.80199,309.045973 2067.49905,284.701625 2067.49905,256.084723 C2067.49905,227.46782 2057.80199,203.123472 2038.4076,183.050953 C2019.01321,162.978433 1995.21135,152.942324 1967.00133,152.942324 L1967.00133,152.942324 L1967.00133,152.942324 Z M1967.00133,403.169445 C1924.68629,403.169445 1889.15304,389.132454 1860.4005,361.058051 C1831.64797,332.983649 1817.27193,297.992889 1817.27193,256.084723 C1817.27193,214.176556 1831.64797,179.185796 1860.4005,151.111394 C1889.15304,123.036991 1924.68629,109 1967.00133,109 C2009.31637,109 2044.84962,123.036991 2073.60215,151.111394 C2102.35467,179.185796 2116.73073,214.176556 2116.73073,256.084723 C2116.73073,297.992889 2102.35467,332.983649 2073.60215,361.058051 C2044.84962,389.132454 2009.31637,403.169445 1967.00133,403.169445 L1967.00133,403.169445 L1967.00133,403.169445 Z M2234.77821,320.574152 L2298.25045,115.916847 L2341.37903,115.916847 L2404.85127,320.574152 L2476.46099,115.916847 L2528.13391,115.916847 L2428.8568,400.321332 L2381.25262,400.321332 L2321.44224,205.428988 L2318.18725,205.428988 L2258.37686,400.321332 L2210.77267,400.321332 L2111.49558,115.916847 L2163.1685,115.916847 L2234.77821,320.574152 L2234.77821,320.574152 Z M2501.75191,373.060816 C2501.75191,364.652058 2504.66779,357.531845 2510.49968,351.699964 C2516.33156,345.868083 2523.45178,342.952187 2531.86053,342.952187 C2540.26929,342.952187 2547.45731,345.868083 2553.42482,351.699964 C2559.39233,357.531845 2562.37604,364.652058 2562.37604,373.060816 C2562.37604,381.469574 2559.39233,388.657598 2553.42482,394.625105 C2547.45731,400.59261 2540.26929,403.576319 2531.86053,403.576319 C2523.45178,403.576319 2516.33156,400.59261 2510.49968,394.625105 C2504.66779,388.657598 2501.75191,381.469574 2501.75191,373.060816 L2501.75191,373.060816 L2501.75191,373.060816 Z M2615.7148,115.916847 L2663.72586,115.916847 L2663.72586,400.321332 L2615.7148,400.321332 L2615.7148,115.916847 L2615.7148,115.916847 Z M2861.50466,152.942324 C2833.29462,152.942324 2809.49278,162.978433 2790.09838,183.050953 C2770.70398,203.123472 2761.00694,227.46782 2761.00694,256.084723 C2761.00694,284.701625 2770.70398,309.045973 2790.09838,329.118492 C2809.49278,349.191012 2833.29462,359.227121 2861.50466,359.227121 C2889.71469,359.227121 2913.51654,349.191012 2932.91093,329.118492 C2952.30533,309.045973 2962.00238,284.701625 2962.00238,256.084723 C2962.00238,227.46782 2952.30533,203.123472 2932.91093,183.050953 C2913.51654,162.978433 2889.71469,152.942324 2861.50466,152.942324 L2861.50466,152.942324 L2861.50466,152.942324 Z M2754.90384,361.058051 C2726.1513,332.983649 2711.77526,297.992889 2711.77526,256.084723 C2711.77526,214.176556 2726.1513,179.185796 2754.90384,151.111394 C2783.65637,123.036991 2819.18962,109 2861.50466,109 C2903.8197,109 2939.35295,123.036991 2968.10547,151.111394 C2996.85801,179.185796 3011.23406,214.176556 3011.23406,256.084723 C3011.23406,297.992889 2996.85801,332.983649 2968.10547,361.058051 C2939.35295,389.132454 2903.8197,403.169445 2861.50466,403.169445 C2819.18962,403.169445 2783.65637,389.132454 2754.90384,361.058051 L2754.90384,361.058051 Z" id="HARROW.IO" fill="#333333" sketch:type="MSShapeGroup"></path>
            <g id="icon" sketch:type="MSLayerGroup" transform="translate(3.572093, -5.953488)" fill="#4B334B">
                <path d="M191.594549,7.39774793 C179.80454,8.62830864 170.540858,13.7377712 159.52246,25.0872854 C154.644298,30.111681 153.420314,31.5218274 145.071174,41.7371171 C133.244888,56.2057482 127.78557,61.7325471 120.382895,66.7293144 C115.821794,69.8084427 106.706485,74.3744228 98.9794943,77.4510063 C95.8799917,78.6852023 90.0190875,81.013634 85.9197921,82.6389921 C58.2042019,93.6296987 47.7578911,103.387663 42.7643689,122.950489 C41.1300923,129.352676 40.2093833,137.055586 39.3057245,151.887751 C37.888384,175.153892 36.4024801,183.084737 31.3520031,194.348458 C29.6063562,198.241173 25.4762254,205.290815 19.1691147,215.14257 C9.04566891,230.956275 5.44300494,237.647472 2.8263485,245.497613 C0.948290767,251.132381 0.303649354,254.34638 0.0566033211,259.311884 C-0.29492033,266.37025 0.982391099,273.126155 4.12542609,280.833064 C7.07474217,288.065198 9.64895459,292.684254 18.0637561,305.844165 C27.0825687,319.949263 30.6380726,326.252569 33.1150628,332.527519 C36.4180792,340.894969 38.033129,350.449718 39.1130939,368.008383 C39.7947377,379.096154 40.2235313,384.440096 40.7865495,388.875204 C43.8381667,412.904764 52.4082334,424.767588 74.2023371,435.130472 C76.4569495,436.202532 83.8520059,439.296565 90.6357957,442.006343 C105.037745,447.758533 110.205759,450.037888 115.159014,452.822917 C125.345582,458.550387 131.540234,464.453806 146.131911,482.339653 C153.516811,491.391635 159.601907,498.215521 163.117143,501.387714 C176.234888,513.224363 187.821746,517.053461 204.545421,515.078383 C210.771996,514.34332 216.117768,513.203278 230.120671,509.625746 C253.08398,503.759043 260.920528,502.758962 272.891195,504.168018 C279.450068,504.940163 284.753758,506.064208 299.409646,509.788972 C318.74526,514.702854 326.10658,515.893426 334.598288,515.479361 C341.59974,515.138003 346.138711,513.952521 352.410271,510.827224 C360.077042,507.006851 368.819061,499.171251 378.313103,487.610887 C381.000136,484.339086 385.248529,479.172185 387.728785,476.159583 C393.624515,468.997975 402.559891,460.092133 406.89825,457.053356 C413.634155,452.335782 421.3002,448.604476 436.355135,442.716324 C450.648253,437.125908 456.605654,434.445939 462.547093,430.933842 C478.295642,421.624114 485.337724,409.996497 488.018591,388.875204 C488.581609,384.440096 489.009314,379.096154 489.688419,368.008383 C491.456921,339.143829 493.703915,332.393376 509.956715,307.116532 C521.550828,289.085273 525.86851,280.248138 528.001595,270.181533 C528.810933,266.364432 528.905254,257.065247 528.173548,253.313582 C527.340991,249.047517 524.715991,241.535099 522.393178,236.77281 C519.994184,231.853475 515.617007,224.449027 509.391519,214.779037 C493.37452,189.899171 491.39525,183.624221 489.498328,151.705984 C488.606278,136.692053 487.675411,129.209444 485.821659,122.150715 C481.736512,106.594392 473.611563,97.2366775 456.887889,88.8263312 C451.337152,86.0351215 448.18142,84.697682 432.72744,78.5885024 C428.047714,76.7388443 421.485938,73.8687477 418.180382,72.22594 C404.896488,65.6248998 398.936548,60.3500296 383.811236,41.8098238 C375.32896,31.4127673 372.144207,27.8105144 367.029882,22.8304698 C356.958313,13.0230645 348.057037,8.50906967 336.520967,7.35921339 C328.763141,6.58597775 319.652185,7.85580007 303.400111,11.9753611 C278.042522,18.4026324 275.782468,18.7981568 264.402389,18.7981568 C252.977327,18.7981568 250.762255,18.4102666 225.586052,12.0011719 C209.080039,7.79908885 199.794953,6.54162667 191.594549,7.39774793 L191.594549,7.39774793 L191.594549,7.39774793 Z M228.778424,111.403212 C243.434311,119.461295 245.346107,120.616968 245.832581,121.714475 C246.025211,122.148534 246.082166,138.873253 245.973697,163.229995 C245.812628,199.474279 245.855072,204.113693 246.354606,204.872751 C246.665862,205.345708 248.730746,206.692599 250.979917,207.890078 C253.211312,209.078106 261.445817,213.740786 269.245362,218.232604 L283.447788,226.412107 L283.683588,212.30701 C283.813096,204.563747 283.976706,198.144473 284.046358,198.074676 C284.11601,198.004877 294.584811,191.79718 307.281745,184.296758 L330.390162,170.646076 L361.080462,187.913915 L361.171155,288.958036 C361.260033,387.875486 361.247699,390.025787 360.579841,391.129111 C359.470128,392.963137 353.861349,396.46978 332.421671,408.734672 C327.415452,411.598225 321.946701,414.85912 320.214477,416.012975 C318.291799,417.293704 316.402133,418.24398 315.335228,418.466826 C313.781123,418.791461 313.358134,418.722754 311.399179,417.830642 C310.202039,417.285342 308.462559,416.263086 307.571961,415.581825 C304.45577,413.197045 301.332325,411.211062 296.580044,408.593258 C283.955665,401.638863 283.880209,401.587605 283.390108,399.59944 C283.222146,398.919269 283.174986,380.295814 283.284541,358.192981 C283.467378,321.367043 283.434365,317.94692 282.885495,317.113701 C282.546668,316.599302 280.255416,315.123719 277.607199,313.714664 C275.03734,312.347051 266.851083,307.716726 259.450585,303.444845 C252.050087,299.172963 245.87575,295.665228 245.756036,295.665228 C245.636323,295.665228 245.538374,301.972534 245.538374,309.679442 C245.538374,318.949546 245.407052,323.939769 245.150936,324.420724 C244.645236,325.368819 240.604709,327.925186 237.194676,329.453845 C235.69027,330.128199 231.716857,332.339209 228.306823,334.399717 C224.922184,336.444956 218.620878,340.167902 214.340197,342.651926 C210.059517,345.13595 205.583304,347.793016 204.418451,348.541168 C203.257589,349.286775 201.622587,350.212332 200.808895,350.583863 C197.831645,351.944568 197.507692,351.825329 186.697161,345.396603 C181.255619,342.160792 174.914044,338.409854 172.621704,337.071688 C170.263702,335.694987 168.25142,334.256848 167.993491,333.763533 C167.288629,332.415551 167.52842,132.293298 168.236909,130.911871 C168.624709,130.154995 172.984473,127.562274 187.277592,119.587804 C197.471415,113.900324 207.856054,108.091786 210.349733,106.682367 C212.852843,105.267495 215.014585,104.111459 215.174566,104.10128 C215.334186,104.091101 221.45048,107.374171 228.778424,111.403212 L228.778424,111.403212 L228.778424,111.403212 Z" id="path-1" sketch:type="MSShapeGroup"></path>
                <path d="M172.651163,234.86874 L172.651163,332.948969 L177.136278,335.252259 C179.593023,336.513808 184.91658,339.409062 188.907417,341.654316 C192.898254,343.899569 196.350877,345.753082 196.541266,345.753082 C196.765338,345.753082 196.849915,331.697577 196.779251,306.306984 C196.676368,269.38181 196.710418,266.78544 197.310142,265.682038 C197.841034,264.705225 198.170552,264.503189 199.232335,264.503189 C200.981346,264.503189 202.344455,265.129974 206.957716,268.054245 C209.128146,269.430051 214.463419,272.58175 218.783775,275.040284 C223.120607,277.508249 235.369548,284.520406 246.060597,290.655498 C256.751647,296.790591 270.315733,304.509331 276.266474,307.844203 C286.957524,313.83602 288.409237,314.774747 289.174086,316.191179 C289.631385,317.037411 289.573536,361.604067 289.087679,383.04098 C288.891799,391.673782 288.914865,396.70257 289.154315,397.568026 C289.354955,398.293472 290.05024,399.380552 290.692069,399.972878 C291.602639,400.812944 312.403688,412.585111 314.014668,413.171996 C314.210914,413.243452 314.344186,373.864094 314.344186,315.71964 C314.344186,238.096973 314.250456,218.073227 313.886522,217.784499 C313.63389,217.584276 308.669142,214.706434 302.811033,211.364307 C296.952924,208.02218 291.6517,204.981475 290.984974,204.581392 L289.776739,203.855946 L289.831659,242.612871 C289.862048,263.940968 289.776739,281.940721 289.642003,282.639326 C289.243651,284.706845 288.555323,285.351041 286.774458,285.323474 C284.87936,285.294093 283.149753,284.435165 277.731002,280.83224 C275.40936,279.288856 270.481591,276.32396 266.747046,274.224157 C263.012868,272.124356 256.129223,268.254467 251.406122,265.598974 C241.3353,259.937235 227.058355,251.682753 215.305522,244.727182 C210.692261,241.997331 205.340146,238.982379 203.406238,238.024428 C199.342174,236.011317 197.753528,234.691006 197.295497,232.94631 C197.105841,232.222678 197.064834,214.592539 197.200303,191.95864 C197.331012,170.122731 197.311241,151.897364 197.156367,151.478782 C196.939251,150.891534 182.756402,142.382421 172.907455,136.930336 C172.766494,136.85235 172.651163,180.931869 172.651163,234.86874 L172.651163,234.86874 L172.651163,234.86874 Z" id="path-3" sketch:type="MSShapeGroup"></path>
            </g>
        </g>
    </g>
</svg>