<?xml version="1.0" encoding="UTF-8" standalone="no"?>
<svg width="512px" height="512px" viewBox="0 0 512 512" version="1.1" xmlns="http://www.w3.org/2000/svg" xmlns:xlink="http://www.w3.org/1999/xlink" xmlns:sketch="http://www.bohemiancoding.com/sketch/ns">
    <!-- Generator: Sketch 3.5.2 (25235) - http://www.bohemiancoding.com/sketch -->
    <title>harrow-io-icon-white</title>
    <desc>Created with Sketch.</desc>
    <defs></defs>
    <g id="Page-1" stroke="none" stroke-width="1" fill="none" fill-rule="evenodd" sketch:type="MSPage">
        <g id="harrow-io-icon-white" sketch:type="MSArtboardGroup" fill="#FFFFFF">
            <g id="icon" sketch:type="MSLayerGroup" transform="translate(0.000000, 7.000000)">
                <path d="M185.55328,0.328759311 C174.135028,1.52143418 165.163444,6.47358938 154.492473,17.4736808 C149.768126,22.3433881 148.582737,23.7101196 140.496857,33.6109065 C129.043473,47.6340853 123.756295,52.9907281 116.587038,57.8336576 C112.169756,60.8179874 103.341866,65.2433925 95.8585192,68.2252558 C92.8567487,69.4214541 87.1806478,71.6781993 83.2106095,73.2535167 C56.3689342,83.9058474 46.2520117,93.3633892 41.4159429,112.323925 C39.8331975,118.529005 38.9415199,125.994762 38.0663548,140.370282 C36.6937052,162.920118 35.2546541,170.606793 30.3634264,181.523732 C28.6728224,185.2966 24.672921,192.129201 18.5646831,201.677646 C8.76044511,217.004487 5.27137866,223.48968 2.7372294,231.098134 C0.918389707,236.559423 0.294074825,239.67447 0.0548185317,244.487099 C-0.28562104,251.328156 0.951414804,257.876064 3.99534509,265.345697 C6.85166472,272.355172 9.34470827,276.832019 17.4941782,289.586769 C26.2286138,303.257607 29.6720073,309.366851 32.0708941,315.448611 C35.2697614,323.558448 36.8338862,332.819031 37.8797981,349.83711 C38.5399487,360.583516 38.9552218,365.762931 39.5004872,370.061494 C42.4558822,393.351245 50.7557216,404.848842 71.8626238,414.89268 C74.0461448,415.931733 81.2080237,418.93051 87.7779102,421.55686 C101.725744,427.131955 106.730803,429.341134 111.527874,432.040419 C121.393243,437.591555 127.392569,443.313223 141.524148,460.64841 C148.676191,469.421705 154.569414,476.0355 157.97381,479.11003 C170.677932,490.582259 181.899438,494.293468 198.095791,492.379198 C204.126032,491.666765 209.303244,490.561822 222.864614,487.094433 C245.103855,481.408352 252.693304,480.43906 264.286518,481.804735 C270.638579,482.553108 275.775036,483.642546 289.968802,487.252634 C308.694734,492.01523 315.82394,493.169147 324.047892,492.76783 C330.828577,492.436982 335.224428,491.287998 341.298235,488.258921 C348.723261,484.556167 357.189631,476.961805 366.384311,465.757356 C368.986619,462.586285 373.101053,457.578461 375.503102,454.658609 C381.212931,447.717488 389.866561,439.085834 394.068125,436.140614 C400.591637,431.568282 408.01596,427.951853 422.596189,422.244982 C436.438623,416.826681 442.208178,414.229222 447.962275,410.825253 C463.214248,401.802148 470.034282,390.532516 472.630618,370.061494 C473.175883,365.762931 473.590102,360.583516 474.247793,349.83711 C475.960531,321.861221 478.136674,315.318598 493.876998,290.819963 C505.105532,273.343841 509.287071,264.778779 511.352896,255.0221 C512.136715,251.322517 512.228061,242.30963 511.519427,238.67347 C510.713122,234.538746 508.170893,227.257616 505.921321,222.641946 C503.597971,217.874065 499.358813,210.697581 493.329624,201.325305 C477.817665,177.211428 475.900805,171.129667 474.063696,140.194112 C473.199773,125.642421 472.298258,118.390183 470.502958,111.548774 C466.546622,96.4713907 458.677865,87.4017765 442.481514,79.2503634 C437.1058,76.545088 434.049574,75.2488248 419.082881,69.3277313 C414.550714,67.5350195 408.195841,64.7532859 404.994515,63.1610561 C392.129482,56.7632451 386.357468,51.6507747 371.70908,33.6813748 C363.494263,23.6044172 360.40993,20.1130686 355.456868,15.2863469 C345.702871,5.78088664 337.082265,1.40586628 325.909946,0.291411146 C318.396736,-0.45801853 309.573062,0.772709189 293.833441,4.76543937 C269.275416,10.9948313 267.086624,11.3781785 256.065376,11.3781785 C245.000564,11.3781785 242.855337,11.0022305 218.472978,4.7904556 C202.487425,0.717743966 193.495112,-0.501004153 185.55328,0.328759311 L185.55328,0.328759311 L185.55328,0.328759311 Z M221.56469,101.13216 C235.758455,108.942154 237.609968,110.062247 238.081103,111.125965 C238.26766,111.54666 238.322818,127.756468 238.21777,151.363327 C238.06178,186.491742 238.102885,190.98832 238.586668,191.724009 C238.88811,192.182404 240.887885,193.487828 243.066136,194.64844 C245.227172,195.799891 253.20203,200.319019 260.755643,204.672546 L274.510245,212.600222 L274.73861,198.929386 C274.864035,191.424519 275.022485,185.202878 275.089941,185.135229 C275.157397,185.067579 285.296101,179.051001 297.592681,171.781498 L319.972454,158.551086 L349.695042,175.287293 L349.782875,273.220522 C349.868951,369.092555 349.857005,371.176653 349.210206,372.246009 C348.135484,374.023569 342.703559,377.422252 321.939907,389.30954 C317.091541,392.08493 311.795229,395.245431 310.117624,396.363762 C308.255571,397.60506 306.425489,398.526079 305.392225,398.742064 C303.887123,399.056705 303.477472,398.990113 301.580286,398.125467 C300.420893,397.596956 298.736262,396.606172 297.873746,395.945886 C294.855813,393.634527 291.830855,391.709687 287.228421,389.172479 C275.002108,382.432193 274.929032,382.382512 274.454384,380.455558 C274.291718,379.796327 274.246045,361.746242 274.352146,340.323898 C274.529217,304.631737 274.497245,301.316912 273.965682,300.509345 C273.637539,300.010783 271.418534,298.58063 268.853819,297.214955 C266.364991,295.889448 258.43686,291.401679 251.269711,287.261318 C244.102562,283.120957 238.122911,279.721216 238.006972,279.721216 C237.891033,279.721216 237.796173,285.834336 237.796173,293.303968 C237.796173,302.288669 237.668992,307.125256 237.420952,307.591403 C236.931197,308.510309 233.018074,310.987972 229.715565,312.469567 C228.258595,313.12316 224.41047,315.266099 221.107959,317.263169 C217.830043,319.24544 211.727427,322.853766 207.581723,325.261314 C203.436018,327.66886 199.100948,330.244122 197.972824,330.96924 C196.848566,331.691892 195.265118,332.588953 194.477083,332.949045 C191.59371,334.267858 191.279972,334.15229 180.810313,327.921488 C175.540351,324.7853 169.398737,321.149844 167.178677,319.852876 C164.895027,318.51856 162.946195,317.124698 162.696399,316.646571 C162.013762,315.34009 162.245993,121.379093 162.932141,120.040196 C163.307714,119.306622 167.530008,116.793725 181.372443,109.064769 C191.244838,103.552391 201.302035,97.922684 203.717083,96.5566572 C206.141266,95.1853454 208.234846,94.0649005 208.389783,94.0550349 C208.544369,94.0451693 214.467807,97.2271625 221.56469,101.13216 L221.56469,101.13216 L221.56469,101.13216 Z" id="path-1" sketch:type="MSShapeGroup"></path>
                <path d="M166.956522,220.261512 L166.956522,315.106711 L171.312478,317.33403 C173.698475,318.553969 178.868728,321.353727 182.744639,323.524925 C186.620551,325.696121 189.973748,327.488499 190.158654,327.488499 C190.376274,327.488499 190.458415,313.896594 190.389787,289.343472 C190.289866,253.636219 190.322936,251.125487 190.90539,250.058479 C191.420992,249.113885 191.741022,248.918512 192.772228,248.918512 C194.470873,248.918512 195.794728,249.524623 200.27514,252.352442 C202.383067,253.682869 207.564699,256.730614 211.76064,259.108057 C215.972582,261.49462 227.868787,268.275491 238.251964,274.208226 C248.63514,280.140962 261.808617,287.605112 267.587993,290.829988 C277.97117,296.624173 279.381077,297.531938 280.123901,298.901651 C280.568031,299.719971 280.511848,342.816662 280.039982,363.546511 C279.849742,371.894573 279.872144,376.757494 280.104699,377.594404 C280.299562,378.295922 280.974823,379.347147 281.59817,379.919936 C282.482518,380.732294 302.684553,392.116173 304.249141,392.683701 C304.439736,392.7528 304.56917,354.672312 304.56917,298.445665 C304.56917,223.383266 304.478139,204.019973 304.124685,203.740769 C303.879329,203.54715 299.057552,200.764229 293.36814,197.532337 C287.678729,194.300445 282.530166,191.360033 281.88264,190.973146 L280.709199,190.271628 L280.762537,227.750214 C280.792051,248.374835 280.709199,265.780894 280.578343,266.456456 C280.191463,268.455781 279.522957,269.078729 277.793376,269.052071 C275.952851,269.023659 274.273052,268.193062 269.010346,264.708974 C266.755561,263.216496 261.969699,260.349393 258.342699,258.318849 C254.716055,256.288307 248.03064,252.54606 243.443552,249.978155 C233.662742,244.50316 219.796934,236.52094 208.382551,229.794787 C203.90214,227.154976 198.704151,224.239468 196.825934,223.313114 C192.878904,221.366402 191.336007,220.08964 190.891166,218.40249 C190.706971,217.702726 190.667145,200.654091 190.798713,178.766737 C190.925658,157.651053 190.906456,140.026823 190.756043,139.622047 C190.545179,139.054169 176.770757,130.825716 167.205434,125.55346 C167.068532,125.478046 166.956522,168.103668 166.956522,220.261512 L166.956522,220.261512 L166.956522,220.261512 Z" id="path-3" sketch:type="MSShapeGroup"></path>
            </g>
        </g>
    </g>
</svg>