<svg width="75" height="75" viewBox="0 0 75 75" xmlns="http://www.w3.org/2000/svg" xmlns:xlink="http://www.w3.org/1999/xlink"><title>icon</title><defs><circle id="b" cx="32.5" cy="32.5" r="32.5"/><filter x="-50%" y="-50%" width="200%" height="200%" filterUnits="objectBoundingBox" id="a"><feMorphology radius=".3" operator="dilate" in="SourceAlpha" result="shadowSpreadOuter1"/><feOffset in="shadowSpreadOuter1" result="shadowOffsetOuter1"/><feGaussianBlur stdDeviation="2" in="shadowOffsetOuter1" result="shadowBlurOuter1"/><feComposite in="shadowBlurOuter1" in2="SourceAlpha" operator="out" result="shadowBlurOuter1"/><feColorMatrix values="0 0 0 0 0 0 0 0 0 0 0 0 0 0 0 0 0 0 0.0594146286 0" in="shadowBlurOuter1"/></filter></defs><g fill="none" fill-rule="evenodd"><g transform="translate(5 5)"><use fill="#000" filter="url(#a)" xlink:href="#b"/><use stroke="#E1E4EB" stroke-width=".6" fill="#FFF" xlink:href="#b"/></g><path d="M29.5 31.062a2.004 2.004 0 0 0 0 3.877 3.999 3.999 0 0 0 6.965.061h9.544A2 2 0 0 0 48 33c0-1.112-.891-2-1.99-2h-9.545a3.999 3.999 0 0 0-6.965.062zM39.535 41h-9.544A2 2 0 0 0 28 43c0 1.112.891 2 1.99 2h9.545a3.999 3.999 0 0 0 6.965-.062 2.004 2.004 0 0 0 0-3.877A3.999 3.999 0 0 0 39.534 41zM24 26.996A3.002 3.002 0 0 1 26.996 24h22.008A3.002 3.002 0 0 1 52 26.996v22.008A3.002 3.002 0 0 1 49.004 52H26.996A3.002 3.002 0 0 1 24 49.004V26.996zM43 46a3 3 0 1 0 0-6 3 3 0 0 0 0 6zM33 36a3 3 0 1 0 0-6 3 3 0 0 0 0 6z" fill="#90AC62"/></g></svg>