<svg width="75" height="75" viewBox="0 0 75 75" xmlns="http://www.w3.org/2000/svg" xmlns:xlink="http://www.w3.org/1999/xlink"><title>icon</title><defs><circle id="b" cx="32.5" cy="32.5" r="32.5"/><filter x="-50%" y="-50%" width="200%" height="200%" filterUnits="objectBoundingBox" id="a"><feMorphology radius=".3" operator="dilate" in="SourceAlpha" result="shadowSpreadOuter1"/><feOffset in="shadowSpreadOuter1" result="shadowOffsetOuter1"/><feGaussianBlur stdDeviation="2" in="shadowOffsetOuter1" result="shadowBlurOuter1"/><feComposite in="shadowBlurOuter1" in2="SourceAlpha" operator="out" result="shadowBlurOuter1"/><feColorMatrix values="0 0 0 0 0 0 0 0 0 0 0 0 0 0 0 0 0 0 0.0594146286 0" in="shadowBlurOuter1"/></filter></defs><g fill="none" fill-rule="evenodd"><g transform="translate(5 5)"><use fill="#000" filter="url(#a)" xlink:href="#b"/><use stroke="#E1E4EB" stroke-width=".6" fill="#FFF" xlink:href="#b"/></g><path d="M41.586 33H33v-2h12v12h-2v-8.586L31.343 46.071l-1.414-1.414L41.586 33zM24 26.996A3.002 3.002 0 0 1 26.996 24h22.008A3.002 3.002 0 0 1 52 26.996v22.008A3.002 3.002 0 0 1 49.004 52H26.996A3.002 3.002 0 0 1 24 49.004V26.996zm2 .005A1 1 0 0 1 27 26h22a1 1 0 0 1 1 1v22a1 1 0 0 1-1 1H27a1 1 0 0 1-1-1V27z" fill="#BA8BB9"/></g></svg>