<?xml version="1.0" encoding="UTF-8" standalone="no"?>
<svg width="116px" height="132px" viewBox="0 0 116 132" version="1.1" xmlns="http://www.w3.org/2000/svg" xmlns:xlink="http://www.w3.org/1999/xlink">
    <!-- Generator: Sketch 3.8.3 (29802) - http://www.bohemiancoding.com/sketch -->
    <title>Group 2</title>
    <desc>Created with Sketch.</desc>
    <defs></defs>
    <g id="Page-1" stroke="none" stroke-width="1" fill="none" fill-rule="evenodd">
        <g id="Group-2" transform="translate(1.000000, 1.000000)">
            <path d="M20.872,38.75 L58.932,66.694 L41.155,11.362 M74.8,12.913 L59.116,66.523 L101.79,31.762" id="Shape" stroke="#D0D0D0" stroke-width="2"></path>
            <circle id="e" fill="#000000" cx="13.5" cy="31.5" r="13.5"></circle>
            <circle id="e" stroke="#E1E4EB" stroke-width="0.6" fill="#FFFFFF" cx="13.5" cy="31.5" r="13.5"></circle>
            <path d="M20.281,27.267 C20.0206222,26.9167166 19.7301883,26.5898111 19.413,26.29 C19.0930109,25.9880399 18.7477494,25.7140387 18.381,25.471 L17.748,26.333 C17.4317032,26.1234222 17.0981701,25.9410996 16.751,25.788 L16.284,26.743 C16.8612376,26.997094 17.3911102,27.3474118 17.851,27.779 L17.07,28.522 L16.288,29.266 C16.5608543,29.5199171 16.7869601,29.819812 16.956,30.152 L18.958,29.262 L19.959,28.818 L20.96,28.373 C20.7670351,27.9848594 20.5397996,27.6147231 20.281,27.267 L20.281,27.267 Z M22.091,26.06 C21.7559052,25.609334 21.3821567,25.1887415 20.974,24.803 C20.5630053,24.4140353 20.1193764,24.0610726 19.648,23.748 C18.6938993,23.1139579 17.6388298,22.6469544 16.528,22.367 C15.9702053,22.2254792 15.4015602,22.1308165 14.828,22.084 L14.731,23.132 C15.2404239,23.1736402 15.7454997,23.2575965 16.241,23.383 L15.956,24.4 C16.8186149,24.6186545 17.6383597,24.9806944 18.381,25.471 C18.75,25.716 19.095,25.991 19.413,26.291 C20.0470638,26.8888847 20.5710438,27.5936175 20.961,28.373 L21.961,27.928 L22.962,27.483 C22.715,26.983 22.422,26.507 22.091,26.06 L22.091,26.06 Z M17.217,24.834 C16.399274,24.4722391 15.52634,24.2511319 14.635,24.18 C13.7416063,24.1070403 12.8422949,24.1813635 11.973,24.4 L12.259,25.416 C11.8890807,25.5090767 11.5277719,25.6335276 11.179,25.788 L11.645,26.743 C12.5232963,26.354926 13.4853844,26.1949793 14.442,26.278 C15.0774734,26.3282232 15.699897,26.485435 16.283,26.743 L16.751,25.788 C17.101,25.943 17.434,26.125 17.748,26.333 L18.381,25.471 C18.0117827,25.2260147 17.6223762,25.0129117 17.217,24.834 L17.217,24.834 Z M14.731,23.132 L14.827,22.084 C14.2529611,22.0369844 13.6760389,22.0369844 13.102,22.084 C11.3798038,22.2204405 9.72069676,22.7930922 8.281,23.748 C7.80930369,24.0610617 7.36534174,24.4140231 6.954,24.803 L7.735,25.547 C8.10047747,25.2015209 8.49492414,24.8880378 8.914,24.61 L9.548,25.472 C10.289261,24.9789459 11.1094318,24.6163797 11.973,24.4 C12.6237624,24.2349227 13.2926275,24.1519445 13.964,24.153 C14.6356203,24.1532746 15.3046523,24.2362319 15.956,24.4 L16.242,23.383 C15.746471,23.2579337 15.2413956,23.1743119 14.732,23.133 L14.731,23.132 Z M12.259,25.416 L11.973,24.4 C11.1102221,24.6186753 10.2904269,24.9810754 9.548,25.472 C8.815124,25.9553189 8.17215728,26.5627532 7.648,27.267 L8.552,27.87 C8.33009338,28.1679953 8.13531565,28.4852621 7.97,28.818 L8.971,29.262 C9.39504793,28.4246651 10.0303227,27.7125232 10.814,27.196 C11.076,27.023 11.354,26.871 11.645,26.743 L11.178,25.788 C11.526888,25.6338232 11.8881713,25.5093812 12.258,25.416 L12.259,25.416 Z M8.914,24.61 C8.493,24.89 8.098,25.203 7.735,25.547 L6.955,24.803 C6.54682502,25.1887238 6.17307508,25.6093179 5.838,26.06 C5.50542364,26.5076953 5.2135923,26.9842639 4.966,27.484 C4.47409377,28.4772031 4.16741149,29.5517771 4.061,30.655 L5.161,30.747 C5.209,30.252 5.301,29.77 5.435,29.303 L6.501,29.576 C6.74245918,28.7445408 7.13055947,27.9629217 7.647,27.268 C8.17106871,26.5633954 8.81404057,25.9556178 9.547,25.472 L8.914,24.61 L8.914,24.61 Z M6.935,34.603 C6.55907187,33.824626 6.3282941,32.9842018 6.254,32.123 C6.18088058,31.2660444 6.26458195,30.4029376 6.501,29.576 L5.435,29.303 C5.29961159,29.7749203 5.20789234,30.2582875 5.161,30.747 L4.061,30.655 C4.00885789,31.2039814 4.00618045,31.7565391 4.053,32.306 C4.14903004,33.4128789 4.44729985,34.4927512 4.933,35.492 C5.178,35.996 5.467,36.476 5.797,36.928 L6.702,36.324 C6.40825622,35.9222035 6.15122208,35.4948173 5.934,35.047 L6.935,34.603 L6.935,34.603 Z M8.455,31.939 C8.42944605,31.6337563 8.43178909,31.326818 8.462,31.022 C8.52258076,30.4090124 8.69546027,29.8124086 8.972,29.262 L7.97,28.818 C8.135,28.485 8.33,28.168 8.552,27.87 L7.647,27.267 C7.13045347,27.9622239 6.74234887,28.7441903 6.501,29.576 C6.3190827,30.2086313 6.22717996,30.8637329 6.228,31.522 C6.22824211,32.1534525 6.31299445,32.7820324 6.48,33.391 L7.547,33.119 C7.645,33.479 7.776,33.826 7.936,34.158 L8.938,33.713 C8.66907424,33.1565382 8.50564593,32.5550406 8.456,31.939 L8.455,31.939 Z M10.678,38.194 C9.86340031,37.829656 9.11726702,37.3284006 8.472,36.712 C8.15525919,36.4079413 7.86581537,36.0766703 7.607,35.722 C7.34990323,35.3695498 7.12499878,34.994709 6.935,34.602 L5.935,35.047 C6.151,35.496 6.409,35.923 6.702,36.324 L5.797,36.928 C6.46822077,37.844799 7.29468326,38.6370794 8.239,39.269 C8.712,39.586 9.216,39.865 9.744,40.102 L10.211,39.148 C10.675,39.356 11.161,39.526 11.665,39.655 L11.951,38.639 C11.5147701,38.5271837 11.0888887,38.3783092 10.678,38.194 L10.678,38.194 Z M11.611,36.287 C11.0288,36.0252972 10.4957523,35.6657606 10.035,35.224 C9.58342983,34.7886692 9.21208744,34.2771849 8.938,33.713 L7.936,34.158 C7.77441139,33.8240142 7.64386227,33.4758832 7.546,33.118 L6.48,33.391 C6.70988338,34.230102 7.09188354,35.0198627 7.607,35.721 C8.1278456,36.4362606 8.77108481,37.0537702 9.507,37.545 L10.14,36.683 C10.7805544,37.1129031 11.4897142,37.4304525 12.237,37.622 L12.523,36.605 C12.210503,36.525151 11.9053948,36.4187646 11.611,36.287 L11.611,36.287 Z M19.056,38.407 C18.2035271,38.9795623 17.2591719,39.401681 16.264,39.655 L15.978,38.639 C15.0996193,38.8643493 14.1895453,38.9400761 13.286,38.863 C12.835519,38.825797 12.388953,38.7508676 11.951,38.639 L11.665,39.655 C11.1668097,39.5276148 10.6803827,39.358001 10.211,39.148 L9.744,40.102 C10.8037862,40.576151 11.9367132,40.8659774 13.094,40.959 C13.6733378,41.0070713 14.2556622,41.0070713 14.835,40.959 C16.5710965,40.8194964 18.2425346,40.2376776 19.69,39.269 L19.056,38.407 L19.056,38.407 Z M21.226,36.324 L20.322,35.721 C20.0632048,36.0756864 19.7737594,36.4069591 19.457,36.711 C18.8131077,37.3293677 18.0666746,37.8311628 17.251,38.194 C16.8401384,38.3783773 16.4142511,38.5272538 15.978,38.639 L16.264,39.655 C17.2585587,39.3999212 18.2026248,38.9779318 19.056,38.407 L19.69,39.269 C20.165,38.949 20.61,38.592 21.018,38.199 C21.4255109,37.8087504 21.7979431,37.3834482 22.131,36.928 L21.227,36.324 L21.226,36.324 Z M19.417,35.118 L18.512,34.514 C18.1405663,35.0262502 17.6810963,35.468452 17.155,35.82 L17.789,36.683 C17.473,36.896 17.137,37.083 16.784,37.241 L17.251,38.194 C18.0656669,37.8297774 18.8118199,37.3285087 19.457,36.712 C19.774,36.407 20.064,36.075 20.322,35.722 L19.417,35.118 L19.417,35.118 Z M17.789,36.683 L17.155,35.82 C16.6214851,36.1809586 16.0293625,36.4465679 15.405,36.605 C14.9346288,36.726323 14.4507654,36.7874779 13.965,36.787 C13.4786306,36.7866063 12.9942146,36.7254664 12.523,36.605 L12.237,37.622 C11.4897142,37.4304525 10.7805544,37.1129031 10.14,36.683 L9.506,37.545 C10.6321059,38.3012591 11.9338138,38.755135 13.286,38.863 C14.1895462,38.9387297 15.0993959,38.8630216 15.978,38.639 C16.4142511,38.5272538 16.8401384,38.3783773 17.251,38.194 L16.784,37.241 C17.1343691,37.0841389 17.4706066,36.8974517 17.789,36.683 L17.789,36.683 Z" id="Shape" fill="#52C1DB"></path>
            <path d="M20.281,27.267 C20.0206222,26.9167166 19.7301883,26.5898111 19.413,26.29 C19.0930109,25.9880399 18.7477494,25.7140387 18.381,25.471 L17.748,26.333 C17.4317032,26.1234222 17.0981701,25.9410996 16.751,25.788 L16.284,26.743 C16.8612376,26.997094 17.3911102,27.3474118 17.851,27.779 L17.07,28.522 L16.288,29.266 C16.5608543,29.5199171 16.7869601,29.819812 16.956,30.152 L18.958,29.262 L19.959,28.818 L20.96,28.373 C20.7670351,27.9848594 20.5397996,27.6147231 20.281,27.267" id="Shape" fill="#52C1DB"></path>
            <path d="M22.091,26.06 C21.7559052,25.609334 21.3821567,25.1887415 20.974,24.803 C20.5630053,24.4140353 20.1193764,24.0610726 19.648,23.748 C18.6938993,23.1139579 17.6388298,22.6469544 16.528,22.367 C15.9702053,22.2254792 15.4015602,22.1308165 14.828,22.084 L14.731,23.132 C15.2404239,23.1736402 15.7454997,23.2575965 16.241,23.383 L15.956,24.4 C16.8186149,24.6186545 17.6383597,24.9806944 18.381,25.471 C18.75,25.716 19.095,25.991 19.413,26.291 C20.0470638,26.8888847 20.5710438,27.5936175 20.961,28.373 L21.961,27.928 L22.962,27.483 C22.715,26.983 22.422,26.507 22.091,26.06" id="Shape" fill="#3B528A"></path>
            <path d="M17.217,24.834 C16.399274,24.4722391 15.52634,24.2511319 14.635,24.18 C13.7416063,24.1070403 12.8422949,24.1813635 11.973,24.4 L12.259,25.416 C11.8890807,25.5090767 11.5277719,25.6335276 11.179,25.788 L11.645,26.743 C12.5232963,26.354926 13.4853844,26.1949793 14.442,26.278 C15.0774734,26.3282232 15.699897,26.485435 16.283,26.743 L16.751,25.788 C17.101,25.943 17.434,26.125 17.748,26.333 L18.381,25.471 C18.0117827,25.2260147 17.6223762,25.0129117 17.217,24.834" id="Shape" fill="#00AEE8"></path>
            <path d="M14.731,23.132 L14.827,22.084 C14.2529611,22.0369844 13.6760389,22.0369844 13.102,22.084 C11.3798038,22.2204405 9.72069676,22.7930922 8.281,23.748 C7.80930369,24.0610617 7.36534174,24.4140231 6.954,24.803 L7.735,25.547 C8.10047747,25.2015209 8.49492414,24.8880378 8.914,24.61 L9.548,25.472 C10.289261,24.9789459 11.1094318,24.6163797 11.973,24.4 C12.6237624,24.2349227 13.2926275,24.1519445 13.964,24.153 C14.6356203,24.1532746 15.3046523,24.2362319 15.956,24.4 L16.242,23.383 C15.746471,23.2579337 15.2413956,23.1743119 14.732,23.133" id="Shape" fill="#3F8ABD"></path>
            <path d="M12.259,25.416 L11.973,24.4 C11.1102221,24.6186753 10.2904269,24.9810754 9.548,25.472 C8.815124,25.9553189 8.17215728,26.5627532 7.648,27.267 L8.552,27.87 C8.33009338,28.1679953 8.13531565,28.4852621 7.97,28.818 L8.971,29.262 C9.39504793,28.4246651 10.0303227,27.7125232 10.814,27.196 C11.076,27.023 11.354,26.871 11.645,26.743 L11.178,25.788 C11.526888,25.6338232 11.8881713,25.5093812 12.258,25.416" id="Shape" fill="#52C1DB"></path>
            <path d="M8.914,24.61 C8.493,24.89 8.098,25.203 7.735,25.547 L6.955,24.803 C6.54682502,25.1887238 6.17307508,25.6093179 5.838,26.06 C5.50542364,26.5076953 5.2135923,26.9842639 4.966,27.484 C4.47409377,28.4772031 4.16741149,29.5517771 4.061,30.655 L5.161,30.747 C5.209,30.252 5.301,29.77 5.435,29.303 L6.501,29.576 C6.74245918,28.7445408 7.13055947,27.9629217 7.647,27.268 C8.17106871,26.5633954 8.81404057,25.9556178 9.547,25.472 L8.914,24.61" id="Shape" fill="#00AEE8"></path>
            <path d="M6.935,34.603 C6.55907187,33.824626 6.3282941,32.9842018 6.254,32.123 C6.18088058,31.2660444 6.26458195,30.4029376 6.501,29.576 L5.435,29.303 C5.29961159,29.7749203 5.20789234,30.2582875 5.161,30.747 L4.061,30.655 C4.00885789,31.2039814 4.00618045,31.7565391 4.053,32.306 C4.14903004,33.4128789 4.44729985,34.4927512 4.933,35.492 C5.178,35.996 5.467,36.476 5.797,36.928 L6.702,36.324 C6.40825622,35.9222035 6.15122208,35.4948173 5.934,35.047 L6.935,34.603" id="Shape" fill="#3F8ABD"></path>
            <path d="M8.456,31.94 C8.43005265,31.6344553 8.43206099,31.3271794 8.462,31.022 C8.52258076,30.4090124 8.69546027,29.8124086 8.972,29.262 L7.97,28.818 C8.135,28.485 8.33,28.168 8.552,27.87 L7.647,27.267 C7.13045347,27.9622239 6.74234887,28.7441903 6.501,29.576 C6.3190827,30.2086313 6.22717996,30.8637329 6.228,31.522 C6.22824211,32.1534525 6.31299445,32.7820324 6.48,33.391 L7.547,33.119 C7.645,33.479 7.776,33.826 7.936,34.158 L8.938,33.713 C8.66907424,33.1565382 8.50564593,32.5550406 8.456,31.939" id="Shape" fill="#3B528A"></path>
            <path d="M10.678,38.194 C9.86340031,37.829656 9.11726702,37.3284006 8.472,36.712 C8.15525919,36.4079413 7.86581537,36.0766703 7.607,35.722 C7.34990323,35.3695498 7.12499878,34.994709 6.935,34.602 L5.935,35.047 C6.151,35.496 6.409,35.923 6.702,36.324 L5.797,36.928 C6.46822077,37.844799 7.29468326,38.6370794 8.239,39.269 C8.712,39.586 9.216,39.865 9.744,40.102 L10.211,39.148 C10.675,39.356 11.161,39.526 11.665,39.655 L11.951,38.639 C11.5147701,38.5271837 11.0888887,38.3783092 10.678,38.194" id="Shape" fill="#52C1DB"></path>
            <path d="M11.611,36.287 C11.0288,36.0252972 10.4957523,35.6657606 10.035,35.224 C9.58342983,34.7886692 9.21208744,34.2771849 8.938,33.713 L7.936,34.158 C7.77441139,33.8240142 7.64386227,33.4758832 7.546,33.118 L6.48,33.391 C6.70988338,34.230102 7.09188354,35.0198627 7.607,35.721 C8.1278456,36.4362606 8.77108481,37.0537702 9.507,37.545 L10.14,36.683 C10.7805544,37.1129031 11.4897142,37.4304525 12.237,37.622 L12.523,36.605 C12.210503,36.525151 11.9053948,36.4187646 11.611,36.287" id="Shape" fill="#00AEE8"></path>
            <path d="M19.056,38.407 C18.2035271,38.9795623 17.2591719,39.401681 16.264,39.655 L15.978,38.639 C15.0996193,38.8643493 14.1895453,38.9400761 13.286,38.863 C12.835519,38.825797 12.388953,38.7508676 11.951,38.639 L11.665,39.655 C11.1668097,39.5276148 10.6803827,39.358001 10.211,39.148 L9.744,40.102 C10.8037862,40.576151 11.9367132,40.8659774 13.094,40.959 C13.6733378,41.0070713 14.2556622,41.0070713 14.835,40.959 C16.5710965,40.8194964 18.2425346,40.2376776 19.69,39.269 L19.056,38.407" id="Shape" fill="#3B528A"></path>
            <path d="M21.227,36.324 L20.322,35.721 C20.0632048,36.0756864 19.7737594,36.4069591 19.457,36.711 C18.8131077,37.3293677 18.0666746,37.8311628 17.251,38.194 C16.8401384,38.3783773 16.4142511,38.5272538 15.978,38.639 L16.264,39.655 C17.2585587,39.3999212 18.2026248,38.9779318 19.056,38.407 L19.69,39.269 C20.165,38.949 20.61,38.592 21.018,38.199 C21.4255109,37.8087504 21.7979431,37.3834482 22.131,36.928 L21.227,36.324" id="Shape" fill="#00AEE8"></path>
            <path d="M19.417,35.118 L18.512,34.514 C18.1405663,35.0262502 17.6810963,35.468452 17.155,35.82 L17.789,36.683 C17.473,36.896 17.137,37.083 16.784,37.241 L17.251,38.194 C18.0656669,37.8297774 18.8118199,37.3285087 19.457,36.712 C19.774,36.407 20.064,36.075 20.322,35.722 L19.417,35.118" id="Shape" fill="#52C1DB"></path>
            <path d="M17.789,36.683 L17.155,35.82 C16.6214851,36.1809586 16.0293625,36.4465679 15.405,36.605 C14.9346288,36.726323 14.4507654,36.7874779 13.965,36.787 C13.4786306,36.7866063 12.9942146,36.7254664 12.523,36.605 L12.237,37.622 C11.4897142,37.4304525 10.7805544,37.1129031 10.14,36.683 L9.506,37.545 C10.6321059,38.3012591 11.9338138,38.755135 13.286,38.863 C14.1895462,38.9387297 15.0993959,38.8630216 15.978,38.639 C16.4142511,38.5272538 16.8401384,38.3783773 17.251,38.194 L16.784,37.241 C17.1343691,37.0841389 17.4706066,36.8974517 17.789,36.683" id="Shape" fill="#3F8ABD"></path>
            <circle id="g" fill="#000000" cx="41.5" cy="13.5" r="13.5"></circle>
            <circle id="g" stroke="#E1E4EB" stroke-width="0.6" fill="#FFFFFF" cx="41.5" cy="13.5" r="13.5"></circle>
            <circle id="i" fill="#000000" cx="74.5" cy="13.5" r="13.5"></circle>
            <circle id="i" stroke="#E1E4EB" stroke-width="0.6" fill="#FFFFFF" cx="74.5" cy="13.5" r="13.5"></circle>
            <polyline id="Shape" fill="#4BB8E4" points="71.628 20.677 72.732 16.697 82.982 6.031 70.553 15.721 71.628 20.677"></polyline>
            <polyline id="Shape" fill="#3384AB" points="71.628 20.677 74.268 17.597 72.732 16.697 71.628 20.677"></polyline>
            <path d="M74.268,17.597 L80.405,21.193 L82.983,6.031 L72.733,16.697 L74.268,17.597 M70.553,15.722 L82.983,6.031 L64.016,14.006 L70.553,15.722" id="Shape" fill="#5FCCF5"></path>
            <circle id="k" fill="#000000" cx="100.5" cy="31.5" r="13.5"></circle>
            <circle id="k" stroke="#E1E4EB" stroke-width="0.6" fill="#FFFFFF" cx="100.5" cy="31.5" r="13.5"></circle>
            <path d="M105.515,37.216 C105.42,37.627 105.37,37.877 105.165,38.153 C105.030445,38.3387727 104.807232,38.4389517 104.579,38.416 C104.381,38.393 104.189,38.309 103.997,38.234 C101.772,37.378 99.976,35.87 98.161,34.389 C97.729,34.036 96.816,33.219 96.298,32.79 C97.56,31.898 98.082,31.346 98.082,31.346 C100.115,33.112 102.486,35.179 104.96,36.212 C105.355,36.377 105.724,36.324 105.515,37.216 M103,30.581 C102.428,30.129 101.427,29.378 100.861,28.941 C99.425,27.834 97.893,26.909 96.136,26.382 C95.184,26.097 95.059,25.14 95.779,24.295 C95.909,24.141 96.114,24.041 96.311,24.082 C99.584,24.767 102.061,26.772 104.82,29.304 C103.886,29.797 103,30.581 103,30.581" id="Shape" fill="#FEC32D"></path>
            <path d="M101.029,32.957 C103.072,30.888 107.041,28.389 109.042,28.297 C109.276231,28.2863645 109.497835,28.4034816 109.621,28.603 C109.818,28.923 109.881,29.305 109.941,29.682 C109.997,30.045 109.807,30.356 109.463,30.452 C107.072,31.122 104.75,32.75 102.865,34.305 C102.231,34.005 101.029,32.957 101.029,32.957 M99.913,29.04 C97.565,31 95.018,33.34 92.264,34.176 C92.0319061,34.2495205 91.7781908,34.1860917 91.608,34.012 C91.383,33.775 91.296,33.532 91.205,33.293 C90.887,32.463 90.977,32.22 91.802,31.903 C93.738,31.158 95.349,29.919 96.908,28.595 C97.144,28.395 97.612,28.009 97.871,27.797 C98.725,28.026 99.913,29.04 99.913,29.04 M95.683,36.273 C96.357,35.928 97.393,35.521 98.069,35.141 C98.615,35.622 99.879,36.581 99.879,36.581 C98.962,37.194 97.501,38.106 96.483,38.369 C96.2356263,38.4300325 95.9756137,38.3385175 95.821,38.136 C95.523,37.751 95.351,37.342 95.336,36.856 C95.3299463,36.6111115 95.4648565,36.3844469 95.683,36.273 M101.142,25.534 C102.346,24.806 103.699,24.259 104.627,24.061 C104.883773,24.0069524 105.147234,24.1171919 105.289,24.338 C105.555,24.757 105.666,25.178 105.639,25.638 C105.626519,25.8648914 105.498027,26.0693464 105.299,26.179 C104.718,26.497 103.681,26.745 103.086,27.005 C103.086,27.005 102.035,26.118 101.142,25.534" id="Shape" fill="#2C6DB0"></path>
            <path d="M108.3,31.546 C109.925,32.177 110.525,32.391 109.34,34.029 C109.2,34.221 108.98,34.222 108.749,34.167 C108.009,33.993 106.697,33.237 105.971,32.814 C107.31,31.888 108.301,31.546 108.301,31.546 M92.905,30.812 C92.504,30.698 91.741,30.577 91.391,30.364 C91.2323457,30.2659161 91.126779,30.101129 91.104,29.916 C91.046,29.452 91.166,29.034 91.392,28.613 C91.5164454,28.3827844 91.7678292,28.2507684 92.028,28.279 C92.808,28.365 94.215,28.954 94.978,29.303 C93.874,30.319 92.905,30.813 92.905,30.813" id="Shape" fill="#FEC32D"></path>
            <path d="M20.872,91.75 L58.932,119.694 L41.155,64.362 M74.8,65.913 L59.116,119.523 L101.79,84.762" id="Shape" stroke="#D0D0D0" stroke-width="2" transform="translate(61.331000, 92.028000) scale(1, -1) translate(-61.331000, -92.028000) "></path>
            <circle id="e" stroke="#E1E4EB" stroke-width="0.6" fill="#FFFFFF" transform="translate(13.500000, 95.500000) scale(1, -1) translate(-13.500000, -95.500000) " cx="13.5" cy="95.5" r="13.5"></circle>
            <circle id="g" stroke="#E1E4EB" stroke-width="0.6" fill="#FFFFFF" transform="translate(41.500000, 116.500000) scale(1, -1) translate(-41.500000, -116.500000) " cx="41.5" cy="116.5" r="13.5"></circle>
            <circle id="i" stroke="#E1E4EB" stroke-width="0.6" fill="#FFFFFF" transform="translate(73.500000, 116.500000) scale(1, -1) translate(-73.500000, -116.500000) " cx="73.5" cy="116.5" r="13.5"></circle>
            <circle id="k" stroke="#E1E4EB" stroke-width="0.6" fill="#FFFFFF" transform="translate(100.500000, 95.500000) scale(1, -1) translate(-100.500000, -95.500000) " cx="100.5" cy="95.5" r="13.5"></circle>
            <circle id="b" fill="#000000" cx="57.5" cy="64.5" r="32.5"></circle>
            <circle id="b" stroke="#E1E4EB" stroke-width="0.6" fill="#FFFFFF" cx="57.5" cy="64.5" r="32.5"></circle>
            <path d="M42,53.993 C42.0049573,52.3393372 43.3463302,51.0010943 45,51 L70,51 C71.657,51 73,52.339 73,53.993 L73,75.007 C72.9950427,76.6606628 71.6536698,77.9989057 70,78 L45,78 C43.343,78 42,76.661 42,75.007 L42,53.993 L42,53.993 Z M44,57 L71,57 L71,75.005 C71,75.555 70.554,76 70.007,76 L44.993,76 C44.4447143,75.9978013 44.0010955,75.553289 44,75.005 L44,57 L44,57 Z M63.149,59.602 L65.447,61.53 L56.447,72.255 L54.15,70.326 L63.149,59.602 L63.149,59.602 Z M44,54 C44,53.448 44.444,53 45,53 C45.552,53 46,53.444 46,54 C46,54.552 45.556,55 45,55 C44.448,55 44,54.556 44,54 L44,54 Z M47,54 C47,53.448 47.444,53 48,53 C48.552,53 49,53.444 49,54 C49,54.552 48.556,55 48,55 C47.448,55 47,54.556 47,54 L47,54 Z M50,54 C50,53.448 50.444,53 51,53 C51.552,53 52,53.444 52,54 C52,54.552 51.556,55 51,55 C50.448,55 50,54.556 50,54 L50,54 Z M51.482,64.172 L56.078,68.028 L54.15,70.326 L49.553,66.47 L51.482,64.172 L51.482,64.172 Z" id="c" fill="#D8AB65"></path>
            <g id="ruby" transform="translate(32.000000, 110.000000)" fill="#CC342D">
                <g id="icons">
                    <g>
                        <g id="ruby">
                            <g id="tool-ruby">
                                <g id="Layer_1">
                                    <g id="Group">
                                        <polygon id="Shape" points="14.3479857 0.131868132 10.2306857 0.131868132 13.1588571 3.92202198"></polygon>
                                        <polygon id="Shape" points="5.82621431 3.92202198 8.75438569 0.131868132 4.63735714 0.131868132"></polygon>
                                        <polygon id="Shape" points="9.49267144 1.08738461 6.35441431 5.14945055 12.6306571 5.14945055"></polygon>
                                        <polygon id="Shape" points="12.4137857 6.29670328 6.57128569 6.29670328 9.49267144 15.6084395"></polygon>
                                        <polygon id="Shape" points="14.0081571 5.14945055 18.9522286 5.14945055 15.4076429 0.688615386"></polygon>
                                        <polygon id="Shape" points="13.6482429 6.29670328 10.7018857 15.6883516 18.8775857 6.29670328"></polygon>
                                        <polygon id="Shape" points="0.0477714286 5.14945055 4.97691429 5.14945055 3.57797143 0.690197801"></polygon>
                                        <polygon id="Shape" points="5.33682856 6.29670328 0.0901142856 6.29670328 8.28427144 15.6923077"></polygon>
                                    </g>
                                </g>
                            </g>
                        </g>
                    </g>
                </g>
            </g>
            <g id="Docker" transform="translate(89.000000, 89.000000)">
                <g id="Group">
                    <path d="M13.2679333,4.33990814 L15.3241333,4.33990814 L15.3241333,6.48409449 L16.3637333,6.48409449 C16.8436667,6.48409449 17.3374,6.39664042 17.7928,6.23891076 C18.0166667,6.16238845 18.2666,6.05463255 18.4874,5.9187664 C18.1976,5.53146982 18.0488667,5.04422572 18.0044,4.56322835 C17.9446,3.90888451 18.0749333,3.05620735 18.5088667,2.54553806 L18.7250667,2.29098425 L18.9826667,2.50181102 C19.6312667,3.03278215 20.1771333,3.77614173 20.2737333,4.62257218 C21.0542,4.38832021 21.9711333,4.442979 22.6611333,4.84901575 L22.9432667,5.01455381 L22.7960667,5.30971129 C22.2134,6.46847769 20.9959333,6.82766404 19.8060667,6.76363517 C18.0258667,11.2862598 14.1480667,13.4273228 9.44686667,13.4273228 C7.01806667,13.4273228 4.79013333,12.5012467 3.52053333,10.3039633 L3.49906667,10.2680446 L3.31353333,9.88387139 C2.8842,8.9171916 2.7416,7.85681102 2.8382,6.79799213 L2.86733333,6.48097113 L4.62606667,6.48097113 L4.62606667,4.33990814 L6.68533333,4.33990814 L6.68533333,2.2410105 L10.7992667,2.2410105 L10.7992667,0.143674541 L13.2679333,0.143674541 L13.2679333,4.33990814 L13.2679333,4.33990814 Z" id="Shape" fill="#3A4E55"></path>
                    <path d="M19.9318,5.13324147 C20.0698,4.04006562 19.2678667,3.18114173 18.7695333,2.77354331 C18.1960667,3.44975066 18.1071333,5.22069554 19.0072,5.96717848 C18.5058,6.4216273 17.4478,6.83391076 16.3652667,6.83391076 L3.18166667,6.83391076 C3.07586667,7.98643045 3.2752,9.0483727 3.72753333,9.95727034 L3.8778,10.236811 C3.97286667,10.4007874 4.07713333,10.5600787 4.18906667,10.7131234 C4.73033333,10.749042 5.2302,10.7615354 5.68713333,10.7506037 C6.58566667,10.7303018 7.3186,10.6225459 7.87366667,10.4257743 C7.95646667,10.3961024 8.04693333,10.4413911 8.07453333,10.5257218 C8.10366667,10.6100525 8.0592,10.7021916 7.9764,10.7318635 C7.9028,10.7584121 7.82613333,10.7818373 7.7464,10.8052625 C7.3094,10.9333202 6.8402,11.0176509 6.23453333,11.0566929 C6.2698,11.0566929 6.19773333,11.061378 6.1962,11.0629396 C6.17626667,11.0645013 6.1502,11.0676247 6.12873333,11.0676247 C5.89106667,11.0816798 5.63346667,11.0848031 5.37126667,11.0848031 C5.08453333,11.0848031 4.80086667,11.0785564 4.48346667,11.0629396 L4.4758,11.0676247 C5.57366667,12.3263386 7.291,13.0821916 9.4438,13.0821916 C13.9993333,13.0821916 17.8648667,11.022336 19.5760667,6.3982021 C20.7904667,6.52469816 21.9573333,6.20923885 22.4878667,5.15354331 C21.6445333,4.65380577 20.5574,4.81153543 19.9318,5.13324147 L19.9318,5.13324147 Z" id="Shape" fill="#08AADA"></path>
                    <path d="M19.9318,5.13324147 C20.0698,4.04006562 19.2678667,3.18114173 18.7695333,2.77354331 C18.1960667,3.44975066 18.1071333,5.22069554 19.0072,5.96717848 C18.5058,6.4216273 17.4478,6.83391076 16.3652667,6.83391076 L3.96213333,6.83391076 C3.90846667,8.59860892 4.55093333,9.94009186 5.68713333,10.749042 C6.58566667,10.7287402 7.3186,10.6209843 7.87366667,10.4242126 C7.95646667,10.3945407 8.04693333,10.4398294 8.07453333,10.5241601 C8.10366667,10.6084908 8.0592,10.7006299 7.9764,10.7303018 C7.9028,10.7568504 7.82613333,10.7802756 7.7464,10.8037008 C7.3094,10.9317585 6.80033333,11.027021 6.19466667,11.066063 L6.17933333,11.0520079 C7.72953333,11.8625197 9.97893333,11.8593963 12.5564667,10.8505512 C15.4468,9.71833333 18.1362667,7.56165354 20.0130667,5.09419948 C19.9854667,5.10513123 19.9578667,5.11918635 19.9318,5.13324147 L19.9318,5.13324147 Z" id="Shape" fill="#2BB8EB"></path>
                    <path d="M3.2062,8.23317585 C3.28746667,8.85003937 3.46533333,9.42942257 3.72753333,9.95570866 L3.8778,10.2352493 C3.97286667,10.3992257 4.07713333,10.5585171 4.18906667,10.7115617 C4.73186667,10.7474803 5.2302,10.7599738 5.68866667,10.749042 C6.5872,10.7287402 7.32013333,10.6209843 7.8752,10.4242126 C7.958,10.3945407 8.04846667,10.4398294 8.07606667,10.5241601 C8.1052,10.6084908 8.06073333,10.7006299 7.97793333,10.7303018 C7.90433333,10.7568504 7.82766667,10.7802756 7.74793333,10.8037008 C7.31093333,10.9317585 6.8034,11.022336 6.19926667,11.0598163 C6.1778,11.061378 6.14253333,11.061378 6.12106667,11.0629396 C5.8834,11.0769948 5.62886667,11.0848031 5.36513333,11.0848031 C5.0784,11.0848031 4.784,11.0785564 4.4666,11.0629396 C5.56446667,12.3216535 7.29253333,13.0790682 9.44533333,13.0790682 C13.3461333,13.0790682 16.7394,11.5689239 18.7082,8.23317585 L3.2062,8.23317585 L3.2062,8.23317585 Z" id="Shape" fill="#088CB9"></path>
                    <path d="M4.08173333,8.23317585 C4.3148,9.31698163 4.876,10.1680971 5.68866667,10.749042 C6.5872,10.7287402 7.32013333,10.6209843 7.8752,10.4242126 C7.958,10.3945407 8.04846667,10.4398294 8.07606667,10.5241601 C8.1052,10.6084908 8.06073333,10.7006299 7.97793333,10.7303018 C7.90433333,10.7568504 7.82766667,10.7802756 7.74793333,10.8037008 C7.31093333,10.9317585 6.79266667,11.022336 6.18853333,11.0598163 C7.73873333,11.8703281 9.98046667,11.8593963 12.558,10.8489895 C14.1174,10.2383727 15.6185333,9.32791339 16.9648,8.23317585 L4.08173333,8.23317585 L4.08173333,8.23317585 Z" id="Shape" fill="#069BC6"></path>
                    <path d="M6.46453333,4.83964567 L6.6056,4.83964567 L6.6056,6.35447507 L6.46453333,6.35447507 L6.46453333,4.83964567 L6.46453333,4.83964567 Z M6.19466667,4.83964567 L6.34033333,4.83964567 L6.34033333,6.35447507 L6.19466667,6.35447507 L6.19466667,4.83964567 L6.19466667,4.83964567 Z M5.9248,4.83964567 L6.07046667,4.83964567 L6.07046667,6.35447507 L5.9248,6.35447507 L5.9248,4.83964567 L5.9248,4.83964567 Z M5.6534,4.83964567 L5.79906667,4.83964567 L5.79906667,6.35447507 L5.6534,6.35447507 L5.6534,4.83964567 L5.6534,4.83964567 Z M5.38353333,4.83964567 L5.5292,4.83964567 L5.5292,6.35447507 L5.38353333,6.35447507 L5.38353333,4.83964567 L5.38353333,4.83964567 Z M5.1198,4.83964567 L5.26086667,4.83964567 L5.26086667,6.35447507 L5.1198,6.35447507 L5.1198,4.83964567 L5.1198,4.83964567 Z M4.97106667,4.68816273 L6.75433333,4.68816273 L6.75433333,6.50595801 L4.97106667,6.50595801 L4.97106667,4.68816273 L4.97106667,4.68816273 Z M8.52073333,2.74230971 L8.6618,2.74230971 L8.6618,4.25713911 L8.52073333,4.25713911 L8.52073333,2.74230971 L8.52073333,2.74230971 Z M8.25086667,2.74230971 L8.39653333,2.74230971 L8.39653333,4.25713911 L8.25086667,4.25713911 L8.25086667,2.74230971 L8.25086667,2.74230971 Z M7.981,2.74230971 L8.12666667,2.74230971 L8.12666667,4.25713911 L7.981,4.25713911 L7.981,2.74230971 L7.981,2.74230971 Z M7.71113333,2.74230971 L7.8568,2.74230971 L7.8568,4.25713911 L7.71113333,4.25713911 L7.71113333,2.74230971 L7.71113333,2.74230971 Z M7.44126667,2.74230971 L7.58693333,2.74230971 L7.58693333,4.25713911 L7.44126667,4.25713911 L7.44126667,2.74230971 L7.44126667,2.74230971 Z M7.176,2.74230971 L7.31706667,2.74230971 L7.31706667,4.25713911 L7.176,4.25713911 L7.176,2.74230971 L7.176,2.74230971 Z M7.02726667,2.59082677 L8.81053333,2.59082677 L8.81053333,4.40862205 L7.02726667,4.40862205 L7.02726667,2.59082677 L7.02726667,2.59082677 Z" id="Shape" fill="#00ACD2"></path>
                    <path d="M8.52073333,4.83964567 L8.6618,4.83964567 L8.6618,6.35447507 L8.52073333,6.35447507 L8.52073333,4.83964567 L8.52073333,4.83964567 Z M8.25086667,4.83964567 L8.39653333,4.83964567 L8.39653333,6.35447507 L8.25086667,6.35447507 L8.25086667,4.83964567 L8.25086667,4.83964567 Z M7.981,4.83964567 L8.12666667,4.83964567 L8.12666667,6.35447507 L7.981,6.35447507 L7.981,4.83964567 L7.981,4.83964567 Z M7.71113333,4.83964567 L7.8568,4.83964567 L7.8568,6.35447507 L7.71113333,6.35447507 L7.71113333,4.83964567 L7.71113333,4.83964567 Z M7.44126667,4.83964567 L7.58693333,4.83964567 L7.58693333,6.35447507 L7.44126667,6.35447507 L7.44126667,4.83964567 L7.44126667,4.83964567 Z M7.176,4.83964567 L7.31706667,4.83964567 L7.31706667,6.35447507 L7.176,6.35447507 L7.176,4.83964567 L7.176,4.83964567 Z M7.02726667,4.68816273 L8.81053333,4.68816273 L8.81053333,6.50595801 L7.02726667,6.50595801 L7.02726667,4.68816273 L7.02726667,4.68816273 Z" id="Shape" fill="#26C2EE"></path>
                    <path d="M10.5784667,4.83964567 L10.7195333,4.83964567 L10.7195333,6.35447507 L10.5784667,6.35447507 L10.5784667,4.83964567 L10.5784667,4.83964567 Z M10.3086,4.83964567 L10.4542667,4.83964567 L10.4542667,6.35447507 L10.3086,6.35447507 L10.3086,4.83964567 L10.3086,4.83964567 Z M10.0387333,4.83964567 L10.1844,4.83964567 L10.1844,6.35447507 L10.0387333,6.35447507 L10.0387333,4.83964567 L10.0387333,4.83964567 Z M9.76733333,4.83964567 L9.913,4.83964567 L9.913,6.35447507 L9.76733333,6.35447507 L9.76733333,4.83964567 L9.76733333,4.83964567 Z M9.49746667,4.83964567 L9.64313333,4.83964567 L9.64313333,6.35447507 L9.49746667,6.35447507 L9.49746667,4.83964567 L9.49746667,4.83964567 Z M9.23373333,4.83964567 L9.3748,4.83964567 L9.3748,6.35447507 L9.23373333,6.35447507 L9.23373333,4.83964567 L9.23373333,4.83964567 Z M9.085,4.68816273 L10.8682667,4.68816273 L10.8682667,6.50595801 L9.085,6.50595801 L9.085,4.68816273 L9.085,4.68816273 Z" id="Shape" fill="#00ACD2"></path>
                    <path d="M10.5784667,2.74230971 L10.7195333,2.74230971 L10.7195333,4.25713911 L10.5784667,4.25713911 L10.5784667,2.74230971 L10.5784667,2.74230971 Z M10.3086,2.74230971 L10.4542667,2.74230971 L10.4542667,4.25713911 L10.3086,4.25713911 L10.3086,2.74230971 L10.3086,2.74230971 Z M10.0387333,2.74230971 L10.1844,2.74230971 L10.1844,4.25713911 L10.0387333,4.25713911 L10.0387333,2.74230971 L10.0387333,2.74230971 Z M9.76733333,2.74230971 L9.913,2.74230971 L9.913,4.25713911 L9.76733333,4.25713911 L9.76733333,2.74230971 L9.76733333,2.74230971 Z M9.49746667,2.74230971 L9.64313333,2.74230971 L9.64313333,4.25713911 L9.49746667,4.25713911 L9.49746667,2.74230971 L9.49746667,2.74230971 Z M9.23373333,2.74230971 L9.3748,2.74230971 L9.3748,4.25713911 L9.23373333,4.25713911 L9.23373333,2.74230971 L9.23373333,2.74230971 Z M9.085,2.59082677 L10.8682667,2.59082677 L10.8682667,4.40862205 L9.085,4.40862205 L9.085,2.59082677 L9.085,2.59082677 Z M12.6346667,4.83964567 L12.7757333,4.83964567 L12.7757333,6.35447507 L12.6346667,6.35447507 L12.6346667,4.83964567 L12.6346667,4.83964567 Z M12.3648,4.83964567 L12.5104667,4.83964567 L12.5104667,6.35447507 L12.3648,6.35447507 L12.3648,4.83964567 L12.3648,4.83964567 Z M12.0949333,4.83964567 L12.2406,4.83964567 L12.2406,6.35447507 L12.0949333,6.35447507 L12.0949333,4.83964567 L12.0949333,4.83964567 Z M11.8250667,4.83964567 L11.9707333,4.83964567 L11.9707333,6.35447507 L11.8250667,6.35447507 L11.8250667,4.83964567 L11.8250667,4.83964567 Z M11.5552,4.83964567 L11.7008667,4.83964567 L11.7008667,6.35447507 L11.5552,6.35447507 L11.5552,4.83964567 L11.5552,4.83964567 Z M11.2899333,4.83964567 L11.431,4.83964567 L11.431,6.35447507 L11.2899333,6.35447507 L11.2899333,4.83964567 L11.2899333,4.83964567 Z M11.1412,4.68816273 L12.9244667,4.68816273 L12.9244667,6.50595801 L11.1412,6.50595801 L11.1412,4.68816273 L11.1412,4.68816273 Z" id="Shape" fill="#26C2EE"></path>
                    <path d="M12.6346667,2.74230971 L12.7757333,2.74230971 L12.7757333,4.25713911 L12.6346667,4.25713911 L12.6346667,2.74230971 L12.6346667,2.74230971 Z M12.3648,2.74230971 L12.5104667,2.74230971 L12.5104667,4.25713911 L12.3648,4.25713911 L12.3648,2.74230971 L12.3648,2.74230971 Z M12.0949333,2.74230971 L12.2406,2.74230971 L12.2406,4.25713911 L12.0949333,4.25713911 L12.0949333,2.74230971 L12.0949333,2.74230971 Z M11.8250667,2.74230971 L11.9707333,2.74230971 L11.9707333,4.25713911 L11.8250667,4.25713911 L11.8250667,2.74230971 L11.8250667,2.74230971 Z M11.5552,2.74230971 L11.7008667,2.74230971 L11.7008667,4.25713911 L11.5552,4.25713911 L11.5552,2.74230971 L11.5552,2.74230971 Z M11.2899333,2.74230971 L11.431,2.74230971 L11.431,4.25713911 L11.2899333,4.25713911 L11.2899333,2.74230971 L11.2899333,2.74230971 Z M11.1412,2.59082677 L12.9244667,2.59082677 L12.9244667,4.40862205 L11.1412,4.40862205 L11.1412,2.59082677 L11.1412,2.59082677 Z" id="Shape" fill="#00ACD2"></path>
                    <path d="M12.6346667,0.644973753 L12.7757333,0.644973753 L12.7757333,2.15980315 L12.6346667,2.15980315 L12.6346667,0.644973753 L12.6346667,0.644973753 Z M12.3648,0.644973753 L12.5104667,0.644973753 L12.5104667,2.15980315 L12.3648,2.15980315 L12.3648,0.644973753 L12.3648,0.644973753 Z M12.0949333,0.644973753 L12.2406,0.644973753 L12.2406,2.15980315 L12.0949333,2.15980315 L12.0949333,0.644973753 L12.0949333,0.644973753 Z M11.8250667,0.644973753 L11.9707333,0.644973753 L11.9707333,2.15980315 L11.8250667,2.15980315 L11.8250667,0.644973753 L11.8250667,0.644973753 Z M11.5552,0.644973753 L11.7008667,0.644973753 L11.7008667,2.15980315 L11.5552,2.15980315 L11.5552,0.644973753 L11.5552,0.644973753 Z M11.2899333,0.644973753 L11.431,0.644973753 L11.431,2.15980315 L11.2899333,2.15980315 L11.2899333,0.644973753 L11.2899333,0.644973753 Z M11.1412,0.493490814 L12.9244667,0.493490814 L12.9244667,2.31128609 L11.1412,2.31128609 L11.1412,0.493490814 L11.1412,0.493490814 Z" id="Shape" fill="#26C2EE"></path>
                    <path d="M14.6924,4.83964567 L14.8334667,4.83964567 L14.8334667,6.35447507 L14.6924,6.35447507 L14.6924,4.83964567 L14.6924,4.83964567 Z M14.4225333,4.83964567 L14.5682,4.83964567 L14.5682,6.35447507 L14.4225333,6.35447507 L14.4225333,4.83964567 L14.4225333,4.83964567 Z M14.1526667,4.83964567 L14.2983333,4.83964567 L14.2983333,6.35447507 L14.1526667,6.35447507 L14.1526667,4.83964567 L14.1526667,4.83964567 Z M13.8812667,4.83964567 L14.0269333,4.83964567 L14.0269333,6.35447507 L13.8812667,6.35447507 L13.8812667,4.83964567 L13.8812667,4.83964567 Z M13.6114,4.83964567 L13.7570667,4.83964567 L13.7570667,6.35447507 L13.6114,6.35447507 L13.6114,4.83964567 L13.6114,4.83964567 Z M13.3476667,4.83964567 L13.4887333,4.83964567 L13.4887333,6.35447507 L13.3476667,6.35447507 L13.3476667,4.83964567 L13.3476667,4.83964567 Z M13.1989333,4.68816273 L14.9822,4.68816273 L14.9822,6.50595801 L13.1989333,6.50595801 L13.1989333,4.68816273 L13.1989333,4.68816273 Z" id="Shape" fill="#00ACD2"></path>
                    <path d="M8.6986,9.45440945 C8.97,9.45440945 9.1908,9.67929134 9.1908,9.95570866 C9.1908,10.232126 8.97,10.4570079 8.6986,10.4570079 C8.4272,10.4570079 8.2064,10.232126 8.2064,9.95570866 C8.2064,9.67929134 8.4272,9.45440945 8.6986,9.45440945" id="Shape" fill="#D4EDF1"></path>
                    <path d="M8.6986,9.59652231 C8.74306667,9.59652231 8.786,9.60589239 8.82586667,9.62150919 C8.78293333,9.64649606 8.7538,9.69490814 8.7538,9.74800525 C8.7538,9.8292126 8.8182,9.89480315 8.89793333,9.89480315 C8.9516,9.89480315 8.99913333,9.86356955 9.02366667,9.81828084 C9.04053333,9.86044619 9.05126667,9.90729659 9.05126667,9.95570866 C9.05126667,10.154042 8.89333333,10.314895 8.6986,10.314895 C8.50386667,10.314895 8.34593333,10.154042 8.34593333,9.95570866 C8.34746667,9.75737533 8.50386667,9.59652231 8.6986,9.59652231 M0,8.41433071 L22.8788667,8.41433071 C22.3805333,8.28471129 21.3026,8.11136483 21.4804667,7.44608924 C20.5742667,8.51427822 18.3908,8.19569554 17.8388,7.66940945 C17.2254667,8.57674541 13.6512667,8.23161417 13.4013333,7.52417323 C12.6316,8.4455643 10.2472667,8.4455643 9.47753333,7.52417323 C9.2276,8.23161417 5.65493333,8.57674541 5.04006667,7.66940945 C4.48806667,8.19725722 2.3046,8.5158399 1.3984,7.44608924 C1.57626667,8.11136483 0.498333333,8.28627297 8.17124146e-16,8.41433071" id="Shape" fill="#3A4E55"></path>
                    <path d="M10.0065333,13.0681365 C8.78906667,12.4793832 8.12053333,11.6782415 7.74793333,10.8021391 C7.2956,10.9333202 6.75126667,11.0176509 6.11953333,11.0535696 C5.88186667,11.0676247 5.6304,11.0738714 5.3682,11.0738714 C5.0646,11.0738714 4.74566667,11.0645013 4.4114,11.0473228 C5.52766667,12.1857874 6.90306667,13.0618898 9.44686667,13.0775066 C9.63393333,13.0790682 9.821,13.0759449 10.0065333,13.0681365 L10.0065333,13.0681365 Z" id="Shape" fill="#C0DBE0"></path>
                    <path d="M8.20026667,11.6095276 C8.0316,11.3768373 7.86753333,11.0832415 7.74793333,10.8021391 C7.2956,10.9333202 6.75126667,11.0176509 6.11953333,11.0535696 C6.55346667,11.2956299 7.17446667,11.5173885 8.20026667,11.6095276 L8.20026667,11.6095276 Z" id="Shape" fill="#D4EDF1"></path>
                </g>
            </g>
            <g id="GoLang" transform="translate(7.000000, 87.000000)">
                <g id="Group">
                    <path d="M0.208079473,9.97946337 C0.23872573,10.6668449 0.870038615,10.3465118 1.15198417,10.1329563 C1.42167123,9.92607445 1.50135149,10.0995883 1.5258685,9.69917183 C1.54425626,9.43222751 1.56877326,9.17195681 1.55651476,8.9050125 C1.14585492,8.86497088 0.704548828,8.97174858 0.367440007,9.23869289 C0.189691719,9.37216505 -0.129029348,9.81262314 0.208079473,9.97946337" id="Shape" fill="#F6D2A2"></path>
                    <path d="M9.75875484,16.2554676 C10.1276265,16.5079297 10.8046693,17.2704683 10.2490272,17.641433 C9.7167315,18.1772709 9.41789883,17.0489199 8.95097278,16.8943513 C9.15175097,16.5903663 9.40389103,16.3121427 9.75875484,16.2554676 L9.75875484,16.2554676 L9.75875484,16.2554676 L9.75875484,16.2554676 Z" id="Shape" fill="#F6D2A2"></path>
                    <path d="M3.15642023,17.1158996 C2.72217899,17.1880317 2.47937743,17.6208238 2.1151751,17.8423722 C1.77431907,18.0639206 1.64357977,17.7702402 1.6155642,17.7084127 C1.56420233,17.6826513 1.5688716,17.7341741 1.4848249,17.641433 C1.16731517,17.0901382 1.81167315,16.6882598 2.14785992,16.4151885 C2.61478599,16.3121427 2.90894941,16.7603918 3.15642023,17.1158996 L3.15642023,17.1158996 L3.15642023,17.1158996 L3.15642023,17.1158996 Z" id="Shape" fill="#F6D2A2"></path>
                    <path d="M12.1316849,9.91248363 C12.1010128,10.5998652 11.4691672,10.279532 11.1869836,10.0659766 C10.917069,9.85909478 10.8373215,10.0326086 10.8127838,9.63219208 C10.7943805,9.36524783 10.7698429,9.10497712 10.7821117,8.8380328 C11.1931181,8.79799111 11.6347966,8.90476888 11.9721899,9.1717132 C12.1439538,9.30518529 12.4690783,9.74564346 12.1316849,9.91248363" id="Shape" fill="#F6D2A2"></path>
                    <path d="M10.5338521,3.19441836 C12.2007782,2.54523011 10.8980545,0.0257614384 9.44591438,1.13865558 C8.49338522,0.237005233 7.18132294,0.0721320274 5.80389103,0.0721320274 C4.45447471,0.190634644 3.17042802,0.46370589 2.27392996,1.32929022 C0.826459144,0.298832685 -0.508949414,2.77193077 1.19066148,3.39535758 C0.714396886,5.43566348 1.25603113,7.51718772 1.18132296,9.59355962 C1.11128405,11.4586878 0.667704281,13.9575473 1.60622568,15.6320408 C2.40466926,17.0643768 4.1229572,17.5744533 5.53774317,17.6311284 C7.34474709,17.7032604 9.53463033,17.2137931 10.4124514,15.2816852 C11.2529183,13.4423185 11.0194553,11.1495505 10.9120622,9.16591976 C10.8046693,7.16167986 11.0054475,5.12652623 10.5338521,3.19441836 L10.5338521,3.19441836 L10.5338521,3.19441836 Z" id="Shape" fill="#69D7E2"></path>
                    <path d="M11.9346303,9.3514021 C11.8879378,9.2432041 11.7992218,9.11954917 11.7151751,9.05256941 C11.5003891,8.88254395 11.2249027,8.78980278 10.9400778,8.77949819 C10.9307393,8.46005633 10.9214008,8.10970081 10.9214008,7.66660407 L10.9214008,7.26472562 C10.9167315,5.99726286 10.9027237,5.44081578 10.8373541,4.74525694 C10.7859922,4.19911445 10.7066148,3.69419026 10.5945525,3.22017979 C10.9727626,3.06045888 11.2202335,2.79769221 11.3182879,2.45764122 C11.4116731,2.14335167 11.3649805,1.78784382 11.2062257,1.47355428 C11.0428016,1.16441702 10.7813229,0.932564069 10.477821,0.839822891 C10.1509728,0.741929426 9.79610897,0.814061452 9.45525291,1.06652355 C9.15175097,0.783147724 8.80155642,0.566751641 8.40933853,0.401878438 C7.71361866,0.118502616 6.90583659,0.0103045753 5.8085603,0.0103045753 L5.8085603,0.0618274521 L5.80389103,0.0103045753 C4.63190662,0.113350329 3.76342412,0.314289548 3.04435798,0.700711122 C2.75486381,0.855279755 2.49805447,1.04076211 2.27392996,1.25715819 C1.92840467,1.02015296 1.5688716,0.963477797 1.23735409,1.07682812 C0.92918288,1.17987387 0.66303502,1.4220314 0.504280158,1.73632094 C0.345525292,2.05061049 0.308171206,2.41127063 0.415564202,2.72040789 C0.522957197,3.02954515 0.770428017,3.27170267 1.13929961,3.42111901 C1.02256809,3.94150007 0.961867706,4.49279485 0.952529184,5.10076479 C0.943190662,5.69327788 0.966536967,6.16728833 1.05058366,7.23896416 C1.11128405,8.03756876 1.13463035,8.40338121 1.14396887,8.84647795 C0.826459144,8.83102107 0.508949414,8.92376224 0.270817121,9.11439688 C0.186770428,9.18137664 0.0933852141,9.29987922 0.0513618675,9.41322957 C-0.00933852141,9.55749362 0.0140077821,9.68630079 0.13540856,9.76358514 C0.154085603,10.0108949 0.280155642,10.1242453 0.471595331,10.1036361 C0.61167315,10.0881792 0.779766539,10.0057427 0.924513619,9.89239231 C0.957198445,9.8666309 0.989883267,9.84602172 1.02256809,9.8305649 C1.03657588,9.8254126 1.0459144,9.82026031 1.05992218,9.81510802 C1.05992218,9.81510802 1.08793774,9.80480343 1.09727626,9.79965114 C1.11128405,9.79449884 1.12529183,9.78934655 1.13463035,9.77904202 C1.12529183,10.0211995 1.10661479,10.2736616 1.06459144,10.8507178 C1.01789883,11.4999061 0.994552528,11.8554139 0.985214006,12.2521401 C0.943190662,13.7256943 1.10194552,14.7973702 1.57821012,15.6474977 C1.72762646,15.9154166 1.90972762,16.1524219 2.12451362,16.3688179 C2.08249027,16.3997317 1.90505836,16.5439957 1.84902724,16.5903663 C1.65291829,16.7552395 1.51750973,16.8943513 1.43813229,17.0489199 C1.33540856,17.2498591 1.33540856,17.4507983 1.45214008,17.6620421 L1.45680934,17.6671944 L1.4614786,17.6723467 C1.51284047,17.7290218 1.54085603,17.7444787 1.57821012,17.7444787 L1.58287938,17.7444787 L1.5922179,17.7444787 L1.5922179,17.7444787 C1.59688716,17.7547833 1.60155642,17.7599356 1.60622568,17.7702402 C1.62023346,17.7960016 1.63424124,17.8166108 1.64824903,17.8372199 C1.76498055,17.9866362 1.92840467,18.0227023 2.14785992,17.8784382 C2.26459144,17.8114585 2.34863813,17.7341741 2.52607004,17.569301 C2.5307393,17.5641487 2.5307393,17.5641487 2.53540856,17.5589964 C2.82023346,17.2910774 2.96031128,17.1931839 3.17042802,17.1571179 L3.24513619,17.1416611 C3.27315175,17.1571179 3.30116731,17.1674225 3.33385214,17.1828794 C3.99688716,17.4765598 4.76731519,17.6362807 5.5470817,17.6671944 C6.555642,17.7084127 7.52684827,17.569301 8.34863812,17.2395545 C8.56809337,17.1519656 8.77354087,17.0489199 8.9696498,16.9355696 C9.09105056,16.9870925 9.19377431,17.0952905 9.38988328,17.3477526 C9.39922181,17.3580572 9.39922181,17.3580572 9.40389103,17.3683617 C9.41322956,17.3786663 9.41322956,17.3838186 9.41789883,17.3889709 C9.42723736,17.4044277 9.44124516,17.4147323 9.45058364,17.4301892 C9.60466927,17.6311284 9.70739302,17.7290218 9.82412452,17.785697 C9.97821009,17.8578291 10.1276265,17.8217631 10.2817121,17.6671944 C10.5525292,17.4817121 10.5712062,17.1931839 10.3937743,16.8634375 C10.2677043,16.6315846 10.048249,16.3894271 9.84280158,16.2348584 C10.0856031,15.9720918 10.2957198,15.6578022 10.459144,15.3022944 C10.907393,14.3130551 11.0801557,13.1589427 11.0708171,11.6750839 C11.0661479,11.1495505 11.0474708,10.6909969 10.996109,9.81510802 L10.996109,9.78934655 C11.0194552,9.79965114 11.0428016,9.81510802 11.0661479,9.83571714 C11.210895,9.94391519 11.3789883,10.0315041 11.5190662,10.0469609 C11.7105059,10.0675701 11.8365759,9.95421978 11.8552529,9.70690997 L11.8552529,9.70690997 C11.9719845,9.62447338 11.9953307,9.49566616 11.9346303,9.3514021 L11.9346303,9.3514021 L11.9346303,9.3514021 Z M10.4498055,0.948020933 C10.7299611,1.03045753 10.9727626,1.24685362 11.122179,1.53538173 C11.2715953,1.82390983 11.3136187,2.14850396 11.229572,2.43703207 C11.140856,2.74101704 10.9167315,2.98317456 10.566537,3.12743861 C10.4964981,2.84921508 10.4124514,2.57614384 10.3190662,2.31337716 C10.4544747,2.18456997 10.5198443,2.02484905 10.4124514,1.79814839 C10.3050584,1.57144774 10.1182879,1.5456863 9.92684827,1.61266604 C9.80544745,1.43748826 9.67003889,1.28291963 9.52996111,1.13865558 C9.83813231,0.922259493 10.155642,0.860432043 10.4498055,0.948020933 L10.4498055,0.948020933 L10.4498055,0.948020933 Z M0.494941636,2.68949417 C0.39688716,2.41127063 0.429571984,2.08152422 0.578988328,1.79299611 C0.728404669,1.504468 0.971206223,1.27776734 1.26070039,1.18502616 C1.55953307,1.0871327 1.88171206,1.13350329 2.19922179,1.33959479 C2.01712062,1.51992486 1.8536965,1.72601637 1.71361867,1.95271703 C1.47081712,1.81360526 1.2233463,1.78784382 1.08326848,2.07121964 C0.938521402,2.37520462 1.10661479,2.56583926 1.34474708,2.71010331 C1.31206226,2.79769221 1.27937743,2.89043338 1.25136187,2.98317456 C1.21867704,3.09652489 1.18599222,3.2150275 1.15797665,3.33353012 C0.817120622,3.18926607 0.592996111,2.9677177 0.494941636,2.68949417 L0.494941636,2.68949417 L0.494941636,2.68949417 Z M1.05992218,9.71206226 C1.05525292,9.71206226 1.02723735,9.72236684 1.02723735,9.72751914 C1.01322957,9.73267143 0.999221789,9.73782367 0.985214006,9.74812826 C0.947859923,9.76358514 0.910505836,9.78934655 0.873151753,9.82026031 C0.742412452,9.92330607 0.583657589,10.0005904 0.462256809,10.0108949 C0.322178988,10.0263518 0.242801557,9.95937207 0.228793774,9.77388972 C0.326848249,9.73782367 0.368871595,9.71206226 0.406225681,9.65023479 L0.33151751,9.58840733 C0.303501945,9.62962567 0.275486381,9.6450825 0.191439689,9.67599626 L0.191439689,9.67599626 C0.186770428,9.67599626 0.186770428,9.67599626 0.182101167,9.68114855 C0.107392996,9.63477797 0.0933852141,9.56264591 0.13540856,9.45960016 C0.172762646,9.36685898 0.256809338,9.25866093 0.326848249,9.20198576 C0.550972763,9.02165571 0.849805448,8.93406683 1.14863813,8.95467595 C1.14863813,9.08348317 1.1533074,9.21229034 1.14863813,9.33594528 C1.14863813,9.3514021 1.14863813,9.36170669 1.14396887,9.37716357 C1.13929961,9.44929557 1.13929961,9.48020933 1.13463035,9.51627533 L1.13463035,9.51627533 C1.12062257,9.66569167 1.11128405,9.68630079 1.05992218,9.71206226 L1.05992218,9.71206226 L1.05992218,9.71206226 Z M2.47003891,17.4868643 L2.46070039,17.4971689 C2.28793774,17.6620421 2.20389105,17.7290218 2.09649805,17.7960016 C1.91906615,17.9145042 1.79766537,17.8887428 1.71361867,17.7753925 C1.6996109,17.7599356 1.69027237,17.7393264 1.68093385,17.7238696 C1.67626459,17.7187173 1.67159533,17.7084127 1.66692607,17.7032604 C1.66692607,17.7032604 1.66692607,17.7032604 1.66692607,17.6981081 C1.67626459,17.605367 1.70894941,17.5383872 1.79299611,17.3941232 C1.79766537,17.3889709 1.79766537,17.3889709 1.79766537,17.3838186 C1.84902724,17.301382 1.87237354,17.2550114 1.89571984,17.1983362 L1.81167315,17.1571179 C1.79299611,17.2034885 1.76964981,17.2447068 1.7229572,17.3271434 C1.71828794,17.3322957 1.71828794,17.3322957 1.71828794,17.337448 C1.63424124,17.4714075 1.59688716,17.5538441 1.57821012,17.6465853 L1.57354086,17.6465853 C1.57354086,17.6465853 1.57354086,17.6465853 1.5688716,17.6465853 L1.55953307,17.6465853 C1.55019455,17.641433 1.53618677,17.6311284 1.51750973,17.6105193 C1.33540856,17.2910774 1.48015564,17.0180062 1.89105059,16.6779552 C1.94241245,16.6367369 2.1151751,16.5027774 2.16186771,16.4615591 C2.17120622,16.4615591 2.18054475,16.4564068 2.18988327,16.4512546 C2.44202335,16.6882598 2.73618677,16.8943513 3.06303502,17.0643768 L3.06303502,17.0643768 C3.06303502,17.0695291 3.06770428,17.0746813 3.07237354,17.0798336 C2.88093385,17.1313565 2.73151751,17.2395545 2.47003891,17.4868643 L2.47003891,17.4868643 L2.47003891,17.4868643 Z M10.3097276,16.925265 C10.4544747,17.1931839 10.4498055,17.40958 10.2677043,17.5589964 C10.2536965,17.5280827 10.244358,17.4920166 10.2256809,17.4404937 C10.2256809,17.4353414 10.2256809,17.4353414 10.2210117,17.4301892 C10.155642,17.2344023 10.1136187,17.1519656 10.0342412,17.0592245 L9.96887161,17.1313565 C10.0389105,17.2034885 10.0715953,17.2807729 10.136965,17.4611029 C10.136965,17.4662552 10.136965,17.4662552 10.1416342,17.4714075 C10.1649805,17.5383872 10.1789883,17.5796056 10.1929961,17.6156716 C10.0715953,17.7290218 9.96420234,17.749631 9.85214006,17.6929558 C9.75408562,17.6465853 9.66070041,17.5486918 9.51128405,17.3632094 C9.50194552,17.3529049 9.49260698,17.337448 9.4832685,17.3219912 C9.47859923,17.3168389 9.47392997,17.3116866 9.4692607,17.301382 C9.45992217,17.2910774 9.45992217,17.2910774 9.45525291,17.2807729 C9.28249027,17.0592245 9.17976652,16.9407219 9.06770428,16.8737421 C9.32918287,16.7088689 9.56264592,16.5233866 9.77276264,16.3069904 C9.96887161,16.4667114 10.1883269,16.7037166 10.3097276,16.925265 L10.3097276,16.925265 L10.3097276,16.925265 Z M10.3750973,15.2559238 C9.97354087,16.1472696 9.26381325,16.7758487 8.31128405,17.1571179 C7.49883267,17.4817121 6.53696498,17.6156716 5.54241244,17.5744533 C3.82879378,17.5074735 2.34396887,16.8479807 1.64824903,15.6011271 C1.18132296,14.7716088 1.02723735,13.7153898 1.0692607,12.2624447 C1.08326848,11.8657185 1.10194552,11.5102106 1.14863813,10.8610224 C1.2,10.1293975 1.21400778,9.91815378 1.22801557,9.58840733 C1.23735409,9.3514021 1.23735409,9.10924459 1.23268483,8.85163024 C1.2233463,8.39822891 1.2,8.03756876 1.13929961,7.22865962 C1.05525292,6.15698374 1.03190662,5.68812559 1.04124514,5.10076479 C1.05525292,4.32792164 1.14863813,3.64781967 1.34474708,3.00378371 C1.66225681,1.95786932 2.2459144,1.25200591 3.08638132,0.7934523 C3.79143969,0.412183014 4.6459144,0.216396082 5.8085603,0.113350329 C6.89649806,0.113350329 7.69027237,0.22154837 8.37665372,0.499771904 C9.19844358,0.834670603 9.81011672,1.4220314 10.2303502,2.32368174 C10.5011673,3.05530659 10.6599222,3.8436066 10.7439689,4.75040923 C10.8093385,5.44081578 10.8233463,5.99726286 10.8280155,7.25957333 L10.8280155,7.66145178 C10.8326848,8.28487857 10.8420233,8.72282302 10.8653697,9.16076747 C10.8747082,9.33079298 10.8793774,9.40292498 10.9027237,9.80995572 C10.9540856,10.6858446 10.9727626,11.1392459 10.9774319,11.6647793 C10.9867704,13.1434858 10.8186771,14.2821414 10.3750973,15.2559238 L10.3750973,15.2559238 L10.3750973,15.2559238 Z M11.803891,9.61416879 L11.803891,9.61416879 C11.7992218,9.61416879 11.7945525,9.6090165 11.7898833,9.6090165 C11.7058366,9.57810279 11.677821,9.55749362 11.6498055,9.52142762 L11.5750973,9.58325509 C11.6171206,9.6450825 11.659144,9.67084397 11.7525292,9.70690997 C11.7338521,9.89239231 11.6544747,9.95937207 11.5190662,9.94391519 C11.3976654,9.9336106 11.2389105,9.85117402 11.1081712,9.75328055 C11.0708171,9.72236684 11.033463,9.70175767 10.996109,9.68114855 C10.9914397,9.68114855 10.9867704,9.67599626 10.9821012,9.67599626 C10.9634241,9.3926204 10.9634241,9.3204884 10.9540856,9.17107205 C10.9494164,9.07833088 10.9447471,8.98558971 10.9400778,8.89284853 C11.2015564,8.89800083 11.4583657,8.98558971 11.6544747,9.14531064 C11.7245136,9.20198576 11.8085603,9.31018381 11.8459144,9.40292498 C11.892607,9.49051386 11.8832685,9.56779821 11.803891,9.61416879 L11.803891,9.61416879 L11.803891,9.61416879 Z" id="Shape" fill="#000000"></path>
                    <g transform="translate(5.106324, 5.014708)" id="Shape">
                        <path d="M2.20966131,0.414425047 C2.22024234,0.737776215 2.32605258,1.09282848 2.23082336,1.4352003 C2.082689,1.60004599 1.80758236,1.61906665 1.56421878,1.68246884 C1.22562596,1.65076774 0.939938293,1.51762315 0.80238497,1.32741658 C0.717736765,0.940663219 0.823547011,0.572930521 0.855290088,0.186177165 C0.855290088,0.173496727 1.25736904,0.192517384 1.6171239,0.255919573 C1.92397363,0.312981544 2.20966131,0.408084828 2.20966131,0.414425047 L2.20966131,0.414425047 L2.20966131,0.414425047 Z" fill="#FFFFFF"></path>
                        <path d="M0.116839759,0.445714427 C-0.154981387,1.13372698 0.476031986,2.25661539 1.51477708,1.33493819 C1.43711389,0.945497127 1.52448498,0.569037432 1.55360867,0.18608705 C1.56331657,0.153633627 0.126547656,0.400279636 0.116839759,0.445714427 L0.116839759,0.445714427 L0.116839759,0.445714427 Z" fill="#FFFFFF"></path>
                        <path d="M1.4870174,0.646975104 C1.47751554,0.483338741 1.47276462,0.417884195 1.47276462,0.336066014 L1.47276462,0.297884195 L1.43950815,0.286975104 L0.840891559,0.0742478319 L0.840891559,0.0360660137 L0.779129532,0.05242965 L0.774378606,0.05242965 L0.774378606,0.0578841952 L0.0997472155,0.254247832 L0.0759925894,0.259702377 L0.0664907388,0.286975104 C-0.0380296173,0.576066015 -0.0142749909,1.01242965 0.118750917,1.27970238 C0.270780526,1.58515692 0.517828638,1.59061147 0.769627681,1.24152056 C0.840891559,1.39970238 0.973917468,1.50879329 1.12594708,1.53606601 L1.14019985,1.53606601 L1.15445263,1.53061147 C1.17345633,1.51970238 1.19246003,1.51424783 1.22571651,1.49788419 C1.23046743,1.49788419 1.23046743,1.49788419 1.23521836,1.49242965 C1.37299519,1.4378842 1.43000629,1.39424783 1.47751554,1.29061147 L1.48226647,1.28515692 L1.48226647,1.27424783 C1.49651925,1.17606601 1.50127017,1.07242965 1.50127017,0.957884194 C1.50127017,0.876066014 1.49651925,0.799702379 1.4870174,0.646975104 L1.4870174,0.646975104 L1.4870174,0.646975104 Z M0.726869351,0.445156923 C0.722118426,0.54333874 0.7173675,0.581520561 0.712616574,0.636066013 C0.703114728,0.837884194 0.703114728,0.990611468 0.7173675,1.14333874 C0.494074015,1.47061146 0.318289778,1.47061146 0.199516647,1.22515692 C0.0854944399,0.996066014 0.0617398133,0.608793284 0.147256468,0.35242965 L0.745873053,0.177884195 C0.741122128,0.248793286 0.736371202,0.319702377 0.726869351,0.445156923 L0.726869351,0.445156923 L0.726869351,0.445156923 Z M1.39199889,1.25242965 C1.35874242,1.3178842 1.31598409,1.35061146 1.20196188,1.39424783 C1.19721095,1.39424783 1.19721095,1.39424783 1.19246003,1.39970238 C1.16395448,1.41061147 1.14495078,1.42152056 1.130698,1.4269751 C1.00242302,1.39970238 0.893151735,1.30152056 0.840891559,1.16515692 C0.826638782,1.0178842 0.826638782,0.865156922 0.836140633,0.663338741 C0.840891559,0.608793284 0.840891559,0.570611469 0.85039341,0.47242965 C0.859895261,0.346975105 0.864646186,0.270611468 0.864646186,0.199702377 L1.38249704,0.379702377 C1.38249704,0.450611468 1.38724796,0.516066013 1.39674982,0.657884196 C1.40625167,0.805156925 1.41100259,0.881520559 1.41100259,0.968793286 C1.41100259,1.07242965 1.40625167,1.16515692 1.39199889,1.25242965 L1.39199889,1.25242965 L1.39199889,1.25242965 Z" fill="#000000"></path>
                    </g>
                    <g transform="translate(2.272289, 1.136667)">
                        <path d="M0.107392996,2.0042399 C0.53696498,3.84875889 3.21245136,3.37474842 3.10972762,1.52507715 C2.98832685,-0.690406547 -0.303501945,-0.262766671 0.107392996,2.0042399" id="Shape" fill="#FFFFFF"></path>
                        <path d="M3.15642023,1.51992486 C3.12840467,0.984086943 2.91361867,0.566751641 2.55875486,0.303984972 C2.24124514,0.0669797395 1.82101167,-0.0257614384 1.40544747,0.030913726 C0.989883267,0.0927411781 0.607003889,0.298832685 0.354863813,0.623426809 C0.0747081712,0.984086943 -0.0326848249,1.45809741 0.0653696498,2.0042399 L0.107392996,1.99393533 L0.0653696498,2.0042399 C0.504280158,3.90028177 3.25914397,3.44172816 3.15642023,1.51992486 L3.15642023,1.51992486 L3.15642023,1.51992486 Z M0.149416342,1.99393533 C0.0560311284,1.47355428 0.158754864,1.03045753 0.420233463,0.695558834 C0.658365759,0.391573863 1.01789883,0.190634644 1.41478599,0.133959479 C1.81167315,0.0772843148 2.20856031,0.164873206 2.507393,0.391573863 C2.8389105,0.638883672 3.03968872,1.02530525 3.06770428,1.53538173 C3.16575876,3.33353012 0.564980545,3.76632229 0.149416342,1.99393533 L0.149416342,1.99393533 L0.149416342,1.99393533 Z" id="Shape" fill="#000000"></path>
                        <ellipse id="Oval" fill="#000000" cx="1.1422179" cy="1.90926472" rx="0.75" ry="0.75"></ellipse>
                        <ellipse id="Oval" fill="#FFFFFF" cx="1.69319066" cy="2.43479807" rx="0.75" ry="0.75"></ellipse>
                    </g>
                    <g transform="translate(6.075834, 0.936079)">
                        <path d="M0.0560311284,1.85997585 C0.387548638,3.97756608 3.52529183,3.41596672 3.07237354,1.28291963 C2.66614786,-0.633731384 -0.0560311284,-0.103045753 0.0560311284,1.85997585" id="Shape" fill="#FFFFFF"></path>
                        <path d="M3.11439689,1.27261506 C2.69883269,-0.700711122 -0.102723735,-0.159720918 0.00933852141,1.86512814 L0.00933852141,1.87028043 C0.163424124,2.86982423 0.971206223,3.37990071 1.86303502,3.2150275 C2.2692607,3.13774319 2.63346303,2.92134711 2.87159533,2.60190527 C3.13307393,2.24639742 3.22645914,1.78784382 3.11439689,1.27261506 L3.11439689,1.27261506 L3.11439689,1.27261506 Z M2.80155642,2.54007782 C2.57743191,2.83891051 2.23657588,3.04500201 1.84902724,3.11713404 C1.00389105,3.27170267 0.247470817,2.79253992 0.0980544745,1.85482356 C-0.0046692607,-0.0515228767 2.63813229,-0.561599353 3.03035019,1.2932242 C3.13307393,1.78269153 3.04902724,2.21033141 2.80155642,2.54007782 L2.80155642,2.54007782 L2.80155642,2.54007782 Z" id="Shape" fill="#000000"></path>
                        <circle id="Oval" fill="#000000" cx="1.13287938" cy="1.97624447" r="0.75"></circle>
                        <ellipse id="Oval" fill="#FFFFFF" cx="1.67918288" cy="2.50177781" rx="0.75" ry="0.75"></ellipse>
                    </g>
                    <g transform="translate(4.665768, 3.644021)" id="Shape">
                        <path d="M0.621011672,0.663498365 C0.252140078,0.708670812 -0.046692607,1.3088191 0.144747082,1.78635643 C0.39688716,2.41877075 0.961867706,1.72827757 1.31206226,1.79280964 C1.71828794,1.80571606 2.04980545,2.38650471 2.37198443,1.89606096 C2.73151751,1.35399154 2.21789883,0.824828543 1.81167315,0.592513081 L0.621011672,0.663498365 L0.621011672,0.663498365 L0.621011672,0.663498365 Z" fill="#F6D2A2"></path>
                        <path d="M2.41867704,1.0634899 C2.292607,0.861308157 2.07315175,0.676965979 1.83501945,0.552089017 L1.82568093,0.546142495 L1.81634241,0.546142495 L0.621011672,0.605607712 C0.205447471,0.65317989 -0.0933852141,1.26567165 0.107392996,1.72950037 C0.186770428,1.90789602 0.294163424,1.99709385 0.438910506,2.0089869 C0.546303502,2.01493342 0.658365759,1.98520081 0.831128405,1.90789602 C0.845136188,1.9019495 0.863813231,1.89600298 0.887159531,1.88410993 C1.12062257,1.78301906 1.21400778,1.75328645 1.307393,1.77112602 L1.31206226,1.77112602 C1.42412452,1.77112602 1.51750973,1.81275167 1.69494164,1.9019495 C1.89105059,2.00304037 1.95175097,2.03277299 2.04980545,2.04466603 C2.18521401,2.05655907 2.30194552,1.99709385 2.40933852,1.84843081 C2.59143969,1.59273036 2.58210117,1.31919035 2.41867704,1.0634899 L2.41867704,1.0634899 L2.41867704,1.0634899 Z M2.33929961,1.7651795 C2.25058366,1.89005646 2.16186771,1.93168211 2.05447471,1.92573559 C1.97042802,1.91978907 1.91439689,1.89005646 1.72762646,1.79491211 C1.54085603,1.69382123 1.43813229,1.6581421 1.31673152,1.65219558 C1.2,1.63435601 1.10194552,1.66408862 0.854474709,1.77112602 C0.831128405,1.78301906 0.812451361,1.78896558 0.798443578,1.79491211 C0.457587548,1.94357516 0.294163424,1.93168211 0.182101167,1.67003514 C0.0140077821,1.28351121 0.270817121,0.760217285 0.621011672,0.718591629 L1.80233463,0.659126412 C2.02645914,0.778056852 2.22723735,0.950505986 2.34396887,1.13484817 C2.48404669,1.34892296 2.48871595,1.56299775 2.33929961,1.7651795 L2.33929961,1.7651795 L2.33929961,1.7651795 Z" fill="#231F20"></path>
                        <g transform="translate(0.560311, 0.000000)" fill="#000000">
                            <path d="M1.50399144,0.698535425 C1.34208145,-0.267220515 -0.0158733365,-0.123204279 0.0154640817,1.02892562 C0.0833618211,1.8845515 1.66067854,1.65581982 1.50399144,0.698535425 L1.50399144,0.698535425 L1.50399144,0.698535425 Z"></path>
                        </g>
                    </g>
                </g>
            </g>
            <g id="Rust" transform="translate(63.000000, 106.000000)" fill="#000000">
                <path d="M20.7266038,10.2464151 L19.8560943,9.70754717 C19.8487642,9.62275472 19.8404434,9.53816038 19.8313302,9.45396226 L20.5794057,8.75620755 C20.6554811,8.68528302 20.6895566,8.58028302 20.6689528,8.47865094 C20.6489434,8.37662264 20.5774245,8.29262264 20.4801509,8.25636792 L19.5238585,7.89877358 C19.4998868,7.81596226 19.4747264,7.73374528 19.4489717,7.65192453 L20.0452925,6.82341509 C20.1061132,6.73921698 20.1185943,6.62966038 20.0789717,6.53357547 C20.0393491,6.43788679 19.9527736,6.36933962 19.8503491,6.3525 L18.8419528,6.18846226 C18.8027264,6.11199057 18.7619151,6.03670755 18.7207075,5.96201887 L19.1444717,5.03187736 C19.1878585,4.93717925 19.1789434,4.8270283 19.1210943,4.74104717 C19.0634434,4.65466981 18.9657736,4.60415094 18.861566,4.60811321 L17.8381132,4.64377358 C17.785217,4.57760377 17.7313302,4.5120283 17.6764528,4.44764151 L17.9116132,3.45113208 C17.9353868,3.34989623 17.9054717,3.24390566 17.8317736,3.17040566 C17.7586698,3.09710377 17.6524811,3.06679245 17.5512453,3.09056604 L16.5547358,3.3255283 C16.4901509,3.27084906 16.4245755,3.21676415 16.3582075,3.16386792 L16.394066,2.14041509 C16.3980283,2.03680189 16.3475094,1.93833962 16.2611321,1.88088679 C16.1745566,1.82303774 16.065,1.81432075 15.9705,1.85731132 L15.0405566,2.28127358 C14.9654717,2.24006604 14.8901887,2.19925472 14.8141132,2.15983019 L14.6496792,1.15123585 C14.6330377,1.04900943 14.5644906,0.962235849 14.4686038,0.922613208 C14.3729151,0.882792453 14.2631604,0.895669811 14.1789623,0.956292453 L13.3498585,1.55261321 C13.2682358,1.52666038 13.186217,1.50169811 13.1034057,1.47792453 L12.7458113,0.521433962 C12.7095566,0.423962264 12.6255566,0.352443396 12.5235283,0.332235849 C12.4216981,0.312226415 12.3168962,0.346103774 12.2461698,0.421783019 L11.5484151,1.17045283 C11.464217,1.16114151 11.3794245,1.15262264 11.2948302,1.14568868 L10.7559623,0.274981132 C10.7014811,0.186820755 10.605,0.133132075 10.5011887,0.133132075 C10.3973774,0.133132075 10.3010943,0.186820755 10.2466132,0.274981132 L9.70774528,1.14568868 C9.62295283,1.15262264 9.53816038,1.16114151 9.45396226,1.17045283 L8.75600943,0.421783019 C8.68528302,0.346103774 8.58028302,0.312226415 8.47865094,0.332235849 C8.37662264,0.352641509 8.29262264,0.423962264 8.25636792,0.521433962 L7.89877358,1.47792453 C7.81596226,1.50169811 7.7339434,1.52685849 7.65212264,1.55261321 L6.82321698,0.956292453 C6.73901887,0.895471698 6.62926415,0.88259434 6.53337736,0.922613208 C6.43768868,0.962235849 6.3689434,1.04900943 6.35230189,1.15123585 L6.18786792,2.15983019 C6.11179245,2.19925472 6.03650943,2.23986792 5.96142453,2.28127358 L5.03148113,1.85731132 C4.93698113,1.81412264 4.82683019,1.82303774 4.74084906,1.88088679 C4.6544717,1.93833962 4.60395283,2.03680189 4.60791509,2.14041509 L4.64357547,3.16386792 C4.57740566,3.21676415 4.51183019,3.27084906 4.44704717,3.3255283 L3.45053774,3.09056604 C3.34930189,3.06699057 3.24311321,3.09710377 3.16981132,3.17040566 C3.09611321,3.24390566 3.06619811,3.34989623 3.0899717,3.45113208 L3.32473585,4.44764151 C3.27025472,4.51222642 3.21636792,4.57760377 3.1634717,4.64377358 L2.14001887,4.60811321 C2.03680189,4.60514151 1.93814151,4.65466981 1.88049057,4.74104717 C1.82264151,4.8270283 1.81392453,4.93717925 1.85691509,5.03187736 L2.28087736,5.96201887 C2.23966981,6.03670755 2.19885849,6.11199057 2.15943396,6.18846226 L1.15103774,6.3525 C1.04861321,6.36914151 0.962235849,6.43768868 0.922415094,6.53357547 C0.882792453,6.62966038 0.895669811,6.73921698 0.95609434,6.82341509 L1.55241509,7.65192453 C1.52646226,7.73374528 1.50130189,7.81596226 1.4775283,7.89877358 L0.521037736,8.25636792 C0.423962264,8.29262264 0.352443396,8.37662264 0.332235849,8.47865094 C0.312028302,8.58048113 0.34590566,8.68528302 0.421783019,8.75620755 L1.1700566,9.45396226 C1.16074528,9.53816038 1.15242453,9.62295283 1.14529245,9.70754717 L0.274783019,10.2464151 C0.186622642,10.3008962 0.132933962,10.3971792 0.132933962,10.5011887 C0.132933962,10.6051981 0.186622642,10.701283 0.274783019,10.7557642 L1.14529245,11.2946321 C1.15242453,11.3794245 1.16074528,11.4640189 1.1700566,11.548217 L0.421783019,12.2461698 C0.34590566,12.3168962 0.312028302,12.4218962 0.332235849,12.5235283 C0.352443396,12.6255566 0.423962264,12.7093585 0.521037736,12.7458113 L1.4775283,13.1034057 C1.50130189,13.186217 1.52646226,13.268434 1.55241509,13.3502547 L0.95609434,14.1789623 C0.895471698,14.2633585 0.88259434,14.3729151 0.922415094,14.4686038 C0.962235849,14.5646887 1.04881132,14.6332358 1.15123585,14.6496792 L2.15943396,14.813717 C2.19885849,14.8901887 2.23927358,14.9654717 2.28087736,15.0405566 L1.85691509,15.9703019 C1.81372642,16.0648019 1.82264151,16.1747547 1.88049057,16.2611321 C1.93833962,16.3477075 2.03680189,16.3982264 2.14001887,16.394066 L3.16307547,16.3582075 C3.21636792,16.4247736 3.2700566,16.4899528 3.32473585,16.5547358 L3.0899717,17.5512453 C3.06619811,17.652283 3.09611321,17.7578774 3.16981132,17.8313774 C3.24291509,17.9052736 3.34930189,17.9347925 3.45053774,17.9110189 L4.44704717,17.6762547 C4.51183019,17.7313302 4.57740566,17.7848208 4.64357547,17.8375189 L4.60791509,18.8611698 C4.60395283,18.964783 4.6544717,19.0630472 4.74084906,19.1208962 C4.82683019,19.1785472 4.93698113,19.1872642 5.03148113,19.1440755 L5.96142453,18.7203113 C6.03631132,18.7619151 6.11159434,18.8023302 6.18786792,18.8417547 L6.35230189,19.8497547 C6.3689434,19.9523774 6.43749057,20.0391509 6.53337736,20.0785755 C6.62906604,20.1183962 6.73901887,20.1055189 6.82321698,20.0450943 L7.65172642,19.4487736 C7.73354717,19.4747264 7.81576415,19.5000849 7.89857547,19.5238585 L8.25616981,20.4799528 C8.29242453,20.5770283 8.37642453,20.6489434 8.47845283,20.6687547 C8.58028302,20.6893585 8.68508491,20.655283 8.75581132,20.5792075 L9.45376415,19.830934 C9.53796226,19.8406415 9.62275472,19.8487642 9.70754717,19.8562925 L10.2464151,20.7268019 C10.3006981,20.814566 10.3971792,20.8686509 10.5009906,20.8686509 C10.6048019,20.8686509 10.7010849,20.8147642 10.7557642,20.7268019 L11.2946321,19.8562925 C11.3794245,19.8487642 11.4640189,19.8406415 11.548217,19.830934 L12.2459717,20.5792075 C12.3166981,20.655283 12.4216981,20.6893585 12.5233302,20.6687547 C12.6253585,20.6487453 12.7093585,20.5770283 12.7456132,20.4799528 L13.1032075,19.5238585 C13.1860189,19.5000849 13.2682358,19.4747264 13.3500566,19.4487736 L14.1787642,20.0450943 C14.2629623,20.1055189 14.372717,20.1183962 14.4684057,20.0785755 C14.5642925,20.0391509 14.6328396,19.9521792 14.6494811,19.8497547 L14.8139151,18.8417547 C14.8899906,18.8023302 14.9652736,18.7613208 15.0403585,18.7203113 L15.9703019,19.1440755 C16.0648019,19.1872642 16.1747547,19.1785472 16.260934,19.1208962 C16.3473113,19.0630472 16.3976321,18.9649811 16.3938679,18.8611698 L16.3582075,17.8375189 C16.4243774,17.7846226 16.4899528,17.7313302 16.5545377,17.6762547 L17.5510472,17.9110189 C17.652283,17.9347925 17.7584717,17.9052736 17.8315755,17.8313774 C17.9052736,17.7578774 17.9351887,17.652283 17.9114151,17.5512453 L17.6766509,16.5547358 C17.7313302,16.4899528 17.785217,16.4247736 17.8379151,16.3582075 L18.8613679,16.394066 C18.9645849,16.3982264 19.0632453,16.3477075 19.1208962,16.2611321 C19.1787453,16.1747547 19.1876604,16.0648019 19.1442736,15.9703019 L18.7205094,15.0405566 C18.7619151,14.9654717 18.8025283,14.8901887 18.8417547,14.813717 L19.8501509,14.6496792 C19.9527736,14.6332358 20.0391509,14.5646887 20.0787736,14.4686038 C20.1183962,14.3729151 20.1059151,14.2633585 20.0450943,14.1789623 L19.4487736,13.3502547 C19.4745283,13.268434 19.4996887,13.186217 19.5236604,13.1034057 L20.4799528,12.7458113 C20.5772264,12.7093585 20.6489434,12.6255566 20.6687547,12.5235283 C20.6893585,12.4216981 20.655283,12.3168962 20.5792075,12.2461698 L19.8311321,11.548217 C19.8402453,11.4640189 19.848566,11.3792264 19.8558962,11.2946321 L20.7264057,10.7557642 C20.814566,10.7014811 20.8682547,10.605 20.8682547,10.5011887 C20.8682547,10.3973774 20.8147642,10.3010943 20.7266038,10.2464151 L20.7266038,10.2464151 Z M14.9002925,17.4678396 C14.5678585,17.3961226 14.3564717,17.0676509 14.4277925,16.7350189 C14.4989151,16.4019906 14.826,16.1900094 15.1586321,16.2617264 C15.491066,16.3328491 15.7028491,16.6619151 15.6315283,16.9939528 C15.5602075,17.326783 15.2333208,17.5389623 14.9002925,17.4678396 L14.9002925,17.4678396 Z M14.6045094,15.4668962 C14.3011981,15.4019151 14.0028396,15.5948774 13.9378585,15.898783 L13.6288019,17.3410472 C12.6750849,17.7739245 11.6159717,18.014434 10.5005943,18.014434 C9.35966038,18.014434 8.27756604,17.7620377 7.30700943,17.3107358 L6.99815094,15.8684717 C6.93316981,15.5649623 6.63481132,15.3716038 6.33169811,15.436783 L5.05842453,15.7101792 C4.82207547,15.4668962 4.60216981,15.2077642 4.40009434,14.9341698 L10.5950943,14.9341698 C10.6652264,14.9341698 10.7119811,14.9214906 10.7119811,14.8576981 L10.7119811,12.666566 C10.7119811,12.6027736 10.6652264,12.5900943 10.5950943,12.5900943 L8.78315094,12.5900943 L8.78315094,11.2013208 L10.7428868,11.2013208 C10.921783,11.2013208 11.6993774,11.252434 11.9480094,12.2463679 C12.0258679,12.5520566 12.1968396,13.5463868 12.3137264,13.8647547 C12.430217,14.2217547 12.9045,14.9349623 13.4098868,14.9349623 L16.4970849,14.9349623 C16.5321509,14.9349623 16.5695943,14.931 16.6090189,14.9238679 C16.3948585,15.2148962 16.1598962,15.4902736 15.9069057,15.7476226 L14.6043113,15.4676887 L14.6045094,15.4668962 Z M6.03591509,17.4381226 C5.70348113,17.5098396 5.37619811,17.2978585 5.30467925,16.9648302 C5.2335566,16.6312075 5.4449434,16.3037264 5.77737736,16.2320094 C6.10981132,16.1608868 6.43729245,16.3728679 6.50861321,16.7058962 C6.57973585,17.0387264 6.36815094,17.3668019 6.03591509,17.4381226 L6.03591509,17.4381226 Z M3.68569811,7.90689623 C3.82358491,8.21813208 3.68332075,8.58285849 3.37248113,8.72054717 C3.06164151,8.85863208 2.69790566,8.71816981 2.56001887,8.40673585 C2.42213208,8.09530189 2.56239623,7.73116981 2.87323585,7.59308491 C3.18427358,7.45519811 3.54781132,7.59546226 3.68569811,7.90689623 L3.68569811,7.90689623 Z M2.96337736,9.61918868 L4.28974528,9.02980189 C4.57304717,8.904 4.7010283,8.57196226 4.57522642,8.28806604 L4.3020283,7.67034906 L5.37639623,7.67034906 L5.37639623,12.5130283 L3.20883962,12.5130283 C3.02083019,11.8521226 2.91999057,11.154566 2.91999057,10.4336321 C2.91999057,10.1584528 2.93484906,9.8864434 2.96337736,9.61918868 L2.96337736,9.61918868 Z M8.7839434,9.14886792 L8.7839434,7.72146226 L11.3423774,7.72146226 C11.4745189,7.72146226 12.2754906,7.87420755 12.2754906,8.47310377 C12.2754906,8.97036792 11.6611415,9.14866981 11.1559528,9.14866981 L8.7839434,9.14866981 L8.7839434,9.14886792 Z M18.0817925,10.4336321 C18.0817925,10.6230283 18.0748585,10.8104434 18.0609906,10.9964717 L17.2831981,10.9964717 C17.2053396,10.9964717 17.1740377,11.0475849 17.1740377,11.1238585 L17.1740377,11.4810566 C17.1740377,12.3218491 16.6999528,12.5047075 16.2845094,12.5512642 C15.8888774,12.5958396 15.4502547,12.3856415 15.3961698,12.1435472 C15.1627925,10.8308491 14.7738962,10.550717 14.1597453,10.0661321 C14.9218868,9.58214151 15.714934,8.86754717 15.714934,7.9124434 C15.714934,6.8804717 15.0074717,6.23046226 14.5262547,5.9115 C13.8496981,5.46554717 13.1006321,5.37619811 12.8985566,5.37619811 L4.85456604,5.37619811 C5.94537736,4.15879245 7.42369811,3.29640566 9.09577358,2.98299057 L10.0439434,3.97751887 C10.2583019,4.20198113 10.6133208,4.21030189 10.8383774,3.99574528 L11.8992736,2.98100943 C14.1223019,3.39486792 16.0043774,4.77789623 17.0898396,6.67720755 L16.3635566,8.31758491 C16.2381509,8.60148113 16.3661321,8.93351887 16.6492358,9.05932075 L18.0479151,9.68040566 C18.0720849,9.92864151 18.0847642,10.1794528 18.0847642,10.4336321 L18.0817925,10.4336321 Z M10.0463208,2.13665094 C10.2919811,1.90129245 10.6816698,1.91060377 10.9168302,2.15666038 C11.1515943,2.40331132 11.1426792,2.79339623 10.8964245,3.0285566 C10.6507642,3.26391509 10.2610755,3.25480189 10.0259151,3.00834906 C9.79134906,2.76209434 9.80026415,2.37200943 10.0463208,2.13665094 L10.0463208,2.13665094 Z M17.2536792,7.93740566 C17.3913679,7.62616981 17.7551038,7.48570755 18.0659434,7.62379245 C18.376783,7.76167925 18.5170472,8.12620755 18.3791604,8.4374434 C18.2414717,8.74887736 17.8777358,8.88933962 17.5666981,8.75125472 C17.2562547,8.61336792 17.1159906,8.24903774 17.2536792,7.93740566 L17.2536792,7.93740566 Z" id="Shape"></path>
            </g>
            <g id="ansible" transform="translate(33.000000, 5.000000)">
                <g id="Group">
                    <g id="Shape">
                        <path d="M16.991936,8.49123623 C16.991936,13.1698981 13.1994703,16.9623304 8.52074179,16.9623304 C3.84241348,16.9623304 0.0495475177,13.1698981 0.0495475177,8.49123623 C0.0495475177,3.81290793 3.84241348,0.0200419736 8.52074179,0.0200419736 C13.1994703,0.0200419736 16.991936,3.81290793 16.991936,8.49123623" fill="#65C8C6"></path>
                        <path d="M8.66335028,5.19488689 L10.8555266,10.6054193 L7.54428171,7.99712771 L8.66335028,5.19488689 L8.66335028,5.19488689 Z M12.5577102,11.8517972 L9.18569566,3.73681581 C9.08943821,3.50277598 8.89695651,3.37893533 8.66335028,3.37893533 C8.42931048,3.37893533 8.22282045,3.50277598 8.12656293,3.73681581 L4.42555186,12.6379335 L5.69160823,12.6379335 L7.15668351,8.96797434 L11.5287955,12.5001179 C11.7046339,12.6423029 11.8315097,12.7066079 11.9964416,12.7066079 C12.3267389,12.7066079 12.6154447,12.4589933 12.6154447,12.1015798 C12.6154447,12.0434117 12.5948991,11.9510899 12.5577102,11.8517972 L12.5577102,11.8517972 L12.5577102,11.8517972 Z" fill="#FFFFFF"></path>
                    </g>
                </g>
            </g>
        </g>
    </g>
</svg>