<?xml version="1.0" encoding="UTF-8" standalone="no"?>
<svg width="36px" height="36px" viewBox="0 0 36 36" version="1.1" xmlns="http://www.w3.org/2000/svg" xmlns:xlink="http://www.w3.org/1999/xlink">
    <!-- Generator: Sketch 39.1 (31720) - http://www.bohemiancoding.com/sketch -->
    <title>ansible</title>
    <desc>Created with Sketch.</desc>
    <defs></defs>
    <g id="icons" stroke="none" stroke-width="1" fill="none" fill-rule="evenodd">
        <g id="ansible">
            <g id="Group">
                <path d="M35.8779992,17.9389996 C35.8779992,27.8467541 27.8468953,35.8777872 17.9389996,35.8777872 C8.03195145,35.8777872 4.68375339e-16,27.8467541 4.68375339e-16,17.9389996 C4.68375339e-16,8.03195144 8.03195145,-4.99600361e-16 17.9389996,-4.99600361e-16 C27.8468953,-4.99600361e-16 35.8779992,8.03195144 35.8779992,17.9389996" id="Shape" fill="#48639C"></path>
                <path d="M17.9741614,10.8455445 L22.6164172,22.3031426 L15.6043691,16.7797015 L17.9741614,10.8455445 L17.9741614,10.8455445 Z M26.2210412,24.9425311 L19.0803045,7.75786453 C18.8764652,7.26225079 18.4688569,7 17.9741614,7 C17.4785477,7 17.0412746,7.26225079 16.8374352,7.75786453 L9,26.6072903 L11.6810606,26.6072903 L14.7835729,18.835612 L24.042163,26.3154455 C24.4145266,26.616543 24.6832049,26.7527184 25.0324724,26.7527184 C25.7319255,26.7527184 26.3433026,26.2283581 26.3433026,25.4714825 C26.3433026,25.348303 26.2997942,25.1527979 26.2210412,24.9425311 L26.2210412,24.9425311 L26.2210412,24.9425311 Z" id="Shape" fill="#FFFFFF"></path>
            </g>
        </g>
    </g>
</svg>