<?xml version="1.0" encoding="UTF-8" standalone="no"?>
<svg width="36px" height="36px" viewBox="0 0 36 36" version="1.1" xmlns="http://www.w3.org/2000/svg" xmlns:xlink="http://www.w3.org/1999/xlink">
    <!-- Generator: Sketch 39.1 (31720) - http://www.bohemiancoding.com/sketch -->
    <title>api</title>
    <desc>Created with Sketch.</desc>
    <defs></defs>
    <g id="icons" stroke="none" stroke-width="1" fill="none" fill-rule="evenodd">
        <g id="api" fill="#48639C">
            <g id="left" transform="translate(0.000000, 16.000000)">
                <path d="M0,4.00276013 C0,2.89666625 0.890925393,2 1.99742191,2 L17.0025781,2 C18.1057238,2 19,2.89354265 19,4.00276013 L19,12.9972399 C19,14.1033337 18.1090746,15 17.0025781,15 L1.99742191,15 C0.894276248,15 0,14.1064574 0,12.9972399 L0,4.00276013 Z M2,4 L17,4 L17,13 L2,13 L2,4 Z" id="Rectangle-58"></path>
                <rect id="api-8" x="3" y="0" width="3" height="3" rx="1"></rect>
            </g>
            <g id="right" transform="translate(17.000000, 16.000000)">
                <path d="M0,4.00276013 C0,2.89666625 0.890925393,2 1.99742191,2 L17.0025781,2 C18.1057238,2 19,2.89354265 19,4.00276013 L19,12.9972399 C19,14.1033337 18.1090746,15 17.0025781,15 L1.99742191,15 C0.894276248,15 0,14.1064574 0,12.9972399 L0,4.00276013 Z M2,4 L17,4 L17,13 L2,13 L2,4 Z" id="Rectangle-58"></path>
                <rect id="api-5" x="13" y="0" width="3" height="3" rx="1"></rect>
            </g>
            <g id="top" transform="translate(8.000000, 5.000000)">
                <path d="M0,4.00276013 C0,2.89666625 0.898212381,2 1.99079514,2 L18.0092049,2 C19.1086907,2 20,2.89354265 20,4.00276013 L20,12.9972399 C20,14.1033337 19.1017876,15 18.0092049,15 L1.99079514,15 C0.891309342,15 0,14.1064574 0,12.9972399 L0,4.00276013 Z M2,4 L18,4 L18,13 L2,13 L2,4 Z" id="Rectangle-58"></path>
                <rect id="api-2" x="3" y="0" width="3" height="3" rx="1"></rect>
                <rect id="api-1" x="14" y="0" width="3" height="3" rx="1"></rect>
            </g>
        </g>
    </g>
</svg>