<?xml version="1.0" encoding="UTF-8" standalone="no"?>
<svg width="36px" height="36px" viewBox="0 0 36 36" version="1.1" xmlns="http://www.w3.org/2000/svg" xmlns:xlink="http://www.w3.org/1999/xlink">
    <!-- Generator: Sketch 39.1 (31720) - http://www.bohemiancoding.com/sketch -->
    <title>bitbucket</title>
    <desc>Created with Sketch.</desc>
    <defs></defs>
    <g id="icons" stroke="none" stroke-width="1" fill="none" fill-rule="evenodd">
        <g id="bitbucket" fill="#48639C">
            <path d="M17.4973394,6.77225704 C12.0150806,6.7633351 7.57221092,5.80511949 7.574238,4.63124801 C7.5760117,3.45763144 12.021922,2.51369092 17.5041809,2.52261285 C22.9864398,2.53153478 27.429056,3.48949549 27.4272823,4.66362188 C27.4252552,5.83723845 22.979345,6.78092406 17.4973394,6.77225704 Z M17.4998733,22.3117153 C14.7787614,22.3117153 12.5727831,20.0921933 12.5727831,17.3549442 C12.5727831,14.6169304 14.7787614,12.3979182 17.4998733,12.3979182 C20.2212386,12.3979182 22.4272169,14.6169304 22.4272169,17.3549442 C22.4272169,20.0921933 20.2212386,22.3117153 17.4998733,22.3117153 Z M17.5001267,0 L17.5001267,0.000509824748 L17.4998733,0 C8.96735408,0 2,2.30772172 2,5.17319172 C2,5.92798725 3.86061319,16.7500372 4.59872653,21.0417419 C4.929902,22.9663303 9.87396909,25.7884652 17.4960725,25.7884652 L17.5039275,25.7655231 L17.5039275,25.7884652 C25.1260309,25.7884652 30.070098,22.9663303 30.4010201,21.0417419 C31.1391334,16.7500372 33,5.92798725 33,5.17319172 C33,2.30772172 26.0326459,0 17.5001267,0 Z M28.640241,25.3428784 C28.404592,25.3428784 28.2158195,25.5108656 28.2158195,25.5108656 C28.2158195,25.5108656 24.3988132,28.5514604 17.4998733,28.5517153 C10.6011868,28.5514604 6.78418054,25.5108656 6.78418054,25.5108656 C6.78418054,25.5108656 6.59515461,25.3428784 6.35975904,25.3428784 C6.07824722,25.3428784 5.81143179,25.5332979 5.81143179,25.9528837 C5.81143179,25.9972384 5.81573936,26.0415932 5.82359432,26.0849283 C6.41601072,29.2746468 6.84904735,31.5380138 6.92480976,31.8826553 C7.44222391,34.2291237 12.0046917,35.9997451 17.4996199,36 L17.5003801,36 C22.9950549,35.9997451 27.5577761,34.2291237 28.0749369,31.8826553 C28.1509526,31.5380138 28.5837359,29.2746468 29.1761523,26.0849283 C29.1842606,26.0415932 29.1885682,25.9972384 29.1885682,25.9528837 C29.1885682,25.5332979 28.9217528,25.3428784 28.640241,25.3428784 Z M19.9645587,17.3534148 C19.9645587,18.7253532 18.8590357,19.8375358 17.495059,19.8375358 C16.1313357,19.8375358 15.0258127,18.7253532 15.0258127,17.3534148 C15.0258127,15.9812215 16.1313357,14.8692937 17.495059,14.8692937 C18.8590357,14.8692937 19.9645587,15.9812215 19.9645587,17.3534148 Z" id="bitbucket_icon"></path>
        </g>
    </g>
</svg>