<?xml version="1.0" encoding="UTF-8" standalone="no"?>
<svg width="36px" height="36px" viewBox="0 0 36 36" version="1.1" xmlns="http://www.w3.org/2000/svg" xmlns:xlink="http://www.w3.org/1999/xlink">
    <!-- Generator: Sketch 39.1 (31720) - http://www.bohemiancoding.com/sketch -->
    <title>capistrano</title>
    <desc>Created with Sketch.</desc>
    <defs></defs>
    <g id="icons" stroke="none" stroke-width="1" fill="none" fill-rule="evenodd">
        <g id="capistrano" fill="#48639C">
            <path d="M29.2404139,9.93924503 C28.7741419,9.28059188 28.2519031,8.66377674 27.6805457,8.0967181 C27.1097788,7.52989583 26.4897752,7.01259369 25.8280917,6.55107555 L24.6903361,8.17767582 C24.127598,7.78529677 23.5286115,7.44042868 22.9002246,7.1487445 L22.0608406,8.95014254 C22.5842601,9.19254296 23.0830024,9.47914514 23.5516358,9.80545796 C24.0241656,10.1337799 24.4670591,10.5015762 24.8750029,10.9050648 L23.4727628,12.3088836 L22.0693419,13.7127024 C22.3150526,13.9534482 22.5391561,14.215704 22.7396448,14.495924 C22.9401334,14.7750805 23.1179521,15.0710194 23.2681416,15.3833862 L26.8634776,13.7052566 L28.6622084,12.8658964 L30.4598764,12.0265361 C30.1129766,11.2933073 29.7050328,10.5952981 29.2404139,9.93924503" id="Fill-1"></path>
            <path d="M32.4906214,7.6620283 C31.8906903,6.81321313 31.219797,6.01911829 30.4854983,5.28908052 C29.7513177,4.55892456 28.9547942,3.8925893 28.1033667,3.29834776 C27.2577249,2.7078882 26.3588318,2.18881326 25.4155431,1.74951418 C24.4840617,1.31659718 23.5092474,0.961092304 22.4997195,0.692218104 C21.5128617,0.429489601 20.492353,0.249018874 19.445514,0.159197164 L19.2728907,2.13704759 C20.202601,2.21682346 21.1094048,2.37696611 21.9859821,2.61002981 L21.4728349,4.52855064 C22.2573148,4.73738612 23.0145197,5.01311513 23.7378376,5.34911924 C24.4721363,5.68973262 25.171013,6.09286665 25.8280917,6.55107555 C26.4897752,7.01259369 27.1097788,7.52989583 27.6805457,8.0967181 C28.2519031,8.66377674 28.7741419,9.28059188 29.2404139,9.93924503 C29.7050328,10.5952981 30.1129766,11.2933073 30.4598764,12.0265361 L32.2574264,11.1872941 L34.0556847,10.3481702 C33.6105479,9.40480586 33.086656,8.50599781 32.4906214,7.6620283" id="Fill-2"></path>
            <path d="M23.7378376,5.34911924 C23.0145197,5.01311513 22.2573148,4.73738612 21.4728349,4.52855064 C20.705948,4.32408806 19.9128487,4.18486441 19.0997951,4.11477983 C18.702596,4.08050577 18.3016186,4.06218687 17.8958001,4.06218687 C17.490218,4.06218687 17.0879417,4.08050577 16.6913331,4.11477983 C15.8787517,4.18486441 15.0857705,4.32408806 14.3188836,4.52855064 L14.8320307,6.44659872 C14.1600748,6.62482391 13.510907,6.86107865 12.8914938,7.1487445 L13.7302875,8.95037891 C14.2468587,8.71128769 14.7862182,8.5140345 15.3456501,8.36523775 C15.8925663,8.22057751 16.4582561,8.12224638 17.0376425,8.07237169 C17.3204283,8.04778891 17.6060479,8.03289742 17.8958001,8.03289742 C18.184962,8.03289742 18.4706998,8.04778891 18.754076,8.07237169 C19.3334624,8.12224638 19.8985619,8.22057751 20.4453599,8.36523775 C21.0053822,8.5140345 21.5448598,8.71069677 22.0608406,8.95014254 L22.9002246,7.1487445 C23.5286115,7.44042868 24.127598,7.78529677 24.6903361,8.17767582 L25.8280917,6.55107555 C25.171013,6.09286665 24.4721363,5.68973262 23.7378376,5.34911924" id="Fill-3"></path>
            <path d="M19.2728907,2.13704759 L19.445514,0.159197164 C18.9346103,0.1152318 18.418039,0.0914763211 17.8958001,0.0914763211 C17.3736795,0.0914763211 16.8571082,0.1152318 16.3462044,0.159197164 C15.2993654,0.249018874 14.2788567,0.429489601 13.2915266,0.692218104 C12.2812903,0.961092304 11.3076567,1.31659718 10.3761754,1.75010513 C9.43229636,2.18928602 8.532931,2.70812457 7.68776136,3.29870232 C6.83692418,3.89318023 6.03922006,4.55892456 5.3056298,5.28908052 L6.70834222,6.69289931 C7.36034373,6.04464657 8.06890242,5.45288695 8.82539891,4.92494803 L9.96315453,6.5516665 C10.6207055,6.09286665 11.3189918,5.689969 12.0527001,5.34935561 C12.776136,5.01311513 13.5336952,4.73738612 14.3188836,4.52855064 C15.0857705,4.32408806 15.8787517,4.18486441 16.6913331,4.11477983 C17.0879417,4.08050577 17.490218,4.06218687 17.8958001,4.06218687 C18.3016186,4.06218687 18.702596,4.08050577 19.0997951,4.11477983 C19.9128487,4.18486441 20.705948,4.32408806 21.4728349,4.52855064 L21.9859821,2.61002981 C21.1094048,2.37696611 20.202601,2.21682346 19.2728907,2.13704759" id="Fill-4"></path>
            <path d="M14.8320307,6.44659872 L14.3188836,4.52855064 C13.5336952,4.73738612 12.776136,5.01311513 12.0527001,5.34935561 C11.3189918,5.689969 10.6207055,6.09286665 9.96315453,6.5516665 C9.30194329,7.01259369 8.68134931,7.52989583 8.11058233,8.0967181 C7.53969728,8.66413129 7.01757653,9.28059188 6.5505961,9.93983596 L8.17575886,11.0783262 C7.77749717,11.6401846 7.42658293,12.2378535 7.12951016,12.8658964 L8.92824088,13.7052566 C9.17631316,13.1827543 9.47055216,12.6863711 9.80245658,12.2187073 C10.1362502,11.7495071 10.5081815,11.3090261 10.9161252,10.9050648 C11.3235966,10.5015762 11.7669624,10.1340163 12.23902,9.80545796 C12.7087161,9.47914514 13.2068679,9.19254296 13.7302875,8.95037891 L12.8914938,7.1487445 C13.510907,6.86107865 14.1600748,6.62482391 14.8320307,6.44659872" id="Fill-5"></path>
            <path d="M8.82539891,4.92494803 C8.06890242,5.45288695 7.36034373,6.04464657 6.70834222,6.69289931 L5.3056298,5.28908052 C4.57192148,6.01970922 3.89984748,6.81356769 3.3010971,7.66238286 C2.7045901,8.50599781 2.18058019,9.40480586 1.73544335,10.3485248 C1.2960921,11.2801886 0.93490546,12.2562906 0.660148575,13.2683213 C0.391531511,14.2586056 0.205211631,15.2830459 0.109808295,16.333369 L2.08576723,16.5066303 C2.17089817,15.5729573 2.33655521,14.6624488 2.5765985,13.782196 L4.49245805,14.2963071 C4.70676134,13.509658 4.98907493,12.7510191 5.3318421,12.0265361 C5.67815149,11.2933073 6.08668558,10.5952981 6.5505961,9.93983596 C7.01757653,9.28059188 7.53969728,8.66413129 8.11058233,8.0967181 C8.68134931,7.52989583 9.30194329,7.01259369 9.96315453,6.5516665 L8.82539891,4.92494803" id="Fill-6"></path>
            <path d="M5.27127043,23.7836071 C4.93535151,23.0528602 4.65988619,22.2887848 4.4531396,21.4965809 C4.25076175,20.7230506 4.11367847,19.9231645 4.04791157,19.103896 C4.0175667,18.7295995 4.00162678,18.3515211 4.00162678,17.9696605 C4.00162678,17.534498 4.02276194,17.1040629 4.06219845,16.6796553 C4.13705703,15.8623959 4.28228734,15.0659373 4.49245805,14.2963071 L2.5765985,13.782196 C2.33655521,14.6624488 2.17089817,15.5729573 2.08576723,16.5066303 L0.109808295,16.333369 C0.0612801128,16.8724174 0.0349497369,17.4178479 0.0349497369,17.9696605 C0.0349497369,18.468171 0.0562029552,18.9617176 0.0955214091,19.4495914 C0.182423457,20.5031056 0.359533611,21.5303823 0.620121682,22.5244486 C0.887558011,23.5419158 1.24236868,24.5239272 1.67546204,25.461973 C2.11493138,26.4131377 2.63480871,27.3190369 3.22800965,28.1715159 L4.85305434,27.0325529 C4.32621067,26.2746232 3.86395316,25.4688279 3.47372046,24.6226129 L5.27127043,23.7836071" id="Fill-7"></path>
            <path d="M8.00254513,18.7572551 C7.98200036,18.497363 7.96889421,18.234871 7.96889421,17.9696605 C7.96889421,17.6509116 7.98542449,17.3362992 8.01399827,17.0257053 C8.06890242,16.4423369 8.17575886,15.8743328 8.32712902,15.3244111 C8.48145098,14.7637346 8.68253006,14.2217315 8.92824088,13.7052566 L7.12951016,12.8658964 C7.42658293,12.2378535 7.77749717,11.6401846 8.17575886,11.0783262 L6.5505961,9.93983596 C6.08668558,10.5952981 5.67815149,11.2933073 5.3318421,12.0265361 C4.98907493,12.7510191 4.70676134,13.509658 4.49245805,14.2963071 C4.28228734,15.0659373 4.13705703,15.8623959 4.06219845,16.6796553 C4.02276194,17.1040629 4.00162678,17.534498 4.00162678,17.9696605 C4.00162678,18.3515211 4.0175667,18.7295995 4.04791157,19.103896 C4.11367847,19.9231645 4.25076175,20.7230506 4.4531396,21.4965809 L6.36947145,20.9824698 C6.54610931,21.6619238 6.78095737,22.3177404 7.06893849,22.9438923 L8.86884994,22.1042957 C8.62998738,21.5813206 8.43233245,21.0350627 8.28603945,20.4682405 C8.14258024,19.9154824 8.04835762,19.3432236 8.00254513,18.7572551" id="Fill-8"></path>
            <path d="M11.9927188,30.5614826 C11.2538152,30.2140143 10.5499795,29.803671 9.88935864,29.3363616 C9.22484134,28.8664522 8.60365699,28.3400498 8.03229965,27.7637726 C7.46200495,27.1874953 6.94094688,26.5618162 6.47809901,25.8938265 C6.01702226,25.2297367 5.61238459,24.5239272 5.27127043,23.7836071 L3.47372046,24.6226129 C3.86395316,25.4688279 4.32621067,26.2746232 4.85305434,27.0325529 L3.22800965,28.1715159 C3.82451664,29.0291951 4.4936388,29.832272 5.22734712,30.5711737 C5.96152774,31.311021 6.7604126,31.9862203 7.61396547,32.5889712 C8.46314961,33.188413 9.36711983,33.7149336 10.3156037,34.1610876 L11.1545155,32.3616987 C11.9875236,32.7534867 12.8606766,33.0749539 13.7657095,33.3182999 L14.2788567,31.3998973 C13.4869381,31.186807 12.7224126,30.9051688 11.9927188,30.5614826" id="Fill-9"></path>
            <path d="M13.6697158,26.9616411 C13.1412191,26.7122677 12.6389347,26.4165651 12.1664048,26.0813883 C11.6910412,25.7445568 11.2459043,25.368724 10.8378425,24.9555441 C10.4298988,24.5428369 10.0590302,24.0942011 9.72830646,23.6154278 C9.3997081,23.1398454 9.11231736,22.6345984 8.86884994,22.1042957 L7.06893849,22.9438923 C6.78095737,22.3177404 6.54610931,21.6619238 6.36947145,20.9824698 L4.4531396,21.4965809 C4.65988619,22.2887848 4.93535151,23.0528602 5.27127043,23.7836071 C5.61238459,24.5239272 6.01702226,25.2297367 6.47809901,25.8938265 C6.94094688,26.5618162 7.46200495,27.1874953 8.03229965,27.7637726 C8.60365699,28.3400498 9.22484134,28.8664522 9.88935864,29.3363616 L11.0265239,27.7099978 C11.5932764,28.1112408 12.1967497,28.4637911 12.8309221,28.7618572 C13.4571836,29.0569689 14.1131996,29.2988965 14.7930665,29.4819673 L15.306922,27.5623828 C14.7394611,27.4094495 14.1919546,27.2078234 13.6697158,26.9616411" id="Fill-10"></path>
            <path d="M27.0399974,30.9629619 C26.285154,31.4959828 25.4807196,31.9647104 24.637203,32.3616987 C23.8036045,32.7534867 22.9298612,33.0749539 22.0254187,33.3182999 L21.5116811,31.3998973 C20.7368831,31.6083783 19.935755,31.7511474 19.1134916,31.8228866 C18.7119237,31.8581062 18.3061054,31.8766615 17.8958001,31.8766615 C17.4850227,31.8766615 17.078732,31.8581062 16.6776366,31.8228866 C15.8553732,31.7511474 15.0542449,31.6083783 14.2788567,31.3998973 L13.7657095,33.3182999 C12.8606766,33.0749539 11.9875236,32.7534867 11.1545155,32.3616987 L10.3156037,34.1610876 C11.2533429,34.6014503 12.2350055,34.9628646 13.2525624,35.236348 C14.2474491,35.5033312 15.2765772,35.6867567 16.3325079,35.7784693 C16.8478984,35.8233801 17.3689565,35.8474902 17.8958001,35.8474902 C18.4226439,35.8474902 18.94382,35.8233801 19.4592105,35.7784693 C20.5151412,35.6867567 21.5436789,35.5033312 22.5391561,35.236348 C23.5561226,34.9628646 24.5377851,34.6014503 25.474934,34.1610876 C26.4245987,33.7151701 27.3285689,33.188413 28.177753,32.5889712 L27.0399974,30.9629619" id="Fill-11"></path>
            <path d="M30.9386641,27.0325529 L29.3136195,25.8938265 C28.8502993,26.5618162 28.3297136,27.1880864 27.7593007,27.7637726 C27.1880614,28.3400498 26.5662867,28.8668068 25.9023598,29.3363616 C25.241739,29.803671 24.5377851,30.2140143 23.7985273,30.5614826 C23.0693059,30.9051688 22.30419,31.186807 21.5116811,31.3998973 L22.0254187,33.3182999 C22.9298612,33.0749539 23.8036045,32.7534867 24.637203,32.3616987 C25.4807196,31.9647104 26.285154,31.4959828 27.0399974,30.9629619 L28.177753,32.5889712 C29.0313058,31.986693 29.8296003,31.311021 30.5637809,30.5717647 C31.2974893,29.8325083 31.9672019,29.0291951 32.5631184,28.1715159 L30.9386641,27.0325529" id="Fill-12"></path>
            <path d="M27.6891651,24.7550999 L26.0634121,23.6154278 C25.7320979,24.0944374 25.3618197,24.5431914 24.9538758,24.9555441 C24.5447515,25.368724 24.1000869,25.7447933 23.6253136,26.0813883 L24.7640139,27.7099978 C24.1972613,28.1112408 23.5939061,28.4637911 22.9602059,28.7620937 L23.7985273,30.5614826 C24.5377851,30.2140143 25.241739,29.803671 25.9023598,29.3363616 C26.5662867,28.8668068 27.1880614,28.3400498 27.7593007,27.7637726 C28.3297136,27.1880864 28.8502993,26.5618162 29.3136195,25.8938265 L27.6891651,24.7550999" id="Fill-13"></path>
            <path d="M24.7640139,27.7099978 L23.6253136,26.0813883 C23.1527837,26.4168015 22.6499089,26.7122677 22.1208219,26.9616411 C21.5991735,27.2078234 21.0522573,27.4094495 20.4843242,27.5623828 C19.9300875,27.712007 19.3563686,27.8143563 18.7677725,27.8655311 C18.4799095,27.8907048 18.189567,27.9059509 17.8958001,27.9059509 C17.6021515,27.9059509 17.3113367,27.8907048 17.023946,27.8655311 C16.4353499,27.8143563 15.8617491,27.712007 15.306922,27.5623828 L14.7930665,29.4819673 C14.1131996,29.2988965 13.4571836,29.0569689 12.8309221,28.7618572 C12.1967497,28.4637911 11.5932764,28.1112408 11.0265239,27.7099978 L9.88935864,29.3363616 C10.5499795,29.803671 11.2538152,30.2140143 11.9927188,30.5614826 C12.7224126,30.9051688 13.4869381,31.186807 14.2788567,31.3998973 C15.0542449,31.6083783 15.8553732,31.7511474 16.6776366,31.8228866 C17.078732,31.8581062 17.4850227,31.8766615 17.8958001,31.8766615 C18.3061054,31.8766615 18.7119237,31.8581062 19.1134916,31.8228866 C19.935755,31.7511474 20.7368831,31.6083783 21.5116811,31.3998973 C22.30419,31.186807 23.0693059,30.9051688 23.7985273,30.5614826 L22.9602059,28.7620937 C23.5939061,28.4637911 24.1972613,28.1112408 24.7640139,27.7099978" id="Fill-14"></path>
        </g>
    </g>
</svg>