<?xml version="1.0" encoding="UTF-8" standalone="no"?>
<svg width="36px" height="36px" viewBox="0 0 36 36" version="1.1" xmlns="http://www.w3.org/2000/svg" xmlns:xlink="http://www.w3.org/1999/xlink">
    <!-- Generator: Sketch 39.1 (31720) - http://www.bohemiancoding.com/sketch -->
    <title>clock-alt</title>
    <desc>Created with Sketch.</desc>
    <defs></defs>
    <g id="icons" stroke="none" stroke-width="1" fill="none" fill-rule="evenodd">
        <g id="clock-alt" fill="#48639C">
            <path d="M18,0 C8.05886719,0 0,8.05886719 0,18 C0,27.9411328 8.05886719,36 18,36 C27.9411328,36 36,27.9411328 36,18 C36,8.05886719 27.9411328,0 18,0 L18,0 Z M18,2 C9.1634375,2 2,9.1634375 2,18 C2,26.8365625 9.1634375,34 18,34 C26.8365625,34 34,26.8365625 34,18 C34,9.1634375 26.8365625,2 18,2 L18,2 Z M23.1589687,26.3410313 L15.75,18.9319922 L15.75,9 L20.25,9 L20.25,17.0680078 L26.3410313,23.1589687 L23.1589687,26.3410313 L23.1589687,26.3410313 Z" id="Shape"></path>
        </g>
    </g>
</svg>