<?xml version="1.0" encoding="UTF-8" standalone="no"?>
<svg width="36px" height="36px" viewBox="0 0 36 36" version="1.1" xmlns="http://www.w3.org/2000/svg" xmlns:xlink="http://www.w3.org/1999/xlink">
    <!-- Generator: Sketch 39.1 (31720) - http://www.bohemiancoding.com/sketch -->
    <title>copy</title>
    <desc>Created with Sketch.</desc>
    <defs></defs>
    <g id="icons" stroke="none" stroke-width="1" fill="none" fill-rule="evenodd">
        <g id="copy" fill="#48639C">
            <path d="M2.90378468,3 L30.0962153,3 C31.5,3 32,3.5 32,4.90069464 C32,4.90069464 6.92862555,4.99645317 4.13121203,4.99990442 C4.07987598,4.99996775 4.03604111,5 4,5 C2.5,5 2,5.91634523 2,7 L2,29 C0.5,29 0,28.5 0,27 L0,5.90069464 C0,4.29868522 1.29869163,3 2.90378468,3 Z" id="terminal-wrapper"></path>
            <path d="M3,9.19076411 C3,7.42855375 4.42856079,6 6.19416315,6 L32.8058369,6 C34.5699245,6 36,7.42866125 36,9.19076411 L36,31.2259025 C36,32.9881129 34.5714393,34.4166667 32.8058369,34.4166667 L6.19416315,34.4166667 C4.43007555,34.4166667 3,32.9880055 3,31.2259025 L3,9.19076411 L3,9.19076411 Z M4.83333333,11.5 L34.1666667,11.5 L34.1666667,31.5233588 C34.1666667,32.1087666 33.6820055,32.5833333 33.1053483,32.5833333 L5.89465166,32.5833333 C5.30850174,32.5833333 4.83333333,32.1033654 4.83333333,31.5233588 L4.83333333,11.5 L4.83333333,11.5 Z M4.83333333,8.75 C4.83333333,8.24373898 5.24020942,7.83333333 5.75,7.83333333 C6.25626102,7.83333333 6.66666667,8.24020942 6.66666667,8.75 C6.66666667,9.25626102 6.25979058,9.66666667 5.75,9.66666667 C5.24373898,9.66666667 4.83333333,9.25979058 4.83333333,8.75 L4.83333333,8.75 Z M8.5,8.75 C8.5,8.24373898 8.90687609,7.83333333 9.41666667,7.83333333 C9.92292769,7.83333333 10.3333333,8.24020942 10.3333333,8.75 C10.3333333,9.25626102 9.92645725,9.66666667 9.41666667,9.66666667 C8.91040565,9.66666667 8.5,9.25979058 8.5,8.75 L8.5,8.75 Z M12.1666667,8.75 C12.1666667,8.24373898 12.5735427,7.83333333 13.0833333,7.83333333 C13.5895943,7.83333333 14,8.24020942 14,8.75 C14,9.25626102 13.5931239,9.66666667 13.0833333,9.66666667 C12.5770724,9.66666667 12.1666667,9.25979058 12.1666667,8.75 L12.1666667,8.75 Z" id="terminal-wrapper-copy"></path>
        </g>
    </g>
</svg>