<?xml version="1.0" encoding="UTF-8" standalone="no"?>
<svg width="36px" height="36px" viewBox="0 0 36 36" version="1.1" xmlns="http://www.w3.org/2000/svg" xmlns:xlink="http://www.w3.org/1999/xlink">
    <!-- Generator: Sketch 39.1 (31720) - http://www.bohemiancoding.com/sketch -->
    <title>credit-card</title>
    <desc>Created with Sketch.</desc>
    <defs></defs>
    <g id="icons" stroke="none" stroke-width="1" fill="none" fill-rule="evenodd">
        <g id="credit-card" fill="#48639C">
            <path d="M32.625,5 L3.375,5 C1.51875,5 0,6.51875 0,8.375 L0,28.625 C0,30.48125 1.51875,32 3.375,32 L32.625,32 C34.48125,32 36,30.48125 36,28.625 L36,8.375 C36,6.51875 34.48125,5 32.625,5 L32.625,5 Z M3.375,7.25 L32.625,7.25 C33.2348203,7.25 33.75,7.76517969 33.75,8.375 L33.75,11.75 L2.25,11.75 L2.25,8.375 C2.25,7.76517969 2.76517969,7.25 3.375,7.25 L3.375,7.25 Z M32.625,29.75 L3.375,29.75 C2.76517969,29.75 2.25,29.2348203 2.25,28.625 L2.25,18.5 L33.75,18.5 L33.75,28.625 C33.75,29.2348203 33.2348203,29.75 32.625,29.75 L32.625,29.75 Z M4.5,23 L6.75,23 L6.75,27.5 L4.5,27.5 L4.5,23 Z M9,23 L11.25,23 L11.25,27.5 L9,27.5 L9,23 Z M13.5,23 L15.75,23 L15.75,27.5 L13.5,27.5 L13.5,23 Z" id="Shape"></path>
        </g>
    </g>
</svg>