<?xml version="1.0" encoding="UTF-8" standalone="no"?>
<svg width="36px" height="36px" viewBox="0 0 36 36" version="1.1" xmlns="http://www.w3.org/2000/svg" xmlns:xlink="http://www.w3.org/1999/xlink">
    <!-- Generator: Sketch 39.1 (31720) - http://www.bohemiancoding.com/sketch -->
    <title>cross</title>
    <desc>Created with Sketch.</desc>
    <defs></defs>
    <g id="icons" stroke="none" stroke-width="1" fill="none" fill-rule="evenodd">
        <g id="cross" fill="#48639C">
            <path d="M15.5,16 L2.5,16 C2.5,16 1.10218214e-15,16 0,18.5 C1.10218212e-15,21 2.5,21 2.5,21 L15.5,21 L15.5,33.5 C15.5,33.5 15.5,36 18,36 C20.5,36 20.5,33.5 20.5,33.5 L20.5,21 L33.5,21 C33.5,21 36,21 36,18.5 C36,16 33.5,16 33.5,16 L20.5,16 L20.5,2.5 C20.5,2.5 20.5,1.56142469e-15 18,0 C15.5,6.4293957e-16 15.5,2.5 15.5,2.5 L15.5,16 Z" id="Rectangle-149" transform="translate(18.000000, 18.000000) rotate(-315.000000) translate(-18.000000, -18.000000) "></path>
        </g>
    </g>
</svg>