<?xml version="1.0" encoding="UTF-8" standalone="no"?>
<svg width="36px" height="36px" viewBox="0 0 36 36" version="1.1" xmlns="http://www.w3.org/2000/svg" xmlns:xlink="http://www.w3.org/1999/xlink">
    <!-- Generator: Sketch 39.1 (31720) - http://www.bohemiancoding.com/sketch -->
    <title>double-quote</title>
    <desc>Created with Sketch.</desc>
    <defs></defs>
    <g id="icons" stroke="none" stroke-width="1" fill="none" fill-rule="evenodd">
        <g id="double-quote" fill="#48639C">
            <path d="M36,9.16720257 C31.292581,11.4823267 28.9389068,14.2025567 28.9389068,17.3279743 C30.9453477,17.5594867 32.604495,18.3794142 33.9163987,19.7877814 C35.2283024,21.1961485 35.8842444,22.8263573 35.8842444,24.6784566 C35.8842444,26.6463121 35.2475948,28.3054595 33.9742765,29.6559486 C32.7009583,31.0064376 31.0996881,31.681672 29.170418,31.681672 C27.0096355,31.681672 25.1382716,30.8038673 23.5562701,29.0482315 C21.9742686,27.2925957 21.1832797,25.1607842 21.1832797,22.6527331 C21.1832797,15.1285797 25.3890255,9.24439421 33.8006431,5 L36,9.16720257 Z M14.8167203,9.16720257 C10.0707158,11.4823267 7.6977492,14.2025567 7.6977492,17.3279743 C9.7427755,17.5594867 11.4212153,18.3794142 12.733119,19.7877814 C14.0450226,21.1961485 14.7009646,22.8263573 14.7009646,24.6784566 C14.7009646,26.6463121 14.0546688,28.3054595 12.7620579,29.6559486 C11.4694469,31.0064376 9.85853055,31.681672 7.92926045,31.681672 C5.76847794,31.681672 3.90676023,30.8038673 2.34405145,29.0482315 C0.781342669,27.2925957 0,25.1607842 0,22.6527331 C0,15.1285797 4.18645331,9.24439421 12.5594855,5 L14.8167203,9.16720257 Z" id="“"></path>
        </g>
    </g>
</svg>