<?xml version="1.0" encoding="UTF-8" standalone="no"?>
<svg width="36px" height="36px" viewBox="0 0 36 36" version="1.1" xmlns="http://www.w3.org/2000/svg" xmlns:xlink="http://www.w3.org/1999/xlink">
    <!-- Generator: Sketch 39.1 (31720) - http://www.bohemiancoding.com/sketch -->
    <title>edit</title>
    <desc>Created with Sketch.</desc>
    <defs></defs>
    <g id="icons" stroke="none" stroke-width="1" fill="none" fill-rule="evenodd">
        <g id="edit" fill="#48639C">
            <path d="M3.48454162,3 L36,3 L36,30.5191664 C36,32.4415777 34.4415701,34 32.5154584,34 L3.48454162,34 C1.56008242,34 0,32.4414605 0,30.5191664 L0,6.48083357 C0,4.55842227 1.55842995,3 3.48454162,3 Z M19,9 L25,3 L36,3 L36,8 L34,10 L34,30.8436642 C34,31.4822908 33.4712787,32 32.8421982,32 L3.15780181,32 C2.51836553,32 2,31.4763986 2,30.8436642 L2,9 L19,9 Z M2,6 C2,5.44771525 2.44386482,5 3,5 C3.55228475,5 4,5.44386482 4,6 C4,6.55228475 3.55613518,7 3,7 C2.44771525,7 2,6.55613518 2,6 L2,6 Z M6,6 C6,5.44771525 6.44386482,5 7,5 C7.55228475,5 8,5.44386482 8,6 C8,6.55228475 7.55613518,7 7,7 C6.44771525,7 6,6.55613518 6,6 L6,6 Z M10,6 C10,5.44771525 10.4438648,5 11,5 C11.5522847,5 12,5.44386482 12,6 C12,6.55228475 11.5561352,7 11,7 C10.4477153,7 10,6.55613518 10,6 L10,6 Z" id="terminal-wrapper"></path>
            <path d="M31.78125,0 C34.1111602,0 36,1.88878711 36,4.21875 C36,5.16849609 35.6859668,6.04488867 35.15625,6.75 L33.46875,8.4375 L27.5625,2.53125 L29.25,0.84375 C29.9551113,0.314033203 30.8314512,0 31.78125,0 L31.78125,0 Z M10.6875,19.40625 L9,27 L16.59375,25.3125 L32.203125,9.703125 L26.296875,3.796875 L10.6875,19.40625 L10.6875,19.40625 Z M27.8677793,9.5865293 L16.0552793,21.3990293 L14.6009707,19.9447207 L26.4134707,8.1322207 L27.8677793,9.5865293 L27.8677793,9.5865293 Z" id="Shape"></path>
        </g>
    </g>
</svg>