<?xml version="1.0" encoding="UTF-8" standalone="no"?>
<svg width="36px" height="36px" viewBox="0 0 36 36" version="1.1" xmlns="http://www.w3.org/2000/svg" xmlns:xlink="http://www.w3.org/1999/xlink">
    <!-- Generator: Sketch 39.1 (31720) - http://www.bohemiancoding.com/sketch -->
    <title>enterprise</title>
    <desc>Created with Sketch.</desc>
    <defs></defs>
    <g id="icons" stroke="none" stroke-width="1" fill="none" fill-rule="evenodd">
        <g id="enterprise" fill="#48639C">
            <path d="M18.57,36 L1.43,36 C0.57,36 0,35.4 0,34.5 L0,1.5 C0,0.6 0.57,0 1.43,0 L18.57,0 C19.43,0 20,0.6 20,1.5 L20,34.5 C20,35.4 19.43,36 18.57,36 L18.57,36 Z M2,34 L18,34 L18,2 L2,2 L2,34 L2,34 Z" id="Shape"></path>
            <path d="M34.5,36 L19.5,36 C18.6,36 18,35.4 18,34.5 L18,10.5 C18,9.6 18.6,9 19.5,9 L34.5,9 C35.4,9 36,9.6 36,10.5 L36,34.5 C36,35.4 35.4,36 34.5,36 L34.5,36 Z M20,34 L34,34 L34,11 L20,11 L20,34 L20,34 Z M6,23 L6,7 C6,6.6 6.4,6 7,6 C7.6,6 8,6.6 8,7 L8,23 C8,23.4 7.6,24 7,24 C6.4,24 6,23.4 6,23 L6,23 Z M12,23 L12,7 C12,6.6 12.4,6 13,6 C13.6,6 14,6.6 14,7 L14,23 C14,23.4 13.6,24 13,24 C12.4,24 12,23.4 12,23 L12,23 Z" id="Shape"></path>
            <path d="M24.333,36 C23.533,36 23,35.4 23,34.5 L23,28.5 C23,27.6 23.7,27 24.5,27 L29.5,27 C30.3,27 31,27.6 31,28.5 L31,34.5 C31,35.4 30.467,36 29.667,36 L24.333,36 L24.333,36 Z M25,34.5 L29,34.5 L29,29 L25,29 L25,34.5 L25,34.5 Z M6.667,36 C5.667,36 5,35.4 5,34.5 L5,28.5 C5,27.6 5.5,27 6.5,27 L13.5,27 C14.5,27 15,27.6 15,28.5 L15,34.5 C15,35.4 14.333,36 13.333,36 L6.667,36 L6.667,36 Z M7,34 L13,34 L13,29 L7,29 L7,34 L7,34 Z M24,16 C23.533,16 23,15.6 23,15 C23,14.4 23.533,14 24,14 L30,14 C30.467,14 31,14.4 31,15 C31,15.6 30.497,16 30,16 L24,16 L24,16 Z M24,23 C23.533,23 23,22.6 23,22 C23,21.4 23.533,21 24,21 L30,21 C30.467,21 31,21.4 31,22 C31,22.6 30.497,23 30,23 L24,23 L24,23 Z" id="Shape"></path>
        </g>
    </g>
</svg>