<?xml version="1.0" encoding="UTF-8" standalone="no"?>
<svg width="36px" height="36px" viewBox="0 0 36 36" version="1.1" xmlns="http://www.w3.org/2000/svg" xmlns:xlink="http://www.w3.org/1999/xlink">
    <!-- Generator: Sketch 39.1 (31720) - http://www.bohemiancoding.com/sketch -->
    <title>environments</title>
    <desc>Created with Sketch.</desc>
    <defs></defs>
    <g id="icons" stroke="none" stroke-width="1" fill="none" fill-rule="evenodd">
        <g id="environments" fill="#48639C">
            <path d="M0,6.31393147 C0,5.0359824 1.03858566,4 2.32050638,4 L33.6794936,4 C34.9610739,4 36,5.04586029 36,6.31393147 L36,9.68606853 C36,10.9640176 34.9614143,12 33.6794936,12 L2.32050638,12 C1.0389261,12 0,10.9541397 0,9.68606853 L0,6.31393147 Z M3,8 C3,7.44771525 3.44386482,7 4,7 C4.55228475,7 5,7.44386482 5,8 C5,8.55228475 4.55613518,9 4,9 C3.44771525,9 3,8.55613518 3,8 Z M7,8 C7,7.44771525 7.44386482,7 8,7 C8.55228475,7 9,7.44386482 9,8 C9,8.55228475 8.55613518,9 8,9 C7.44771525,9 7,8.55613518 7,8 Z M11,8 C11,7.44771525 11.4438648,7 12,7 C12.5522847,7 13,7.44386482 13,8 C13,8.55228475 12.5561352,9 12,9 C11.4477153,9 11,8.55613518 11,8 Z M19,7.5 L32,7.5 L32,8.5 L19,8.5 L19,7.5 Z" id="environments-top"></path>
            <path d="M0,16.3139315 C0,15.0359824 1.03858566,14 2.32050638,14 L33.6794936,14 C34.9610739,14 36,15.0458603 36,16.3139315 L36,19.6860685 C36,20.9640176 34.9614143,22 33.6794936,22 L2.32050638,22 C1.0389261,22 0,20.9541397 0,19.6860685 L0,16.3139315 Z M3,18 C3,17.4477153 3.44386482,17 4,17 C4.55228475,17 5,17.4438648 5,18 C5,18.5522847 4.55613518,19 4,19 C3.44771525,19 3,18.5561352 3,18 Z M7,18 C7,17.4477153 7.44386482,17 8,17 C8.55228475,17 9,17.4438648 9,18 C9,18.5522847 8.55613518,19 8,19 C7.44771525,19 7,18.5561352 7,18 Z M11,18 C11,17.4477153 11.4438648,17 12,17 C12.5522847,17 13,17.4438648 13,18 C13,18.5522847 12.5561352,19 12,19 C11.4477153,19 11,18.5561352 11,18 Z M19,17.5 L32,17.5 L32,18.5 L19,18.5 L19,17.5 Z" id="environments-middle"></path>
            <path d="M0,26.3139315 C0,25.0359824 1.03858566,24 2.32050638,24 L33.6794936,24 C34.9610739,24 36,25.0458603 36,26.3139315 L36,29.6860685 C36,30.9640176 34.9614143,32 33.6794936,32 L2.32050638,32 C1.0389261,32 0,30.9541397 0,29.6860685 L0,26.3139315 Z M3,28 C3,27.4477153 3.44386482,27 4,27 C4.55228475,27 5,27.4438648 5,28 C5,28.5522847 4.55613518,29 4,29 C3.44771525,29 3,28.5561352 3,28 Z M7,28 C7,27.4477153 7.44386482,27 8,27 C8.55228475,27 9,27.4438648 9,28 C9,28.5522847 8.55613518,29 8,29 C7.44771525,29 7,28.5561352 7,28 Z M11,28 C11,27.4477153 11.4438648,27 12,27 C12.5522847,27 13,27.4438648 13,28 C13,28.5522847 12.5561352,29 12,29 C11.4477153,29 11,28.5561352 11,28 Z M19,27.5 L32,27.5 L32,28.5 L19,28.5 L19,27.5 Z" id="environments-bottom"></path>
        </g>
    </g>
</svg>