<?xml version="1.0" encoding="UTF-8" standalone="no"?>
<svg width="36px" height="36px" viewBox="0 0 36 36" version="1.1" xmlns="http://www.w3.org/2000/svg" xmlns:xlink="http://www.w3.org/1999/xlink">
    <!-- Generator: Sketch 39.1 (31720) - http://www.bohemiancoding.com/sketch -->
    <title>error-alt</title>
    <desc>Created with Sketch.</desc>
    <defs></defs>
    <g id="icons" stroke="none" stroke-width="1" fill="none" fill-rule="evenodd">
        <g id="error-alt" fill="#48639C">
            <path d="M0,18 C0,8.0588745 8.05668872,0 18,0 C27.9411255,0 36,8.05668872 36,18 C36,27.9411255 27.9433113,36 18,36 C8.0588745,36 0,27.9433113 0,18 Z M18,34 C26.836556,34 34,26.836556 34,18 C34,9.163444 26.836556,2 18,2 C9.163444,2 2,9.163444 2,18 C2,26.836556 9.163444,34 18,34 Z M20,20 L16,20 L16,9 L20,9 L20,20 Z M20,27 L16,27 L16,23 L20,23 L20,27 Z" id="error"></path>
        </g>
    </g>
</svg>