<?xml version="1.0" encoding="UTF-8" standalone="no"?>
<svg width="36px" height="36px" viewBox="0 0 36 36" version="1.1" xmlns="http://www.w3.org/2000/svg" xmlns:xlink="http://www.w3.org/1999/xlink">
    <!-- Generator: Sketch 39.1 (31720) - http://www.bohemiancoding.com/sketch -->
    <title>fabric</title>
    <desc>Created with Sketch.</desc>
    <defs></defs>
    <g id="icons" stroke="none" stroke-width="1" fill="none" fill-rule="evenodd">
        <g id="fabric" fill="#48639C">
            <g transform="translate(0.000000, 4.000000)" id="Group">
                <g>
                    <path d="M27.5027393,25.041572 C27.3211985,25.8197043 27.2280466,26.2935876 26.8405914,26.8166381 C26.5822879,27.165432 26.1592529,27.3656031 25.7282335,27.3151751 C25.3536654,27.2714708 24.9910038,27.1109416 24.6263813,26.9705836 C20.4096187,25.347642 17.006568,22.4900544 13.5684981,19.6849962 C12.7490428,19.0164047 11.0197821,17.4685448 10.0376965,16.655393 C12.4286848,14.965074 13.4184747,13.9196732 13.4184747,13.9196732 C17.2713151,17.2645914 21.7633307,21.1803269 26.4513151,23.138895 C27.1983502,23.4511284 27.8973385,23.3499922 27.5027393,25.041572" id="Shape"></path>
                    <path d="M22.737572,12.4697276 C21.6529494,11.6125914 19.7558755,10.1895409 18.6848405,9.36336187 C15.9632685,7.26401557 13.0607159,5.51192219 9.73092607,4.51358755 C7.92742413,3.97288716 7.69055252,2.16014008 9.05407005,0.558910506 C9.30186771,0.267828794 9.68932295,0.0767626459 10.0636109,0.155066148 C16.2652763,1.45344748 20.9584436,5.25347859 26.184607,10.049463 C24.4164047,10.983642 22.737572,12.4697276 22.737572,12.4697276" id="Shape"></path>
                    <path d="M19.0016965,16.9707081 C22.8740078,13.0513307 30.3925448,8.31571985 34.1841713,8.14160312 C34.6273774,8.12129183 35.0483113,8.34289494 35.2811206,8.72054474 C35.654568,9.32638133 35.7753151,10.0517043 35.8868171,10.7649806 C35.994537,11.4541634 35.6352373,12.0423502 34.9816343,12.2254319 C30.4517977,13.4942568 26.0525136,16.5791907 22.4816498,19.524467 C21.2806226,18.9572919 19.0016965,16.9707081 19.0016965,16.9707081" id="Shape"></path>
                    <path d="M16.8880622,9.54924514 C12.439751,13.2635486 7.61294942,17.6950506 2.3949105,19.281572 C1.95436576,19.4154864 1.46801557,19.304965 1.15115953,18.9708794 C0.724902723,18.5213697 0.561712063,18.0588327 0.388856031,17.6086226 C-0.214879378,16.0356887 -0.0437042801,15.5756731 1.51928405,14.974179 C5.18820234,13.5619144 8.24091829,11.2149105 11.1944591,8.70611673 C11.6417276,8.32622569 12.5288405,7.59684047 13.0181323,7.19453697 C14.6361713,7.6282179 16.8880622,9.54924514 16.8880622,9.54924514" id="Shape"></path>
                    <path d="M8.87392995,23.2540388 C10.1496187,22.6002957 12.1135097,21.8287471 13.393821,21.1094474 C14.4280156,22.0213541 16.8225058,23.8378833 16.8225058,23.8378833 C15.0862413,24.998568 12.3170428,26.7267081 10.3891518,27.2252451 C9.92311284,27.3458521 9.4282179,27.1644514 9.13377431,26.7835798 C8.57010116,26.0541945 8.24414008,25.2798443 8.21612451,24.3584124 C8.20211673,23.8961557 8.46252141,23.464856 8.87392995,23.2540388" id="Shape"></path>
                    <path d="M19.2171362,2.90605448 C21.4969027,1.52712841 24.0620078,0.491673151 25.8197043,0.115564202 C26.3031128,0.0121867704 26.8082335,0.223284047 27.0735408,0.640435798 C27.5779612,1.43341635 27.7876576,2.23031907 27.736109,3.10202335 C27.7107549,3.53206226 27.4723424,3.92231907 27.0944124,4.1286537 C25.9917199,4.73084824 24.0276887,5.2003891 22.8989416,5.6930428 C22.8989416,5.6930428 20.9084358,4.01392995 19.2171362,2.90605448" id="Shape"></path>
                    <path d="M32.7793307,14.2977431 C35.8582413,15.4935876 36.9939922,15.8991128 34.7477043,19.0018365 C34.484358,19.3654786 34.0659456,19.3678599 33.6289028,19.2646226 C32.2279844,18.9337587 29.7420234,17.5013229 28.3658988,16.7007781 C30.902428,14.9460234 32.7793307,14.2977431 32.7793307,14.2977431" id="Shape"></path>
                    <path d="M3.6100856,12.907751 C2.8497432,12.6903502 1.40315953,12.4609027 0.740731517,12.0574786 C0.441245136,11.8750973 0.239813229,11.5575409 0.196809338,11.2095876 C0.0879688716,10.3297588 0.313914397,9.53733852 0.742972763,8.74001557 C0.977463035,8.30451362 1.45610895,8.05251362 1.9477821,8.10700388 C3.42420234,8.27103502 6.09240466,9.38675486 7.53688716,10.0472218 C5.44496498,11.973572 3.6100856,12.907751 3.6100856,12.907751" id="Shape"></path>
                </g>
            </g>
        </g>
    </g>
</svg>