<?xml version="1.0" encoding="UTF-8" standalone="no"?>
<svg width="36px" height="36px" viewBox="0 0 36 36" version="1.1" xmlns="http://www.w3.org/2000/svg" xmlns:xlink="http://www.w3.org/1999/xlink">
    <!-- Generator: Sketch 39.1 (31720) - http://www.bohemiancoding.com/sketch -->
    <title>free</title>
    <desc>Created with Sketch.</desc>
    <defs></defs>
    <g id="icons" stroke="none" stroke-width="1" fill="none" fill-rule="evenodd">
        <g id="free" fill="#48639C">
            <path d="M18,33.2999994 L12.4376941,35.1190173 L9.00688602,30.3779595 L3.4376941,28.5801345 L3.44883591,22.7279598 L0,18 L3.44883591,13.2720402 L3.4376941,7.41986546 L9.00688602,5.62204051 L12.4376941,0.880982707 L18,2.70000064 L23.5623059,0.880982707 L26.993114,5.62204051 L32.5623059,7.41986546 L32.5511641,13.2720402 L36,18 L32.5511641,22.7279598 L32.5623059,28.5801345 L26.993114,30.3779595 L23.5623059,35.1190173 L18,33.2999994 Z M12.5234375,18.3242188 L10.140625,18.3242188 L10.140625,20.6875 L9,20.6875 L9,15 L12.921875,15 L12.921875,15.8789062 L10.140625,15.8789062 L10.140625,17.4453125 L12.5234375,17.4453125 L12.5234375,18.3242188 Z M14.7578125,18.4140625 L14.7578125,20.6875 L13.6171875,20.6875 L13.6171875,15 L15.7617188,15 C16.4101595,15 16.9173159,15.147785 17.2832031,15.4433594 C17.6490904,15.7389338 17.8320312,16.151039 17.8320312,16.6796875 C17.8320312,16.9739598 17.7552091,17.2265614 17.6015625,17.4375 C17.4479159,17.6484386 17.2226577,17.8190098 16.9257812,17.9492188 C17.2617204,18.0481776 17.5032545,18.2135405 17.6503906,18.4453125 C17.7975268,18.6770845 17.8710938,18.96354 17.8710938,19.3046875 L17.8710938,19.7226562 C17.8710938,19.8815112 17.8925779,20.0475252 17.9355469,20.2207031 C17.9785158,20.3938811 18.0520828,20.522135 18.15625,20.6054688 L18.15625,20.6875 L16.9804688,20.6875 C16.8763016,20.6041662 16.8085939,20.4648447 16.7773438,20.2695312 C16.7460936,20.0742178 16.7304688,19.8893238 16.7304688,19.7148438 L16.7304688,19.3125 C16.7304688,19.0286444 16.6529956,18.8079435 16.4980469,18.6503906 C16.3430982,18.4928378 16.1250014,18.4140625 15.84375,18.4140625 L14.7578125,18.4140625 Z M14.7578125,17.5351562 L15.7421875,17.5351562 C16.0625016,17.5351562 16.3014315,17.4674486 16.4589844,17.3320312 C16.6165372,17.1966139 16.6953125,16.9960951 16.6953125,16.7304688 C16.6953125,16.4700508 16.6165372,16.2630216 16.4589844,16.109375 C16.3014315,15.9557284 16.069012,15.8789062 15.7617188,15.8789062 L14.7578125,15.8789062 L14.7578125,17.5351562 Z M22.4023438,18.1875 L20.046875,18.1875 L20.046875,19.8125 L22.8007812,19.8125 L22.8007812,20.6875 L18.90625,20.6875 L18.90625,15 L22.7929688,15 L22.7929688,15.8789062 L20.046875,15.8789062 L20.046875,17.3085938 L22.4023438,17.3085938 L22.4023438,18.1875 Z M26.9960938,18.1875 L24.640625,18.1875 L24.640625,19.8125 L27.3945312,19.8125 L27.3945312,20.6875 L23.5,20.6875 L23.5,15 L27.3867188,15 L27.3867188,15.8789062 L24.640625,15.8789062 L24.640625,17.3085938 L26.9960938,17.3085938 L26.9960938,18.1875 Z" id="Star-1"></path>
        </g>
    </g>
</svg>