<?xml version="1.0" encoding="UTF-8" standalone="no"?>
<svg width="36px" height="36px" viewBox="0 0 36 36" version="1.1" xmlns="http://www.w3.org/2000/svg" xmlns:xlink="http://www.w3.org/1999/xlink">
    <!-- Generator: Sketch 39.1 (31720) - http://www.bohemiancoding.com/sketch -->
    <title>full-color-travis</title>
    <desc>Created with Sketch.</desc>
    <defs>
        <polygon id="path-1" points="35.999921 35.8092 0.0108 35.8092 0.0108 0.11286 18.0053605 0.11286 35.999921 0.11286 35.999921 35.8092"></polygon>
    </defs>
    <g id="icons" stroke="none" stroke-width="1" fill="none" fill-rule="evenodd">
        <g id="full-color-travis">
            <g id="TravisCI-Mascot-1">
                <path d="M8.60058,15.69582 C8.60058,15.69582 2.99934,19.63836 2.78028,21.14028 L3.20058,21.05388 C3.20058,21.05388 9.9081,16.60806 15.22512,16.0659 L15.34554,15.39108 L8.60058,15.69582" id="Fill-1" fill="#BA3346"></path>
                <path d="M17.39322,15.13242 L12.98124,18.26172 L13.21974,18.45306 C13.39956,18.30798 21.05676,15.96942 21.05676,15.96942 L22.67118,14.95728 C21.58794,15.0921 17.39322,15.13242 17.39322,15.13242" id="Fill-2" fill="#BA3346"></path>
                <path d="M21.22776,18.91728 C24.36066,18.91728 29.05686,15.849 29.05686,15.849 L27.53874,15.5601 C27.46368,15.63516 25.09074,15.47694 25.09074,15.47694 L23.9643,15.1641 L21.27312,18.23058 L21.05406,18.76266 C21.24756,18.684 21.22776,18.91728 21.22776,18.91728" id="Fill-3" fill="#BA3346"></path>
                <path d="M8.00208,30.5397 C7.98048,30.5298 7.9587,30.51972 7.9371,30.50982 C7.78302,30.3768 7.65702,30.26808 7.57476,30.19734 L8.00208,30.5397 L8.00208,30.5397 Z M31.45104,28.70262 L30.48318,28.97514 L26.01144,28.87848 L23.21406,26.70318 L19.83294,27.54918 L15.92226,27.21078 L13.73238,29.6037 L9.62334,30.83112 L7.5717,30.195 C7.50636,30.13866 7.46838,30.10608 7.46838,30.10608 L8.38926,32.36094 C8.38926,32.36094 10.4751,34.59726 11.64024,34.86024 C12.8052,35.12322 14.90994,34.84134 16.48854,34.5969 C18.06696,34.35264 19.32606,33.78888 19.8333,32.86836 C20.34054,31.9473 20.41578,31.68432 20.41578,31.68432 C20.41578,31.68432 21.91932,33.80778 23.21586,34.05222 C24.5124,34.29648 28.36476,32.98086 28.36476,32.98086 C28.36476,32.98086 30.71394,32.34204 31.12704,31.53402 C31.5405,30.726 32.63058,28.0764 32.63058,28.0764 L31.45104,28.70262 L31.45104,28.70262 Z" id="Fill-4" fill="#BA3346"></path>
                <path d="M35.24976,12.72816 C35.24004,12.60738 35.22672,12.4866 35.21196,12.36654 C35.20152,12.2814 35.18802,12.19248 35.17326,12.11022 C34.85052,11.8386 34.48368,11.59704 34.1019,11.37744 C33.68808,11.1357 33.25518,10.91916 32.81328,10.7181 C32.37444,10.5111 31.92372,10.32372 31.4703,10.14084 C31.24404,10.04904 31.0158,9.95994 30.78666,9.87498 C30.55824,9.78588 30.32766,9.7029 30.09636,9.61866 C30.58182,9.69912 31.06224,9.80928 31.53906,9.93204 C31.8492,10.01232 32.15772,10.10214 32.46426,10.1979 C30.2841,4.5 25.07166,0.7893 19.3806,0.7893 C13.68864,0.7893 8.47674,4.5 6.29712,10.1979 C6.60366,10.10214 6.91218,10.01232 7.22178,9.93204 C7.69932,9.80928 8.17992,9.69912 8.66502,9.61866 C8.433,9.7029 8.20296,9.78588 7.97382,9.87498 C7.74576,9.95994 7.51734,10.04904 7.29018,10.14084 C6.83676,10.32372 6.3873,10.5111 5.94738,10.7181 C5.50638,10.91916 5.07312,11.1357 4.6593,11.37744 C4.27752,11.59686 3.91104,11.8386 3.58704,12.11022 C3.57354,12.19248 3.55986,12.2814 3.54924,12.36654 C3.53466,12.4866 3.52134,12.60738 3.51144,12.72816 C3.4902,12.97098 3.48156,13.2147 3.47958,13.45914 C3.47472,13.94748 3.50766,14.43582 3.56958,14.91894 C3.63618,15.4035 3.7251,15.88482 3.85668,16.35012 C3.92148,16.58322 3.99492,16.81308 4.07988,17.03556 C4.12254,17.14662 4.16898,17.25606 4.2174,17.36244 C4.24152,17.41536 4.26672,17.46774 4.29174,17.51796 L4.3227,17.577 C4.35852,17.59518 4.39614,17.61372 4.43196,17.631 L4.64868,17.7345 C4.76946,17.7894 4.93668,17.86878 5.07492,17.9307 L5.09706,17.91018 L4.69476,16.37784 C4.78008,16.35444 5.544,16.15734 6.86052,15.90678 C6.75432,15.88662 6.64704,15.8634 6.54156,15.8382 C6.24186,15.76368 5.94594,15.67278 5.65974,15.55668 C5.51754,15.49674 5.3775,15.43122 5.24412,15.35598 C5.11056,15.2793 4.97916,15.19254 4.87746,15.07734 C6.32394,15.5493 9.31266,15.33546 11.96928,15.06096 C14.3991,14.81058 16.8345,14.64822 19.28268,14.64336 C21.73104,14.64822 24.16734,14.81058 26.59608,15.06096 C29.25396,15.33546 32.24268,15.5493 33.68898,15.07734 C33.58746,15.19254 33.45624,15.27948 33.32268,15.35598 C33.1893,15.43122 33.04926,15.49674 32.90724,15.55668 C32.62068,15.67278 32.32512,15.76368 32.02542,15.8382 C31.98096,15.84882 31.93614,15.85854 31.89168,15.86808 C33.33528,16.13592 34.1757,16.35354 34.26552,16.37766 L33.88068,17.83746 C33.95808,17.80254 34.0362,17.76888 34.11288,17.73414 L34.32924,17.63064 C34.36524,17.61318 34.40178,17.59482 34.4385,17.57664 L34.46838,17.5176 C34.49466,17.46738 34.51986,17.415 34.5438,17.36208 C34.5924,17.2557 34.63884,17.14626 34.68132,17.0352 C34.76646,16.81272 34.84008,16.58286 34.9047,16.34976 C35.03628,15.88446 35.1252,15.40314 35.1918,14.91858 C35.2539,14.43528 35.28648,13.94694 35.28198,13.45878 C35.28,13.2147 35.27118,12.97098 35.24976,12.72816" id="Fill-5" fill="#F3EDA9"></path>
                <path d="M21.02166,32.99184 C20.83014,33.02064 20.63862,33.04494 20.44818,33.05934 C20.32542,33.06528 20.19546,33.0777 20.07756,33.0777 L20.034,33.0786 C20.18196,32.74794 20.29428,32.4918 20.37942,32.29758 C20.55276,32.49198 20.77326,32.73264 21.02166,32.99184" id="Fill-6" fill="#E2C8A6"></path>
                <path d="M21.43818,33.4161 C22.0329,34.00506 22.76982,34.34238 23.5809,34.40232 C22.21848,34.95564 20.93454,35.16912 19.94544,35.23572 C18.9594,35.30178 17.95968,35.1855 16.98012,34.91694 C17.0622,34.90218 17.12232,34.89174 17.19486,34.88292 C17.27532,34.8732 19.03194,34.64406 19.82376,33.46668 L19.8981,33.4683 L20.0925,33.46668 C20.22408,33.46668 20.3436,33.45588 20.46942,33.45102 C20.76822,33.4251 21.06036,33.38244 21.34746,33.32448 C21.37752,33.35526 21.4074,33.38532 21.43818,33.4161" id="Fill-7" fill="#E2C8A6"></path>
                <path d="M23.12352,15.78564 C23.06646,15.85998 23.00274,15.94206 22.93488,16.02738 C22.58694,16.4673 22.10436,17.02998 21.53196,17.58024 C20.86668,17.55972 20.18304,17.54838 19.47924,17.54838 C18.31644,17.54838 17.20134,17.57916 16.14258,17.63064 C17.63856,17.00982 19.43586,16.4034 21.3822,16.03908 C21.95064,15.93144 22.53258,15.8454 23.12352,15.78564" id="Fill-8" fill="#5F655E"></path>
                <path d="M14.36778,16.45542 C13.8339,16.83054 13.23072,17.30934 12.6459,17.8902 C11.14812,18.04014 9.84186,18.22176 8.76384,18.396 C10.4211,17.63424 12.31218,16.93314 14.36778,16.45542" id="Fill-9" fill="#5F655E"></path>
                <path d="M32.6664,19.54728 L32.05728,23.8095 L29.13912,25.8534 L21.52818,24.98814 L20.38248,21.21516 C20.3553,21.12336 20.2779,21.05586 20.18304,21.04038 C19.90098,20.99484 19.6515,20.97162 19.4436,20.97162 C19.2348,20.97162 18.98622,20.99484 18.7029,21.04038 C18.60894,21.05586 18.5319,21.12336 18.50382,21.21516 L17.3862,24.89616 L9.81774,26.58042 L6.81858,24.47946 L6.22764,19.6965 C6.35634,19.62378 6.48702,19.55142 6.61932,19.47888 C6.8049,19.43892 7.0137,19.39662 7.24482,19.35216 L7.80174,23.8653 C7.81038,23.93586 7.84926,23.99868 7.90722,24.03936 L9.97038,25.48512 C10.01286,25.51392 10.06326,25.5294 10.11348,25.5294 C10.13166,25.5294 10.1493,25.5276 10.16856,25.52346 L16.39116,24.1389 C16.41258,24.13404 16.43382,24.12648 16.45308,24.11658 C16.51104,24.0858 16.55658,24.0327 16.57584,23.96772 L17.69634,20.27808 C17.99694,20.20068 18.7668,20.02086 19.44342,20.02086 C20.11824,20.02086 20.88882,20.20068 21.1896,20.27808 L22.3101,23.96772 C22.33908,24.06348 22.42242,24.13188 22.52178,24.14358 L28.74438,24.85044 C28.80468,24.8571 28.86624,24.84144 28.91574,24.80688 L30.98016,23.36238 C31.03596,23.32278 31.07376,23.2605 31.0833,23.1921 L31.63446,19.33632 C32.04864,19.41624 32.39478,19.4886 32.6664,19.54728" id="Fill-10" fill="#5F655E"></path>
                <path d="M33.43518,16.87428 L32.8995,18.90648 C31.80402,18.66492 29.39742,18.19098 26.12178,17.87202 C27.19206,17.41572 28.28178,16.84332 29.27736,16.12782 C31.22658,16.40322 32.65776,16.69824 33.43518,16.87428" id="Fill-11" fill="#5F655E"></path>
                <path d="M20.78964,18.23742 C20.48994,18.48024 20.17386,18.70722 19.84482,18.90558 L18.74736,19.56798 C18.05904,19.65186 17.46162,19.82214 17.42778,19.83204 C17.40762,19.83762 17.38836,19.84626 17.37072,19.85724 C17.31744,19.88802 17.27694,19.93914 17.2575,20.00016 L16.13988,23.68296 L10.16658,25.01136 L8.28522,23.69358 L7.73784,19.25946 C8.80632,19.06326 10.23516,18.8361 11.95164,18.64386 C11.76768,18.86436 11.58912,19.0953 11.41974,19.33776 L10.39788,20.80458 L11.88576,19.8126 C11.9079,19.79712 12.85542,19.17378 14.4054,18.41562 C15.95016,18.2997 17.65494,18.225 19.47924,18.225 C19.92402,18.22482 20.36034,18.22986 20.78964,18.23742 L20.78964,18.23742 Z M11.49138,23.23224 C11.91564,23.00292 12.39516,23.03694 13.14558,23.03802 C13.22604,23.04 13.30902,23.03892 13.39578,23.03712 C13.46958,23.03622 13.54374,23.03514 13.62222,23.03316 C14.3955,23.0256 15.03864,23.09904 15.0273,21.88458 C15.0156,20.6703 14.47614,19.68894 13.70358,19.69668 C12.93012,19.70334 12.18186,20.6982 12.22812,21.91176 C12.24072,22.22784 12.28716,22.4559 12.36168,22.62042 C11.68758,22.78926 11.50182,23.20614 11.49138,23.23224 L11.49138,23.23224 Z" id="Fill-12" fill="#E0C69C"></path>
                <path d="M31.1427,19.24506 L30.60414,23.01498 L28.70712,24.3432 L22.74174,23.66532 L21.6288,19.99998 C21.6036,19.9188 21.53988,19.85616 21.4587,19.83186 C21.4218,19.82106 20.68326,19.61046 19.90008,19.5426 L20.04318,19.53306 C20.16684,19.52424 22.22442,19.27188 24.68124,18.4248 C27.40194,18.63378 29.62368,18.9684 31.1427,19.24506 L31.1427,19.24506 Z M27.3303,22.73436 C27.32274,22.70556 27.1602,22.21722 26.44074,22.3029 C26.52372,22.12236 26.56062,21.87882 26.53452,21.5451 C26.43948,20.33352 25.73478,19.3707 24.96222,19.39752 C24.18966,19.42488 23.69466,20.4291 23.73732,21.64356 C23.7798,22.85694 24.42852,22.84848 25.20108,22.8213 C26.23968,22.80204 26.8101,22.4829 27.3303,22.73436 L27.3303,22.73436 Z" id="Fill-13" fill="#E0C69C"></path>
                <path d="M20.78964,18.23742 C20.48994,18.48024 20.17386,18.70722 19.84482,18.90558 L18.74736,19.56798 C18.05904,19.65186 17.46162,19.82214 17.42778,19.83204 C17.40762,19.83762 17.38836,19.84626 17.37072,19.85724 C17.31744,19.88802 17.27694,19.93914 17.2575,20.00016 L16.13988,23.68296 L10.16658,25.01136 L8.28522,23.69358 L7.73784,19.25946 C8.80632,19.06326 10.23516,18.8361 11.95164,18.64386 C11.76768,18.86436 11.58912,19.0953 11.41974,19.33776 L10.39788,20.80458 L11.88576,19.8126 C11.9079,19.79712 12.85542,19.17378 14.4054,18.41562 C15.95016,18.2997 17.65494,18.225 19.47924,18.225 C19.92402,18.22482 20.36034,18.22986 20.78964,18.23742 L20.78964,18.23742 Z M11.49138,23.23224 C11.91564,23.00292 12.39516,23.03694 13.14558,23.03802 C13.22604,23.04 13.30902,23.03892 13.39578,23.03712 C13.46958,23.03622 13.54374,23.03514 13.62222,23.03316 C14.3955,23.0256 15.03864,23.09904 15.0273,21.88458 C15.0156,20.6703 14.47614,19.68894 13.70358,19.69668 C12.93012,19.70334 12.18186,20.6982 12.22812,21.91176 C12.24072,22.22784 12.28716,22.4559 12.36168,22.62042 C11.68758,22.78926 11.50182,23.20614 11.49138,23.23224 L11.49138,23.23224 Z" id="Fill-14" fill="#BFAD91"></path>
                <path d="M31.1427,19.24506 L30.60414,23.01498 L28.70712,24.3432 L22.74174,23.66532 L21.6288,19.99998 C21.6036,19.9188 21.53988,19.85616 21.4587,19.83186 C21.4218,19.82106 20.68326,19.61046 19.90008,19.5426 L20.04318,19.53306 C20.16684,19.52424 22.22442,19.27188 24.68124,18.4248 C27.40194,18.63378 29.62368,18.9684 31.1427,19.24506 L31.1427,19.24506 Z M27.3303,22.73436 C27.32274,22.70556 27.1602,22.21722 26.44074,22.3029 C26.52372,22.12236 26.56062,21.87882 26.53452,21.5451 C26.43948,20.33352 25.73478,19.3707 24.96222,19.39752 C24.18966,19.42488 23.69466,20.4291 23.73732,21.64356 C23.7798,22.85694 24.42852,22.84848 25.20108,22.8213 C26.23968,22.80204 26.8101,22.4829 27.3303,22.73436 L27.3303,22.73436 Z" id="Fill-15" fill="#BFAD91"></path>
                <path d="M33.74658,20.90322 C33.83802,20.97864 33.91056,21.17394 33.82866,22.08366 C33.72804,23.1975 33.25986,25.15248 32.96988,25.46766 C32.64984,25.52958 31.97898,25.45614 31.56984,25.36056 C31.64058,25.07994 31.66074,24.94548 31.7178,24.65856 L32.4333,24.15798 C32.49036,24.11838 32.52798,24.0561 32.5377,23.9886 L33.03774,20.48472 C33.34122,20.64888 33.65352,20.82654 33.74658,20.90322" id="Fill-16" fill="#E2C8A6"></path>
                <path d="M7.36866,25.4763 C7.40448,25.60302 7.4421,25.72956 7.48098,25.8543 C7.09596,25.96734 6.31188,26.0757 5.95728,26.01378 C5.66334,25.71768 5.11506,23.6799 4.99518,22.59774 C4.89744,21.72096 4.96602,21.53142 5.05512,21.45762 C5.15862,21.37068 5.54616,21.15018 5.88186,20.97036 L6.33528,24.65118 C6.34392,24.72192 6.38154,24.78456 6.44076,24.82524 L7.36866,25.4763" id="Fill-17" fill="#E2C8A6"></path>
                <path d="M21.84246,25.52778 L21.81528,25.76268 C21.81528,25.76268 20.9907,26.52732 19.6632,26.6985 C18.3357,26.8695 17.29242,26.05374 17.29242,26.05374 C17.33598,26.19558 17.3979,26.5158 17.6985,26.78922 C17.3448,26.74692 16.96284,26.71848 16.56216,26.71848 C16.41744,26.71848 16.27128,26.72262 16.12998,26.72946 C15.31296,26.77212 14.16366,28.00746 13.35546,29.25198 C12.95892,29.37744 11.71944,29.77092 10.28466,30.19464 C8.94546,28.33902 8.28702,26.44308 8.22024,26.24688 L8.22114,26.2458 C8.19414,26.17038 8.16696,26.09478 8.14176,26.01756 L8.4861,26.2584 L8.4861,26.2593 L9.33678,26.85492 L9.62118,27.0531 C9.66366,27.08316 9.71388,27.09864 9.7641,27.09864 C9.78246,27.09864 9.80082,27.09666 9.819,27.09306 L17.6373,25.35246 C17.72496,25.3332 17.79588,25.26732 17.8218,25.18146 L18.93672,21.51126 C19.12914,21.48516 19.29816,21.47166 19.44324,21.47166 C19.58742,21.47166 19.75752,21.48516 19.94994,21.51126 L21.09726,25.29072 C21.12642,25.38648 21.20958,25.45614 21.30804,25.46658 L21.84246,25.52778" id="Fill-18" fill="#E2C8A6"></path>
                <path d="M30.76668,25.32474 L31.01904,25.14762 C30.97728,25.32276 30.93192,25.49682 30.88458,25.6689 C30.53376,26.79354 30.11958,27.78822 29.65968,28.66698 C29.55798,28.674 29.4507,28.67796 29.33568,28.67796 C28.98072,28.67796 28.6182,28.6479 28.21698,28.61118 C27.52074,28.54728 26.41572,28.42074 26.0667,28.38024 C25.7661,28.14048 24.7374,27.3231 23.8815,26.64954 C23.84784,26.62236 23.81886,26.59716 23.7906,26.57394 C23.63994,26.4465 23.46858,26.3016 23.12154,26.3016 C22.80636,26.3016 22.3461,26.41644 21.23352,26.75304 C21.81168,26.32086 21.81546,25.76304 21.81546,25.76304 L21.84264,25.52814 L29.17728,26.36136 C29.23704,26.3682 29.29896,26.35272 29.34918,26.31798 L30.0861,25.80174 L30.76668,25.32474" id="Fill-19" fill="#E2C8A6"></path>
                <path d="M25.36866,9.89352 C25.39098,10.54602 25.3746,11.72844 25.07076,12.83562 C25.05852,12.87828 25.06032,12.92184 25.07076,12.96234 C24.68412,12.92166 24.2973,12.88692 23.91048,12.85596 C24.34464,11.94624 24.43932,10.97748 24.45984,10.6362 C24.7932,10.39914 25.12512,10.11492 25.36866,9.89352" id="Fill-20" fill="#E8D194"></path>
                <path d="M14.30208,10.63602 C14.32224,10.9773 14.41692,11.94408 14.85036,12.85308 C14.46354,12.88386 14.0769,12.91968 13.69098,12.96036 C13.70142,12.92058 13.70268,12.8781 13.69098,12.83544 C13.3875,11.73042 13.37202,10.54692 13.39326,9.89334 C13.6368,10.11492 13.96746,10.39914 14.30208,10.63602" id="Fill-21" fill="#E8D194"></path>
                <path d="M24.90246,20.95632 C25.12008,20.95146 25.29396,20.77164 25.29018,20.55402 C25.2864,20.3355 25.10658,20.16144 24.88788,20.16648 C24.66954,20.17008 24.49638,20.35008 24.50052,20.5686 C24.5043,20.78604 24.68412,20.96028 24.90246,20.95632 L24.90246,20.95632 Z M27.3303,22.73436 C26.8101,22.48308 26.23968,22.80222 25.20126,22.82148 C24.4287,22.84866 23.77998,22.85712 23.7375,21.64374 C23.69484,20.42928 24.18984,19.42506 24.9624,19.3977 C25.73496,19.3707 26.43966,20.3337 26.5347,21.54528 C26.5608,21.879 26.5239,22.12254 26.44092,22.30308 C27.1602,22.21722 27.32274,22.70538 27.3303,22.73436 L27.3303,22.73436 Z" id="Fill-22" fill="#292C2D"></path>
                <path d="M24.88788,20.16504 C25.10586,20.16108 25.28586,20.3346 25.28982,20.55258 C25.29378,20.77074 25.12026,20.95074 24.90228,20.9547 C24.68412,20.95866 24.50412,20.78514 24.50016,20.56716 C24.4962,20.349 24.66972,20.169 24.88788,20.16504" id="Fill-23" fill="#F0F8F9"></path>
                <path d="M13.833,21.24918 C14.05062,21.2436 14.2227,21.06144 14.21694,20.844 C14.211,20.62548 14.02956,20.4534 13.81194,20.45934 C13.59324,20.46492 13.42098,20.64672 13.42692,20.86434 C13.43268,21.08304 13.61448,21.25512 13.833,21.24918 L13.833,21.24918 Z M15.02712,21.8844 C15.03846,23.09886 14.3955,23.02542 13.62204,23.03298 C13.54374,23.03496 13.4694,23.03586 13.3956,23.03694 C13.30884,23.03892 13.22568,23.03982 13.1454,23.03784 C12.39516,23.03694 11.91546,23.00292 11.4912,23.23206 C11.50164,23.20596 11.6874,22.78908 12.3615,22.62006 C12.28698,22.45554 12.24036,22.22748 12.22794,21.9114 C12.18168,20.69802 12.92994,19.70298 13.7034,19.69632 C14.47596,19.68876 15.01542,20.6703 15.02712,21.8844 L15.02712,21.8844 Z" id="Fill-24" fill="#292C2D"></path>
                <path d="M13.81248,20.45988 C14.03064,20.4543 14.21208,20.62656 14.21766,20.84472 C14.22324,21.06288 14.05098,21.24414 13.83282,21.2499 C13.61466,21.25548 13.4334,21.08322 13.42764,20.86506 C13.42206,20.6469 13.59432,20.46546 13.81248,20.45988" id="Fill-25" fill="#F0F8F9"></path>
                <path d="M8.9136,13.7673 L8.82378,13.59792 L8.82036,13.15278 L9.05418,10.50696 L13.11534,9.52344 L13.36806,12.93804 C13.17132,12.6711 12.87648,12.06684 12.69378,11.23776 C12.59604,10.79496 12.28212,10.66878 11.92068,10.66878 C11.6055,10.66878 11.25432,10.7649 10.97946,10.83024 C10.38906,10.97082 9.61614,11.16756 9.48978,11.47662 C9.24444,12.0762 9.12438,13.64076 9.12438,13.64076 L8.9136,13.7673" id="Fill-26" fill="#EAD798"></path>
                <path d="M29.88468,13.7673 L29.6739,13.64076 C29.6739,13.64076 29.55402,12.0762 29.30868,11.47662 C29.18214,11.16756 28.40922,10.97082 27.81918,10.83024 C27.54414,10.7649 27.19278,10.66878 26.8776,10.66878 C26.51616,10.66878 26.20224,10.79496 26.1045,11.23776 C25.92216,12.06684 25.62678,12.6711 25.42986,12.93804 L25.68312,9.52344 L29.74428,10.50696 L29.94354,12.76236 L29.93616,13.66992 L29.88468,13.7673" id="Fill-27" fill="#EAD798"></path>
                <path d="M23.53068,13.1544 L15.34392,13.13928 L14.91966,12.18402 L14.61636,10.54674 L13.9491,10.01628 L13.9338,6.20334 L14.8734,3.4245 C14.8734,3.4245 15.02784,11.6091 16.94052,11.6091 L19.23588,11.6091 L19.61838,11.6091 L21.91338,11.6091 C23.82606,11.6091 23.9337,3.4209 23.9337,3.4209 L25.17786,8.0109 L24.27372,10.59228 L24.228,11.32002 L23.90958,12.47202 L23.53068,13.1544" id="Fill-28" fill="#EAD899"></path>
                <path d="M31.8555,14.616 C31.8555,14.616 31.73976,14.55948 31.39254,14.38974 C31.39254,14.38974 31.85568,14.616 31.8555,14.616 M31.39254,14.38974 L29.934,13.94982 L29.93616,13.66992 L30.01122,13.52844 L29.94354,12.76236 L29.95722,11.05578 C29.95722,11.05578 30.35088,13.88034 31.39254,14.38974" id="Fill-29" fill="#EAD899"></path>
                <polyline id="Fill-30" fill="#E9D295" points="29.93616 13.66992 29.95666 12.76236 30.14466 13.52844 29.93616 13.66992"></polyline>
                <path d="M6.90498,14.616 C6.9048,14.616 7.36794,14.38974 7.36794,14.38974 C7.02072,14.55948 6.90498,14.616 6.90498,14.616 M7.36794,14.38974 C8.40978,13.88034 8.80344,11.05578 8.80344,11.05578 L8.82036,13.15278 L8.78706,13.52844 L8.82378,13.59792 L8.82666,13.94982 L7.36794,14.38974" id="Fill-31" fill="#EAD899"></path>
                <polyline id="Fill-32" fill="#E9D295" points="8.88906 13.65278 8.78706 13.5747371 8.87956 13.15278 8.88906 13.65278"></polyline>
                <path d="M13.24224,13.0086 L13.2246,12.96414 C12.8691,11.67048 12.88458,10.314 12.91644,9.68832 L9.22392,10.73826 C8.97552,12.35502 9.09144,13.5432 9.11646,13.76172 C9.423,13.67856 9.73044,13.60206 10.04004,13.5306 C10.55034,13.41756 11.06478,13.32288 11.58012,13.23576 C12.09654,13.14972 12.61458,13.08402 13.1328,13.0212 C13.1697,13.01634 13.20552,13.01364 13.24224,13.0086 L13.24224,13.0086 Z M14.85018,12.85308 C14.41674,11.94408 14.32206,10.97712 14.3019,10.63602 C13.96746,10.39914 13.63662,10.11492 13.39308,9.89352 C13.37166,10.5471 13.38732,11.7306 13.6908,12.83562 C13.7025,12.87828 13.70124,12.92076 13.6908,12.96054 C14.0769,12.91968 14.46336,12.88404 14.85018,12.85308 L14.85018,12.85308 Z M25.07058,12.83544 C25.37442,11.72844 25.3908,10.54584 25.36848,9.89334 C25.12494,10.11474 24.79302,10.39896 24.45966,10.63584 C24.43914,10.97712 24.34446,11.94588 23.9103,12.8556 C24.29712,12.88674 24.68394,12.92148 25.07058,12.96198 C25.06014,12.92166 25.05834,12.87828 25.07058,12.83544 L25.07058,12.83544 Z M29.6442,13.76262 C29.6694,13.54536 29.78622,12.357 29.53782,10.73844 L25.84422,9.6885 C25.87734,10.314 25.89192,11.67066 25.53696,12.96432 L25.51878,13.01076 C25.55532,13.01454 25.59222,13.01742 25.62786,13.02228 C26.66628,13.14126 27.69984,13.3074 28.72188,13.53168 C29.03004,13.60332 29.33856,13.67982 29.6442,13.76262 L29.6442,13.76262 Z M30.23766,13.93686 C30.73356,14.09922 31.23234,14.2713 31.68414,14.53536 C31.4424,14.4396 31.19292,14.37102 30.94146,14.3091 C30.69108,14.2452 30.43872,14.1912 30.18528,14.14278 C29.67768,14.0472 29.16828,13.96602 28.65564,13.90392 C28.14426,13.83732 27.63198,13.78116 27.11736,13.7376 C26.60292,13.69422 26.08974,13.65066 25.57422,13.6206 C23.51394,13.49388 21.4479,13.4622 19.38042,13.46004 C17.31348,13.46112 15.24726,13.49982 13.1868,13.6215 C12.67164,13.65138 12.1581,13.69512 11.64384,13.73868 C11.12958,13.78206 10.61604,13.83732 10.10556,13.90482 C9.5931,13.96692 9.08352,14.0481 8.57592,14.14368 C8.32266,14.1912 8.07012,14.24628 7.81884,14.3091 C7.56846,14.37102 7.3179,14.4396 7.07616,14.53536 C7.52778,14.27148 8.02656,14.0985 8.52354,13.93578 C8.5653,13.92228 8.6076,13.91076 8.65008,13.89726 L8.64234,13.8654 C8.6337,13.80834 8.44992,12.45078 8.76996,10.5093 C8.78544,10.41642 8.85204,10.341 8.94312,10.3158 L9.46818,10.16622 C9.5823,6.09372 11.25954,4.17834 11.31192,4.1193 C9.81324,6.53076 9.82692,9.39078 9.85284,10.05678 L13.11588,9.12942 L13.12344,9.12762 L13.16412,9.12186 L13.17762,9.12078 C13.19418,9.11988 13.21272,9.12186 13.23108,9.12564 L13.24062,9.12852 L13.28094,9.14202 L13.29642,9.15084 L13.32828,9.171 L13.3371,9.17694 L13.34286,9.1827 L13.35258,9.19062 C13.35474,9.1935 13.4415,9.27936 13.57974,9.40824 C13.54698,8.3331 13.5981,5.2488 15.0669,2.69244 C15.03594,2.78208 13.87062,6.18948 14.2722,10.00854 C14.40252,10.11294 14.53968,10.21536 14.67342,10.30536 C14.73804,10.34982 14.77782,10.42326 14.77872,10.50156 C14.7798,10.51416 14.8077,11.7315 15.34536,12.76704 C15.35292,12.78252 15.35868,12.7989 15.36372,12.81528 C16.70094,12.72438 18.04176,12.68766 19.37988,12.68676 C20.71836,12.68766 22.05828,12.72636 23.39514,12.81834 C23.4,12.80088 23.40594,12.7836 23.41476,12.76704 C23.95224,11.7315 23.98032,10.51416 23.98032,10.50156 C23.98212,10.42308 24.0219,10.34982 24.0867,10.30536 C24.22008,10.21536 24.35544,10.11294 24.48702,10.00854 C24.88914,6.18948 23.72382,2.78208 23.69304,2.69244 C25.16058,5.24862 25.21296,8.33292 25.1802,9.40824 C25.31736,9.27954 25.40448,9.19368 25.40718,9.19062 L25.41672,9.1827 L25.42266,9.17694 L25.43148,9.171 L25.46334,9.14976 L25.47792,9.14202 L25.5204,9.12762 L25.52922,9.12564 C25.5465,9.12186 25.56522,9.11988 25.5825,9.12078 L25.5951,9.12186 L25.63668,9.12762 L25.64424,9.12942 L28.90746,10.05678 C28.93374,9.39078 28.94724,6.53058 27.44874,4.1193 C27.50076,4.17834 29.17836,6.09372 29.2914,10.16622 L29.81736,10.3158 C29.90718,10.341 29.97486,10.41642 29.99052,10.5093 C30.31038,12.45078 30.12588,13.80834 30.11796,13.8654 L30.1104,13.89816 C30.15342,13.91076 30.195,13.92318 30.23766,13.93686 L30.23766,13.93686 Z" id="Fill-33" fill="#292C2D"></path>
                <path d="M22.62006,5.94144 L22.62006,4.17942 L16.27974,4.17942 L16.27974,5.94144 L17.14662,5.94144 L17.14662,5.04612 L18.94014,5.04612 L18.94014,10.48662 L18.20214,10.48662 L18.20214,11.4957 L20.69784,11.4957 L20.69784,10.48662 L19.95984,10.48662 L19.95984,5.04612 L21.75336,5.04612 L21.75336,5.94144 L22.62006,5.94144 L22.62006,5.94144 Z M23.27274,3.528 L23.27274,6.5925 L21.1005,6.5925 L21.1005,5.69718 L20.6109,5.69718 L20.6109,9.83376 L21.35052,9.83376 L21.35052,12.14676 L17.5509,12.14676 L17.5509,9.83376 L18.28746,9.83376 L18.28746,5.69736 L17.79948,5.69736 L17.79948,6.59268 L15.62868,6.59268 L15.62868,3.528 L23.27274,3.528 L23.27274,3.528 Z" id="Fill-34" fill="#292C2D"></path>
                <polyline id="Fill-35" fill="#BA3346" points="22.62006 4.17924 22.62006 5.94144 21.75318 5.94144 21.75318 5.04612 19.95966 5.04612 19.95966 10.48662 20.69766 10.48662 20.69766 11.4957 18.20214 11.4957 18.20214 10.48662 18.94014 10.48662 18.94014 5.04612 17.14662 5.04612 17.14662 5.94144 16.27974 5.94144 16.27974 4.17924 22.62006 4.17924"></polyline>
                <path d="M5.52492,16.87428 C5.84154,16.80246 6.2694,16.71102 6.7941,16.60968 C6.47172,16.82946 6.09048,17.1054 5.67414,17.43714 L5.52492,16.87428" id="Fill-36" fill="#5F655E"></path>
                <path d="M17.11998,25.27326 C17.11998,25.27326 17.20854,25.84296 16.41114,26.08668 C15.6141,26.33058 10.56438,27.83556 9.98838,27.75402 C9.41256,27.67284 7.95096,26.6967 7.95096,26.6967 L7.59654,25.43598 L9.75942,26.78454 L17.11998,25.27326" id="Fill-37" fill="#BFAD91"></path>
                <path d="M21.64356,25.16292 C21.64356,25.16292 21.57984,25.73568 22.38714,25.94502 C23.19426,26.154 28.30464,27.43812 28.87614,27.33174 C29.44782,27.22536 30.86568,26.18676 30.86568,26.18676 L31.16502,24.91164 L29.17692,26.09748 L21.64356,25.16292" id="Fill-38" fill="#BFAD91"></path>
                <path d="M5.11416,24.22494 C5.11416,24.22494 5.81382,25.62444 6.94404,25.13988 L7.75134,25.43598 L7.6707,26.02818 L5.97528,26.24328 L5.5179,25.97436 L5.11416,24.22494" id="Fill-39" fill="#BFAD91"></path>
                <g id="Group-44">
                    <mask id="mask-2" fill="white">
                        <use xlink:href="#path-1"></use>
                    </mask>
                    <g id="Clip-41"></g>
                    <path d="M33.75918,23.84082 C33.75918,23.84082 32.61564,25.30152 31.48542,24.81714 L31.122,25.0515 L31.20264,25.64352 L32.89806,25.8588 L33.35526,25.5897 L33.75918,23.84082" id="Fill-40" fill="#BFAD91" mask="url(#mask-2)"></path>
                    <path d="M16.07022,34.83558 C16.07022,34.83558 20.21562,36.92556 24.9093,34.08174 L23.40198,33.97896 C23.40198,33.97896 20.11302,35.28072 17.50914,34.56126 L16.07022,34.83558" id="Fill-42" fill="#BFAD91" mask="url(#mask-2)"></path>
                    <path d="M6.7941,16.60968 C6.2694,16.7112 5.84154,16.80246 5.52492,16.87428 L5.67414,17.43714 C6.09048,17.10522 6.47172,16.82946 6.7941,16.60968 L6.7941,16.60968 Z M7.4808,25.85448 C7.44156,25.72974 7.40448,25.60284 7.36902,25.47612 L6.43986,24.82596 C6.381,24.78492 6.34374,24.72246 6.33438,24.65154 L5.8815,20.97072 C5.54598,21.15054 5.15844,21.37122 5.05494,21.45798 C4.96548,21.5316 4.89744,21.72078 4.99446,22.59774 C5.1147,23.67954 5.66262,25.71768 5.9571,26.01396 C6.31134,26.07642 7.09596,25.96752 7.4808,25.85448 L7.4808,25.85448 Z M13.0338,16.09902 C13.7223,15.90606 14.43258,15.7374 15.16014,15.59574 C14.1165,15.6339 13.07214,15.68232 12.0294,15.74118 C11.42352,15.77466 10.8207,15.8157 10.2177,15.86124 C9.91566,15.88446 9.6156,15.90858 9.31644,15.94134 C9.23076,15.94962 9.14688,15.95898 9.0612,15.97014 C8.27478,16.44066 5.25834,18.33426 3.18762,20.81016 C5.19984,19.41174 8.70534,17.31042 13.0338,16.09902 L13.0338,16.09902 Z M12.64518,17.88984 C13.23036,17.30934 13.83408,16.83036 14.36724,16.45578 C12.31254,16.93296 10.4211,17.63352 8.7642,18.39582 C9.84222,18.22158 11.14776,18.03996 12.64518,17.88984 L12.64518,17.88984 Z M20.5317,15.52392 C20.1159,15.51744 19.69956,15.51366 19.28376,15.51276 L19.28286,15.51276 C18.67266,15.51366 18.0612,15.52014 17.44884,15.53238 L16.32042,16.06716 L16.30458,16.0758 C16.13502,16.1586 14.65326,16.90614 13.25916,18.23958 C14.5089,17.58258 16.34544,16.72434 18.5067,16.05888 C19.15416,15.86052 19.83258,15.67764 20.5317,15.52392 L20.5317,15.52392 Z M19.84482,18.90576 C20.17368,18.70722 20.48958,18.47988 20.78964,18.2376 C20.35998,18.23022 19.92402,18.22464 19.4796,18.22464 C17.65494,18.22464 15.95052,18.29934 14.40558,18.41562 C12.85578,19.17324 11.90808,19.79658 11.88594,19.81242 L10.3977,20.80494 L11.41992,19.33812 C11.58858,19.09458 11.7675,18.86364 11.952,18.64386 C10.23552,18.83574 8.80614,19.06308 7.7382,19.25982 L8.28504,23.69358 L10.16658,25.01136 L16.1397,23.68332 L17.25786,19.9998 C17.27658,19.93914 17.31744,19.88802 17.37072,19.85706 C17.38836,19.84572 17.40708,19.83744 17.42742,19.83186 C17.46198,19.8225 18.05922,19.65204 18.7479,19.56816 L19.84482,18.90576 L19.84482,18.90576 Z M20.44854,33.05952 C20.63862,33.04458 20.8296,33.02028 21.02166,32.99148 C20.77272,32.73264 20.55294,32.49198 20.37942,32.29722 C20.29464,32.49198 20.18214,32.74812 20.03382,33.07824 L20.07756,33.07824 C20.196,33.07842 20.3256,33.06546 20.44854,33.05952 L20.44854,33.05952 Z M23.58054,34.4025 C22.77,34.34274 22.0329,34.0056 21.438,33.41664 C21.40722,33.38514 21.37752,33.3549 21.34764,33.32448 C21.06,33.38226 20.76822,33.4251 20.46906,33.4512 C20.34342,33.45588 20.22408,33.46686 20.09268,33.46686 L19.89774,33.46884 L19.8234,33.46686 C19.03212,34.64388 17.27478,34.8732 17.1945,34.88346 C17.12196,34.89174 17.06238,34.902 16.98012,34.91694 C17.95968,35.18532 18.9594,35.30178 19.94544,35.23554 C20.934,35.16948 22.2183,34.9551 23.58054,34.4025 L23.58054,34.4025 Z M22.93488,16.0272 C23.00274,15.94242 23.0661,15.86052 23.1228,15.786 C22.53222,15.84558 21.95064,15.93144 21.3822,16.03944 C19.43568,16.40376 17.63802,17.00946 16.1424,17.6301 C17.20206,17.5788 18.31644,17.5482 19.4796,17.5482 C20.18304,17.5482 20.86704,17.56026 21.53232,17.57988 C22.10454,17.0298 22.5873,16.46712 22.93488,16.0272 L22.93488,16.0272 Z M28.31256,15.86052 L28.30698,15.85836 C27.71802,15.81462 27.12924,15.77448 26.5383,15.74118 C25.7184,15.69438 24.89814,15.65532 24.07824,15.62094 C24.03054,15.69186 23.93388,15.83154 23.79492,16.02144 C23.3487,16.62534 22.46328,17.73324 21.3282,18.67266 C22.93488,18.38466 25.72182,17.67186 28.13274,15.98976 C28.19322,15.94692 28.25298,15.90228 28.31256,15.86052 L28.31256,15.86052 Z M31.01868,25.14726 L30.76596,25.3242 L30.08574,25.80138 L29.34864,26.31762 C29.29842,26.35218 29.23686,26.36802 29.17692,26.36136 L21.84264,25.52742 L21.30876,25.46676 C21.20994,25.45542 21.12696,25.38648 21.09798,25.2909 L19.95012,21.51126 C19.75824,21.48516 19.5876,21.47184 19.44432,21.47184 C19.2987,21.47184 19.12914,21.48498 18.93726,21.51126 L17.8227,25.18182 C17.7966,25.2675 17.72586,25.33284 17.6382,25.3521 L9.8199,27.09306 C9.80136,27.09666 9.78282,27.09846 9.765,27.09846 C9.71478,27.09846 9.66438,27.08352 9.62136,27.05292 L9.33732,26.85528 L8.48664,26.26002 L8.48664,26.25804 L8.14284,26.01774 C8.16714,26.09514 8.19486,26.17074 8.22222,26.24598 L8.22114,26.24706 C8.28738,26.44362 8.94618,28.33902 10.2852,30.19428 C11.71926,29.77128 12.95964,29.37798 13.35546,29.25216 C14.1633,28.0071 15.31332,26.7723 16.1307,26.72964 C16.27128,26.72298 16.4178,26.71866 16.56306,26.71866 C16.96284,26.71866 17.34498,26.74746 17.69886,26.7894 C17.39808,26.51634 17.33652,26.19576 17.29278,26.0541 C17.29278,26.0541 18.33552,26.8695 19.66338,26.69922 C20.99142,26.52768 21.816,25.7625 21.816,25.7625 C21.816,25.7625 21.81222,26.32086 21.23352,26.75304 C22.34628,26.41662 22.80654,26.30106 23.12154,26.30106 C23.46912,26.30106 23.64048,26.4465 23.7906,26.57448 C23.81958,26.5977 23.84856,26.62272 23.88186,26.6499 C24.7374,27.32346 25.7661,28.14084 26.06724,28.38042 C26.41572,28.42128 27.52074,28.5471 28.21698,28.61136 C28.61838,28.64754 28.98108,28.67832 29.33604,28.67832 C29.4507,28.67832 29.55798,28.67364 29.6595,28.66698 C30.11994,27.78858 30.53376,26.793 30.88494,25.66944 C30.93192,25.49664 30.97782,25.3224 31.01868,25.14726 L31.01868,25.14726 Z M30.60414,23.01516 L31.1427,19.24452 C29.62368,18.96804 27.4023,18.6336 24.68124,18.4248 C22.22478,19.27206 20.16738,19.52424 20.04336,19.5327 L19.8999,19.54296 C20.68344,19.61028 21.42162,19.82088 21.4587,19.83186 C21.54006,19.85616 21.60342,19.91844 21.62862,19.9998 L22.7421,23.66568 L28.70694,24.3432 L30.60414,23.01516 L30.60414,23.01516 Z M32.05674,23.80914 L32.66604,19.54746 C32.39496,19.48878 32.04846,19.41624 31.63446,19.33704 L31.08384,23.193 C31.07358,23.26104 31.03614,23.3235 30.98034,23.36274 L28.91538,24.80688 C28.86678,24.84144 28.8045,24.85728 28.74492,24.85062 L22.52196,24.1434 C22.42224,24.13206 22.33926,24.06312 22.31028,23.96826 L21.18942,20.27826 C20.88918,20.20068 20.1186,20.02086 19.44414,20.02086 C18.76662,20.02086 17.99676,20.20068 17.6967,20.27826 L16.57566,23.96826 C16.55604,24.03234 16.51122,24.0858 16.4529,24.11622 C16.43418,24.12648 16.41276,24.13386 16.39116,24.13872 L10.1682,25.52328 C10.14858,25.52724 10.13184,25.52922 10.11312,25.52922 C10.0629,25.52922 10.0125,25.51428 9.97056,25.48422 L7.9065,24.039 C7.84872,23.99886 7.81038,23.9355 7.8012,23.86476 L7.24482,19.3518 C7.0137,19.39662 6.80508,19.43946 6.6186,19.47834 C6.48648,19.55124 6.3558,19.62396 6.22728,19.69668 L6.81786,24.47892 L9.81774,26.58042 L17.3862,24.8967 L18.50346,21.21588 C18.53154,21.12336 18.60876,21.05532 18.7029,21.04038 C18.98622,20.99484 19.2339,20.97162 19.44378,20.97162 C19.65132,20.97162 19.90026,20.99484 20.18268,21.04038 C20.27772,21.05532 20.35494,21.12336 20.38212,21.21588 L21.528,24.98796 L29.13876,25.8534 L32.05674,23.80914 L32.05674,23.80914 Z M32.89914,18.90648 L33.435,16.87428 C32.65776,16.69824 31.2264,16.40358 29.277,16.12764 C28.2816,16.84332 27.19224,17.41554 26.1216,17.87202 C29.39742,18.1908 31.8042,18.6651 32.89914,18.90648 L32.89914,18.90648 Z M33.82812,22.08312 C33.9102,21.17376 33.83856,20.9781 33.74622,20.9034 C33.65388,20.826 33.34176,20.64924 33.03792,20.48418 L32.5377,23.9877 C32.52834,24.05574 32.49,24.11748 32.4333,24.15726 L31.71744,24.65784 C31.66074,24.94458 31.64022,25.07994 31.57038,25.36038 C31.97952,25.45542 32.6502,25.52922 32.96988,25.46748 C33.26004,25.15284 33.7284,23.19768 33.82812,22.08312 L33.82812,22.08312 Z M35.98722,13.43754 C36.0135,13.96206 35.99946,14.48748 35.94078,15.00948 C35.88588,15.5304 35.78706,16.04664 35.64936,16.55838 C35.57736,16.8129 35.49456,17.06436 35.39664,17.31402 C35.34714,17.43876 35.29422,17.56296 35.23644,17.6868 C35.20746,17.74818 35.17686,17.80884 35.1423,17.8713 L35.09118,17.96346 C35.07246,17.99694 35.05752,18.02214 35.02854,18.06678 L34.97562,18.14904 L34.89264,18.1917 C34.80408,18.23742 34.73154,18.2718 34.65108,18.30924 L34.41744,18.41454 C34.26066,18.4815 34.10334,18.54486 33.94584,18.60624 C33.83586,18.64926 33.73884,18.6885 33.64668,18.72756 L33.38676,19.71522 C33.38028,19.7136 33.30198,19.69362 33.15582,19.65852 L33.14178,19.76184 C33.4287,19.91178 33.99246,20.2158 34.18452,20.37438 C34.57116,20.69388 34.59834,21.20004 34.51266,22.14576 C34.46874,22.63122 34.30764,23.57604 34.08408,24.44382 C33.69816,25.93746 33.49314,26.11296 33.22854,26.18064 C33.09426,26.2152 32.88762,26.24958 32.6871,26.24958 C32.27922,26.24958 31.72356,26.26092 31.34988,26.17056 C31.25394,26.5104 30.97998,27.39672 30.43764,28.50372 C30.46482,28.49058 30.49164,28.47942 30.51594,28.46646 C31.185,28.1151 32.47092,27.55494 32.5251,27.53064 L33.54084,27.08928 L33.02064,28.06758 C33.00858,28.08882 31.89312,30.18672 31.21002,31.55652 C30.5316,32.91336 29.25972,33.20874 28.49832,33.3837 C28.38366,33.41088 28.27494,33.43608 28.18638,33.4602 C27.64008,33.61392 26.53398,33.87762 25.55856,34.11234 L25.5231,34.1199 C24.9228,34.49088 24.26778,34.82172 23.5512,35.09388 C20.92896,36.08712 18.16506,36.03132 15.65928,35.11044 C15.2523,35.16282 14.71716,35.2269 14.00454,35.3079 C13.69494,35.34246 13.39398,35.36028 13.10724,35.36028 C10.71972,35.36028 9.45432,34.1478 8.53074,32.9607 C7.542,31.68954 6.33258,29.80242 6.28128,29.7234 L5.58,28.62954 L6.7653,29.16252 C7.33266,29.41794 9.01962,30.19878 9.5022,30.42252 C9.54126,30.41154 9.5796,30.4002 9.61776,30.38904 C8.8155,29.24478 8.1576,27.94014 7.69266,26.49492 C7.29756,26.61408 6.68898,26.70642 6.21558,26.70642 C6.0426,26.70642 5.88762,26.69346 5.76846,26.66538 C5.50368,26.6049 5.20182,26.34966 4.79088,24.90228 C4.55238,24.06204 4.37436,23.14476 4.32234,22.67262 C4.21974,21.75084 4.23846,21.2571 4.6215,20.93814 C4.85244,20.74536 5.63148,20.33622 5.79276,20.25252 L5.7582,19.96812 C3.2832,21.42252 1.79982,22.70772 1.76994,22.734 L0,24.28722 L1.2609,22.29876 C2.25882,20.72286 3.41154,19.449 4.4721,18.46764 C4.42818,18.45 4.38732,18.43236 4.3443,18.41472 L4.11048,18.30942 C4.03038,18.27198 3.95766,18.2376 3.86928,18.19188 L3.7863,18.14922 L3.7332,18.06696 C3.70332,18.02214 3.69036,17.99712 3.67074,17.96364 L3.61854,17.87148 C3.58596,17.80902 3.5541,17.74836 3.5253,17.68698 C3.46644,17.56296 3.41352,17.43894 3.3651,17.3142 C3.26718,17.06454 3.1842,16.81308 3.11238,16.55856 C2.9736,16.04682 2.87568,15.53076 2.82078,15.00966 C2.763,14.48766 2.74806,13.96224 2.77416,13.43772 C2.7882,13.17582 2.8134,12.9141 2.84958,12.654 C2.8683,12.5235 2.88792,12.393 2.91402,12.2634 C2.94102,12.13128 2.9673,12.00816 3.00726,11.86362 L3.03516,11.7621 L3.10788,11.70504 C3.5208,11.38068 3.96612,11.1357 4.419,10.91862 C4.79178,10.74348 5.17194,10.58868 5.55498,10.44774 C6.62472,7.479 8.46414,4.8465 10.88136,3.01176 C13.38066,1.11546 16.31952,0.11286 19.38078,0.11286 C22.44204,0.11286 25.3809,1.11546 27.88002,3.01194 C30.29742,4.84668 32.13684,7.47936 33.20586,10.4472 C33.5898,10.58886 33.96906,10.74258 34.34274,10.9188 C34.79544,11.13588 35.24094,11.38086 35.65368,11.70522 L35.7264,11.76228 L35.75448,11.8638 C35.79534,12.00834 35.82144,12.13146 35.84754,12.26358 C35.87382,12.39318 35.89434,12.52368 35.9118,12.65418 C35.94834,12.91392 35.97444,13.17564 35.98722,13.43754 L35.98722,13.43754 Z M7.28982,10.14066 C6.83694,10.32318 6.38694,10.51146 5.94702,10.71828 C5.5062,10.9197 5.07294,11.13588 4.65912,11.37708 C4.27734,11.59704 3.91086,11.83842 3.5874,12.11076 C3.57354,12.19266 3.56058,12.28212 3.54942,12.3669 C3.53538,12.48696 3.52134,12.60738 3.51198,12.72852 C3.49056,12.9708 3.4821,13.21506 3.47958,13.45914 C3.4749,13.94748 3.50838,14.43582 3.56994,14.9193 C3.6369,15.40386 3.72546,15.88572 3.85686,16.35066 C3.9222,16.58376 3.99492,16.8138 4.0806,17.03538 C4.12254,17.14752 4.16916,17.25642 4.21776,17.36262 C4.24188,17.41554 4.26708,17.46792 4.2921,17.51814 L4.32306,17.57682 C4.35924,17.59554 4.39668,17.61408 4.43196,17.63082 L4.64904,17.73414 C4.77018,17.79012 4.93704,17.86932 5.07492,17.93088 L5.09724,17.91036 L4.69566,16.37838 C4.78044,16.35516 5.54472,16.15752 6.86142,15.90696 C6.75522,15.88734 6.64704,15.86412 6.54192,15.83874 C6.24276,15.7644 5.9463,15.67296 5.66028,15.5574 C5.51862,15.49692 5.37786,15.43158 5.24466,15.35598 C5.11128,15.27948 4.97988,15.19308 4.87836,15.07752 C6.32466,15.54984 9.31302,15.33546 11.97,15.06168 C14.40018,14.81094 16.83504,14.64894 19.28304,14.64318 C21.73104,14.64876 24.16788,14.81076 26.59644,15.06168 C29.25504,15.33564 32.24376,15.55002 33.68952,15.07752 C33.588,15.19308 33.45678,15.27948 33.3234,15.35598 C33.19038,15.43158 33.04944,15.49674 32.90778,15.5574 C32.62068,15.67296 32.3253,15.76422 32.02524,15.83874 C31.98132,15.84882 31.93668,15.85926 31.89186,15.86862 C33.33546,16.1361 34.17588,16.35408 34.26534,16.37838 L33.8805,17.83764 C33.9579,17.80308 34.03602,17.76978 34.11234,17.73432 L34.3296,17.631 C34.36488,17.61408 34.40232,17.59572 34.43868,17.577 L34.46856,17.51832 C34.49448,17.4681 34.51968,17.41572 34.54398,17.3628 C34.59258,17.25642 34.63902,17.14752 34.68204,17.03556 C34.76682,16.81398 34.84026,16.58376 34.90452,16.35084 C35.0361,15.8859 35.12556,15.40404 35.19162,14.91948 C35.2539,14.436 35.28666,13.94748 35.28198,13.45932 C35.28018,13.21524 35.27082,12.97098 35.2503,12.7287 C35.24004,12.60756 35.2269,12.48732 35.21196,12.36708 C35.2017,12.2823 35.18766,12.19284 35.17362,12.11094 C34.85016,11.8386 34.48404,11.5974 34.1019,11.37726 C33.68808,11.13606 33.25518,10.91988 32.81328,10.71846 C32.37444,10.51164 31.92354,10.32336 31.47048,10.14084 C31.24386,10.0494 31.01544,9.95994 30.7863,9.87516 C30.55824,9.78678 30.32694,9.70308 30.096,9.61902 C30.58128,9.69912 31.06242,9.80982 31.53834,9.93204 C31.84866,10.01232 32.15826,10.10268 32.46372,10.19862 C30.28392,4.50018 25.07112,0.78966 19.38042,0.78966 C13.68846,0.78966 8.47674,4.50018 6.2973,10.19862 C6.60366,10.10268 6.91218,10.01232 7.2216,9.93204 C7.69878,9.81 8.17956,9.69912 8.6652,9.61902 C8.433,9.7029 8.20296,9.7866 7.97364,9.87516 C7.7454,9.95976 7.51734,10.04922 7.28982,10.14066 L7.28982,10.14066 Z M20.27268,30.98448 L20.5596,31.3263 C20.56608,31.33458 21.20346,32.0931 21.98268,32.86566 C22.5009,33.3792 23.12694,33.63912 23.84442,33.63912 C24.0894,33.63912 24.3468,33.60762 24.60672,33.54498 C24.84792,33.4863 25.11,33.42384 25.37838,33.35958 C26.3475,33.12792 27.44514,32.86476 27.97722,32.71572 C28.08252,32.68584 28.20006,32.65902 28.32372,32.63076 C29.03202,32.46714 30.00294,32.24142 30.51738,31.21074 C30.9042,30.43728 31.42584,29.43342 31.81284,28.69776 C31.4775,28.85238 31.12596,29.01996 30.8763,29.15136 C30.49146,29.3535 29.98746,29.45142 29.33586,29.45142 C28.9485,29.45142 28.56798,29.41884 28.14696,29.3814 C27.30546,29.304 25.88148,29.13642 25.8669,29.13444 L25.75782,29.12238 L25.67178,29.05344 C25.659,29.04408 24.41124,28.04994 23.4027,27.25686 C23.36184,27.22338 23.32458,27.19242 23.29092,27.16452 C23.18472,27.07398 23.18472,27.07398 23.12136,27.07398 C22.7979,27.07398 21.85776,27.36558 19.7982,28.00404 L19.67166,28.04418 L19.54764,27.99738 C19.5336,27.9927 18.18234,27.49158 16.56306,27.49158 C16.43058,27.49158 16.29846,27.495 16.16976,27.50166 C16.00758,27.50994 15.09732,27.9423 13.93326,29.78406 L13.85784,29.90232 L13.72446,29.94516 C13.7052,29.95182 11.70162,30.59856 9.5769,31.20606 L9.43902,31.2453 L9.30852,31.18464 C9.29466,31.17906 8.46324,30.79332 7.67214,30.42972 C8.1036,31.0671 8.6553,31.86216 9.14076,32.48568 C9.98874,33.57774 11.05758,34.587 13.10688,34.587 C13.36392,34.587 13.63698,34.57116 13.91742,34.5393 C16.002,34.30368 16.53876,34.20864 16.82766,34.15824 C16.9254,34.14168 17.0028,34.12746 17.10162,34.1154 C17.11746,34.11342 18.8244,33.89274 19.30338,32.81832 C19.7973,31.7142 19.89702,31.45122 19.9008,31.44114 L20.07504,30.9762 C20.07504,30.9762 20.09664,30.85578 20.1321,30.81834 L20.133,30.81924 L20.13642,30.82212 C20.19132,30.86154 20.27268,30.98448 20.27268,30.98448 L20.27268,30.98448 Z" id="Fill-43" fill="#292C2D" mask="url(#mask-2)"></path>
                </g>
            </g>
        </g>
    </g>
</svg>