<?xml version="1.0" encoding="UTF-8" standalone="no"?>
<svg width="36px" height="36px" viewBox="0 0 36 36" version="1.1" xmlns="http://www.w3.org/2000/svg" xmlns:xlink="http://www.w3.org/1999/xlink">
    <!-- Generator: Sketch 39.1 (31720) - http://www.bohemiancoding.com/sketch -->
    <title>full-color-circleci</title>
    <desc>Created with Sketch.</desc>
    <defs></defs>
    <g id="icons" stroke="none" stroke-width="1" fill="none" fill-rule="evenodd">
        <g id="full-color-circleci" fill="#343434">
            <g id="circleci-seeklogo.com">
                <g id="Group">
                    <ellipse id="Oval" cx="17.5353402" cy="17.9315964" rx="4.25235" ry="4.25235"></ellipse>
                    <path d="M0.167308197,13.4230807 C0.167308197,13.4743138 0.116075066,13.5767801 0.116075066,13.6280133 C0.116075066,14.0891115 0.474706993,14.4989765 0.98703832,14.4989765 L8.21091001,14.4989765 C8.56954194,14.4989765 8.8257076,14.2940441 8.979407,13.9866452 C10.4651678,10.7077247 13.7440883,8.50469999 17.4841069,8.50469999 C22.6586534,8.50469999 26.8597703,12.7058169 26.8597703,17.8803632 C26.8597703,23.0549097 22.6586534,27.2560266 17.4841069,27.2560266 C13.6928552,27.2560266 10.4651678,25.0017686 8.979407,21.8253145 C8.8257076,21.4666825 8.56954194,21.2617501 8.21091001,21.2617501 L0.98703832,21.2617501 C0.525940125,21.2617501 0.116075066,21.620382 0.116075066,22.1327131 C0.116075066,22.1839464 0.116075066,22.2864126 0.167308197,22.3376458 C2.16540038,30.1250819 9.18433953,35.8631928 17.5353402,35.8631928 C27.4233347,35.8631928 35.4669366,27.819591 35.4669366,17.9315964 C35.4669366,8.04360182 27.4233347,0 17.5353402,0 C9.18433953,0 2.16540038,5.73811085 0.167308197,13.4230807 L0.167308197,13.4230807 L0.167308197,13.4230807 Z" id="Shape"></path>
                </g>
            </g>
        </g>
    </g>
</svg>