<?xml version="1.0" encoding="UTF-8" standalone="no"?>
<svg width="36px" height="36px" viewBox="0 0 36 36" version="1.1" xmlns="http://www.w3.org/2000/svg" xmlns:xlink="http://www.w3.org/1999/xlink">
    <!-- Generator: Sketch 39.1 (31720) - http://www.bohemiancoding.com/sketch -->
    <title>full-color-twitter</title>
    <desc>Created with Sketch.</desc>
    <defs></defs>
    <g id="icons" stroke="none" stroke-width="1" fill="none" fill-rule="evenodd">
        <g id="full-color-twitter" fill="#55ACEE">
            <path d="M36,6.46324183 C34.6754307,7.05065379 33.2519697,7.44766052 31.7579282,7.62621479 C33.2829145,6.71211173 34.4539449,5.26471603 35.0054208,3.54013984 C33.5784045,4.38642916 31.9977175,5.00109829 30.3153736,5.33239811 C28.9680237,3.89698503 27.0485241,3 24.924262,3 C20.8452101,3 17.5381982,6.30680933 17.5381982,10.3855104 C17.5381982,10.9643633 17.6036431,11.5280734 17.7295292,12.0686082 C11.5911335,11.7606153 6.1489301,8.82026357 2.50613409,4.35192973 C1.87038297,5.44274359 1.50615604,6.71145334 1.50615604,8.0649632 C1.50615604,10.6272697 2.81018325,12.8879037 4.79196752,14.2123129 C3.58116976,14.1739949 2.44240097,13.8417733 1.44650499,13.2885974 C1.44597827,13.3194099 1.44597827,13.350354 1.44597827,13.3814298 C1.44597827,16.9598892 3.99187973,19.9450112 7.3706573,20.6234121 C6.75083946,20.7922222 6.09836497,20.8824211 5.42469,20.8824211 C4.94879842,20.8824211 4.48607484,20.8362024 4.03520246,20.7499538 C4.97500274,23.6842484 7.70262263,25.8195257 10.934577,25.8791755 C8.40684736,27.8599955 5.22216614,29.0407449 1.76187863,29.0407449 C1.1657632,29.0407449 0.577811917,29.0058504 0,28.9376416 C3.2685614,31.0331525 7.15088335,32.2557752 11.3218479,32.2557752 C24.907012,32.2557752 32.3358718,21.0017206 32.3358718,11.2419388 C32.3358718,10.9216999 32.3287611,10.6031728 32.3145397,10.2864891 C33.7574893,9.24518587 35.0097663,7.94434689 36,6.46324183" id="Fill-1"></path>
        </g>
    </g>
</svg>