<?xml version="1.0" encoding="UTF-8" standalone="no"?>
<svg width="36px" height="36px" viewBox="0 0 36 36" version="1.1" xmlns="http://www.w3.org/2000/svg" xmlns:xlink="http://www.w3.org/1999/xlink">
    <!-- Generator: Sketch 39.1 (31720) - http://www.bohemiancoding.com/sketch -->
    <title>full-color-snap</title>
    <desc>Created with Sketch.</desc>
    <defs></defs>
    <g id="icons" stroke="none" stroke-width="1" fill="none" fill-rule="evenodd">
        <g id="full-color-snap" fill="#000000">
            <g id="product_ui_logo_Snap" transform="translate(0.000000, 6.000000)">
                <g id="Layer_1">
                    <g id="Group">
                        <path d="M11.8355025,23.6211013 C11.2283404,23.6211013 10.6294956,23.3882172 10.1720447,22.9307663 L0.731921448,13.4989603 C0.291105121,13.058144 0.0415864459,12.4592992 0.0415864459,11.8355025 C0.0415864459,11.2117058 0.291105121,10.612861 0.731921448,10.1720447 L10.1637274,0.731921448 C11.0869465,-0.191297651 12.5757412,-0.191297651 13.4989603,0.731921448 C14.4221794,1.65514055 14.4221794,3.14393531 13.4989603,4.06715441 L5.73892953,11.8355025 L13.4989603,19.5955333 C14.4221794,20.5187524 14.4221794,22.0075472 13.4989603,22.9307663 C13.0415094,23.3882172 12.4343473,23.6211013 11.8355025,23.6211013 L11.8355025,23.6211013 Z" id="Shape"></path>
                        <path d="M23.6211013,23.6211013 C23.0139392,23.6211013 22.4150943,23.3882172 21.9576434,22.9307663 C21.0344243,22.0075472 21.0344243,20.5187524 21.9576434,19.5955333 L29.7176742,11.8355025 L23.6211013,5.73892953 L15.8610705,13.4989603 C14.9378514,14.4221794 13.4490566,14.4221794 12.5258375,13.4989603 C11.6026184,12.5757412 11.6026184,11.0869465 12.5258375,10.1637274 L21.9493261,0.731921448 C22.8725452,-0.191297651 24.36134,-0.191297651 25.2845591,0.731921448 L34.716365,10.1637274 C35.6395841,11.0869465 35.6395841,12.5757412 34.716365,13.4989603 L25.2845591,22.9307663 C24.8271082,23.3882172 24.2199461,23.6211013 23.6211013,23.6211013 L23.6211013,23.6211013 Z" id="Shape"></path>
                    </g>
                </g>
            </g>
        </g>
    </g>
</svg>