<?xml version="1.0" encoding="UTF-8" standalone="no"?>
<svg width="36px" height="36px" viewBox="0 0 36 36" version="1.1" xmlns="http://www.w3.org/2000/svg" xmlns:xlink="http://www.w3.org/1999/xlink">
    <!-- Generator: Sketch 39.1 (31720) - http://www.bohemiancoding.com/sketch -->
    <title>full-color-rails-alt</title>
    <desc>Created with Sketch.</desc>
    <defs></defs>
    <g id="icons" stroke="none" stroke-width="1" fill="none" fill-rule="evenodd">
        <g id="full-color-rails-alt" fill="#CC0000">
            <path d="M18,0 C8.05886719,0 0,8.05886719 0,18 C0,27.9411328 8.05886719,36 18,36 C27.9411328,36 36,27.9411328 36,18 C36,8.05886719 27.9411328,0 18,0 Z M30.5868687,20.4142857 L30.5868687,21.9657143 L33.3944444,21.9657143 C33.969697,21.9657143 34.9570707,21.5457143 34.9914141,20.3714286 L34.9914141,19.7714286 C34.9914141,18.7685714 34.1671717,18.1771429 33.3944444,18.1771429 L31.9949495,18.1771429 L31.9949495,17.4571429 L34.7681818,17.4571429 L34.7681818,15.8971429 L32.1065657,15.8971429 C31.419697,15.8971429 30.5010101,16.4628571 30.5010101,17.5171429 L30.5010101,18.0571429 C30.5010101,19.1114286 31.4111111,19.6514286 32.1065657,19.6514286 C34.0383838,19.66 31.6429293,19.6514286 33.4287879,19.6514286 L33.4287879,20.4057143 L30.5868687,20.4142857 Z M15.5444444,20.0371429 C15.5444444,20.0371429 17.0469697,19.9085714 17.0469697,17.9714286 C17.0469697,16.0342857 15.2267677,15.8542857 15.2267677,15.8542857 L11.9469697,15.8542857 L11.9469697,21.9657143 L13.5954545,21.9657143 L13.5954545,20.4914286 L15.0207071,21.9657143 L17.4590909,21.9657143 L15.5444444,20.0371429 Z M14.9090909,18.7857143 L13.5954545,18.7857143 L13.5954545,17.3885714 L14.9176768,17.3885714 C14.9176768,17.3885714 15.2868687,17.5257143 15.2868687,18.0828571 C15.2868687,18.64 14.9090909,18.7857143 14.9090909,18.7857143 Z M21.1166667,15.8971429 L19.4424242,15.8971429 C18.2489899,15.8971429 17.8454545,16.9771429 17.8454545,17.4914286 L17.8454545,21.9657143 L19.519697,21.9657143 L19.519697,20.8942857 L21.0909091,20.8942857 L21.0909091,21.9657143 L22.7136364,21.9657143 L22.7136364,17.4914286 C22.7136364,16.1885714 21.5287879,15.8971429 21.1166667,15.8971429 Z M21.0909091,19.1628571 L19.5111111,19.1628571 L19.5111111,17.68 C19.5111111,17.68 19.5111111,17.3457143 20.0348485,17.3457143 L20.610101,17.3457143 C21.0737374,17.3457143 21.0823232,17.68 21.0823232,17.68 L21.0823232,19.1628571 L21.0909091,19.1628571 Z M23.4777778,15.8971429 L25.2207071,15.8971429 L25.2207071,21.9657143 L23.4777778,21.9657143 L23.4777778,15.8971429 Z M27.6676768,20.3971429 L27.6676768,15.8971429 L25.9333333,15.8971429 L25.9333333,20.3971429 L25.9333333,21.9657143 L27.6676768,21.9657143 L30.0116162,21.9657143 L30.0116162,20.3971429 L27.6676768,20.3971429 Z M1.6010101,21.9657143 L8.38383838,21.9657143 C8.38383838,21.9657143 7.08737374,16.06 11.380303,13.6685714 C12.3161616,13.2142857 15.2954545,11.5171429 20.1722222,15.1171429 C20.3267677,14.9885714 20.4727273,14.8857143 20.4727273,14.8857143 C20.4727273,14.8857143 16.0080808,10.4371429 11.0368687,10.9342857 C8.52979798,11.1571429 5.45606061,13.4285714 3.6530303,16.4285714 C1.85,19.4285714 1.6010101,21.9657143 1.6010101,21.9657143 Z M15.7333333,11.4142857 L15.7676768,10.84 C15.690404,10.7971429 15.4757576,10.6942857 14.9348485,10.54 L14.9005051,11.1057143 C15.1838384,11.2 15.4585859,11.3028571 15.7333333,11.4142857 Z M14.9176768,13.2314286 L14.8833333,13.7714286 C15.1666667,13.78 15.45,13.8142857 15.7333333,13.8742857 L15.7676768,13.3428571 C15.4757576,13.2828571 15.1924242,13.2485714 14.9176768,13.2314286 Z M11.7409091,10.5571429 L11.8267677,10.5571429 L11.6550505,10.0342857 C11.3888889,10.0342857 11.1141414,10.0514286 10.8308081,10.0857143 L10.9939394,10.5914286 C11.2429293,10.5657143 11.4919192,10.5571429 11.7409091,10.5571429 Z M12.1530303,13.7114286 L12.3505051,14.3028571 C12.5994949,14.1828571 12.8484848,14.08 13.0974747,14.0028571 L12.9085859,13.4371429 C12.6166667,13.5228571 12.3676768,13.6171429 12.1530303,13.7114286 Z M8.25505051,11.4571429 L7.86868687,10.8657143 C7.6540404,10.9771429 7.43080808,11.0971429 7.1989899,11.2342857 L7.59393939,11.8342857 C7.81717172,11.6971429 8.03181818,11.5685714 8.25505051,11.4571429 Z M10.0151515,15.3142857 L10.4272727,15.9314286 C10.5732323,15.7171429 10.7449495,15.52 10.9338384,15.3228571 L10.5474747,14.74 C10.35,14.92 10.169697,15.1171429 10.0151515,15.3142857 Z M8.77020202,18.0742857 L9.46565657,18.6228571 C9.5,18.2885714 9.56010101,17.9542857 9.6459596,17.62 L9.02777778,17.1314286 C8.91616162,17.4485714 8.83888889,17.7657143 8.77020202,18.0742857 Z M5.00959596,14.0028571 L4.4,13.4714286 C4.17676768,13.6857143 3.96212121,13.9 3.76464646,14.1142857 L4.42575758,14.68 C4.60606061,14.4485714 4.80353535,14.2171429 5.00959596,14.0028571 Z M2.41666667,17.8342857 L1.42929293,17.4742857 C1.26616162,17.8428571 1.08585859,18.2714286 1,18.5028571 L1.98737374,18.8628571 C2.0989899,18.5714286 2.27929293,18.1514286 2.41666667,17.8342857 Z M8.64141414,20.2514286 C8.65858586,20.7057143 8.70151515,21.0742857 8.74444444,21.3314286 L9.77474747,21.7 C9.69747475,21.3657143 9.62020202,20.9885714 9.56868687,20.5857143 L8.64141414,20.2514286 Z" id="Combined-Shape"></path>
        </g>
    </g>
</svg>