<?xml version="1.0" encoding="UTF-8" standalone="no"?>
<svg width="36px" height="36px" viewBox="0 0 36 36" version="1.1" xmlns="http://www.w3.org/2000/svg" xmlns:xlink="http://www.w3.org/1999/xlink">
    <!-- Generator: Sketch 39.1 (31720) - http://www.bohemiancoding.com/sketch -->
    <title>full-color-jenkins</title>
    <desc>Created with Sketch.</desc>
    <defs></defs>
    <g id="icons" stroke="none" stroke-width="1" fill="none" fill-rule="evenodd">
        <g id="full-color-jenkins">
            <g id="logo" transform="translate(5.000000, 0.000000)">
                <g id="svg2">
                    <g id="g10" transform="translate(13.000000, 18.000000) scale(1, -1) translate(-13.000000, -18.000000) ">
                        <g id="g3393">
                            <path d="M25.5505112,18.5842812 C25.5505112,11.4779042 19.9183227,5.71698403 12.970639,5.71698403 C6.02307029,5.71698403 0.390874601,11.4779042 0.390874601,18.5842812 C0.390874601,25.6908307 6.02307029,31.4518371 12.970639,31.4518371 C19.9183227,31.4518371 25.5505112,25.6908307 25.5505112,18.5842812" id="path22" fill="#D33833"></path>
                            <path d="M0.903505112,15.397476 C0.903505112,15.397476 -0.0071884984,28.8159585 12.3570863,29.199393 L11.494524,30.6370927 L4.78529712,28.3846486 L2.86832588,26.1802236 L1.19104505,22.9692652 L0.232503355,19.231246 L0.520043291,16.7392812" id="path24" fill="#EF3D3A"></path>
                            <path d="M4.35454792,27.3621565 C2.14739137,25.1038179 0.78158099,21.9857348 0.78158099,18.536262 L0.78158099,18.536262 C0.78158099,15.087508 2.14739137,11.9690224 4.35454792,9.71110064 L4.35454792,9.71110064 C6.56276837,7.45317891 9.60601917,6.05990415 12.9704665,6.05990415 L12.9704665,6.05990415 C16.335,6.05990415 19.3784665,7.45317891 21.5864856,9.71110064 L21.5864856,9.71110064 C23.7934984,11.9690224 25.1596006,15.087508 25.1596006,18.536262 L25.1596006,18.536262 C25.1596006,21.9857348 23.7934984,25.1038179 21.5864856,27.3621565 L21.5864856,27.3621565 C19.3784665,29.6196326 16.335,31.0129073 12.9704665,31.0131949 L12.9704665,31.0131949 C9.60601917,31.0129073 6.56276837,29.6196326 4.35454792,27.3621565 L4.35454792,27.3621565 L4.35454792,27.3621565 Z M3.79585783,9.16488978 C1.45016454,11.5638211 0,14.8791853 0,18.536262 L0,18.536262 C0,22.1939137 1.45016454,25.5089617 3.79585783,27.9080511 L3.79585783,27.9080511 C6.14100479,30.3075719 9.38728754,31.7948722 12.9704665,31.7944409 L12.9704665,31.7944409 C16.5536741,31.7948722 19.8002875,30.3075719 22.1450319,27.9080511 L22.1450319,27.9080511 C24.4909265,25.5089617 25.941278,22.1936262 25.9409904,18.536262 L25.9409904,18.536262 C25.941278,14.8791853 24.4909265,11.5638211 22.1450319,9.16488978 L22.1450319,9.16488978 C19.8002875,6.7654984 16.5536741,5.27838498 12.9704665,5.27838498 L12.9704665,5.27838498 C9.38728754,5.27838498 6.14100479,6.7654984 3.79585783,9.16488978 L3.79585783,9.16488978 L3.79585783,9.16488978 Z" id="path26" fill="#231F20"></path>
                            <polyline id="path28" fill="#F0D6B7" points="18.2661182 18.5129712 16.3490895 18.2254313 13.7612013 17.9378914 12.0838083 17.890016 10.454492 17.9378914 9.20840895 18.3213259 8.10615335 19.519361 7.24353355 21.9634505 7.05185942 22.490655 5.90169968 22.8739457 5.23075399 23.97623 4.75153994 25.5576997 5.27877316 26.947524 6.52468371 27.3788339 7.53107348 26.8995048 8.01040256 25.8452396 8.58548243 25.9411342 8.77709904 26.180655 8.58548243 27.2829393 8.53746326 28.6727636 8.82500319 30.5896486 8.81377476 31.6846006 9.687623 33.0816134 11.2211885 34.1838978 13.9049712 35.3340575 16.8761502 34.9027476 19.4640096 33.033738 20.6621885 31.116853 21.4289137 29.7270288 21.6205591 26.2765495 21.0454792 23.3052556 19.9912141 20.6695208 18.9848243 19.2796965"></polyline>
                            <polyline id="path30" fill="#335061" points="16.6366294 10.2223323 9.78348882 9.93479233 9.78348882 8.78463259 10.3585687 4.75907348 10.0710288 4.42351438 5.27877316 6.05300319 4.94321406 6.62808307 4.464 12.0433227 3.36191693 15.3021565 3.12222364 16.0688818 6.95599361 18.7046166 8.15417252 19.1839457 9.20840895 17.890016 10.1189329 17.0752716 11.1733419 16.7398562 11.6524984 16.5960863 12.2275783 14.1041214 12.6588882 13.5769457 13.7612013 13.9603514 12.9943323 12.4746326 17.1636901 10.5098722 16.6366294 10.2223323"></polyline>
                            <polyline id="path32" fill="#6D6B6D" points="5.27877316 26.947524 6.52468371 27.3788339 7.53107348 26.8995048 8.01040256 25.8452396 8.58548243 25.9411342 8.7292524 26.5162141 8.44171246 27.6183546 8.7292524 30.2542332 8.48955911 31.6919329 9.35217891 32.6983227 11.2211885 34.1838978 10.6940128 34.9027476 8.0582492 33.6088179 6.95599361 32.7461981 6.33300958 31.404393 5.37452396 30.1104633 5.08698403 28.576869 5.27877316 26.947524"></polyline>
                            <path d="M7.24353355,31.4522684 C7.24353355,31.4522684 7.96238339,33.2253834 10.8377827,34.0880032 C13.7131821,34.950623 10.9815527,34.7111022 10.9815527,34.7111022 L7.86663259,33.5129233 L6.66845367,32.3148882 L6.14139297,31.3563738 L7.24353355,31.4522684" id="path34" fill="#DCD9D8"></path>
                            <path d="M5.80583387,27.2829393 C5.80583387,27.2829393 4.79944409,30.6376677 8.63332907,31.116853 L8.48955911,31.6919329 L5.85385304,31.0688339 L5.08698403,28.576869 L5.27877316,26.947524 L5.80583387,27.2829393" id="path36" fill="#DCD9D8"></path>
                            <path d="M7.33939936,22.8260703 L7.96688339,23.4340735 C7.96688339,23.4340735 8.25009585,23.4011502 8.29794249,23.0657348 C8.34578914,22.7301757 8.48955911,19.7110064 10.5502428,18.0815176 C10.7382077,17.9328594 9.01679233,18.3213259 9.01679233,18.3213259 L7.48316933,20.7173962" id="path38" fill="#F7E4CD"></path>
                            <path d="M16.1575879,23.7365655 C16.1575879,23.7365655 16.2692971,25.1892173 16.6604952,25.077508 C17.0516933,24.9657987 17.0516933,24.5746006 17.0516933,24.5746006 C17.0516933,24.5746006 16.1016613,23.959984 16.1575879,23.7365655" id="path40" fill="#F7E4CD"></path>
                            <path d="M20.134984,29.0560543 C20.134984,29.0560543 19.3451118,28.8892812 19.2723642,28.1934345 C19.1996166,27.4974441 20.134984,28.0496645 20.278754,28.0975399" id="path42" fill="#F7E4CD"></path>
                            <path d="M14.3362812,29.0080351 C14.3362812,29.0080351 13.2818722,28.8642652 13.2818722,28.1934345 C13.2818722,27.5224601 14.4800799,27.5703355 14.8154952,27.8578754" id="path44" fill="#F7E4CD"></path>
                            <path d="M7.81861342,25.893115 C7.81861342,25.893115 5.99745048,26.9953994 5.80583387,25.9409904 C5.61415974,24.8867252 5.18273482,24.1198562 6.0933738,23.0177157 L5.47038978,23.209361 L4.8953099,24.6949361 L4.70369329,26.1326358 L5.80583387,27.2829393 L7.05185942,27.1870447 L7.77070927,26.6119649 L7.81861342,25.893115" id="path46" fill="#F7E4CD"></path>
                            <path d="M8.68123323,28.9122843 C8.68123323,28.9122843 9.49594888,33.1294888 13.6174313,33.9442332 C17.0105751,34.6149201 18.7930351,33.8004633 19.4640096,33.033738 C19.4640096,33.033738 16.4448403,36.6278435 13.5694121,35.5257029 C10.6940128,34.4234185 8.58548243,32.410639 8.63332907,31.116853 C8.71493291,28.913147 8.68123323,28.9122843 8.68123323,28.9122843" id="path48" fill="#F7E4CD"></path>
                            <path d="M19.7995687,32.5545527 C19.7995687,32.5545527 18.4098882,32.6024281 18.361869,31.3563738 C18.361869,31.3563738 18.3617252,31.1647284 18.4576198,30.9730831 C18.4576198,30.9730831 19.5600479,32.2191374 20.2308786,31.5481629" id="path50" fill="#F7E4CD"></path>
                            <path d="M13.7140304,30.8432588 C13.7140304,30.8432588 13.4747827,32.7558307 11.8441725,31.6439137 C10.7898786,30.9250639 10.8858019,29.9186741 11.0774185,29.7270288 C11.2690927,29.5352396 11.216976,29.1492173 11.3628882,29.4141853 C11.5087284,29.6791534 11.4607093,30.5417732 11.9879425,30.7812939 C12.5151182,31.0209585 13.3793051,31.2886581 13.7140304,30.8432588" id="path52" fill="#F7E4CD"></path>
                            <path d="M9.20840895,17.890016 L4.70369329,15.8772364 C4.70369329,15.8772364 6.57270288,8.44907348 5.61415974,6.14875399 L4.94321406,6.38827476 L4.8953099,9.21582748 L3.64945687,14.5831629 L3.12222364,16.0688818 L7.81861342,19.2316773 L9.20840895,17.890016" id="path54" fill="#49728B"></path>
                            <path d="M9.67162141,13.7814728 L10.310722,13.0016933 L10.310722,10.1262939 L9.54385304,10.1262939 C9.54385304,10.1262939 9.44810224,12.1390735 9.44810224,12.3787668 C9.44810224,12.6184026 9.54385304,13.4810224 9.54385304,13.4810224" id="path56" fill="#49728B"></path>
                            <polyline id="path58" fill="#49728B" points="9.687623 9.69498403 7.53107348 9.59923323 8.15417252 9.16792332 9.687623 8.92828754"></polyline>
                            <polyline id="path60" fill="#335061" points="17.0679393 10.1743131 18.8410543 10.2222173 19.2723642 5.81319489 17.45123 5.57367412 17.0679393 10.1743131"></polyline>
                            <path d="M17.5471246,10.1743131 L20.2308786,10.3180831 C20.2308786,10.3180831 21.3330192,13.0976166 21.3330192,13.2413866 C21.3330192,13.3851565 22.2915335,17.2669169 22.2915335,17.2669169 L20.134984,19.5192173 L19.7036741,19.9026518 L18.5535144,18.752492 L18.5535144,14.295623 L17.5471246,10.1743131" id="path62" fill="#335061"></path>
                            <path d="M18.7451597,10.5097572 L17.0679393,10.1743131 L17.3074601,8.83236422 C17.9304153,8.54482428 18.9848243,9.31169329 18.9848243,9.31169329" id="path64" fill="#49728B"></path>
                            <polyline id="path66" fill="#49728B" points="18.7931789 18.896262 22.1477636 16.4042971 22.2436581 17.5544569 19.7036741 19.9026518 18.7931789 18.896262"></polyline>
                            <polyline id="path68" fill="#FFFFFF" points="11.350754 0.732946486 10.3585687 4.75907348 9.86509265 7.72976358 9.78348882 9.93479233 14.274115 10.173853 17.0679393 10.1743131 16.8138978 5.14190415 17.2452077 1.26012077 17.1973323 0.541270927 13.5552652 0.25373099 11.350754 0.732946486"></polyline>
                            <path d="M16.4448403,10.2222173 C16.4448403,10.2222173 16.2053195,5.23811502 16.9241693,1.69188498 C16.9241693,1.69188498 15.4864696,0.781243131 13.377738,0.541720927 L17.4033546,0.685490895 L17.8825399,0.973030831 L17.3074601,8.83236422 L17.1636901,10.5098722" id="path70" fill="#DCD9D8"></path>
                            <polyline id="path72" fill="#FFFFFF" points="19.3540256 6.19619808 21.2230351 6.7233738 24.7692652 6.91504792 25.2964696 8.54437859 24.3379553 11.3719169 23.2358147 11.5156869 21.7022204 11.0364728 20.2308786 10.3180831 19.4497764 10.461393 18.8410543 10.2222173"></polyline>
                            <path d="M19.3202396,7.15514377 C19.3202396,7.15514377 20.5661502,7.73010863 20.7579393,7.68220447 L20.2308786,10.3180831 L20.8538339,10.5576038 C20.8538339,10.5576038 21.2851438,8.06566773 21.2851438,7.7781278 C21.2851438,7.7781278 23.968754,7.63435783 24.2084185,7.63435783 C24.2084185,7.63435783 24.7834984,8.73661342 24.6397284,9.88677316 L25.1669329,8.35320767 L25.2148083,7.49058786 L24.4480831,6.34042812 L23.5854633,6.14875399 L22.1477636,6.19665815 L21.6685783,6.81958466 L19.9912141,6.5800639 L19.4640096,6.38827476" id="path74" fill="#DCD9D8"></path>
                            <path d="M17.4369968,10.5571581 L16.3827316,13.2409265 L15.2804473,14.8223962 C15.2804473,14.8223962 15.5199681,15.4933706 15.8555272,15.4933706 L16.9578115,15.4933706 L18.0120767,15.1099361 L17.9163259,13.3367923 L17.4369968,10.5571581" id="path76" fill="#FFFFFF"></path>
                            <path d="M17.6430192,11.4682428 C17.6430192,11.4682428 16.3010703,14.0559872 16.3010703,14.439393 C16.3010703,14.439393 16.5405911,15.0144728 16.8761502,14.8707029 C17.2117093,14.7269329 17.9305591,14.3436422 17.9305591,14.3436422 L17.9305591,15.2541374 L16.3010703,15.5896965 L15.1989297,15.4459265 L17.0679393,11.0369329 L17.45123,10.9889137" id="path78" fill="#DCD9D8"></path>
                            <polyline id="path80" fill="#FFFFFF" points="11.7821214 17.7935463 10.454492 17.9378914 9.20840895 18.3213259 9.20840895 17.890016 9.81724601 17.2186102 11.7341597 16.3559904"></polyline>
                            <path d="M9.63989137,17.6499201 C9.63989137,17.6499201 11.1256102,17.0268211 11.6048243,17.1705911 L11.6524984,16.5960863 L10.3108946,16.8830511 L9.49612141,17.458131 L9.63989137,17.6499201" id="path82" fill="#DCD9D8"></path>
                            <path d="M19.3488498,15.3301917 C18.5356869,15.3540575 17.8010224,15.4506709 17.1577955,15.6321086 C17.2015016,15.8957827 17.1196965,16.1545687 17.1853994,16.3444888 C17.3646805,16.4735942 17.6651597,16.4715815 17.9361661,16.5019169 C17.7018211,16.6170767 17.3725879,16.6626518 17.1021565,16.5960863 C17.0958307,16.7791054 17.013738,16.8925399 16.9639936,17.0357348 C17.4211821,17.1989137 18.5004633,18.2687061 19.1076038,17.9144569 C19.396869,17.7459585 19.5197923,16.7835623 19.5422204,16.3155911 C19.5609105,15.9274121 19.5069968,15.5357827 19.3488498,15.3301917" id="path84" fill="#D33833"></path>
                            <path d="M19.3488498,15.3301917 C18.5356869,15.3540575 17.8010224,15.4506709 17.1577955,15.6321086 C17.2015016,15.8957827 17.1196965,16.1545687 17.1853994,16.3444888 C17.3646805,16.4735942 17.6651597,16.4715815 17.9361661,16.5019169 C17.7018211,16.6170767 17.3725879,16.6626518 17.1021565,16.5960863 C17.0958307,16.7791054 17.013738,16.8925399 16.9639936,17.0357348 C17.4211821,17.1989137 18.5004633,18.2687061 19.1076038,17.9144569 C19.396869,17.7459585 19.5197923,16.7835623 19.5422204,16.3155911 C19.5609105,15.9274121 19.5069968,15.5357827 19.3488498,15.3301917 L19.3488498,15.3301917 Z" id="path86" stroke="#D33833" stroke-width="2.5"></path>
                            <path d="M15.4603035,16.6594888 C15.458147,16.5979553 15.4555591,16.5359904 15.453115,16.4738818 C15.1992173,16.3071086 14.7893291,16.3091214 14.5107029,16.1689457 C14.9214537,16.1509744 15.2447923,16.0520607 15.5245687,15.9126038 C15.5183866,15.7576198 15.512492,15.6027796 15.5064537,15.4477955 C15.0410703,15.1292013 14.6159425,14.6547604 14.0680064,14.355992 C13.8089329,14.2146949 12.8997029,13.851115 12.6240671,13.9153658 C12.4681198,13.9515815 12.4540735,14.1451102 12.3917348,14.3275256 C12.2589201,14.7181629 11.9531214,15.3399681 11.9264521,15.9279872 C11.8924792,16.6707029 11.8175032,17.9154633 12.6178994,17.762492 C13.2636278,17.6392812 14.0146534,17.3418211 14.5145847,17.0686581 C14.8200958,16.9015974 14.9967891,16.6951438 15.4603035,16.6594888" id="path88" fill="#D33833"></path>
                            <path d="M15.453115,16.4738818 C15.1992173,16.3071086 14.7893291,16.3091214 14.5107029,16.1689457 C14.9214537,16.1509744 15.2447923,16.0520607 15.5245687,15.9126038 C15.5183866,15.7576198 15.512492,15.6027796 15.5064537,15.4477955 C15.0410703,15.1292013 14.6159425,14.6547604 14.0680064,14.355992 C13.8089329,14.2146949 12.8997029,13.851115 12.6240671,13.9153658 C12.4681198,13.9515815 12.4540735,14.1451102 12.3917348,14.3275256 C12.3316586,14.5042229 12.1471694,14.9749895 12.1471694,14.9749895 C12.1471694,14.9749895 11.941058,15.6059473 11.9264521,15.9279872 C11.8924792,16.6707029 11.8175032,17.9154633 12.6178994,17.762492 C13.2636278,17.6392812 14.0146534,17.3418211 14.5145847,17.0686581 C14.8200958,16.9015974 14.9967891,16.6951438 15.4603035,16.6594888 C15.458147,16.5979553 15.4555591,16.5359904 15.453115,16.4738818 Z" id="path90" stroke="#D33833" stroke-width="2.5"></path>
                            <path d="M15.922524,15.7732907 C15.8515016,16.1778594 15.7694089,16.2933067 15.8011821,16.646262 C16.8801757,17.3656869 17.0827476,15.4105591 15.922524,15.7732907" id="path92" fill="#D33833"></path>
                            <path d="M15.922524,15.7732907 C15.8515016,16.1778594 15.7694089,16.2933067 15.8011821,16.646262 C16.8801757,17.3656869 17.0827476,15.4105591 15.922524,15.7732907 L15.922524,15.7732907 Z" id="path94" stroke="#D33833" stroke-width="2.5"></path>
                            <path d="M17.4848722,15.4453514 C17.4848722,15.4453514 17.1493131,15.9246805 17.3889776,16.0684505 C17.6286422,16.2122204 17.8683067,16.0683067 18.0120767,16.3079712 C18.1558466,16.5476358 18.0120767,16.6914058 18.0599521,16.9789457 C18.1078275,17.2664856 18.3476358,17.3145048 18.5871565,17.3623802 C18.8266773,17.4102556 19.4977955,17.5061502 19.5935463,17.2664856 L19.3060064,18.1291054 L18.7309265,18.3207508 L16.9097923,17.2664856 L16.8138978,16.7392812 L16.8138978,15.685016" id="path96" fill="#EF3D3A"></path>
                            <path d="M12.4529521,13.8638674 C12.3953866,14.6117732 12.3344569,15.3586581 12.2666693,16.1058307 C12.1652396,17.2214856 12.5346565,17.0268211 13.5017396,17.0268211 C13.6494489,17.0268211 14.4112141,16.8507029 14.4657029,16.7392812 C14.7270767,16.2054633 14.0286422,16.3240735 14.7667572,15.9215176 C15.3898562,15.5817891 16.4905591,16.1278275 16.2388179,16.8830511 C16.0979233,17.0509744 15.5047284,16.9353834 15.2920927,17.045655 C14.9177157,17.2397444 14.5433387,17.4338339 14.1689185,17.6279233 C13.6925799,17.8750639 12.5916613,18.2353514 12.0838083,17.890016 C10.7970096,17.0148882 12.165024,14.8282907 12.6240671,13.9153658" id="path98" fill="#EF3D3A"></path>
                            <path d="M13.7140304,30.8432588 C12.4078514,31.147476 11.7588163,30.2966454 11.3628882,29.4141853 C11.0093578,29.4998722 11.1500367,29.980639 11.2393323,30.225623 C11.473131,30.8685623 12.4153275,31.7244249 13.1851725,31.6084026 C13.5164617,31.5585144 13.9647796,31.2555911 13.7140304,30.8432588" id="path100" fill="#231F20"></path>
                            <path d="M20.0781949,29.3558147 C20.098754,29.3549521 20.1196006,29.3542332 20.1401597,29.3533706 C20.4353195,28.7401917 20.6907987,28.090639 21.0631629,27.549345 C20.813722,26.9683706 19.1743131,26.4542492 19.1996166,27.4974441 C19.5541534,27.6524281 20.1661821,27.5290735 20.4804633,27.7270447 C20.298738,28.2257827 20.0365016,28.6503355 20.0781949,29.3558147" id="path102" fill="#231F20"></path>
                            <path d="M14.3827476,29.3398562 C14.6628115,28.8264537 14.7539617,28.2870288 15.1520607,27.8989936 C15.3313419,27.7243131 15.679984,27.5113898 15.5071725,27.0255911 C15.4667732,26.9110064 15.1716134,26.6555272 15.001246,26.6053514 C14.3788658,26.4216134 12.9286294,26.5673962 13.4197476,27.3433227 C13.9344585,27.3193131 14.6262939,27.0090575 15.0110224,27.3827157 C14.7155751,27.855 14.1888594,28.789361 14.3827476,29.3398562" id="path104" fill="#231F20"></path>
                            <path d="M19.8445687,24.121869 C18.907476,23.5199042 17.8625559,22.8653195 16.3270927,23.0171406 C15.9990096,23.3023802 15.8739297,23.9371246 16.1926677,24.3563578 C16.3585783,24.0711182 16.254345,23.5465016 16.7167093,23.4675719 C17.5879553,23.3184824 18.6019649,24.0005272 19.2286581,24.2388978 C19.6172684,24.8940575 19.1951597,25.135016 18.8450799,25.5566933 C18.1283866,26.420607 17.1669968,27.4914058 17.2019329,28.7847604 C17.4916294,28.9948083 17.5166454,28.4641534 17.5581949,28.3675399 C17.9324281,27.4916933 18.8742652,26.3715815 19.5616294,25.6219649 C19.7304153,25.4373642 20.0083227,25.2602396 20.0392332,25.1381789 C20.1283706,24.7832109 19.8073323,24.3579393 19.8445687,24.121869" id="path106" fill="#231F20"></path>
                            <path d="M7.49064537,24.755607 C7.19692332,24.9232428 7.12700799,25.6616454 6.78217572,25.6826358 C6.2893754,25.7125399 6.37923163,24.7246965 6.38120128,24.1470288 C6.04199042,24.454984 5.98234026,25.403147 6.23153674,25.8900958 C5.94753355,26.0295527 5.82071406,25.736262 5.6631853,25.6328914 C5.86564217,27.1036581 7.8146885,26.3150799 7.49064537,24.755607" id="path108" fill="#231F20"></path>
                            <path d="M20.4412141,23.5094089 C20.005016,22.6791374 19.3879553,21.7647604 18.1079712,21.7381629 C18.0819489,22.0062939 18.0619649,22.4143131 18.1094089,22.5757668 C19.0879073,22.6697923 19.6920288,23.1678115 20.4412141,23.5094089" id="path110" fill="#231F20"></path>
                            <path d="M14.3089361,22.9711342 C15.1253195,22.5418371 16.6257029,22.4956869 17.7353195,22.5281789 C17.7948403,22.2850639 17.7934026,21.9847284 17.7957029,21.6882748 C16.369361,21.6171086 14.6829393,21.9700639 14.3089361,22.9711342" id="path112" fill="#231F20"></path>
                            <path d="M14.1537652,22.170623 C14.7183067,20.7531949 16.6586262,20.9163738 18.2948722,20.9554792 C18.2228435,20.7714537 18.0667093,20.5540735 17.8726198,20.4754313 C17.3482907,20.2620767 15.9021086,20.1001917 15.1742013,20.4867891 C14.7125559,20.7322045 14.4159585,21.2867252 14.163024,21.6117891 C14.040877,21.7687859 13.4326581,22.1697604 14.1537652,22.170623" id="path114" fill="#231F20"></path>
                            <path d="M19.7764217,14.3520096 C19.1139297,13.2173482 18.4800479,12.0519633 17.6940575,11.0511374 C18.0235783,12.0200176 18.1646166,13.6416422 18.214361,14.8778914 C18.903738,15.2005112 19.4940575,14.8052875 19.7764217,14.3520096" id="path116" fill="#81B0C4"></path>
                            <path d="M23.3413419,10.2739313 C22.5996326,10.1254457 22.0784665,9.40458307 21.3548722,9.45084824 C21.7525399,10.0114505 22.449393,10.2477652 23.3413419,10.2739313" id="path118" fill="#231F20"></path>
                            <path d="" id="path120" fill="#231F20"></path>
                            <path d="" id="path122" fill="#231F20"></path>
                            <path d="M18.4980192,5.3736901 C18.5954952,4.52038658 18.9337859,3.65579712 18.8913738,2.72129233 C18.5157029,2.59460224 18.2999042,2.48379872 17.7965655,2.48447444 C17.7610543,3.2786885 17.6548083,4.4928115 17.6865815,5.24990415 C17.9341534,5.23351438 18.2991853,5.42675559 18.4980192,5.3736901" id="path124" fill="#DCD9D8"></path>
                            <path d="M17.4026358,17.9495367 C17.0614696,17.7268371 16.7709105,17.4487859 16.4432588,17.2109904 C15.7166454,17.1750479 15.3201278,17.2613099 14.7863099,17.6785304 C14.7950799,17.7120288 14.8487061,17.6970767 14.8507188,17.7381949 C15.6285144,17.3915655 16.6172204,17.879377 17.4026358,17.9495367" id="path126" fill="#F0D6B7"></path>
                            <path d="M13.3194968,12.6476022 C13.5331965,13.5736246 14.3705415,14.0532268 15.1309265,14.5631789 C15.9157668,13.5671118 16.3930831,12.2861502 16.9187061,11.050016 C15.6768211,11.4243786 14.4079073,12.0318067 13.3194968,12.6476022" id="path128" fill="#81B0C4"></path>
                            <path d="M17.6865815,5.24990415 C17.6548083,4.4928115 17.7610543,3.2786885 17.7965655,2.48447444 C18.2999042,2.48379872 18.5157029,2.59460224 18.8913738,2.72129233 C18.9337859,3.65579712 18.5954952,4.52038658 18.4980192,5.3736901 C18.2991853,5.42675559 17.9341534,5.23351438 17.6865815,5.24990415 L17.6865815,5.24990415 Z M9.84909105,9.55564217 C10.1809984,6.50441214 10.661722,3.93946965 11.5434345,1.23754457 C13.5003307,0.643370607 15.8594089,0.591590415 17.5891054,1.12775176 C17.2715176,2.65272843 17.4102556,4.50931629 17.2246486,6.13667732 C17.0847604,7.35984345 17.1560703,8.59054313 16.9642812,9.83846645 C14.8684026,10.274492 11.9059505,9.94039936 9.84909105,9.55564217 L9.84909105,9.55564217 Z M17.4598562,9.81931629 C17.4421725,8.50888179 17.5185144,7.21624601 17.6185783,5.90417252 C18.1217732,5.97970927 18.4632268,6.03014377 18.9307668,6.13263738 C18.7789457,7.39578594 18.7976358,8.81713898 18.4883866,9.93450479 C18.1309744,9.93108307 17.816262,9.93865974 17.4598562,9.81931629 L17.4598562,9.81931629 Z M20.012492,10.0305431 C19.7736901,10.0852907 19.495639,10.0326709 19.267476,10.0282428 C19.3747284,8.96001757 19.6349521,7.78126198 19.7265335,6.65997125 C20.0855272,6.64880032 20.2773163,6.81811821 20.5726198,6.8750655 C20.5884345,7.85932907 20.4866454,9.21536741 20.012492,10.0305431 L20.012492,10.0305431 Z M23.8776038,6.49913578 C24.6259265,6.68086102 25.0964856,7.59739457 24.8871565,8.53864217 C24.7466933,9.17123003 24.4965335,10.362393 24.2288339,10.7670767 C24.0310064,11.0664058 23.4946006,11.4582939 23.0663099,11.1840096 C22.3696006,10.737877 21.1422364,10.608369 20.6341534,10.0683403 C20.8889137,9.22009744 20.9679872,8.055 21.0730831,6.98020447 C21.9434665,6.92594569 23.0144089,7.21972524 23.7382907,6.90797444 C23.2329393,6.74427796 22.5772045,6.74298403 22.1405751,6.50441214 C22.4974121,6.3320607 23.3328594,6.36688179 23.8776038,6.49913578 L23.8776038,6.49913578 Z M16.9187061,11.050016 C16.3930831,12.2861502 15.9157668,13.5671118 15.1309265,14.5631789 C14.3705415,14.0532268 13.5331965,13.5736246 13.3194968,12.6476022 C14.4079073,12.0318067 15.6768211,11.4243786 16.9187061,11.050016 L16.9187061,11.050016 Z M18.214361,14.8778914 C18.1646166,13.6416422 18.0235783,12.0200176 17.6940575,11.0511374 C18.4800479,12.0519633 19.1139297,13.2173482 19.7764217,14.3520096 C19.4940575,14.8052875 18.903738,15.2005112 18.214361,14.8778914 L18.214361,14.8778914 Z M16.745607,15.3997764 C16.4478594,15.4318371 16.1951118,15.0574601 15.8079393,15.219345 C15.7192332,15.1212939 15.6385783,15.0150479 15.548147,14.9192971 C16.4032907,13.8887396 16.791901,12.4266134 17.4523802,11.215524 C17.8067732,12.3788818 17.7659425,13.6534313 17.8440096,14.9231789 C17.3570607,14.8922684 17.0869169,15.3635463 16.745607,15.3997764 L16.745607,15.3997764 Z M15.8011821,16.646262 C15.7694089,16.2933067 15.8515016,16.1778594 15.922524,15.7732907 C17.0827476,15.4105591 16.8801757,17.3656869 15.8011821,16.646262 L15.8011821,16.646262 Z M14.5145847,17.0686581 C14.0146534,17.3418211 13.2636278,17.6392812 12.6178994,17.762492 C11.8175032,17.915607 11.8924792,16.6707029 11.9264521,15.9279872 C11.9531214,15.3399681 12.2589201,14.7181629 12.3917348,14.3275256 C12.4540735,14.1451102 12.4681198,13.9515815 12.6240671,13.9153658 C12.8997029,13.851115 13.8089329,14.2146949 14.0680064,14.355992 C14.6159425,14.6547604 15.0410703,15.1292013 15.5064537,15.4477955 C15.512492,15.6027796 15.5183866,15.7576198 15.5245687,15.9126038 C15.2447923,16.0520607 14.9214537,16.1509744 14.5107029,16.1689457 C14.7893291,16.3091214 15.1992173,16.3071086 15.453115,16.4738818 C15.4555591,16.5359904 15.458147,16.5979553 15.4603035,16.6594888 C14.9967891,16.6951438 14.8200958,16.9015974 14.5145847,17.0686581 L14.5145847,17.0686581 Z M9.73946645,17.9360224 C9.32454633,17.5147764 10.9032125,16.9405591 11.4058466,16.9096486 C11.4030431,17.1761981 11.557754,17.427508 11.5265847,17.618722 C10.9296086,17.7235304 10.1450559,17.654377 9.73946645,17.9360224 L9.73946645,17.9360224 Z M14.8507188,17.7381949 C14.8487061,17.6970767 14.7950799,17.7120288 14.7863099,17.6785304 C15.3201278,17.2613099 15.7166454,17.1750479 16.4432588,17.2109904 C16.7709105,17.4487859 17.0614696,17.7268371 17.4026358,17.9495367 C16.6172204,17.879377 15.6285144,17.3915655 14.8507188,17.7381949 L14.8507188,17.7381949 Z M19.5422204,16.3155911 C19.5197923,16.7835623 19.396869,17.7459585 19.1076038,17.9144569 C18.5004633,18.2688498 17.4211821,17.1989137 16.9639936,17.0357348 C17.013738,16.8925399 17.0958307,16.7791054 17.1021565,16.5960863 C17.3725879,16.6626518 17.7018211,16.6170767 17.9361661,16.5019169 C17.6651597,16.4715815 17.3646805,16.4735942 17.1853994,16.3444888 C17.1196965,16.1545687 17.2015016,15.8957827 17.1577955,15.6321086 C17.8010224,15.4506709 18.5356869,15.3540575 19.3488498,15.3301917 C19.5069968,15.5357827 19.5609105,15.9274121 19.5422204,16.3155911 L19.5422204,16.3155911 Z M9.04094569,17.5285783 C8.91064696,17.6214537 8.02922204,18.7683067 7.90846965,18.7207188 C6.31352875,18.0917252 4.8221885,17.0041054 3.48951278,15.9754313 C4.76013738,13.2489633 5.27305112,9.90861182 5.36368371,6.68907029 C6.81923962,6.00829073 8.09772843,5.02688818 10.0728834,4.92440895 C9.84431789,6.54153355 9.63567891,7.98429393 9.50594089,9.50678914 C9.00966134,9.71598882 8.29765495,9.49730032 7.83322045,9.57165815 C7.82928115,10.1313403 8.54252396,9.81674281 8.60192971,10.1931182 C8.64669968,10.4777971 8.20949521,10.4993626 8.35185623,10.9476374 C8.71493291,10.8156565 8.90560064,10.5241342 9.29281629,10.4146677 C9.64663419,11.1887252 9.28787061,12.5583067 9.33886581,13.2052716 C9.34852716,13.3267428 9.39952236,13.8782444 9.67162141,13.7814728 C9.9124361,13.6958291 9.65786262,12.314746 9.68425879,11.7024297 C9.70829712,11.1382907 9.6161262,10.5924249 9.84459105,10.2382764 C11.7531949,10.4980687 13.6926805,10.665992 15.7577636,10.7226518 C15.3034505,10.9175895 14.763738,11.1020751 14.1720096,11.435607 C13.85123,11.6164409 12.8400671,11.9927157 12.747508,12.297393 C12.5998131,12.7828898 13.1350112,13.0415032 13.2265495,13.4577173 C12.2631326,12.9322812 12.0751677,13.9613578 11.8472636,14.6904153 C11.6407668,15.3507508 11.5232204,15.8440256 11.4725559,16.2248722 C10.6426294,16.6205272 9.75529553,17.0212141 9.04094569,17.5285783 L9.04094569,17.5285783 Z M18.6992971,18.5819808 C20.0281629,19.2263578 20.2676837,16.1736901 19.7468051,15.1903035 C19.8273163,14.8970128 20.1042173,14.7847284 20.2172204,14.5210543 C19.475655,13.1926342 18.6519968,11.9526182 17.8953355,10.6398259 C18.4581949,10.9902077 19.2621565,10.7024952 19.9245048,10.9647604 C20.1666134,11.0605112 20.341869,11.6147588 20.5251757,12.0581454 C21.029377,13.2780048 21.558738,14.8159265 21.7942332,15.9800319 C21.8474281,16.2452875 21.9923482,16.8232428 21.9598562,17.0593131 C21.9019169,17.4819968 21.3284185,17.7954153 21.0367093,18.0567891 C20.4992971,18.5395687 20.1608626,18.9644089 19.6003035,19.4158466 C19.3730032,19.0802875 18.8851917,18.8548562 18.6992971,18.5819808 L18.6992971,18.5819808 Z M6.00183546,30.3665176 C5.36862939,29.6698083 5.50117093,28.364377 5.57782907,27.435623 C6.72236741,28.155623 8.2414984,27.3786901 8.22717891,26.1540575 C8.77361981,26.1685783 8.43131789,26.8365335 8.33247604,27.2668371 C8.00945367,28.6723323 8.87667412,30.1993131 8.37179712,31.4846166 C7.39151597,31.4102875 6.58617412,31.0098882 6.00183546,30.3665176 L6.00183546,30.3665176 Z M10.5325591,34.4101917 C9.09907188,34.0038978 7.26189297,32.9622843 6.67283866,31.6745367 C7.12896326,31.7408147 7.44560224,31.9708466 7.89555911,31.9993131 C8.06561022,32.0103834 8.28839617,31.9280032 8.48383706,31.9765974 C8.8733099,32.0732109 9.20201118,32.9464696 9.49583387,33.2713898 C9.7822524,33.5886901 10.1265096,33.7242652 10.3621054,34.0135304 C10.5134665,34.0865655 10.7372588,34.0815335 10.7458562,34.3088339 C10.680254,34.3789936 10.6111725,34.432476 10.5325591,34.4101917 L10.5325591,34.4101917 Z M17.9946805,34.0280511 C16.5068051,34.867524 13.9883722,35.4989617 12.4056661,34.7099521 C11.1285863,34.0731949 9.40232588,33.0196486 8.81377476,31.6846006 C9.36357987,30.396278 8.65091214,29.2157827 8.60542332,27.9077636 C8.58126997,27.2117732 8.93311821,26.6042013 8.96007508,25.8465335 C8.7719377,25.5361342 8.19713099,25.4978914 7.79923323,25.5191693 C7.66529712,26.1894249 7.43082268,26.9427796 6.7406262,27.0184026 C5.76399681,27.1252236 5.04992013,26.3169489 5.00555272,25.4723003 C4.95304792,24.4789936 5.76848243,22.8326837 6.92426358,22.9469808 C7.37074121,22.9911182 7.48042332,23.4386741 7.96688339,23.4340735 C8.23054313,22.9080192 7.56017252,22.7428275 7.49120607,22.3665815 C7.47323482,22.269393 7.54680192,21.8895527 7.58958786,21.7114217 C7.79952077,20.8440575 8.26750639,19.7215016 8.72813099,19.0611661 C9.31275719,18.2235623 10.4613498,18.0973323 11.6970383,18.0152396 C11.9177396,18.4906869 12.7307732,18.4515815 13.2605367,18.3272204 C12.6256486,18.5786741 12.035401,19.1882588 11.546238,19.7278275 C10.9843562,20.346901 10.4151853,21.0109744 10.3864313,21.8201118 C11.4482444,20.3470447 12.3254712,19.0605911 14.2562588,18.4126198 C15.7172204,17.9226518 17.4234824,18.6371885 18.5460383,19.4254792 C19.011853,19.753131 19.2899042,20.2730032 19.6210064,20.7488818 C20.8598722,22.5309105 21.4379712,25.0744888 21.3108786,27.5398562 C21.2585463,28.5565974 21.2608466,29.5698882 20.9196805,30.2539457 C20.563131,30.9692013 19.3571885,31.6091214 18.651278,30.9621565 C18.5204473,31.6577157 19.2382907,32.0878754 20.0815016,31.8375719 C19.4802556,32.6134984 18.8492492,33.5458466 17.9946805,34.0280511 L17.9946805,34.0280511 Z M20.7667093,11.0870799 C21.929377,11.6650783 24.1017412,12.6428291 24.830655,11.0849521 C25.0996486,10.5107061 25.4152236,9.53998562 25.5545367,8.94720767 C25.7513578,8.11092652 25.3411821,6.35316613 24.4815815,6.07254153 C23.7223323,5.82471086 22.8364217,5.83980671 21.921901,6.02351597 C21.8142173,6.11308466 21.6943131,6.26921885 21.6104952,6.43196645 C20.957492,6.45729872 20.3460383,6.39691534 19.8301917,6.12848243 C19.8790735,5.64555911 19.5524281,5.56805272 19.2461981,5.46859265 C19.0191853,4.56846326 19.7003674,3.39297125 19.5373323,2.5721885 C19.4210224,1.98744728 18.7015974,1.89703035 18.1728115,1.78763578 C18.1555591,1.4626869 18.1959585,1.19143754 18.2320447,0.916533546 C18.1111342,0.471014856 17.5688339,0.217396006 17.055,0.155283067 C15.3644089,-0.048016869 12.7974968,-0.139333371 11.1713722,0.44540655 C10.7176054,1.5584377 10.3601358,2.9121901 9.98217891,4.18314537 C8.39622364,4.01376997 7.11352236,4.86746166 5.90428754,5.42675559 C5.48561502,5.62084505 4.9064377,5.72776677 4.75003035,6.06102556 C4.59839617,6.38367412 4.66044728,7.00204313 4.62282268,7.58616613 C4.52707188,9.07806709 4.44507987,10.5170607 4.05110703,12.0446166 C3.87421246,12.7300974 3.56588339,13.3349521 3.35078914,13.9954457 C3.15198403,14.6076038 2.80463578,15.3641214 2.71404633,15.9745687 C2.57972204,16.8793131 3.43165974,16.9296326 3.97641853,17.3216933 C4.81853674,17.9279712 5.47954792,18.2632428 6.39158147,18.8104313 C6.66171086,18.9724601 7.47632588,19.3826358 7.56898562,19.5715495 C7.75318371,19.9460703 7.25280671,20.4741374 7.11902875,20.7677157 C6.90741374,21.2319489 6.79705591,21.6263099 6.76673482,22.084361 C6.00166294,22.2052716 5.42169489,22.6605911 5.07137061,23.1739936 C4.49186262,24.0236741 4.08996805,25.595655 4.59136581,26.7913898 C4.6306869,26.8855591 4.82678914,27.0707348 4.85571565,27.2153674 C4.91277796,27.5001757 4.74833387,27.8788658 4.73811182,28.1817891 C4.6854345,29.7359425 5.00106709,31.075016 6.04732428,31.5437061 C6.4720639,33.2357348 7.99225879,33.7983067 9.42450958,34.6392173 C9.95989457,34.9534984 10.5500703,35.154345 11.1595831,35.3786262 C13.3460655,36.1833067 16.7007508,36.0317732 18.5154153,34.659345 C19.2848722,34.0773642 20.5148243,32.8485623 20.9547604,31.9589137 C22.1167093,29.6101438 22.0341853,25.6847923 21.2214537,22.8276518 C21.1121885,22.4440735 20.953754,21.8802077 20.732492,21.4194249 C20.5782268,21.0976677 20.098754,20.4538658 20.1569808,20.1697764 C20.2169329,19.8760543 21.2502077,19.0915016 21.4717572,18.8778594 C21.8707188,18.4929872 22.6286741,17.9821725 22.6900639,17.4965176 C22.7560543,16.9796645 22.4623323,16.2726038 22.3135304,15.7738658 C21.8160863,14.1094553 21.3307188,12.5709441 20.7667093,11.0870799 L20.7667093,11.0870799 Z" id="path130" fill="#231F20"></path>
                            <path d="M13.0098882,22.6085463 C13.0729601,22.692508 13.4197476,22.8200319 13.9049712,22.5864058 C13.9049712,22.5864058 13.3298914,22.4905112 13.377738,21.5317093 L13.1381022,21.5797284 C13.1381022,21.5797284 12.8904441,22.4491054 13.0098882,22.6085463" id="path132" fill="#F7E4CD"></path>
                            <path d="M17.2117093,14.367508 C17.2117093,14.2219984 17.0936741,14.1040064 16.9480351,14.1040064 C16.8025399,14.1040064 16.6845048,14.2219984 16.6845048,14.367508 C16.6845048,14.5130032 16.8025399,14.6311821 16.9480351,14.6311821 C17.0936741,14.6311821 17.2117093,14.5130032 17.2117093,14.367508" id="path134" fill="#1D1919"></path>
                            <path d="M17.4752396,13.1454633 C17.4752396,12.9999537 17.3572045,12.8819617 17.2115655,12.8819617 C17.0660703,12.8819617 16.9480351,12.9999537 16.9480351,13.1454633 C16.9480351,13.2909728 17.0660703,13.4091374 17.2115655,13.4091374 C17.3572045,13.4091374 17.4752396,13.2909728 17.4752396,13.1454633" id="path136" fill="#1D1919"></path>
                        </g>
                    </g>
                </g>
            </g>
        </g>
    </g>
</svg>