<?xml version="1.0" encoding="UTF-8" standalone="no"?>
<svg width="36px" height="36px" viewBox="0 0 36 36" version="1.1" xmlns="http://www.w3.org/2000/svg" xmlns:xlink="http://www.w3.org/1999/xlink">
    <!-- Generator: Sketch 39.1 (31720) - http://www.bohemiancoding.com/sketch -->
    <title>full-color-fabric-alt</title>
    <desc>Created with Sketch.</desc>
    <defs></defs>
    <g id="icons" stroke="none" stroke-width="1" fill="none" fill-rule="evenodd">
        <g id="full-color-fabric-alt">
            <path d="M18,36 C27.9411255,36 36,27.9411255 36,18 C36,8.0588745 27.9411255,0 18,0 C8.0588745,0 0,8.0588745 0,18 C0,27.9411255 8.0588745,36 18,36 Z M18,35 C27.3888407,35 35,27.3888407 35,18 C35,8.61115925 27.3888407,1 18,1 C8.61115925,1 1,8.61115925 1,18 C1,27.3888407 8.61115925,35 18,35 Z" id="Combined-Shape" fill="#2C6DB0"></path>
            <g id="fabric" transform="translate(6.000000, 9.000000)">
                <g id="Group">
                    <path d="M18.3351595,16.6943813 C18.2141323,17.2131362 18.1520311,17.5290584 17.8937276,17.8777587 C17.7215253,18.110288 17.4395019,18.2437354 17.1521557,18.2101167 C16.9024436,18.1809805 16.6606692,18.0739611 16.4175876,17.9803891 C13.6064124,16.898428 11.337712,14.9933696 9.04566537,13.1233308 C8.49936187,12.6776032 7.3465214,11.6456965 6.69179767,11.1035953 C8.28578989,9.976716 8.94564981,9.2797821 8.94564981,9.2797821 C11.5142101,11.5097276 14.5088872,14.1202179 17.6342101,15.42593 C18.1322334,15.6340856 18.5982257,15.5666615 18.3351595,16.6943813" id="Shape" fill="#FEC32D"></path>
                    <path d="M15.1583813,8.31315175 C14.4352996,7.74172762 13.1705837,6.79302724 12.4565603,6.24224124 C10.642179,4.84267704 8.70714397,3.67461479 6.48728405,3.00905837 C5.28494942,2.64859144 5.12703502,1.44009338 6.0360467,0.372607004 C6.20124514,0.178552529 6.45954863,0.0511750973 6.70907393,0.103377432 C10.8435175,0.968964984 13.9722957,3.50231906 17.4564047,6.69964202 C16.2776032,7.32242801 15.1583813,8.31315175 15.1583813,8.31315175" id="Shape" fill="#FEC32D"></path>
                    <path d="M12.6677977,11.3138054 C15.2493385,8.70088716 20.2616965,5.54381323 22.7894475,5.42773541 C23.0849182,5.41419456 23.3655409,5.56192996 23.5207471,5.81369649 C23.769712,6.21758755 23.8502101,6.70113619 23.9245447,7.1766537 C23.996358,7.63610895 23.7568249,8.02823347 23.3210895,8.15028794 C20.3011985,8.9961712 17.3683424,11.0527938 14.9877666,13.0163113 C14.1870817,12.6381946 12.6677977,11.3138054 12.6677977,11.3138054" id="Shape" fill="#2C6DB0"></path>
                    <path d="M11.2587082,6.36616342 C8.29316732,8.84236576 5.07529961,11.7967004 1.596607,12.8543813 C1.30291051,12.9436576 0.978677044,12.8699767 0.767439689,12.6472529 C0.483268482,12.3475798 0.374474708,12.0392218 0.259237354,11.7390817 C-0.143252918,10.6904591 -0.0291361868,10.3837821 1.01285603,9.98278603 C3.45880156,9.04127627 5.49394553,7.476607 7.46297276,5.80407782 C7.76115175,5.55081712 8.35256032,5.06456032 8.67875486,4.79635798 C9.7574475,5.0854786 11.2587082,6.36616342 11.2587082,6.36616342" id="Shape" fill="#2C6DB0"></path>
                    <path d="M5.9159533,15.5026926 C6.76641245,15.0668638 8.07567315,14.5524981 8.92921401,14.0729649 C9.61867706,14.6809027 11.2150039,15.8919222 11.2150039,15.8919222 C10.0574942,16.665712 8.21136187,17.8178054 6.92610117,18.1501634 C6.61540856,18.2305681 6.2854786,18.1096342 6.08918287,17.8557199 C5.71340077,17.369463 5.49609338,16.8532296 5.47741634,16.2389416 C5.46807782,15.9307704 5.64168094,15.6432373 5.9159533,15.5026926" id="Shape" fill="#2C6DB0"></path>
                    <path d="M12.8114242,1.93736965 C14.3312685,1.01808561 16.0413385,0.327782101 17.2131362,0.0770428015 C17.5354086,0.00812451362 17.8721557,0.148856032 18.0490272,0.426957199 C18.3853074,0.955610897 18.5251051,1.48687938 18.4907393,2.06801557 C18.4738366,2.35470818 18.3148949,2.61487938 18.0629416,2.7524358 C17.3278132,3.15389883 16.0184591,3.46692607 15.2659611,3.79536187 C15.2659611,3.79536187 13.9389572,2.6759533 12.8114242,1.93736965" id="Shape" fill="#2C6DB0"></path>
                    <path d="M21.8528872,9.53182875 C23.9054942,10.3290584 24.6626615,10.5994086 23.1651362,12.667891 C22.989572,12.9103191 22.7106304,12.9119066 22.4192685,12.8430817 C21.4853229,12.6225058 19.8280156,11.6675486 18.9105992,11.1338521 C20.6016187,9.96401559 21.8528872,9.53182875 21.8528872,9.53182875" id="Shape" fill="#FEC32D"></path>
                    <path d="M2.40672373,8.60516732 C1.8998288,8.46023347 0.935439689,8.30726848 0.493821011,8.03831906 C0.294163424,7.91673152 0.159875486,7.70502724 0.131206225,7.47305837 C0.0586459144,6.88650584 0.209276265,6.35822568 0.495315175,5.82667704 C0.651642023,5.53634242 0.970739297,5.36834242 1.2985214,5.40466926 C2.28280156,5.51402334 4.06160311,6.25783658 5.02459144,6.69814786 C3.62997666,7.98238133 2.40672373,8.60516732 2.40672373,8.60516732" id="Shape" fill="#FEC32D"></path>
                </g>
            </g>
        </g>
    </g>
</svg>