<?xml version="1.0" encoding="UTF-8" standalone="no"?>
<svg width="36px" height="36px" viewBox="0 0 36 36" version="1.1" xmlns="http://www.w3.org/2000/svg" xmlns:xlink="http://www.w3.org/1999/xlink">
    <!-- Generator: Sketch 39.1 (31720) - http://www.bohemiancoding.com/sketch -->
    <title>full-color-bamboo</title>
    <desc>Created with Sketch.</desc>
    <defs></defs>
    <g id="icons" stroke="none" stroke-width="1" fill="none" fill-rule="evenodd">
        <g id="full-color-bamboo" fill="#205081">
            <g id="bamboo_rgb_blue" transform="translate(1.000000, 0.000000)">
                <g id="Bamboo_-_Blue">
                    <g id="Group">
                        <g id="Shape">
                            <path d="M0.0947368421,16.8631579 C0.710526316,17.2421053 2.03684211,17.6447368 3.86052632,17.6447368 L3.86052632,17.6447368 C4.73684211,17.6447368 5.61315789,17.55 6.32368421,17.3605263 C6.39473684,17.3368421 6.46578947,17.2657895 6.46578947,17.1947368 C6.58421053,15.8210526 6.96315789,14.4473684 7.60263158,13.2157895 C7.62631579,13.1684211 7.62631579,13.1210526 7.60263158,13.0736842 C7.57894737,13.0263158 7.55526316,12.9789474 7.50789474,12.9552632 C6.79736842,12.6236842 6.03947368,12.1736842 5.35263158,11.6763158 C4.28684211,10.9184211 3.41052632,10.0421053 2.77105263,9.16578947 C2.72368421,9.09473684 2.65263158,9.07105263 2.55789474,9.09473684 C2.48684211,9.11842105 2.41578947,9.16578947 2.41578947,9.26052632 C2.17894737,10.4684211 1.84736842,11.7 1.44473684,12.9789474 C1.01842105,14.2815789 0.544736842,15.4894737 0.0236842105,16.6263158 C-0.0236842105,16.6973684 -2.24162794e-15,16.8157895 0.0947368421,16.8631579 L0.0947368421,16.8631579 Z"></path>
                            <path d="M7.98157895,23.7789474 C8.02894737,23.7078947 8.05263158,23.6131579 8.00526316,23.5421053 C7.43684211,22.5947368 7.01052632,21.5763158 6.75,20.4868421 C6.67894737,20.2263158 6.63157895,19.9421053 6.58421053,19.6578947 C6.58421053,19.6105263 6.53684211,19.5631579 6.51315789,19.5157895 C6.46578947,19.4921053 6.41842105,19.4684211 6.37105263,19.4921053 C5.58947368,19.6342105 4.73684211,19.7289474 3.88421053,19.7289474 C2.58157895,19.7289474 1.35,19.5631579 0.307894737,19.2078947 C0.236842105,19.1842105 0.142105263,19.2078947 0.0947368421,19.2552632 C0.0473684211,19.3026316 0.0236842105,19.3973684 0.0710526316,19.4684211 C0.592105263,20.5815789 1.06578947,21.7894737 1.46842105,23.0447368 C1.89473684,24.3473684 2.22631579,25.6026316 2.46315789,26.8342105 C2.48684211,26.9289474 2.55789474,27 2.65263158,27 L2.67631579,27 C3.41052632,26.9289474 4.71315789,26.5026316 6.18157895,25.4131579 C6.86842105,24.9394737 7.50789474,24.3473684 7.98157895,23.7789474 L7.98157895,23.7789474 Z"></path>
                            <path d="M18.7342105,2.29736842 C18.6631579,2.15526316 18.5447368,2.06052632 18.4026316,2.03684211 L8.97631579,0.0710526316 C8.78684211,0.0236842105 8.59736842,0.118421053 8.47894737,0.284210526 C8.38421053,0.45 8.38421053,0.663157895 8.50263158,0.805263158 L9.92368421,2.72368421 C9.14210526,3.41052632 8.28947368,4.09736842 7.38947368,4.76052632 C6.3,5.56578947 5.18684211,6.27631579 4.09736842,6.86842105 C4.00263158,6.91578947 3.97894737,7.03421053 4.00263158,7.12894737 C4.28684211,7.79210526 5.11578947,8.90526316 6.58421053,9.97105263 C7.29473684,10.4921053 8.05263158,10.9184211 8.73947368,11.2026316 C8.76315789,11.2026316 8.78684211,11.2263158 8.81052632,11.2263158 C8.85789474,11.2263158 8.92894737,11.2026316 8.95263158,11.1552632 C9.92368421,10.0184211 11.1078947,9.11842105 12.4578947,8.47894737 L12.9315789,10.8710526 C12.9789474,11.0605263 13.1210526,11.2026316 13.3105263,11.25 L13.3815789,11.25 C13.5473684,11.25 13.6894737,11.1552632 13.7842105,11.0131579 L18.6868421,2.72368421 C18.7815789,2.58157895 18.8052632,2.41578947 18.7342105,2.29736842 L18.7342105,2.29736842 Z"></path>
                            <path d="M13.0263158,27.8289474 C11.7236842,27.3078947 10.5394737,26.5026316 9.54473684,25.5078947 C9.49736842,25.4605263 9.45,25.4605263 9.40263158,25.4605263 C9.35526316,25.4605263 9.30789474,25.4842105 9.26052632,25.5315789 C8.71578947,26.1 8.07631579,26.6921053 7.38947368,27.1894737 C6.32368421,27.9473684 5.23421053,28.5394737 4.21578947,28.8710526 C4.14473684,28.8947368 4.09736842,28.9657895 4.07368421,29.0368421 C4.07368421,29.1078947 4.09736842,29.1789474 4.16842105,29.2263158 C5.23421053,29.8184211 6.32368421,30.5289474 7.41315789,31.3105263 C8.52631579,32.1157895 9.56842105,32.9684211 10.4921053,33.8447368 C10.5394737,33.8684211 10.5868421,33.8921053 10.6342105,33.8921053 C10.6815789,33.8921053 10.7289474,33.8684211 10.7526316,33.8447368 C11.3210526,33.3473684 12.1026316,32.2105263 12.6710526,30.4815789 C12.9552632,29.6289474 13.1210526,28.8 13.1684211,28.0421053 C13.1447368,27.9473684 13.0973684,27.8526316 13.0263158,27.8289474 L13.0263158,27.8289474 Z"></path>
                            <path d="M34.0815789,19.1368421 C33.4657895,18.7578947 32.1394737,18.3552632 30.3157895,18.3552632 C29.4157895,18.3552632 28.5631579,18.45 27.8526316,18.6394737 C27.7815789,18.6631579 27.7105263,18.7342105 27.7105263,18.8052632 C27.5921053,20.1789474 27.2131579,21.5526316 26.5736842,22.7842105 C26.55,22.8315789 26.55,22.8789474 26.5736842,22.95 C26.5973684,22.9973684 26.6210526,23.0447368 26.6684211,23.0684211 C27.3789474,23.4 28.1368421,23.85 28.8236842,24.3473684 C29.8894737,25.1052632 30.7657895,25.9815789 31.4052632,26.8578947 C31.4526316,26.9052632 31.5,26.9289474 31.5710526,26.9289474 L31.6184211,26.9289474 C31.6894737,26.9052632 31.7605263,26.8578947 31.7605263,26.7631579 C31.9973684,25.5552632 32.3289474,24.3236842 32.7315789,23.0447368 C33.1578947,21.7421053 33.6315789,20.5342105 34.1526316,19.3973684 C34.2,19.2789474 34.1763158,19.1842105 34.0815789,19.1368421 L34.0815789,19.1368421 Z"></path>
                            <path d="M26.1947368,12.1973684 C26.1473684,12.2684211 26.1236842,12.3631579 26.1710526,12.4342105 C26.7394737,13.3815789 27.1657895,14.4 27.4263158,15.4894737 C27.4973684,15.75 27.5447368,16.0342105 27.5921053,16.3184211 C27.5921053,16.3657895 27.6394737,16.4131579 27.6631579,16.4605263 C27.7105263,16.4842105 27.7578947,16.5078947 27.8052632,16.4842105 C28.5868421,16.3421053 29.4394737,16.2473684 30.2921053,16.2473684 C31.5947368,16.2473684 32.8263158,16.4131579 33.8684211,16.7684211 L33.9394737,16.7684211 L33.9394737,16.7684211 C34.0578947,16.7684211 34.1289474,16.6736842 34.1289474,16.5789474 C34.1289474,16.5315789 34.1052632,16.4842105 34.0815789,16.4605263 C33.5605263,15.3710526 33.1105263,14.1631579 32.7078947,12.9078947 C32.2815789,11.6052632 31.95,10.35 31.7131579,9.11842105 C31.6894737,9.02368421 31.5947368,8.95263158 31.5,8.95263158 C30.7657895,9.02368421 29.4868421,9.45 27.9947368,10.5394737 C27.3078947,11.0368421 26.6684211,11.6289474 26.1947368,12.1973684 L26.1947368,12.1973684 Z"></path>
                            <path d="M21.15,8.21842105 C22.4526316,8.73947368 23.6368421,9.54473684 24.6315789,10.5394737 C24.6789474,10.5868421 24.7263158,10.5868421 24.7736842,10.5868421 L24.7736842,10.5868421 C24.8210526,10.5868421 24.8684211,10.5631579 24.9157895,10.5157895 C25.4605263,9.94736842 26.1,9.35526316 26.7868421,8.85789474 C27.8526316,8.1 28.9421053,7.50789474 29.9605263,7.17631579 C30.0315789,7.15263158 30.0789474,7.08157895 30.1026316,7.01052632 C30.1026316,6.93947368 30.0789474,6.86842105 30.0078947,6.82105263 C28.9421053,6.22894737 27.8526316,5.51842105 26.7631579,4.73684211 C25.65,3.93157895 24.6078947,3.07894737 23.6842105,2.20263158 C23.6131579,2.13157895 23.4947368,2.13157895 23.4236842,2.20263158 C22.8552632,2.7 22.0736842,3.83684211 21.5052632,5.56578947 C21.2210526,6.41842105 21.0552632,7.24736842 21.0078947,8.00526316 C21.0315789,8.1 21.0789474,8.19473684 21.15,8.21842105 L21.15,8.21842105 Z"></path>
                            <path d="M27.5921053,26.0289474 C26.8815789,25.5078947 26.1236842,25.0815789 25.4368421,24.7973684 C25.3657895,24.7736842 25.2710526,24.7973684 25.2236842,24.8447368 C24.2526316,25.9815789 23.0684211,26.8815789 21.7184211,27.5210526 L21.2447368,25.1289474 C21.1973684,24.9394737 21.0552632,24.7973684 20.8657895,24.75 C20.6763158,24.7263158 20.4868421,24.7973684 20.3921053,24.9631579 L15.4894737,33.2526316 C15.4184211,33.3710526 15.3947368,33.5368421 15.4657895,33.6789474 C15.5368421,33.8210526 15.6552632,33.9157895 15.7973684,33.9394737 L25.2236842,35.9052632 L25.3184211,35.9052632 C25.5789474,35.9052632 25.7921053,35.6921053 25.7921053,35.4315789 C25.7921053,35.3131579 25.7447368,35.1947368 25.6736842,35.1 L24.3,33.2052632 C25.0815789,32.5184211 25.9342105,31.8315789 26.8342105,31.1684211 C27.9236842,30.3631579 29.0368421,29.6526316 30.1263158,29.0605263 C30.2210526,29.0131579 30.2447368,28.8947368 30.2210526,28.8 C29.8894737,28.2078947 29.0605263,27.0947368 27.5921053,26.0289474 L27.5921053,26.0289474 Z"></path>
                        </g>
                    </g>
                </g>
            </g>
        </g>
    </g>
</svg>