<?xml version="1.0" encoding="UTF-8" standalone="no"?>
<svg width="36px" height="36px" viewBox="0 0 36 36" version="1.1" xmlns="http://www.w3.org/2000/svg" xmlns:xlink="http://www.w3.org/1999/xlink">
    <!-- Generator: Sketch 39.1 (31720) - http://www.bohemiancoding.com/sketch -->
    <title>full-color-codeship</title>
    <desc>Created with Sketch.</desc>
    <defs></defs>
    <g id="icons" stroke="none" stroke-width="1" fill="none" fill-rule="evenodd">
        <g id="full-color-codeship">
            <g id="codeship-seeklogo.com">
                <g id="Group">
                    <path d="M34.4779604,18.1160198 C34.4779604,27.2188515 27.0986138,34.598198 17.9957822,34.598198 C8.8929505,34.598198 1.51366337,27.2188515 1.51366337,18.1160198 C1.51366337,9.01318812 8.8929505,1.63384158 17.9957822,1.63384158 C27.0986138,1.63384158 34.4779604,9.01318812 34.4779604,18.1160198" id="Shape" fill="#FFFFFF"></path>
                    <path d="M18,35.970297 C13.1999406,35.970297 8.68722773,34.1010297 5.29312871,30.7068713 C1.8989703,27.3127722 0.0297029703,22.8000594 0.0297029703,18 C0.0297029703,13.1999406 1.8989703,8.68722773 5.29312871,5.29306931 C8.68722773,1.89891089 13.1999406,0.0297029703 18,0.0297029703 C22.8000594,0.0297029703 27.3127722,1.89891089 30.7068713,5.29306931 C34.1010297,8.68722773 35.970297,13.1999406 35.970297,18 C35.970297,22.8000594 34.1010297,27.3127722 30.7068713,30.7068713 C27.3127722,34.1010297 22.8000594,35.970297 18,35.970297 L18,35.970297 L18,35.970297 Z M18,1.99009901 C13.723604,1.99009901 9.70318811,3.65542574 6.67930693,6.67930693 C3.65542574,9.70312871 1.99009901,13.723604 1.99009901,18 C1.99009901,22.276396 3.65542574,26.2968119 6.67930693,29.320693 C9.70318811,32.3445742 13.723604,34.009901 18,34.009901 C22.276396,34.009901 26.2968119,32.3445742 29.320693,29.320693 C32.3445742,26.2968119 34.009901,22.276396 34.009901,18 C34.009901,13.723604 32.3445742,9.70312871 29.320693,6.67930693 C26.2968119,3.65542574 22.276396,1.99009901 18,1.99009901 L18,1.99009901 L18,1.99009901 Z" id="Shape" fill="#3C4655"></path>
                    <path d="M12.1851683,13.3896832 C12.1851683,12.3980198 12.1902772,11.4593465 12.1813069,10.5207921 C12.1792277,10.305505 12.3135446,10.2291683 12.4650891,10.1535446 C13.1330495,9.8200396 13.8552475,9.65441585 14.572396,9.4709703 C17.502297,8.72162376 20.3733862,9.00564356 23.2024753,9.96807921 C23.9438019,10.2202574 23.9375644,10.2386733 23.9375644,11.0114257 L23.9375644,13.373703 C23.8220198,13.3896238 23.770396,13.3196436 23.7086138,13.2772871 C22.0429901,12.1358614 20.2333663,11.2933663 18.3196634,10.6615247 C18.0607129,10.5759802 17.8335446,10.5796634 17.5773267,10.6690693 C15.731703,11.3130891 13.9863564,12.1547525 12.374495,13.2656436 C12.3272079,13.298198 12.2784356,13.3286733 12.1851683,13.3896832" id="Shape" fill="#3C4655"></path>
                    <path d="M15.2148712,6.51219802 C15.2148712,6.12629703 15.2357227,5.73885149 15.2082772,5.35485149 C15.1858811,5.04112871 15.3380791,4.87829703 15.5891881,4.75770298 C16.1395841,4.49334654 16.7277029,4.36140593 17.3276436,4.28910891 C18.3192476,4.16958415 19.2800791,4.32213861 20.2078811,4.6800594 C20.7507327,4.88946535 20.7891683,4.95932673 20.7891683,5.52778218 C20.7891683,6.27 20.7844158,7.01227723 20.7922575,7.75437623 C20.7943961,7.95243565 20.7732475,8.0289505 20.5334257,7.98124753 C18.8354852,7.64370297 17.1339209,7.63823762 15.4369901,7.99170297 C15.2244951,8.0359604 15.2090495,7.95867327 15.2122575,7.78877228 C15.2201585,7.36336634 15.2148712,6.93778217 15.2148712,6.51219802" id="Shape" fill="#6E717E"></path>
                    <path d="M31.3074654,22.1678613 C30.7842178,21.8303762 30.2802772,21.4624752 29.7520395,21.1334258 C28.6862376,20.4693861 27.6024357,19.8351683 26.3912079,19.4640594 C26.0240792,19.3515445 25.6501782,19.2399802 25.2576831,19.3618811 C24.8714258,19.4818812 24.5557426,19.7181387 24.2534257,19.9728713 C23.6089306,20.5159009 23.0440991,21.1419208 22.4391683,21.7261782 C22.368,21.7948515 22.3229703,21.912594 22.1949505,21.9041584 C22.1590693,21.8484356 22.1865743,21.8041782 22.2006535,21.7575446 C22.8026139,19.7607327 23.7575049,17.9591287 25.1714852,16.4152872 C25.3182773,16.25501 25.3250495,16.1749901 25.1520594,16.0267722 C23.1178812,14.2842773 20.8683564,12.9215644 18.3074258,12.0968911 C18.1106733,12.033505 17.9325742,12.0232277 17.7362376,12.0926733 C15.1947921,12.9917228 12.8783762,14.280297 10.8364752,16.0510099 C10.6798218,16.1868119 10.7013267,16.2543565 10.8312475,16.3925346 C11.7966535,17.4194257 12.5279406,18.6001189 13.0746535,19.8951682 C13.3117426,20.4569108 13.5638614,21.0156832 13.6697228,21.6235842 C13.888099,22.5346337 14.0957821,24.6573267 14.2079406,24.7623564 C12.7374059,24.4044951 12.4414456,24.2428515 11.5148317,23.7920792 C10.299505,23.2008119 9.05904951,22.8276238 7.68314852,22.9109109 C6.85479208,22.9610495 6.15570297,23.1128317 5.37623762,23.3762376 C5.23829703,23.4228713 4.94613862,23.5844554 5.00215842,23.7001188 C5.02057426,23.7554258 5.03435644,23.758396 5.0580594,23.8113267 C5.81875248,25.512 6.87201981,27.0082574 8.23348515,28.2784753 C11.0073267,30.8661981 14.2939605,32.2099604 18.091604,32.220297 C20.5852871,32.2271287 22.9204159,31.5684356 25.0704356,30.304099 C28.1289504,28.5055248 30.2653664,25.9372872 31.4419604,22.5794852 C31.5109306,22.382792 31.4797425,22.2790099 31.3074654,22.1678613 L31.3074654,22.1678613 L31.3074654,22.1678613 Z M18.5553267,19.0956832 C18.5148713,21.2277029 18.2339407,22.2403366 18.0725347,23.7733664 C18.0601189,23.8912277 18.0077227,24.1984159 18.0077227,24.1984159 C18.0077227,24.1984159 17.9145149,23.8062773 17.9046534,23.7693267 C17.7343961,22.376198 17.6013862,21.330594 17.44099,19.9363366 C17.3121386,18.8164159 17.2626535,17.6863366 17.2745941,16.5640991 C17.2816633,15.8972673 17.5427525,15.2332277 17.6893069,14.5678217 C17.7854851,14.1311287 17.8597426,13.7338812 18,13.2607723 C18.1652673,14.076594 18.34301,14.9000792 18.5458217,15.7065148 C18.8310298,16.8405743 18.5767128,17.9677426 18.5553267,19.0956832 L18.5553267,19.0956832 L18.5553267,19.0956832 Z" id="Shape" fill="#3C4655"></path>
                    <path d="M13.6697228,21.678 C14.2806535,22.3908713 15.0447921,22.9127525 15.8434456,23.3823565 C16.4044159,23.7122376 16.9963961,23.9868118 17.6352476,24.1407921 C17.7377822,24.1655643 18.263406,24.2730297 18.3964753,24.2851485 C18.5734455,24.3012475 18.6879208,24.3118811 18.9405742,24.3218019 C18.333208,24.5868713 17.749901,24.7985346 17.1435445,24.9059406 C15.3681386,25.1307921 13.811703,24.9627921 12.2219406,24.2218218 C11.2454257,23.7667129 10.2996238,23.2704356 9.21784158,23.1039802 C7.84746534,22.8930891 6.46758416,23.0544356 5.17823762,23.5495247 C5.11372277,23.5742376 5.06720791,23.6767722 5.00215842,23.7001188 C4.74796039,23.2056238 4.59742575,22.6728118 4.42407921,22.1481387 C4.38142575,22.0191089 4.38142575,22.0191089 4.52483169,21.868693 C5.9490297,20.6261584 7.54223763,19.8033861 9.49318812,19.8983168 C10.9249307,19.968 12.1753069,20.5184555 13.2980198,21.3866733 C13.4225347,21.4830297 13.5458614,21.5808713 13.6697228,21.678" id="Shape" fill="#777885"></path>
                </g>
            </g>
        </g>
    </g>
</svg>