<?xml version="1.0" encoding="UTF-8" standalone="no"?>
<svg width="36px" height="36px" viewBox="0 0 36 36" version="1.1" xmlns="http://www.w3.org/2000/svg" xmlns:xlink="http://www.w3.org/1999/xlink">
    <!-- Generator: Sketch 39.1 (31720) - http://www.bohemiancoding.com/sketch -->
    <title>full-color-webhooks</title>
    <desc>Created with Sketch.</desc>
    <defs></defs>
    <g id="icons" stroke="none" stroke-width="1" fill="none" fill-rule="evenodd">
        <g id="full-color-webhooks">
            <path d="M16.7447077,15.3092623 C15.2584615,17.8235902 13.8345231,20.2584918 12.3809538,22.675 C12.0076615,23.2953607 11.8229538,23.800623 12.1212,24.5893115 C12.9444923,26.7678197 11.7830769,28.8878033 9.60009231,29.4632951 C7.54144615,30.0061803 5.53569231,28.6445082 5.12723077,26.4264262 C4.76529231,24.4630656 6.27923077,22.5384426 8.43009231,22.2316066 C8.61036923,22.2056885 8.79424615,22.202623 9.0972,22.1797705 C10.1511692,20.4011803 11.2308923,18.5793934 12.3690462,16.6583934 C10.3112308,14.5991639 9.0864,12.1918525 9.35750769,9.20904918 C9.54913846,7.1004918 10.3729846,5.27842623 11.8788923,3.78493443 C14.7630462,0.925032787 19.1630769,0.461852459 22.5589846,2.65708197 C25.8205846,4.76563934 27.3143077,8.87295082 26.0410154,12.3883279 C25.0809231,12.1263607 24.1141846,11.8621639 23.0513538,11.5720492 C23.4512308,9.61760656 23.1554769,7.86242623 21.8456308,6.35890164 C20.9802462,5.36621311 19.8697846,4.84590164 18.6070154,4.65416393 C16.0756615,4.26929508 13.5902769,5.90603279 12.8528308,8.40642623 C12.0156923,11.2443115 13.2826154,13.5624426 16.7447077,15.3092623 L16.7447077,15.3092623 Z" id="Shape" fill="#C73A63"></path>
            <path d="M20.9891077,12.3359344 C22.0361538,14.1947869 23.0992615,16.0817869 24.1529538,17.9515082 C29.4787385,16.2933115 33.4941231,19.2602295 34.9346769,22.4367213 C36.6745846,26.2737049 35.4852,30.8182787 32.0679692,33.185459 C28.5604615,35.615623 24.1247077,35.200377 21.0170769,32.0787869 C21.8090769,31.4116066 22.6049538,30.7413607 23.4553846,30.0254098 C26.5248,32.0261148 29.2092923,31.931918 31.2023077,29.5627869 C32.9017846,27.5417377 32.8649538,24.5282787 31.1161846,22.5495902 C29.0979692,20.2662951 26.3946462,20.196623 23.1269538,22.3885082 C21.7714154,19.968377 20.3923385,17.5674754 19.0797231,15.1297869 C18.6372,14.3082131 18.1484308,13.8316557 17.1509538,13.6577541 C15.4849846,13.367082 14.4094154,11.927377 14.3448923,10.3143279 C14.2814769,8.71911475 15.2152615,7.27718033 16.6749231,6.71534426 C18.1207385,6.15880328 19.8174462,6.60804918 20.79,7.84514754 C21.5847692,8.85595082 21.8373231,9.99355738 21.4191692,11.2401311 C21.3028615,11.5876557 21.1522154,11.9240328 20.9891077,12.3359344 L20.9891077,12.3359344 Z" id="Shape" fill="#4B4B4B"></path>
            <path d="M23.4916615,27.5322623 L17.0803385,27.5322623 C16.4658462,30.0758525 15.1385538,32.1295082 12.8514462,33.4354426 C11.0736,34.4504262 9.15729231,34.7946066 7.11775385,34.4632459 C3.36267692,33.8537541 0.292153846,30.4518033 0.0218769231,26.6209508 C-0.284123077,22.2814918 2.67978462,18.4241639 6.63036923,17.5577213 C6.90313846,18.5545902 7.17867692,19.5609344 7.45144615,20.5552951 C3.8268,22.416377 2.57233846,24.7612623 3.58670769,27.6933443 C4.47978462,30.2737213 7.0164,31.6880656 9.77067692,31.141 C12.5833846,30.5825082 14.0015077,28.2300984 13.8284308,24.4547049 C16.4949231,24.4547049 19.1636308,24.4268361 21.8304,24.4683607 C22.8716308,24.4848033 23.6755385,24.3761148 24.4600615,23.4522623 C25.7516308,21.9320164 28.1287385,22.0691311 29.5197231,23.5049344 C30.9411692,24.9722295 30.8730462,27.3332787 29.3688,28.7387049 C27.9174462,30.0948033 25.6245231,30.0223443 24.2667692,28.5611803 C23.9876308,28.259918 23.7677538,27.9023607 23.4916615,27.5322623 L23.4916615,27.5322623 Z" id="Shape" fill="#4B4B4B"></path>
        </g>
    </g>
</svg>