<?xml version="1.0" encoding="UTF-8" standalone="no"?>
<svg width="36px" height="36px" viewBox="0 0 36 36" version="1.1" xmlns="http://www.w3.org/2000/svg" xmlns:xlink="http://www.w3.org/1999/xlink">
    <!-- Generator: Sketch 39.1 (31720) - http://www.bohemiancoding.com/sketch -->
    <title>full-color-appveyor</title>
    <desc>Created with Sketch.</desc>
    <defs></defs>
    <g id="icons" stroke="none" stroke-width="1" fill="none" fill-rule="evenodd">
        <g id="full-color-appveyor" fill="#00B3FF">
            <path d="M4.72999236,30.1618546 C8.02052139,33.7502739 12.7475349,36 18,36 C27.9411255,36 36,27.9411255 36,18 C36,8.0588745 27.9411255,0 18,0 C12.7619852,0 8.04653484,2.2373644 4.75718321,5.80855894 L18.9435047,9.04886349 C23.4706218,9.52048564 27,13.3480776 27,18 C27,22.6325537 23.4999505,26.4476269 19,26.9450712 L19,26.9553223 L4.72999236,30.1618546 Z M1.8710393,26 C0.673412206,23.5900821 0,20.873683 0,18 C0,15.1263171 0.673412202,12.409918 1.87103929,10 L13.8727979,10 C10.978441,11.496227 9,14.5170687 9,18 C9,21.4829314 10.978441,24.5037731 13.8727979,26 L1.8710393,26 Z M18,24 C21.3137085,24 24,21.3137085 24,18 C24,14.6862915 21.3137085,12 18,12 C14.6862915,12 12,14.6862915 12,18 C12,21.3137085 14.6862915,24 18,24 Z" id="Combined-Shape" transform="translate(18.000000, 18.000000) rotate(-45.000000) translate(-18.000000, -18.000000) "></path>
            <path d="M18,36 C27.9411255,36 36,27.9411255 36,18 C36,8.0588745 27.9411255,0 18,0 C8.0588745,0 0,8.0588745 0,18 C0,27.9411255 8.0588745,36 18,36 Z M18,34 C26.836556,34 34,26.836556 34,18 C34,9.163444 26.836556,2 18,2 C9.163444,2 2,9.163444 2,18 C2,26.836556 9.163444,34 18,34 Z" id="Combined-Shape"></path>
        </g>
    </g>
</svg>