<?xml version="1.0" encoding="UTF-8" standalone="no"?>
<svg width="36px" height="36px" viewBox="0 0 36 36" version="1.1" xmlns="http://www.w3.org/2000/svg" xmlns:xlink="http://www.w3.org/1999/xlink">
    <!-- Generator: Sketch 39.1 (31720) - http://www.bohemiancoding.com/sketch -->
    <title>full-color-rails</title>
    <desc>Created with Sketch.</desc>
    <defs></defs>
    <g id="icons" stroke="none" stroke-width="1" fill="none" fill-rule="evenodd">
        <g id="full-color-rails" fill="#CC0000">
            <path d="M20.6059764,15.301756 C20.6059764,15.301756 20.6059764,15.301756 20.6059764,15.301756 C20.6164582,15.2911077 20.6168408,15.2914953 20.6171526,15.2918116 Z M31.3272727,21.2821429 L31.3272727,22.9628571 L34.3,22.9628571 C34.9090909,22.9628571 35.9545455,22.5078571 35.9909091,21.2357143 L35.9909091,20.5857143 C35.9909091,19.4992857 35.1181818,18.8585714 34.3,18.8585714 L32.8181818,18.8585714 L32.8181818,18.0785714 L35.7545455,18.0785714 L35.7545455,16.3885714 L32.9363636,16.3885714 C32.2090909,16.3885714 31.2363636,17.0014286 31.2363636,18.1435714 L31.2363636,18.7285714 C31.2363636,19.8707143 32.2,20.4557143 32.9363636,20.4557143 C34.9818182,20.465 32.4454545,20.4557143 34.3363636,20.4557143 L34.3363636,21.2728571 L31.3272727,21.2821429 Z M15.4,20.8735714 C15.4,20.8735714 16.9909091,20.7342857 16.9909091,18.6357143 C16.9909091,16.5371429 15.0636364,16.3421429 15.0636364,16.3421429 L11.5909091,16.3421429 L11.5909091,22.9628571 L13.3363636,22.9628571 L13.3363636,21.3657143 L14.8454545,22.9628571 L17.4272727,22.9628571 L15.4,20.8735714 Z M14.7272727,19.5178571 L13.3363636,19.5178571 L13.3363636,18.0042857 L14.7363636,18.0042857 C14.7363636,18.0042857 15.1272727,18.1528571 15.1272727,18.7564286 C15.1272727,19.36 14.7272727,19.5178571 14.7272727,19.5178571 Z M21.3,16.3885714 L19.5272727,16.3885714 C18.2636364,16.3885714 17.8363636,17.5585714 17.8363636,18.1157143 L17.8363636,22.9628571 L19.6090909,22.9628571 L19.6090909,21.8021429 L21.2727273,21.8021429 L21.2727273,22.9628571 L22.9909091,22.9628571 L22.9909091,18.1157143 C22.9909091,16.7042857 21.7363636,16.3885714 21.3,16.3885714 Z M21.2727273,19.9264286 L19.6,19.9264286 L19.6,18.32 C19.6,18.32 19.6,17.9578571 20.1545455,17.9578571 L20.7636364,17.9578571 C21.2545455,17.9578571 21.2636364,18.32 21.2636364,18.32 L21.2636364,19.9264286 L21.2727273,19.9264286 Z M23.8,16.3885714 L25.6454545,16.3885714 L25.6454545,22.9628571 L23.8,22.9628571 L23.8,16.3885714 Z M28.2363636,21.2635714 L28.2363636,16.3885714 L26.4,16.3885714 L26.4,21.2635714 L26.4,22.9628571 L28.2363636,22.9628571 L30.7181818,22.9628571 L30.7181818,21.2635714 L28.2363636,21.2635714 Z M0.636363636,22.9628571 L7.81818182,22.9628571 C7.81818182,22.9628571 6.44545455,16.565 10.9909091,13.9742857 C11.9818182,13.4821429 15.1363636,11.6435714 20.3,15.5435714 C20.4636364,15.4042857 20.6181818,15.2928571 20.6181818,15.2928571 C20.6181818,15.2928571 15.8909091,10.4735714 10.6272727,11.0121429 C7.97272727,11.2535714 4.71818182,13.7142857 2.80909091,16.9642857 C0.9,20.2142857 0.636363636,22.9628571 0.636363636,22.9628571 Z M15.6,11.5321429 L15.6363636,10.91 C15.5545455,10.8635714 15.3272727,10.7521429 14.7545455,10.585 L14.7181818,11.1978571 C15.0181818,11.3 15.3090909,11.4114286 15.6,11.5321429 Z M14.7363636,13.5007143 L14.7,14.0857143 C15,14.095 15.3,14.1321429 15.6,14.1971429 L15.6363636,13.6214286 C15.3272727,13.5564286 15.0272727,13.5192857 14.7363636,13.5007143 Z M11.3727273,10.6035714 L11.4636364,10.6035714 L11.2818182,10.0371429 C11,10.0371429 10.7090909,10.0557143 10.4090909,10.0928571 L10.5818182,10.6407143 C10.8454545,10.6128571 11.1090909,10.6035714 11.3727273,10.6035714 Z M11.8090909,14.0207143 L12.0181818,14.6614286 C12.2818182,14.5314286 12.5454545,14.42 12.8090909,14.3364286 L12.6090909,13.7235714 C12.3,13.8164286 12.0363636,13.9185714 11.8090909,14.0207143 Z M7.68181818,11.5785714 L7.27272727,10.9378571 C7.04545455,11.0585714 6.80909091,11.1885714 6.56363636,11.3371429 L6.98181818,11.9871429 C7.21818182,11.8385714 7.44545455,11.6992857 7.68181818,11.5785714 Z M9.54545455,15.7571429 L9.98181818,16.4257143 C10.1363636,16.1935714 10.3181818,15.98 10.5181818,15.7664286 L10.1090909,15.135 C9.9,15.33 9.70909091,15.5435714 9.54545455,15.7571429 Z M8.22727273,18.7471429 L8.96363636,19.3414286 C9,18.9792857 9.06363636,18.6171429 9.15454545,18.255 L8.5,17.7257143 C8.38181818,18.0692857 8.3,18.4128571 8.22727273,18.7471429 Z M4.24545455,14.3364286 L3.6,13.7607143 C3.36363636,13.9928571 3.13636364,14.225 2.92727273,14.4571429 L3.62727273,15.07 C3.81818182,14.8192857 4.02727273,14.5685714 4.24545455,14.3364286 Z M1.5,18.4871429 L0.454545455,18.0971429 C0.281818182,18.4964286 0.0909090909,18.9607143 0,19.2114286 L1.04545455,19.6014286 C1.16363636,19.2857143 1.35454545,18.8307143 1.5,18.4871429 Z M8.09090909,21.1057143 C8.10909091,21.5978571 8.15454545,21.9971429 8.2,22.2757143 L9.29090909,22.675 C9.20909091,22.3128571 9.12727273,21.9042857 9.07272727,21.4678571 L8.09090909,21.1057143 Z" id="Combined-Shape"></path>
        </g>
    </g>
</svg>