<?xml version="1.0" encoding="UTF-8" standalone="no"?>
<svg width="36px" height="36px" viewBox="0 0 36 36" version="1.1" xmlns="http://www.w3.org/2000/svg" xmlns:xlink="http://www.w3.org/1999/xlink">
    <!-- Generator: Sketch 39.1 (31720) - http://www.bohemiancoding.com/sketch -->
    <title>full-color-slack</title>
    <desc>Created with Sketch.</desc>
    <defs></defs>
    <g id="icons" stroke="none" stroke-width="1" fill="none" fill-rule="evenodd">
        <g id="full-color-slack">
            <path d="M23.0205011,2.29942857 C22.4925968,0.668857143 20.7474374,-0.223428571 19.1227221,0.306571429 C17.4977221,0.836285714 16.6084852,2.58742857 17.1366743,4.21771429 L25.1355353,28.9125714 C25.684795,30.4357143 27.3246014,31.2917143 28.8986333,30.8371429 C30.5404328,30.3628571 31.541287,28.6131429 31.017369,26.9951429 C30.9974374,26.9334286 23.0205011,2.29942857 23.0205011,2.29942857" id="Fill-1" fill="#DFA22F"></path>
            <path d="M10.6264237,6.34028571 C10.0982346,4.71 8.35307517,3.81771429 6.72835991,4.34742857 C5.10335991,4.87714286 4.21412301,6.62828571 4.74231207,8.25885714 L12.7411731,32.9537143 C13.2904328,34.4768571 14.9302392,35.3328571 16.5042711,34.878 C18.1460706,34.404 19.1469248,32.6542857 18.6230068,31.036 C18.6030752,30.9745714 10.6264237,6.34028571 10.6264237,6.34028571" id="Fill-3" fill="#3CB187"></path>
            <path d="M33.0888383,22.7517143 C34.7138383,22.222 35.6027904,20.4708571 35.0748861,18.8402857 C34.5469818,17.21 32.8018223,16.3177143 31.1771071,16.8474286 L6.5666287,24.874 C5.04869021,25.4248571 4.19561503,27.0702857 4.64863326,28.6497143 C5.12129841,30.2971429 6.86503417,31.3014286 8.47750569,30.7757143 C8.53900911,30.7557143 33.0888383,22.7517143 33.0888383,22.7517143" id="Fill-5" fill="#CE1E5B"></path>
            <path d="M11.6958998,29.7265714 C13.297836,29.2042857 15.3624715,28.5311429 17.5780182,27.8088571 C17.0575171,26.2014286 16.3866743,24.1294286 15.6665718,21.906 L9.78416856,23.8245714 L11.6958998,29.7265714" id="Fill-6" fill="#392538"></path>
            <path d="M24.090262,25.6854286 C26.3140661,24.9605714 28.3809795,24.2865714 29.9723804,23.7677143 C29.4518793,22.1602857 28.7807517,20.0877143 28.0606492,17.8637143 L22.178246,19.7822857 L24.090262,25.6854286" id="Fill-7" fill="#BB242A"></path>
            <path d="M29.0617882,10.3148571 C30.6865034,9.78514286 31.5757403,8.034 31.047836,6.40342857 C30.5199317,4.77314286 28.7747722,3.88085714 27.1497722,4.41057143 L2.53929385,12.4371429 C1.02135535,12.988 0.168280182,14.6334286 0.621583144,16.2128571 C1.09396355,17.8602857 2.83769932,18.8645714 4.45045558,18.3388571 C4.51167426,18.3188571 29.0617882,10.3148571 29.0617882,10.3148571" id="Fill-9" fill="#72C5CD"></path>
            <path d="M7.66771071,17.29 C9.26964692,16.7677143 11.3348519,16.0942857 13.5506834,15.372 C12.828303,13.1402857 12.1566059,11.0662857 11.6395216,9.46914286 L5.75569476,11.388 L7.66771071,17.29" id="Fill-11" fill="#238C73"></path>
            <path d="M20.0617882,13.2491429 C22.2861617,12.524 24.3533599,11.85 25.9450456,11.3308571 C25.2223804,9.09885714 24.5506834,7.02428571 24.0333144,5.42685714 L18.1497722,7.34571429 L20.0617882,13.2491429" id="Fill-12" fill="#62803A"></path>
        </g>
    </g>
</svg>