<?xml version="1.0" encoding="UTF-8" standalone="no"?>
<svg width="36px" height="36px" viewBox="0 0 36 36" version="1.1" xmlns="http://www.w3.org/2000/svg" xmlns:xlink="http://www.w3.org/1999/xlink">
    <!-- Generator: Sketch 39.1 (31720) - http://www.bohemiancoding.com/sketch -->
    <title>full-color-terminal-alt</title>
    <desc>Created with Sketch.</desc>
    <defs>
        <circle id="path-1" cx="18" cy="18" r="18"></circle>
        <path d="M8,10.4808336 C8,8.55842227 9.55842995,7 11.4845416,7 L40.5154584,7 C42.4399176,7 44,8.55853955 44,10.4808336 L44,34.5191664 C44,36.4415777 42.4415701,38 40.5154584,38 L11.4845416,38 C9.56008242,38 8,36.4414605 8,34.5191664 L8,10.4808336 Z M10,13 L42,13 L42,34.8436642 C42,35.4822908 41.4712787,36 40.8421982,36 L11.1578018,36 C10.5183655,36 10,35.4763986 10,34.8436642 L10,13 Z M13.1998881,14.9999999 L14.6545078,16.4546195 L13.9212119,17.1879154 L12.4665922,15.7332958 L13.1998881,14.9999999 Z M14.6545078,16.4546195 L15.3818176,17.1819294 L13.1819299,19.3818171 L12.45462,18.6545073 L14.6545078,16.4546195 Z" id="path-3"></path>
    </defs>
    <g id="icons" stroke="none" stroke-width="1" fill="none" fill-rule="evenodd">
        <g id="full-color-terminal-alt">
            <mask id="mask-2" fill="white">
                <use xlink:href="#path-1"></use>
            </mask>
            <g id="Mask"></g>
            <g id="Group-2" mask="url(#mask-2)">
                <circle id="Mask" fill="#DCDCDC" cx="18" cy="18" r="18"></circle>
                <rect id="Rectangle-57" fill="#353535" x="9" y="12" width="27" height="24"></rect>
                <mask id="mask-4" fill="white">
                    <use xlink:href="#path-3"></use>
                </mask>
                <use id="Combined-Shape" fill="#FFFFFF" xlink:href="#path-3"></use>
                <path d="M18,10 C18,9.44771525 18.4438648,9 19,9 C19.5522847,9 20,9.44386482 20,10 C20,10.5522848 19.5561352,11 19,11 C18.4477153,11 18,10.5561352 18,10 L18,10 Z" id="terminal-wrapper-path" fill="#2BA53C"></path>
                <path d="M18.1000004,10.0000004 C18.1000004,9.5029441 18.4994787,9.10000038 19.0000004,9.10000038 C19.4970566,9.10000038 19.9000003,9.49947871 19.9000003,10.0000004 C19.9000003,10.4970566 19.500522,10.9000003 19.0000004,10.9000003 C18.5029441,10.9000003 18.1000004,10.500522 18.1000004,10.0000004 L18.1000004,10.0000004 Z" id="terminal-wrapper-path-copy-3" fill="#36CF4C"></path>
                <path d="M14,10 C14,9.44771525 14.4438648,9 15,9 C15.5522848,9 16,9.44386482 16,10 C16,10.5522848 15.5561352,11 15,11 C14.4477152,11 14,10.5561352 14,10 L14,10 Z" id="terminal-wrapper-path" fill="#CA9633"></path>
                <path d="M14.1000004,10.0000004 C14.1000004,9.5029441 14.4994787,9.10000038 15.0000004,9.10000038 C15.4970566,9.10000038 15.9000003,9.49947871 15.9000003,10.0000004 C15.9000003,10.4970566 15.500522,10.9000003 15.0000004,10.9000003 C14.5029441,10.9000003 14.1000004,10.500522 14.1000004,10.0000004 L14.1000004,10.0000004 Z" id="terminal-wrapper-path-copy-2" fill="#FDBC40"></path>
                <path d="M10,10 C10,9.44771525 10.4438648,9 11,9 C11.5522848,9 12,9.44386482 12,10 C12,10.5522848 11.5561352,11 11,11 C10.4477152,11 10,10.5561352 10,10 L10,10 Z" id="terminal-wrapper-path" fill="#C94E4A"></path>
                <path d="M10.1000004,10.0000004 C10.1000004,9.5029441 10.4994787,9.10000038 11.0000004,9.10000038 C11.4970566,9.10000038 11.9000003,9.49947871 11.9000003,10.0000004 C11.9000003,10.4970566 11.500522,10.9000003 11.0000004,10.9000003 C10.5029441,10.9000003 10.1000004,10.500522 10.1000004,10.0000004 L10.1000004,10.0000004 Z" id="terminal-wrapper-path-copy" fill="#FC625D"></path>
            </g>
        </g>
    </g>
</svg>