<?xml version="1.0" encoding="UTF-8" standalone="no"?>
<svg width="36px" height="36px" viewBox="0 0 36 36" version="1.1" xmlns="http://www.w3.org/2000/svg" xmlns:xlink="http://www.w3.org/1999/xlink">
    <!-- Generator: Sketch 39.1 (31720) - http://www.bohemiancoding.com/sketch -->
    <title>full-color-semaphore</title>
    <desc>Created with Sketch.</desc>
    <defs></defs>
    <g id="icons" stroke="none" stroke-width="1" fill="none" fill-rule="evenodd">
        <g id="full-color-semaphore">
            <g id="semaphore-seeklogo.com" transform="translate(4.000000, 0.000000)">
                <g id="Group">
                    <g transform="translate(0.000000, 30.361446)" id="Shape" fill="#4A4A4A">
                        <path d="M1.1065902,4.38130489 C0.789296673,4.38130489 0.334313906,4.30355747 0.0469912926,4.20778327 L0.184680536,3.56722416 C0.42422664,3.63899952 0.741298977,3.69883073 1.06456457,3.69883073 C1.32213745,3.69883073 1.36405249,3.62705539 1.36405249,3.45331257 C1.36405249,3.26795742 1.35796984,3.24395857 0.891042942,3.13015758 C0.184680536,2.95663595 0.118877243,2.76508754 0.118877243,2.22019204 C0.118877243,1.60352118 0.358312754,1.34628007 1.23233531,1.34628007 C1.45374404,1.34628007 1.86083971,1.37614039 2.118302,1.44205428 L2.04044399,2.11247371 C1.78309229,2.06458661 1.46579876,2.02864363 1.23819678,2.02864363 C0.986817146,2.02864363 0.926875323,2.09444693 0.926875323,2.22616411 C0.926875323,2.40587898 0.950984765,2.42976724 1.29802801,2.50762525 C2.13035672,2.693091 2.19018795,2.87280588 2.19018795,3.45331257 C2.19018795,4.05206723 1.93869772,4.38130489 1.1065902,4.38130489"></path>
                        <path d="M4.25580309,2.39374684 C4.25580309,2.1903649 4.19608245,2.02270475 3.89659452,2.02270475 C3.59743837,2.02270475 3.50155358,2.1903649 3.50155358,2.39374684 L3.50155358,2.51960256 L4.25580309,2.51960256 L4.25580309,2.39374684 L4.25580309,2.39374684 L4.25580309,2.39374684 Z M3.50155358,3.16602313 L3.50155358,3.2499638 C3.50155358,3.58506293 3.63327076,3.67497566 4.02842229,3.67497566 C4.29771813,3.67497566 4.65692668,3.62697797 4.91438898,3.54911995 L5.0401341,4.19565113 C4.77681033,4.29153593 4.35157728,4.38133807 3.94470281,4.38133807 C2.9987943,4.38133807 2.63969632,3.91430058 2.63969632,3.19610465 L2.63969632,2.51363049 C2.63969632,1.88479431 2.92093628,1.34620266 3.89062246,1.34620266 C4.86052982,1.34620266 5.06999441,1.92084789 5.06999441,2.55554553 L5.06999441,3.16602313 L3.50155358,3.16602313 L3.50155358,3.16602313 L3.50155358,3.16602313 Z"></path>
                        <path d="M7.39919873,4.32147366 L7.39919873,2.39371367 C7.39919873,2.26199649 7.3393675,2.18447025 7.18973413,2.18447025 C7.0341287,2.18447025 6.74669549,2.2919674 6.56111915,2.39371367 L6.56111915,4.32147366 L5.6991513,4.32147366 L5.6991513,1.40622189 L6.33971042,1.40622189 L6.42940197,1.62763062 C6.78861053,1.45377722 7.25564802,1.34628007 7.59085774,1.34628007 C7.84832003,1.34628007 8.02195225,1.44791575 8.12358793,1.62763062 C8.45293617,1.46583194 8.88989216,1.34628007 9.29101576,1.34628007 C9.78791356,1.34628007 9.96154577,1.71743276 9.96154577,2.28002327 L9.96154577,4.32147366 L9.09946735,4.32147366 L9.09946735,2.39371367 C9.09946735,2.26199649 9.03963612,2.18447025 8.88989216,2.18447025 C8.73417612,2.18447025 8.44696411,2.2919674 8.26138776,2.39371367 L8.26138776,4.32147366 L7.39919873,4.32147366 L7.39919873,4.32147366 L7.39919873,4.32147366 Z"></path>
                        <path d="M12.1174165,3.27396266 L11.7044593,3.27396266 C11.5186618,3.27396266 11.4469971,3.32184976 11.4469971,3.48331666 C11.4469971,3.64500475 11.5128003,3.71091863 11.6804605,3.71091863 C11.8599542,3.71091863 11.9856993,3.668893 12.1174165,3.60906177 L12.1174165,3.27396266 L12.1174165,3.27396266 L12.1174165,3.27396266 Z M12.2729114,4.32150684 L12.2130801,4.1358199 C11.8778704,4.32150684 11.5784931,4.38133807 11.3810832,4.38133807 C10.8421597,4.38133807 10.620751,3.99215859 10.620751,3.49526079 C10.620751,2.90867143 10.8900468,2.67509739 11.4888014,2.67509739 L12.1174165,2.67509739 L12.1174165,2.45368867 C12.1174165,2.15442193 12.0636679,2.05256507 11.6024919,2.05256507 C11.3452508,2.05256507 11.0876778,2.08264657 10.8122994,2.13650574 L10.6984984,1.48975338 C10.9738769,1.40614448 11.4108329,1.34620266 11.7463744,1.34620266 C12.757865,1.34620266 12.9794949,1.65144147 12.9794949,2.45977133 L12.9794949,4.32150684 L12.2729114,4.32150684 L12.2729114,4.32150684 L12.2729114,4.32150684 Z"></path>
                        <path d="M14.5602007,3.56125209 C14.7100552,3.59708448 14.9314639,3.63302745 15.1109576,3.63302745 C15.338449,3.63302745 15.422279,3.49522761 15.422279,3.30390039 L15.422279,2.42379517 C15.422279,2.22019204 15.338449,2.09444693 15.1109576,2.09444693 C14.9135477,2.09444693 14.6861669,2.21410939 14.5602007,2.32193831 L14.5602007,3.56125209 L14.5602007,3.56125209 L14.5602007,3.56125209 Z M16.2843574,3.30390039 C16.2843574,3.99212541 15.9849801,4.38130489 15.3026166,4.38130489 C15.0630704,4.38130489 14.7576104,4.34536191 14.5602007,4.29747481 L14.5602007,5.50084562 L13.6981222,5.62061867 L13.6981222,1.40622189 L14.3746242,1.40622189 L14.464537,1.63946416 C14.6680295,1.50785757 15.0451543,1.34628007 15.3624479,1.34628007 C15.9551199,1.34628007 16.2843574,1.7114607 16.2843574,2.42379517 L16.2843574,3.30390039 L16.2843574,3.30390039 L16.2843574,3.30390039 Z"></path>
                        <path d="M18.6135065,4.32147366 L18.6135065,2.39371367 C18.6135065,2.26199649 18.5536752,2.18447025 18.4039313,2.18447025 C18.2484364,2.18447025 17.9612244,2.30402212 17.7754269,2.39979633 L17.7754269,4.32147366 L16.9133485,4.32147366 L16.9133485,0.214795219 L17.7634828,0.094911573 L17.7634828,1.61546531 C18.1167193,1.45377722 18.4698452,1.34628007 18.8050549,1.34628007 C19.3019527,1.34628007 19.4758061,1.71743276 19.4758061,2.28002327 L19.4758061,4.32147366 L18.6135065,4.32147366 L18.6135065,4.32147366 L18.6135065,4.32147366 Z"></path>
                        <path d="M21.8468592,3.2258986 L21.8468592,2.50162 C21.8468592,2.22613093 21.7031978,2.07052549 21.3919869,2.07052549 C21.0806655,2.07052549 20.936783,2.22613093 20.936783,2.50162 L20.936783,3.2258986 C20.936783,3.50127709 21.0806655,3.65699312 21.3919869,3.65699312 C21.7031978,3.65699312 21.8468592,3.50127709 21.8468592,3.2258986 M20.0750363,3.20201035 L20.0750363,2.52561885 C20.0750363,1.92675359 20.3561657,1.34624689 21.3919869,1.34624689 C22.4276976,1.34624689 22.7089376,1.92675359 22.7089376,2.52561885 L22.7089376,3.20201035 C22.7089376,3.80054383 22.4276976,4.38127172 21.3919869,4.38127172 C20.3561657,4.38127172 20.0750363,3.80054383 20.0750363,3.20201035"></path>
                        <path d="M24.1999959,2.5435461 L24.1999959,4.32145155 L23.3379175,4.32145155 L23.3379175,1.40619978 L24.0563347,1.40619978 L24.1161659,1.68743973 C24.2954383,1.56766668 24.6670334,1.39414505 24.9002757,1.34625795 L24.9721616,2.16033869 C24.7146993,2.26197437 24.3855723,2.41182892 24.1999959,2.5435461"></path>
                        <path d="M26.8702382,2.39374684 C26.8702382,2.1903649 26.810407,2.02270475 26.5110297,2.02270475 C26.2118736,2.02270475 26.1159888,2.1903649 26.1159888,2.39374684 L26.1159888,2.51960256 L26.8702382,2.51960256 L26.8702382,2.39374684 L26.8702382,2.39374684 L26.8702382,2.39374684 Z M26.1159888,3.16602313 L26.1159888,3.2499638 C26.1159888,3.58506293 26.2477059,3.67497566 26.6425256,3.67497566 C26.9119321,3.67497566 27.2713618,3.62697797 27.5288242,3.54911995 L27.654348,4.19565113 C27.3912455,4.29153593 26.966123,4.38133807 26.5588062,4.38133807 C25.6128977,4.38133807 25.2539103,3.91430058 25.2539103,3.19610465 L25.2539103,2.51363049 C25.2539103,1.88479431 25.5351502,1.34620266 26.5049471,1.34620266 C27.4750756,1.34620266 27.6845402,1.92084789 27.6845402,2.55554553 L27.6845402,3.16602313 L26.1159888,3.16602313 L26.1159888,3.16602313 L26.1159888,3.16602313 Z"></path>
                    </g>
                    <g transform="translate(0.108434, 0.000000)" id="Shape">
                        <path d="M17.6543723,12.2095907 C18.505046,14.3601115 17.4512084,16.7928491 15.3006877,17.6433215 C14.1044341,18.1160297 12.8220874,17.9981545 11.7722728,17.4325138 L6.9106196,22.2939658 C6.88406747,22.5096013 6.80038806,23.0877133 6.80038806,23.0877133 L6.28081132,25.845111 C6.88346401,26.3761534 7.34651692,26.7257563 8.12356878,27.0622843 C8.95573641,27.4225484 9.58433777,27.531573 10.4408448,27.5945337 L12.0452366,25.281683 L11.95854,25.2454756 C13.1185861,25.4285242 14.3156442,25.4357657 15.5104897,25.2533204 L15.4366667,25.2836945 L17.0187307,27.6011717 C17.8197196,27.5504813 18.3950156,27.4700203 19.1823262,27.1586364 C20.0253561,26.8253268 20.5471455,26.4572178 21.1972702,25.8964048 L20.6959984,23.1267369 L20.6068878,23.1631455 C21.5854944,22.4528762 22.4297311,21.6015992 23.127529,20.652562 L23.0953446,20.7302068 L25.8529433,21.2499847 C26.3839858,20.6471309 26.7333876,20.1840779 27.0701167,19.4076295 C27.4303808,18.5752608 27.5392042,17.9462571 27.6023661,17.0899512 L25.2895153,15.485157 L25.2541126,15.5694399 C25.4371613,14.4184457 25.4478223,13.2320486 25.2722162,12.0470596 L25.2915269,12.0947327 L27.6086018,10.5118642 C27.5579114,9.71087523 27.4774504,9.13618271 27.1666699,8.34887208 C26.8327568,7.50503761 26.4650502,6.98385165 25.9040361,6.33352582 L23.1345693,6.83459654 C23.1345693,6.83459654 22.4552775,6.94362116 22.2346133,6.97017329 L17.4429612,11.7614232 C17.5208071,11.9054483 17.5926186,12.0536976 17.6543723,12.2095907" fill="#8EB43F"></path>
                        <path d="M15.418905,9.97414353 C13.2683842,9.12346988 10.8356467,10.1773075 9.98537538,12.3280293 C9.51246601,13.5238806 9.62993903,14.8062274 10.195982,15.8560419 L5.33432876,20.7176951 C5.11869334,20.7444484 4.54058125,20.8281278 4.54058125,20.8281278 L1.78298251,21.3475034 C1.25234238,20.7450518 0.90233714,20.2817978 0.566412572,19.5051483 C0.205947407,18.6727795 0.0973250913,18.0441781 0.0337609214,17.1872688 L2.34681278,15.5834804 L2.38322137,15.670177 C2.20017266,14.5099298 2.19273002,13.3128717 2.37517527,12.1180261 L2.34480126,12.1920503 L0.0271228912,10.6095841 C0.0780144582,9.80859508 0.158475432,9.23350026 0.470060555,8.44639079 C0.802967837,7.60295862 1.17107679,7.08137035 1.73209093,6.43104452 L4.50155767,6.93251755 L4.46494793,7.02162808 C5.17582064,6.04322263 6.02689659,5.1987847 6.97593379,4.50078575 L6.8980878,4.53297014 L6.3783099,1.7753714 C6.98136491,1.24453012 7.44461896,0.895128339 8.22106736,0.558801466 C9.05323499,0.19813515 9.6820375,0.0893116815 10.5385446,0.0259486642 L12.1435398,2.33920168 L12.0590559,2.3746045 C13.2098489,2.19135463 14.396246,2.1804924 15.5816373,2.35650078 L15.5335618,2.336989 L17.1164304,0.0197129387 C17.9176205,0.070604505 18.4927153,0.151065479 19.2796237,0.462248297 C20.123257,0.795557883 20.6448453,1.16366684 21.2947688,1.72407753 L20.7938992,4.49414772 C20.7938992,4.49414772 20.6850757,5.17323834 20.6579201,5.39390257 L15.8668714,10.1853536 C15.7230475,10.1079099 15.5747981,10.0356962 15.418905,9.97414353" fill="#BF1919"></path>
                    </g>
                </g>
            </g>
        </g>
    </g>
</svg>