<?xml version="1.0" encoding="UTF-8" standalone="no"?>
<svg width="36px" height="36px" viewBox="0 0 36 36" version="1.1" xmlns="http://www.w3.org/2000/svg" xmlns:xlink="http://www.w3.org/1999/xlink">
    <!-- Generator: Sketch 39.1 (31720) - http://www.bohemiancoding.com/sketch -->
    <title>git</title>
    <desc>Created with Sketch.</desc>
    <defs></defs>
    <g id="icons" stroke="none" stroke-width="1" fill="none" fill-rule="evenodd">
        <g id="git" fill="#48639C">
            <path d="M17.0592933,13.9080474 L22.1670692,19.0158232 C22.0570828,19.3267774 21.9972325,19.6614246 21.9972325,20.0100507 C21.9972325,21.656286 23.3317699,22.9908234 24.9780052,22.9908234 C26.6242405,22.9908234 27.9587779,21.656286 27.9587779,20.0100507 C27.9587779,18.3638154 26.6242405,17.029278 24.9780052,17.029278 C24.4095073,17.029278 23.8781807,17.1884272 23.4261483,17.4646029 L18.5811349,12.6195894 C18.8573105,12.167557 19.0164598,11.6362304 19.0164598,11.0677325 C19.0164598,9.4214972 17.6819224,8.08695979 16.035687,8.08695979 C15.4671891,8.08695979 14.9358625,8.24610907 14.4838301,8.52228471 L11.158874,5.19732851 L15.1959609,1.16024152 C16.744589,-0.388386484 19.2586905,-0.385106995 20.8040391,1.16024152 L34.8397585,15.1959609 C36.3883865,16.744589 36.385107,19.2586905 34.8397585,20.8040391 L20.8040391,34.8397585 C19.255411,36.3883865 16.7413095,36.385107 15.1959609,34.8397585 L1.16024152,20.8040391 C-0.388386484,19.255411 -0.385106995,16.7413095 1.16024152,15.1959609 L9.75372422,6.60247825 L13.224751,10.0735051 C13.1147647,10.3844592 13.0549143,10.7191065 13.0549143,11.0677325 C13.0549143,12.3767685 13.8987349,13.4887197 15.0721115,13.8893215 L15.0721115,23.1500071 C13.8987349,23.550609 13.0549143,24.6625601 13.0549143,25.9715961 C13.0549143,27.6178314 14.3894517,28.9523688 16.035687,28.9523688 C17.6819224,28.9523688 19.0164598,27.6178314 19.0164598,25.9715961 C19.0164598,24.6849928 18.2013122,23.5887774 17.0592933,23.1712263 L17.0592933,13.9080474 Z"></path>
        </g>
    </g>
</svg>