<?xml version="1.0" encoding="UTF-8" standalone="no"?>
<svg width="36px" height="36px" viewBox="0 0 36 36" version="1.1" xmlns="http://www.w3.org/2000/svg" xmlns:xlink="http://www.w3.org/1999/xlink">
    <!-- Generator: Sketch 39.1 (31720) - http://www.bohemiancoding.com/sketch -->
    <title>github</title>
    <desc>Created with Sketch.</desc>
    <defs></defs>
    <g id="icons" stroke="none" stroke-width="1" fill="none" fill-rule="evenodd">
        <g id="github" fill="#48639C">
            <path d="M17.9983425,0 C8.0599159,0 0,8.03323588 0,17.9434269 C0,25.8709188 5.15706437,32.5955733 12.3097701,34.9682032 C13.2103502,35.1334281 13.5385371,34.5793739 13.5385371,34.1035261 C13.5385371,33.6772458 13.523067,32.5493103 13.514227,31.0523725 C8.50744345,32.136248 7.45105743,28.6466976 7.45105743,28.6466976 C6.63224777,26.5736755 5.45210105,26.0218243 5.45210105,26.0218243 C3.81779674,24.9093098 5.57586175,24.9313398 5.57586175,24.9313398 C7.38254704,25.0580122 8.33285245,26.7807574 8.33285245,26.7807574 C9.93842659,29.5223897 12.5462414,28.7304115 13.5716873,28.2710862 C13.7352282,27.1123088 14.2004359,26.3214321 14.7142638,25.8731218 C10.717456,25.4204055 6.5151171,23.8805092 6.5151171,17.0049493 C6.5151171,15.0464832 7.2167961,13.4438014 8.36821265,12.190295 C8.1825716,11.7364772 7.56487308,9.91129253 8.54501366,7.44173064 C8.54501366,7.44173064 10.0555573,6.95927386 13.4943368,9.28123481 C14.92974,8.88249199 16.4701188,8.68422208 18.0005525,8.67651159 C19.5298812,8.68422208 21.069155,8.88249199 22.5067682,9.28123481 C25.9433377,6.95927386 27.4516713,7.44173064 27.4516713,7.44173064 C28.4340219,9.91129253 27.8163234,11.7364772 27.6317873,12.190295 C28.7854139,13.4438014 29.4815679,15.0464832 29.4815679,17.0049493 C29.4815679,23.8981332 25.2725989,25.414898 21.2636361,25.8588023 C21.9089598,26.4128566 22.484668,27.5077471 22.484668,29.1809248 C22.484668,31.5799908 22.4625679,33.5153254 22.4625679,34.1035261 C22.4625679,34.5837799 22.7874398,35.1422401 23.700175,34.9671017 C30.8473557,32.5889643 36,25.8687158 36,17.9434269 C36,8.03323588 27.9400841,0 17.9983425,0" id="Fill-50"></path>
        </g>
    </g>
</svg>