<?xml version="1.0" encoding="UTF-8" standalone="no"?>
<svg width="36px" height="36px" viewBox="0 0 36 36" version="1.1" xmlns="http://www.w3.org/2000/svg" xmlns:xlink="http://www.w3.org/1999/xlink">
    <!-- Generator: Sketch 39.1 (31720) - http://www.bohemiancoding.com/sketch -->
    <title>hamburger</title>
    <desc>Created with Sketch.</desc>
    <defs></defs>
    <g id="icons" stroke="none" stroke-width="1" fill="none" fill-rule="evenodd">
        <g id="hamburger" fill="#48639C">
            <g id="Group" transform="translate(6.000000, 9.000000)">
                <path d="M0,17.5 C4.8985872e-16,16.5 1,16 2,16 C2.84401174,16 21.1226807,16 22,16 C22.8773193,16 24,16.5 24,17.5 C24,18.5 22.8773193,19 22,19 L2,19 C1,19 4.89858741e-16,18.5 0,17.5 Z" id="Rectangle-58"></path>
                <path d="M0,9.5 C4.8985872e-16,8.5 1,8 2,8 C2.84401174,8 21.1226807,8 22,8 C22.8773193,8 24,8.5 24,9.5 C24,10.5 22.8773193,11 22,11 L2,11 C1,11 4.89858741e-16,10.5 0,9.5 Z" id="Rectangle-58-Copy"></path>
                <path d="M0,1.5 C4.8985872e-16,0.5 1,-3.91633392e-10 2,1.06357145e-11 C2.84401174,3.50155566e-10 21.1226807,-7.05026592e-11 22,1.06357145e-11 C22.8773193,9.17740883e-11 24,0.5 24,1.5 C24,2.5 22.8773193,3 22,3 L2,3 C1,3 4.89858741e-16,2.5 0,1.5 Z" id="Rectangle-58-Copy-2"></path>
            </g>
        </g>
    </g>
</svg>