<?xml version="1.0" encoding="UTF-8" standalone="no"?>
<svg width="36px" height="36px" viewBox="0 0 36 36" version="1.1" xmlns="http://www.w3.org/2000/svg" xmlns:xlink="http://www.w3.org/1999/xlink">
    <!-- Generator: Sketch 39.1 (31720) - http://www.bohemiancoding.com/sketch -->
    <title>harrow</title>
    <desc>Created with Sketch.</desc>
    <defs></defs>
    <g id="icons" stroke="none" stroke-width="1" fill="none" fill-rule="evenodd">
        <g id="harrow" fill="#48639C">
            <path d="M13.0565943,0.52569603 C12.2543876,0.609331664 11.6240753,0.95659868 10.87437,1.72797373 C10.5424538,2.06945913 10.4591725,2.16530039 9.8910867,2.85958734 C9.08641173,3.84295462 8.71495299,4.2185861 8.2112659,4.55819373 C7.90092302,4.76746813 7.28070619,5.0777971 6.75495227,5.28689854 C6.54405831,5.37078125 6.1452752,5.5290342 5.8663541,5.63950242 C3.98055133,6.38649094 3.26977153,7.04969558 2.93000615,8.37929217 C2.81880796,8.81441984 2.75616179,9.33795172 2.69467574,10.3460268 C2.59823815,11.9273209 2.49713542,12.4663445 2.15349477,13.2318886 C2.03471881,13.4964588 1.75369964,13.975591 1.32455609,14.6451701 C0.635744416,15.719956 0.390614739,16.1747264 0.212574223,16.7082649 C0.0847888701,17.0912345 0.0409266773,17.3096754 0.024117362,17.6471582 C0.000199261385,18.1268834 0.0871090986,18.5860516 0.300965057,19.1098553 C0.501640143,19.6013907 0.676792715,19.915327 1.24934613,20.8097465 C1.86299721,21.7684061 2.10491807,22.1968133 2.27345552,22.6232932 C2.49819681,23.1919908 2.60808678,23.8413838 2.68156891,25.0347667 C2.7279488,25.7883523 2.75712444,26.1515557 2.79543289,26.45299 C3.00306867,28.0861703 3.58618652,28.8924326 5.06908409,29.5967509 C5.22249068,29.669614 5.72565939,29.8799014 6.18723677,30.0640727 C7.16716309,30.455023 7.51880113,30.6099404 7.85582667,30.7992262 C8.54893321,31.1884964 8.97042496,31.5897251 9.9632606,32.805345 C10.4657382,33.4205672 10.8797756,33.8843558 11.1189566,34.0999554 C12.0115041,34.9044388 12.7998881,35.1646852 13.9377875,35.0304482 C14.3614513,34.9804892 14.7251842,34.9030057 15.6779589,34.6598571 C17.2404106,34.2611239 17.7736189,34.1931529 18.5881178,34.28892 C19.0343916,34.3413993 19.3952612,34.4177955 20.3924658,34.6709508 C21.7080847,35.0049251 22.2089579,35.0858429 22.7867442,35.0577008 C23.2631315,35.0345002 23.5719687,34.9539284 23.9986933,34.7415161 C24.5203498,34.4818627 25.1151676,33.9493124 25.7611538,33.1636069 C25.9439829,32.9412374 26.2330487,32.5900666 26.4018084,32.3853137 C26.8029611,31.8985716 27.410935,31.2932819 27.7061223,31.08675 C28.1644416,30.7661179 28.6860487,30.5125179 29.7104049,30.1123269 C30.6829262,29.7323716 31.0882751,29.5502263 31.4925379,29.311525 C32.5640885,28.678785 33.0432404,27.8885086 33.2256499,26.45299 C33.2639583,26.1515557 33.2930599,25.7883523 33.339267,25.0347667 C33.459598,23.0729738 33.6124863,22.6141761 34.7183467,20.8962235 C35.5072244,19.6707205 35.8010048,19.0701006 35.9461425,18.3859191 C36.0012109,18.126488 36.0076286,17.4944645 35.9578424,17.2394809 C35.9011942,16.9495358 35.722586,16.4389507 35.564539,16.1152796 C35.4013085,15.7809347 35.10348,15.2776878 34.6798901,14.6204625 C33.5900738,12.9294907 33.4554019,12.5030108 33.326333,10.3336729 C33.2656368,9.31324403 33.2022995,8.80468498 33.0761679,8.32493518 C32.7982095,7.26764239 32.245378,6.63164095 31.1074787,6.06002783 C30.7297997,5.87032195 30.5150799,5.77942225 29.4635721,5.36420899 C29.1451578,5.23849612 28.6986865,5.04342865 28.4737724,4.93177446 C27.56992,4.48313167 27.1643984,4.12462265 26.1352536,2.86452888 C25.5581091,2.15788806 25.3414145,1.91305926 24.9934296,1.5745882 C24.3081477,0.908023302 23.7024939,0.601227532 22.9175656,0.523077011 C22.3897136,0.470523689 21.7697929,0.556827758 20.6639819,0.83681565 C18.9386204,1.27364815 18.7848436,1.30053015 18.010529,1.30053015 C17.2331538,1.30053015 17.0824376,1.27416702 15.3694178,0.838569899 C14.2463285,0.552973353 13.6145598,0.467509347 13.0565943,0.52569603 L13.0565943,0.52569603 L13.0565943,0.52569603 Z M15.5866307,7.59447612 C16.5838353,8.14214746 16.7139162,8.22069331 16.7470165,8.29528591 C16.7601233,8.32478694 16.7639986,9.46149032 16.7566183,11.1169077 C16.7456589,13.5802674 16.7485468,13.8955874 16.7825358,13.9471771 C16.803714,13.9793218 16.9442112,14.0708639 17.0972476,14.1522511 C17.2490744,14.232996 17.8093603,14.5498972 18.3400509,14.8551858 L19.3064014,15.4111095 L19.3224455,14.45245 C19.3312574,13.9261755 19.3423896,13.4898865 19.3471288,13.4851427 C19.351868,13.4803988 20.0641781,13.0584898 20.928093,12.5487201 L22.5004181,11.6209451 L24.5886238,12.7945619 L24.5947947,19.6620729 C24.600842,26.3850437 24.6000028,26.5311899 24.5545609,26.6061778 C24.4790547,26.7308282 24.0974265,26.9691589 22.6386445,27.802748 C22.2980152,27.9973707 21.9259147,28.218999 21.808052,28.2974213 C21.6772306,28.3844666 21.5486554,28.4490526 21.4760619,28.4641984 C21.3703187,28.4862624 21.341538,28.4815927 21.2082483,28.4209599 C21.1267934,28.3838983 21.0084371,28.3144202 20.9478397,28.268118 C20.7358102,28.1060353 20.5232872,27.971057 20.1999362,27.7931367 C19.3409579,27.3204781 19.3358238,27.3169942 19.3024767,27.1818677 C19.2910484,27.1356395 19.2878396,25.8698877 19.2952938,24.3676583 C19.3077343,21.8647662 19.305488,21.6323159 19.2681423,21.5756858 C19.2450881,21.5407244 19.0891885,21.4404358 18.9090005,21.3446686 C18.7341441,21.2517182 18.1771412,20.937016 17.6736023,20.6466756 C17.1700632,20.3563352 16.7499538,20.1179303 16.7418083,20.1179303 C16.7336629,20.1179303 16.7269983,20.5466093 16.7269983,21.0704129 C16.7269983,21.7004599 16.718063,22.0396227 16.7006366,22.072311 C16.6662281,22.1367488 16.3913057,22.3104934 16.1592829,22.4143895 C16.0569213,22.4602223 15.7865653,22.6104946 15.5545424,22.750538 C15.3242474,22.8895436 14.8954988,23.1425754 14.6042361,23.3114033 C14.3129733,23.4802311 14.0084063,23.6608198 13.9291483,23.7116683 C13.8501618,23.7623439 13.7389143,23.8252497 13.6835497,23.850501 C13.4809739,23.942982 13.4589318,23.9348779 12.7233699,23.4979465 C12.3531207,23.2780231 11.9216322,23.0230888 11.7656586,22.9321397 C11.6052173,22.8385716 11.4682991,22.7408278 11.4507493,22.7072995 C11.4027896,22.6156832 11.4191053,9.01428057 11.4673117,8.92039123 C11.4936982,8.86894979 11.7903419,8.6927343 12.7628632,8.15074575 C13.4564634,7.76419346 14.163047,7.36941349 14.33272,7.27362166 C14.5030346,7.17745921 14.6501223,7.09888866 14.6610076,7.09819684 C14.6718683,7.09750502 15.0880284,7.32064045 15.5866307,7.59447612 L15.5866307,7.59447612 L15.5866307,7.59447612 Z" id="path-1"></path>
            <path d="M11.7409753,15.9250301 L11.7409753,22.6059977 L12.0433455,22.7628918 C12.2089703,22.8488252 12.5678652,23.0460423 12.836913,23.1989831 C13.1059608,23.3519238 13.3387242,23.4781803 13.3515595,23.4781803 C13.3666656,23.4781803 13.3723675,22.5207562 13.3676036,20.7912157 C13.3606676,18.2759697 13.3629631,18.0991118 13.4033944,18.023951 C13.4391851,17.9574131 13.4614001,17.9436509 13.5329816,17.9436509 C13.6508936,17.9436509 13.7427895,17.9863458 14.0537989,18.1855395 C14.2001213,18.2792558 14.5598061,18.4939412 14.8510689,18.6614101 C15.1434424,18.8295214 15.9692216,19.3071711 16.6899734,19.7250775 C17.4107253,20.1429839 18.3251668,20.6687642 18.7263442,20.895927 C19.4470961,21.3040738 19.5449653,21.3680174 19.5965286,21.464501 C19.6273581,21.5221441 19.6234581,24.5579077 19.5907034,26.018134 C19.5774978,26.6061778 19.5790529,26.9487256 19.5951957,27.0076782 C19.6087222,27.0570937 19.6555957,27.1311427 19.6988655,27.1714905 C19.7602529,27.2287135 21.1625842,28.0306026 21.2711907,28.0705797 C21.2844208,28.0754471 21.2934056,25.3930286 21.2934056,21.432381 C21.2934056,16.1449288 21.2870866,14.7809638 21.2625515,14.7612964 C21.24552,14.7476577 20.9108147,14.5516267 20.5158822,14.3239698 C20.1209497,14.0963128 19.7635604,13.889188 19.7186122,13.8619354 L19.6371573,13.8125199 L19.6408598,16.4525399 C19.6429085,17.9053539 19.6371573,19.1314498 19.6280739,19.1790369 C19.6012185,19.3198709 19.5548139,19.3637518 19.4347544,19.361874 C19.3069937,19.3598727 19.1903899,19.3013648 18.8250773,19.055943 C18.6685606,18.9508117 18.3363483,18.7488508 18.0845789,18.6058177 C17.8328341,18.4627848 17.3687637,18.1991781 17.0503493,18.0182929 C16.371411,17.6326301 15.4089111,17.0703565 14.6165777,16.5965612 C14.3055683,16.4106109 13.9447481,16.2052403 13.814371,16.1399872 C13.5403866,16.0028594 13.4332858,15.9129233 13.402407,15.7940791 C13.3896211,15.7447872 13.3868566,14.5438685 13.3959894,13.0021067 C13.4048013,11.5147019 13.4034684,10.2732378 13.3930274,10.2447251 C13.3783902,10.2047232 12.4222339,9.62510483 11.7582536,9.25372307 C11.7487505,9.24841091 11.7409753,12.250992 11.7409753,15.9250301 L11.7409753,15.9250301 L11.7409753,15.9250301 Z" id="path-3"></path>
        </g>
    </g>
</svg>