<?xml version="1.0" encoding="UTF-8" standalone="no"?>
<svg width="36px" height="36px" viewBox="0 0 36 36" version="1.1" xmlns="http://www.w3.org/2000/svg" xmlns:xlink="http://www.w3.org/1999/xlink">
    <!-- Generator: Sketch 39.1 (31720) - http://www.bohemiancoding.com/sketch -->
    <title>info-alt</title>
    <desc>Created with Sketch.</desc>
    <defs></defs>
    <g id="icons" stroke="none" stroke-width="1" fill="none" fill-rule="evenodd">
        <g id="info-alt" fill="#48639C">
            <path d="M18,36 C27.9411255,36 36,27.9411255 36,18 C36,8.0588745 27.9411255,0 18,0 C8.0588745,0 0,8.0588745 0,18 C0,27.9411255 8.0588745,36 18,36 Z M18,34 C26.837,34 34,26.837 34,18 C34,9.163 26.837,2 18,2 C9.163,2 2,9.163 2,18 C2,26.837 9.163,34 18,34 Z M20.2888184,22.6384277 L20.0793457,23.4953613 C19.4509246,23.7429212 18.9494648,23.931762 18.5749512,24.0618896 C18.2004376,24.1920173 17.7656275,24.2570801 17.2705078,24.2570801 C16.5087853,24.2570801 15.9168722,24.071413 15.494751,23.7000732 C15.0726297,23.3287335 14.8615723,22.8574247 14.8615723,22.2861328 C14.8615723,22.0639637 14.8774412,21.8370373 14.9091797,21.6053467 C14.9409181,21.3736561 14.9916989,21.1118179 15.0615234,20.8198242 L15.8422852,18.0395508 C15.9121097,17.7729479 15.970825,17.5206311 16.0184326,17.2825928 C16.0660403,17.0445545 16.0898438,16.8271494 16.0898438,16.6303711 C16.0898438,16.2749006 16.0168464,16.0273444 15.8708496,15.8876953 C15.7248528,15.7480462 15.4455587,15.6782227 15.032959,15.6782227 C14.829833,15.6782227 14.6219493,15.7099606 14.4093018,15.7734375 C14.1966542,15.8369144 14.0141609,15.8972165 13.8618164,15.9543457 L14.0712891,15.0974121 C14.5854518,14.8879384 15.0773902,14.7086189 15.5471191,14.5594482 C16.0168481,14.4102776 16.4611795,14.3356934 16.880127,14.3356934 C17.6355018,14.3356934 18.2178935,14.5181867 18.6273193,14.8831787 C19.0367452,15.2481708 19.2414551,15.7226533 19.2414551,16.3066406 C19.2414551,16.4272467 19.227173,16.6398911 19.1986084,16.9445801 C19.1700438,17.2492691 19.1176762,17.5285632 19.0415039,17.7824707 L18.2607422,20.5532227 C18.1972653,20.7753917 18.140137,21.0292954 18.0893555,21.3149414 C18.038574,21.6005874 18.0131836,21.8164055 18.0131836,21.9624023 C18.0131836,22.3305682 18.0957023,22.5812982 18.2607422,22.7145996 C18.4257821,22.8479011 18.7114237,22.9145508 19.1176758,22.9145508 C19.3081064,22.9145508 19.5239246,22.8812259 19.7651367,22.8145752 C20.0063489,22.7479245 20.1809077,22.6892092 20.2888184,22.6384277 Z M20.4887695,11.0126953 C20.4887695,11.4951196 20.3062762,11.9061262 19.9412842,12.2457275 C19.5762921,12.5853288 19.1367213,12.755127 18.6225586,12.755127 C18.1083959,12.755127 17.6672382,12.5853288 17.2990723,12.2457275 C16.9309064,11.9061262 16.7468262,11.4951196 16.7468262,11.0126953 C16.7468262,10.530271 16.9309064,10.1176775 17.2990723,9.77490234 C17.6672382,9.43212719 18.1083959,9.26074219 18.6225586,9.26074219 C19.1367213,9.26074219 19.5762921,9.43212719 19.9412842,9.77490234 C20.3062762,10.1176775 20.4887695,10.530271 20.4887695,11.0126953 Z" id="Oval-90"></path>
        </g>
    </g>
</svg>