<?xml version="1.0" encoding="UTF-8" standalone="no"?>
<svg width="36px" height="36px" viewBox="0 0 36 36" version="1.1" xmlns="http://www.w3.org/2000/svg" xmlns:xlink="http://www.w3.org/1999/xlink">
    <!-- Generator: Sketch 39.1 (31720) - http://www.bohemiancoding.com/sketch -->
    <title>lock</title>
    <desc>Created with Sketch.</desc>
    <defs></defs>
    <g id="icons" stroke="none" stroke-width="1" fill="none" fill-rule="evenodd">
        <g id="lock">
            <path d="M9,17.9962027 C9,15.7891609 10.7917156,14 12.9947834,14 L23.0052166,14 C25.2114745,14 27,15.7888304 27,17.9962027 L27,26.0037973 C27,28.2108391 25.2082844,30 23.0052166,30 L12.9947834,30 C10.7885255,30 9,28.2111696 9,26.0037973 L9,17.9962027 Z M15,23 C15.5522847,23 16,22.5522847 16,22 C16,21.4477153 15.5522847,21 15,21 C14.4477153,21 14,21.4477153 14,22 C14,22.5522847 14.4477153,23 15,23 Z M18,23 C18.5522847,23 19,22.5522847 19,22 C19,21.4477153 18.5522847,21 18,21 C17.4477153,21 17,21.4477153 17,22 C17,22.5522847 17.4477153,23 18,23 Z M21,23 C21.5522847,23 22,22.5522847 22,22 C22,21.4477153 21.5522847,21 21,21 C20.4477153,21 20,21.4477153 20,22 C20,22.5522847 20.4477153,23 21,23 Z" id="lock-body" fill="#48639C"></path>
            <path d="M13.0795069,14.9853165 C13.0795069,14.9853165 11.9778949,6.00367908 17.9757423,6.00000113 C23.9735898,5.99632317 22.9305413,15 22.9305413,15" id="lock-1" stroke="#48639C" stroke-width="2"></path>
        </g>
    </g>
</svg>