<?xml version="1.0" encoding="UTF-8" standalone="no"?>
<svg width="36px" height="36px" viewBox="0 0 36 36" version="1.1" xmlns="http://www.w3.org/2000/svg" xmlns:xlink="http://www.w3.org/1999/xlink">
    <!-- Generator: Sketch 39.1 (31720) - http://www.bohemiancoding.com/sketch -->
    <title>output</title>
    <desc>Created with Sketch.</desc>
    <defs></defs>
    <g id="icons" stroke="none" stroke-width="1" fill="none" fill-rule="evenodd">
        <g id="output" fill="#48639C">
            <path d="M22.6102968,11.5714286 L11.5714286,11.5714286 L11.5714286,9 L27,9 L27,10.2857143 L27,24.4285714 L24.4285714,24.4285714 L24.4285714,13.3897032 L9.44118746,28.3770872 L7.62291282,26.5588125 L22.6102968,11.5714286 L22.6102968,11.5714286 Z M0,3.85263062 C0,1.72488147 1.73635483,0 3.85263062,0 L32.1473694,0 C34.2751185,0 36,1.73635483 36,3.85263062 L36,32.1473694 C36,34.2751185 34.2636452,36 32.1473694,36 L3.85263062,36 C1.72488147,36 0,34.2636452 0,32.1473694 L0,3.85263062 L0,3.85263062 Z M2,3.33425951 C2,2.59736833 2.59662563,2 3.33425951,2 L32.6657405,2 C33.4026317,2 34,2.59662563 34,3.33425951 L34,32.6657405 C34,33.4026317 33.4033744,34 32.6657405,34 L3.33425951,34 C2.59736833,34 2,33.4033744 2,32.6657405 L2,3.33425951 L2,3.33425951 Z" id="path-1"></path>
        </g>
    </g>
</svg>