<?xml version="1.0" encoding="UTF-8" standalone="no"?>
<svg width="36px" height="36px" viewBox="0 0 36 36" version="1.1" xmlns="http://www.w3.org/2000/svg" xmlns:xlink="http://www.w3.org/1999/xlink">
    <!-- Generator: Sketch 39.1 (31720) - http://www.bohemiancoding.com/sketch -->
    <title>phone</title>
    <desc>Created with Sketch.</desc>
    <defs></defs>
    <g id="icons" stroke="none" stroke-width="1" fill="none" fill-rule="evenodd">
        <g id="phone" fill="#48639C">
            <path d="M8,3.08490232 C8,1.38115782 9.374681,0 11.0811694,0 L24.9188306,0 C26.6205135,0 28,1.38918411 28,3.08490232 L28,32.9150977 C28,34.6188422 26.625319,36 24.9188306,36 L11.0811694,36 C9.37948654,36 8,34.6108159 8,32.9150977 L8,3.08490232 Z M10,5 L26,5 L26,31 L10,31 L10,5 Z M18,34 C18.5522847,34 19,33.5522847 19,33 C19,32.4477153 18.5522847,32 18,32 C17.4477153,32 17,32.4477153 17,33 C17,33.5522847 17.4477153,34 18,34 Z M15,2.5 C15,2.22385763 15.2278805,2 15.4910052,2 L20.5089948,2 C20.7801695,2 21,2.23193359 21,2.5 L21,2.5 C21,2.77614237 20.7721195,3 20.5089948,3 L15.4910052,3 C15.2198305,3 15,2.76806641 15,2.5 L15,2.5 Z"></path>
        </g>
    </g>
</svg>