<?xml version="1.0" encoding="UTF-8" standalone="no"?>
<svg width="36px" height="36px" viewBox="0 0 36 36" version="1.1" xmlns="http://www.w3.org/2000/svg" xmlns:xlink="http://www.w3.org/1999/xlink">
    <!-- Generator: Sketch 39.1 (31720) - http://www.bohemiancoding.com/sketch -->
    <title>repositories</title>
    <desc>Created with Sketch.</desc>
    <defs></defs>
    <g id="icons" stroke="none" stroke-width="1" fill="none" fill-rule="evenodd">
        <g id="repositories" fill="#48639C">
            <path d="M6,1.99821383 C6,0.894630804 6.89497885,0 7.99700466,0 L30.0029953,0 C31.1059106,0 32,0.894337654 32,1.99821383 L32,29.0017862 C32,30.1053692 31.1050211,31 30.0029953,31 L7.99700466,31 C6.89408944,31 6,30.1056623 6,29.0017862 L6,1.99821383 L6,1.99821383 M12,2 L30,2 L30,29 L12,29 L12,2 L12,2 M15,6 L17,6 L17,8 L15,8 L15,6 L15,6 M20,6 L22,6 L22,8 L20,8 L20,6 L20,6 M25,6 L27,6 L27,8 L25,8 L25,6 L25,6 M15,11 L17,11 L17,13 L15,13 L15,11 L15,11 M20,11 L22,11 L22,13 L20,13 L20,11 L20,11 M25,11 L27,11 L27,13 L25,13 L25,11 L25,11 M15,16 L17,16 L17,18 L15,18 L15,16 L15,16 M20,16 L22,16 L22,18 L20,18 L20,16 L20,16 M25,16 L27,16 L27,18 L25,18 L25,16 L25,16 M18,31 L18,36 L14.9979594,33.5 L12,36 L12,31 L18,31"></path>
        </g>
    </g>
</svg>