<?xml version="1.0" encoding="UTF-8" standalone="no"?>
<svg width="36px" height="36px" viewBox="0 0 36 36" version="1.1" xmlns="http://www.w3.org/2000/svg" xmlns:xlink="http://www.w3.org/1999/xlink">
    <!-- Generator: Sketch 39.1 (31720) - http://www.bohemiancoding.com/sketch -->
    <title>root</title>
    <desc>Created with Sketch.</desc>
    <defs></defs>
    <g id="icons" stroke="none" stroke-width="1" fill="none" fill-rule="evenodd">
        <g id="root" fill="#48639C">
            <path d="M18,36 C27.9411255,36 36,27.9411255 36,18 C36,8.0588745 27.9411255,0 18,0 C8.0588745,0 0,8.0588745 0,18 C0,27.9411255 8.0588745,36 18,36 Z M18,34 C26.836556,34 34,26.836556 34,18 C34,9.163444 26.836556,2 18,2 C9.163444,2 2,9.163444 2,18 C2,26.836556 9.163444,34 18,34 Z M18,32 C25.7319865,32 32,25.7319865 32,18 C32,10.2680135 25.7319865,4 18,4 C10.2680135,4 4,10.2680135 4,18 C4,25.7319865 10.2680135,32 18,32 Z M20.1007636,17.4045905 C21.240579,16.6997837 22,15.438578 22,14 C22,11.790861 20.209139,10 18,10 C15.790861,10 14,11.790861 14,14 C14,15.4448165 14.7660219,16.710719 15.9140865,17.4137284 L14,26 L22,26 L20.1007636,17.4045905 Z"></path>
        </g>
    </g>
</svg>