<?xml version="1.0" encoding="UTF-8" standalone="no"?>
<svg width="36px" height="36px" viewBox="0 0 36 36" version="1.1" xmlns="http://www.w3.org/2000/svg" xmlns:xlink="http://www.w3.org/1999/xlink">
    <!-- Generator: Sketch 39.1 (31720) - http://www.bohemiancoding.com/sketch -->
    <title>ruby-alt</title>
    <desc>Created with Sketch.</desc>
    <defs></defs>
    <g id="icons" stroke="none" stroke-width="1" fill="none" fill-rule="evenodd">
        <g id="ruby-alt" fill="#48639C">
            <path d="M18,36 C27.9411255,36 36,27.9411255 36,18 C36,8.0588745 27.9411255,0 18,0 C8.0588745,0 0,8.0588745 0,18 C0,27.9411255 8.0588745,36 18,36 Z M25.6547143,6.21428571 L19.1537143,6.21428571 L23.7771429,12.3732857 L25.6547143,6.21428571 Z M12.1992857,12.3732857 L16.8227143,6.21428571 L10.3221429,6.21428571 L12.1992857,12.3732857 Z M17.9884286,7.767 L13.0332857,14.3678571 L22.9431429,14.3678571 L17.9884286,7.767 Z M22.6007143,16.2321429 L13.3757143,16.2321429 L17.9884286,31.3637143 L22.6007143,16.2321429 Z M25.1181429,14.3678571 L32.9245714,14.3678571 L27.3278571,7.119 L25.1181429,14.3678571 Z M24.5498571,16.2321429 L19.8977143,31.4935714 L32.8067143,16.2321429 L24.5498571,16.2321429 Z M3.07542857,14.3678571 L10.8582857,14.3678571 L8.64942857,7.12157143 L3.07542857,14.3678571 Z M11.4265714,16.2321429 L3.14228571,16.2321429 L16.0804286,31.5 L11.4265714,16.2321429 Z" id="Combined-Shape"></path>
        </g>
    </g>
</svg>