<?xml version="1.0" encoding="UTF-8" standalone="no"?>
<svg width="36px" height="36px" viewBox="0 0 36 36" version="1.1" xmlns="http://www.w3.org/2000/svg" xmlns:xlink="http://www.w3.org/1999/xlink">
    <!-- Generator: Sketch 39.1 (31720) - http://www.bohemiancoding.com/sketch -->
    <title>slack</title>
    <desc>Created with Sketch.</desc>
    <defs></defs>
    <g id="icons" stroke="none" stroke-width="1" fill="none" fill-rule="evenodd">
        <g id="slack" fill="#48639C">
            <path d="M28.2366431,21.0821053 L25.9041924,21.8631395 L26.7125757,24.2764861 C27.0399019,25.2538584 26.5130709,26.3115508 25.5356986,26.6385891 C25.3232389,26.7099847 25.1067487,26.7407885 24.8951527,26.7350308 C24.1328311,26.7154546 23.429814,26.2266245 23.1738835,25.4619998 L22.3655002,23.0483653 L17.5555043,24.6590863 L18.3638876,27.0727208 C18.6912138,28.0498052 18.1643828,29.1074976 17.1870105,29.4348238 C16.9745508,29.5059316 16.7583486,29.5367354 16.5464646,29.5312655 C15.7844309,29.5114014 15.0814138,29.0225713 14.8251954,28.2579467 L14.0168121,25.8443122 L11.6840735,26.6256342 C11.4713259,26.696742 11.2551237,26.7275458 11.0432398,26.7220759 C10.2812061,26.7022118 9.57818894,26.2133817 9.32197058,25.4487571 C8.99464443,24.4713848 9.52176332,23.4139803 10.4988477,23.0866541 L12.8315863,22.30562 L11.2807455,17.6758406 L8.94829482,18.4568748 C8.7358351,18.5279825 8.51934498,18.5587863 8.30746104,18.5533165 C7.54571522,18.5334524 6.84241022,18.0446223 6.58647975,17.2799976 C6.2591536,16.3026253 6.78598461,15.2452208 7.76335688,14.9178947 L10.0955197,14.1368605 L9.2871364,11.723226 C8.95981025,10.7461416 9.48664125,9.68873708 10.4640135,9.36112305 C11.4413858,9.03408478 12.4987903,9.56091579 12.8258286,10.5380002 L13.6342119,12.9516347 L18.4442078,11.3409137 L17.6358245,8.92727915 C17.3084983,7.94990688 17.8356172,6.89250235 18.8127016,6.5651762 C19.789786,6.23785005 20.8474784,6.76496894 21.1748046,7.74205333 L21.9831879,10.1556878 L24.3156386,9.37436579 C25.2932987,9.04732753 26.3504154,9.57415854 26.6777415,10.5512429 C27.0050677,11.5286152 26.4779488,12.5860197 25.5008644,12.9133459 L23.1684137,13.69438 L24.7189666,18.3244473 L27.0517052,17.5431252 C28.0290775,17.216087 29.086482,17.742918 29.4135202,18.7200024 C29.7408464,19.6970868 29.2140154,20.7547792 28.2366431,21.0821053 L28.2366431,21.0821053 Z M34.4932651,13.0518189 C30.7821293,0.681942085 25.4216958,-2.2044009 13.0518189,1.50673489 C0.681942085,5.21787068 -2.2044009,10.5783042 1.50673489,22.9481811 C5.21787068,35.3180579 10.5783042,38.2044009 22.9481811,34.4932651 C35.3180579,30.7821293 38.2044009,25.4216958 34.4932651,13.0518189 Z M14.8194377,16.4906148 L16.3702785,21.1203941 L21.1802744,19.5093852 L19.6297215,14.8796059 L14.8194377,16.4906148 Z" id="Fill-11"></path>
        </g>
    </g>
</svg>