<?xml version="1.0" encoding="UTF-8" standalone="no"?>
<svg width="36px" height="36px" viewBox="0 0 36 36" version="1.1" xmlns="http://www.w3.org/2000/svg" xmlns:xlink="http://www.w3.org/1999/xlink">
    <!-- Generator: Sketch 39.1 (31720) - http://www.bohemiancoding.com/sketch -->
    <title>spinner</title>
    <desc>Created with Sketch.</desc>
    <defs></defs>
    <g id="icons" stroke="none" stroke-width="1" fill="none" fill-rule="evenodd">
        <g id="spinner" fill="#48639C">
            <path d="M26.6946876,33.7645809 C27.5910993,33.2691249 28.4407583,32.6994332 29.2353716,32.0637987 L24.2796689,27.108096 C24.1909419,27.1683168 24.1012885,27.2272752 24.0107347,27.2849452 L26.6946876,33.7645809 Z M25.2610164,34.4754481 C25.0111343,34.5857361 24.7582702,34.690506 24.5025786,34.7896034 L25.2610183,34.4754473 Z M22.9996844,35.2965577 C22.0308815,35.5760985 21.0284991,35.7764476 20,35.8901424 L20,28.8382252 C20.1008614,28.8207583 20.2012519,28.8019178 20.3011518,28.7817237 L22.9996844,35.2965577 Z M9.3053124,2.23541914 C8.40890073,2.73087508 7.55924171,3.30056679 6.76462838,3.93620125 L11.8099785,8.98155135 C11.8846058,8.92932311 11.9599113,8.87799756 12.0358792,8.82759057 L9.3053124,2.23541914 Z M10.7389836,1.52455187 C10.9888657,1.41426386 11.2417298,1.30949397 11.4974214,1.21039664 L10.7389817,1.52455267 Z M13.0003156,0.703442265 C13.9691185,0.423901493 14.9715009,0.223552366 16,0.109857556 L16,7.20213569 C15.9050864,7.22057362 15.8106087,7.24023187 15.7165837,7.26109343 L13.0003156,0.703442265 Z M3.93620125,6.76462838 C3.30056679,7.55924171 2.73087508,8.40890073 2.23541914,9.3053124 L8.85749692,12.0482668 C8.90474255,11.9749719 8.95283535,11.9022746 9.00176149,11.8301887 L3.93620125,6.76462838 Z M0.703442265,13.0003156 C0.423901493,13.9691185 0.223552366,14.9715009 0.109857556,16 L7.29123378,16 C7.30664009,15.9161266 7.32299776,15.8325861 7.34029517,15.7493901 L0.703442265,13.0003156 Z M1.21039664,11.4974214 C1.30949397,11.2417298 1.41426386,10.9888657 1.52455187,10.7389836 L1.21039664,11.4974214 Z M35.8901424,16 C35.7764476,14.9715009 35.5760985,13.9691185 35.2965577,13.0003156 L28.861684,15.6657276 C28.8856286,15.7765394 28.9079036,15.8879728 28.9284813,15.9999999 L35.8901424,16 Z M0.109857556,20 C0.223552366,21.0284991 0.423901493,22.0308815 0.703442265,22.9996844 L7.34029517,20.2506099 C7.32299776,20.1674139 7.3066401,20.0838734 7.29123379,20 L0.109857556,20 Z M33.7645809,9.3053124 C33.2691249,8.40890073 32.6994332,7.55924171 32.0637987,6.76462838 L27.1283062,11.7001209 C27.1920953,11.7912671 27.2545378,11.883425 27.3156048,11.9765657 L33.7645809,9.3053124 Z M34.4754481,10.7389836 C34.5857361,10.9888657 34.690506,11.2417298 34.7896034,11.4974214 L34.4754481,10.7389836 Z M2.23541914,26.6946876 C2.73087508,27.5910993 3.30056679,28.4407583 3.93620125,29.2353716 L9.00176154,24.1698113 C8.95283539,24.0977254 8.90474257,24.0250281 8.85749693,23.9517332 L2.23541914,26.6946876 Z M1.52455187,25.2610164 C1.41426386,25.0111343 1.30949397,24.7582702 1.21039664,24.5025786 L1.52455273,25.2610185 Z M29.2353716,3.93620125 C28.4407583,3.30056679 27.5910993,2.73087508 26.6946876,2.23541914 L24.0107346,8.71505479 C24.1012885,8.77272482 24.1909418,8.83168315 24.2796689,8.89190398 L29.2353716,3.93620125 Z M30.7279255,5.27208137 C30.7279255,5.27208137 30.7279255,5.27208137 30.7279255,5.27208137 L30.7279255,5.27208137 Z M6.76462838,32.0637987 C7.55924171,32.6994332 8.40890073,33.2691249 9.3053124,33.7645809 L12.0358792,27.1724094 C11.9599114,27.1220025 11.884606,27.070677 11.8099787,27.0184488 L6.76462838,32.0637987 Z M5.27207451,30.7279186 C5.27207451,30.7279186 5.27207451,30.7279186 5.27207451,30.7279186 L5.27207451,30.7279186 Z M25.2610164,1.52455187 C25.0111343,1.41426386 24.7582702,1.30949397 24.5025786,1.21039664 L25.2610164,1.52455187 Z M22.9996844,0.703442265 C22.0308815,0.423901493 21.0284991,0.223552366 20,0.109857556 L20,7.1617748 C20.1008614,7.17924168 20.2012519,7.19808219 20.3011518,7.21827635 L22.9996844,0.703442265 Z M10.7389836,34.4754481 C10.9888657,34.5857361 11.2417298,34.690506 11.4974214,34.7896034 L10.7389836,34.4754481 Z M13.0003156,35.2965577 C13.9691185,35.5760985 14.9715009,35.7764476 16,35.8901424 L16,28.7978643 C15.9050864,28.7794264 15.8106087,28.7597681 15.7165837,28.7389066 L13.0003156,35.2965577 Z M19,0.0273083803 C18.6689696,0.00918197471 18.3355571,0 18,0 C17.6644429,0 17.3310304,0.00918197471 17,0.0273083803 L19,0.0273083803 Z" id="Oval-14"></path>
        </g>
    </g>
</svg>