<?xml version="1.0" encoding="UTF-8" standalone="no"?>
<svg width="36px" height="36px" viewBox="0 0 36 36" version="1.1" xmlns="http://www.w3.org/2000/svg" xmlns:xlink="http://www.w3.org/1999/xlink">
    <!-- Generator: Sketch 39.1 (31720) - http://www.bohemiancoding.com/sketch -->
    <title>support</title>
    <desc>Created with Sketch.</desc>
    <defs></defs>
    <g id="icons" stroke="none" stroke-width="1" fill="none" fill-rule="evenodd">
        <g id="support" fill="#48639C">
            <path d="M18,36 C27.94,36 36,27.94 36,18 C36,8.06 27.94,0 18,0 C8.06,0 0,8.06 0,18 C0,27.94 8.06,36 18,36 L18,36 Z M15.984,21.172 C15.992,20.055 16.121,19.256 16.371,18.775 C16.621,18.295 17.177,17.691 18.036,16.965 C18.646,16.371 19.13,15.803 19.489,15.26 C19.849,14.717 20.029,14.117 20.029,13.46 C20.029,12.703 19.823,12.115 19.413,11.697 C19.003,11.279 18.419,11.07 17.661,11.07 C17.013,11.07 16.461,11.248 16.009,11.604 C15.556,11.959 15.329,12.484 15.329,13.18 L12.587,13.18 L12.552,13.11 C12.529,11.72 12.996,10.635 13.952,9.857 C14.91,9.08 16.147,8.691 17.662,8.691 C19.302,8.691 20.582,9.111 21.5,9.946 C22.418,10.782 22.877,11.942 22.877,13.426 C22.877,14.419 22.59,15.339 22.017,16.186 C21.441,17.034 20.717,17.81 19.842,18.513 C19.397,18.903 19.117,19.273 19.004,19.626 C18.891,19.978 18.834,20.493 18.834,21.173 L15.986,21.173 L15.984,21.172 Z M18.88,26 L15.973,26 L15.973,23.27 L18.879,23.27 L18.879,26 L18.88,26 Z" id="Shape"></path>
        </g>
    </g>
</svg>