<?xml version="1.0" encoding="UTF-8" standalone="no"?>
<svg width="36px" height="36px" viewBox="0 0 36 36" version="1.1" xmlns="http://www.w3.org/2000/svg" xmlns:xlink="http://www.w3.org/1999/xlink">
    <!-- Generator: Sketch 39.1 (31720) - http://www.bohemiancoding.com/sketch -->
    <title>tasks</title>
    <desc>Created with Sketch.</desc>
    <defs></defs>
    <g id="icons" stroke="none" stroke-width="1" fill="none" fill-rule="evenodd">
        <g id="tasks" fill="#48639C">
            <path d="M0,6.48083357 C0,4.55842227 1.55842995,3 3.48454162,3 L32.5154584,3 C34.4399176,3 36,4.55853955 36,6.48083357 L36,30.5191664 C36,32.4415777 34.4415701,34 32.5154584,34 L3.48454162,34 C1.56008242,34 0,32.4414605 0,30.5191664 L0,6.48083357 L0,6.48083357 Z M2,9 L34,9 L34,30.8436642 C34,31.4822908 33.4712787,32 32.8421982,32 L3.15780181,32 C2.51836553,32 2,31.4763986 2,30.8436642 L2,9 L2,9 Z M24.5005078,12.86355 L27.1693078,15.1029391 L16.8370922,27.4163942 L14.1682922,25.1770052 L24.5005078,12.86355 L24.5005078,12.86355 Z M2,6 C2,5.44771525 2.44386482,5 3,5 C3.55228475,5 4,5.44386482 4,6 C4,6.55228475 3.55613518,7 3,7 C2.44771525,7 2,6.55613518 2,6 L2,6 Z M6,6 C6,5.44771525 6.44386482,5 7,5 C7.55228475,5 8,5.44386482 8,6 C8,6.55228475 7.55613518,7 7,7 C6.44771525,7 6,6.55613518 6,6 L6,6 Z M10,6 C10,5.44771525 10.4438648,5 11,5 C11.5522847,5 12,5.44386482 12,6 C12,6.55228475 11.5561352,7 11,7 C10.4477153,7 10,6.55613518 10,6 L10,6 Z M10.9982764,18.0976438 L16.3358764,22.5764219 L14.1218302,25.2150195 L8.78423023,20.7362413 L10.9982764,18.0976438 L10.9982764,18.0976438 Z" id="path-1"></path>
        </g>
    </g>
</svg>