<?xml version="1.0" encoding="UTF-8" standalone="no"?>
<svg width="36px" height="36px" viewBox="0 0 36 36" version="1.1" xmlns="http://www.w3.org/2000/svg" xmlns:xlink="http://www.w3.org/1999/xlink">
    <!-- Generator: Sketch 39.1 (31720) - http://www.bohemiancoding.com/sketch -->
    <title>terminal-alt</title>
    <desc>Created with Sketch.</desc>
    <defs>
        <circle id="path-1" cx="18" cy="18" r="18"></circle>
        <path d="M35.2964667,13 C34.6608036,10.7971382 33.6157054,8.76789405 32.2489045,7 L11.4845416,7 C9.55842995,7 8,8.55842227 8,10.4808336 L8,32.9689019 C8.63894061,33.3965953 9.30679093,33.7844652 10,34.1289607 L10,13 L35.2964667,13 Z M32.2489045,7 C28.9568967,2.74193971 23.7986555,0 18,0 C8.0588745,0 0,8.0588745 0,18 C0,24.2408322 3.17605703,29.7398565 8,32.9689019 L8,34.5191664 C8,36.4414605 9.56008242,38 11.4845416,38 L40.5154584,38 C42.4415701,38 44,36.4415777 44,34.5191664 L44,10.4808336 C44,8.55853955 42.4399176,7 40.5154584,7 L32.2489045,7 Z M35.2964667,13 C35.7545449,14.5874495 36,16.2650602 36,18 C36,27.9411255 27.9411255,36 18,36 C15.126317,36 12.4099179,35.3265878 10,34.1289607 L10,34.8436642 C10,35.4763986 10.5183655,36 11.1578018,36 L40.8421982,36 C41.4712787,36 42,35.4822908 42,34.8436642 L42,13 L35.2964667,13 Z M10,10 C10,9.44771525 10.4438648,9 11,9 C11.5522848,9 12,9.44386482 12,10 C12,10.5522848 11.5561352,11 11,11 C10.4477152,11 10,10.5561352 10,10 Z M14,10 C14,9.44771525 14.4438648,9 15,9 C15.5522848,9 16,9.44386482 16,10 C16,10.5522848 15.5561352,11 15,11 C14.4477152,11 14,10.5561352 14,10 Z M18,10 C18,9.44771525 18.4438648,9 19,9 C19.5522847,9 20,9.44386482 20,10 C20,10.5522848 19.5561352,11 19,11 C18.4477153,11 18,10.5561352 18,10 Z M13.1998881,14.9999999 L14.6545078,16.4546195 L13.9212119,17.1879154 L12.4665922,15.7332958 L13.1998881,14.9999999 Z M14.6545078,16.4546195 L15.3818176,17.1819294 L13.1819299,19.3818171 L12.45462,18.6545073 L14.6545078,16.4546195 Z" id="path-3"></path>
    </defs>
    <g id="icons" stroke="none" stroke-width="1" fill="none" fill-rule="evenodd">
        <g id="terminal-alt">
            <mask id="mask-2" fill="white">
                <use xlink:href="#path-1"></use>
            </mask>
            <g id="Mask"></g>
            <g id="Group-2" mask="url(#mask-2)">
                <mask id="mask-4" fill="white">
                    <use xlink:href="#path-3"></use>
                </mask>
                <use id="Combined-Shape" fill="#48639C" xlink:href="#path-3"></use>
            </g>
        </g>
    </g>
</svg>