<?xml version="1.0" encoding="UTF-8" standalone="no"?>
<svg width="36px" height="36px" viewBox="0 0 36 36" version="1.1" xmlns="http://www.w3.org/2000/svg" xmlns:xlink="http://www.w3.org/1999/xlink">
    <!-- Generator: Sketch 39.1 (31720) - http://www.bohemiancoding.com/sketch -->
    <title>triggers</title>
    <desc>Created with Sketch.</desc>
    <defs></defs>
    <g id="icons" stroke="none" stroke-width="1" fill="none" fill-rule="evenodd">
        <g id="triggers" fill="#48639C">
            <path d="M0,3.85263062 C0,1.72488147 1.73635483,0 3.85263062,0 L32.1473694,0 C34.2751185,0 36,1.73635483 36,3.85263062 L36,32.1473694 C36,34.2751185 34.2636452,36 32.1473694,36 L3.85263062,36 C1.72488147,36 0,34.2636452 0,32.1473694 L0,3.85263062 L0,3.85263062 Z M19.973737,21.8571429 L7.70245089,21.8571429 C6.29770163,21.8571429 5.14285714,23.0084106 5.14285714,24.4285714 C5.14285714,25.8586334 6.28882629,27 7.70245089,27 L19.973737,27 C20.8629612,28.5372035 22.5249882,29.5714286 24.4285714,29.5714286 C26.3647674,29.5714286 28.0510595,28.5014627 28.9284261,26.9205522 C30.0320817,26.6372253 30.8571429,25.6289516 30.8571429,24.4285714 C30.8571429,23.2184346 30.0365416,22.2150257 28.9275558,21.9350232 C28.0499448,20.354973 26.3641275,19.2857143 24.4285714,19.2857143 C22.5249882,19.2857143 20.8629612,20.3199394 19.973737,21.8571429 L19.973737,21.8571429 Z M24.4285714,28.2857143 C26.5588125,28.2857143 28.2857143,26.5588125 28.2857143,24.4285714 C28.2857143,22.2983303 26.5588125,20.5714286 24.4285714,20.5714286 C22.2983303,20.5714286 20.5714286,22.2983303 20.5714286,24.4285714 C20.5714286,26.5588125 22.2983303,28.2857143 24.4285714,28.2857143 L24.4285714,28.2857143 Z M7.07157391,9.07944776 C5.96791823,9.3627747 5.14285714,10.3710484 5.14285714,11.5714286 C5.14285714,12.7815654 5.9634584,13.7849743 7.07244416,14.0649768 C7.95005524,15.645027 9.6358725,16.7142857 11.5714286,16.7142857 C13.4750118,16.7142857 15.1370388,15.6800606 16.026263,14.1428571 L28.2975492,14.1428571 C29.7022983,14.1428571 30.8571429,12.9915894 30.8571429,11.5714286 C30.8571429,10.1413666 29.7111738,9 28.2975492,9 L16.026263,9 C15.1370388,7.46279648 13.4750118,6.42857143 11.5714286,6.42857143 C9.6352326,6.42857143 7.94894053,7.49853738 7.07157391,9.07944776 L7.07157391,9.07944776 Z M11.5714286,15.4285714 C13.7016697,15.4285714 15.4285714,13.7016697 15.4285714,11.5714286 C15.4285714,9.44118746 13.7016697,7.71428571 11.5714286,7.71428571 C9.44118746,7.71428571 7.71428571,9.44118746 7.71428571,11.5714286 C7.71428571,13.7016697 9.44118746,15.4285714 11.5714286,15.4285714 L11.5714286,15.4285714 Z" id="Shape"></path>
        </g>
    </g>
</svg>