<?xml version="1.0" encoding="UTF-8" standalone="no"?>
<svg width="36px" height="36px" viewBox="0 0 36 36" version="1.1" xmlns="http://www.w3.org/2000/svg" xmlns:xlink="http://www.w3.org/1999/xlink">
    <!-- Generator: Sketch 39.1 (31720) - http://www.bohemiancoding.com/sketch -->
    <title>twitter-alt</title>
    <desc>Created with Sketch.</desc>
    <defs></defs>
    <g id="icons" stroke="none" stroke-width="1" fill="none" fill-rule="evenodd">
        <g id="twitter-alt" fill="#48639C">
            <path d="M18,36 C27.9411255,36 36,27.9411255 36,18 C36,8.0588745 27.9411255,0 18,0 C8.0588745,0 0,8.0588745 0,18 C0,27.9411255 8.0588745,36 18,36 Z M30,10.3088279 C29.1169538,10.7004359 28.1679798,10.965107 27.1719522,11.0841432 C28.1886097,10.4747412 28.9692966,9.50981069 29.3369472,8.36009323 C28.385603,8.9242861 27.3318117,9.33406553 26.2102491,9.55493207 C25.3120158,8.59799002 24.0323494,8 22.6161747,8 C19.8968068,8 17.6921321,10.2045396 17.6921321,12.9236736 C17.6921321,13.3095755 17.7357621,13.6853822 17.8196862,14.0457388 C13.7274224,13.8404102 10.0992867,11.8801757 7.67075606,8.90128649 C7.24692198,9.62849573 7.00410403,10.4743022 7.00410403,11.3766421 C7.00410403,13.0848465 7.8734555,14.5919358 9.19464501,15.4748753 C8.3874465,15.4493299 7.62826731,15.2278489 6.96433666,14.8590649 C6.96398552,14.8796066 6.96398552,14.900236 6.96398552,14.9209532 C6.96398552,17.3065928 8.66125315,19.2966741 10.9137715,19.7489414 C10.5005596,19.8614815 10.0655766,19.9216141 9.61646,19.9216141 C9.29919895,19.9216141 8.99071656,19.8908016 8.69013497,19.8333026 C9.3166685,21.7894989 11.1350818,23.2130172 13.289718,23.2527837 C11.6045649,24.5733303 9.48144409,25.3604966 7.17458576,25.3604966 C6.77717546,25.3604966 6.38520794,25.3372336 6,25.2917611 C8.17904093,26.6887683 10.7672556,27.5038501 13.5478986,27.5038501 C22.6046746,27.5038501 27.5572479,20.0011471 27.5572479,13.4946259 C27.5572479,13.2811333 27.5525074,13.0687818 27.5430264,12.8576594 C28.5049929,12.1634572 29.3398442,11.2962313 30,10.3088279 Z" id="Oval-28"></path>
        </g>
    </g>
</svg>