<?xml version="1.0" encoding="UTF-8" standalone="no"?>
<svg width="36px" height="36px" viewBox="0 0 36 36" version="1.1" xmlns="http://www.w3.org/2000/svg" xmlns:xlink="http://www.w3.org/1999/xlink">
    <!-- Generator: Sketch 39.1 (31720) - http://www.bohemiancoding.com/sketch -->
    <title>ubuntu</title>
    <desc>Created with Sketch.</desc>
    <defs></defs>
    <g id="icons" stroke="none" stroke-width="1" fill="none" fill-rule="evenodd">
        <g id="ubuntu" fill="#48639C">
            <path d="M35.9321831,17.9662817 C35.9321831,27.8882113 27.888338,35.9320563 17.9659014,35.9320563 C8.04346479,35.9320563 0,27.888338 0,17.9662817 C0,8.04359155 8.04333803,0 17.9657746,0 C27.8882113,0 35.9321831,8.04359155 35.9321831,17.9662817 Z M5.74935211,15.5677183 C4.42432394,15.5677183 3.35066197,16.6413803 3.35066197,17.9664085 C3.35066197,19.2909296 4.42432394,20.3647183 5.74935211,20.3647183 C7.07387324,20.3647183 8.14766197,19.2909296 8.14766197,17.9664085 C8.14766197,16.6412535 7.074,15.5677183 5.74935211,15.5677183 Z M22.8755915,26.4693803 C21.7282817,27.1317042 21.3355775,28.5980704 21.9976479,29.7448732 C22.6600986,30.8921831 24.126338,31.2851408 25.2736479,30.6228169 C26.4205775,29.9606197 26.8135352,28.4942535 26.1512113,27.3470704 C25.4890141,26.2002676 24.0225211,25.8071831 22.8755915,26.4693803 Z M10.9594648,17.9660282 C10.9594648,15.5954789 12.1374507,13.5016479 13.9388451,12.2337887 L12.1852394,9.2963662 C10.0860845,10.6988451 8.52464789,12.8428732 7.87601408,15.354 C8.63366197,15.9715775 9.11776056,16.9120141 9.11776056,17.9662817 C9.11776056,19.0202958 8.63366197,19.9607324 7.87588732,20.5781831 C8.52439437,23.0895634 10.0859577,25.2335915 12.1851127,26.6359437 L13.9388451,23.6982676 C12.1374507,22.430662 10.9594648,20.3369577 10.9594648,17.9660282 Z M17.9661549,10.959338 C21.6266197,10.959338 24.6291972,13.7659437 24.9439437,17.3446479 L28.3624225,17.2947042 C28.1942113,14.652507 27.0400563,12.2798028 25.2662958,10.5359577 C24.3543803,10.880493 23.3008732,10.8282676 22.3903521,10.3024648 C21.4786901,9.77615493 20.9066197,8.88832394 20.7499437,7.9248169 C19.8636338,7.67953521 18.9308028,7.54580282 17.9662817,7.54580282 C16.307493,7.54580282 14.7403521,7.93521127 13.3482676,8.62478873 L15.014662,11.6112676 C15.9117465,11.1938451 16.9113803,10.959338 17.9661549,10.959338 Z M17.9661549,24.9728451 C16.9112535,24.9728451 15.9117465,24.738338 15.0145352,24.3209155 L13.3478873,27.3076479 C14.7400986,27.9969718 16.3073662,28.386507 17.9661549,28.386507 C18.9306761,28.386507 19.863507,28.2527746 20.7499437,28.007493 C20.9066197,27.0439859 21.4788169,26.1561549 22.3906056,25.6294648 C23.3011268,25.1039155 24.3546338,25.0516901 25.2665493,25.3963521 C27.0401831,23.6523803 28.194338,21.2796761 28.3622958,18.6374789 L24.9438169,18.5875352 C24.6293239,22.1667465 21.6266197,24.9728451 17.9661549,24.9728451 Z M22.8752113,9.4625493 C24.0223944,10.1251268 25.4888873,9.73204225 26.1509577,8.58523944 C26.8134085,7.43792958 26.4207042,5.97156338 25.2733944,5.30911268 C24.126338,4.64691549 22.6599718,5.03987324 21.9975211,6.1871831 C21.3353239,7.33398592 21.7282817,8.80047887 22.8752113,9.4625493 Z" id="Combined-Shape"></path>
        </g>
    </g>
</svg>