<?xml version="1.0" encoding="UTF-8" standalone="no"?>
<svg width="36px" height="36px" viewBox="0 0 36 36" version="1.1" xmlns="http://www.w3.org/2000/svg" xmlns:xlink="http://www.w3.org/1999/xlink">
    <!-- Generator: Sketch 39.1 (31720) - http://www.bohemiancoding.com/sketch -->
    <title>user</title>
    <desc>Created with Sketch.</desc>
    <defs></defs>
    <g id="icons" stroke="none" stroke-width="1" fill="none" fill-rule="evenodd">
        <g id="user" fill="#48639C">
            <path d="M12.0576667,8.23267366 C12.175,9.64978236 12.4646667,11.4943886 12.4646667,11.4943886 C12.4646667,11.4943886 11.8908333,11.8036421 11.8908333,13.0479326 C12.0906667,16.171393 13.143,14.8234116 13.3593333,16.1932227 C13.88,19.4931395 15.0698333,18.9055578 15.0698333,20.7065047 C15.0698333,23.7062637 13.8231667,25.1088193 9.931,26.7715116 C6.026,28.4414805 2,30.5425852 2,34.1808617 L2,36 L35,36 L35,34.1808617 C35,30.5425852 30.9721667,28.4414805 27.0653333,26.7733308 C23.1731667,25.1106384 21.9301667,23.7099019 21.9301667,20.7083238 C21.9301667,18.9073769 23.1163333,19.4949586 23.6388333,16.1950418 C23.857,14.8252307 24.9075,16.1732121 25.111,13.0497518 C25.111,11.8054612 24.5353333,11.4962077 24.5353333,11.4962077 C24.5353333,11.4962077 24.825,9.6516015 24.9405,8.2344928 C25.0596667,6.74825684 24.2108333,3.57567973 20.7238333,2.60244076 C20.1133333,1.98393375 19.7008333,0.999779955 21.5781667,0.0119878823 C17.4715,-0.179021635 16.5163333,1.9530084 14.3291667,3.52110558 C12.4665,4.8963741 11.966,7.07388259 12.0576667,8.23267366 Z" id="Shape"></path>
        </g>
    </g>
</svg>