<?xml version="1.0" encoding="UTF-8" standalone="no"?>
<svg width="36px" height="36px" viewBox="0 0 36 36" version="1.1" xmlns="http://www.w3.org/2000/svg" xmlns:xlink="http://www.w3.org/1999/xlink">
    <!-- Generator: Sketch 39.1 (31720) - http://www.bohemiancoding.com/sketch -->
    <title>video</title>
    <desc>Created with Sketch.</desc>
    <defs></defs>
    <g id="icons" stroke="none" stroke-width="1" fill="none" fill-rule="evenodd">
        <g id="video" fill="#48639C">
            <path d="M3.25973248,4 L25.7402675,4 C27.5405681,4 29,5.45798861 29,7.25626366 L29,29.7437363 C29,31.5421211 27.542114,33 25.7402675,33 L3.25973248,33 C1.45943194,33 0,31.5420114 0,29.7437363 L0,7.25626366 C0,5.4578789 1.45788608,4 3.25973248,4 L3.25973248,4 Z M4.67741935,18.5 C4.67741935,13.0751385 9.03731734,8.67741935 14.5,8.67741935 C19.9248615,8.67741935 24.3225806,13.0373173 24.3225806,18.5 C24.3225806,23.9248615 19.9626827,28.3225806 14.5,28.3225806 C9.0751385,28.3225806 4.67741935,23.9626827 4.67741935,18.5 L4.67741935,18.5 L4.67741935,18.5 Z M8.41935484,18.5 C8.41935484,15.1417524 11.1183393,12.4193548 14.5,12.4193548 C17.8582476,12.4193548 20.5806452,15.1183393 20.5806452,18.5 C20.5806452,21.8582476 17.8816607,24.5806452 14.5,24.5806452 C11.1417524,24.5806452 8.41935484,21.8816607 8.41935484,18.5 Z M31,11.931952 L31,25.0679825 L34.6919148,27.839322 C35.2510987,28.2589861 36,27.8077099 36,27.0510778 L36,9.9489714 C36,9.19233924 35.2510987,8.74094864 34.6919148,9.160727 L31,11.931952 Z" id="path-1"></path>
        </g>
    </g>
</svg>