<?xml version="1.0" encoding="UTF-8" standalone="no"?>
<svg width="534px" height="160px" viewBox="0 0 534 160" version="1.1" xmlns="http://www.w3.org/2000/svg" xmlns:xlink="http://www.w3.org/1999/xlink" xmlns:sketch="http://www.bohemiancoding.com/sketch/ns">
    <!-- Generator: Sketch 3.5.1 (25234) - http://www.bohemiancoding.com/sketch -->
    <title>repeat</title>
    <desc>Created with Sketch.</desc>
    <defs></defs>
    <g id="Page-1" stroke="none" stroke-width="1" fill="none" fill-rule="evenodd" sketch:type="MSPage">
        <g id="repeat" sketch:type="MSArtboardGroup">
            <g id="Group-2" sketch:type="MSLayerGroup" transform="translate(-160.000000, 4.000000)">
                <g id="Icon-Group" transform="translate(162.000000, 0.000000)" sketch:type="MSShapeGroup">
                    <g id="repositories" transform="translate(54.000000, 0.000000)">
                        <rect id="Rectangle-316" fill="#B84A62" x="0" y="0" width="44" height="44" rx="4"></rect>
                        <path d="M9,7.99821383 C9,6.8946308 9.89497885,6 10.9970047,6 L33.0029953,6 C34.1059106,6 35,6.89433765 35,7.99821383 L35,35.0017862 C35,36.1053692 34.1050211,37 33.0029953,37 L10.9970047,37 C9.89408944,37 9,36.1056623 9,35.0017862 L9,7.99821383 L9,7.99821383 M15,8 L33,8 L33,35 L15,35 L15,8 L15,8 M18,12 L20,12 L20,14 L18,14 L18,12 L18,12 M23,12 L25,12 L25,14 L23,14 L23,12 L23,12 M28,12 L30,12 L30,14 L28,14 L28,12 L28,12 M18,17 L20,17 L20,19 L18,19 L18,17 L18,17 M23,17 L25,17 L25,19 L23,19 L23,17 L23,17 M28,17 L30,17 L30,19 L28,19 L28,17 L28,17 M18,22 L20,22 L20,24 L18,24 L18,22 L18,22 M23,22 L25,22 L25,24 L23,24 L23,22 L23,22 M28,22 L30,22 L30,24 L28,24 L28,22 L28,22 M21,37 L21,42 L17.9979594,39.5 L15,42 L15,37 L21,37" id="Shape" fill="#FFFFFF"></path>
                    </g>
                    <g id="outputs">
                        <rect id="Rectangle-316" fill="#BA8AB8" x="0" y="0" width="44" height="44" rx="4"></rect>
                        <path d="M26.6102968,15.5714286 L15.5714286,15.5714286 L15.5714286,13 L31,13 L31,14.2857143 L31,28.4285714 L28.4285714,28.4285714 L28.4285714,17.3897032 L13.4411875,32.3770872 L11.6229128,30.5588125 L26.6102968,15.5714286 L26.6102968,15.5714286 Z M4,7.85263062 C4,5.72488147 5.73635483,4 7.85263062,4 L36.1473694,4 C38.2751185,4 40,5.73635483 40,7.85263062 L40,36.1473694 C40,38.2751185 38.2636452,40 36.1473694,40 L7.85263062,40 C5.72488147,40 4,38.2636452 4,36.1473694 L4,7.85263062 L4,7.85263062 Z M6,7.33425951 C6,6.59736833 6.59662563,6 7.33425951,6 L36.6657405,6 C37.4026317,6 38,6.59662563 38,7.33425951 L38,36.6657405 C38,37.4026317 37.4033744,38 36.6657405,38 L7.33425951,38 C6.59736833,38 6,37.4033744 6,36.6657405 L6,7.33425951 L6,7.33425951 Z" id="path-1" fill="#FFFFFF"></path>
                    </g>
                    <g id="triggers" transform="translate(108.000000, 0.000000)">
                        <rect id="Rectangle-316" fill="#90AC62" x="0" y="0" width="44" height="44" rx="4"></rect>
                        <path d="M4,7.85263062 C4,5.72488147 5.73635483,4 7.85263062,4 L36.1473694,4 C38.2751185,4 40,5.73635483 40,7.85263062 L40,36.1473694 C40,38.2751185 38.2636452,40 36.1473694,40 L7.85263062,40 C5.72488147,40 4,38.2636452 4,36.1473694 L4,7.85263062 L4,7.85263062 Z M23.973737,25.8571429 L11.7024509,25.8571429 C10.2977016,25.8571429 9.14285714,27.0084106 9.14285714,28.4285714 C9.14285714,29.8586334 10.2888263,31 11.7024509,31 L23.973737,31 C24.8629612,32.5372035 26.5249882,33.5714286 28.4285714,33.5714286 C30.3647674,33.5714286 32.0510595,32.5014627 32.9284261,30.9205522 C34.0320817,30.6372253 34.8571429,29.6289516 34.8571429,28.4285714 C34.8571429,27.2184346 34.0365416,26.2150257 32.9275558,25.9350232 C32.0499448,24.354973 30.3641275,23.2857143 28.4285714,23.2857143 C26.5249882,23.2857143 24.8629612,24.3199394 23.973737,25.8571429 L23.973737,25.8571429 Z M28.4285714,32.2857143 C30.5588125,32.2857143 32.2857143,30.5588125 32.2857143,28.4285714 C32.2857143,26.2983303 30.5588125,24.5714286 28.4285714,24.5714286 C26.2983303,24.5714286 24.5714286,26.2983303 24.5714286,28.4285714 C24.5714286,30.5588125 26.2983303,32.2857143 28.4285714,32.2857143 L28.4285714,32.2857143 Z M11.0715739,13.0794478 C9.96791823,13.3627747 9.14285714,14.3710484 9.14285714,15.5714286 C9.14285714,16.7815654 9.9634584,17.7849743 11.0724442,18.0649768 C11.9500552,19.645027 13.6358725,20.7142857 15.5714286,20.7142857 C17.4750118,20.7142857 19.1370388,19.6800606 20.026263,18.1428571 L32.2975492,18.1428571 C33.7022983,18.1428571 34.8571429,16.9915894 34.8571429,15.5714286 C34.8571429,14.1413666 33.7111738,13 32.2975492,13 L20.026263,13 C19.1370388,11.4627965 17.4750118,10.4285714 15.5714286,10.4285714 C13.6352326,10.4285714 11.9489405,11.4985374 11.0715739,13.0794478 L11.0715739,13.0794478 Z M15.5714286,19.4285714 C17.7016697,19.4285714 19.4285714,17.7016697 19.4285714,15.5714286 C19.4285714,13.4411875 17.7016697,11.7142857 15.5714286,11.7142857 C13.4411875,11.7142857 11.7142857,13.4411875 11.7142857,15.5714286 C11.7142857,17.7016697 13.4411875,19.4285714 15.5714286,19.4285714 L15.5714286,19.4285714 Z" id="Shape" fill="#FFFFFF"></path>
                    </g>
                    <g id="environments" transform="translate(162.000000, 0.000000)">
                        <rect id="Rectangle-316" fill="#7B99DA" x="0" y="0" width="44" height="44" rx="4"></rect>
                        <g id="Group" transform="translate(4.000000, 8.000000)" fill="#FFFFFF">
                            <path d="M0,2.31393147 C0,1.0359824 1.03858566,0 2.32050638,0 L33.6794936,0 C34.9610739,0 36,1.04586029 36,2.31393147 L36,5.68606853 C36,6.9640176 34.9614143,8 33.6794936,8 L2.32050638,8 C1.0389261,8 0,6.9541397 0,5.68606853 L0,2.31393147 L0,2.31393147 Z M3,4 C3,3.44771525 3.44386482,3 4,3 C4.55228475,3 5,3.44386482 5,4 C5,4.55228475 4.55613518,5 4,5 C3.44771525,5 3,4.55613518 3,4 L3,4 Z M7,4 C7,3.44771525 7.44386482,3 8,3 C8.55228475,3 9,3.44386482 9,4 C9,4.55228475 8.55613518,5 8,5 C7.44771525,5 7,4.55613518 7,4 L7,4 Z M11,4 C11,3.44771525 11.4438648,3 12,3 C12.5522847,3 13,3.44386482 13,4 C13,4.55228475 12.5561352,5 12,5 C11.4477153,5 11,4.55613518 11,4 L11,4 Z M19,3.5 L32,3.5 L32,4.5 L19,4.5 L19,3.5 L19,3.5 Z" id="environments-top"></path>
                            <path d="M0,12.3139315 C0,11.0359824 1.03858566,10 2.32050638,10 L33.6794936,10 C34.9610739,10 36,11.0458603 36,12.3139315 L36,15.6860685 C36,16.9640176 34.9614143,18 33.6794936,18 L2.32050638,18 C1.0389261,18 0,16.9541397 0,15.6860685 L0,12.3139315 L0,12.3139315 Z M3,14 C3,13.4477153 3.44386482,13 4,13 C4.55228475,13 5,13.4438648 5,14 C5,14.5522847 4.55613518,15 4,15 C3.44771525,15 3,14.5561352 3,14 L3,14 Z M7,14 C7,13.4477153 7.44386482,13 8,13 C8.55228475,13 9,13.4438648 9,14 C9,14.5522847 8.55613518,15 8,15 C7.44771525,15 7,14.5561352 7,14 L7,14 Z M11,14 C11,13.4477153 11.4438648,13 12,13 C12.5522847,13 13,13.4438648 13,14 C13,14.5522847 12.5561352,15 12,15 C11.4477153,15 11,14.5561352 11,14 L11,14 Z M19,13.5 L32,13.5 L32,14.5 L19,14.5 L19,13.5 L19,13.5 Z" id="environments-middle"></path>
                            <path d="M0,22.3139315 C0,21.0359824 1.03858566,20 2.32050638,20 L33.6794936,20 C34.9610739,20 36,21.0458603 36,22.3139315 L36,25.6860685 C36,26.9640176 34.9614143,28 33.6794936,28 L2.32050638,28 C1.0389261,28 0,26.9541397 0,25.6860685 L0,22.3139315 L0,22.3139315 Z M3,24 C3,23.4477153 3.44386482,23 4,23 C4.55228475,23 5,23.4438648 5,24 C5,24.5522847 4.55613518,25 4,25 C3.44771525,25 3,24.5561352 3,24 L3,24 Z M7,24 C7,23.4477153 7.44386482,23 8,23 C8.55228475,23 9,23.4438648 9,24 C9,24.5522847 8.55613518,25 8,25 C7.44771525,25 7,24.5561352 7,24 L7,24 Z M11,24 C11,23.4477153 11.4438648,23 12,23 C12.5522847,23 13,23.4438648 13,24 C13,24.5522847 12.5561352,25 12,25 C11.4477153,25 11,24.5561352 11,24 L11,24 Z M19,23.5 L32,23.5 L32,24.5 L19,24.5 L19,23.5 L19,23.5 Z" id="environments-bottom"></path>
                        </g>
                    </g>
                    <g id="tasks" transform="translate(216.000000, 0.000000)">
                        <rect id="Rectangle-316" fill="#D8AB65" x="0" y="0" width="44" height="44" rx="4"></rect>
                        <path d="M4,10.4808336 C4,8.55842227 5.55842995,7 7.48454162,7 L36.5154584,7 C38.4399176,7 40,8.55853955 40,10.4808336 L40,34.5191664 C40,36.4415777 38.4415701,38 36.5154584,38 L7.48454162,38 C5.56008242,38 4,36.4414605 4,34.5191664 L4,10.4808336 L4,10.4808336 L4,10.4808336 Z M6,13 L38,13 L38,34.8436642 C38,35.4822908 37.4712787,36 36.8421982,36 L7.15780181,36 C6.51836553,36 6,35.4763986 6,34.8436642 L6,13 L6,13 L6,13 Z M28.5005078,16.86355 L31.1693078,19.1029391 L20.8370922,31.4163942 L18.1682922,29.1770052 L28.5005078,16.86355 L28.5005078,16.86355 L28.5005078,16.86355 Z M6,10 C6,9.44771525 6.44386482,9 7,9 C7.55228475,9 8,9.44386482 8,10 C8,10.5522848 7.55613518,11 7,11 C6.44771525,11 6,10.5561352 6,10 L6,10 L6,10 Z M10,10 C10,9.44771525 10.4438648,9 11,9 C11.5522848,9 12,9.44386482 12,10 C12,10.5522848 11.5561352,11 11,11 C10.4477152,11 10,10.5561352 10,10 L10,10 L10,10 Z M14,10 C14,9.44771525 14.4438648,9 15,9 C15.5522847,9 16,9.44386482 16,10 C16,10.5522848 15.5561352,11 15,11 C14.4477153,11 14,10.5561352 14,10 L14,10 L14,10 Z M14.9982764,22.0976438 L20.3358764,26.5764219 L18.1218302,29.2150195 L12.7842302,24.7362413 L14.9982764,22.0976438 L14.9982764,22.0976438 L14.9982764,22.0976438 Z" id="path-1" fill="#FFFFFF"></path>
                    </g>
                </g>
                <g id="Icon-Group-2" transform="translate(432.000000, 0.000000)" sketch:type="MSShapeGroup">
                    <g id="repositories" transform="translate(54.000000, 0.000000)">
                        <rect id="Rectangle-316" fill="#B84A62" x="0" y="0" width="44" height="44" rx="4"></rect>
                        <path d="M9,7.99821383 C9,6.8946308 9.89497885,6 10.9970047,6 L33.0029953,6 C34.1059106,6 35,6.89433765 35,7.99821383 L35,35.0017862 C35,36.1053692 34.1050211,37 33.0029953,37 L10.9970047,37 C9.89408944,37 9,36.1056623 9,35.0017862 L9,7.99821383 L9,7.99821383 M15,8 L33,8 L33,35 L15,35 L15,8 L15,8 M18,12 L20,12 L20,14 L18,14 L18,12 L18,12 M23,12 L25,12 L25,14 L23,14 L23,12 L23,12 M28,12 L30,12 L30,14 L28,14 L28,12 L28,12 M18,17 L20,17 L20,19 L18,19 L18,17 L18,17 M23,17 L25,17 L25,19 L23,19 L23,17 L23,17 M28,17 L30,17 L30,19 L28,19 L28,17 L28,17 M18,22 L20,22 L20,24 L18,24 L18,22 L18,22 M23,22 L25,22 L25,24 L23,24 L23,22 L23,22 M28,22 L30,22 L30,24 L28,24 L28,22 L28,22 M21,37 L21,42 L17.9979594,39.5 L15,42 L15,37 L21,37" id="Shape" fill="#FFFFFF"></path>
                    </g>
                    <g id="outputs">
                        <rect id="Rectangle-316" fill="#BA8AB8" x="0" y="0" width="44" height="44" rx="4"></rect>
                        <path d="M26.6102968,15.5714286 L15.5714286,15.5714286 L15.5714286,13 L31,13 L31,14.2857143 L31,28.4285714 L28.4285714,28.4285714 L28.4285714,17.3897032 L13.4411875,32.3770872 L11.6229128,30.5588125 L26.6102968,15.5714286 L26.6102968,15.5714286 Z M4,7.85263062 C4,5.72488147 5.73635483,4 7.85263062,4 L36.1473694,4 C38.2751185,4 40,5.73635483 40,7.85263062 L40,36.1473694 C40,38.2751185 38.2636452,40 36.1473694,40 L7.85263062,40 C5.72488147,40 4,38.2636452 4,36.1473694 L4,7.85263062 L4,7.85263062 Z M6,7.33425951 C6,6.59736833 6.59662563,6 7.33425951,6 L36.6657405,6 C37.4026317,6 38,6.59662563 38,7.33425951 L38,36.6657405 C38,37.4026317 37.4033744,38 36.6657405,38 L7.33425951,38 C6.59736833,38 6,37.4033744 6,36.6657405 L6,7.33425951 L6,7.33425951 Z" id="path-1" fill="#FFFFFF"></path>
                    </g>
                    <g id="triggers" transform="translate(108.000000, 0.000000)">
                        <rect id="Rectangle-316" fill="#90AC62" x="0" y="0" width="44" height="44" rx="4"></rect>
                        <path d="M4,7.85263062 C4,5.72488147 5.73635483,4 7.85263062,4 L36.1473694,4 C38.2751185,4 40,5.73635483 40,7.85263062 L40,36.1473694 C40,38.2751185 38.2636452,40 36.1473694,40 L7.85263062,40 C5.72488147,40 4,38.2636452 4,36.1473694 L4,7.85263062 L4,7.85263062 Z M23.973737,25.8571429 L11.7024509,25.8571429 C10.2977016,25.8571429 9.14285714,27.0084106 9.14285714,28.4285714 C9.14285714,29.8586334 10.2888263,31 11.7024509,31 L23.973737,31 C24.8629612,32.5372035 26.5249882,33.5714286 28.4285714,33.5714286 C30.3647674,33.5714286 32.0510595,32.5014627 32.9284261,30.9205522 C34.0320817,30.6372253 34.8571429,29.6289516 34.8571429,28.4285714 C34.8571429,27.2184346 34.0365416,26.2150257 32.9275558,25.9350232 C32.0499448,24.354973 30.3641275,23.2857143 28.4285714,23.2857143 C26.5249882,23.2857143 24.8629612,24.3199394 23.973737,25.8571429 L23.973737,25.8571429 Z M28.4285714,32.2857143 C30.5588125,32.2857143 32.2857143,30.5588125 32.2857143,28.4285714 C32.2857143,26.2983303 30.5588125,24.5714286 28.4285714,24.5714286 C26.2983303,24.5714286 24.5714286,26.2983303 24.5714286,28.4285714 C24.5714286,30.5588125 26.2983303,32.2857143 28.4285714,32.2857143 L28.4285714,32.2857143 Z M11.0715739,13.0794478 C9.96791823,13.3627747 9.14285714,14.3710484 9.14285714,15.5714286 C9.14285714,16.7815654 9.9634584,17.7849743 11.0724442,18.0649768 C11.9500552,19.645027 13.6358725,20.7142857 15.5714286,20.7142857 C17.4750118,20.7142857 19.1370388,19.6800606 20.026263,18.1428571 L32.2975492,18.1428571 C33.7022983,18.1428571 34.8571429,16.9915894 34.8571429,15.5714286 C34.8571429,14.1413666 33.7111738,13 32.2975492,13 L20.026263,13 C19.1370388,11.4627965 17.4750118,10.4285714 15.5714286,10.4285714 C13.6352326,10.4285714 11.9489405,11.4985374 11.0715739,13.0794478 L11.0715739,13.0794478 Z M15.5714286,19.4285714 C17.7016697,19.4285714 19.4285714,17.7016697 19.4285714,15.5714286 C19.4285714,13.4411875 17.7016697,11.7142857 15.5714286,11.7142857 C13.4411875,11.7142857 11.7142857,13.4411875 11.7142857,15.5714286 C11.7142857,17.7016697 13.4411875,19.4285714 15.5714286,19.4285714 L15.5714286,19.4285714 Z" id="Shape" fill="#FFFFFF"></path>
                    </g>
                    <g id="environments" transform="translate(162.000000, 0.000000)">
                        <rect id="Rectangle-316" fill="#7B99DA" x="0" y="0" width="44" height="44" rx="4"></rect>
                        <g id="Group" transform="translate(4.000000, 8.000000)" fill="#FFFFFF">
                            <path d="M0,2.31393147 C0,1.0359824 1.03858566,0 2.32050638,0 L33.6794936,0 C34.9610739,0 36,1.04586029 36,2.31393147 L36,5.68606853 C36,6.9640176 34.9614143,8 33.6794936,8 L2.32050638,8 C1.0389261,8 0,6.9541397 0,5.68606853 L0,2.31393147 L0,2.31393147 Z M3,4 C3,3.44771525 3.44386482,3 4,3 C4.55228475,3 5,3.44386482 5,4 C5,4.55228475 4.55613518,5 4,5 C3.44771525,5 3,4.55613518 3,4 L3,4 Z M7,4 C7,3.44771525 7.44386482,3 8,3 C8.55228475,3 9,3.44386482 9,4 C9,4.55228475 8.55613518,5 8,5 C7.44771525,5 7,4.55613518 7,4 L7,4 Z M11,4 C11,3.44771525 11.4438648,3 12,3 C12.5522847,3 13,3.44386482 13,4 C13,4.55228475 12.5561352,5 12,5 C11.4477153,5 11,4.55613518 11,4 L11,4 Z M19,3.5 L32,3.5 L32,4.5 L19,4.5 L19,3.5 L19,3.5 Z" id="environments-top"></path>
                            <path d="M0,12.3139315 C0,11.0359824 1.03858566,10 2.32050638,10 L33.6794936,10 C34.9610739,10 36,11.0458603 36,12.3139315 L36,15.6860685 C36,16.9640176 34.9614143,18 33.6794936,18 L2.32050638,18 C1.0389261,18 0,16.9541397 0,15.6860685 L0,12.3139315 L0,12.3139315 Z M3,14 C3,13.4477153 3.44386482,13 4,13 C4.55228475,13 5,13.4438648 5,14 C5,14.5522847 4.55613518,15 4,15 C3.44771525,15 3,14.5561352 3,14 L3,14 Z M7,14 C7,13.4477153 7.44386482,13 8,13 C8.55228475,13 9,13.4438648 9,14 C9,14.5522847 8.55613518,15 8,15 C7.44771525,15 7,14.5561352 7,14 L7,14 Z M11,14 C11,13.4477153 11.4438648,13 12,13 C12.5522847,13 13,13.4438648 13,14 C13,14.5522847 12.5561352,15 12,15 C11.4477153,15 11,14.5561352 11,14 L11,14 Z M19,13.5 L32,13.5 L32,14.5 L19,14.5 L19,13.5 L19,13.5 Z" id="environments-middle"></path>
                            <path d="M0,22.3139315 C0,21.0359824 1.03858566,20 2.32050638,20 L33.6794936,20 C34.9610739,20 36,21.0458603 36,22.3139315 L36,25.6860685 C36,26.9640176 34.9614143,28 33.6794936,28 L2.32050638,28 C1.0389261,28 0,26.9541397 0,25.6860685 L0,22.3139315 L0,22.3139315 Z M3,24 C3,23.4477153 3.44386482,23 4,23 C4.55228475,23 5,23.4438648 5,24 C5,24.5522847 4.55613518,25 4,25 C3.44771525,25 3,24.5561352 3,24 L3,24 Z M7,24 C7,23.4477153 7.44386482,23 8,23 C8.55228475,23 9,23.4438648 9,24 C9,24.5522847 8.55613518,25 8,25 C7.44771525,25 7,24.5561352 7,24 L7,24 Z M11,24 C11,23.4477153 11.4438648,23 12,23 C12.5522847,23 13,23.4438648 13,24 C13,24.5522847 12.5561352,25 12,25 C11.4477153,25 11,24.5561352 11,24 L11,24 Z M19,23.5 L32,23.5 L32,24.5 L19,24.5 L19,23.5 L19,23.5 Z" id="environments-bottom"></path>
                        </g>
                    </g>
                    <g id="tasks" transform="translate(216.000000, 0.000000)">
                        <rect id="Rectangle-316" fill="#D8AB65" x="0" y="0" width="44" height="44" rx="4"></rect>
                        <path d="M4,10.4808336 C4,8.55842227 5.55842995,7 7.48454162,7 L36.5154584,7 C38.4399176,7 40,8.55853955 40,10.4808336 L40,34.5191664 C40,36.4415777 38.4415701,38 36.5154584,38 L7.48454162,38 C5.56008242,38 4,36.4414605 4,34.5191664 L4,10.4808336 L4,10.4808336 L4,10.4808336 Z M6,13 L38,13 L38,34.8436642 C38,35.4822908 37.4712787,36 36.8421982,36 L7.15780181,36 C6.51836553,36 6,35.4763986 6,34.8436642 L6,13 L6,13 L6,13 Z M28.5005078,16.86355 L31.1693078,19.1029391 L20.8370922,31.4163942 L18.1682922,29.1770052 L28.5005078,16.86355 L28.5005078,16.86355 L28.5005078,16.86355 Z M6,10 C6,9.44771525 6.44386482,9 7,9 C7.55228475,9 8,9.44386482 8,10 C8,10.5522848 7.55613518,11 7,11 C6.44771525,11 6,10.5561352 6,10 L6,10 L6,10 Z M10,10 C10,9.44771525 10.4438648,9 11,9 C11.5522848,9 12,9.44386482 12,10 C12,10.5522848 11.5561352,11 11,11 C10.4477152,11 10,10.5561352 10,10 L10,10 L10,10 Z M14,10 C14,9.44771525 14.4438648,9 15,9 C15.5522847,9 16,9.44386482 16,10 C16,10.5522848 15.5561352,11 15,11 C14.4477153,11 14,10.5561352 14,10 L14,10 L14,10 Z M14.9982764,22.0976438 L20.3358764,26.5764219 L18.1218302,29.2150195 L12.7842302,24.7362413 L14.9982764,22.0976438 L14.9982764,22.0976438 L14.9982764,22.0976438 Z" id="path-1" fill="#FFFFFF"></path>
                    </g>
                </g>
                <g id="Icon-Group-3" transform="translate(270.000000, 54.000000)" sketch:type="MSShapeGroup">
                    <g id="repositories" transform="translate(54.000000, 0.000000)">
                        <rect id="Rectangle-316" fill="#B84A62" x="0" y="0" width="44" height="44" rx="4"></rect>
                        <path d="M9,7.99821383 C9,6.8946308 9.89497885,6 10.9970047,6 L33.0029953,6 C34.1059106,6 35,6.89433765 35,7.99821383 L35,35.0017862 C35,36.1053692 34.1050211,37 33.0029953,37 L10.9970047,37 C9.89408944,37 9,36.1056623 9,35.0017862 L9,7.99821383 L9,7.99821383 M15,8 L33,8 L33,35 L15,35 L15,8 L15,8 M18,12 L20,12 L20,14 L18,14 L18,12 L18,12 M23,12 L25,12 L25,14 L23,14 L23,12 L23,12 M28,12 L30,12 L30,14 L28,14 L28,12 L28,12 M18,17 L20,17 L20,19 L18,19 L18,17 L18,17 M23,17 L25,17 L25,19 L23,19 L23,17 L23,17 M28,17 L30,17 L30,19 L28,19 L28,17 L28,17 M18,22 L20,22 L20,24 L18,24 L18,22 L18,22 M23,22 L25,22 L25,24 L23,24 L23,22 L23,22 M28,22 L30,22 L30,24 L28,24 L28,22 L28,22 M21,37 L21,42 L17.9979594,39.5 L15,42 L15,37 L21,37" id="Shape" fill="#FFFFFF"></path>
                    </g>
                    <g id="outputs">
                        <rect id="Rectangle-316" fill="#BA8AB8" x="0" y="0" width="44" height="44" rx="4"></rect>
                        <path d="M26.6102968,15.5714286 L15.5714286,15.5714286 L15.5714286,13 L31,13 L31,14.2857143 L31,28.4285714 L28.4285714,28.4285714 L28.4285714,17.3897032 L13.4411875,32.3770872 L11.6229128,30.5588125 L26.6102968,15.5714286 L26.6102968,15.5714286 Z M4,7.85263062 C4,5.72488147 5.73635483,4 7.85263062,4 L36.1473694,4 C38.2751185,4 40,5.73635483 40,7.85263062 L40,36.1473694 C40,38.2751185 38.2636452,40 36.1473694,40 L7.85263062,40 C5.72488147,40 4,38.2636452 4,36.1473694 L4,7.85263062 L4,7.85263062 Z M6,7.33425951 C6,6.59736833 6.59662563,6 7.33425951,6 L36.6657405,6 C37.4026317,6 38,6.59662563 38,7.33425951 L38,36.6657405 C38,37.4026317 37.4033744,38 36.6657405,38 L7.33425951,38 C6.59736833,38 6,37.4033744 6,36.6657405 L6,7.33425951 L6,7.33425951 Z" id="path-1" fill="#FFFFFF"></path>
                    </g>
                    <g id="triggers" transform="translate(108.000000, 0.000000)">
                        <rect id="Rectangle-316" fill="#90AC62" x="0" y="0" width="44" height="44" rx="4"></rect>
                        <path d="M4,7.85263062 C4,5.72488147 5.73635483,4 7.85263062,4 L36.1473694,4 C38.2751185,4 40,5.73635483 40,7.85263062 L40,36.1473694 C40,38.2751185 38.2636452,40 36.1473694,40 L7.85263062,40 C5.72488147,40 4,38.2636452 4,36.1473694 L4,7.85263062 L4,7.85263062 Z M23.973737,25.8571429 L11.7024509,25.8571429 C10.2977016,25.8571429 9.14285714,27.0084106 9.14285714,28.4285714 C9.14285714,29.8586334 10.2888263,31 11.7024509,31 L23.973737,31 C24.8629612,32.5372035 26.5249882,33.5714286 28.4285714,33.5714286 C30.3647674,33.5714286 32.0510595,32.5014627 32.9284261,30.9205522 C34.0320817,30.6372253 34.8571429,29.6289516 34.8571429,28.4285714 C34.8571429,27.2184346 34.0365416,26.2150257 32.9275558,25.9350232 C32.0499448,24.354973 30.3641275,23.2857143 28.4285714,23.2857143 C26.5249882,23.2857143 24.8629612,24.3199394 23.973737,25.8571429 L23.973737,25.8571429 Z M28.4285714,32.2857143 C30.5588125,32.2857143 32.2857143,30.5588125 32.2857143,28.4285714 C32.2857143,26.2983303 30.5588125,24.5714286 28.4285714,24.5714286 C26.2983303,24.5714286 24.5714286,26.2983303 24.5714286,28.4285714 C24.5714286,30.5588125 26.2983303,32.2857143 28.4285714,32.2857143 L28.4285714,32.2857143 Z M11.0715739,13.0794478 C9.96791823,13.3627747 9.14285714,14.3710484 9.14285714,15.5714286 C9.14285714,16.7815654 9.9634584,17.7849743 11.0724442,18.0649768 C11.9500552,19.645027 13.6358725,20.7142857 15.5714286,20.7142857 C17.4750118,20.7142857 19.1370388,19.6800606 20.026263,18.1428571 L32.2975492,18.1428571 C33.7022983,18.1428571 34.8571429,16.9915894 34.8571429,15.5714286 C34.8571429,14.1413666 33.7111738,13 32.2975492,13 L20.026263,13 C19.1370388,11.4627965 17.4750118,10.4285714 15.5714286,10.4285714 C13.6352326,10.4285714 11.9489405,11.4985374 11.0715739,13.0794478 L11.0715739,13.0794478 Z M15.5714286,19.4285714 C17.7016697,19.4285714 19.4285714,17.7016697 19.4285714,15.5714286 C19.4285714,13.4411875 17.7016697,11.7142857 15.5714286,11.7142857 C13.4411875,11.7142857 11.7142857,13.4411875 11.7142857,15.5714286 C11.7142857,17.7016697 13.4411875,19.4285714 15.5714286,19.4285714 L15.5714286,19.4285714 Z" id="Shape" fill="#FFFFFF"></path>
                    </g>
                    <g id="environments" transform="translate(162.000000, 0.000000)">
                        <rect id="Rectangle-316" fill="#7B99DA" x="0" y="0" width="44" height="44" rx="4"></rect>
                        <g id="Group" transform="translate(4.000000, 8.000000)" fill="#FFFFFF">
                            <path d="M0,2.31393147 C0,1.0359824 1.03858566,0 2.32050638,0 L33.6794936,0 C34.9610739,0 36,1.04586029 36,2.31393147 L36,5.68606853 C36,6.9640176 34.9614143,8 33.6794936,8 L2.32050638,8 C1.0389261,8 0,6.9541397 0,5.68606853 L0,2.31393147 L0,2.31393147 Z M3,4 C3,3.44771525 3.44386482,3 4,3 C4.55228475,3 5,3.44386482 5,4 C5,4.55228475 4.55613518,5 4,5 C3.44771525,5 3,4.55613518 3,4 L3,4 Z M7,4 C7,3.44771525 7.44386482,3 8,3 C8.55228475,3 9,3.44386482 9,4 C9,4.55228475 8.55613518,5 8,5 C7.44771525,5 7,4.55613518 7,4 L7,4 Z M11,4 C11,3.44771525 11.4438648,3 12,3 C12.5522847,3 13,3.44386482 13,4 C13,4.55228475 12.5561352,5 12,5 C11.4477153,5 11,4.55613518 11,4 L11,4 Z M19,3.5 L32,3.5 L32,4.5 L19,4.5 L19,3.5 L19,3.5 Z" id="environments-top"></path>
                            <path d="M0,12.3139315 C0,11.0359824 1.03858566,10 2.32050638,10 L33.6794936,10 C34.9610739,10 36,11.0458603 36,12.3139315 L36,15.6860685 C36,16.9640176 34.9614143,18 33.6794936,18 L2.32050638,18 C1.0389261,18 0,16.9541397 0,15.6860685 L0,12.3139315 L0,12.3139315 Z M3,14 C3,13.4477153 3.44386482,13 4,13 C4.55228475,13 5,13.4438648 5,14 C5,14.5522847 4.55613518,15 4,15 C3.44771525,15 3,14.5561352 3,14 L3,14 Z M7,14 C7,13.4477153 7.44386482,13 8,13 C8.55228475,13 9,13.4438648 9,14 C9,14.5522847 8.55613518,15 8,15 C7.44771525,15 7,14.5561352 7,14 L7,14 Z M11,14 C11,13.4477153 11.4438648,13 12,13 C12.5522847,13 13,13.4438648 13,14 C13,14.5522847 12.5561352,15 12,15 C11.4477153,15 11,14.5561352 11,14 L11,14 Z M19,13.5 L32,13.5 L32,14.5 L19,14.5 L19,13.5 L19,13.5 Z" id="environments-middle"></path>
                            <path d="M0,22.3139315 C0,21.0359824 1.03858566,20 2.32050638,20 L33.6794936,20 C34.9610739,20 36,21.0458603 36,22.3139315 L36,25.6860685 C36,26.9640176 34.9614143,28 33.6794936,28 L2.32050638,28 C1.0389261,28 0,26.9541397 0,25.6860685 L0,22.3139315 L0,22.3139315 Z M3,24 C3,23.4477153 3.44386482,23 4,23 C4.55228475,23 5,23.4438648 5,24 C5,24.5522847 4.55613518,25 4,25 C3.44771525,25 3,24.5561352 3,24 L3,24 Z M7,24 C7,23.4477153 7.44386482,23 8,23 C8.55228475,23 9,23.4438648 9,24 C9,24.5522847 8.55613518,25 8,25 C7.44771525,25 7,24.5561352 7,24 L7,24 Z M11,24 C11,23.4477153 11.4438648,23 12,23 C12.5522847,23 13,23.4438648 13,24 C13,24.5522847 12.5561352,25 12,25 C11.4477153,25 11,24.5561352 11,24 L11,24 Z M19,23.5 L32,23.5 L32,24.5 L19,24.5 L19,23.5 L19,23.5 Z" id="environments-bottom"></path>
                        </g>
                    </g>
                    <g id="tasks" transform="translate(216.000000, 0.000000)">
                        <rect id="Rectangle-316" fill="#D8AB65" x="0" y="0" width="44" height="44" rx="4"></rect>
                        <path d="M4,10.4808336 C4,8.55842227 5.55842995,7 7.48454162,7 L36.5154584,7 C38.4399176,7 40,8.55853955 40,10.4808336 L40,34.5191664 C40,36.4415777 38.4415701,38 36.5154584,38 L7.48454162,38 C5.56008242,38 4,36.4414605 4,34.5191664 L4,10.4808336 L4,10.4808336 L4,10.4808336 Z M6,13 L38,13 L38,34.8436642 C38,35.4822908 37.4712787,36 36.8421982,36 L7.15780181,36 C6.51836553,36 6,35.4763986 6,34.8436642 L6,13 L6,13 L6,13 Z M28.5005078,16.86355 L31.1693078,19.1029391 L20.8370922,31.4163942 L18.1682922,29.1770052 L28.5005078,16.86355 L28.5005078,16.86355 L28.5005078,16.86355 Z M6,10 C6,9.44771525 6.44386482,9 7,9 C7.55228475,9 8,9.44386482 8,10 C8,10.5522848 7.55613518,11 7,11 C6.44771525,11 6,10.5561352 6,10 L6,10 L6,10 Z M10,10 C10,9.44771525 10.4438648,9 11,9 C11.5522848,9 12,9.44386482 12,10 C12,10.5522848 11.5561352,11 11,11 C10.4477152,11 10,10.5561352 10,10 L10,10 L10,10 Z M14,10 C14,9.44771525 14.4438648,9 15,9 C15.5522847,9 16,9.44386482 16,10 C16,10.5522848 15.5561352,11 15,11 C14.4477153,11 14,10.5561352 14,10 L14,10 L14,10 Z M14.9982764,22.0976438 L20.3358764,26.5764219 L18.1218302,29.2150195 L12.7842302,24.7362413 L14.9982764,22.0976438 L14.9982764,22.0976438 L14.9982764,22.0976438 Z" id="path-1" fill="#FFFFFF"></path>
                    </g>
                </g>
                <g id="Icon-Group-4" transform="translate(540.000000, 54.000000)" sketch:type="MSShapeGroup">
                    <g id="repositories" transform="translate(54.000000, 0.000000)">
                        <rect id="Rectangle-316" fill="#B84A62" x="0" y="0" width="44" height="44" rx="4"></rect>
                        <path d="M9,7.99821383 C9,6.8946308 9.89497885,6 10.9970047,6 L33.0029953,6 C34.1059106,6 35,6.89433765 35,7.99821383 L35,35.0017862 C35,36.1053692 34.1050211,37 33.0029953,37 L10.9970047,37 C9.89408944,37 9,36.1056623 9,35.0017862 L9,7.99821383 L9,7.99821383 M15,8 L33,8 L33,35 L15,35 L15,8 L15,8 M18,12 L20,12 L20,14 L18,14 L18,12 L18,12 M23,12 L25,12 L25,14 L23,14 L23,12 L23,12 M28,12 L30,12 L30,14 L28,14 L28,12 L28,12 M18,17 L20,17 L20,19 L18,19 L18,17 L18,17 M23,17 L25,17 L25,19 L23,19 L23,17 L23,17 M28,17 L30,17 L30,19 L28,19 L28,17 L28,17 M18,22 L20,22 L20,24 L18,24 L18,22 L18,22 M23,22 L25,22 L25,24 L23,24 L23,22 L23,22 M28,22 L30,22 L30,24 L28,24 L28,22 L28,22 M21,37 L21,42 L17.9979594,39.5 L15,42 L15,37 L21,37" id="Shape" fill="#FFFFFF"></path>
                    </g>
                    <g id="outputs">
                        <rect id="Rectangle-316" fill="#BA8AB8" x="0" y="0" width="44" height="44" rx="4"></rect>
                        <path d="M26.6102968,15.5714286 L15.5714286,15.5714286 L15.5714286,13 L31,13 L31,14.2857143 L31,28.4285714 L28.4285714,28.4285714 L28.4285714,17.3897032 L13.4411875,32.3770872 L11.6229128,30.5588125 L26.6102968,15.5714286 L26.6102968,15.5714286 Z M4,7.85263062 C4,5.72488147 5.73635483,4 7.85263062,4 L36.1473694,4 C38.2751185,4 40,5.73635483 40,7.85263062 L40,36.1473694 C40,38.2751185 38.2636452,40 36.1473694,40 L7.85263062,40 C5.72488147,40 4,38.2636452 4,36.1473694 L4,7.85263062 L4,7.85263062 Z M6,7.33425951 C6,6.59736833 6.59662563,6 7.33425951,6 L36.6657405,6 C37.4026317,6 38,6.59662563 38,7.33425951 L38,36.6657405 C38,37.4026317 37.4033744,38 36.6657405,38 L7.33425951,38 C6.59736833,38 6,37.4033744 6,36.6657405 L6,7.33425951 L6,7.33425951 Z" id="path-1" fill="#FFFFFF"></path>
                    </g>
                    <g id="triggers" transform="translate(108.000000, 0.000000)">
                        <rect id="Rectangle-316" fill="#90AC62" x="0" y="0" width="44" height="44" rx="4"></rect>
                        <path d="M4,7.85263062 C4,5.72488147 5.73635483,4 7.85263062,4 L36.1473694,4 C38.2751185,4 40,5.73635483 40,7.85263062 L40,36.1473694 C40,38.2751185 38.2636452,40 36.1473694,40 L7.85263062,40 C5.72488147,40 4,38.2636452 4,36.1473694 L4,7.85263062 L4,7.85263062 Z M23.973737,25.8571429 L11.7024509,25.8571429 C10.2977016,25.8571429 9.14285714,27.0084106 9.14285714,28.4285714 C9.14285714,29.8586334 10.2888263,31 11.7024509,31 L23.973737,31 C24.8629612,32.5372035 26.5249882,33.5714286 28.4285714,33.5714286 C30.3647674,33.5714286 32.0510595,32.5014627 32.9284261,30.9205522 C34.0320817,30.6372253 34.8571429,29.6289516 34.8571429,28.4285714 C34.8571429,27.2184346 34.0365416,26.2150257 32.9275558,25.9350232 C32.0499448,24.354973 30.3641275,23.2857143 28.4285714,23.2857143 C26.5249882,23.2857143 24.8629612,24.3199394 23.973737,25.8571429 L23.973737,25.8571429 Z M28.4285714,32.2857143 C30.5588125,32.2857143 32.2857143,30.5588125 32.2857143,28.4285714 C32.2857143,26.2983303 30.5588125,24.5714286 28.4285714,24.5714286 C26.2983303,24.5714286 24.5714286,26.2983303 24.5714286,28.4285714 C24.5714286,30.5588125 26.2983303,32.2857143 28.4285714,32.2857143 L28.4285714,32.2857143 Z M11.0715739,13.0794478 C9.96791823,13.3627747 9.14285714,14.3710484 9.14285714,15.5714286 C9.14285714,16.7815654 9.9634584,17.7849743 11.0724442,18.0649768 C11.9500552,19.645027 13.6358725,20.7142857 15.5714286,20.7142857 C17.4750118,20.7142857 19.1370388,19.6800606 20.026263,18.1428571 L32.2975492,18.1428571 C33.7022983,18.1428571 34.8571429,16.9915894 34.8571429,15.5714286 C34.8571429,14.1413666 33.7111738,13 32.2975492,13 L20.026263,13 C19.1370388,11.4627965 17.4750118,10.4285714 15.5714286,10.4285714 C13.6352326,10.4285714 11.9489405,11.4985374 11.0715739,13.0794478 L11.0715739,13.0794478 Z M15.5714286,19.4285714 C17.7016697,19.4285714 19.4285714,17.7016697 19.4285714,15.5714286 C19.4285714,13.4411875 17.7016697,11.7142857 15.5714286,11.7142857 C13.4411875,11.7142857 11.7142857,13.4411875 11.7142857,15.5714286 C11.7142857,17.7016697 13.4411875,19.4285714 15.5714286,19.4285714 L15.5714286,19.4285714 Z" id="Shape" fill="#FFFFFF"></path>
                    </g>
                </g>
                <g id="Icon-Group-5" transform="translate(0.000000, 54.000000)" sketch:type="MSShapeGroup">
                    <g id="environments" transform="translate(162.000000, 0.000000)">
                        <rect id="Rectangle-316" fill="#7B99DA" x="0" y="0" width="44" height="44" rx="4"></rect>
                        <g id="Group" transform="translate(4.000000, 8.000000)" fill="#FFFFFF">
                            <path d="M0,2.31393147 C0,1.0359824 1.03858566,0 2.32050638,0 L33.6794936,0 C34.9610739,0 36,1.04586029 36,2.31393147 L36,5.68606853 C36,6.9640176 34.9614143,8 33.6794936,8 L2.32050638,8 C1.0389261,8 0,6.9541397 0,5.68606853 L0,2.31393147 L0,2.31393147 Z M3,4 C3,3.44771525 3.44386482,3 4,3 C4.55228475,3 5,3.44386482 5,4 C5,4.55228475 4.55613518,5 4,5 C3.44771525,5 3,4.55613518 3,4 L3,4 Z M7,4 C7,3.44771525 7.44386482,3 8,3 C8.55228475,3 9,3.44386482 9,4 C9,4.55228475 8.55613518,5 8,5 C7.44771525,5 7,4.55613518 7,4 L7,4 Z M11,4 C11,3.44771525 11.4438648,3 12,3 C12.5522847,3 13,3.44386482 13,4 C13,4.55228475 12.5561352,5 12,5 C11.4477153,5 11,4.55613518 11,4 L11,4 Z M19,3.5 L32,3.5 L32,4.5 L19,4.5 L19,3.5 L19,3.5 Z" id="environments-top"></path>
                            <path d="M0,12.3139315 C0,11.0359824 1.03858566,10 2.32050638,10 L33.6794936,10 C34.9610739,10 36,11.0458603 36,12.3139315 L36,15.6860685 C36,16.9640176 34.9614143,18 33.6794936,18 L2.32050638,18 C1.0389261,18 0,16.9541397 0,15.6860685 L0,12.3139315 L0,12.3139315 Z M3,14 C3,13.4477153 3.44386482,13 4,13 C4.55228475,13 5,13.4438648 5,14 C5,14.5522847 4.55613518,15 4,15 C3.44771525,15 3,14.5561352 3,14 L3,14 Z M7,14 C7,13.4477153 7.44386482,13 8,13 C8.55228475,13 9,13.4438648 9,14 C9,14.5522847 8.55613518,15 8,15 C7.44771525,15 7,14.5561352 7,14 L7,14 Z M11,14 C11,13.4477153 11.4438648,13 12,13 C12.5522847,13 13,13.4438648 13,14 C13,14.5522847 12.5561352,15 12,15 C11.4477153,15 11,14.5561352 11,14 L11,14 Z M19,13.5 L32,13.5 L32,14.5 L19,14.5 L19,13.5 L19,13.5 Z" id="environments-middle"></path>
                            <path d="M0,22.3139315 C0,21.0359824 1.03858566,20 2.32050638,20 L33.6794936,20 C34.9610739,20 36,21.0458603 36,22.3139315 L36,25.6860685 C36,26.9640176 34.9614143,28 33.6794936,28 L2.32050638,28 C1.0389261,28 0,26.9541397 0,25.6860685 L0,22.3139315 L0,22.3139315 Z M3,24 C3,23.4477153 3.44386482,23 4,23 C4.55228475,23 5,23.4438648 5,24 C5,24.5522847 4.55613518,25 4,25 C3.44771525,25 3,24.5561352 3,24 L3,24 Z M7,24 C7,23.4477153 7.44386482,23 8,23 C8.55228475,23 9,23.4438648 9,24 C9,24.5522847 8.55613518,25 8,25 C7.44771525,25 7,24.5561352 7,24 L7,24 Z M11,24 C11,23.4477153 11.4438648,23 12,23 C12.5522847,23 13,23.4438648 13,24 C13,24.5522847 12.5561352,25 12,25 C11.4477153,25 11,24.5561352 11,24 L11,24 Z M19,23.5 L32,23.5 L32,24.5 L19,24.5 L19,23.5 L19,23.5 Z" id="environments-bottom"></path>
                        </g>
                    </g>
                    <g id="tasks" transform="translate(216.000000, 0.000000)">
                        <rect id="Rectangle-316" fill="#D8AB65" x="0" y="0" width="44" height="44" rx="4"></rect>
                        <path d="M4,10.4808336 C4,8.55842227 5.55842995,7 7.48454162,7 L36.5154584,7 C38.4399176,7 40,8.55853955 40,10.4808336 L40,34.5191664 C40,36.4415777 38.4415701,38 36.5154584,38 L7.48454162,38 C5.56008242,38 4,36.4414605 4,34.5191664 L4,10.4808336 L4,10.4808336 L4,10.4808336 Z M6,13 L38,13 L38,34.8436642 C38,35.4822908 37.4712787,36 36.8421982,36 L7.15780181,36 C6.51836553,36 6,35.4763986 6,34.8436642 L6,13 L6,13 L6,13 Z M28.5005078,16.86355 L31.1693078,19.1029391 L20.8370922,31.4163942 L18.1682922,29.1770052 L28.5005078,16.86355 L28.5005078,16.86355 L28.5005078,16.86355 Z M6,10 C6,9.44771525 6.44386482,9 7,9 C7.55228475,9 8,9.44386482 8,10 C8,10.5522848 7.55613518,11 7,11 C6.44771525,11 6,10.5561352 6,10 L6,10 L6,10 Z M10,10 C10,9.44771525 10.4438648,9 11,9 C11.5522848,9 12,9.44386482 12,10 C12,10.5522848 11.5561352,11 11,11 C10.4477152,11 10,10.5561352 10,10 L10,10 L10,10 Z M14,10 C14,9.44771525 14.4438648,9 15,9 C15.5522847,9 16,9.44386482 16,10 C16,10.5522848 15.5561352,11 15,11 C14.4477153,11 14,10.5561352 14,10 L14,10 L14,10 Z M14.9982764,22.0976438 L20.3358764,26.5764219 L18.1218302,29.2150195 L12.7842302,24.7362413 L14.9982764,22.0976438 L14.9982764,22.0976438 L14.9982764,22.0976438 Z" id="path-1" fill="#FFFFFF"></path>
                    </g>
                </g>
                <g id="Icon-Group-6" transform="translate(378.000000, 108.000000)" sketch:type="MSShapeGroup">
                    <g id="repositories" transform="translate(54.000000, 0.000000)">
                        <rect id="Rectangle-316" fill="#B84A62" x="0" y="0" width="44" height="44" rx="4"></rect>
                        <path d="M9,7.99821383 C9,6.8946308 9.89497885,6 10.9970047,6 L33.0029953,6 C34.1059106,6 35,6.89433765 35,7.99821383 L35,35.0017862 C35,36.1053692 34.1050211,37 33.0029953,37 L10.9970047,37 C9.89408944,37 9,36.1056623 9,35.0017862 L9,7.99821383 L9,7.99821383 M15,8 L33,8 L33,35 L15,35 L15,8 L15,8 M18,12 L20,12 L20,14 L18,14 L18,12 L18,12 M23,12 L25,12 L25,14 L23,14 L23,12 L23,12 M28,12 L30,12 L30,14 L28,14 L28,12 L28,12 M18,17 L20,17 L20,19 L18,19 L18,17 L18,17 M23,17 L25,17 L25,19 L23,19 L23,17 L23,17 M28,17 L30,17 L30,19 L28,19 L28,17 L28,17 M18,22 L20,22 L20,24 L18,24 L18,22 L18,22 M23,22 L25,22 L25,24 L23,24 L23,22 L23,22 M28,22 L30,22 L30,24 L28,24 L28,22 L28,22 M21,37 L21,42 L17.9979594,39.5 L15,42 L15,37 L21,37" id="Shape" fill="#FFFFFF"></path>
                    </g>
                    <g id="outputs">
                        <rect id="Rectangle-316" fill="#BA8AB8" x="0" y="0" width="44" height="44" rx="4"></rect>
                        <path d="M26.6102968,15.5714286 L15.5714286,15.5714286 L15.5714286,13 L31,13 L31,14.2857143 L31,28.4285714 L28.4285714,28.4285714 L28.4285714,17.3897032 L13.4411875,32.3770872 L11.6229128,30.5588125 L26.6102968,15.5714286 L26.6102968,15.5714286 Z M4,7.85263062 C4,5.72488147 5.73635483,4 7.85263062,4 L36.1473694,4 C38.2751185,4 40,5.73635483 40,7.85263062 L40,36.1473694 C40,38.2751185 38.2636452,40 36.1473694,40 L7.85263062,40 C5.72488147,40 4,38.2636452 4,36.1473694 L4,7.85263062 L4,7.85263062 Z M6,7.33425951 C6,6.59736833 6.59662563,6 7.33425951,6 L36.6657405,6 C37.4026317,6 38,6.59662563 38,7.33425951 L38,36.6657405 C38,37.4026317 37.4033744,38 36.6657405,38 L7.33425951,38 C6.59736833,38 6,37.4033744 6,36.6657405 L6,7.33425951 L6,7.33425951 Z" id="path-1" fill="#FFFFFF"></path>
                    </g>
                    <g id="triggers" transform="translate(108.000000, 0.000000)">
                        <rect id="Rectangle-316" fill="#90AC62" x="0" y="0" width="44" height="44" rx="4"></rect>
                        <path d="M4,7.85263062 C4,5.72488147 5.73635483,4 7.85263062,4 L36.1473694,4 C38.2751185,4 40,5.73635483 40,7.85263062 L40,36.1473694 C40,38.2751185 38.2636452,40 36.1473694,40 L7.85263062,40 C5.72488147,40 4,38.2636452 4,36.1473694 L4,7.85263062 L4,7.85263062 Z M23.973737,25.8571429 L11.7024509,25.8571429 C10.2977016,25.8571429 9.14285714,27.0084106 9.14285714,28.4285714 C9.14285714,29.8586334 10.2888263,31 11.7024509,31 L23.973737,31 C24.8629612,32.5372035 26.5249882,33.5714286 28.4285714,33.5714286 C30.3647674,33.5714286 32.0510595,32.5014627 32.9284261,30.9205522 C34.0320817,30.6372253 34.8571429,29.6289516 34.8571429,28.4285714 C34.8571429,27.2184346 34.0365416,26.2150257 32.9275558,25.9350232 C32.0499448,24.354973 30.3641275,23.2857143 28.4285714,23.2857143 C26.5249882,23.2857143 24.8629612,24.3199394 23.973737,25.8571429 L23.973737,25.8571429 Z M28.4285714,32.2857143 C30.5588125,32.2857143 32.2857143,30.5588125 32.2857143,28.4285714 C32.2857143,26.2983303 30.5588125,24.5714286 28.4285714,24.5714286 C26.2983303,24.5714286 24.5714286,26.2983303 24.5714286,28.4285714 C24.5714286,30.5588125 26.2983303,32.2857143 28.4285714,32.2857143 L28.4285714,32.2857143 Z M11.0715739,13.0794478 C9.96791823,13.3627747 9.14285714,14.3710484 9.14285714,15.5714286 C9.14285714,16.7815654 9.9634584,17.7849743 11.0724442,18.0649768 C11.9500552,19.645027 13.6358725,20.7142857 15.5714286,20.7142857 C17.4750118,20.7142857 19.1370388,19.6800606 20.026263,18.1428571 L32.2975492,18.1428571 C33.7022983,18.1428571 34.8571429,16.9915894 34.8571429,15.5714286 C34.8571429,14.1413666 33.7111738,13 32.2975492,13 L20.026263,13 C19.1370388,11.4627965 17.4750118,10.4285714 15.5714286,10.4285714 C13.6352326,10.4285714 11.9489405,11.4985374 11.0715739,13.0794478 L11.0715739,13.0794478 Z M15.5714286,19.4285714 C17.7016697,19.4285714 19.4285714,17.7016697 19.4285714,15.5714286 C19.4285714,13.4411875 17.7016697,11.7142857 15.5714286,11.7142857 C13.4411875,11.7142857 11.7142857,13.4411875 11.7142857,15.5714286 C11.7142857,17.7016697 13.4411875,19.4285714 15.5714286,19.4285714 L15.5714286,19.4285714 Z" id="Shape" fill="#FFFFFF"></path>
                    </g>
                    <g id="environments" transform="translate(162.000000, 0.000000)">
                        <rect id="Rectangle-316" fill="#7B99DA" x="0" y="0" width="44" height="44" rx="4"></rect>
                        <g id="Group" transform="translate(4.000000, 8.000000)" fill="#FFFFFF">
                            <path d="M0,2.31393147 C0,1.0359824 1.03858566,0 2.32050638,0 L33.6794936,0 C34.9610739,0 36,1.04586029 36,2.31393147 L36,5.68606853 C36,6.9640176 34.9614143,8 33.6794936,8 L2.32050638,8 C1.0389261,8 0,6.9541397 0,5.68606853 L0,2.31393147 L0,2.31393147 Z M3,4 C3,3.44771525 3.44386482,3 4,3 C4.55228475,3 5,3.44386482 5,4 C5,4.55228475 4.55613518,5 4,5 C3.44771525,5 3,4.55613518 3,4 L3,4 Z M7,4 C7,3.44771525 7.44386482,3 8,3 C8.55228475,3 9,3.44386482 9,4 C9,4.55228475 8.55613518,5 8,5 C7.44771525,5 7,4.55613518 7,4 L7,4 Z M11,4 C11,3.44771525 11.4438648,3 12,3 C12.5522847,3 13,3.44386482 13,4 C13,4.55228475 12.5561352,5 12,5 C11.4477153,5 11,4.55613518 11,4 L11,4 Z M19,3.5 L32,3.5 L32,4.5 L19,4.5 L19,3.5 L19,3.5 Z" id="environments-top"></path>
                            <path d="M0,12.3139315 C0,11.0359824 1.03858566,10 2.32050638,10 L33.6794936,10 C34.9610739,10 36,11.0458603 36,12.3139315 L36,15.6860685 C36,16.9640176 34.9614143,18 33.6794936,18 L2.32050638,18 C1.0389261,18 0,16.9541397 0,15.6860685 L0,12.3139315 L0,12.3139315 Z M3,14 C3,13.4477153 3.44386482,13 4,13 C4.55228475,13 5,13.4438648 5,14 C5,14.5522847 4.55613518,15 4,15 C3.44771525,15 3,14.5561352 3,14 L3,14 Z M7,14 C7,13.4477153 7.44386482,13 8,13 C8.55228475,13 9,13.4438648 9,14 C9,14.5522847 8.55613518,15 8,15 C7.44771525,15 7,14.5561352 7,14 L7,14 Z M11,14 C11,13.4477153 11.4438648,13 12,13 C12.5522847,13 13,13.4438648 13,14 C13,14.5522847 12.5561352,15 12,15 C11.4477153,15 11,14.5561352 11,14 L11,14 Z M19,13.5 L32,13.5 L32,14.5 L19,14.5 L19,13.5 L19,13.5 Z" id="environments-middle"></path>
                            <path d="M0,22.3139315 C0,21.0359824 1.03858566,20 2.32050638,20 L33.6794936,20 C34.9610739,20 36,21.0458603 36,22.3139315 L36,25.6860685 C36,26.9640176 34.9614143,28 33.6794936,28 L2.32050638,28 C1.0389261,28 0,26.9541397 0,25.6860685 L0,22.3139315 L0,22.3139315 Z M3,24 C3,23.4477153 3.44386482,23 4,23 C4.55228475,23 5,23.4438648 5,24 C5,24.5522847 4.55613518,25 4,25 C3.44771525,25 3,24.5561352 3,24 L3,24 Z M7,24 C7,23.4477153 7.44386482,23 8,23 C8.55228475,23 9,23.4438648 9,24 C9,24.5522847 8.55613518,25 8,25 C7.44771525,25 7,24.5561352 7,24 L7,24 Z M11,24 C11,23.4477153 11.4438648,23 12,23 C12.5522847,23 13,23.4438648 13,24 C13,24.5522847 12.5561352,25 12,25 C11.4477153,25 11,24.5561352 11,24 L11,24 Z M19,23.5 L32,23.5 L32,24.5 L19,24.5 L19,23.5 L19,23.5 Z" id="environments-bottom"></path>
                        </g>
                    </g>
                    <g id="tasks" transform="translate(216.000000, 0.000000)">
                        <rect id="Rectangle-316" fill="#D8AB65" x="0" y="0" width="44" height="44" rx="4"></rect>
                        <path d="M4,10.4808336 C4,8.55842227 5.55842995,7 7.48454162,7 L36.5154584,7 C38.4399176,7 40,8.55853955 40,10.4808336 L40,34.5191664 C40,36.4415777 38.4415701,38 36.5154584,38 L7.48454162,38 C5.56008242,38 4,36.4414605 4,34.5191664 L4,10.4808336 L4,10.4808336 L4,10.4808336 Z M6,13 L38,13 L38,34.8436642 C38,35.4822908 37.4712787,36 36.8421982,36 L7.15780181,36 C6.51836553,36 6,35.4763986 6,34.8436642 L6,13 L6,13 L6,13 Z M28.5005078,16.86355 L31.1693078,19.1029391 L20.8370922,31.4163942 L18.1682922,29.1770052 L28.5005078,16.86355 L28.5005078,16.86355 L28.5005078,16.86355 Z M6,10 C6,9.44771525 6.44386482,9 7,9 C7.55228475,9 8,9.44386482 8,10 C8,10.5522848 7.55613518,11 7,11 C6.44771525,11 6,10.5561352 6,10 L6,10 L6,10 Z M10,10 C10,9.44771525 10.4438648,9 11,9 C11.5522848,9 12,9.44386482 12,10 C12,10.5522848 11.5561352,11 11,11 C10.4477152,11 10,10.5561352 10,10 L10,10 L10,10 Z M14,10 C14,9.44771525 14.4438648,9 15,9 C15.5522847,9 16,9.44386482 16,10 C16,10.5522848 15.5561352,11 15,11 C14.4477153,11 14,10.5561352 14,10 L14,10 L14,10 Z M14.9982764,22.0976438 L20.3358764,26.5764219 L18.1218302,29.2150195 L12.7842302,24.7362413 L14.9982764,22.0976438 L14.9982764,22.0976438 L14.9982764,22.0976438 Z" id="path-1" fill="#FFFFFF"></path>
                    </g>
                </g>
                <g id="Icon-Group-7" transform="translate(648.000000, 108.000000)" sketch:type="MSShapeGroup">
                    <g id="outputs">
                        <rect id="Rectangle-316" fill="#BA8AB8" x="0" y="0" width="44" height="44" rx="4"></rect>
                        <path d="M26.6102968,15.5714286 L15.5714286,15.5714286 L15.5714286,13 L31,13 L31,14.2857143 L31,28.4285714 L28.4285714,28.4285714 L28.4285714,17.3897032 L13.4411875,32.3770872 L11.6229128,30.5588125 L26.6102968,15.5714286 L26.6102968,15.5714286 Z M4,7.85263062 C4,5.72488147 5.73635483,4 7.85263062,4 L36.1473694,4 C38.2751185,4 40,5.73635483 40,7.85263062 L40,36.1473694 C40,38.2751185 38.2636452,40 36.1473694,40 L7.85263062,40 C5.72488147,40 4,38.2636452 4,36.1473694 L4,7.85263062 L4,7.85263062 Z M6,7.33425951 C6,6.59736833 6.59662563,6 7.33425951,6 L36.6657405,6 C37.4026317,6 38,6.59662563 38,7.33425951 L38,36.6657405 C38,37.4026317 37.4033744,38 36.6657405,38 L7.33425951,38 C6.59736833,38 6,37.4033744 6,36.6657405 L6,7.33425951 L6,7.33425951 Z" id="path-1" fill="#FFFFFF"></path>
                    </g>
                </g>
                <g id="Icon-Group-8" transform="translate(108.000000, 108.000000)" sketch:type="MSShapeGroup">
                    <g id="repositories" transform="translate(54.000000, 0.000000)">
                        <rect id="Rectangle-316" fill="#B84A62" x="0" y="0" width="44" height="44" rx="4"></rect>
                        <path d="M9,7.99821383 C9,6.8946308 9.89497885,6 10.9970047,6 L33.0029953,6 C34.1059106,6 35,6.89433765 35,7.99821383 L35,35.0017862 C35,36.1053692 34.1050211,37 33.0029953,37 L10.9970047,37 C9.89408944,37 9,36.1056623 9,35.0017862 L9,7.99821383 L9,7.99821383 M15,8 L33,8 L33,35 L15,35 L15,8 L15,8 M18,12 L20,12 L20,14 L18,14 L18,12 L18,12 M23,12 L25,12 L25,14 L23,14 L23,12 L23,12 M28,12 L30,12 L30,14 L28,14 L28,12 L28,12 M18,17 L20,17 L20,19 L18,19 L18,17 L18,17 M23,17 L25,17 L25,19 L23,19 L23,17 L23,17 M28,17 L30,17 L30,19 L28,19 L28,17 L28,17 M18,22 L20,22 L20,24 L18,24 L18,22 L18,22 M23,22 L25,22 L25,24 L23,24 L23,22 L23,22 M28,22 L30,22 L30,24 L28,24 L28,22 L28,22 M21,37 L21,42 L17.9979594,39.5 L15,42 L15,37 L21,37" id="Shape" fill="#FFFFFF"></path>
                    </g>
                    <g id="triggers" transform="translate(108.000000, 0.000000)">
                        <rect id="Rectangle-316" fill="#90AC62" x="0" y="0" width="44" height="44" rx="4"></rect>
                        <path d="M4,7.85263062 C4,5.72488147 5.73635483,4 7.85263062,4 L36.1473694,4 C38.2751185,4 40,5.73635483 40,7.85263062 L40,36.1473694 C40,38.2751185 38.2636452,40 36.1473694,40 L7.85263062,40 C5.72488147,40 4,38.2636452 4,36.1473694 L4,7.85263062 L4,7.85263062 Z M23.973737,25.8571429 L11.7024509,25.8571429 C10.2977016,25.8571429 9.14285714,27.0084106 9.14285714,28.4285714 C9.14285714,29.8586334 10.2888263,31 11.7024509,31 L23.973737,31 C24.8629612,32.5372035 26.5249882,33.5714286 28.4285714,33.5714286 C30.3647674,33.5714286 32.0510595,32.5014627 32.9284261,30.9205522 C34.0320817,30.6372253 34.8571429,29.6289516 34.8571429,28.4285714 C34.8571429,27.2184346 34.0365416,26.2150257 32.9275558,25.9350232 C32.0499448,24.354973 30.3641275,23.2857143 28.4285714,23.2857143 C26.5249882,23.2857143 24.8629612,24.3199394 23.973737,25.8571429 L23.973737,25.8571429 Z M28.4285714,32.2857143 C30.5588125,32.2857143 32.2857143,30.5588125 32.2857143,28.4285714 C32.2857143,26.2983303 30.5588125,24.5714286 28.4285714,24.5714286 C26.2983303,24.5714286 24.5714286,26.2983303 24.5714286,28.4285714 C24.5714286,30.5588125 26.2983303,32.2857143 28.4285714,32.2857143 L28.4285714,32.2857143 Z M11.0715739,13.0794478 C9.96791823,13.3627747 9.14285714,14.3710484 9.14285714,15.5714286 C9.14285714,16.7815654 9.9634584,17.7849743 11.0724442,18.0649768 C11.9500552,19.645027 13.6358725,20.7142857 15.5714286,20.7142857 C17.4750118,20.7142857 19.1370388,19.6800606 20.026263,18.1428571 L32.2975492,18.1428571 C33.7022983,18.1428571 34.8571429,16.9915894 34.8571429,15.5714286 C34.8571429,14.1413666 33.7111738,13 32.2975492,13 L20.026263,13 C19.1370388,11.4627965 17.4750118,10.4285714 15.5714286,10.4285714 C13.6352326,10.4285714 11.9489405,11.4985374 11.0715739,13.0794478 L11.0715739,13.0794478 Z M15.5714286,19.4285714 C17.7016697,19.4285714 19.4285714,17.7016697 19.4285714,15.5714286 C19.4285714,13.4411875 17.7016697,11.7142857 15.5714286,11.7142857 C13.4411875,11.7142857 11.7142857,13.4411875 11.7142857,15.5714286 C11.7142857,17.7016697 13.4411875,19.4285714 15.5714286,19.4285714 L15.5714286,19.4285714 Z" id="Shape" fill="#FFFFFF"></path>
                    </g>
                    <g id="environments" transform="translate(162.000000, 0.000000)">
                        <rect id="Rectangle-316" fill="#7B99DA" x="0" y="0" width="44" height="44" rx="4"></rect>
                        <g id="Group" transform="translate(4.000000, 8.000000)" fill="#FFFFFF">
                            <path d="M0,2.31393147 C0,1.0359824 1.03858566,0 2.32050638,0 L33.6794936,0 C34.9610739,0 36,1.04586029 36,2.31393147 L36,5.68606853 C36,6.9640176 34.9614143,8 33.6794936,8 L2.32050638,8 C1.0389261,8 0,6.9541397 0,5.68606853 L0,2.31393147 L0,2.31393147 Z M3,4 C3,3.44771525 3.44386482,3 4,3 C4.55228475,3 5,3.44386482 5,4 C5,4.55228475 4.55613518,5 4,5 C3.44771525,5 3,4.55613518 3,4 L3,4 Z M7,4 C7,3.44771525 7.44386482,3 8,3 C8.55228475,3 9,3.44386482 9,4 C9,4.55228475 8.55613518,5 8,5 C7.44771525,5 7,4.55613518 7,4 L7,4 Z M11,4 C11,3.44771525 11.4438648,3 12,3 C12.5522847,3 13,3.44386482 13,4 C13,4.55228475 12.5561352,5 12,5 C11.4477153,5 11,4.55613518 11,4 L11,4 Z M19,3.5 L32,3.5 L32,4.5 L19,4.5 L19,3.5 L19,3.5 Z" id="environments-top"></path>
                            <path d="M0,12.3139315 C0,11.0359824 1.03858566,10 2.32050638,10 L33.6794936,10 C34.9610739,10 36,11.0458603 36,12.3139315 L36,15.6860685 C36,16.9640176 34.9614143,18 33.6794936,18 L2.32050638,18 C1.0389261,18 0,16.9541397 0,15.6860685 L0,12.3139315 L0,12.3139315 Z M3,14 C3,13.4477153 3.44386482,13 4,13 C4.55228475,13 5,13.4438648 5,14 C5,14.5522847 4.55613518,15 4,15 C3.44771525,15 3,14.5561352 3,14 L3,14 Z M7,14 C7,13.4477153 7.44386482,13 8,13 C8.55228475,13 9,13.4438648 9,14 C9,14.5522847 8.55613518,15 8,15 C7.44771525,15 7,14.5561352 7,14 L7,14 Z M11,14 C11,13.4477153 11.4438648,13 12,13 C12.5522847,13 13,13.4438648 13,14 C13,14.5522847 12.5561352,15 12,15 C11.4477153,15 11,14.5561352 11,14 L11,14 Z M19,13.5 L32,13.5 L32,14.5 L19,14.5 L19,13.5 L19,13.5 Z" id="environments-middle"></path>
                            <path d="M0,22.3139315 C0,21.0359824 1.03858566,20 2.32050638,20 L33.6794936,20 C34.9610739,20 36,21.0458603 36,22.3139315 L36,25.6860685 C36,26.9640176 34.9614143,28 33.6794936,28 L2.32050638,28 C1.0389261,28 0,26.9541397 0,25.6860685 L0,22.3139315 L0,22.3139315 Z M3,24 C3,23.4477153 3.44386482,23 4,23 C4.55228475,23 5,23.4438648 5,24 C5,24.5522847 4.55613518,25 4,25 C3.44771525,25 3,24.5561352 3,24 L3,24 Z M7,24 C7,23.4477153 7.44386482,23 8,23 C8.55228475,23 9,23.4438648 9,24 C9,24.5522847 8.55613518,25 8,25 C7.44771525,25 7,24.5561352 7,24 L7,24 Z M11,24 C11,23.4477153 11.4438648,23 12,23 C12.5522847,23 13,23.4438648 13,24 C13,24.5522847 12.5561352,25 12,25 C11.4477153,25 11,24.5561352 11,24 L11,24 Z M19,23.5 L32,23.5 L32,24.5 L19,24.5 L19,23.5 L19,23.5 Z" id="environments-bottom"></path>
                        </g>
                    </g>
                    <g id="tasks" transform="translate(216.000000, 0.000000)">
                        <rect id="Rectangle-316" fill="#D8AB65" x="0" y="0" width="44" height="44" rx="4"></rect>
                        <path d="M4,10.4808336 C4,8.55842227 5.55842995,7 7.48454162,7 L36.5154584,7 C38.4399176,7 40,8.55853955 40,10.4808336 L40,34.5191664 C40,36.4415777 38.4415701,38 36.5154584,38 L7.48454162,38 C5.56008242,38 4,36.4414605 4,34.5191664 L4,10.4808336 L4,10.4808336 L4,10.4808336 Z M6,13 L38,13 L38,34.8436642 C38,35.4822908 37.4712787,36 36.8421982,36 L7.15780181,36 C6.51836553,36 6,35.4763986 6,34.8436642 L6,13 L6,13 L6,13 Z M28.5005078,16.86355 L31.1693078,19.1029391 L20.8370922,31.4163942 L18.1682922,29.1770052 L28.5005078,16.86355 L28.5005078,16.86355 L28.5005078,16.86355 Z M6,10 C6,9.44771525 6.44386482,9 7,9 C7.55228475,9 8,9.44386482 8,10 C8,10.5522848 7.55613518,11 7,11 C6.44771525,11 6,10.5561352 6,10 L6,10 L6,10 Z M10,10 C10,9.44771525 10.4438648,9 11,9 C11.5522848,9 12,9.44386482 12,10 C12,10.5522848 11.5561352,11 11,11 C10.4477152,11 10,10.5561352 10,10 L10,10 L10,10 Z M14,10 C14,9.44771525 14.4438648,9 15,9 C15.5522847,9 16,9.44386482 16,10 C16,10.5522848 15.5561352,11 15,11 C14.4477153,11 14,10.5561352 14,10 L14,10 L14,10 Z M14.9982764,22.0976438 L20.3358764,26.5764219 L18.1218302,29.2150195 L12.7842302,24.7362413 L14.9982764,22.0976438 L14.9982764,22.0976438 L14.9982764,22.0976438 Z" id="path-1" fill="#FFFFFF"></path>
                    </g>
                </g>
            </g>
        </g>
    </g>
</svg>