<?xml version="1.0" encoding="UTF-8" standalone="no"?>
<svg width="150px" height="148px" viewBox="0 0 150 148" version="1.1" xmlns="http://www.w3.org/2000/svg" xmlns:xlink="http://www.w3.org/1999/xlink" xmlns:sketch="http://www.bohemiancoding.com/sketch/ns">
    <!-- Generator: Sketch 3.3.3 (12072) - http://www.bohemiancoding.com/sketch -->
    <title>Fill 1</title>
    <desc>Created with Sketch.</desc>
    <defs></defs>
    <g id="Page-1" stroke="none" stroke-width="1" fill="none" fill-rule="evenodd" sketch:type="MSPage">
        <path d="M141.237,32.257 L142.406,32.257 L142.406,26.925 C142.406,26.708 142.395,26.373 142.385,25.924 C142.369,25.466 142.369,25.128 142.369,24.905 L142.369,24.633 L144.976,32.257 L146.186,32.257 L148.769,24.633 C148.769,25.119 148.763,25.577 148.751,26.011 C148.745,26.433 148.741,26.738 148.741,26.925 L148.741,32.257 L149.911,32.257 L149.911,23.22 L148.169,23.22 L145.587,30.859 L142.99,23.22 L141.237,23.22 L141.237,32.257 L141.237,32.257 Z M132.815,23.22 L132.815,24.296 L135.859,24.296 L135.859,32.257 L137.091,32.257 L137.091,24.296 L140.145,24.296 L140.145,23.22 L132.815,23.22 L132.815,23.22 Z M109.055,86.491 C109.055,74.813 101.163,71.703 84.548,69.507 C67.76,67.285 66.053,66.14 66.053,62.208 C66.053,58.962 67.499,54.63 79.933,54.63 C91.04,54.63 95.133,57.023 96.817,64.511 C96.965,65.215 97.607,65.731 98.335,65.731 L105.351,65.731 C105.787,65.731 106.2,65.543 106.495,65.233 C106.791,64.901 106.949,64.475 106.908,64.03 C105.822,51.133 97.253,45.123 79.933,45.123 C64.518,45.123 55.325,51.627 55.325,62.536 C55.325,74.37 64.473,77.637 79.266,79.101 C96.965,80.833 98.339,83.42 98.339,86.903 C98.339,92.946 93.491,95.523 82.101,95.523 C67.795,95.523 64.648,91.931 63.593,84.815 C63.473,84.052 62.821,83.492 62.04,83.492 L55.05,83.492 C54.184,83.492 53.488,84.183 53.488,85.049 C53.488,94.157 58.444,105.017 82.101,105.017 C99.232,105.017 109.055,98.269 109.055,86.491 L109.055,86.491 Z M65.402,148 C63.427,148 61.461,147.484 59.733,146.483 L41.681,135.802 C38.988,134.294 40.304,133.761 41.192,133.451 C44.789,132.204 45.516,131.916 49.354,129.738 C49.754,129.514 50.283,129.6 50.695,129.841 L64.562,138.076 C65.066,138.354 65.775,138.354 66.237,138.076 L120.3,106.872 C120.802,106.584 121.125,106.004 121.125,105.408 L121.125,43.017 C121.125,42.406 120.802,41.836 120.287,41.526 L66.246,10.349 C65.748,10.057 65.084,10.057 64.581,10.349 L10.554,41.536 C10.029,41.836 9.697,42.424 9.697,43.017 L9.697,105.408 C9.697,106.004 10.029,106.57 10.55,106.852 L25.359,115.41 C33.395,119.427 38.315,114.696 38.315,109.941 L38.315,48.341 C38.315,47.47 39.015,46.783 39.886,46.783 L46.741,46.783 C47.598,46.783 48.307,47.47 48.307,48.341 L48.307,109.941 C48.307,120.667 42.467,126.817 32.3,126.817 C29.175,126.817 26.715,126.817 19.847,123.432 L5.67,115.27 C2.168,113.246 0,109.46 0,105.408 L0,43.017 C0,38.963 2.168,35.178 5.67,33.163 L59.733,1.923 C63.153,-0.012 67.701,-0.012 71.095,1.923 L125.152,33.163 C128.655,35.188 130.831,38.963 130.831,43.017 L130.831,105.408 C130.831,109.46 128.655,113.232 125.152,115.27 L71.095,146.483 C69.367,147.484 67.405,148 65.402,148 L65.402,148 Z" id="Fill-1" fill="#80BD01" sketch:type="MSShapeGroup"></path>
    </g>
</svg>