<?xml version="1.0" encoding="UTF-8" standalone="no"?>
<svg width="230px" height="312px" viewBox="0 0 230 312" version="1.1" xmlns="http://www.w3.org/2000/svg" xmlns:xlink="http://www.w3.org/1999/xlink" xmlns:sketch="http://www.bohemiancoding.com/sketch/ns">
    <!-- Generator: Sketch 3.3.3 (12072) - http://www.bohemiancoding.com/sketch -->
    <title>Slice 1</title>
    <desc>Created with Sketch.</desc>
    <defs></defs>
    <g id="Page-1" stroke="none" stroke-width="1" fill="none" fill-rule="evenodd" sketch:type="MSPage">
        <path d="M74.4582,241.3356 C74.4582,241.3356 62.5191,248.6028 82.76345,250.67911 C107.16015,253.79348 120.13755,253.27487 147.12975,248.08377 C147.12975,248.08377 154.39695,252.75542 164.25945,256.38923 C103.52675,282.34343 26.70245,254.83153 74.45815,241.33563 L74.4582,241.3356 L74.4582,241.3356 Z M66.67177,207.5954 C66.67177,207.5954 53.69487,217.45773 73.93897,219.534 C100.41247,222.12976 121.17577,222.64837 156.99237,215.38137 C156.99237,215.38137 161.66423,220.57226 169.45027,223.1678 C96.25967,244.9694 14.24427,225.24411 66.67227,207.5953 L66.67177,207.5954 L66.67177,207.5954 Z M209.93877,266.7708 C209.93877,266.7708 218.76326,274.03821 200.07623,279.7477 C165.29753,290.1295 54.21323,293.2438 23.06823,279.7477 C12.16763,275.07626 32.93098,268.3279 39.67873,267.2898 C46.4269,265.73272 50.06033,265.73272 50.06033,265.73272 C38.12193,257.42726 -29.35917,282.86222 15.80083,290.12942 C139.86183,310.37372 242.12183,281.30514 209.93783,266.77072 L209.93877,266.7708 L209.93877,266.7708 Z M80.16777,172.2976 C80.16777,172.2976 23.58787,185.7937 59.92387,190.4654 C75.49637,192.5415 106.12217,192.0229 134.67197,189.94637 C158.03047,187.87006 181.38957,183.71743 181.38957,183.71743 C181.38957,183.71743 173.08411,187.35082 167.37397,190.98484 C109.75607,206.03784 -0.80903,199.28988 30.85497,183.71743 C57.84727,170.74013 80.16747,172.29763 80.16747,172.29763 L80.16777,172.2976 L80.16777,172.2976 Z M181.38977,228.8775 C239.52697,198.7706 212.53487,169.7021 193.84767,173.3359 C189.17581,174.37395 187.0995,175.41221 187.0995,175.41221 C187.0995,175.41221 188.65679,172.29764 192.29018,171.25958 C229.14538,158.28228 258.21398,210.19048 180.35178,230.43478 C180.35178,230.43478 180.87039,229.91575 181.38983,228.87749 L181.38977,228.8775 L181.38977,228.8775 Z M85.87807,310.8928 C141.93937,314.52661 227.58807,308.81649 229.66407,282.3434 C229.66407,282.3434 225.51165,292.7252 183.46597,300.511 C135.71017,309.3357 76.53497,308.29743 41.75597,302.58731 C41.75597,302.58731 49.02296,308.81646 85.87797,310.89277 L85.87807,310.8928 L85.87807,310.8928 Z" id="_227268128" fill="#4E7896" sketch:type="MSShapeGroup"></path>
        <path d="M146.092,0.99999 C146.092,0.99999 178.2752,33.70219 115.4659,83.01529 C65.1147,122.98449 104.0461,145.82409 115.4659,171.77819 C85.8781,145.30539 64.5957,121.94629 79.1299,100.14469 C100.4127,67.96149 159.0689,52.38929 146.092,1.00009 L146.092,0.99999 L146.092,0.99999 Z M129.4815,149.97699 C144.5345,167.10689 125.32867,182.67959 125.32867,182.67959 C125.32867,182.67959 163.74077,162.95429 146.09197,138.55719 C130.00007,115.19869 117.54217,103.77889 185.02307,64.84739 C185.02307,64.84739 78.61107,91.32089 129.48147,149.97709 L129.4815,149.97699 L129.4815,149.97699 Z" id="_230367536" fill="#F58219" sketch:type="MSShapeGroup"></path>
    </g>
</svg>