<?xml version="1.0" encoding="UTF-8" standalone="no"?>
<svg width="2529px" height="430px" viewBox="0 0 2529 430" version="1.1" xmlns="http://www.w3.org/2000/svg" xmlns:xlink="http://www.w3.org/1999/xlink" xmlns:sketch="http://www.bohemiancoding.com/sketch/ns">
    <!-- Generator: Sketch 3.3 (11970) - http://www.bohemiancoding.com/sketch -->
    <title>logo-c-primary-darker-with-logotype-c-gray-darker</title>
    <desc>Created with Sketch.</desc>
    <defs>
        <path d="M163.26895,0.319033959 C153.224958,1.35742814 145.333162,5.66898804 135.946511,15.2461421 C131.79077,19.4859193 130.74805,20.6758547 123.635358,29.2959068 C113.560462,41.505091 108.90963,46.1688153 102.603239,50.3852786 C98.7176052,52.9835648 90.9522089,56.8365134 84.3695311,59.4326522 C81.729043,60.474114 76.7360974,62.4389337 73.2438787,63.810473 C49.6327718,73.0848515 40.733486,81.3189953 36.4794692,97.8268554 C35.0872174,103.229266 34.3028589,109.729276 33.5330256,122.245224 C32.3255832,141.878083 31.0597312,148.570434 26.7571942,158.075192 C25.2700653,161.360014 21.7515777,167.308771 16.3785056,175.622059 C7.75427072,188.966268 4.68513587,194.612556 2.45598778,201.236805 C0.856057148,205.991638 0.30688258,208.703733 0.0964223213,212.893815 C-0.203043157,218.849934 0.885107462,224.550825 3.56268115,231.05421 C6.07522433,237.156961 8.26821405,241.054697 15.4368428,252.159533 C23.1200329,264.061954 26.1489918,269.380925 28.2591572,274.675968 C31.0730202,281.736742 32.4488925,289.799405 33.3689222,304.616078 C33.9496194,313.972363 34.3149117,318.481785 34.7945509,322.224299 C37.3942451,342.501361 44.6951454,352.511665 63.2616961,361.256263 C65.1824163,362.160908 71.482317,364.771772 77.2614754,367.058386 C89.5305977,371.912304 93.9332656,373.835711 98.1529784,376.185825 C106.830987,381.018883 112.108255,386.000414 124.539008,401.093175 C130.830256,408.731584 136.014192,414.48984 139.008847,417.166658 C150.183946,427.154875 160.054872,430.386014 174.301889,428.719368 C179.606352,428.099093 184.160453,427.137082 196.089625,424.118224 C215.65223,419.167676 222.32824,418.323769 232.526136,419.512784 C238.113686,420.16435 242.631937,421.112862 255.117392,424.25596 C271.589538,428.402482 277.860698,429.407132 285.094844,429.057728 C291.05943,428.769677 294.926212,427.769322 300.268998,425.132077 C306.800374,421.9083 314.247762,415.296321 322.335803,405.541244 C324.624906,402.780373 328.244142,398.420345 330.357089,395.878196 C335.379703,389.834957 342.991813,382.319867 346.687692,379.755631 C352.426057,375.774762 358.956815,372.626143 371.78222,367.657495 C383.958628,362.940088 389.03378,360.678628 394.095334,357.714986 C407.511634,349.859082 413.510833,340.047254 415.794683,322.224299 C416.274322,318.481785 416.638687,313.972363 417.217221,304.616078 C418.72382,280.259063 420.63805,274.562773 434.483925,253.233205 C444.361032,238.017739 448.039296,230.560627 449.856486,222.066041 C450.545967,218.845025 450.626319,210.998017 450.002974,207.832219 C449.293713,204.23235 447.057457,197.893084 445.078636,193.874483 C443.034916,189.72336 439.305968,183.475203 434.002431,175.315296 C420.357436,154.320714 418.671282,149.025671 417.055281,122.091842 C416.295337,109.422513 415.502325,103.108401 413.923101,97.1519758 C410.442935,84.0249555 403.521234,76.1285582 389.274218,69.0315864 C384.545506,66.6762569 381.857116,65.5476743 368.691761,60.3925149 C364.705069,58.8317027 359.115046,56.4098054 356.29902,55.0235415 C344.982377,49.4533313 339.905062,45.0021941 327.019702,29.3572595 C319.793591,20.5838256 317.080477,17.5441069 312.723548,13.3417548 C304.143507,5.06589116 296.560447,1.25680974 286.732788,0.286517036 C280.123841,-0.365968763 272.362153,0.705555871 258.516897,4.18179897 C236.914588,9.60537628 234.989232,9.93913488 225.294462,9.93913488 C215.561371,9.93913488 213.674336,9.61181831 192.226551,4.20357918 C178.164962,0.657700777 170.254932,-0.4033939 163.26895,0.319033959 L163.26895,0.319033959 Z M194.946155,88.082822 C207.431609,94.88254 209.060281,95.857741 209.474712,96.7838597 C209.638815,97.1501353 209.687335,111.263093 209.59493,131.816243 C209.457714,162.400556 209.493872,166.315471 209.919429,166.955993 C210.18459,167.355092 211.943679,168.49165 213.859764,169.502129 C215.760705,170.504632 222.775738,174.43918 229.420225,178.229548 L241.519372,185.131725 L241.720252,173.229305 C241.830581,166.695244 241.969961,161.278415 242.029298,161.219517 C242.088635,161.160618 251.007081,155.922326 261.823688,149.593183 L281.509912,138.074216 L307.655195,152.645479 L307.732457,237.910372 C307.808173,321.380699 307.797665,323.195205 307.228712,324.126232 C306.28334,325.673853 301.505182,328.632893 283.240569,338.982478 C278.975735,341.398853 274.316868,344.150521 272.841174,345.124188 C271.203231,346.204916 269.593411,347.006795 268.684507,347.194841 C267.360554,347.468781 267.000207,347.410803 265.331359,346.658005 C264.311507,346.19786 262.829632,345.335241 262.070925,344.760367 C259.41622,342.747999 256.755335,341.07215 252.706834,338.863147 C241.952036,332.994763 241.887755,332.951509 241.470234,331.27382 C241.327146,330.699865 241.28697,314.984682 241.380301,296.333466 C241.536061,265.258331 241.507937,262.372301 241.040351,261.669199 C240.751702,261.235129 238.799768,259.989976 236.543733,258.800961 C234.354452,257.646917 227.380522,253.739672 221.075986,250.134895 C214.771449,246.530118 209.511488,243.570157 209.409503,243.570157 C209.307518,243.570157 209.224075,248.892503 209.224075,255.395887 C209.224075,263.218355 209.112201,267.429296 208.894014,267.835144 C208.463204,268.635183 205.021051,270.792343 202.11602,272.082284 C200.834406,272.65133 197.449427,274.517065 194.544395,276.2558 C191.660997,277.981651 186.29287,281.123215 182.646128,283.21933 C178.999386,285.315444 175.186069,287.557578 174.193722,288.188897 C173.204776,288.818069 171.811906,289.599089 171.118716,289.912601 C168.582376,291.060816 168.306398,290.960198 159.09683,285.535393 C154.461142,282.804892 149.05871,279.639707 147.105849,278.510511 C145.097051,277.348798 143.382773,276.135242 143.163042,275.718964 C142.562565,274.581485 142.766845,105.710675 143.370411,104.544974 C143.700781,103.906293 147.414895,101.718456 159.591304,94.9892937 C168.275493,90.18998 177.122241,85.288514 179.246623,84.0991922 C181.37904,82.905269 183.220644,81.9297613 183.356933,81.9211719 C183.492914,81.9125825 188.703428,84.682963 194.946155,88.082822 L194.946155,88.082822 Z" id="path-1"></path>
        <path id="path-3" d="M0,82.918153 L0,165.866982 L3.7858123,167.81493 C5.8595103,168.881853 10.3530377,171.330439 13.721638,173.229305 C17.0902384,175.12817 20.0045412,176.695731 20.1652451,176.695731 C20.3543812,176.695731 20.4257708,164.808649 20.3661249,143.335209 C20.279283,112.106693 20.3080243,109.91088 20.8142415,108.977706 C21.262358,108.151592 21.5404993,107.980725 22.4367325,107.980725 C23.9130447,107.980725 25.0636226,108.510812 28.957601,110.983939 C30.7896251,112.147492 35.293042,114.81296 38.9397836,116.892202 C42.6004323,118.97942 52.939563,124.909771 61.9637033,130.098367 C70.9878436,135.286964 82.4370671,141.81489 87.4599902,144.635272 C96.4841305,149.702697 97.7094975,150.496601 98.3550944,151.694512 C98.7410927,152.410191 98.6922635,190.101293 98.2821595,208.231011 C98.11682,215.531981 98.1362899,219.784949 98.3384059,220.516886 C98.5077631,221.130413 99.0946412,222.049783 99.6363987,222.550728 C100.404996,223.261192 117.962821,233.217199 119.322623,233.713542 C119.488271,233.773974 119.600764,200.469896 119.600764,151.29572 C119.600764,85.6483475 119.521648,68.7137795 119.214457,68.4695959 C119.001215,68.3002624 114.810552,65.8664015 109.865818,63.0398833 C104.921084,60.2133651 100.446408,57.6417673 99.8836354,57.3034073 L98.8637839,56.6898804 L98.9101408,89.4675521 C98.9357916,107.505241 98.8637839,122.728069 98.750055,123.318896 C98.4138131,125.067447 97.8328068,125.612259 96.3296075,125.588945 C94.729986,125.564097 93.2700531,124.837681 88.6961738,121.7906 C86.7365137,120.485322 82.5770649,117.977838 79.4247967,116.201984 C76.2728376,114.426131 70.4624656,111.153272 66.4757734,108.907457 C57.9751569,104.119187 45.924221,97.1381715 36.0038475,91.2556761 C32.1098692,88.9469746 27.5922362,86.397157 25.9598557,85.5869948 C22.5294462,83.8844578 21.1884961,82.767839 20.8018796,81.2923069 C20.6417939,80.6803139 20.6071807,65.7700777 20.7215277,46.6280402 C20.8318571,28.1608822 20.8151686,12.7472473 20.6844422,12.3932423 C20.501178,11.8965923 8.52966689,4.70022916 0.216332131,0.0892681559 C0.097349459,0.0233140201 0,37.3024322 0,82.918153 L0,82.918153 Z"></path>
    </defs>
    <g id="Page-1" stroke="none" stroke-width="1" fill="none" fill-rule="evenodd" sketch:type="MSPage">
        <g id="Resources-/-Swatch" sketch:type="MSArtboardGroup" transform="translate(-831.000000, -251.000000)">
            <g id="Logo-Large-c-primary-darker" sketch:type="MSLayerGroup" transform="translate(831.000000, 251.000000)">
                <g id="Shape" transform="translate(0.205538, 0.000000)">
                    <mask id="mask-2" sketch:name="Clip 2" fill="white">
                        <use xlink:href="#path-1"></use>
                    </mask>
                    <g id="Clip-2"></g>
                    <path d="M0.0370855082,0.0981642951 L450.440583,0.0981642951 L450.440583,429.137487 L0.0370855082,429.137487 L0.0370855082,0.0981642951 Z" id="Fill-1" fill="#2C1137" sketch:type="MSShapeGroup" mask="url(#mask-2)"></path>
                </g>
                <g id="Lettering" transform="translate(147.002341, 108.594251)">
                    <mask id="mask-4" sketch:name="Clip 89" fill="white">
                        <use xlink:href="#path-3"></use>
                    </mask>
                    <g id="Clip-89"></g>
                    <path d="M-0.0123618361,0.0613526845 L119.625488,0.0613526845 L119.625488,233.741457 L-0.0123618361,233.741457 L-0.0123618361,0.0613526845 Z" id="Fill-88" fill="#2C1137" sketch:type="MSShapeGroup" mask="url(#mask-4)"></path>
                </g>
            </g>
            <path d="M1407.16671,581.26632 L1407.16671,342.410991 L1447.4885,342.410991 L1447.4885,445.949138 L1566.06189,445.949138 L1566.06189,342.410991 L1606.38367,342.410991 L1606.38367,581.26632 L1566.06189,581.26632 L1566.06189,483.537244 L1447.4885,483.537244 L1447.4885,581.26632 L1407.16671,581.26632 Z M1695.94392,526.934421 L1672.02421,581.26632 L1628.96875,581.26632 L1734.21544,342.410991 L1777.27091,342.410991 L1882.51761,581.26632 L1839.46214,581.26632 L1815.54244,526.934421 L1695.94392,526.934421 Z M1799.14035,489.688025 L1755.74318,391.275529 L1712.346,489.688025 L1799.14035,489.688025 Z M2095.77689,419.979173 C2095.77689,459.38993 2078.57765,484.220613 2044.17867,494.471966 L2106.71161,581.26632 L2055.4551,581.26632 L1998.38952,500.964457 L1945.42446,500.964457 L1945.42446,581.26632 L1905.10268,581.26632 L1905.10268,342.410991 L1993.94729,342.410991 C2030.39655,342.410991 2056.48015,348.56171 2072.19889,360.863334 C2087.91763,373.164957 2095.77689,392.87004 2095.77689,419.979173 L2095.77689,419.979173 Z M2042.12841,453.808469 C2050.32949,446.746426 2054.42997,435.413156 2054.42997,419.808318 C2054.42997,404.203481 2050.21559,393.496673 2041.7867,387.687573 C2033.35781,381.878473 2018.32272,378.973967 1996.68097,378.973967 L1945.42446,378.973967 L1945.42446,464.401481 L1995.65584,464.401481 C2018.43663,464.401481 2033.92733,460.870512 2042.12841,453.808469 L2042.12841,453.808469 Z M2333.981,419.979173 C2333.981,459.38993 2316.78177,484.220613 2282.38278,494.471966 L2344.91572,581.26632 L2293.65922,581.26632 L2236.59364,500.964457 L2183.62858,500.964457 L2183.62858,581.26632 L2143.30679,581.26632 L2143.30679,342.410991 L2232.15141,342.410991 C2268.60066,342.410991 2294.68427,348.56171 2310.40301,360.863334 C2326.12175,373.164957 2333.981,392.87004 2333.981,419.979173 L2333.981,419.979173 Z M2280.33252,453.808469 C2288.53361,446.746426 2292.63409,435.413156 2292.63409,419.808318 C2292.63409,404.203481 2288.4197,393.496673 2279.99081,387.687573 C2271.56192,381.878473 2256.52683,378.973967 2234.88509,378.973967 L2183.62858,378.973967 L2183.62858,464.401481 L2233.85996,464.401481 C2256.64074,464.401481 2272.13144,460.870512 2280.33252,453.808469 L2280.33252,453.808469 Z M2483.00767,373.506606 C2459.31565,373.506606 2439.32582,381.93537 2423.03755,398.79315 C2406.74929,415.65093 2398.60529,436.096378 2398.60529,460.130105 C2398.60529,484.163832 2406.74929,504.60928 2423.03755,521.46706 C2439.32582,538.32484 2459.31565,546.753604 2483.00767,546.753604 C2506.69968,546.753604 2526.68952,538.32484 2542.97778,521.46706 C2559.26604,504.60928 2567.41005,484.163832 2567.41005,460.130105 C2567.41005,436.096378 2559.26604,415.65093 2542.97778,398.79315 C2526.68952,381.93537 2506.69968,373.506606 2483.00767,373.506606 L2483.00767,373.506606 Z M2483.00767,583.65829 C2447.46965,583.65829 2417.62727,571.869411 2393.47963,548.291299 C2369.332,524.713188 2357.25837,495.326417 2357.25837,460.130105 C2357.25837,424.933793 2369.332,395.547022 2393.47963,371.968911 C2417.62727,348.390799 2447.46965,336.60192 2483.00767,336.60192 C2518.54569,336.60192 2548.38807,348.390799 2572.5357,371.968911 C2596.68333,395.547022 2608.75697,424.933793 2608.75697,460.130105 C2608.75697,495.326417 2596.68333,524.713188 2572.5357,548.291299 C2548.38807,571.869411 2518.54569,583.65829 2483.00767,583.65829 L2483.00767,583.65829 Z M2707.89841,514.291149 L2761.20517,342.410991 L2797.42644,342.410991 L2850.73321,514.291149 L2910.87418,342.410991 L2954.27136,342.410991 L2870.8941,581.26632 L2830.91403,581.26632 L2780.68265,417.587203 L2777.94897,417.587203 L2727.71759,581.26632 L2687.73751,581.26632 L2604.36026,342.410991 L2647.75744,342.410991 L2707.89841,514.291149 Z M2932.1146,558.371746 C2932.1146,551.309703 2934.56349,545.329837 2939.46136,540.431968 C2944.35923,535.534099 2950.3391,533.085202 2957.40114,533.085202 C2964.46318,533.085202 2970.5,535.534099 2975.51177,540.431968 C2980.52355,545.329837 2983.0294,551.309703 2983.0294,558.371746 C2983.0294,565.433789 2980.52355,571.470606 2975.51177,576.482379 C2970.5,581.494151 2964.46318,584 2957.40114,584 C2950.3391,584 2944.35923,581.494151 2939.46136,576.482379 C2934.56349,571.470606 2932.1146,565.433789 2932.1146,558.371746 L2932.1146,558.371746 Z M3027.82562,342.410991 L3068.14741,342.410991 L3068.14741,581.26632 L3027.82562,581.26632 L3027.82562,342.410991 Z M3234.2507,373.506606 C3210.55868,373.506606 3190.56885,381.93537 3174.28058,398.79315 C3157.99232,415.65093 3149.84832,436.096378 3149.84832,460.130105 C3149.84832,484.163832 3157.99232,504.60928 3174.28058,521.46706 C3190.56885,538.32484 3210.55868,546.753604 3234.2507,546.753604 C3257.94272,546.753604 3277.93255,538.32484 3294.22081,521.46706 C3310.50908,504.60928 3318.65308,484.163832 3318.65308,460.130105 C3318.65308,436.096378 3310.50908,415.65093 3294.22081,398.79315 C3277.93255,381.93537 3257.94272,373.506606 3234.2507,373.506606 L3234.2507,373.506606 Z M3144.72267,548.291299 C3120.57503,524.713188 3108.5014,495.326417 3108.5014,460.130105 C3108.5014,424.933793 3120.57503,395.547022 3144.72267,371.968911 C3168.8703,348.390799 3198.71268,336.60192 3234.2507,336.60192 C3269.78872,336.60192 3299.6311,348.390799 3323.77873,371.968911 C3347.92637,395.547022 3360,424.933793 3360,460.130105 C3360,495.326417 3347.92637,524.713188 3323.77873,548.291299 C3299.6311,571.869411 3269.78872,583.65829 3234.2507,583.65829 C3198.71268,583.65829 3168.8703,571.869411 3144.72267,548.291299 Z" id="HARROW.IO" fill="#333333" sketch:type="MSShapeGroup"></path>
            <g id="HARROW.IO-+-Logo-Large" sketch:type="MSLayerGroup" transform="translate(831.000000, 251.000000)"></g>
        </g>
    </g>
</svg>