<?xml version="1.0" encoding="UTF-8" standalone="no"?>
<svg width="1400px" height="824px" viewBox="0 0 1400 824" version="1.1" xmlns="http://www.w3.org/2000/svg" xmlns:xlink="http://www.w3.org/1999/xlink">
    <!-- Generator: Sketch 3.8.3 (29802) - http://www.bohemiancoding.com/sketch -->
    <title>iceburg</title>
    <desc>Created with Sketch.</desc>
    <defs></defs>
    <g id="Home-/-Ice-Berg" stroke="none" stroke-width="1" fill="none" fill-rule="evenodd">
        <g id="home_iceberg_desktop" transform="translate(0.000000, -490.000000)">
            <g id="iceburg" transform="translate(0.000000, 490.000000)">
                <g id="Group-3" opacity="0.5" transform="translate(434.000000, 149.000000)">
                    <polyline id="Fill-32" fill="#CFB6D0" points="467.749534 84.2952703 491.613771 76.0526185 458.202673 23.850649 460.589874 7.3653454 446.92859 0 62.0477927 7.3653454 47.7284731 18.3551748 45.3422439 51.3246631 21.4789793 111.769284 0 232.659646 16.7055488 315.082807 64.4349939 298.597503 64.4349939 383.767842 95.4588902 375.52519 102.61855 444.212463 124.096557 460.697767 136.029648 540.37375 169.438801 578.839832 207.624301 675 250.580316 584.333068 293.537302 578.839832 334.106116 545.869225 381.836533 306.839036 412.860429 284.859377 448.657756 312.33451 486.84034 268.374074 494 139.243298 467.749534 84.2952703"></polyline>
                    <polyline id="Fill-34" fill="#ECDCEC" points="45 50 47.2835256 18.2882275 61.6109957 7.23872353 126 6 45 50"></polyline>
                    <polyline id="Fill-35" fill="#B698B8" points="177.306755 5 127.270529 5.68763999 45.8226618 49.8276318 22 111.696192 247 137 177.306755 5"></polyline>
                    <polyline id="Fill-36" fill="#ECDCEC" points="0 232 21.6449001 111 30 111.930743 0 232"></polyline>
                    <polyline id="Fill-37" fill="#ECDCEC" points="59 116 59 116 45.7747854 50 30.260312 112.763016 22 111.832887 45.7747854 50 59 116"></polyline>
                    <polyline id="Fill-38" fill="#E0D1E0" points="59 116 74.9614931 188 247 136.571109 59 116"></polyline>
                    <polyline id="Fill-39" fill="#ECDCEC" points="0 232.257627 16.6534066 315 73 188 0 232.257627"></polyline>
                    <polyline id="Fill-40" fill="#E2C8E2" points="0 232 29.6771128 112 58.4337196 115.237253 73 187.898584 0 232"></polyline>
                    <polyline id="Fill-41" fill="#CFB6D0" points="59 116 30 112.763016 45.654997 50 59 116"></polyline>
                    <polyline id="Fill-42" fill="#BFA5BF" points="73.5239579 188.511653 17 315 64.7302406 298.517524 240 137 73.5239579 188.511653"></polyline>
                    <polyline id="Fill-43" fill="#F0E0F0" points="100.904269 180.869887 65 300 238 138 100.904269 180.869887"></polyline>
                    <polyline id="Fill-44" fill="#B798B8" points="233.456883 4 178 4 247.766958 137 339 128.686588 233.456883 4"></polyline>
                    <polyline id="Fill-45" fill="#DEC4DE" points="303.067995 3 233 3 339 129 303.067995 3"></polyline>
                    <polyline id="Fill-46" fill="#BFA5BF" points="348.258276 3 302 3 337.582992 128.8167 381 307 348.258276 3"></polyline>
                    <path d="M382,306 L381.45667,301.008469 L381.848101,301.218686 L382,306 M381.83739,300.87317 L381.407011,300.545545 L349,2.48829033 L372.329114,1 L381.83739,300.87317" id="Fill-47" fill="#CFB6D0"></path>
                    <polyline id="Fill-48" fill="#CFB6D0" points="461.119312 7.36920917 447.394543 0 382 307 413.168066 285.008811 464 31.9679473 461.119312 7.36920917"></polyline>
                    <polyline id="Fill-49" fill="#BFA5BF" points="372 1.03898908 381.70189 307 447 0 372 1.03898908"></polyline>
                    <polyline id="Fill-50" fill="#E2C8E2" points="467.871948 84.2725223 491.624898 76.0411394 463.599667 32 444 114.318299 448.8692 312 486.873728 268.099664 494 139.145428 467.871948 84.2725223"></polyline>
                    <polyline id="Fill-51" fill="#F0E0F0" points="443.908042 128 413 285.18283 451 314 443.908042 128"></polyline>
                    <polyline id="Fill-52" fill="#CFB6D0" points="318.444176 3 274 3 338 129 318.444176 3"></polyline>
                    <polyline id="Fill-53" fill="#B698B8" points="372 2 372 141 410 6.08823529 372 2"></polyline>
                    <polyline id="Fill-54" fill="#B698B8" points="273.643758 3 254 3 304 73 273.643758 3"></polyline>
                    <polyline id="Fill-55" fill="#F0E0F0" points="178.566606 9.96912784 139.962356 8 61 116.307607 247 136 178.566606 9.96912784"></polyline>
                    <polyline id="Fill-57" fill="#BFA5BF" points="239.50677 137 209 165.886633 382 307 239.50677 137"></polyline>
                    <polyline id="Fill-58" fill="#CFB6D0" points="64 298.776953 64 384 95.058848 375.752247 209 166 64 298.776953"></polyline>
                    <polyline id="Fill-59" fill="#E2C8E2" points="208.504108 166 95 375.768222 102.140233 444.503238 123.559961 461 221 182.497882 208.504108 166"></polyline>
                    <polyline id="Fill-60" fill="#BFA5BF" points="221.829221 181 188 488 230.732462 450.912879 255.659409 387.040554 261 209.846036 221.829221 181"></polyline>
                    <polyline id="Fill-61" fill="#BFA5BF" points="124 459.898599 135.969101 539.547158 169.479074 578 222 181 124 459.898599"></polyline>
                    <polyline id="Fill-62" fill="#EDD3ED" points="208.555699 166 173 390.413562 185.443336 481 221 181.785271 208.555699 166"></polyline>
                    <polyline id="Fill-63" fill="#E2C8E2" points="261.563213 210 251 584 293.798056 578.503507 348.95085 460.191752 365 289.043575 261.563213 210"></polyline>
                    <polyline id="Fill-65" fill="#214588" points="380.997 301 380.186 300.633045 380 300 380.946 300.602305 380.997 301"></polyline>
                    <polyline id="Fill-66" fill="#283C68" points="381.453 301.602 381.051 301.414 381 301 381.442 301.293 381.453 301.602"></polyline>
                    <polyline id="Fill-67" fill="#222B51" points="383.481 302.306 383 302.08 383.019 302 383.481 302.306"></polyline>
                    <polyline id="Fill-68" fill="#223B80" points="382.982836 301.815 382.009937 301.309 382 301 383 301.735 382.982836 301.815"></polyline>
                    <path d="M364.686672,292 L277.303316,245.13808 L279.354101,224.050327 L365,288.695877 L364.6896,291.971016 L364.686672,292 M261.225981,236.515477 L260,235.858889 L260.739883,210 L267.26218,214.922742 L261.938534,211.366685 L261.225981,236.515477" id="Fill-78" fill="#CFB6D0"></path>
                    <path d="M209.304315,648 L175.843041,569.534725 L171,565.351091 L176.010479,527.333962 L194.820946,544.667279 L191.234662,567.384039 L214.54064,588.034212 L243.22507,519.887296 L252.481849,515.317929 L250.534897,583.989622 L209.304315,648 M293.557648,578.485077 L349,460 L334.18857,545.446594 L293.557648,578.485077" id="Fill-79" fill="#F4DBF5"></path>
                    <polyline id="Fill-80" fill="#E0D1E0" points="124.467897 460 103 444 126 455.753462 124.467897 460"></polyline>
                    <polyline id="Fill-81" fill="#CFB6D0" points="171.004218 565 142.468959 540.420541 124 460.35893 125.530668 456 137.554709 462.313202 148.279091 511.58806 167.941912 519.799793 176 527.203285 171.004218 565"></polyline>
                    <polyline id="Fill-82" fill="#F0E0F0" points="251 584 251 584 252.937755 515.322559 256.215466 513.696514 270.489936 548.804522 302.607249 526.08586 349 460 293.819532 578.494994 251 584"></polyline>
                    <polyline id="Fill-84" fill="#B698B8" points="253 482 259.93482 236 276 244.648822 253 482"></polyline>
                    <polyline id="Fill-86" fill="#CFB6D0" points="275.963709 245 260 236.31903 260.707517 211 265.993539 214.580129 278 223.7695 275.963709 245"></polyline>
                    <polyline id="Fill-88" fill="#B698B8" points="64 331 64 297.913887 207 168 186.641466 196.156752 188.357384 197.082895 64 331"></polyline>
                    <polyline id="Fill-95" fill="#2C87BC" points="246.174 136.286 246 136.006 246.007 136 246.181 136.285 246.174 136.286"></polyline>
                    <polyline id="Fill-100" fill="#CFB6D0" points="241.533813 136 156 126.926764 188.663495 90.369661 177.544732 10 178.118817 10.0291024 246 135.281394 241.533813 136"></polyline>
                    <polyline id="Fill-101" fill="#6DC4E3" points="200 371 204 338 200.347953 370.800162 200 371"></polyline>
                    <polyline id="Fill-102" fill="#FFF1FF" points="201 371 204.67151 338.097552 219.747532 214 242 225.942536 234.329709 351.955104 201 371"></polyline>
                    <polyline id="Fill-106" fill="#36B6DE" points="16 313.867 16.452 313 16.604 313.652 16 313.867"></polyline>
                    <polyline id="Fill-107" fill="#7CCBE6" points="16.1469072 314 16 313.267263 52 233 51.818299 234.32949 16.6707474 313.784225 16.1469072 314"></polyline>
                    <polyline id="Fill-108" fill="#CFB6D0" points="17 314 52 235 42.6797558 303.428303 17 314"></polyline>
                    <polyline id="Fill-109" fill="#FFF1FF" opacity="0.7" points="207.118903 675 169 579.074954 170.72518 566 175.552384 570.16483 208.904241 648.277441 250 584.554759 207.118903 675"></polyline>
                    <polyline id="Fill-110" fill="#E0D1E0" points="169.274392 578 135.915233 539.580174 124 460 142.467301 540.266422 171 564.908759 169.274392 578"></polyline>
                    <polyline id="Fill-112" fill="#2678B1" points="237 138.935 238 138 237.094897 138.907 237 138.935"></polyline>
                    <polyline id="Fill-121" fill="#2663A0" points="246.211 135.34 246 135.002 246.015 135 246.218 135.334 246.211 135.34"></polyline>
                    <polyline id="Fill-122" fill="#245A9A" points="243.894447 136.197 242 136.018 242.122074 136 244 136.189 243.894447 136.197"></polyline>
                    <polyline id="Fill-128" fill="#2678B1" points="238 137.391 238.423 137.012 238.467 137 238 137.391"></polyline>
                    <polyline id="Fill-135" fill="#E0D1E0" points="365.224165 289 349.170006 459.876234 294 578 334.431333 545.062266 382 306.271518 365.224165 289"></polyline>
                </g>
                <g id="Group-2">
                    <polyline id="Fill-16" fill="#AC9CAC" points="741.961425 39.5799272 731.585799 46.8551456 813.12242 49.4623058 741.961425 39.5799272"></polyline>
                    <polyline id="Fill-18" fill="#AC9CAC" points="820.92527 68.0814927 813.12242 49.4623058 806.633569 78.373568 843.032216 65.0860801 820.92527 68.0814927"></polyline>
                    <polyline id="Fill-20" fill="#988498" points="806.275206 77.6275364 731.585799 46.8551456 815.973548 118.899672 806.275206 77.6275364"></polyline>
                    <polyline id="Fill-4" fill="#988498" points="843.032216 57.5618083 820.92527 60.5572209 812.429359 41.2450485 768.133201 38.9245631 720.706436 0.608337379 685.467398 73.0196723 696.816689 100.617197 669.148353 100.8971 655.173319 87.1829854 613.083686 29.4146359 569.740908 121.305182 495.347883 152.545959 888.254709 151.324769 896.442968 140.15574 910.081051 120.620097 843.032216 57.5618083"></polyline>
                    <polyline id="Fill-6" fill="#6A536A" opacity="0.4" points="669.148353 100.8971 613.083686 29.4146359 634.321771 93.6342961 638.472246 151.827015 699.343262 153.211857 669.148353 100.8971"></polyline>
                    <polyline id="Fill-8" fill="#FFFFFF" opacity="0.2" points="609.420043 85.3207282 569.740908 121.305182 638.472246 151.827015 609.420043 85.3207282"></polyline>
                    <polyline id="Fill-9" fill="#6A536A" points="569.740908 121.305182 495.347883 152.545959 638.472246 151.827015 569.740908 121.305182"></polyline>
                    <polyline id="Fill-10" fill="#988498" points="495.347883 152.545959 547.16516 151.827015 569.740908 121.305182 495.347883 152.545959"></polyline>
                    <polyline id="Fill-12" fill="#6A536A" points="712.217287 103.061833 685.467398 73.0196723 693.542964 104.101311 699.343262 153.211857 744.382066 150.862027 712.217287 103.061833"></polyline>
                    <polyline id="Fill-13" fill="#988498" points="762.019616 82.2790413 699.343262 153.211857 888.254709 151.324769 762.019616 82.2790413"></polyline>
                    <polyline id="Fill-15" fill="#6A536A" points="720.706436 0.608337379 741.269491 31.3637985 768.133201 38.9245631 720.706436 0.608337379"></polyline>
                    <polyline id="Fill-17" fill="#6A536A" points="685.467398 73.0196723 725.706616 123.844624 751.645117 92.6704369 685.467398 73.0196723"></polyline>
                    <polyline id="Fill-19" fill="#AC9CAC" points="731.585799 39.3308738 685.467398 73.0196723 751.645117 92.6704369 762.019616 82.2790413 820.122897 112.416007 731.585799 39.3308738"></polyline>
                    <polyline id="Fill-29" fill="#AC9CAC" points="693.542964 104.853738 691.467162 100.698083 669.148353 101.649527 686.279913 105.893216 699.343262 153.964284 693.542964 104.853738"></polyline>
                    <polyline id="Fill-21" fill="#867186" points="843.032216 57.5618083 874.074575 112.416007 910.081051 120.620097 843.032216 57.5618083"></polyline>
                    <polyline id="Fill-22" fill="#6A536A" points="874.074575 112.416007 869.924099 141.508981 888.254709 151.324769 910.081051 120.620097 874.074575 112.416007"></polyline>
                    <polyline id="Fill-23" fill="#6A536A" points="856.435898 99.9456553 811.823072 90.5926092 806.275206 70.1032646 815.973548 111.3754 869.924099 141.508981 856.435898 99.9456553"></polyline>
                    <polyline id="Fill-7" fill="#6A536A" opacity="0.6" points="634.321771 93.6342961 609.420043 85.3207282 638.472246 151.827015 634.321771 93.6342961"></polyline>
                    <polyline id="Fill-24" fill="#988498" points="843.032216 57.5618083 869.924099 141.508981 874.074575 112.416007 843.032216 57.5618083"></polyline>
                    <polyline id="Fill-25" fill="#7C667C" points="843.032216 57.5618083 806.275206 70.1032646 811.823072 90.5926092 856.435898 99.9456553 843.032216 57.5618083"></polyline>
                    <polyline id="Fill-26" fill="#6A536A" points="888.254709 151.324769 762.019616 82.2790413 787.958118 112.416007 786.921344 150.862027 888.254709 151.324769"></polyline>
                    <polyline id="Fill-27" fill="#AC9CAC" points="762.019616 82.2790413 772.395242 113.454357 755.794466 150.862027 786.921344 150.862027 787.958118 112.416007 762.019616 82.2790413"></polyline>
                    <polyline id="Fill-28" fill="#988498" points="762.019616 82.2790413 851.249775 149.822549 888.254709 151.324769 762.019616 82.2790413"></polyline>
                    <polyline id="Fill-30" fill="#6A536A" opacity="0.5" points="613.083686 29.4146359 660.341411 103.061833 673.829612 151.900376 699.343262 153.211857 613.083686 29.4146359"></polyline>
                    <polyline id="Fill-31" fill="#7C667C" points="569.740908 121.305182 590.826858 151.900376 638.472246 151.827015 569.740908 121.305182"></polyline>
                    <polygon id="Fill-134" fill="#988498" points="0 154 1400 154 1400 150 0 150"></polygon>
                </g>
            </g>
        </g>
    </g>
</svg>