<?xml version="1.0" encoding="UTF-8" standalone="no"?>
<svg width="2529px" height="430px" viewBox="0 0 2529 430" version="1.1" xmlns="http://www.w3.org/2000/svg" xmlns:xlink="http://www.w3.org/1999/xlink" xmlns:sketch="http://www.bohemiancoding.com/sketch/ns">
    <!-- Generator: Sketch 3.5 (25232) - http://www.bohemiancoding.com/sketch -->
    <title>logo-with-type</title>
    <desc>Created with Sketch.</desc>
    <defs></defs>
    <g id="harrow-logo" sketch:type="MSPage">
        <g id="logo-with-type" sketch:type="MSArtboardGroup">
            <path d="M147.002341,191.512404 L147.002341,274.461233 L150.788153,276.409181 C152.861851,277.476104 157.355379,279.92469 160.723979,281.823556 C164.092579,283.722421 167.006882,285.289982 167.167586,285.289982 C167.356722,285.289982 167.428112,273.4029 167.368466,251.92946 C167.281624,220.700944 167.310365,218.505131 167.816582,217.571957 C168.264699,216.745843 168.54284,216.574976 169.439073,216.574976 C170.915386,216.574976 172.065964,217.105063 175.959942,219.57819 C177.791966,220.741743 182.295383,223.407211 185.942125,225.486453 C189.602773,227.573671 199.941904,233.504022 208.966044,238.692618 C217.990185,243.881215 229.439408,250.409141 234.462331,253.229523 C243.486471,258.296948 244.711838,259.090852 245.357435,260.288763 C245.743434,261.004442 245.694604,298.695544 245.2845,316.825262 C245.119161,324.126232 245.138631,328.3792 245.340747,329.111137 C245.510104,329.724664 246.096982,330.644034 246.63874,331.144979 C247.407337,331.855443 264.965162,341.81145 266.324964,342.307793 C266.490612,342.368225 266.603105,309.064147 266.603105,259.889971 C266.603105,194.242598 266.523989,177.30803 266.216798,177.063847 C266.003556,176.894513 261.812893,174.460652 256.868159,171.634134 C251.923425,168.807616 247.448749,166.236018 246.885976,165.897658 L245.866125,165.284131 L245.912482,198.061803 C245.938133,216.099492 245.866125,231.32232 245.752396,231.913147 C245.416154,233.661698 244.835148,234.20651 243.331948,234.183196 C241.732327,234.158348 240.272394,233.431932 235.698515,230.384851 C233.738855,229.079573 229.579406,226.572089 226.427138,224.796235 C223.275179,223.020382 217.464807,219.747523 213.478114,217.501708 C204.977498,212.713438 192.926562,205.732422 183.006188,199.849927 C179.11221,197.541226 174.594577,194.991408 172.962197,194.181246 C169.531787,192.478709 168.190837,191.36209 167.804221,189.886558 C167.644135,189.274565 167.609522,174.364329 167.723869,155.222291 C167.834198,136.755133 167.81751,121.341498 167.686783,120.987493 C167.503519,120.490843 155.532008,113.29448 147.218673,108.683519 C147.09969,108.617565 147.002341,145.896683 147.002341,191.512404 L147.002341,191.512404 L147.002341,191.512404 Z" id="inner-h" sketch:type="MSShapeGroup"></path>
            <path d="M195.151693,88.082822 C207.637147,94.88254 209.265819,95.857741 209.68025,96.7838597 C209.844353,97.1501353 209.892873,111.263093 209.800468,131.816243 C209.663252,162.400556 209.69941,166.315471 210.124967,166.955993 C210.390128,167.355092 212.149217,168.49165 214.065302,169.502129 C215.966243,170.504632 222.981276,174.43918 229.625763,178.229548 L241.72491,185.131725 L241.92579,173.229305 C242.036119,166.695244 242.175499,161.278415 242.234836,161.219517 C242.294173,161.160618 251.212619,155.922326 262.029226,149.593183 L281.71545,138.074216 L307.860733,152.645479 L307.937995,237.910372 C308.013711,321.380699 308.003203,323.195205 307.43425,324.126232 C306.488878,325.673853 301.71072,328.632893 283.446107,338.982478 C279.181273,341.398853 274.522406,344.150521 273.046712,345.124188 C271.408769,346.204916 269.798949,347.006795 268.890045,347.194841 C267.566092,347.468781 267.205745,347.410803 265.536897,346.658005 C264.517045,346.19786 263.03517,345.335241 262.276463,344.760367 C259.621758,342.747999 256.960873,341.07215 252.912372,338.863147 C242.157574,332.994763 242.093293,332.951509 241.675772,331.27382 C241.532684,330.699865 241.492508,314.984682 241.585839,296.333466 C241.741599,265.258331 241.713475,262.372301 241.245889,261.669199 C240.95724,261.235129 239.005306,259.989976 236.749271,258.800961 C234.55999,257.646917 227.58606,253.739672 221.281524,250.134895 C214.976987,246.530118 209.717026,243.570157 209.615041,243.570157 C209.513056,243.570157 209.429613,248.892503 209.429613,255.395887 C209.429613,263.218355 209.317739,267.429296 209.099552,267.835144 C208.668742,268.635183 205.226589,270.792343 202.321558,272.082284 C201.039944,272.65133 197.654965,274.517065 194.749933,276.2558 C191.866535,277.981651 186.498408,281.123215 182.851666,283.21933 C179.204924,285.315444 175.391607,287.557578 174.39926,288.188897 C173.410314,288.818069 172.017444,289.599089 171.324254,289.912601 C168.787914,291.060816 168.511936,290.960198 159.302368,285.535393 C154.66668,282.804892 149.264248,279.639707 147.311387,278.510511 C145.302589,277.348798 143.588311,276.135242 143.36858,275.718964 C142.768103,274.581485 142.972383,105.710675 143.575949,104.544974 C143.906319,103.906293 147.620433,101.718456 159.796842,94.9892937 C168.481031,90.18998 177.327779,85.288514 179.452161,84.0991922 C181.584578,82.905269 183.426182,81.9297613 183.562471,81.9211719 C183.698452,81.9125825 188.908966,84.682963 195.151693,88.082822 L195.151693,88.082822 L195.151693,88.082822 Z M576.16671,330.26632 L576.16671,91.410991 L616.4885,91.410991 L616.4885,194.949138 L735.06189,194.949138 L735.06189,91.410991 L775.38367,91.410991 L775.38367,330.26632 L735.06189,330.26632 L735.06189,232.537244 L616.4885,232.537244 L616.4885,330.26632 L576.16671,330.26632 L576.16671,330.26632 Z M864.94392,275.934421 L841.02421,330.26632 L797.96875,330.26632 L903.21544,91.410991 L946.27091,91.410991 L1051.51761,330.26632 L1008.46214,330.26632 L984.54244,275.934421 L864.94392,275.934421 L864.94392,275.934421 Z M968.14035,238.688025 L924.74318,140.275529 L881.346,238.688025 L968.14035,238.688025 L968.14035,238.688025 Z M1264.77689,168.979173 C1264.77689,208.38993 1247.57765,233.220613 1213.17867,243.471966 L1275.71161,330.26632 L1224.4551,330.26632 L1167.38952,249.964457 L1114.42446,249.964457 L1114.42446,330.26632 L1074.10268,330.26632 L1074.10268,91.410991 L1162.94729,91.410991 C1199.39655,91.410991 1225.48015,97.56171 1241.19889,109.863334 C1256.91763,122.164957 1264.77689,141.87004 1264.77689,168.979173 L1264.77689,168.979173 L1264.77689,168.979173 Z M1211.12841,202.808469 C1219.32949,195.746426 1223.42997,184.413156 1223.42997,168.808318 C1223.42997,153.203481 1219.21559,142.496673 1210.7867,136.687573 C1202.35781,130.878473 1187.32272,127.973967 1165.68097,127.973967 L1114.42446,127.973967 L1114.42446,213.401481 L1164.65584,213.401481 C1187.43663,213.401481 1202.92733,209.870512 1211.12841,202.808469 L1211.12841,202.808469 L1211.12841,202.808469 Z M1502.981,168.979173 C1502.981,208.38993 1485.78177,233.220613 1451.38278,243.471966 L1513.91572,330.26632 L1462.65922,330.26632 L1405.59364,249.964457 L1352.62858,249.964457 L1352.62858,330.26632 L1312.30679,330.26632 L1312.30679,91.410991 L1401.15141,91.410991 C1437.60066,91.410991 1463.68427,97.56171 1479.40301,109.863334 C1495.12175,122.164957 1502.981,141.87004 1502.981,168.979173 L1502.981,168.979173 L1502.981,168.979173 Z M1449.33252,202.808469 C1457.53361,195.746426 1461.63409,184.413156 1461.63409,168.808318 C1461.63409,153.203481 1457.4197,142.496673 1448.99081,136.687573 C1440.56192,130.878473 1425.52683,127.973967 1403.88509,127.973967 L1352.62858,127.973967 L1352.62858,213.401481 L1402.85996,213.401481 C1425.64074,213.401481 1441.13144,209.870512 1449.33252,202.808469 L1449.33252,202.808469 L1449.33252,202.808469 Z M1652.00767,122.506606 C1628.31565,122.506606 1608.32582,130.93537 1592.03755,147.79315 C1575.74929,164.65093 1567.60529,185.096378 1567.60529,209.130105 C1567.60529,233.163832 1575.74929,253.60928 1592.03755,270.46706 C1608.32582,287.32484 1628.31565,295.753604 1652.00767,295.753604 C1675.69968,295.753604 1695.68952,287.32484 1711.97778,270.46706 C1728.26604,253.60928 1736.41005,233.163832 1736.41005,209.130105 C1736.41005,185.096378 1728.26604,164.65093 1711.97778,147.79315 C1695.68952,130.93537 1675.69968,122.506606 1652.00767,122.506606 L1652.00767,122.506606 L1652.00767,122.506606 Z M1652.00767,332.65829 C1616.46965,332.65829 1586.62727,320.869411 1562.47963,297.291299 C1538.332,273.713188 1526.25837,244.326417 1526.25837,209.130105 C1526.25837,173.933793 1538.332,144.547022 1562.47963,120.968911 C1586.62727,97.390799 1616.46965,85.60192 1652.00767,85.60192 C1687.54569,85.60192 1717.38807,97.390799 1741.5357,120.968911 C1765.68333,144.547022 1777.75697,173.933793 1777.75697,209.130105 C1777.75697,244.326417 1765.68333,273.713188 1741.5357,297.291299 C1717.38807,320.869411 1687.54569,332.65829 1652.00767,332.65829 L1652.00767,332.65829 L1652.00767,332.65829 Z M1876.89841,263.291149 L1930.20517,91.410991 L1966.42644,91.410991 L2019.73321,263.291149 L2079.87418,91.410991 L2123.27136,91.410991 L2039.8941,330.26632 L1999.91403,330.26632 L1949.68265,166.587203 L1946.94897,166.587203 L1896.71759,330.26632 L1856.73751,330.26632 L1773.36026,91.410991 L1816.75744,91.410991 L1876.89841,263.291149 L1876.89841,263.291149 Z M2101.1146,307.371746 C2101.1146,300.309703 2103.56349,294.329837 2108.46136,289.431968 C2113.35923,284.534099 2119.3391,282.085202 2126.40114,282.085202 C2133.46318,282.085202 2139.5,284.534099 2144.51177,289.431968 C2149.52355,294.329837 2152.0294,300.309703 2152.0294,307.371746 C2152.0294,314.433789 2149.52355,320.470606 2144.51177,325.482379 C2139.5,330.494151 2133.46318,333 2126.40114,333 C2119.3391,333 2113.35923,330.494151 2108.46136,325.482379 C2103.56349,320.470606 2101.1146,314.433789 2101.1146,307.371746 L2101.1146,307.371746 L2101.1146,307.371746 Z M2196.82562,91.410991 L2237.14741,91.410991 L2237.14741,330.26632 L2196.82562,330.26632 L2196.82562,91.410991 L2196.82562,91.410991 Z M2403.2507,122.506606 C2379.55868,122.506606 2359.56885,130.93537 2343.28058,147.79315 C2326.99232,164.65093 2318.84832,185.096378 2318.84832,209.130105 C2318.84832,233.163832 2326.99232,253.60928 2343.28058,270.46706 C2359.56885,287.32484 2379.55868,295.753604 2403.2507,295.753604 C2426.94272,295.753604 2446.93255,287.32484 2463.22081,270.46706 C2479.50908,253.60928 2487.65308,233.163832 2487.65308,209.130105 C2487.65308,185.096378 2479.50908,164.65093 2463.22081,147.79315 C2446.93255,130.93537 2426.94272,122.506606 2403.2507,122.506606 L2403.2507,122.506606 L2403.2507,122.506606 Z M2313.72267,297.291299 C2289.57503,273.713188 2277.5014,244.326417 2277.5014,209.130105 C2277.5014,173.933793 2289.57503,144.547022 2313.72267,120.968911 C2337.8703,97.390799 2367.71268,85.60192 2403.2507,85.60192 C2438.78872,85.60192 2468.6311,97.390799 2492.77873,120.968911 C2516.92637,144.547022 2529,173.933793 2529,209.130105 C2529,244.326417 2516.92637,273.713188 2492.77873,297.291299 C2468.6311,320.869411 2438.78872,332.65829 2403.2507,332.65829 C2367.71268,332.65829 2337.8703,320.869411 2313.72267,297.291299 L2313.72267,297.291299 Z M163.474488,0.319033959 C153.430496,1.35742814 145.5387,5.66898804 136.152049,15.2461421 C131.996308,19.4859193 130.953588,20.6758547 123.840896,29.2959068 C113.766,41.505091 109.115168,46.1688153 102.808777,50.3852786 C98.9231432,52.9835648 91.1577469,56.8365134 84.5750691,59.4326522 C81.934581,60.474114 76.9416354,62.4389337 73.4494167,63.810473 C49.8383098,73.0848515 40.939024,81.3189953 36.6850072,97.8268554 C35.2927554,103.229266 34.5083969,109.729276 33.7385636,122.245224 C32.5311212,141.878083 31.2652692,148.570434 26.9627322,158.075192 C25.4756033,161.360014 21.9571157,167.308771 16.5840436,175.622059 C7.95980872,188.966268 4.89067387,194.612556 2.66152578,201.236805 C1.06159515,205.991638 0.51242058,208.703733 0.301960321,212.893815 C0.002494843,218.849934 1.09064546,224.550825 3.76821915,231.05421 C6.28076233,237.156961 8.47375205,241.054697 15.6423808,252.159533 C23.3255709,264.061954 26.3545298,269.380925 28.4646952,274.675968 C31.2785582,281.736742 32.6544305,289.799405 33.5744602,304.616078 C34.1551574,313.972363 34.5204497,318.481785 35.0000889,322.224299 C37.5997831,342.501361 44.9006834,352.511665 63.4672341,361.256263 C65.3879543,362.160908 71.687855,364.771772 77.4670134,367.058386 C89.7361357,371.912304 94.1388036,373.835711 98.3585164,376.185825 C107.036525,381.018883 112.313793,386.000414 124.744546,401.093175 C131.035794,408.731584 136.21973,414.48984 139.214385,417.166658 C150.389484,427.154875 160.26041,430.386014 174.507427,428.719368 C179.81189,428.099093 184.365991,427.137082 196.295163,424.118224 C215.857768,419.167676 222.533778,418.323769 232.731674,419.512784 C238.319224,420.16435 242.837475,421.112862 255.32293,424.25596 C271.795076,428.402482 278.066236,429.407132 285.300382,429.057728 C291.264968,428.769677 295.13175,427.769322 300.474536,425.132077 C307.005912,421.9083 314.4533,415.296321 322.541341,405.541244 C324.830444,402.780373 328.44968,398.420345 330.562627,395.878196 C335.585241,389.834957 343.197351,382.319867 346.89323,379.755631 C352.631595,375.774762 359.162353,372.626143 371.987758,367.657495 C384.164166,362.940088 389.239318,360.678628 394.300872,357.714986 C407.717172,349.859082 413.716371,340.047254 416.000221,322.224299 C416.47986,318.481785 416.844225,313.972363 417.422759,304.616078 C418.929358,280.259063 420.843588,274.562773 434.689463,253.233205 C444.56657,238.017739 448.244834,230.560627 450.062024,222.066041 C450.751505,218.845025 450.831857,210.998017 450.208512,207.832219 C449.499251,204.23235 447.262995,197.893084 445.284174,193.874483 C443.240454,189.72336 439.511506,183.475203 434.207969,175.315296 C420.562974,154.320714 418.87682,149.025671 417.260819,122.091842 C416.500875,109.422513 415.707863,103.108401 414.128639,97.1519758 C410.648473,84.0249555 403.726772,76.1285582 389.479756,69.0315864 C384.751044,66.6762569 382.062654,65.5476743 368.897299,60.3925149 C364.910607,58.8317027 359.320584,56.4098054 356.504558,55.0235415 C345.187915,49.4533313 340.1106,45.0021941 327.22524,29.3572595 C319.999129,20.5838256 317.286015,17.5441069 312.929086,13.3417548 C304.349045,5.06589116 296.765985,1.25680974 286.938326,0.286517036 C280.329379,-0.365968763 272.567691,0.705555871 258.722435,4.18179897 C237.120126,9.60537628 235.19477,9.93913488 225.5,9.93913488 C215.766909,9.93913488 213.879874,9.61181831 192.432089,4.20357918 C178.3705,0.657700777 170.46047,-0.4033939 163.474488,0.319033959 L163.474488,0.319033959 L163.474488,0.319033959 Z" id="HARROW.IO" sketch:type="MSShapeGroup"></path>
        </g>
    </g>
</svg>
