<?xml version="1.0" encoding="UTF-8" standalone="no"?>
<svg width="1232px" height="260px" viewBox="0 0 1232 260" version="1.1" xmlns="http://www.w3.org/2000/svg" xmlns:xlink="http://www.w3.org/1999/xlink" xmlns:sketch="http://www.bohemiancoding.com/sketch/ns">
    <!-- Generator: Sketch 3.5.1 (25234) - http://www.bohemiancoding.com/sketch -->
    <title>tools-background</title>
    <desc>Created with Sketch.</desc>
    <defs></defs>
    <g id="Page-1" stroke="none" stroke-width="1" fill="none" fill-rule="evenodd" sketch:type="MSPage">
        <g id="tools-background" sketch:type="MSArtboardGroup">
            <g id="Logos" sketch:type="MSLayerGroup" transform="translate(56.000000, 30.000000)">
                <g id="Row-1" fill="#000000" sketch:type="MSShapeGroup">
                    <g id="AmazonWebservices" transform="translate(0.000000, 1.000000)">
                        <g id="svg2">
                            <path d="M50.0214513,20.9296862 C47.0367225,20.9296862 43.7048411,22.0713055 43.0066208,25.8281237 C42.9322309,26.2271237 43.1981419,26.4175555 43.4552436,26.475851 L46.514036,26.8401976 C46.7972394,26.8259476 46.9894131,26.5205442 47.0442267,26.2329532 C47.3052436,24.9400896 48.3773708,24.3302544 49.5728284,24.3302544 C50.2188453,24.3302544 50.9441462,24.5504817 51.326536,25.1399135 C51.7650445,25.7967089 51.734375,26.689601 51.734375,27.4474419 L51.734375,27.8927544 C49.9163919,28.1000271 47.5225403,28.2253623 45.8207097,28.9857942 C43.8565572,29.8524532 42.4764301,31.6158907 42.4764301,34.2080953 C42.4764301,37.5296407 44.5263919,39.1874987 47.1665784,39.1874987 C49.3956631,39.1874987 50.6273369,38.6676976 52.3461335,36.8799703 C52.9164555,37.7220157 53.0991674,38.1041748 54.140625,38.9850839 C54.3729301,39.1094476 54.6672267,39.0971407 54.8747352,38.904118 L54.8747352,38.944601 C55.5011758,38.3784873 56.6401886,37.3456862 57.2809852,36.7990044 C57.5367818,36.5865498 57.4806631,36.2377487 57.2809852,35.9488623 C56.708053,35.1430896 56.0982521,34.4924476 56.0982521,32.9936067 L56.0982521,28.0142032 C56.0982521,25.9052032 56.2780275,23.960726 54.7523835,22.5085214 C53.5504004,21.3335442 51.5457903,20.9296862 50.0214513,20.9296862 L50.0214513,20.9296862 Z M91.1316208,20.9296862 C88.1455869,20.9296862 84.8163157,22.0713055 84.1167903,25.8281237 C84.0424004,26.2271237 84.3070064,26.4175555 84.5654131,26.475851 L87.6242055,26.8401976 C87.9074089,26.8259476 88.1008877,26.5205442 88.1543962,26.2329532 C88.4167182,24.9400896 89.4875403,24.3302544 90.6829979,24.3302544 C91.3303199,24.3302544 92.0543157,24.5504817 92.4367055,25.1399135 C92.8739089,25.7967089 92.8037606,26.689601 92.8037606,27.4474419 L92.8037606,27.8927544 C90.9857775,28.1000271 88.6327097,28.2253623 86.9308792,28.9857942 C84.9654216,29.8524532 83.5865996,31.6158907 83.5865996,34.2080953 C83.5865996,37.5296407 85.6378665,39.1874987 88.2767479,39.1874987 C90.5032225,39.1874987 91.7348962,38.6676976 93.456303,36.8799703 C94.0240148,37.7220157 94.2093369,38.1041748 95.2507945,38.9850839 C95.4844047,39.1094476 95.7773962,39.0971407 95.9849047,38.904118 L95.9849047,38.944601 C96.6126504,38.3784873 97.7503581,37.3456862 98.3911547,36.7990044 C98.6469513,36.5865498 98.5882225,36.2377487 98.3911547,35.9488623 C97.8182225,35.1430896 97.2084216,34.4924476 97.2084216,32.9936067 L97.2084216,28.0142032 C97.2084216,25.9052032 97.3461081,23.960726 95.8217691,22.5085214 C94.6184809,21.3335442 92.6559597,20.9296862 91.1316208,20.9296862 L91.1316208,20.9296862 Z M68.0071504,21.091618 C66.0782352,21.091618 64.647536,22.0577032 63.8879767,24.1278396 L63.8471928,24.1278396 L63.8471928,21.982243 C63.8276165,21.682993 63.5816081,21.4310271 63.2762182,21.4154817 L60.3397775,21.4154817 C60.0069809,21.4154817 59.7280191,21.694976 59.7280191,22.022726 L59.7280191,38.4183226 C59.7528157,38.7097998 60.0001292,38.9643567 60.2989936,38.9850839 L63.4393538,38.9850839 C63.7747606,38.9850839 64.0498072,38.7081805 64.0511123,38.3778396 L64.0511123,29.6740044 C64.0511123,27.7761635 63.9587775,25.1803964 66.2126589,25.1803964 C68.4378284,25.1803964 68.1295021,27.8474135 68.1295021,29.6740044 L68.1295021,38.3778396 C68.1295021,38.6874532 68.3846462,38.9643567 68.7004767,38.9850839 L71.8408369,38.9850839 C72.1749386,38.9850839 72.4525953,38.7081805 72.4525953,38.3778396 L72.4525953,29.6740044 C72.4525953,28.7425726 72.4144216,27.3859078 72.7380826,26.5568169 C73.0604386,25.727726 73.8519725,25.1803964 74.6141419,25.1803964 C75.5224809,25.1803964 76.2158072,25.494868 76.4494174,26.5972998 C76.5955869,27.2527998 76.5309852,28.9848226 76.5309852,29.6740044 L76.5309852,38.3778396 C76.5309852,38.6874532 76.7861292,38.9643567 77.1019597,38.9850839 L80.2423199,38.9850839 C80.5764216,38.9850839 80.8540784,38.7081805 80.8540784,38.3778396 L80.8540784,28.0142032 C80.8540784,26.2536805 81.032875,24.255118 80.0384004,22.872868 C79.1600784,21.6318226 77.7241589,21.091618 76.4086335,21.091618 C74.5632436,21.091618 72.8464047,22.0577032 72.0855403,24.1278396 C71.2072182,22.0589987 69.9686928,21.091618 68.0071504,21.091618 L68.0071504,21.091618 Z M121.393273,21.091618 C116.855494,21.091618 114.337659,25.0518226 114.337659,30.1597998 C114.337659,35.2327998 116.828087,39.3089476 121.393273,39.3089476 C125.784883,39.3089476 128.571239,35.3260726 128.571239,30.3217317 C128.571239,25.1476862 126.047206,21.091618 121.393273,21.091618 L121.393273,21.091618 Z M139.297411,21.091618 C137.129665,21.091618 135.890814,22.167493 135.015102,24.4112203 L134.974383,24.4112203 L134.974383,21.9012771 C134.918265,21.647368 134.677463,21.4715101 134.403409,21.4559646 L131.507752,21.4559646 C131.191908,21.4559646 130.924705,21.682993 130.895993,21.982243 L130.895993,38.3778396 C130.895993,38.6874532 131.152443,38.9643567 131.466968,38.9850839 L134.566544,38.9850839 C134.900646,38.9850839 135.173069,38.709476 135.178303,38.3778396 L135.178303,29.5525555 C135.178303,28.4462373 135.27253,27.4367544 135.708493,26.435368 C136.059561,25.6412544 136.740815,25.1399135 137.502985,25.1399135 C139.666815,25.1399135 139.460612,27.7570555 139.460612,29.5525555 L139.460612,38.4588055 C139.491934,38.7373282 139.744468,38.9669476 140.031587,38.9850839 L143.171947,38.9850839 C143.481239,38.9850839 143.74715,38.7515782 143.783705,38.4588055 L143.783705,28.1356521 C143.783705,26.5487203 143.787621,24.3445044 142.968027,23.0347998 C142.089705,21.618868 140.699137,21.091618 139.297476,21.091618 L139.297411,21.091618 Z M101.613083,21.3749987 C101.294642,21.3749987 101.043413,21.625993 101.042108,21.982243 L101.042108,24.3302544 C101.043413,24.6813226 101.286811,24.9349078 101.613083,24.9374987 L106.996557,24.9374987 L100.838189,33.9651976 C100.462324,34.5468567 100.43035,35.206243 100.43035,35.5845157 L100.43035,37.9730101 C100.43035,38.3163055 100.806867,38.6910157 101.16446,38.4992885 C104.673833,36.5975612 108.879794,36.7669419 112.053761,38.4588055 C112.438761,38.6673737 112.828655,38.2758226 112.828655,37.9325271 L112.828655,35.4225839 C112.797333,35.0870612 112.664867,34.7638453 112.25768,34.5319589 C110.456663,33.503368 108.365917,33.1885726 106.384799,33.2365044 L111.727489,25.4637771 C112.222117,24.7655271 112.498468,24.3445044 112.502383,24.0063907 L112.502383,21.982243 C112.502383,21.6337657 112.2629,21.3749987 111.931409,21.3749987 L101.613083,21.3749987 L101.613083,21.3749987 Z M121.393273,24.4517032 C122.387748,24.4517032 123.120879,24.8918339 123.473252,26.0305385 C123.881744,27.3428339 123.921875,28.9812601 123.921875,30.3622146 C123.921875,32.4660328 123.823341,35.9488623 121.393273,35.9488623 C118.935799,35.9488623 118.946239,31.6375896 118.946239,29.6335214 C118.946239,27.6346351 119.081968,24.4517032 121.393273,24.4517032 L121.393273,24.4517032 Z M51.6935911,30.4431805 L51.6935911,31.1313907 C51.6935911,32.3763226 51.7386165,33.4243453 51.1226165,34.5319589 C50.6240742,35.4322998 49.840697,35.9893453 48.9610699,35.9893453 C47.7603919,35.9893453 47.0442267,35.0222885 47.0442267,33.6413339 C47.0442267,30.9195839 49.4266589,30.4431805 51.6935911,30.4431805 L51.6935911,30.4431805 Z M92.8037606,30.4431805 L92.8037606,31.1313907 C92.8037606,32.3763226 92.848786,33.4243453 92.232786,34.5319589 C91.7342436,35.4322998 90.9547818,35.9893453 90.0712394,35.9893453 C88.8692564,35.9893453 88.1543962,35.0222885 88.1543962,33.6413339 C88.1543962,30.9195839 90.5342182,30.4431805 92.8037606,30.4431805 L92.8037606,30.4431805 Z" id="path243"></path>
                            <path d="M113.154926,39.5113623 L113.154926,41.8593737 L114.745498,41.8593737 L114.745498,39.5113623 L113.154926,39.5113623 L113.154926,39.5113623 Z M67.0283369,39.9161919 L67.0283369,56.6356521 L68.4965572,56.6356521 L68.4965572,55.1377828 C68.8097775,55.731101 69.1657394,56.1744703 69.5977225,56.4737203 C70.0284004,56.7729703 70.5230275,56.9190328 71.0659428,56.9190328 C72.1439428,56.9190328 73.0747945,56.3720271 73.8800318,55.2592317 C74.6852691,54.1464362 75.1035487,52.5329476 75.1035487,50.482243 C75.1035487,49.1388567 74.9296462,48.0247658 74.5733581,47.0816748 C74.2170699,46.1398794 73.7410403,45.4403339 73.1459216,44.9765612 C72.550803,44.5140839 71.8744428,44.247868 71.1475106,44.247868 C70.6280869,44.247868 70.1429216,44.383243 69.7200742,44.6526976 C69.2959216,44.9221521 68.9530106,45.3609873 68.6189089,45.9076692 L68.6189089,39.9161919 L67.0283369,39.9161919 L67.0283369,39.9161919 Z M82.1183792,43.8430385 C81.0116674,43.8430385 80.1333453,44.1681976 79.5082097,44.8146294 C78.8830742,45.4597658 78.5701801,46.2920953 78.5701801,47.3245726 C78.5701801,47.924368 78.7062352,48.4318623 78.9372352,48.9034078 C79.1682352,49.3749533 79.4997267,49.7558169 79.9160487,50.0369305 C80.3336758,50.3180442 81.1666462,50.686601 82.4038665,51.0894873 C83.2600021,51.3628283 83.7712691,51.5950385 83.9944386,51.7776976 C84.3180996,52.0432658 84.4838453,52.3914192 84.4838453,52.8707373 C84.4838453,53.4251919 84.2900403,53.8870214 83.9128708,54.2471578 C83.5357013,54.6085896 83.0113835,54.7734362 82.3222987,54.7734362 C81.633214,54.7734362 81.0664809,54.5820328 80.6501589,54.1661919 C80.2338369,53.750351 80.0100148,53.118493 79.9160487,52.263493 L78.3254767,52.5873567 C78.6856801,55.184743 79.9907648,56.4750158 82.2407309,56.4737203 C83.4414089,56.4737203 84.3605148,56.1362544 85.0548199,55.4211635 C85.749125,54.7060726 86.1152013,53.7441976 86.1152013,52.5873567 C86.1152013,51.9629476 86.0042691,51.4214476 85.7889301,50.9680385 C85.5735911,50.5159248 85.2779894,50.1784589 84.8916843,49.9154817 C84.5040742,49.6537998 83.6404343,49.3046748 82.3222987,48.8629248 C81.3643665,48.529993 80.8038326,48.2857998 80.609375,48.1342317 C80.2844089,47.8777317 80.1199682,47.5286067 80.1199682,47.0816748 C80.1199682,46.6269703 80.2713581,46.2396294 80.609375,45.9481521 C80.9473919,45.6579703 81.4687733,45.5028396 82.1591631,45.5028396 C83.3755021,45.5028396 84.0547987,46.1651408 84.1983581,47.4865044 L85.7481462,47.2436067 C85.6411292,46.4080385 85.4577648,45.7486521 85.1771716,45.3004248 C84.8965784,44.8521976 84.482214,44.4742487 83.9536547,44.2073851 C83.4237903,43.9418169 82.8165996,43.8430385 82.1183792,43.8430385 L82.1183792,43.8430385 Z M91.8657309,43.8430385 C90.5919682,43.8430385 89.5146208,44.3651067 88.6845869,45.4623567 C87.8532479,46.5596067 87.4610699,48.1510726 87.4610699,50.2393453 C87.4610699,52.2511862 87.8610784,53.8274305 88.6845869,54.8948851 C89.5080953,55.9610442 90.5753284,56.4737203 91.9065148,56.4737203 C92.9636335,56.4737203 93.8422818,56.1589248 94.5574682,55.5021294 C95.2739597,54.8453339 95.7937097,53.8789248 96.0664725,52.5873567 L94.4351165,52.303976 C93.9665911,53.9595669 93.1019725,54.7708453 91.9065148,54.7734362 C91.1443453,54.7734362 90.5221462,54.4518396 89.9896716,53.7613623 C89.457197,53.0695896 89.156375,52.0435896 89.0924258,50.6846578 L96.1072564,50.6846578 L96.1072564,50.1178964 C96.1072564,48.0749646 95.6968072,46.5414703 94.8837394,45.4623567 C94.0693665,44.383243 93.0820699,43.8430385 91.8657309,43.8430385 L91.8657309,43.8430385 Z M101.531515,43.8430385 C101.15043,43.8430385 100.817307,43.9706408 100.511917,44.247868 C100.206528,44.5250953 99.8590487,45.0970385 99.4923199,45.9481521 L99.4923199,44.0859362 L98.0648835,44.0859362 L98.0648835,56.1903396 L99.6554555,56.1903396 L99.6554555,49.8749987 C99.6554555,48.9940896 99.7386547,48.1475101 99.9409428,47.3650555 C100.05579,46.9168283 100.272108,46.5625214 100.552701,46.3124987 C100.833294,46.062476 101.152714,45.9481521 101.490731,45.9481521 C101.86529,45.9481521 102.237239,46.0968055 102.63268,46.3934646 L103.162871,44.4907658 C102.60821,44.0503112 102.063989,43.8430385 101.531515,43.8430385 L101.531515,43.8430385 Z M121.026218,43.8430385 C119.766811,43.8430385 118.729269,44.3699646 117.926642,45.4218737 C117.12532,46.4737828 116.703125,48.0545612 116.703125,50.1583794 C116.703125,52.2466521 117.131845,53.8274305 117.926642,54.8948851 C118.722744,55.9610442 119.715261,56.4737203 120.94465,56.4737203 C121.958701,56.4737203 122.831803,56.0993339 123.55482,55.3401976 C124.279142,54.5810612 124.720587,53.4637317 124.900689,52.0205953 L123.3509,51.7776976 C123.236053,52.8101748 122.964595,53.5524703 122.535222,54.044743 C122.10585,54.5344248 121.589689,54.7734362 120.985434,54.7734362 C120.215434,54.7734362 119.560608,54.4175101 119.068591,53.6803964 C118.576574,52.9445783 118.334481,51.7657146 118.334481,50.1178964 C118.334481,48.5218964 118.595172,47.3695896 119.109375,46.6363623 C119.623578,45.9031351 120.282646,45.5028396 121.067002,45.5028396 C121.591646,45.5028396 122.039617,45.7059021 122.412871,46.1100839 C122.788735,46.5142658 123.03768,47.1561635 123.187765,47.9722998 L124.737553,47.6484362 C124.550926,46.3724135 124.138845,45.4115101 123.473252,44.7741464 C122.806354,44.1354873 121.997201,43.8430385 121.026218,43.8430385 L121.026218,43.8430385 Z M130.121034,43.8430385 C128.847265,43.8430385 127.771222,44.3651067 126.939883,45.4623567 C126.108544,46.5596067 125.716367,48.1510726 125.716367,50.2393453 C125.716367,52.2511862 126.116375,53.8274305 126.939883,54.8948851 C127.764697,55.9610442 128.830625,56.4737203 130.161818,56.4737203 C131.217618,56.4737203 132.096267,56.1589248 132.812771,55.5021294 C133.527958,54.8453339 134.047708,53.8789248 134.321776,52.5873567 L132.69042,52.303976 C132.221894,53.9595669 131.395449,54.7708453 130.202602,54.7734362 C129.440419,54.7734362 128.777443,54.4518396 128.244968,53.7613623 C127.712494,53.0695896 127.412977,52.0435896 127.347722,50.6846578 L134.362559,50.6846578 L134.362559,50.1178964 C134.362559,48.0749646 133.95211,46.5414703 133.139043,45.4623567 C132.32728,44.383243 131.337373,43.8430385 130.121034,43.8430385 L130.121034,43.8430385 Z M139.542115,43.8430385 C138.434085,43.8430385 137.557081,44.1681976 136.931945,44.8146294 C136.305491,45.4597658 135.993915,46.2920953 135.993915,47.3245726 C135.993915,47.924368 136.089187,48.4318623 136.320187,48.9034078 C136.549882,49.3749533 136.881373,49.7558169 137.299,50.0369305 C137.715322,50.3180442 138.549598,50.686601 139.786818,51.0894873 C140.641648,51.3628283 141.194991,51.5950385 141.418174,51.7776976 C141.741835,52.0432658 141.907581,52.3914192 141.907581,52.8707373 C141.907581,53.4251919 141.713776,53.8870214 141.336606,54.2471578 C140.960742,54.6085896 140.433814,54.7734362 139.746034,54.7734362 C139.055644,54.7734362 138.490216,54.5820328 138.073894,54.1661919 C137.658877,53.750351 137.391648,53.118493 137.299,52.263493 L135.708428,52.5873567 C136.067326,55.184743 137.371106,56.4750158 139.623682,56.4737203 C140.825665,56.4737203 141.78425,56.1362544 142.478555,55.4211635 C143.172847,54.7060726 143.538937,53.7441976 143.538937,52.5873567 C143.538937,51.9629476 143.428004,51.4201521 143.212665,50.9680385 C142.997313,50.5159248 142.662233,50.1784589 142.274636,49.9154817 C141.888318,49.6537998 141.06417,49.3046748 139.746034,48.8629248 C138.788102,48.529993 138.185466,48.2857998 137.992326,48.1342317 C137.66736,47.8777317 137.50292,47.5286067 137.50292,47.0816748 C137.50292,46.6269703 137.695093,46.2383339 138.03311,45.9481521 C138.371127,45.6579703 138.893801,45.5028396 139.582898,45.5028396 C140.797919,45.5028396 141.478534,46.1651408 141.622093,47.4865044 L143.171882,47.2436067 C143.063559,46.4080385 142.882792,45.7486521 142.600907,45.3004248 C142.320301,44.8521976 141.905949,44.4742487 141.37739,44.2073851 C140.848831,43.9418169 140.23903,43.8430385 139.542115,43.8430385 L139.542115,43.8430385 Z M103.162871,44.0859362 L106.71107,56.1903396 L108.220074,56.1903396 L111.768273,44.0859362 L110.136917,44.0859362 L108.056939,51.4943169 C107.805057,52.3907714 107.582214,53.1631862 107.44518,53.8018453 C107.271604,52.997368 107.105206,52.1524078 106.874206,51.3323851 L104.835011,44.0859362 L103.162871,44.0859362 L103.162871,44.0859362 Z M113.154926,44.0859362 L113.154926,56.1903396 L114.745498,56.1903396 L114.745498,44.0859362 L113.154926,44.0859362 L113.154926,44.0859362 Z M60.8699682,44.247868 C59.6079513,44.247868 58.5925953,44.8104192 57.7703919,45.9076692 C56.9468835,47.0049192 56.5060911,48.5963851 56.5060911,50.6846578 C56.5060911,52.6964987 56.9139301,54.2335555 57.7296081,55.2997146 C58.545286,56.3658737 59.6334004,56.9190328 60.951536,56.9190328 C61.998214,56.9190328 62.8530445,56.5637544 63.5617055,55.9069589 C64.2690614,55.2501635 64.7584682,54.2837544 65.0299258,52.9921862 L63.4393538,52.7492885 C62.9760487,54.4048794 62.1339428,55.2161578 60.951536,55.2187487 C60.1958919,55.2187487 59.561947,54.8971521 59.0346928,54.2066748 C58.5074386,53.5149021 58.2013962,52.4889021 58.137447,51.1299703 L65.0707097,51.1299703 L65.1114936,50.5632089 C65.1114936,48.5202771 64.693214,46.9462998 63.8879767,45.8671862 C63.0827394,44.7880726 62.0732564,44.247868 60.8699682,44.247868 L60.8699682,44.247868 Z M42.9658369,44.5312487 L45.8207097,56.6356521 L47.4928496,56.6356521 L49.3689089,47.3245726 L49.6951801,49.3892033 L51.2041843,56.6356521 L52.8355403,56.6356521 L55.731197,44.5312487 L54.2221928,44.5312487 L52.6316208,51.5347998 L52.1014301,53.8828112 L51.6120233,51.5347998 L50.2253708,44.5312487 L48.5940148,44.5312487 L47.1257945,51.6157658 L46.6363877,54.1257089 L46.0654131,51.5347998 L44.5971928,44.5312487 L42.9658369,44.5312487 L42.9658369,44.5312487 Z M144.476966,44.6526976 L144.476966,45.2194589 L146.026754,45.2194589 L146.026754,49.2677544 L146.638513,49.2677544 L146.638513,45.2194589 L148.188301,45.2194589 L148.188301,44.6526976 L144.476966,44.6526976 L144.476966,44.6526976 Z M148.800059,44.6526976 L148.800059,49.2677544 L149.371034,49.2677544 L149.371034,45.3409078 L150.716903,49.2677544 L151.287877,49.2677544 L152.633746,45.4218737 L152.633746,49.2677544 L153.245504,49.2677544 L153.245504,44.6526976 L152.389043,44.6526976 L151.287877,47.8913339 C151.176945,48.2151976 151.097987,48.4490271 151.043174,48.6200271 L150.798471,47.9318169 L149.697305,44.6526976 L148.800059,44.6526976 L148.800059,44.6526976 Z M91.824947,45.5028396 C92.6171335,45.5028396 93.2709809,45.8837033 93.7825742,46.6363623 C94.134947,47.1532487 94.3633369,47.936351 94.4351165,48.9843737 L89.1739936,48.9843737 C89.2235869,47.9208055 89.5266928,47.1014305 90.0304555,46.4744305 C90.5342182,45.8474305 91.1136758,45.5028396 91.824947,45.5028396 L91.824947,45.5028396 Z M130.08025,45.5028396 C130.869826,45.5028396 131.526284,45.8837033 132.037877,46.6363623 C132.388945,47.1532487 132.618627,47.936351 132.69042,48.9843737 L127.42929,48.9843737 C127.478883,47.9208055 127.780684,47.1014305 128.285752,46.4744305 C128.78821,45.8474305 129.367661,45.5028396 130.08025,45.5028396 L130.08025,45.5028396 Z M60.8699682,45.9481521 C61.6530191,45.9481521 62.2817436,46.3290158 62.7868114,47.0816748 C63.1352691,47.5985612 63.3675742,48.3816635 63.4393538,49.4296862 L58.2597987,49.4296862 C58.3093919,48.366118 58.5743242,47.5062601 59.0754767,46.8792601 C59.5740191,46.2522601 60.1639174,45.9481521 60.8699682,45.9481521 L60.8699682,45.9481521 Z M70.984375,45.9481521 C71.6917309,45.9481521 72.293375,46.3380839 72.7788665,47.0816748 C73.2643581,47.8265612 73.4721928,48.9749817 73.4721928,50.5632089 C73.4721928,52.1125726 73.2418453,53.2661748 72.7380826,54.044743 C72.2343199,54.8233112 71.6343072,55.2187487 70.984375,55.2187487 C70.506714,55.2187487 70.0721208,55.0594078 69.6792903,54.7329533 C69.2851547,54.4064987 68.9960784,53.937868 68.7820445,53.3160498 C68.5680106,52.6929362 68.4557733,51.7349476 68.4557733,50.482243 C68.4557733,49.0080158 68.7203792,47.900726 69.2306674,47.1221578 C69.7409555,46.3435896 70.3344428,45.9481521 70.984375,45.9481521 L70.984375,45.9481521 Z" id="path257"></path>
                            <path d="M20.1064619,33.1150568 L14.029661,35.7059659 L19.657839,38.0944602 L26.1832627,35.7059659 L20.1064619,33.1150568 L20.1064619,33.1150568 Z M10.9708686,36.3536932 L10.7669492,48.0127841 L19.657839,51.8991477 L19.657839,39.7947443 L10.9708686,36.3536932 L10.9708686,36.3536932 Z M29.2420551,36.3536932 L21.2076271,39.3899148 L21.2076271,50.806108 L29.2420551,47.5674716 L29.2420551,36.3536932 L29.2420551,36.3536932 Z" id="polygon287"></path>
                            <path d="M38.8262712,0.0809659091 L32.7086864,2.671875 L38.3776483,5.06036932 L44.903072,2.671875 L38.8262712,0.0809659091 L38.8262712,0.0809659091 Z M30.3432203,3.52201705 L30.3432203,15.181108 L37.9290254,17.3671875 L38.1737288,6.76065341 L30.3432203,3.52201705 L30.3432203,3.52201705 Z M47.309322,4.16974432 L40.1313559,7.20596591 L40.1313559,18.662642 L47.309322,15.4240057 L47.309322,4.16974432 L47.309322,4.16974432 Z" id="polygon311"></path>
                            <path d="M10.0940148,16.4904886 L4.01721398,19.0813977 L9.64539195,21.469892 L16.1708157,19.0813977 L10.0940148,16.4904886 L10.0940148,16.4904886 Z M0.95842161,19.729125 L0.754502119,31.3882159 L9.64539195,35.2745795 L9.64539195,23.1701761 L0.95842161,19.729125 L0.95842161,19.729125 Z M19.2296081,19.729125 L11.1951801,22.7653466 L11.1951801,34.1815398 L19.2296081,30.9429034 L19.2296081,19.729125 L19.2296081,19.729125 Z" id="use3387"></path>
                            <path d="M29.6701229,16.0597487 L23.593322,18.6506578 L29.2215,21.0391521 L35.7469237,18.6506578 L29.6701229,16.0597487 L29.6701229,16.0597487 Z M20.5345297,19.2983851 L20.3306102,30.957476 L29.2215,34.8438396 L29.2215,22.7394362 L20.5345297,19.2983851 L20.5345297,19.2983851 Z M38.8057161,19.2983851 L30.7712881,22.3346067 L30.7712881,33.7507998 L38.8057161,30.5121635 L38.8057161,19.2983851 L38.8057161,19.2983851 Z" id="use3389"></path>
                            <path d="M57.9475572,0.0809659091 L51.8707564,2.671875 L57.4989343,5.06036932 L64.0243581,2.671875 L57.9475572,0.0809659091 L57.9475572,0.0809659091 Z M48.811964,3.31960227 L48.6080445,14.9786932 L57.4989343,18.8650568 L57.4989343,6.76065341 L48.811964,3.31960227 L48.811964,3.31960227 Z M67.0831504,3.31960227 L59.0487225,6.35582386 L59.0487225,17.772017 L67.0831504,14.5333807 L67.0831504,3.31960227 L67.0831504,3.31960227 Z" id="use3391"></path>
                        </g>
                    </g>
                    <g id="C++" transform="translate(256.000000, 1.000000)">
                        <g id="Angular">
                            <path d="M24.8896712,31.7542069 L30.471032,31.7542069 L30.7749178,31.7644138 L36.9130776,31.7644138 L30.521726,18.5230345 L24.8896712,31.7542069 L24.8896712,31.7542069 L24.8896712,31.7542069 Z M30.471032,37.3177931 L22.3998128,37.3177931 L18.6061142,46.7161379 L11.5487763,46.8457931 L30.4704749,5.15558621 L30.4704749,5.15503448 L30.4707534,5.15531034 L30.4707534,5.15503448 L30.4713105,5.15668966 L50.2642785,46.9710345 L43.5116621,46.8471724 L39.3578128,37.3177931 L30.4883014,37.3095172 L30.471032,37.3177931 L30.471032,37.3177931 L30.471032,37.3177931 Z" id="Shape"></path>
                            <path d="M30.3760502,0.166344828 L0.131191781,10.7070345 L4.91091781,49.9511724 L30.4080822,63.8308966 L56.0364383,49.7638621 L60.8147717,10.5208276 L30.3760502,0.166344828 L30.3760502,0.166344828 Z M57.7973607,12.7886897 L30.3053014,3.50344828 L30.3053014,60.5144828 L53.3449178,47.886069 L57.7973607,12.7886897 L57.7973607,12.7886897 Z M3.52518722,12.9561379 L7.62054338,48.0537931 L30.3047443,60.5144828 L30.3047443,3.50234483 L3.52518722,12.9561379 L3.52518722,12.9561379 Z" id="Shape"></path>
                        </g>
                    </g>
                    <path d="M759.99705,19.1100241 C759.996596,18.0170836 759.762174,17.0513135 759.288111,16.2224438 C758.822444,15.4073772 758.125079,14.7242329 757.189661,14.1840985 C749.468265,9.74467861 741.739379,5.31883557 734.020479,0.87489 C731.939503,-0.323045121 729.921841,-0.27937276 727.856297,0.935759767 C724.782942,2.74307141 709.395748,11.5334352 704.810566,14.1816094 C702.922256,15.2716082 702.003404,16.9397566 702.00295,19.1079875 C702,28.0359305 702.00295,36.9636472 702,45.8918165 C702.000454,46.9607711 702.224891,47.9077598 702.678076,48.7241841 C703.143969,49.5639153 703.851093,50.265841 704.808069,50.8181946 C709.393478,53.4663689 724.782716,62.2560538 727.855389,64.063818 C729.921841,65.2796294 731.939503,65.3230754 734.02116,64.1246878 C741.740287,59.6805159 749.469626,55.2548991 757.192158,50.8154792 C758.149134,50.263352 758.856257,49.5609737 759.322151,48.7219213 C759.774655,47.905497 759.999546,46.9585083 760,45.8893274 C760,45.8893274 760,28.0381933 759.99705,19.1100241 Z M758.444601,33.5786998 L756.238358,33.5786998 L756.238358,35.7790627 L754.031661,35.7790627 L754.031661,33.5786998 L751.825645,33.5786998 L751.825645,31.3790158 L754.031661,31.3790158 L754.031661,29.1791055 L756.238358,29.1791055 L756.238358,31.3790158 L758.444601,31.3790158 L758.444601,33.5786998 Z M750.394151,33.5786998 L748.188135,33.5786998 L748.188135,35.7790627 L745.981892,35.7790627 L745.981892,33.5786998 L743.775649,33.5786998 L743.775649,31.3790158 L745.981892,31.3790158 L745.981892,29.1791055 L748.188135,29.1791055 L748.188135,31.3790158 L750.394151,31.3790158 L750.394151,33.5786998 Z M739.35749,37.1890238 C737.712679,40.0976483 734.587131,42.0633571 731,42.0633571 C727.434882,42.0633571 724.327034,40.122313 722.673827,37.2444628 C721.870711,35.8460421 721.408902,34.2269968 721.408902,32.4997889 C721.408902,27.2181486 725.703156,22.936447 731,22.936447 C734.542198,22.936447 737.633707,24.8532789 739.295083,27.7017125 L747.678217,22.888249 C744.346159,17.152914 738.125244,13.294359 731,13.294359 C720.362287,13.294359 711.739058,21.8930622 711.739058,32.4997889 C711.739058,35.9795483 712.667441,39.2427561 714.290013,42.0574737 C717.613674,47.8231305 723.85229,51.705445 731,51.705445 C738.160872,51.705445 744.409246,47.8075171 747.728142,42.0248892 L739.35749,37.1890238 Z" id="Shape"></path>
                    <g id="Capistrano" transform="translate(1066.000000, 1.000000)">
                        <path d="M46.272955,15.8003205 C45.5350796,14.7532661 44.7086366,13.7727211 43.8044636,12.8712735 C42.901225,11.9702017 41.9200692,11.1478515 40.872955,10.4141807 L39.0724568,12.9999712 C38.1819239,12.3762101 37.2340277,11.8279766 36.2396055,11.3642891 L34.9112803,14.227954 C35.7395916,14.6132956 36.5288514,15.0689042 37.2704636,15.5876405 C38.0182421,16.1095708 38.7191211,16.6942529 39.3646922,17.3356747 L37.1456472,19.5673117 L34.9247335,21.7989486 C35.3135708,22.18166 35.6682144,22.5985654 35.985488,23.0440287 C36.3027612,23.4878008 36.5841592,23.9582519 36.8218341,24.4548185 L42.5114534,21.7871123 L45.3579448,20.4527895 L48.2027545,19.1184668 C47.6537856,17.9528601 47.0082144,16.8432416 46.272955,15.8003205 L46.272955,15.8003205 Z M51.4164084,12.1802514 C50.4670173,10.8308982 49.4053288,9.56853342 48.2433011,8.40799952 C47.0814603,7.24727776 45.8209617,6.18801112 44.4735778,5.24335115 C43.1353496,4.30470336 41.7128514,3.47953502 40.2200969,2.78118557 C38.7460277,2.09298165 37.203384,1.52783903 35.6058062,1.10041234 C34.0441036,0.682755415 32.4291486,0.395862866 30.7725259,0.253074173 L30.4993496,3.39724365 C31.970616,3.52406255 33.4056331,3.77863976 34.7928168,4.14913883 L33.9807612,7.19899263 C35.2222007,7.53097633 36.4204774,7.96930004 37.5651281,8.50344248 C38.7271557,9.04491225 39.8331281,9.68577047 40.872955,10.4141807 C41.9200692,11.1478515 42.901225,11.9702017 43.8044636,12.8712735 C44.7086366,13.7727211 45.5350796,14.7532661 46.272955,15.8003205 C47.0082144,16.8432416 47.6537856,17.9528601 48.2027545,19.1184668 L51.0473772,17.7843319 L53.8931211,16.4503849 C53.1886922,14.9507278 52.3596331,13.5219015 51.4164084,12.1802514 L51.4164084,12.1802514 Z M37.5651281,8.50344248 C36.4204774,7.96930004 35.2222007,7.53097633 33.9807612,7.19899263 C32.7671627,6.87396047 31.5120831,6.65263799 30.2254257,6.54122522 C29.5968581,6.48674008 28.9623115,6.4576187 28.3201036,6.4576187 C27.67827,6.4576187 27.0416678,6.48674008 26.4140346,6.54122522 C25.1281246,6.65263799 23.8732319,6.87396047 22.6596331,7.19899263 L23.4716885,10.2480949 C22.4083184,10.5314177 21.3810104,10.9069896 20.4007889,11.3642891 L21.72818,14.2283297 C22.5456539,13.8482488 23.3991904,13.5346773 24.2844915,13.2981366 C25.1499862,13.0681716 26.0451904,12.9118556 26.9620692,12.8325703 C27.4095778,12.7934912 27.8615708,12.7698184 28.3201036,12.7698184 C28.7777024,12.7698184 29.2298825,12.7934912 29.6783251,12.8325703 C30.5952042,12.9118556 31.4894741,13.0681716 32.354782,13.2981366 C33.2410173,13.5346773 34.0947406,13.8473094 34.9112803,14.227954 L36.2396055,11.3642891 C37.2340277,11.8279766 38.1819239,12.3762101 39.0724568,12.9999712 L40.872955,10.4141807 C39.8331281,9.68577047 38.7271557,9.04491225 37.5651281,8.50344248 L37.5651281,8.50344248 Z M30.4993496,3.39724365 L30.7725259,0.253074173 C29.9640208,0.183182864 29.1465466,0.145419012 28.3201036,0.145419012 C27.4938477,0.145419012 26.6763738,0.183182864 25.8678685,0.253074173 C24.2112457,0.395862866 22.5962907,0.682755415 21.0338408,1.10041234 C19.4351419,1.52783903 17.8943668,2.09298165 16.4202976,2.78212499 C14.926609,3.48028655 13.5033633,4.30507911 12.1658823,5.24391478 C10.8194325,6.18895049 9.55706574,7.24727776 8.39615916,8.40799952 L10.6159515,10.6396365 C11.647744,9.6091155 12.7690381,8.66840101 13.9661938,7.82914166 L15.766692,10.4151201 C16.8072664,9.68577047 17.9123045,9.045288 19.0733979,8.50381824 C20.2182353,7.96930004 21.4170727,7.53097633 22.6596331,7.19899263 C23.8732319,6.87396047 25.1281246,6.65263799 26.4140346,6.54122522 C27.0416678,6.48674008 27.67827,6.4576187 28.3201036,6.4576187 C28.9623115,6.4576187 29.5968581,6.48674008 30.2254257,6.54122522 C31.5120831,6.65263799 32.7671627,6.87396047 33.9807612,7.19899263 L34.7928168,4.14913883 C33.4056331,3.77863976 31.970616,3.52406255 30.4993496,3.39724365 L30.4993496,3.39724365 Z M23.4716885,10.2480949 L22.6596331,7.19899263 C21.4170727,7.53097633 20.2182353,7.96930004 19.0733979,8.50381824 C17.9123045,9.045288 16.8072664,9.68577047 15.766692,10.4151201 C14.7203253,11.1478515 13.7382353,11.9702017 12.8349965,12.8712735 C11.9315709,13.7732847 11.1053149,14.7532661 10.3663183,15.8012599 L12.9381384,17.6111066 C12.3078893,18.5042875 11.7525675,19.4543959 11.2824498,20.4527895 L14.1289412,21.7871123 C14.5215156,20.9564954 14.9871488,20.1674 15.5123875,19.4239594 C16.0406159,18.6780764 16.6291972,17.9778481 17.2747682,17.3356747 C17.9195917,16.6942529 18.621218,16.1099466 19.3682491,15.5876405 C20.1115432,15.0689042 20.8998685,14.6132956 21.72818,14.2283297 L20.4007889,11.3642891 C21.3810104,10.9069896 22.4083184,10.5314177 23.4716885,10.2480949 L23.4716885,10.2480949 Z M13.9661938,7.82914166 C12.7690381,8.66840101 11.647744,9.6091155 10.6159515,10.6396365 L8.39615916,8.40799952 C7.23506574,9.56947282 6.17150863,10.8314618 5.22398616,12.180815 C4.28001384,13.5219015 3.45076816,14.9507278 2.74633911,16.4509485 C2.05106574,17.9320054 1.47948789,19.4837052 1.04468512,21.0925205 C0.619598616,22.6667658 0.324747406,24.2953083 0.173771626,25.9649968 L3.30072665,26.2404287 C3.43544636,24.7561777 3.69759862,23.3087513 4.07746712,21.909422 L7.10931486,22.7266995 C7.44844982,21.4761712 7.89521108,20.2701703 8.43764013,19.1184668 C8.98567474,17.9528601 9.63217993,16.8432416 10.3663183,15.8012599 C11.1053149,14.7532661 11.9315709,13.7732847 12.8349965,12.8712735 C13.7382353,11.9702017 14.7203253,11.1478515 15.766692,10.4151201 L13.9661938,7.82914166 L13.9661938,7.82914166 Z M8.34178546,37.8085674 C7.81019377,36.6469062 7.37426989,35.4322629 7.04709342,34.1729042 C6.72683046,32.9432307 6.50989617,31.6716597 6.40582007,30.3692764 C6.35779929,29.7742611 6.33257439,29.1732334 6.33257439,28.5661935 C6.33257439,27.8744197 6.36602077,27.1901614 6.42842905,26.5154848 C6.54689275,25.2162955 6.77671971,23.9501731 7.10931486,22.7266995 L4.07746712,21.909422 C3.69759862,23.3087513 3.43544636,24.7561777 3.30072665,26.2404287 L0.173771626,25.9649968 C0.0969757785,26.8219168 0.0553079585,27.6889824 0.0553079585,28.5661935 C0.0553079585,29.3586707 0.0889411765,30.143257 0.15116263,30.9188249 C0.28868512,32.5935862 0.568961938,34.2266381 0.981342561,35.8068955 C1.40456055,37.4243531 1.96604844,38.9854469 2.65141869,40.4766493 C3.34687891,41.9887065 4.16958477,43.4288056 5.10832526,44.7839831 L7.67995849,42.9733847 C6.84622838,41.7685113 6.11470588,40.4875463 5.49716262,39.1423268 L8.34178546,37.8085674 L8.34178546,37.8085674 Z M12.6640277,29.8182248 C12.6315156,29.4050769 12.6107751,28.9877958 12.6107751,28.5661935 C12.6107751,28.0594813 12.6369343,27.5593451 12.6821523,27.0655969 C12.7690381,26.138222 12.9381384,25.2352714 13.1776817,24.3610664 C13.4218962,23.4697644 13.7401038,22.6081473 14.1289412,21.7871123 L11.2824498,20.4527895 C11.7525675,19.4543959 12.3078893,18.5042875 12.9381384,17.6111066 L10.3663183,15.8012599 C9.63217993,16.8432416 8.98567474,17.9528601 8.43764013,19.1184668 C7.89521108,20.2701703 7.44844982,21.4761712 7.10931486,22.7266995 C6.77671971,23.9501731 6.54689275,25.2162955 6.42842905,26.5154848 C6.36602077,27.1901614 6.33257439,27.8744197 6.33257439,28.5661935 C6.33257439,29.1732334 6.35779929,29.7742611 6.40582007,30.3692764 C6.50989617,31.6716597 6.72683046,32.9432307 7.04709342,34.1729042 L10.0796886,33.3556268 C10.359218,34.4357482 10.730865,35.4782934 11.1865952,36.4736811 L14.034955,35.1389824 C13.656955,34.3076141 13.3441661,33.4392333 13.1126574,32.5381616 C12.8856332,31.6594473 12.7365259,30.7497332 12.6640277,29.8182248 L12.6640277,29.8182248 Z M18.9784775,48.5832897 C17.8091626,48.0309229 16.6953426,47.3786041 15.64991,46.6357269 C14.5983114,45.8887167 13.6152872,45.0518999 12.7111142,44.1357976 C11.8086228,43.2196953 10.9840485,42.2250592 10.2515917,41.1631624 C9.52193772,40.1074654 8.88159862,38.9854469 8.34178546,37.8085674 L5.49716262,39.1423268 C6.11470588,40.4875463 6.84622838,41.7685113 7.67995849,42.9733847 L5.10832526,44.7839831 C6.0522976,46.1474274 7.11118341,47.4240708 8.27227681,48.5986956 C9.43411765,49.7748235 10.6983529,50.8481811 12.0491003,51.8063685 C13.3929343,52.7592951 14.8234671,53.5962999 16.3244429,54.3055464 L17.6520208,51.4450756 C18.970256,52.0678972 20.3520208,52.5789304 21.7842353,52.9657752 L22.5962907,49.9161093 C21.3430796,49.5773617 20.133218,49.1296443 18.9784775,48.5832897 L18.9784775,48.5832897 Z M21.6323253,42.8606569 C20.7959792,42.4642304 20.0011142,41.9941548 19.2533356,41.4613277 C18.5010727,40.9258699 17.7966436,40.3284122 17.1508858,39.6715843 C16.5053149,39.0155075 15.9184152,38.3023156 15.395045,37.5412143 C14.8750381,36.7851856 14.4202422,35.9819995 14.034955,35.1389824 L11.1865952,36.4736811 C10.730865,35.4782934 10.359218,34.4357482 10.0796886,33.3556268 L7.04709342,34.1729042 C7.37426989,35.4322629 7.81019377,36.6469062 8.34178546,37.8085674 C8.88159862,38.9854469 9.52193772,40.1074654 10.2515917,41.1631624 C10.9840485,42.2250592 11.8086228,43.2196953 12.7111142,44.1357976 C13.6152872,45.0518999 14.5983114,45.8887167 15.64991,46.6357269 L17.4494741,44.0503122 C18.3463599,44.6881644 19.3013564,45.24861 20.3049343,45.7224428 C21.2959931,46.1915788 22.3341384,46.5761691 23.4100277,46.8671948 L24.2232042,43.8156502 C23.3251973,43.5725335 22.4587681,43.2520104 21.6323253,42.8606569 L21.6323253,42.8606569 Z M42.7907958,49.2215175 C41.5962561,50.0688555 40.3232388,50.8139871 38.9883738,51.4450756 C37.6692042,52.0678972 36.2865053,52.5789304 34.855225,52.9657752 L34.0422353,49.9161093 C32.8161175,50.2475295 31.5483323,50.4744883 30.2471004,50.5885313 C29.6116193,50.6445195 28.9694119,50.6740167 28.3201036,50.6740167 C27.6700485,50.6740167 27.0270934,50.6445195 26.3923599,50.5885313 C25.0911281,50.4744883 23.8233426,50.2475295 22.5962907,49.9161093 L21.7842353,52.9657752 C20.3520208,52.5789304 18.970256,52.0678972 17.6520208,51.4450756 L16.3244429,54.3055464 C17.8084152,55.005587 19.3618962,55.5801236 20.9721799,56.0148775 C22.5465881,56.439298 24.1751834,56.7308877 25.8461938,56.8766825 C26.6617993,56.9480766 27.4863738,56.9864041 28.3201036,56.9864041 C29.1538341,56.9864041 29.9785953,56.9480766 30.7942007,56.8766825 C32.4652109,56.7308877 34.0928719,56.439298 35.6682144,56.0148775 C37.2775641,55.5801236 38.831045,55.005587 40.3140831,54.3055464 C41.8169275,53.5966758 43.2474603,52.7592951 44.591294,51.8063685 L42.7907958,49.2215175 L42.7907958,49.2215175 Z M48.9604359,42.9733847 L46.3888029,41.1631624 C45.6555987,42.2250592 44.8317718,43.2206348 43.9290934,44.1357976 C43.0251073,45.0518999 42.0411486,45.8892801 40.9904845,46.6357269 C39.9450519,47.3786041 38.831045,48.0309229 37.6611696,48.5832897 C36.5071765,49.1296443 35.2963807,49.5773617 34.0422353,49.9161093 L34.855225,52.9657752 C36.2865053,52.5789304 37.6692042,52.0678972 38.9883738,51.4450756 C40.3232388,50.8139871 41.5962561,50.0688555 42.7907958,49.2215175 L44.591294,51.8063685 C45.9420415,50.8489327 47.2053426,49.7748235 48.3671832,48.5996352 C49.5282767,47.4244465 50.5880969,46.1474274 51.5311348,44.7839831 L48.9604359,42.9733847 L48.9604359,42.9733847 Z M43.8181036,39.3529399 L41.2453496,37.5412143 C40.721045,38.3026913 40.1350796,39.0160711 39.4895085,39.6715843 C38.8420692,40.3284122 38.1383874,40.9262458 37.3870588,41.4613277 L39.1890519,44.0503122 C38.2921659,44.6881644 37.3373563,45.24861 36.3345259,45.7228189 L37.6611696,48.5832897 C38.831045,48.0309229 39.9450519,47.3786041 40.9904845,46.6357269 C42.0411486,45.8892801 43.0251073,45.0518999 43.9290934,44.1357976 C44.8317718,43.2206348 45.6555987,42.2250592 46.3888029,41.1631624 L43.8181036,39.3529399 L43.8181036,39.3529399 Z M39.1890519,44.0503122 L37.3870588,41.4613277 C36.6392803,41.9945309 35.8434809,42.4642304 35.0062007,42.8606569 C34.1806922,43.2520104 33.3151971,43.5725335 32.416443,43.8156502 C31.5393634,44.0535063 30.6314534,44.2162099 29.7,44.2975621 C29.2444568,44.3375805 28.7849896,44.361817 28.3201036,44.361817 C27.8554047,44.361817 27.3951904,44.3375805 26.9403945,44.2975621 C26.0089412,44.2162099 25.101218,44.0535063 24.2232042,43.8156502 L23.4100277,46.8671948 C22.3341384,46.5761691 21.2959931,46.1915788 20.3049343,45.7224428 C19.3013564,45.24861 18.3463599,44.6881644 17.4494741,44.0503122 L15.64991,46.6357269 C16.6953426,47.3786041 17.8091626,48.0309229 18.9784775,48.5832897 C20.133218,49.1296443 21.3430796,49.5773617 22.5962907,49.9161093 C23.8233426,50.2475295 25.0911281,50.4744883 26.3923599,50.5885313 C27.0270934,50.6445195 27.6700485,50.6740167 28.3201036,50.6740167 C28.9694119,50.6740167 29.6116193,50.6445195 30.2471004,50.5885313 C31.5483323,50.4744883 32.8161175,50.2475295 34.0422353,49.9161093 C35.2963807,49.5773617 36.5071765,49.1296443 37.6611696,48.5832897 L36.3345259,45.7228189 C37.3373563,45.24861 38.2921659,44.6881644 39.1890519,44.0503122 L39.1890519,44.0503122 Z" id="Shape"></path>
                    </g>
                    <g id="Mongodb" transform="translate(509.500000, 34.000000) scale(1, -1) translate(-509.500000, -34.000000) translate(419.000000, 9.000000)">
                        <path d="M9.81377723,7.28145888 C10.691592,5.21168475 10.6034402,1.67490451 10.6034402,1.67490451 L11.8897166,1.2444401 L11.8897166,1.2444401 C11.8897166,1.2444401 11.628606,4.67921007 11.9928814,6.33984375 C12.1030306,6.84146577 12.3557741,7.2807479 12.6548432,7.64954496 C12.8519501,7.78832219 13.440266,8.2192456 14.2266136,8.94673632 C14.2625554,8.966518 14.2823425,8.9765625 14.2823425,8.9765625 C17.2994265,11.8097675 23.107233,18.8962455 21.1416672,30.4982639 C18.6199457,41.7273437 12.6661791,45.4188368 12.0264111,46.828125 C11.3220738,47.8255208 10.6126705,49.593316 10.6126705,49.593316 L10.6130059,49.5712473 C10.596451,49.6356491 10.5793587,49.6873667 10.5617106,49.7256944 C10.4895854,48.734375 10.4510327,48.3472222 9.51859938,47.3424479 C8.07635223,46.2044271 0.671309938,39.9314236 0.0679192626,27.1730035 C-0.494799433,15.2716881 8.59099927,8.1801943 9.81377723,7.28145888 Z" id="path20"></path>
                        <path d="M136.634822,11.3023437 C137.376252,10.7028646 138.859113,10.4559896 140.166383,10.4559896 C141.861326,10.4559896 143.521065,10.7738715 145.145171,12.2539931 C146.804481,13.7707031 147.934872,16.097526 147.934872,19.7994792 C147.934872,23.3605469 146.592827,26.2517361 143.838759,27.9440972 C142.284632,28.9311632 140.272424,29.31875 137.976867,29.31875 C137.305844,29.31875 136.634822,29.2836372 136.24629,29.1075087 C136.140249,29.0369792 135.928167,28.7548611 135.928167,28.6134549 C135.857759,27.9790365 135.857759,23.1489583 135.857759,20.2931858 C135.857759,17.3668837 135.857759,13.2769965 135.928167,12.7829861 C135.964229,12.3601128 136.175453,11.6197483 136.634822,11.3023437 L136.634822,11.3023437 Z M129.586297,30.9055122 C130.186482,30.9055122 132.467443,30.7998698 133.527426,30.7998698 C135.50486,30.7998698 136.881679,30.9055122 140.58926,30.9055122 C143.697085,30.9055122 146.310766,30.0592882 148.182158,28.4376302 C150.442512,26.4629774 151.642882,23.7130208 151.642882,20.3637153 C151.642882,15.6038194 149.488999,12.8538194 147.335116,11.3023437 C145.180375,9.68085937 142.390674,8.76397569 138.400602,8.76397569 C136.281494,8.76397569 132.643892,8.83450521 129.606905,8.86927083 L129.565261,8.86927083 C129.424445,9.15186632 129.825427,10.2512153 130.074001,10.2798611 C130.894855,10.3737847 131.117241,10.4056424 131.498475,10.5643229 C132.139445,10.831033 132.290994,11.1612847 132.36226,12.3250434 C132.467443,14.5105903 132.432668,17.1197049 132.432668,20.0815972 C132.432668,22.1967882 132.467443,26.322092 132.397035,27.6267361 C132.290994,28.7195747 131.832913,29.0013455 130.914175,29.2132812 C130.454806,29.31875 129.819417,29.4246962 128.936741,29.5305122 C128.865904,29.7419271 129.409848,30.6942274 129.586297,30.9055122 L129.586297,30.9055122 Z" id="path64"></path>
                        <path d="M160.994262,29.177691 C160.853446,29.1424045 160.676568,28.7897569 160.676568,28.6134549 C160.641793,27.3446181 160.606589,24.0303819 160.606589,21.7388455 C160.606589,21.668316 160.711772,21.5625434 160.783038,21.5625434 C161.241978,21.5269097 162.371511,21.4916667 163.325024,21.4916667 C164.667068,21.4916667 165.444561,21.668316 165.867868,21.8799045 C166.99783,22.4436632 167.527177,23.6777344 167.527177,25.0174479 C167.527177,28.084809 165.408499,29.2485677 162.266328,29.2485677 C162.054246,29.2485677 161.453631,29.2485677 160.994262,29.177691 L160.994262,29.177691 Z M169.010467,15.0748264 C169.010467,18.177474 166.750972,19.940191 162.618797,19.940191 C162.442348,19.940191 161.135508,19.9757812 160.817813,19.9049045 C160.711772,19.8700087 160.606589,19.7994792 160.606589,19.7289497 C160.606589,17.5074219 160.570527,13.9465278 160.676568,12.5366319 C160.747405,11.9371094 161.17157,11.0907552 161.700918,10.8440972 C162.266328,10.5265191 163.536677,10.4559896 164.419782,10.4559896 C166.856584,10.4559896 169.010467,11.8313368 169.010467,15.0748264 L169.010467,15.0748264 Z M154.61676,30.9055122 C154.934454,30.9055122 155.874658,30.7998698 158.275398,30.7998698 C160.535752,30.7998698 162.371511,30.8700521 164.561027,30.8700521 C167.279891,30.8700521 171.023105,29.8829861 171.023105,25.793099 C171.023105,23.7835503 169.611082,22.1615451 167.774893,21.3858507 C167.668852,21.3506076 167.668852,21.2800781 167.774893,21.2447917 C170.388145,20.5753038 172.683273,18.9532986 172.683273,15.850651 C172.683273,12.8185764 170.811881,10.9144531 168.092588,9.715625 C166.432849,8.97556424 164.385007,8.72868924 162.300674,8.72868924 C160.711772,8.72868924 156.453807,8.90503472 154.087412,8.86927083 C153.839696,8.97556424 154.314092,10.1038628 154.525315,10.2798611 C155.090726,10.3149306 155.526482,10.3561198 156.127097,10.5324653 C156.974139,10.7440538 157.074599,11.0202257 157.18064,12.2895833 C157.251907,13.3822917 157.251907,17.2960069 157.251907,20.0815972 C157.251907,23.8893229 157.286682,26.4629774 157.251907,27.7321615 C157.215844,28.7195747 156.862946,29.0369792 156.191924,29.2132812 C155.662576,29.31875 154.7799,29.4246962 154.073674,29.5305122 C153.896366,29.7068142 154.440311,30.7644531 154.61676,30.9055122 L154.61676,30.9055122 Z" id="path66"></path>
                        <path d="M28.2842552,8.77938368 C28.2253959,8.87434896 28.1631879,9.15477431 28.176282,9.4921441 C28.1859846,9.74865451 28.2363005,9.91158854 28.2839547,9.96736111 C28.9498681,10.0736979 29.2651584,10.1453993 29.6394798,10.2466146 C30.2638354,10.403125 30.499101,10.7440538 30.5358506,11.5512587 C30.6382856,13.4528212 30.6443389,17.0184462 30.6067737,19.5261719 L30.6072889,19.6000868 C30.6101224,19.868967 30.6143297,20.2368924 30.2801065,20.4962674 C29.7903847,20.8224826 29.1798102,21.0922309 28.4072116,21.3265191 C28.111541,21.4150174 27.9480142,21.5721788 27.9567294,21.7559896 C27.9659597,21.9326389 28.1514675,22.1572917 28.5369941,22.2323785 C29.5594552,22.3390191 32.2407109,22.9843316 33.292666,23.4749566 C33.354917,23.3985243 33.4531876,23.2326823 33.4342118,22.9683594 C33.4263553,22.8571615 33.4166098,22.740842 33.407079,22.6203125 C33.3770268,22.2659722 33.3434972,21.8643229 33.3434972,21.4638455 C33.3434972,21.3458767 33.469931,21.2341146 33.6040925,21.2341146 C33.6723539,21.2341146 33.7354205,21.2610677 33.7867239,21.312283 C35.7917626,22.8986979 37.5850192,23.464974 38.5082222,23.464974 C40.0252564,23.464974 41.2057061,22.7328993 42.1181762,21.2278646 C42.1716691,21.1481771 42.2434509,21.1061198 42.3237761,21.1061198 C42.4002374,21.1061198 42.4725344,21.1459635 42.5149509,21.2098958 C44.3587381,22.6220052 46.1859108,23.464974 47.4073174,23.464974 C50.2983373,23.464974 52.0250498,21.2795573 52.0250498,17.6203559 C52.0250498,16.5688368 52.0143169,15.2360677 52.0053012,13.9917969 C51.9962856,12.9003038 51.9889872,11.8769531 51.9889872,11.1689236 C51.9889872,10.9971788 52.2160958,10.5210937 52.55912,10.4258247 C52.9815678,10.2179687 53.5924858,10.111849 54.3635389,9.97738715 L54.3931618,9.97248264 C54.4519782,9.76293403 54.3291935,8.9469184 54.2115607,8.77990451 C54.0205147,8.78142361 53.7551969,8.7953559 53.4250522,8.81210937 C52.8248672,8.84331597 52.002296,8.88519965 51.04449,8.88519965 C49.1237263,8.88519965 48.1199834,8.84704861 47.1613188,8.78450521 C47.0891935,9.0266059 47.0638639,9.80750868 47.1518738,9.9702691 C47.7108444,10.0760417 47.9873245,10.1474392 48.3230503,10.2477865 C48.9343975,10.4514323 49.1104175,10.7313368 49.1460508,11.5512587 C49.1602182,12.134809 49.270982,17.2664931 49.0743548,18.485026 C48.8931831,19.7477431 47.9504032,21.2258247 45.8892528,21.2258247 C45.1246395,21.2258247 43.8890655,20.9047309 42.7113204,20.002908 C42.6382078,19.9312066 42.5961347,19.7918403 42.5961347,19.7003038 L42.5982813,19.6768663 C42.7369936,19.0190538 42.7369936,18.2520399 42.7369936,17.0913628 C42.7369936,16.4299913 42.7327863,15.7280816 42.7290942,15.03125 C42.7210659,13.6164497 42.71351,12.2804253 42.7369936,11.2711806 C42.7369936,10.5831597 43.1489231,10.4190538 43.4803558,10.2864583 C43.6602396,10.2460937 43.8032021,10.2113715 43.9461646,10.1769531 C44.2239326,10.1092882 44.5107163,10.0396267 44.9361694,9.97078993 C44.9941271,9.83515625 44.9992789,9.43012153 44.919426,9.08372396 C44.874777,8.89231771 44.8236883,8.80807292 44.7966414,8.78059896 C43.7285009,8.81753472 42.6323261,8.84991319 41.0510662,8.84991319 C40.5717768,8.84991319 39.7889604,8.82907986 39.098533,8.81041667 C38.5389184,8.7953559 38.0087979,8.78059896 37.7075892,8.77938368 C37.6640135,8.84908854 37.6029647,9.07235243 37.6029647,9.39401042 C37.6029647,9.69288194 37.6573162,9.90364583 37.7131274,9.96857639 C37.8615422,9.99635417 38.0029163,10.0216146 38.1377647,10.0458767 C38.5087374,10.1126736 38.8290508,10.1696615 39.1364417,10.2460937 C39.6598219,10.4073351 39.8561914,10.7011719 39.8944435,11.3732205 C39.996578,12.9423177 40.076388,17.4621528 39.8565349,18.594184 C39.4823852,20.4106771 38.4582498,21.3311198 36.813408,21.3311198 C35.8489476,21.3311198 34.6317913,20.8626736 33.636463,20.1092014 C33.4696305,19.9849392 33.3434972,19.6721354 33.3434972,19.3834201 C33.3434972,18.8452691 33.3418228,18.2042535 33.3396333,17.5171007 C33.332936,15.2469184 33.3250365,12.4214844 33.3797315,11.1986111 C33.4132611,10.8228733 33.5427431,10.3754774 34.2445474,10.2105035 C34.397513,10.1672743 34.6628309,10.1223524 34.9702218,10.0711372 C35.1471433,10.0413194 35.3406793,10.0088976 35.5395389,9.97278646 C35.6109772,9.77851562 35.5672298,9.01657986 35.4447887,8.77938368 C35.1380847,8.78142361 34.7604146,8.79921875 34.3272339,8.81840278 C33.6654848,8.84787326 32.8427419,8.88519965 31.9047704,8.88519965 C30.8011255,8.88519965 30.0325624,8.84787326 29.4154194,8.81840278 C29.0015149,8.79874132 28.6424772,8.78107639 28.2842552,8.77938368 L28.2842552,8.77938368" id="path68"></path>
                        <path d="M63.3173719,21.9658854 C62.6746845,21.9658854 62.0744995,21.7958333 61.62801,21.4869358 C60.4018809,20.7338108 59.7776542,19.2301649 59.7776542,17.0213542 C59.7776542,12.8848524 61.8289303,9.99635417 64.7650285,9.99635417 C65.6313899,9.99635417 66.3376162,10.2477865 66.9244924,10.765408 C67.8269165,11.5088542 68.3051755,13.0271267 68.3051755,15.1529948 C68.3051755,19.228125 66.300695,21.9658854 63.3173719,21.9658854 L63.3173719,21.9658854 L63.3173719,21.9658854 Z M63.8827823,8.46202257 C58.5772842,8.46202257 56.6870019,12.3920139 56.6870019,16.069184 C56.6870019,18.637934 57.7272367,20.6464844 59.7798008,22.0384549 C61.2386195,22.943967 62.9803582,23.464974 64.5538046,23.464974 C68.6026921,23.464974 71.4310318,20.5252604 71.4310318,16.3157118 C71.4310318,13.4536892 70.3006404,11.1948785 68.1630716,9.78307292 C67.1378629,9.14800347 65.359203,8.46202257 63.8827823,8.46202257 L63.8827823,8.46202257 L63.8827823,8.46202257 Z" id="path70"></path>
                        <path d="M118.258342,21.9658854 C117.614796,21.9658854 117.014182,21.7958333 116.568121,21.4869358 C115.342422,20.7338108 114.718195,19.2306424 114.718195,17.0213542 C114.718195,12.8848524 116.768612,9.99635417 119.705569,9.99635417 C120.571931,9.99635417 121.278157,10.2477865 121.865033,10.7657552 C122.767028,11.5088542 123.245716,13.0267795 123.245716,15.152474 C123.245716,19.2277778 121.241236,21.9658854 118.258342,21.9658854 L118.258342,21.9658854 L118.258342,21.9658854 Z M118.823323,8.46202257 C113.517396,8.46202257 111.627113,12.3916667 111.627113,16.0688802 C111.627113,18.6382812 112.668207,20.6470052 114.720771,22.0389323 C116.17916,22.9443142 117.920899,23.464974 119.493916,23.464974 C123.543233,23.464974 126.371573,20.524783 126.371573,16.316059 C126.371573,13.453342 125.241181,11.1945312 123.103612,9.78359375 C122.078404,9.14800347 120.300173,8.46202257 118.823323,8.46202257 L118.823323,8.46202257 L118.823323,8.46202257 Z" id="path72"></path>
                        <path d="M100.503942,22.1065972 C98.8686741,22.1065972 97.8116959,20.8023003 97.8116959,18.7838976 C97.8116959,16.746875 98.7205598,14.3683594 101.281435,14.3683594 C101.721056,14.3683594 102.518297,14.5657118 102.913269,15.0055122 C103.508302,15.5575087 103.896833,16.6982205 103.896833,17.9027778 C103.896833,20.5352865 102.628202,22.1065972 100.503942,22.1065972 L100.503942,22.1065972 L100.503942,22.1065972 Z M100.292718,8.18042535 C99.6783657,8.18042535 99.2314469,7.99982639 98.9644118,7.8484375 C97.6700213,7.01041667 97.0698363,6.17352431 97.0698363,5.21002604 C97.0698363,4.30128472 97.4193003,3.579375 98.1697462,2.93748698 C99.0786101,2.15979601 100.30431,1.78121094 101.916824,1.78121094 C105.087759,1.78121094 106.509656,3.50342014 106.509656,5.21002604 C106.509656,6.39765625 105.919345,7.19383681 104.705237,7.64396701 C103.769326,7.98932292 102.206184,8.18042535 100.292718,8.18042535 L100.292718,8.18042535 L100.292718,8.18042535 Z M100.503942,-7.89491929e-14 C98.5994924,-7.89491929e-14 97.2269663,0.405883681 96.0545019,1.3168316 C94.9142362,2.20574219 94.4033491,3.52393229 94.4033491,4.43489583 C94.4033491,4.69665799 94.4647415,5.37365451 95.0280052,6.02044271 C95.3602965,6.40138889 96.1287737,7.11414931 97.9044284,8.34739583 C97.9589516,8.36809896 97.9967315,8.42252604 97.9967315,8.48845486 C97.9967315,8.56206597 97.949936,8.62157118 97.8855384,8.63546007 C96.4219972,9.20138889 95.9806594,10.1298177 95.8475712,10.6336806 C95.8454246,10.6516493 95.8394141,10.6806424 95.8329744,10.7113281 C95.7909013,10.9090278 95.7518335,11.0958333 96.0162927,11.2875868 C96.2210769,11.4352865 96.5503629,11.6322917 96.8989682,11.839974 C97.4132898,12.1468316 97.9963022,12.4945747 98.3191485,12.7740017 C98.3702372,12.824349 98.3908444,12.8982639 98.3788235,12.9721788 C98.3663733,13.0469618 98.3234417,13.1081597 98.2603321,13.1396701 C96.0944284,13.8746528 95.0039635,15.4992187 95.0039635,17.9733073 C95.0039635,19.5705729 95.7333729,21.0142361 97.0045802,21.9348524 C97.8756641,22.6299913 100.062175,23.4657986 101.478491,23.4657986 L101.56092,23.464974 C103.018451,23.4300347 103.839734,23.1219618 104.976565,22.6967882 C105.593923,22.465842 106.178223,22.3722656 106.995643,22.3722656 C108.202023,22.3722656 108.728795,22.7583333 109.180866,23.2016493 C109.206625,23.1467448 109.268446,22.9724392 109.295923,22.5711372 C109.324687,22.161849 109.213923,21.5554253 108.903956,21.1225694 C108.657099,20.7775608 108.085678,20.5273003 107.546027,20.5273003 C107.491933,20.5273003 107.438698,20.5298611 107.387609,20.5352865 C106.832073,20.5903646 106.571048,20.672092 106.568472,20.6734375 L106.432379,20.6254774 C106.389447,20.5622396 106.417353,20.4917101 106.452557,20.402691 C106.461143,20.3813368 106.46973,20.3609809 106.472735,20.3476128 C106.543572,20.0622396 106.669362,19.2289497 106.669362,18.9954861 C106.669362,16.4009983 105.655745,15.2693142 104.560128,14.4325955 C103.514741,13.6359375 102.292906,13.1568142 100.915657,13.0099826 L100.914369,13.0099826 C100.886463,13.0099826 100.755951,12.9981337 100.49278,12.9747396 C100.3232,12.9591146 100.111976,12.9398003 100.080636,12.9398003 L100.049725,12.9357205 C99.810166,12.8672309 99.1893738,12.569184 99.1893738,12.0142795 C99.1893738,11.5524306 99.4710057,10.9803819 100.81348,10.8779948 C101.085667,10.8572917 101.377602,10.8368056 101.682417,10.8157552 C103.455066,10.6911458 105.668624,10.5358507 106.710576,10.1789497 C108.143636,9.65169271 109.035327,8.35555556 109.035327,6.79644097 C109.035327,4.46792535 107.395766,2.27864583 104.650285,0.940959201 C103.318544,0.30771875 101.966195,-7.89491929e-14 100.503942,-7.89491929e-14 L100.503942,-7.89491929e-14 L100.503942,-7.89491929e-14 Z" id="path74"></path>
                        <path d="M91.7931025,10.0211372 C91.0164682,10.1269097 90.4510579,10.2327257 89.7804649,10.5499132 C89.6744236,10.6204427 89.5327491,10.9378472 89.5327491,11.0436198 C89.4619118,12.1366753 89.4619118,15.309809 89.4619118,17.3897569 C89.4619118,19.0822917 89.1798506,20.562934 88.4736243,21.6211806 C87.6261528,22.8197049 86.4257827,23.5248264 84.8716556,23.5248264 C83.4948363,23.5248264 81.6582187,22.5728299 80.1401542,21.2682292 C80.1045209,21.2329427 79.8714018,21.0095052 79.8765536,21.3567274 C79.8817054,21.7034288 79.9349407,22.4092448 79.9667102,22.8536024 C79.9989089,23.2977865 79.7353083,23.5071615 79.7353083,23.5071615 C78.7465916,23.0136285 75.9620422,22.3453125 74.9338283,22.2378038 C74.1820944,22.0916667 73.9927657,21.3619792 74.7930123,21.110026 L74.7930123,21.1098524 C74.7930123,21.1086806 74.80074,21.1073351 74.8050332,21.1059462 C75.6426305,20.8514757 76.2067528,20.5795139 76.6279127,20.2989583 C76.9460365,20.0520833 76.9104032,19.6994358 76.9104032,19.4173177 C76.9456072,17.0552517 76.9456072,13.4233073 76.8395659,11.4491753 C76.804362,10.6733507 76.5922794,10.3917535 76.0272984,10.2503472 L76.0788164,10.2677951 C75.6550806,10.1625434 75.3017528,10.0916667 74.7724051,10.0211372 C74.5955266,9.84513889 74.5955266,8.82261285 74.7719758,8.61072049 C75.1253036,8.61072049 76.9267173,8.71684028 78.4095778,8.71684028 C80.4574194,8.71684028 81.5169734,8.61072049 82.0467505,8.61072049 C82.2584037,8.85789931 82.329241,9.80989583 82.1879957,10.0211372 C81.5873814,10.0563802 81.1636456,10.1269097 80.7399099,10.2327257 C80.1749288,10.3737847 80.0336836,10.6557292 79.9989089,11.2904948 C79.9280716,12.9474392 79.9280716,16.4730469 79.9280716,18.8708767 C79.9280716,19.5407552 80.1045209,19.8581163 80.3166034,20.0344618 C81.0224004,20.6692274 82.1879957,21.0917101 83.2123458,21.0917101 C84.2006333,21.0917101 84.8716556,20.7745226 85.3662287,20.3518229 C86.0372509,19.7875868 86.2841082,18.9766927 86.3549454,18.3771701 C86.4961907,17.0371094 86.4605574,14.3578559 86.4605574,12.0308594 C86.4605574,10.7615017 86.3549454,10.4441406 85.8960057,10.3032552 C85.6839231,10.1972656 85.1189421,10.0916667 84.4479198,10.0211372 C84.2362666,9.80989583 84.3066746,8.82261285 84.4479198,8.61072049 C85.3662287,8.61072049 86.4257827,8.71684028 87.9790512,8.71684028 C89.9217102,8.71684028 91.1572842,8.61072049 91.6518572,8.61072049 C91.8635104,8.85789931 91.9339184,9.77478299 91.7931025,10.0211372" id="path76"></path>
                        <path d="M177.651758,11.7608073 L178.249367,11.7608073 C178.732348,11.7608073 178.916096,11.9312066 178.916096,12.3726562 C178.916096,12.8216146 178.739647,12.9693142 178.195702,12.9693142 L177.651758,12.9693142 L177.651758,11.7608073 L177.651758,11.7608073 Z M178.923824,9.86293403 L178.218885,11.3969618 L177.651758,11.3969618 L177.651758,9.86293403 L177.237896,9.86293403 L177.237896,13.3489149 L178.257524,13.3489149 C179.015697,13.3489149 179.329957,13.0077691 179.329957,12.3726562 C179.329957,11.861849 179.092116,11.5363281 178.648202,11.4429253 L179.375894,9.86293403 L178.923824,9.86293403 L178.923824,9.86293403 Z M178.257524,14.1152344 C176.869972,14.1152344 175.767056,13.0077691 175.767056,11.5982205 C175.767056,10.211849 176.869972,9.09609375 178.249367,9.09609375 C179.621034,9.09609375 180.724379,10.211849 180.724379,11.5982205 C180.724379,13.015408 179.651945,14.1152344 178.257524,14.1152344 L178.257524,14.1152344 Z M178.249367,8.84822049 C176.717135,8.84822049 175.521917,10.0567274 175.521917,11.6056858 C175.521917,13.1628906 176.717135,14.3631076 178.257524,14.3631076 C179.759274,14.3631076 180.976817,13.1471354 180.976817,11.6448351 C180.976817,10.0724826 179.782028,8.84822049 178.249367,8.84822049 L178.249367,8.84822049 Z" id="path78"></path>
                    </g>
                    <g id="NPM" transform="translate(862.000000, 14.000000)">
                        <g id="Group">
                            <path d="M0,0 L0,33.4285714 L27.5,33.4285714 L27.5,39 L49.5,39 L49.5,33.4285714 L99,33.4285714 L99,0 L0,0 Z M5.5,5.57142857 L5.5,27.8571429 L16.5,27.8571429 L16.5,11.1428571 L22,11.1428571 L22,27.8571429 L27.5,27.8571429 L27.5,5.57142857 L33,5.57142857 L33,33.4285714 L44,33.4285714 L44,11.1428571 L49.5,11.1428571 L49.5,22.2857143 L44,22.2857143 L44,27.8571429 L55,27.8571429 L55,5.57142857 L60.5,5.57142857 L60.5,27.8571429 L71.5,27.8571429 L71.5,11.1428571 L77,11.1428571 L77,27.8571429 L82.5,27.8571429 L82.5,11.1428571 L88,11.1428571 L88,27.8571429 L93.5,27.8571429 L93.5,5.57142857 L5.5,5.57142857 Z" id="Shape"></path>
                        </g>
                    </g>
                </g>
                <g id="Row-2" transform="translate(0.000000, 109.000000)" sketch:type="MSShapeGroup">
                    <g id="SASS" transform="translate(0.000000, 4.000000)" fill="#000000">
                        <g id="Layer_1">
                            <path d="M86.0473588,43.1432039 C82.568306,43.1614078 79.5446266,43.9987864 77.0127505,45.2366505 C76.0837887,43.3980583 75.154827,41.7597087 74.9908925,40.5582524 C74.8087432,39.1565534 74.5901639,38.3009709 74.8087432,36.6262136 C75.0273224,34.9514563 76.010929,32.5667476 75.992714,32.3847087 C75.9744991,32.2026699 75.7741348,31.3470874 73.7704918,31.3288835 C71.7668488,31.3106796 70.0364299,31.711165 69.8360656,32.2390777 C69.6357013,32.7669903 69.2531876,33.9684466 68.9981785,35.2063107 C68.6520947,37.026699 64.9908925,43.5254854 62.8961749,46.9296117 C62.2222222,45.6007282 61.6393443,44.4356796 61.5118397,43.5072816 C61.3296903,42.1055825 61.1111111,41.25 61.3296903,39.5752427 C61.5482696,37.9004854 62.5318761,35.5157767 62.5136612,35.3337379 C62.4954463,35.151699 62.295082,34.2961165 60.291439,34.2779126 C58.287796,34.2597087 56.557377,34.6601942 56.3570128,35.1881068 C56.1566485,35.7160194 55.9380692,36.9538835 55.5191257,38.1553398 C55.1001821,39.3567961 50.2367942,50.2063107 48.9617486,53.0097087 C48.3060109,54.4478155 47.7413479,55.5946602 47.3406193,56.3774272 L47.3406193,56.3774272 C47.3406193,56.3774272 47.3224044,56.4320388 47.2677596,56.5230583 C46.9216758,57.1966019 46.7213115,57.5606796 46.7213115,57.5606796 C46.7213115,57.5606796 46.7213115,57.5606796 46.7213115,57.5788835 C46.4480874,58.0703883 46.1566485,58.5254854 46.010929,58.5254854 C45.9016393,58.5254854 45.701275,57.2148058 46.0473588,55.4308252 C46.7759563,51.6626214 48.5063752,45.8009709 48.4881603,45.6007282 C48.4881603,45.4915049 48.8160291,44.4720874 47.3588342,43.9441748 C45.9380692,43.4162621 45.428051,44.2900485 45.3005464,44.2900485 C45.1730419,44.2900485 45.0819672,44.5995146 45.0819672,44.5995146 C45.0819672,44.5995146 46.6666667,38.0097087 42.0582878,38.0097087 C39.1803279,38.0097087 35.2094718,41.1589806 33.2422587,43.9987864 C32.003643,44.6723301 29.3624772,46.1104369 26.5391621,47.657767 C25.4644809,48.2584951 24.3533698,48.8592233 23.3151184,49.4235437 C23.2422587,49.3507282 23.1693989,49.2597087 23.0965392,49.1868932 C17.5227687,43.2342233 7.21311475,39.0291262 7.65027322,31.0376214 C7.81420765,28.125 8.81602914,20.4793689 27.4499089,11.1953883 C42.7868852,3.6407767 54.9908925,5.7342233 57.1038251,10.3762136 C60.1275046,17.0024272 50.564663,29.3082524 34.7176685,31.092233 C28.6703097,31.7657767 25.5009107,29.4356796 24.6994536,28.5618932 C23.8615665,27.651699 23.7340619,27.5970874 23.424408,27.7791262 C22.9143898,28.0521845 23.2422587,28.8713592 23.424408,29.3446602 C23.8979964,30.5825243 25.8469945,32.7669903 29.143898,33.8410194 C32.0582878,34.7876214 39.143898,35.315534 47.723133,32.0024272 C57.3224044,28.288835 64.8269581,17.967233 62.6229508,9.32038835 C60.4189435,0.546116505 45.8469945,-2.34830097 32.0582878,2.54854369 C23.8615665,5.46116505 14.9726776,10.0485437 8.57923497,16.0194175 C0.983606557,23.118932 -0.218579235,29.2900485 0.273224044,31.875 C2.04007286,41.0497573 14.6994536,47.0206311 19.7632058,51.4441748 C19.5081967,51.5898058 19.2714026,51.717233 19.0710383,51.8264563 C16.5391621,53.0825243 6.8852459,58.125 4.48087432,63.4587379 C1.74863388,69.5024272 4.91803279,73.8349515 7.01275046,74.4174757 C13.5154827,76.2196602 20.2003643,72.9793689 23.7887067,67.6274272 C27.3770492,62.2754854 26.9398907,55.3216019 25.2823315,52.1359223 C25.2641166,52.0995146 25.2459016,52.0631068 25.2094718,52.026699 C25.8652095,51.6444175 26.5391621,51.243932 27.1948998,50.8616505 C28.4881603,50.0970874 29.7632058,49.3871359 30.856102,48.8046117 C30.2367942,50.4975728 29.7814208,52.5182039 29.5628415,55.4308252 C29.2896175,58.8531553 30.6921676,63.2949029 32.5318761,65.0424757 C33.3515483,65.8070388 34.3169399,65.8252427 34.9362477,65.8252427 C37.0856102,65.8252427 38.0510018,64.0412621 39.1256831,61.9296117 C40.4371585,59.3446602 41.6211293,56.3410194 41.6211293,56.3410194 C41.6211293,56.3410194 40.1457195,64.4599515 44.1530055,64.4599515 C45.6102004,64.4599515 47.0856102,62.5667476 47.7413479,61.6019417 L47.7413479,61.6201456 C47.7413479,61.6201456 47.7777778,61.565534 47.8506375,61.4381068 C47.996357,61.2014563 48.0874317,61.0558252 48.0874317,61.0558252 L48.0874317,61.0194175 C48.6703097,60 49.9817851,57.6881068 51.9307832,53.8470874 C54.4444444,48.8956311 56.867031,42.7063107 56.867031,42.7063107 C56.867031,42.7063107 57.0856102,44.217233 57.8324226,46.7293689 C58.2695811,48.2038835 59.1803279,49.8240291 59.9089253,51.3895631 C59.3260474,52.2087379 58.9617486,52.663835 58.9617486,52.663835 C58.9617486,52.663835 58.9617486,52.663835 58.9799636,52.6820388 C58.5063752,53.3009709 57.996357,53.9745146 57.431694,54.6298544 C55.4462659,56.9963592 53.0783242,59.7087379 52.7504554,60.4915049 C52.3679417,61.4199029 52.4590164,62.0934466 53.1876138,62.6395631 C53.715847,63.0400485 54.6630237,63.0946602 55.6284153,63.0400485 C57.4134791,62.9126214 58.6703097,62.4757282 59.2896175,62.2026699 C60.2550091,61.8567961 61.3843352,61.3288835 62.4408015,60.5461165 C64.3897996,59.1080097 65.5737705,57.0509709 65.4644809,54.3385922 C65.4098361,52.8458738 64.9180328,51.3531553 64.3169399,49.9514563 C64.4990893,49.6966019 64.6630237,49.4417476 64.845173,49.1868932 C67.9234973,44.690534 70.3096539,39.7572816 70.3096539,39.7572816 C70.3096539,39.7572816 70.5282332,41.2682039 71.2750455,43.7803398 C71.6393443,45.0546117 72.3861566,46.4381068 73.0418944,47.7851942 C70.1457195,50.1334951 68.3606557,52.8640777 67.723133,54.6480583 C66.575592,57.961165 67.4681239,59.4538835 69.1621129,59.7997573 C69.9271403,59.9635922 71.0200364,59.5995146 71.8214936,59.2536408 C72.8415301,58.9259709 74.0437158,58.3616505 75.1912568,57.5242718 C77.140255,56.086165 79.0163934,54.0837379 78.9071038,51.3713592 C78.852459,50.1334951 78.5245902,48.913835 78.0692168,47.7305825 C80.5282332,46.711165 83.6976321,46.1468447 87.7413479,46.6201456 C96.4116576,47.6395631 98.1238616,53.0461165 97.7959927,55.3216019 C97.4681239,57.5970874 95.6466302,58.8349515 95.0455373,59.217233 C94.4444444,59.5995146 94.2440801,59.7269417 94.298725,60 C94.3715847,60.4004854 94.6630237,60.3822816 95.1730419,60.309466 C95.8834244,60.1820388 99.726776,58.4708738 99.8907104,54.2839806 C100.163934,48.9320388 95.0637523,43.0885922 86.0473588,43.1432039 L86.0473588,43.1432039 Z M19.1621129,65.6796117 C16.284153,68.8106796 12.276867,69.993932 10.5464481,68.9927184 C8.68852459,67.9186893 9.41712204,63.2949029 12.9508197,59.9817961 C15.1001821,57.961165 17.8688525,56.086165 19.708561,54.9393204 C20.1275046,54.684466 20.7468124,54.3203883 21.4936248,53.8652913 C21.6211293,53.7924757 21.6939891,53.756068 21.6939891,53.756068 L21.6939891,53.756068 C21.8397086,53.6650485 21.9854281,53.5740291 22.1311475,53.4830097 C23.424408,58.2160194 22.1857923,62.3847087 19.1621129,65.6796117 L19.1621129,65.6796117 Z M40.1092896,51.4441748 C39.1074681,53.8834951 37.0127505,60.1274272 35.7377049,59.7815534 C34.6448087,59.4902913 33.9708561,54.7572816 35.5191257,50.0788835 C36.3023679,47.7305825 37.9599271,44.9271845 38.9253188,43.8349515 C40.4918033,42.0873786 42.2222222,41.5048544 42.6411658,42.2148058 C43.1693989,43.1432039 40.7285974,49.9150485 40.1092896,51.4441748 L40.1092896,51.4441748 Z M57.3952641,59.7087379 C56.9763206,59.9271845 56.575592,60.0728155 56.3934426,59.9635922 C56.2659381,59.8907767 56.575592,59.5995146 56.575592,59.5995146 C56.575592,59.5995146 58.7431694,57.2694175 59.5992714,56.2135922 C60.0910747,55.5946602 60.6739526,54.8665049 61.2932605,54.0473301 L61.2932605,54.2839806 C61.2932605,57.0691748 58.5974499,58.9441748 57.3952641,59.7087379 L57.3952641,59.7087379 Z M70.7285974,56.6686893 C70.4189435,56.4502427 70.4735883,55.7220874 71.5118397,53.4466019 C71.9125683,52.5546117 72.859745,51.0618932 74.4808743,49.6237864 C74.6630237,50.2063107 74.7905282,50.7706311 74.7723133,51.2985437 C74.7540984,54.8118932 72.2404372,56.1225728 70.7285974,56.6686893 L70.7285974,56.6686893 Z" id="Shape"></path>
                        </g>
                    </g>
                    <g id="Rails" transform="translate(213.000000, 20.000000)" fill="#000000">
                        <path d="M4.37559162,18.1731698 L32.5725149,47.3462666 L19.0863858,18.1731698 L4.37559162,18.1731698 L4.37559162,18.1731698 L4.37559162,18.1731698 Z M22.8043106,18.1731698 L35.7145023,47.0420112 L48.6246941,18.1731698 L22.8043106,18.1731698 L22.8043106,18.1731698 L22.8043106,18.1731698 Z M66.1186321,18.1731698 L52.3426188,18.1731698 L38.8930125,47.3462666 L66.1186321,18.1731698 L66.1186321,18.1731698 L66.1186321,18.1731698 Z M24.4090177,14.8256062 L47.5632325,14.8256062 L35.9862528,2.93049994 L24.4090177,14.8256062 L24.4090177,14.8256062 L24.4090177,14.8256062 Z M55.8963184,1.91296524 L39.0345067,1.91296524 L50.5874784,13.783701 L55.8963184,1.91296524 L55.8963184,1.91296524 L55.8963184,1.91296524 Z M15.5326861,1.91296524 L21.0123918,14.1663442 L32.9385097,1.91296524 L15.5326861,1.91296524 L15.5326861,1.91296524 L15.5326861,1.91296524 Z M66.1541334,14.8256062 L58.7351405,3.87869154 L53.8398006,14.8256062 L66.1541334,14.8256062 L66.1541334,14.8256062 L66.1541334,14.8256062 Z M5.45237742,14.8256062 L17.589204,14.8256062 L12.8031773,4.12315111 L5.45237742,14.8256062 L5.45237742,14.8256062 L5.45237742,14.8256062 Z M12.1541941,0 L59.3120996,0 L70.9800034,17.2166872 L35.4900017,54.5197606 L0,17.6950541 L12.1541941,0 L12.1541941,0 L12.1541941,0 Z" id="Shape"></path>
                    </g>
                    <g id="Rabbitmq" transform="translate(657.000000, 12.000000)" fill="#000000">
                        <path d="M56.56625,24.9615384 L36.9555576,24.9615384 C35.9718462,24.9615384 35.173077,24.1627692 35.173077,23.1790576 L35.173077,2.74123076 C35.173077,1.22765385 33.945423,0 32.4329808,0 L25.4324038,0 C23.918827,0 22.6923077,1.22765385 22.6923077,2.74123076 L22.6923077,23.0553846 C22.6923077,24.1094424 21.8402115,24.966077 20.7861538,24.9706154 L14.3596923,25.00125 C13.2965577,25.006923 12.4331154,24.1446154 12.4353846,23.0826154 L12.4750962,2.74576924 C12.4785,1.22992308 11.2508462,0 9.735,0 L2.74009616,0 C1.22651923,0 0,1.22765385 0,2.74123076 L0,59.9700962 C0,61.3146154 1.08923077,62.4038462 2.43261538,62.4038462 L56.56625,62.4038462 C57.9107692,62.4038462 59,61.3146154 59,59.9700962 L59,27.3952884 C59,26.0507692 57.9107692,24.9615384 56.56625,24.9615384 L56.56625,24.9615384 L56.56625,24.9615384 Z M47.3701924,46.4488846 C47.3701924,48.2109424 45.9417116,49.639423 44.1796538,49.639423 L38.6472692,49.639423 C36.8852116,49.639423 35.4567308,48.2109424 35.4567308,46.4488846 L35.4567308,40.9165 C35.4567308,39.1544424 36.8852116,37.7259616 38.6472692,37.7259616 L44.1796538,37.7259616 C45.9417116,37.7259616 47.3701924,39.1544424 47.3701924,40.9165 L47.3701924,46.4488846 L47.3701924,46.4488846 L47.3701924,46.4488846 Z" id="Shape"></path>
                    </g>
                    <g id="MySQL" transform="translate(397.000000, 0.000000)">
                        <g id="Group">
                            <g transform="translate(0.275850, 45.896887)" id="Shape" fill="#000000">
                                <path d="M0,22.9254187 L4.79818889,22.9254187 L4.79818889,3.9400197 L12.2264181,20.490798 C13.1028615,22.4941281 14.3026143,23.2028374 16.6553776,23.2028374 C19.0084771,23.2028374 20.1618613,22.4941281 21.0386784,20.490798 L28.4665714,3.9400197 L28.4665714,22.9254187 L33.2651339,22.9254187 L33.2651339,3.9710936 C33.2651339,2.12200985 32.5266003,1.2279803 31.004323,0.765990148 C27.3595183,-0.374384236 24.9140927,0.611743842 23.806666,3.07743842 L16.5170566,19.4118227 L9.45809423,3.07743842 C8.39699869,0.611743842 5.90557821,-0.374384236 2.26080342,0.765990148 C0.738156176,1.2279803 0,2.12200985 0,3.9710936 L0,22.9254187 L0,22.9254187 Z"></path>
                            </g>
                            <g transform="translate(37.529730, 53.318305)" id="Shape" fill="#000000">
                                <path d="M0.000747276688,0.0509162562 L4.79751634,0.0509162562 L4.79751634,10.5104631 C4.75267974,11.0787783 4.97947821,12.412335 7.60802397,12.4538916 C8.94901198,12.4748571 17.9578061,12.4538916 18.0418747,12.4538916 L18.0418747,0 L22.8498529,0 C22.8718976,0 22.8449956,16.9835665 22.8453693,17.0558227 C22.8718976,21.2444335 17.6585218,22.1541872 15.2556536,22.2245714 L0.104992375,22.2245714 L0.104992375,18.990266 C0.131520697,18.990266 15.2444444,18.9932611 15.2825556,18.9895172 C18.3706765,18.6626798 18.0060054,17.1247094 18.0056318,16.606936 L18.0056318,15.3460099 L7.8071732,15.3460099 C3.06233987,15.3022069 0.0407265795,13.2273695 0.0033627451,10.8402956 C-4.18123652e-14,10.6190345 0.105739651,0.155369458 0.000747276688,0.0509162562 L0.000747276688,0.0509162562 Z"></path>
                            </g>
                            <g transform="translate(64.077481, 46.632177)" id="Shape" fill="#000000">
                                <path d="M0,22.1901281 L13.7947277,22.1901281 C15.4095926,22.1901281 16.9785,21.8513103 18.2242102,21.265399 C20.3001449,20.3103448 21.3153203,19.0160985 21.3153203,17.3205123 L21.3153203,13.8072906 C21.3153203,12.420197 20.1618987,11.1255764 17.9010131,10.2629951 C16.7012603,9.80025616 15.2250153,9.55391133 13.7947277,9.55391133 L7.98128867,9.55391133 C6.04397386,9.55391133 5.12108715,8.96837438 4.89055229,7.67412808 C4.84422113,7.51988177 4.84422113,7.39633498 4.84422113,7.24246305 L4.84422113,5.05456158 C4.84422113,4.93101478 4.84422113,4.80746798 4.89055229,4.65359606 C5.12108715,3.66746798 5.62886166,3.38967488 7.33564161,3.23580296 C7.47426144,3.23580296 7.65846514,3.20472906 7.79708497,3.20472906 L21.4998976,3.20472906 L21.4998976,0 L8.02761983,0 C6.08993137,0 5.07475599,0.123172414 4.15224292,0.400216749 C1.29166776,1.29424631 0.0459575163,2.71203941 0.0459575163,5.17773399 L0.0459575163,7.98224631 C0.0459575163,10.1398227 2.49142048,11.9889064 6.59733224,12.420197 C7.05914924,12.4508966 7.52021895,12.4815961 7.98128867,12.4815961 L12.9641296,12.4815961 C13.1490806,12.4815961 13.333658,12.4815961 13.4719041,12.51267 C14.9944804,12.6362167 15.6401275,12.9132611 16.1019444,13.4680985 C16.3784368,13.7451429 16.4707255,14.022936 16.4707255,14.3310542 L16.4707255,17.1355665 C16.4707255,17.4747586 16.2401906,17.9064236 15.7791209,18.2759409 C15.3636351,18.6458325 14.6716569,18.8925517 13.7487702,18.9543251 C13.5641928,18.9543251 13.4259466,18.9850246 13.2413693,18.9850246 L0,18.9850246 L0,22.1901281 L0,22.1901281 Z"></path>
                            </g>
                            <g transform="translate(115.325717, 46.632177)" id="Shape" fill="#000000">
                                <path d="M0,16.611803 C0,19.9093793 2.44508932,21.7588374 7.38197277,22.1287291 C7.84304248,22.1594286 8.30485948,22.1901281 8.76592919,22.1901281 L21.2693627,22.1901281 L21.2693627,18.9850246 L8.67364052,18.9850246 C5.85939651,18.9850246 4.79826362,18.2759409 4.79826362,16.5811034 L4.79826362,0 L0,0 L0,16.611803 L0,16.611803 Z"></path>
                            </g>
                            <g transform="translate(88.455142, 46.672985)" id="Shape" fill="#000000">
                                <path d="M0,16.7390936 L0,5.31213793 C0,2.40916256 2.03446078,0.648433498 6.05630392,0.0924729064 C6.47253704,0.0310738916 6.93510131,0 7.35096078,0 L16.4587691,0 C16.9209597,0 17.3375664,0.0310738916 17.7997571,0.0924729064 C21.8219739,0.648433498 23.856061,2.40916256 23.856061,5.31213793 L23.856061,16.7390936 C23.856061,19.0943448 22.9922092,20.3548966 21.0010904,21.1762956 L25.7276155,25.4510148 L20.1562941,25.4510148 L16.3324793,21.9924532 L12.4828834,22.2369261 L7.35096078,22.2369261 C6.47253704,22.2369261 5.54815577,22.1130049 4.53073856,21.8352118 C1.47960784,21.0014581 0,19.3953498 0,16.7390936 L0,16.7390936 Z M5.17900109,16.4613005 C5.17900109,16.6159212 5.22495861,16.7701675 5.27128976,16.9554877 C5.54852941,18.2834286 6.79685512,19.0247094 8.69232244,19.0247094 L13.051561,19.0247094 L9.04727887,15.4025419 L14.6186002,15.4025419 L18.1109978,18.5615961 C18.7544031,18.2179113 19.1781089,17.6922759 19.3260697,17.0172611 C19.3720272,16.8630148 19.3720272,16.7083941 19.3720272,16.5541478 L19.3720272,5.59030542 C19.3720272,5.46675862 19.3720272,5.31213793 19.3260697,5.15751724 C19.0484564,3.92242365 17.8001307,3.21221675 15.9509946,3.21221675 L8.69232244,3.21221675 C6.56594662,3.21221675 5.17900109,4.13881773 5.17900109,5.59030542 L5.17900109,16.4613005 L5.17900109,16.4613005 Z"></path>
                            </g>
                            <g transform="translate(91.014564, 0.133812)" id="Shape" fill="#000000">
                                <path d="M49.8018813,41.1811429 C46.8523802,41.1010246 44.599341,41.3758227 42.6732353,42.189734 C42.1258551,42.4211034 41.2530359,42.4270936 41.1637364,43.1144631 C41.4645153,43.4304433 41.51122,43.9021675 41.7503486,44.2907783 C42.2102974,45.0365517 42.9867179,46.0357833 43.6794434,46.5599212 C44.4364346,47.1323547 45.2165915,47.7448473 46.028134,48.240532 C47.4714989,49.1225813 49.0830011,49.6261281 50.4729357,50.5096749 C51.291951,51.0304433 52.1057353,51.6863645 52.9049477,52.2741478 C53.2998834,52.56467 53.5655403,53.0165517 54.0789194,53.1985025 L54.0789194,53.1146404 C53.8091525,52.7705813 53.7396558,52.2973596 53.4919336,51.9379507 C53.1287571,51.5740493 52.765207,51.2097734 52.4016569,50.8454975 C51.3356667,49.4277044 49.9823486,48.1825025 48.543841,47.1480788 C47.3967712,46.322936 44.8291285,45.2083941 44.3504978,43.8707192 C44.3224749,43.8426404 44.2948257,43.8145616 44.2664292,43.7864828 C45.0798399,43.6947586 46.032244,43.3997438 46.7828834,43.1983251 C48.0439129,42.8595074 49.1708061,42.9471133 50.4729357,42.6101675 C51.0599216,42.442069 51.6469074,42.2735961 52.2342669,42.1058719 L52.2342669,41.7696749 C51.5759161,41.0927882 51.1066264,40.1972611 50.3888671,39.5847685 C48.5109608,37.9824039 46.4611808,36.3815369 44.3504978,35.0466325 C43.1798889,34.3062502 41.7331612,33.8251291 40.4926819,33.197736 C40.0753279,32.9867704 39.3422495,32.8770759 39.0665044,32.5253793 C38.4148791,31.6928611 38.0599227,30.637734 37.5573791,29.6681163 C36.5044662,27.6368197 35.4706089,25.4182936 34.5380076,23.2813084 C33.9017015,21.8239803 33.4862157,20.3867567 32.6929815,19.079332 C28.8848595,12.8058502 24.7856732,9.01921576 18.4356895,5.29731232 C17.0846133,4.50578916 15.4577919,4.19317833 13.7386819,3.7848 C12.8165425,3.728867 11.8936558,3.67255961 10.9711427,3.6166266 C10.4080697,3.38080197 9.82220479,2.69051232 9.29388017,2.356 C7.1902963,1.02443882 1.79458497,-1.87192118 0.236513072,1.93590345 C-0.747276688,4.33941281 1.70677996,6.68481773 2.58445643,7.90265222 C3.20058606,8.75707192 3.9893366,9.71497143 4.42948257,10.6757911 C4.71905229,11.3072276 4.76911983,11.9404611 5.01684205,12.6087744 C5.62661983,14.2547547 6.15681264,16.0455094 6.94556318,17.5668197 C7.34423529,18.3364414 7.78363399,19.1473576 8.28767211,19.8357754 C8.59667102,20.2580808 9.12611656,20.4441498 9.20981155,21.096402 C8.6919488,21.8225202 8.66243137,22.9496788 8.3713671,23.8695783 C7.06064379,28.0108296 7.55496732,33.1582384 9.46164379,36.2231724 C10.0467614,37.164 11.4247397,39.181931 13.3194597,38.4080788 C14.9769194,37.7315665 14.6066438,35.6353892 15.0807908,33.7860059 C15.1880251,33.3666207 15.1222647,33.0584276 15.3322495,32.7776394 L15.3322495,32.8617261 C15.8355403,33.8700926 16.3388312,34.8784217 16.842122,35.886601 C17.9593007,37.6896355 19.9421993,39.5739113 21.622451,40.8453202 C22.4937756,41.5046108 23.1797756,42.6446108 24.3062952,43.0302266 L24.3062952,42.9459901 L24.2222266,42.9459901 C24.0040218,42.6049261 23.6625163,42.4637833 23.3837821,42.189734 C22.7272996,41.5450443 21.9975839,40.7434877 21.4546874,40.0048276 C19.9265065,37.9258719 18.5758039,35.6503645 17.3454129,33.2818227 C16.7576797,32.1509951 16.2469161,30.9031724 15.7514717,29.752203 C15.5605425,29.3083704 15.5627843,28.6374739 15.1648595,28.4075271 C14.6223366,29.2509773 13.8231242,29.9328433 13.4035283,30.9287429 C12.7324739,32.5206246 12.6457898,34.4619941 12.3973203,36.475133 C12.2501068,36.5279212 12.3154935,36.4916059 12.229183,36.5589951 C11.0611895,36.2767094 10.650561,35.0718286 10.2167669,34.038266 C9.11864379,31.4241655 8.91463725,27.2148887 9.88086601,24.2059251 C10.1308301,23.4275429 11.2607124,20.975401 10.8033791,20.2562463 C10.5851743,19.5385517 9.86479956,19.1235842 9.46164379,18.5751862 C8.9628366,17.8973261 8.46477669,17.004869 8.11953486,16.2221064 C7.22093464,14.1838463 6.80133878,11.8958345 5.85528649,9.83563547 C5.4031841,8.85066798 4.63834641,7.8540197 4.01026035,6.97840985 C3.31491939,6.00845517 2.53625708,5.29401773 1.99747059,4.12080985 C1.80579412,3.70400788 1.54536819,3.03674286 1.82970697,2.6082601 C1.92012745,2.31904828 2.04753813,2.19842167 2.33299782,2.10407685 C2.81947495,1.72823626 4.17428758,2.22912118 4.68094118,2.4400867 C6.02603922,2.99982857 7.1484488,3.53287685 8.28767211,4.28898325 C8.83467865,4.65239803 9.3876634,5.3550798 10.0486296,5.54960985 L10.8033791,5.54960985 C11.9840763,5.8216 13.306756,5.63407094 14.4097364,5.96966897 C16.3593813,6.56344236 18.1065142,7.4869734 19.6933562,8.49092217 C24.5274891,11.549267 28.4798355,15.9029438 31.1834826,21.096402 C31.6183976,21.9325517 31.8067113,22.7307015 32.1896906,23.6176552 C32.9627484,25.4062384 33.9364499,27.2467113 34.7053976,28.9957596 C35.4728508,30.7408394 36.2208747,32.5019803 37.3055468,33.9541793 C37.8760926,34.7175488 40.0786906,35.1270502 41.0796678,35.5507783 C41.7813606,35.8480394 42.9310458,36.1576552 43.5957484,36.5589951 C44.8653715,37.3264828 46.0953889,38.2399803 47.2861743,39.0804729 C47.8813802,39.500532 49.7107135,40.4218916 49.8018813,41.1811429 L49.8018813,41.1811429 Z"></path>
                            </g>
                            <g transform="translate(101.817943, 9.285740)" id="Shape" fill="#00618A">
                                <path d="M1.50987255,0.0113438424 C0.894863834,-3.46944695e-16 0.459948802,0.0786206897 0,0.179180296 L0,0.263266995 L0.0840686275,0.263266995 C0.377374728,0.867223645 0.895237473,1.25587192 1.25804031,1.77615369 C1.53752179,2.36442365 1.81700327,2.9526936 2.09685839,3.54058916 C2.12450763,3.51277241 2.15290414,3.48465616 2.18055338,3.45683941 C2.69991068,3.09013005 2.9379183,2.50335764 2.93530283,1.6079803 C2.72718627,1.38859113 2.69654793,1.1133064 2.51608061,0.851499507 C2.27620479,0.502723153 1.81214597,0.304561576 1.50987255,0.0113438424 L1.50987255,0.0113438424 Z"></path>
                            </g>
                            <g transform="translate(138.847371, 61.983054)" id="Shape" fill="#000000">
                                <path d="M0,3.54279803 C0,5.6595665 1.66904248,7.08597044 3.53611329,7.08597044 C5.4031841,7.08597044 7.07222658,5.6595665 7.07222658,3.54279803 C7.07222658,1.42640394 5.4031841,0 3.53611329,0 C1.66904248,0 0,1.42640394 0,3.54279803 L0,3.54279803 Z M6.28011329,3.54279803 C6.28011329,5.1489064 5.05457952,6.34918227 3.53611329,6.34918227 C1.99933878,6.34918227 0.79211329,5.1489064 0.79211329,3.54279803 C0.79211329,1.93668966 1.99933878,0.736413793 3.53611329,0.736413793 C5.05457952,0.736413793 6.28011329,1.93668966 6.28011329,3.54279803 L6.28011329,3.54279803 Z M4.48889107,5.56484729 L5.28063072,5.56484729 L4.12123094,3.78876847 C4.74333878,3.72250246 5.21449673,3.42 5.21449673,2.68321182 C5.21449673,1.86106404 4.69626035,1.52112315 3.69677778,1.52112315 L2.12189216,1.52112315 L2.12189216,5.56484729 L2.80079303,5.56484729 L2.80079303,3.81684729 L3.43261547,3.81684729 L4.48889107,5.56484729 L4.48889107,5.56484729 Z M2.80079303,3.25002956 L2.80079303,2.08794089 L3.58319172,2.08794089 C3.98896296,2.08794089 4.47917647,2.1635665 4.47917647,2.63603941 C4.47917647,3.20248276 4.03604139,3.25002956 3.52677233,3.25002956 L2.80079303,3.25002956 L2.80079303,3.25002956 Z"></path>
                            </g>
                        </g>
                    </g>
                    <g id="Docker" transform="translate(829.000000, 34.000000)" fill="#000000">
                        <path d="M88.848,22.392 C91.544,20.072 94.248,17.76 96.936,15.432 C97.856,14.64 98.864,13.816 99.776,12.976 C99.04,12.056 97.824,11.384 96.784,10.992 C94.688,10.192 92.616,10.464 90.696,11.576 C88.176,13.032 87.104,15.352 87.2,18.232 C87.24,19.368 87.544,20.464 88.144,21.432 C88.352,21.768 88.592,22.088 88.848,22.392 L88.848,22.392 Z M91.968,24.592 C93.288,25.056 94.8,24.992 96.16,24.752 C96.856,24.456 98.632,23.68 99.28,23.792 L99.384,23.808 L99.48,23.856 C99.88,24.048 100.256,24.32 100.464,24.728 C100.944,25.68 100.712,26.64 99.776,27.176 L99.464,27.352 C96.016,29.344 92.344,29.072 88.904,27.208 C87.256,26.32 86,25 85.072,23.384 L84.856,23.008 C82.64,19.168 82.944,15.128 85.44,11.48 C86.304,10.216 87.432,9.24 88.744,8.48 L89.24,8.192 C92.488,6.312 95.968,6.44 99.304,8.088 C101.096,8.976 102.552,10.296 103.552,12.032 L103.736,12.344 C104.464,13.608 103.52,14.704 102.544,15.456 C101.416,16.328 100.272,17.376 99.192,18.312 C96.792,20.416 94.384,22.504 91.968,24.592 L91.968,24.592 Z M117.816,7.12 L118.176,7.12 C119.264,7.12 119.992,7.856 119.992,8.944 C119.992,10.448 118.552,10.84 117.304,10.84 C115.672,10.84 114.112,11.832 112.984,12.944 C111.576,14.328 110.968,16.104 110.968,18.056 L110.968,26.872 C110.968,27.88 110.336,28.696 109.296,28.696 L109.008,28.696 C107.96,28.696 107.336,27.888 107.336,26.872 L107.336,17.552 C107.336,13.976 109.08,11.048 111.976,9 C113.712,7.768 115.696,7.12 117.816,7.12 L117.816,7.12 Z M72.496,13.376 C73.912,11.96 75.328,10.544 76.76,9.152 C77.16,8.76 78.672,7.12 79.264,7.12 L79.912,7.12 L79.984,7.136 C80.816,7.312 81.432,7.832 81.432,8.728 L81.432,9.088 C81.432,9.696 80.72,10.408 80.328,10.824 C79.496,11.712 78.616,12.568 77.76,13.44 L73.368,17.904 C75.256,19.8 77.152,21.704 79.024,23.616 C79.544,24.144 80.064,24.672 80.576,25.208 C80.76,25.4 81.024,25.632 81.176,25.896 C81.336,26.144 81.44,26.424 81.44,26.72 L81.44,27.096 L81.416,27.184 C81.208,28.016 80.688,28.688 79.768,28.688 L79.48,28.688 C78.88,28.688 78.2,28.008 77.784,27.616 C76.936,26.816 76.112,25.968 75.28,25.152 L72.488,22.408 L72.488,26.792 C72.488,27.8 71.856,28.616 70.816,28.616 L70.528,28.616 C69.48,28.616 68.856,27.8 68.856,26.792 L68.856,2.08 C68.856,1.072 69.488,0.264 70.528,0.264 L70.816,0.264 C71.856,0.264 72.488,1.072 72.488,2.08 L72.496,13.376 L72.496,13.376 Z M60.696,10.912 C60.144,10.656 59.12,10.568 58.528,10.544 C55.488,10.432 53.288,12.144 52,14.824 C51.552,15.752 51.352,16.728 51.352,17.752 C51.352,20.872 52.984,23.056 55.768,24.384 C56.784,24.872 58.096,24.96 59.208,24.96 C60.184,24.96 61.56,24.36 62.432,23.952 L62.584,23.88 L63.256,23.88 L63.328,23.896 C64.152,24.072 64.776,24.592 64.776,25.488 L64.776,25.848 C64.776,28.064 60.728,28.576 59.184,28.68 C53.736,29.056 49.656,26.064 48.104,20.856 C47.832,19.952 47.712,19.056 47.712,18.112 L47.712,17.392 C47.712,13.44 49.672,10.312 53.048,8.304 C54.624,7.368 56.36,6.896 58.184,6.896 L58.904,6.896 C60.84,6.896 62.624,7.448 64.232,8.544 L64.36,8.632 L64.44,8.768 C64.616,9.056 64.76,9.384 64.76,9.728 L64.76,10.088 C64.76,11.016 64.064,11.52 63.224,11.68 L63.152,11.696 L62.96,11.696 C62.416,11.704 61.184,11.136 60.696,10.912 L60.696,10.912 Z M27.536,17.832 C27.536,20.6 28.896,22.632 31.224,24.064 C32.32,24.736 33.528,25.04 34.808,25.04 C37.536,25.04 39.56,23.656 40.96,21.344 C41.632,20.24 41.936,19.032 41.936,17.752 C41.936,15.176 40.696,13.216 38.584,11.784 C37.424,11 36.136,10.608 34.736,10.608 C31.688,10.608 29.496,12.152 28.184,14.888 C27.736,15.824 27.536,16.808 27.536,17.832 L27.536,17.832 Z M34.376,6.976 L34.88,6.976 C39.096,6.976 42.296,9.024 44.328,12.704 C45.136,14.176 45.576,15.784 45.576,17.472 L45.576,18.192 C45.576,22.136 43.632,25.288 40.232,27.28 C38.656,28.208 36.92,28.68 35.096,28.68 L34.376,28.68 C30.432,28.68 27.296,26.728 25.296,23.336 C24.368,21.76 23.896,20.024 23.896,18.192 L23.896,17.472 C23.896,13.52 25.856,10.392 29.232,8.384 C30.808,7.448 32.552,6.976 34.376,6.976 L34.376,6.976 Z M3.72,17.832 C3.72,20.68 5.104,22.824 7.592,24.192 C8.6,24.744 9.696,25.04 10.848,25.04 C13.64,25.04 15.72,23.72 17.144,21.352 C17.808,20.248 18.12,19.04 18.12,17.76 C18.12,15.288 16.952,13.36 14.96,11.928 C13.752,11.056 12.392,10.624 10.912,10.624 C7.864,10.624 5.672,12.168 4.36,14.904 C3.92,15.824 3.72,16.808 3.72,17.832 L3.72,17.832 Z M18.128,9.696 L18.128,2.008 C18.128,1 18.76,0.184 19.8,0.184 L20.088,0.184 C21.136,0.184 21.76,1 21.76,2.008 L21.76,18.192 C21.76,22.136 19.808,25.28 16.416,27.28 C14.84,28.208 13.104,28.68 11.28,28.68 L10.56,28.68 C6.616,28.68 3.48,26.728 1.48,23.336 C0.552,21.76 0.08,20.024 0.08,18.192 L0.08,17.472 C0.08,13.52 2.032,10.384 5.424,8.384 C7,7.456 8.736,6.984 10.56,6.984 L11.28,6.984 C13.952,6.976 16.216,8.016 18.128,9.696 L18.128,9.696 Z" id="Shape"></path>
                    </g>
                    <g id="Java" transform="translate(1066.000000, 4.000000)" fill="#000000">
                        <g id="svg1968">
                            <g id="layer1" transform="translate(0.104435, 0.167634)">
                                <g id="Ebene_x0020_1" transform="translate(0.051842, 0.022635)">
                                    <g id="_198302696">
                                        <path d="M15.1442513,45.2550763 C15.1442513,45.2550763 12.9016958,46.6178988 16.7042503,47.0072705 C21.2867528,47.5913103 23.7243352,47.494055 28.7943578,46.5205648 C28.7943578,46.5205648 30.1593769,47.3966422 32.0118787,48.0780929 C20.6042808,52.9453 6.17415128,47.7859764 15.1442419,45.255082 L15.1442513,45.2550763 L15.1442513,45.2550763 Z M13.6817038,38.9277558 C13.6817038,38.9277558 11.2442153,40.7772446 15.0467229,41.1666088 C20.0193166,41.6533933 23.919347,41.7506485 30.6468821,40.3878635 C30.6468821,40.3878635 31.5244111,41.3613143 32.9868854,41.8480576 C19.2392842,45.9365251 3.83409545,42.2374293 13.6817977,38.927737 L13.6817038,38.9277558 L13.6817038,38.9277558 Z M40.5919569,50.0249551 C40.5919569,50.0249551 42.2494863,51.387817 38.7394476,52.4585212 C32.2068643,54.4054266 11.3415803,54.9894532 5.49152527,52.4585212 C3.44403418,51.5824832 7.344074,50.316959 8.61152332,50.1222835 C9.87905152,49.8302833 10.5615291,49.8302833 10.5615291,49.8302833 C8.31910509,48.2727553 -4.35606424,53.042589 4.1264686,54.4054116 C27.4292035,58.2018377 46.6369938,52.7505889 40.5917804,50.0249401 L40.5919569,50.0249551 L40.5919569,50.0249551 Z M16.2166963,32.3083375 C16.2166963,32.3083375 5.58913075,34.8392695 12.4142263,35.7153563 C15.3392538,36.1046886 21.091786,36.0074352 26.4543771,35.6180223 C30.8418715,35.2286506 35.2294785,34.4499053 35.2294785,34.4499053 C35.2294785,34.4499053 33.66944,35.1312772 32.596888,35.8127672 C21.7743519,38.6356656 1.00659077,37.3702165 6.95413107,34.4499053 C12.0241725,32.0162642 16.2166399,32.3083431 16.2166399,32.3083431 L16.2166963,32.3083375 L16.2166963,32.3083375 Z M35.229516,42.9188011 C46.1495937,37.2728356 41.0795899,31.8216018 37.5695193,32.5030505 C36.6919904,32.6977167 36.3019911,32.8924222 36.3019911,32.8924222 C36.3019911,32.8924222 36.5945013,32.308345 37.2769714,32.113677 C44.1995898,29.6800359 49.6596286,39.4144127 35.0345474,43.2108388 C35.0345474,43.2108388 35.1319594,43.1135048 35.2295273,42.9187993 L35.229516,42.9188011 L35.229516,42.9188011 Z M17.2892784,58.299181 C27.8194338,58.9806317 43.9070758,57.9098093 44.2970168,52.9452944 C44.2970168,52.9452944 43.5170558,54.8921998 35.6194947,56.3522757 C26.6493852,58.0071771 15.534337,57.8124697 9.00169729,56.7416474 C9.00169729,56.7416474 10.3666769,57.9098037 17.2892596,58.2991754 L17.2892784,58.299181 L17.2892784,58.299181 Z" id="_227268128"></path>
                                        <path d="M28.5994343,0.184790796 C28.5994343,0.184790796 34.6444974,6.31745458 22.8468457,15.5651707 C13.3892348,23.0606195 20.7018318,27.3437438 22.8468457,32.2109322 C17.289284,27.2464717 13.2917495,22.8659252 16.0217502,18.7774577 C20.0193598,12.7421223 31.0369227,9.821858 28.5994343,0.184809549 L28.5994343,0.184790796 L28.5994343,0.184790796 Z M25.4794362,28.1225397 C28.3068845,31.3349204 24.6993982,34.2552785 24.6993982,34.2552785 C24.6993982,34.2552785 31.9144535,30.5561808 28.5994286,25.9809776 C25.5768407,21.6005436 23.2368375,19.4589815 35.9119692,12.1581332 C35.9119692,12.1581332 15.9242969,17.122725 25.4794306,28.1225585 L25.4794362,28.1225397 L25.4794362,28.1225397 Z M18.2643433,80.3963245 L18.2643433,70.8566044 C18.2643433,68.4229258 16.8993242,66.7681369 13.4867389,66.7681369 C11.536733,66.7681369 9.87920179,67.2548426 8.41665985,67.8388805 L8.90422893,69.5910747 C9.97669832,69.201703 11.3417174,68.8122919 12.8042594,68.8122919 C14.6567686,68.8122919 15.53426,69.5910747 15.53426,71.1486046 L15.53426,72.4140931 L14.5592796,72.4140931 C9.87919803,72.4140931 7.73418411,74.1662873 7.73418411,76.9892213 C7.73418411,79.3254965 9.19669411,80.688319 11.8292414,80.688319 C13.4867313,80.688319 14.7543065,79.9095363 15.9242987,78.9361248 L16.1193181,80.3963189 L18.264332,80.3963189 L18.2643433,80.3963245 L18.2643433,80.3963245 Z M15.5342675,77.2812721 C14.5592871,78.1573496 13.4867389,78.644134 12.5117172,78.644134 C11.244266,78.644134 10.4642636,77.8653888 10.4642636,76.5025719 C10.4642636,75.13971 11.2442641,74.1662967 14.3642941,74.1662967 L15.5342544,74.1662967 L15.5342544,77.281274 L15.5342675,77.2812721 L15.5342675,77.2812721 Z M27.429442,80.3963245 L24.0168191,80.3963245 L19.9217994,67.0601408 L22.8468645,67.0601408 L25.3818758,75.2370384 L25.9668569,77.670642 C27.2343851,74.1662948 28.20945,70.564488 28.5994474,67.0601408 L31.5244749,67.0601408 C30.7444745,71.4406498 29.3794986,76.2104536 27.4294552,80.3963245 L27.429442,80.3963245 L27.429442,80.3963245 Z M43.2245718,80.3963245 L43.2245718,70.8566044 C43.2245718,68.4229258 41.8595527,66.7681369 38.447005,66.7681369 C36.4969616,66.7681369 34.8394679,67.2548426 33.376926,67.8388805 L33.7669647,69.5910747 C34.9369644,69.201703 36.301976,68.8122919 37.7645368,68.8122919 C39.617046,68.8122919 40.4945374,69.5910747 40.4945374,71.1486046 L40.4945374,72.4140931 L39.519557,72.4140931 C34.8394754,72.4140931 32.6944615,74.1662873 32.6944615,76.9892213 C32.6944615,79.3254965 34.0594806,80.688319 36.691996,80.688319 C38.4470144,80.688319 39.7145463,79.9095363 40.8845761,78.9361248 L41.0795955,80.3963189 L43.2245718,80.3963189 L43.2245718,80.3963245 L43.2245718,80.3963245 Z M40.4945336,77.2812721 C39.5195533,78.1573496 38.447005,78.644134 37.4719457,78.644134 C36.2044945,78.644134 35.4244922,77.8653888 35.4244922,76.5025719 C35.4244922,75.13971 36.2044927,74.1662967 39.3245226,74.1662967 L40.4945224,74.1662967 L40.4945224,77.281274 L40.4945336,77.2812721 L40.4945336,77.2812721 Z M4.71161874,82.6351963 C3.93161829,83.8033132 2.76157535,84.6794675 1.29914611,85.1661283 L0.0315784637,83.6086002 C1.00655884,83.0245605 1.98162185,82.1485224 2.37158169,81.3697472 C2.76158098,80.6883359 2.85915077,79.7148457 2.85915077,77.4759927 L2.85915077,62.2903258 L5.78417829,62.2903258 L5.78417829,77.2812984 C5.78417829,80.2989473 5.49166802,81.4670568 4.71163001,82.6352225 L4.71161874,82.6351963 L4.71161874,82.6351963 Z" id="_230367536"></path>
                                    </g>
                                </g>
                            </g>
                        </g>
                    </g>
                </g>
            </g>
        </g>
    </g>
</svg>