<?xml version="1.0" encoding="UTF-8" standalone="no"?>
<svg width="484px" height="387px" viewBox="0 0 484 387" version="1.1" xmlns="http://www.w3.org/2000/svg" xmlns:xlink="http://www.w3.org/1999/xlink" xmlns:sketch="http://www.bohemiancoding.com/sketch/ns">
    <!-- Generator: Sketch 3.5.1 (25234) - http://www.bohemiancoding.com/sketch -->
    <title>use-cases-diagram</title>
    <desc>Created with Sketch.</desc>
    <defs></defs>
    <g id="Page-1" stroke="none" stroke-width="1" fill="none" fill-rule="evenodd" sketch:type="MSPage">
        <g id="use-cases-diagram" sketch:type="MSArtboardGroup">
            <g id="Connecting-lines" sketch:type="MSLayerGroup" transform="translate(57.000000, 37.000000)" fill="#D15572">
                <g id="All-connected" sketch:type="MSShapeGroup">
                    <rect id="backend" x="124" y="75" width="60" height="3"></rect>
                    <rect id="frontend" x="124" y="0" width="60" height="3"></rect>
                    <rect id="deploy" x="184" y="225" width="60" height="3"></rect>
                    <rect id="unit" x="184" y="150" width="60" height="3"></rect>
                    <rect id="acceptance" x="183" y="75" width="60" height="3"></rect>
                    <rect id="lint" x="184" y="0" width="60" height="3"></rect>
                    <rect id="staging" x="115" y="214" width="3" height="30"></rect>
                    <rect id="production" x="0" y="214" width="3" height="30"></rect>
                    <rect id="core-env" x="0" y="211" width="181" height="3"></rect>
                    <rect id="core" x="181" y="3" width="3" height="225"></rect>
                </g>
                <g id="onFrontendRunUnitTestsAndDeployToStaging" transform="translate(115.000000, 0.000000)" sketch:type="MSShapeGroup">
                    <rect id="frontend" x="9" y="0" width="60" height="3"></rect>
                    <rect id="deploy" x="69" y="225" width="60" height="3"></rect>
                    <rect id="unit" x="69" y="150" width="60" height="3"></rect>
                    <rect id="staging" x="0" y="214" width="3" height="30"></rect>
                    <rect id="core-env" x="0" y="211" width="66" height="3"></rect>
                    <rect id="core" x="66" y="3" width="3" height="225"></rect>
                </g>
                <g id="deployBackendToProduction" transform="translate(0.000000, 75.000000)" sketch:type="MSShapeGroup">
                    <rect id="backend" x="124" y="0" width="60" height="3"></rect>
                    <rect id="deploy" x="184" y="150" width="60" height="3"></rect>
                    <rect id="production" x="0" y="139" width="3" height="30"></rect>
                    <rect id="core-env" x="0" y="136" width="181" height="3"></rect>
                    <rect id="core" x="181" y="0" width="3" height="153"></rect>
                </g>
                <g id="onFrontendAndBackendRunUnitTestsAndAcceptenceTestsAndDeployToStaging" transform="translate(115.000000, 0.000000)" sketch:type="MSShapeGroup">
                    <rect id="backend" x="9" y="75" width="60" height="3"></rect>
                    <rect id="frontend" x="9" y="0" width="60" height="3"></rect>
                    <rect id="deploy" x="69" y="225" width="60" height="3"></rect>
                    <rect id="unit" x="69" y="150" width="60" height="3"></rect>
                    <rect id="acceptance" x="68" y="75" width="60" height="3"></rect>
                    <rect id="staging" x="0" y="214" width="3" height="30"></rect>
                    <rect id="core-env" x="0" y="211" width="66" height="3"></rect>
                    <rect id="core" x="66" y="3" width="3" height="225"></rect>
                </g>
                <g id="deployFrontendToStaging" transform="translate(115.000000, 0.000000)" sketch:type="MSShapeGroup">
                    <rect id="frontend" x="9" y="0" width="60" height="3"></rect>
                    <rect id="deploy" x="69" y="225" width="60" height="3"></rect>
                    <rect id="staging" x="0" y="214" width="3" height="30"></rect>
                    <rect id="core-env" x="0" y="211" width="66" height="3"></rect>
                    <rect id="core" x="66" y="3" width="3" height="225"></rect>
                </g>
                <g id="deployFrontendToProduction" sketch:type="MSShapeGroup">
                    <rect id="frontend" x="124" y="0" width="60" height="3"></rect>
                    <rect id="deploy" x="184" y="225" width="60" height="3"></rect>
                    <rect id="production" x="0" y="214" width="3" height="30"></rect>
                    <rect id="core-env" x="0" y="211" width="181" height="3"></rect>
                    <rect id="core" x="181" y="3" width="3" height="225"></rect>
                </g>
            </g>
            <g id="Diagram" sketch:type="MSLayerGroup" transform="translate(3.000000, 3.000000)">
                <g id="Repos">
                    <g id="frontend">
                        <rect id="bg" stroke="#9F495C" stroke-width="3" fill="#FFFFFF" sketch:type="MSShapeGroup" x="0" y="0" width="190" height="70" rx="2"></rect>
                        <text id="FRONTEND" sketch:type="MSTextLayer" font-family="Roboto" font-size="12" font-weight="420" fill="#212121">
                            <tspan x="64" y="32">FRONTEND</tspan>
                            <tspan x="64" y="46">REPO</tspan>
                        </text>
                        <path d="M27,22.9912443 C27,21.8915104 27.8970262,21 29.0049466,21 L48.9950534,21 C50.1023548,21 51,21.8998975 51,22.9912443 L51,47.0087557 C51,48.1084896 50.1029738,49 48.9950534,49 L29.0049466,49 C27.8976452,49 27,48.1001025 27,47.0087557 L27,22.9912443 Z M33,23 L49,23 L49,47 L33,47 L33,23 Z M36,27 L38,27 L38,29 L36,29 L36,27 Z M40,27 L42,27 L42,29 L40,29 L40,27 Z M44,27 L46,27 L46,29 L44,29 L44,27 Z M36,31 L38,31 L38,33 L36,33 L36,31 Z M40,31 L42,31 L42,33 L40,33 L40,31 Z M44,31 L46,31 L46,33 L44,33 L44,31 Z M36,35 L38,35 L38,37 L36,37 L36,35 Z M40,35 L42,35 L42,37 L40,37 L40,35 Z M44,35 L46,35 L46,37 L44,37 L44,35 Z M33,49 L39,49 L39,53 L35.9979594,51 L33,53 L33,49 Z" id="icon_repos" fill="#4B334B" sketch:type="MSShapeGroup"></path>
                    </g>
                    <g id="backend" transform="translate(0.000000, 75.000000)">
                        <rect id="bg" stroke="#9F495C" stroke-width="3" fill="#FFFFFF" sketch:type="MSShapeGroup" x="0" y="0" width="190" height="70" rx="2"></rect>
                        <text id="BACKEND" sketch:type="MSTextLayer" font-family="Roboto" font-size="12" font-weight="420" fill="#212121">
                            <tspan x="64" y="32">BACKEND</tspan>
                            <tspan x="64" y="46">REPO</tspan>
                        </text>
                        <path d="M27,21.9912443 C27,20.8915104 27.8970262,20 29.0049466,20 L48.9950534,20 C50.1023548,20 51,20.8998975 51,21.9912443 L51,46.0087557 C51,47.1084896 50.1029738,48 48.9950534,48 L29.0049466,48 C27.8976452,48 27,47.1001025 27,46.0087557 L27,21.9912443 Z M33,22 L49,22 L49,46 L33,46 L33,22 Z M36,26 L38,26 L38,28 L36,28 L36,26 Z M40,26 L42,26 L42,28 L40,28 L40,26 Z M44,26 L46,26 L46,28 L44,28 L44,26 Z M36,30 L38,30 L38,32 L36,32 L36,30 Z M40,30 L42,30 L42,32 L40,32 L40,30 Z M44,30 L46,30 L46,32 L44,32 L44,30 Z M36,34 L38,34 L38,36 L36,36 L36,34 Z M40,34 L42,34 L42,36 L40,36 L40,34 Z M44,34 L46,34 L46,36 L44,36 L44,34 Z M33,48 L39,48 L39,52 L35.9979594,50 L33,52 L33,48 Z" id="icon_repos" fill="#4B334B" sketch:type="MSShapeGroup"></path>
                    </g>
                </g>
                <g id="Tasks" transform="translate(288.000000, 0.000000)">
                    <g id="lint">
                        <rect id="bg" stroke="#9F495C" stroke-width="3" fill="#FFFFFF" sketch:type="MSShapeGroup" x="0" y="0" width="190" height="70" rx="2"></rect>
                        <text id="LINT" sketch:type="MSTextLayer" font-family="Roboto" font-size="12" font-weight="420" fill="#212121">
                            <tspan x="68" y="39">LINT</tspan>
                        </text>
                        <path d="M24,25.0316938 C24,23.3573355 25.3419813,22 27.0005775,22 L51.9994225,22 C53.6565957,22 55,23.3574377 55,25.0316938 L55,45.9683062 C55,47.6426644 53.6580187,49 51.9994225,49 L27.0005775,49 C25.3434043,49 24,47.6425624 24,45.9683062 L24,25.0316938 L24,25.0316938 Z M25.7222222,27.2258065 L53.2777778,27.2258065 L53.2777778,46.2509333 C53.2777778,46.8071565 52.82249,47.2580645 52.2807818,47.2580645 L26.7192182,47.2580645 C26.1685925,47.2580645 25.7222222,46.8020246 25.7222222,46.2509333 L25.7222222,27.2258065 L25.7222222,27.2258065 Z M45.0976595,30.5908339 L47.3957928,32.5412695 L38.4986072,43.2658917 L36.2004738,41.3154561 L45.0976595,30.5908339 L45.0976595,30.5908339 Z M25.7222222,24.6129032 C25.7222222,24.131881 26.1044392,23.7419355 26.5833333,23.7419355 C27.0589119,23.7419355 27.4444444,24.1285274 27.4444444,24.6129032 C27.4444444,25.0939254 27.0622275,25.483871 26.5833333,25.483871 C26.1077548,25.483871 25.7222222,25.097279 25.7222222,24.6129032 L25.7222222,24.6129032 Z M29.1666667,24.6129032 C29.1666667,24.131881 29.5488836,23.7419355 30.0277778,23.7419355 C30.5033563,23.7419355 30.8888889,24.1285274 30.8888889,24.6129032 C30.8888889,25.0939254 30.506672,25.483871 30.0277778,25.483871 C29.5521992,25.483871 29.1666667,25.097279 29.1666667,24.6129032 L29.1666667,24.6129032 Z M32.6111111,24.6129032 C32.6111111,24.131881 32.993328,23.7419355 33.4722222,23.7419355 C33.9478007,23.7419355 34.3333333,24.1285274 34.3333333,24.6129032 C34.3333333,25.0939254 33.9511164,25.483871 33.4722222,25.483871 C32.9966437,25.483871 32.6111111,25.097279 32.6111111,24.6129032 L32.6111111,24.6129032 Z M33.470738,35.1495607 L38.0670047,39.050432 L36.1604649,41.3485654 L31.5641983,37.447694 L33.470738,35.1495607 L33.470738,35.1495607 Z" id="path-1" fill="#D0AC61" sketch:type="MSShapeGroup"></path>
                    </g>
                    <g id="acceptenceTests" transform="translate(0.000000, 75.000000)">
                        <rect id="bg" stroke="#9F495C" stroke-width="3" fill="#FFFFFF" sketch:type="MSShapeGroup" x="0" y="0" width="190" height="70" rx="2"></rect>
                        <text id="ACCEPTENCE-TESTS" sketch:type="MSTextLayer" font-family="Roboto" font-size="12" font-weight="420" fill="#212121">
                            <tspan x="68" y="32">ACCEPTENCE </tspan>
                            <tspan x="68" y="46">TESTS</tspan>
                        </text>
                        <path d="M24,25.0316938 C24,23.3573355 25.3419813,22 27.0005775,22 L51.9994225,22 C53.6565957,22 55,23.3574377 55,25.0316938 L55,45.9683062 C55,47.6426644 53.6580187,49 51.9994225,49 L27.0005775,49 C25.3434043,49 24,47.6425624 24,45.9683062 L24,25.0316938 L24,25.0316938 Z M25.7222222,27.2258065 L53.2777778,27.2258065 L53.2777778,46.2509333 C53.2777778,46.8071565 52.82249,47.2580645 52.2807818,47.2580645 L26.7192182,47.2580645 C26.1685925,47.2580645 25.7222222,46.8020246 25.7222222,46.2509333 L25.7222222,27.2258065 L25.7222222,27.2258065 Z M45.0976595,30.5908339 L47.3957928,32.5412695 L38.4986072,43.2658917 L36.2004738,41.3154561 L45.0976595,30.5908339 L45.0976595,30.5908339 Z M25.7222222,24.6129032 C25.7222222,24.131881 26.1044392,23.7419355 26.5833333,23.7419355 C27.0589119,23.7419355 27.4444444,24.1285274 27.4444444,24.6129032 C27.4444444,25.0939254 27.0622275,25.483871 26.5833333,25.483871 C26.1077548,25.483871 25.7222222,25.097279 25.7222222,24.6129032 L25.7222222,24.6129032 Z M29.1666667,24.6129032 C29.1666667,24.131881 29.5488836,23.7419355 30.0277778,23.7419355 C30.5033563,23.7419355 30.8888889,24.1285274 30.8888889,24.6129032 C30.8888889,25.0939254 30.506672,25.483871 30.0277778,25.483871 C29.5521992,25.483871 29.1666667,25.097279 29.1666667,24.6129032 L29.1666667,24.6129032 Z M32.6111111,24.6129032 C32.6111111,24.131881 32.993328,23.7419355 33.4722222,23.7419355 C33.9478007,23.7419355 34.3333333,24.1285274 34.3333333,24.6129032 C34.3333333,25.0939254 33.9511164,25.483871 33.4722222,25.483871 C32.9966437,25.483871 32.6111111,25.097279 32.6111111,24.6129032 L32.6111111,24.6129032 Z M33.470738,35.1495607 L38.0670047,39.050432 L36.1604649,41.3485654 L31.5641983,37.447694 L33.470738,35.1495607 L33.470738,35.1495607 Z" id="path-1-copy" fill="#D0AC61" sketch:type="MSShapeGroup"></path>
                    </g>
                    <g id="unitTests" transform="translate(0.000000, 150.000000)">
                        <rect id="bg" stroke="#9F495C" stroke-width="3" fill="#FFFFFF" sketch:type="MSShapeGroup" x="0" y="0" width="190" height="70" rx="2"></rect>
                        <text id="UNIT" sketch:type="MSTextLayer" font-family="Roboto" font-size="12" font-weight="420" fill="#212121">
                            <tspan x="68" y="32">UNIT</tspan>
                            <tspan x="68" y="46">TESTS</tspan>
                        </text>
                        <path d="M24,25.0316938 C24,23.3573355 25.3419813,22 27.0005775,22 L51.9994225,22 C53.6565957,22 55,23.3574377 55,25.0316938 L55,45.9683062 C55,47.6426644 53.6580187,49 51.9994225,49 L27.0005775,49 C25.3434043,49 24,47.6425624 24,45.9683062 L24,25.0316938 L24,25.0316938 Z M25.7222222,27.2258065 L53.2777778,27.2258065 L53.2777778,46.2509333 C53.2777778,46.8071565 52.82249,47.2580645 52.2807818,47.2580645 L26.7192182,47.2580645 C26.1685925,47.2580645 25.7222222,46.8020246 25.7222222,46.2509333 L25.7222222,27.2258065 L25.7222222,27.2258065 Z M45.0976595,30.5908339 L47.3957928,32.5412695 L38.4986072,43.2658917 L36.2004738,41.3154561 L45.0976595,30.5908339 L45.0976595,30.5908339 Z M25.7222222,24.6129032 C25.7222222,24.131881 26.1044392,23.7419355 26.5833333,23.7419355 C27.0589119,23.7419355 27.4444444,24.1285274 27.4444444,24.6129032 C27.4444444,25.0939254 27.0622275,25.483871 26.5833333,25.483871 C26.1077548,25.483871 25.7222222,25.097279 25.7222222,24.6129032 L25.7222222,24.6129032 Z M29.1666667,24.6129032 C29.1666667,24.131881 29.5488836,23.7419355 30.0277778,23.7419355 C30.5033563,23.7419355 30.8888889,24.1285274 30.8888889,24.6129032 C30.8888889,25.0939254 30.506672,25.483871 30.0277778,25.483871 C29.5521992,25.483871 29.1666667,25.097279 29.1666667,24.6129032 L29.1666667,24.6129032 Z M32.6111111,24.6129032 C32.6111111,24.131881 32.993328,23.7419355 33.4722222,23.7419355 C33.9478007,23.7419355 34.3333333,24.1285274 34.3333333,24.6129032 C34.3333333,25.0939254 33.9511164,25.483871 33.4722222,25.483871 C32.9966437,25.483871 32.6111111,25.097279 32.6111111,24.6129032 L32.6111111,24.6129032 Z M33.470738,35.1495607 L38.0670047,39.050432 L36.1604649,41.3485654 L31.5641983,37.447694 L33.470738,35.1495607 L33.470738,35.1495607 Z" id="path-1-copy-2" fill="#D0AC61" sketch:type="MSShapeGroup"></path>
                    </g>
                    <g id="deploy" transform="translate(0.000000, 225.000000)">
                        <rect id="bg" stroke="#9F495C" stroke-width="3" fill="#FFFFFF" sketch:type="MSShapeGroup" x="0" y="0" width="190" height="70" rx="2"></rect>
                        <text id="DEPLOY" sketch:type="MSTextLayer" font-family="Roboto" font-size="12" font-weight="420" fill="#212121">
                            <tspan x="68" y="39">DEPLOY</tspan>
                        </text>
                        <path d="M24,25.0316938 C24,23.3573355 25.3419813,22 27.0005775,22 L51.9994225,22 C53.6565957,22 55,23.3574377 55,25.0316938 L55,45.9683062 C55,47.6426644 53.6580187,49 51.9994225,49 L27.0005775,49 C25.3434043,49 24,47.6425624 24,45.9683062 L24,25.0316938 L24,25.0316938 Z M25.7222222,27.2258065 L53.2777778,27.2258065 L53.2777778,46.2509333 C53.2777778,46.8071565 52.82249,47.2580645 52.2807818,47.2580645 L26.7192182,47.2580645 C26.1685925,47.2580645 25.7222222,46.8020246 25.7222222,46.2509333 L25.7222222,27.2258065 L25.7222222,27.2258065 Z M45.0976595,30.5908339 L47.3957928,32.5412695 L38.4986072,43.2658917 L36.2004738,41.3154561 L45.0976595,30.5908339 L45.0976595,30.5908339 Z M25.7222222,24.6129032 C25.7222222,24.131881 26.1044392,23.7419355 26.5833333,23.7419355 C27.0589119,23.7419355 27.4444444,24.1285274 27.4444444,24.6129032 C27.4444444,25.0939254 27.0622275,25.483871 26.5833333,25.483871 C26.1077548,25.483871 25.7222222,25.097279 25.7222222,24.6129032 L25.7222222,24.6129032 Z M29.1666667,24.6129032 C29.1666667,24.131881 29.5488836,23.7419355 30.0277778,23.7419355 C30.5033563,23.7419355 30.8888889,24.1285274 30.8888889,24.6129032 C30.8888889,25.0939254 30.506672,25.483871 30.0277778,25.483871 C29.5521992,25.483871 29.1666667,25.097279 29.1666667,24.6129032 L29.1666667,24.6129032 Z M32.6111111,24.6129032 C32.6111111,24.131881 32.993328,23.7419355 33.4722222,23.7419355 C33.9478007,23.7419355 34.3333333,24.1285274 34.3333333,24.6129032 C34.3333333,25.0939254 33.9511164,25.483871 33.4722222,25.483871 C32.9966437,25.483871 32.6111111,25.097279 32.6111111,24.6129032 L32.6111111,24.6129032 Z M33.470738,35.1495607 L38.0670047,39.050432 L36.1604649,41.3485654 L31.5641983,37.447694 L33.470738,35.1495607 L33.470738,35.1495607 Z" id="path-1-copy-3" fill="#D0AC61" sketch:type="MSShapeGroup"></path>
                    </g>
                </g>
                <g id="Environments" transform="translate(0.000000, 271.000000)">
                    <g id="production">
                        <rect id="bg-copy" stroke="#9F495C" stroke-width="3" fill="#FFFFFF" sketch:type="MSShapeGroup" x="0" y="0" width="110" height="110" rx="2"></rect>
                        <text id="PRODUCTION" sketch:type="MSTextLayer" font-family="Roboto" font-size="12" font-weight="420" sketch:alignment="middle" fill="#212121">
                            <tspan x="18.6279297" y="80">PRODUCTION</tspan>
                        </text>
                        <path d="M40,31.9981014 C40,30.8945804 40.8943377,30 41.9982138,30 L69.0017862,30 C70.1053692,30 71,30.8867064 71,31.9981014 L71,36.0018986 C71,37.1054196 70.1056623,38 69.0017862,38 L41.9982138,38 C40.8946308,38 40,37.1132936 40,36.0018986 L40,31.9981014 Z M43,34 C43,33.4477153 43.4438648,33 44,33 C44.5522847,33 45,33.4438648 45,34 C45,34.5522847 44.5561352,35 44,35 C43.4477153,35 43,34.5561352 43,34 Z M46,34 C46,33.4477153 46.4438648,33 47,33 C47.5522847,33 48,33.4438648 48,34 C48,34.5522847 47.5561352,35 47,35 C46.4477153,35 46,34.5561352 46,34 Z M49,34 C49,33.4477153 49.4438648,33 50,33 C50.5522847,33 51,33.4438648 51,34 C51,34.5522847 50.5561352,35 50,35 C49.4477153,35 49,34.5561352 49,34 Z M57,33.5 L67,33.5 L67,34.5 L57,34.5 L57,33.5 Z M40,40.9981014 C40,39.8945804 40.8943377,39 41.9982138,39 L69.0017862,39 C70.1053692,39 71,39.8867064 71,40.9981014 L71,45.0018986 C71,46.1054196 70.1056623,47 69.0017862,47 L41.9982138,47 C40.8946308,47 40,46.1132936 40,45.0018986 L40,40.9981014 Z M43,43 C43,42.4477153 43.4438648,42 44,42 C44.5522847,42 45,42.4438648 45,43 C45,43.5522847 44.5561352,44 44,44 C43.4477153,44 43,43.5561352 43,43 Z M46,43 C46,42.4477153 46.4438648,42 47,42 C47.5522847,42 48,42.4438648 48,43 C48,43.5522847 47.5561352,44 47,44 C46.4477153,44 46,43.5561352 46,43 Z M49,43 C49,42.4477153 49.4438648,42 50,42 C50.5522847,42 51,42.4438648 51,43 C51,43.5522847 50.5561352,44 50,44 C49.4477153,44 49,43.5561352 49,43 Z M57,42.5 L67,42.5 L67,43.5 L57,43.5 L57,42.5 Z M40,49.9981014 C40,48.8945804 40.8943377,48 41.9982138,48 L69.0017862,48 C70.1053692,48 71,48.8867064 71,49.9981014 L71,54.0018986 C71,55.1054196 70.1056623,56 69.0017862,56 L41.9982138,56 C40.8946308,56 40,55.1132936 40,54.0018986 L40,49.9981014 Z M43,52 C43,51.4477153 43.4438648,51 44,51 C44.5522847,51 45,51.4438648 45,52 C45,52.5522847 44.5561352,53 44,53 C43.4477153,53 43,52.5561352 43,52 Z M46,52 C46,51.4477153 46.4438648,51 47,51 C47.5522847,51 48,51.4438648 48,52 C48,52.5522847 47.5561352,53 47,53 C46.4477153,53 46,52.5561352 46,52 Z M49,52 C49,51.4477153 49.4438648,51 50,51 C50.5522847,51 51,51.4438648 51,52 C51,52.5522847 50.5561352,53 50,53 C49.4477153,53 49,52.5561352 49,52 Z M57,51.5 L67,51.5 L67,52.5 L57,52.5 L57,51.5 Z" id="icon_environments" fill="#7B99DA" sketch:type="MSShapeGroup"></path>
                    </g>
                    <g id="staging" transform="translate(115.000000, 0.000000)">
                        <rect id="bg-copy" stroke="#9F495C" stroke-width="3" fill="#FFFFFF" sketch:type="MSShapeGroup" x="0" y="0" width="110" height="110" rx="2"></rect>
                        <text id="STAGING" sketch:type="MSTextLayer" font-family="Roboto" font-size="12" font-weight="420" sketch:alignment="middle" fill="#212121">
                            <tspan x="30.7861328" y="80">STAGING</tspan>
                        </text>
                        <path d="M40,31.9981014 C40,30.8945804 40.8943377,30 41.9982138,30 L69.0017862,30 C70.1053692,30 71,30.8867064 71,31.9981014 L71,36.0018986 C71,37.1054196 70.1056623,38 69.0017862,38 L41.9982138,38 C40.8946308,38 40,37.1132936 40,36.0018986 L40,31.9981014 Z M43,34 C43,33.4477153 43.4438648,33 44,33 C44.5522847,33 45,33.4438648 45,34 C45,34.5522847 44.5561352,35 44,35 C43.4477153,35 43,34.5561352 43,34 Z M46,34 C46,33.4477153 46.4438648,33 47,33 C47.5522847,33 48,33.4438648 48,34 C48,34.5522847 47.5561352,35 47,35 C46.4477153,35 46,34.5561352 46,34 Z M49,34 C49,33.4477153 49.4438648,33 50,33 C50.5522847,33 51,33.4438648 51,34 C51,34.5522847 50.5561352,35 50,35 C49.4477153,35 49,34.5561352 49,34 Z M57,33.5 L67,33.5 L67,34.5 L57,34.5 L57,33.5 Z M40,40.9981014 C40,39.8945804 40.8943377,39 41.9982138,39 L69.0017862,39 C70.1053692,39 71,39.8867064 71,40.9981014 L71,45.0018986 C71,46.1054196 70.1056623,47 69.0017862,47 L41.9982138,47 C40.8946308,47 40,46.1132936 40,45.0018986 L40,40.9981014 Z M43,43 C43,42.4477153 43.4438648,42 44,42 C44.5522847,42 45,42.4438648 45,43 C45,43.5522847 44.5561352,44 44,44 C43.4477153,44 43,43.5561352 43,43 Z M46,43 C46,42.4477153 46.4438648,42 47,42 C47.5522847,42 48,42.4438648 48,43 C48,43.5522847 47.5561352,44 47,44 C46.4477153,44 46,43.5561352 46,43 Z M49,43 C49,42.4477153 49.4438648,42 50,42 C50.5522847,42 51,42.4438648 51,43 C51,43.5522847 50.5561352,44 50,44 C49.4477153,44 49,43.5561352 49,43 Z M57,42.5 L67,42.5 L67,43.5 L57,43.5 L57,42.5 Z M40,49.9981014 C40,48.8945804 40.8943377,48 41.9982138,48 L69.0017862,48 C70.1053692,48 71,48.8867064 71,49.9981014 L71,54.0018986 C71,55.1054196 70.1056623,56 69.0017862,56 L41.9982138,56 C40.8946308,56 40,55.1132936 40,54.0018986 L40,49.9981014 Z M43,52 C43,51.4477153 43.4438648,51 44,51 C44.5522847,51 45,51.4438648 45,52 C45,52.5522847 44.5561352,53 44,53 C43.4477153,53 43,52.5561352 43,52 Z M46,52 C46,51.4477153 46.4438648,51 47,51 C47.5522847,51 48,51.4438648 48,52 C48,52.5522847 47.5561352,53 47,53 C46.4477153,53 46,52.5561352 46,52 Z M49,52 C49,51.4477153 49.4438648,51 50,51 C50.5522847,51 51,51.4438648 51,52 C51,52.5522847 50.5561352,53 50,53 C49.4477153,53 49,52.5561352 49,52 Z M57,51.5 L67,51.5 L67,52.5 L57,52.5 L57,51.5 Z" id="icon_environments" fill="#7B99DA" sketch:type="MSShapeGroup"></path>
                    </g>
                </g>
            </g>
        </g>
    </g>
</svg>