<?xml version="1.0" encoding="UTF-8" standalone="no"?>
<svg width="574px" height="170px" viewBox="0 0 574 170" version="1.1" xmlns="http://www.w3.org/2000/svg" xmlns:xlink="http://www.w3.org/1999/xlink" xmlns:sketch="http://www.bohemiancoding.com/sketch/ns">
    <!-- Generator: Sketch 3.5.1 (25234) - http://www.bohemiancoding.com/sketch -->
    <title>wizard-icon-wall</title>
    <desc>Created with Sketch.</desc>
    <defs></defs>
    <g id="Page-1" stroke="none" stroke-width="1" fill="none" fill-rule="evenodd" sketch:type="MSPage">
        <g id="wizard-icon-wall" sketch:type="MSArtboardGroup">
            <g id="Icon-Wall" sketch:type="MSLayerGroup">
                <path d="M7,18.9912443 C7,17.8915104 7.89702623,17 9.00494659,17 L28.9950534,17 C30.1023548,17 31,17.8998975 31,18.9912443 L31,43.0087557 C31,44.1084896 30.1029738,45 28.9950534,45 L9.00494659,45 C7.89764516,45 7,44.1001025 7,43.0087557 L7,18.9912443 Z M13,19 L29,19 L29,43 L13,43 L13,19 Z M16,23 L18,23 L18,25 L16,25 L16,23 Z M20,23 L22,23 L22,25 L20,25 L20,23 Z M24,23 L26,23 L26,25 L24,25 L24,23 Z M16,27 L18,27 L18,29 L16,29 L16,27 Z M20,27 L22,27 L22,29 L20,29 L20,27 Z M24,27 L26,27 L26,29 L24,29 L24,27 Z M16,31 L18,31 L18,33 L16,33 L16,31 Z M20,31 L22,31 L22,33 L20,33 L20,31 Z M24,31 L26,31 L26,33 L24,33 L24,31 Z M13,45 L19,45 L19,49 L15.9979594,47 L13,49 L13,45 Z" id="icon_repos" fill="#000000" sketch:type="MSShapeGroup" transform="translate(19.000000, 33.000000) rotate(-330.000000) translate(-19.000000, -33.000000) "></path>
                <path d="M226.065699,118.847651 C226.065699,117.747917 226.962725,116.856406 228.070645,116.856406 L248.060752,116.856406 C249.168053,116.856406 250.065699,117.756304 250.065699,118.847651 L250.065699,142.865162 C250.065699,143.964896 249.168672,144.856406 248.060752,144.856406 L228.070645,144.856406 C226.963344,144.856406 226.065699,143.956509 226.065699,142.865162 L226.065699,118.847651 Z M232.065699,118.856406 L248.065699,118.856406 L248.065699,142.856406 L232.065699,142.856406 L232.065699,118.856406 Z M235.065699,122.856406 L237.065699,122.856406 L237.065699,124.856406 L235.065699,124.856406 L235.065699,122.856406 Z M239.065699,122.856406 L241.065699,122.856406 L241.065699,124.856406 L239.065699,124.856406 L239.065699,122.856406 Z M243.065699,122.856406 L245.065699,122.856406 L245.065699,124.856406 L243.065699,124.856406 L243.065699,122.856406 Z M235.065699,126.856406 L237.065699,126.856406 L237.065699,128.856406 L235.065699,128.856406 L235.065699,126.856406 Z M239.065699,126.856406 L241.065699,126.856406 L241.065699,128.856406 L239.065699,128.856406 L239.065699,126.856406 Z M243.065699,126.856406 L245.065699,126.856406 L245.065699,128.856406 L243.065699,128.856406 L243.065699,126.856406 Z M235.065699,130.856406 L237.065699,130.856406 L237.065699,132.856406 L235.065699,132.856406 L235.065699,130.856406 Z M239.065699,130.856406 L241.065699,130.856406 L241.065699,132.856406 L239.065699,132.856406 L239.065699,130.856406 Z M243.065699,130.856406 L245.065699,130.856406 L245.065699,132.856406 L243.065699,132.856406 L243.065699,130.856406 Z M232.065699,144.856406 L238.065699,144.856406 L238.065699,148.856406 L235.063658,146.856406 L232.065699,148.856406 L232.065699,144.856406 Z" id="icon_repos-copy" fill="#000000" sketch:type="MSShapeGroup" transform="translate(238.065699, 132.856406) rotate(-330.000000) translate(-238.065699, -132.856406) "></path>
                <path d="M398.065699,122.847651 C398.065699,121.747917 398.962725,120.856406 400.070645,120.856406 L420.060752,120.856406 C421.168053,120.856406 422.065699,121.756304 422.065699,122.847651 L422.065699,146.865162 C422.065699,147.964896 421.168672,148.856406 420.060752,148.856406 L400.070645,148.856406 C398.963344,148.856406 398.065699,147.956509 398.065699,146.865162 L398.065699,122.847651 Z M404.065699,122.856406 L420.065699,122.856406 L420.065699,146.856406 L404.065699,146.856406 L404.065699,122.856406 Z M407.065699,126.856406 L409.065699,126.856406 L409.065699,128.856406 L407.065699,128.856406 L407.065699,126.856406 Z M411.065699,126.856406 L413.065699,126.856406 L413.065699,128.856406 L411.065699,128.856406 L411.065699,126.856406 Z M415.065699,126.856406 L417.065699,126.856406 L417.065699,128.856406 L415.065699,128.856406 L415.065699,126.856406 Z M407.065699,130.856406 L409.065699,130.856406 L409.065699,132.856406 L407.065699,132.856406 L407.065699,130.856406 Z M411.065699,130.856406 L413.065699,130.856406 L413.065699,132.856406 L411.065699,132.856406 L411.065699,130.856406 Z M415.065699,130.856406 L417.065699,130.856406 L417.065699,132.856406 L415.065699,132.856406 L415.065699,130.856406 Z M407.065699,134.856406 L409.065699,134.856406 L409.065699,136.856406 L407.065699,136.856406 L407.065699,134.856406 Z M411.065699,134.856406 L413.065699,134.856406 L413.065699,136.856406 L411.065699,136.856406 L411.065699,134.856406 Z M415.065699,134.856406 L417.065699,134.856406 L417.065699,136.856406 L415.065699,136.856406 L415.065699,134.856406 Z M404.065699,148.856406 L410.065699,148.856406 L410.065699,152.856406 L407.063658,150.856406 L404.065699,152.856406 L404.065699,148.856406 Z" id="icon_repos-copy-2" fill="#000000" sketch:type="MSShapeGroup" transform="translate(410.065699, 136.856406) rotate(-330.000000) translate(-410.065699, -136.856406) "></path>
                <path d="M44,49.9926339 C44,48.3398479 45.3519647,47 47.0005775,47 L71.9994225,47 C73.6565957,47 75,48.3389342 75,49.9926339 L75,71.0073661 C75,72.6601521 73.6480353,74 71.9994225,74 L47.0005775,74 C45.3434043,74 44,72.6610658 44,71.0073661 L44,49.9926339 Z M46,53 L73,53 L73,71.0052288 C73,71.5546258 72.5538914,72 72.0070346,72 L46.9929654,72 C46.4445658,72 46,71.5490746 46,71.0052288 L46,53 Z M65.1485799,55.6018703 L67.4467133,57.5302331 L58.4476867,68.2548553 L56.1495534,66.3264925 L65.1485799,55.6018703 Z M46,50 C46,49.4477153 46.4438648,49 47,49 C47.5522847,49 48,49.4438648 48,50 C48,50.5522847 47.5561352,51 47,51 C46.4477153,51 46,50.5561352 46,50 Z M49,50 C49,49.4477153 49.4438648,49 50,49 C50.5522847,49 51,49.4438648 51,50 C51,50.5522847 50.5561352,51 50,51 C49.4477153,51 49,50.5561352 49,50 Z M52,50 C52,49.4477153 52.4438648,49 53,49 C53.5522847,49 54,49.4438648 54,50 C54,50.5522847 53.5561352,51 53,51 C52.4477153,51 52,50.5561352 52,50 Z M53.4816496,60.1716335 L58.0779162,64.0283592 L56.1495534,66.3264925 L51.5532867,62.4697669 L53.4816496,60.1716335 Z" id="icon_tasks" fill="#000000" sketch:type="MSShapeGroup" transform="translate(59.500000, 60.500000) rotate(-340.000000) translate(-59.500000, -60.500000) "></path>
                <path d="M182,82.9926339 C182,81.3398479 183.351965,80 185.000578,80 L209.999422,80 C211.656596,80 213,81.3389342 213,82.9926339 L213,104.007366 C213,105.660152 211.648035,107 209.999422,107 L185.000578,107 C183.343404,107 182,105.661066 182,104.007366 L182,82.9926339 Z M184,86 L211,86 L211,104.005229 C211,104.554626 210.553891,105 210.007035,105 L184.992965,105 C184.444566,105 184,104.549075 184,104.005229 L184,86 Z M203.14858,88.6018703 L205.446713,90.5302331 L196.447687,101.254855 L194.149553,99.3264925 L203.14858,88.6018703 Z M184,83 C184,82.4477153 184.443865,82 185,82 C185.552285,82 186,82.4438648 186,83 C186,83.5522847 185.556135,84 185,84 C184.447715,84 184,83.5561352 184,83 Z M187,83 C187,82.4477153 187.443865,82 188,82 C188.552285,82 189,82.4438648 189,83 C189,83.5522847 188.556135,84 188,84 C187.447715,84 187,83.5561352 187,83 Z M190,83 C190,82.4477153 190.443865,82 191,82 C191.552285,82 192,82.4438648 192,83 C192,83.5522847 191.556135,84 191,84 C190.447715,84 190,83.5561352 190,83 Z M191.48165,93.1716335 L196.077916,97.0283592 L194.149553,99.3264925 L189.553287,95.4697669 L191.48165,93.1716335 Z" id="icon_tasks-copy" fill="#000000" sketch:type="MSShapeGroup" transform="translate(197.500000, 93.500000) rotate(-30.000000) translate(-197.500000, -93.500000) "></path>
                <path d="M365,75.9926339 C365,74.3398479 366.351965,73 368.000578,73 L392.999422,73 C394.656596,73 396,74.3389342 396,75.9926339 L396,97.0073661 C396,98.6601521 394.648035,100 392.999422,100 L368.000578,100 C366.343404,100 365,98.6610658 365,97.0073661 L365,75.9926339 Z M367,79 L394,79 L394,97.0052288 C394,97.5546258 393.553891,98 393.007035,98 L367.992965,98 C367.444566,98 367,97.5490746 367,97.0052288 L367,79 Z M386.14858,81.6018703 L388.446713,83.5302331 L379.447687,94.2548553 L377.149553,92.3264925 L386.14858,81.6018703 Z M367,76 C367,75.4477153 367.443865,75 368,75 C368.552285,75 369,75.4438648 369,76 C369,76.5522847 368.556135,77 368,77 C367.447715,77 367,76.5561352 367,76 Z M370,76 C370,75.4477153 370.443865,75 371,75 C371.552285,75 372,75.4438648 372,76 C372,76.5522847 371.556135,77 371,77 C370.447715,77 370,76.5561352 370,76 Z M373,76 C373,75.4477153 373.443865,75 374,75 C374.552285,75 375,75.4438648 375,76 C375,76.5522847 374.556135,77 374,77 C373.447715,77 373,76.5561352 373,76 Z M374.48165,86.1716335 L379.077916,90.0283592 L377.149553,92.3264925 L372.553287,88.4697669 L374.48165,86.1716335 Z" id="icon_tasks-copy-2" fill="#000000" sketch:type="MSShapeGroup" transform="translate(380.500000, 86.500000) rotate(-30.000000) translate(-380.500000, -86.500000) "></path>
                <path d="M525,8.99263394 C525,7.33984785 526.351965,6 528.000578,6 L552.999422,6 C554.656596,6 556,7.3389342 556,8.99263394 L556,30.0073661 C556,31.6601521 554.648035,33 552.999422,33 L528.000578,33 C526.343404,33 525,31.6610658 525,30.0073661 L525,8.99263394 Z M527,12 L554,12 L554,30.0052288 C554,30.5546258 553.553891,31 553.007035,31 L527.992965,31 C527.444566,31 527,30.5490746 527,30.0052288 L527,12 Z M546.14858,14.6018703 L548.446713,16.5302331 L539.447687,27.2548553 L537.149553,25.3264925 L546.14858,14.6018703 Z M527,9 C527,8.44771525 527.443865,8 528,8 C528.552285,8 529,8.44386482 529,9 C529,9.55228475 528.556135,10 528,10 C527.447715,10 527,9.55613518 527,9 Z M530,9 C530,8.44771525 530.443865,8 531,8 C531.552285,8 532,8.44386482 532,9 C532,9.55228475 531.556135,10 531,10 C530.447715,10 530,9.55613518 530,9 Z M533,9 C533,8.44771525 533.443865,8 534,8 C534.552285,8 535,8.44386482 535,9 C535,9.55228475 534.556135,10 534,10 C533.447715,10 533,9.55613518 533,9 Z M534.48165,19.1716335 L539.077916,23.0283592 L537.149553,25.3264925 L532.553287,21.4697669 L534.48165,19.1716335 Z" id="icon_tasks-copy-3" fill="#000000" sketch:type="MSShapeGroup" transform="translate(540.500000, 19.500000) rotate(-30.000000) translate(-540.500000, -19.500000) "></path>
                <path d="M4,77.9981014 C4,76.8945804 4.89433765,76 5.99821383,76 L33.0017862,76 C34.1053692,76 35,76.8867064 35,77.9981014 L35,82.0018986 C35,83.1054196 34.1056623,84 33.0017862,84 L5.99821383,84 C4.8946308,84 4,83.1132936 4,82.0018986 L4,77.9981014 Z M7,80 C7,79.4477153 7.44386482,79 8,79 C8.55228475,79 9,79.4438648 9,80 C9,80.5522847 8.55613518,81 8,81 C7.44771525,81 7,80.5561352 7,80 Z M10,80 C10,79.4477153 10.4438648,79 11,79 C11.5522847,79 12,79.4438648 12,80 C12,80.5522847 11.5561352,81 11,81 C10.4477153,81 10,80.5561352 10,80 Z M13,80 C13,79.4477153 13.4438648,79 14,79 C14.5522847,79 15,79.4438648 15,80 C15,80.5522847 14.5561352,81 14,81 C13.4477153,81 13,80.5561352 13,80 Z M21,79.5 L31,79.5 L31,80.5 L21,80.5 L21,79.5 Z M4,86.9981014 C4,85.8945804 4.89433765,85 5.99821383,85 L33.0017862,85 C34.1053692,85 35,85.8867064 35,86.9981014 L35,91.0018986 C35,92.1054196 34.1056623,93 33.0017862,93 L5.99821383,93 C4.8946308,93 4,92.1132936 4,91.0018986 L4,86.9981014 Z M7,89 C7,88.4477153 7.44386482,88 8,88 C8.55228475,88 9,88.4438648 9,89 C9,89.5522847 8.55613518,90 8,90 C7.44771525,90 7,89.5561352 7,89 Z M10,89 C10,88.4477153 10.4438648,88 11,88 C11.5522847,88 12,88.4438648 12,89 C12,89.5522847 11.5561352,90 11,90 C10.4477153,90 10,89.5561352 10,89 Z M13,89 C13,88.4477153 13.4438648,88 14,88 C14.5522847,88 15,88.4438648 15,89 C15,89.5522847 14.5561352,90 14,90 C13.4477153,90 13,89.5561352 13,89 Z M21,88.5 L31,88.5 L31,89.5 L21,89.5 L21,88.5 Z M4,95.9981014 C4,94.8945804 4.89433765,94 5.99821383,94 L33.0017862,94 C34.1053692,94 35,94.8867064 35,95.9981014 L35,100.001899 C35,101.10542 34.1056623,102 33.0017862,102 L5.99821383,102 C4.8946308,102 4,101.113294 4,100.001899 L4,95.9981014 Z M7,98 C7,97.4477153 7.44386482,97 8,97 C8.55228475,97 9,97.4438648 9,98 C9,98.5522847 8.55613518,99 8,99 C7.44771525,99 7,98.5561352 7,98 Z M10,98 C10,97.4477153 10.4438648,97 11,97 C11.5522847,97 12,97.4438648 12,98 C12,98.5522847 11.5561352,99 11,99 C10.4477153,99 10,98.5561352 10,98 Z M13,98 C13,97.4477153 13.4438648,97 14,97 C14.5522847,97 15,97.4438648 15,98 C15,98.5522847 14.5561352,99 14,99 C13.4477153,99 13,98.5561352 13,98 Z M21,97.5 L31,97.5 L31,98.5 L21,98.5 L21,97.5 Z" id="icon_environments" fill="#000000" sketch:type="MSShapeGroup" transform="translate(19.500000, 89.000000) rotate(-20.000000) translate(-19.500000, -89.000000) "></path>
                <path d="M209.511497,32.5154176 C209.511497,31.4118967 210.405835,30.5173163 211.509711,30.5173163 L238.513284,30.5173163 C239.616867,30.5173163 240.511497,31.4040226 240.511497,32.5154176 L240.511497,36.5192149 C240.511497,37.6227358 239.61716,38.5173163 238.513284,38.5173163 L211.509711,38.5173163 C210.406128,38.5173163 209.511497,37.6306099 209.511497,36.5192149 L209.511497,32.5154176 Z M212.511497,34.5173163 C212.511497,33.9650315 212.955362,33.5173163 213.511497,33.5173163 C214.063782,33.5173163 214.511497,33.9611811 214.511497,34.5173163 C214.511497,35.069601 214.067633,35.5173163 213.511497,35.5173163 C212.959213,35.5173163 212.511497,35.0734515 212.511497,34.5173163 Z M215.511497,34.5173163 C215.511497,33.9650315 215.955362,33.5173163 216.511497,33.5173163 C217.063782,33.5173163 217.511497,33.9611811 217.511497,34.5173163 C217.511497,35.069601 217.067633,35.5173163 216.511497,35.5173163 C215.959213,35.5173163 215.511497,35.0734515 215.511497,34.5173163 Z M218.511497,34.5173163 C218.511497,33.9650315 218.955362,33.5173163 219.511497,33.5173163 C220.063782,33.5173163 220.511497,33.9611811 220.511497,34.5173163 C220.511497,35.069601 220.067633,35.5173163 219.511497,35.5173163 C218.959213,35.5173163 218.511497,35.0734515 218.511497,34.5173163 Z M226.511497,34.0173163 L236.511497,34.0173163 L236.511497,35.0173163 L226.511497,35.0173163 L226.511497,34.0173163 Z M209.511497,41.5154176 C209.511497,40.4118967 210.405835,39.5173163 211.509711,39.5173163 L238.513284,39.5173163 C239.616867,39.5173163 240.511497,40.4040226 240.511497,41.5154176 L240.511497,45.5192149 C240.511497,46.6227358 239.61716,47.5173163 238.513284,47.5173163 L211.509711,47.5173163 C210.406128,47.5173163 209.511497,46.6306099 209.511497,45.5192149 L209.511497,41.5154176 Z M212.511497,43.5173163 C212.511497,42.9650315 212.955362,42.5173163 213.511497,42.5173163 C214.063782,42.5173163 214.511497,42.9611811 214.511497,43.5173163 C214.511497,44.069601 214.067633,44.5173163 213.511497,44.5173163 C212.959213,44.5173163 212.511497,44.0734515 212.511497,43.5173163 Z M215.511497,43.5173163 C215.511497,42.9650315 215.955362,42.5173163 216.511497,42.5173163 C217.063782,42.5173163 217.511497,42.9611811 217.511497,43.5173163 C217.511497,44.069601 217.067633,44.5173163 216.511497,44.5173163 C215.959213,44.5173163 215.511497,44.0734515 215.511497,43.5173163 Z M218.511497,43.5173163 C218.511497,42.9650315 218.955362,42.5173163 219.511497,42.5173163 C220.063782,42.5173163 220.511497,42.9611811 220.511497,43.5173163 C220.511497,44.069601 220.067633,44.5173163 219.511497,44.5173163 C218.959213,44.5173163 218.511497,44.0734515 218.511497,43.5173163 Z M226.511497,43.0173163 L236.511497,43.0173163 L236.511497,44.0173163 L226.511497,44.0173163 L226.511497,43.0173163 Z M209.511497,50.5154176 C209.511497,49.4118967 210.405835,48.5173163 211.509711,48.5173163 L238.513284,48.5173163 C239.616867,48.5173163 240.511497,49.4040226 240.511497,50.5154176 L240.511497,54.5192149 C240.511497,55.6227358 239.61716,56.5173163 238.513284,56.5173163 L211.509711,56.5173163 C210.406128,56.5173163 209.511497,55.6306099 209.511497,54.5192149 L209.511497,50.5154176 Z M212.511497,52.5173163 C212.511497,51.9650315 212.955362,51.5173163 213.511497,51.5173163 C214.063782,51.5173163 214.511497,51.9611811 214.511497,52.5173163 C214.511497,53.069601 214.067633,53.5173163 213.511497,53.5173163 C212.959213,53.5173163 212.511497,53.0734515 212.511497,52.5173163 Z M215.511497,52.5173163 C215.511497,51.9650315 215.955362,51.5173163 216.511497,51.5173163 C217.063782,51.5173163 217.511497,51.9611811 217.511497,52.5173163 C217.511497,53.069601 217.067633,53.5173163 216.511497,53.5173163 C215.959213,53.5173163 215.511497,53.0734515 215.511497,52.5173163 Z M218.511497,52.5173163 C218.511497,51.9650315 218.955362,51.5173163 219.511497,51.5173163 C220.063782,51.5173163 220.511497,51.9611811 220.511497,52.5173163 C220.511497,53.069601 220.067633,53.5173163 219.511497,53.5173163 C218.959213,53.5173163 218.511497,53.0734515 218.511497,52.5173163 Z M226.511497,52.0173163 L236.511497,52.0173163 L236.511497,53.0173163 L226.511497,53.0173163 L226.511497,52.0173163 Z" id="icon_environments-copy-2" fill="#000000" sketch:type="MSShapeGroup" transform="translate(225.011497, 43.517316) rotate(-20.000000) translate(-225.011497, -43.517316) "></path>
                <path d="M409.511497,42.5154176 C409.511497,41.4118967 410.405835,40.5173163 411.509711,40.5173163 L438.513284,40.5173163 C439.616867,40.5173163 440.511497,41.4040226 440.511497,42.5154176 L440.511497,46.5192149 C440.511497,47.6227358 439.61716,48.5173163 438.513284,48.5173163 L411.509711,48.5173163 C410.406128,48.5173163 409.511497,47.6306099 409.511497,46.5192149 L409.511497,42.5154176 Z M412.511497,44.5173163 C412.511497,43.9650315 412.955362,43.5173163 413.511497,43.5173163 C414.063782,43.5173163 414.511497,43.9611811 414.511497,44.5173163 C414.511497,45.069601 414.067633,45.5173163 413.511497,45.5173163 C412.959213,45.5173163 412.511497,45.0734515 412.511497,44.5173163 Z M415.511497,44.5173163 C415.511497,43.9650315 415.955362,43.5173163 416.511497,43.5173163 C417.063782,43.5173163 417.511497,43.9611811 417.511497,44.5173163 C417.511497,45.069601 417.067633,45.5173163 416.511497,45.5173163 C415.959213,45.5173163 415.511497,45.0734515 415.511497,44.5173163 Z M418.511497,44.5173163 C418.511497,43.9650315 418.955362,43.5173163 419.511497,43.5173163 C420.063782,43.5173163 420.511497,43.9611811 420.511497,44.5173163 C420.511497,45.069601 420.067633,45.5173163 419.511497,45.5173163 C418.959213,45.5173163 418.511497,45.0734515 418.511497,44.5173163 Z M426.511497,44.0173163 L436.511497,44.0173163 L436.511497,45.0173163 L426.511497,45.0173163 L426.511497,44.0173163 Z M409.511497,51.5154176 C409.511497,50.4118967 410.405835,49.5173163 411.509711,49.5173163 L438.513284,49.5173163 C439.616867,49.5173163 440.511497,50.4040226 440.511497,51.5154176 L440.511497,55.5192149 C440.511497,56.6227358 439.61716,57.5173163 438.513284,57.5173163 L411.509711,57.5173163 C410.406128,57.5173163 409.511497,56.6306099 409.511497,55.5192149 L409.511497,51.5154176 Z M412.511497,53.5173163 C412.511497,52.9650315 412.955362,52.5173163 413.511497,52.5173163 C414.063782,52.5173163 414.511497,52.9611811 414.511497,53.5173163 C414.511497,54.069601 414.067633,54.5173163 413.511497,54.5173163 C412.959213,54.5173163 412.511497,54.0734515 412.511497,53.5173163 Z M415.511497,53.5173163 C415.511497,52.9650315 415.955362,52.5173163 416.511497,52.5173163 C417.063782,52.5173163 417.511497,52.9611811 417.511497,53.5173163 C417.511497,54.069601 417.067633,54.5173163 416.511497,54.5173163 C415.959213,54.5173163 415.511497,54.0734515 415.511497,53.5173163 Z M418.511497,53.5173163 C418.511497,52.9650315 418.955362,52.5173163 419.511497,52.5173163 C420.063782,52.5173163 420.511497,52.9611811 420.511497,53.5173163 C420.511497,54.069601 420.067633,54.5173163 419.511497,54.5173163 C418.959213,54.5173163 418.511497,54.0734515 418.511497,53.5173163 Z M426.511497,53.0173163 L436.511497,53.0173163 L436.511497,54.0173163 L426.511497,54.0173163 L426.511497,53.0173163 Z M409.511497,60.5154176 C409.511497,59.4118967 410.405835,58.5173163 411.509711,58.5173163 L438.513284,58.5173163 C439.616867,58.5173163 440.511497,59.4040226 440.511497,60.5154176 L440.511497,64.5192149 C440.511497,65.6227358 439.61716,66.5173163 438.513284,66.5173163 L411.509711,66.5173163 C410.406128,66.5173163 409.511497,65.6306099 409.511497,64.5192149 L409.511497,60.5154176 Z M412.511497,62.5173163 C412.511497,61.9650315 412.955362,61.5173163 413.511497,61.5173163 C414.063782,61.5173163 414.511497,61.9611811 414.511497,62.5173163 C414.511497,63.069601 414.067633,63.5173163 413.511497,63.5173163 C412.959213,63.5173163 412.511497,63.0734515 412.511497,62.5173163 Z M415.511497,62.5173163 C415.511497,61.9650315 415.955362,61.5173163 416.511497,61.5173163 C417.063782,61.5173163 417.511497,61.9611811 417.511497,62.5173163 C417.511497,63.069601 417.067633,63.5173163 416.511497,63.5173163 C415.959213,63.5173163 415.511497,63.0734515 415.511497,62.5173163 Z M418.511497,62.5173163 C418.511497,61.9650315 418.955362,61.5173163 419.511497,61.5173163 C420.063782,61.5173163 420.511497,61.9611811 420.511497,62.5173163 C420.511497,63.069601 420.067633,63.5173163 419.511497,63.5173163 C418.959213,63.5173163 418.511497,63.0734515 418.511497,62.5173163 Z M426.511497,62.0173163 L436.511497,62.0173163 L436.511497,63.0173163 L426.511497,63.0173163 L426.511497,62.0173163 Z" id="icon_environments-copy-3" fill="#000000" sketch:type="MSShapeGroup" transform="translate(425.011497, 53.517316) rotate(-20.000000) translate(-425.011497, -53.517316) "></path>
                <path d="M132.511497,112.515418 C132.511497,111.411897 133.405835,110.517316 134.509711,110.517316 L161.513284,110.517316 C162.616867,110.517316 163.511497,111.404023 163.511497,112.515418 L163.511497,116.519215 C163.511497,117.622736 162.61716,118.517316 161.513284,118.517316 L134.509711,118.517316 C133.406128,118.517316 132.511497,117.63061 132.511497,116.519215 L132.511497,112.515418 Z M135.511497,114.517316 C135.511497,113.965032 135.955362,113.517316 136.511497,113.517316 C137.063782,113.517316 137.511497,113.961181 137.511497,114.517316 C137.511497,115.069601 137.067633,115.517316 136.511497,115.517316 C135.959213,115.517316 135.511497,115.073451 135.511497,114.517316 Z M138.511497,114.517316 C138.511497,113.965032 138.955362,113.517316 139.511497,113.517316 C140.063782,113.517316 140.511497,113.961181 140.511497,114.517316 C140.511497,115.069601 140.067633,115.517316 139.511497,115.517316 C138.959213,115.517316 138.511497,115.073451 138.511497,114.517316 Z M141.511497,114.517316 C141.511497,113.965032 141.955362,113.517316 142.511497,113.517316 C143.063782,113.517316 143.511497,113.961181 143.511497,114.517316 C143.511497,115.069601 143.067633,115.517316 142.511497,115.517316 C141.959213,115.517316 141.511497,115.073451 141.511497,114.517316 Z M149.511497,114.017316 L159.511497,114.017316 L159.511497,115.017316 L149.511497,115.017316 L149.511497,114.017316 Z M132.511497,121.515418 C132.511497,120.411897 133.405835,119.517316 134.509711,119.517316 L161.513284,119.517316 C162.616867,119.517316 163.511497,120.404023 163.511497,121.515418 L163.511497,125.519215 C163.511497,126.622736 162.61716,127.517316 161.513284,127.517316 L134.509711,127.517316 C133.406128,127.517316 132.511497,126.63061 132.511497,125.519215 L132.511497,121.515418 Z M135.511497,123.517316 C135.511497,122.965032 135.955362,122.517316 136.511497,122.517316 C137.063782,122.517316 137.511497,122.961181 137.511497,123.517316 C137.511497,124.069601 137.067633,124.517316 136.511497,124.517316 C135.959213,124.517316 135.511497,124.073451 135.511497,123.517316 Z M138.511497,123.517316 C138.511497,122.965032 138.955362,122.517316 139.511497,122.517316 C140.063782,122.517316 140.511497,122.961181 140.511497,123.517316 C140.511497,124.069601 140.067633,124.517316 139.511497,124.517316 C138.959213,124.517316 138.511497,124.073451 138.511497,123.517316 Z M141.511497,123.517316 C141.511497,122.965032 141.955362,122.517316 142.511497,122.517316 C143.063782,122.517316 143.511497,122.961181 143.511497,123.517316 C143.511497,124.069601 143.067633,124.517316 142.511497,124.517316 C141.959213,124.517316 141.511497,124.073451 141.511497,123.517316 Z M149.511497,123.017316 L159.511497,123.017316 L159.511497,124.017316 L149.511497,124.017316 L149.511497,123.017316 Z M132.511497,130.515418 C132.511497,129.411897 133.405835,128.517316 134.509711,128.517316 L161.513284,128.517316 C162.616867,128.517316 163.511497,129.404023 163.511497,130.515418 L163.511497,134.519215 C163.511497,135.622736 162.61716,136.517316 161.513284,136.517316 L134.509711,136.517316 C133.406128,136.517316 132.511497,135.63061 132.511497,134.519215 L132.511497,130.515418 Z M135.511497,132.517316 C135.511497,131.965032 135.955362,131.517316 136.511497,131.517316 C137.063782,131.517316 137.511497,131.961181 137.511497,132.517316 C137.511497,133.069601 137.067633,133.517316 136.511497,133.517316 C135.959213,133.517316 135.511497,133.073451 135.511497,132.517316 Z M138.511497,132.517316 C138.511497,131.965032 138.955362,131.517316 139.511497,131.517316 C140.063782,131.517316 140.511497,131.961181 140.511497,132.517316 C140.511497,133.069601 140.067633,133.517316 139.511497,133.517316 C138.959213,133.517316 138.511497,133.073451 138.511497,132.517316 Z M141.511497,132.517316 C141.511497,131.965032 141.955362,131.517316 142.511497,131.517316 C143.063782,131.517316 143.511497,131.961181 143.511497,132.517316 C143.511497,133.069601 143.067633,133.517316 142.511497,133.517316 C141.959213,133.517316 141.511497,133.073451 141.511497,132.517316 Z M149.511497,132.017316 L159.511497,132.017316 L159.511497,133.017316 L149.511497,133.017316 L149.511497,132.017316 Z" id="icon_environments-copy" fill="#000000" sketch:type="MSShapeGroup" transform="translate(148.011497, 123.517316) rotate(-340.000000) translate(-148.011497, -123.517316) "></path>
                <path d="M63.5337778,105.039806 C63.6333333,106.251584 63.8791111,107.828918 63.8791111,107.828918 C63.8791111,107.828918 63.3922222,108.093362 63.3922222,109.157362 C63.5617778,111.828251 64.4546667,110.675584 64.6382222,111.846918 C65.08,114.668695 66.0895556,114.166251 66.0895556,115.706251 C66.0895556,118.271362 65.0317778,119.470695 61.7293333,120.892473 C58.416,122.320473 55,124.11714 55,127.228251 L55,128.783806 L83,128.783806 L83,127.228251 C83,124.11714 79.5824444,122.320473 76.2675556,120.894029 C72.9651111,119.472251 71.9104444,118.274473 71.9104444,115.707806 C71.9104444,114.167806 72.9168889,114.670251 73.3602222,111.848473 C73.5453333,110.67714 74.4366667,111.829806 74.6093333,109.158918 C74.6093333,108.094918 74.1208889,107.830473 74.1208889,107.830473 C74.1208889,107.830473 74.3666667,106.25314 74.4646667,105.041362 C74.5657778,103.770473 73.8455556,101.057584 70.8868889,100.225362 C70.3688889,99.6964731 70.0188889,98.8549176 71.6117778,98.0102509 C68.1273333,97.8469176 67.3168889,99.6700287 65.4611111,101.010918 C63.8806667,102.186918 63.456,104.048918 63.5337778,105.039806 Z" id="Shape" fill="#000000" sketch:type="MSShapeGroup" transform="translate(69.000000, 113.391903) rotate(-20.000000) translate(-69.000000, -113.391903) "></path>
                <path d="M303.533778,108.039806 C303.633333,109.251584 303.879111,110.828918 303.879111,110.828918 C303.879111,110.828918 303.392222,111.093362 303.392222,112.157362 C303.561778,114.828251 304.454667,113.675584 304.638222,114.846918 C305.08,117.668695 306.089556,117.166251 306.089556,118.706251 C306.089556,121.271362 305.031778,122.470695 301.729333,123.892473 C298.416,125.320473 295,127.11714 295,130.228251 L295,131.783806 L323,131.783806 L323,130.228251 C323,127.11714 319.582444,125.320473 316.267556,123.894029 C312.965111,122.472251 311.910444,121.274473 311.910444,118.707806 C311.910444,117.167806 312.916889,117.670251 313.360222,114.848473 C313.545333,113.67714 314.436667,114.829806 314.609333,112.158918 C314.609333,111.094918 314.120889,110.830473 314.120889,110.830473 C314.120889,110.830473 314.366667,109.25314 314.464667,108.041362 C314.565778,106.770473 313.845556,104.057584 310.886889,103.225362 C310.368889,102.696473 310.018889,101.854918 311.611778,101.010251 C308.127333,100.846918 307.316889,102.670029 305.461111,104.010918 C303.880667,105.186918 303.456,107.048918 303.533778,108.039806 Z" id="Shape-Copy" fill="#000000" sketch:type="MSShapeGroup" transform="translate(309.000000, 116.391903) rotate(-20.000000) translate(-309.000000, -116.391903) "></path>
                <path d="M443.533778,142.039806 C443.633333,143.251584 443.879111,144.828918 443.879111,144.828918 C443.879111,144.828918 443.392222,145.093362 443.392222,146.157362 C443.561778,148.828251 444.454667,147.675584 444.638222,148.846918 C445.08,151.668695 446.089556,151.166251 446.089556,152.706251 C446.089556,155.271362 445.031778,156.470695 441.729333,157.892473 C438.416,159.320473 435,161.11714 435,164.228251 L435,165.783806 L463,165.783806 L463,164.228251 C463,161.11714 459.582444,159.320473 456.267556,157.894029 C452.965111,156.472251 451.910444,155.274473 451.910444,152.707806 C451.910444,151.167806 452.916889,151.670251 453.360222,148.848473 C453.545333,147.67714 454.436667,148.829806 454.609333,146.158918 C454.609333,145.094918 454.120889,144.830473 454.120889,144.830473 C454.120889,144.830473 454.366667,143.25314 454.464667,142.041362 C454.565778,140.770473 453.845556,138.057584 450.886889,137.225362 C450.368889,136.696473 450.018889,135.854918 451.611778,135.010251 C448.127333,134.846918 447.316889,136.670029 445.461111,138.010918 C443.880667,139.186918 443.456,141.048918 443.533778,142.039806 Z" id="Shape-Copy-2" fill="#000000" sketch:type="MSShapeGroup" transform="translate(449.000000, 150.391903) rotate(-20.000000) translate(-449.000000, -150.391903) "></path>
                <path d="M26.5857864,138 L18,138 L18,136 L30,136 L30,137 L30,148 L28,148 L28,139.414214 L16.3431458,151.071068 L14.9289322,149.656854 L26.5857864,138 Z M9,131.99649 C9,130.341574 10.3504982,129 11.9964905,129 L34.0035095,129 C35.6584255,129 37,130.350498 37,131.99649 L37,154.00351 C37,155.658426 35.6495018,157 34.0035095,157 L11.9964905,157 C10.3415745,157 9,155.649502 9,154.00351 L9,131.99649 Z M11,132.000695 C11,131.448026 11.4474692,131 12.0006946,131 L33.9993054,131 C34.5519738,131 35,131.447469 35,132.000695 L35,153.999305 C35,154.551974 34.5525308,155 33.9993054,155 L12.0006946,155 C11.4480262,155 11,154.552531 11,153.999305 L11,132.000695 Z" id="icon_output" fill="#000000" sketch:type="MSShapeGroup" transform="translate(23.000000, 143.000000) rotate(-330.000000) translate(-23.000000, -143.000000) "></path>
                <path d="M192.585786,144 L184,144 L184,142 L196,142 L196,143 L196,154 L194,154 L194,145.414214 L182.343146,157.071068 L180.928932,155.656854 L192.585786,144 Z M175,137.99649 C175,136.341574 176.350498,135 177.99649,135 L200.00351,135 C201.658426,135 203,136.350498 203,137.99649 L203,160.00351 C203,161.658426 201.649502,163 200.00351,163 L177.99649,163 C176.341574,163 175,161.649502 175,160.00351 L175,137.99649 Z M177,138.000695 C177,137.448026 177.447469,137 178.000695,137 L199.999305,137 C200.551974,137 201,137.447469 201,138.000695 L201,159.999305 C201,160.551974 200.552531,161 199.999305,161 L178.000695,161 C177.448026,161 177,160.552531 177,159.999305 L177,138.000695 Z" id="icon_output-copy" fill="#000000" sketch:type="MSShapeGroup" transform="translate(189.000000, 149.000000) rotate(-30.000000) translate(-189.000000, -149.000000) "></path>
                <path d="M292.585786,24 L284,24 L284,22 L296,22 L296,23 L296,34 L294,34 L294,25.4142136 L282.343146,37.0710678 L280.928932,35.6568542 L292.585786,24 Z M275,17.9964905 C275,16.3415745 276.350498,15 277.99649,15 L300.00351,15 C301.658426,15 303,16.3504982 303,17.9964905 L303,40.0035095 C303,41.6584255 301.649502,43 300.00351,43 L277.99649,43 C276.341574,43 275,41.6495018 275,40.0035095 L275,17.9964905 Z M277,18.0006946 C277,17.4480262 277.447469,17 278.000695,17 L299.999305,17 C300.551974,17 301,17.4474692 301,18.0006946 L301,39.9993054 C301,40.5519738 300.552531,41 299.999305,41 L278.000695,41 C277.448026,41 277,40.5525308 277,39.9993054 L277,18.0006946 Z" id="icon_output-copy-2" fill="#000000" sketch:type="MSShapeGroup" transform="translate(289.000000, 29.000000) rotate(-30.000000) translate(-289.000000, -29.000000) "></path>
                <path d="M503.585786,121 L495,121 L495,119 L507,119 L507,120 L507,131 L505,131 L505,122.414214 L493.343146,134.071068 L491.928932,132.656854 L503.585786,121 Z M486,114.99649 C486,113.341574 487.350498,112 488.99649,112 L511.00351,112 C512.658426,112 514,113.350498 514,114.99649 L514,137.00351 C514,138.658426 512.649502,140 511.00351,140 L488.99649,140 C487.341574,140 486,138.649502 486,137.00351 L486,114.99649 Z M488,115.000695 C488,114.448026 488.447469,114 489.000695,114 L510.999305,114 C511.551974,114 512,114.447469 512,115.000695 L512,136.999305 C512,137.551974 511.552531,138 510.999305,138 L489.000695,138 C488.448026,138 488,137.552531 488,136.999305 L488,115.000695 Z" id="icon_output-copy-3" fill="#000000" sketch:type="MSShapeGroup" transform="translate(500.000000, 126.000000) rotate(-20.000000) translate(-500.000000, -126.000000) "></path>
                <path d="M98.500113,82.0617927 C97.6417142,82.2821581 97,83.066371 97,84 C97,84.9412175 97.6382454,85.7216467 98.5007899,85.9394264 C99.1833763,87.1683543 100.494568,88 102,88 C103.480565,88 104.773252,87.1956027 105.464871,86 L115.009205,86 C116.101788,86 117,85.1045695 117,84 C117,82.8877296 116.108691,82 115.009205,82 L105.464871,82 C104.773252,80.8043973 103.480565,80 102,80 C100.49407,80 99.1825093,80.8321957 98.500113,82.0617927 Z M108.535129,92 L98.9907951,92 C97.8982124,92 97,92.8954305 97,94 C97,95.1122704 97.8913093,96 98.9907951,96 L108.535129,96 C109.226748,97.1956027 110.519435,98 112,98 C113.50593,98 114.817491,97.1678043 115.499887,95.9382073 C116.358286,95.7178419 117,94.933629 117,94 C117,93.0587825 116.361755,92.2783533 115.49921,92.0605736 C114.816624,90.8316457 113.505432,90 112,90 C110.519435,90 109.226748,90.8043973 108.535129,92 Z M93,77.9964905 C93,76.3415745 94.3504982,75 95.9964905,75 L118.00351,75 C119.658426,75 121,76.3504982 121,77.9964905 L121,100.00351 C121,101.658426 119.649502,103 118.00351,103 L95.9964905,103 C94.3415745,103 93,101.649502 93,100.00351 L93,77.9964905 Z M112,97 C113.656854,97 115,95.6568542 115,94 C115,92.3431458 113.656854,91 112,91 C110.343146,91 109,92.3431458 109,94 C109,95.6568542 110.343146,97 112,97 Z M102,87 C103.656854,87 105,85.6568542 105,84 C105,82.3431458 103.656854,81 102,81 C100.343146,81 99,82.3431458 99,84 C99,85.6568542 100.343146,87 102,87 Z" id="Mask" fill="#000000" sketch:type="MSShapeGroup" transform="translate(107.000000, 89.000000) rotate(-30.000000) translate(-107.000000, -89.000000) "></path>
                <path d="M318.500113,62.0617927 C317.641714,62.2821581 317,63.066371 317,64 C317,64.9412175 317.638245,65.7216467 318.50079,65.9394264 C319.183376,67.1683543 320.494568,68 322,68 C323.480565,68 324.773252,67.1956027 325.464871,66 L335.009205,66 C336.101788,66 337,65.1045695 337,64 C337,62.8877296 336.108691,62 335.009205,62 L325.464871,62 C324.773252,60.8043973 323.480565,60 322,60 C320.49407,60 319.182509,60.8321957 318.500113,62.0617927 Z M328.535129,72 L318.990795,72 C317.898212,72 317,72.8954305 317,74 C317,75.1122704 317.891309,76 318.990795,76 L328.535129,76 C329.226748,77.1956027 330.519435,78 332,78 C333.50593,78 334.817491,77.1678043 335.499887,75.9382073 C336.358286,75.7178419 337,74.933629 337,74 C337,73.0587825 336.361755,72.2783533 335.49921,72.0605736 C334.816624,70.8316457 333.505432,70 332,70 C330.519435,70 329.226748,70.8043973 328.535129,72 Z M313,57.9964905 C313,56.3415745 314.350498,55 315.99649,55 L338.00351,55 C339.658426,55 341,56.3504982 341,57.9964905 L341,80.0035095 C341,81.6584255 339.649502,83 338.00351,83 L315.99649,83 C314.341574,83 313,81.6495018 313,80.0035095 L313,57.9964905 Z M332,77 C333.656854,77 335,75.6568542 335,74 C335,72.3431458 333.656854,71 332,71 C330.343146,71 329,72.3431458 329,74 C329,75.6568542 330.343146,77 332,77 Z M322,67 C323.656854,67 325,65.6568542 325,64 C325,62.3431458 323.656854,61 322,61 C320.343146,61 319,62.3431458 319,64 C319,65.6568542 320.343146,67 322,67 Z" id="Mask-Copy" fill="#000000" sketch:type="MSShapeGroup" transform="translate(327.000000, 69.000000) rotate(-30.000000) translate(-327.000000, -69.000000) "></path>
                <path d="M492.500113,54.0617927 C491.641714,54.2821581 491,55.066371 491,56 C491,56.9412175 491.638245,57.7216467 492.50079,57.9394264 C493.183376,59.1683543 494.494568,60 496,60 C497.480565,60 498.773252,59.1956027 499.464871,58 L509.009205,58 C510.101788,58 511,57.1045695 511,56 C511,54.8877296 510.108691,54 509.009205,54 L499.464871,54 C498.773252,52.8043973 497.480565,52 496,52 C494.49407,52 493.182509,52.8321957 492.500113,54.0617927 Z M502.535129,64 L492.990795,64 C491.898212,64 491,64.8954305 491,66 C491,67.1122704 491.891309,68 492.990795,68 L502.535129,68 C503.226748,69.1956027 504.519435,70 506,70 C507.50593,70 508.817491,69.1678043 509.499887,67.9382073 C510.358286,67.7178419 511,66.933629 511,66 C511,65.0587825 510.361755,64.2783533 509.49921,64.0605736 C508.816624,62.8316457 507.505432,62 506,62 C504.519435,62 503.226748,62.8043973 502.535129,64 Z M487,49.9964905 C487,48.3415745 488.350498,47 489.99649,47 L512.00351,47 C513.658426,47 515,48.3504982 515,49.9964905 L515,72.0035095 C515,73.6584255 513.649502,75 512.00351,75 L489.99649,75 C488.341574,75 487,73.6495018 487,72.0035095 L487,49.9964905 Z M506,69 C507.656854,69 509,67.6568542 509,66 C509,64.3431458 507.656854,63 506,63 C504.343146,63 503,64.3431458 503,66 C503,67.6568542 504.343146,69 506,69 Z M496,59 C497.656854,59 499,57.6568542 499,56 C499,54.3431458 497.656854,53 496,53 C494.343146,53 493,54.3431458 493,56 C493,57.6568542 494.343146,59 496,59 Z" id="Mask-Copy-2" fill="#000000" sketch:type="MSShapeGroup" transform="translate(501.000000, 61.000000) rotate(-320.000000) translate(-501.000000, -61.000000) "></path>
                <path d="M101.194067,34.3542865 C102.345108,34.7751363 103.166696,35.8800122 103.166696,37.1767801 C103.166696,38.8360212 101.821615,40.1811019 100.162374,40.1811019 C98.503133,40.1811019 97.1580524,38.8360212 97.1580524,37.1767801 C97.1580524,35.8574023 98.0085394,34.7366664 99.1911861,34.3328997 L99.1911861,25.1897455 L101.194067,25.1897455 L101.194067,34.3542865 Z M106.342196,30.1660544 L101.164456,24.9883145 C100.851046,25.0991698 100.513754,25.159493 100.162374,25.159493 C98.503133,25.159493 97.1580524,23.8144123 97.1580524,22.1551712 C97.1580524,21.8037909 97.2183755,21.4664998 97.3292308,21.153089 L93.8307818,17.65464 L85.1694078,26.3160139 C83.6118505,27.8735712 83.6085451,30.407535 85.1694078,31.9683977 L99.3160139,46.1150038 C100.873571,47.6725611 103.407535,47.6758665 104.968398,46.1150038 L119.115004,31.9683977 C120.672561,30.4108404 120.675866,27.8768766 119.115004,26.3160139 L104.968398,12.1694078 C103.41084,10.6118505 100.876877,10.6085451 99.3160139,12.1694078 L95.2470327,16.2383891 L98.5982571,19.5896135 C99.0538607,19.311256 99.5893849,19.1508494 100.162374,19.1508494 C101.821615,19.1508494 103.166696,20.4959301 103.166696,22.1551712 C103.166696,22.7281604 103.006289,23.2636847 102.727932,23.7192882 L107.611222,28.6025789 C108.066826,28.3242214 108.60235,28.1638148 109.17534,28.1638148 C110.834581,28.1638148 112.179661,29.5088954 112.179661,31.1681365 C112.179661,32.8273776 110.834581,34.1724583 109.17534,34.1724583 C107.516098,34.1724583 106.171018,32.8273776 106.171018,31.1681365 C106.171018,30.8167562 106.231341,30.4794652 106.342196,30.1660544 Z" id="Rectangle-77" fill="#000000" sketch:type="MSShapeGroup" transform="translate(102.142206, 29.142206) rotate(-20.000000) translate(-102.142206, -29.142206) "></path>
                <path d="M361.194067,34.3542865 C362.345108,34.7751363 363.166696,35.8800122 363.166696,37.1767801 C363.166696,38.8360212 361.821615,40.1811019 360.162374,40.1811019 C358.503133,40.1811019 357.158052,38.8360212 357.158052,37.1767801 C357.158052,35.8574023 358.008539,34.7366664 359.191186,34.3328997 L359.191186,25.1897455 L361.194067,25.1897455 L361.194067,34.3542865 Z M366.342196,30.1660544 L361.164456,24.9883145 C360.851046,25.0991698 360.513754,25.159493 360.162374,25.159493 C358.503133,25.159493 357.158052,23.8144123 357.158052,22.1551712 C357.158052,21.8037909 357.218376,21.4664998 357.329231,21.153089 L353.830782,17.65464 L345.169408,26.3160139 C343.611851,27.8735712 343.608545,30.407535 345.169408,31.9683977 L359.316014,46.1150038 C360.873571,47.6725611 363.407535,47.6758665 364.968398,46.1150038 L379.115004,31.9683977 C380.672561,30.4108404 380.675866,27.8768766 379.115004,26.3160139 L364.968398,12.1694078 C363.41084,10.6118505 360.876877,10.6085451 359.316014,12.1694078 L355.247033,16.2383891 L358.598257,19.5896135 C359.053861,19.311256 359.589385,19.1508494 360.162374,19.1508494 C361.821615,19.1508494 363.166696,20.4959301 363.166696,22.1551712 C363.166696,22.7281604 363.006289,23.2636847 362.727932,23.7192882 L367.611222,28.6025789 C368.066826,28.3242214 368.60235,28.1638148 369.17534,28.1638148 C370.834581,28.1638148 372.179661,29.5088954 372.179661,31.1681365 C372.179661,32.8273776 370.834581,34.1724583 369.17534,34.1724583 C367.516098,34.1724583 366.171018,32.8273776 366.171018,31.1681365 C366.171018,30.8167562 366.231341,30.4794652 366.342196,30.1660544 Z" id="Rectangle-77-Copy" fill="#000000" sketch:type="MSShapeGroup" transform="translate(362.142206, 29.142206) rotate(-20.000000) translate(-362.142206, -29.142206) "></path>
                <path d="M549.194067,104.354287 C550.345108,104.775136 551.166696,105.880012 551.166696,107.17678 C551.166696,108.836021 549.821615,110.181102 548.162374,110.181102 C546.503133,110.181102 545.158052,108.836021 545.158052,107.17678 C545.158052,105.857402 546.008539,104.736666 547.191186,104.3329 L547.191186,95.1897455 L549.194067,95.1897455 L549.194067,104.354287 Z M554.342196,100.166054 L549.164456,94.9883145 C548.851046,95.0991698 548.513754,95.159493 548.162374,95.159493 C546.503133,95.159493 545.158052,93.8144123 545.158052,92.1551712 C545.158052,91.8037909 545.218376,91.4664998 545.329231,91.153089 L541.830782,87.65464 L533.169408,96.3160139 C531.611851,97.8735712 531.608545,100.407535 533.169408,101.968398 L547.316014,116.115004 C548.873571,117.672561 551.407535,117.675866 552.968398,116.115004 L567.115004,101.968398 C568.672561,100.41084 568.675866,97.8768766 567.115004,96.3160139 L552.968398,82.1694078 C551.41084,80.6118505 548.876877,80.6085451 547.316014,82.1694078 L543.247033,86.2383891 L546.598257,89.5896135 C547.053861,89.311256 547.589385,89.1508494 548.162374,89.1508494 C549.821615,89.1508494 551.166696,90.4959301 551.166696,92.1551712 C551.166696,92.7281604 551.006289,93.2636847 550.727932,93.7192882 L555.611222,98.6025789 C556.066826,98.3242214 556.60235,98.1638148 557.17534,98.1638148 C558.834581,98.1638148 560.179661,99.5088954 560.179661,101.168137 C560.179661,102.827378 558.834581,104.172458 557.17534,104.172458 C555.516098,104.172458 554.171018,102.827378 554.171018,101.168137 C554.171018,100.816756 554.231341,100.479465 554.342196,100.166054 Z" id="Rectangle-77-Copy-2" fill="#000000" sketch:type="MSShapeGroup" transform="translate(550.142206, 99.142206) rotate(-20.000000) translate(-550.142206, -99.142206) "></path>
                <path d="M147,78 C156.941125,78 165,69.9411255 165,60 C165,50.0588745 156.941125,42 147,42 C137.058875,42 129,50.0588745 129,60 C129,69.9411255 137.058875,78 147,78 Z M147,76 C155.836556,76 163,68.836556 163,60 C163,51.163444 155.836556,44 147,44 C138.163444,44 131,51.163444 131,60 C131,68.836556 138.163444,76 147,76 Z M147,74 C154.731986,74 161,67.7319865 161,60 C161,52.2680135 154.731986,46 147,46 C139.268014,46 133,52.2680135 133,60 C133,67.7319865 139.268014,74 147,74 Z M149.100764,59.4045905 C150.240579,58.6997837 151,57.438578 151,56 C151,53.790861 149.209139,52 147,52 C144.790861,52 143,53.790861 143,56 C143,57.4448165 143.766022,58.710719 144.914087,59.4137284 L143,68 L151,68 L149.100764,59.4045905 Z" id="Oval-11" fill="#000000" sketch:type="MSShapeGroup" transform="translate(147.000000, 60.000000) rotate(-330.000000) translate(-147.000000, -60.000000) "></path>
                <path d="M267,105 C276.941125,105 285,96.9411255 285,87 C285,77.0588745 276.941125,69 267,69 C257.058875,69 249,77.0588745 249,87 C249,96.9411255 257.058875,105 267,105 Z M267,103 C275.836556,103 283,95.836556 283,87 C283,78.163444 275.836556,71 267,71 C258.163444,71 251,78.163444 251,87 C251,95.836556 258.163444,103 267,103 Z M267,101 C274.731986,101 281,94.7319865 281,87 C281,79.2680135 274.731986,73 267,73 C259.268014,73 253,79.2680135 253,87 C253,94.7319865 259.268014,101 267,101 Z M269.100764,86.4045905 C270.240579,85.6997837 271,84.438578 271,83 C271,80.790861 269.209139,79 267,79 C264.790861,79 263,80.790861 263,83 C263,84.4448165 263.766022,85.710719 264.914087,86.4137284 L263,95 L271,95 L269.100764,86.4045905 Z" id="Oval-11-Copy-3" fill="#000000" sketch:type="MSShapeGroup" transform="translate(267.000000, 87.000000) rotate(-330.000000) translate(-267.000000, -87.000000) "></path>
                <path d="M450,115 C459.941125,115 468,106.941125 468,97 C468,87.0588745 459.941125,79 450,79 C440.058875,79 432,87.0588745 432,97 C432,106.941125 440.058875,115 450,115 Z M450,113 C458.836556,113 466,105.836556 466,97 C466,88.163444 458.836556,81 450,81 C441.163444,81 434,88.163444 434,97 C434,105.836556 441.163444,113 450,113 Z M450,111 C457.731986,111 464,104.731986 464,97 C464,89.2680135 457.731986,83 450,83 C442.268014,83 436,89.2680135 436,97 C436,104.731986 442.268014,111 450,111 Z M452.100764,96.4045905 C453.240579,95.6997837 454,94.438578 454,93 C454,90.790861 452.209139,89 450,89 C447.790861,89 446,90.790861 446,93 C446,94.4448165 446.766022,95.710719 447.914087,96.4137284 L446,105 L454,105 L452.100764,96.4045905 Z" id="Oval-11-Copy-4" fill="#000000" sketch:type="MSShapeGroup" transform="translate(450.000000, 97.000000) rotate(-330.000000) translate(-450.000000, -97.000000) "></path>
                <g id="icon_lock" transform="translate(171.000000, 9.000000)" sketch:type="MSShapeGroup">
                    <path d="M0,11.9962027 C0,9.78916089 1.79171562,8 3.9947834,8 L14.0052166,8 C16.2114745,8 18,9.78883037 18,11.9962027 L18,20.0037973 C18,22.2108391 16.2082844,24 14.0052166,24 L3.9947834,24 C1.78852545,24 0,22.2111696 0,20.0037973 L0,11.9962027 Z M6,17 C6.55228475,17 7,16.5522847 7,16 C7,15.4477153 6.55228475,15 6,15 C5.44771525,15 5,15.4477153 5,16 C5,16.5522847 5.44771525,17 6,17 Z M9,17 C9.55228475,17 10,16.5522847 10,16 C10,15.4477153 9.55228475,15 9,15 C8.44771525,15 8,15.4477153 8,16 C8,16.5522847 8.44771525,17 9,17 Z M12,17 C12.5522847,17 13,16.5522847 13,16 C13,15.4477153 12.5522847,15 12,15 C11.4477153,15 11,15.4477153 11,16 C11,16.5522847 11.4477153,17 12,17 Z" id="Rectangle-79" fill="#000000"></path>
                    <path d="M4.0327381,9.0031622 C4.0327381,9.0031622 2.90606404,0.469640288 9.04036458,0.466145833 C15.1746651,0.462651378 14.1078869,9.0171131 14.1078869,9.0171131" id="Path-325" stroke="#000000" stroke-width="2"></path>
                </g>
                <g id="icon_lock-copy-2" transform="translate(359.000000, 134.000000) rotate(-340.000000) translate(-359.000000, -134.000000) translate(350.000000, 122.000000)" sketch:type="MSShapeGroup">
                    <path d="M0,11.9962027 C0,9.78916089 1.79171562,8 3.9947834,8 L14.0052166,8 C16.2114745,8 18,9.78883037 18,11.9962027 L18,20.0037973 C18,22.2108391 16.2082844,24 14.0052166,24 L3.9947834,24 C1.78852545,24 0,22.2111696 0,20.0037973 L0,11.9962027 Z M6,17 C6.55228475,17 7,16.5522847 7,16 C7,15.4477153 6.55228475,15 6,15 C5.44771525,15 5,15.4477153 5,16 C5,16.5522847 5.44771525,17 6,17 Z M9,17 C9.55228475,17 10,16.5522847 10,16 C10,15.4477153 9.55228475,15 9,15 C8.44771525,15 8,15.4477153 8,16 C8,16.5522847 8.44771525,17 9,17 Z M12,17 C12.5522847,17 13,16.5522847 13,16 C13,15.4477153 12.5522847,15 12,15 C11.4477153,15 11,15.4477153 11,16 C11,16.5522847 11.4477153,17 12,17 Z" id="Rectangle-79" fill="#000000"></path>
                    <path d="M4.0327381,9.0031622 C4.0327381,9.0031622 2.90606404,0.469640288 9.04036458,0.466145833 C15.1746651,0.462651378 14.1078869,9.0171131 14.1078869,9.0171131" id="Path-325" stroke="#000000" stroke-width="2"></path>
                </g>
                <g id="icon_lock-copy-3" transform="translate(469.000000, 16.000000) rotate(-30.000000) translate(-469.000000, -16.000000) translate(460.000000, 4.000000)" sketch:type="MSShapeGroup">
                    <path d="M0,11.9962027 C0,9.78916089 1.79171562,8 3.9947834,8 L14.0052166,8 C16.2114745,8 18,9.78883037 18,11.9962027 L18,20.0037973 C18,22.2108391 16.2082844,24 14.0052166,24 L3.9947834,24 C1.78852545,24 0,22.2111696 0,20.0037973 L0,11.9962027 Z M6,17 C6.55228475,17 7,16.5522847 7,16 C7,15.4477153 6.55228475,15 6,15 C5.44771525,15 5,15.4477153 5,16 C5,16.5522847 5.44771525,17 6,17 Z M9,17 C9.55228475,17 10,16.5522847 10,16 C10,15.4477153 9.55228475,15 9,15 C8.44771525,15 8,15.4477153 8,16 C8,16.5522847 8.44771525,17 9,17 Z M12,17 C12.5522847,17 13,16.5522847 13,16 C13,15.4477153 12.5522847,15 12,15 C11.4477153,15 11,15.4477153 11,16 C11,16.5522847 11.4477153,17 12,17 Z" id="Rectangle-79" fill="#000000"></path>
                    <path d="M4.0327381,9.0031622 C4.0327381,9.0031622 2.90606404,0.469640288 9.04036458,0.466145833 C15.1746651,0.462651378 14.1078869,9.0171131 14.1078869,9.0171131" id="Path-325" stroke="#000000" stroke-width="2"></path>
                </g>
                <g id="icon_lock-copy" transform="translate(88.000000, 141.000000)" sketch:type="MSShapeGroup">
                    <path d="M0,11.9962027 C0,9.78916089 1.79171562,8 3.9947834,8 L14.0052166,8 C16.2114745,8 18,9.78883037 18,11.9962027 L18,20.0037973 C18,22.2108391 16.2082844,24 14.0052166,24 L3.9947834,24 C1.78852545,24 0,22.2111696 0,20.0037973 L0,11.9962027 Z M6,17 C6.55228475,17 7,16.5522847 7,16 C7,15.4477153 6.55228475,15 6,15 C5.44771525,15 5,15.4477153 5,16 C5,16.5522847 5.44771525,17 6,17 Z M9,17 C9.55228475,17 10,16.5522847 10,16 C10,15.4477153 9.55228475,15 9,15 C8.44771525,15 8,15.4477153 8,16 C8,16.5522847 8.44771525,17 9,17 Z M12,17 C12.5522847,17 13,16.5522847 13,16 C13,15.4477153 12.5522847,15 12,15 C11.4477153,15 11,15.4477153 11,16 C11,16.5522847 11.4477153,17 12,17 Z" id="Rectangle-79" fill="#000000"></path>
                    <path d="M4.0327381,9.0031622 C4.0327381,9.0031622 2.90606404,0.469640288 9.04036458,0.466145833 C15.1746651,0.462651378 14.1078869,9.0171131 14.1078869,9.0171131" id="Path-325" stroke="#000000" stroke-width="2"></path>
                </g>
            </g>
        </g>
    </g>
</svg>