<?xml version="1.0" standalone="no"?>
<!DOCTYPE svg PUBLIC "-//W3C//DTD SVG 20010904//EN"
 "http://www.w3.org/TR/2001/REC-SVG-20010904/DTD/svg10.dtd">
<svg version="1.0" xmlns="http://www.w3.org/2000/svg"
 width="700.000000pt" height="700.000000pt" viewBox="0 0 700.000000 700.000000"
 preserveAspectRatio="xMidYMid meet">
<metadata>
Created by potrace 1.11, written by Peter Selinger 2001-2013
</metadata>
<g transform="translate(0.000000,700.000000) scale(0.100000,-0.100000)"
fill="#000000" stroke="none">
<path d="M4340 6899 c-103 -10 -145 -18 -315 -59 -88 -21 -203 -49 -255 -61
-77 -19 -124 -23 -250 -24 -184 0 -196 2 -415 55 -93 23 -181 44 -194 46 -13
3 -51 12 -85 20 -89 22 -281 30 -347 14 -186 -43 -312 -145 -574 -464 -107
-130 -212 -240 -276 -288 -63 -47 -220 -125 -388 -193 -412 -167 -540 -257
-626 -442 -42 -91 -69 -206 -80 -353 -4 -41 -8 -88 -10 -105 -2 -16 -7 -77
-10 -135 -4 -58 -8 -116 -11 -130 -2 -14 -6 -50 -10 -80 -18 -155 -77 -292
-243 -558 -132 -212 -182 -308 -217 -412 -25 -73 -28 -100 -28 -195 0 -122 14
-183 70 -303 35 -77 193 -345 206 -350 5 -2 8 -8 8 -13 0 -5 12 -28 27 -52 55
-87 96 -164 119 -225 28 -72 48 -151 59 -234 10 -78 14 -115 20 -193 3 -44 7
-100 10 -125 3 -25 7 -81 10 -125 8 -106 13 -136 36 -225 25 -93 78 -201 126
-254 100 -112 199 -169 518 -301 239 -99 285 -121 375 -180 94 -62 204 -174
375 -384 248 -304 408 -404 646 -403 98 1 171 13 414 72 436 104 517 107 830
28 66 -16 131 -32 145 -34 14 -3 39 -9 55 -14 17 -5 43 -12 59 -14 16 -3 52
-10 80 -15 28 -6 65 -13 81 -16 17 -3 73 -5 126 -5 116 0 203 23 301 81 80 47
224 185 338 324 128 155 274 309 343 360 73 56 200 118 427 210 334 136 439
204 537 350 38 57 86 177 97 247 4 18 8 47 11 63 6 35 12 100 21 210 11 154
13 170 19 244 4 41 8 82 10 92 2 9 7 39 11 66 15 102 90 283 155 375 11 14 19
28 19 31 0 3 33 59 74 124 182 293 227 401 232 563 3 84 -1 121 -17 180 -28
104 -100 248 -213 428 -113 180 -164 269 -193 337 -29 67 -60 187 -67 255 -7
73 -15 161 -21 235 -3 33 -7 83 -10 110 -2 28 -7 79 -10 114 -12 138 -27 210
-65 301 -80 198 -208 298 -565 445 -371 151 -440 191 -572 327 -78 79 -101
105 -203 228 -94 113 -116 137 -193 213 -131 130 -256 198 -389 213 -29 3 -57
6 -63 8 -5 1 -39 -1 -75 -5z m-1455 -1299 c6 -4 44 -25 85 -47 41 -22 95 -52
120 -66 25 -15 69 -39 97 -54 29 -15 56 -36 60 -48 4 -11 8 -256 9 -545 1
-289 2 -532 3 -542 1 -9 22 -29 49 -44 159 -94 438 -251 441 -248 2 2 6 86 8
186 2 100 4 182 6 183 1 1 115 68 252 149 138 82 266 157 285 168 19 11 39 24
45 29 19 18 46 7 238 -102 l197 -111 1 -292 c0 -160 0 -763 1 -1339 l0 -1049
-28 -29 c-16 -17 -40 -36 -54 -43 -14 -7 -77 -44 -140 -81 -63 -38 -137 -81
-165 -97 -27 -16 -83 -49 -124 -74 -108 -65 -110 -65 -221 4 -52 32 -140 86
-195 118 l-100 59 -5 555 -5 554 -40 27 c-22 15 -58 37 -80 49 -22 12 -56 30
-75 42 -19 11 -60 35 -90 51 -30 17 -88 50 -127 73 -40 24 -74 42 -74 41 -4
-6 -7 -78 -9 -219 -1 -132 -4 -159 -18 -170 -10 -8 -60 -38 -112 -68 -52 -29
-108 -61 -125 -70 -16 -9 -91 -53 -165 -97 -74 -44 -148 -87 -165 -95 -38 -19
-69 -11 -155 41 -36 22 -83 49 -105 61 -22 12 -71 42 -110 68 l-70 47 -1 1318
c-1 724 1 1331 5 1349 7 34 28 48 436 275 166 93 192 103 220 83z"/>
<path d="M2286 3902 c0 -708 1 -1292 2 -1299 1 -6 33 -27 70 -46 38 -19 106
-56 152 -81 45 -26 85 -45 87 -43 2 2 4 234 5 515 2 282 6 521 10 533 13 33
45 21 223 -84 88 -51 185 -107 215 -124 59 -33 273 -154 525 -298 55 -31 125
-71 155 -87 30 -16 66 -40 79 -53 l24 -23 -2 -538 -1 -538 22 -23 c12 -13 25
-23 30 -23 5 0 37 -17 71 -39 84 -52 199 -112 204 -107 5 4 8 2296 3 2468 l-2
107 -156 90 c-86 49 -158 88 -160 86 -2 -2 -4 -235 -4 -517 -1 -563 -1 -564
-55 -549 -23 7 -74 35 -204 116 -9 6 -34 20 -56 32 -22 12 -116 65 -209 119
-93 53 -189 108 -214 122 -25 14 -57 32 -72 41 -22 13 -142 81 -283 161 -91
52 -111 65 -122 79 -10 11 -13 138 -13 556 l0 542 -157 93 c-87 51 -160 94
-163 96 -3 1 -5 -577 -4 -1284z"/>
</g>
</svg>
