<svg xmlns="http://www.w3.org/2000/svg" viewBox="0 0 605 180"><title>add</title><g fill-rule="evenodd"><path d="M38.299 20.982l-11.258 6.5s-2.165 1.25-.915 3.415 3.415.915 3.415.915l11.258-6.5 6.25 10.825s1.25 2.166 3.415.916.915-3.416.915-3.416l-6.25-10.825 11.258-6.5s2.166-1.25.916-3.415-3.416-.915-3.416-.915l-11.258 6.5-6.75-11.691s-1.25-2.165-3.415-.915-.915 3.415-.915 3.415l6.75 11.691zM76.13 52.23l-12.803-2.257s-2.462-.434-2.896 2.028c-.434 2.462 2.028 2.896 2.028 2.896l12.803 2.257-2.17 12.31s-.435 2.462 2.027 2.896c2.462.434 2.896-2.028 2.896-2.028l2.17-12.31 12.803 2.258s2.462.434 2.896-2.028c.434-2.462-2.028-2.896-2.028-2.896l-12.802-2.258 2.344-13.295s.434-2.462-2.028-2.896c-2.462-.434-2.896 2.028-2.896 2.028L76.13 52.23zM128.299 29.982l-11.258 6.5s-2.165 1.25-.915 3.415 3.415.915 3.415.915l11.258-6.5 6.25 10.825s1.25 2.166 3.415.916.915-3.416.915-3.416l-6.25-10.825 11.258-6.5s2.166-1.25.916-3.415-3.416-.915-3.416-.915l-11.258 6.5-6.75-11.691s-1.25-2.165-3.415-.915-.915 3.415-.915 3.415l6.75 11.691zM196.725 32.392l-12.216-4.446s-2.349-.855-3.204 1.494c-.855 2.35 1.494 3.205 1.494 3.205l12.216 4.446-4.275 11.746s-.855 2.35 1.494 3.204c2.35.855 3.205-1.494 3.205-1.494l4.275-11.746 12.216 4.446s2.35.855 3.204-1.494c.855-2.35-1.494-3.204-1.494-3.204l-12.216-4.446 4.617-12.686s.855-2.35-1.494-3.205c-2.35-.855-3.204 1.495-3.204 1.495l-4.618 12.685zM259.299 26.982l-11.258 6.5s-2.165 1.25-.915 3.415 3.415.915 3.415.915l11.258-6.5 6.25 10.825s1.25 2.166 3.415.916.915-3.416.915-3.416l-6.25-10.825 11.258-6.5s2.166-1.25.916-3.415-3.416-.915-3.416-.915l-11.258 6.5-6.75-11.691s-1.25-2.165-3.415-.915-.915 3.415-.915 3.415l6.75 11.691zM354.256 33.487l-11.144-6.696s-2.142-1.287-3.43.856c-1.288 2.143.855 3.43.855 3.43l11.143 6.696-6.437 10.714s-1.288 2.143.855 3.43c2.143 1.288 3.43-.854 3.43-.854l6.438-10.715 11.143 6.695s2.143 1.288 3.431-.855c1.288-2.143-.855-3.43-.855-3.43l-11.143-6.696 6.953-11.572s1.287-2.143-.856-3.43c-2.143-1.288-3.43.855-3.43.855l-6.953 11.572zM425.48 35.31l-9.03 9.352s-1.737 1.798.062 3.535c1.798 1.736 3.535-.062 3.535-.062l9.03-9.351 8.992 8.683s1.798 1.736 3.535-.062-.062-3.535-.062-3.535l-8.991-8.683 9.03-9.352s1.737-1.798-.061-3.535c-1.799-1.736-3.535.062-3.535.062l-9.031 9.352-9.711-9.378s-1.798-1.737-3.535.061c-1.737 1.799.062 3.535.062 3.535l9.71 9.378zM505.39 25.736l-10.518 7.642s-2.023 1.469-.553 3.492c1.47 2.022 3.492.553 3.492.553l10.517-7.642 7.347 10.113s1.47 2.023 3.492.553c2.023-1.47.553-3.492.553-3.492l-7.347-10.112L522.89 19.2s2.023-1.47.553-3.492c-1.47-2.022-3.492-.553-3.492-.553l-10.517 7.641-7.935-10.921s-1.47-2.023-3.492-.553c-2.022 1.47-.553 3.492-.553 3.492l7.935 10.921zM553.125 47.497l-10.777-7.27s-2.073-1.398-3.47.675c-1.399 2.073.674 3.47.674 3.47l10.777 7.27-6.99 10.363s-1.398 2.073.675 3.47c2.073 1.399 3.47-.674 3.47-.674l6.99-10.363 10.778 7.27s2.072 1.398 3.47-.675c1.398-2.073-.674-3.47-.674-3.47l-10.778-7.27 7.55-11.192s1.397-2.073-.675-3.47c-2.073-1.399-3.47.674-3.47.674l-7.55 11.192zM20.725 73.392L8.51 68.946s-2.349-.855-3.204 1.494C4.45 72.79 6.8 73.645 6.8 73.645l12.216 4.446-4.275 11.746s-.855 2.35 1.494 3.204c2.35.855 3.205-1.494 3.205-1.494l4.275-11.746 12.216 4.446s2.35.855 3.204-1.494c.855-2.35-1.494-3.204-1.494-3.204l-12.216-4.446 4.617-12.686s.855-2.35-1.494-3.205c-2.35-.855-3.204 1.495-3.204 1.495l-4.618 12.685zM118.299 84.982l-11.258 6.5s-2.165 1.25-.915 3.415 3.415.915 3.415.915l11.258-6.5 6.25 10.825s1.25 2.166 3.415.916.915-3.416.915-3.416l-6.25-10.825 11.258-6.5s2.166-1.25.916-3.415-3.416-.915-3.416-.915l-11.258 6.5-6.75-11.691s-1.25-2.165-3.415-.915-.915 3.415-.915 3.415l6.75 11.691zM168.5 75h-13s-2.5 0-2.5 2.5 2.5 2.5 2.5 2.5h13v12.5s0 2.5 2.5 2.5 2.5-2.5 2.5-2.5V80h13s2.5 0 2.5-2.5-2.5-2.5-2.5-2.5h-13V61.5s0-2.5-2.5-2.5-2.5 2.5-2.5 2.5V75zM231.299 74.982l-11.258 6.5s-2.165 1.25-.915 3.415 3.415.915 3.415.915l11.258-6.5 6.25 10.825s1.25 2.166 3.415.916.915-3.416.915-3.416l-6.25-10.825 11.258-6.5s2.166-1.25.916-3.415-3.416-.915-3.416-.915l-11.258 6.5-6.75-11.691s-1.25-2.165-3.415-.915-.915 3.415-.915 3.415l6.75 11.691zM278.825 99.71l-12.803 2.257s-2.462.434-2.028 2.896c.434 2.462 2.896 2.028 2.896 2.028l12.803-2.258 2.17 12.31s.434 2.462 2.896 2.028c2.463-.434 2.028-2.896 2.028-2.896l-2.17-12.31 12.802-2.257s2.462-.435 2.028-2.897c-.434-2.462-2.896-2.028-2.896-2.028l-12.802 2.258-2.345-13.295s-.434-2.462-2.896-2.028c-2.462.434-2.028 2.896-2.028 2.896l2.345 13.295zM305.825 59.71l-12.803 2.257s-2.462.434-2.028 2.896c.434 2.462 2.896 2.028 2.896 2.028l12.803-2.258 2.17 12.31s.434 2.462 2.896 2.028c2.463-.434 2.028-2.896 2.028-2.896l-2.17-12.31 12.802-2.257s2.462-.435 2.028-2.897c-.434-2.462-2.896-2.028-2.896-2.028l-12.802 2.258-2.345-13.295s-.434-2.462-2.896-2.028c-2.462.434-2.028 2.896-2.028 2.896l2.345 13.295zM382.39 73.736l-10.518 7.642s-2.023 1.469-.553 3.492c1.47 2.022 3.492.553 3.492.553l10.517-7.642 7.347 10.113s1.47 2.023 3.492.553c2.023-1.47.553-3.492.553-3.492l-7.347-10.112L399.89 67.2s2.023-1.47.553-3.492c-1.47-2.022-3.492-.553-3.492-.553l-10.517 7.641-7.935-10.921s-1.47-2.023-3.492-.553c-2.022 1.47-.553 3.492-.553 3.492l7.935 10.921zM463.557 67.437L451.68 62.15s-2.284-1.017-3.301 1.267c-1.017 2.284 1.267 3.3 1.267 3.3l11.876 5.288-5.084 11.42s-1.017 2.283 1.267 3.3 3.3-1.267 3.3-1.267l5.085-11.42 11.876 5.288s2.284 1.017 3.3-1.267c1.018-2.284-1.266-3.3-1.266-3.3l-11.876-5.288 5.49-12.333s1.017-2.284-1.267-3.3c-2.283-1.018-3.3 1.266-3.3 1.266l-5.491 12.333zM514.357 86.1l-12.968-.907s-2.494-.174-2.669 2.32c-.174 2.493 2.32 2.668 2.32 2.668l12.968.907-.872 12.47s-.174 2.493 2.32 2.667c2.494.175 2.668-2.32 2.668-2.32l.872-12.469 12.968.907s2.494.175 2.669-2.32c.174-2.493-2.32-2.668-2.32-2.668l-12.968-.906.941-13.468s.175-2.493-2.32-2.668c-2.493-.174-2.667 2.32-2.667 2.32l-.942 13.467zM575.39 94.736l-10.518 7.642s-2.023 1.469-.553 3.492c1.47 2.022 3.492.553 3.492.553l10.517-7.642 7.347 10.113s1.47 2.023 3.492.553c2.023-1.47.553-3.492.553-3.492l-7.347-10.112L592.89 88.2s2.023-1.47.553-3.492c-1.47-2.022-3.492-.553-3.492-.553l-10.517 7.641-7.935-10.921s-1.47-2.023-3.492-.553c-2.022 1.47-.553 3.492-.553 3.492l7.935 10.921zM58.725 102.392L46.51 97.946s-2.349-.855-3.204 1.494c-.855 2.35 1.494 3.205 1.494 3.205l12.216 4.446-4.275 11.746s-.855 2.35 1.494 3.204c2.35.855 3.205-1.494 3.205-1.494l4.275-11.746 12.216 4.446s2.35.855 3.204-1.494c.855-2.35-1.494-3.204-1.494-3.204l-12.216-4.446 4.617-12.686s.855-2.35-1.494-3.205c-2.35-.855-3.204 1.495-3.204 1.495l-4.618 12.685zM30.094 140.366l-12.216 4.447s-2.35.855-1.495 3.204c.855 2.35 3.205 1.494 3.205 1.494l12.216-4.446 4.275 11.746s.855 2.35 3.204 1.494c2.35-.855 1.494-3.204 1.494-3.204l-4.275-11.746 12.216-4.447s2.35-.855 1.494-3.204c-.855-2.35-3.204-1.494-3.204-1.494l-12.216 4.446-4.617-12.686s-.855-2.349-3.205-1.494c-2.349.855-1.494 3.205-1.494 3.205l4.618 12.685zM89.5 142h-13s-2.5 0-2.5 2.5 2.5 2.5 2.5 2.5h13v12.5s0 2.5 2.5 2.5 2.5-2.5 2.5-2.5V147h13s2.5 0 2.5-2.5-2.5-2.5-2.5-2.5h-13v-13.5s0-2.5-2.5-2.5-2.5 2.5-2.5 2.5V142zM141.725 124.392l-12.216-4.446s-2.349-.855-3.204 1.494c-.855 2.35 1.494 3.205 1.494 3.205l12.216 4.446-4.275 11.746s-.855 2.35 1.494 3.204c2.35.855 3.205-1.494 3.205-1.494l4.275-11.746 12.216 4.446s2.35.855 3.204-1.494c.855-2.35-1.494-3.204-1.494-3.204l-12.216-4.446 4.617-12.686s.855-2.35-1.494-3.205c-2.35-.855-3.204 1.495-3.204 1.495l-4.618 12.685zM195.725 116.392l-12.216-4.446s-2.349-.855-3.204 1.494c-.855 2.35 1.494 3.205 1.494 3.205l12.216 4.446-4.275 11.746s-.855 2.35 1.494 3.204c2.35.855 3.205-1.494 3.205-1.494l4.275-11.746 12.216 4.446s2.35.855 3.204-1.494c.855-2.35-1.494-3.204-1.494-3.204l-12.216-4.446 4.617-12.686s.855-2.35-1.494-3.205c-2.35-.855-3.204 1.495-3.204 1.495l-4.618 12.685zM191.299 159.982l-11.258 6.5s-2.165 1.25-.915 3.415 3.415.915 3.415.915l11.258-6.5 6.25 10.825s1.25 2.166 3.415.916.915-3.416.915-3.416l-6.25-10.825 11.258-6.5s2.166-1.25.916-3.415-3.416-.915-3.416-.915l-11.258 6.5-6.75-11.691s-1.25-2.165-3.415-.915-.915 3.415-.915 3.415l6.75 11.691zM251.299 141.982l-11.258 6.5s-2.165 1.25-.915 3.415 3.415.915 3.415.915l11.258-6.5 6.25 10.825s1.25 2.166 3.415.916.915-3.416.915-3.416l-6.25-10.825 11.258-6.5s2.166-1.25.916-3.415-3.416-.915-3.416-.915l-11.258 6.5-6.75-11.691s-1.25-2.165-3.415-.915-.915 3.415-.915 3.415l6.75 11.691zM303.432 142.435l-8.356-9.959s-1.607-1.915-3.522-.308c-1.915 1.607-.308 3.522-.308 3.522l8.356 9.959-9.576 8.034s-1.915 1.607-.308 3.523c1.607 1.915 3.522.308 3.522.308l9.576-8.035 8.356 9.958s1.607 1.915 3.522.309c1.915-1.607.308-3.523.308-3.523l-8.356-9.958 10.342-8.678s1.915-1.607.308-3.522c-1.607-1.915-3.522-.308-3.522-.308l-10.342 8.678zM336.496 100.137l-8.356 9.958s-1.607 1.915.308 3.522c1.915 1.607 3.522-.308 3.522-.308l8.356-9.959 9.576 8.035s1.915 1.607 3.522-.308c1.607-1.915-.308-3.522-.308-3.522l-9.576-8.035 8.357-9.958s1.607-1.915-.308-3.522c-1.916-1.607-3.523.308-3.523.308l-8.356 9.958-10.341-8.677s-1.916-1.607-3.522.308c-1.607 1.915.308 3.522.308 3.522l10.341 8.678zM375.557 129.437l-11.876-5.287s-2.284-1.017-3.301 1.267c-1.017 2.284 1.267 3.3 1.267 3.3l11.876 5.288-5.084 11.42s-1.017 2.283 1.267 3.3 3.3-1.267 3.3-1.267l5.085-11.42 11.876 5.288s2.284 1.017 3.3-1.267c1.018-2.284-1.266-3.3-1.266-3.3l-11.876-5.288 5.49-12.333s1.017-2.284-1.267-3.3c-2.283-1.018-3.3 1.266-3.3 1.266l-5.491 12.333zM426.557 105.437l-11.876-5.287s-2.284-1.017-3.301 1.267c-1.017 2.284 1.267 3.3 1.267 3.3l11.876 5.288-5.084 11.42s-1.017 2.283 1.267 3.3 3.3-1.267 3.3-1.267l5.085-11.42 11.876 5.288s2.284 1.017 3.3-1.267c1.018-2.284-1.266-3.3-1.266-3.3l-11.876-5.288 5.49-12.333s1.017-2.284-1.267-3.3c-2.283-1.018-3.3 1.266-3.3 1.266l-5.491 12.333zM417.86 157.225l-5.699-11.684s-1.096-2.247-3.343-1.151c-2.247 1.095-1.15 3.342-1.15 3.342l5.698 11.685-11.235 5.48s-2.247 1.095-1.151 3.342c1.096 2.247 3.343 1.151 3.343 1.151l11.235-5.48 5.699 11.685s1.096 2.247 3.343 1.151c2.247-1.096 1.15-3.343 1.15-3.343l-5.698-11.684 12.134-5.918s2.247-1.096 1.15-3.343c-1.095-2.247-3.342-1.151-3.342-1.151l-12.134 5.918zM475.39 125.736l-10.518 7.642s-2.023 1.469-.553 3.492c1.47 2.022 3.492.553 3.492.553l10.517-7.642 7.347 10.113s1.47 2.023 3.492.553c2.023-1.47.553-3.492.553-3.492l-7.347-10.112 10.517-7.642s2.023-1.47.553-3.492c-1.47-2.022-3.492-.553-3.492-.553l-10.517 7.641-7.935-10.921s-1.47-2.023-3.492-.553c-2.022 1.47-.553 3.492-.553 3.492l7.935 10.921zM535.39 134.736l-10.518 7.642s-2.023 1.469-.553 3.492c1.47 2.022 3.492.553 3.492.553l10.517-7.642 7.347 10.113s1.47 2.023 3.492.553c2.023-1.47.553-3.492.553-3.492l-7.347-10.112 10.517-7.642s2.023-1.47.553-3.492c-1.47-2.022-3.492-.553-3.492-.553l-10.517 7.641-7.935-10.921s-1.47-2.023-3.492-.553c-2.022 1.47-.553 3.492-.553 3.492l7.935 10.921z"/></g></svg>