<svg xmlns="http://www.w3.org/2000/svg" viewBox="0 0 605 180"><title>api</title><g fill-rule="evenodd"><g transform="rotate(-30 66.053 -32.053)"><path d="M0 4.003C0 2.897.89 2 1.997 2h15.006C18.106 2 19 2.894 19 4.003v8.994C19 14.103 18.11 15 17.003 15H1.997A1.998 1.998 0 0 1 0 12.997V4.003zM2 4h15v9H2V4z"/><rect x="3" width="3" height="3" rx="1"/></g><g transform="rotate(-30 57.553 -63.775)"><path d="M0 4.003C0 2.897.89 2 1.997 2h15.006C18.106 2 19 2.894 19 4.003v8.994C19 14.103 18.11 15 17.003 15H1.997A1.998 1.998 0 0 1 0 12.997V4.003zM2 4h15v9H2V4z"/><rect x="13" width="3" height="3" rx="1"/></g><g transform="rotate(-30 41.526 -41.48)"><path d="M0 4.003C0 2.897.898 2 1.99 2h16.02C19.108 2 20 2.894 20 4.003v8.994A2.001 2.001 0 0 1 18.01 15H1.99C.892 15 0 14.106 0 12.997V4.003zM2 4h16v9H2V4z"/><rect x="3" width="3" height="3" rx="1"/><rect x="14" width="3" height="3" rx="1"/></g><g transform="rotate(10 -252.681 372.617)"><path d="M0 4.003C0 2.897.89 2 1.997 2h15.006C18.106 2 19 2.894 19 4.003v8.994C19 14.103 18.11 15 17.003 15H1.997A1.998 1.998 0 0 1 0 12.997V4.003zM2 4h15v9H2V4z"/><rect x="3" width="3" height="3" rx="1"/></g><g transform="rotate(10 -261.181 469.772)"><path d="M0 4.003C0 2.897.89 2 1.997 2h15.006C18.106 2 19 2.894 19 4.003v8.994C19 14.103 18.11 15 17.003 15H1.997A1.998 1.998 0 0 1 0 12.997V4.003zM2 4h15v9H2V4z"/><rect x="13" width="3" height="3" rx="1"/></g><g transform="rotate(10 -193.816 423.837)"><path d="M0 4.003C0 2.897.898 2 1.99 2h16.02C19.108 2 20 2.894 20 4.003v8.994A2.001 2.001 0 0 1 18.01 15H1.99C.892 15 0 14.106 0 12.997V4.003zM2 4h16v9H2V4z"/><rect x="3" width="3" height="3" rx="1"/><rect x="14" width="3" height="3" rx="1"/></g><g transform="rotate(-30 127.847 -195.495)"><path d="M0 4.003C0 2.897.89 2 1.997 2h15.006C18.106 2 19 2.894 19 4.003v8.994C19 14.103 18.11 15 17.003 15H1.997A1.998 1.998 0 0 1 0 12.997V4.003zM2 4h15v9H2V4z"/><rect x="3" width="3" height="3" rx="1"/></g><g transform="rotate(-30 119.347 -227.217)"><path d="M0 4.003C0 2.897.89 2 1.997 2h15.006C18.106 2 19 2.894 19 4.003v8.994C19 14.103 18.11 15 17.003 15H1.997A1.998 1.998 0 0 1 0 12.997V4.003zM2 4h15v9H2V4z"/><rect x="13" width="3" height="3" rx="1"/></g><g transform="rotate(-30 103.32 -204.923)"><path d="M0 4.003C0 2.897.898 2 1.99 2h16.02C19.108 2 20 2.894 20 4.003v8.994A2.001 2.001 0 0 1 18.01 15H1.99C.892 15 0 14.106 0 12.997V4.003zM2 4h16v9H2V4z"/><rect x="3" width="3" height="3" rx="1"/><rect x="14" width="3" height="3" rx="1"/></g><g transform="rotate(20 14.26 530.087)"><path d="M0 4.003C0 2.897.89 2 1.997 2h15.006C18.106 2 19 2.894 19 4.003v8.994C19 14.103 18.11 15 17.003 15H1.997A1.998 1.998 0 0 1 0 12.997V4.003zM2 4h15v9H2V4z"/><rect x="3" width="3" height="3" rx="1"/></g><g transform="rotate(20 5.76 578.293)"><path d="M0 4.003C0 2.897.89 2 1.997 2h15.006C18.106 2 19 2.894 19 4.003v8.994C19 14.103 18.11 15 17.003 15H1.997A1.998 1.998 0 0 1 0 12.997V4.003zM2 4h15v9H2V4z"/><rect x="13" width="3" height="3" rx="1"/></g><g transform="rotate(20 41.452 558.272)"><path d="M0 4.003C0 2.897.898 2 1.99 2h16.02C19.108 2 20 2.894 20 4.003v8.994A2.001 2.001 0 0 1 18.01 15H1.99C.892 15 0 14.106 0 12.997V4.003zM2 4h16v9H2V4z"/><rect x="3" width="3" height="3" rx="1"/><rect x="14" width="3" height="3" rx="1"/></g><g transform="rotate(-30 187.749 -441.444)"><path d="M0 4.003C0 2.897.89 2 1.997 2h15.006C18.106 2 19 2.894 19 4.003v8.994C19 14.103 18.11 15 17.003 15H1.997A1.998 1.998 0 0 1 0 12.997V4.003zM2 4h15v9H2V4z"/><rect x="3" width="3" height="3" rx="1"/></g><g transform="rotate(-30 179.249 -473.167)"><path d="M0 4.003C0 2.897.89 2 1.997 2h15.006C18.106 2 19 2.894 19 4.003v8.994C19 14.103 18.11 15 17.003 15H1.997A1.998 1.998 0 0 1 0 12.997V4.003zM2 4h15v9H2V4z"/><rect x="13" width="3" height="3" rx="1"/></g><g transform="rotate(-30 163.222 -450.872)"><path d="M0 4.003C0 2.897.898 2 1.99 2h16.02C19.108 2 20 2.894 20 4.003v8.994A2.001 2.001 0 0 1 18.01 15H1.99C.892 15 0 14.106 0 12.997V4.003zM2 4h16v9H2V4z"/><rect x="3" width="3" height="3" rx="1"/><rect x="14" width="3" height="3" rx="1"/></g><g transform="rotate(31 124.503 627.5)"><path d="M0 4.003C0 2.897.89 2 1.997 2h15.006C18.106 2 19 2.894 19 4.003v8.994C19 14.103 18.11 15 17.003 15H1.997A1.998 1.998 0 0 1 0 12.997V4.003zM2 4h15v9H2V4z"/><rect x="3" width="3" height="3" rx="1"/></g><g transform="rotate(31 116.003 658.15)"><path d="M0 4.003C0 2.897.89 2 1.997 2h15.006C18.106 2 19 2.894 19 4.003v8.994C19 14.103 18.11 15 17.003 15H1.997A1.998 1.998 0 0 1 0 12.997V4.003zM2 4h15v9H2V4z"/><rect x="13" width="3" height="3" rx="1"/></g><g transform="rotate(31 140.335 647.424)"><path d="M0 4.003C0 2.897.898 2 1.99 2h16.02C19.108 2 20 2.894 20 4.003v8.994A2.001 2.001 0 0 1 18.01 15H1.99C.892 15 0 14.106 0 12.997V4.003zM2 4h16v9H2V4z"/><rect x="3" width="3" height="3" rx="1"/><rect x="14" width="3" height="3" rx="1"/></g><g transform="rotate(-46 262.083 -465.272)"><path d="M0 4.003C0 2.897.89 2 1.997 2h15.006C18.106 2 19 2.894 19 4.003v8.994C19 14.103 18.11 15 17.003 15H1.997A1.998 1.998 0 0 1 0 12.997V4.003zM2 4h15v9H2V4z"/><rect x="3" width="3" height="3" rx="1"/></g><g transform="rotate(-46 253.583 -485.297)"><path d="M0 4.003C0 2.897.89 2 1.997 2h15.006C18.106 2 19 2.894 19 4.003v8.994C19 14.103 18.11 15 17.003 15H1.997A1.998 1.998 0 0 1 0 12.997V4.003zM2 4h15v9H2V4z"/><rect x="13" width="3" height="3" rx="1"/></g><g transform="rotate(-46 245.126 -469.195)"><path d="M0 4.003C0 2.897.898 2 1.99 2h16.02C19.108 2 20 2.894 20 4.003v8.994A2.001 2.001 0 0 1 18.01 15H1.99C.892 15 0 14.106 0 12.997V4.003zM2 4h16v9H2V4z"/><rect x="3" width="3" height="3" rx="1"/><rect x="14" width="3" height="3" rx="1"/></g><g transform="rotate(-36 300.049 -740.994)"><path d="M0 4.003C0 2.897.89 2 1.997 2h15.006C18.106 2 19 2.894 19 4.003v8.994C19 14.103 18.11 15 17.003 15H1.997A1.998 1.998 0 0 1 0 12.997V4.003zM2 4h15v9H2V4z"/><rect x="3" width="3" height="3" rx="1"/></g><g transform="rotate(-36 291.549 -767.154)"><path d="M0 4.003C0 2.897.89 2 1.997 2h15.006C18.106 2 19 2.894 19 4.003v8.994C19 14.103 18.11 15 17.003 15H1.997A1.998 1.998 0 0 1 0 12.997V4.003zM2 4h15v9H2V4z"/><rect x="13" width="3" height="3" rx="1"/></g><g transform="rotate(-36 279.121 -747.804)"><path d="M0 4.003C0 2.897.898 2 1.99 2h16.02C19.108 2 20 2.894 20 4.003v8.994A2.001 2.001 0 0 1 18.01 15H1.99C.892 15 0 14.106 0 12.997V4.003zM2 4h16v9H2V4z"/><rect x="3" width="3" height="3" rx="1"/><rect x="14" width="3" height="3" rx="1"/></g><g transform="rotate(34 206.635 902.995)"><path d="M0 4.003C0 2.897.89 2 1.997 2h15.006C18.106 2 19 2.894 19 4.003v8.994C19 14.103 18.11 15 17.003 15H1.997A1.998 1.998 0 0 1 0 12.997V4.003zM2 4h15v9H2V4z"/><rect x="3" width="3" height="3" rx="1"/></g><g transform="rotate(34 198.135 930.797)"><path d="M0 4.003C0 2.897.89 2 1.997 2h15.006C18.106 2 19 2.894 19 4.003v8.994C19 14.103 18.11 15 17.003 15H1.997A1.998 1.998 0 0 1 0 12.997V4.003zM2 4h15v9H2V4z"/><rect x="13" width="3" height="3" rx="1"/></g><g transform="rotate(34 220.625 921.578)"><path d="M0 4.003C0 2.897.898 2 1.99 2h16.02C19.108 2 20 2.894 20 4.003v8.994A2.001 2.001 0 0 1 18.01 15H1.99C.892 15 0 14.106 0 12.997V4.003zM2 4h16v9H2V4z"/><rect x="3" width="3" height="3" rx="1"/><rect x="14" width="3" height="3" rx="1"/></g><g transform="rotate(20 -190.002 51.514)"><path d="M0 4.003C0 2.897.89 2 1.997 2h15.006C18.106 2 19 2.894 19 4.003v8.994C19 14.103 18.11 15 17.003 15H1.997A1.998 1.998 0 0 1 0 12.997V4.003zM2 4h15v9H2V4z"/><rect x="3" width="3" height="3" rx="1"/></g><g transform="rotate(20 -198.502 99.72)"><path d="M0 4.003C0 2.897.89 2 1.997 2h15.006C18.106 2 19 2.894 19 4.003v8.994C19 14.103 18.11 15 17.003 15H1.997A1.998 1.998 0 0 1 0 12.997V4.003zM2 4h15v9H2V4z"/><rect x="13" width="3" height="3" rx="1"/></g><g transform="rotate(20 -162.81 79.699)"><path d="M0 4.003C0 2.897.898 2 1.99 2h16.02C19.108 2 20 2.894 20 4.003v8.994A2.001 2.001 0 0 1 18.01 15H1.99C.892 15 0 14.106 0 12.997V4.003zM2 4h16v9H2V4z"/><rect x="3" width="3" height="3" rx="1"/><rect x="14" width="3" height="3" rx="1"/></g><g transform="rotate(-30 225.478 -149.335)"><path d="M0 4.003C0 2.897.89 2 1.997 2h15.006C18.106 2 19 2.894 19 4.003v8.994C19 14.103 18.11 15 17.003 15H1.997A1.998 1.998 0 0 1 0 12.997V4.003zM2 4h15v9H2V4z"/><rect x="3" width="3" height="3" rx="1"/></g><g transform="rotate(-30 216.978 -181.057)"><path d="M0 4.003C0 2.897.89 2 1.997 2h15.006C18.106 2 19 2.894 19 4.003v8.994C19 14.103 18.11 15 17.003 15H1.997A1.998 1.998 0 0 1 0 12.997V4.003zM2 4h15v9H2V4z"/><rect x="13" width="3" height="3" rx="1"/></g><g transform="rotate(-30 200.952 -158.763)"><path d="M0 4.003C0 2.897.898 2 1.99 2h16.02C19.108 2 20 2.894 20 4.003v8.994A2.001 2.001 0 0 1 18.01 15H1.99C.892 15 0 14.106 0 12.997V4.003zM2 4h16v9H2V4z"/><rect x="3" width="3" height="3" rx="1"/><rect x="14" width="3" height="3" rx="1"/></g><g><g transform="translate(153 75)"><path d="M0 4.003C0 2.897.89 2 1.997 2h15.006C18.106 2 19 2.894 19 4.003v8.994C19 14.103 18.11 15 17.003 15H1.997A1.998 1.998 0 0 1 0 12.997V4.003zM2 4h15v9H2V4z"/><rect x="3" width="3" height="3" rx="1"/></g><g transform="translate(170 75)"><path d="M0 4.003C0 2.897.89 2 1.997 2h15.006C18.106 2 19 2.894 19 4.003v8.994C19 14.103 18.11 15 17.003 15H1.997A1.998 1.998 0 0 1 0 12.997V4.003zM2 4h15v9H2V4z"/><rect x="13" width="3" height="3" rx="1"/></g><g transform="translate(161 64)"><path d="M0 4.003C0 2.897.898 2 1.99 2h16.02C19.108 2 20 2.894 20 4.003v8.994A2.001 2.001 0 0 1 18.01 15H1.99C.892 15 0 14.106 0 12.997V4.003zM2 4h16v9H2V4z"/><rect x="3" width="3" height="3" rx="1"/><rect x="14" width="3" height="3" rx="1"/></g></g><g><g transform="rotate(-30 263.318 -365.195)"><path d="M0 4.003C0 2.897.89 2 1.997 2h15.006C18.106 2 19 2.894 19 4.003v8.994C19 14.103 18.11 15 17.003 15H1.997A1.998 1.998 0 0 1 0 12.997V4.003zM2 4h15v9H2V4z"/><rect x="3" width="3" height="3" rx="1"/></g><g transform="rotate(-30 254.818 -396.918)"><path d="M0 4.003C0 2.897.89 2 1.997 2h15.006C18.106 2 19 2.894 19 4.003v8.994C19 14.103 18.11 15 17.003 15H1.997A1.998 1.998 0 0 1 0 12.997V4.003zM2 4h15v9H2V4z"/><rect x="13" width="3" height="3" rx="1"/></g><g transform="rotate(-30 238.792 -374.624)"><path d="M0 4.003C0 2.897.898 2 1.99 2h16.02C19.108 2 20 2.894 20 4.003v8.994A2.001 2.001 0 0 1 18.01 15H1.99C.892 15 0 14.106 0 12.997V4.003zM2 4h16v9H2V4z"/><rect x="3" width="3" height="3" rx="1"/><rect x="14" width="3" height="3" rx="1"/></g></g><g><g transform="rotate(-10 717.003 -1455.052)"><path d="M0 4.003C0 2.897.89 2 1.997 2h15.006C18.106 2 19 2.894 19 4.003v8.994C19 14.103 18.11 15 17.003 15H1.997A1.998 1.998 0 0 1 0 12.997V4.003zM2 4h15v9H2V4z"/><rect x="3" width="3" height="3" rx="1"/></g><g transform="rotate(-10 708.503 -1552.207)"><path d="M0 4.003C0 2.897.89 2 1.997 2h15.006C18.106 2 19 2.894 19 4.003v8.994C19 14.103 18.11 15 17.003 15H1.997A1.998 1.998 0 0 1 0 12.997V4.003zM2 4h15v9H2V4z"/><rect x="13" width="3" height="3" rx="1"/></g><g transform="rotate(-10 650.137 -1495.272)"><path d="M0 4.003C0 2.897.898 2 1.99 2h16.02C19.108 2 20 2.894 20 4.003v8.994A2.001 2.001 0 0 1 18.01 15H1.99C.892 15 0 14.106 0 12.997V4.003zM2 4h16v9H2V4z"/><rect x="3" width="3" height="3" rx="1"/><rect x="14" width="3" height="3" rx="1"/></g></g><g><g transform="rotate(-10 501.902 -1629.358)"><path d="M0 4.003C0 2.897.89 2 1.997 2h15.006C18.106 2 19 2.894 19 4.003v8.994C19 14.103 18.11 15 17.003 15H1.997A1.998 1.998 0 0 1 0 12.997V4.003zM2 4h15v9H2V4z"/><rect x="3" width="3" height="3" rx="1"/></g><g transform="rotate(-10 493.402 -1726.513)"><path d="M0 4.003C0 2.897.89 2 1.997 2h15.006C18.106 2 19 2.894 19 4.003v8.994C19 14.103 18.11 15 17.003 15H1.997A1.998 1.998 0 0 1 0 12.997V4.003zM2 4h15v9H2V4z"/><rect x="13" width="3" height="3" rx="1"/></g><g transform="rotate(-10 435.036 -1669.578)"><path d="M0 4.003C0 2.897.898 2 1.99 2h16.02C19.108 2 20 2.894 20 4.003v8.994A2.001 2.001 0 0 1 18.01 15H1.99C.892 15 0 14.106 0 12.997V4.003zM2 4h16v9H2V4z"/><rect x="3" width="3" height="3" rx="1"/><rect x="14" width="3" height="3" rx="1"/></g></g><g><g transform="rotate(-36 312.413 -527.716)"><path d="M0 4.003C0 2.897.89 2 1.997 2h15.006C18.106 2 19 2.894 19 4.003v8.994C19 14.103 18.11 15 17.003 15H1.997A1.998 1.998 0 0 1 0 12.997V4.003zM2 4h15v9H2V4z"/><rect x="3" width="3" height="3" rx="1"/></g><g transform="rotate(-36 303.913 -553.876)"><path d="M0 4.003C0 2.897.89 2 1.997 2h15.006C18.106 2 19 2.894 19 4.003v8.994C19 14.103 18.11 15 17.003 15H1.997A1.998 1.998 0 0 1 0 12.997V4.003zM2 4h15v9H2V4z"/><rect x="13" width="3" height="3" rx="1"/></g><g transform="rotate(-36 291.486 -534.527)"><path d="M0 4.003C0 2.897.898 2 1.99 2h16.02C19.108 2 20 2.894 20 4.003v8.994A2.001 2.001 0 0 1 18.01 15H1.99C.892 15 0 14.106 0 12.997V4.003zM2 4h16v9H2V4z"/><rect x="3" width="3" height="3" rx="1"/><rect x="14" width="3" height="3" rx="1"/></g></g><g><g transform="rotate(24 80.895 1087.69)"><path d="M0 4.003C0 2.897.89 2 1.997 2h15.006C18.106 2 19 2.894 19 4.003v8.994C19 14.103 18.11 15 17.003 15H1.997A1.998 1.998 0 0 1 0 12.997V4.003zM2 4h15v9H2V4z"/><rect x="3" width="3" height="3" rx="1"/></g><g transform="rotate(24 72.395 1127.679)"><path d="M0 4.003C0 2.897.89 2 1.997 2h15.006C18.106 2 19 2.894 19 4.003v8.994C19 14.103 18.11 15 17.003 15H1.997A1.998 1.998 0 0 1 0 12.997V4.003zM2 4h15v9H2V4z"/><rect x="13" width="3" height="3" rx="1"/></g><g transform="rotate(24 102.77 1112.008)"><path d="M0 4.003C0 2.897.898 2 1.99 2h16.02C19.108 2 20 2.894 20 4.003v8.994A2.001 2.001 0 0 1 18.01 15H1.99C.892 15 0 14.106 0 12.997V4.003zM2 4h16v9H2V4z"/><rect x="3" width="3" height="3" rx="1"/><rect x="14" width="3" height="3" rx="1"/></g></g><g><g transform="rotate(4 -967.859 7185.745)"><path d="M0 4.003C0 2.897.89 2 1.997 2h15.006C18.106 2 19 2.894 19 4.003v8.994C19 14.103 18.11 15 17.003 15H1.997A1.998 1.998 0 0 1 0 12.997V4.003zM2 4h15v9H2V4z"/><rect x="3" width="3" height="3" rx="1"/></g><g transform="rotate(4 -976.359 7429.153)"><path d="M0 4.003C0 2.897.89 2 1.997 2h15.006C18.106 2 19 2.894 19 4.003v8.994C19 14.103 18.11 15 17.003 15H1.997A1.998 1.998 0 0 1 0 12.997V4.003zM2 4h15v9H2V4z"/><rect x="13" width="3" height="3" rx="1"/></g><g transform="rotate(4 -814.36 7305.79)"><path d="M0 4.003C0 2.897.898 2 1.99 2h16.02C19.108 2 20 2.894 20 4.003v8.994A2.001 2.001 0 0 1 18.01 15H1.99C.892 15 0 14.106 0 12.997V4.003zM2 4h16v9H2V4z"/><rect x="3" width="3" height="3" rx="1"/><rect x="14" width="3" height="3" rx="1"/></g></g><g><g transform="rotate(-36 441.229 -814.213)"><path d="M0 4.003C0 2.897.89 2 1.997 2h15.006C18.106 2 19 2.894 19 4.003v8.994C19 14.103 18.11 15 17.003 15H1.997A1.998 1.998 0 0 1 0 12.997V4.003zM2 4h15v9H2V4z"/><rect x="3" width="3" height="3" rx="1"/></g><g transform="rotate(-36 432.729 -840.373)"><path d="M0 4.003C0 2.897.89 2 1.997 2h15.006C18.106 2 19 2.894 19 4.003v8.994C19 14.103 18.11 15 17.003 15H1.997A1.998 1.998 0 0 1 0 12.997V4.003zM2 4h15v9H2V4z"/><rect x="13" width="3" height="3" rx="1"/></g><g transform="rotate(-36 420.302 -821.023)"><path d="M0 4.003C0 2.897.898 2 1.99 2h16.02C19.108 2 20 2.894 20 4.003v8.994A2.001 2.001 0 0 1 18.01 15H1.99C.892 15 0 14.106 0 12.997V4.003zM2 4h16v9H2V4z"/><rect x="3" width="3" height="3" rx="1"/><rect x="14" width="3" height="3" rx="1"/></g></g><g><g transform="rotate(20 -253.235 173.768)"><path d="M0 4.003C0 2.897.89 2 1.997 2h15.006C18.106 2 19 2.894 19 4.003v8.994C19 14.103 18.11 15 17.003 15H1.997A1.998 1.998 0 0 1 0 12.997V4.003zM2 4h15v9H2V4z"/><rect x="3" width="3" height="3" rx="1"/></g><g transform="rotate(20 -261.735 221.974)"><path d="M0 4.003C0 2.897.89 2 1.997 2h15.006C18.106 2 19 2.894 19 4.003v8.994C19 14.103 18.11 15 17.003 15H1.997A1.998 1.998 0 0 1 0 12.997V4.003zM2 4h15v9H2V4z"/><rect x="13" width="3" height="3" rx="1"/></g><g transform="rotate(20 -226.043 201.953)"><path d="M0 4.003C0 2.897.898 2 1.99 2h16.02C19.108 2 20 2.894 20 4.003v8.994A2.001 2.001 0 0 1 18.01 15H1.99C.892 15 0 14.106 0 12.997V4.003zM2 4h16v9H2V4z"/><rect x="3" width="3" height="3" rx="1"/><rect x="14" width="3" height="3" rx="1"/></g></g><g><g transform="rotate(-20 420.825 28.801)"><path d="M0 4.003C0 2.897.89 2 1.997 2h15.006C18.106 2 19 2.894 19 4.003v8.994C19 14.103 18.11 15 17.003 15H1.997A1.998 1.998 0 0 1 0 12.997V4.003zM2 4h15v9H2V4z"/><rect x="3" width="3" height="3" rx="1"/></g><g transform="rotate(-20 412.325 -19.405)"><path d="M0 4.003C0 2.897.89 2 1.997 2h15.006C18.106 2 19 2.894 19 4.003v8.994C19 14.103 18.11 15 17.003 15H1.997A1.998 1.998 0 0 1 0 12.997V4.003zM2 4h15v9H2V4z"/><rect x="13" width="3" height="3" rx="1"/></g><g transform="rotate(-20 385.633 11.616)"><path d="M0 4.003C0 2.897.898 2 1.99 2h16.02C19.108 2 20 2.894 20 4.003v8.994A2.001 2.001 0 0 1 18.01 15H1.99C.892 15 0 14.106 0 12.997V4.003zM2 4h16v9H2V4z"/><rect x="3" width="3" height="3" rx="1"/><rect x="14" width="3" height="3" rx="1"/></g></g><g><g transform="translate(74 142)"><path d="M0 4.003C0 2.897.89 2 1.997 2h15.006C18.106 2 19 2.894 19 4.003v8.994C19 14.103 18.11 15 17.003 15H1.997A1.998 1.998 0 0 1 0 12.997V4.003zM2 4h15v9H2V4z"/><rect x="3" width="3" height="3" rx="1"/></g><g transform="translate(91 142)"><path d="M0 4.003C0 2.897.89 2 1.997 2h15.006C18.106 2 19 2.894 19 4.003v8.994C19 14.103 18.11 15 17.003 15H1.997A1.998 1.998 0 0 1 0 12.997V4.003zM2 4h15v9H2V4z"/><rect x="13" width="3" height="3" rx="1"/></g><g transform="translate(82 131)"><path d="M0 4.003C0 2.897.898 2 1.99 2h16.02C19.108 2 20 2.894 20 4.003v8.994A2.001 2.001 0 0 1 18.01 15H1.99C.892 15 0 14.106 0 12.997V4.003zM2 4h16v9H2V4z"/><rect x="3" width="3" height="3" rx="1"/><rect x="14" width="3" height="3" rx="1"/></g></g><g><g transform="rotate(20 -274.12 420.126)"><path d="M0 4.003C0 2.897.89 2 1.997 2h15.006C18.106 2 19 2.894 19 4.003v8.994C19 14.103 18.11 15 17.003 15H1.997A1.998 1.998 0 0 1 0 12.997V4.003zM2 4h15v9H2V4z"/><rect x="3" width="3" height="3" rx="1"/></g><g transform="rotate(20 -282.62 468.332)"><path d="M0 4.003C0 2.897.89 2 1.997 2h15.006C18.106 2 19 2.894 19 4.003v8.994C19 14.103 18.11 15 17.003 15H1.997A1.998 1.998 0 0 1 0 12.997V4.003zM2 4h15v9H2V4z"/><rect x="13" width="3" height="3" rx="1"/></g><g transform="rotate(20 -246.927 448.312)"><path d="M0 4.003C0 2.897.898 2 1.99 2h16.02C19.108 2 20 2.894 20 4.003v8.994A2.001 2.001 0 0 1 18.01 15H1.99C.892 15 0 14.106 0 12.997V4.003zM2 4h16v9H2V4z"/><rect x="3" width="3" height="3" rx="1"/><rect x="14" width="3" height="3" rx="1"/></g></g><g><g transform="rotate(20 -224.434 569.251)"><path d="M0 4.003C0 2.897.89 2 1.997 2h15.006C18.106 2 19 2.894 19 4.003v8.994C19 14.103 18.11 15 17.003 15H1.997A1.998 1.998 0 0 1 0 12.997V4.003zM2 4h15v9H2V4z"/><rect x="3" width="3" height="3" rx="1"/></g><g transform="rotate(20 -232.934 617.457)"><path d="M0 4.003C0 2.897.89 2 1.997 2h15.006C18.106 2 19 2.894 19 4.003v8.994C19 14.103 18.11 15 17.003 15H1.997A1.998 1.998 0 0 1 0 12.997V4.003zM2 4h15v9H2V4z"/><rect x="13" width="3" height="3" rx="1"/></g><g transform="rotate(20 -197.242 597.436)"><path d="M0 4.003C0 2.897.898 2 1.99 2h16.02C19.108 2 20 2.894 20 4.003v8.994A2.001 2.001 0 0 1 18.01 15H1.99C.892 15 0 14.106 0 12.997V4.003zM2 4h16v9H2V4z"/><rect x="3" width="3" height="3" rx="1"/><rect x="14" width="3" height="3" rx="1"/></g></g><g><g transform="rotate(-30 401.93 -248.054)"><path d="M0 4.003C0 2.897.89 2 1.997 2h15.006C18.106 2 19 2.894 19 4.003v8.994C19 14.103 18.11 15 17.003 15H1.997A1.998 1.998 0 0 1 0 12.997V4.003zM2 4h15v9H2V4z"/><rect x="3" width="3" height="3" rx="1"/></g><g transform="rotate(-30 393.43 -279.777)"><path d="M0 4.003C0 2.897.89 2 1.997 2h15.006C18.106 2 19 2.894 19 4.003v8.994C19 14.103 18.11 15 17.003 15H1.997A1.998 1.998 0 0 1 0 12.997V4.003zM2 4h15v9H2V4z"/><rect x="13" width="3" height="3" rx="1"/></g><g transform="rotate(-30 377.404 -257.483)"><path d="M0 4.003C0 2.897.898 2 1.99 2h16.02C19.108 2 20 2.894 20 4.003v8.994A2.001 2.001 0 0 1 18.01 15H1.99C.892 15 0 14.106 0 12.997V4.003zM2 4h16v9H2V4z"/><rect x="3" width="3" height="3" rx="1"/><rect x="14" width="3" height="3" rx="1"/></g></g><g><g transform="rotate(-30 398.342 -369.016)"><path d="M0 4.003C0 2.897.89 2 1.997 2h15.006C18.106 2 19 2.894 19 4.003v8.994C19 14.103 18.11 15 17.003 15H1.997A1.998 1.998 0 0 1 0 12.997V4.003zM2 4h15v9H2V4z"/><rect x="3" width="3" height="3" rx="1"/></g><g transform="rotate(-30 389.842 -400.738)"><path d="M0 4.003C0 2.897.89 2 1.997 2h15.006C18.106 2 19 2.894 19 4.003v8.994C19 14.103 18.11 15 17.003 15H1.997A1.998 1.998 0 0 1 0 12.997V4.003zM2 4h15v9H2V4z"/><rect x="13" width="3" height="3" rx="1"/></g><g transform="rotate(-30 373.815 -378.444)"><path d="M0 4.003C0 2.897.898 2 1.99 2h16.02C19.108 2 20 2.894 20 4.003v8.994A2.001 2.001 0 0 1 18.01 15H1.99C.892 15 0 14.106 0 12.997V4.003zM2 4h16v9H2V4z"/><rect x="3" width="3" height="3" rx="1"/><rect x="14" width="3" height="3" rx="1"/></g></g><g><g transform="rotate(50 6.74 379.954)"><path d="M0 4.003C0 2.897.89 2 1.997 2h15.006C18.106 2 19 2.894 19 4.003v8.994C19 14.103 18.11 15 17.003 15H1.997A1.998 1.998 0 0 1 0 12.997V4.003zM2 4h15v9H2V4z"/><rect x="3" width="3" height="3" rx="1"/></g><g transform="rotate(50 -1.76 398.182)"><path d="M0 4.003C0 2.897.89 2 1.997 2h15.006C18.106 2 19 2.894 19 4.003v8.994C19 14.103 18.11 15 17.003 15H1.997A1.998 1.998 0 0 1 0 12.997V4.003zM2 4h15v9H2V4z"/><rect x="13" width="3" height="3" rx="1"/></g><g transform="rotate(50 14.535 394.032)"><path d="M0 4.003C0 2.897.898 2 1.99 2h16.02C19.108 2 20 2.894 20 4.003v8.994A2.001 2.001 0 0 1 18.01 15H1.99C.892 15 0 14.106 0 12.997V4.003zM2 4h16v9H2V4z"/><rect x="3" width="3" height="3" rx="1"/><rect x="14" width="3" height="3" rx="1"/></g></g><g><g transform="rotate(-50 283.37 -294.121)"><path d="M0 4.003C0 2.897.89 2 1.997 2h15.006C18.106 2 19 2.894 19 4.003v8.994C19 14.103 18.11 15 17.003 15H1.997A1.998 1.998 0 0 1 0 12.997V4.003zM2 4h15v9H2V4z"/><rect x="3" width="3" height="3" rx="1"/></g><g transform="rotate(-50 274.87 -312.35)"><path d="M0 4.003C0 2.897.89 2 1.997 2h15.006C18.106 2 19 2.894 19 4.003v8.994C19 14.103 18.11 15 17.003 15H1.997A1.998 1.998 0 0 1 0 12.997V4.003zM2 4h15v9H2V4z"/><rect x="13" width="3" height="3" rx="1"/></g><g transform="rotate(-50 267.575 -297.2)"><path d="M0 4.003C0 2.897.898 2 1.99 2h16.02C19.108 2 20 2.894 20 4.003v8.994A2.001 2.001 0 0 1 18.01 15H1.99C.892 15 0 14.106 0 12.997V4.003zM2 4h16v9H2V4z"/><rect x="3" width="3" height="3" rx="1"/><rect x="14" width="3" height="3" rx="1"/></g></g><g><g transform="rotate(24 -108.949 911.686)"><path d="M0 4.003C0 2.897.89 2 1.997 2h15.006C18.106 2 19 2.894 19 4.003v8.994C19 14.103 18.11 15 17.003 15H1.997A1.998 1.998 0 0 1 0 12.997V4.003zM2 4h15v9H2V4z"/><rect x="3" width="3" height="3" rx="1"/></g><g transform="rotate(24 -117.449 951.675)"><path d="M0 4.003C0 2.897.89 2 1.997 2h15.006C18.106 2 19 2.894 19 4.003v8.994C19 14.103 18.11 15 17.003 15H1.997A1.998 1.998 0 0 1 0 12.997V4.003zM2 4h15v9H2V4z"/><rect x="13" width="3" height="3" rx="1"/></g><g transform="rotate(24 -87.073 936.004)"><path d="M0 4.003C0 2.897.898 2 1.99 2h16.02C19.108 2 20 2.894 20 4.003v8.994A2.001 2.001 0 0 1 18.01 15H1.99C.892 15 0 14.106 0 12.997V4.003zM2 4h16v9H2V4z"/><rect x="3" width="3" height="3" rx="1"/><rect x="14" width="3" height="3" rx="1"/></g></g><g><g transform="rotate(24 -26.993 1019.654)"><path d="M0 4.003C0 2.897.89 2 1.997 2h15.006C18.106 2 19 2.894 19 4.003v8.994C19 14.103 18.11 15 17.003 15H1.997A1.998 1.998 0 0 1 0 12.997V4.003zM2 4h15v9H2V4z"/><rect x="3" width="3" height="3" rx="1"/></g><g transform="rotate(24 -35.493 1059.643)"><path d="M0 4.003C0 2.897.89 2 1.997 2h15.006C18.106 2 19 2.894 19 4.003v8.994C19 14.103 18.11 15 17.003 15H1.997A1.998 1.998 0 0 1 0 12.997V4.003zM2 4h15v9H2V4z"/><rect x="13" width="3" height="3" rx="1"/></g><g transform="rotate(24 -5.118 1043.972)"><path d="M0 4.003C0 2.897.898 2 1.99 2h16.02C19.108 2 20 2.894 20 4.003v8.994A2.001 2.001 0 0 1 18.01 15H1.99C.892 15 0 14.106 0 12.997V4.003zM2 4h16v9H2V4z"/><rect x="3" width="3" height="3" rx="1"/><rect x="14" width="3" height="3" rx="1"/></g></g><g><g transform="rotate(64 90.874 400.568)"><path d="M0 4.003C0 2.897.89 2 1.997 2h15.006C18.106 2 19 2.894 19 4.003v8.994C19 14.103 18.11 15 17.003 15H1.997A1.998 1.998 0 0 1 0 12.997V4.003zM2 4h15v9H2V4z"/><rect x="3" width="3" height="3" rx="1"/></g><g transform="rotate(64 82.374 414.17)"><path d="M0 4.003C0 2.897.89 2 1.997 2h15.006C18.106 2 19 2.894 19 4.003v8.994C19 14.103 18.11 15 17.003 15H1.997A1.998 1.998 0 0 1 0 12.997V4.003zM2 4h15v9H2V4z"/><rect x="13" width="3" height="3" rx="1"/></g><g transform="rotate(64 95.676 412.47)"><path d="M0 4.003C0 2.897.898 2 1.99 2h16.02C19.108 2 20 2.894 20 4.003v8.994A2.001 2.001 0 0 1 18.01 15H1.99C.892 15 0 14.106 0 12.997V4.003zM2 4h16v9H2V4z"/><rect x="3" width="3" height="3" rx="1"/><rect x="14" width="3" height="3" rx="1"/></g></g><g><g transform="rotate(-36 438.933 -644.828)"><path d="M0 4.003C0 2.897.89 2 1.997 2h15.006C18.106 2 19 2.894 19 4.003v8.994C19 14.103 18.11 15 17.003 15H1.997A1.998 1.998 0 0 1 0 12.997V4.003zM2 4h15v9H2V4z"/><rect x="3" width="3" height="3" rx="1"/></g><g transform="rotate(-36 430.433 -670.989)"><path d="M0 4.003C0 2.897.89 2 1.997 2h15.006C18.106 2 19 2.894 19 4.003v8.994C19 14.103 18.11 15 17.003 15H1.997A1.998 1.998 0 0 1 0 12.997V4.003zM2 4h15v9H2V4z"/><rect x="13" width="3" height="3" rx="1"/></g><g transform="rotate(-36 418.006 -651.64)"><path d="M0 4.003C0 2.897.898 2 1.99 2h16.02C19.108 2 20 2.894 20 4.003v8.994A2.001 2.001 0 0 1 18.01 15H1.99C.892 15 0 14.106 0 12.997V4.003zM2 4h16v9H2V4z"/><rect x="3" width="3" height="3" rx="1"/><rect x="14" width="3" height="3" rx="1"/></g></g><g><g transform="rotate(-36 482.782 -732.659)"><path d="M0 4.003C0 2.897.89 2 1.997 2h15.006C18.106 2 19 2.894 19 4.003v8.994C19 14.103 18.11 15 17.003 15H1.997A1.998 1.998 0 0 1 0 12.997V4.003zM2 4h15v9H2V4z"/><rect x="3" width="3" height="3" rx="1"/></g><g transform="rotate(-36 474.282 -758.82)"><path d="M0 4.003C0 2.897.89 2 1.997 2h15.006C18.106 2 19 2.894 19 4.003v8.994C19 14.103 18.11 15 17.003 15H1.997A1.998 1.998 0 0 1 0 12.997V4.003zM2 4h15v9H2V4z"/><rect x="13" width="3" height="3" rx="1"/></g><g transform="rotate(-36 461.855 -739.47)"><path d="M0 4.003C0 2.897.898 2 1.99 2h16.02C19.108 2 20 2.894 20 4.003v8.994A2.001 2.001 0 0 1 18.01 15H1.99C.892 15 0 14.106 0 12.997V4.003zM2 4h16v9H2V4z"/><rect x="3" width="3" height="3" rx="1"/><rect x="14" width="3" height="3" rx="1"/></g></g></g></svg>