<svg xmlns="http://www.w3.org/2000/svg" viewBox="0 0 605 180"><title>bitbucket</title><g fill-rule="evenodd"><path d="M35.415 11.992c-4.752 2.733-9.08 4.125-9.664 3.107-.586-1.017 2.793-4.057 7.545-6.79 4.752-2.734 9.079-4.126 9.664-3.108.585 1.017-2.793 4.057-7.545 6.79zm7.772 13.456c-2.357 1.36-5.377.542-6.746-1.829-1.369-2.371-.568-5.396 1.789-6.756 2.357-1.361 5.377-.542 6.746 1.829 1.368 2.37.568 5.396-1.79 6.756zM32.03 6.126c-7.39 4.266-12.27 9.748-10.837 12.23.378.653 7.4 9.095 10.185 12.443 1.25 1.501 6.942 1.473 13.543-2.338l-.005-.024.012.02c6.6-3.81 9.471-8.727 8.796-10.56-1.507-4.085-5.307-14.388-5.684-15.041-1.433-2.482-8.62-.997-16.01 3.27zm22.32 16.377a.718.718 0 0 0-.284.358s-1.786 4.542-7.76 7.991c-5.975 3.45-10.8 2.725-10.8 2.725s-.248-.051-.452.066c-.244.141-.38.44-.17.803a.742.742 0 0 0 .076.108c2.108 2.466 3.615 4.21 3.853 4.47 1.621 1.774 6.458 1.026 11.217-1.721 4.759-2.748 7.825-6.563 7.1-8.854-.107-.336-.864-2.513-1.946-5.571a.72.72 0 0 0-.055-.12c-.21-.364-.536-.396-.78-.255zm-11.509-2.581a2.477 2.477 0 0 1-.896 3.386 2.477 2.477 0 0 1-3.38-.917 2.477 2.477 0 0 1 .895-3.386 2.477 2.477 0 0 1 3.381.917zM79.7 43.49c-5.398-.961-9.607-2.677-9.401-3.832.205-1.156 4.748-1.313 10.145-.353 5.397.961 9.606 2.676 9.4 3.832-.205 1.156-4.747 1.313-10.145.352zm-2.697 15.303c-2.68-.472-4.466-3.041-3.991-5.737.475-2.696 3.033-4.499 5.713-4.026 2.68.473 4.467 3.04 3.992 5.737-.476 2.696-3.034 4.499-5.714 4.026zm3.875-21.973v.001c-8.403-1.482-15.665-.42-16.163 2.403-.131.743-.178 11.724-.196 16.078-.008 1.953 4.37 5.59 11.877 6.914l.012-.02-.004.022c7.506 1.323 12.865-.597 13.525-2.435 1.472-4.099 5.184-14.433 5.315-15.176.498-2.822-5.963-6.305-14.366-7.787zm6.57 26.893c-.232-.041-.447.092-.447.092s-4.287 2.331-11.081 1.133-10.025-4.855-10.025-4.855-.157-.198-.389-.24c-.277-.048-.573.093-.646.506a.742.742 0 0 0-.01.133c.029 3.244.062 5.548.077 5.9.102 2.401 4.288 4.937 9.7 5.891 5.411.954 10.212.003 11.129-2.218.135-.326.954-2.48 2.091-5.518a.72.72 0 0 0 .035-.128c.073-.413-.157-.647-.434-.696zm-7.156-9.375a2.477 2.477 0 0 1-2.864 2.018 2.477 2.477 0 0 1-2-2.875 2.477 2.477 0 0 1 2.863-2.018 2.477 2.477 0 0 1 2 2.875zM125.415 20.992c-4.752 2.733-9.08 4.125-9.664 3.107-.586-1.017 2.793-4.057 7.545-6.79 4.752-2.734 9.079-4.126 9.664-3.108.585 1.017-2.793 4.057-7.545 6.79zm7.772 13.456c-2.357 1.36-5.377.542-6.746-1.829-1.369-2.371-.568-5.396 1.789-6.756 2.357-1.361 5.377-.542 6.746 1.829 1.368 2.37.568 5.396-1.79 6.756zM122.03 15.126c-7.39 4.266-12.27 9.748-10.837 12.23.378.653 7.4 9.095 10.185 12.443 1.25 1.501 6.942 1.473 13.543-2.338l-.005-.024.012.02c6.6-3.81 9.471-8.727 8.796-10.56-1.507-4.085-5.307-14.388-5.684-15.041-1.433-2.482-8.62-.997-16.01 3.27zm22.32 16.377a.718.718 0 0 0-.284.358s-1.786 4.542-7.76 7.991c-5.975 3.45-10.8 2.725-10.8 2.725s-.248-.051-.452.066c-.244.141-.38.44-.17.803a.742.742 0 0 0 .076.108c2.108 2.466 3.615 4.21 3.853 4.47 1.621 1.774 6.458 1.026 11.217-1.721 4.759-2.748 7.825-6.563 7.1-8.854-.107-.336-.864-2.513-1.946-5.571a.72.72 0 0 0-.055-.12c-.21-.364-.536-.396-.78-.255zm-11.509-2.581a2.477 2.477 0 0 1-.896 3.386 2.477 2.477 0 0 1-3.38-.917 2.477 2.477 0 0 1 .895-3.386 2.477 2.477 0 0 1 3.381.917zM201.758 24.404c-5.148-1.883-8.995-4.303-8.592-5.405.403-1.103 4.904-.47 10.052 1.414 5.149 1.884 8.996 4.303 8.593 5.406-.404 1.102-4.904.468-10.053-1.415zm-5.312 14.603c-2.557-.93-3.87-3.77-2.935-6.343.937-2.572 3.769-3.903 6.326-2.972 2.557.93 3.871 3.77 2.935 6.343-.937 2.572-3.769 3.903-6.326 2.972zm7.631-20.966c-8.018-2.918-15.354-3.132-16.334-.44-.259.71-2.211 11.515-2.986 15.8-.347 1.922 3.334 6.265 10.496 8.872l.016-.019-.008.022c7.162 2.607 12.773 1.646 13.742-.05 2.162-3.78 7.612-13.313 7.87-14.022.98-2.693-4.778-7.244-12.796-10.163zm1.8 27.625c-.22-.08-.455.013-.455.013s-4.627 1.552-11.11-.808c-6.483-2.36-9.03-6.522-9.03-6.522s-.12-.223-.341-.303c-.265-.097-.58-.009-.724.385a.742.742 0 0 0-.034.129c-.534 3.2-.901 5.475-.948 5.824-.316 2.382 3.366 5.607 8.53 7.486 5.163 1.88 10.056 1.776 11.345-.252.19-.298 1.37-2.277 3.018-5.071a.72.72 0 0 0 .056-.12c.144-.394-.042-.665-.306-.76zm-5.42-10.475a2.477 2.477 0 0 1-3.17 1.49 2.477 2.477 0 0 1-1.47-3.179 2.477 2.477 0 0 1 3.17-1.49 2.477 2.477 0 0 1 1.47 3.18zM256.415 17.992c-4.752 2.733-9.08 4.125-9.664 3.107-.586-1.017 2.793-4.057 7.545-6.79 4.752-2.734 9.079-4.126 9.664-3.108.585 1.017-2.793 4.057-7.545 6.79zm7.772 13.456c-2.357 1.36-5.377.542-6.746-1.829-1.369-2.371-.568-5.396 1.789-6.756 2.357-1.361 5.377-.542 6.746 1.829 1.368 2.37.568 5.396-1.79 6.756zM253.03 12.126c-7.39 4.266-12.27 9.748-10.837 12.23.378.653 7.4 9.095 10.185 12.443 1.25 1.501 6.942 1.473 13.543-2.338l-.005-.024.012.02c6.6-3.81 9.471-8.727 8.796-10.56-1.507-4.085-5.307-14.388-5.684-15.041-1.433-2.482-8.62-.997-16.01 3.27zm22.32 16.377a.718.718 0 0 0-.284.358s-1.786 4.542-7.76 7.991c-5.975 3.45-10.8 2.725-10.8 2.725s-.248-.051-.452.066c-.244.141-.38.44-.17.803a.742.742 0 0 0 .076.108c2.108 2.466 3.615 4.21 3.853 4.47 1.621 1.774 6.458 1.026 11.217-1.721 4.759-2.748 7.825-6.563 7.1-8.854-.107-.336-.864-2.513-1.946-5.571a.72.72 0 0 0-.055-.12c-.21-.364-.536-.396-.78-.255zm-11.509-2.581a2.477 2.477 0 0 1-.896 3.386 2.477 2.477 0 0 1-3.38-.917 2.477 2.477 0 0 1 .895-3.386 2.477 2.477 0 0 1 3.381.917zM360.72 26.606c-4.694-2.831-8.009-5.94-7.403-6.946.606-1.005 4.903.476 9.598 3.307 4.695 2.831 8.01 5.94 7.403 6.946-.606 1.005-4.903-.476-9.598-3.307zm-8 13.321c-2.333-1.401-3.081-4.44-1.671-6.786 1.41-2.347 4.444-3.113 6.776-1.712 2.333 1.402 3.08 4.44 1.67 6.787-1.41 2.346-4.443 3.113-6.776 1.711zm11.49-19.125c-7.313-4.394-14.474-6.005-15.95-3.549-.389.647-4.368 10.882-5.945 14.94-.708 1.821 2.077 6.787 8.61 10.712l.019-.015-.012.02c6.533 3.925 12.225 4.052 13.5 2.573 2.843-3.298 10.012-11.616 10.4-12.263 1.476-2.457-3.307-8.023-10.621-12.418zm-3.503 27.461c-.202-.121-.45-.075-.45-.075s-4.838.64-10.752-2.912c-5.913-3.553-7.619-8.126-7.619-8.126s-.075-.241-.277-.362c-.241-.145-.568-.12-.784.24a.742.742 0 0 0-.058.12c-1.135 3.039-1.93 5.202-2.042 5.536-.765 2.278 2.234 6.146 6.944 8.976 4.71 2.83 9.534 3.663 11.185 1.918.243-.257 1.78-1.974 3.93-4.403a.72.72 0 0 0 .079-.107c.216-.36.085-.66-.156-.805zm-3.322-11.317a2.477 2.477 0 0 1-3.396.858 2.477 2.477 0 0 1-.837-3.401 2.477 2.477 0 0 1 3.396-.858 2.477 2.477 0 0 1 .837 3.401zM420.23 27.463c-3.814 3.938-7.59 6.468-8.433 5.651-.843-.816 1.566-4.67 5.381-8.608 3.815-3.937 7.59-6.467 8.433-5.65.843.816-1.566 4.67-5.38 8.607zm11.18 10.793c-1.89 1.958-5.02 2.003-6.988.101-1.97-1.902-2.033-5.03-.143-6.987 1.89-1.958 5.019-2.003 6.988-.101 1.97 1.901 2.034 5.03.143 6.987zm-16.05-15.499h.001c-5.928 6.138-9.108 12.753-7.046 14.743.543.525 9.62 6.704 13.22 9.154 1.614 1.099 7.079-.497 12.373-5.98l-.01-.021.016.015c5.295-5.482 6.7-11 5.545-12.574-2.575-3.513-9.067-12.369-9.61-12.893-2.061-1.99-8.561 1.418-14.488 7.556zm25.97 9.591c-.164.17-.175.422-.175.422s-.464 4.858-5.256 9.82c-4.793 4.963-9.631 5.597-9.631 5.597s-.252.019-.416.188c-.196.203-.244.527.058.819.032.03.067.058.103.083 2.706 1.79 4.635 3.05 4.936 3.235 2.047 1.258 6.49-.794 10.308-4.747 3.817-3.953 5.713-8.465 4.384-10.467-.195-.294-1.523-2.178-3.406-4.82a.72.72 0 0 0-.086-.1c-.302-.292-.624-.232-.82-.03zm-11.774.69a2.477 2.477 0 0 1 .071 3.503 2.477 2.477 0 0 1-3.502.05 2.477 2.477 0 0 1-.072-3.501 2.477 2.477 0 0 1 3.503-.051zM501.581 17.097c-4.44 3.215-8.598 5.051-9.286 4.1-.689-.95 2.353-4.327 6.794-7.542 4.44-3.215 8.597-5.052 9.286-4.1.688.95-2.354 4.327-6.794 7.542zm9.136 12.57c-2.201 1.6-5.29 1.1-6.9-1.114-1.609-2.215-1.129-5.307 1.073-6.906 2.201-1.6 5.29-1.101 6.9 1.114 1.609 2.214 1.129 5.307-1.073 6.906zm-13.114-18.05c-6.903 5.015-11.184 10.977-9.5 13.295.444.611 8.31 8.273 11.43 11.31 1.4 1.363 7.058.74 13.224-3.74l-.007-.023.014.019c6.166-4.48 8.507-9.67 7.644-11.421-1.926-3.906-6.781-13.755-7.225-14.366-1.684-2.318-8.677-.09-15.58 4.925zM521.51 25.57c-.19.139-.244.386-.244.386s-1.301 4.703-6.882 8.758c-5.582 4.055-10.457 3.839-10.457 3.839s-.251-.025-.442.113c-.228.166-.332.477-.085.816.026.036.056.07.087.1 2.355 2.232 4.035 3.809 4.3 4.043 1.797 1.594 6.529.345 10.975-2.885 4.445-3.23 7.096-7.344 6.135-9.547-.141-.323-1.121-2.409-2.517-5.337a.72.72 0 0 0-.067-.115c-.247-.339-.575-.336-.803-.17zm-11.714-1.364a2.477 2.477 0 0 1-.538 3.461 2.477 2.477 0 0 1-3.458-.558 2.477 2.477 0 0 1 .538-3.461 2.477 2.477 0 0 1 3.458.558zM559.941 40.964c-4.54-3.073-7.687-6.352-7.03-7.324.658-.972 4.872.731 9.412 3.804 4.54 3.073 7.688 6.352 7.03 7.324-.658.972-4.872-.732-9.412-3.804zm-8.687 12.884c-2.256-1.522-2.844-4.595-1.313-6.865 1.53-2.27 4.6-2.876 6.856-1.354 2.257 1.522 2.844 4.595 1.313 6.865-1.53 2.27-4.6 2.876-6.856 1.354zM563.73 35.35c-7.074-4.772-14.14-6.755-15.743-4.38-.422.627-4.93 10.639-6.719 14.61-.801 1.78 1.72 6.885 8.038 11.147l.02-.015-.013.02c6.319 4.262 11.996 4.687 13.346 3.276 3.012-3.145 10.607-11.076 11.029-11.702 1.602-2.376-2.884-8.185-9.958-12.956zm-4.936 27.24c-.195-.132-.445-.099-.445-.099s-4.865.387-10.585-3.471c-5.719-3.858-7.183-8.513-7.183-8.513s-.063-.245-.258-.377c-.233-.157-.561-.148-.796.2a.742.742 0 0 0-.063.116c-1.293 2.975-2.2 5.094-2.33 5.422-.883 2.235 1.91 6.254 6.465 9.327 4.556 3.073 9.329 4.156 11.07 2.5.256-.243 1.88-1.878 4.155-4.19a.72.72 0 0 0 .084-.103c.235-.348.12-.655-.114-.813zm-2.724-11.476a2.477 2.477 0 0 1-3.437.679 2.477 2.477 0 0 1-.658-3.44 2.477 2.477 0 0 1 3.436-.679 2.477 2.477 0 0 1 .659 3.44zM25.758 65.404c-5.148-1.883-8.995-4.303-8.592-5.405.403-1.103 4.904-.47 10.052 1.414 5.149 1.884 8.996 4.303 8.593 5.406-.404 1.102-4.904.468-10.053-1.415zm-5.312 14.603c-2.557-.93-3.87-3.77-2.935-6.343.937-2.572 3.769-3.903 6.326-2.972 2.557.93 3.871 3.77 2.935 6.343-.937 2.572-3.769 3.903-6.326 2.972zm7.631-20.966c-8.018-2.918-15.354-3.132-16.334-.44-.259.71-2.211 11.515-2.986 15.8-.347 1.922 3.334 6.265 10.496 8.872l.016-.019-.008.022c7.162 2.607 12.773 1.646 13.742-.05 2.162-3.78 7.612-13.313 7.87-14.022.98-2.693-4.778-7.244-12.796-10.163zm1.8 27.625c-.22-.08-.455.013-.455.013s-4.627 1.552-11.11-.808c-6.483-2.36-9.03-6.522-9.03-6.522s-.12-.223-.341-.303c-.265-.097-.58-.009-.724.385a.742.742 0 0 0-.034.129c-.534 3.2-.901 5.475-.948 5.824-.316 2.382 3.366 5.607 8.53 7.486 5.163 1.88 10.056 1.776 11.345-.252.19-.298 1.37-2.277 3.018-5.071a.72.72 0 0 0 .056-.12c.144-.394-.042-.665-.306-.76zm-5.42-10.475a2.477 2.477 0 0 1-3.17 1.49 2.477 2.477 0 0 1-1.47-3.179 2.477 2.477 0 0 1 3.17-1.49 2.477 2.477 0 0 1 1.47 3.18zM115.415 75.992c-4.752 2.733-9.08 4.125-9.664 3.107-.586-1.017 2.793-4.057 7.545-6.79 4.752-2.734 9.079-4.126 9.664-3.108.585 1.017-2.793 4.057-7.545 6.79zm7.772 13.456c-2.357 1.36-5.377.542-6.746-1.829-1.369-2.371-.568-5.396 1.789-6.756 2.357-1.361 5.377-.542 6.746 1.829 1.368 2.37.568 5.396-1.79 6.756zM112.03 70.126c-7.39 4.266-12.27 9.748-10.837 12.23.378.653 7.4 9.095 10.185 12.443 1.25 1.501 6.942 1.473 13.543-2.338l-.005-.024.012.02c6.6-3.81 9.471-8.727 8.796-10.56-1.507-4.085-5.307-14.388-5.684-15.041-1.433-2.482-8.62-.997-16.01 3.27zm22.32 16.377a.718.718 0 0 0-.284.358s-1.786 4.542-7.76 7.991c-5.975 3.45-10.8 2.725-10.8 2.725s-.248-.051-.452.066c-.244.141-.38.44-.17.803a.742.742 0 0 0 .076.108c2.108 2.466 3.615 4.21 3.853 4.47 1.621 1.774 6.458 1.026 11.217-1.721 4.759-2.748 7.825-6.563 7.1-8.854-.107-.336-.864-2.513-1.946-5.571a.72.72 0 0 0-.055-.12c-.21-.364-.536-.396-.78-.255zm-11.509-2.581a2.477 2.477 0 0 1-.896 3.386 2.477 2.477 0 0 1-3.38-.917 2.477 2.477 0 0 1 .895-3.386 2.477 2.477 0 0 1 3.381.917zM170.497 65.772c-5.482-.009-9.925-.967-9.923-2.14.002-1.174 4.448-2.118 9.93-2.11 5.482.01 9.925.967 9.923 2.142-.002 1.173-4.448 2.117-9.93 2.108zm.003 15.54c-2.721 0-4.927-2.22-4.927-4.957 0-2.738 2.206-4.957 4.927-4.957 2.721 0 4.927 2.219 4.927 4.957 0 2.737-2.206 4.957-4.927 4.957zm0-22.312c-8.533 0-15.5 2.308-15.5 5.173 0 .755 1.86 11.577 2.599 15.869.33 1.924 5.275 4.746 12.897 4.746l.008-.022v.022c7.622 0 12.566-2.822 12.897-4.746.738-4.292 2.599-15.114 2.599-15.869 0-2.865-6.967-5.173-15.5-5.173zm11.14 25.343c-.235 0-.424.168-.424.168s-3.817 3.04-10.716 3.04c-6.899 0-10.716-3.04-10.716-3.04s-.189-.168-.424-.168c-.282 0-.549.19-.549.61 0 .044.005.089.013.132.592 3.19 1.025 5.453 1.1 5.798.518 2.346 5.08 4.117 10.576 4.117 5.495 0 10.058-1.77 10.575-4.117.076-.345.509-2.608 1.101-5.798a.72.72 0 0 0 .013-.132c0-.42-.267-.61-.549-.61zm-8.675-7.99a2.477 2.477 0 0 1-2.47 2.485 2.477 2.477 0 0 1-2.47-2.485 2.477 2.477 0 0 1 2.47-2.484 2.477 2.477 0 0 1 2.47 2.484zM228.415 65.992c-4.752 2.733-9.08 4.125-9.664 3.107-.586-1.017 2.793-4.057 7.545-6.79 4.752-2.734 9.079-4.126 9.664-3.108.585 1.017-2.793 4.057-7.545 6.79zm7.772 13.456c-2.357 1.36-5.377.542-6.746-1.829-1.369-2.371-.568-5.396 1.789-6.756 2.357-1.361 5.377-.542 6.746 1.829 1.368 2.37.568 5.396-1.79 6.756zM225.03 60.126c-7.39 4.266-12.27 9.748-10.837 12.23.378.653 7.4 9.095 10.185 12.443 1.25 1.501 6.942 1.473 13.543-2.338l-.005-.024.012.02c6.6-3.81 9.471-8.727 8.796-10.56-1.507-4.085-5.307-14.388-5.684-15.041-1.433-2.482-8.62-.997-16.01 3.27zm22.32 16.377a.718.718 0 0 0-.284.358s-1.786 4.542-7.76 7.991c-5.975 3.45-10.8 2.725-10.8 2.725s-.248-.051-.452.066c-.244.141-.38.44-.17.803a.742.742 0 0 0 .076.108c2.108 2.466 3.615 4.21 3.853 4.47 1.621 1.774 6.458 1.026 11.217-1.721 4.759-2.748 7.825-6.563 7.1-8.854-.107-.336-.864-2.513-1.946-5.571a.72.72 0 0 0-.055-.12c-.21-.364-.536-.396-.78-.255zm-11.509-2.581a2.477 2.477 0 0 1-.896 3.386 2.477 2.477 0 0 1-3.38-.917 2.477 2.477 0 0 1 .895-3.386 2.477 2.477 0 0 1 3.381.917zM279.19 90.275c-5.401.943-9.943.77-10.145-.386-.202-1.156 4.012-2.857 9.413-3.8 5.4-.944 9.942-.772 10.144.385.202 1.156-4.013 2.857-9.413 3.8zm2.7 15.303c-2.68.472-5.238-1.33-5.713-4.026-.475-2.697 1.312-5.265 3.992-5.737 2.68-.473 5.237 1.33 5.713 4.026.475 2.695-1.312 5.264-3.992 5.737zm-3.874-21.973c-8.403 1.482-14.864 4.964-14.366 7.786.13.743 3.842 11.078 5.314 15.176.66 1.838 6.02 3.759 13.526 2.435l.004-.024.004.023c7.506-1.324 11.885-4.961 11.877-6.914-.019-4.355-.065-15.336-.196-16.079-.498-2.822-7.76-3.885-16.163-2.403zm15.371 23.023c-.232.041-.388.24-.388.24s-3.231 3.657-10.025 4.855c-6.794 1.198-11.081-1.134-11.081-1.134s-.216-.133-.447-.092c-.278.05-.507.283-.435.696.008.044.02.087.035.128 1.138 3.039 1.957 5.192 2.092 5.519.917 2.22 5.717 3.172 11.129 2.218 5.412-.954 9.598-3.49 9.7-5.891.014-.353.048-2.657.077-5.901a.72.72 0 0 0-.01-.132c-.073-.413-.37-.555-.647-.506zm-9.93-6.361a2.477 2.477 0 0 1-2.001 2.875 2.477 2.477 0 0 1-2.863-2.018 2.477 2.477 0 0 1 2-2.875 2.477 2.477 0 0 1 2.863 2.018zM306.19 50.275c-5.401.943-9.943.77-10.145-.386-.202-1.156 4.012-2.857 9.413-3.8 5.4-.944 9.942-.772 10.144.385.202 1.156-4.013 2.857-9.413 3.8zm2.7 15.303c-2.68.472-5.238-1.33-5.713-4.026-.475-2.697 1.312-5.265 3.992-5.737 2.68-.473 5.237 1.33 5.713 4.026.475 2.695-1.312 5.264-3.992 5.737zm-3.874-21.973c-8.403 1.482-14.864 4.964-14.366 7.786.13.743 3.842 11.078 5.314 15.176.66 1.838 6.02 3.759 13.526 2.435l.004-.024.004.023c7.506-1.324 11.885-4.961 11.877-6.914-.019-4.355-.065-15.336-.196-16.079-.498-2.822-7.76-3.885-16.163-2.403zm15.371 23.023c-.232.041-.388.24-.388.24s-3.231 3.657-10.025 4.855c-6.794 1.198-11.081-1.134-11.081-1.134s-.216-.133-.447-.092c-.278.05-.507.283-.435.696.008.044.02.087.035.128 1.138 3.039 1.957 5.192 2.092 5.519.917 2.22 5.717 3.172 11.129 2.218 5.412-.954 9.598-3.49 9.7-5.891.014-.353.048-2.657.077-5.901a.72.72 0 0 0-.01-.132c-.073-.413-.37-.555-.647-.506zm-9.93-6.361a2.477 2.477 0 0 1-2.001 2.875 2.477 2.477 0 0 1-2.863-2.018 2.477 2.477 0 0 1 2-2.875 2.477 2.477 0 0 1 2.863 2.018zM378.581 65.097c-4.44 3.215-8.598 5.051-9.286 4.1-.689-.95 2.353-4.327 6.794-7.542 4.44-3.215 8.597-5.052 9.286-4.1.688.95-2.354 4.327-6.794 7.542zm9.136 12.57c-2.201 1.6-5.29 1.1-6.9-1.114-1.609-2.215-1.129-5.307 1.073-6.906 2.201-1.6 5.29-1.101 6.9 1.114 1.609 2.214 1.129 5.307-1.073 6.906zm-13.114-18.05c-6.903 5.015-11.184 10.977-9.5 13.295.444.611 8.31 8.273 11.43 11.31 1.4 1.363 7.058.74 13.224-3.74l-.007-.023.014.019c6.166-4.48 8.507-9.67 7.644-11.421-1.926-3.906-6.781-13.755-7.225-14.366-1.684-2.318-8.677-.09-15.58 4.925zM398.51 73.57c-.19.139-.244.386-.244.386s-1.301 4.703-6.882 8.758c-5.582 4.055-10.457 3.839-10.457 3.839s-.251-.025-.442.113c-.228.166-.332.477-.085.816.026.036.056.07.087.1 2.355 2.232 4.035 3.809 4.3 4.043 1.797 1.594 6.529.345 10.975-2.885 4.445-3.23 7.096-7.344 6.135-9.547-.141-.323-1.121-2.409-2.517-5.337a.72.72 0 0 0-.067-.115c-.247-.339-.575-.336-.803-.17zm-11.714-1.364a2.477 2.477 0 0 1-.538 3.461 2.477 2.477 0 0 1-3.458-.558 2.477 2.477 0 0 1 .538-3.461 2.477 2.477 0 0 1 3.458.558zM469.135 59.82c-5.005-2.238-8.674-4.92-8.195-5.992.48-1.072 4.925-.126 9.93 2.112 5.004 2.238 8.673 4.92 8.194 5.992-.48 1.071-4.925.125-9.93-2.112zm-6.318 14.197c-2.486-1.107-3.599-4.032-2.485-6.533 1.113-2.5 4.031-3.63 6.517-2.524 2.486 1.107 3.599 4.031 2.485 6.533-1.113 2.5-4.031 3.63-6.517 2.524zm9.075-20.383c-7.795-3.47-15.099-4.196-16.264-1.579-.307.69-3.01 11.333-4.08 15.554-.48 1.893 2.888 6.482 9.851 9.582l.017-.017-.01.02c6.963 3.1 12.628 2.533 13.713.91 2.42-3.62 8.522-12.75 8.829-13.44 1.165-2.617-4.261-7.56-12.056-11.03zm-.131 27.683c-.215-.096-.456-.02-.456-.02s-4.724 1.226-11.026-1.58c-6.303-2.806-8.553-7.136-8.553-7.136s-.104-.23-.32-.326c-.256-.115-.578-.05-.748.334a.742.742 0 0 0-.043.125c-.756 3.155-1.281 5.4-1.352 5.745-.482 2.354 2.966 5.827 7.986 8.062 5.02 2.235 9.909 2.474 11.336.54.21-.284 1.525-2.175 3.364-4.848a.72.72 0 0 0 .065-.116c.17-.383.004-.666-.253-.78zm-4.676-10.827a2.477 2.477 0 0 1-3.266 1.264 2.477 2.477 0 0 1-1.246-3.273 2.477 2.477 0 0 1 3.266-1.265 2.477 2.477 0 0 1 1.246 3.274zM516.993 77.034c-5.468-.391-9.833-1.657-9.75-2.828.084-1.17 4.585-1.802 10.053-1.411 5.469.391 9.834 1.657 9.75 2.828-.084 1.17-4.585 1.802-10.053 1.41zm-1.081 15.502c-2.715-.19-4.76-2.558-4.57-5.289.191-2.731 2.547-4.79 5.261-4.601 2.715.19 4.76 2.557 4.57 5.289-.191 2.73-2.547 4.79-5.261 4.6zm1.556-22.258c-8.512-.595-15.623 1.221-15.823 4.08-.053.753 1.048 11.678 1.485 16.01.197 1.944 4.932 5.104 12.535 5.636l.01-.023-.002.023c7.604.532 12.732-1.939 13.197-3.835 1.036-4.23 3.647-14.896 3.7-15.649.2-2.858-6.59-5.647-15.102-6.242zm9.345 26.058c-.235-.016-.435.138-.435.138s-4.02 2.767-10.902 2.286C508.594 98.28 505 94.98 505 94.98s-.177-.181-.412-.198c-.28-.02-.56.152-.59.57a.742.742 0 0 0 .004.133c.368 3.223.642 5.511.694 5.86.352 2.377 4.78 4.462 10.261 4.846h.001c5.482.383 10.157-1.065 10.836-3.37.1-.339.69-2.566 1.503-5.707a.72.72 0 0 0 .022-.13c.029-.42-.224-.628-.505-.648zm-8.097-8.575a2.477 2.477 0 0 1-2.637 2.306 2.477 2.477 0 0 1-2.29-2.65 2.477 2.477 0 0 1 2.637-2.306 2.477 2.477 0 0 1 2.29 2.65zM571.581 86.097c-4.44 3.215-8.598 5.051-9.286 4.1-.689-.95 2.353-4.327 6.794-7.542 4.44-3.215 8.597-5.052 9.286-4.1.688.95-2.354 4.327-6.794 7.542zm9.136 12.57c-2.201 1.6-5.29 1.1-6.9-1.114-1.609-2.215-1.129-5.307 1.073-6.906 2.201-1.6 5.29-1.101 6.9 1.114 1.609 2.214 1.129 5.307-1.073 6.906zm-13.114-18.05c-6.903 5.015-11.184 10.977-9.5 13.295.444.611 8.31 8.273 11.43 11.31 1.4 1.363 7.058.74 13.224-3.74l-.007-.023.014.019c6.166-4.48 8.507-9.67 7.644-11.421-1.926-3.906-6.781-13.755-7.225-14.366-1.684-2.318-8.677-.09-15.58 4.925zM591.51 94.57c-.19.139-.244.386-.244.386s-1.301 4.703-6.882 8.758c-5.582 4.055-10.457 3.839-10.457 3.839s-.251-.025-.442.113c-.228.166-.332.477-.085.816.026.036.056.07.087.1 2.355 2.232 4.035 3.809 4.3 4.043 1.797 1.594 6.529.345 10.975-2.885 4.445-3.23 7.096-7.344 6.135-9.547-.141-.323-1.121-2.409-2.517-5.337a.72.72 0 0 0-.067-.115c-.247-.339-.575-.336-.803-.17zm-11.714-1.364a2.477 2.477 0 0 1-.538 3.461 2.477 2.477 0 0 1-3.458-.558 2.477 2.477 0 0 1 .538-3.461 2.477 2.477 0 0 1 3.458.558zM63.758 94.404c-5.148-1.883-8.995-4.303-8.592-5.405.403-1.103 4.904-.47 10.052 1.414 5.149 1.884 8.996 4.303 8.593 5.406-.404 1.102-4.904.468-10.053-1.415zm-5.312 14.603c-2.557-.93-3.87-3.77-2.935-6.343.937-2.572 3.769-3.903 6.326-2.972 2.557.93 3.871 3.77 2.935 6.343-.937 2.572-3.769 3.903-6.326 2.972zm7.631-20.966c-8.018-2.918-15.354-3.132-16.334-.44-.259.71-2.211 11.515-2.986 15.8-.347 1.922 3.334 6.265 10.496 8.872l.016-.019-.008.022c7.162 2.607 12.773 1.646 13.742-.05 2.162-3.78 7.612-13.313 7.87-14.022.98-2.693-4.778-7.244-12.796-10.163zm1.8 27.625c-.22-.08-.455.013-.455.013s-4.627 1.552-11.11-.808c-6.483-2.36-9.03-6.522-9.03-6.522s-.12-.223-.341-.303c-.265-.097-.58-.009-.724.385a.742.742 0 0 0-.034.129c-.534 3.2-.901 5.475-.948 5.824-.316 2.382 3.366 5.607 8.53 7.486 5.163 1.88 10.056 1.776 11.345-.252.19-.298 1.37-2.277 3.018-5.071a.72.72 0 0 0 .056-.12c.144-.394-.042-.665-.306-.76zm-5.42-10.475a2.477 2.477 0 0 1-3.17 1.49 2.477 2.477 0 0 1-1.47-3.179 2.477 2.477 0 0 1 3.17-1.49 2.477 2.477 0 0 1 1.47 3.18zM28.814 131.012c-5.154 1.867-9.657 2.486-10.057 1.382-.4-1.103 3.456-3.511 8.61-5.378 5.155-1.866 9.657-2.486 10.057-1.382.4 1.104-3.455 3.511-8.61 5.378zm5.318 14.601c-2.557.931-5.39-.4-6.326-2.972-.936-2.573.378-5.413 2.935-6.343 2.557-.931 5.389.4 6.325 2.972.937 2.573-.377 5.413-2.934 6.343zM26.5 124.647c-8.018 2.919-13.776 7.47-12.796 10.163.258.709 5.708 10.242 7.87 14.022.969 1.696 6.58 2.657 13.742.05v-.024l.008.021c7.162-2.607 10.843-6.95 10.495-8.871-.774-4.286-2.727-15.092-2.985-15.8-.98-2.694-8.316-2.48-16.334.44zm19.136 20.005c-.222.08-.342.303-.342.303s-2.546 4.162-9.03 6.522c-6.482 2.36-11.109.808-11.109.808s-.235-.094-.456-.013c-.265.096-.45.366-.307.76a.742.742 0 0 0 .057.12c1.648 2.795 2.829 4.774 3.018 5.072 1.288 2.028 6.181 2.131 11.345.252 5.164-1.88 8.846-5.104 8.53-7.486-.047-.35-.415-2.624-.949-5.824a.72.72 0 0 0-.033-.129c-.144-.394-.46-.482-.724-.385zm-10.885-4.54a2.477 2.477 0 0 1-1.471 3.178c-1.282.467-2.7-.2-3.17-1.49a2.477 2.477 0 0 1 1.47-3.179c1.282-.466 2.701.2 3.17 1.49zM91.497 132.772c-5.482-.009-9.925-.967-9.923-2.14.002-1.174 4.448-2.118 9.93-2.11 5.482.01 9.925.967 9.923 2.142-.002 1.173-4.448 2.117-9.93 2.108zm.003 15.54c-2.721 0-4.927-2.22-4.927-4.957 0-2.738 2.206-4.957 4.927-4.957 2.721 0 4.927 2.219 4.927 4.957 0 2.737-2.206 4.957-4.927 4.957zm0-22.312c-8.533 0-15.5 2.308-15.5 5.173 0 .755 1.86 11.577 2.599 15.869.33 1.924 5.275 4.746 12.897 4.746l.008-.022v.022c7.622 0 12.566-2.822 12.897-4.746.738-4.292 2.599-15.114 2.599-15.869 0-2.865-6.967-5.173-15.5-5.173zm11.14 25.343c-.235 0-.424.168-.424.168s-3.817 3.04-10.716 3.04c-6.899 0-10.716-3.04-10.716-3.04s-.189-.168-.424-.168c-.282 0-.549.19-.549.61 0 .044.005.089.013.132.592 3.19 1.025 5.453 1.1 5.798.518 2.346 5.08 4.117 10.576 4.117 5.495 0 10.058-1.77 10.575-4.117.076-.345.509-2.608 1.101-5.798a.72.72 0 0 0 .013-.132c0-.42-.267-.61-.549-.61zm-8.675-7.99a2.477 2.477 0 0 1-2.47 2.485 2.477 2.477 0 0 1-2.47-2.485 2.477 2.477 0 0 1 2.47-2.484 2.477 2.477 0 0 1 2.47 2.484zM146.758 116.404c-5.148-1.883-8.995-4.303-8.592-5.405.403-1.103 4.904-.47 10.052 1.414 5.149 1.884 8.996 4.303 8.593 5.406-.404 1.102-4.904.468-10.053-1.415zm-5.312 14.603c-2.557-.93-3.87-3.77-2.935-6.343.937-2.572 3.769-3.903 6.326-2.972 2.557.93 3.871 3.77 2.935 6.343-.937 2.572-3.769 3.903-6.326 2.972zm7.631-20.966c-8.018-2.918-15.354-3.132-16.334-.44-.259.71-2.211 11.515-2.986 15.8-.347 1.922 3.334 6.265 10.496 8.872l.016-.019-.008.022c7.162 2.607 12.773 1.646 13.742-.05 2.162-3.78 7.612-13.313 7.87-14.022.98-2.693-4.778-7.244-12.796-10.163zm1.8 27.625c-.22-.08-.455.013-.455.013s-4.627 1.552-11.11-.808c-6.483-2.36-9.03-6.522-9.03-6.522s-.12-.223-.341-.303c-.265-.097-.58-.009-.724.385a.742.742 0 0 0-.034.129c-.534 3.2-.901 5.475-.948 5.824-.316 2.382 3.366 5.607 8.53 7.486 5.163 1.88 10.056 1.776 11.345-.252.19-.298 1.37-2.277 3.018-5.071a.72.72 0 0 0 .056-.12c.144-.394-.042-.665-.306-.76zm-5.42-10.475a2.477 2.477 0 0 1-3.17 1.49 2.477 2.477 0 0 1-1.47-3.179 2.477 2.477 0 0 1 3.17-1.49 2.477 2.477 0 0 1 1.47 3.18zM200.758 108.404c-5.148-1.883-8.995-4.303-8.592-5.405.403-1.103 4.904-.47 10.052 1.414 5.149 1.884 8.996 4.303 8.593 5.406-.404 1.102-4.904.468-10.053-1.415zm-5.312 14.603c-2.557-.93-3.87-3.77-2.935-6.343.937-2.572 3.769-3.903 6.326-2.972 2.557.93 3.871 3.77 2.935 6.343-.937 2.572-3.769 3.903-6.326 2.972zm7.631-20.966c-8.018-2.918-15.354-3.132-16.334-.44-.259.71-2.211 11.515-2.986 15.8-.347 1.922 3.334 6.265 10.496 8.872l.016-.019-.008.022c7.162 2.607 12.773 1.646 13.742-.05 2.162-3.78 7.612-13.313 7.87-14.022.98-2.693-4.778-7.244-12.796-10.163zm1.8 27.625c-.22-.08-.455.013-.455.013s-4.627 1.552-11.11-.808c-6.483-2.36-9.03-6.522-9.03-6.522s-.12-.223-.341-.303c-.265-.097-.58-.009-.724.385a.742.742 0 0 0-.034.129c-.534 3.2-.901 5.475-.948 5.824-.316 2.382 3.366 5.607 8.53 7.486 5.163 1.88 10.056 1.776 11.345-.252.19-.298 1.37-2.277 3.018-5.071a.72.72 0 0 0 .056-.12c.144-.394-.042-.665-.306-.76zm-5.42-10.475a2.477 2.477 0 0 1-3.17 1.49 2.477 2.477 0 0 1-1.47-3.179 2.477 2.477 0 0 1 3.17-1.49 2.477 2.477 0 0 1 1.47 3.18zM188.415 150.992c-4.752 2.733-9.08 4.125-9.664 3.107-.586-1.017 2.793-4.057 7.545-6.79 4.752-2.734 9.079-4.126 9.664-3.108.585 1.017-2.793 4.057-7.545 6.79zm7.772 13.456c-2.357 1.36-5.377.542-6.746-1.829-1.369-2.371-.568-5.396 1.789-6.756 2.357-1.361 5.377-.542 6.746 1.829 1.368 2.37.568 5.396-1.79 6.756zm-11.156-19.322c-7.39 4.266-12.27 9.748-10.837 12.23.378.653 7.4 9.095 10.185 12.443 1.25 1.501 6.942 1.473 13.543-2.338l-.005-.024.012.02c6.6-3.81 9.471-8.727 8.796-10.56-1.507-4.085-5.307-14.388-5.684-15.041-1.433-2.482-8.62-.997-16.01 3.27zm22.32 16.377a.718.718 0 0 0-.284.358s-1.786 4.542-7.76 7.991c-5.975 3.45-10.8 2.725-10.8 2.725s-.248-.051-.452.066c-.244.141-.38.44-.17.803a.742.742 0 0 0 .076.108c2.108 2.466 3.615 4.21 3.853 4.47 1.621 1.774 6.458 1.026 11.217-1.721 4.759-2.748 7.825-6.563 7.1-8.854-.107-.336-.864-2.513-1.946-5.571a.72.72 0 0 0-.055-.12c-.21-.364-.536-.396-.78-.255zm-11.509-2.581a2.477 2.477 0 0 1-.896 3.386 2.477 2.477 0 0 1-3.38-.917 2.477 2.477 0 0 1 .895-3.386 2.477 2.477 0 0 1 3.381.917zM248.415 132.992c-4.752 2.733-9.08 4.125-9.664 3.107-.586-1.017 2.793-4.057 7.545-6.79 4.752-2.734 9.079-4.126 9.664-3.108.585 1.017-2.793 4.057-7.545 6.79zm7.772 13.456c-2.357 1.36-5.377.542-6.746-1.829-1.369-2.371-.568-5.396 1.789-6.756 2.357-1.361 5.377-.542 6.746 1.829 1.368 2.37.568 5.396-1.79 6.756zm-11.156-19.322c-7.39 4.266-12.27 9.748-10.837 12.23.378.653 7.4 9.095 10.185 12.443 1.25 1.501 6.942 1.473 13.543-2.338l-.005-.024.012.02c6.6-3.81 9.471-8.727 8.796-10.56-1.507-4.085-5.307-14.388-5.684-15.041-1.433-2.482-8.62-.997-16.01 3.27zm22.32 16.377a.718.718 0 0 0-.284.358s-1.786 4.542-7.76 7.991c-5.975 3.45-10.8 2.725-10.8 2.725s-.248-.051-.452.066c-.244.141-.38.44-.17.803a.742.742 0 0 0 .076.108c2.108 2.466 3.615 4.21 3.853 4.47 1.621 1.774 6.458 1.026 11.217-1.721 4.759-2.748 7.825-6.563 7.1-8.854-.107-.336-.864-2.513-1.946-5.571a.72.72 0 0 0-.055-.12c-.21-.364-.536-.396-.78-.255zm-11.509-2.581a2.477 2.477 0 0 1-.896 3.386 2.477 2.477 0 0 1-3.38-.917 2.477 2.477 0 0 1 .895-3.386 2.477 2.477 0 0 1 3.381.917zM311.785 138.033c-3.517-4.205-5.64-8.225-4.739-8.978.9-.753 4.482 2.046 7.999 6.252 3.517 4.205 5.639 8.224 4.738 8.978-.9.752-4.481-2.047-7.998-6.252zm-11.902 9.99c-1.75-2.084-1.467-5.2.63-6.96 2.097-1.76 5.215-1.496 6.964.588 1.75 2.085 1.467 5.201-.63 6.961-2.097 1.76-5.215 1.496-6.964-.588zm17.091-14.34v-.001c-5.484-6.536-11.73-10.39-13.926-8.548-.578.485-7.672 8.866-10.485 12.19-1.262 1.491-.246 7.093 4.654 12.932l.022-.01-.017.016c4.9 5.839 10.24 7.812 11.926 6.828 3.762-2.193 13.248-7.724 13.827-8.209 2.195-1.842-.516-8.662-6-15.199zm-12.253 24.823c-.151-.18-.401-.217-.401-.217s-4.783-.97-9.218-6.254c-4.434-5.285-4.558-10.164-4.558-10.164s.007-.252-.144-.433c-.181-.215-.499-.297-.82-.028a.742.742 0 0 0-.093.095c-2.063 2.504-3.518 4.29-3.734 4.57-1.465 1.904.112 6.538 3.644 10.747 3.532 4.21 7.821 6.567 9.951 5.455.313-.164 2.325-1.287 5.15-2.883a.72.72 0 0 0 .109-.076c.321-.27.295-.596.114-.812zm.544-11.781a2.477 2.477 0 0 1-3.49-.295 2.477 2.477 0 0 1 .316-3.489 2.477 2.477 0 0 1 3.49.295 2.477 2.477 0 0 1-.316 3.489zM330.711 92.675c-3.53 4.194-7.12 6.981-8.018 6.225-.898-.755 1.236-4.768 4.767-8.962 3.531-4.194 7.12-6.981 8.019-6.225.898.756-1.237 4.768-4.768 8.962zm11.906 9.987c-1.75 2.084-4.868 2.347-6.964.588-2.098-1.76-2.38-4.876-.63-6.96 1.749-2.086 4.867-2.35 6.964-.59 2.097 1.76 2.38 4.877.63 6.962zM325.525 88.32c-5.485 6.536-8.195 13.357-6 15.199.578.485 10.064 6.016 13.826 8.21 1.687.983 7.027-.99 11.927-6.83l-.013-.02.018.014c4.9-5.839 5.915-11.44 4.654-12.93-2.814-3.325-9.908-11.706-10.486-12.192-2.195-1.841-8.441 2.012-13.926 8.549zm26.575 7.756c-.152.18-.144.433-.144.433s-.125 4.879-4.56 10.164c-4.434 5.284-9.216 6.254-9.216 6.254s-.25.037-.402.217c-.18.215-.206.542.115.812.034.028.07.054.109.076 2.824 1.596 4.836 2.72 5.15 2.883 2.13 1.112 6.418-1.245 9.95-5.455h.001c3.532-4.21 5.108-8.843 3.643-10.747-.215-.28-1.67-2.066-3.733-4.57a.72.72 0 0 0-.094-.095c-.321-.27-.638-.188-.82.028zm-11.697 1.51a2.477 2.477 0 0 1 .315 3.489 2.477 2.477 0 0 1-3.49.295 2.477 2.477 0 0 1-.316-3.489 2.477 2.477 0 0 1 3.49-.295zM381.135 121.82c-5.005-2.238-8.674-4.92-8.195-5.992.48-1.072 4.925-.126 9.93 2.112 5.004 2.238 8.673 4.92 8.194 5.992-.48 1.071-4.925.125-9.93-2.112zm-6.318 14.197c-2.486-1.107-3.599-4.032-2.485-6.533 1.113-2.5 4.031-3.63 6.517-2.524 2.486 1.107 3.599 4.031 2.485 6.533-1.113 2.5-4.031 3.63-6.517 2.524zm9.075-20.383c-7.795-3.47-15.099-4.196-16.264-1.579-.307.69-3.01 11.333-4.08 15.554-.48 1.893 2.888 6.482 9.851 9.582l.017-.017-.01.02c6.963 3.1 12.628 2.533 13.713.91 2.42-3.62 8.522-12.75 8.829-13.44 1.165-2.617-4.261-7.56-12.056-11.03zm-.131 27.683c-.215-.096-.456-.02-.456-.02s-4.724 1.226-11.026-1.58c-6.303-2.806-8.553-7.136-8.553-7.136s-.104-.23-.32-.326c-.256-.115-.578-.05-.748.334a.742.742 0 0 0-.043.125c-.756 3.155-1.281 5.4-1.352 5.745-.482 2.354 2.966 5.827 7.986 8.062 5.02 2.235 9.909 2.474 11.336.54.21-.284 1.525-2.175 3.364-4.848a.72.72 0 0 0 .065-.116c.17-.383.004-.666-.253-.78zm-4.676-10.827a2.477 2.477 0 0 1-3.266 1.264 2.477 2.477 0 0 1-1.246-3.273 2.477 2.477 0 0 1 3.266-1.265 2.477 2.477 0 0 1 1.246 3.274zM432.135 97.82c-5.005-2.238-8.674-4.92-8.195-5.992.48-1.072 4.925-.126 9.93 2.112 5.004 2.238 8.673 4.92 8.194 5.992-.48 1.071-4.925.125-9.93-2.112zm-6.318 14.197c-2.486-1.107-3.599-4.032-2.485-6.533 1.113-2.5 4.031-3.63 6.517-2.524 2.486 1.107 3.599 4.031 2.485 6.533-1.113 2.5-4.031 3.63-6.517 2.524zm9.075-20.383c-7.795-3.47-15.099-4.196-16.264-1.579-.307.69-3.01 11.333-4.08 15.554-.48 1.893 2.888 6.482 9.851 9.582l.017-.017-.01.02c6.963 3.1 12.628 2.533 13.713.91 2.42-3.62 8.522-12.75 8.829-13.44 1.165-2.617-4.261-7.56-12.056-11.03zm-.131 27.683c-.215-.096-.456-.02-.456-.02s-4.724 1.226-11.026-1.58c-6.303-2.806-8.553-7.136-8.553-7.136s-.104-.23-.32-.326c-.256-.115-.578-.05-.748.334a.742.742 0 0 0-.043.125c-.756 3.155-1.281 5.4-1.352 5.745-.482 2.354 2.966 5.827 7.986 8.062 5.02 2.235 9.909 2.474 11.336.54.21-.284 1.525-2.175 3.364-4.848a.72.72 0 0 0 .065-.116c.17-.383.004-.666-.253-.78zm-4.676-10.827a2.477 2.477 0 0 1-3.266 1.264 2.477 2.477 0 0 1-1.246-3.273 2.477 2.477 0 0 1 3.266-1.265 2.477 2.477 0 0 1 1.246 3.274zM427.03 154.975c-2.396-4.931-3.482-9.345-2.426-9.857 1.055-.513 3.853 3.069 6.248 8 2.395 4.932 3.482 9.344 2.426 9.858-1.056.512-3.853-3.07-6.249-8.001zm-13.966 6.814c-1.193-2.445-.165-5.401 2.295-6.601 2.46-1.2 5.422-.19 6.615 2.255 1.193 2.446.166 5.402-2.295 6.602-2.46 1.2-5.422.19-6.615-2.256zm20.053-9.78c-3.74-7.67-8.869-12.92-11.444-11.664-.678.33-9.59 6.747-13.123 9.292-1.585 1.141-1.954 6.822 1.387 13.673l.024-.003-.02.01c3.34 6.85 8.045 10.057 9.92 9.511 4.18-1.218 14.723-4.29 15.402-4.62 2.575-1.256 1.595-8.53-2.146-16.2zm-17.894 21.122c-.103-.212-.337-.308-.337-.308s-4.406-2.098-7.43-8.298c-3.025-6.2-1.965-10.965-1.965-10.965s.068-.243-.035-.455c-.124-.253-.412-.409-.789-.225a.742.742 0 0 0-.113.069c-2.607 1.93-4.452 3.312-4.728 3.531-1.883 1.494-1.474 6.37.935 11.31 2.409 4.939 6 8.264 8.336 7.7.343-.083 2.567-.686 5.694-1.552a.72.72 0 0 0 .124-.047c.377-.184.431-.507.308-.76zm3.378-11.3a2.477 2.477 0 0 1-3.316-1.13 2.477 2.477 0 0 1 1.15-3.309 2.477 2.477 0 0 1 3.316 1.13 2.477 2.477 0 0 1-1.15 3.309zM471.581 117.097c-4.44 3.215-8.598 5.051-9.286 4.1-.689-.95 2.353-4.327 6.794-7.542 4.44-3.215 8.597-5.052 9.286-4.1.688.95-2.354 4.327-6.794 7.542zm9.136 12.57c-2.201 1.6-5.29 1.1-6.9-1.114-1.609-2.215-1.129-5.307 1.073-6.906 2.201-1.6 5.29-1.101 6.9 1.114 1.609 2.214 1.129 5.307-1.073 6.906zm-13.114-18.05c-6.903 5.015-11.184 10.977-9.5 13.295.444.611 8.31 8.273 11.43 11.31 1.4 1.363 7.058.74 13.224-3.74l-.007-.023.014.019c6.166-4.48 8.507-9.67 7.644-11.421-1.926-3.906-6.781-13.755-7.225-14.366-1.684-2.318-8.677-.09-15.58 4.925zm23.908 13.954c-.19.139-.244.386-.244.386s-1.301 4.703-6.882 8.758c-5.582 4.055-10.457 3.839-10.457 3.839s-.251-.025-.442.113c-.228.166-.332.477-.085.816.026.036.056.07.087.1 2.355 2.232 4.035 3.809 4.3 4.043 1.797 1.594 6.529.345 10.975-2.885 4.445-3.23 7.096-7.344 6.135-9.547-.141-.323-1.121-2.409-2.517-5.337a.72.72 0 0 0-.067-.115c-.247-.339-.575-.336-.803-.17zm-11.714-1.364a2.477 2.477 0 0 1-.538 3.461 2.477 2.477 0 0 1-3.458-.558 2.477 2.477 0 0 1 .538-3.461 2.477 2.477 0 0 1 3.458.558zM531.581 126.097c-4.44 3.215-8.598 5.051-9.286 4.1-.689-.95 2.353-4.327 6.794-7.542 4.44-3.215 8.597-5.052 9.286-4.1.688.95-2.354 4.327-6.794 7.542zm9.136 12.57c-2.201 1.6-5.29 1.1-6.9-1.114-1.609-2.215-1.129-5.307 1.073-6.906 2.201-1.6 5.29-1.101 6.9 1.114 1.609 2.214 1.129 5.307-1.073 6.906zm-13.114-18.05c-6.903 5.015-11.184 10.977-9.5 13.295.444.611 8.31 8.273 11.43 11.31 1.4 1.363 7.058.74 13.224-3.74l-.007-.023.014.019c6.166-4.48 8.507-9.67 7.644-11.421-1.926-3.906-6.781-13.755-7.225-14.366-1.684-2.318-8.677-.09-15.58 4.925zm23.908 13.954c-.19.139-.244.386-.244.386s-1.301 4.703-6.882 8.758c-5.582 4.055-10.457 3.839-10.457 3.839s-.251-.025-.442.113c-.228.166-.332.477-.085.816.026.036.056.07.087.1 2.355 2.232 4.035 3.809 4.3 4.043 1.797 1.594 6.529.345 10.975-2.885 4.445-3.23 7.096-7.344 6.135-9.547-.141-.323-1.121-2.409-2.517-5.337a.72.72 0 0 0-.067-.115c-.247-.339-.575-.336-.803-.17zm-11.714-1.364a2.477 2.477 0 0 1-.538 3.461 2.477 2.477 0 0 1-3.458-.558 2.477 2.477 0 0 1 .538-3.461 2.477 2.477 0 0 1 3.458.558z"/></g></svg>