<svg xmlns="http://www.w3.org/2000/svg" viewBox="0 0 605 180"><title>browser</title><g fill-rule="evenodd"><path d="M20.116 20.488a3.482 3.482 0 0 1 1.277-4.757L46.535 1.216a3.483 3.483 0 0 1 4.758 1.272l12.02 20.818a3.482 3.482 0 0 1-1.278 4.757L36.893 42.578a3.483 3.483 0 0 1-4.758-1.272L20.116 20.488zm2.992 1.182l27.713-16 10.921 18.917c.32.553.12 1.266-.424 1.58L35.61 41.01a1.16 1.16 0 0 1-1.58-.423L23.108 21.67zm-1.5-2.598a.998.998 0 0 1 .366-1.366.998.998 0 0 1 1.366.366.998.998 0 0 1-.366 1.366.998.998 0 0 1-1.366-.366zm3.464-2a.998.998 0 0 1 .366-1.366.998.998 0 0 1 1.366.366.998.998 0 0 1-.366 1.366.998.998 0 0 1-1.366-.366zm3.464-2a1 1 0 0 1 .367-1.367l19.05-10.999a1 1 0 1 1 1 1.732l-19.05 11a.998.998 0 0 1-1.367-.366zM62.518 40.164a3.482 3.482 0 0 1 4.036-2.823l28.59 5.041a3.483 3.483 0 0 1 2.827 4.033l-4.174 23.673a3.482 3.482 0 0 1-4.036 2.823l-28.59-5.04a3.483 3.483 0 0 1-2.827-4.034l4.174-23.673zm1.533 2.828l31.513 5.557-3.793 21.512a1.164 1.164 0 0 1-1.34.937l-29.234-5.154a1.16 1.16 0 0 1-.94-1.34l3.794-21.512zm.52-2.954a.998.998 0 0 1 1.159-.811c.544.096.908.61.811 1.158a.998.998 0 0 1-1.158.811.998.998 0 0 1-.812-1.158zm3.94.694a.998.998 0 0 1 1.158-.81c.544.095.908.61.811 1.158a.998.998 0 0 1-1.158.81.998.998 0 0 1-.811-1.158zm3.939.695a1 1 0 0 1 1.16-.811l21.663 3.82a1 1 0 1 1-.347 1.97l-21.664-3.82a.998.998 0 0 1-.812-1.16zM110.116 29.488a3.482 3.482 0 0 1 1.277-4.757l25.142-14.515a3.483 3.483 0 0 1 4.758 1.272l12.02 20.818a3.482 3.482 0 0 1-1.278 4.757l-25.142 14.515a3.483 3.483 0 0 1-4.758-1.272l-12.019-20.818zm2.992 1.182l27.713-16 10.921 18.917c.32.553.12 1.266-.424 1.58L125.61 50.01a1.16 1.16 0 0 1-1.58-.423L113.108 30.67zm-1.5-2.598a.998.998 0 0 1 .366-1.366.998.998 0 0 1 1.366.366.998.998 0 0 1-.366 1.366.998.998 0 0 1-1.366-.366zm3.464-2a.998.998 0 0 1 .366-1.366.998.998 0 0 1 1.366.366.998.998 0 0 1-.366 1.366.998.998 0 0 1-1.366-.366zm3.464-2a1 1 0 0 1 .367-1.367l19.05-10.999a1 1 0 1 1 1 1.732l-19.05 11a.998.998 0 0 1-1.367-.366zM185.416 18.146a3.482 3.482 0 0 1 4.465-2.08l27.28 9.93a3.483 3.483 0 0 1 2.084 4.463l-8.222 22.588a3.482 3.482 0 0 1-4.465 2.08l-27.28-9.93a3.483 3.483 0 0 1-2.084-4.462l8.222-22.589zm1.018 3.051l30.07 10.945-7.471 20.526c-.218.6-.892.906-1.483.69l-27.895-10.152a1.16 1.16 0 0 1-.692-1.482l7.47-20.527zm1.026-2.819a.998.998 0 0 1 1.282-.597c.519.188.787.759.597 1.281a.998.998 0 0 1-1.281.598.998.998 0 0 1-.598-1.282zm3.759 1.368a.998.998 0 0 1 1.281-.597c.52.189.788.759.598 1.281a.998.998 0 0 1-1.282.598.998.998 0 0 1-.597-1.282zm3.758 1.368a1 1 0 0 1 1.283-.597l20.672 7.524a1 1 0 1 1-.684 1.88l-20.672-7.525a.998.998 0 0 1-.599-1.282zM241.116 26.488a3.482 3.482 0 0 1 1.277-4.757l25.142-14.515a3.483 3.483 0 0 1 4.758 1.272l12.02 20.818a3.482 3.482 0 0 1-1.278 4.757l-25.142 14.515a3.483 3.483 0 0 1-4.758-1.272l-12.019-20.818zm2.992 1.182l27.713-16 10.921 18.917c.32.553.12 1.266-.424 1.58L256.61 47.01a1.16 1.16 0 0 1-1.58-.423L244.108 27.67zm-1.5-2.598a.998.998 0 0 1 .366-1.366.998.998 0 0 1 1.366.366.998.998 0 0 1-.366 1.366.998.998 0 0 1-1.366-.366zm3.464-2a.998.998 0 0 1 .366-1.366.998.998 0 0 1 1.366.366.998.998 0 0 1-.366 1.366.998.998 0 0 1-1.366-.366zm3.464-2a1 1 0 0 1 .367-1.367l19.05-10.999a1 1 0 1 1 1 1.732l-19.05 11a.998.998 0 0 1-1.367-.366zM345.872 17.344a3.482 3.482 0 0 1 4.78-1.189l24.884 14.952a3.483 3.483 0 0 1 1.194 4.779L364.35 56.49a3.482 3.482 0 0 1-4.78 1.189l-24.884-14.953a3.483 3.483 0 0 1-1.194-4.778l12.38-20.605zm.417 3.19l27.43 16.48-11.25 18.725a1.164 1.164 0 0 1-1.589.394l-25.444-15.288a1.16 1.16 0 0 1-.397-1.588l11.25-18.723zm1.545-2.572a.998.998 0 0 1 1.373-.342.998.998 0 0 1 .342 1.372.998.998 0 0 1-1.373.342.998.998 0 0 1-.342-1.372zm3.429 2.06a.998.998 0 0 1 1.372-.342.998.998 0 0 1 .342 1.372.998.998 0 0 1-1.372.343.998.998 0 0 1-.342-1.373zm3.429 2.06a1 1 0 0 1 1.372-.341l18.857 11.33a1 1 0 0 1-1.03 1.714l-18.857-11.33a.998.998 0 0 1-.342-1.372zM407.866 39.848a3.482 3.482 0 0 1-.083-4.925l20.166-20.883a3.483 3.483 0 0 1 4.925-.089l17.291 16.699a3.482 3.482 0 0 1 .084 4.924l-20.167 20.883a3.483 3.483 0 0 1-4.924.089l-17.292-16.698zm3.201.31l22.23-23.018 15.712 15.174c.46.443.465 1.183.028 1.636l-20.62 21.353a1.16 1.16 0 0 1-1.637.03l-15.713-15.174zm-2.158-2.083a.998.998 0 0 1-.024-1.414.998.998 0 0 1 1.414-.025.998.998 0 0 1 .024 1.414.998.998 0 0 1-1.414.025zm2.779-2.878a.998.998 0 0 1-.025-1.414.998.998 0 0 1 1.414-.024.998.998 0 0 1 .025 1.414.998.998 0 0 1-1.414.024zm2.779-2.877a1 1 0 0 1-.025-1.414l15.282-15.825a1 1 0 1 1 1.439 1.39L415.88 32.294a.998.998 0 0 1-1.414.025zM487.254 27.146a3.482 3.482 0 0 1 .773-4.864l23.487-17.064a3.483 3.483 0 0 1 4.865.768l14.13 19.447a3.482 3.482 0 0 1-.774 4.864l-23.486 17.064a3.483 3.483 0 0 1-4.866-.768l-14.129-19.447zm3.099.862L516.24 9.2l12.84 17.672a1.164 1.164 0 0 1-.257 1.616l-24.015 17.448a1.16 1.16 0 0 1-1.617-.255l-12.84-17.672zm-1.763-2.427a.998.998 0 0 1 .22-1.397.998.998 0 0 1 1.398.222.998.998 0 0 1-.222 1.397.998.998 0 0 1-1.396-.222zm3.236-2.35a.998.998 0 0 1 .22-1.398.998.998 0 0 1 1.398.222.998.998 0 0 1-.222 1.396.998.998 0 0 1-1.396-.22zm3.236-2.352a1 1 0 0 1 .221-1.397l17.798-12.93a1 1 0 1 1 1.176 1.618L496.458 21.1a.998.998 0 0 1-1.397-.221zM545.598 30.938a3.482 3.482 0 0 1 4.835-.938l24.068 16.234a3.483 3.483 0 0 1 .942 4.835l-13.442 19.928a3.482 3.482 0 0 1-4.835.937l-24.068-16.233a3.483 3.483 0 0 1-.942-4.835l13.442-19.928zm.25 3.206l26.529 17.895-12.215 18.109a1.164 1.164 0 0 1-1.607.311l-24.61-16.6a1.16 1.16 0 0 1-.312-1.605l12.215-18.11zm1.677-2.487a.998.998 0 0 1 1.388-.27c.458.31.581.928.27 1.389a.998.998 0 0 1-1.388.27.998.998 0 0 1-.27-1.389zm3.316 2.237a.998.998 0 0 1 1.388-.27c.458.31.581.927.27 1.389a.998.998 0 0 1-1.388.27.998.998 0 0 1-.27-1.389zm3.316 2.237a1 1 0 0 1 1.39-.27l18.237 12.302a1 1 0 1 1-1.118 1.658L554.427 37.52a.998.998 0 0 1-.27-1.39zM9.416 59.146a3.482 3.482 0 0 1 4.465-2.08l27.28 9.93a3.483 3.483 0 0 1 2.084 4.463l-8.222 22.588a3.482 3.482 0 0 1-4.465 2.08l-27.28-9.93a3.483 3.483 0 0 1-2.084-4.462l8.222-22.589zm1.018 3.051l30.07 10.945-7.471 20.526c-.218.6-.892.906-1.483.69L3.655 84.207a1.16 1.16 0 0 1-.692-1.482l7.47-20.527zm1.026-2.819a.998.998 0 0 1 1.282-.597c.519.188.787.759.597 1.281a.998.998 0 0 1-1.281.598.998.998 0 0 1-.598-1.282zm3.759 1.368a.998.998 0 0 1 1.281-.597c.52.189.788.759.598 1.281a.998.998 0 0 1-1.282.598.998.998 0 0 1-.597-1.282zm3.758 1.368a1 1 0 0 1 1.283-.597l20.672 7.524a1 1 0 1 1-.684 1.88l-20.672-7.525a.998.998 0 0 1-.599-1.282zM100.116 84.488a3.482 3.482 0 0 1 1.277-4.757l25.142-14.515a3.483 3.483 0 0 1 4.758 1.272l12.02 20.818a3.482 3.482 0 0 1-1.278 4.757l-25.142 14.515a3.483 3.483 0 0 1-4.758-1.272l-12.019-20.818zm2.992 1.182l27.713-16 10.921 18.917c.32.553.12 1.266-.424 1.58L115.61 105.01a1.16 1.16 0 0 1-1.58-.423L103.108 85.67zm-1.5-2.598a.998.998 0 0 1 .366-1.366.998.998 0 0 1 1.366.366.998.998 0 0 1-.366 1.366.998.998 0 0 1-1.366-.366zm3.464-2a.998.998 0 0 1 .366-1.366.998.998 0 0 1 1.366.366.998.998 0 0 1-.366 1.366.998.998 0 0 1-1.366-.366zm3.464-2a1 1 0 0 1 .367-1.367l19.05-10.999a1 1 0 1 1 1 1.732l-19.05 11a.998.998 0 0 1-1.367-.366zM153 65.48a3.482 3.482 0 0 1 3.485-3.48h29.03A3.483 3.483 0 0 1 189 65.48v24.04a3.482 3.482 0 0 1-3.485 3.48h-29.03A3.483 3.483 0 0 1 153 89.52V65.48zm2 2.52h32v21.844c0 .638-.529 1.156-1.158 1.156h-29.684A1.16 1.16 0 0 1 155 89.844V68zm0-3c0-.552.444-1 1-1 .552 0 1 .444 1 1 0 .552-.444 1-1 1-.552 0-1-.444-1-1zm4 0c0-.552.444-1 1-1 .552 0 1 .444 1 1 0 .552-.444 1-1 1-.552 0-1-.444-1-1zm4 0a1 1 0 0 1 1-1h22a1 1 0 1 1 0 2h-22c-.552 0-1-.444-1-1zM213.116 74.488a3.482 3.482 0 0 1 1.277-4.757l25.142-14.515a3.483 3.483 0 0 1 4.758 1.272l12.02 20.818a3.482 3.482 0 0 1-1.278 4.757l-25.142 14.515a3.483 3.483 0 0 1-4.758-1.272l-12.019-20.818zm2.992 1.182l27.713-16 10.921 18.917c.32.553.12 1.266-.424 1.58L228.61 95.01a1.16 1.16 0 0 1-1.58-.423L216.108 75.67zm-1.5-2.598a.998.998 0 0 1 .366-1.366.998.998 0 0 1 1.366.366.998.998 0 0 1-.366 1.366.998.998 0 0 1-1.366-.366zm3.464-2a.998.998 0 0 1 .366-1.366.998.998 0 0 1 1.366.366.998.998 0 0 1-.366 1.366.998.998 0 0 1-1.366-.366zm3.464-2a1 1 0 0 1 .367-1.367l19.05-10.999a1 1 0 1 1 1 1.732l-19.05 11a.998.998 0 0 1-1.367-.366zM261.907 93.026a3.482 3.482 0 0 1 2.827-4.033l28.59-5.041a3.483 3.483 0 0 1 4.036 2.823l4.174 23.673a3.482 3.482 0 0 1-2.827 4.033l-28.59 5.041a3.483 3.483 0 0 1-4.036-2.823l-4.174-23.673zm2.407 2.134l31.514-5.557 3.793 21.512c.11.629-.32 1.23-.94 1.34l-29.233 5.154a1.16 1.16 0 0 1-1.34-.937l-3.794-21.512zm-.52-2.955a.998.998 0 0 1 .81-1.158.998.998 0 0 1 1.159.811.998.998 0 0 1-.811 1.158.998.998 0 0 1-1.159-.81zm3.938-.694a.998.998 0 0 1 .812-1.159.998.998 0 0 1 1.158.811.998.998 0 0 1-.811 1.159.998.998 0 0 1-1.159-.811zm3.94-.695a1 1 0 0 1 .811-1.158l21.665-3.82a1 1 0 1 1 .347 1.97l-21.664 3.82a.998.998 0 0 1-1.16-.812zM288.907 53.026a3.482 3.482 0 0 1 2.827-4.033l28.59-5.041a3.483 3.483 0 0 1 4.036 2.823l4.174 23.673a3.482 3.482 0 0 1-2.827 4.033l-28.59 5.041a3.483 3.483 0 0 1-4.036-2.823l-4.174-23.673zm2.407 2.134l31.514-5.557 3.793 21.512c.11.629-.32 1.23-.94 1.34l-29.233 5.154a1.16 1.16 0 0 1-1.34-.937l-3.794-21.512zm-.52-2.955a.998.998 0 0 1 .81-1.158.998.998 0 0 1 1.159.811.998.998 0 0 1-.811 1.158.998.998 0 0 1-1.159-.81zm3.938-.694a.998.998 0 0 1 .812-1.159.998.998 0 0 1 1.158.811.998.998 0 0 1-.811 1.159.998.998 0 0 1-1.159-.811zm3.94-.695a1 1 0 0 1 .811-1.158l21.665-3.82a1 1 0 1 1 .347 1.97l-21.664 3.82a.998.998 0 0 1-1.16-.812zM364.254 75.146a3.482 3.482 0 0 1 .773-4.864l23.487-17.064a3.483 3.483 0 0 1 4.865.768l14.13 19.447a3.482 3.482 0 0 1-.774 4.864l-23.486 17.064a3.483 3.483 0 0 1-4.866-.768l-14.129-19.447zm3.099.862L393.24 57.2l12.84 17.672a1.164 1.164 0 0 1-.257 1.616l-24.015 17.448a1.16 1.16 0 0 1-1.617-.255l-12.84-17.672zm-1.763-2.427a.998.998 0 0 1 .22-1.397.998.998 0 0 1 1.398.222.998.998 0 0 1-.222 1.397.998.998 0 0 1-1.396-.222zm3.236-2.35a.998.998 0 0 1 .22-1.398.998.998 0 0 1 1.398.222.998.998 0 0 1-.222 1.396.998.998 0 0 1-1.396-.22zm3.236-2.352a1 1 0 0 1 .221-1.397l17.798-12.93a1 1 0 1 1 1.176 1.618L373.458 69.1a.998.998 0 0 1-1.397-.221zM453.269 52.437a3.482 3.482 0 0 1 4.599-1.763l26.52 11.808a3.483 3.483 0 0 1 1.768 4.597l-9.777 21.96a3.482 3.482 0 0 1-4.599 1.763l-26.521-11.808a3.483 3.483 0 0 1-1.768-4.597l9.778-21.96zm.802 3.114l29.234 13.016-8.885 19.955c-.26.584-.953.842-1.528.586l-27.118-12.074a1.16 1.16 0 0 1-.587-1.527l8.884-19.956zm1.22-2.74a.998.998 0 0 1 1.32-.507.998.998 0 0 1 .507 1.32.998.998 0 0 1-1.32.507.998.998 0 0 1-.507-1.32zm3.655 1.627a.998.998 0 0 1 1.32-.507.998.998 0 0 1 .507 1.32.998.998 0 0 1-1.32.507.998.998 0 0 1-.507-1.32zm3.654 1.627a1 1 0 0 1 1.32-.507l20.097 8.948a1 1 0 1 1-.813 1.827l-20.097-8.948a.998.998 0 0 1-.507-1.32zM499.559 75.523a3.482 3.482 0 0 1 3.718-3.23l28.96 2.025a3.483 3.483 0 0 1 3.234 3.716l-1.677 23.98a3.482 3.482 0 0 1-3.719 3.229l-28.96-2.025a3.483 3.483 0 0 1-3.233-3.716l1.677-23.98zm1.819 2.652l31.922 2.232-1.524 21.79a1.164 1.164 0 0 1-1.235 1.074l-29.612-2.071a1.16 1.16 0 0 1-1.075-1.234l1.524-21.79zm.21-2.993a.998.998 0 0 1 1.067-.927c.55.038.966.512.927 1.067a.998.998 0 0 1-1.067.928.998.998 0 0 1-.928-1.068zm3.99.28a.998.998 0 0 1 1.067-.928c.55.038.966.512.928 1.067a.998.998 0 0 1-1.068.928.998.998 0 0 1-.927-1.068zm3.99.278a1 1 0 0 1 1.068-.927l21.945 1.534a1 1 0 1 1-.14 1.995l-21.945-1.534a.998.998 0 0 1-.928-1.068zM557.254 96.146a3.482 3.482 0 0 1 .773-4.864l23.487-17.064a3.483 3.483 0 0 1 4.865.768l14.13 19.447a3.482 3.482 0 0 1-.774 4.864l-23.486 17.064a3.483 3.483 0 0 1-4.866-.768l-14.129-19.447zm3.099.862L586.24 78.2l12.84 17.672a1.164 1.164 0 0 1-.257 1.616l-24.015 17.448a1.16 1.16 0 0 1-1.617-.255l-12.84-17.672zm-1.763-2.427a.998.998 0 0 1 .22-1.397.998.998 0 0 1 1.398.222.998.998 0 0 1-.222 1.397.998.998 0 0 1-1.396-.222zm3.236-2.35a.998.998 0 0 1 .22-1.398.998.998 0 0 1 1.398.222.998.998 0 0 1-.222 1.396.998.998 0 0 1-1.396-.22zm3.236-2.352a1 1 0 0 1 .221-1.397l17.798-12.93a1 1 0 1 1 1.176 1.618L566.458 90.1a.998.998 0 0 1-1.397-.221zM47.416 88.146a3.482 3.482 0 0 1 4.465-2.08l27.28 9.93a3.483 3.483 0 0 1 2.084 4.463l-8.222 22.588a3.482 3.482 0 0 1-4.465 2.08l-27.28-9.93a3.483 3.483 0 0 1-2.084-4.462l8.222-22.589zm1.018 3.051l30.07 10.945-7.471 20.526c-.218.6-.892.906-1.483.69l-27.895-10.152a1.16 1.16 0 0 1-.692-1.482l7.47-20.527zm1.026-2.819a.998.998 0 0 1 1.282-.597c.519.188.787.759.597 1.281a.998.998 0 0 1-1.281.598.998.998 0 0 1-.598-1.282zm3.759 1.368a.998.998 0 0 1 1.281-.597c.52.189.788.759.598 1.281a.998.998 0 0 1-1.282.598.998.998 0 0 1-.597-1.282zm3.758 1.368a1 1 0 0 1 1.283-.597l20.672 7.524a1 1 0 1 1-.684 1.88l-20.672-7.525a.998.998 0 0 1-.599-1.282zM12.273 136.723a3.482 3.482 0 0 1 2.083-4.463l27.28-9.93a3.483 3.483 0 0 1 4.466 2.08l8.221 22.588a3.482 3.482 0 0 1-2.084 4.463l-27.28 9.93a3.483 3.483 0 0 1-4.465-2.08l-8.221-22.588zm2.74 1.683l30.07-10.945 7.472 20.526c.218.6-.102 1.268-.693 1.483l-27.894 10.153a1.16 1.16 0 0 1-1.483-.69l-7.471-20.527zm-1.025-2.82a.998.998 0 0 1 .597-1.281.998.998 0 0 1 1.282.598.998.998 0 0 1-.598 1.281.998.998 0 0 1-1.281-.597zm3.758-1.367a.998.998 0 0 1 .598-1.282.998.998 0 0 1 1.282.598.998.998 0 0 1-.598 1.281.998.998 0 0 1-1.282-.597zm3.76-1.368a1 1 0 0 1 .597-1.282l20.672-7.524a1 1 0 1 1 .684 1.88l-20.672 7.523a.998.998 0 0 1-1.282-.597zM74 132.48a3.482 3.482 0 0 1 3.485-3.48h29.03a3.483 3.483 0 0 1 3.485 3.48v24.04a3.482 3.482 0 0 1-3.485 3.48h-29.03A3.483 3.483 0 0 1 74 156.52v-24.04zm2 2.52h32v21.844c0 .638-.529 1.156-1.158 1.156H77.158A1.16 1.16 0 0 1 76 156.844V135zm0-3c0-.552.444-1 1-1 .552 0 1 .444 1 1 0 .552-.444 1-1 1-.552 0-1-.444-1-1zm4 0c0-.552.444-1 1-1 .552 0 1 .444 1 1 0 .552-.444 1-1 1-.552 0-1-.444-1-1zm4 0a1 1 0 0 1 1-1h22a1 1 0 1 1 0 2H85c-.552 0-1-.444-1-1zM130.416 110.146a3.482 3.482 0 0 1 4.465-2.08l27.28 9.93a3.483 3.483 0 0 1 2.084 4.463l-8.222 22.588a3.482 3.482 0 0 1-4.465 2.08l-27.28-9.93a3.483 3.483 0 0 1-2.084-4.462l8.222-22.589zm1.018 3.051l30.07 10.945-7.471 20.526c-.218.6-.892.906-1.483.69l-27.895-10.152a1.16 1.16 0 0 1-.692-1.482l7.47-20.527zm1.026-2.819a.998.998 0 0 1 1.282-.597c.519.188.787.759.597 1.281a.998.998 0 0 1-1.281.598.998.998 0 0 1-.598-1.282zm3.759 1.368a.998.998 0 0 1 1.281-.597c.52.189.788.759.598 1.281a.998.998 0 0 1-1.282.598.998.998 0 0 1-.597-1.282zm3.758 1.368a1 1 0 0 1 1.283-.597l20.672 7.524a1 1 0 1 1-.684 1.88l-20.672-7.525a.998.998 0 0 1-.599-1.282zM184.416 102.146a3.482 3.482 0 0 1 4.465-2.08l27.28 9.93a3.483 3.483 0 0 1 2.084 4.463l-8.222 22.588a3.482 3.482 0 0 1-4.465 2.08l-27.28-9.93a3.483 3.483 0 0 1-2.084-4.462l8.222-22.589zm1.018 3.051l30.07 10.945-7.471 20.526c-.218.6-.892.906-1.483.69l-27.895-10.152a1.16 1.16 0 0 1-.692-1.482l7.47-20.527zm1.026-2.819a.998.998 0 0 1 1.282-.597c.519.188.787.759.597 1.281a.998.998 0 0 1-1.281.598.998.998 0 0 1-.598-1.282zm3.759 1.368a.998.998 0 0 1 1.281-.597c.52.189.788.759.598 1.281a.998.998 0 0 1-1.282.598.998.998 0 0 1-.597-1.282zm3.758 1.368a1 1 0 0 1 1.283-.597l20.672 7.524a1 1 0 1 1-.684 1.88l-20.672-7.525a.998.998 0 0 1-.599-1.282zM173.116 159.488a3.482 3.482 0 0 1 1.277-4.757l25.142-14.515a3.483 3.483 0 0 1 4.758 1.272l12.02 20.818a3.482 3.482 0 0 1-1.278 4.757l-25.142 14.515a3.483 3.483 0 0 1-4.758-1.272l-12.019-20.818zm2.992 1.182l27.713-16 10.921 18.917c.32.553.12 1.266-.424 1.58L188.61 180.01a1.16 1.16 0 0 1-1.58-.423l-10.922-18.917zm-1.5-2.598a.998.998 0 0 1 .366-1.366.998.998 0 0 1 1.366.366.998.998 0 0 1-.366 1.366.998.998 0 0 1-1.366-.366zm3.464-2a.998.998 0 0 1 .366-1.366.998.998 0 0 1 1.366.366.998.998 0 0 1-.366 1.366.998.998 0 0 1-1.366-.366zm3.464-2a1 1 0 0 1 .367-1.367l19.05-10.999a1 1 0 1 1 1 1.732l-19.05 11a.998.998 0 0 1-1.367-.366zM233.116 141.488a3.482 3.482 0 0 1 1.277-4.757l25.142-14.515a3.483 3.483 0 0 1 4.758 1.272l12.02 20.818a3.482 3.482 0 0 1-1.278 4.757l-25.142 14.515a3.483 3.483 0 0 1-4.758-1.272l-12.019-20.818zm2.992 1.182l27.713-16 10.921 18.917c.32.553.12 1.266-.424 1.58L248.61 162.01a1.16 1.16 0 0 1-1.58-.423l-10.922-18.917zm-1.5-2.598a.998.998 0 0 1 .366-1.366.998.998 0 0 1 1.366.366.998.998 0 0 1-.366 1.366.998.998 0 0 1-1.366-.366zm3.464-2a.998.998 0 0 1 .366-1.366.998.998 0 0 1 1.366.366.998.998 0 0 1-.366 1.366.998.998 0 0 1-1.366-.366zm3.464-2a1 1 0 0 1 .367-1.367l19.05-10.999a1 1 0 1 1 1 1.732l-19.05 11a.998.998 0 0 1-1.367-.366zM300.761 124.442a3.482 3.482 0 0 1 4.906.432l18.661 22.239a3.483 3.483 0 0 1-.427 4.907l-18.414 15.451a3.482 3.482 0 0 1-4.906-.432L281.92 144.8a3.483 3.483 0 0 1 .427-4.906l18.414-15.452zm-.644 3.152l20.569 24.513-16.733 14.04c-.49.411-1.226.339-1.63-.143l-19.081-22.74a1.16 1.16 0 0 1 .142-1.63l16.733-14.04zm2.298-1.929a.998.998 0 0 1 1.409.123.998.998 0 0 1-.124 1.41.998.998 0 0 1-1.408-.124.998.998 0 0 1 .123-1.409zm2.571 3.064a.998.998 0 0 1 1.409.124.998.998 0 0 1-.123 1.408.998.998 0 0 1-1.41-.123.998.998 0 0 1 .124-1.409zm2.571 3.065a1 1 0 0 1 1.41.123l14.14 16.852a1 1 0 1 1-1.532 1.286l-14.14-16.852a.998.998 0 0 1 .122-1.41zM319.241 105.891a3.482 3.482 0 0 1-.427-4.906l18.661-22.24a3.483 3.483 0 0 1 4.906-.431l18.415 15.451a3.482 3.482 0 0 1 .426 4.907l-18.66 22.24a3.483 3.483 0 0 1-4.907.43l-18.414-15.45zm3.215.088l20.57-24.514 16.733 14.041c.489.41.546 1.148.141 1.63l-19.08 22.74a1.16 1.16 0 0 1-1.63.143l-16.734-14.04zm-2.298-1.929a.998.998 0 0 1-.123-1.409.998.998 0 0 1 1.409-.123c.423.355.48.983.123 1.409a.998.998 0 0 1-1.409.123zm2.571-3.064a.998.998 0 0 1-.123-1.409.998.998 0 0 1 1.409-.123c.423.355.48.983.123 1.409a.998.998 0 0 1-1.409.123zm2.571-3.064a1 1 0 0 1-.122-1.41l14.14-16.851a1 1 0 1 1 1.532 1.286l-14.14 16.851a.998.998 0 0 1-1.41.124zM365.269 114.437a3.482 3.482 0 0 1 4.599-1.763l26.52 11.808a3.483 3.483 0 0 1 1.768 4.597l-9.777 21.96a3.482 3.482 0 0 1-4.599 1.763l-26.521-11.808a3.483 3.483 0 0 1-1.768-4.597l9.778-21.96zm.802 3.114l29.234 13.016-8.885 19.955c-.26.584-.953.842-1.528.586l-27.118-12.074a1.16 1.16 0 0 1-.587-1.527l8.884-19.956zm1.22-2.74a.998.998 0 0 1 1.32-.507.998.998 0 0 1 .507 1.32.998.998 0 0 1-1.32.507.998.998 0 0 1-.507-1.32zm3.655 1.627a.998.998 0 0 1 1.32-.507.998.998 0 0 1 .507 1.32.998.998 0 0 1-1.32.507.998.998 0 0 1-.507-1.32zm3.654 1.627a1 1 0 0 1 1.32-.507l20.097 8.948a1 1 0 1 1-.813 1.827l-20.097-8.948a.998.998 0 0 1-.507-1.32zM416.269 90.437a3.482 3.482 0 0 1 4.599-1.763l26.52 11.808a3.483 3.483 0 0 1 1.768 4.597l-9.777 21.96a3.482 3.482 0 0 1-4.599 1.763l-26.521-11.808a3.483 3.483 0 0 1-1.768-4.597l9.778-21.96zm.802 3.114l29.234 13.016-8.885 19.955c-.26.584-.953.842-1.528.586l-27.118-12.074a1.16 1.16 0 0 1-.587-1.527l8.884-19.956zm1.22-2.74a.998.998 0 0 1 1.32-.507.998.998 0 0 1 .507 1.32.998.998 0 0 1-1.32.507.998.998 0 0 1-.507-1.32zm3.655 1.627a.998.998 0 0 1 1.32-.507.998.998 0 0 1 .507 1.32.998.998 0 0 1-1.32.507.998.998 0 0 1-.507-1.32zm3.654 1.627a1 1 0 0 1 1.32-.507l20.097 8.948a1 1 0 1 1-.813 1.827l-20.097-8.948a.998.998 0 0 1-.507-1.32zM419.621 139.12a3.482 3.482 0 0 1 4.656 1.607l12.726 26.093a3.483 3.483 0 0 1-1.6 4.657l-21.606 10.538a3.482 3.482 0 0 1-4.656-1.606l-12.727-26.093a3.483 3.483 0 0 1 1.601-4.658l21.606-10.537zm-1.387 2.903l14.027 28.761-19.633 9.576a1.164 1.164 0 0 1-1.546-.534l-13.013-26.68a1.16 1.16 0 0 1 .532-1.548l19.633-9.575zm2.696-1.315a.998.998 0 0 1 1.337.46.998.998 0 0 1-.46 1.337.998.998 0 0 1-1.338-.46.998.998 0 0 1 .46-1.337zm1.753 3.595a.998.998 0 0 1 1.338.46.998.998 0 0 1-.46 1.337.998.998 0 0 1-1.338-.46.998.998 0 0 1 .46-1.337zm1.754 3.595a1 1 0 0 1 1.337.46l9.644 19.773a1 1 0 1 1-1.798.877l-9.643-19.772a.998.998 0 0 1 .46-1.338zM457.254 127.146a3.482 3.482 0 0 1 .773-4.864l23.487-17.064a3.483 3.483 0 0 1 4.865.768l14.13 19.447a3.482 3.482 0 0 1-.774 4.864l-23.486 17.064a3.483 3.483 0 0 1-4.866-.768l-14.129-19.447zm3.099.862L486.24 109.2l12.84 17.672a1.164 1.164 0 0 1-.257 1.616l-24.015 17.448a1.16 1.16 0 0 1-1.617-.255l-12.84-17.672zm-1.763-2.427a.998.998 0 0 1 .22-1.397.998.998 0 0 1 1.398.222.998.998 0 0 1-.222 1.397.998.998 0 0 1-1.396-.222zm3.236-2.35a.998.998 0 0 1 .22-1.398.998.998 0 0 1 1.398.222.998.998 0 0 1-.222 1.396.998.998 0 0 1-1.396-.22zm3.236-2.352a1 1 0 0 1 .221-1.397l17.798-12.93a1 1 0 1 1 1.176 1.618l-17.798 12.93a.998.998 0 0 1-1.397-.221zM517.254 136.146a3.482 3.482 0 0 1 .773-4.864l23.487-17.064a3.483 3.483 0 0 1 4.865.768l14.13 19.447a3.482 3.482 0 0 1-.774 4.864l-23.486 17.064a3.483 3.483 0 0 1-4.866-.768l-14.129-19.447zm3.099.862L546.24 118.2l12.84 17.672a1.164 1.164 0 0 1-.257 1.616l-24.015 17.448a1.16 1.16 0 0 1-1.617-.255l-12.84-17.672zm-1.763-2.427a.998.998 0 0 1 .22-1.397.998.998 0 0 1 1.398.222.998.998 0 0 1-.222 1.397.998.998 0 0 1-1.396-.222zm3.236-2.35a.998.998 0 0 1 .22-1.398.998.998 0 0 1 1.398.222.998.998 0 0 1-.222 1.396.998.998 0 0 1-1.396-.22zm3.236-2.352a1 1 0 0 1 .221-1.397l17.798-12.93a1 1 0 1 1 1.176 1.618l-17.798 12.93a.998.998 0 0 1-1.397-.221z"/></g></svg>