<svg xmlns="http://www.w3.org/2000/svg" viewBox="0 0 605 180"><title>check</title><g fill-rule="evenodd"><path d="M40.958 27.474l3.789-21.672s.542-2.95 3.732-2.388c3.19.562 2.669 3.516 2.669 3.516l-4.532 25.703c-.243 1.38-1.059 2.806-3.458 2.336l-13.295-2.344s-3.466-.505-2.849-4.003 4.064-2.89 4.064-2.89l9.88 1.742zM73.994 58.912l16.833-14.166s2.31-1.911 4.393.57c2.083 2.48-.215 4.41-.215 4.41L75.012 66.5c-1.073.9-2.615 1.47-4.15-.433l-8.679-10.341s-2.33-2.615.391-4.898c2.722-2.283 4.972.398 4.972.398l6.448 7.685zM130.958 36.474l3.789-21.672s.542-2.95 3.732-2.388c3.19.562 2.669 3.516 2.669 3.516l-4.532 25.703c-.243 1.38-1.059 2.806-3.458 2.336l-13.295-2.344s-3.466-.505-2.849-4.003 4.064-2.89 4.064-2.89l9.88 1.742zM193.462 38.602l19.037-11.028s2.608-1.48 4.228 1.324c1.62 2.805-.978 4.305-.978 4.305l-22.603 13.05c-1.213.7-2.83.992-4.012-1.148l-6.75-11.691s-1.842-2.98 1.235-4.755c3.077-1.776 4.827 1.255 4.827 1.255l5.016 8.688zM261.958 33.474l3.789-21.672s.542-2.95 3.732-2.388c3.19.562 2.669 3.516 2.669 3.516l-4.532 25.703c-.243 1.38-1.059 2.806-3.458 2.336l-13.295-2.344s-3.466-.505-2.849-4.003 4.064-2.89 4.064-2.89l9.88 1.742zM349.867 38.96l20.792-7.193s2.842-.956 3.897 2.106c1.055 3.063-1.781 4.04-1.781 4.04l-24.677 8.497c-1.325.456-2.968.434-3.72-1.893l-4.396-12.764s-1.238-3.276 2.12-4.432c3.36-1.156 4.499 2.153 4.499 2.153l3.266 9.486zM429.826 40.818l-2.332-21.877s-.292-2.985 2.93-3.324c3.221-.34 3.535 2.644 3.535 2.644l2.728 25.956c.146 1.394-.244 2.99-2.68 3.2l-13.426 1.41s-3.471.47-3.842-3.062c-.371-3.533 3.11-3.899 3.11-3.899l9.977-1.048zM508.712 31.915l1.503-21.95s.23-2.99 3.462-2.764c3.231.225 3.022 3.218 3.022 3.218l-1.82 26.035c-.098 1.398-.76 2.902-3.196 2.685l-13.467-.941s-3.5-.14-3.251-3.684c.248-3.543 3.74-3.3 3.74-3.3l10.007.7zM548.456 52.733l21.14-6.096s2.888-.805 3.782 2.308c.893 3.114-1.99 3.94-1.99 3.94l-25.089 7.194c-1.346.387-2.986.279-3.615-2.084l-3.722-12.977s-1.065-3.336 2.35-4.315c3.414-.978 4.379 2.386 4.379 2.386l2.765 9.644zM17.462 79.602l19.037-11.028s2.608-1.48 4.228 1.324c1.62 2.805-.978 4.305-.978 4.305l-22.603 13.05c-1.213.7-2.83.992-4.012-1.148l-6.75-11.691s-1.842-2.98 1.235-4.755c3.077-1.776 4.827 1.255 4.827 1.255l5.016 8.688zM120.958 91.474l3.789-21.672s.542-2.95 3.732-2.388c3.19.562 2.669 3.516 2.669 3.516l-4.532 25.703c-.243 1.38-1.059 2.806-3.458 2.336l-13.295-2.344s-3.466-.505-2.849-4.003 4.064-2.89 4.064-2.89l9.88 1.742zM167.557 81.952l14.117-16.875s1.944-2.283 4.426-.201c2.482 2.081.553 4.38.553 4.38l-16.776 19.992c-.9 1.074-2.32 1.901-4.163.294l-10.342-8.677s-2.749-2.17-.465-4.891c2.284-2.72 4.965-.471 4.965-.471l7.685 6.449zM233.958 81.474l3.789-21.672s.542-2.95 3.732-2.388c3.19.562 2.669 3.516 2.669 3.516l-4.532 25.703c-.243 1.38-1.059 2.806-3.458 2.336l-13.295-2.344s-3.466-.505-2.849-4.003 4.064-2.89 4.064-2.89l9.88 1.742zM279.103 106.719l10.972-19.07s1.518-2.586 4.324-.967c2.806 1.62 1.306 4.218 1.306 4.218l-13.05 22.602c-.7 1.213-1.955 2.275-4.049 1.012l-11.691-6.75s-3.084-1.66-1.308-4.735c1.777-3.076 4.808-1.326 4.808-1.326l8.688 5.016zM306.103 66.719l10.972-19.07s1.518-2.586 4.324-.967c2.806 1.62 1.306 4.218 1.306 4.218l-13.05 22.602c-.7 1.213-1.955 2.275-4.049 1.012l-11.691-6.75s-3.084-1.66-1.308-4.735c1.777-3.076 4.808-1.326 4.808-1.326l8.688 5.016zM385.712 79.915l1.503-21.95s.23-2.99 3.462-2.764c3.231.225 3.022 3.218 3.022 3.218l-1.82 26.035c-.098 1.398-.76 2.902-3.196 2.685l-13.467-.941s-3.5-.14-3.251-3.684c.248-3.543 3.74-3.3 3.74-3.3l10.007.7zM459.868 73.404l19.76-9.673s2.705-1.296 4.125 1.616c1.42 2.91-1.276 4.226-1.276 4.226L459.02 81.014c-1.26.614-2.893.793-3.923-1.425l-5.918-12.133s-1.63-3.101 1.564-4.658c3.193-1.557 4.727 1.59 4.727 1.59l4.398 9.016zM512.931 92.969l15.26-15.849s2.099-2.142 4.43.108c2.33 2.25.246 4.408.246 4.408l-18.13 18.774c-.973 1.007-2.447 1.734-4.173.002l-9.712-9.377s-2.591-2.357-.123-4.912c2.468-2.555 4.986-.123 4.986-.123l7.216 6.969zM578.712 100.915l1.503-21.95s.23-2.99 3.462-2.764c3.231.225 3.022 3.218 3.022 3.218l-1.82 26.035c-.098 1.398-.76 2.902-3.196 2.685l-13.467-.941s-3.5-.14-3.251-3.684c.248-3.543 3.74-3.3 3.74-3.3l10.007.7zM55.462 108.602l19.037-11.028s2.608-1.48 4.228 1.324c1.62 2.805-.978 4.305-.978 4.305l-22.603 13.05c-1.213.7-2.83.992-4.012-1.148l-6.75-11.691s-1.842-2.98 1.235-4.755c3.077-1.776 4.827 1.255 4.827 1.255l5.016 8.688zM31.585 147.221l7.494-20.685s1.046-2.81 4.09-1.703c3.044 1.107 2.018 3.926 2.018 3.926l-8.926 24.525c-.48 1.317-1.53 2.58-3.811 1.7l-12.686-4.616s-3.326-1.1-2.11-4.437c1.215-3.338 4.504-2.141 4.504-2.141l9.427 3.431zM88.557 148.952l14.117-16.875s1.944-2.283 4.426-.201c2.482 2.081.553 4.38.553 4.38l-16.776 19.992c-.9 1.074-2.32 1.901-4.163.294l-10.342-8.677s-2.749-2.17-.465-4.891c2.284-2.72 4.965-.471 4.965-.471l7.685 6.449zM138.462 130.602l19.037-11.028s2.608-1.48 4.228 1.324c1.62 2.805-.978 4.305-.978 4.305l-22.603 13.05c-1.213.7-2.83.992-4.012-1.148l-6.75-11.691s-1.842-2.98 1.235-4.755c3.077-1.776 4.827 1.255 4.827 1.255l5.016 8.688zM192.462 122.602l19.037-11.028s2.608-1.48 4.228 1.324c1.62 2.805-.978 4.305-.978 4.305l-22.603 13.05c-1.213.7-2.83.992-4.012-1.148l-6.75-11.691s-1.842-2.98 1.235-4.755c3.077-1.776 4.827 1.255 4.827 1.255l5.016 8.688zM193.958 166.474l3.789-21.672s.542-2.95 3.732-2.388c3.19.562 2.669 3.516 2.669 3.516l-4.532 25.703c-.243 1.38-1.059 2.806-3.458 2.336l-13.295-2.344s-3.466-.505-2.849-4.003 4.064-2.89 4.064-2.89l9.88 1.742zM253.958 148.474l3.789-21.672s.542-2.95 3.732-2.388c3.19.562 2.669 3.516 2.669 3.516l-4.532 25.703c-.243 1.38-1.059 2.806-3.458 2.336l-13.295-2.344s-3.466-.505-2.849-4.003 4.064-2.89 4.064-2.89l9.88 1.742zM297.5 146.18l22.001-.032s3 .022 3 3.261c0 3.24-3 3.24-3 3.24h-26.099c-1.4 0-2.947-.556-2.9-3l-.001-13.5s-.105-3.502 3.448-3.501c3.552 0 3.552 3.5 3.552 3.5v10.033zM341.215 105.327l-3.852-21.66s-.5-2.957 2.69-3.52c3.19-.564 3.711 2.39 3.711 2.39l4.532 25.703c.244 1.38-.035 3-2.45 3.378l-13.295 2.345s-3.43.71-4.046-2.788c-.616-3.498 2.83-4.106 2.83-4.106l9.88-1.742zM371.868 135.404l19.76-9.673s2.705-1.296 4.125 1.616c1.42 2.91-1.276 4.226-1.276 4.226l-23.457 11.441c-1.26.614-2.893.793-3.923-1.425l-5.918-12.133s-1.63-3.101 1.564-4.658c3.193-1.557 4.727 1.59 4.727 1.59l4.398 9.016zM422.868 111.404l19.76-9.673s2.705-1.296 4.125 1.616c1.42 2.91-1.276 4.226-1.276 4.226l-23.457 11.441c-1.26.614-2.893.793-3.923-1.425l-5.918-12.133s-1.63-3.101 1.564-4.658c3.193-1.557 4.727 1.59 4.727 1.59l4.398 9.016zM411.199 159.425l21.355 5.29s2.904.747 2.121 3.89c-.783 3.144-3.694 2.418-3.694 2.418l-25.324-6.314c-1.36-.34-2.725-1.252-2.089-3.613l3.266-13.099s.745-3.422 4.192-2.562c3.446.86 2.6 4.255 2.6 4.255l-2.427 9.735zM478.712 131.915l1.503-21.95s.23-2.99 3.462-2.764c3.231.225 3.022 3.218 3.022 3.218l-1.82 26.035c-.098 1.398-.76 2.902-3.196 2.685l-13.467-.941s-3.5-.14-3.251-3.684c.248-3.543 3.74-3.3 3.74-3.3l10.007.7zM538.712 140.915l1.503-21.95s.23-2.99 3.462-2.764c3.231.225 3.022 3.218 3.022 3.218l-1.82 26.035c-.098 1.398-.76 2.902-3.196 2.685l-13.467-.941s-3.5-.14-3.251-3.684c.248-3.543 3.74-3.3 3.74-3.3l10.007.7z"/></g></svg>