<svg xmlns="http://www.w3.org/2000/svg" viewBox="0 0 605 180"><title>chevron-right</title><g fill-rule="evenodd"><path d="M43.193 20.466L31.41 16.968a1.774 1.774 0 0 1-1.275-2.21 1.874 1.874 0 0 1 2.258-1.303l14.026 3.673a1.777 1.777 0 0 1 1.277 2.212l-3.832 13.983a1.87 1.87 0 0 1-2.259 1.304 1.774 1.774 0 0 1-1.275-2.21l2.863-11.95zM80.21 54.98l-6.777-10.253a1.774 1.774 0 0 1 .443-2.512 1.874 1.874 0 0 1 2.569.453l8.382 11.829c.588.821.39 1.947-.443 2.515L72.46 65.26a1.87 1.87 0 0 1-2.569-.453 1.774 1.774 0 0 1 .443-2.513l9.875-7.314zM133.193 29.466l-11.783-3.498a1.774 1.774 0 0 1-1.275-2.21 1.874 1.874 0 0 1 2.258-1.303l14.026 3.673a1.777 1.777 0 0 1 1.277 2.212l-3.832 13.983a1.87 1.87 0 0 1-2.259 1.304 1.774 1.774 0 0 1-1.275-2.21l2.863-11.95zM200.266 35.81l-4.894-11.275a1.774 1.774 0 0 1 .873-2.397 1.874 1.874 0 0 1 2.45.892l6.202 13.105a1.777 1.777 0 0 1-.873 2.4l-13.175 6.053a1.87 1.87 0 0 1-2.45-.892 1.774 1.774 0 0 1 .872-2.397l10.995-5.49zM264.193 26.466l-11.783-3.498a1.774 1.774 0 0 1-1.275-2.21 1.874 1.874 0 0 1 2.258-1.303l14.026 3.673a1.777 1.777 0 0 1 1.277 2.212l-3.832 13.983a1.87 1.87 0 0 1-2.259 1.304 1.774 1.774 0 0 1-1.275-2.21l2.863-11.95zM357.08 37.517l-2.653-12.001a1.774 1.774 0 0 1 1.314-2.187 1.874 1.874 0 0 1 2.235 1.343l3.587 14.048a1.777 1.777 0 0 1-1.315 2.19l-14.087 3.427a1.87 1.87 0 0 1-2.236-1.343 1.774 1.774 0 0 1 1.314-2.187l11.84-3.29zM430.043 33.466l-12.29-.115a1.774 1.774 0 0 1-1.836-1.773 1.874 1.874 0 0 1 1.812-1.876l14.495-.335a1.777 1.777 0 0 1 1.837 1.774l.17 14.498a1.87 1.87 0 0 1-1.811 1.876 1.774 1.774 0 0 1-1.835-1.772l-.542-12.277zM510.202 24.712l-12.084-2.248a1.774 1.774 0 0 1-1.5-2.063 1.874 1.874 0 0 1 2.111-1.534l14.333 2.188c.999.148 1.67 1.072 1.5 2.066l-2.348 14.307a1.87 1.87 0 0 1-2.11 1.533 1.774 1.774 0 0 1-1.5-2.064l1.598-12.185zM555.734 51.67l-2.02-12.124a1.774 1.774 0 0 1 1.426-2.115 1.874 1.874 0 0 1 2.162 1.458l2.847 14.216a1.777 1.777 0 0 1-1.428 2.117l-14.248 2.687a1.87 1.87 0 0 1-2.162-1.459 1.774 1.774 0 0 1 1.426-2.115l11.997-2.666zM24.266 76.81l-4.894-11.275a1.774 1.774 0 0 1 .873-2.397 1.874 1.874 0 0 1 2.45.892l6.202 13.105a1.777 1.777 0 0 1-.873 2.4l-13.175 6.053a1.87 1.87 0 0 1-2.45-.892 1.774 1.774 0 0 1 .872-2.397l10.995-5.49zM123.193 84.466l-11.783-3.498a1.774 1.774 0 0 1-1.275-2.21 1.874 1.874 0 0 1 2.258-1.303l14.026 3.673a1.777 1.777 0 0 1 1.277 2.212l-3.832 13.983a1.87 1.87 0 0 1-2.259 1.304 1.774 1.774 0 0 1-1.275-2.21l2.863-11.95zM172.996 77l-8.455-8.92a1.774 1.774 0 0 1 0-2.552 1.874 1.874 0 0 1 2.608 0l10.31 10.194c.721.707.721 1.85 0 2.554l-10.31 10.194a1.87 1.87 0 0 1-2.608 0 1.774 1.774 0 0 1 0-2.551L172.996 77zM236.193 74.466l-11.783-3.498a1.774 1.774 0 0 1-1.275-2.21 1.874 1.874 0 0 1 2.258-1.303l14.026 3.673a1.777 1.777 0 0 1 1.277 2.212l-3.832 13.983a1.87 1.87 0 0 1-2.259 1.304 1.774 1.774 0 0 1-1.275-2.21l2.863-11.95zM283.6 100.898l-9.876-7.317a1.774 1.774 0 0 1-.443-2.512 1.874 1.874 0 0 1 2.569-.453l11.923 8.249a1.777 1.777 0 0 1 .443 2.515l-8.383 11.829a1.87 1.87 0 0 1-2.568.453 1.774 1.774 0 0 1-.443-2.513l6.778-10.25zM310.6 60.898l-9.876-7.317a1.774 1.774 0 0 1-.443-2.512 1.874 1.874 0 0 1 2.569-.453l11.923 8.249a1.777 1.777 0 0 1 .443 2.515l-8.383 11.829a1.87 1.87 0 0 1-2.568.453 1.774 1.774 0 0 1-.443-2.513L310.6 60.9zM387.202 72.712l-12.084-2.248a1.774 1.774 0 0 1-1.5-2.063 1.874 1.874 0 0 1 2.111-1.534l14.333 2.188c.999.148 1.67 1.072 1.5 2.066l-2.348 14.307a1.87 1.87 0 0 1-2.11 1.533 1.774 1.774 0 0 1-1.5-2.064l1.598-12.185zM466.85 71.093l-4.095-11.588a1.774 1.774 0 0 1 1.038-2.331c.945-.35 2.01.124 2.383 1.061l5.272 13.506a1.777 1.777 0 0 1-1.04 2.333l-13.564 5.12a1.87 1.87 0 0 1-2.383-1.062 1.774 1.774 0 0 1 1.038-2.33l11.352-4.709zM518.702 88.409l-7.812-9.49a1.774 1.774 0 0 1 .178-2.544 1.874 1.874 0 0 1 2.602.182l9.574 10.888c.67.756.59 1.895-.179 2.548l-10.995 9.45a1.87 1.87 0 0 1-2.602-.182c-.67-.75-.591-1.89.178-2.545l9.056-8.307zM580.202 93.712l-12.084-2.248a1.774 1.774 0 0 1-1.5-2.063 1.874 1.874 0 0 1 2.111-1.534l14.333 2.188c.999.148 1.67 1.072 1.5 2.066l-2.348 14.307a1.87 1.87 0 0 1-2.11 1.533 1.774 1.774 0 0 1-1.5-2.064l1.598-12.185zM62.266 105.81l-4.894-11.275a1.774 1.774 0 0 1 .873-2.397 1.874 1.874 0 0 1 2.45.892l6.202 13.105a1.777 1.777 0 0 1-.873 2.4l-13.175 6.053a1.87 1.87 0 0 1-2.45-.892 1.774 1.774 0 0 1 .872-2.397l10.995-5.49zM35.003 140.708l-10.997-5.49a1.774 1.774 0 0 1-.872-2.398 1.874 1.874 0 0 1 2.45-.892l13.175 6.053c.92.417 1.31 1.491.874 2.4l-6.202 13.105a1.87 1.87 0 0 1-2.45.892 1.774 1.774 0 0 1-.873-2.397l4.895-11.273zM93.996 144l-8.455-8.92a1.774 1.774 0 0 1 0-2.552 1.874 1.874 0 0 1 2.608 0l10.31 10.194c.721.707.721 1.85 0 2.554l-10.31 10.194a1.87 1.87 0 0 1-2.608 0 1.774 1.774 0 0 1 0-2.551L93.996 144zM145.266 127.81l-4.894-11.275a1.774 1.774 0 0 1 .873-2.397 1.874 1.874 0 0 1 2.45.892l6.202 13.105a1.777 1.777 0 0 1-.873 2.4l-13.175 6.053a1.87 1.87 0 0 1-2.45-.892 1.774 1.774 0 0 1 .872-2.397l10.995-5.49zM199.266 119.81l-4.894-11.275a1.774 1.774 0 0 1 .873-2.397 1.874 1.874 0 0 1 2.45.892l6.202 13.105a1.777 1.777 0 0 1-.873 2.4l-13.175 6.053a1.87 1.87 0 0 1-2.45-.892 1.774 1.774 0 0 1 .872-2.397l10.995-5.49zM196.193 159.466l-11.783-3.498a1.774 1.774 0 0 1-1.275-2.21 1.874 1.874 0 0 1 2.258-1.303l14.026 3.673a1.777 1.777 0 0 1 1.277 2.212l-3.832 13.983a1.87 1.87 0 0 1-2.259 1.304 1.774 1.774 0 0 1-1.275-2.21l2.863-11.95zM256.193 141.466l-11.783-3.498a1.774 1.774 0 0 1-1.275-2.21 1.874 1.874 0 0 1 2.258-1.303l14.026 3.673a1.777 1.777 0 0 1 1.277 2.212l-3.832 13.983a1.87 1.87 0 0 1-2.259 1.304 1.774 1.774 0 0 1-1.275-2.21l2.863-11.95zM304.79 147.165l1.399-12.212a1.774 1.774 0 0 1 1.954-1.64c1.003.1 1.753.993 1.677 1.999l-1.182 14.45a1.777 1.777 0 0 1-1.957 1.641l-14.436-1.345a1.87 1.87 0 0 1-1.676-1.998 1.774 1.774 0 0 1 1.954-1.64l12.267.745zM340.919 97.978l-12.269.743a1.774 1.774 0 0 1-1.954-1.64 1.874 1.874 0 0 1 1.676-1.998l14.436-1.345a1.777 1.777 0 0 1 1.956 1.641l1.183 14.45a1.87 1.87 0 0 1-1.677 1.998 1.774 1.774 0 0 1-1.954-1.64l-1.397-12.209zM378.85 133.093l-4.095-11.588a1.774 1.774 0 0 1 1.038-2.331c.945-.35 2.01.124 2.383 1.061l5.272 13.506a1.777 1.777 0 0 1-1.04 2.333l-13.564 5.12a1.87 1.87 0 0 1-2.383-1.062 1.774 1.774 0 0 1 1.038-2.33l11.352-4.709zM429.85 109.093l-4.095-11.588a1.774 1.774 0 0 1 1.038-2.331c.945-.35 2.01.124 2.383 1.061l5.272 13.506a1.777 1.777 0 0 1-1.04 2.333l-13.564 5.12a1.87 1.87 0 0 1-2.383-1.062 1.774 1.774 0 0 1 1.038-2.33l11.352-4.709zM418.033 162.143l4.312-11.51a1.774 1.774 0 0 1 2.293-1.119c.949.34 1.46 1.388 1.143 2.345l-4.643 13.735a1.777 1.777 0 0 1-2.295 1.12l-13.682-4.798a1.87 1.87 0 0 1-1.143-2.345 1.774 1.774 0 0 1 2.293-1.118l11.722 3.69zM480.202 124.712l-12.084-2.248a1.774 1.774 0 0 1-1.5-2.063 1.874 1.874 0 0 1 2.111-1.534l14.333 2.188c.999.148 1.67 1.072 1.5 2.066l-2.348 14.307a1.87 1.87 0 0 1-2.11 1.533 1.774 1.774 0 0 1-1.5-2.064l1.598-12.185zM540.202 133.712l-12.084-2.248a1.774 1.774 0 0 1-1.5-2.063 1.874 1.874 0 0 1 2.111-1.534l14.333 2.188c.999.148 1.67 1.072 1.5 2.066l-2.348 14.307a1.87 1.87 0 0 1-2.11 1.533 1.774 1.774 0 0 1-1.5-2.064l1.598-12.185z"/></g></svg>