<svg xmlns="http://www.w3.org/2000/svg" viewBox="0 0 605 180"><title>chevron-down</title><g fill-rule="evenodd"><path d="M42.462 23.193L45.96 11.41a1.774 1.774 0 0 1 2.21-1.275 1.874 1.874 0 0 1 1.304 2.258L45.8 26.42a1.777 1.777 0 0 1-2.211 1.277l-13.983-3.832a1.87 1.87 0 0 1-1.305-2.259 1.774 1.774 0 0 1 2.21-1.275l11.95 2.863zM77.898 56.6l10.253-6.778a1.774 1.774 0 0 1 2.513.443c.568.833.366 1.98-.453 2.569l-11.83 8.383a1.777 1.777 0 0 1-2.514-.444l-8.25-11.923a1.87 1.87 0 0 1 .454-2.569 1.774 1.774 0 0 1 2.512.443l7.315 9.875zM132.462 32.193l3.498-11.783a1.774 1.774 0 0 1 2.21-1.275 1.874 1.874 0 0 1 1.304 2.258L135.8 35.42a1.777 1.777 0 0 1-2.211 1.277l-13.983-3.832a1.87 1.87 0 0 1-1.305-2.259 1.774 1.774 0 0 1 2.21-1.275l11.95 2.863zM197.708 37.002l11.274-4.894a1.774 1.774 0 0 1 2.398.873 1.874 1.874 0 0 1-.892 2.451l-13.106 6.201a1.777 1.777 0 0 1-2.4-.873l-6.052-13.174a1.87 1.87 0 0 1 .892-2.451 1.774 1.774 0 0 1 2.397.872l5.489 10.995zM263.462 29.193l3.498-11.783a1.774 1.774 0 0 1 2.21-1.275 1.874 1.874 0 0 1 1.304 2.258L266.8 32.42a1.777 1.777 0 0 1-2.211 1.277l-13.983-3.832a1.87 1.87 0 0 1-1.305-2.259 1.774 1.774 0 0 1 2.21-1.275l11.95 2.863zM354.34 38.2l12.002-2.653a1.774 1.774 0 0 1 2.186 1.314 1.874 1.874 0 0 1-1.343 2.236l-14.048 3.586a1.777 1.777 0 0 1-2.189-1.315l-3.428-14.087a1.87 1.87 0 0 1 1.344-2.236 1.774 1.774 0 0 1 2.186 1.314l3.29 11.84zM430.092 36.288l.115-12.29a1.774 1.774 0 0 1 1.772-1.836 1.874 1.874 0 0 1 1.876 1.812l.335 14.495a1.777 1.777 0 0 1-1.774 1.837l-14.498.171a1.87 1.87 0 0 1-1.876-1.812 1.774 1.774 0 0 1 1.772-1.835l12.278-.542zM509.76 27.5l2.248-12.084a1.774 1.774 0 0 1 2.064-1.5 1.874 1.874 0 0 1 1.533 2.11l-2.188 14.333a1.777 1.777 0 0 1-2.066 1.501l-14.306-2.348a1.87 1.87 0 0 1-1.534-2.11 1.774 1.774 0 0 1 2.064-1.5L509.76 27.5zM552.963 52.207l12.124-2.02a1.774 1.774 0 0 1 2.115 1.426 1.874 1.874 0 0 1-1.459 2.163l-14.216 2.846a1.777 1.777 0 0 1-2.117-1.428l-2.686-14.247a1.87 1.87 0 0 1 1.458-2.163 1.774 1.774 0 0 1 2.115 1.427l2.666 11.996zM21.708 78.002l11.274-4.894a1.774 1.774 0 0 1 2.398.873 1.874 1.874 0 0 1-.892 2.451l-13.106 6.201a1.777 1.777 0 0 1-2.4-.873L12.93 68.586a1.87 1.87 0 0 1 .892-2.451 1.774 1.774 0 0 1 2.397.872l5.489 10.995zM122.462 87.193l3.498-11.783a1.774 1.774 0 0 1 2.21-1.275 1.874 1.874 0 0 1 1.304 2.258L125.8 90.42a1.777 1.777 0 0 1-2.211 1.277l-13.983-3.832a1.87 1.87 0 0 1-1.305-2.259 1.774 1.774 0 0 1 2.21-1.275l11.95 2.863zM171 78.996l8.92-8.455a1.774 1.774 0 0 1 2.552 0 1.874 1.874 0 0 1 0 2.608l-10.194 10.31a1.777 1.777 0 0 1-2.554 0l-10.194-10.31a1.87 1.87 0 0 1 0-2.608 1.774 1.774 0 0 1 2.551 0L171 78.996zM235.462 77.193l3.498-11.783a1.774 1.774 0 0 1 2.21-1.275 1.874 1.874 0 0 1 1.304 2.258L238.8 80.42a1.777 1.777 0 0 1-2.211 1.277l-13.983-3.832a1.87 1.87 0 0 1-1.305-2.259 1.774 1.774 0 0 1 2.21-1.275l11.95 2.863zM281.98 103.21l7.317-9.875a1.774 1.774 0 0 1 2.513-.443 1.874 1.874 0 0 1 .453 2.568l-8.25 11.924a1.777 1.777 0 0 1-2.514.443l-11.83-8.383a1.87 1.87 0 0 1-.452-2.568 1.774 1.774 0 0 1 2.512-.443l10.251 6.777zM308.98 63.21l7.317-9.875a1.774 1.774 0 0 1 2.513-.443 1.874 1.874 0 0 1 .453 2.568l-8.25 11.924a1.777 1.777 0 0 1-2.514.443l-11.83-8.383a1.87 1.87 0 0 1-.452-2.568 1.774 1.774 0 0 1 2.512-.443l10.251 6.777zM386.76 75.5l2.248-12.084a1.774 1.774 0 0 1 2.064-1.5 1.874 1.874 0 0 1 1.533 2.11l-2.188 14.333a1.777 1.777 0 0 1-2.066 1.501l-14.306-2.348a1.87 1.87 0 0 1-1.534-2.11 1.774 1.774 0 0 1 2.064-1.5L386.76 75.5zM464.215 72.104l11.589-4.095a1.774 1.774 0 0 1 2.33 1.038c.35.945-.124 2.01-1.06 2.382l-13.506 5.272a1.777 1.777 0 0 1-2.333-1.038l-5.12-13.565a1.87 1.87 0 0 1 1.061-2.383 1.774 1.774 0 0 1 2.33 1.038l4.71 11.351zM516.572 90.26l9.489-7.812a1.774 1.774 0 0 1 2.545.178c.652.77.57 1.932-.182 2.602l-10.889 9.574c-.755.67-1.895.59-2.547-.179l-9.45-10.995a1.87 1.87 0 0 1 .182-2.602c.75-.67 1.89-.591 2.545.178l8.307 9.056zM579.76 96.5l2.248-12.084a1.774 1.774 0 0 1 2.064-1.5 1.874 1.874 0 0 1 1.533 2.11l-2.188 14.333a1.777 1.777 0 0 1-2.066 1.501l-14.306-2.348a1.87 1.87 0 0 1-1.534-2.11 1.774 1.774 0 0 1 2.064-1.5L579.76 96.5zM59.708 107.002l11.274-4.894a1.774 1.774 0 0 1 2.398.873 1.874 1.874 0 0 1-.892 2.451l-13.106 6.201a1.777 1.777 0 0 1-2.4-.873L50.93 97.586a1.87 1.87 0 0 1 .892-2.451 1.774 1.774 0 0 1 2.397.872l5.489 10.995zM33.81 143.266l5.49-10.996a1.774 1.774 0 0 1 2.398-.872 1.874 1.874 0 0 1 .892 2.45l-6.053 13.175a1.777 1.777 0 0 1-2.4.873l-13.105-6.2a1.87 1.87 0 0 1-.892-2.452 1.774 1.774 0 0 1 2.397-.872l11.272 4.894zM92 145.996l8.92-8.455a1.774 1.774 0 0 1 2.552 0 1.874 1.874 0 0 1 0 2.608l-10.194 10.31a1.777 1.777 0 0 1-2.554 0l-10.194-10.31a1.87 1.87 0 0 1 0-2.608 1.774 1.774 0 0 1 2.551 0L92 145.996zM142.708 129.002l11.274-4.894a1.774 1.774 0 0 1 2.398.873 1.874 1.874 0 0 1-.892 2.451l-13.106 6.201a1.777 1.777 0 0 1-2.4-.873l-6.052-13.174a1.87 1.87 0 0 1 .892-2.451 1.774 1.774 0 0 1 2.397.872l5.489 10.995zM196.708 121.002l11.274-4.894a1.774 1.774 0 0 1 2.398.873 1.874 1.874 0 0 1-.892 2.451l-13.106 6.201a1.777 1.777 0 0 1-2.4-.873l-6.052-13.174a1.87 1.87 0 0 1 .892-2.451 1.774 1.774 0 0 1 2.397.872l5.489 10.995zM195.462 162.193l3.498-11.783a1.774 1.774 0 0 1 2.21-1.275 1.874 1.874 0 0 1 1.304 2.258L198.8 165.42a1.777 1.777 0 0 1-2.211 1.277l-13.983-3.832a1.87 1.87 0 0 1-1.305-2.259 1.774 1.774 0 0 1 2.21-1.275l11.95 2.863zM255.462 144.193l3.498-11.783a1.774 1.774 0 0 1 2.21-1.275 1.874 1.874 0 0 1 1.304 2.258L258.8 147.42a1.777 1.777 0 0 1-2.211 1.277l-13.983-3.832a1.87 1.87 0 0 1-1.305-2.259 1.774 1.774 0 0 1 2.21-1.275l11.95 2.863zM301.978 146.918l12.21 1.4a1.774 1.774 0 0 1 1.64 1.953 1.874 1.874 0 0 1-1.997 1.677l-14.45-1.182a1.777 1.777 0 0 1-1.642-1.956l1.345-14.436a1.87 1.87 0 0 1 1.998-1.677 1.774 1.774 0 0 1 1.64 1.954l-.744 12.267zM341.164 100.79l-.742-12.268a1.774 1.774 0 0 1 1.64-1.955 1.874 1.874 0 0 1 1.998 1.677l1.345 14.436a1.777 1.777 0 0 1-1.642 1.956l-14.45 1.182a1.87 1.87 0 0 1-1.998-1.676 1.774 1.774 0 0 1 1.64-1.955l12.21-1.397zM376.215 134.104l11.589-4.095a1.774 1.774 0 0 1 2.33 1.038c.35.945-.124 2.01-1.06 2.382l-13.506 5.272a1.777 1.777 0 0 1-2.333-1.038l-5.12-13.565a1.87 1.87 0 0 1 1.061-2.383 1.774 1.774 0 0 1 2.33 1.038l4.71 11.351zM427.215 110.104l11.589-4.095a1.774 1.774 0 0 1 2.33 1.038c.35.945-.124 2.01-1.06 2.382l-13.506 5.272a1.777 1.777 0 0 1-2.333-1.038l-5.12-13.565a1.87 1.87 0 0 1 1.061-2.383 1.774 1.774 0 0 1 2.33 1.038l4.71 11.351zM415.364 161.223l11.51 4.312a1.774 1.774 0 0 1 1.118 2.293 1.874 1.874 0 0 1-2.344 1.143l-13.735-4.642a1.777 1.777 0 0 1-1.12-2.296l4.798-13.681a1.87 1.87 0 0 1 2.345-1.144 1.774 1.774 0 0 1 1.118 2.293l-3.69 11.722zM479.76 127.5l2.248-12.084a1.774 1.774 0 0 1 2.064-1.5 1.874 1.874 0 0 1 1.533 2.11l-2.188 14.333a1.777 1.777 0 0 1-2.066 1.501l-14.306-2.348a1.87 1.87 0 0 1-1.534-2.11 1.774 1.774 0 0 1 2.064-1.5l12.185 1.598zM539.76 136.5l2.248-12.084a1.774 1.774 0 0 1 2.064-1.5 1.874 1.874 0 0 1 1.533 2.11l-2.188 14.333a1.777 1.777 0 0 1-2.066 1.501l-14.306-2.348a1.87 1.87 0 0 1-1.534-2.11 1.774 1.774 0 0 1 2.064-1.5l12.185 1.598z"/></g></svg>