<svg xmlns="http://www.w3.org/2000/svg" viewBox="0 0 605 180"><title>chevron-up</title><g fill-rule="evenodd"><path d="M40.466 19.736l11.953 2.861a1.774 1.774 0 0 0 2.21-1.275 1.874 1.874 0 0 0-1.305-2.26l-13.983-3.83a1.777 1.777 0 0 0-2.211 1.276l-3.674 14.026a1.87 1.87 0 0 0 1.304 2.259 1.774 1.774 0 0 0 2.21-1.276l3.496-11.781zM78.59 52.668l7.318 9.876a1.774 1.774 0 0 0 2.513.443 1.874 1.874 0 0 0 .452-2.569l-8.248-11.923a1.777 1.777 0 0 0-2.515-.444l-11.83 8.383a1.87 1.87 0 0 0-.453 2.569 1.774 1.774 0 0 0 2.513.443l10.25-6.778zM130.466 28.736l11.953 2.861a1.774 1.774 0 0 0 2.21-1.275 1.874 1.874 0 0 0-1.305-2.26l-13.983-3.83a1.777 1.777 0 0 0-2.211 1.276l-3.674 14.026a1.87 1.87 0 0 0 1.304 2.259 1.774 1.774 0 0 0 2.21-1.276l3.496-11.781zM199.073 33.251l5.491 10.996a1.774 1.774 0 0 0 2.398.873 1.874 1.874 0 0 0 .892-2.451L201.8 29.494a1.777 1.777 0 0 0-2.4-.873l-13.105 6.201a1.87 1.87 0 0 0-.893 2.451 1.774 1.774 0 0 0 2.398.873l11.272-4.895zM261.466 25.736l11.953 2.861a1.774 1.774 0 0 0 2.21-1.275 1.874 1.874 0 0 0-1.305-2.26l-13.983-3.83a1.777 1.777 0 0 0-2.211 1.276l-3.674 14.026a1.87 1.87 0 0 0 1.304 2.259 1.774 1.774 0 0 0 2.21-1.276l3.496-11.781zM356.396 34.778l3.292 11.842a1.774 1.774 0 0 0 2.187 1.314 1.874 1.874 0 0 0 1.344-2.236L359.79 31.61a1.777 1.777 0 0 0-2.189-1.316l-14.047 3.587a1.87 1.87 0 0 0-1.344 2.236c.23.98 1.21 1.568 2.187 1.314l12-2.654zM427.22 33.515l12.279-.544a1.774 1.774 0 0 0 1.772-1.835 1.874 1.874 0 0 0-1.876-1.812l-14.498.171a1.777 1.777 0 0 0-1.773 1.837l.334 14.495a1.87 1.87 0 0 0 1.877 1.812 1.774 1.774 0 0 0 1.772-1.835l.113-12.289zM507.414 24.27l12.187 1.597c.993.17 1.916-.5 2.064-1.5a1.874 1.874 0 0 0-1.534-2.11l-14.306-2.349a1.777 1.777 0 0 0-2.066 1.501l-2.188 14.333a1.87 1.87 0 0 0 1.533 2.11c.992.171 1.916-.5 2.064-1.5l2.246-12.082zM555.195 48.898l2.668 11.998a1.774 1.774 0 0 0 2.115 1.427 1.874 1.874 0 0 0 1.459-2.163l-2.686-14.247a1.777 1.777 0 0 0-2.118-1.428l-14.216 2.846a1.87 1.87 0 0 0-1.458 2.163 1.774 1.774 0 0 0 2.115 1.426l12.121-2.022zM23.073 74.251l5.491 10.996a1.774 1.774 0 0 0 2.398.873 1.874 1.874 0 0 0 .892-2.451L25.8 70.494a1.777 1.777 0 0 0-2.4-.873l-13.105 6.201a1.87 1.87 0 0 0-.893 2.451 1.774 1.774 0 0 0 2.398.873l11.272-4.895zM120.466 83.736l11.953 2.861a1.774 1.774 0 0 0 2.21-1.275 1.874 1.874 0 0 0-1.305-2.26l-13.983-3.83a1.777 1.777 0 0 0-2.211 1.276l-3.674 14.026a1.87 1.87 0 0 0 1.304 2.259 1.774 1.774 0 0 0 2.21-1.276l3.496-11.781zM171 75.004l8.92 8.455a1.774 1.774 0 0 0 2.552 0 1.874 1.874 0 0 0 0-2.608l-10.194-10.31a1.777 1.777 0 0 0-2.554 0l-10.194 10.31a1.87 1.87 0 0 0 0 2.608 1.774 1.774 0 0 0 2.551 0L171 75.004zM233.466 73.736l11.953 2.861a1.774 1.774 0 0 0 2.21-1.275 1.874 1.874 0 0 0-1.305-2.26l-13.983-3.83a1.777 1.777 0 0 0-2.211 1.276l-3.674 14.026a1.87 1.87 0 0 0 1.304 2.259 1.774 1.774 0 0 0 2.21-1.276l3.496-11.781zM281.287 99.28l10.254 6.776c.818.589 1.941.39 2.512-.443a1.874 1.874 0 0 0-.453-2.568l-11.83-8.383a1.777 1.777 0 0 0-2.514.443l-8.25 11.923a1.87 1.87 0 0 0 .454 2.57c.816.588 1.941.39 2.512-.444l7.315-9.875zM308.287 59.28l10.254 6.776c.818.589 1.941.39 2.512-.443a1.874 1.874 0 0 0-.453-2.568l-11.83-8.383a1.777 1.777 0 0 0-2.514.443l-8.25 11.923a1.87 1.87 0 0 0 .454 2.57c.816.588 1.941.39 2.512-.444l7.315-9.875zM384.414 72.27l12.187 1.597c.993.17 1.916-.5 2.064-1.5a1.874 1.874 0 0 0-1.534-2.11l-14.306-2.349a1.777 1.777 0 0 0-2.066 1.501l-2.188 14.333a1.87 1.87 0 0 0 1.533 2.11c.992.171 1.916-.5 2.064-1.5l2.246-12.082zM465.839 68.458l4.71 11.352a1.774 1.774 0 0 0 2.331 1.038 1.874 1.874 0 0 0 1.061-2.383l-5.12-13.565a1.777 1.777 0 0 0-2.332-1.038l-13.506 5.272a1.87 1.87 0 0 0-1.061 2.382 1.774 1.774 0 0 0 2.33 1.038l11.587-4.096zM516.85 86.278l8.31 9.057c.652.769 1.789.848 2.545.178.752-.67.834-1.833.181-2.602l-9.45-10.996a1.777 1.777 0 0 0-2.547-.178l-10.888 9.573a1.87 1.87 0 0 0-.182 2.602c.65.769 1.79.849 2.545.178l9.486-7.812zM577.414 93.27l12.187 1.597c.993.17 1.916-.5 2.064-1.5a1.874 1.874 0 0 0-1.534-2.11l-14.306-2.349a1.777 1.777 0 0 0-2.066 1.501l-2.188 14.333a1.87 1.87 0 0 0 1.533 2.11c.992.171 1.916-.5 2.064-1.5l2.246-12.082zM61.073 103.251l5.491 10.996a1.774 1.774 0 0 0 2.398.873 1.874 1.874 0 0 0 .892-2.451L63.8 99.494a1.777 1.777 0 0 0-2.4-.873l-13.105 6.201a1.87 1.87 0 0 0-.893 2.451 1.774 1.774 0 0 0 2.398.873l11.272-4.895zM32.444 139.515l11.275 4.894c.908.437 1.98.047 2.397-.872a1.874 1.874 0 0 0-.892-2.452l-13.105-6.2a1.777 1.777 0 0 0-2.4.873l-6.053 13.174a1.87 1.87 0 0 0 .892 2.451c.906.438 1.98.047 2.397-.872l5.489-10.996zM92 142.004l8.92 8.455a1.774 1.774 0 0 0 2.552 0 1.874 1.874 0 0 0 0-2.608l-10.194-10.31a1.777 1.777 0 0 0-2.554 0l-10.194 10.31a1.87 1.87 0 0 0 0 2.608 1.774 1.774 0 0 0 2.551 0L92 142.004zM144.073 125.251l5.491 10.996a1.774 1.774 0 0 0 2.398.873 1.874 1.874 0 0 0 .892-2.451l-6.053-13.175a1.777 1.777 0 0 0-2.4-.873l-13.105 6.201a1.87 1.87 0 0 0-.893 2.451 1.774 1.774 0 0 0 2.398.873l11.272-4.895zM198.073 117.251l5.491 10.996a1.774 1.774 0 0 0 2.398.873 1.874 1.874 0 0 0 .892-2.451l-6.053-13.175a1.777 1.777 0 0 0-2.4-.873l-13.105 6.201a1.87 1.87 0 0 0-.893 2.451 1.774 1.774 0 0 0 2.398.873l11.272-4.895zM193.466 158.736l11.953 2.861a1.774 1.774 0 0 0 2.21-1.275 1.874 1.874 0 0 0-1.305-2.26l-13.983-3.83a1.777 1.777 0 0 0-2.211 1.276l-3.674 14.026a1.87 1.87 0 0 0 1.304 2.259 1.774 1.774 0 0 0 2.21-1.276l3.496-11.781zM253.466 140.736l11.953 2.861a1.774 1.774 0 0 0 2.21-1.275 1.874 1.874 0 0 0-1.305-2.26l-13.983-3.83a1.777 1.777 0 0 0-2.211 1.276l-3.674 14.026a1.87 1.87 0 0 0 1.304 2.259 1.774 1.774 0 0 0 2.21-1.276l3.496-11.781zM305.036 144.352l-.743 12.269a1.774 1.774 0 0 0 1.64 1.954 1.874 1.874 0 0 0 1.998-1.677l1.345-14.436a1.777 1.777 0 0 0-1.641-1.956l-14.45-1.182a1.87 1.87 0 0 0-1.999 1.677 1.774 1.774 0 0 0 1.64 1.954l12.21 1.397zM338.106 98.224l12.211-1.399a1.774 1.774 0 0 0 1.64-1.954 1.874 1.874 0 0 0-1.998-1.677l-14.45 1.182a1.777 1.777 0 0 0-1.642 1.957l1.345 14.435a1.87 1.87 0 0 0 1.999 1.677 1.774 1.774 0 0 0 1.64-1.954l-.745-12.267zM377.839 130.458l4.71 11.352a1.774 1.774 0 0 0 2.331 1.038 1.874 1.874 0 0 0 1.061-2.383l-5.12-13.565a1.777 1.777 0 0 0-2.332-1.038l-13.506 5.272a1.87 1.87 0 0 0-1.061 2.382 1.774 1.774 0 0 0 2.33 1.038l11.587-4.096zM428.839 106.458l4.71 11.352a1.774 1.774 0 0 0 2.331 1.038 1.874 1.874 0 0 0 1.061-2.383l-5.12-13.565a1.777 1.777 0 0 0-2.332-1.038l-13.506 5.272a1.87 1.87 0 0 0-1.061 2.382 1.774 1.774 0 0 0 2.33 1.038l11.587-4.096zM418.952 159.473l-3.688 11.725c-.34.95.16 1.974 1.118 2.293a1.874 1.874 0 0 0 2.344-1.144l4.798-13.681a1.777 1.777 0 0 0-1.12-2.296l-13.735-4.642a1.87 1.87 0 0 0-2.344 1.143c-.34.947.16 1.974 1.118 2.293l11.51 4.31zM477.414 124.27l12.187 1.597c.993.17 1.916-.5 2.064-1.5a1.874 1.874 0 0 0-1.534-2.11l-14.306-2.349a1.777 1.777 0 0 0-2.066 1.501l-2.188 14.333a1.87 1.87 0 0 0 1.533 2.11c.992.171 1.916-.5 2.064-1.5l2.246-12.082zM537.414 133.27l12.187 1.597c.993.17 1.916-.5 2.064-1.5a1.874 1.874 0 0 0-1.534-2.11l-14.306-2.349a1.777 1.777 0 0 0-2.066 1.501l-2.188 14.333a1.87 1.87 0 0 0 1.533 2.11c.992.171 1.916-.5 2.064-1.5l2.246-12.082z"/></g></svg>