<svg xmlns="http://www.w3.org/2000/svg" viewBox="0 0 605 180"><title>chevron-left</title><g fill-rule="evenodd"><path d="M39.736 22.462l2.861-11.953a1.774 1.774 0 0 0-1.275-2.21 1.874 1.874 0 0 0-2.26 1.305l-3.83 13.983c-.272.973.3 1.962 1.276 2.212l14.026 3.673a1.87 1.87 0 0 0 2.259-1.304 1.774 1.774 0 0 0-1.276-2.21l-11.781-3.496zM76.279 54.288l9.876-7.318a1.774 1.774 0 0 0 .443-2.512 1.874 1.874 0 0 0-2.57-.453l-11.922 8.249a1.777 1.777 0 0 0-.444 2.515l8.383 11.829a1.87 1.87 0 0 0 2.569.453 1.774 1.774 0 0 0 .443-2.512l-6.778-10.251zM129.736 31.462l2.861-11.953a1.774 1.774 0 0 0-1.275-2.21 1.874 1.874 0 0 0-2.26 1.305l-3.83 13.983c-.272.973.3 1.962 1.276 2.212l14.026 3.673a1.87 1.87 0 0 0 2.259-1.304 1.774 1.774 0 0 0-1.276-2.21l-11.781-3.496zM196.515 34.444l10.996-5.49a1.774 1.774 0 0 0 .873-2.398 1.874 1.874 0 0 0-2.451-.892l-13.175 6.053a1.777 1.777 0 0 0-.873 2.4l6.201 13.105a1.87 1.87 0 0 0 2.451.892 1.774 1.774 0 0 0 .873-2.397l-4.895-11.273zM260.736 28.462l2.861-11.953a1.774 1.774 0 0 0-1.275-2.21 1.874 1.874 0 0 0-2.26 1.305l-3.83 13.983c-.272.973.3 1.962 1.276 2.212l14.026 3.673a1.87 1.87 0 0 0 2.259-1.304 1.774 1.774 0 0 0-1.276-2.21l-11.781-3.496zM353.657 35.461L365.5 32.17a1.774 1.774 0 0 0 1.314-2.187 1.874 1.874 0 0 0-2.235-1.343l-14.088 3.428a1.777 1.777 0 0 0-1.315 2.189l3.587 14.048a1.87 1.87 0 0 0 2.236 1.343 1.774 1.774 0 0 0 1.313-2.187l-2.654-11.999zM427.27 36.337l-.544-12.279a1.774 1.774 0 0 0-1.835-1.772 1.874 1.874 0 0 0-1.812 1.876l.171 14.498a1.777 1.777 0 0 0 1.837 1.774l14.495-.335a1.87 1.87 0 0 0 1.811-1.876 1.774 1.774 0 0 0-1.835-1.772l-12.288-.114zM506.973 27.058l1.596-12.187c.17-.993-.5-1.916-1.5-2.063a1.874 1.874 0 0 0-2.11 1.533l-2.348 14.307a1.777 1.777 0 0 0 1.5 2.066l14.333 2.187a1.87 1.87 0 0 0 2.11-1.533 1.774 1.774 0 0 0-1.5-2.064l-12.081-2.246zM552.424 49.437l11.998-2.668a1.774 1.774 0 0 0 1.427-2.115 1.874 1.874 0 0 0-2.162-1.458l-14.248 2.686a1.777 1.777 0 0 0-1.428 2.117l2.847 14.216a1.87 1.87 0 0 0 2.162 1.459 1.774 1.774 0 0 0 1.427-2.115l-2.023-12.122zM20.515 75.444l10.996-5.49a1.774 1.774 0 0 0 .873-2.398 1.874 1.874 0 0 0-2.451-.892l-13.175 6.053a1.777 1.777 0 0 0-.873 2.4l6.201 13.105a1.87 1.87 0 0 0 2.451.892 1.774 1.774 0 0 0 .873-2.397l-4.895-11.273zM119.736 86.462l2.861-11.953a1.774 1.774 0 0 0-1.275-2.21 1.874 1.874 0 0 0-2.26 1.305l-3.83 13.983c-.272.973.3 1.962 1.276 2.212l14.026 3.673a1.87 1.87 0 0 0 2.259-1.304 1.774 1.774 0 0 0-1.276-2.21l-11.781-3.496zM169.004 77l8.455-8.92a1.774 1.774 0 0 0 0-2.552 1.874 1.874 0 0 0-2.608 0l-10.31 10.194a1.777 1.777 0 0 0 0 2.554l10.31 10.194a1.87 1.87 0 0 0 2.608 0 1.774 1.774 0 0 0 0-2.551L169.004 77zM232.736 76.462l2.861-11.953a1.774 1.774 0 0 0-1.275-2.21 1.874 1.874 0 0 0-2.26 1.305l-3.83 13.983c-.272.973.3 1.962 1.276 2.212l14.026 3.673a1.87 1.87 0 0 0 2.259-1.304 1.774 1.774 0 0 0-1.276-2.21l-11.781-3.496zM279.668 101.592l6.778-10.254a1.774 1.774 0 0 0-.443-2.512 1.874 1.874 0 0 0-2.57.452l-8.382 11.83a1.777 1.777 0 0 0 .444 2.515l11.923 8.249a1.87 1.87 0 0 0 2.568-.453 1.774 1.774 0 0 0-.443-2.513l-9.875-7.314zM306.668 61.592l6.778-10.254a1.774 1.774 0 0 0-.443-2.512 1.874 1.874 0 0 0-2.57.452l-8.382 11.83a1.777 1.777 0 0 0 .444 2.515l11.923 8.249a1.87 1.87 0 0 0 2.568-.453 1.774 1.774 0 0 0-.443-2.513l-9.875-7.314zM383.973 75.058l1.596-12.187c.17-.993-.5-1.916-1.5-2.063a1.874 1.874 0 0 0-2.11 1.533l-2.348 14.307a1.777 1.777 0 0 0 1.5 2.066l14.333 2.187a1.87 1.87 0 0 0 2.11-1.533 1.774 1.774 0 0 0-1.5-2.064l-12.081-2.246zM463.204 69.47l11.352-4.711a1.774 1.774 0 0 0 1.038-2.33 1.874 1.874 0 0 0-2.383-1.062l-13.565 5.12a1.777 1.777 0 0 0-1.038 2.333l5.272 13.506a1.87 1.87 0 0 0 2.383 1.06 1.774 1.774 0 0 0 1.037-2.33l-4.096-11.586zM514.72 88.13l9.057-8.31c.768-.651.848-1.789.178-2.544a1.874 1.874 0 0 0-2.602-.182l-10.996 9.45a1.777 1.777 0 0 0-.178 2.547l9.573 10.889a1.87 1.87 0 0 0 2.602.182c.769-.65.849-1.79.178-2.545l-7.812-9.487zM576.973 96.058l1.596-12.187c.17-.993-.5-1.916-1.5-2.063a1.874 1.874 0 0 0-2.11 1.533l-2.348 14.307a1.777 1.777 0 0 0 1.5 2.066l14.333 2.187a1.87 1.87 0 0 0 2.11-1.533 1.774 1.774 0 0 0-1.5-2.064l-12.081-2.246zM58.515 104.444l10.996-5.49a1.774 1.774 0 0 0 .873-2.398 1.874 1.874 0 0 0-2.451-.892l-13.175 6.053a1.777 1.777 0 0 0-.873 2.4l6.201 13.105a1.87 1.87 0 0 0 2.451.892 1.774 1.774 0 0 0 .873-2.397l-4.895-11.273zM31.251 142.074l4.894-11.275a1.774 1.774 0 0 0-.872-2.397 1.874 1.874 0 0 0-2.451.892l-6.202 13.105a1.777 1.777 0 0 0 .874 2.4l13.174 6.053a1.87 1.87 0 0 0 2.451-.892 1.774 1.774 0 0 0-.872-2.398l-10.996-5.488zM90.004 144l8.455-8.92a1.774 1.774 0 0 0 0-2.552 1.874 1.874 0 0 0-2.608 0l-10.31 10.194a1.777 1.777 0 0 0 0 2.554l10.31 10.194a1.87 1.87 0 0 0 2.608 0 1.774 1.774 0 0 0 0-2.551L90.004 144zM141.515 126.444l10.996-5.49a1.774 1.774 0 0 0 .873-2.398 1.874 1.874 0 0 0-2.451-.892l-13.175 6.053a1.777 1.777 0 0 0-.873 2.4l6.201 13.105a1.87 1.87 0 0 0 2.451.892 1.774 1.774 0 0 0 .873-2.397l-4.895-11.273zM195.515 118.444l10.996-5.49a1.774 1.774 0 0 0 .873-2.398 1.874 1.874 0 0 0-2.451-.892l-13.175 6.053a1.777 1.777 0 0 0-.873 2.4l6.201 13.105a1.87 1.87 0 0 0 2.451.892 1.774 1.774 0 0 0 .873-2.397l-4.895-11.273zM192.736 161.462l2.861-11.953a1.774 1.774 0 0 0-1.275-2.21 1.874 1.874 0 0 0-2.26 1.305l-3.83 13.983c-.272.973.3 1.962 1.276 2.212l14.026 3.673a1.87 1.87 0 0 0 2.259-1.304 1.774 1.774 0 0 0-1.276-2.21l-11.781-3.496zM252.736 143.462l2.861-11.953a1.774 1.774 0 0 0-1.275-2.21 1.874 1.874 0 0 0-2.26 1.305l-3.83 13.983c-.272.973.3 1.962 1.276 2.212l14.026 3.673a1.87 1.87 0 0 0 2.259-1.304 1.774 1.774 0 0 0-1.276-2.21l-11.781-3.496zM302.224 144.107l12.268.742a1.774 1.774 0 0 0 1.955-1.64 1.874 1.874 0 0 0-1.677-1.998l-14.436-1.345a1.777 1.777 0 0 0-1.956 1.642l-1.182 14.45a1.87 1.87 0 0 0 1.676 1.998 1.774 1.774 0 0 0 1.955-1.64l1.397-12.21zM338.353 101.036l-1.4-12.211a1.774 1.774 0 0 0-1.954-1.64 1.874 1.874 0 0 0-1.676 1.998l1.182 14.45a1.777 1.777 0 0 0 1.956 1.642l14.436-1.345a1.87 1.87 0 0 0 1.676-1.998 1.774 1.774 0 0 0-1.954-1.64l-12.266.744zM375.204 131.47l11.352-4.711a1.774 1.774 0 0 0 1.038-2.33 1.874 1.874 0 0 0-2.383-1.062l-13.565 5.12a1.777 1.777 0 0 0-1.038 2.333l5.272 13.506a1.87 1.87 0 0 0 2.383 1.06 1.774 1.774 0 0 0 1.037-2.33l-4.096-11.586zM426.204 107.47l11.352-4.711a1.774 1.774 0 0 0 1.038-2.33 1.874 1.874 0 0 0-2.383-1.062l-13.565 5.12a1.777 1.777 0 0 0-1.038 2.333l5.272 13.506a1.87 1.87 0 0 0 2.383 1.06 1.774 1.774 0 0 0 1.037-2.33l-4.096-11.586zM416.283 158.555l11.725 3.688c.949.34 1.973-.16 2.292-1.118a1.874 1.874 0 0 0-1.143-2.344l-13.682-4.798a1.777 1.777 0 0 0-2.295 1.12l-4.643 13.735a1.87 1.87 0 0 0 1.144 2.344c.947.34 1.974-.16 2.293-1.118l4.309-11.51zM476.973 127.058l1.596-12.187c.17-.993-.5-1.916-1.5-2.063a1.874 1.874 0 0 0-2.11 1.533l-2.348 14.307a1.777 1.777 0 0 0 1.5 2.066l14.333 2.187a1.87 1.87 0 0 0 2.11-1.533 1.774 1.774 0 0 0-1.5-2.064l-12.081-2.246zM536.973 136.058l1.596-12.187c.17-.993-.5-1.916-1.5-2.063a1.874 1.874 0 0 0-2.11 1.533l-2.348 14.307a1.777 1.777 0 0 0 1.5 2.066l14.333 2.187a1.87 1.87 0 0 0 2.11-1.533 1.774 1.774 0 0 0-1.5-2.064l-12.081-2.246z"/></g></svg>