<svg xmlns="http://www.w3.org/2000/svg" viewBox="0 0 605 180"><title>clock</title><g fill-rule="evenodd"><path d="M32.464 5.876c-8.61 4.97-11.559 15.979-6.588 24.588 4.97 8.61 15.979 11.56 24.588 6.589 8.61-4.971 11.56-15.98 6.589-24.589-4.971-8.61-15.98-11.559-24.589-6.588zm17.638 20.232l-10.12-2.712-4.966-8.601 3.897-2.25 4.034 6.987 8.32 2.23-1.165 4.346zM81.37 36.907c-9.79-1.726-19.126 4.811-20.852 14.601-1.726 9.79 4.81 19.126 14.601 20.852 9.79 1.727 19.126-4.81 20.852-14.6 1.726-9.79-4.81-19.126-14.6-20.853zm.507 26.837l-6.01-8.583 1.725-9.781 4.431.781-1.4 7.946 4.94 7.056-3.686 2.581zM122.464 14.876c-8.61 4.97-11.559 15.979-6.588 24.588 4.97 8.61 15.979 11.56 24.588 6.589 8.61-4.971 11.56-15.98 6.589-24.589-4.971-8.61-15.98-11.559-24.589-6.588zm17.638 20.232l-10.12-2.712-4.966-8.601 3.897-2.25 4.034 6.987 8.32 2.23-1.165 4.346zM204.547 18.212c-9.342-3.4-19.67 1.417-23.07 10.758-3.4 9.342 1.416 19.671 10.757 23.071 9.342 3.4 19.671-1.416 23.071-10.758 3.4-9.341-1.416-19.67-10.758-23.07zm-4.161 26.517l-4.428-9.496 3.397-9.333 4.228 1.54-2.76 7.58 3.641 7.807-4.078 1.902zM253.464 11.876c-8.61 4.97-11.559 15.979-6.588 24.588 4.97 8.61 15.979 11.56 24.588 6.589 8.61-4.971 11.56-15.98 6.589-24.589-4.971-8.61-15.98-11.559-24.589-6.588zm17.638 20.232l-10.12-2.712-4.966-8.601 3.897-2.25 4.034 6.987 8.32 2.23-1.165 4.346zM364.64 21.06c-8.522-5.12-19.58-2.363-24.7 6.158-5.12 8.521-2.363 19.58 6.158 24.7 8.521 5.12 19.58 2.363 24.7-6.158 5.12-8.522 2.362-19.58-6.159-24.7zm-9.145 25.236l-2.535-10.167 5.115-8.514 3.857 2.318-4.155 6.916 2.084 8.358-4.366 1.089zM415.708 22.397c-6.906 7.151-6.707 18.547.444 25.452 7.151 6.906 18.546 6.707 25.452-.444 6.906-7.15 6.707-18.546-.444-25.452-7.151-6.906-18.546-6.707-25.452.444zm22.532 14.587l-10.477.183-7.144-6.9 3.126-3.236 5.804 5.604 8.612-.15.079 4.5zM498.007 11.323c-8.042 5.843-9.825 17.1-3.982 25.142 5.843 8.043 17.1 9.825 25.142 3.982 8.043-5.843 9.826-17.1 3.983-25.142-5.844-8.043-17.1-9.826-25.143-3.982zM517.664 29.6l-10.35-1.64-5.837-8.035 3.64-2.645 4.743 6.527 8.508 1.348-.704 4.445zM564.145 35.63c-8.242-5.559-19.43-3.384-24.988 4.857-5.56 8.242-3.385 19.43 4.857 24.989 8.241 5.559 19.429 3.384 24.988-4.858 5.56-8.241 3.384-19.429-4.857-24.988zm-10.453 24.723l-2-10.286 5.555-8.234 3.73 2.517-4.511 6.688 1.644 8.456-4.418.859zM28.547 59.212c-9.342-3.4-19.67 1.417-23.07 10.758-3.4 9.342 1.416 19.671 10.757 23.071 9.342 3.4 19.671-1.416 23.071-10.758 3.4-9.341-1.416-19.67-10.758-23.07zM24.386 85.73l-4.428-9.496 3.397-9.333 4.228 1.54-2.76 7.58 3.641 7.807-4.078 1.902zM112.464 69.876c-8.61 4.97-11.559 15.979-6.588 24.588 4.97 8.61 15.979 11.56 24.588 6.589 8.61-4.971 11.56-15.98 6.589-24.589-4.971-8.61-15.98-11.559-24.589-6.588zm17.638 20.232l-10.12-2.712-4.966-8.601 3.897-2.25 4.034 6.987 8.32 2.23-1.165 4.346zM171 59c-9.941 0-18 8.059-18 18s8.059 18 18 18 18-8.059 18-18-8.059-18-18-18zm5.159 26.341l-7.409-7.409V68h4.5v8.068l6.091 6.091-3.182 3.182zM225.464 59.876c-8.61 4.97-11.559 15.979-6.588 24.588 4.97 8.61 15.979 11.56 24.588 6.589 8.61-4.971 11.56-15.98 6.589-24.589-4.971-8.61-15.98-11.559-24.589-6.588zm17.638 20.232l-10.12-2.712-4.966-8.601 3.897-2.25 4.034 6.987 8.32 2.23-1.165 4.346zM278.508 83.518c-9.79 1.726-16.327 11.062-14.6 20.852 1.726 9.79 11.061 16.327 20.851 14.601 9.79-1.726 16.328-11.062 14.601-20.852-1.726-9.79-11.062-16.327-20.852-14.6zm9.655 25.045l-8.583-6.01-1.725-9.78 4.432-.782 1.4 7.945 7.057 4.94-2.581 3.687zM305.508 43.518c-9.79 1.726-16.327 11.062-14.6 20.852 1.726 9.79 11.061 16.327 20.851 14.601 9.79-1.726 16.328-11.062 14.601-20.852-1.726-9.79-11.062-16.327-20.852-14.6zm9.655 25.045l-8.583-6.01-1.725-9.78 4.432-.782 1.4 7.945 7.057 4.94-2.581 3.687zM375.007 59.323c-8.042 5.843-9.825 17.1-3.982 25.142 5.843 8.043 17.1 9.825 25.142 3.982 8.043-5.843 9.826-17.1 3.983-25.142-5.844-8.043-17.1-9.826-25.143-3.982zM394.664 77.6l-10.35-1.64-5.837-8.035 3.64-2.645 4.743 6.527 8.508 1.348-.704 4.445zM472.348 53.837c-9.081-4.043-19.721.041-23.765 9.123-4.043 9.082.041 19.722 9.123 23.765 9.082 4.043 19.722-.04 23.765-9.123 4.043-9.081-.04-19.721-9.123-23.765zm-6 26.162l-3.755-9.782 4.04-9.073 4.11 1.83-3.281 7.37 3.087 8.043-4.201 1.612zM517.967 70.313c-9.917-.693-18.518 6.784-19.212 16.7-.693 9.918 6.784 18.519 16.7 19.212 9.918.694 18.519-6.783 19.212-16.7.694-9.917-6.783-18.518-16.7-19.212zm3.309 26.637l-6.874-7.908.693-9.908 4.489.314-.563 8.049 5.651 6.5-3.396 2.953zM568.007 80.323c-8.042 5.843-9.825 17.1-3.982 25.142 5.843 8.043 17.1 9.825 25.142 3.982 8.043-5.843 9.826-17.1 3.983-25.142-5.844-8.043-17.1-9.826-25.143-3.982zM587.664 98.6l-10.35-1.64-5.837-8.035 3.64-2.645 4.743 6.527 8.508 1.348-.704 4.445zM66.547 88.212c-9.342-3.4-19.67 1.417-23.07 10.758-3.4 9.342 1.416 19.671 10.757 23.071 9.342 3.4 19.671-1.416 23.071-10.758 3.4-9.341-1.416-19.67-10.758-23.07zm-4.161 26.517l-4.428-9.496 3.397-9.333 4.228 1.54-2.76 7.58 3.641 7.807-4.078 1.902zM26.97 124.476c-9.341 3.4-14.158 13.73-10.758 23.071 3.4 9.342 13.73 14.158 23.071 10.758 9.342-3.4 14.158-13.73 10.758-23.07-3.4-9.342-13.729-14.159-23.07-10.759zm13.857 22.988l-9.496-4.428-3.397-9.333 4.229-1.54 2.76 7.582 7.806 3.64-1.902 4.08zM92 126c-9.941 0-18 8.059-18 18s8.059 18 18 18 18-8.059 18-18-8.059-18-18-18zm5.159 26.341l-7.409-7.409V135h4.5v8.068l6.091 6.091-3.182 3.182zM149.547 110.212c-9.342-3.4-19.67 1.417-23.07 10.758-3.4 9.342 1.416 19.671 10.757 23.071 9.342 3.4 19.671-1.416 23.071-10.758 3.4-9.341-1.416-19.67-10.758-23.07zm-4.161 26.517l-4.428-9.496 3.397-9.333 4.228 1.54-2.76 7.58 3.641 7.807-4.078 1.902zM203.547 102.212c-9.342-3.4-19.67 1.417-23.07 10.758-3.4 9.342 1.416 19.671 10.757 23.071 9.342 3.4 19.671-1.416 23.071-10.758 3.4-9.341-1.416-19.67-10.758-23.07zm-4.161 26.517l-4.428-9.496 3.397-9.333 4.228 1.54-2.76 7.58 3.641 7.807-4.078 1.902zM185.464 144.876c-8.61 4.97-11.559 15.979-6.588 24.588 4.97 8.61 15.979 11.56 24.588 6.589 8.61-4.971 11.56-15.98 6.589-24.589-4.971-8.61-15.98-11.559-24.589-6.588zm17.638 20.232l-10.12-2.712-4.966-8.601 3.897-2.25 4.034 6.987 8.32 2.23-1.165 4.346zM245.464 126.876c-8.61 4.97-11.559 15.979-6.588 24.588 4.97 8.61 15.979 11.56 24.588 6.589 8.61-4.971 11.56-15.98 6.589-24.589-4.971-8.61-15.98-11.559-24.589-6.588zm17.638 20.232l-10.12-2.712-4.966-8.601 3.897-2.25 4.034 6.987 8.32 2.23-1.165 4.346zM317.296 134.065c-6.39-7.615-17.744-8.609-25.36-2.218-7.615 6.39-8.608 17.743-2.218 25.359 6.39 7.615 17.744 8.608 25.36 2.218 7.614-6.39 8.608-17.743 2.218-25.359zm-16.863 20.884l.914-10.438 7.608-6.384 2.893 3.447-6.18 5.186-.752 8.581-4.483-.392zM325.847 87.937c-6.39 7.615-5.397 18.969 2.218 25.359 7.616 6.39 18.97 5.396 25.36-2.219 6.39-7.615 5.396-18.969-2.22-25.359-7.615-6.39-18.968-5.397-25.358 2.219zm23.494 12.98l-10.438.913-7.608-6.385 2.892-3.447 6.18 5.186 8.582-.75.392 4.482zM384.348 115.837c-9.081-4.043-19.721.041-23.765 9.123-4.043 9.082.041 19.722 9.123 23.765 9.082 4.043 19.722-.04 23.765-9.123 4.043-9.081-.04-19.721-9.123-23.765zm-6 26.162l-3.755-9.782 4.04-9.073 4.11 1.83-3.281 7.37 3.087 8.043-4.201 1.612zM435.348 91.837c-9.081-4.043-19.721.041-23.765 9.123-4.043 9.082.041 19.722 9.123 23.765 9.082 4.043 19.722-.04 23.765-9.123 4.043-9.081-.04-19.721-9.123-23.765zm-6 26.162l-3.755-9.782 4.04-9.073 4.11 1.83-3.281 7.37 3.087 8.043-4.201 1.612zM433.337 152.458c-4.358-8.935-15.134-12.646-24.07-8.288-8.934 4.358-12.645 15.134-8.287 24.07 4.358 8.934 15.134 12.645 24.069 8.287 8.935-4.358 12.646-15.134 8.288-24.069zm-21.414 16.184l3.411-9.907 8.927-4.354 1.973 4.045-7.252 3.536-2.804 8.145-4.255-1.465zM468.007 111.323c-8.042 5.843-9.825 17.1-3.982 25.142 5.843 8.043 17.1 9.825 25.142 3.982 8.043-5.843 9.826-17.1 3.983-25.142-5.844-8.043-17.1-9.826-25.143-3.982zm19.657 18.278l-10.35-1.64-5.837-8.035 3.64-2.645 4.743 6.527 8.508 1.348-.704 4.445zM528.007 120.323c-8.042 5.843-9.825 17.1-3.982 25.142 5.843 8.043 17.1 9.825 25.142 3.982 8.043-5.843 9.826-17.1 3.983-25.142-5.844-8.043-17.1-9.826-25.143-3.982zm19.657 18.278l-10.35-1.64-5.837-8.035 3.64-2.645 4.743 6.527 8.508 1.348-.704 4.445z"/></g></svg>