<svg xmlns="http://www.w3.org/2000/svg" viewBox="0 0 605 180"><title>clock-alt</title><g fill-rule="evenodd"><path d="M32.464 5.876c-8.61 4.97-11.559 15.979-6.588 24.588 4.97 8.61 15.979 11.56 24.588 6.589 8.61-4.971 11.56-15.98 6.589-24.589-4.971-8.61-15.98-11.559-24.589-6.588zm1 1.732c-7.653 4.418-10.275 14.203-5.856 21.856 4.418 7.653 14.203 10.275 21.856 5.857 7.653-4.419 10.275-14.204 5.857-21.857C50.902 5.811 41.117 3.19 33.464 7.608zm16.638 18.5l-10.12-2.712-4.966-8.601 3.897-2.25 4.034 6.987 8.32 2.23-1.165 4.346zM81.37 36.907c-9.79-1.726-19.126 4.811-20.852 14.601-1.726 9.79 4.81 19.126 14.601 20.852 9.79 1.727 19.126-4.81 20.852-14.6 1.726-9.79-4.81-19.126-14.6-20.853zm-.347 1.97c-8.702-1.535-17 4.276-18.535 12.978-1.535 8.703 4.276 17.001 12.978 18.536 8.703 1.534 17.001-4.276 18.536-12.979 1.534-8.702-4.277-17-12.979-18.535zm.854 24.867l-6.01-8.583 1.725-9.781 4.431.781-1.4 7.946 4.94 7.056-3.686 2.581zM122.464 14.876c-8.61 4.97-11.559 15.979-6.588 24.588 4.97 8.61 15.979 11.56 24.588 6.589 8.61-4.971 11.56-15.98 6.589-24.589-4.971-8.61-15.98-11.559-24.589-6.588zm1 1.732c-7.653 4.418-10.275 14.203-5.856 21.856 4.418 7.653 14.203 10.275 21.856 5.857 7.653-4.419 10.275-14.204 5.857-21.857-4.419-7.653-14.204-10.275-21.857-5.856zm16.638 18.5l-10.12-2.712-4.966-8.601 3.897-2.25 4.034 6.987 8.32 2.23-1.165 4.346zM204.547 18.212c-9.342-3.4-19.67 1.417-23.07 10.758-3.4 9.342 1.416 19.671 10.757 23.071 9.342 3.4 19.671-1.416 23.071-10.758 3.4-9.341-1.416-19.67-10.758-23.07zm-.684 1.88c-8.304-3.023-17.485 1.259-20.507 9.563-3.023 8.303 1.259 17.485 9.562 20.507 8.304 3.022 17.485-1.26 20.508-9.563 3.022-8.303-1.26-17.485-9.563-20.507zm-3.477 24.637l-4.428-9.496 3.397-9.333 4.228 1.54-2.76 7.58 3.641 7.807-4.078 1.902zM253.464 11.876c-8.61 4.97-11.559 15.979-6.588 24.588 4.97 8.61 15.979 11.56 24.588 6.589 8.61-4.971 11.56-15.98 6.589-24.589-4.971-8.61-15.98-11.559-24.589-6.588zm1 1.732c-7.653 4.418-10.275 14.203-5.856 21.856 4.418 7.653 14.203 10.275 21.856 5.857 7.653-4.419 10.275-14.204 5.857-21.857-4.419-7.653-14.204-10.275-21.857-5.856zm16.638 18.5l-10.12-2.712-4.966-8.601 3.897-2.25 4.034 6.987 8.32 2.23-1.165 4.346zM364.64 21.06c-8.522-5.12-19.58-2.363-24.7 6.158-5.12 8.521-2.363 19.58 6.158 24.7 8.521 5.12 19.58 2.363 24.7-6.158 5.12-8.522 2.362-19.58-6.159-24.7zm-1.03 1.714c-7.575-4.551-17.405-2.1-21.956 5.474-4.551 7.575-2.1 17.404 5.474 21.955 7.574 4.552 17.404 2.1 21.955-5.474 4.551-7.574 2.1-17.404-5.474-21.955zm-8.115 23.522l-2.535-10.167 5.115-8.514 3.857 2.318-4.155 6.916 2.084 8.358-4.366 1.089zM415.708 22.397c-6.906 7.151-6.707 18.547.444 25.452 7.151 6.906 18.546 6.707 25.452-.444 6.906-7.15 6.707-18.546-.444-25.452-7.151-6.906-18.546-6.707-25.452.444zm1.439 1.39c-6.139 6.356-5.962 16.485.394 22.624 6.357 6.138 16.486 5.961 22.624-.395 6.139-6.357 5.962-16.486-.394-22.624-6.357-6.139-16.486-5.962-22.624.395zm21.093 13.197l-10.477.183-7.144-6.9 3.126-3.236 5.804 5.604 8.612-.15.079 4.5zM498.007 11.323c-8.042 5.843-9.825 17.1-3.982 25.142 5.843 8.043 17.1 9.825 25.142 3.982 8.043-5.843 9.826-17.1 3.983-25.142-5.844-8.043-17.1-9.826-25.143-3.982zm1.176 1.618c-7.15 5.194-8.734 15.2-3.54 22.348 5.194 7.15 15.2 8.734 22.349 3.54 7.149-5.194 8.733-15.2 3.54-22.349-5.195-7.149-15.2-8.733-22.35-3.54zm18.48 16.66l-10.348-1.64-5.838-8.035 3.64-2.645 4.743 6.527 8.508 1.348-.704 4.445zM564.145 35.63c-8.242-5.559-19.43-3.384-24.988 4.857-5.56 8.242-3.385 19.43 4.857 24.989 8.241 5.559 19.429 3.384 24.988-4.858 5.56-8.241 3.384-19.429-4.857-24.988zm-1.119 1.658c-7.325-4.941-17.27-3.008-22.211 4.318-4.942 7.326-3.009 17.27 4.317 22.212 7.326 4.94 17.27 3.008 22.212-4.318 4.941-7.326 3.008-17.27-4.318-22.212zm-9.334 23.065l-2-10.286 5.555-8.234 3.73 2.517-4.511 6.688 1.644 8.456-4.418.859zM28.547 59.212c-9.342-3.4-19.67 1.417-23.07 10.758-3.4 9.342 1.416 19.671 10.757 23.071 9.342 3.4 19.671-1.416 23.071-10.758 3.4-9.341-1.416-19.67-10.758-23.07zm-.684 1.88c-8.304-3.023-17.485 1.259-20.507 9.563-3.023 8.303 1.259 17.485 9.562 20.507 8.304 3.022 17.485-1.26 20.508-9.563 3.022-8.303-1.26-17.485-9.563-20.507zm-3.477 24.637l-4.428-9.496 3.397-9.333 4.228 1.54-2.76 7.58 3.641 7.807-4.078 1.902zM112.464 69.876c-8.61 4.97-11.559 15.979-6.588 24.588 4.97 8.61 15.979 11.56 24.588 6.589 8.61-4.971 11.56-15.98 6.589-24.589-4.971-8.61-15.98-11.559-24.589-6.588zm1 1.732c-7.653 4.418-10.275 14.203-5.856 21.856 4.418 7.653 14.203 10.275 21.856 5.857 7.653-4.419 10.275-14.204 5.857-21.857-4.419-7.653-14.204-10.275-21.857-5.856zm16.638 18.5l-10.12-2.712-4.966-8.601 3.897-2.25 4.034 6.987 8.32 2.23-1.165 4.346zM171 59c-9.941 0-18 8.059-18 18s8.059 18 18 18 18-8.059 18-18-8.059-18-18-18zm0 2c-8.837 0-16 7.163-16 16s7.163 16 16 16 16-7.163 16-16-7.163-16-16-16zm5.159 24.341l-7.409-7.409V68h4.5v8.068l6.091 6.091-3.182 3.182zM225.464 59.876c-8.61 4.97-11.559 15.979-6.588 24.588 4.97 8.61 15.979 11.56 24.588 6.589 8.61-4.971 11.56-15.98 6.589-24.589-4.971-8.61-15.98-11.559-24.589-6.588zm1 1.732c-7.653 4.418-10.275 14.203-5.856 21.856 4.418 7.653 14.203 10.275 21.856 5.857 7.653-4.419 10.275-14.204 5.857-21.857-4.419-7.653-14.204-10.275-21.857-5.856zm16.638 18.5l-10.12-2.712-4.966-8.601 3.897-2.25 4.034 6.987 8.32 2.23-1.165 4.346zM278.508 83.518c-9.79 1.726-16.327 11.062-14.6 20.852 1.726 9.79 11.061 16.327 20.851 14.601 9.79-1.726 16.328-11.062 14.601-20.852-1.726-9.79-11.062-16.327-20.852-14.6zm.347 1.97c-8.702 1.534-14.513 9.833-12.978 18.535 1.534 8.702 9.833 14.513 18.535 12.979 8.703-1.535 14.513-9.833 12.979-18.536-1.535-8.702-9.833-14.513-18.536-12.978zm9.308 23.075l-8.583-6.01-1.725-9.78 4.432-.782 1.4 7.945 7.057 4.94-2.581 3.687zM305.508 43.518c-9.79 1.726-16.327 11.062-14.6 20.852 1.726 9.79 11.061 16.327 20.851 14.601 9.79-1.726 16.328-11.062 14.601-20.852-1.726-9.79-11.062-16.327-20.852-14.6zm.347 1.97c-8.702 1.534-14.513 9.833-12.978 18.535 1.534 8.702 9.833 14.513 18.535 12.979 8.703-1.535 14.513-9.833 12.979-18.536-1.535-8.702-9.833-14.513-18.536-12.978zm9.308 23.075l-8.583-6.01-1.725-9.78 4.432-.782 1.4 7.945 7.057 4.94-2.581 3.687zM375.007 59.323c-8.042 5.843-9.825 17.1-3.982 25.142 5.843 8.043 17.1 9.825 25.142 3.982 8.043-5.843 9.826-17.1 3.983-25.142-5.844-8.043-17.1-9.826-25.143-3.982zm1.176 1.618c-7.15 5.194-8.734 15.2-3.54 22.348 5.194 7.15 15.2 8.734 22.349 3.54 7.149-5.194 8.733-15.2 3.54-22.349-5.195-7.149-15.2-8.733-22.35-3.54zm18.48 16.66l-10.348-1.64-5.838-8.035 3.64-2.645 4.743 6.527 8.508 1.348-.704 4.445zM472.348 53.837c-9.081-4.043-19.721.041-23.765 9.123-4.043 9.082.041 19.722 9.123 23.765 9.082 4.043 19.722-.04 23.765-9.123 4.043-9.081-.04-19.721-9.123-23.765zm-.813 1.827c-8.073-3.594-17.53.037-21.124 8.11-3.595 8.072.036 17.53 8.108 21.124 8.073 3.594 17.53-.036 21.125-8.11 3.594-8.072-.036-17.53-8.109-21.124zM466.348 80l-3.755-9.782 4.04-9.073 4.11 1.83-3.281 7.37 3.087 8.043-4.201 1.612zM517.967 70.313c-9.917-.693-18.518 6.784-19.212 16.7-.693 9.918 6.784 18.519 16.7 19.212 9.918.694 18.519-6.783 19.212-16.7.694-9.917-6.783-18.518-16.7-19.212zm-.14 1.995c-8.815-.616-16.46 6.03-17.077 14.845-.616 8.815 6.03 16.46 14.845 17.077 8.815.617 16.46-6.03 17.077-14.845.617-8.815-6.03-16.46-14.845-17.077zm3.449 24.642l-6.874-7.908.693-9.908 4.489.314-.563 8.049 5.651 6.5-3.396 2.953zM568.007 80.323c-8.042 5.843-9.825 17.1-3.982 25.142 5.843 8.043 17.1 9.825 25.142 3.982 8.043-5.843 9.826-17.1 3.983-25.142-5.844-8.043-17.1-9.826-25.143-3.982zm1.176 1.618c-7.15 5.194-8.734 15.2-3.54 22.348 5.194 7.15 15.2 8.734 22.349 3.54 7.149-5.194 8.733-15.2 3.54-22.349-5.195-7.149-15.2-8.733-22.35-3.54zm18.48 16.66l-10.348-1.64-5.838-8.035 3.64-2.645 4.743 6.527 8.508 1.348-.704 4.445zM66.547 88.212c-9.342-3.4-19.67 1.417-23.07 10.758-3.4 9.342 1.416 19.671 10.757 23.071 9.342 3.4 19.671-1.416 23.071-10.758 3.4-9.341-1.416-19.67-10.758-23.07zm-.684 1.88c-8.304-3.023-17.485 1.259-20.507 9.563-3.023 8.303 1.259 17.485 9.562 20.507 8.304 3.022 17.485-1.26 20.508-9.563 3.022-8.303-1.26-17.485-9.563-20.507zm-3.477 24.637l-4.428-9.496 3.397-9.333 4.228 1.54-2.76 7.58 3.641 7.807-4.078 1.902zM26.97 124.476c-9.341 3.4-14.158 13.73-10.758 23.071 3.4 9.342 13.73 14.158 23.071 10.758 9.342-3.4 14.158-13.73 10.758-23.07-3.4-9.342-13.729-14.159-23.07-10.759zm.685 1.88c-8.304 3.022-12.586 12.203-9.563 20.507 3.022 8.304 12.204 12.585 20.507 9.563 8.304-3.023 12.585-12.204 9.563-20.508-3.022-8.303-12.204-12.585-20.507-9.562zm13.172 21.108l-9.496-4.428-3.397-9.333 4.229-1.54 2.76 7.582 7.806 3.64-1.902 4.08zM92 126c-9.941 0-18 8.059-18 18s8.059 18 18 18 18-8.059 18-18-8.059-18-18-18zm0 2c-8.837 0-16 7.163-16 16s7.163 16 16 16 16-7.163 16-16-7.163-16-16-16zm5.159 24.341l-7.409-7.409V135h4.5v8.068l6.091 6.091-3.182 3.182zM149.547 110.212c-9.342-3.4-19.67 1.417-23.07 10.758-3.4 9.342 1.416 19.671 10.757 23.071 9.342 3.4 19.671-1.416 23.071-10.758 3.4-9.341-1.416-19.67-10.758-23.07zm-.684 1.88c-8.304-3.023-17.485 1.259-20.507 9.563-3.023 8.303 1.259 17.485 9.562 20.507 8.304 3.022 17.485-1.26 20.508-9.563 3.022-8.303-1.26-17.485-9.563-20.507zm-3.477 24.637l-4.428-9.496 3.397-9.333 4.228 1.54-2.76 7.58 3.641 7.807-4.078 1.902zM203.547 102.212c-9.342-3.4-19.67 1.417-23.07 10.758-3.4 9.342 1.416 19.671 10.757 23.071 9.342 3.4 19.671-1.416 23.071-10.758 3.4-9.341-1.416-19.67-10.758-23.07zm-.684 1.88c-8.304-3.023-17.485 1.259-20.507 9.563-3.023 8.303 1.259 17.485 9.562 20.507 8.304 3.022 17.485-1.26 20.508-9.563 3.022-8.303-1.26-17.485-9.563-20.507zm-3.477 24.637l-4.428-9.496 3.397-9.333 4.228 1.54-2.76 7.58 3.641 7.807-4.078 1.902zM185.464 144.876c-8.61 4.97-11.559 15.979-6.588 24.588 4.97 8.61 15.979 11.56 24.588 6.589 8.61-4.971 11.56-15.98 6.589-24.589-4.971-8.61-15.98-11.559-24.589-6.588zm1 1.732c-7.653 4.418-10.275 14.203-5.856 21.856 4.418 7.653 14.203 10.275 21.856 5.857 7.653-4.419 10.275-14.204 5.857-21.857-4.419-7.653-14.204-10.275-21.857-5.856zm16.638 18.5l-10.12-2.712-4.966-8.601 3.897-2.25 4.034 6.987 8.32 2.23-1.165 4.346zM245.464 126.876c-8.61 4.97-11.559 15.979-6.588 24.588 4.97 8.61 15.979 11.56 24.588 6.589 8.61-4.971 11.56-15.98 6.589-24.589-4.971-8.61-15.98-11.559-24.589-6.588zm1 1.732c-7.653 4.418-10.275 14.203-5.856 21.856 4.418 7.653 14.203 10.275 21.856 5.857 7.653-4.419 10.275-14.204 5.857-21.857-4.419-7.653-14.204-10.275-21.857-5.856zm16.638 18.5l-10.12-2.712-4.966-8.601 3.897-2.25 4.034 6.987 8.32 2.23-1.165 4.346zM317.296 134.065c-6.39-7.615-17.744-8.609-25.36-2.218-7.615 6.39-8.608 17.743-2.218 25.359 6.39 7.615 17.744 8.608 25.36 2.218 7.614-6.39 8.608-17.743 2.218-25.359zm-1.532 1.286c-5.68-6.77-15.772-7.652-22.542-1.972-6.769 5.68-7.652 15.772-1.972 22.54 5.68 6.77 15.772 7.653 22.542 1.973 6.769-5.68 7.652-15.772 1.972-22.541zm-15.33 19.598l.913-10.438 7.608-6.384 2.893 3.447-6.18 5.186-.752 8.581-4.483-.392zM325.847 87.937c-6.39 7.615-5.397 18.969 2.218 25.359 7.616 6.39 18.97 5.396 25.36-2.219 6.39-7.615 5.396-18.969-2.22-25.359-7.615-6.39-18.968-5.397-25.358 2.219zm1.532 1.285c-5.68 6.77-4.797 16.862 1.972 22.542 6.769 5.68 16.861 4.797 22.541-1.972 5.68-6.77 4.797-16.862-1.972-22.542-6.77-5.68-16.861-4.797-22.541 1.972zm21.962 11.694l-10.438.914-7.608-6.385 2.892-3.447 6.18 5.186 8.582-.75.392 4.482zM384.348 115.837c-9.081-4.043-19.721.041-23.765 9.123-4.043 9.082.041 19.722 9.123 23.765 9.082 4.043 19.722-.04 23.765-9.123 4.043-9.081-.04-19.721-9.123-23.765zm-.813 1.827c-8.073-3.594-17.53.037-21.124 8.11-3.595 8.072.036 17.53 8.108 21.124 8.073 3.594 17.53-.036 21.125-8.11 3.594-8.072-.036-17.53-8.109-21.124zM378.348 142l-3.755-9.782 4.04-9.073 4.11 1.83-3.281 7.37 3.087 8.043-4.201 1.612zM435.348 91.837c-9.081-4.043-19.721.041-23.765 9.123-4.043 9.082.041 19.722 9.123 23.765 9.082 4.043 19.722-.04 23.765-9.123 4.043-9.081-.04-19.721-9.123-23.765zm-.813 1.827c-8.073-3.594-17.53.037-21.124 8.11-3.595 8.072.036 17.53 8.108 21.124 8.073 3.594 17.53-.036 21.125-8.11 3.594-8.072-.036-17.53-8.109-21.124zM429.348 118l-3.755-9.782 4.04-9.073 4.11 1.83-3.281 7.37 3.087 8.043-4.201 1.612zM433.337 152.458c-4.358-8.935-15.134-12.646-24.07-8.288-8.934 4.358-12.645 15.134-8.287 24.07 4.358 8.934 15.134 12.645 24.069 8.287 8.935-4.358 12.646-15.134 8.288-24.069zm-1.798.877c-3.874-7.943-13.452-11.24-21.395-7.367-7.942 3.874-11.24 13.452-7.366 21.395 3.873 7.942 13.452 11.24 21.394 7.366 7.942-3.873 11.24-13.452 7.367-21.394zm-19.616 15.307l3.411-9.907 8.927-4.354 1.973 4.045-7.252 3.536-2.804 8.145-4.255-1.465zM468.007 111.323c-8.042 5.843-9.825 17.1-3.982 25.142 5.843 8.043 17.1 9.825 25.142 3.982 8.043-5.843 9.826-17.1 3.983-25.142-5.844-8.043-17.1-9.826-25.143-3.982zm1.176 1.618c-7.15 5.194-8.734 15.2-3.54 22.348 5.194 7.15 15.2 8.734 22.349 3.54 7.149-5.194 8.733-15.2 3.54-22.349-5.195-7.149-15.2-8.733-22.35-3.54zm18.48 16.66l-10.348-1.64-5.838-8.035 3.64-2.645 4.743 6.527 8.508 1.348-.704 4.445zM528.007 120.323c-8.042 5.843-9.825 17.1-3.982 25.142 5.843 8.043 17.1 9.825 25.142 3.982 8.043-5.843 9.826-17.1 3.983-25.142-5.844-8.043-17.1-9.826-25.143-3.982zm1.176 1.618c-7.15 5.194-8.734 15.2-3.54 22.348 5.194 7.15 15.2 8.734 22.349 3.54 7.149-5.194 8.733-15.2 3.54-22.349-5.195-7.149-15.2-8.733-22.35-3.54zm18.48 16.66l-10.348-1.64-5.838-8.035 3.64-2.645 4.743 6.527 8.508 1.348-.704 4.445z"/></g></svg>