<svg xmlns="http://www.w3.org/2000/svg" viewBox="0 0 605 180"><title>complete-alt</title><g fill-rule="evenodd"><path d="M50.464 37.053c8.61-4.971 11.56-15.98 6.589-24.589-4.971-8.61-15.98-11.559-24.589-6.588-8.61 4.97-11.559 15.979-6.588 24.588 4.97 8.61 15.979 11.56 24.588 6.589zm-1-1.732c7.653-4.419 10.275-14.204 5.857-21.857C50.902 5.811 41.117 3.19 33.464 7.608c-7.653 4.418-10.275 14.203-5.856 21.856 4.418 7.653 14.203 10.275 21.856 5.857zm-4.849-23.156l3.545.625-2.917 16.545-3.545-.625 2.917-16.545zm-9.383 11.75l7.09 1.25-.624 3.545-7.09-1.25.624-3.546zM75.119 72.36c9.79 1.727 19.126-4.81 20.852-14.6 1.726-9.79-4.81-19.126-14.6-20.853-9.79-1.726-19.127 4.811-20.853 14.601-1.726 9.79 4.81 19.126 14.601 20.852zm.347-1.97c8.703 1.535 17.001-4.275 18.536-12.978 1.534-8.702-4.277-17-12.979-18.535-8.702-1.535-17 4.276-18.535 12.978-1.535 8.703 4.276 17.001 12.978 18.536zm11.17-20.854l2.314 2.757-12.87 10.8-2.314-2.758 12.87-10.8zm-14.74 2.969l4.628 5.516-2.758 2.314-4.628-5.516 2.758-2.314zM140.464 46.053c8.61-4.971 11.56-15.98 6.589-24.589-4.971-8.61-15.98-11.559-24.589-6.588-8.61 4.97-11.559 15.979-6.588 24.588 4.97 8.61 15.979 11.56 24.588 6.589zm-1-1.732c7.653-4.419 10.275-14.204 5.857-21.857-4.419-7.653-14.204-10.275-21.857-5.856-7.653 4.418-10.275 14.203-5.856 21.856 4.418 7.653 14.203 10.275 21.856 5.857zm-4.849-23.156l3.545.625-2.917 16.545-3.545-.625 2.917-16.545zm-9.383 11.75l7.09 1.25-.624 3.545-7.09-1.25.624-3.546zM192.234 52.041c9.342 3.4 19.671-1.416 23.071-10.758 3.4-9.341-1.416-19.67-10.758-23.07-9.342-3.4-19.67 1.416-23.07 10.757-3.4 9.342 1.416 19.671 10.757 23.071zm.684-1.88c8.304 3.023 17.485-1.258 20.508-9.562 3.022-8.303-1.26-17.485-9.563-20.507-8.304-3.023-17.485 1.259-20.507 9.563-3.023 8.303 1.259 17.485 9.562 20.507zm14.622-18.598l1.8 3.118-14.55 8.4-1.8-3.118 14.55-8.4zm-15.032.365l3.6 6.235-3.118 1.8-3.6-6.235 3.118-1.8zM271.464 43.053c8.61-4.971 11.56-15.98 6.589-24.589-4.971-8.61-15.98-11.559-24.589-6.588-8.61 4.97-11.559 15.979-6.588 24.588 4.97 8.61 15.979 11.56 24.588 6.589zm-1-1.732c7.653-4.419 10.275-14.204 5.857-21.857-4.419-7.653-14.204-10.275-21.857-5.856-7.653 4.418-10.275 14.203-5.856 21.856 4.418 7.653 14.203 10.275 21.856 5.857zm-4.849-23.156l3.545.625-2.917 16.545-3.545-.625 2.917-16.545zm-9.383 11.75l7.09 1.25-.624 3.545-7.09-1.25.624-3.546zM346.098 51.918c8.521 5.12 19.58 2.363 24.7-6.158 5.12-8.522 2.362-19.58-6.159-24.7-8.521-5.12-19.58-2.363-24.7 6.158-5.12 8.521-2.362 19.58 6.159 24.7zm1.03-1.715c7.574 4.552 17.404 2.1 21.955-5.474 4.551-7.574 2.1-17.404-5.474-21.955-7.574-4.551-17.404-2.1-21.955 5.474-4.551 7.575-2.1 17.404 5.474 21.955zm17.901-15.467l1.172 3.404-15.884 5.47-1.172-3.404 15.884-5.47zm-14.825-2.51l2.344 6.808-3.403 1.172-2.345-6.808 3.404-1.172zM441.604 47.405c6.906-7.15 6.707-18.546-.444-25.452-7.151-6.906-18.546-6.707-25.452.444-6.906 7.151-6.707 18.547.444 25.452 7.151 6.906 18.546 6.707 25.452-.444zm-1.439-1.39c6.139-6.356 5.962-16.485-.394-22.623-6.357-6.139-16.486-5.962-22.624.395-6.139 6.356-5.962 16.485.394 22.624 6.357 6.138 16.486 5.961 22.624-.395zm-11.043-20.921l3.58-.376 1.756 16.708-3.58.376-1.756-16.708zm-5.781 13.88l7.16-.752.377 3.58-7.16.753-.377-3.58zM519.167 40.447c8.043-5.843 9.826-17.1 3.983-25.142-5.844-8.043-17.1-9.826-25.143-3.982-8.042 5.843-9.825 17.1-3.982 25.142 5.843 8.043 17.1 9.825 25.142 3.982zm-1.175-1.618c7.149-5.194 8.733-15.2 3.54-22.349-5.195-7.149-15.2-8.733-22.35-3.54-7.148 5.195-8.733 15.2-3.54 22.35 5.195 7.148 15.2 8.733 22.35 3.54zm-7.243-22.522l3.591.252-1.172 16.759-3.591-.251 1.172-16.76zm-8.103 12.666l7.182.502-.251 3.592-7.183-.503.252-3.59zM544.014 65.476c8.241 5.559 19.429 3.384 24.988-4.858 5.56-8.241 3.384-19.429-4.857-24.988-8.242-5.559-19.43-3.384-24.988 4.857-5.56 8.242-3.385 19.43 4.857 24.989zm1.118-1.658c7.326 4.94 17.27 3.008 22.212-4.318 4.941-7.326 3.008-17.27-4.318-22.212-7.325-4.941-17.27-3.008-22.211 4.318-4.942 7.326-3.009 17.27 4.317 22.212zm18.687-14.51l.992 3.461-16.15 4.63-.992-3.46 16.15-4.63zm-14.674-3.282l1.985 6.92-3.46.993-1.985-6.92 3.46-.993zM16.234 93.041c9.342 3.4 19.671-1.416 23.071-10.758 3.4-9.341-1.416-19.67-10.758-23.07-9.342-3.4-19.67 1.416-23.07 10.757-3.4 9.342 1.416 19.671 10.757 23.071zm.684-1.88c8.304 3.023 17.485-1.258 20.508-9.562 3.022-8.303-1.26-17.485-9.563-20.507-8.304-3.023-17.485 1.259-20.507 9.563-3.023 8.303 1.259 17.485 9.562 20.507zM31.54 72.564l1.8 3.118-14.55 8.4-1.8-3.118 14.55-8.4zm-15.032.365l3.6 6.235-3.118 1.8-3.6-6.235 3.118-1.8zM130.464 101.053c8.61-4.971 11.56-15.98 6.589-24.589-4.971-8.61-15.98-11.559-24.589-6.588-8.61 4.97-11.559 15.979-6.588 24.588 4.97 8.61 15.979 11.56 24.588 6.589zm-1-1.732c7.653-4.419 10.275-14.204 5.857-21.857-4.419-7.653-14.204-10.275-21.857-5.856-7.653 4.418-10.275 14.203-5.856 21.856 4.418 7.653 14.203 10.275 21.856 5.857zm-4.849-23.156l3.545.625-2.917 16.545-3.545-.625 2.917-16.545zm-9.383 11.75l7.09 1.25-.624 3.545-7.09-1.25.624-3.546zM171 95c9.941 0 18-8.059 18-18s-8.059-18-18-18-18 8.059-18 18 8.059 18 18 18zm0-2c8.837 0 16-7.163 16-16s-7.163-16-16-16-16 7.163-16 16 7.163 16 16 16zm7.378-22.478l2.758 2.314-10.799 12.87-2.758-2.314 10.8-12.87zm-14 5.484l5.515 4.628-2.314 2.758-5.515-4.628 2.314-2.758zM243.464 91.053c8.61-4.971 11.56-15.98 6.589-24.589-4.971-8.61-15.98-11.559-24.589-6.588-8.61 4.97-11.559 15.979-6.588 24.588 4.97 8.61 15.979 11.56 24.588 6.589zm-1-1.732c7.653-4.419 10.275-14.204 5.857-21.857-4.419-7.653-14.204-10.275-21.857-5.856-7.653 4.418-10.275 14.203-5.856 21.856 4.418 7.653 14.203 10.275 21.856 5.857zm-4.849-23.156l3.545.625-2.917 16.545-3.545-.625 2.917-16.545zm-9.383 11.75l7.09 1.25-.624 3.545-7.09-1.25.624-3.546zM284.76 118.971c9.79-1.726 16.327-11.062 14.6-20.852-1.726-9.79-11.062-16.327-20.852-14.6-9.79 1.725-16.327 11.061-14.6 20.851 1.726 9.79 11.061 16.327 20.851 14.601zm-.348-1.97c8.703-1.534 14.513-9.832 12.979-18.535-1.535-8.702-9.833-14.513-18.536-12.978-8.702 1.534-14.513 9.833-12.978 18.535 1.534 8.702 9.833 14.513 18.535 12.979zm3.363-23.417l3.118 1.8-8.4 14.55-3.118-1.8 8.4-14.55zm-12.835 7.832l6.235 3.6-1.8 3.117-6.235-3.6 1.8-3.117zM311.76 78.971c9.79-1.726 16.327-11.062 14.6-20.852-1.726-9.79-11.062-16.327-20.852-14.6-9.79 1.725-16.327 11.061-14.6 20.851 1.726 9.79 11.061 16.327 20.851 14.601zm-.348-1.97c8.703-1.534 14.513-9.832 12.979-18.535-1.535-8.702-9.833-14.513-18.536-12.978-8.702 1.534-14.513 9.833-12.978 18.535 1.534 8.702 9.833 14.513 18.535 12.979zm3.363-23.417l3.118 1.8-8.4 14.55-3.118-1.8 8.4-14.55zm-12.835 7.832l6.235 3.6-1.8 3.117-6.235-3.6 1.8-3.117zM396.167 88.447c8.043-5.843 9.826-17.1 3.983-25.142-5.844-8.043-17.1-9.826-25.143-3.982-8.042 5.843-9.825 17.1-3.982 25.142 5.843 8.043 17.1 9.825 25.142 3.982zm-1.175-1.618c7.149-5.194 8.733-15.2 3.54-22.349-5.195-7.149-15.2-8.733-22.35-3.54-7.148 5.195-8.733 15.2-3.54 22.35 5.195 7.148 15.2 8.733 22.35 3.54zm-7.243-22.522l3.591.252-1.172 16.759-3.591-.251 1.172-16.76zm-8.103 12.666l7.182.502-.251 3.592-7.183-.503.252-3.59zM457.706 86.725c9.082 4.043 19.722-.04 23.765-9.123 4.043-9.081-.04-19.721-9.123-23.765-9.081-4.043-19.721.041-23.765 9.123-4.043 9.082.041 19.722 9.123 23.765zm.813-1.827c8.073 3.594 17.53-.036 21.125-8.11 3.594-8.072-.036-17.53-8.109-21.124-8.073-3.594-17.53.037-21.124 8.11-3.595 8.072.036 17.53 8.108 21.124zm15.883-17.534l1.579 3.236-15.1 7.365-1.578-3.236 15.1-7.365zm-15.02-.684l3.156 6.47-3.235 1.58-3.157-6.472 3.236-1.578zM515.456 106.225c9.917.694 18.518-6.783 19.211-16.7.694-9.917-6.783-18.518-16.7-19.212-9.917-.693-18.518 6.784-19.212 16.7-.693 9.918 6.784 18.519 16.7 19.212zm.14-1.995c8.814.617 16.46-6.03 17.076-14.845.617-8.815-6.03-16.46-14.845-17.077-8.815-.616-16.46 6.03-17.077 14.845-.616 8.815 6.03 16.46 14.845 17.077zm8.927-21.908l2.59 2.5-11.67 12.086-2.59-2.501 11.67-12.085zm-14.348 4.494l5.179 5.001-2.5 2.59-5.18-5.002 2.5-2.59zM589.167 109.447c8.043-5.843 9.826-17.1 3.983-25.142-5.844-8.043-17.1-9.826-25.143-3.982-8.042 5.843-9.825 17.1-3.982 25.142 5.843 8.043 17.1 9.825 25.142 3.982zm-1.175-1.618c7.149-5.194 8.733-15.2 3.54-22.349-5.195-7.149-15.2-8.733-22.35-3.54-7.148 5.195-8.733 15.2-3.54 22.35 5.195 7.148 15.2 8.733 22.35 3.54zm-7.243-22.522l3.591.252-1.172 16.759-3.591-.251 1.172-16.76zm-8.103 12.666l7.182.502-.251 3.592-7.183-.503.252-3.59zM54.234 122.041c9.342 3.4 19.671-1.416 23.071-10.758 3.4-9.341-1.416-19.67-10.758-23.07-9.342-3.4-19.67 1.416-23.07 10.757-3.4 9.342 1.416 19.671 10.757 23.071zm.684-1.88c8.304 3.023 17.485-1.258 20.508-9.562 3.022-8.303-1.26-17.485-9.563-20.507-8.304-3.023-17.485 1.259-20.507 9.563-3.023 8.303 1.259 17.485 9.562 20.507zm14.622-18.598l1.8 3.118-14.55 8.4-1.8-3.118 14.55-8.4zm-15.032.365l3.6 6.235-3.118 1.8-3.6-6.235 3.118-1.8zM39.283 158.305c9.342-3.4 14.158-13.73 10.758-23.07-3.4-9.342-13.729-14.159-23.07-10.759-9.342 3.4-14.159 13.73-10.759 23.071 3.4 9.342 13.73 14.158 23.071 10.758zm-.684-1.88c8.304-3.022 12.585-12.203 9.563-20.507-3.022-8.303-12.204-12.585-20.507-9.562-8.304 3.022-12.586 12.203-9.563 20.507 3.022 8.304 12.204 12.585 20.507 9.563zm-.754-23.645l3.383 1.231-5.746 15.787-3.383-1.231 5.746-15.787zm-11.28 9.941l6.765 2.463-1.231 3.383-6.766-2.463 1.231-3.383zM92 162c9.941 0 18-8.059 18-18s-8.059-18-18-18-18 8.059-18 18 8.059 18 18 18zm0-2c8.837 0 16-7.163 16-16s-7.163-16-16-16-16 7.163-16 16 7.163 16 16 16zm7.378-22.478l2.758 2.314-10.799 12.87-2.758-2.314 10.8-12.87zm-14 5.484l5.515 4.628-2.314 2.758-5.515-4.628 2.314-2.758zM137.234 144.041c9.342 3.4 19.671-1.416 23.071-10.758 3.4-9.341-1.416-19.67-10.758-23.07-9.342-3.4-19.67 1.416-23.07 10.757-3.4 9.342 1.416 19.671 10.757 23.071zm.684-1.88c8.304 3.023 17.485-1.258 20.508-9.562 3.022-8.303-1.26-17.485-9.563-20.507-8.304-3.023-17.485 1.259-20.507 9.563-3.023 8.303 1.259 17.485 9.562 20.507zm14.622-18.598l1.8 3.118-14.55 8.4-1.8-3.118 14.55-8.4zm-15.032.365l3.6 6.235-3.118 1.8-3.6-6.235 3.118-1.8zM191.234 136.041c9.342 3.4 19.671-1.416 23.071-10.758 3.4-9.341-1.416-19.67-10.758-23.07-9.342-3.4-19.67 1.416-23.07 10.757-3.4 9.342 1.416 19.671 10.757 23.071zm.684-1.88c8.304 3.023 17.485-1.258 20.508-9.562 3.022-8.303-1.26-17.485-9.563-20.507-8.304-3.023-17.485 1.259-20.507 9.563-3.023 8.303 1.259 17.485 9.562 20.507zm14.622-18.598l1.8 3.118-14.55 8.4-1.8-3.118 14.55-8.4zm-15.032.365l3.6 6.235-3.118 1.8-3.6-6.235 3.118-1.8zM203.464 176.053c8.61-4.971 11.56-15.98 6.589-24.589-4.971-8.61-15.98-11.559-24.589-6.588-8.61 4.97-11.559 15.979-6.588 24.588 4.97 8.61 15.979 11.56 24.588 6.589zm-1-1.732c7.653-4.419 10.275-14.204 5.857-21.857-4.419-7.653-14.204-10.275-21.857-5.856-7.653 4.418-10.275 14.203-5.856 21.856 4.418 7.653 14.203 10.275 21.856 5.857zm-4.849-23.156l3.545.625-2.917 16.545-3.545-.625 2.917-16.545zm-9.383 11.75l7.09 1.25-.624 3.545-7.09-1.25.624-3.546zM263.464 158.053c8.61-4.971 11.56-15.98 6.589-24.589-4.971-8.61-15.98-11.559-24.589-6.588-8.61 4.97-11.559 15.979-6.588 24.588 4.97 8.61 15.979 11.56 24.588 6.589zm-1-1.732c7.653-4.419 10.275-14.204 5.857-21.857-4.419-7.653-14.204-10.275-21.857-5.856-7.653 4.418-10.275 14.203-5.856 21.856 4.418 7.653 14.203 10.275 21.856 5.857zm-4.849-23.156l3.545.625-2.917 16.545-3.545-.625 2.917-16.545zm-9.383 11.75l7.09 1.25-.624 3.545-7.09-1.25.624-3.546zM289.718 157.206c6.39 7.615 17.744 8.608 25.36 2.218 7.614-6.39 8.608-17.744 2.218-25.359-6.39-7.615-17.744-8.609-25.36-2.218-7.615 6.39-8.608 17.743-2.218 25.359zm1.532-1.286c5.68 6.77 15.772 7.652 22.542 1.972 6.769-5.68 7.652-15.772 1.972-22.541-5.68-6.77-15.772-7.652-22.542-1.972-6.769 5.68-7.652 15.772-1.972 22.54zm21.962-8.796v3.6h-16.8v-3.6h16.8zm-13.2-7.2v7.2h-3.6v-7.2h3.6zM353.424 111.077c6.39-7.615 5.397-18.969-2.218-25.359-7.616-6.39-18.97-5.397-25.36 2.219-6.39 7.615-5.396 18.969 2.22 25.359 7.614 6.39 18.968 5.396 25.358-2.219zm-1.532-1.285c5.68-6.77 4.797-16.862-1.972-22.542-6.77-5.68-16.861-4.797-22.541 1.972-5.68 6.77-4.797 16.862 1.972 22.542 6.769 5.68 16.861 4.797 22.541-1.972zM339.416 89.69l3.545-.625 2.917 16.545-3.545.625-2.917-16.545zm-4.799 14.25l7.09-1.25.626 3.545-7.09 1.25-.626-3.545zM369.706 148.725c9.082 4.043 19.722-.04 23.765-9.123 4.043-9.081-.04-19.721-9.123-23.765-9.081-4.043-19.721.041-23.765 9.123-4.043 9.082.041 19.722 9.123 23.765zm.813-1.827c8.073 3.594 17.53-.036 21.125-8.11 3.594-8.072-.036-17.53-8.109-21.124-8.073-3.594-17.53.037-21.124 8.11-3.595 8.072.036 17.53 8.108 21.124zm15.883-17.534l1.579 3.236-15.1 7.365-1.578-3.236 15.1-7.365zm-15.02-.684l3.156 6.47-3.235 1.58-3.157-6.472 3.236-1.578zM420.706 124.725c9.082 4.043 19.722-.04 23.765-9.123 4.043-9.081-.04-19.721-9.123-23.765-9.081-4.043-19.721.041-23.765 9.123-4.043 9.082.041 19.722 9.123 23.765zm.813-1.827c8.073 3.594 17.53-.036 21.125-8.11 3.594-8.072-.036-17.53-8.109-21.124-8.073-3.594-17.53.037-21.124 8.11-3.595 8.072.036 17.53 8.108 21.124zm15.883-17.534l1.579 3.236-15.1 7.365-1.578-3.236 15.1-7.365zm-15.02-.684l3.156 6.47-3.235 1.58-3.157-6.472 3.236-1.578zM400.98 168.24c4.358 8.934 15.134 12.645 24.069 8.287 8.935-4.358 12.646-15.134 8.288-24.069-4.358-8.935-15.134-12.646-24.07-8.288-8.934 4.358-12.645 15.134-8.287 24.07zm1.798-.877c3.873 7.942 13.452 11.24 21.394 7.366 7.942-3.873 11.24-13.452 7.367-21.394-3.874-7.943-13.452-11.24-21.395-7.367-7.942 3.874-11.24 13.452-7.366 21.395zm23.437-3.222l-.871 3.493-16.301-4.065.87-3.493 16.302 4.065zm-11.066-10.18l-1.742 6.986-3.493-.87 1.742-6.987 3.493.871zM489.167 140.447c8.043-5.843 9.826-17.1 3.983-25.142-5.844-8.043-17.1-9.826-25.143-3.982-8.042 5.843-9.825 17.1-3.982 25.142 5.843 8.043 17.1 9.825 25.142 3.982zm-1.175-1.618c7.149-5.194 8.733-15.2 3.54-22.349-5.195-7.149-15.2-8.733-22.35-3.54-7.148 5.195-8.733 15.2-3.54 22.35 5.195 7.148 15.2 8.733 22.35 3.54zm-7.243-22.522l3.591.252-1.172 16.759-3.591-.251 1.172-16.76zm-8.103 12.666l7.182.502-.251 3.592-7.183-.503.252-3.59zM549.167 149.447c8.043-5.843 9.826-17.1 3.983-25.142-5.844-8.043-17.1-9.826-25.143-3.982-8.042 5.843-9.825 17.1-3.982 25.142 5.843 8.043 17.1 9.825 25.142 3.982zm-1.175-1.618c7.149-5.194 8.733-15.2 3.54-22.349-5.195-7.149-15.2-8.733-22.35-3.54-7.148 5.195-8.733 15.2-3.54 22.35 5.195 7.148 15.2 8.733 22.35 3.54zm-7.243-22.522l3.591.252-1.172 16.759-3.591-.251 1.172-16.76zm-8.103 12.666l7.182.502-.251 3.592-7.183-.503.252-3.59z"/></g></svg>