<svg xmlns="http://www.w3.org/2000/svg" viewBox="0 0 605 180"><title>copy</title><g fill-rule="evenodd"><path d="M20.89 16.022L44.44 2.426c1.215-.702 1.898-.52 2.599.694 0 0-21.665 12.618-24.086 14.02l-.113.066c-1.3.75-1.274 1.793-.732 2.732l11 19.052c-1.3.75-1.982.567-2.732-.732l-10.55-18.272a2.901 2.901 0 0 1 1.064-3.964z"/><path d="M24.07 21.335a3.191 3.191 0 0 1 1.17-4.36L48.286 3.669a3.193 3.193 0 0 1 4.362 1.166l11.018 19.083a3.191 3.191 0 0 1-1.171 4.36L39.448 41.584a3.193 3.193 0 0 1-4.361-1.166L24.069 21.335zm2.741 1.083L52.215 7.752l10.012 17.34c.292.507.11 1.16-.39 1.449L38.272 40.146a1.064 1.064 0 0 1-1.449-.387l-10.012-17.34zm-1.375-2.381a.914.914 0 0 1 .336-1.252.914.914 0 0 1 1.252.335.914.914 0 0 1-.335 1.252.914.914 0 0 1-1.253-.335zm3.176-1.834a.914.914 0 0 1 .335-1.252.914.914 0 0 1 1.253.336.914.914 0 0 1-.336 1.252.914.914 0 0 1-1.252-.336zm3.175-1.833a.914.914 0 0 1 .336-1.252.914.914 0 0 1 1.252.335.914.914 0 0 1-.336 1.253.914.914 0 0 1-1.252-.336zM65.982 37.24l26.78 4.722c1.382.244 1.788.823 1.545 2.203 0 0-24.707-4.26-27.463-4.742l-.13-.023c-1.476-.26-2.128.555-2.316 1.623l-3.82 21.665c-1.478-.26-1.883-.84-1.623-2.317l3.664-20.778a2.901 2.901 0 0 1 3.363-2.353z"/><path d="M65.002 43.354a3.191 3.191 0 0 1 3.7-2.588l26.207 4.621a3.193 3.193 0 0 1 2.592 3.697l-3.826 21.7a3.191 3.191 0 0 1-3.7 2.588l-26.208-4.621a3.193 3.193 0 0 1-2.591-3.697l3.826-21.7zm1.405 2.592l28.887 5.094-3.477 19.719c-.101.577-.661.96-1.229.86l-26.797-4.725a1.064 1.064 0 0 1-.861-1.229l3.477-19.719zm.477-2.708a.914.914 0 0 1 1.062-.744c.499.088.832.56.744 1.062a.914.914 0 0 1-1.062.744.914.914 0 0 1-.744-1.062zm3.611.637a.914.914 0 0 1 1.062-.744c.499.088.832.56.744 1.062a.914.914 0 0 1-1.062.744.914.914 0 0 1-.744-1.062zm3.611.636a.914.914 0 0 1 1.062-.743c.499.088.832.56.744 1.062a.914.914 0 0 1-1.062.743.914.914 0 0 1-.744-1.062zM110.89 25.022l23.55-13.596c1.215-.702 1.898-.52 2.599.694 0 0-21.665 12.618-24.086 14.02l-.113.066c-1.3.75-1.274 1.793-.732 2.732l11 19.052c-1.3.75-1.982.567-2.732-.732l-10.55-18.272a2.901 2.901 0 0 1 1.064-3.964z"/><path d="M114.07 30.335a3.191 3.191 0 0 1 1.17-4.36l23.046-13.306a3.193 3.193 0 0 1 4.362 1.166l11.018 19.083a3.191 3.191 0 0 1-1.171 4.36l-23.047 13.306a3.193 3.193 0 0 1-4.361-1.166l-11.018-19.083zm2.741 1.083l25.404-14.666 10.012 17.34c.292.507.11 1.16-.39 1.449l-23.565 13.605a1.064 1.064 0 0 1-1.449-.387l-10.012-17.34zm-1.375-2.381a.914.914 0 0 1 .336-1.252.914.914 0 0 1 1.252.335.914.914 0 0 1-.335 1.252.914.914 0 0 1-1.253-.335zm3.176-1.834a.914.914 0 0 1 .335-1.252.914.914 0 0 1 1.253.336.914.914 0 0 1-.336 1.252.914.914 0 0 1-1.252-.336zm3.175-1.833a.914.914 0 0 1 .336-1.252.914.914 0 0 1 1.252.335.914.914 0 0 1-.336 1.253.914.914 0 0 1-1.252-.336zM189.335 15.868l25.553 9.3c1.319.48 1.618 1.122 1.139 2.438 0 0-23.593-8.485-26.222-9.439l-.124-.044c-1.41-.513-2.193.177-2.563 1.195l-7.525 20.673c-1.41-.513-1.708-1.154-1.195-2.563l7.216-19.827a2.901 2.901 0 0 1 3.721-1.733z"/><path d="M187.308 21.719a3.191 3.191 0 0 1 4.093-1.906l25.007 9.101a3.193 3.193 0 0 1 1.91 4.091l-7.536 20.706a3.191 3.191 0 0 1-4.093 1.906l-25.007-9.101a3.193 3.193 0 0 1-1.91-4.091l7.536-20.706zm.933 2.797l27.565 10.032-6.849 18.816c-.2.55-.818.83-1.36.633l-25.57-9.307c-.55-.2-.833-.814-.634-1.359l6.848-18.815zm.94-2.585a.914.914 0 0 1 1.176-.547.914.914 0 0 1 .548 1.174.914.914 0 0 1-1.175.548.914.914 0 0 1-.548-1.175zm3.446 1.255a.914.914 0 0 1 1.175-.548.914.914 0 0 1 .548 1.175.914.914 0 0 1-1.175.547.914.914 0 0 1-.548-1.174zm3.446 1.254a.914.914 0 0 1 1.175-.548.914.914 0 0 1 .548 1.175.914.914 0 0 1-1.175.547.914.914 0 0 1-.548-1.174zM241.89 22.022l23.55-13.596c1.215-.702 1.898-.52 2.599.694 0 0-21.665 12.618-24.086 14.02l-.113.066c-1.3.75-1.274 1.793-.732 2.732l11 19.052c-1.3.75-1.982.567-2.732-.732l-10.55-18.272a2.901 2.901 0 0 1 1.064-3.964z"/><path d="M245.07 27.335a3.191 3.191 0 0 1 1.17-4.36l23.046-13.306a3.193 3.193 0 0 1 4.362 1.166l11.018 19.083a3.191 3.191 0 0 1-1.171 4.36l-23.047 13.306a3.193 3.193 0 0 1-4.361-1.166l-11.018-19.083zm2.741 1.083l25.404-14.666 10.012 17.34c.292.507.11 1.16-.39 1.449l-23.565 13.605a1.064 1.064 0 0 1-1.449-.387l-10.012-17.34zm-1.375-2.381a.914.914 0 0 1 .336-1.252.914.914 0 0 1 1.252.335.914.914 0 0 1-.335 1.252.914.914 0 0 1-1.253-.335zm3.176-1.834a.914.914 0 0 1 .335-1.252.914.914 0 0 1 1.253.336.914.914 0 0 1-.336 1.252.914.914 0 0 1-1.252-.336zm3.175-1.833a.914.914 0 0 1 .336-1.252.914.914 0 0 1 1.252.335.914.914 0 0 1-.336 1.253.914.914 0 0 1-1.252-.336zM350.154 15.856l23.309 14.005c1.203.723 1.374 1.41.653 2.61 0 0-21.54-12.83-23.94-14.268l-.112-.068c-1.286-.772-2.187-.245-2.745.684l-11.33 18.858c-1.286-.773-1.457-1.459-.685-2.744l10.867-18.086a2.901 2.901 0 0 1 3.983-.99z"/><path d="M347.048 21.212c.908-1.51 2.868-1.999 4.381-1.09l22.811 13.706a3.193 3.193 0 0 1 1.095 4.38l-11.35 18.888a3.191 3.191 0 0 1-4.38 1.09L336.793 44.48a3.193 3.193 0 0 1-1.095-4.38l11.35-18.888zm.382 2.924l25.144 15.108-10.313 17.163a1.067 1.067 0 0 1-1.456.362l-23.324-14.015a1.064 1.064 0 0 1-.364-1.455l10.313-17.163zm1.417-2.357a.914.914 0 0 1 1.257-.314c.434.26.577.82.314 1.258a.914.914 0 0 1-1.258.314.914.914 0 0 1-.313-1.258zm3.143 1.888a.914.914 0 0 1 1.257-.313c.434.26.577.82.314 1.257a.914.914 0 0 1-1.258.314.914.914 0 0 1-.313-1.258zm3.142 1.889a.914.914 0 0 1 1.258-.314c.434.26.577.82.314 1.258a.914.914 0 0 1-1.258.313.914.914 0 0 1-.314-1.257zM407.38 35.34l18.889-19.56c.975-1.01 1.682-1.022 2.69-.049 0 0-17.348 18.101-19.289 20.116l-.09.094c-1.043 1.08-.73 2.076.049 2.828l15.825 15.283c-1.042 1.079-1.749 1.091-2.828.05L407.45 39.444a2.901 2.901 0 0 1-.07-4.104z"/><path d="M411.9 39.572a3.191 3.191 0 0 1-.077-4.514l18.486-19.143a3.193 3.193 0 0 1 4.514-.081l15.85 15.307a3.191 3.191 0 0 1 .077 4.514l-18.486 19.143a3.193 3.193 0 0 1-4.514.08L411.9 39.573zm2.934.285l20.377-21.1 14.403 13.91c.421.406.426 1.084.025 1.499L430.737 53.74a1.064 1.064 0 0 1-1.5.027l-14.403-13.91zm-1.978-1.91a.914.914 0 0 1-.023-1.296.914.914 0 0 1 1.296-.023c.364.352.377.93.023 1.296a.914.914 0 0 1-1.296.023zm2.547-2.638a.914.914 0 0 1-.023-1.296.914.914 0 0 1 1.296-.022c.365.351.377.93.023 1.296a.914.914 0 0 1-1.296.022zm2.547-2.637a.914.914 0 0 1-.023-1.296.914.914 0 0 1 1.296-.023c.365.352.377.93.023 1.296a.914.914 0 0 1-1.296.023zM487.557 22.623l22-15.983c1.135-.825 1.834-.715 2.657.418 0 0-20.227 14.814-22.488 16.461l-.106.078c-1.214.881-1.08 1.917-.443 2.793L502.11 44.19c-1.214.881-1.912.77-2.794-.443l-12.402-17.07a2.901 2.901 0 0 1 .644-4.053z"/><path d="M491.274 27.575a3.191 3.191 0 0 1 .709-4.459l21.529-15.642a3.193 3.193 0 0 1 4.46.704l12.952 17.827a3.191 3.191 0 0 1-.71 4.459l-21.528 15.642a3.193 3.193 0 0 1-4.46-.704l-12.952-17.827zm2.84.79l23.732-17.241 11.77 16.199c.343.474.23 1.142-.236 1.481l-22.014 15.994a1.064 1.064 0 0 1-1.482-.233l-11.77-16.2zm-1.616-2.224a.914.914 0 0 1 .203-1.28.914.914 0 0 1 1.28.202c.298.41.21.98-.202 1.28a.914.914 0 0 1-1.28-.202zm2.967-2.156a.914.914 0 0 1 .202-1.28.914.914 0 0 1 1.28.203c.298.41.21.98-.202 1.28a.914.914 0 0 1-1.28-.203zm2.966-2.155a.914.914 0 0 1 .203-1.28.914.914 0 0 1 1.28.203c.298.41.21.98-.203 1.28a.914.914 0 0 1-1.28-.203zM549.952 29.676l22.543 15.205c1.164.785 1.3 1.48.516 2.64 0 0-20.839-13.94-23.16-15.501l-.109-.073c-1.243-.84-2.17-.359-2.776.54l-12.302 18.238c-1.244-.839-1.379-1.533-.54-2.776l11.799-17.492a2.901 2.901 0 0 1 4.029-.781z"/><path d="M546.57 34.862a3.191 3.191 0 0 1 4.432-.86l22.062 14.882a3.193 3.193 0 0 1 .864 4.431l-12.322 18.268a3.191 3.191 0 0 1-4.432.86L535.112 57.56a3.193 3.193 0 0 1-.864-4.431l12.322-18.268zm.228 2.94l24.319 16.402-11.197 16.6a1.067 1.067 0 0 1-1.473.286L535.89 55.874a1.064 1.064 0 0 1-.287-1.472l11.196-16.6zm1.538-2.28a.914.914 0 0 1 1.273-.248c.42.283.532.85.247 1.273a.914.914 0 0 1-1.272.247.914.914 0 0 1-.248-1.272zm3.04 2.05a.914.914 0 0 1 1.273-.247c.42.283.532.85.247 1.272a.914.914 0 0 1-1.273.248.914.914 0 0 1-.247-1.273zm3.04 2.05a.914.914 0 0 1 1.272-.247c.42.283.533.85.248 1.273a.914.914 0 0 1-1.273.247.914.914 0 0 1-.247-1.273zM13.335 56.868l25.553 9.3c1.319.48 1.618 1.122 1.139 2.438 0 0-23.593-8.485-26.222-9.439l-.124-.044c-1.41-.513-2.193.177-2.563 1.195L3.593 80.99c-1.41-.513-1.708-1.154-1.195-2.563L9.614 58.6a2.901 2.901 0 0 1 3.721-1.733z"/><path d="M11.308 62.719a3.191 3.191 0 0 1 4.093-1.906l25.007 9.101a3.193 3.193 0 0 1 1.91 4.091l-7.536 20.706a3.191 3.191 0 0 1-4.093 1.906L5.682 87.516a3.193 3.193 0 0 1-1.91-4.091l7.536-20.706zm.933 2.797l27.565 10.032-6.849 18.816c-.2.55-.818.83-1.36.633L6.027 85.69c-.55-.2-.833-.814-.634-1.359l6.848-18.815zm.94-2.585a.914.914 0 0 1 1.176-.547.914.914 0 0 1 .548 1.174.914.914 0 0 1-1.175.548.914.914 0 0 1-.548-1.175zm3.446 1.255a.914.914 0 0 1 1.175-.548.914.914 0 0 1 .548 1.175.914.914 0 0 1-1.175.547.914.914 0 0 1-.548-1.174zm3.446 1.254a.914.914 0 0 1 1.175-.548.914.914 0 0 1 .548 1.175.914.914 0 0 1-1.175.547.914.914 0 0 1-.548-1.174zM100.89 80.022l23.55-13.596c1.215-.702 1.898-.52 2.599.694 0 0-21.665 12.618-24.086 14.02l-.113.066c-1.3.75-1.274 1.793-.732 2.732l11 19.052c-1.3.75-1.982.567-2.732-.732l-10.55-18.272a2.901 2.901 0 0 1 1.064-3.964z"/><path d="M104.07 85.335a3.191 3.191 0 0 1 1.17-4.36l23.046-13.306a3.193 3.193 0 0 1 4.362 1.166l11.018 19.083a3.191 3.191 0 0 1-1.171 4.36l-23.047 13.306a3.193 3.193 0 0 1-4.361-1.166l-11.018-19.083zm2.741 1.083l25.404-14.666 10.012 17.34c.292.507.11 1.16-.39 1.449l-23.565 13.605a1.064 1.064 0 0 1-1.449-.387l-10.012-17.34zm-1.375-2.381a.914.914 0 0 1 .336-1.252.914.914 0 0 1 1.252.335.914.914 0 0 1-.335 1.252.914.914 0 0 1-1.253-.335zm3.176-1.834a.914.914 0 0 1 .335-1.252.914.914 0 0 1 1.253.336.914.914 0 0 1-.336 1.252.914.914 0 0 1-1.252-.336zm3.175-1.833a.914.914 0 0 1 .336-1.252.914.914 0 0 1 1.252.335.914.914 0 0 1-.336 1.253.914.914 0 0 1-1.252-.336zM155.904 62h27.192c1.404 0 1.904.5 1.904 1.9 0 0-25.071.096-27.869.1H157c-1.5 0-2 .916-2 2v22c-1.5 0-2-.5-2-2V64.9c0-1.601 1.299-2.9 2.904-2.9z"/><path d="M156 68.19a3.191 3.191 0 0 1 3.194-3.19h26.612A3.193 3.193 0 0 1 189 68.19v22.036a3.191 3.191 0 0 1-3.194 3.19h-26.612a3.193 3.193 0 0 1-3.194-3.19V68.19zm1.833 2.31h29.334v20.023c0 .586-.485 1.06-1.062 1.06h-27.21c-.586 0-1.062-.48-1.062-1.06V70.5zm0-2.75c0-.506.407-.917.917-.917.506 0 .917.407.917.917a.914.914 0 0 1-.917.917.914.914 0 0 1-.917-.917zm3.667 0c0-.506.407-.917.917-.917.506 0 .916.407.916.917a.914.914 0 0 1-.916.917.914.914 0 0 1-.917-.917zm3.667 0c0-.506.407-.917.916-.917.507 0 .917.407.917.917a.914.914 0 0 1-.917.917.914.914 0 0 1-.916-.917zM213.89 70.022l23.55-13.596c1.215-.702 1.898-.52 2.599.694 0 0-21.665 12.618-24.086 14.02l-.113.066c-1.3.75-1.274 1.793-.732 2.732l11 19.052c-1.3.75-1.982.567-2.732-.732l-10.55-18.272a2.901 2.901 0 0 1 1.064-3.964z"/><path d="M217.07 75.335a3.191 3.191 0 0 1 1.17-4.36l23.046-13.306a3.193 3.193 0 0 1 4.362 1.166l11.018 19.083a3.191 3.191 0 0 1-1.171 4.36l-23.047 13.306a3.193 3.193 0 0 1-4.361-1.166l-11.018-19.083zm2.741 1.083l25.404-14.666 10.012 17.34c.292.507.11 1.16-.39 1.449l-23.565 13.605a1.064 1.064 0 0 1-1.449-.387l-10.012-17.34zm-1.375-2.381a.914.914 0 0 1 .336-1.252.914.914 0 0 1 1.252.335.914.914 0 0 1-.335 1.252.914.914 0 0 1-1.253-.335zm3.176-1.834a.914.914 0 0 1 .335-1.252.914.914 0 0 1 1.253.336.914.914 0 0 1-.336 1.252.914.914 0 0 1-1.252-.336zm3.175-1.833a.914.914 0 0 1 .336-1.252.914.914 0 0 1 1.252.335.914.914 0 0 1-.336 1.253.914.914 0 0 1-1.252-.336zM264.162 89.094l26.78-4.722c1.382-.244 1.961.162 2.204 1.541 0 0-24.673 4.448-27.428 4.937-.05.01-.093.017-.129.023-1.477.26-1.81 1.25-1.622 2.317l3.82 21.666c-1.477.26-2.056-.145-2.317-1.622l-3.664-20.78a2.901 2.901 0 0 1 2.356-3.36z"/><path d="M265.332 95.174a3.191 3.191 0 0 1 2.592-3.697l26.207-4.621a3.193 3.193 0 0 1 3.7 2.588l3.826 21.7a3.191 3.191 0 0 1-2.592 3.697l-26.207 4.621a3.193 3.193 0 0 1-3.7-2.588l-3.826-21.7zm2.206 1.956l28.888-5.094 3.477 19.72a1.067 1.067 0 0 1-.86 1.227l-26.798 4.725a1.064 1.064 0 0 1-1.23-.86l-3.477-19.718zm-.477-2.708a.914.914 0 0 1 .744-1.062.914.914 0 0 1 1.061.743.914.914 0 0 1-.743 1.062.914.914 0 0 1-1.062-.743zm3.61-.637a.914.914 0 0 1 .744-1.062.914.914 0 0 1 1.062.743.914.914 0 0 1-.743 1.062.914.914 0 0 1-1.062-.743zm3.612-.637a.914.914 0 0 1 .743-1.062.914.914 0 0 1 1.062.744.914.914 0 0 1-.743 1.062.914.914 0 0 1-1.062-.744zM291.162 49.094l26.78-4.722c1.382-.244 1.961.162 2.204 1.541 0 0-24.673 4.448-27.428 4.937-.05.01-.093.017-.129.023-1.477.26-1.81 1.25-1.622 2.317l3.82 21.666c-1.477.26-2.056-.145-2.317-1.622l-3.664-20.78a2.901 2.901 0 0 1 2.356-3.36z"/><path d="M292.332 55.174a3.191 3.191 0 0 1 2.592-3.697l26.207-4.621a3.193 3.193 0 0 1 3.7 2.588l3.826 21.7a3.191 3.191 0 0 1-2.592 3.697l-26.207 4.621a3.193 3.193 0 0 1-3.7-2.588l-3.826-21.7zm2.206 1.956l28.888-5.094 3.477 19.72a1.067 1.067 0 0 1-.86 1.227l-26.798 4.725a1.064 1.064 0 0 1-1.23-.86l-3.477-19.718zm-.477-2.708a.914.914 0 0 1 .744-1.062.914.914 0 0 1 1.061.743.914.914 0 0 1-.743 1.062.914.914 0 0 1-1.062-.743zm3.61-.637a.914.914 0 0 1 .744-1.062.914.914 0 0 1 1.062.743.914.914 0 0 1-.743 1.062.914.914 0 0 1-1.062-.743zm3.612-.637a.914.914 0 0 1 .743-1.062.914.914 0 0 1 1.062.744.914.914 0 0 1-.743 1.062.914.914 0 0 1-1.062-.744zM364.557 70.623l22-15.983c1.135-.825 1.834-.715 2.657.418 0 0-20.227 14.814-22.488 16.461l-.106.078c-1.214.881-1.08 1.917-.443 2.793L379.11 92.19c-1.214.881-1.912.77-2.794-.443l-12.402-17.07a2.901 2.901 0 0 1 .644-4.053z"/><path d="M368.274 75.575a3.191 3.191 0 0 1 .709-4.459l21.529-15.642a3.193 3.193 0 0 1 4.46.704l12.952 17.827a3.191 3.191 0 0 1-.71 4.459l-21.528 15.642a3.193 3.193 0 0 1-4.46-.704l-12.952-17.827zm2.84.79l23.732-17.241 11.77 16.199c.343.474.23 1.142-.236 1.481l-22.014 15.994a1.064 1.064 0 0 1-1.482-.233l-11.77-16.2zm-1.616-2.224a.914.914 0 0 1 .203-1.28.914.914 0 0 1 1.28.202c.298.41.21.98-.202 1.28a.914.914 0 0 1-1.28-.202zm2.967-2.156a.914.914 0 0 1 .202-1.28.914.914 0 0 1 1.28.203c.298.41.21.98-.202 1.28a.914.914 0 0 1-1.28-.203zm2.966-2.155a.914.914 0 0 1 .203-1.28.914.914 0 0 1 1.28.203c.298.41.21.98-.203 1.28a.914.914 0 0 1-1.28-.203zM457.337 50.438l24.842 11.06c1.282.57 1.536 1.231.966 2.51 0 0-22.943-10.11-25.5-11.244l-.12-.053c-1.37-.61-2.2.023-2.64 1.013l-8.949 20.098c-1.37-.61-1.623-1.27-1.013-2.64l8.582-19.275a2.901 2.901 0 0 1 3.832-1.47z"/><path d="M454.907 56.132a3.191 3.191 0 0 1 4.216-1.615l24.31 10.824a3.193 3.193 0 0 1 1.621 4.214l-8.962 20.13a3.191 3.191 0 0 1-4.216 1.616l-24.311-10.824a3.193 3.193 0 0 1-1.62-4.214l8.962-20.13zm.736 2.856l26.797 11.93-8.144 18.293a1.067 1.067 0 0 1-1.4.537l-24.86-11.068a1.064 1.064 0 0 1-.538-1.4l8.145-18.292zm1.118-2.513a.914.914 0 0 1 1.21-.464.914.914 0 0 1 .465 1.21.914.914 0 0 1-1.21.465.914.914 0 0 1-.465-1.21zm3.35 1.492a.914.914 0 0 1 1.21-.465.914.914 0 0 1 .465 1.21.914.914 0 0 1-1.21.465.914.914 0 0 1-.465-1.21zm3.35 1.491a.914.914 0 0 1 1.21-.464.914.914 0 0 1 .464 1.21.914.914 0 0 1-1.21.464.914.914 0 0 1-.464-1.21z"/><g><path d="M502.698 72.253l27.126 1.897c1.4.098 1.865.631 1.767 2.028 0 0-25.017-1.653-27.808-1.845l-.13-.009c-1.497-.104-2.06.775-2.135 1.856l-1.535 21.946c-1.496-.104-1.96-.638-1.856-2.134l1.472-21.048a2.901 2.901 0 0 1 3.1-2.691z"/><path d="M502.362 78.435a3.191 3.191 0 0 1 3.41-2.96l26.546 1.856a3.193 3.193 0 0 1 2.964 3.406l-1.537 21.982a3.191 3.191 0 0 1-3.41 2.96l-26.546-1.857a3.193 3.193 0 0 1-2.964-3.405l1.537-21.982zm1.668 2.432l29.262 2.046-1.397 19.974a1.067 1.067 0 0 1-1.132.984l-27.145-1.898a1.064 1.064 0 0 1-.985-1.132l1.397-19.974zm.192-2.744a.914.914 0 0 1 .978-.85c.505.035.886.47.85.978a.914.914 0 0 1-.978.85.914.914 0 0 1-.85-.978zm3.658.256a.914.914 0 0 1 .978-.85c.505.035.886.47.85.978a.914.914 0 0 1-.978.85.914.914 0 0 1-.85-.978zm3.657.256a.914.914 0 0 1 .979-.85c.505.035.886.47.85.978a.914.914 0 0 1-.978.85.914.914 0 0 1-.85-.978z"/></g><g><path d="M557.557 91.623l22-15.983c1.135-.825 1.834-.715 2.657.418 0 0-20.227 14.814-22.488 16.461l-.106.078c-1.214.881-1.08 1.917-.443 2.793l12.932 17.799c-1.214.881-1.912.77-2.794-.443l-12.402-17.07a2.901 2.901 0 0 1 .644-4.053z"/><path d="M561.274 96.575a3.191 3.191 0 0 1 .709-4.459l21.529-15.642a3.193 3.193 0 0 1 4.46.704l12.952 17.827a3.191 3.191 0 0 1-.71 4.459l-21.528 15.642a3.193 3.193 0 0 1-4.46-.704l-12.952-17.827zm2.84.79l23.732-17.241 11.77 16.199c.343.474.23 1.142-.236 1.481l-22.014 15.994a1.064 1.064 0 0 1-1.482-.233l-11.77-16.2zm-1.616-2.224a.914.914 0 0 1 .203-1.28.914.914 0 0 1 1.28.202c.298.41.21.98-.202 1.28a.914.914 0 0 1-1.28-.202zm2.967-2.156a.914.914 0 0 1 .202-1.28.914.914 0 0 1 1.28.203c.298.41.21.98-.202 1.28a.914.914 0 0 1-1.28-.203zm2.966-2.155a.914.914 0 0 1 .203-1.28.914.914 0 0 1 1.28.203c.298.41.21.98-.203 1.28a.914.914 0 0 1-1.28-.203z"/></g><g><path d="M51.335 85.868l25.553 9.3c1.319.48 1.618 1.122 1.139 2.438 0 0-23.593-8.485-26.222-9.439l-.124-.044c-1.41-.513-2.193.177-2.563 1.195l-7.525 20.673c-1.41-.513-1.708-1.154-1.195-2.563L47.614 87.6a2.901 2.901 0 0 1 3.721-1.733z"/><path d="M49.308 91.719a3.191 3.191 0 0 1 4.093-1.906l25.007 9.101a3.193 3.193 0 0 1 1.91 4.091l-7.536 20.706a3.191 3.191 0 0 1-4.093 1.906l-25.007-9.101a3.193 3.193 0 0 1-1.91-4.091l7.536-20.706zm.933 2.797l27.565 10.032-6.849 18.816c-.2.55-.818.83-1.36.633l-25.57-9.307c-.55-.2-.833-.814-.634-1.359l6.848-18.815zm.94-2.585a.914.914 0 0 1 1.176-.547.914.914 0 0 1 .548 1.174.914.914 0 0 1-1.175.548.914.914 0 0 1-.548-1.175zm3.446 1.255a.914.914 0 0 1 1.175-.548.914.914 0 0 1 .548 1.175.914.914 0 0 1-1.175.547.914.914 0 0 1-.548-1.174zm3.446 1.254a.914.914 0 0 1 1.175-.548.914.914 0 0 1 .548 1.175.914.914 0 0 1-1.175.547.914.914 0 0 1-.548-1.174z"/></g><g><path d="M13.81 132.459l25.553-9.3c1.32-.481 1.96-.182 2.44 1.134 0 0-23.527 8.665-26.155 9.625l-.123.045c-1.41.513-1.566 1.545-1.195 2.563l7.524 20.674c-1.41.513-2.05.214-2.563-1.196l-7.217-19.827a2.901 2.901 0 0 1 1.737-3.718z"/><path d="M16.019 138.243a3.191 3.191 0 0 1 1.91-4.09l25.007-9.103a3.193 3.193 0 0 1 4.092 1.906l7.537 20.707a3.191 3.191 0 0 1-1.91 4.09l-25.007 9.102a3.193 3.193 0 0 1-4.093-1.906l-7.536-20.706zm2.512 1.543l27.564-10.033 6.849 18.816c.2.55-.093 1.162-.635 1.36l-25.57 9.306c-.55.2-1.161-.088-1.36-.633l-6.848-18.816zm-.94-2.584a.914.914 0 0 1 .547-1.175.914.914 0 0 1 1.175.548.914.914 0 0 1-.548 1.175.914.914 0 0 1-1.174-.548zm3.445-1.254a.914.914 0 0 1 .548-1.175.914.914 0 0 1 1.175.548.914.914 0 0 1-.548 1.175.914.914 0 0 1-1.175-.548zm3.446-1.254a.914.914 0 0 1 .547-1.175.914.914 0 0 1 1.175.548.914.914 0 0 1-.547 1.175.914.914 0 0 1-1.175-.548z"/></g><g><path d="M76.904 129h27.192c1.404 0 1.904.5 1.904 1.9 0 0-25.071.096-27.869.1H78c-1.5 0-2 .916-2 2v22c-1.5 0-2-.5-2-2v-21.1c0-1.601 1.299-2.9 2.904-2.9z"/><path d="M77 135.19a3.191 3.191 0 0 1 3.194-3.19h26.612a3.193 3.193 0 0 1 3.194 3.19v22.036a3.191 3.191 0 0 1-3.194 3.19H80.194a3.193 3.193 0 0 1-3.194-3.19V135.19zm1.833 2.31h29.334v20.023c0 .586-.485 1.06-1.062 1.06h-27.21c-.586 0-1.062-.48-1.062-1.06V137.5zm0-2.75c0-.506.407-.917.917-.917.506 0 .917.407.917.917a.914.914 0 0 1-.917.917.914.914 0 0 1-.917-.917zm3.667 0c0-.506.407-.917.917-.917.506 0 .916.407.916.917a.914.914 0 0 1-.916.917.914.914 0 0 1-.917-.917zm3.667 0c0-.506.407-.917.916-.917.507 0 .917.407.917.917a.914.914 0 0 1-.917.917.914.914 0 0 1-.916-.917z"/></g><g><path d="M134.335 107.868l25.553 9.3c1.319.48 1.618 1.122 1.139 2.438 0 0-23.593-8.485-26.222-9.439l-.124-.044c-1.41-.513-2.193.177-2.563 1.195l-7.525 20.673c-1.41-.513-1.708-1.154-1.195-2.563l7.216-19.827a2.901 2.901 0 0 1 3.721-1.733z"/><path d="M132.308 113.719a3.191 3.191 0 0 1 4.093-1.906l25.007 9.101a3.193 3.193 0 0 1 1.91 4.091l-7.536 20.706a3.191 3.191 0 0 1-4.093 1.906l-25.007-9.101a3.193 3.193 0 0 1-1.91-4.091l7.536-20.706zm.933 2.797l27.565 10.032-6.849 18.816c-.2.55-.818.83-1.36.633l-25.57-9.307c-.55-.2-.833-.814-.634-1.359l6.848-18.815zm.94-2.585a.914.914 0 0 1 1.176-.547.914.914 0 0 1 .548 1.174.914.914 0 0 1-1.175.548.914.914 0 0 1-.548-1.175zm3.446 1.255a.914.914 0 0 1 1.175-.548.914.914 0 0 1 .548 1.175.914.914 0 0 1-1.175.547.914.914 0 0 1-.548-1.174zm3.446 1.254a.914.914 0 0 1 1.175-.548.914.914 0 0 1 .548 1.175.914.914 0 0 1-1.175.547.914.914 0 0 1-.548-1.174z"/></g><g><path d="M188.335 99.868l25.553 9.3c1.319.48 1.618 1.122 1.139 2.438 0 0-23.593-8.485-26.222-9.439l-.124-.044c-1.41-.513-2.193.177-2.563 1.195l-7.525 20.673c-1.41-.513-1.708-1.154-1.195-2.563l7.216-19.827a2.901 2.901 0 0 1 3.721-1.733z"/><path d="M186.308 105.719a3.191 3.191 0 0 1 4.093-1.906l25.007 9.101a3.193 3.193 0 0 1 1.91 4.091l-7.536 20.706a3.191 3.191 0 0 1-4.093 1.906l-25.007-9.101a3.193 3.193 0 0 1-1.91-4.091l7.536-20.706zm.933 2.797l27.565 10.032-6.849 18.816c-.2.55-.818.83-1.36.633l-25.57-9.307c-.55-.2-.833-.814-.634-1.359l6.848-18.815zm.94-2.585a.914.914 0 0 1 1.176-.547.914.914 0 0 1 .548 1.174.914.914 0 0 1-1.175.548.914.914 0 0 1-.548-1.175zm3.446 1.255a.914.914 0 0 1 1.175-.548.914.914 0 0 1 .548 1.175.914.914 0 0 1-1.175.547.914.914 0 0 1-.548-1.174zm3.446 1.254a.914.914 0 0 1 1.175-.548.914.914 0 0 1 .548 1.175.914.914 0 0 1-1.175.547.914.914 0 0 1-.548-1.174z"/></g><g><path d="M173.89 155.022l23.55-13.596c1.215-.702 1.898-.52 2.599.694 0 0-21.665 12.618-24.086 14.02l-.113.066c-1.3.75-1.274 1.793-.732 2.732l11 19.052c-1.3.75-1.982.567-2.732-.732l-10.55-18.272a2.901 2.901 0 0 1 1.064-3.964z"/><path d="M177.07 160.335a3.191 3.191 0 0 1 1.17-4.36l23.046-13.306a3.193 3.193 0 0 1 4.362 1.166l11.018 19.083a3.191 3.191 0 0 1-1.171 4.36l-23.047 13.306a3.193 3.193 0 0 1-4.361-1.166l-11.018-19.083zm2.741 1.083l25.404-14.666 10.012 17.34c.292.507.11 1.16-.39 1.449l-23.565 13.605a1.064 1.064 0 0 1-1.449-.387l-10.012-17.34zm-1.375-2.381a.914.914 0 0 1 .336-1.252.914.914 0 0 1 1.252.335.914.914 0 0 1-.335 1.252.914.914 0 0 1-1.253-.335zm3.176-1.834a.914.914 0 0 1 .335-1.252.914.914 0 0 1 1.253.336.914.914 0 0 1-.336 1.252.914.914 0 0 1-1.252-.336zm3.175-1.833a.914.914 0 0 1 .336-1.252.914.914 0 0 1 1.252.335.914.914 0 0 1-.336 1.253.914.914 0 0 1-1.252-.336z"/></g><g><path d="M233.89 137.022l23.55-13.596c1.215-.702 1.898-.52 2.599.694 0 0-21.665 12.618-24.086 14.02l-.113.066c-1.3.75-1.274 1.793-.732 2.732l11 19.052c-1.3.75-1.982.567-2.732-.732l-10.55-18.272a2.901 2.901 0 0 1 1.064-3.964z"/><path d="M237.07 142.335a3.191 3.191 0 0 1 1.17-4.36l23.046-13.306a3.193 3.193 0 0 1 4.362 1.166l11.018 19.083a3.191 3.191 0 0 1-1.171 4.36l-23.047 13.306a3.193 3.193 0 0 1-4.361-1.166l-11.018-19.083zm2.741 1.083l25.404-14.666 10.012 17.34c.292.507.11 1.16-.39 1.449l-23.565 13.605a1.064 1.064 0 0 1-1.449-.387l-10.012-17.34zm-1.375-2.381a.914.914 0 0 1 .336-1.252.914.914 0 0 1 1.252.335.914.914 0 0 1-.335 1.252.914.914 0 0 1-1.253-.335zm3.176-1.834a.914.914 0 0 1 .335-1.252.914.914 0 0 1 1.253.336.914.914 0 0 1-.336 1.252.914.914 0 0 1-1.252-.336zm3.175-1.833a.914.914 0 0 1 .336-1.252.914.914 0 0 1 1.252.335.914.914 0 0 1-.336 1.253.914.914 0 0 1-1.252-.336z"/></g><g><path d="M305.294 124.43l17.479 20.83c.902 1.075.84 1.78-.232 2.68 0 0-16.19-19.144-17.99-21.285l-.084-.1c-.965-1.15-1.988-.944-2.818-.247l-16.853 14.141c-.964-1.149-.903-1.853.246-2.817l16.163-13.563a2.901 2.901 0 0 1 4.089.36z"/><path d="M300.613 128.482a3.191 3.191 0 0 1 4.498.396l17.106 20.386a3.193 3.193 0 0 1-.392 4.498l-16.88 14.164a3.191 3.191 0 0 1-4.497-.396l-17.106-20.386a3.193 3.193 0 0 1 .392-4.498l16.88-14.164zm-.59 2.889l18.855 22.47-15.339 12.871a1.067 1.067 0 0 1-1.494-.131l-17.49-20.845a1.064 1.064 0 0 1 .13-1.494l15.338-12.871zm2.107-1.768a.914.914 0 0 1 1.29.113.914.914 0 0 1-.112 1.292.914.914 0 0 1-1.291-.113.914.914 0 0 1 .113-1.292zm2.356 2.81a.914.914 0 0 1 1.292.112.914.914 0 0 1-.113 1.292.914.914 0 0 1-1.292-.113.914.914 0 0 1 .113-1.292zm2.357 2.808a.914.914 0 0 1 1.292.113.914.914 0 0 1-.113 1.291.914.914 0 0 1-1.292-.113.914.914 0 0 1 .113-1.291z"/></g><g><path d="M318.441 101.43l17.479-20.831c.902-1.075 1.607-1.137 2.68-.237 0 0-16.043 19.268-17.838 21.413l-.084.1c-.964 1.15-.584 2.121.246 2.818l16.853 14.141c-.964 1.15-1.668 1.211-2.817.247l-16.163-13.563a2.901 2.901 0 0 1-.356-4.088z"/><path d="M323.245 105.335a3.191 3.191 0 0 1-.39-4.498l17.105-20.385a3.193 3.193 0 0 1 4.497-.396l16.88 14.164a3.191 3.191 0 0 1 .391 4.497l-17.105 20.386a3.193 3.193 0 0 1-4.498.396l-16.88-14.164zm2.948.08l18.855-22.47 15.339 12.87c.448.377.5 1.053.13 1.495l-17.491 20.844a1.064 1.064 0 0 1-1.495.132l-15.338-12.87zm-2.107-1.768a.914.914 0 0 1-.113-1.291.914.914 0 0 1 1.291-.113c.388.325.441.9.113 1.291a.914.914 0 0 1-1.291.113zm2.357-2.808a.914.914 0 0 1-.113-1.292.914.914 0 0 1 1.291-.113c.388.326.441.901.113 1.292a.914.914 0 0 1-1.291.113zm2.357-2.81a.914.914 0 0 1-.113-1.29.914.914 0 0 1 1.291-.114c.388.326.44.901.113 1.292a.914.914 0 0 1-1.291.113z"/></g><g><path d="M369.337 112.438l24.842 11.06c1.282.57 1.536 1.231.966 2.51 0 0-22.943-10.11-25.5-11.244l-.12-.053c-1.37-.61-2.2.023-2.64 1.013l-8.949 20.098c-1.37-.61-1.623-1.27-1.013-2.64l8.582-19.275a2.901 2.901 0 0 1 3.832-1.47z"/><path d="M366.907 118.132a3.191 3.191 0 0 1 4.216-1.615l24.31 10.824a3.193 3.193 0 0 1 1.621 4.214l-8.962 20.13a3.191 3.191 0 0 1-4.216 1.616l-24.311-10.824a3.193 3.193 0 0 1-1.62-4.214l8.962-20.13zm.736 2.856l26.797 11.93-8.144 18.293a1.067 1.067 0 0 1-1.4.537l-24.86-11.068a1.064 1.064 0 0 1-.538-1.4l8.145-18.292zm1.118-2.513a.914.914 0 0 1 1.21-.464.914.914 0 0 1 .465 1.21.914.914 0 0 1-1.21.465.914.914 0 0 1-.465-1.21zm3.35 1.492a.914.914 0 0 1 1.21-.465.914.914 0 0 1 .465 1.21.914.914 0 0 1-1.21.465.914.914 0 0 1-.465-1.21zm3.35 1.491a.914.914 0 0 1 1.21-.464.914.914 0 0 1 .464 1.21.914.914 0 0 1-1.21.464.914.914 0 0 1-.464-1.21z"/></g><g><path d="M420.337 88.438l24.842 11.06c1.282.57 1.536 1.231.966 2.51 0 0-22.943-10.11-25.5-11.244l-.12-.053c-1.37-.61-2.2.023-2.64 1.013l-8.949 20.098c-1.37-.61-1.623-1.27-1.013-2.64l8.582-19.275a2.901 2.901 0 0 1 3.832-1.47z"/><path d="M417.907 94.132a3.191 3.191 0 0 1 4.216-1.615l24.31 10.824a3.193 3.193 0 0 1 1.621 4.214l-8.962 20.13a3.191 3.191 0 0 1-4.216 1.616l-24.311-10.824a3.193 3.193 0 0 1-1.62-4.214l8.962-20.13zm.736 2.856l26.797 11.93-8.144 18.293a1.067 1.067 0 0 1-1.4.537l-24.86-11.068a1.064 1.064 0 0 1-.538-1.4l8.145-18.292zm1.118-2.513a.914.914 0 0 1 1.21-.464.914.914 0 0 1 .465 1.21.914.914 0 0 1-1.21.465.914.914 0 0 1-.465-1.21zm3.35 1.492a.914.914 0 0 1 1.21-.465.914.914 0 0 1 .465 1.21.914.914 0 0 1-1.21.465.914.914 0 0 1-.465-1.21zm3.35 1.491a.914.914 0 0 1 1.21-.464.914.914 0 0 1 .464 1.21.914.914 0 0 1-1.21.464.914.914 0 0 1-.464-1.21z"/></g><g><path d="M424.022 140.205l11.92 24.44c.616 1.262.386 1.93-.873 2.544 0 0-11.077-22.492-12.306-25.004l-.058-.118c-.657-1.348-1.7-1.396-2.674-.921l-19.773 9.644c-.658-1.348-.428-2.017.92-2.674l18.964-9.25a2.901 2.901 0 0 1 3.88 1.339z"/><path d="M418.5 143.005a3.191 3.191 0 0 1 4.268 1.472l11.666 23.919a3.193 3.193 0 0 1-1.467 4.27l-19.805 9.659a3.191 3.191 0 0 1-4.268-1.472l-11.666-23.919a3.193 3.193 0 0 1 1.467-4.27l19.805-9.659zm-1.271 2.66l12.858 26.365-17.996 8.777a1.067 1.067 0 0 1-1.418-.489l-11.929-24.457a1.064 1.064 0 0 1 .488-1.418l17.997-8.778zm2.471-1.205a.914.914 0 0 1 1.226.422.914.914 0 0 1-.422 1.225.914.914 0 0 1-1.226-.422.914.914 0 0 1 .422-1.225zm1.608 3.295a.914.914 0 0 1 1.225.422.914.914 0 0 1-.422 1.226.914.914 0 0 1-1.225-.422.914.914 0 0 1 .422-1.226zm1.607 3.296a.914.914 0 0 1 1.226.422.914.914 0 0 1-.422 1.226.914.914 0 0 1-1.226-.423.914.914 0 0 1 .422-1.225z"/></g><g><path d="M457.557 122.623l22-15.983c1.135-.825 1.834-.715 2.657.418 0 0-20.227 14.814-22.488 16.461l-.106.078c-1.214.881-1.08 1.917-.443 2.793l12.932 17.799c-1.214.881-1.912.77-2.794-.443l-12.402-17.07a2.901 2.901 0 0 1 .644-4.053z"/><path d="M461.274 127.575a3.191 3.191 0 0 1 .709-4.459l21.529-15.642a3.193 3.193 0 0 1 4.46.704l12.952 17.827a3.191 3.191 0 0 1-.71 4.459l-21.528 15.642a3.193 3.193 0 0 1-4.46-.704l-12.952-17.827zm2.84.79l23.732-17.241 11.77 16.199c.343.474.23 1.142-.236 1.481l-22.014 15.994a1.064 1.064 0 0 1-1.482-.233l-11.77-16.2zm-1.616-2.224a.914.914 0 0 1 .203-1.28.914.914 0 0 1 1.28.202c.298.41.21.98-.202 1.28a.914.914 0 0 1-1.28-.202zm2.967-2.156a.914.914 0 0 1 .202-1.28.914.914 0 0 1 1.28.203c.298.41.21.98-.202 1.28a.914.914 0 0 1-1.28-.203zm2.966-2.155a.914.914 0 0 1 .203-1.28.914.914 0 0 1 1.28.203c.298.41.21.98-.203 1.28a.914.914 0 0 1-1.28-.203z"/></g><g><path d="M517.557 131.623l22-15.983c1.135-.825 1.834-.715 2.657.418 0 0-20.227 14.814-22.488 16.461l-.106.078c-1.214.881-1.08 1.917-.443 2.793l12.932 17.799c-1.214.881-1.912.77-2.794-.443l-12.402-17.07a2.901 2.901 0 0 1 .644-4.053z"/><path d="M521.274 136.575a3.191 3.191 0 0 1 .709-4.459l21.529-15.642a3.193 3.193 0 0 1 4.46.704l12.952 17.827a3.191 3.191 0 0 1-.71 4.459l-21.528 15.642a3.193 3.193 0 0 1-4.46-.704l-12.952-17.827zm2.84.79l23.732-17.241 11.77 16.199c.343.474.23 1.142-.236 1.481l-22.014 15.994a1.064 1.064 0 0 1-1.482-.233l-11.77-16.2zm-1.616-2.224a.914.914 0 0 1 .203-1.28.914.914 0 0 1 1.28.202c.298.41.21.98-.202 1.28a.914.914 0 0 1-1.28-.202zm2.967-2.156a.914.914 0 0 1 .202-1.28.914.914 0 0 1 1.28.203c.298.41.21.98-.202 1.28a.914.914 0 0 1-1.28-.203zm2.966-2.155a.914.914 0 0 1 .203-1.28.914.914 0 0 1 1.28.203c.298.41.21.98-.203 1.28a.914.914 0 0 1-1.28-.203z"/></g></g></svg>