<svg xmlns="http://www.w3.org/2000/svg" viewBox="0 0 605 180"><title>credit-card</title><g fill-rule="evenodd"><path d="M47.63 2.893L22.298 17.518a3.385 3.385 0 0 0-1.235 4.61l10.125 17.538a3.385 3.385 0 0 0 4.61 1.235L61.13 26.276a3.385 3.385 0 0 0 1.235-4.61L52.24 4.129a3.385 3.385 0 0 0-4.61-1.236zM23.423 19.467L48.755 4.842a1.14 1.14 0 0 1 1.537.412l1.687 2.922-27.28 15.75-1.687-2.922a1.14 1.14 0 0 1 .411-1.537zm36.582 4.86L34.673 38.952a1.14 1.14 0 0 1-1.536-.411l-5.063-8.769 27.28-15.75 5.063 8.769a1.14 1.14 0 0 1-.412 1.536zm-27.732 8.217l1.948-1.125 2.25 3.897-1.948 1.125-2.25-3.897zm3.897-2.25l1.948-1.125 2.25 3.897-1.948 1.125-2.25-3.897zm3.897-2.25l1.949-1.125 2.25 3.897-1.949 1.125-2.25-3.897zM94.905 44.37l-28.806-5.078a3.385 3.385 0 0 0-3.91 2.737l-3.516 19.943a3.385 3.385 0 0 0 2.738 3.91l28.805 5.079a3.385 3.385 0 0 0 3.91-2.738l3.517-19.942a3.385 3.385 0 0 0-2.738-3.91zm-29.196-2.862l28.805 5.079c.6.106 1.019.702.913 1.303l-.586 3.324-31.022-5.47.586-3.324a1.14 1.14 0 0 1 1.304-.912zm24.898 27.237l-28.806-5.08a1.14 1.14 0 0 1-.912-1.303l1.758-9.97 31.022 5.47-1.759 9.97a1.14 1.14 0 0 1-1.303.913zM64.081 57.214l2.216.39-.781 4.432-2.216-.39.781-4.432zm4.432.781l2.216.39-.781 4.432-2.216-.39.781-4.432zm4.432.781l2.216.391-.782 4.432-2.216-.39.782-4.433zM137.63 11.893l-25.332 14.625a3.385 3.385 0 0 0-1.235 4.61l10.125 17.538a3.385 3.385 0 0 0 4.61 1.235l25.332-14.625a3.385 3.385 0 0 0 1.235-4.61L142.24 13.129a3.385 3.385 0 0 0-4.61-1.236zm-24.207 16.574l25.332-14.625a1.14 1.14 0 0 1 1.537.412l1.687 2.922-27.28 15.75-1.687-2.922a1.14 1.14 0 0 1 .411-1.537zm36.582 4.86l-25.332 14.625a1.14 1.14 0 0 1-1.536-.411l-5.063-8.769 27.28-15.75 5.063 8.769a1.14 1.14 0 0 1-.412 1.536zm-27.732 8.217l1.948-1.125 2.25 3.897-1.948 1.125-2.25-3.897zm3.897-2.25l1.948-1.125 2.25 3.897-1.948 1.125-2.25-3.897zm3.897-2.25l1.949-1.125 2.25 3.897-1.949 1.125-2.25-3.897zM216.58 27.913l-27.486-10.004a3.385 3.385 0 0 0-4.326 2.017l-6.926 19.029a3.385 3.385 0 0 0 2.017 4.326l27.486 10.004a3.385 3.385 0 0 0 4.326-2.018l6.926-19.028a3.385 3.385 0 0 0-2.017-4.326zm-28.256-7.89l27.486 10.004c.573.209.881.87.673 1.442l-1.155 3.172-29.6-10.774 1.154-3.172a1.14 1.14 0 0 1 1.442-.672zm19.791 31.147l-27.486-10.004a1.14 1.14 0 0 1-.672-1.442l3.463-9.514 29.6 10.774-3.463 9.514a1.14 1.14 0 0 1-1.442.672zm-24.12-15.962l2.114.77-1.539 4.228-2.114-.77 1.539-4.228zm4.228 1.54l2.115.769-1.54 4.228-2.114-.77 1.54-4.228zm4.229 1.538l2.114.77-1.539 4.228-2.114-.77 1.539-4.228zM268.63 8.893l-25.332 14.625a3.385 3.385 0 0 0-1.235 4.61l10.125 17.538a3.385 3.385 0 0 0 4.61 1.235l25.332-14.625a3.385 3.385 0 0 0 1.235-4.61L273.24 10.129a3.385 3.385 0 0 0-4.61-1.236zm-24.207 16.574l25.332-14.625a1.14 1.14 0 0 1 1.537.412l1.687 2.922-27.28 15.75-1.687-2.922a1.14 1.14 0 0 1 .411-1.537zm36.582 4.86l-25.332 14.625a1.14 1.14 0 0 1-1.536-.411l-5.063-8.769 27.28-15.75 5.063 8.769a1.14 1.14 0 0 1-.412 1.536zm-27.732 8.217l1.948-1.125 2.25 3.897-1.948 1.125-2.25-3.897zm3.897-2.25l1.948-1.125 2.25 3.897-1.948 1.125-2.25-3.897zm3.897-2.25l1.949-1.125 2.25 3.897-1.949 1.125-2.25-3.897zM374.6 32.878l-25.072-15.065a3.385 3.385 0 0 0-4.631 1.155l-10.43 17.358a3.385 3.385 0 0 0 1.155 4.63l25.072 15.066a3.385 3.385 0 0 0 4.631-1.155l10.43-17.358a3.385 3.385 0 0 0-1.155-4.63zm-26.23-13.136l25.071 15.065a1.14 1.14 0 0 1 .385 1.543l-1.738 2.893-27-16.223 1.737-2.893a1.14 1.14 0 0 1 1.544-.385zm13.483 34.351L336.78 39.028a1.14 1.14 0 0 1-.385-1.544l5.215-8.678 27 16.223-5.214 8.68a1.14 1.14 0 0 1-1.544.384zm-20.631-20.271l1.928 1.158-2.317 3.858-1.93-1.16 2.319-3.856zm3.857 2.317l1.928 1.16-2.317 3.856-1.929-1.158 2.318-3.858zm3.857 2.318l1.929 1.159-2.318 3.857-1.929-1.159 2.318-3.857zM429.464 15.35l-20.319 21.041a3.385 3.385 0 0 0 .083 4.772l14.567 14.067a3.385 3.385 0 0 0 4.772-.083l20.32-21.04a3.385 3.385 0 0 0-.084-4.773l-14.567-14.067a3.385 3.385 0 0 0-4.772.083zm-18.7 22.604l20.318-21.04a1.14 1.14 0 0 1 1.591-.028l2.428 2.344-21.882 22.66-2.428-2.345a1.14 1.14 0 0 1-.027-1.591zm36.504-5.41l-20.32 21.04a1.14 1.14 0 0 1-1.59.028l-7.283-7.034 21.882-22.659 7.283 7.033a1.14 1.14 0 0 1 .028 1.591zm-24.393 15.542l1.563-1.619 3.237 3.126-1.563 1.619-3.237-3.126zM426 44.849l1.563-1.619 3.237 3.126-1.563 1.619L426 44.849zm3.126-3.237l1.563-1.619 3.237 3.126-1.563 1.619-3.237-3.126zM512.778 6.771l-23.664 17.193a3.385 3.385 0 0 0-.747 4.714l11.903 16.383a3.385 3.385 0 0 0 4.714.747l23.664-17.193a3.385 3.385 0 0 0 .747-4.714L517.492 7.518a3.385 3.385 0 0 0-4.714-.747zm-22.341 19.013L514.1 8.592a1.14 1.14 0 0 1 1.572.249l1.984 2.73-25.484 18.515-1.984-2.73a1.14 1.14 0 0 1 .249-1.572zm36.889 1.01l-23.664 17.193a1.14 1.14 0 0 1-1.572-.249l-5.95-8.19 25.483-18.516 5.951 8.191a1.14 1.14 0 0 1-.248 1.572zm-26.722 11.071l1.82-1.322 2.646 3.64-1.82 1.323-2.646-3.64zm3.641-2.645l1.82-1.322 2.645 3.64-1.82 1.323-2.645-3.64zm3.64-2.645l1.82-1.322 2.646 3.64-1.82 1.323-2.645-3.641zM573.474 47.954l-24.25-16.357a3.385 3.385 0 0 0-4.685.911l-11.324 16.788a3.385 3.385 0 0 0 .911 4.685l24.25 16.357a3.385 3.385 0 0 0 4.685-.911l11.323-16.788a3.385 3.385 0 0 0-.91-4.685zm-25.508-14.491l24.25 16.356a1.14 1.14 0 0 1 .303 1.562l-1.887 2.798-26.115-17.615 1.887-2.798a1.14 1.14 0 0 1 1.562-.303zm11.668 35.01l-24.25-16.357a1.14 1.14 0 0 1-.303-1.562l5.661-8.394 26.115 17.615-5.662 8.394a1.14 1.14 0 0 1-1.561.303zM540.09 47.148l1.866 1.258-2.517 3.73-1.865-1.257 2.516-3.731zm3.731 2.516l1.865 1.259-2.516 3.73-1.865-1.258 2.516-3.73zm3.73 2.517l1.866 1.258-2.516 3.73-1.866-1.258 2.517-3.73zM40.58 68.913L13.094 58.909a3.385 3.385 0 0 0-4.326 2.017L1.842 79.955A3.385 3.385 0 0 0 3.86 84.28l27.486 10.004a3.385 3.385 0 0 0 4.326-2.018l6.926-19.028a3.385 3.385 0 0 0-2.017-4.326zm-28.256-7.89L39.81 71.027c.573.209.881.87.673 1.442l-1.155 3.172-29.6-10.774 1.154-3.172a1.14 1.14 0 0 1 1.442-.672zM32.115 92.17L4.629 82.166a1.14 1.14 0 0 1-.672-1.442L7.42 71.21l29.6 10.774-3.463 9.514a1.14 1.14 0 0 1-1.442.672zM7.995 76.208l2.114.77-1.539 4.228-2.114-.77 1.539-4.228zm4.228 1.54l2.115.769-1.54 4.228-2.114-.77 1.54-4.228zm4.229 1.538l2.114.77-1.539 4.228-2.114-.77 1.539-4.228zM127.63 66.893l-25.332 14.625a3.385 3.385 0 0 0-1.235 4.61l10.125 17.538a3.385 3.385 0 0 0 4.61 1.235l25.332-14.625a3.385 3.385 0 0 0 1.235-4.61L132.24 68.129a3.385 3.385 0 0 0-4.61-1.236zm-24.207 16.574l25.332-14.625a1.14 1.14 0 0 1 1.537.412l1.687 2.922-27.28 15.75-1.687-2.922a1.14 1.14 0 0 1 .411-1.537zm36.582 4.86l-25.332 14.625a1.14 1.14 0 0 1-1.536-.411l-5.063-8.769 27.28-15.75 5.063 8.769a1.14 1.14 0 0 1-.412 1.536zm-27.732 8.217l1.948-1.125 2.25 3.897-1.948 1.125-2.25-3.897zm3.897-2.25l1.948-1.125 2.25 3.897-1.948 1.125-2.25-3.897zm3.897-2.25l1.949-1.125 2.25 3.897-1.949 1.125-2.25-3.897zM185.625 64h-29.25A3.385 3.385 0 0 0 153 67.375v20.25A3.385 3.385 0 0 0 156.375 91h29.25A3.385 3.385 0 0 0 189 87.625v-20.25A3.385 3.385 0 0 0 185.625 64zm-29.25 2.25h29.25c.61 0 1.125.515 1.125 1.125v3.375h-31.5v-3.375c0-.61.515-1.125 1.125-1.125zm29.25 22.5h-29.25a1.14 1.14 0 0 1-1.125-1.125V77.5h31.5v10.125a1.14 1.14 0 0 1-1.125 1.125zM157.5 82h2.25v4.5h-2.25V82zm4.5 0h2.25v4.5H162V82zm4.5 0h2.25v4.5h-2.25V82zM240.63 56.893l-25.332 14.625a3.385 3.385 0 0 0-1.235 4.61l10.125 17.538a3.385 3.385 0 0 0 4.61 1.235l25.332-14.625a3.385 3.385 0 0 0 1.235-4.61L245.24 58.129a3.385 3.385 0 0 0-4.61-1.236zm-24.207 16.574l25.332-14.625a1.14 1.14 0 0 1 1.537.412l1.687 2.922-27.28 15.75-1.687-2.922a1.14 1.14 0 0 1 .411-1.537zm36.582 4.86l-25.332 14.625a1.14 1.14 0 0 1-1.536-.411l-5.063-8.769 27.28-15.75 5.063 8.769a1.14 1.14 0 0 1-.412 1.536zm-27.732 8.217l1.948-1.125 2.25 3.897-1.948 1.125-2.25-3.897zm3.897-2.25l1.948-1.125 2.25 3.897-1.948 1.125-2.25-3.897zm3.897-2.25l1.949-1.125 2.25 3.897-1.949 1.125-2.25-3.897zM293.78 85.903l-28.806 5.079a3.385 3.385 0 0 0-2.738 3.91l3.516 19.942a3.385 3.385 0 0 0 3.91 2.738l28.806-5.08a3.385 3.385 0 0 0 2.737-3.91L297.69 88.64a3.385 3.385 0 0 0-3.91-2.737zm-28.416 7.295l28.806-5.08a1.14 1.14 0 0 1 1.303.913l.586 3.324-31.021 5.47-.586-3.324a1.14 1.14 0 0 1 .912-1.303zm32.713 17.079l-28.806 5.079a1.14 1.14 0 0 1-1.303-.913l-1.758-9.971 31.021-5.47 1.759 9.971a1.14 1.14 0 0 1-.913 1.304zm-28.87-1.764l2.216-.39.781 4.43-2.215.392-.782-4.432zm4.432-.781l2.216-.391.781 4.431-2.216.391-.781-4.431zm4.431-.782l2.216-.39.782 4.431-2.216.39-.782-4.43zM320.78 45.903l-28.806 5.079a3.385 3.385 0 0 0-2.738 3.91l3.516 19.942a3.385 3.385 0 0 0 3.91 2.738l28.806-5.08a3.385 3.385 0 0 0 2.737-3.91L324.69 48.64a3.385 3.385 0 0 0-3.91-2.737zm-28.416 7.295l28.806-5.08a1.14 1.14 0 0 1 1.303.913l.586 3.324-31.021 5.47-.586-3.324a1.14 1.14 0 0 1 .912-1.303zm32.713 17.079l-28.806 5.079a1.14 1.14 0 0 1-1.303-.913l-1.758-9.971 31.021-5.47 1.759 9.971a1.14 1.14 0 0 1-.913 1.304zm-28.87-1.764l2.216-.39.781 4.43-2.215.392-.782-4.432zm4.432-.781l2.216-.391.781 4.431-2.216.391-.781-4.431zm4.431-.782l2.216-.39.782 4.431-2.216.39-.782-4.43zM389.778 54.771l-23.664 17.193a3.385 3.385 0 0 0-.747 4.714l11.903 16.383a3.385 3.385 0 0 0 4.714.747l23.664-17.193a3.385 3.385 0 0 0 .747-4.714l-11.903-16.383a3.385 3.385 0 0 0-4.714-.747zm-22.341 19.013L391.1 56.592a1.14 1.14 0 0 1 1.572.249l1.984 2.73-25.484 18.515-1.984-2.73a1.14 1.14 0 0 1 .249-1.572zm36.889 1.01l-23.664 17.193a1.14 1.14 0 0 1-1.572-.249l-5.95-8.19 25.483-18.516 5.951 8.191a1.14 1.14 0 0 1-.248 1.572zm-26.722 11.071l1.82-1.322 2.646 3.64-1.82 1.323-2.646-3.64zm3.641-2.645l1.82-1.322 2.645 3.64-1.82 1.323-2.645-3.64zm3.64-2.645l1.82-1.322 2.646 3.64-1.82 1.323-2.645-3.641zM483.675 64.354l-26.72-11.897a3.385 3.385 0 0 0-4.457 1.71l-8.236 18.5a3.385 3.385 0 0 0 1.71 4.455l26.722 11.897a3.385 3.385 0 0 0 4.455-1.71l8.237-18.5a3.385 3.385 0 0 0-1.71-4.455zm-27.636-9.842l26.721 11.897c.557.248.818.928.57 1.485l-1.372 3.084-28.777-12.813 1.373-3.083a1.14 1.14 0 0 1 1.485-.57zm17.57 32.452l-26.722-11.897a1.14 1.14 0 0 1-.57-1.486l4.119-9.25 28.776 12.813-4.118 9.25a1.14 1.14 0 0 1-1.485.57zM450.66 69.358l2.055.915-1.83 4.111-2.056-.915 1.83-4.111zm4.11 1.83l2.056.915-1.83 4.111-2.056-.915 1.83-4.11zm4.112 1.83l2.055.916-1.83 4.11-2.056-.915 1.83-4.11zM532.207 76.321l-29.178-2.04a3.385 3.385 0 0 0-3.603 3.131l-1.412 20.2a3.385 3.385 0 0 0 3.131 3.603l29.179 2.04a3.385 3.385 0 0 0 3.602-3.131l1.413-20.2a3.385 3.385 0 0 0-3.132-3.603zm-29.335.204l29.178 2.04a1.14 1.14 0 0 1 1.044 1.201l-.235 3.367-31.423-2.197.235-3.367a1.14 1.14 0 0 1 1.2-1.044zm27.609 24.486l-29.179-2.04a1.14 1.14 0 0 1-1.044-1.201l.707-10.1 31.423 2.197-.706 10.1a1.14 1.14 0 0 1-1.201 1.044zm-27.586-8.696l2.245.157-.314 4.49-2.245-.158.314-4.489zm4.49.314l2.244.157-.314 4.49-2.245-.158.314-4.489zm4.488.314l2.245.157-.314 4.49-2.244-.158.313-4.489zM582.778 75.771l-23.664 17.193a3.385 3.385 0 0 0-.747 4.714l11.903 16.383a3.385 3.385 0 0 0 4.714.747l23.664-17.193a3.385 3.385 0 0 0 .747-4.714l-11.903-16.383a3.385 3.385 0 0 0-4.714-.747zm-22.341 19.013L584.1 77.592a1.14 1.14 0 0 1 1.572.249l1.984 2.73-25.484 18.515-1.984-2.73a1.14 1.14 0 0 1 .249-1.572zm36.889 1.01l-23.664 17.193a1.14 1.14 0 0 1-1.572-.249l-5.95-8.19 25.483-18.516 5.951 8.191a1.14 1.14 0 0 1-.248 1.572zm-26.722 11.071l1.82-1.322 2.646 3.64-1.82 1.323-2.646-3.64zm3.641-2.645l1.82-1.322 2.645 3.64-1.82 1.323-2.645-3.64zm3.64-2.645l1.82-1.322 2.646 3.64-1.82 1.323-2.645-3.641zM78.58 97.913L51.094 87.909a3.385 3.385 0 0 0-4.326 2.017l-6.926 19.029a3.385 3.385 0 0 0 2.017 4.326l27.486 10.004a3.385 3.385 0 0 0 4.326-2.018l6.926-19.028a3.385 3.385 0 0 0-2.017-4.326zm-28.256-7.89l27.486 10.004c.573.209.881.87.673 1.442l-1.155 3.172-29.6-10.774 1.154-3.172a1.14 1.14 0 0 1 1.442-.672zm19.791 31.147l-27.486-10.004a1.14 1.14 0 0 1-.672-1.442l3.463-9.514 29.6 10.774-3.463 9.514a1.14 1.14 0 0 1-1.442.672zm-24.12-15.962l2.114.77-1.539 4.228-2.114-.77 1.539-4.228zm4.228 1.54l2.115.769-1.54 4.228-2.114-.77 1.54-4.228zm4.229 1.538l2.114.77-1.539 4.228-2.114-.77 1.539-4.228zM42.424 124.173l-27.486 10.004a3.385 3.385 0 0 0-2.018 4.326l6.926 19.028a3.385 3.385 0 0 0 4.326 2.017l27.486-10.004a3.385 3.385 0 0 0 2.017-4.325l-6.926-19.03a3.385 3.385 0 0 0-4.325-2.016zM15.707 136.29l27.486-10.004a1.14 1.14 0 0 1 1.442.672l1.154 3.172-29.6 10.773-1.154-3.171a1.14 1.14 0 0 1 .672-1.442zM50.89 147.43l-27.486 10.004a1.14 1.14 0 0 1-1.442-.672l-3.463-9.515 29.6-10.773 3.463 9.514a1.14 1.14 0 0 1-.672 1.442zm-28.738 3.276l2.114-.77 1.54 4.23-2.115.769-1.539-4.229zm4.229-1.539l2.114-.77 1.54 4.23-2.115.769-1.54-4.229zm4.228-1.539l2.115-.77 1.539 4.23-2.115.769-1.539-4.229zM106.625 131h-29.25A3.385 3.385 0 0 0 74 134.375v20.25A3.385 3.385 0 0 0 77.375 158h29.25a3.385 3.385 0 0 0 3.375-3.375v-20.25a3.385 3.385 0 0 0-3.375-3.375zm-29.25 2.25h29.25c.61 0 1.125.515 1.125 1.125v3.375h-31.5v-3.375c0-.61.515-1.125 1.125-1.125zm29.25 22.5h-29.25a1.14 1.14 0 0 1-1.125-1.125V144.5h31.5v10.125a1.14 1.14 0 0 1-1.125 1.125zM78.5 149h2.25v4.5H78.5V149zm4.5 0h2.25v4.5H83V149zm4.5 0h2.25v4.5H87.5V149zM161.58 119.913l-27.486-10.004a3.385 3.385 0 0 0-4.326 2.017l-6.926 19.029a3.385 3.385 0 0 0 2.017 4.326l27.486 10.004a3.385 3.385 0 0 0 4.326-2.018l6.926-19.028a3.385 3.385 0 0 0-2.017-4.326zm-28.256-7.89l27.486 10.004c.573.209.881.87.673 1.442l-1.155 3.172-29.6-10.774 1.154-3.172a1.14 1.14 0 0 1 1.442-.672zm19.791 31.147l-27.486-10.004a1.14 1.14 0 0 1-.672-1.442l3.463-9.514 29.6 10.774-3.463 9.514a1.14 1.14 0 0 1-1.442.672zm-24.12-15.962l2.114.77-1.539 4.228-2.114-.77 1.539-4.228zm4.228 1.54l2.115.769-1.54 4.228-2.114-.77 1.54-4.228zm4.229 1.538l2.114.77-1.539 4.228-2.114-.77 1.539-4.228zM215.58 111.913l-27.486-10.004a3.385 3.385 0 0 0-4.326 2.017l-6.926 19.029a3.385 3.385 0 0 0 2.017 4.326l27.486 10.004a3.385 3.385 0 0 0 4.326-2.018l6.926-19.028a3.385 3.385 0 0 0-2.017-4.326zm-28.256-7.89l27.486 10.004c.573.209.881.87.673 1.442l-1.155 3.172-29.6-10.774 1.154-3.172a1.14 1.14 0 0 1 1.442-.672zm19.791 31.147l-27.486-10.004a1.14 1.14 0 0 1-.672-1.442l3.463-9.514 29.6 10.774-3.463 9.514a1.14 1.14 0 0 1-1.442.672zm-24.12-15.962l2.114.77-1.539 4.228-2.114-.77 1.539-4.228zm4.228 1.54l2.115.769-1.54 4.228-2.114-.77 1.54-4.228zm4.229 1.538l2.114.77-1.539 4.228-2.114-.77 1.539-4.228zM200.63 141.893l-25.332 14.625a3.385 3.385 0 0 0-1.235 4.61l10.125 17.538a3.385 3.385 0 0 0 4.61 1.235l25.332-14.625a3.385 3.385 0 0 0 1.235-4.61l-10.125-17.537a3.385 3.385 0 0 0-4.61-1.236zm-24.207 16.574l25.332-14.625a1.14 1.14 0 0 1 1.537.412l1.687 2.922-27.28 15.75-1.687-2.922a1.14 1.14 0 0 1 .411-1.537zm36.582 4.86l-25.332 14.625a1.14 1.14 0 0 1-1.536-.411l-5.063-8.769 27.28-15.75 5.063 8.769a1.14 1.14 0 0 1-.412 1.536zm-27.732 8.217l1.948-1.125 2.25 3.897-1.948 1.125-2.25-3.897zm3.897-2.25l1.948-1.125 2.25 3.897-1.948 1.125-2.25-3.897zm3.897-2.25l1.949-1.125 2.25 3.897-1.949 1.125-2.25-3.897zM260.63 123.893l-25.332 14.625a3.385 3.385 0 0 0-1.235 4.61l10.125 17.538a3.385 3.385 0 0 0 4.61 1.235l25.332-14.625a3.385 3.385 0 0 0 1.235-4.61l-10.125-17.537a3.385 3.385 0 0 0-4.61-1.236zm-24.207 16.574l25.332-14.625a1.14 1.14 0 0 1 1.537.412l1.687 2.922-27.28 15.75-1.687-2.922a1.14 1.14 0 0 1 .411-1.537zm36.582 4.86l-25.332 14.625a1.14 1.14 0 0 1-1.536-.411l-5.063-8.769 27.28-15.75 5.063 8.769a1.14 1.14 0 0 1-.412 1.536zm-27.732 8.217l1.948-1.125 2.25 3.897-1.948 1.125-2.25-3.897zm3.897-2.25l1.948-1.125 2.25 3.897-1.948 1.125-2.25-3.897zm3.897-2.25l1.949-1.125 2.25 3.897-1.949 1.125-2.25-3.897zM322.866 148.482l-18.801-22.406a3.385 3.385 0 0 0-4.755-.416l-15.512 13.016a3.385 3.385 0 0 0-.416 4.755l18.801 22.407a3.385 3.385 0 0 0 4.755.416l15.512-13.017a3.385 3.385 0 0 0 .416-4.755zm-20.525-20.96l18.802 22.407a1.14 1.14 0 0 1-.139 1.585l-2.585 2.17-20.248-24.131 2.585-2.17a1.14 1.14 0 0 1 1.585.139zm1.566 36.87l-18.802-22.407a1.14 1.14 0 0 1 .139-1.585l7.756-6.508 20.248 24.13-7.756 6.508a1.14 1.14 0 0 1-1.585-.139zm-12.908-25.884l1.446 1.723-3.447 2.893-1.446-1.724 3.447-2.892zm2.893 3.447l1.446 1.723-3.447 2.893-1.447-1.724 3.448-2.892zm2.892 3.447l1.446 1.724-3.447 2.892-1.446-1.723 3.447-2.893zM339.078 79.947l-18.802 22.407a3.385 3.385 0 0 0 .416 4.755l15.512 13.016a3.385 3.385 0 0 0 4.755-.416l18.802-22.406a3.385 3.385 0 0 0-.416-4.755L343.832 79.53a3.385 3.385 0 0 0-4.754.416zM322 103.8L340.8 81.394a1.14 1.14 0 0 1 1.585-.14l2.585 2.17-20.247 24.13-2.586-2.169A1.14 1.14 0 0 1 322 103.8zm36.037-7.944l-18.801 22.407a1.14 1.14 0 0 1-1.585.139l-7.757-6.508 20.248-24.13 7.756 6.507a1.14 1.14 0 0 1 .14 1.585zm-23.25 17.207l1.447-1.724 3.447 2.892-1.446 1.724-3.447-2.892zm2.893-3.448l1.447-1.723 3.447 2.892-1.446 1.724-3.448-2.893zm2.893-3.447l1.446-1.723 3.447 2.892-1.446 1.724-3.447-2.893zM395.675 126.354l-26.72-11.897a3.385 3.385 0 0 0-4.457 1.71l-8.236 18.5a3.385 3.385 0 0 0 1.71 4.455l26.722 11.897a3.385 3.385 0 0 0 4.455-1.71l8.237-18.5a3.385 3.385 0 0 0-1.71-4.455zm-27.636-9.842l26.721 11.897c.557.248.818.928.57 1.485l-1.372 3.084-28.777-12.813 1.373-3.083a1.14 1.14 0 0 1 1.485-.57zm17.57 32.452l-26.722-11.897a1.14 1.14 0 0 1-.57-1.486l4.119-9.25 28.776 12.813-4.118 9.25a1.14 1.14 0 0 1-1.485.57zm-22.948-17.606l2.055.915-1.83 4.111-2.056-.915 1.83-4.111zm4.11 1.83l2.056.915-1.83 4.111-2.056-.915 1.83-4.11zm4.112 1.83l2.055.916-1.83 4.11-2.056-.915 1.83-4.11zM446.675 102.354l-26.72-11.897a3.385 3.385 0 0 0-4.457 1.71l-8.236 18.5a3.385 3.385 0 0 0 1.71 4.455l26.722 11.897a3.385 3.385 0 0 0 4.455-1.71l8.237-18.5a3.385 3.385 0 0 0-1.71-4.455zm-27.636-9.842l26.721 11.897c.557.248.818.928.57 1.485l-1.372 3.084-28.777-12.813 1.373-3.083a1.14 1.14 0 0 1 1.485-.57zm17.57 32.452l-26.722-11.897a1.14 1.14 0 0 1-.57-1.486l4.119-9.25 28.776 12.813-4.118 9.25a1.14 1.14 0 0 1-1.485.57zm-22.948-17.606l2.055.915-1.83 4.111-2.056-.915 1.83-4.111zm4.11 1.83l2.056.915-1.83 4.111-2.056-.915 1.83-4.11zm4.112 1.83l2.055.916-1.83 4.11-2.056-.915 1.83-4.11zM435.254 167.795l-12.823-26.29a3.385 3.385 0 0 0-4.512-1.554l-18.201 8.877a3.385 3.385 0 0 0-1.554 4.513l12.822 26.29a3.385 3.385 0 0 0 4.513 1.554l18.2-8.877a3.385 3.385 0 0 0 1.555-4.513zm-14.845-25.304l12.823 26.29a1.14 1.14 0 0 1-.518 1.504l-3.034 1.48-13.809-28.312 3.034-1.48a1.14 1.14 0 0 1 1.504.518zm-7.4 36.153l-12.823-26.29a1.14 1.14 0 0 1 .518-1.504l9.1-4.438 13.81 28.312-9.101 4.438a1.14 1.14 0 0 1-1.504-.518zm-6.263-28.237l.987 2.022-4.045 1.973-.986-2.023 4.044-1.972zm1.973 4.044l.986 2.023-4.044 1.972-.987-2.022 4.045-1.973zm1.973 4.045l.986 2.022-4.045 1.973-.986-2.022 4.045-1.973zM482.778 106.771l-23.664 17.193a3.385 3.385 0 0 0-.747 4.714l11.903 16.383a3.385 3.385 0 0 0 4.714.747l23.664-17.193a3.385 3.385 0 0 0 .747-4.714l-11.903-16.383a3.385 3.385 0 0 0-4.714-.747zm-22.341 19.013l23.663-17.192a1.14 1.14 0 0 1 1.572.249l1.984 2.73-25.484 18.515-1.984-2.73a1.14 1.14 0 0 1 .249-1.572zm36.889 1.01l-23.664 17.193a1.14 1.14 0 0 1-1.572-.249l-5.95-8.19 25.483-18.516 5.951 8.191a1.14 1.14 0 0 1-.248 1.572zm-26.722 11.071l1.82-1.322 2.646 3.64-1.82 1.323-2.646-3.64zm3.641-2.645l1.82-1.322 2.645 3.64-1.82 1.323-2.645-3.64zm3.64-2.645l1.82-1.322 2.646 3.64-1.82 1.323-2.645-3.641zM542.778 115.771l-23.664 17.193a3.385 3.385 0 0 0-.747 4.714l11.903 16.383a3.385 3.385 0 0 0 4.714.747l23.664-17.193a3.385 3.385 0 0 0 .747-4.714l-11.903-16.383a3.385 3.385 0 0 0-4.714-.747zm-22.341 19.013l23.663-17.192a1.14 1.14 0 0 1 1.572.249l1.984 2.73-25.484 18.515-1.984-2.73a1.14 1.14 0 0 1 .249-1.572zm36.889 1.01l-23.664 17.193a1.14 1.14 0 0 1-1.572-.249l-5.95-8.19 25.483-18.516 5.951 8.191a1.14 1.14 0 0 1-.248 1.572zm-26.722 11.071l1.82-1.322 2.646 3.64-1.82 1.323-2.646-3.64zm3.641-2.645l1.82-1.322 2.645 3.64-1.82 1.323-2.645-3.64zm3.64-2.645l1.82-1.322 2.646 3.64-1.82 1.323-2.645-3.641z"/></g></svg>