<svg xmlns="http://www.w3.org/2000/svg" viewBox="0 0 605 180"><title>cross</title><g fill-rule="evenodd"><path d="M39.567 18.885L27.01 15.521s-2.415-.647-3.062 1.767c-.647 2.415 1.768 3.062 1.768 3.062l12.557 3.365-3.235 12.074s-.647 2.415 1.767 3.062c2.415.647 3.062-1.768 3.062-1.768l3.235-12.074 12.557 3.365s2.415.647 3.062-1.768c.647-2.415-1.767-3.062-1.767-3.062l-12.557-3.365L47.89 7.14s.647-2.415-1.768-3.062c-2.415-.647-3.062 1.768-3.062 1.768l-3.494 13.04zM78.449 51.439l-7.456-10.65s-1.434-2.047-3.482-.613c-2.048 1.434-.614 3.482-.614 3.482l7.456 10.649-10.24 7.17s-2.047 1.433-.613 3.481c1.434 2.048 3.482.614 3.482.614l10.24-7.17 7.456 10.65s1.434 2.047 3.481.613c2.048-1.434.614-3.481.614-3.481l-7.456-10.65 11.058-7.743s2.048-1.434.614-3.482c-1.434-2.047-3.481-.613-3.481-.613l-11.059 7.743zM129.567 27.885l-12.557-3.364s-2.415-.647-3.062 1.767c-.647 2.415 1.768 3.062 1.768 3.062l12.557 3.365-3.235 12.074s-.647 2.415 1.767 3.062c2.415.647 3.062-1.768 3.062-1.768l3.235-12.074 12.557 3.365s2.415.647 3.062-1.768c.647-2.415-1.767-3.062-1.767-3.062l-12.557-3.365 3.494-13.04s.647-2.415-1.768-3.062c-2.415-.647-3.062 1.768-3.062 1.768l-3.494 13.04zM199.147 32.016l-5.494-11.782s-1.057-2.266-3.323-1.21c-2.265 1.057-1.209 3.323-1.209 3.323l5.494 11.782-11.329 5.283s-2.265 1.056-1.209 3.322c1.057 2.266 3.322 1.21 3.322 1.21l11.33-5.284 5.493 11.782s1.057 2.266 3.323 1.21c2.265-1.057 1.209-3.323 1.209-3.323l-5.494-11.782 12.235-5.705s2.266-1.057 1.21-3.322c-1.057-2.266-3.323-1.21-3.323-1.21l-12.235 5.706zM260.567 24.885l-12.557-3.364s-2.415-.647-3.062 1.767c-.647 2.415 1.768 3.062 1.768 3.062l12.557 3.365-3.235 12.074s-.647 2.415 1.767 3.062c2.415.647 3.062-1.768 3.062-1.768l3.235-12.074 12.557 3.365s2.415.647 3.062-1.768c.647-2.415-1.767-3.062-1.767-3.062l-12.557-3.365 3.494-13.04s.647-2.415-1.768-3.062c-2.415-.647-3.062 1.768-3.062 1.768l-3.494 13.04zM356.704 33.58l-3.145-12.615s-.604-2.425-3.03-1.82c-2.426.604-1.821 3.03-1.821 3.03l3.145 12.614-12.129 3.024s-2.426.605-1.82 3.03c.604 2.426 3.03 1.821 3.03 1.821l12.128-3.024 3.145 12.614s.605 2.426 3.031 1.821c2.426-.605 1.82-3.03 1.82-3.03l-3.144-12.614 13.099-3.266s2.426-.605 1.82-3.03c-.604-2.427-3.03-1.822-3.03-1.822l-13.099 3.266zM426.121 32.945l-12.998.227s-2.5.044-2.456 2.543c.044 2.5 2.544 2.456 2.544 2.456l12.998-.227.218 12.499s.044 2.5 2.543 2.456c2.5-.044 2.456-2.544 2.456-2.544l-.218-12.498 12.998-.227s2.5-.043 2.456-2.543c-.044-2.5-2.543-2.456-2.543-2.456l-12.998.227-.236-13.498s-.044-2.5-2.543-2.456c-2.5.044-2.456 2.543-2.456 2.543l.235 13.498zM506.43 23.518l-12.84-2.033s-2.468-.391-2.86 2.078c-.39 2.47 2.079 2.86 2.079 2.86l12.84 2.034-1.956 12.346s-.39 2.47 2.078 2.86c2.47.391 2.86-2.078 2.86-2.078l1.956-12.346 12.84 2.034s2.47.39 2.86-2.078c.391-2.47-2.078-2.86-2.078-2.86L511.37 24.3l2.112-13.334s.391-2.47-2.078-2.86c-2.47-.392-2.86 2.078-2.86 2.078l-2.112 13.333zM555.566 47.717l-2.48-12.76s-.478-2.455-2.932-1.978c-2.454.477-1.977 2.931-1.977 2.931l2.48 12.761-12.27 2.385s-2.454.477-1.977 2.931c.477 2.455 2.931 1.978 2.931 1.978l12.27-2.386 2.481 12.762s.477 2.454 2.931 1.977c2.454-.477 1.977-2.931 1.977-2.931l-2.48-12.762 13.252-2.576s2.454-.477 1.977-2.93c-.477-2.455-2.931-1.978-2.931-1.978l-13.252 2.576zM23.147 73.016l-5.494-11.782s-1.057-2.266-3.323-1.21c-2.265 1.057-1.209 3.323-1.209 3.323l5.494 11.782-11.329 5.283s-2.265 1.056-1.209 3.322C7.134 86 9.4 84.944 9.4 84.944l11.33-5.284 5.493 11.782s1.057 2.266 3.323 1.21c2.265-1.057 1.209-3.323 1.209-3.323L25.26 77.547l12.235-5.705s2.266-1.057 1.21-3.322c-1.057-2.266-3.323-1.21-3.323-1.21l-12.235 5.706zM119.567 82.885l-12.557-3.364s-2.415-.647-3.062 1.767c-.647 2.415 1.768 3.062 1.768 3.062l12.557 3.365-3.235 12.074s-.647 2.415 1.767 3.062c2.415.647 3.062-1.768 3.062-1.768l3.235-12.074 12.557 3.365s2.415.647 3.062-1.768c.647-2.415-1.767-3.062-1.767-3.062l-12.557-3.365 3.494-13.04s.647-2.415-1.768-3.062c-2.415-.647-3.062 1.768-3.062 1.768l-3.494 13.04zM170.646 73.818l-9.192-9.192s-1.768-1.768-3.535 0c-1.768 1.767 0 3.535 0 3.535l9.192 9.193-8.839 8.838s-1.768 1.768 0 3.536 3.536 0 3.536 0l8.838-8.839 9.193 9.192s1.768 1.768 3.535 0c1.768-1.767 0-3.535 0-3.535l-9.192-9.192 9.546-9.546s1.768-1.768 0-3.536-3.536 0-3.536 0l-9.546 9.546zM232.567 72.885l-12.557-3.364s-2.415-.647-3.062 1.767c-.647 2.415 1.768 3.062 1.768 3.062l12.557 3.365-3.235 12.074s-.647 2.415 1.767 3.062c2.415.647 3.062-1.768 3.062-1.768l3.235-12.074 12.557 3.365s2.415.647 3.062-1.768c.647-2.415-1.767-3.062-1.767-3.062l-12.557-3.365 3.494-13.04s.647-2.415-1.768-3.062c-2.415-.647-3.062 1.768-3.062 1.768l-3.494 13.04zM280.733 98.172l-10.649-7.456s-2.048-1.434-3.482.614c-1.434 2.048.614 3.482.614 3.482l10.65 7.456-7.17 10.24s-1.434 2.047.613 3.481c2.048 1.434 3.482-.614 3.482-.614l7.17-10.239 10.649 7.457s2.048 1.433 3.482-.614c1.434-2.048-.614-3.482-.614-3.482l-10.65-7.457 7.744-11.058s1.434-2.048-.614-3.482c-2.048-1.434-3.482.614-3.482.614l-7.743 11.058zM307.733 58.172l-10.649-7.456s-2.048-1.434-3.482.614c-1.434 2.048.614 3.482.614 3.482l10.65 7.456-7.17 10.24s-1.434 2.047.613 3.481c2.048 1.434 3.482-.614 3.482-.614l7.17-10.239 10.649 7.457s2.048 1.433 3.482-.614c1.434-2.048-.614-3.482-.614-3.482l-10.65-7.457 7.744-11.058s1.434-2.048-.614-3.482c-2.048-1.434-3.482.614-3.482.614l-7.743 11.058zM383.43 71.518l-12.84-2.033s-2.468-.391-2.86 2.078c-.39 2.47 2.079 2.86 2.079 2.86l12.84 2.034-1.956 12.346s-.39 2.47 2.078 2.86c2.47.391 2.86-2.078 2.86-2.078l1.956-12.346 12.84 2.034s2.47.39 2.86-2.078c.391-2.47-2.078-2.86-2.078-2.86L388.37 72.3l2.112-13.334s.391-2.47-2.078-2.86c-2.47-.392-2.86 2.078-2.86 2.078l-2.112 13.333zM465.998 67.23l-4.658-12.136s-.896-2.334-3.23-1.438c-2.334.896-1.438 3.23-1.438 3.23l4.659 12.136-11.67 4.48s-2.334.896-1.438 3.23c.896 2.334 3.23 1.438 3.23 1.438l11.67-4.48 4.658 12.137s.896 2.334 3.23 1.438c2.334-.896 1.438-3.23 1.438-3.23l-4.659-12.137 12.604-4.838s2.334-.896 1.438-3.23c-.896-2.333-3.23-1.438-3.23-1.438l-12.604 4.838zM516.58 85.07l-8.528-9.81s-1.64-1.888-3.527-.247c-1.887 1.64-.247 3.526-.247 3.526l8.529 9.812-9.434 8.2s-1.887 1.64-.247 3.527c1.64 1.887 3.527.247 3.527.247l9.434-8.2 8.529 9.81s1.64 1.887 3.527.247c1.887-1.64.247-3.527.247-3.527l-8.53-9.811 10.19-8.857s1.886-1.64.246-3.527c-1.64-1.887-3.527-.246-3.527-.246l-10.188 8.856zM576.43 92.518l-12.84-2.033s-2.468-.391-2.86 2.078c-.39 2.47 2.079 2.86 2.079 2.86l12.84 2.034-1.956 12.346s-.39 2.47 2.078 2.86c2.47.391 2.86-2.078 2.86-2.078l1.956-12.346 12.84 2.034s2.47.39 2.86-2.078c.391-2.47-2.078-2.86-2.078-2.86L581.37 93.3l2.112-13.334s.391-2.47-2.078-2.86c-2.47-.392-2.86 2.078-2.86 2.078l-2.112 13.333zM61.147 102.016l-5.494-11.782s-1.057-2.266-3.323-1.21c-2.265 1.057-1.209 3.323-1.209 3.323l5.494 11.782-11.329 5.283s-2.265 1.056-1.209 3.322c1.057 2.266 3.322 1.21 3.322 1.21l11.33-5.284 5.493 11.782s1.057 2.266 3.323 1.21c2.265-1.057 1.209-3.323 1.209-3.323l-5.494-11.782 12.235-5.705s2.266-1.057 1.21-3.322c-1.057-2.266-3.323-1.21-3.323-1.21l-12.235 5.706zM31.706 138.522l-11.782-5.495s-2.265-1.056-3.322 1.21c-1.057 2.265 1.21 3.322 1.21 3.322l11.781 5.494-5.283 11.329s-1.056 2.266 1.21 3.322c2.265 1.057 3.322-1.209 3.322-1.209l5.283-11.329 11.782 5.494s2.266 1.057 3.322-1.209c1.057-2.266-1.21-3.322-1.21-3.322l-11.781-5.494 5.705-12.236s1.057-2.265-1.209-3.322c-2.266-1.056-3.322 1.21-3.322 1.21l-5.706 12.235zM91.646 140.818l-9.192-9.192s-1.768-1.768-3.535 0c-1.768 1.767 0 3.535 0 3.535l9.192 9.193-8.839 8.838s-1.768 1.768 0 3.536 3.536 0 3.536 0l8.838-8.839 9.193 9.192s1.768 1.768 3.535 0c1.768-1.767 0-3.535 0-3.535l-9.192-9.192 9.546-9.546s1.768-1.768 0-3.536-3.536 0-3.536 0l-9.546 9.546zM144.147 124.016l-5.494-11.782s-1.057-2.266-3.323-1.21c-2.265 1.057-1.209 3.323-1.209 3.323l5.494 11.782-11.329 5.283s-2.265 1.056-1.209 3.322c1.057 2.266 3.322 1.21 3.322 1.21l11.33-5.284 5.493 11.782s1.057 2.266 3.323 1.21c2.265-1.057 1.209-3.323 1.209-3.323l-5.494-11.782 12.235-5.705s2.266-1.057 1.21-3.322c-1.057-2.266-3.323-1.21-3.323-1.21l-12.235 5.706zM198.147 116.016l-5.494-11.782s-1.057-2.266-3.323-1.21c-2.265 1.057-1.209 3.323-1.209 3.323l5.494 11.782-11.329 5.283s-2.265 1.056-1.209 3.322c1.057 2.266 3.322 1.21 3.322 1.21l11.33-5.284 5.493 11.782s1.057 2.266 3.323 1.21c2.265-1.057 1.209-3.323 1.209-3.323l-5.494-11.782 12.235-5.705s2.266-1.057 1.21-3.322c-1.057-2.266-3.323-1.21-3.323-1.21l-12.235 5.706zM192.567 157.885l-12.557-3.364s-2.415-.647-3.062 1.767c-.647 2.415 1.768 3.062 1.768 3.062l12.557 3.365-3.235 12.074s-.647 2.415 1.767 3.062c2.415.647 3.062-1.768 3.062-1.768l3.235-12.074 12.557 3.365s2.415.647 3.062-1.768c.647-2.415-1.767-3.062-1.767-3.062l-12.557-3.365 3.494-13.04s.647-2.415-1.768-3.062c-2.415-.647-3.062 1.768-3.062 1.768l-3.494 13.04zM252.567 139.885l-12.557-3.364s-2.415-.647-3.062 1.767c-.647 2.415 1.768 3.062 1.768 3.062l12.557 3.365-3.235 12.074s-.647 2.415 1.767 3.062c2.415.647 3.062-1.768 3.062-1.768l3.235-12.074 12.557 3.365s2.415.647 3.062-1.768c.647-2.415-1.767-3.062-1.767-3.062l-12.557-3.365 3.494-13.04s.647-2.415-1.768-3.062c-2.415-.647-3.062 1.768-3.062 1.768l-3.494 13.04zM305.717 143.32l1.133-12.951s.218-2.49-2.272-2.709c-2.49-.218-2.709 2.273-2.709 2.273l-1.133 12.95-12.452-1.09s-2.49-.217-2.709 2.274c-.217 2.49 2.273 2.708 2.273 2.708l12.452 1.09-1.133 12.95s-.217 2.49 2.273 2.708c2.49.218 2.708-2.272 2.708-2.272l1.133-12.95 13.45 1.176s2.49.218 2.707-2.273c.218-2.49-2.272-2.708-2.272-2.708l-13.449-1.177zM336.97 97.732l-12.95 1.133s-2.49.218-2.273 2.709c.218 2.49 2.709 2.272 2.709 2.272l12.95-1.133 1.09 12.453s.218 2.49 2.708 2.272c2.49-.217 2.273-2.708 2.273-2.708l-1.09-12.452 12.95-1.133s2.491-.218 2.273-2.709c-.217-2.49-2.708-2.272-2.708-2.272l-12.95 1.133-1.177-13.449s-.218-2.49-2.708-2.273c-2.491.218-2.273 2.709-2.273 2.709l1.177 13.448zM377.998 129.23l-4.658-12.136s-.896-2.334-3.23-1.438c-2.334.896-1.438 3.23-1.438 3.23l4.659 12.136-11.67 4.48s-2.334.896-1.438 3.23c.896 2.334 3.23 1.438 3.23 1.438l11.67-4.48 4.658 12.137s.896 2.334 3.23 1.438c2.334-.896 1.438-3.23 1.438-3.23l-4.659-12.137 12.604-4.838s2.334-.896 1.438-3.23c-.896-2.333-3.23-1.438-3.23-1.438l-12.604 4.838zM428.998 105.23l-4.658-12.136s-.896-2.334-3.23-1.438c-2.334.896-1.438 3.23-1.438 3.23l4.659 12.136-11.67 4.48s-2.334.896-1.438 3.23c.896 2.334 3.23 1.438 3.23 1.438l11.67-4.48 4.658 12.137s.896 2.334 3.23 1.438c2.334-.896 1.438-3.23 1.438-3.23l-4.659-12.137 12.604-4.838s2.334-.896 1.438-3.23c-.896-2.333-3.23-1.438-3.23-1.438l-12.604 4.838zM419.863 158.636l4.233-12.292s.814-2.364-1.55-3.177c-2.364-.814-3.178 1.55-3.178 1.55l-4.232 12.291-11.82-4.07s-2.363-.813-3.177 1.55c-.814 2.364 1.55 3.178 1.55 3.178l11.819 4.07-4.233 12.291s-.813 2.364 1.55 3.178c2.364.814 3.178-1.55 3.178-1.55l4.232-12.291L431 167.759s2.364.814 3.178-1.55c.814-2.364-1.55-3.178-1.55-3.178l-12.765-4.395zM476.43 123.518l-12.84-2.033s-2.468-.391-2.86 2.078c-.39 2.47 2.079 2.86 2.079 2.86l12.84 2.034-1.956 12.346s-.39 2.47 2.078 2.86c2.47.391 2.86-2.078 2.86-2.078l1.956-12.346 12.84 2.034s2.47.39 2.86-2.078c.391-2.47-2.078-2.86-2.078-2.86l-12.84-2.034 2.112-13.334s.391-2.47-2.078-2.86c-2.47-.392-2.86 2.078-2.86 2.078l-2.112 13.333zM536.43 132.518l-12.84-2.033s-2.468-.391-2.86 2.078c-.39 2.47 2.079 2.86 2.079 2.86l12.84 2.034-1.956 12.346s-.39 2.47 2.078 2.86c2.47.391 2.86-2.078 2.86-2.078l1.956-12.346 12.84 2.034s2.47.39 2.86-2.078c.391-2.47-2.078-2.86-2.078-2.86l-12.84-2.034 2.112-13.334s.391-2.47-2.078-2.86c-2.47-.392-2.86 2.078-2.86 2.078l-2.112 13.333z"/></g></svg>