<svg xmlns="http://www.w3.org/2000/svg" viewBox="0 0 605 180"><title>deployer-alt</title><g fill-rule="evenodd"><path d="M50.464 37.053c8.61-4.971 11.56-15.98 6.589-24.589-4.971-8.61-15.98-11.559-24.589-6.588-8.61 4.97-11.559 15.979-6.588 24.588 4.97 8.61 15.979 11.56 24.588 6.589zm-20.24-9.057L45.99 7.304l6.697 18.179-9.077-.067-.914 4.958-4.281-4.575-8.19 2.197zM75.119 72.36c9.79 1.727 19.126-4.81 20.852-14.6 1.726-9.79-4.81-19.126-14.6-20.853-9.79-1.726-19.127 4.811-20.853 14.601-1.726 9.79 4.81 19.126 14.601 20.852zm-9.683-19.947l25.378-5.717-6.556 18.23-6.91-5.886-3.887 3.211-.338-6.257-7.687-3.581zM140.464 46.053c8.61-4.971 11.56-15.98 6.589-24.589-4.971-8.61-15.98-11.559-24.589-6.588-8.61 4.97-11.559 15.979-6.588 24.588 4.97 8.61 15.979 11.56 24.588 6.589zm-20.24-9.057l15.766-20.692 6.697 18.179-9.077-.067-.914 4.958-4.281-4.575-8.19 2.197zM192.234 52.041c9.342 3.4 19.671-1.416 23.071-10.758 3.4-9.341-1.416-19.67-10.758-23.07-9.342-3.4-19.67 1.416-23.07 10.757-3.4 9.342 1.416 19.671 10.757 23.071zm-6.072-21.326l25.986-1.223-9.622 16.815-5.783-6.996-4.386 2.487.753-6.22-6.948-4.863zM271.464 43.053c8.61-4.971 11.56-15.98 6.589-24.589-4.971-8.61-15.98-11.559-24.589-6.588-8.61 4.97-11.559 15.979-6.588 24.588 4.97 8.61 15.979 11.56 24.588 6.589zm-20.24-9.057l15.766-20.692 6.697 18.179-9.077-.067-.914 4.958-4.281-4.575-8.19 2.197zM346.098 51.918c8.521 5.12 19.58 2.363 24.7-6.158 5.12-8.522 2.362-19.58-6.159-24.7-8.521-5.12-19.58-2.363-24.7 6.158-5.12 8.521-2.362 19.58 6.159 24.7zm-1.892-22.093l25.742 3.758-12.653 14.67-4.342-7.971-4.78 1.604 1.926-5.963-5.893-6.098zM441.604 47.405c6.906-7.15 6.707-18.546-.444-25.452-7.151-6.906-18.546-6.707-25.452.444-6.906 7.151-6.707 18.547.444 25.452 7.151 6.906 18.546 6.707 25.452-.444zm-21.952-3.127l9.452-24.236 11.447 15.629-8.743 2.437.489 5.018-5.377-3.218-7.268 4.37zM519.167 40.447c8.043-5.843 9.826-17.1 3.983-25.142-5.844-8.043-17.1-9.826-25.143-3.982-8.042 5.843-9.825 17.1-3.982 25.142 5.843 8.043 17.1 9.825 25.142 3.982zm-21.075-6.89l13.517-22.228 8.56 17.38-9.034.881-.39 5.027-4.737-4.103-7.916 3.042zM544.014 65.476c8.241 5.559 19.429 3.384 24.988-4.858 5.56-8.241 3.384-19.429-4.857-24.988-8.242-5.559-19.43-3.384-24.988 4.857-5.56 8.242-3.385 19.43 4.857 24.989zm-.733-22.162l25.51 5.1L555.387 62.4l-3.918-8.187-4.858 1.352 2.236-5.853-5.566-6.399zM16.234 93.041c9.342 3.4 19.671-1.416 23.071-10.758 3.4-9.341-1.416-19.67-10.758-23.07-9.342-3.4-19.67 1.416-23.07 10.757-3.4 9.342 1.416 19.671 10.757 23.071zm-6.072-21.326l25.986-1.223-9.622 16.815-5.783-6.996-4.386 2.487.753-6.22-6.948-4.863zM130.464 101.053c8.61-4.971 11.56-15.98 6.589-24.589-4.971-8.61-15.98-11.559-24.589-6.588-8.61 4.97-11.559 15.979-6.588 24.588 4.97 8.61 15.979 11.56 24.588 6.589zm-20.24-9.057l15.766-20.692 6.697 18.179-9.077-.067-.914 4.958-4.281-4.575-8.19 2.197zM171 95c9.941 0 18-8.059 18-18s-8.059-18-18-18-18 8.059-18 18 8.059 18 18 18zm-13-17.963L182 67l-3.29 19.091-7.827-4.596-3.27 3.838-1.42-6.104L158 77.037zM243.464 91.053c8.61-4.971 11.56-15.98 6.589-24.589-4.971-8.61-15.98-11.559-24.589-6.588-8.61 4.97-11.559 15.979-6.588 24.588 4.97 8.61 15.979 11.56 24.588 6.589zm-20.24-9.057l15.766-20.692 6.697 18.179-9.077-.067-.914 4.958-4.281-4.575-8.19 2.197zM284.76 118.971c9.79-1.726 16.327-11.062 14.6-20.852-1.726-9.79-11.062-16.327-20.852-14.6-9.79 1.725-16.327 11.061-14.6 20.851 1.726 9.79 11.061 16.327 20.851 14.601zm-15.922-15.432l21.892-14.053.075 19.373-8.506-3.167-2.555 4.347-2.458-5.764-8.448-.736zM311.76 78.971c9.79-1.726 16.327-11.062 14.6-20.852-1.726-9.79-11.062-16.327-20.852-14.6-9.79 1.725-16.327 11.061-14.6 20.851 1.726 9.79 11.061 16.327 20.851 14.601zM295.837 63.54l21.892-14.053.075 19.373-8.506-3.167-2.555 4.347-2.458-5.764-8.448-.736zM396.167 88.447c8.043-5.843 9.826-17.1 3.983-25.142-5.844-8.043-17.1-9.826-25.143-3.982-8.042 5.843-9.825 17.1-3.982 25.142 5.843 8.043 17.1 9.825 25.142 3.982zm-21.075-6.89l13.517-22.228 8.56 17.38-9.034.881-.39 5.027-4.737-4.103-7.916 3.042zM457.706 86.725c9.082 4.043 19.722-.04 23.765-9.123 4.043-9.081-.04-19.721-9.123-23.765-9.081-4.043-19.721.041-23.765 9.123-4.043 9.082.041 19.722 9.123 23.765zm-4.57-21.698l26.008.593-10.771 16.102-5.281-7.382-4.549 2.175 1.185-6.153-6.592-5.335zM515.456 106.225c9.917.694 18.518-6.783 19.211-16.7.694-9.917-6.783-18.518-16.7-19.212-9.917-.693-18.518 6.784-19.212 16.7-.693 9.918 6.784 18.519 16.7 19.212zM503.74 87.4l24.642-8.338-4.614 18.815-7.487-5.13-3.53 3.6-.991-6.188-8.02-2.759zM589.167 109.447c8.043-5.843 9.826-17.1 3.983-25.142-5.844-8.043-17.1-9.826-25.143-3.982-8.042 5.843-9.825 17.1-3.982 25.142 5.843 8.043 17.1 9.825 25.142 3.982zm-21.075-6.89l13.517-22.228 8.56 17.38-9.034.881-.39 5.027-4.737-4.103-7.916 3.042zM54.234 122.041c9.342 3.4 19.671-1.416 23.071-10.758 3.4-9.341-1.416-19.67-10.758-23.07-9.342-3.4-19.67 1.416-23.07 10.757-3.4 9.342 1.416 19.671 10.757 23.071zm-6.072-21.326l25.986-1.223-9.622 16.815-5.783-6.996-4.386 2.487.753-6.22-6.948-4.863zM39.283 158.305c9.342-3.4 14.158-13.73 10.758-23.07-3.4-9.342-13.729-14.159-23.07-10.759-9.342 3.4-14.159 13.73-10.759 23.071 3.4 9.342 13.73 14.158 23.071 10.758zm-18.36-12.433l19.12-17.64 3.438 19.065-8.927-1.642-1.76 4.724-3.423-5.25-8.447.743zM92 162c9.941 0 18-8.059 18-18s-8.059-18-18-18-18 8.059-18 18 8.059 18 18 18zm-13-17.963L103 134l-3.29 19.091-7.827-4.596-3.27 3.838-1.42-6.104L79 144.037zM137.234 144.041c9.342 3.4 19.671-1.416 23.071-10.758 3.4-9.341-1.416-19.67-10.758-23.07-9.342-3.4-19.67 1.416-23.07 10.757-3.4 9.342 1.416 19.671 10.757 23.071zm-6.072-21.326l25.986-1.223-9.622 16.815-5.783-6.996-4.386 2.487.753-6.22-6.948-4.863zM191.234 136.041c9.342 3.4 19.671-1.416 23.071-10.758 3.4-9.341-1.416-19.67-10.758-23.07-9.342-3.4-19.67 1.416-23.07 10.757-3.4 9.342 1.416 19.671 10.757 23.071zm-6.072-21.326l25.986-1.223-9.622 16.815-5.783-6.996-4.386 2.487.753-6.22-6.948-4.863zM203.464 176.053c8.61-4.971 11.56-15.98 6.589-24.589-4.971-8.61-15.98-11.559-24.589-6.588-8.61 4.97-11.559 15.979-6.588 24.588 4.97 8.61 15.979 11.56 24.588 6.589zm-20.24-9.057l15.766-20.692 6.697 18.179-9.077-.067-.914 4.958-4.281-4.575-8.19 2.197zM263.464 158.053c8.61-4.971 11.56-15.98 6.589-24.589-4.971-8.61-15.98-11.559-24.589-6.588-8.61 4.97-11.559 15.979-6.588 24.588 4.97 8.61 15.979 11.56 24.588 6.589zm-20.24-9.057l15.766-20.692 6.697 18.179-9.077-.067-.914 4.958-4.281-4.575-8.19 2.197zM289.718 157.206c6.39 7.615 17.744 8.608 25.36 2.218 7.614-6.39 8.608-17.744 2.218-25.359-6.39-7.615-17.744-8.609-25.36-2.218-7.615 6.39-8.608 17.743-2.218 25.359zm5.404-21.505l23.116 11.933-16.74 9.751-1.51-8.95-5.042-.039 3.763-5.01-3.587-7.685zM353.424 111.077c6.39-7.615 5.397-18.969-2.218-25.359-7.616-6.39-18.97-5.397-25.36 2.219-6.39 7.615-5.396 18.969 2.22 25.359 7.614 6.39 18.968 5.396 25.358-2.219zm-22.116-1.588l7.738-24.836 12.51 14.792-8.553 3.041.838 4.972-5.588-2.835-6.945 4.866zM369.706 148.725c9.082 4.043 19.722-.04 23.765-9.123 4.043-9.081-.04-19.721-9.123-23.765-9.081-4.043-19.721.041-23.765 9.123-4.043 9.082.041 19.722 9.123 23.765zm-4.57-21.698l26.008.593-10.771 16.102-5.281-7.382-4.549 2.175 1.185-6.153-6.592-5.335zM420.706 124.725c9.082 4.043 19.722-.04 23.765-9.123 4.043-9.081-.04-19.721-9.123-23.765-9.081-4.043-19.721.041-23.765 9.123-4.043 9.082.041 19.722 9.123 23.765zm-4.57-21.698l26.008.593-10.771 16.102-5.281-7.382-4.549 2.175 1.185-6.153-6.592-5.335zM400.98 168.24c4.358 8.934 15.134 12.645 24.069 8.287 8.935-4.358 12.646-15.134 8.288-24.069-4.358-8.935-15.134-12.646-24.07-8.288-8.934 4.358-12.645 15.134-8.287 24.07zm10.446-19.56l19.542 17.172-18.601 5.411.7-9.05-4.883-1.257 4.863-3.951-1.62-8.324zM489.167 140.447c8.043-5.843 9.826-17.1 3.983-25.142-5.844-8.043-17.1-9.826-25.143-3.982-8.042 5.843-9.825 17.1-3.982 25.142 5.843 8.043 17.1 9.825 25.142 3.982zm-21.075-6.89l13.517-22.228 8.56 17.38-9.034.881-.39 5.027-4.737-4.103-7.916 3.042zM549.167 149.447c8.043-5.843 9.826-17.1 3.983-25.142-5.844-8.043-17.1-9.826-25.143-3.982-8.042 5.843-9.825 17.1-3.982 25.142 5.843 8.043 17.1 9.825 25.142 3.982zm-21.075-6.89l13.517-22.228 8.56 17.38-9.034.881-.39 5.027-4.737-4.103-7.916 3.042z"/></g></svg>