<svg xmlns="http://www.w3.org/2000/svg" viewBox="0 0 605 180"><title>deployer</title><g fill-rule="evenodd"><path d="M26.515 31.335L50.107.37l10.02 27.202-13.581-.1-1.367 7.42-6.407-6.847zM60.449 52.586l37.975-8.555-9.81 27.28-10.339-8.808-5.817 4.805-.507-9.363zM116.515 40.335L140.107 9.37l10.02 27.202-13.581-.1-1.367 7.42-6.407-6.847zM181.22 30.02l38.885-1.83-14.398 25.16-8.653-10.468-6.563 3.722 1.127-9.309zM247.515 37.335L271.107 6.37l10.02 27.202-13.581-.1-1.367 7.42-6.407-6.847zM339.488 28.2l38.52 5.622-18.934 21.952-6.497-11.927-7.153 2.4 2.883-8.922zM417.007 48.51l14.143-36.267 17.13 23.386-13.083 3.648.731 7.509-8.046-4.816zM494.752 37.264l20.226-33.26 12.809 26.006-13.518 1.32-.584 7.522-7.087-6.14zM538.655 41.444l38.172 7.63-20.057 20.931-5.864-12.25-7.268 2.023 3.345-8.76zM5.22 71.02l38.885-1.83-14.398 25.16-8.653-10.468-6.563 3.722 1.127-9.309zM106.515 95.335l23.592-30.964 10.02 27.202-13.581-.1-1.367 7.42-6.407-6.847zM153.119 78.074l35.913-15.02-4.924 28.568-11.712-6.877-4.894 5.742-2.125-9.133zM219.515 85.335l23.592-30.964 10.02 27.202-13.581-.1-1.367 7.42-6.407-6.847zM264.21 105.407l32.76-21.027.112 28.989-12.728-4.74-3.823 6.505-3.678-8.625zM291.21 65.407l32.76-21.027.112 28.989-12.728-4.74-3.823 6.505-3.678-8.625zM371.752 85.264l20.226-33.26 12.809 26.006-13.518 1.32-.584 7.522-7.087-6.14zM448.255 63.99l38.917.885-16.117 24.096-7.902-11.047-6.807 3.255 1.774-9.207zM498.799 88.093l36.873-12.477-6.904 28.154-11.204-7.678-5.283 5.387-1.482-9.259zM564.752 106.264l20.226-33.26 12.809 26.006-13.518 1.32-.584 7.522-7.087-6.14zM43.22 100.02l38.885-1.83-14.398 25.16-8.653-10.468-6.563 3.722 1.127-9.309zM16.691 148.515l28.61-26.396 5.145 28.529-13.358-2.457-2.635 7.07-5.12-7.856zM74.119 145.074l35.913-15.02-4.924 28.568-11.712-6.877-4.894 5.742-2.125-9.133zM126.22 122.02l38.885-1.83-14.398 25.16-8.653-10.468-6.563 3.722 1.127-9.309zM180.22 114.02l38.885-1.83-14.398 25.16-8.653-10.468-6.563 3.722 1.127-9.309zM179.515 170.335l23.592-30.964 10.02 27.202-13.581-.1-1.367 7.42-6.407-6.847zM239.515 152.335l23.592-30.964 10.02 27.202-13.581-.1-1.367 7.42-6.407-6.847zM291.19 132.628l34.59 17.857-25.048 14.591-2.26-13.393-7.545-.058 5.63-7.498zM328.964 113.895l11.58-37.165 18.719 22.134-12.797 4.551 1.253 7.44-8.362-4.242zM360.255 125.99l38.917.885-16.117 24.096-7.902-11.047-6.807 3.255 1.774-9.207zM411.255 101.99l38.917.885-16.117 24.096-7.902-11.047-6.807 3.255 1.774-9.207zM408.355 144.748l29.242 25.694-27.835 8.098L410.81 165l-7.307-1.882 7.277-5.913zM464.752 137.264l20.226-33.26 12.809 26.006-13.518 1.32-.584 7.522-7.087-6.14zM524.752 146.264l20.226-33.26 12.809 26.006-13.518 1.32-.584 7.522-7.087-6.14z"/></g></svg>