<svg xmlns="http://www.w3.org/2000/svg" viewBox="0 0 605 180"><title>double-quote</title><g fill-rule="evenodd"><path d="M52.636 4.815c-2.919 4.358-3.597 7.891-2.035 10.598 1.854-.803 3.7-.923 5.541-.359 1.84.564 3.223 1.648 4.15 3.252.983 1.704 1.262 3.46.834 5.265-.427 1.807-1.476 3.192-3.147 4.157-1.871 1.08-3.931 1.255-6.179.526-2.248-.73-3.999-2.18-5.253-4.352-3.762-6.516-3.062-13.715 2.1-21.597l3.99 2.51zM34.291 15.406c-2.953 4.378-3.648 7.92-2.085 10.627 1.887-.822 3.75-.95 5.59-.387 1.841.564 3.224 1.647 4.15 3.251.984 1.705 1.254 3.465.81 5.28-.444 1.816-1.502 3.207-3.173 4.171-1.87 1.08-3.922 1.251-6.153.512-2.231-.739-3.974-2.194-5.228-4.367-3.762-6.516-3.079-13.705 2.05-21.567l4.039 2.48zM97.505 49.06c-5.038 1.463-7.828 3.734-8.37 6.812 1.935.576 3.426 1.672 4.474 3.286 1.047 1.615 1.41 3.334 1.088 5.158-.341 1.938-1.256 3.462-2.745 4.57-1.488 1.11-3.182 1.496-5.082 1.161-2.128-.375-3.819-1.564-5.072-3.568-1.253-2.004-1.662-4.24-1.226-6.71 1.306-7.41 6.47-12.475 15.49-15.194l1.443 4.486zm-20.861-3.678c-5.076 1.456-7.886 3.723-8.428 6.801 1.973.583 3.484 1.682 4.531 3.297 1.048 1.615 1.41 3.334 1.089 5.158-.342 1.938-1.266 3.46-2.774 4.565-1.507 1.106-3.21 1.49-5.11 1.156-2.129-.375-3.81-1.563-5.044-3.563-1.234-2-1.633-4.236-1.198-6.706 1.307-7.41 6.451-12.477 15.434-15.203l1.5 4.495zM142.636 13.815c-2.919 4.358-3.597 7.891-2.035 10.598 1.854-.803 3.7-.923 5.541-.359 1.84.564 3.223 1.648 4.15 3.252.983 1.704 1.262 3.46.834 5.265-.427 1.807-1.476 3.192-3.147 4.157-1.871 1.08-3.931 1.255-6.179.526-2.248-.73-3.999-2.18-5.253-4.352-3.762-6.516-3.062-13.715 2.1-21.597l3.99 2.51zm-18.345 10.591c-2.953 4.378-3.648 7.92-2.085 10.627 1.887-.822 3.75-.95 5.59-.387 1.841.564 3.224 1.647 4.15 3.251.984 1.705 1.254 3.465.81 5.28-.444 1.816-1.502 3.207-3.173 4.171-1.87 1.08-3.922 1.251-6.153.512-2.231-.739-3.974-2.194-5.228-4.367-3.762-6.516-3.079-13.705 2.05-21.567l4.039 2.48zM218.326 32.983c-5.215.566-8.357 2.317-9.426 5.254 1.806.903 3.085 2.241 3.836 4.014.75 1.772.81 3.528.176 5.268-.673 1.85-1.839 3.19-3.497 4.024-1.658.834-3.394.92-5.207.26-2.03-.738-3.489-2.203-4.375-4.394-.886-2.19-.9-4.464-.042-6.821 2.573-7.07 8.538-11.162 17.894-12.273l.641 4.668zm-19.906-7.245c-5.251.552-8.411 2.297-9.48 5.234 1.842.917 3.139 2.261 3.89 4.033.751 1.773.81 3.529.176 5.27-.673 1.848-1.847 3.186-3.524 4.013-1.676.827-3.421.91-5.234.251-2.03-.739-3.48-2.2-4.348-4.385-.868-2.184-.873-4.455-.015-6.811 2.573-7.07 8.52-11.168 17.84-12.293l.695 4.688zM273.636 10.815c-2.919 4.358-3.597 7.891-2.035 10.598 1.854-.803 3.7-.923 5.541-.359 1.84.564 3.223 1.648 4.15 3.252.983 1.704 1.262 3.46.834 5.265-.427 1.807-1.476 3.192-3.147 4.157-1.871 1.08-3.931 1.255-6.179.526-2.248-.73-3.999-2.18-5.253-4.352-3.762-6.516-3.062-13.715 2.1-21.597l3.99 2.51zm-18.345 10.591c-2.953 4.378-3.648 7.92-2.085 10.627 1.887-.822 3.75-.95 5.59-.387 1.841.564 3.224 1.647 4.15 3.251.984 1.705 1.254 3.465.81 5.28-.444 1.816-1.502 3.207-3.173 4.171-1.87 1.08-3.922 1.251-6.153.512-2.231-.739-3.974-2.194-5.228-4.367-3.762-6.516-3.079-13.705 2.05-21.567l4.039 2.48zM375.347 38.188c-5.228-.44-8.646.68-10.256 3.359 1.6 1.232 2.6 2.789 3 4.672.399 1.883.122 3.618-.832 5.205-1.014 1.687-2.414 2.781-4.201 3.283-1.787.502-3.507.256-5.161-.738-1.852-1.112-3.004-2.829-3.456-5.148-.452-2.32-.032-4.555 1.26-6.704 3.875-6.45 10.51-9.328 19.907-8.633l-.261 4.704zm-18.158-10.91c-5.26-.46-8.695.65-10.305 3.329 1.634 1.251 2.65 2.819 3.05 4.702.398 1.882.12 3.618-.833 5.205-1.013 1.687-2.422 2.776-4.226 3.268-1.803.492-3.532.241-5.185-.753-1.853-1.112-2.996-2.824-3.432-5.133-.435-2.31-.007-4.54 1.285-6.69 3.875-6.45 10.494-9.337 19.858-8.662l-.212 4.734zM434.806 15.817c-1.605 4.995-1.283 8.578.965 10.749 1.56-1.283 3.303-1.907 5.227-1.872 1.925.035 3.553.695 4.886 1.982 1.415 1.367 2.166 2.977 2.253 4.831.087 1.854-.54 3.475-1.88 4.863-1.5 1.554-3.432 2.29-5.794 2.21-2.362-.082-4.445-.994-6.249-2.737-5.412-5.226-6.723-12.34-3.933-21.338l4.525 1.312zm-14.715 15.238c-1.632 5.023-1.323 8.62.925 10.79 1.587-1.31 3.343-1.948 5.267-1.913 1.925.034 3.553.695 4.885 1.982 1.416 1.367 2.16 2.984 2.234 4.852.074 1.868-.56 3.496-1.9 4.884-1.501 1.554-3.426 2.283-5.774 2.188-2.349-.095-4.425-1.014-6.229-2.757-5.412-5.226-6.737-12.325-3.974-21.297l4.566 1.271zM517.958 8.159c-2.448 4.64-2.753 8.224-.916 10.753 1.76-.993 3.584-1.304 5.473-.936 1.889.368 3.378 1.301 4.466 2.8 1.157 1.592 1.617 3.308 1.38 5.15-.235 1.84-1.134 3.328-2.695 4.462-1.748 1.27-3.778 1.66-6.09 1.17-2.311-.491-4.204-1.751-5.679-3.78-4.422-6.087-4.478-13.32-.168-21.698l4.229 2.079zM500.82 20.61c-2.479 4.663-2.8 8.258-.962 10.787 1.79-1.015 3.63-1.338 5.519-.97 1.89.368 3.378 1.302 4.467 2.8 1.156 1.592 1.609 3.314 1.357 5.167-.252 1.852-1.158 3.345-2.72 4.48-1.747 1.27-3.77 1.653-6.066 1.151-2.296-.501-4.181-1.767-5.655-3.796-4.423-6.087-4.495-13.308-.215-21.663l4.275 2.044zM573.941 53.296c-5.197-.713-8.67.226-10.417 2.817 1.534 1.314 2.45 2.921 2.751 4.822.3 1.902-.068 3.62-1.103 5.155-1.1 1.632-2.556 2.651-4.367 3.059-1.811.407-3.516.072-5.116-1.007-1.791-1.208-2.852-2.983-3.181-5.323-.33-2.34.206-4.55 1.609-6.629 4.207-6.238 10.984-8.764 20.331-7.579l-.507 4.685zM556.38 41.45c-5.23-.734-8.718.194-10.466 2.785 1.566 1.335 2.5 2.954 2.8 4.855.3 1.901-.069 3.62-1.104 5.155-1.1 1.631-2.564 2.645-4.391 3.042-1.827.397-3.54.056-5.14-1.023-1.79-1.208-2.843-2.977-3.157-5.306-.314-2.33.23-4.534 1.633-6.613 4.207-6.238 10.969-8.775 20.283-7.612l-.458 4.717zM42.326 73.983c-5.215.566-8.357 2.317-9.426 5.254 1.806.903 3.085 2.241 3.836 4.014.75 1.772.81 3.528.176 5.268-.673 1.85-1.839 3.19-3.497 4.024-1.658.834-3.394.92-5.207.26-2.03-.738-3.489-2.203-4.375-4.394-.886-2.19-.9-4.464-.042-6.821 2.573-7.07 8.538-11.162 17.894-12.273l.641 4.668zM22.42 66.738c-5.251.552-8.411 2.297-9.48 5.234 1.842.917 3.139 2.261 3.89 4.033.751 1.773.81 3.529.176 5.27-.673 1.848-1.847 3.186-3.524 4.013-1.676.827-3.421.91-5.234.251-2.03-.739-3.48-2.2-4.348-4.385-.868-2.184-.873-4.455-.015-6.811 2.573-7.07 8.52-11.168 17.84-12.293l.695 4.688zM132.636 68.815c-2.919 4.358-3.597 7.891-2.035 10.598 1.854-.803 3.7-.923 5.541-.359 1.84.564 3.223 1.648 4.15 3.252.983 1.704 1.262 3.46.834 5.265-.427 1.807-1.476 3.192-3.147 4.157-1.871 1.08-3.931 1.255-6.179.526-2.248-.73-3.999-2.18-5.253-4.352-3.762-6.516-3.062-13.715 2.1-21.597l3.99 2.51zm-18.345 10.591c-2.953 4.378-3.648 7.92-2.085 10.627 1.887-.822 3.75-.95 5.59-.387 1.841.564 3.224 1.647 4.15 3.251.984 1.705 1.254 3.465.81 5.28-.444 1.816-1.502 3.207-3.173 4.171-1.87 1.08-3.922 1.251-6.153.512-2.231-.739-3.974-2.194-5.228-4.367-3.762-6.516-3.079-13.705 2.05-21.567l4.039 2.48zM189 68.167c-4.707 2.315-7.061 5.036-7.061 8.161 2.006.231 3.665 1.051 4.977 2.46 1.312 1.408 1.968 3.038 1.968 4.89 0 1.968-.636 3.627-1.91 4.978-1.273 1.35-2.874 2.026-4.804 2.026-2.16 0-4.032-.878-5.614-2.634-1.582-1.755-2.373-3.887-2.373-6.395 0-7.524 4.206-13.409 12.618-17.653L189 68.167zm-21.183 0c-4.746 2.315-7.12 5.036-7.12 8.161 2.046.231 3.724 1.051 5.036 2.46 1.312 1.408 1.968 3.038 1.968 4.89 0 1.968-.646 3.627-1.939 4.978-1.293 1.35-2.903 2.026-4.833 2.026-2.16 0-4.022-.878-5.585-2.634-1.563-1.755-2.344-3.887-2.344-6.395 0-7.524 4.186-13.409 12.56-17.653l2.257 4.167zM245.636 58.815c-2.919 4.358-3.597 7.891-2.035 10.598 1.854-.803 3.7-.923 5.541-.359 1.84.564 3.223 1.648 4.15 3.252.983 1.704 1.262 3.46.834 5.265-.427 1.807-1.476 3.192-3.147 4.157-1.871 1.08-3.931 1.255-6.179.526-2.248-.73-3.999-2.18-5.253-4.352-3.762-6.516-3.062-13.715 2.1-21.597l3.99 2.51zm-18.345 10.591c-2.953 4.378-3.648 7.92-2.085 10.627 1.887-.822 3.75-.95 5.59-.387 1.841.564 3.224 1.647 4.15 3.251.984 1.705 1.254 3.465.81 5.28-.444 1.816-1.502 3.207-3.173 4.171-1.87 1.08-3.922 1.251-6.153.512-2.231-.739-3.974-2.194-5.228-4.367-3.762-6.516-3.079-13.705 2.05-21.567l4.039 2.48zM297.827 89.42c-4.234 3.098-6.08 6.185-5.537 9.263 2.016-.12 3.792.4 5.329 1.558 1.536 1.16 2.465 2.651 2.787 4.475.342 1.938.003 3.683-1.017 5.234-1.019 1.55-2.479 2.494-4.379 2.829-2.128.375-4.123-.165-5.986-1.619-1.863-1.454-3.012-3.416-3.447-5.886-1.307-7.41 1.813-13.935 9.36-19.576l2.89 3.722zM276.965 93.1c-4.272 3.104-6.136 6.195-5.594 9.273 2.055-.127 3.85.389 5.386 1.548 1.537 1.159 2.466 2.65 2.788 4.475.341 1.937-.007 3.684-1.046 5.238-1.038 1.554-2.507 2.5-4.407 2.834-2.128.375-4.114-.166-5.958-1.623-1.844-1.458-2.983-3.422-3.419-5.892-1.306-7.41 1.795-13.931 9.304-19.565l2.946 3.712zM324.827 49.42c-4.234 3.098-6.08 6.185-5.537 9.263 2.016-.12 3.792.4 5.329 1.558 1.536 1.16 2.465 2.651 2.787 4.475.342 1.938.003 3.683-1.017 5.234-1.019 1.55-2.479 2.494-4.379 2.829-2.128.375-4.123-.165-5.986-1.619-1.863-1.454-3.012-3.416-3.447-5.886-1.307-7.41 1.813-13.935 9.36-19.576l2.89 3.722zM303.965 53.1c-4.272 3.104-6.136 6.195-5.594 9.273 2.055-.127 3.85.389 5.386 1.548 1.537 1.159 2.466 2.65 2.788 4.475.341 1.937-.007 3.684-1.046 5.238-1.038 1.554-2.507 2.5-4.407 2.834-2.128.375-4.114-.166-5.958-1.623-1.844-1.458-2.983-3.422-3.419-5.892-1.306-7.41 1.795-13.931 9.304-19.565l2.946 3.712zM394.958 56.159c-2.448 4.64-2.753 8.224-.916 10.753 1.76-.993 3.584-1.304 5.473-.936 1.889.368 3.378 1.301 4.466 2.8 1.157 1.592 1.617 3.308 1.38 5.15-.235 1.84-1.134 3.328-2.695 4.462-1.748 1.27-3.778 1.66-6.09 1.17-2.311-.491-4.204-1.751-5.679-3.78-4.422-6.087-4.478-13.32-.168-21.698l4.229 2.079zM377.82 68.61c-2.479 4.663-2.8 8.258-.962 10.787 1.79-1.015 3.63-1.338 5.519-.97 1.89.368 3.378 1.302 4.467 2.8 1.156 1.592 1.609 3.314 1.357 5.167-.252 1.852-1.158 3.345-2.72 4.48-1.747 1.27-3.77 1.653-6.066 1.151-2.296-.501-4.181-1.767-5.655-3.796-4.423-6.087-4.495-13.308-.215-21.663l4.275 2.044zM485.064 69.533c-5.242.2-8.499 1.728-9.77 4.583 1.739 1.028 2.92 2.452 3.546 4.272.626 1.82.562 3.576-.191 5.268-.8 1.798-2.057 3.055-3.77 3.77-1.712.717-3.45.682-5.212-.103-1.974-.878-3.326-2.442-4.058-4.689-.73-2.247-.586-4.516.434-6.808 3.06-6.873 9.296-10.538 18.706-10.994l.315 4.701zm-19.352-8.616c-5.278.185-8.552 1.705-9.823 4.56 1.774 1.043 2.974 2.475 3.6 4.295.625 1.82.561 3.576-.192 5.268-.8 1.798-2.066 3.05-3.796 3.759-1.73.708-3.476.67-5.239-.115-1.974-.88-3.317-2.438-4.03-4.678-.714-2.24-.561-4.504.459-6.796 3.06-6.873 9.278-10.546 18.654-11.018l.367 4.725zM535.284 80.714c-4.858 1.98-7.396 4.53-7.614 7.648 1.986.37 3.584 1.305 4.794 2.801 1.21 1.496 1.751 3.168 1.622 5.016-.137 1.963-.888 3.574-2.252 4.832-1.365 1.259-3.01 1.82-4.934 1.686-2.155-.15-3.961-1.157-5.417-3.019-1.455-1.862-2.096-4.043-1.92-6.545.524-7.506 5.13-13.083 13.817-16.73l1.904 4.31zm-21.132-1.478c-4.896 1.978-7.453 4.526-7.671 7.644 2.024.374 3.641 1.309 4.851 2.805 1.21 1.497 1.752 3.169 1.622 5.016-.137 1.963-.897 3.573-2.281 4.83-1.384 1.257-3.038 1.819-4.962 1.684-2.156-.15-3.952-1.156-5.388-3.017-1.437-1.86-2.067-4.041-1.892-6.543.524-7.506 5.111-13.084 13.76-16.734l1.96 4.315zM587.958 77.159c-2.448 4.64-2.753 8.224-.916 10.753 1.76-.993 3.584-1.304 5.473-.936 1.889.368 3.378 1.301 4.466 2.8 1.157 1.592 1.617 3.308 1.38 5.15-.235 1.84-1.134 3.328-2.695 4.462-1.748 1.27-3.778 1.66-6.09 1.17-2.311-.491-4.204-1.751-5.679-3.78-4.422-6.087-4.478-13.32-.168-21.698l4.229 2.079zM570.82 89.61c-2.479 4.663-2.8 8.258-.962 10.787 1.79-1.015 3.63-1.338 5.519-.97 1.89.368 3.378 1.302 4.467 2.8 1.156 1.592 1.609 3.314 1.357 5.167-.252 1.852-1.158 3.345-2.72 4.48-1.747 1.27-3.77 1.653-6.066 1.151-2.296-.501-4.181-1.767-5.655-3.796-4.423-6.087-4.495-13.308-.215-21.663l4.275 2.044zM80.326 102.983c-5.215.566-8.357 2.317-9.426 5.254 1.806.903 3.085 2.241 3.836 4.014.75 1.772.81 3.528.176 5.268-.673 1.85-1.839 3.19-3.497 4.024-1.658.834-3.394.92-5.207.26-2.03-.738-3.489-2.203-4.375-4.394-.886-2.19-.9-4.464-.042-6.821 2.573-7.07 8.538-11.162 17.894-12.273l.641 4.668zM60.42 95.738c-5.251.552-8.411 2.297-9.48 5.234 1.842.917 3.139 2.261 3.89 4.033.751 1.773.81 3.529.176 5.27-.673 1.848-1.847 3.186-3.524 4.013-1.676.827-3.421.91-5.234.251-2.03-.739-3.48-2.2-4.348-4.385-.868-2.184-.873-4.455-.015-6.811 2.573-7.07 8.52-11.168 17.84-12.293l.695 4.688zM47.02 126.934c-3.631 3.786-4.913 7.147-3.844 10.084 1.965-.469 3.804-.266 5.519.609 1.714.875 2.888 2.182 3.522 3.923.673 1.849.642 3.626-.093 5.33-.734 1.705-2.008 2.887-3.821 3.547-2.03.739-4.09.554-6.176-.555-2.087-1.108-3.56-2.841-4.418-5.198-2.573-7.07-.633-14.038 5.82-20.903l3.491 3.163zm-19.905 7.245c-3.668 3.8-4.968 7.167-3.899 10.104 2-.482 3.859-.286 5.573.589 1.715.875 2.888 2.182 3.522 3.923.673 1.849.633 3.629-.12 5.34-.752 1.711-2.035 2.897-3.848 3.557-2.03.739-4.08.55-6.15-.565-2.068-1.115-3.531-2.851-4.39-5.208-2.573-7.07-.651-14.031 5.765-20.884l3.547 3.144zM110 135.167c-4.707 2.315-7.061 5.036-7.061 8.161 2.006.231 3.665 1.051 4.977 2.46 1.312 1.408 1.968 3.038 1.968 4.89 0 1.968-.636 3.627-1.91 4.978-1.273 1.35-2.874 2.026-4.804 2.026-2.16 0-4.032-.878-5.614-2.634-1.582-1.755-2.373-3.887-2.373-6.395 0-7.524 4.206-13.409 12.618-17.653l2.199 4.167zm-21.183 0c-4.746 2.315-7.12 5.036-7.12 8.161 2.046.231 3.724 1.051 5.036 2.46 1.312 1.408 1.968 3.038 1.968 4.89 0 1.968-.646 3.627-1.939 4.978-1.293 1.35-2.903 2.026-4.833 2.026-2.16 0-4.022-.878-5.585-2.634-1.563-1.755-2.344-3.887-2.344-6.395 0-7.524 4.186-13.409 12.56-17.653l2.257 4.167zM163.326 124.983c-5.215.566-8.357 2.317-9.426 5.254 1.806.903 3.085 2.241 3.836 4.014.75 1.772.81 3.528.176 5.268-.673 1.85-1.839 3.19-3.497 4.024-1.658.834-3.394.92-5.207.26-2.03-.738-3.489-2.203-4.375-4.394-.886-2.19-.9-4.464-.042-6.821 2.573-7.07 8.538-11.162 17.894-12.273l.641 4.668zm-19.906-7.245c-5.251.552-8.411 2.297-9.48 5.234 1.842.917 3.139 2.261 3.89 4.033.751 1.773.81 3.529.176 5.27-.673 1.848-1.847 3.186-3.524 4.013-1.676.827-3.421.91-5.234.251-2.03-.739-3.48-2.2-4.348-4.385-.868-2.184-.873-4.455-.015-6.811 2.573-7.07 8.52-11.168 17.84-12.293l.695 4.688zM217.326 116.983c-5.215.566-8.357 2.317-9.426 5.254 1.806.903 3.085 2.241 3.836 4.014.75 1.772.81 3.528.176 5.268-.673 1.85-1.839 3.19-3.497 4.024-1.658.834-3.394.92-5.207.26-2.03-.738-3.489-2.203-4.375-4.394-.886-2.19-.9-4.464-.042-6.821 2.573-7.07 8.538-11.162 17.894-12.273l.641 4.668zm-19.906-7.245c-5.251.552-8.411 2.297-9.48 5.234 1.842.917 3.139 2.261 3.89 4.033.751 1.773.81 3.529.176 5.27-.673 1.848-1.847 3.186-3.524 4.013-1.676.827-3.421.91-5.234.251-2.03-.739-3.48-2.2-4.348-4.385-.868-2.184-.873-4.455-.015-6.811 2.573-7.07 8.52-11.168 17.84-12.293l.695 4.688zM205.636 143.815c-2.919 4.358-3.597 7.891-2.035 10.598 1.854-.803 3.7-.923 5.541-.359 1.84.564 3.223 1.648 4.15 3.252.983 1.704 1.262 3.46.834 5.265-.427 1.807-1.476 3.192-3.147 4.157-1.871 1.08-3.931 1.255-6.179.526-2.248-.73-3.999-2.18-5.253-4.352-3.762-6.516-3.062-13.715 2.1-21.597l3.99 2.51zm-18.345 10.591c-2.953 4.378-3.648 7.92-2.085 10.627 1.887-.822 3.75-.95 5.59-.387 1.841.564 3.224 1.647 4.15 3.251.984 1.705 1.254 3.465.81 5.28-.444 1.816-1.502 3.207-3.173 4.171-1.87 1.08-3.922 1.251-6.153.512-2.231-.739-3.974-2.194-5.228-4.367-3.762-6.516-3.079-13.705 2.05-21.567l4.039 2.48zM265.636 125.815c-2.919 4.358-3.597 7.891-2.035 10.598 1.854-.803 3.7-.923 5.541-.359 1.84.564 3.223 1.648 4.15 3.252.983 1.704 1.262 3.46.834 5.265-.427 1.807-1.476 3.192-3.147 4.157-1.871 1.08-3.931 1.255-6.179.526-2.248-.73-3.999-2.18-5.253-4.352-3.762-6.516-3.062-13.715 2.1-21.597l3.99 2.51zm-18.345 10.591c-2.953 4.378-3.648 7.92-2.085 10.627 1.887-.822 3.75-.95 5.59-.387 1.841.564 3.224 1.647 4.15 3.251.984 1.705 1.254 3.465.81 5.28-.444 1.816-1.502 3.207-3.173 4.171-1.87 1.08-3.922 1.251-6.153.512-2.231-.739-3.974-2.194-5.228-4.367-3.762-6.516-3.079-13.705 2.05-21.567l4.039 2.48zM321.843 153.747c-4.799-2.118-8.396-2.173-10.79-.164 1.113 1.686 1.55 3.484 1.315 5.394-.235 1.91-1.062 3.46-2.481 4.651-1.508 1.265-3.188 1.844-5.04 1.737-1.854-.108-3.4-.9-4.64-2.378-1.39-1.655-1.92-3.653-1.592-5.994.328-2.34 1.453-4.316 3.374-5.928 5.764-4.837 12.975-5.397 21.633-1.682l-1.779 4.364zm-13.616-16.228c-4.824-2.147-8.433-2.217-10.827-.208 1.137 1.716 1.588 3.529 1.352 5.439-.236 1.91-1.063 3.46-2.482 4.65-1.507 1.266-3.193 1.837-5.059 1.715-1.865-.122-3.418-.922-4.658-2.4-1.39-1.655-1.913-3.646-1.573-5.971.34-2.326 1.471-4.295 3.393-5.907 5.763-4.836 12.962-5.411 21.595-1.726l-1.74 4.408zM344.44 80.04c-1.253 5.095-.682 8.646 1.712 10.655 1.467-1.388 3.162-2.132 5.084-2.232 1.922-.1 3.592.446 5.011 1.637 1.508 1.265 2.37 2.819 2.585 4.662.216 1.844-.296 3.504-1.536 4.982-1.389 1.656-3.264 2.525-5.626 2.608-2.362.084-4.503-.68-6.424-2.293-5.764-4.836-7.568-11.84-5.413-21.012l4.606.994zm-13.617 16.228c-1.277 5.124-.719 8.69 1.675 10.699 1.492-1.418 3.2-2.177 5.121-2.276 1.923-.1 3.593.446 5.012 1.636 1.507 1.265 2.363 2.826 2.566 4.685.204 1.858-.314 3.526-1.554 5.004-1.39 1.655-3.258 2.517-5.608 2.586-2.35.068-4.484-.703-6.406-2.316-5.763-4.836-7.58-11.825-5.45-20.968l4.644.95zM397.064 131.533c-5.242.2-8.499 1.728-9.77 4.583 1.739 1.028 2.92 2.452 3.546 4.272.626 1.82.562 3.576-.191 5.268-.8 1.798-2.057 3.055-3.77 3.77-1.712.717-3.45.682-5.212-.103-1.974-.878-3.326-2.442-4.058-4.689-.73-2.247-.586-4.516.434-6.808 3.06-6.873 9.296-10.538 18.706-10.994l.315 4.701zm-19.352-8.616c-5.278.185-8.552 1.705-9.823 4.56 1.774 1.043 2.974 2.475 3.6 4.295.625 1.82.561 3.576-.192 5.268-.8 1.798-2.066 3.05-3.796 3.759-1.73.708-3.476.67-5.239-.115-1.974-.88-3.317-2.438-4.03-4.678-.714-2.24-.561-4.504.459-6.796 3.06-6.873 9.278-10.546 18.654-11.018l.367 4.725zM448.064 107.533c-5.242.2-8.499 1.728-9.77 4.583 1.739 1.028 2.92 2.452 3.546 4.272.626 1.82.562 3.576-.191 5.268-.8 1.798-2.057 3.055-3.77 3.77-1.712.717-3.45.682-5.212-.103-1.974-.878-3.326-2.442-4.058-4.689-.73-2.247-.586-4.516.434-6.808 3.06-6.873 9.296-10.538 18.706-10.994l.315 4.701zm-19.352-8.616c-5.278.185-8.552 1.705-9.823 4.56 1.774 1.043 2.974 2.475 3.6 4.295.625 1.82.561 3.576-.192 5.268-.8 1.798-2.066 3.05-3.796 3.759-1.73.708-3.476.67-5.239-.115-1.974-.88-3.317-2.438-4.03-4.678-.714-2.24-.561-4.504.459-6.796 3.06-6.873 9.278-10.546 18.654-11.018l.367 4.725zM432.988 172.655c-4.145-3.216-7.621-4.14-10.43-2.77.671 1.906.661 3.756-.03 5.553-.69 1.796-1.868 3.1-3.532 3.913-1.769.862-3.54 1.017-5.311.465-1.772-.553-3.081-1.696-3.927-3.43-.947-1.942-.979-4.009-.094-6.2.884-2.192 2.454-3.837 4.708-4.937 6.763-3.298 13.895-2.097 21.397 3.602l-2.781 3.804zm-9.286-19.04c-4.162-3.25-7.647-4.19-10.456-2.82.689 1.939.687 3.807-.003 5.604-.691 1.796-1.869 3.1-3.533 3.912-1.77.863-3.544 1.01-5.324.44-1.78-.57-3.094-1.722-3.94-3.456-.947-1.942-.974-4-.08-6.175.892-2.174 2.466-3.81 4.72-4.91 6.762-3.298 13.886-2.115 21.372 3.55l-2.756 3.856zM487.958 108.159c-2.448 4.64-2.753 8.224-.916 10.753 1.76-.993 3.584-1.304 5.473-.936 1.889.368 3.378 1.301 4.466 2.8 1.157 1.592 1.617 3.308 1.38 5.15-.235 1.84-1.134 3.328-2.695 4.462-1.748 1.27-3.778 1.66-6.09 1.17-2.311-.491-4.204-1.751-5.679-3.78-4.422-6.087-4.478-13.32-.168-21.698l4.229 2.079zM470.82 120.61c-2.479 4.663-2.8 8.258-.962 10.787 1.79-1.015 3.63-1.338 5.519-.97 1.89.368 3.378 1.302 4.467 2.8 1.156 1.592 1.609 3.314 1.357 5.167-.252 1.852-1.158 3.345-2.72 4.48-1.747 1.27-3.77 1.653-6.066 1.151-2.296-.501-4.181-1.767-5.655-3.796-4.423-6.087-4.495-13.308-.215-21.663l4.275 2.044zM547.958 117.159c-2.448 4.64-2.753 8.224-.916 10.753 1.76-.993 3.584-1.304 5.473-.936 1.889.368 3.378 1.301 4.466 2.8 1.157 1.592 1.617 3.308 1.38 5.15-.235 1.84-1.134 3.328-2.695 4.462-1.748 1.27-3.778 1.66-6.09 1.17-2.311-.491-4.204-1.751-5.679-3.78-4.422-6.087-4.478-13.32-.168-21.698l4.229 2.079zM530.82 129.61c-2.479 4.663-2.8 8.258-.962 10.787 1.79-1.015 3.63-1.338 5.519-.97 1.89.368 3.378 1.302 4.467 2.8 1.156 1.592 1.609 3.314 1.357 5.167-.252 1.852-1.158 3.345-2.72 4.48-1.747 1.27-3.77 1.653-6.066 1.151-2.296-.501-4.181-1.767-5.655-3.796-4.423-6.087-4.495-13.308-.215-21.663l4.275 2.044z"/></g></svg>