<svg xmlns="http://www.w3.org/2000/svg" viewBox="0 0 605 180"><title>edit</title><g fill-rule="evenodd"><path d="M21.393 15.731L49.553-.526l13.76 23.832a3.482 3.482 0 0 1-1.278 4.757L36.893 42.578a3.483 3.483 0 0 1-4.758-1.272L20.116 20.488a3.482 3.482 0 0 1 1.277-4.757zM37.83 13.17l2.196-8.196 9.527-5.5 2.5 4.33-.732 2.732 10.421 18.051c.32.553.12 1.266-.424 1.58L35.61 41.01a1.16 1.16 0 0 1-1.58-.423L23.108 21.67l14.722-8.5zm-16.222 5.902a.998.998 0 0 1 .366-1.366.998.998 0 0 1 1.366.366.998.998 0 0 1-.366 1.366.998.998 0 0 1-1.366-.366zm3.464-2a.998.998 0 0 1 .366-1.366.998.998 0 0 1 1.366.366.998.998 0 0 1-.366 1.366.998.998 0 0 1-1.366-.366zm3.464-2a.998.998 0 0 1 .366-1.366.998.998 0 0 1 1.366.366.998.998 0 0 1-.366 1.366.998.998 0 0 1-1.366-.366z"/><path d="M44.399-1.015a4.219 4.219 0 0 1 6.298 4.158l-.618 2.305-8.068-2.161L42.63.98a4.2 4.2 0 0 1 1.77-1.996zm-8.565 27.353l2.336 7.42 5.733-5.258 5.713-21.323-8.068-2.162-5.714 21.323zm9.97-17.094L41.478 25.38l-1.986-.532 4.323-16.136 1.987.532zM66.554 37.341l32.022 5.646-4.779 27.101a3.482 3.482 0 0 1-4.036 2.823l-28.59-5.04a3.483 3.483 0 0 1-2.827-4.034l4.174-23.673a3.482 3.482 0 0 1 4.036-2.823zm14.238 8.603l6.951-4.867 10.833 1.91-.868 4.924-2.317 1.623-3.62 20.527a1.164 1.164 0 0 1-1.34.937l-29.234-5.154a1.16 1.16 0 0 1-.94-1.34l3.794-21.512 16.741 2.952zm-16.22-5.906a.998.998 0 0 1 1.158-.811c.544.096.908.61.811 1.158a.998.998 0 0 1-1.158.811.998.998 0 0 1-.812-1.158zm3.939.694a.998.998 0 0 1 1.158-.81c.544.095.908.61.811 1.158a.998.998 0 0 1-1.158.81.998.998 0 0 1-.811-1.158zm3.939.695a.998.998 0 0 1 1.158-.811c.544.096.908.61.812 1.158a.998.998 0 0 1-1.159.811.998.998 0 0 1-.811-1.158z"/><path d="M94.942 39.3a4.219 4.219 0 0 1 2.152 7.234l-1.955 1.369-4.791-6.842 1.955-1.37a4.2 4.2 0 0 1 2.64-.39zM70.8 54.75l-2.98 7.185 7.771-.343 18.083-12.662-4.791-6.842L70.799 54.75zm18.624-6.687L75.74 57.644l-1.18-1.685 13.685-9.582 1.18 1.685zM111.393 24.731l28.16-16.257 13.76 23.832a3.482 3.482 0 0 1-1.278 4.757l-25.142 14.515a3.483 3.483 0 0 1-4.758-1.272l-12.019-20.818a3.482 3.482 0 0 1 1.277-4.757zm16.437-2.561l2.196-8.196 9.527-5.5 2.5 4.33-.732 2.732 10.421 18.051c.32.553.12 1.266-.424 1.58L125.61 50.01a1.16 1.16 0 0 1-1.58-.423L113.108 30.67l14.722-8.5zm-16.222 5.902a.998.998 0 0 1 .366-1.366.998.998 0 0 1 1.366.366.998.998 0 0 1-.366 1.366.998.998 0 0 1-1.366-.366zm3.464-2a.998.998 0 0 1 .366-1.366.998.998 0 0 1 1.366.366.998.998 0 0 1-.366 1.366.998.998 0 0 1-1.366-.366zm3.464-2a.998.998 0 0 1 .366-1.366.998.998 0 0 1 1.366.366.998.998 0 0 1-.366 1.366.998.998 0 0 1-1.366-.366z"/><path d="M134.399 7.985a4.219 4.219 0 0 1 6.298 4.158l-.618 2.305-8.068-2.161.618-2.306a4.2 4.2 0 0 1 1.77-1.996zm-8.565 27.353l2.336 7.42 5.733-5.258 5.713-21.323-8.068-2.162-5.714 21.323zm9.97-17.094l-4.325 16.136-1.986-.532 4.323-16.136 1.987.532zM189.88 16.067l30.555 11.12-9.412 25.86a3.482 3.482 0 0 1-4.465 2.08l-27.28-9.93a3.483 3.483 0 0 1-2.084-4.462l8.222-22.589a3.482 3.482 0 0 1 4.465-2.08zm12.529 10.945l7.69-3.586 10.336 3.762-1.71 4.698-2.563 1.196-7.129 19.586c-.218.6-.892.906-1.483.69l-27.895-10.152a1.16 1.16 0 0 1-.692-1.482l7.47-20.527 15.976 5.815zm-14.95-8.634a.998.998 0 0 1 1.283-.597c.519.188.787.759.597 1.281a.998.998 0 0 1-1.281.598.998.998 0 0 1-.598-1.282zm3.76 1.368a.998.998 0 0 1 1.281-.597c.52.189.788.759.598 1.281a.998.998 0 0 1-1.282.598.998.998 0 0 1-.597-1.282zm3.758 1.368a.998.998 0 0 1 1.282-.597c.52.189.788.759.598 1.281a.998.998 0 0 1-1.282.598.998.998 0 0 1-.598-1.282z"/><path d="M217.497 22.926a4.219 4.219 0 0 1 .863 7.497l-2.163 1.009-3.53-7.57 2.163-1.009a4.2 4.2 0 0 1 2.667.073zm-26.459 11.021l-4.183 6.559 7.713 1.011 20.007-9.329-3.53-7.57-20.007 9.33zm19.503-3.351l-15.14 7.06-.87-1.864 15.14-7.06.87 1.864zM242.393 21.731l28.16-16.257 13.76 23.832a3.482 3.482 0 0 1-1.278 4.757l-25.142 14.515a3.483 3.483 0 0 1-4.758-1.272l-12.019-20.818a3.482 3.482 0 0 1 1.277-4.757zm16.437-2.561l2.196-8.196 9.527-5.5 2.5 4.33-.732 2.732 10.421 18.051c.32.553.12 1.266-.424 1.58L256.61 47.01a1.16 1.16 0 0 1-1.58-.423L244.108 27.67l14.722-8.5zm-16.222 5.902a.998.998 0 0 1 .366-1.366.998.998 0 0 1 1.366.366.998.998 0 0 1-.366 1.366.998.998 0 0 1-1.366-.366zm3.464-2a.998.998 0 0 1 .366-1.366.998.998 0 0 1 1.366.366.998.998 0 0 1-.366 1.366.998.998 0 0 1-1.366-.366zm3.464-2a.998.998 0 0 1 .366-1.366.998.998 0 0 1 1.366.366.998.998 0 0 1-.366 1.366.998.998 0 0 1-1.366-.366z"/><path d="M265.399 4.985a4.219 4.219 0 0 1 6.298 4.158l-.618 2.305-8.068-2.161.618-2.306a4.2 4.2 0 0 1 1.77-1.996zm-8.565 27.353l2.336 7.42 5.733-5.258 5.713-21.323-8.068-2.162-5.714 21.323zm9.97-17.094l-4.325 16.136-1.986-.532 4.323-16.136 1.987.532zM350.652 16.155l27.871 16.747-14.173 23.589a3.482 3.482 0 0 1-4.78 1.189l-24.884-14.953a3.483 3.483 0 0 1-1.194-4.778l12.38-20.605a3.482 3.482 0 0 1 4.78-1.189zM360.86 29.29l8.233-2.052 9.43 5.665-2.576 4.286-2.745.684-10.735 17.867a1.164 1.164 0 0 1-1.588.394l-25.444-15.288a1.16 1.16 0 0 1-.397-1.588l11.25-18.723 14.572 8.755zm-13.027-11.327a.998.998 0 0 1 1.373-.342.998.998 0 0 1 .342 1.372.998.998 0 0 1-1.373.342.998.998 0 0 1-.342-1.372zm3.429 2.06a.998.998 0 0 1 1.372-.342.998.998 0 0 1 .342 1.372.998.998 0 0 1-1.372.343.998.998 0 0 1-.342-1.373zm3.429 2.06a.998.998 0 0 1 1.372-.342.998.998 0 0 1 .342 1.373.998.998 0 0 1-1.372.342.998.998 0 0 1-.342-1.372z"/><path d="M376.452 28.158a4.219 4.219 0 0 1-.584 7.524l-2.315.577-2.02-8.104 2.315-.578a4.2 4.2 0 0 1 2.604.58zm-28.076 5.77l-5.357 5.64 7.378 2.465 21.42-5.34-2.022-8.105-21.419 5.34zm19.784.431l-16.21 4.042-.497-1.996 16.21-4.041.497 1.995zM407.783 34.923l22.587-23.39 19.795 19.117a3.482 3.482 0 0 1 .084 4.924l-20.167 20.883a3.483 3.483 0 0 1-4.924.089l-17.292-16.698a3.482 3.482 0 0 1-.083-4.925zm15.094-6.993l-.148-8.484 7.64-7.913 3.597 3.474.05 2.828 14.993 14.479c.46.443.465 1.183.028 1.636l-20.62 21.353a1.16 1.16 0 0 1-1.637.03l-15.713-15.174 11.81-12.229zm-13.968 10.145a.998.998 0 0 1-.024-1.414.998.998 0 0 1 1.414-.025.998.998 0 0 1 .024 1.414.998.998 0 0 1-1.414.025zm2.779-2.878a.998.998 0 0 1-.025-1.414.998.998 0 0 1 1.414-.024.998.998 0 0 1 .025 1.414.998.998 0 0 1-1.414.024zm2.779-2.877a.998.998 0 0 1-.025-1.414.998.998 0 0 1 1.414-.025.998.998 0 0 1 .025 1.414.998.998 0 0 1-1.414.025z"/><path d="M425.281 12.484a4.219 4.219 0 0 1 7.2 2.261l.042 2.386-8.352.146-.041-2.386a4.2 4.2 0 0 1 1.151-2.407zm-.693 28.654l4.29 6.49 4.061-6.635-.385-22.072-8.351.146.385 22.071zm4.87-19.18l.292 16.703-2.056.036-.292-16.703 2.057-.035zM488.027 22.282L514.333 3.17l16.175 22.263a3.482 3.482 0 0 1-.773 4.864l-23.486 17.064a3.483 3.483 0 0 1-4.866-.768l-14.129-19.447a3.482 3.482 0 0 1 .773-4.864zm16.08-4.266l1.327-8.38 8.899-6.466 2.939 4.045-.443 2.793 12.252 16.863a1.164 1.164 0 0 1-.257 1.616l-24.015 17.448a1.16 1.16 0 0 1-1.617-.255l-12.84-17.672 13.754-9.992zm-15.517 7.565a.998.998 0 0 1 .22-1.397.998.998 0 0 1 1.398.222.998.998 0 0 1-.222 1.397.998.998 0 0 1-1.396-.222zm3.236-2.35a.998.998 0 0 1 .22-1.398.998.998 0 0 1 1.398.222.998.998 0 0 1-.222 1.396.998.998 0 0 1-1.396-.22zm3.236-2.352a.998.998 0 0 1 .22-1.397.998.998 0 0 1 1.398.221.998.998 0 0 1-.222 1.397.998.998 0 0 1-1.396-.221z"/><path d="M509.156 3.222a4.219 4.219 0 0 1 6.698 3.477l-.373 2.357-8.25-1.306.373-2.357a4.2 4.2 0 0 1 1.552-2.17zm-5.658 28.099l3.098 7.135 5.152-5.829 3.453-21.803-8.25-1.306-3.453 21.803zm8.127-18.043l-2.613 16.5-2.032-.322 2.614-16.5 2.031.322zM550.433 30l26.957 18.183L562 70.997a3.482 3.482 0 0 1-4.835.937l-24.068-16.233a3.483 3.483 0 0 1-.942-4.835l13.442-19.928a3.482 3.482 0 0 1 4.835-.938zm9.508 13.65l8.33-1.618 9.119 6.15-2.796 4.146-2.776.54-11.656 17.28a1.164 1.164 0 0 1-1.607.311l-24.61-16.6a1.16 1.16 0 0 1-.312-1.605l12.215-18.11 14.093 9.507zm-12.416-11.993a.998.998 0 0 1 1.388-.27c.458.31.581.928.27 1.389a.998.998 0 0 1-1.388.27.998.998 0 0 1-.27-1.389zm3.316 2.237a.998.998 0 0 1 1.388-.27c.458.31.581.927.27 1.389a.998.998 0 0 1-1.388.27.998.998 0 0 1-.27-1.389zm3.316 2.237a.998.998 0 0 1 1.389-.27c.457.309.58.927.27 1.388a.998.998 0 0 1-1.389.27.998.998 0 0 1-.27-1.388z"/><path d="M575.57 43.337a4.219 4.219 0 0 1-.977 7.483l-2.342.455-1.594-8.199 2.343-.455a4.2 4.2 0 0 1 2.57.716zm-28.34 4.293l-5.645 5.352 7.24 2.847 21.669-4.212-1.594-8.2-21.67 4.213zm19.735 1.466l-16.399 3.187-.392-2.019 16.398-3.187.393 2.019zM13.88 57.067l30.555 11.12-9.412 25.86a3.482 3.482 0 0 1-4.465 2.08l-27.28-9.93a3.483 3.483 0 0 1-2.084-4.462l8.222-22.589a3.482 3.482 0 0 1 4.465-2.08zM26.41 68.012l7.69-3.586 10.336 3.762-1.71 4.698-2.563 1.196-7.129 19.586c-.218.6-.892.906-1.483.69L3.655 84.207a1.16 1.16 0 0 1-.692-1.482l7.47-20.527 15.976 5.815zm-14.95-8.634a.998.998 0 0 1 1.283-.597c.519.188.787.759.597 1.281a.998.998 0 0 1-1.281.598.998.998 0 0 1-.598-1.282zm3.76 1.368a.998.998 0 0 1 1.281-.597c.52.189.788.759.598 1.281a.998.998 0 0 1-1.282.598.998.998 0 0 1-.597-1.282zm3.758 1.368a.998.998 0 0 1 1.282-.597c.52.189.788.759.598 1.281a.998.998 0 0 1-1.282.598.998.998 0 0 1-.598-1.282z"/><path d="M41.497 63.926a4.219 4.219 0 0 1 .863 7.497l-2.163 1.009-3.53-7.57 2.163-1.009a4.2 4.2 0 0 1 2.667.073zM15.038 74.947l-4.183 6.559 7.713 1.011 20.007-9.329-3.53-7.57-20.007 9.33zm19.503-3.351l-15.14 7.06-.87-1.864 15.14-7.06.87 1.864zM101.393 79.731l28.16-16.257 13.76 23.832a3.482 3.482 0 0 1-1.278 4.757l-25.142 14.515a3.483 3.483 0 0 1-4.758-1.272l-12.019-20.818a3.482 3.482 0 0 1 1.277-4.757zm16.437-2.561l2.196-8.196 9.527-5.5 2.5 4.33-.732 2.732 10.421 18.051c.32.553.12 1.266-.424 1.58L115.61 105.01a1.16 1.16 0 0 1-1.58-.423L103.108 85.67l14.722-8.5zm-16.222 5.902a.998.998 0 0 1 .366-1.366.998.998 0 0 1 1.366.366.998.998 0 0 1-.366 1.366.998.998 0 0 1-1.366-.366zm3.464-2a.998.998 0 0 1 .366-1.366.998.998 0 0 1 1.366.366.998.998 0 0 1-.366 1.366.998.998 0 0 1-1.366-.366zm3.464-2a.998.998 0 0 1 .366-1.366.998.998 0 0 1 1.366.366.998.998 0 0 1-.366 1.366.998.998 0 0 1-1.366-.366z"/><path d="M124.399 62.985a4.219 4.219 0 0 1 6.298 4.158l-.618 2.305-8.068-2.161.618-2.306a4.2 4.2 0 0 1 1.77-1.996zm-8.565 27.353l2.336 7.42 5.733-5.258 5.713-21.323-8.068-2.162-5.714 21.323zm9.97-17.094l-4.325 16.136-1.986-.532 4.323-16.136 1.987.532zM156.485 62H189v27.52a3.482 3.482 0 0 1-3.485 3.48h-29.03A3.483 3.483 0 0 1 153 89.52V65.48a3.482 3.482 0 0 1 3.485-3.48zM172 68l6-6h11v5l-2 2v20.844c0 .638-.529 1.156-1.158 1.156h-29.684A1.16 1.16 0 0 1 155 89.844V68h17zm-17-3c0-.552.444-1 1-1 .552 0 1 .444 1 1 0 .552-.444 1-1 1-.552 0-1-.444-1-1zm4 0c0-.552.444-1 1-1 .552 0 1 .444 1 1 0 .552-.444 1-1 1-.552 0-1-.444-1-1zm4 0c0-.552.444-1 1-1 .552 0 1 .444 1 1 0 .552-.444 1-1 1-.552 0-1-.444-1-1z"/><path d="M184.781 59a4.219 4.219 0 0 1 3.375 6.75l-1.687 1.688-5.906-5.907 1.687-1.687a4.2 4.2 0 0 1 2.531-.844zm-21.094 19.406L162 86l7.594-1.688 15.61-15.609-5.907-5.906-15.61 15.61zm17.18-9.82L169.056 80.4l-1.454-1.454 11.812-11.813 1.455 1.455zM214.393 69.731l28.16-16.257 13.76 23.832a3.482 3.482 0 0 1-1.278 4.757l-25.142 14.515a3.483 3.483 0 0 1-4.758-1.272l-12.019-20.818a3.482 3.482 0 0 1 1.277-4.757zm16.437-2.561l2.196-8.196 9.527-5.5 2.5 4.33-.732 2.732 10.421 18.051c.32.553.12 1.266-.424 1.58L228.61 95.01a1.16 1.16 0 0 1-1.58-.423L216.108 75.67l14.722-8.5zm-16.222 5.902a.998.998 0 0 1 .366-1.366.998.998 0 0 1 1.366.366.998.998 0 0 1-.366 1.366.998.998 0 0 1-1.366-.366zm3.464-2a.998.998 0 0 1 .366-1.366.998.998 0 0 1 1.366.366.998.998 0 0 1-.366 1.366.998.998 0 0 1-1.366-.366zm3.464-2a.998.998 0 0 1 .366-1.366.998.998 0 0 1 1.366.366.998.998 0 0 1-.366 1.366.998.998 0 0 1-1.366-.366z"/><path d="M237.399 52.985a4.219 4.219 0 0 1 6.298 4.158l-.618 2.305-8.068-2.161.618-2.306a4.2 4.2 0 0 1 1.77-1.996zm-8.565 27.353l2.336 7.42 5.733-5.258 5.713-21.323-8.068-2.162-5.714 21.323zm9.97-17.094l-4.325 16.136-1.986-.532 4.323-16.136 1.987.532zM264.734 88.993l32.022-5.646 4.778 27.1a3.482 3.482 0 0 1-2.827 4.034l-28.59 5.041a3.483 3.483 0 0 1-4.036-2.823l-4.174-23.673a3.482 3.482 0 0 1 2.827-4.033zm16.322 3.215l4.867-6.951 10.833-1.91.868 4.924-1.622 2.317 3.619 20.527c.11.629-.32 1.23-.94 1.34l-29.233 5.154a1.16 1.16 0 0 1-1.34-.937l-3.794-21.512 16.742-2.952zm-17.263-.003a.998.998 0 0 1 .811-1.158.998.998 0 0 1 1.159.811.998.998 0 0 1-.811 1.158.998.998 0 0 1-1.159-.81zm3.94-.694a.998.998 0 0 1 .81-1.159.998.998 0 0 1 1.159.811.998.998 0 0 1-.811 1.159.998.998 0 0 1-1.159-.811zm3.939-.695a.998.998 0 0 1 .81-1.158.998.998 0 0 1 1.16.81.998.998 0 0 1-.812 1.16.998.998 0 0 1-1.158-.812z"/><path d="M292.08 81.125a4.219 4.219 0 0 1 4.496 6.061l-1.369 1.955-6.842-4.79 1.369-1.956a4.2 4.2 0 0 1 2.346-1.27zm-17.403 22.774l-.344 7.772 7.186-2.98 12.661-18.084-6.842-4.79-12.661 18.082zm15.214-12.654l-9.582 13.685-1.685-1.18 9.582-13.684 1.685 1.18zM291.734 48.993l32.022-5.646 4.778 27.1a3.482 3.482 0 0 1-2.827 4.034l-28.59 5.041a3.483 3.483 0 0 1-4.036-2.823l-4.174-23.673a3.482 3.482 0 0 1 2.827-4.033zm16.322 3.215l4.867-6.951 10.833-1.91.868 4.924-1.622 2.317 3.619 20.527c.11.629-.32 1.23-.94 1.34l-29.233 5.154a1.16 1.16 0 0 1-1.34-.937l-3.794-21.512 16.742-2.952zm-17.263-.003a.998.998 0 0 1 .811-1.158.998.998 0 0 1 1.159.811.998.998 0 0 1-.811 1.158.998.998 0 0 1-1.159-.81zm3.94-.694a.998.998 0 0 1 .81-1.159.998.998 0 0 1 1.159.811.998.998 0 0 1-.811 1.159.998.998 0 0 1-1.159-.811zm3.939-.695a.998.998 0 0 1 .81-1.158.998.998 0 0 1 1.16.81.998.998 0 0 1-.812 1.16.998.998 0 0 1-1.158-.812z"/><path d="M319.08 41.125a4.219 4.219 0 0 1 4.496 6.061l-1.369 1.955-6.842-4.79 1.369-1.956a4.2 4.2 0 0 1 2.346-1.27zm-17.403 22.774l-.344 7.772 7.186-2.98 12.661-18.084-6.842-4.79-12.661 18.082zm15.214-12.654l-9.582 13.685-1.685-1.18 9.582-13.684 1.685 1.18zM365.027 70.282l26.306-19.112 16.175 22.263a3.482 3.482 0 0 1-.773 4.864l-23.486 17.064a3.483 3.483 0 0 1-4.866-.768l-14.129-19.447a3.482 3.482 0 0 1 .773-4.864zm16.08-4.266l1.327-8.38 8.899-6.466 2.939 4.045-.443 2.793 12.252 16.863a1.164 1.164 0 0 1-.257 1.616l-24.015 17.448a1.16 1.16 0 0 1-1.617-.255l-12.84-17.672 13.754-9.992zm-15.517 7.565a.998.998 0 0 1 .22-1.397.998.998 0 0 1 1.398.222.998.998 0 0 1-.222 1.397.998.998 0 0 1-1.396-.222zm3.236-2.35a.998.998 0 0 1 .22-1.398.998.998 0 0 1 1.398.222.998.998 0 0 1-.222 1.396.998.998 0 0 1-1.396-.22zm3.236-2.352a.998.998 0 0 1 .22-1.397.998.998 0 0 1 1.398.221.998.998 0 0 1-.222 1.397.998.998 0 0 1-1.396-.221z"/><path d="M386.156 51.222a4.219 4.219 0 0 1 6.698 3.477l-.373 2.357-8.25-1.306.373-2.357a4.2 4.2 0 0 1 1.552-2.17zm-5.658 28.099l3.098 7.135 5.152-5.829 3.453-21.803-8.25-1.306-3.453 21.803zm8.127-18.043l-2.613 16.5-2.032-.322 2.614-16.5 2.031.322zM457.868 50.674l29.704 13.225-11.193 25.14a3.482 3.482 0 0 1-4.599 1.763l-26.521-11.808a3.483 3.483 0 0 1-1.768-4.597l9.778-21.96a3.482 3.482 0 0 1 4.599-1.763zM469.6 62.466l7.922-3.04 10.05 4.473-2.035 4.568-2.64 1.014-8.478 19.041c-.26.584-.953.842-1.528.586l-27.118-12.074a1.16 1.16 0 0 1-.587-1.527l8.884-19.956 15.53 6.915zm-14.31-9.655a.998.998 0 0 1 1.32-.507.998.998 0 0 1 .507 1.32.998.998 0 0 1-1.32.507.998.998 0 0 1-.507-1.32zm3.655 1.627a.998.998 0 0 1 1.32-.507.998.998 0 0 1 .507 1.32.998.998 0 0 1-1.32.507.998.998 0 0 1-.507-1.32zm3.654 1.627a.998.998 0 0 1 1.32-.507.998.998 0 0 1 .507 1.32.998.998 0 0 1-1.32.507.998.998 0 0 1-.507-1.32z"/><path d="M484.938 59.443a4.219 4.219 0 0 1 .338 7.539l-2.228.855-2.993-7.798 2.228-.855a4.2 4.2 0 0 1 2.655.259zm-27.163 9.149l-4.63 6.25 7.623 1.547 20.61-7.91-2.994-7.798-20.609 7.91zm19.689-1.983l-15.596 5.986-.737-1.92 15.596-5.986.737 1.92z"/><g><path d="M503.277 72.293l32.437 2.268-1.92 27.453a3.482 3.482 0 0 1-3.719 3.229l-28.96-2.025a3.483 3.483 0 0 1-3.233-3.716l1.677-23.98a3.482 3.482 0 0 1 3.718-3.229zm15.06 7.068l6.404-5.567 10.973.767-.35 4.988-2.134 1.856-1.454 20.793a1.164 1.164 0 0 1-1.235 1.073l-29.612-2.071a1.16 1.16 0 0 1-1.075-1.234l1.524-21.79 16.959 1.185zm-16.75-4.179a.998.998 0 0 1 1.068-.927c.55.038.966.512.927 1.067a.998.998 0 0 1-1.067.928.998.998 0 0 1-.928-1.068zm3.99.28a.998.998 0 0 1 1.068-.928c.55.038.966.512.928 1.067a.998.998 0 0 1-1.068.928.998.998 0 0 1-.927-1.068zm3.99.278a.998.998 0 0 1 1.068-.927c.551.038.967.512.928 1.067a.998.998 0 0 1-1.067.928.998.998 0 0 1-.928-1.068z"/><path d="M531.715 71.274a4.219 4.219 0 0 1 2.895 6.97l-1.8 1.565-5.48-6.304 1.8-1.565a4.2 4.2 0 0 1 2.585-.666zm-22.397 17.888l-2.213 7.458 7.693-1.154 16.66-14.483-5.48-6.303-16.66 14.482zm17.824-8.597l-12.608 10.96-1.35-1.553 12.609-10.96 1.349 1.553z"/></g><g><path d="M558.027 91.282l26.306-19.112 16.175 22.263a3.482 3.482 0 0 1-.773 4.864l-23.486 17.064a3.483 3.483 0 0 1-4.866-.768l-14.129-19.447a3.482 3.482 0 0 1 .773-4.864zm16.08-4.266l1.327-8.38 8.899-6.466 2.939 4.045-.443 2.793 12.252 16.863a1.164 1.164 0 0 1-.257 1.616l-24.015 17.448a1.16 1.16 0 0 1-1.617-.255l-12.84-17.672 13.754-9.992zm-15.517 7.565a.998.998 0 0 1 .22-1.397.998.998 0 0 1 1.398.222.998.998 0 0 1-.222 1.397.998.998 0 0 1-1.396-.222zm3.236-2.35a.998.998 0 0 1 .22-1.398.998.998 0 0 1 1.398.222.998.998 0 0 1-.222 1.396.998.998 0 0 1-1.396-.22zm3.236-2.352a.998.998 0 0 1 .22-1.397.998.998 0 0 1 1.398.221.998.998 0 0 1-.222 1.397.998.998 0 0 1-1.396-.221z"/><path d="M579.156 72.222a4.219 4.219 0 0 1 6.698 3.477l-.373 2.357-8.25-1.306.373-2.357a4.2 4.2 0 0 1 1.552-2.17zm-5.658 28.099l3.098 7.135 5.152-5.829 3.453-21.803-8.25-1.306-3.453 21.803zm8.127-18.043l-2.613 16.5-2.032-.322 2.614-16.5 2.031.322z"/></g><g><path d="M51.88 86.067l30.555 11.12-9.412 25.86a3.482 3.482 0 0 1-4.465 2.08l-27.28-9.93a3.483 3.483 0 0 1-2.084-4.462l8.222-22.589a3.482 3.482 0 0 1 4.465-2.08zM64.41 97.012l7.69-3.586 10.336 3.762-1.71 4.698-2.563 1.196-7.129 19.586c-.218.6-.892.906-1.483.69l-27.895-10.152a1.16 1.16 0 0 1-.692-1.482l7.47-20.527 15.976 5.815zm-14.95-8.634a.998.998 0 0 1 1.283-.597c.519.188.787.759.597 1.281a.998.998 0 0 1-1.281.598.998.998 0 0 1-.598-1.282zm3.76 1.368a.998.998 0 0 1 1.281-.597c.52.189.788.759.598 1.281a.998.998 0 0 1-1.282.598.998.998 0 0 1-.597-1.282zm3.758 1.368a.998.998 0 0 1 1.282-.597c.52.189.788.759.598 1.281a.998.998 0 0 1-1.282.598.998.998 0 0 1-.598-1.282z"/><path d="M79.497 92.926a4.219 4.219 0 0 1 .863 7.497l-2.163 1.009-3.53-7.57 2.163-1.009a4.2 4.2 0 0 1 2.667.073zm-26.459 11.021l-4.183 6.559 7.713 1.011 20.007-9.329-3.53-7.57-20.007 9.33zm19.503-3.351l-15.14 7.06-.87-1.864 15.14-7.06.87 1.864z"/></g><g><path d="M14.356 132.26l30.555-11.121 9.412 25.86a3.482 3.482 0 0 1-2.084 4.462l-27.28 9.93a3.483 3.483 0 0 1-4.465-2.08l-8.221-22.588a3.482 3.482 0 0 1 2.083-4.463zm16.632.331l3.586-7.69 10.337-3.762 1.71 4.698-1.195 2.564 7.129 19.586c.218.6-.102 1.268-.693 1.483l-27.894 10.153a1.16 1.16 0 0 1-1.483-.69l-7.471-20.527 15.974-5.815zm-17 2.996a.998.998 0 0 1 .597-1.282.998.998 0 0 1 1.282.598.998.998 0 0 1-.598 1.281.998.998 0 0 1-1.281-.597zm3.758-1.368a.998.998 0 0 1 .598-1.282.998.998 0 0 1 1.282.598.998.998 0 0 1-.598 1.281.998.998 0 0 1-1.282-.597zm3.76-1.368a.998.998 0 0 1 .597-1.282.998.998 0 0 1 1.281.597.998.998 0 0 1-.597 1.282.998.998 0 0 1-1.282-.597z"/><path d="M39.92 119.763a4.219 4.219 0 0 1 5.48 5.188l-1.008 2.163-7.57-3.53 1.009-2.163a4.2 4.2 0 0 1 2.09-1.658zm-13.184 25.45l1.012 7.713 6.558-4.183 9.33-20.007-7.57-3.53-9.33 20.007zm12.786-15.103l-7.06 15.14-1.864-.87 7.06-15.14 1.864.87z"/></g><g><path d="M77.485 129H110v27.52a3.482 3.482 0 0 1-3.485 3.48h-29.03A3.483 3.483 0 0 1 74 156.52v-24.04a3.482 3.482 0 0 1 3.485-3.48zM93 135l6-6h11v5l-2 2v20.844c0 .638-.529 1.156-1.158 1.156H77.158A1.16 1.16 0 0 1 76 156.844V135h17zm-17-3c0-.552.444-1 1-1 .552 0 1 .444 1 1 0 .552-.444 1-1 1-.552 0-1-.444-1-1zm4 0c0-.552.444-1 1-1 .552 0 1 .444 1 1 0 .552-.444 1-1 1-.552 0-1-.444-1-1zm4 0c0-.552.444-1 1-1 .552 0 1 .444 1 1 0 .552-.444 1-1 1-.552 0-1-.444-1-1z"/><path d="M105.781 126a4.219 4.219 0 0 1 3.375 6.75l-1.687 1.688-5.906-5.907 1.687-1.687a4.2 4.2 0 0 1 2.531-.844zm-21.094 19.406L83 153l7.594-1.688 15.61-15.609-5.907-5.906-15.61 15.61zm17.18-9.82L90.056 147.4l-1.454-1.454 11.812-11.813 1.455 1.455z"/></g><g><path d="M134.88 108.067l30.555 11.12-9.412 25.86a3.482 3.482 0 0 1-4.465 2.08l-27.28-9.93a3.483 3.483 0 0 1-2.084-4.462l8.222-22.589a3.482 3.482 0 0 1 4.465-2.08zm12.529 10.945l7.69-3.586 10.336 3.762-1.71 4.698-2.563 1.196-7.129 19.586c-.218.6-.892.906-1.483.69l-27.895-10.152a1.16 1.16 0 0 1-.692-1.482l7.47-20.527 15.976 5.815zm-14.95-8.634a.998.998 0 0 1 1.283-.597c.519.188.787.759.597 1.281a.998.998 0 0 1-1.281.598.998.998 0 0 1-.598-1.282zm3.76 1.368a.998.998 0 0 1 1.281-.597c.52.189.788.759.598 1.281a.998.998 0 0 1-1.282.598.998.998 0 0 1-.597-1.282zm3.758 1.368a.998.998 0 0 1 1.282-.597c.52.189.788.759.598 1.281a.998.998 0 0 1-1.282.598.998.998 0 0 1-.598-1.282z"/><path d="M162.497 114.926a4.219 4.219 0 0 1 .863 7.497l-2.163 1.009-3.53-7.57 2.163-1.009a4.2 4.2 0 0 1 2.667.073zm-26.459 11.021l-4.183 6.559 7.713 1.011 20.007-9.329-3.53-7.57-20.007 9.33zm19.503-3.351l-15.14 7.06-.87-1.864 15.14-7.06.87 1.864z"/></g><g><path d="M188.88 100.067l30.555 11.12-9.412 25.86a3.482 3.482 0 0 1-4.465 2.08l-27.28-9.93a3.483 3.483 0 0 1-2.084-4.462l8.222-22.589a3.482 3.482 0 0 1 4.465-2.08zm12.529 10.945l7.69-3.586 10.336 3.762-1.71 4.698-2.563 1.196-7.129 19.586c-.218.6-.892.906-1.483.69l-27.895-10.152a1.16 1.16 0 0 1-.692-1.482l7.47-20.527 15.976 5.815zm-14.95-8.634a.998.998 0 0 1 1.283-.597c.519.188.787.759.597 1.281a.998.998 0 0 1-1.281.598.998.998 0 0 1-.598-1.282zm3.76 1.368a.998.998 0 0 1 1.281-.597c.52.189.788.759.598 1.281a.998.998 0 0 1-1.282.598.998.998 0 0 1-.597-1.282zm3.758 1.368a.998.998 0 0 1 1.282-.597c.52.189.788.759.598 1.281a.998.998 0 0 1-1.282.598.998.998 0 0 1-.598-1.282z"/><path d="M216.497 106.926a4.219 4.219 0 0 1 .863 7.497l-2.163 1.009-3.53-7.57 2.163-1.009a4.2 4.2 0 0 1 2.667.073zm-26.459 11.021l-4.183 6.559 7.713 1.011 20.007-9.329-3.53-7.57-20.007 9.33zm19.503-3.351l-15.14 7.06-.87-1.864 15.14-7.06.87 1.864z"/></g><g><path d="M174.393 154.731l28.16-16.257 13.76 23.832a3.482 3.482 0 0 1-1.278 4.757l-25.142 14.515a3.483 3.483 0 0 1-4.758-1.272l-12.019-20.818a3.482 3.482 0 0 1 1.277-4.757zm16.437-2.561l2.196-8.196 9.527-5.5 2.5 4.33-.732 2.732 10.421 18.051c.32.553.12 1.266-.424 1.58L188.61 180.01a1.16 1.16 0 0 1-1.58-.423l-10.922-18.917 14.722-8.5zm-16.222 5.902a.998.998 0 0 1 .366-1.366.998.998 0 0 1 1.366.366.998.998 0 0 1-.366 1.366.998.998 0 0 1-1.366-.366zm3.464-2a.998.998 0 0 1 .366-1.366.998.998 0 0 1 1.366.366.998.998 0 0 1-.366 1.366.998.998 0 0 1-1.366-.366zm3.464-2a.998.998 0 0 1 .366-1.366.998.998 0 0 1 1.366.366.998.998 0 0 1-.366 1.366.998.998 0 0 1-1.366-.366z"/><path d="M197.399 137.985a4.219 4.219 0 0 1 6.298 4.158l-.618 2.305-8.068-2.161.618-2.306a4.2 4.2 0 0 1 1.77-1.996zm-8.565 27.353l2.336 7.42 5.733-5.258 5.713-21.323-8.068-2.162-5.714 21.323zm9.97-17.094l-4.325 16.136-1.986-.532 4.323-16.136 1.987.532z"/></g><g><path d="M234.393 136.731l28.16-16.257 13.76 23.832a3.482 3.482 0 0 1-1.278 4.757l-25.142 14.515a3.483 3.483 0 0 1-4.758-1.272l-12.019-20.818a3.482 3.482 0 0 1 1.277-4.757zm16.437-2.561l2.196-8.196 9.527-5.5 2.5 4.33-.732 2.732 10.421 18.051c.32.553.12 1.266-.424 1.58L248.61 162.01a1.16 1.16 0 0 1-1.58-.423l-10.922-18.917 14.722-8.5zm-16.222 5.902a.998.998 0 0 1 .366-1.366.998.998 0 0 1 1.366.366.998.998 0 0 1-.366 1.366.998.998 0 0 1-1.366-.366zm3.464-2a.998.998 0 0 1 .366-1.366.998.998 0 0 1 1.366.366.998.998 0 0 1-.366 1.366.998.998 0 0 1-1.366-.366zm3.464-2a.998.998 0 0 1 .366-1.366.998.998 0 0 1 1.366.366.998.998 0 0 1-.366 1.366.998.998 0 0 1-1.366-.366z"/><path d="M257.399 119.985a4.219 4.219 0 0 1 6.298 4.158l-.618 2.305-8.068-2.161.618-2.306a4.2 4.2 0 0 1 1.77-1.996zm-8.565 27.353l2.336 7.42 5.733-5.258 5.713-21.323-8.068-2.162-5.714 21.323zm9.97-17.094l-4.325 16.136-1.986-.532 4.323-16.136 1.987.532z"/></g><g><path d="M305.667 124.874l20.9 24.908-21.08 17.69a3.482 3.482 0 0 1-4.906-.433L281.92 144.8a3.483 3.483 0 0 1 .427-4.906l18.414-15.452a3.482 3.482 0 0 1 4.906.432zm5.377 15.742l8.453.74 7.07 8.426-3.83 3.214-2.817-.246-15.967 13.398c-.49.41-1.226.338-1.63-.144l-19.081-22.74a1.16 1.16 0 0 1 .142-1.63l16.733-14.04 10.927 13.022zm-8.63-14.95a.998.998 0 0 1 1.41.122.998.998 0 0 1-.124 1.41.998.998 0 0 1-1.408-.124.998.998 0 0 1 .123-1.409zm2.572 3.063a.998.998 0 0 1 1.409.124.998.998 0 0 1-.123 1.408.998.998 0 0 1-1.41-.123.998.998 0 0 1 .124-1.409zm2.571 3.065a.998.998 0 0 1 1.409.123.998.998 0 0 1-.123 1.409.998.998 0 0 1-1.41-.124.998.998 0 0 1 .124-1.408z"/><path d="M326.154 144.622a4.219 4.219 0 0 1-3.001 6.924l-2.378-.208.728-8.32 2.378.208a4.2 4.2 0 0 1 2.273 1.396zm-28.425-3.684l-6.902 3.588 6.174 4.732 21.991 1.924.728-8.32-21.99-1.924zm18.566 6.848l-16.642-1.456.18-2.048 16.641 1.456-.179 2.048z"/></g><g><path d="M318.814 100.985l20.9-24.909 21.082 17.69a3.482 3.482 0 0 1 .426 4.906l-18.66 22.24a3.483 3.483 0 0 1-4.907.43l-18.414-15.45a3.482 3.482 0 0 1-.427-4.907zm14.57-8.03l-.74-8.452 7.07-8.427 3.831 3.214.247 2.818 15.967 13.398c.489.41.546 1.148.141 1.63l-19.08 22.74a1.16 1.16 0 0 1-1.63.143l-16.734-14.04 10.928-13.023zm-13.226 11.095a.998.998 0 0 1-.123-1.409.998.998 0 0 1 1.409-.123c.423.355.48.983.123 1.409a.998.998 0 0 1-1.409.123zm2.571-3.064a.998.998 0 0 1-.123-1.409.998.998 0 0 1 1.409-.123c.423.355.48.983.123 1.409a.998.998 0 0 1-1.409.123zm2.571-3.064a.998.998 0 0 1-.123-1.409.998.998 0 0 1 1.41-.123c.422.355.48.983.122 1.409a.998.998 0 0 1-1.409.123z"/><path d="M334.705 77.38a4.219 4.219 0 0 1 7.34 1.753l.208 2.378-8.32.728-.209-2.378a4.2 4.2 0 0 1 .98-2.481zm1.307 28.633l4.733 6.173 3.588-6.901-1.924-21.991-8.32.728 1.923 21.99zm3.521-19.473l1.456 16.642-2.049.179-1.456-16.642 2.05-.18z"/></g><g><path d="M369.868 112.674l29.704 13.225-11.193 25.14a3.482 3.482 0 0 1-4.599 1.763l-26.521-11.808a3.483 3.483 0 0 1-1.768-4.597l9.778-21.96a3.482 3.482 0 0 1 4.599-1.763zm11.733 11.792l7.922-3.04 10.05 4.473-2.035 4.568-2.64 1.014-8.478 19.041c-.26.584-.953.842-1.528.586l-27.118-12.074a1.16 1.16 0 0 1-.587-1.527l8.884-19.956 15.53 6.915zm-14.31-9.655a.998.998 0 0 1 1.32-.507.998.998 0 0 1 .507 1.32.998.998 0 0 1-1.32.507.998.998 0 0 1-.507-1.32zm3.655 1.627a.998.998 0 0 1 1.32-.507.998.998 0 0 1 .507 1.32.998.998 0 0 1-1.32.507.998.998 0 0 1-.507-1.32zm3.654 1.627a.998.998 0 0 1 1.32-.507.998.998 0 0 1 .507 1.32.998.998 0 0 1-1.32.507.998.998 0 0 1-.507-1.32z"/><path d="M396.938 121.443a4.219 4.219 0 0 1 .338 7.539l-2.228.855-2.993-7.798 2.228-.855a4.2 4.2 0 0 1 2.655.259zm-27.163 9.149l-4.63 6.25 7.623 1.547 20.61-7.91-2.994-7.798-20.609 7.91zm19.689-1.983l-15.596 5.986-.737-1.92 15.596-5.986.737 1.92z"/></g><g><path d="M420.868 88.674l29.704 13.225-11.193 25.14a3.482 3.482 0 0 1-4.599 1.763l-26.521-11.808a3.483 3.483 0 0 1-1.768-4.597l9.778-21.96a3.482 3.482 0 0 1 4.599-1.763zm11.733 11.792l7.922-3.04 10.05 4.473-2.035 4.568-2.64 1.014-8.478 19.041c-.26.584-.953.842-1.528.586l-27.118-12.074a1.16 1.16 0 0 1-.587-1.527l8.884-19.956 15.53 6.915zm-14.31-9.655a.998.998 0 0 1 1.32-.507.998.998 0 0 1 .507 1.32.998.998 0 0 1-1.32.507.998.998 0 0 1-.507-1.32zm3.655 1.627a.998.998 0 0 1 1.32-.507.998.998 0 0 1 .507 1.32.998.998 0 0 1-1.32.507.998.998 0 0 1-.507-1.32zm3.654 1.627a.998.998 0 0 1 1.32-.507.998.998 0 0 1 .507 1.32.998.998 0 0 1-1.32.507.998.998 0 0 1-.507-1.32z"/><path d="M447.938 97.443a4.219 4.219 0 0 1 .338 7.539l-2.228.855-2.993-7.798 2.228-.855a4.2 4.2 0 0 1 2.655.259zm-27.163 9.149l-4.63 6.25 7.623 1.547 20.61-7.91-2.994-7.798-20.609 7.91zm19.689-1.983l-15.596 5.986-.737-1.92 15.596-5.986.737 1.92z"/></g><g><path d="M424.277 140.727l14.254 29.224-24.734 12.064a3.482 3.482 0 0 1-4.656-1.606l-12.727-26.093a3.483 3.483 0 0 1 1.601-4.658l21.606-10.537a3.482 3.482 0 0 1 4.656 1.606zm1.409 16.575l8.023 2.763 4.822 9.886-4.494 2.192-2.674-.92-18.735 9.137a1.164 1.164 0 0 1-1.546-.534l-13.013-26.68a1.16 1.16 0 0 1 .532-1.548l19.633-9.575 7.452 15.28zm-4.756-16.594a.998.998 0 0 1 1.337.46.998.998 0 0 1-.46 1.337.998.998 0 0 1-1.338-.46.998.998 0 0 1 .46-1.337zm1.753 3.595a.998.998 0 0 1 1.338.46.998.998 0 0 1-.46 1.337.998.998 0 0 1-1.338-.46.998.998 0 0 1 .46-1.337zm1.754 3.595a.998.998 0 0 1 1.337.46.998.998 0 0 1-.46 1.337.998.998 0 0 1-1.338-.46.998.998 0 0 1 .46-1.337z"/><path d="M439.378 164.844a4.219 4.219 0 0 1-4.587 5.993l-2.257-.777 2.72-7.898 2.256.777a4.2 4.2 0 0 1 1.868 1.905zm-26.69-10.451l-7.564 1.812 4.845 6.085 20.873 7.187 2.72-7.897-20.873-7.187zm16.358 11.137l-15.795-5.44.67-1.944 15.795 5.439-.67 1.945z"/></g><g><path d="M458.027 122.282l26.306-19.112 16.175 22.263a3.482 3.482 0 0 1-.773 4.864l-23.486 17.064a3.483 3.483 0 0 1-4.866-.768l-14.129-19.447a3.482 3.482 0 0 1 .773-4.864zm16.08-4.266l1.327-8.38 8.899-6.466 2.939 4.045-.443 2.793 12.252 16.863a1.164 1.164 0 0 1-.257 1.616l-24.015 17.448a1.16 1.16 0 0 1-1.617-.255l-12.84-17.672 13.754-9.992zm-15.517 7.565a.998.998 0 0 1 .22-1.397.998.998 0 0 1 1.398.222.998.998 0 0 1-.222 1.397.998.998 0 0 1-1.396-.222zm3.236-2.35a.998.998 0 0 1 .22-1.398.998.998 0 0 1 1.398.222.998.998 0 0 1-.222 1.396.998.998 0 0 1-1.396-.22zm3.236-2.352a.998.998 0 0 1 .22-1.397.998.998 0 0 1 1.398.221.998.998 0 0 1-.222 1.397.998.998 0 0 1-1.396-.221z"/><path d="M479.156 103.222a4.219 4.219 0 0 1 6.698 3.477l-.373 2.357-8.25-1.306.373-2.357a4.2 4.2 0 0 1 1.552-2.17zm-5.658 28.099l3.098 7.135 5.152-5.829 3.453-21.803-8.25-1.306-3.453 21.803zm8.127-18.043l-2.613 16.5-2.032-.322 2.614-16.5 2.031.322z"/></g><g><path d="M518.027 131.282l26.306-19.112 16.175 22.263a3.482 3.482 0 0 1-.773 4.864l-23.486 17.064a3.483 3.483 0 0 1-4.866-.768l-14.129-19.447a3.482 3.482 0 0 1 .773-4.864zm16.08-4.266l1.327-8.38 8.899-6.466 2.939 4.045-.443 2.793 12.252 16.863a1.164 1.164 0 0 1-.257 1.616l-24.015 17.448a1.16 1.16 0 0 1-1.617-.255l-12.84-17.672 13.754-9.992zm-15.517 7.565a.998.998 0 0 1 .22-1.397.998.998 0 0 1 1.398.222.998.998 0 0 1-.222 1.397.998.998 0 0 1-1.396-.222zm3.236-2.35a.998.998 0 0 1 .22-1.398.998.998 0 0 1 1.398.222.998.998 0 0 1-.222 1.396.998.998 0 0 1-1.396-.22zm3.236-2.352a.998.998 0 0 1 .22-1.397.998.998 0 0 1 1.398.221.998.998 0 0 1-.222 1.397.998.998 0 0 1-1.396-.221z"/><path d="M539.156 112.222a4.219 4.219 0 0 1 6.698 3.477l-.373 2.357-8.25-1.306.373-2.357a4.2 4.2 0 0 1 1.552-2.17zm-5.658 28.099l3.098 7.135 5.152-5.829 3.453-21.803-8.25-1.306-3.453 21.803zm8.127-18.043l-2.613 16.5-2.032-.322 2.614-16.5 2.031.322z"/></g></g></svg>