<svg xmlns="http://www.w3.org/2000/svg" viewBox="0 0 605 180"><title>enterprise</title><g fill-rule="evenodd"><path d="M50.958 36.768l-14.844 8.57c-.745.43-1.538.195-1.988-.584l-16.5-28.58c-.45-.779-.257-1.583.488-2.013l14.844-8.57c.745-.43 1.538-.196 1.988.584l16.5 28.579c.45.779.257 1.584-.488 2.014zm-15.35 6.553l13.856-8-16-27.713-13.856 8 16 27.713z"/><path d="M64.754 28.803l-12.99 7.5c-.78.45-1.6.23-2.05-.55l-12-20.784c-.45-.78-.23-1.6.55-2.05l12.99-7.5c.779-.45 1.599-.23 2.049.55l12 20.785c.45.779.23 1.599-.55 2.049zM51.196 34.32l12.125-7L51.82 7.4l-12.125 7 11.5 19.92zm-17.624-2.527l-8-13.856c-.2-.347-.154-1.066.366-1.366.52-.3 1.166.02 1.366.366l8 13.856c.2.347.153 1.066-.366 1.366-.52.3-1.166-.02-1.366-.366zm5.196-3l-8-13.856c-.2-.347-.154-1.066.366-1.366.52-.3 1.166.02 1.366.366l8 13.856c.2.347.154 1.066-.366 1.366-.52.3-1.166-.02-1.366-.366z"/><path d="M55.949 33.886c-.693.4-1.455.147-1.905-.632l-3-5.197c-.45-.78-.144-1.649.55-2.049l4.33-2.5c.692-.4 1.598-.23 2.048.55l3 5.196c.45.779.289 1.565-.404 1.965l-4.62 2.667zm-.173-1.632l3.464-2-2.75-4.764-3.464 2 2.75 4.764zM40.65 42.719c-.866.5-1.743.314-2.193-.465l-3-5.197c-.45-.78-.317-1.549.549-2.049l6.062-3.5c.866-.5 1.599-.23 2.049.55l3 5.196c.45.779.172 1.632-.694 2.132L40.65 42.72zm-.711-1.898l5.196-3-2.5-4.33-5.196 3 2.5 4.33zm5.722-24.089c-.404.234-1.066.154-1.366-.366-.3-.52-.038-1.133.366-1.366l5.196-3c.405-.234 1.066-.154 1.366.366.3.52.065 1.118-.366 1.366l-5.196 3zm3.5 6.062c-.404.234-1.066.154-1.366-.366-.3-.52-.038-1.132.366-1.366l5.196-3c.405-.233 1.066-.153 1.366.366.3.52.065 1.118-.366 1.366l-5.196 3zM75.68 72.46L58.8 69.482c-.846-.15-1.303-.84-1.147-1.726l5.73-32.498c.157-.886.822-1.378 1.669-1.23l16.88 2.977c.847.15 1.304.84 1.147 1.726L77.35 71.23c-.156.887-.822 1.379-1.669 1.23zm-15.97-4.848l15.756 2.779 5.557-31.514-15.757-2.778-5.557 31.513z"/><path d="M91.368 75.226L76.596 72.62c-.886-.156-1.373-.852-1.217-1.738l4.168-23.635c.156-.887.851-1.373 1.738-1.217l14.772 2.605c.886.156 1.373.851 1.217 1.737L93.106 74.01c-.156.886-.851 1.373-1.738 1.217zm-13.932-4.488l13.787 2.431 3.994-22.65-13.787-2.432-3.994 22.651zM65.559 57.474l2.778-15.757c.07-.394.568-.915 1.159-.811.59.104.88.765.81 1.158l-2.778 15.757c-.07.394-.567.916-1.158.812-.591-.105-.88-.765-.811-1.159zm5.909 1.042l2.778-15.757c.07-.394.567-.915 1.158-.811.591.104.881.764.812 1.158l-2.779 15.757c-.07.394-.567.916-1.158.811-.591-.104-.88-.764-.811-1.158z"/><path d="M81.356 73.46c-.788-.139-1.209-.822-1.053-1.709l1.042-5.908c.157-.887.95-1.356 1.738-1.217l4.924.868c.788.139 1.373.851 1.217 1.738l-1.042 5.909c-.156.886-.785 1.384-1.573 1.245l-5.253-.926zm.917-1.361l3.94.694.954-5.416-3.939-.695-.955 5.417zm-18.315-1.707c-.985-.173-1.537-.88-1.381-1.766l1.042-5.91c.156-.885.753-1.39 1.738-1.216l6.893 1.216c.985.173 1.373.851 1.217 1.737l-1.042 5.91c-.156.886-.917 1.36-1.902 1.187l-6.565-1.158zm.675-1.911l5.91 1.042.867-4.925-5.908-1.041-.869 4.924zm19.868-14.775c-.46-.081-.916-.567-.811-1.158.104-.591.698-.893 1.158-.812l5.909 1.042c.46.081.915.568.811 1.159-.104.59-.669.897-1.158.811l-5.91-1.042zM83.285 60.6c-.46-.081-.915-.568-.81-1.159.103-.59.698-.892 1.158-.81l5.908 1.041c.46.081.916.568.812 1.158-.105.591-.67.898-1.159.812L83.285 60.6zM140.958 45.768l-14.844 8.57c-.745.43-1.538.195-1.988-.584l-16.5-28.58c-.45-.779-.257-1.583.488-2.013l14.844-8.57c.745-.43 1.538-.196 1.988.584l16.5 28.579c.45.779.257 1.584-.488 2.014zm-15.35 6.553l13.856-8-16-27.713-13.856 8 16 27.713z"/><path d="M154.754 37.803l-12.99 7.5c-.78.45-1.6.23-2.05-.55l-12-20.784c-.45-.78-.23-1.6.55-2.05l12.99-7.5c.779-.45 1.599-.23 2.049.55l12 20.785c.45.779.23 1.599-.55 2.049zm-13.558 5.518l12.125-7-11.5-19.92-12.125 7 11.5 19.92zm-17.624-2.527l-8-13.856c-.2-.347-.154-1.066.366-1.366.52-.3 1.166.02 1.366.366l8 13.856c.2.347.153 1.066-.366 1.366-.52.3-1.166-.02-1.366-.366zm5.196-3l-8-13.856c-.2-.347-.154-1.066.366-1.366.52-.3 1.166.02 1.366.366l8 13.856c.2.347.154 1.066-.366 1.366-.52.3-1.166-.02-1.366-.366z"/><path d="M145.949 42.886c-.693.4-1.455.147-1.905-.632l-3-5.197c-.45-.78-.144-1.649.55-2.049l4.33-2.5c.692-.4 1.598-.23 2.048.55l3 5.196c.45.779.289 1.565-.404 1.965l-4.62 2.667zm-.173-1.632l3.464-2-2.75-4.764-3.464 2 2.75 4.764zM130.65 51.719c-.866.5-1.743.314-2.193-.465l-3-5.197c-.45-.78-.317-1.549.549-2.049l6.062-3.5c.866-.5 1.599-.23 2.049.55l3 5.196c.45.779.172 1.632-.694 2.132l-5.773 3.333zm-.711-1.898l5.196-3-2.5-4.33-5.196 3 2.5 4.33zm5.722-24.089c-.404.234-1.066.154-1.366-.366-.3-.52-.038-1.133.366-1.366l5.196-3c.405-.234 1.066-.154 1.366.366.3.52.065 1.118-.366 1.366l-5.196 3zm3.5 6.062c-.404.234-1.066.154-1.366-.366-.3-.52-.038-1.132.366-1.366l5.196-3c.405-.233 1.066-.153 1.366.366.3.52.065 1.118-.366 1.366l-5.196 3zM192.77 52.236l-16.106-5.862c-.809-.294-1.139-1.053-.831-1.899l11.287-31.01c.307-.845 1.048-1.214 1.856-.92l16.107 5.862c.808.294 1.138 1.053.83 1.899l-11.286 31.01c-.308.846-1.049 1.214-1.857.92zm-14.887-7.546l15.035 5.472 10.945-30.07-15.035-5.473-10.945 30.07z"/><path d="M207.74 57.685l-14.096-5.13c-.846-.308-1.204-1.077-.897-1.923l8.209-22.553c.308-.846 1.077-1.204 1.922-.896l14.096 5.13c.846.308 1.204 1.077.896 1.923l-8.208 22.552c-.308.846-1.077 1.204-1.923.897zm-12.942-6.839l13.155 4.788 7.867-21.613-13.156-4.788-7.866 21.613zm-9.394-15.125l5.473-15.035c.136-.376.717-.803 1.281-.598.564.206.735.906.598 1.282l-5.472 15.035c-.137.376-.718.803-1.282.598-.564-.205-.735-.906-.598-1.282zm5.638 2.052l5.473-15.035c.137-.376.718-.803 1.281-.598.564.206.735.906.598 1.282l-5.472 15.035c-.137.376-.718.803-1.282.598-.564-.205-.734-.906-.598-1.282z"/><path d="M198.185 54.207c-.751-.273-1.047-1.02-.74-1.865l2.053-5.638c.308-.846 1.17-1.17 1.923-.897l4.698 1.71c.752.274 1.204 1.077.896 1.923l-2.052 5.638c-.307.846-1.014 1.227-1.765.954l-5.013-1.825zm1.14-1.181l3.759 1.368 1.881-5.168-3.759-1.368-1.88 5.168zm-17.74-4.86c-.94-.343-1.361-1.135-1.054-1.98l2.052-5.639c.308-.845.983-1.238 1.923-.896l6.578 2.394c.94.342 1.204 1.077.896 1.923l-2.052 5.638c-.308.845-1.14 1.181-2.08.84l-6.263-2.28zm.997-1.766l5.638 2.052 1.71-4.699-5.638-2.052-1.71 4.699zm22.13-11.1c-.438-.16-.802-.718-.597-1.282.205-.564.843-.758 1.282-.598l5.638 2.052c.439.16.803.718.598 1.282a1.004 1.004 0 0 1-1.282.598l-5.638-2.052zm-2.393 6.577c-.44-.16-.803-.717-.598-1.281.205-.564.843-.758 1.282-.598l5.638 2.052c.439.16.803.718.598 1.282a1.004 1.004 0 0 1-1.282.598l-5.638-2.053zM271.958 42.768l-14.844 8.57c-.745.43-1.538.195-1.988-.584l-16.5-28.58c-.45-.779-.257-1.583.488-2.013l14.844-8.57c.745-.43 1.538-.196 1.988.584l16.5 28.579c.45.779.257 1.584-.488 2.014zm-15.35 6.553l13.856-8-16-27.713-13.856 8 16 27.713z"/><path d="M285.754 34.803l-12.99 7.5c-.78.45-1.6.23-2.05-.55l-12-20.784c-.45-.78-.23-1.6.55-2.05l12.99-7.5c.779-.45 1.599-.23 2.049.55l12 20.785c.45.779.23 1.599-.55 2.049zm-13.558 5.518l12.125-7-11.5-19.92-12.125 7 11.5 19.92zm-17.624-2.527l-8-13.856c-.2-.347-.154-1.066.366-1.366.52-.3 1.166.02 1.366.366l8 13.856c.2.347.153 1.066-.366 1.366-.52.3-1.166-.02-1.366-.366zm5.196-3l-8-13.856c-.2-.347-.154-1.066.366-1.366.52-.3 1.166.02 1.366.366l8 13.856c.2.347.154 1.066-.366 1.366-.52.3-1.166-.02-1.366-.366z"/><path d="M276.949 39.886c-.693.4-1.455.147-1.905-.632l-3-5.197c-.45-.78-.144-1.649.55-2.049l4.33-2.5c.692-.4 1.598-.23 2.048.55l3 5.196c.45.779.289 1.565-.404 1.965l-4.62 2.667zm-.173-1.632l3.464-2-2.75-4.764-3.464 2 2.75 4.764zM261.65 48.719c-.866.5-1.743.314-2.193-.465l-3-5.197c-.45-.78-.317-1.549.549-2.049l6.062-3.5c.866-.5 1.599-.23 2.049.55l3 5.196c.45.779.172 1.632-.694 2.132l-5.773 3.333zm-.711-1.898l5.196-3-2.5-4.33-5.196 3 2.5 4.33zm5.722-24.089c-.404.234-1.066.154-1.366-.366-.3-.52-.038-1.133.366-1.366l5.196-3c.405-.234 1.066-.154 1.366.366.3.52.065 1.118-.366 1.366l-5.196 3zm3.5 6.062c-.404.234-1.066.154-1.366-.366-.3-.52-.038-1.132.366-1.366l5.196-3c.405-.233 1.066-.153 1.366.366.3.52.065 1.118-.366 1.366l-5.196 3zM346.586 52.211l-14.691-8.827c-.738-.443-.917-1.251-.454-2.023l16.997-28.286c.463-.772 1.26-.992 1.998-.55l14.692 8.828c.737.443.917 1.251.453 2.023l-16.996 28.286c-.464.772-1.261.992-1.999.55zm-13.173-10.248l13.715 8.24 16.481-27.429-13.715-8.24-16.48 27.429z"/><path d="M360.241 60.416l-12.857-7.726c-.772-.463-.977-1.286-.514-2.058l12.361-20.572c.464-.771 1.287-.977 2.059-.513l12.857 7.725c.772.464.977 1.287.513 2.059L362.3 59.903c-.464.771-1.287.976-2.059.513zm-11.399-9.182l12 7.21 11.846-19.715-12-7.21-11.846 19.715zm-6.335-16.64l8.24-13.714c.207-.343.859-.652 1.373-.343.514.31.548 1.03.342 1.373l-8.24 13.714c-.206.343-.858.651-1.373.342-.514-.309-.548-1.029-.342-1.372zm5.143 3.09l8.24-13.714c.207-.343.859-.651 1.373-.342s.548 1.029.342 1.372l-8.24 13.715c-.206.342-.858.65-1.373.342-.514-.31-.548-1.03-.342-1.373z"/><path d="M351.526 55.18c-.685-.412-.833-1.201-.37-1.973l3.09-5.143c.464-.771 1.373-.925 2.059-.513l4.286 2.575c.685.412.976 1.287.513 2.059l-3.09 5.143c-.464.771-1.23 1.01-1.916.599l-4.572-2.747zm1.345-.943l3.428 2.06 2.833-4.714-3.429-2.06-2.832 4.714zm-16.487-8.156c-.858-.515-1.12-1.373-.657-2.144l3.09-5.143c.464-.772 1.202-1.029 2.059-.514l6 3.606c.857.515.977 1.287.513 2.058l-3.09 5.143c-.464.771-1.344.942-2.202.427l-5.713-3.433zm1.315-1.543l5.143 3.09 2.575-4.286-5.143-3.09-2.575 4.286zm23.843-6.673c-.4-.24-.652-.858-.343-1.372.31-.515.972-.583 1.373-.343l5.143 3.09c.4.241.65.859.342 1.373a1.004 1.004 0 0 1-1.372.342l-5.143-3.09zm-3.606 6c-.4-.24-.65-.858-.342-1.372.31-.515.972-.583 1.372-.342l5.143 3.09c.4.24.652.858.343 1.372a1.004 1.004 0 0 1-1.373.342l-5.143-3.09zM442 46.995l-11.906 12.33c-.598.618-1.425.611-2.073-.014l-23.738-22.923c-.647-.626-.683-1.452-.086-2.071l11.907-12.33c.597-.618 1.425-.611 2.072.014l23.738 22.923c.648.626.683 1.452.086 2.071zm-12.95 10.53l11.115-11.51-23.018-22.228-11.115 11.51 23.019 22.228z"/><path d="M453.066 35.536l-10.42 10.79c-.625.648-1.473.662-2.12.037L423.26 29.691c-.647-.625-.662-1.473-.037-2.12l10.42-10.79c.625-.648 1.473-.663 2.12-.038l17.265 16.672c.647.625.662 1.474.037 2.121zm-11.511 9.041l9.725-10.07-16.545-15.978L425.01 28.6l16.545 15.977zm-17.638 2.43l-11.51-11.115c-.287-.278-.441-.982-.024-1.414.416-.431 1.126-.302 1.414-.025l11.51 11.115c.287.278.44.982.024 1.414-.417.432-1.126.303-1.414.025zm4.168-4.316l-11.51-11.115c-.287-.278-.441-.982-.024-1.414.416-.432 1.126-.302 1.414-.025l11.51 11.115c.287.278.44.982.024 1.414-.417.432-1.127.302-1.414.025z"/><path d="M446.003 42.85c-.555.575-1.357.542-2.005-.084l-4.316-4.168c-.647-.625-.592-1.545-.037-2.12l3.474-3.597c.555-.576 1.473-.662 2.12-.037l4.317 4.168c.647.625.708 1.425.153 2l-3.706 3.838zm-.615-1.522l2.778-2.878-3.956-3.82-2.779 2.877 3.957 3.82zm-11.656 14.23c-.695.719-1.59.782-2.237.157l-4.316-4.168c-.648-.626-.732-1.402-.038-2.121l4.863-5.036c.695-.72 1.474-.662 2.121-.037l4.316 4.168c.648.625.616 1.522-.079 2.241l-4.63 4.795zm-1.208-1.63l4.168-4.315-3.597-3.474-4.168 4.316 3.597 3.474zm-1.139-24.732c-.324.336-.982.441-1.414.025-.431-.417-.349-1.078-.024-1.414l4.168-4.316c.324-.336.982-.442 1.414-.025.431.417.37 1.056.024 1.414l-4.168 4.316zm5.036 4.863c-.325.335-.983.441-1.414.024-.432-.417-.35-1.078-.025-1.414l4.168-4.316c.324-.336.982-.441 1.414-.025.432.417.37 1.057.025 1.414l-4.168 4.317zM519.628 40.112l-13.866 10.075c-.696.505-1.51.355-2.039-.373l-19.397-26.698c-.529-.728-.42-1.548.276-2.054l13.866-10.074c.696-.506 1.51-.356 2.039.373l19.397 26.697c.529.728.42 1.549-.276 2.054zm-14.58 8.122l12.944-9.405-18.81-25.888-12.944 9.404 18.81 25.889z"/><path d="M532.516 30.749l-12.135 8.817c-.728.529-1.566.396-2.095-.332l-14.107-19.417c-.53-.728-.396-1.566.332-2.095l12.135-8.817c.728-.529 1.566-.396 2.095.332l14.107 19.417c.529.728.396 1.566-.332 2.095zm-12.906 6.905l11.326-8.23-13.519-18.607-11.326 8.23 13.519 18.607zm-17.792-.67l-9.405-12.945c-.235-.323-.264-1.044.222-1.397.485-.352 1.161-.102 1.396.222l9.405 12.944c.235.323.264 1.044-.221 1.397-.486.352-1.162.102-1.397-.222zm4.854-3.527l-9.405-12.945c-.235-.323-.264-1.044.222-1.396.485-.353 1.161-.103 1.397.22l9.404 12.945c.235.324.264 1.044-.221 1.397-.486.353-1.162.102-1.397-.221z"/><path d="M524.29 36.725c-.646.47-1.43.298-1.96-.43l-3.526-4.854c-.529-.728-.315-1.625.332-2.096l4.045-2.938c.647-.47 1.566-.397 2.095.331l3.527 4.854c.529.729.45 1.527-.197 1.998l-4.315 3.135zm-.341-1.606l3.236-2.35-3.233-4.45-3.236 2.35 3.233 4.45zm-13.95 11.99c-.81.587-1.702.494-2.23-.234l-3.527-4.854c-.53-.728-.477-1.508.332-2.095l5.663-4.115c.809-.588 1.566-.396 2.095.332l3.527 4.854c.529.728.342 1.606-.467 2.193l-5.393 3.919zm-.906-1.814l4.854-3.527-2.94-4.045-4.853 3.527 2.939 4.045zm3.173-24.555c-.378.275-1.044.264-1.397-.221s-.157-1.122.221-1.397l4.854-3.527c.378-.274 1.044-.264 1.397.222.353.485.18 1.104-.221 1.396l-4.854 3.527zm4.114 5.663c-.378.275-1.044.264-1.397-.22-.352-.486-.156-1.123.222-1.398l4.854-3.526c.378-.275 1.044-.265 1.397.22.352.486.18 1.105-.222 1.398l-4.854 3.526zM544.486 65.794l-14.21-9.584c-.712-.481-.85-1.297-.346-2.043l18.453-27.359c.504-.746 1.312-.924 2.025-.444l14.21 9.585c.712.48.85 1.297.346 2.043L546.511 65.35c-.504.747-1.312.925-2.025.444zM531.868 54.87l13.264 8.948 17.894-26.53-13.264-8.947-17.894 26.53z"/><path d="M557.693 74.702l-12.436-8.388c-.746-.503-.908-1.336-.404-2.082l13.42-19.897c.504-.746 1.337-.908 2.083-.405l12.435 8.388c.746.504.908 1.336.405 2.083l-13.42 19.897c-.504.746-1.337.908-2.083.404zm-10.903-9.766l11.607 7.829 12.861-19.068-11.606-7.829-12.862 19.068zm-5.455-16.948l8.947-13.265c.224-.331.89-.605 1.388-.27.498.336.494 1.057.27 1.389l-8.947 13.264c-.224.332-.89.606-1.388.27-.498-.335-.494-1.057-.27-1.388zm4.974 3.355l8.947-13.265c.224-.331.891-.605 1.389-.27.497.336.493 1.057.27 1.389l-8.948 13.264c-.223.332-.89.606-1.388.27-.497-.335-.493-1.056-.27-1.388z"/><path d="M549.264 69.017c-.663-.447-.77-1.243-.266-1.989l3.355-4.974c.503-.746 1.42-.852 2.082-.405l4.146 2.796c.663.447.908 1.336.404 2.082l-3.355 4.975c-.503.746-1.28.945-1.944.498l-4.422-2.983zm1.392-.87l3.316 2.236 3.076-4.56-3.316-2.236-3.076 4.56zm-16.038-9.009c-.829-.559-1.046-1.43-.543-2.175l3.355-4.975c.504-.746 1.254-.964 2.083-.404l5.803 3.914c.829.56.908 1.336.405 2.082l-3.355 4.974c-.504.747-1.392.871-2.221.312l-5.527-3.728zm1.395-1.472l4.974 3.356 2.796-4.146-4.974-3.355-2.796 4.145zm24.159-5.416c-.387-.261-.605-.89-.27-1.388.336-.498 1.001-.531 1.388-.27l4.975 3.355c.387.261.605.89.27 1.388a1.004 1.004 0 0 1-1.389.27l-4.974-3.355zm-3.914 5.803c-.388-.26-.606-.89-.27-1.388.335-.497 1-.531 1.388-.27l4.974 3.355c.387.261.606.891.27 1.389a1.004 1.004 0 0 1-1.388.27l-4.974-3.356zM16.77 93.236L.664 87.374c-.809-.294-1.139-1.053-.831-1.899l11.287-31.01c.307-.845 1.048-1.214 1.856-.92l16.107 5.862c.808.294 1.138 1.053.83 1.899l-11.286 31.01c-.308.846-1.049 1.214-1.857.92zM1.883 85.69l15.035 5.472 10.945-30.07-15.035-5.473L1.883 85.69z"/><path d="M31.74 98.685l-14.096-5.13c-.846-.308-1.204-1.077-.897-1.923l8.209-22.553c.308-.846 1.077-1.204 1.922-.896l14.096 5.13c.846.308 1.204 1.077.896 1.923l-8.208 22.552c-.308.846-1.077 1.204-1.923.897zm-12.942-6.839l13.155 4.788 7.867-21.613-13.156-4.788-7.866 21.613zM9.404 76.721l5.473-15.035c.136-.376.717-.803 1.281-.598.564.206.735.906.598 1.282l-5.472 15.035c-.137.376-.718.803-1.282.598-.564-.205-.735-.906-.598-1.282zm5.638 2.052l5.473-15.035c.137-.376.718-.803 1.281-.598.564.206.735.906.598 1.282l-5.472 15.035c-.137.376-.718.803-1.282.598-.564-.205-.734-.906-.598-1.282z"/><path d="M22.185 95.207c-.751-.273-1.047-1.02-.74-1.865l2.053-5.638c.308-.846 1.17-1.17 1.923-.897l4.698 1.71c.752.274 1.204 1.077.896 1.923l-2.052 5.638c-.307.846-1.014 1.227-1.765.954l-5.013-1.825zm1.14-1.181l3.759 1.368 1.881-5.168-3.759-1.368-1.88 5.168zm-17.74-4.86c-.94-.343-1.361-1.135-1.054-1.98l2.052-5.639c.308-.845.983-1.238 1.923-.896l6.578 2.394c.94.342 1.204 1.077.896 1.923l-2.052 5.638c-.308.845-1.14 1.181-2.08.84l-6.263-2.28zm.997-1.766l5.638 2.052 1.71-4.699-5.638-2.052-1.71 4.699zm22.13-11.1c-.438-.16-.802-.718-.597-1.282.205-.564.843-.758 1.282-.598l5.638 2.052c.439.16.803.718.598 1.282a1.004 1.004 0 0 1-1.282.598L28.713 76.3zm-2.393 6.577c-.44-.16-.803-.717-.598-1.281.205-.564.843-.758 1.282-.598l5.638 2.052c.439.16.803.718.598 1.282a1.004 1.004 0 0 1-1.282.598l-5.638-2.053zM130.958 100.768l-14.844 8.57c-.745.43-1.538.195-1.988-.584l-16.5-28.58c-.45-.779-.257-1.583.488-2.013l14.844-8.57c.745-.43 1.538-.196 1.988.584l16.5 28.579c.45.779.257 1.584-.488 2.014zm-15.35 6.553l13.856-8-16-27.713-13.856 8 16 27.713z"/><path d="M144.754 92.803l-12.99 7.5c-.78.45-1.6.23-2.05-.55l-12-20.784c-.45-.78-.23-1.6.55-2.05l12.99-7.5c.779-.45 1.599-.23 2.049.55l12 20.785c.45.779.23 1.599-.55 2.049zm-13.558 5.518l12.125-7-11.5-19.92-12.125 7 11.5 19.92zm-17.624-2.527l-8-13.856c-.2-.347-.154-1.066.366-1.366.52-.3 1.166.02 1.366.366l8 13.856c.2.347.153 1.066-.366 1.366-.52.3-1.166-.02-1.366-.366zm5.196-3l-8-13.856c-.2-.347-.154-1.066.366-1.366.52-.3 1.166.02 1.366.366l8 13.856c.2.347.154 1.066-.366 1.366-.52.3-1.166-.02-1.366-.366z"/><path d="M135.949 97.886c-.693.4-1.455.147-1.905-.632l-3-5.197c-.45-.78-.144-1.649.55-2.049l4.33-2.5c.692-.4 1.598-.23 2.048.55l3 5.196c.45.779.289 1.565-.404 1.965l-4.62 2.667zm-.173-1.632l3.464-2-2.75-4.764-3.464 2 2.75 4.764zm-15.127 10.465c-.866.5-1.743.314-2.193-.465l-3-5.197c-.45-.78-.317-1.549.549-2.049l6.062-3.5c.866-.5 1.599-.23 2.049.55l3 5.196c.45.779.172 1.632-.694 2.132l-5.773 3.333zm-.711-1.898l5.196-3-2.5-4.33-5.196 3 2.5 4.33zm5.722-24.089c-.404.234-1.066.154-1.366-.366-.3-.52-.038-1.132.366-1.366l5.196-3c.405-.233 1.066-.154 1.366.366.3.52.065 1.118-.366 1.366l-5.196 3zm3.5 6.062c-.404.234-1.066.154-1.366-.366-.3-.52-.038-1.132.366-1.366l5.196-3c.405-.233 1.066-.153 1.366.366.3.52.065 1.118-.366 1.366l-5.196 3z"/><g><path d="M171.57 95h-17.14c-.86 0-1.43-.6-1.43-1.5v-33c0-.9.57-1.5 1.43-1.5h17.14c.86 0 1.43.6 1.43 1.5v33c0 .9-.57 1.5-1.43 1.5zM155 93h16V61h-16v32z"/><path d="M187.5 95h-15c-.9 0-1.5-.6-1.5-1.5v-24c0-.9.6-1.5 1.5-1.5h15c.9 0 1.5.6 1.5 1.5v24c0 .9-.6 1.5-1.5 1.5zM173 93h14V70h-14v23zm-14-11V66c0-.4.4-1 1-1s1 .6 1 1v16c0 .4-.4 1-1 1s-1-.6-1-1zm6 0V66c0-.4.4-1 1-1s1 .6 1 1v16c0 .4-.4 1-1 1s-1-.6-1-1z"/><path d="M177.333 95c-.8 0-1.333-.6-1.333-1.5v-6c0-.9.7-1.5 1.5-1.5h5c.8 0 1.5.6 1.5 1.5v6c0 .9-.533 1.5-1.333 1.5h-5.334zm.667-1.5h4V88h-4v5.5zM159.667 95c-1 0-1.667-.6-1.667-1.5v-6c0-.9.5-1.5 1.5-1.5h7c1 0 1.5.6 1.5 1.5v6c0 .9-.667 1.5-1.667 1.5h-6.666zm.333-2h6v-5h-6v5zm17-18c-.467 0-1-.4-1-1s.533-1 1-1h6c.467 0 1 .4 1 1s-.503 1-1 1h-6zm0 7c-.467 0-1-.4-1-1s.533-1 1-1h6c.467 0 1 .4 1 1s-.503 1-1 1h-6z"/></g><g><path d="M243.958 90.768l-14.844 8.57c-.745.43-1.538.195-1.988-.584l-16.5-28.58c-.45-.779-.257-1.583.488-2.013l14.844-8.57c.745-.43 1.538-.196 1.988.584l16.5 28.579c.45.779.257 1.584-.488 2.014zm-15.35 6.553l13.856-8-16-27.713-13.856 8 16 27.713z"/><path d="M257.754 82.803l-12.99 7.5c-.78.45-1.6.23-2.05-.55l-12-20.784c-.45-.78-.23-1.6.55-2.05l12.99-7.5c.779-.45 1.599-.23 2.049.55l12 20.785c.45.779.23 1.599-.55 2.049zm-13.558 5.518l12.125-7-11.5-19.92-12.125 7 11.5 19.92zm-17.624-2.527l-8-13.856c-.2-.347-.154-1.066.366-1.366.52-.3 1.166.02 1.366.366l8 13.856c.2.347.153 1.066-.366 1.366-.52.3-1.166-.02-1.366-.366zm5.196-3l-8-13.856c-.2-.347-.154-1.066.366-1.366.52-.3 1.166.02 1.366.366l8 13.856c.2.347.154 1.066-.366 1.366-.52.3-1.166-.02-1.366-.366z"/><path d="M248.949 87.886c-.693.4-1.455.147-1.905-.632l-3-5.197c-.45-.78-.144-1.649.55-2.049l4.33-2.5c.692-.4 1.598-.23 2.048.55l3 5.196c.45.779.289 1.565-.404 1.965l-4.62 2.667zm-.173-1.632l3.464-2-2.75-4.764-3.464 2 2.75 4.764zM233.65 96.719c-.866.5-1.743.314-2.193-.465l-3-5.197c-.45-.78-.317-1.549.549-2.049l6.062-3.5c.866-.5 1.599-.23 2.049.55l3 5.196c.45.779.172 1.632-.694 2.132l-5.773 3.333zm-.711-1.898l5.196-3-2.5-4.33-5.196 3 2.5 4.33zm5.722-24.089c-.404.234-1.066.154-1.366-.366-.3-.52-.038-1.132.366-1.366l5.196-3c.405-.233 1.066-.154 1.366.366.3.52.065 1.118-.366 1.366l-5.196 3zm3.5 6.062c-.404.234-1.066.154-1.366-.366-.3-.52-.038-1.132.366-1.366l5.196-3c.405-.233 1.066-.153 1.366.366.3.52.065 1.118-.366 1.366l-5.196 3z"/></g><g><path d="M285.32 118.872l-16.879 2.977c-.847.149-1.512-.343-1.669-1.23l-5.73-32.498c-.156-.886.301-1.576 1.148-1.726l16.88-2.976c.846-.15 1.512.343 1.668 1.229l5.73 32.499c.157.886-.3 1.576-1.147 1.725zm-16.665.908l15.757-2.778-5.557-31.514-15.756 2.778 5.556 31.514z"/><path d="M301.009 116.106l-14.772 2.605c-.887.156-1.582-.33-1.738-1.217l-4.168-23.635c-.156-.887.33-1.582 1.217-1.738l14.772-2.605c.887-.156 1.582.33 1.738 1.217l4.168 23.635c.156.887-.33 1.582-1.217 1.738zm-14.627.548l13.787-2.43-3.994-22.651-13.787 2.43 3.994 22.651zm-15.698-8.402l-2.778-15.756c-.07-.394.22-1.055.811-1.159.591-.104 1.09.417 1.159.811l2.778 15.757c.07.394-.22 1.054-.811 1.159-.591.104-1.09-.418-1.159-.812zm5.91-1.041l-2.78-15.757c-.069-.394.221-1.055.812-1.159.59-.104 1.089.417 1.158.811l2.779 15.757c.07.394-.22 1.055-.811 1.159-.591.104-1.09-.418-1.159-.811z"/><path d="M290.996 117.871c-.788.14-1.417-.359-1.573-1.245l-1.042-5.91c-.156-.885.43-1.598 1.217-1.737l4.924-.868c.788-.139 1.581.33 1.738 1.217l1.042 5.909c.156.886-.265 1.57-1.053 1.708l-5.253.926zm.397-1.593l3.939-.694-.955-5.417-3.94.695.956 5.416zm-17.794 4.661c-.985.174-1.746-.301-1.902-1.188l-1.042-5.908c-.157-.887.232-1.564 1.216-1.738l6.894-1.216c.985-.173 1.581.33 1.738 1.217l1.042 5.909c.156.886-.397 1.593-1.382 1.767l-6.564 1.157zm-.02-2.027l5.91-1.042-.87-4.924-5.908 1.042.868 4.924zm13.616-20.679c-.46.081-1.054-.22-1.158-.811-.104-.59.351-1.077.811-1.158l5.909-1.042c.46-.081 1.054.22 1.158.81a1.004 1.004 0 0 1-.81 1.16l-5.91 1.041zm1.216 6.894c-.46.08-1.054-.22-1.159-.811-.104-.591.352-1.078.812-1.159l5.908-1.042c.46-.08 1.055.22 1.159.811a1.004 1.004 0 0 1-.811 1.159l-5.91 1.042z"/></g><g><path d="M312.32 78.872l-16.879 2.977c-.847.149-1.512-.343-1.669-1.23l-5.73-32.498c-.156-.886.301-1.576 1.148-1.726l16.88-2.976c.846-.15 1.512.343 1.668 1.229l5.73 32.499c.157.886-.3 1.576-1.147 1.725zm-16.665.908l15.757-2.778-5.557-31.514-15.756 2.778 5.556 31.514z"/><path d="M328.009 76.106l-14.772 2.605c-.887.156-1.582-.33-1.738-1.217l-4.168-23.635c-.156-.887.33-1.582 1.217-1.738l14.772-2.605c.887-.156 1.582.33 1.738 1.217l4.168 23.635c.156.887-.33 1.582-1.217 1.738zm-14.627.548l13.787-2.43-3.994-22.651-13.787 2.43 3.994 22.651zm-15.698-8.402l-2.778-15.756c-.07-.394.22-1.055.811-1.159.591-.104 1.09.417 1.159.811l2.778 15.757c.07.394-.22 1.054-.811 1.159-.591.104-1.09-.418-1.159-.812zm5.91-1.041l-2.78-15.757c-.069-.394.221-1.055.812-1.159.59-.104 1.089.417 1.158.811l2.779 15.757c.07.394-.22 1.055-.811 1.159-.591.104-1.09-.418-1.159-.811z"/><path d="M317.996 77.871c-.788.14-1.417-.359-1.573-1.245l-1.042-5.91c-.156-.885.43-1.598 1.217-1.737l4.924-.868c.788-.139 1.581.33 1.738 1.217l1.042 5.909c.156.886-.265 1.57-1.053 1.708l-5.253.926zm.397-1.593l3.939-.694-.955-5.417-3.94.695.956 5.416zm-17.794 4.661c-.985.174-1.746-.301-1.902-1.188l-1.042-5.908c-.157-.887.232-1.564 1.216-1.738l6.894-1.216c.985-.173 1.581.33 1.738 1.217l1.042 5.909c.156.886-.397 1.593-1.382 1.767l-6.564 1.157zm-.02-2.027l5.91-1.042-.87-4.924-5.908 1.042.868 4.924zm13.616-20.679c-.46.081-1.054-.22-1.158-.811-.104-.59.351-1.077.811-1.158l5.909-1.042c.46-.081 1.054.22 1.158.81a1.004 1.004 0 0 1-.81 1.16l-5.91 1.041zm1.216 6.894c-.46.08-1.054-.22-1.159-.811-.104-.591.352-1.078.812-1.159l5.908-1.042c.46-.08 1.055.22 1.159.811a1.004 1.004 0 0 1-.811 1.159l-5.91 1.042z"/></g><g><path d="M396.628 88.112l-13.866 10.075c-.696.505-1.51.355-2.039-.373l-19.397-26.698c-.529-.728-.42-1.548.276-2.054l13.866-10.074c.696-.506 1.51-.356 2.039.373l19.397 26.697c.529.728.42 1.549-.276 2.054zm-14.58 8.122l12.944-9.405-18.81-25.888-12.944 9.404 18.81 25.889z"/><path d="M409.516 78.749l-12.135 8.817c-.728.529-1.566.396-2.095-.332l-14.107-19.417c-.53-.728-.396-1.566.332-2.095l12.135-8.817c.728-.529 1.566-.396 2.095.332l14.107 19.417c.529.728.396 1.566-.332 2.095zm-12.906 6.905l11.326-8.23-13.519-18.607-11.326 8.23 13.519 18.607zm-17.792-.67l-9.405-12.945c-.235-.323-.264-1.044.222-1.397.485-.352 1.161-.102 1.396.222l9.405 12.944c.235.323.264 1.044-.221 1.397-.486.352-1.162.102-1.397-.222zm4.854-3.527l-9.405-12.945c-.235-.323-.264-1.044.222-1.396.485-.353 1.161-.103 1.397.22l9.404 12.945c.235.324.264 1.044-.221 1.397-.486.353-1.162.102-1.397-.221z"/><path d="M401.29 84.725c-.646.47-1.43.298-1.96-.43l-3.526-4.854c-.529-.728-.315-1.625.332-2.096l4.045-2.938c.647-.47 1.566-.397 2.095.331l3.527 4.854c.529.729.45 1.527-.197 1.998l-4.315 3.135zm-.341-1.606l3.236-2.35-3.233-4.45-3.236 2.35 3.233 4.45zm-13.95 11.99c-.81.587-1.702.494-2.23-.234l-3.527-4.854c-.53-.728-.477-1.508.332-2.095l5.663-4.115c.809-.588 1.566-.396 2.095.332l3.527 4.854c.529.728.342 1.606-.467 2.193l-5.393 3.919zm-.906-1.814l4.854-3.527-2.94-4.045-4.853 3.527 2.939 4.045zm3.173-24.555c-.378.275-1.044.264-1.397-.221s-.157-1.122.221-1.397l4.854-3.527c.378-.274 1.044-.264 1.397.222.353.485.18 1.104-.221 1.396l-4.854 3.527zm4.114 5.663c-.378.275-1.044.264-1.397-.22-.352-.486-.156-1.123.222-1.398l4.854-3.526c.378-.275 1.044-.265 1.397.22.352.486.18 1.105-.222 1.398l-4.854 3.526z"/></g><g><path d="M458.227 86.957l-15.658-6.972c-.786-.35-1.063-1.13-.697-1.952l13.423-30.147c.366-.822 1.13-1.138 1.916-.788l15.658 6.971c.786.35 1.063 1.13.696 1.952l-13.422 30.147c-.366.822-1.13 1.139-1.916.789zm-14.324-8.567l14.616 6.508 13.016-29.234-14.617-6.507-13.015 29.233z"/><path d="M472.78 93.436l-13.704-6.1c-.822-.367-1.126-1.16-.76-1.981l9.762-21.925c.366-.823 1.158-1.127 1.98-.76l13.703 6.1c.823.366 1.127 1.159.76 1.98l-9.761 21.926c-.366.822-1.158 1.126-1.98.76zm-12.433-7.725l12.79 5.695 9.354-21.012-12.79-5.694-9.354 21.011zm-8.316-15.743l6.508-14.617c.162-.365.772-.75 1.32-.507.548.245.67.955.507 1.32l-6.508 14.617c-.163.366-.772.751-1.32.507s-.67-.955-.507-1.32zm5.481 2.44l6.508-14.616c.163-.366.772-.751 1.32-.507s.67.955.507 1.32l-6.508 14.617c-.162.365-.772.75-1.32.507-.548-.244-.67-.955-.507-1.32z"/><path d="M463.491 89.3c-.73-.325-.973-1.09-.607-1.912l2.44-5.481c.366-.822 1.25-1.086 1.98-.76l4.568 2.034c.731.325 1.127 1.158.76 1.98l-2.44 5.481c-.366.822-1.097 1.154-1.828.828l-4.873-2.17zm1.22-1.098l3.654 1.627 2.237-5.025-3.654-1.627-2.237 5.025zm-17.358-6.087c-.914-.406-1.28-1.226-.913-2.048l2.44-5.481c.366-.822 1.067-1.167 1.98-.76l6.396 2.847c.913.406 1.126 1.158.76 1.98l-2.44 5.481c-.367.823-1.22 1.1-2.134.693l-6.09-2.712zm1.117-1.691l5.482 2.44 2.033-4.568-5.48-2.44-2.035 4.568zm22.852-9.53c-.427-.19-.75-.772-.507-1.32.244-.548.894-.697 1.32-.507l5.482 2.44c.426.19.75.773.507 1.321a1.004 1.004 0 0 1-1.32.507l-5.482-2.44zm-2.847 6.395c-.427-.19-.751-.772-.507-1.32s.894-.697 1.32-.507l5.482 2.44c.426.19.75.773.506 1.32a1.004 1.004 0 0 1-1.32.508l-5.481-2.44z"/></g><g><path d="M516.024 106.265l-17.098-1.195c-.858-.06-1.385-.699-1.322-1.597l2.302-32.92c.063-.897.673-1.456 1.531-1.396l17.098 1.196c.858.06 1.385.698 1.322 1.596l-2.302 32.92c-.062.897-.673 1.456-1.53 1.396zm-16.39-3.15l15.961 1.115 2.232-31.922-15.96-1.116-2.233 31.922z"/><path d="M531.915 107.376l-14.963-1.046c-.898-.063-1.455-.703-1.392-1.6l1.674-23.942c.063-.898.704-1.455 1.601-1.392l14.964 1.046c.898.063 1.454.703 1.392 1.601l-1.675 23.942c-.062.898-.703 1.454-1.6 1.391zm-14.325-3.006l13.966.976 1.605-22.944-13.966-.976-1.605 22.944zm-13.198-11.95l1.116-15.961c.028-.399.469-.97 1.067-.928.599.042.956.668.928 1.068l-1.116 15.96c-.028.4-.469.97-1.068.928-.598-.042-.955-.668-.927-1.067zm5.985.419l1.116-15.961c.028-.4.469-.97 1.067-.928.599.042.956.668.928 1.067l-1.116 15.961c-.028.4-.469.97-1.067.928-.599-.042-.956-.668-.928-1.067z"/><path d="M521.773 106.667c-.798-.056-1.288-.691-1.225-1.59l.419-5.985c.062-.897.803-1.447 1.6-1.391l4.988.349c.798.055 1.455.703 1.392 1.6l-.418 5.986c-.063.898-.637 1.46-1.435 1.403l-5.32-.372zm.77-1.45l3.99.28.384-5.487-3.99-.28-.384 5.487zm-18.393.218c-.997-.07-1.62-.715-1.558-1.613l.418-5.985c.063-.898.604-1.462 1.601-1.392l6.983.488c.998.07 1.455.704 1.392 1.601l-.418 5.986c-.063.898-.77 1.45-1.768 1.38l-6.65-.465zm.472-1.972l5.985.419.35-4.988-5.986-.419-.35 4.988zm18.214-16.77c-.466-.033-.97-.47-.928-1.068.042-.598.602-.96 1.068-.927l5.985.418c.466.033.97.469.928 1.067a1.004 1.004 0 0 1-1.067.928l-5.986-.418zm-.488 6.983c-.466-.033-.97-.47-.928-1.068.042-.598.601-.96 1.067-.927l5.986.418c.466.033.97.469.928 1.067a1.004 1.004 0 0 1-1.068.928l-5.985-.418z"/></g><g><path d="M589.628 109.112l-13.866 10.075c-.696.505-1.51.355-2.039-.373l-19.397-26.698c-.529-.728-.42-1.548.276-2.054l13.866-10.074c.696-.506 1.51-.356 2.039.373l19.397 26.697c.529.728.42 1.549-.276 2.054zm-14.58 8.122l12.944-9.405-18.81-25.888-12.944 9.404 18.81 25.889z"/><path d="M602.516 99.749l-12.135 8.817c-.728.529-1.566.396-2.095-.332l-14.107-19.417c-.53-.728-.396-1.566.332-2.095l12.135-8.817c.728-.529 1.566-.396 2.095.332l14.107 19.417c.529.728.396 1.566-.332 2.095zm-12.906 6.905l11.326-8.23-13.519-18.607-11.326 8.23 13.519 18.607zm-17.792-.67l-9.405-12.945c-.235-.323-.264-1.044.222-1.397.485-.352 1.161-.102 1.396.222l9.405 12.944c.235.323.264 1.044-.221 1.397-.486.352-1.162.102-1.397-.222zm4.854-3.527l-9.405-12.945c-.235-.323-.264-1.044.222-1.396.485-.353 1.161-.103 1.397.22l9.404 12.945c.235.324.264 1.044-.221 1.397-.486.353-1.162.102-1.397-.221z"/><path d="M594.29 105.725c-.646.47-1.43.298-1.96-.43l-3.526-4.854c-.529-.728-.315-1.625.332-2.096l4.045-2.938c.647-.47 1.566-.397 2.095.331l3.527 4.854c.529.729.45 1.527-.197 1.998l-4.315 3.135zm-.341-1.606l3.236-2.35-3.233-4.45-3.236 2.35 3.233 4.45zm-13.95 11.99c-.81.587-1.702.494-2.23-.234l-3.527-4.854c-.53-.728-.477-1.508.332-2.095l5.663-4.115c.809-.588 1.566-.396 2.095.332l3.527 4.854c.529.728.342 1.606-.467 2.193l-5.393 3.919zm-.906-1.814l4.854-3.527-2.94-4.045-4.853 3.527 2.939 4.045zm3.173-24.555c-.378.275-1.044.264-1.397-.221s-.157-1.122.221-1.397l4.854-3.527c.378-.274 1.044-.264 1.397.222.353.485.18 1.104-.221 1.396l-4.854 3.527zm4.114 5.663c-.378.275-1.044.264-1.397-.22-.352-.486-.156-1.123.222-1.398l4.854-3.526c.378-.275 1.044-.265 1.397.22.352.486.18 1.105-.222 1.398l-4.854 3.526z"/></g><g><path d="M54.77 122.236l-16.106-5.862c-.809-.294-1.139-1.053-.831-1.899l11.287-31.01c.307-.845 1.048-1.214 1.856-.92l16.107 5.862c.808.294 1.138 1.053.83 1.899l-11.286 31.01c-.308.846-1.049 1.214-1.857.92zm-14.887-7.546l15.035 5.472 10.945-30.07-15.035-5.473-10.945 30.07z"/><path d="M69.74 127.685l-14.096-5.13c-.846-.308-1.204-1.077-.897-1.923l8.209-22.553c.308-.846 1.077-1.204 1.922-.896l14.096 5.13c.846.308 1.204 1.077.896 1.923l-8.208 22.552c-.308.846-1.077 1.204-1.923.897zm-12.942-6.839l13.155 4.788 7.867-21.613-13.156-4.788-7.866 21.613zm-9.394-15.125l5.473-15.035c.136-.376.717-.803 1.281-.598.564.206.735.906.598 1.282l-5.472 15.035c-.137.376-.718.803-1.282.598-.564-.205-.735-.906-.598-1.282zm5.638 2.052l5.473-15.035c.137-.376.718-.803 1.281-.598.564.206.735.906.598 1.282l-5.472 15.035c-.137.376-.718.803-1.282.598-.564-.205-.734-.906-.598-1.282z"/><path d="M60.185 124.207c-.751-.273-1.047-1.02-.74-1.865l2.053-5.638c.308-.846 1.17-1.17 1.923-.897l4.698 1.71c.752.274 1.204 1.077.896 1.923l-2.052 5.638c-.307.846-1.014 1.227-1.765.954l-5.013-1.825zm1.14-1.181l3.759 1.368 1.881-5.168-3.759-1.368-1.88 5.168zm-17.74-4.86c-.94-.343-1.361-1.135-1.054-1.98l2.052-5.639c.308-.845.983-1.238 1.923-.896l6.578 2.394c.94.342 1.204 1.077.896 1.923l-2.052 5.638c-.308.845-1.14 1.181-2.08.84l-6.263-2.28zm.997-1.766l5.638 2.052 1.71-4.699-5.638-2.052-1.71 4.699zm22.13-11.1c-.438-.16-.802-.718-.597-1.282.205-.564.843-.758 1.282-.598l5.638 2.052c.439.16.803.718.598 1.282a1.004 1.004 0 0 1-1.282.598l-5.638-2.052zm-2.393 6.577c-.44-.16-.803-.717-.598-1.281.205-.564.843-.758 1.282-.598l5.638 2.052c.439.16.803.718.598 1.282a1.004 1.004 0 0 1-1.282.598l-5.638-2.053z"/></g><g><path d="M39.819 158.11l-16.106 5.862c-.809.295-1.55-.074-1.857-.92l-11.287-31.01c-.308-.846.023-1.604.83-1.899l16.107-5.862c.808-.294 1.55.075 1.857.92l11.287 31.01c.307.846-.023 1.605-.831 1.9zm-16.255 3.788l15.035-5.472-10.944-30.07-15.036 5.472 10.945 30.07z"/><path d="M54.788 152.662l-14.095 5.13c-.846.308-1.615-.05-1.923-.896l-8.208-22.553c-.308-.846.05-1.615.896-1.923l14.096-5.13c.845-.308 1.614.05 1.922.897l8.209 22.552c.307.846-.051 1.615-.897 1.923zm-14.31 3.08l13.156-4.789-7.866-21.612-13.156 4.788 7.867 21.613zm-16.917-5.549l-5.473-15.035c-.136-.376.034-1.076.598-1.281.564-.206 1.145.221 1.282.597l5.472 15.035c.137.376-.034 1.077-.598 1.282-.563.205-1.145-.222-1.281-.598zm5.638-2.052l-5.473-15.035c-.136-.376.034-1.076.598-1.282.564-.205 1.145.222 1.282.598l5.472 15.035c.137.376-.034 1.077-.597 1.282-.564.205-1.145-.222-1.282-.598z"/><path d="M45.234 156.14c-.751.273-1.458-.109-1.765-.954l-2.052-5.639c-.308-.845.144-1.649.896-1.922l4.698-1.71c.752-.274 1.615.05 1.923.896l2.052 5.638c.308.846.012 1.592-.74 1.866l-5.012 1.824zm.114-1.639l3.759-1.368-1.881-5.168-3.76 1.368 1.882 5.168zm-16.714 7.68c-.94.342-1.772.007-2.08-.84l-2.052-5.637c-.308-.846-.043-1.58.897-1.923l6.577-2.394c.94-.342 1.615.05 1.923.897l2.052 5.638c.308.845-.114 1.637-1.053 1.98l-6.264 2.28zm-.371-1.993l5.638-2.052-1.71-4.699-5.639 2.053 1.71 4.698zm9.818-22.729c-.439.16-1.077-.034-1.282-.597-.205-.564.16-1.122.598-1.282l5.638-2.052c.439-.16 1.077.034 1.282.597a1.004 1.004 0 0 1-.598 1.282l-5.638 2.052zm2.394 6.578c-.439.16-1.076-.034-1.282-.598-.205-.563.16-1.122.598-1.281l5.638-2.052c.44-.16 1.077.033 1.282.597a1.004 1.004 0 0 1-.598 1.282l-5.638 2.052z"/></g><g><path d="M92.57 162H75.43c-.86 0-1.43-.6-1.43-1.5v-33c0-.9.57-1.5 1.43-1.5h17.14c.86 0 1.43.6 1.43 1.5v33c0 .9-.57 1.5-1.43 1.5zM76 160h16v-32H76v32z"/><path d="M108.5 162h-15c-.9 0-1.5-.6-1.5-1.5v-24c0-.9.6-1.5 1.5-1.5h15c.9 0 1.5.6 1.5 1.5v24c0 .9-.6 1.5-1.5 1.5zM94 160h14v-23H94v23zm-14-11v-16c0-.4.4-1 1-1s1 .6 1 1v16c0 .4-.4 1-1 1s-1-.6-1-1zm6 0v-16c0-.4.4-1 1-1s1 .6 1 1v16c0 .4-.4 1-1 1s-1-.6-1-1z"/><path d="M98.333 162c-.8 0-1.333-.6-1.333-1.5v-6c0-.9.7-1.5 1.5-1.5h5c.8 0 1.5.6 1.5 1.5v6c0 .9-.533 1.5-1.333 1.5h-5.334zm.667-1.5h4V155h-4v5.5zM80.667 162c-1 0-1.667-.6-1.667-1.5v-6c0-.9.5-1.5 1.5-1.5h7c1 0 1.5.6 1.5 1.5v6c0 .9-.667 1.5-1.667 1.5h-6.666zm.333-2h6v-5h-6v5zm17-18c-.467 0-1-.4-1-1s.533-1 1-1h6c.467 0 1 .4 1 1s-.503 1-1 1h-6zm0 7c-.467 0-1-.4-1-1s.533-1 1-1h6c.467 0 1 .4 1 1s-.503 1-1 1h-6z"/></g><g><path d="M137.77 144.236l-16.106-5.862c-.809-.294-1.139-1.053-.831-1.899l11.287-31.01c.307-.845 1.048-1.214 1.856-.92l16.107 5.862c.808.294 1.138 1.053.83 1.899l-11.286 31.01c-.308.846-1.049 1.214-1.857.92zm-14.887-7.546l15.035 5.472 10.945-30.07-15.035-5.473-10.945 30.07z"/><path d="M152.74 149.685l-14.096-5.13c-.846-.308-1.204-1.077-.897-1.923l8.209-22.553c.308-.846 1.077-1.204 1.922-.896l14.096 5.13c.846.308 1.204 1.077.896 1.923l-8.208 22.552c-.308.846-1.077 1.204-1.923.897zm-12.942-6.839l13.155 4.788 7.867-21.613-13.156-4.788-7.866 21.613zm-9.394-15.125l5.473-15.035c.136-.376.717-.803 1.281-.598.564.206.735.906.598 1.282l-5.472 15.035c-.137.376-.718.803-1.282.598-.564-.205-.735-.906-.598-1.282zm5.638 2.052l5.473-15.035c.137-.376.718-.803 1.281-.598.564.206.735.906.598 1.282l-5.472 15.035c-.137.376-.718.803-1.282.598-.564-.205-.734-.906-.598-1.282z"/><path d="M143.185 146.207c-.751-.273-1.047-1.02-.74-1.865l2.053-5.638c.308-.846 1.17-1.17 1.923-.897l4.698 1.71c.752.274 1.204 1.077.896 1.923l-2.052 5.638c-.307.846-1.014 1.227-1.765.954l-5.013-1.825zm1.14-1.181l3.759 1.368 1.881-5.168-3.759-1.368-1.88 5.168zm-17.74-4.86c-.94-.343-1.361-1.135-1.054-1.98l2.052-5.639c.308-.845.983-1.238 1.923-.896l6.578 2.394c.94.342 1.204 1.077.896 1.923l-2.052 5.638c-.308.845-1.14 1.181-2.08.84l-6.263-2.28zm.997-1.766l5.638 2.052 1.71-4.699-5.638-2.052-1.71 4.699zm22.13-11.1c-.438-.16-.802-.718-.597-1.282.205-.564.843-.758 1.282-.598l5.638 2.052c.439.16.803.718.598 1.282a1.004 1.004 0 0 1-1.282.598l-5.638-2.052zm-2.393 6.577c-.44-.16-.803-.717-.598-1.281.205-.564.843-.758 1.282-.598l5.638 2.052c.439.16.803.718.598 1.282a1.004 1.004 0 0 1-1.282.598l-5.638-2.053z"/></g><g><path d="M191.77 136.236l-16.106-5.862c-.809-.294-1.139-1.053-.831-1.899l11.287-31.01c.307-.845 1.048-1.214 1.856-.92l16.107 5.862c.808.294 1.138 1.053.83 1.899l-11.286 31.01c-.308.846-1.049 1.214-1.857.92zm-14.887-7.546l15.035 5.472 10.945-30.07-15.035-5.473-10.945 30.07z"/><path d="M206.74 141.685l-14.096-5.13c-.846-.308-1.204-1.077-.897-1.923l8.209-22.553c.308-.846 1.077-1.204 1.922-.896l14.096 5.13c.846.308 1.204 1.077.896 1.923l-8.208 22.552c-.308.846-1.077 1.204-1.923.897zm-12.942-6.839l13.155 4.788 7.867-21.613-13.156-4.788-7.866 21.613zm-9.394-15.125l5.473-15.035c.136-.376.717-.803 1.281-.598.564.206.735.906.598 1.282l-5.472 15.035c-.137.376-.718.803-1.282.598-.564-.205-.735-.906-.598-1.282zm5.638 2.052l5.473-15.035c.137-.376.718-.803 1.281-.598.564.206.735.906.598 1.282l-5.472 15.035c-.137.376-.718.803-1.282.598-.564-.205-.734-.906-.598-1.282z"/><path d="M197.185 138.207c-.751-.273-1.047-1.02-.74-1.865l2.053-5.638c.308-.846 1.17-1.17 1.923-.897l4.698 1.71c.752.274 1.204 1.077.896 1.923l-2.052 5.638c-.307.846-1.014 1.227-1.765.954l-5.013-1.825zm1.14-1.181l3.759 1.368 1.881-5.168-3.759-1.368-1.88 5.168zm-17.74-4.86c-.94-.343-1.361-1.135-1.054-1.98l2.052-5.639c.308-.845.983-1.238 1.923-.896l6.578 2.394c.94.342 1.204 1.077.896 1.923l-2.052 5.638c-.308.845-1.14 1.181-2.08.84l-6.263-2.28zm.997-1.766l5.638 2.052 1.71-4.699-5.638-2.052-1.71 4.699zm22.13-11.1c-.438-.16-.802-.718-.597-1.282.205-.564.843-.758 1.282-.598l5.638 2.052c.439.16.803.718.598 1.282a1.004 1.004 0 0 1-1.282.598l-5.638-2.052zm-2.393 6.577c-.44-.16-.803-.717-.598-1.281.205-.564.843-.758 1.282-.598l5.638 2.052c.439.16.803.718.598 1.282a1.004 1.004 0 0 1-1.282.598l-5.638-2.053z"/></g><g><path d="M203.958 175.768l-14.844 8.57c-.745.43-1.538.195-1.988-.584l-16.5-28.58c-.45-.779-.257-1.583.488-2.013l14.844-8.57c.745-.43 1.538-.196 1.988.584l16.5 28.579c.45.779.257 1.584-.488 2.014zm-15.35 6.553l13.856-8-16-27.713-13.856 8 16 27.713z"/><path d="M217.754 167.803l-12.99 7.5c-.78.45-1.6.23-2.05-.55l-12-20.784c-.45-.78-.23-1.6.55-2.05l12.99-7.5c.779-.45 1.599-.23 2.049.55l12 20.785c.45.779.23 1.599-.55 2.049zm-13.558 5.518l12.125-7-11.5-19.92-12.125 7 11.5 19.92zm-17.624-2.527l-8-13.856c-.2-.347-.154-1.066.366-1.366.52-.3 1.166.02 1.366.366l8 13.856c.2.347.153 1.066-.366 1.366-.52.3-1.166-.02-1.366-.366zm5.196-3l-8-13.856c-.2-.347-.154-1.066.366-1.366.52-.3 1.166.02 1.366.366l8 13.856c.2.347.154 1.066-.366 1.366-.52.3-1.166-.02-1.366-.366z"/><path d="M208.949 172.886c-.693.4-1.455.147-1.905-.632l-3-5.197c-.45-.78-.144-1.649.55-2.049l4.33-2.5c.692-.4 1.598-.23 2.048.55l3 5.196c.45.779.289 1.565-.404 1.965l-4.62 2.667zm-.173-1.632l3.464-2-2.75-4.764-3.464 2 2.75 4.764zm-15.127 10.465c-.866.5-1.743.314-2.193-.465l-3-5.197c-.45-.78-.317-1.549.549-2.049l6.062-3.5c.866-.5 1.599-.23 2.049.55l3 5.196c.45.779.172 1.632-.694 2.132l-5.773 3.333zm-.711-1.898l5.196-3-2.5-4.33-5.196 3 2.5 4.33zm5.722-24.089c-.404.234-1.066.154-1.366-.366-.3-.52-.038-1.133.366-1.366l5.196-3c.405-.233 1.066-.154 1.366.366.3.52.065 1.118-.366 1.366l-5.196 3zm3.5 6.062c-.404.234-1.066.154-1.366-.366-.3-.52-.038-1.132.366-1.366l5.196-3c.405-.233 1.066-.153 1.366.366.3.52.065 1.118-.366 1.366l-5.196 3z"/></g><g><path d="M263.958 157.768l-14.844 8.57c-.745.43-1.538.195-1.988-.584l-16.5-28.58c-.45-.779-.257-1.583.488-2.013l14.844-8.57c.745-.43 1.538-.196 1.988.584l16.5 28.579c.45.779.257 1.584-.488 2.014zm-15.35 6.553l13.856-8-16-27.713-13.856 8 16 27.713z"/><path d="M277.754 149.803l-12.99 7.5c-.78.45-1.6.23-2.05-.55l-12-20.784c-.45-.78-.23-1.6.55-2.05l12.99-7.5c.779-.45 1.599-.23 2.049.55l12 20.785c.45.779.23 1.599-.55 2.049zm-13.558 5.518l12.125-7-11.5-19.92-12.125 7 11.5 19.92zm-17.624-2.527l-8-13.856c-.2-.347-.154-1.066.366-1.366.52-.3 1.166.02 1.366.366l8 13.856c.2.347.153 1.066-.366 1.366-.52.3-1.166-.02-1.366-.366zm5.196-3l-8-13.856c-.2-.347-.154-1.066.366-1.366.52-.3 1.166.02 1.366.366l8 13.856c.2.347.154 1.066-.366 1.366-.52.3-1.166-.02-1.366-.366z"/><path d="M268.949 154.886c-.693.4-1.455.147-1.905-.632l-3-5.197c-.45-.78-.144-1.649.55-2.049l4.33-2.5c.692-.4 1.598-.23 2.048.55l3 5.196c.45.779.289 1.565-.404 1.965l-4.62 2.667zm-.173-1.632l3.464-2-2.75-4.764-3.464 2 2.75 4.764zm-15.127 10.465c-.866.5-1.743.314-2.193-.465l-3-5.197c-.45-.78-.317-1.549.549-2.049l6.062-3.5c.866-.5 1.599-.23 2.049.55l3 5.196c.45.779.172 1.632-.694 2.132l-5.773 3.333zm-.711-1.898l5.196-3-2.5-4.33-5.196 3 2.5 4.33zm5.722-24.089c-.404.234-1.066.154-1.366-.366-.3-.52-.038-1.133.366-1.366l5.196-3c.405-.233 1.066-.154 1.366.366.3.52.065 1.118-.366 1.366l-5.196 3zm3.5 6.062c-.404.234-1.066.154-1.366-.366-.3-.52-.038-1.132.366-1.366l5.196-3c.405-.233 1.066-.153 1.366.366.3.52.065 1.118-.366 1.366l-5.196 3z"/></g><g><path d="M290.085 157.642l-11.018-13.13c-.553-.659-.46-1.481.23-2.06l25.28-21.211c.689-.579 1.515-.528 2.068.13l11.017 13.13c.553.66.46 1.482-.23 2.06l-25.28 21.212c-.689.579-1.515.528-2.067-.13zm-9.12-13.979l10.285 12.257 24.514-20.57-10.285-12.256-24.513 20.57z"/><path d="M300.324 169.845l-9.642-11.49c-.578-.69-.504-1.535.185-2.114l18.385-15.427c.69-.578 1.535-.504 2.114.185l9.641 11.491c.579.69.505 1.535-.185 2.113l-18.385 15.427c-.689.579-1.534.505-2.113-.185zm-7.788-12.393l8.999 10.725 17.619-14.784-9-10.725-17.618 14.784zm-.573-17.795l12.257-10.285c.306-.257 1.023-.336 1.409.123.386.46.183 1.152-.123 1.41l-12.257 10.284c-.307.257-1.023.336-1.409-.123-.386-.46-.183-1.152.123-1.41zm3.857 4.596l12.257-10.285c.306-.257 1.023-.336 1.409.124.385.46.183 1.151-.124 1.408l-12.256 10.285c-.307.257-1.024.336-1.41-.123-.385-.46-.182-1.152.124-1.409z"/><path d="M293.789 162.057c-.514-.613-.397-1.407.292-1.985l4.596-3.857c.69-.579 1.6-.428 2.114.185l3.214 3.83c.514.613.504 1.535-.185 2.113l-4.597 3.857c-.689.578-1.491.556-2.005-.057l-3.43-4.086zm1.578-.453l2.57 3.064 4.214-3.536-2.571-3.064-4.213 3.536zm-12.934-13.08c-.642-.766-.611-1.663.078-2.241l4.596-3.857c.69-.578 1.47-.581 2.114.185l4.499 5.362c.643.766.505 1.535-.185 2.113l-4.596 3.857c-.69.579-1.578.453-2.22-.313l-4.286-5.106zm1.747-1.03l3.856 4.596 3.83-3.214-3.856-4.596-3.83 3.213zm24.716 1.452c-.3-.358-.337-1.023.123-1.409.46-.385 1.109-.234 1.409.123l3.857 4.597c.3.357.336 1.023-.124 1.409-.46.385-1.089.257-1.408-.124l-3.857-4.596zm-5.363 4.5c-.3-.358-.336-1.024.124-1.41.46-.385 1.108-.234 1.409.124l3.856 4.596c.3.358.337 1.023-.123 1.41-.46.385-1.09.257-1.409-.124l-3.857-4.596z"/></g><g><path d="M353.79 110.64l-11.017 13.13c-.553.66-1.379.71-2.068.132l-25.28-21.212c-.689-.579-.782-1.401-.23-2.06l11.018-13.13c.553-.659 1.379-.71 2.068-.131l25.28 21.212c.69.578.782 1.4.23 2.06zm-12.183 11.408l10.285-12.256-24.513-20.57-10.285 12.257 24.513 20.57z"/><path d="M364.03 98.437l-9.642 11.491c-.578.69-1.423.763-2.113.185L333.89 94.686c-.69-.578-.763-1.424-.185-2.113l9.642-11.49c.578-.69 1.424-.764 2.113-.186l18.385 15.427c.69.579.764 1.424.185 2.113zm-10.852 9.822l8.999-10.724-17.62-14.784-8.998 10.724 17.619 14.784zm-17.426 3.654l-12.257-10.284c-.306-.257-.509-.95-.123-1.409.386-.46 1.103-.38 1.409-.123l12.257 10.284c.306.257.509.95.123 1.41-.386.459-1.102.38-1.409.122zm3.857-4.596l-12.257-10.284c-.306-.258-.509-.95-.123-1.41.386-.459 1.102-.38 1.409-.123l12.256 10.285c.307.257.51.95.124 1.409-.386.46-1.103.38-1.41.123z"/><path d="M357.495 106.226c-.514.613-1.317.635-2.006.057l-4.596-3.857c-.69-.578-.7-1.5-.185-2.113l3.214-3.83c.514-.613 1.424-.764 2.113-.185l4.596 3.856c.69.579.807 1.373.293 1.986l-3.43 4.086zm-.72-1.475l2.57-3.065-4.213-3.535-2.57 3.064 4.213 3.536zm-10.636 15.008c-.642.766-1.53.891-2.22.313l-4.596-3.857c-.69-.579-.828-1.347-.185-2.113l4.5-5.363c.642-.766 1.423-.763 2.112-.185l4.597 3.857c.69.579.72 1.475.077 2.241l-4.285 5.107zm-1.318-1.54l3.857-4.597-3.83-3.214-3.857 4.596 3.83 3.214zm-2.861-24.594c-.3.358-.95.51-1.409.123-.46-.385-.423-1.05-.123-1.408l3.857-4.597c.3-.357.949-.509 1.408-.123.46.386.443 1.028.124 1.409l-3.857 4.596zm5.362 4.5c-.3.357-.949.509-1.409.123-.46-.386-.423-1.051-.123-1.409l3.857-4.596c.3-.358.95-.51 1.409-.123.46.385.442 1.028.123 1.408l-3.857 4.597z"/></g><g><path d="M370.227 148.957l-15.658-6.972c-.786-.35-1.063-1.13-.697-1.952l13.423-30.147c.366-.822 1.13-1.138 1.916-.788l15.658 6.971c.786.35 1.063 1.13.696 1.952l-13.422 30.147c-.366.822-1.13 1.139-1.916.789zm-14.324-8.567l14.616 6.508 13.016-29.234-14.617-6.507-13.015 29.233z"/><path d="M384.78 155.436l-13.704-6.1c-.822-.367-1.126-1.16-.76-1.981l9.762-21.925c.366-.823 1.158-1.127 1.98-.76l13.703 6.1c.823.366 1.127 1.159.76 1.98l-9.761 21.926c-.366.822-1.158 1.126-1.98.76zm-12.433-7.725l12.79 5.695 9.354-21.012-12.79-5.694-9.354 21.011zm-8.316-15.743l6.508-14.617c.162-.365.772-.75 1.32-.507.548.245.67.955.507 1.32l-6.508 14.617c-.163.366-.772.751-1.32.507s-.67-.955-.507-1.32zm5.481 2.44l6.508-14.616c.163-.366.772-.751 1.32-.507s.67.955.507 1.32l-6.508 14.617c-.162.365-.772.75-1.32.507-.548-.244-.67-.955-.507-1.32z"/><path d="M375.491 151.3c-.73-.325-.973-1.09-.607-1.912l2.44-5.481c.366-.822 1.25-1.086 1.98-.76l4.568 2.034c.731.325 1.127 1.158.76 1.98l-2.44 5.481c-.366.822-1.097 1.154-1.828.828l-4.873-2.17zm1.22-1.098l3.654 1.627 2.237-5.025-3.654-1.627-2.237 5.025zm-17.358-6.087c-.914-.406-1.28-1.226-.913-2.048l2.44-5.481c.366-.822 1.067-1.167 1.98-.76l6.396 2.847c.913.406 1.126 1.158.76 1.98l-2.44 5.481c-.367.823-1.22 1.1-2.134.693l-6.09-2.712zm1.117-1.691l5.482 2.44 2.033-4.568-5.48-2.44-2.035 4.568zm22.852-9.53c-.427-.19-.75-.772-.507-1.32.244-.548.894-.697 1.32-.507l5.482 2.44c.426.19.75.773.507 1.321a1.004 1.004 0 0 1-1.32.507l-5.482-2.44zm-2.847 6.395c-.427-.19-.751-.772-.507-1.32s.894-.697 1.32-.507l5.482 2.44c.426.19.75.773.506 1.32a1.004 1.004 0 0 1-1.32.508l-5.481-2.44z"/></g><g><path d="M421.227 124.957l-15.658-6.972c-.786-.35-1.063-1.13-.697-1.952l13.423-30.147c.366-.822 1.13-1.138 1.916-.788l15.658 6.971c.786.35 1.063 1.13.696 1.952l-13.422 30.147c-.366.822-1.13 1.139-1.916.789zm-14.324-8.567l14.616 6.508 13.016-29.234-14.617-6.507-13.015 29.233z"/><path d="M435.78 131.436l-13.704-6.1c-.822-.367-1.126-1.16-.76-1.981l9.762-21.925c.366-.823 1.158-1.127 1.98-.76l13.703 6.1c.823.366 1.127 1.159.76 1.98l-9.761 21.926c-.366.822-1.158 1.126-1.98.76zm-12.433-7.725l12.79 5.695 9.354-21.012-12.79-5.694-9.354 21.011zm-8.316-15.743l6.508-14.617c.162-.365.772-.75 1.32-.507.548.245.67.955.507 1.32l-6.508 14.617c-.163.366-.772.751-1.32.507s-.67-.955-.507-1.32zm5.481 2.44l6.508-14.616c.163-.366.772-.751 1.32-.507s.67.955.507 1.32l-6.508 14.617c-.162.365-.772.75-1.32.507-.548-.244-.67-.955-.507-1.32z"/><path d="M426.491 127.3c-.73-.325-.973-1.09-.607-1.912l2.44-5.481c.366-.822 1.25-1.086 1.98-.76l4.568 2.034c.731.325 1.127 1.158.76 1.98l-2.44 5.481c-.366.822-1.097 1.154-1.828.828l-4.873-2.17zm1.22-1.098l3.654 1.627 2.237-5.025-3.654-1.627-2.237 5.025zm-17.358-6.087c-.914-.406-1.28-1.226-.913-2.048l2.44-5.481c.366-.822 1.067-1.167 1.98-.76l6.396 2.847c.913.406 1.126 1.158.76 1.98l-2.44 5.481c-.367.823-1.22 1.1-2.134.693l-6.09-2.712zm1.117-1.691l5.482 2.44 2.033-4.568-5.48-2.44-2.035 4.568zm22.852-9.53c-.427-.19-.75-.772-.507-1.32.244-.548.894-.697 1.32-.507l5.482 2.44c.426.19.75.773.507 1.321a1.004 1.004 0 0 1-1.32.507l-5.482-2.44zm-2.847 6.395c-.427-.19-.751-.772-.507-1.32s.894-.697 1.32-.507l5.482 2.44c.426.19.75.773.506 1.32a1.004 1.004 0 0 1-1.32.508l-5.481-2.44z"/></g><g><path d="M401.23 168.752l-7.514-15.406c-.377-.773-.087-1.548.722-1.943l29.66-14.466c.809-.394 1.598-.145 1.975.628l7.513 15.405c.377.773.088 1.549-.72 1.943l-29.661 14.466c-.809.395-1.598.146-1.975-.627zm-5.466-15.77l7.014 14.38 28.761-14.027-7.014-14.381-28.761 14.028z"/><path d="M408.213 183.07l-6.575-13.482c-.395-.81-.119-1.612.69-2.006L423.9 157.06c.81-.395 1.611-.118 2.006.69l6.576 13.482c.394.81.118 1.612-.691 2.006l-21.571 10.521c-.809.395-1.611.118-2.006-.69zm-4.559-13.91l6.138 12.583 20.672-10.082-6.137-12.583-20.673 10.082zm3.75-17.405l14.38-7.014c.36-.175 1.075-.079 1.338.46.263.54-.101 1.162-.46 1.338l-14.381 7.014c-.36.175-1.075.078-1.338-.46-.263-.54.101-1.163.46-1.338zm2.63 5.393l14.38-7.014c.36-.176 1.075-.079 1.338.46.263.54-.1 1.162-.46 1.337l-14.381 7.014c-.36.176-1.074.08-1.337-.46-.263-.54.1-1.162.46-1.337z"/><path d="M403.756 173.931c-.35-.719-.045-1.46.764-1.855l5.393-2.63c.809-.395 1.655-.029 2.006.69l2.191 4.494c.351.72.119 1.611-.69 2.006l-5.393 2.63c-.809.395-1.582.179-1.933-.54l-2.338-4.795zm1.64-.058l1.754 3.596 4.944-2.412-1.754-3.595-4.943 2.411zm-9.384-15.82c-.438-.898-.192-1.761.617-2.156l5.393-2.63c.81-.394 1.568-.208 2.006.69l3.068 6.292c.439.9.119 1.612-.69 2.006l-5.393 2.63c-.809.395-1.64.058-2.079-.84l-2.922-5.992zm1.944-.577l2.63 5.393 4.494-2.192-2.63-5.393-4.494 2.192zm23.63 7.389c-.205-.42-.079-1.074.46-1.337.54-.264 1.133.04 1.338.46l2.63 5.393c.205.42.079 1.074-.46 1.337a1.004 1.004 0 0 1-1.338-.46l-2.63-5.393zm-6.291 3.068c-.205-.42-.08-1.074.46-1.337.54-.263 1.132.04 1.337.46l2.63 5.393c.205.42.08 1.074-.46 1.337a1.004 1.004 0 0 1-1.337-.46l-2.63-5.393z"/></g><g><path d="M489.628 140.112l-13.866 10.075c-.696.505-1.51.355-2.039-.373l-19.397-26.698c-.529-.728-.42-1.548.276-2.054l13.866-10.074c.696-.506 1.51-.356 2.039.373l19.397 26.697c.529.728.42 1.549-.276 2.054zm-14.58 8.122l12.944-9.405-18.81-25.888-12.944 9.404 18.81 25.889z"/><path d="M502.516 130.749l-12.135 8.817c-.728.529-1.566.396-2.095-.332l-14.107-19.417c-.53-.728-.396-1.566.332-2.095l12.135-8.817c.728-.529 1.566-.396 2.095.332l14.107 19.417c.529.728.396 1.566-.332 2.095zm-12.906 6.905l11.326-8.23-13.519-18.607-11.326 8.23 13.519 18.607zm-17.792-.67l-9.405-12.945c-.235-.323-.264-1.044.222-1.397.485-.352 1.161-.102 1.396.222l9.405 12.944c.235.323.264 1.044-.221 1.397-.486.352-1.162.102-1.397-.222zm4.854-3.527l-9.405-12.945c-.235-.323-.264-1.044.222-1.396.485-.353 1.161-.103 1.397.22l9.404 12.945c.235.324.264 1.044-.221 1.397-.486.353-1.162.102-1.397-.221z"/><path d="M494.29 136.725c-.646.47-1.43.298-1.96-.43l-3.526-4.854c-.529-.728-.315-1.625.332-2.096l4.045-2.938c.647-.47 1.566-.397 2.095.331l3.527 4.854c.529.729.45 1.527-.197 1.998l-4.315 3.135zm-.341-1.606l3.236-2.35-3.233-4.45-3.236 2.35 3.233 4.45zm-13.95 11.99c-.81.587-1.702.494-2.23-.234l-3.527-4.854c-.53-.728-.477-1.508.332-2.095l5.663-4.115c.809-.588 1.566-.396 2.095.332l3.527 4.854c.529.728.342 1.606-.467 2.193l-5.393 3.919zm-.906-1.814l4.854-3.527-2.94-4.045-4.853 3.527 2.939 4.045zm3.173-24.555c-.378.275-1.044.264-1.397-.221s-.157-1.122.221-1.397l4.854-3.527c.378-.274 1.044-.264 1.397.222.353.485.18 1.104-.221 1.396l-4.854 3.527zm4.114 5.663c-.378.275-1.044.264-1.397-.22-.352-.486-.156-1.123.222-1.398l4.854-3.526c.378-.275 1.044-.265 1.397.22.352.486.18 1.105-.222 1.398l-4.854 3.526z"/></g><g><path d="M549.628 149.112l-13.866 10.075c-.696.505-1.51.355-2.039-.373l-19.397-26.698c-.529-.728-.42-1.548.276-2.054l13.866-10.074c.696-.506 1.51-.356 2.039.373l19.397 26.697c.529.728.42 1.549-.276 2.054zm-14.58 8.122l12.944-9.405-18.81-25.888-12.944 9.404 18.81 25.889z"/><path d="M562.516 139.749l-12.135 8.817c-.728.529-1.566.396-2.095-.332l-14.107-19.417c-.53-.728-.396-1.566.332-2.095l12.135-8.817c.728-.529 1.566-.396 2.095.332l14.107 19.417c.529.728.396 1.566-.332 2.095zm-12.906 6.905l11.326-8.23-13.519-18.607-11.326 8.23 13.519 18.607zm-17.792-.67l-9.405-12.945c-.235-.323-.264-1.044.222-1.397.485-.352 1.161-.102 1.396.222l9.405 12.944c.235.323.264 1.044-.221 1.397-.486.352-1.162.102-1.397-.222zm4.854-3.527l-9.405-12.945c-.235-.323-.264-1.044.222-1.396.485-.353 1.161-.103 1.397.22l9.404 12.945c.235.324.264 1.044-.221 1.397-.486.353-1.162.102-1.397-.221z"/><path d="M554.29 145.725c-.646.47-1.43.298-1.96-.43l-3.526-4.854c-.529-.728-.315-1.625.332-2.096l4.045-2.938c.647-.47 1.566-.397 2.095.331l3.527 4.854c.529.729.45 1.527-.197 1.998l-4.315 3.135zm-.341-1.606l3.236-2.35-3.233-4.45-3.236 2.35 3.233 4.45zm-13.95 11.99c-.81.587-1.702.494-2.23-.234l-3.527-4.854c-.53-.728-.477-1.508.332-2.095l5.663-4.115c.809-.588 1.566-.396 2.095.332l3.527 4.854c.529.728.342 1.606-.467 2.193l-5.393 3.919zm-.906-1.814l4.854-3.527-2.94-4.045-4.853 3.527 2.939 4.045zm3.173-24.555c-.378.275-1.044.264-1.397-.221s-.157-1.122.221-1.397l4.854-3.527c.378-.274 1.044-.264 1.397.222.353.485.18 1.104-.221 1.396l-4.854 3.527zm4.114 5.663c-.378.275-1.044.264-1.397-.22-.352-.486-.156-1.123.222-1.398l4.854-3.526c.378-.275 1.044-.265 1.397.22.352.486.18 1.105-.222 1.398l-4.854 3.526z"/></g></g></svg>