<svg xmlns="http://www.w3.org/2000/svg" viewBox="0 0 605 180"><title>environments</title><g fill-rule="evenodd"><path d="M20.033 20.344a2.317 2.317 0 0 1 .852-3.165L48.043 1.5a2.324 2.324 0 0 1 3.167.844l1.686 2.92a2.317 2.317 0 0 1-.853 3.164l-27.158 15.68a2.324 2.324 0 0 1-3.166-.844l-1.686-2.92zm3.44-.04a.998.998 0 0 1 .367-1.366.998.998 0 0 1 1.366.366.998.998 0 0 1-.366 1.366.998.998 0 0 1-1.366-.366zm3.465-2a.998.998 0 0 1 .366-1.366.998.998 0 0 1 1.366.366.998.998 0 0 1-.366 1.366.998.998 0 0 1-1.366-.366zm3.464-2a.998.998 0 0 1 .366-1.366.998.998 0 0 1 1.366.366.998.998 0 0 1-.366 1.366.998.998 0 0 1-1.366-.366zm6.678-4.433l11.258-6.5.5.866-11.258 6.5-.5-.866zM25.033 29.004a2.317 2.317 0 0 1 .852-3.164l27.158-15.68a2.324 2.324 0 0 1 3.167.844l1.686 2.92a2.317 2.317 0 0 1-.853 3.164l-27.158 15.68a2.324 2.324 0 0 1-3.166-.844l-1.686-2.92zm3.44-.04a.998.998 0 0 1 .367-1.366.998.998 0 0 1 1.366.366.998.998 0 0 1-.366 1.366.998.998 0 0 1-1.366-.366zm3.465-2a.998.998 0 0 1 .366-1.366.998.998 0 0 1 1.366.366.998.998 0 0 1-.366 1.366.998.998 0 0 1-1.366-.366zm3.464-2a.998.998 0 0 1 .366-1.366.998.998 0 0 1 1.366.366.998.998 0 0 1-.366 1.366.998.998 0 0 1-1.366-.366zm6.678-4.433l11.258-6.5.5.866-11.258 6.5-.5-.866zM30.033 37.664a2.317 2.317 0 0 1 .852-3.164l27.158-15.68a2.324 2.324 0 0 1 3.167.844l1.686 2.92a2.317 2.317 0 0 1-.853 3.165l-27.158 15.68a2.324 2.324 0 0 1-3.166-.844l-1.686-2.92zm3.44-.04a.998.998 0 0 1 .367-1.366.998.998 0 0 1 1.366.366.998.998 0 0 1-.366 1.366.998.998 0 0 1-1.366-.366zm3.465-2a.998.998 0 0 1 .366-1.366.998.998 0 0 1 1.366.366.998.998 0 0 1-.366 1.366.998.998 0 0 1-1.366-.366zm3.464-2a.998.998 0 0 1 .366-1.366.998.998 0 0 1 1.366.366.998.998 0 0 1-.366 1.366.998.998 0 0 1-1.366-.366zm6.678-4.433l11.258-6.5.5.866-11.258 6.5-.5-.866zM62.547 40a2.317 2.317 0 0 1 2.687-1.876l30.883 5.445A2.324 2.324 0 0 1 98 46.251l-.585 3.32a2.317 2.317 0 0 1-2.687 1.877l-30.883-5.446a2.324 2.324 0 0 1-1.883-2.681L62.547 40zm2.662 2.181a.998.998 0 0 1 1.158-.811c.544.096.908.61.812 1.158a.998.998 0 0 1-1.159.811.998.998 0 0 1-.811-1.158zm3.94.695a.998.998 0 0 1 1.158-.812c.544.096.907.611.81 1.159a.998.998 0 0 1-1.158.811.998.998 0 0 1-.81-1.158zm3.938.694a.998.998 0 0 1 1.159-.811c.544.096.908.61.811 1.159a.998.998 0 0 1-1.158.81.998.998 0 0 1-.812-1.158zm7.966.897l12.802 2.257-.173.985-12.803-2.257.174-.985zM60.81 49.848a2.317 2.317 0 0 1 2.688-1.876l30.883 5.445a2.324 2.324 0 0 1 1.883 2.682l-.586 3.32a2.317 2.317 0 0 1-2.687 1.877L62.11 55.85a2.324 2.324 0 0 1-1.884-2.681l.586-3.321zm2.663 2.181a.998.998 0 0 1 1.158-.811c.544.096.908.61.811 1.158a.998.998 0 0 1-1.158.812.998.998 0 0 1-.811-1.159zm3.939.695a.998.998 0 0 1 1.158-.811c.544.095.908.61.811 1.158a.998.998 0 0 1-1.158.811.998.998 0 0 1-.811-1.158zm3.939.694a.998.998 0 0 1 1.158-.81c.544.095.908.61.812 1.158a.998.998 0 0 1-1.159.81.998.998 0 0 1-.811-1.158zm7.965.897l12.803 2.257-.174.985L79.143 55.3l.173-.985zM59.074 59.696a2.317 2.317 0 0 1 2.687-1.876l30.883 5.445a2.324 2.324 0 0 1 1.883 2.682l-.585 3.321a2.317 2.317 0 0 1-2.687 1.876l-30.883-5.446a2.324 2.324 0 0 1-1.883-2.681l.585-3.321zm2.662 2.181a.998.998 0 0 1 1.158-.811c.544.096.908.61.812 1.158a.998.998 0 0 1-1.159.812.998.998 0 0 1-.811-1.159zm3.94.695a.998.998 0 0 1 1.158-.811c.544.096.907.61.81 1.158a.998.998 0 0 1-1.158.811.998.998 0 0 1-.81-1.158zm3.939.694a.998.998 0 0 1 1.158-.81c.544.095.908.61.811 1.158a.998.998 0 0 1-1.158.81.998.998 0 0 1-.811-1.158zm7.965.897l12.802 2.258-.173.984-12.803-2.257.174-.985zM110.033 29.344a2.317 2.317 0 0 1 .852-3.165L138.043 10.5a2.324 2.324 0 0 1 3.167.844l1.686 2.92a2.317 2.317 0 0 1-.853 3.164l-27.158 15.68a2.324 2.324 0 0 1-3.166-.844l-1.686-2.92zm3.44-.04a.998.998 0 0 1 .367-1.366.998.998 0 0 1 1.366.366.998.998 0 0 1-.366 1.366.998.998 0 0 1-1.366-.366zm3.465-2a.998.998 0 0 1 .366-1.366.998.998 0 0 1 1.366.366.998.998 0 0 1-.366 1.366.998.998 0 0 1-1.366-.366zm3.464-2a.998.998 0 0 1 .366-1.366.998.998 0 0 1 1.366.366.998.998 0 0 1-.366 1.366.998.998 0 0 1-1.366-.366zm6.678-4.433l11.258-6.5.5.866-11.258 6.5-.5-.866zM115.033 38.004a2.317 2.317 0 0 1 .852-3.164l27.158-15.68a2.324 2.324 0 0 1 3.167.844l1.686 2.92a2.317 2.317 0 0 1-.853 3.164l-27.158 15.68a2.324 2.324 0 0 1-3.166-.844l-1.686-2.92zm3.44-.04a.998.998 0 0 1 .367-1.366.998.998 0 0 1 1.366.366.998.998 0 0 1-.366 1.366.998.998 0 0 1-1.366-.366zm3.465-2a.998.998 0 0 1 .366-1.366.998.998 0 0 1 1.366.366.998.998 0 0 1-.366 1.366.998.998 0 0 1-1.366-.366zm3.464-2a.998.998 0 0 1 .366-1.366.998.998 0 0 1 1.366.366.998.998 0 0 1-.366 1.366.998.998 0 0 1-1.366-.366zm6.678-4.433l11.258-6.5.5.866-11.258 6.5-.5-.866zM120.033 46.664a2.317 2.317 0 0 1 .852-3.164l27.158-15.68a2.324 2.324 0 0 1 3.167.844l1.686 2.92a2.317 2.317 0 0 1-.853 3.165l-27.158 15.68a2.324 2.324 0 0 1-3.166-.844l-1.686-2.92zm3.44-.04a.998.998 0 0 1 .367-1.366.998.998 0 0 1 1.366.366.998.998 0 0 1-.366 1.366.998.998 0 0 1-1.366-.366zm3.465-2a.998.998 0 0 1 .366-1.366.998.998 0 0 1 1.366.366.998.998 0 0 1-.366 1.366.998.998 0 0 1-1.366-.366zm3.464-2a.998.998 0 0 1 .366-1.366.998.998 0 0 1 1.366.366.998.998 0 0 1-.366 1.366.998.998 0 0 1-1.366-.366zm6.678-4.433l11.258-6.5.5.866-11.258 6.5-.5-.866zM185.473 17.99a2.317 2.317 0 0 1 2.972-1.382l29.468 10.726a2.324 2.324 0 0 1 1.389 2.968l-1.153 3.169a2.317 2.317 0 0 1-2.972 1.38l-29.468-10.725a2.324 2.324 0 0 1-1.39-2.968l1.154-3.169zm2.243 2.61a.998.998 0 0 1 1.281-.598c.52.189.788.76.598 1.282a.998.998 0 0 1-1.282.597.998.998 0 0 1-.597-1.281zm3.758 1.368a.998.998 0 0 1 1.282-.598c.519.189.788.76.598 1.282a.998.998 0 0 1-1.282.597.998.998 0 0 1-.598-1.281zm3.759 1.368a.998.998 0 0 1 1.282-.598c.519.189.788.76.597 1.282a.998.998 0 0 1-1.281.597.998.998 0 0 1-.598-1.281zm7.689 2.266l12.216 4.446-.342.94-12.216-4.446.342-.94zM182.053 27.386a2.317 2.317 0 0 1 2.972-1.38l29.468 10.725a2.324 2.324 0 0 1 1.389 2.968l-1.154 3.169a2.317 2.317 0 0 1-2.971 1.38l-29.468-10.725a2.324 2.324 0 0 1-1.39-2.968l1.154-3.169zm2.242 2.61a.998.998 0 0 1 1.282-.597c.519.189.788.759.598 1.282a.998.998 0 0 1-1.282.597.998.998 0 0 1-.598-1.281zm3.76 1.369a.998.998 0 0 1 1.28-.598c.52.189.789.76.598 1.282a.998.998 0 0 1-1.281.597.998.998 0 0 1-.598-1.281zm3.758 1.368a.998.998 0 0 1 1.282-.598c.519.189.787.76.597 1.282a.998.998 0 0 1-1.281.597.998.998 0 0 1-.598-1.281zm7.688 2.266l12.216 4.446-.342.94-12.216-4.446.342-.94zM178.633 36.783a2.317 2.317 0 0 1 2.972-1.38l29.467 10.725a2.324 2.324 0 0 1 1.39 2.968l-1.154 3.169a2.317 2.317 0 0 1-2.972 1.38L178.87 42.92a2.324 2.324 0 0 1-1.39-2.968l1.154-3.169zm2.242 2.61a.998.998 0 0 1 1.282-.597c.519.189.788.759.597 1.282a.998.998 0 0 1-1.281.597.998.998 0 0 1-.598-1.282zm3.759 1.369a.998.998 0 0 1 1.282-.598c.519.189.787.759.597 1.282a.998.998 0 0 1-1.281.597.998.998 0 0 1-.598-1.281zm3.759 1.368a.998.998 0 0 1 1.281-.598c.52.189.788.76.598 1.282a.998.998 0 0 1-1.282.597.998.998 0 0 1-.597-1.281zm7.688 2.266l12.216 4.446-.342.94-12.216-4.446.342-.94zM241.033 26.344a2.317 2.317 0 0 1 .852-3.165L269.043 7.5a2.324 2.324 0 0 1 3.167.844l1.686 2.92a2.317 2.317 0 0 1-.853 3.164l-27.158 15.68a2.324 2.324 0 0 1-3.166-.844l-1.686-2.92zm3.44-.04a.998.998 0 0 1 .367-1.366.998.998 0 0 1 1.366.366.998.998 0 0 1-.366 1.366.998.998 0 0 1-1.366-.366zm3.465-2a.998.998 0 0 1 .366-1.366.998.998 0 0 1 1.366.366.998.998 0 0 1-.366 1.366.998.998 0 0 1-1.366-.366zm3.464-2a.998.998 0 0 1 .366-1.366.998.998 0 0 1 1.366.366.998.998 0 0 1-.366 1.366.998.998 0 0 1-1.366-.366zm6.678-4.433l11.258-6.5.5.866-11.258 6.5-.5-.866zM246.033 35.004a2.317 2.317 0 0 1 .852-3.164l27.158-15.68a2.324 2.324 0 0 1 3.167.844l1.686 2.92a2.317 2.317 0 0 1-.853 3.164l-27.158 15.68a2.324 2.324 0 0 1-3.166-.844l-1.686-2.92zm3.44-.04a.998.998 0 0 1 .367-1.366.998.998 0 0 1 1.366.366.998.998 0 0 1-.366 1.366.998.998 0 0 1-1.366-.366zm3.465-2a.998.998 0 0 1 .366-1.366.998.998 0 0 1 1.366.366.998.998 0 0 1-.366 1.366.998.998 0 0 1-1.366-.366zm3.464-2a.998.998 0 0 1 .366-1.366.998.998 0 0 1 1.366.366.998.998 0 0 1-.366 1.366.998.998 0 0 1-1.366-.366zm6.678-4.433l11.258-6.5.5.866-11.258 6.5-.5-.866zM251.033 43.664a2.317 2.317 0 0 1 .852-3.164l27.158-15.68a2.324 2.324 0 0 1 3.167.844l1.686 2.92a2.317 2.317 0 0 1-.853 3.165l-27.158 15.68a2.324 2.324 0 0 1-3.166-.844l-1.686-2.92zm3.44-.04a.998.998 0 0 1 .367-1.366.998.998 0 0 1 1.366.366.998.998 0 0 1-.366 1.366.998.998 0 0 1-1.366-.366zm3.465-2a.998.998 0 0 1 .366-1.366.998.998 0 0 1 1.366.366.998.998 0 0 1-.366 1.366.998.998 0 0 1-1.366-.366zm3.464-2a.998.998 0 0 1 .366-1.366.998.998 0 0 1 1.366.366.998.998 0 0 1-.366 1.366.998.998 0 0 1-1.366-.366zm6.678-4.433l11.258-6.5.5.866-11.258 6.5-.5-.866zM345.958 17.201a2.317 2.317 0 0 1 3.181-.788l26.88 16.151a2.324 2.324 0 0 1 .797 3.179l-1.736 2.89a2.317 2.317 0 0 1-3.181.788l-26.88-16.15a2.324 2.324 0 0 1-.798-3.18l1.737-2.89zm1.703 2.99a.998.998 0 0 1 1.373-.342.998.998 0 0 1 .342 1.373.998.998 0 0 1-1.372.342.998.998 0 0 1-.343-1.372zm3.43 2.06a.998.998 0 0 1 1.371-.341.998.998 0 0 1 .342 1.372.998.998 0 0 1-1.372.342.998.998 0 0 1-.342-1.372zm3.428 2.06a.998.998 0 0 1 1.372-.341.998.998 0 0 1 .342 1.372.998.998 0 0 1-1.372.342.998.998 0 0 1-.342-1.372zm7.115 3.693l11.143 6.695-.515.857-11.143-6.695.515-.857zM340.808 25.773a2.317 2.317 0 0 1 3.18-.788l26.88 16.15a2.324 2.324 0 0 1 .798 3.18l-1.737 2.89a2.317 2.317 0 0 1-3.18.788l-26.88-16.151a2.324 2.324 0 0 1-.798-3.179l1.737-2.89zm1.703 2.99a.998.998 0 0 1 1.372-.342.998.998 0 0 1 .342 1.372.998.998 0 0 1-1.372.342.998.998 0 0 1-.342-1.372zm3.429 2.06a.998.998 0 0 1 1.372-.342.998.998 0 0 1 .342 1.372.998.998 0 0 1-1.372.343.998.998 0 0 1-.342-1.373zm3.428 2.06a.998.998 0 0 1 1.373-.342.998.998 0 0 1 .342 1.373.998.998 0 0 1-1.373.342.998.998 0 0 1-.342-1.372zm7.115 3.692l11.143 6.696-.515.857-11.143-6.696.515-.857zM335.658 34.345a2.317 2.317 0 0 1 3.18-.789l26.88 16.151a2.324 2.324 0 0 1 .798 3.179l-1.737 2.89a2.317 2.317 0 0 1-3.181.789l-26.88-16.151a2.324 2.324 0 0 1-.797-3.179l1.737-2.89zm1.703 2.99a.998.998 0 0 1 1.372-.342.998.998 0 0 1 .342 1.372.998.998 0 0 1-1.372.342.998.998 0 0 1-.342-1.372zm3.428 2.06a.998.998 0 0 1 1.373-.342.998.998 0 0 1 .342 1.372.998.998 0 0 1-1.373.342.998.998 0 0 1-.342-1.372zm3.429 2.06a.998.998 0 0 1 1.372-.342.998.998 0 0 1 .342 1.372.998.998 0 0 1-1.372.342.998.998 0 0 1-.342-1.372zm7.115 3.692l11.143 6.695-.515.858-11.143-6.696.515-.857zM407.746 39.732a2.317 2.317 0 0 1-.053-3.277l21.784-22.558a2.324 2.324 0 0 1 3.277-.062l2.425 2.343c.92.888.943 2.354.053 3.276l-21.784 22.558a2.324 2.324 0 0 1-3.276.062l-2.426-2.342zm3.297-.987a.998.998 0 0 1-.025-1.414.998.998 0 0 1 1.414-.025.998.998 0 0 1 .025 1.414.998.998 0 0 1-1.414.025zm2.778-2.878a.998.998 0 0 1-.024-1.414.998.998 0 0 1 1.414-.024.998.998 0 0 1 .024 1.414.998.998 0 0 1-1.414.024zm2.779-2.877a.998.998 0 0 1-.025-1.414.998.998 0 0 1 1.414-.025.998.998 0 0 1 .025 1.414.998.998 0 0 1-1.414.025zm5.198-6.102l9.03-9.351.72.694-9.031 9.352-.72-.695zM414.94 46.678a2.317 2.317 0 0 1-.053-3.276l21.784-22.558a2.324 2.324 0 0 1 3.276-.062l2.426 2.342c.919.888.943 2.355.052 3.277l-21.784 22.558a2.324 2.324 0 0 1-3.276.062l-2.426-2.343zm3.296-.987a.998.998 0 0 1-.025-1.414.998.998 0 0 1 1.414-.024.998.998 0 0 1 .025 1.414.998.998 0 0 1-1.414.024zm2.779-2.877a.998.998 0 0 1-.025-1.414.998.998 0 0 1 1.414-.025.998.998 0 0 1 .025 1.414.998.998 0 0 1-1.414.025zm2.778-2.877a.998.998 0 0 1-.024-1.414.998.998 0 0 1 1.414-.025.998.998 0 0 1 .024 1.414.998.998 0 0 1-1.414.025zm5.198-6.102l9.03-9.352.72.695-9.03 9.351-.72-.694zM422.133 53.625a2.317 2.317 0 0 1-.053-3.277l21.784-22.558a2.324 2.324 0 0 1 3.276-.062l2.426 2.343c.92.888.943 2.354.053 3.277l-21.784 22.557a2.324 2.324 0 0 1-3.277.062l-2.425-2.342zm3.297-.987a.998.998 0 0 1-.025-1.414.998.998 0 0 1 1.414-.025.998.998 0 0 1 .025 1.414.998.998 0 0 1-1.414.025zm2.778-2.877a.998.998 0 0 1-.025-1.414.998.998 0 0 1 1.414-.025.998.998 0 0 1 .025 1.414.998.998 0 0 1-1.414.025zm2.779-2.878a.998.998 0 0 1-.025-1.414.998.998 0 0 1 1.414-.024.998.998 0 0 1 .025 1.414.998.998 0 0 1-1.414.024zm5.197-6.102l9.03-9.351.72.694-9.03 9.352-.72-.695zM487.156 27.01a2.317 2.317 0 0 1 .517-3.235l25.37-18.432a2.324 2.324 0 0 1 3.238.508l1.982 2.728a2.317 2.317 0 0 1-.518 3.236l-25.37 18.432a2.324 2.324 0 0 1-3.237-.508l-1.982-2.728zm3.418-.398a.998.998 0 0 1 .221-1.397.998.998 0 0 1 1.397.221.998.998 0 0 1-.221 1.397.998.998 0 0 1-1.397-.221zm3.236-2.352a.998.998 0 0 1 .221-1.396.998.998 0 0 1 1.397.22.998.998 0 0 1-.221 1.398.998.998 0 0 1-1.397-.222zm3.236-2.35a.998.998 0 0 1 .221-1.398.998.998 0 0 1 1.397.222.998.998 0 0 1-.221 1.396.998.998 0 0 1-1.397-.22zm6.178-5.108l10.518-7.64.587.808-10.517 7.641-.588-.809zM493.034 35.101a2.317 2.317 0 0 1 .517-3.236l25.37-18.432a2.324 2.324 0 0 1 3.237.508l1.983 2.728a2.317 2.317 0 0 1-.518 3.236l-25.37 18.432a2.324 2.324 0 0 1-3.237-.508l-1.982-2.728zm3.418-.4a.998.998 0 0 1 .221-1.396.998.998 0 0 1 1.397.221.998.998 0 0 1-.221 1.397.998.998 0 0 1-1.397-.221zm3.236-2.35a.998.998 0 0 1 .221-1.397.998.998 0 0 1 1.397.221.998.998 0 0 1-.221 1.397.998.998 0 0 1-1.397-.221zm3.236-2.352a.998.998 0 0 1 .221-1.396.998.998 0 0 1 1.397.22.998.998 0 0 1-.221 1.398.998.998 0 0 1-1.397-.222zm6.178-5.106l10.518-7.642.587.81-10.517 7.64-.588-.808zM498.912 43.191a2.317 2.317 0 0 1 .517-3.236l25.37-18.432a2.324 2.324 0 0 1 3.237.508l1.982 2.728a2.317 2.317 0 0 1-.517 3.236l-25.37 18.432a2.324 2.324 0 0 1-3.237-.508l-1.982-2.728zm3.418-.4a.998.998 0 0 1 .221-1.396.998.998 0 0 1 1.397.221.998.998 0 0 1-.221 1.397.998.998 0 0 1-1.397-.221zm3.236-2.35a.998.998 0 0 1 .221-1.397.998.998 0 0 1 1.397.221.998.998 0 0 1-.221 1.397.998.998 0 0 1-1.397-.221zm3.236-2.351a.998.998 0 0 1 .221-1.397.998.998 0 0 1 1.397.221.998.998 0 0 1-.221 1.397.998.998 0 0 1-1.397-.221zm6.178-5.107l10.517-7.641.588.809-10.517 7.64-.588-.808zM545.691 30.8a2.317 2.317 0 0 1 3.218-.621l25.998 17.535a2.324 2.324 0 0 1 .63 3.216l-1.886 2.796a2.317 2.317 0 0 1-3.218.62l-25.997-17.535a2.324 2.324 0 0 1-.63-3.216l1.885-2.796zm1.545 3.075a.998.998 0 0 1 1.388-.27c.458.309.58.927.27 1.388a.998.998 0 0 1-1.388.27.998.998 0 0 1-.27-1.388zm3.316 2.236a.998.998 0 0 1 1.388-.27c.458.31.581.928.27 1.389a.998.998 0 0 1-1.388.27.998.998 0 0 1-.27-1.389zm3.316 2.237a.998.998 0 0 1 1.388-.27c.458.31.581.928.27 1.389a.998.998 0 0 1-1.388.27.998.998 0 0 1-.27-1.389zm6.912 4.06l10.777 7.269-.559.829-10.777-7.27.559-.829zM540.1 39.09a2.317 2.317 0 0 1 3.217-.621l25.998 17.536a2.324 2.324 0 0 1 .63 3.216l-1.886 2.795a2.317 2.317 0 0 1-3.218.62l-25.997-17.535a2.324 2.324 0 0 1-.63-3.216l1.886-2.795zm1.544 3.075a.998.998 0 0 1 1.388-.27c.458.309.58.927.27 1.388a.998.998 0 0 1-1.388.27.998.998 0 0 1-.27-1.388zm3.316 2.237a.998.998 0 0 1 1.388-.27c.458.309.581.927.27 1.388a.998.998 0 0 1-1.388.27.998.998 0 0 1-.27-1.388zm3.316 2.237a.998.998 0 0 1 1.388-.27c.458.309.581.927.27 1.388a.998.998 0 0 1-1.388.27.998.998 0 0 1-.27-1.388zm6.912 4.059l10.778 7.27-.56.828-10.777-7.27.559-.828zM534.508 47.38a2.317 2.317 0 0 1 3.217-.62l25.998 17.535a2.324 2.324 0 0 1 .63 3.216l-1.886 2.796a2.317 2.317 0 0 1-3.217.62l-25.998-17.535a2.324 2.324 0 0 1-.63-3.216l1.886-2.796zm1.544 3.075a.998.998 0 0 1 1.388-.27c.458.31.58.928.27 1.389a.998.998 0 0 1-1.388.27.998.998 0 0 1-.27-1.389zm3.316 2.237a.998.998 0 0 1 1.388-.27c.458.31.581.928.27 1.389a.998.998 0 0 1-1.388.27.998.998 0 0 1-.27-1.389zm3.316 2.237a.998.998 0 0 1 1.388-.27c.458.309.581.927.27 1.388a.998.998 0 0 1-1.388.27.998.998 0 0 1-.27-1.388zm6.912 4.059l10.778 7.27-.56.829-10.777-7.27.56-.829zM9.473 58.99a2.317 2.317 0 0 1 2.972-1.382l29.468 10.726a2.324 2.324 0 0 1 1.389 2.968l-1.153 3.169a2.317 2.317 0 0 1-2.972 1.38L9.709 65.126a2.324 2.324 0 0 1-1.39-2.968l1.154-3.169zm2.243 2.61a.998.998 0 0 1 1.281-.598c.52.189.788.76.598 1.282a.998.998 0 0 1-1.282.597.998.998 0 0 1-.597-1.281zm3.758 1.368a.998.998 0 0 1 1.282-.598c.519.189.788.76.598 1.282a.998.998 0 0 1-1.282.597.998.998 0 0 1-.598-1.281zm3.759 1.368a.998.998 0 0 1 1.282-.598c.519.189.788.76.597 1.282a.998.998 0 0 1-1.281.597.998.998 0 0 1-.598-1.281zm7.689 2.266l12.216 4.446-.342.94-12.216-4.446.342-.94zM6.053 68.386a2.317 2.317 0 0 1 2.972-1.38L38.493 77.73a2.324 2.324 0 0 1 1.389 2.968l-1.154 3.169a2.317 2.317 0 0 1-2.971 1.38L6.289 74.523a2.324 2.324 0 0 1-1.39-2.968l1.154-3.169zm2.242 2.61a.998.998 0 0 1 1.282-.597c.519.189.788.759.598 1.282a.998.998 0 0 1-1.282.597.998.998 0 0 1-.598-1.281zm3.76 1.369a.998.998 0 0 1 1.28-.598c.52.189.789.76.598 1.282a.998.998 0 0 1-1.281.597.998.998 0 0 1-.598-1.281zm3.758 1.368a.998.998 0 0 1 1.282-.598c.519.189.787.76.597 1.282a.998.998 0 0 1-1.281.597.998.998 0 0 1-.598-1.281zm7.688 2.266l12.216 4.446-.342.94-12.216-4.446.342-.94zM2.633 77.783a2.317 2.317 0 0 1 2.972-1.38l29.467 10.725a2.324 2.324 0 0 1 1.39 2.968l-1.154 3.169a2.317 2.317 0 0 1-2.972 1.38L2.87 83.92a2.324 2.324 0 0 1-1.39-2.968l1.154-3.169zm2.242 2.61a.998.998 0 0 1 1.282-.597c.519.189.788.759.597 1.282a.998.998 0 0 1-1.281.597.998.998 0 0 1-.598-1.282zm3.759 1.369a.998.998 0 0 1 1.282-.598c.519.189.787.759.597 1.282a.998.998 0 0 1-1.281.597.998.998 0 0 1-.598-1.281zm3.759 1.368a.998.998 0 0 1 1.281-.598c.52.189.788.76.598 1.282a.998.998 0 0 1-1.282.597.998.998 0 0 1-.597-1.281zm7.688 2.266l12.216 4.446-.342.94-12.216-4.446.342-.94zM100.033 84.344a2.317 2.317 0 0 1 .852-3.165L128.043 65.5a2.324 2.324 0 0 1 3.167.844l1.686 2.92a2.317 2.317 0 0 1-.853 3.164l-27.158 15.68a2.324 2.324 0 0 1-3.166-.844l-1.686-2.92zm3.44-.04a.998.998 0 0 1 .367-1.366.998.998 0 0 1 1.366.366.998.998 0 0 1-.366 1.366.998.998 0 0 1-1.366-.366zm3.465-2a.998.998 0 0 1 .366-1.366.998.998 0 0 1 1.366.366.998.998 0 0 1-.366 1.366.998.998 0 0 1-1.366-.366zm3.464-2a.998.998 0 0 1 .366-1.366.998.998 0 0 1 1.366.366.998.998 0 0 1-.366 1.366.998.998 0 0 1-1.366-.366zm6.678-4.433l11.258-6.5.5.866-11.258 6.5-.5-.866zM105.033 93.004a2.317 2.317 0 0 1 .852-3.164l27.158-15.68a2.324 2.324 0 0 1 3.167.844l1.686 2.92a2.317 2.317 0 0 1-.853 3.164l-27.158 15.68a2.324 2.324 0 0 1-3.166-.844l-1.686-2.92zm3.44-.04a.998.998 0 0 1 .367-1.366.998.998 0 0 1 1.366.366.998.998 0 0 1-.366 1.366.998.998 0 0 1-1.366-.366zm3.465-2a.998.998 0 0 1 .366-1.366.998.998 0 0 1 1.366.366.998.998 0 0 1-.366 1.366.998.998 0 0 1-1.366-.366zm3.464-2a.998.998 0 0 1 .366-1.366.998.998 0 0 1 1.366.366.998.998 0 0 1-.366 1.366.998.998 0 0 1-1.366-.366zm6.678-4.433l11.258-6.5.5.866-11.258 6.5-.5-.866zM110.033 101.664a2.317 2.317 0 0 1 .852-3.164l27.158-15.68a2.324 2.324 0 0 1 3.167.844l1.686 2.92a2.317 2.317 0 0 1-.853 3.165l-27.158 15.68a2.324 2.324 0 0 1-3.166-.844l-1.686-2.92zm3.44-.04a.998.998 0 0 1 .367-1.366.998.998 0 0 1 1.366.366.998.998 0 0 1-.366 1.366.998.998 0 0 1-1.366-.366zm3.465-2a.998.998 0 0 1 .366-1.366.998.998 0 0 1 1.366.366.998.998 0 0 1-.366 1.366.998.998 0 0 1-1.366-.366zm3.464-2a.998.998 0 0 1 .366-1.366.998.998 0 0 1 1.366.366.998.998 0 0 1-.366 1.366.998.998 0 0 1-1.366-.366zm6.678-4.433l11.258-6.5.5.866-11.258 6.5-.5-.866z"/><g><path d="M153 65.314A2.317 2.317 0 0 1 155.32 63h31.36a2.324 2.324 0 0 1 2.32 2.314v3.372A2.317 2.317 0 0 1 186.68 71h-31.36a2.324 2.324 0 0 1-2.32-2.314v-3.372zM156 67c0-.552.444-1 1-1 .552 0 1 .444 1 1 0 .552-.444 1-1 1-.552 0-1-.444-1-1zm4 0c0-.552.444-1 1-1 .552 0 1 .444 1 1 0 .552-.444 1-1 1-.552 0-1-.444-1-1zm4 0c0-.552.444-1 1-1 .552 0 1 .444 1 1 0 .552-.444 1-1 1-.552 0-1-.444-1-1zm8-.5h13v1h-13v-1zM153 75.314A2.317 2.317 0 0 1 155.32 73h31.36a2.324 2.324 0 0 1 2.32 2.314v3.372A2.317 2.317 0 0 1 186.68 81h-31.36a2.324 2.324 0 0 1-2.32-2.314v-3.372zM156 77c0-.552.444-1 1-1 .552 0 1 .444 1 1 0 .552-.444 1-1 1-.552 0-1-.444-1-1zm4 0c0-.552.444-1 1-1 .552 0 1 .444 1 1 0 .552-.444 1-1 1-.552 0-1-.444-1-1zm4 0c0-.552.444-1 1-1 .552 0 1 .444 1 1 0 .552-.444 1-1 1-.552 0-1-.444-1-1zm8-.5h13v1h-13v-1zM153 85.314A2.317 2.317 0 0 1 155.32 83h31.36a2.324 2.324 0 0 1 2.32 2.314v3.372A2.317 2.317 0 0 1 186.68 91h-31.36a2.324 2.324 0 0 1-2.32-2.314v-3.372zM156 87c0-.552.444-1 1-1 .552 0 1 .444 1 1 0 .552-.444 1-1 1-.552 0-1-.444-1-1zm4 0c0-.552.444-1 1-1 .552 0 1 .444 1 1 0 .552-.444 1-1 1-.552 0-1-.444-1-1zm4 0c0-.552.444-1 1-1 .552 0 1 .444 1 1 0 .552-.444 1-1 1-.552 0-1-.444-1-1zm8-.5h13v1h-13v-1z"/></g><g><path d="M213.033 74.344a2.317 2.317 0 0 1 .852-3.165L241.043 55.5a2.324 2.324 0 0 1 3.167.844l1.686 2.92a2.317 2.317 0 0 1-.853 3.164l-27.158 15.68a2.324 2.324 0 0 1-3.166-.844l-1.686-2.92zm3.44-.04a.998.998 0 0 1 .367-1.366.998.998 0 0 1 1.366.366.998.998 0 0 1-.366 1.366.998.998 0 0 1-1.366-.366zm3.465-2a.998.998 0 0 1 .366-1.366.998.998 0 0 1 1.366.366.998.998 0 0 1-.366 1.366.998.998 0 0 1-1.366-.366zm3.464-2a.998.998 0 0 1 .366-1.366.998.998 0 0 1 1.366.366.998.998 0 0 1-.366 1.366.998.998 0 0 1-1.366-.366zm6.678-4.433l11.258-6.5.5.866-11.258 6.5-.5-.866zM218.033 83.004a2.317 2.317 0 0 1 .852-3.164l27.158-15.68a2.324 2.324 0 0 1 3.167.844l1.686 2.92a2.317 2.317 0 0 1-.853 3.164l-27.158 15.68a2.324 2.324 0 0 1-3.166-.844l-1.686-2.92zm3.44-.04a.998.998 0 0 1 .367-1.366.998.998 0 0 1 1.366.366.998.998 0 0 1-.366 1.366.998.998 0 0 1-1.366-.366zm3.465-2a.998.998 0 0 1 .366-1.366.998.998 0 0 1 1.366.366.998.998 0 0 1-.366 1.366.998.998 0 0 1-1.366-.366zm3.464-2a.998.998 0 0 1 .366-1.366.998.998 0 0 1 1.366.366.998.998 0 0 1-.366 1.366.998.998 0 0 1-1.366-.366zm6.678-4.433l11.258-6.5.5.866-11.258 6.5-.5-.866zM223.033 91.664a2.317 2.317 0 0 1 .852-3.164l27.158-15.68a2.324 2.324 0 0 1 3.167.844l1.686 2.92a2.317 2.317 0 0 1-.853 3.165l-27.158 15.68a2.324 2.324 0 0 1-3.166-.844l-1.686-2.92zm3.44-.04a.998.998 0 0 1 .367-1.366.998.998 0 0 1 1.366.366.998.998 0 0 1-.366 1.366.998.998 0 0 1-1.366-.366zm3.465-2a.998.998 0 0 1 .366-1.366.998.998 0 0 1 1.366.366.998.998 0 0 1-.366 1.366.998.998 0 0 1-1.366-.366zm3.464-2a.998.998 0 0 1 .366-1.366.998.998 0 0 1 1.366.366.998.998 0 0 1-.366 1.366.998.998 0 0 1-1.366-.366zm6.678-4.433l11.258-6.5.5.866-11.258 6.5-.5-.866z"/></g><g><path d="M261.878 92.862a2.317 2.317 0 0 1 1.883-2.682l30.883-5.445a2.324 2.324 0 0 1 2.687 1.875l.586 3.321a2.317 2.317 0 0 1-1.884 2.682l-30.882 5.446a2.324 2.324 0 0 1-2.687-1.876l-.586-3.321zm3.247 1.14a.998.998 0 0 1 .811-1.16.998.998 0 0 1 1.159.812.998.998 0 0 1-.811 1.158.998.998 0 0 1-1.159-.81zm3.94-.695a.998.998 0 0 1 .81-1.159.998.998 0 0 1 1.16.811.998.998 0 0 1-.812 1.159.998.998 0 0 1-1.159-.811zm3.939-.695a.998.998 0 0 1 .81-1.158.998.998 0 0 1 1.16.81.998.998 0 0 1-.812 1.16.998.998 0 0 1-1.158-.812zm7.791-1.881l12.803-2.258.173.985-12.802 2.257-.174-.984zM263.615 102.71a2.317 2.317 0 0 1 1.883-2.682l30.883-5.445a2.324 2.324 0 0 1 2.687 1.876l.585 3.32a2.317 2.317 0 0 1-1.883 2.682l-30.883 5.446a2.324 2.324 0 0 1-2.687-1.876l-.585-3.321zm3.247 1.14a.998.998 0 0 1 .81-1.16.998.998 0 0 1 1.16.812.998.998 0 0 1-.812 1.159.998.998 0 0 1-1.158-.812zm3.939-.695a.998.998 0 0 1 .811-1.159.998.998 0 0 1 1.159.811.998.998 0 0 1-.812 1.159.998.998 0 0 1-1.158-.811zm3.94-.695a.998.998 0 0 1 .81-1.158.998.998 0 0 1 1.159.81.998.998 0 0 1-.811 1.16.998.998 0 0 1-1.159-.812zm7.79-1.881l12.803-2.258.174.985-12.803 2.257-.173-.984zM265.351 112.558a2.317 2.317 0 0 1 1.883-2.682l30.883-5.445a2.324 2.324 0 0 1 2.687 1.876l.586 3.32a2.317 2.317 0 0 1-1.884 2.682l-30.882 5.446a2.324 2.324 0 0 1-2.687-1.876l-.586-3.321zm3.247 1.14a.998.998 0 0 1 .811-1.159.998.998 0 0 1 1.159.811.998.998 0 0 1-.811 1.159.998.998 0 0 1-1.159-.812zm3.94-.695a.998.998 0 0 1 .81-1.159.998.998 0 0 1 1.159.812.998.998 0 0 1-.811 1.158.998.998 0 0 1-1.159-.811zm3.939-.695a.998.998 0 0 1 .81-1.158.998.998 0 0 1 1.16.811.998.998 0 0 1-.812 1.158.998.998 0 0 1-1.158-.81zm7.791-1.881l12.803-2.258.173.985-12.802 2.257-.174-.984z"/></g><g><path d="M288.878 52.862a2.317 2.317 0 0 1 1.883-2.682l30.883-5.445a2.324 2.324 0 0 1 2.687 1.875l.586 3.321a2.317 2.317 0 0 1-1.884 2.682l-30.882 5.446a2.324 2.324 0 0 1-2.687-1.876l-.586-3.321zm3.247 1.14a.998.998 0 0 1 .811-1.16.998.998 0 0 1 1.159.812.998.998 0 0 1-.811 1.158.998.998 0 0 1-1.159-.81zm3.94-.695a.998.998 0 0 1 .81-1.159.998.998 0 0 1 1.16.811.998.998 0 0 1-.812 1.159.998.998 0 0 1-1.159-.811zm3.939-.695a.998.998 0 0 1 .81-1.158.998.998 0 0 1 1.16.81.998.998 0 0 1-.812 1.16.998.998 0 0 1-1.158-.812zm7.791-1.881l12.803-2.258.173.985-12.802 2.257-.174-.984zM290.615 62.71a2.317 2.317 0 0 1 1.883-2.682l30.883-5.445a2.324 2.324 0 0 1 2.687 1.876l.585 3.32a2.317 2.317 0 0 1-1.883 2.682l-30.883 5.446a2.324 2.324 0 0 1-2.687-1.876l-.585-3.321zm3.247 1.14a.998.998 0 0 1 .81-1.16.998.998 0 0 1 1.16.812.998.998 0 0 1-.812 1.159.998.998 0 0 1-1.158-.812zm3.939-.695a.998.998 0 0 1 .811-1.159.998.998 0 0 1 1.159.811.998.998 0 0 1-.812 1.159.998.998 0 0 1-1.158-.811zm3.94-.695a.998.998 0 0 1 .81-1.158.998.998 0 0 1 1.159.81.998.998 0 0 1-.811 1.16.998.998 0 0 1-1.159-.812zm7.79-1.881l12.803-2.258.174.985-12.803 2.257-.173-.984zM292.351 72.558a2.317 2.317 0 0 1 1.883-2.682l30.883-5.445a2.324 2.324 0 0 1 2.687 1.876l.586 3.32a2.317 2.317 0 0 1-1.884 2.682l-30.882 5.446a2.324 2.324 0 0 1-2.687-1.876l-.586-3.321zm3.247 1.14a.998.998 0 0 1 .811-1.159.998.998 0 0 1 1.159.811.998.998 0 0 1-.811 1.159.998.998 0 0 1-1.159-.812zm3.94-.695a.998.998 0 0 1 .81-1.159.998.998 0 0 1 1.159.812.998.998 0 0 1-.811 1.158.998.998 0 0 1-1.159-.811zm3.939-.695a.998.998 0 0 1 .81-1.158.998.998 0 0 1 1.16.811.998.998 0 0 1-.812 1.158.998.998 0 0 1-1.158-.81zm7.791-1.881l12.803-2.258.173.985-12.802 2.257-.174-.984z"/></g><g><path d="M364.156 75.01a2.317 2.317 0 0 1 .517-3.235l25.37-18.432a2.324 2.324 0 0 1 3.238.508l1.982 2.728a2.317 2.317 0 0 1-.518 3.236l-25.37 18.432a2.324 2.324 0 0 1-3.237-.508l-1.982-2.728zm3.418-.398a.998.998 0 0 1 .221-1.397.998.998 0 0 1 1.397.221.998.998 0 0 1-.221 1.397.998.998 0 0 1-1.397-.221zm3.236-2.352a.998.998 0 0 1 .221-1.396.998.998 0 0 1 1.397.22.998.998 0 0 1-.221 1.398.998.998 0 0 1-1.397-.222zm3.236-2.35a.998.998 0 0 1 .221-1.398.998.998 0 0 1 1.397.222.998.998 0 0 1-.221 1.396.998.998 0 0 1-1.397-.22zm6.178-5.108l10.518-7.64.587.808-10.517 7.641-.588-.809zM370.034 83.101a2.317 2.317 0 0 1 .517-3.236l25.37-18.432a2.324 2.324 0 0 1 3.237.508l1.983 2.728a2.317 2.317 0 0 1-.518 3.236l-25.37 18.432a2.324 2.324 0 0 1-3.237-.508l-1.982-2.728zm3.418-.4a.998.998 0 0 1 .221-1.396.998.998 0 0 1 1.397.221.998.998 0 0 1-.221 1.397.998.998 0 0 1-1.397-.221zm3.236-2.35a.998.998 0 0 1 .221-1.397.998.998 0 0 1 1.397.221.998.998 0 0 1-.221 1.397.998.998 0 0 1-1.397-.221zm3.236-2.352a.998.998 0 0 1 .221-1.396.998.998 0 0 1 1.397.22.998.998 0 0 1-.221 1.398.998.998 0 0 1-1.397-.222zm6.178-5.106l10.518-7.642.587.81-10.517 7.64-.588-.808zM375.912 91.191a2.317 2.317 0 0 1 .517-3.236l25.37-18.432a2.324 2.324 0 0 1 3.237.508l1.982 2.728a2.317 2.317 0 0 1-.517 3.236l-25.37 18.432a2.324 2.324 0 0 1-3.237-.508l-1.982-2.728zm3.418-.4a.998.998 0 0 1 .221-1.396.998.998 0 0 1 1.397.221.998.998 0 0 1-.221 1.397.998.998 0 0 1-1.397-.221zm3.236-2.35a.998.998 0 0 1 .221-1.397.998.998 0 0 1 1.397.221.998.998 0 0 1-.221 1.397.998.998 0 0 1-1.397-.221zm3.236-2.351a.998.998 0 0 1 .221-1.397.998.998 0 0 1 1.397.221.998.998 0 0 1-.221 1.397.998.998 0 0 1-1.397-.221zm6.178-5.107l10.517-7.641.588.809-10.517 7.64-.588-.808z"/></g><g><path d="M453.337 52.284a2.317 2.317 0 0 1 3.06-1.17l28.648 12.755a2.324 2.324 0 0 1 1.18 3.058l-1.372 3.08a2.317 2.317 0 0 1-3.061 1.17l-28.648-12.755a2.324 2.324 0 0 1-1.179-3.057l1.372-3.08zm2.054 2.76a.998.998 0 0 1 1.32-.506.998.998 0 0 1 .508 1.32.998.998 0 0 1-1.32.507.998.998 0 0 1-.508-1.32zm3.655 1.628a.998.998 0 0 1 1.32-.507.998.998 0 0 1 .507 1.32.998.998 0 0 1-1.32.507.998.998 0 0 1-.507-1.32zm3.654 1.627a.998.998 0 0 1 1.32-.507.998.998 0 0 1 .507 1.32.998.998 0 0 1-1.32.507.998.998 0 0 1-.507-1.32zm7.512 2.797l11.876 5.287-.407.914-11.876-5.288.407-.913zM449.27 61.42a2.317 2.317 0 0 1 3.06-1.17l28.648 12.754a2.324 2.324 0 0 1 1.179 3.058l-1.372 3.08a2.317 2.317 0 0 1-3.06 1.17l-28.649-12.754a2.324 2.324 0 0 1-1.178-3.058l1.371-3.08zm2.054 2.76a.998.998 0 0 1 1.32-.507.998.998 0 0 1 .507 1.32.998.998 0 0 1-1.32.507.998.998 0 0 1-.507-1.32zm3.654 1.627a.998.998 0 0 1 1.32-.507.998.998 0 0 1 .507 1.32.998.998 0 0 1-1.32.507.998.998 0 0 1-.507-1.32zm3.654 1.627a.998.998 0 0 1 1.32-.507.998.998 0 0 1 .508 1.32.998.998 0 0 1-1.32.507.998.998 0 0 1-.508-1.32zm7.512 2.797l11.876 5.288-.406.913-11.877-5.287.407-.914zM445.202 70.555a2.317 2.317 0 0 1 3.06-1.17l28.649 12.755a2.324 2.324 0 0 1 1.178 3.058l-1.371 3.08a2.317 2.317 0 0 1-3.061 1.17l-28.648-12.755a2.324 2.324 0 0 1-1.179-3.057l1.372-3.081zm2.055 2.76a.998.998 0 0 1 1.32-.506.998.998 0 0 1 .507 1.32.998.998 0 0 1-1.32.507.998.998 0 0 1-.507-1.32zm3.654 1.627a.998.998 0 0 1 1.32-.506.998.998 0 0 1 .507 1.32.998.998 0 0 1-1.32.507.998.998 0 0 1-.507-1.32zm3.654 1.627a.998.998 0 0 1 1.32-.506.998.998 0 0 1 .507 1.32.998.998 0 0 1-1.32.507.998.998 0 0 1-.507-1.32zm7.512 2.798l11.876 5.287-.407.914-11.876-5.288.407-.913z"/></g><g><path d="M499.57 75.356a2.317 2.317 0 0 1 2.477-2.146l31.282 2.187a2.324 2.324 0 0 1 2.154 2.47l-.236 3.364a2.317 2.317 0 0 1-2.476 2.147l-31.283-2.188a2.324 2.324 0 0 1-2.153-2.47l.235-3.364zm2.875 1.891a.998.998 0 0 1 1.068-.928c.55.039.966.513.927 1.068a.998.998 0 0 1-1.067.928.998.998 0 0 1-.928-1.068zm3.99.28a.998.998 0 0 1 1.068-.928c.55.038.967.512.928 1.067a.998.998 0 0 1-1.068.928.998.998 0 0 1-.927-1.068zm3.99.278a.998.998 0 0 1 1.068-.927c.551.038.967.512.928 1.067a.998.998 0 0 1-1.067.928.998.998 0 0 1-.928-1.068zm8.016.06l12.969.906-.07.998-12.969-.907.07-.997zM498.873 85.332a2.317 2.317 0 0 1 2.476-2.147l31.283 2.188a2.324 2.324 0 0 1 2.153 2.47l-.235 3.364a2.317 2.317 0 0 1-2.476 2.146l-31.283-2.187a2.324 2.324 0 0 1-2.154-2.47l.236-3.364zm2.875 1.89a.998.998 0 0 1 1.067-.927c.551.039.967.513.928 1.067a.998.998 0 0 1-1.067.928.998.998 0 0 1-.928-1.067zm3.99.28a.998.998 0 0 1 1.067-.928c.551.039.967.513.928 1.067a.998.998 0 0 1-1.067.928.998.998 0 0 1-.928-1.067zm3.99.279a.998.998 0 0 1 1.068-.928c.55.039.966.513.927 1.067a.998.998 0 0 1-1.067.928.998.998 0 0 1-.928-1.067zm8.016.06l12.968.906-.07.998-12.968-.907.07-.998zM498.175 95.307a2.317 2.317 0 0 1 2.476-2.146l31.283 2.187a2.324 2.324 0 0 1 2.153 2.47l-.235 3.365a2.317 2.317 0 0 1-2.476 2.146l-31.283-2.188a2.324 2.324 0 0 1-2.153-2.47l.235-3.364zm2.875 1.892a.998.998 0 0 1 1.068-.928c.55.038.966.512.927 1.067a.998.998 0 0 1-1.067.928.998.998 0 0 1-.928-1.067zm3.99.279a.998.998 0 0 1 1.068-.928c.55.038.966.512.928 1.067a.998.998 0 0 1-1.068.928.998.998 0 0 1-.928-1.067zm3.99.279a.998.998 0 0 1 1.068-.928c.551.038.967.512.928 1.067a.998.998 0 0 1-1.067.928.998.998 0 0 1-.928-1.067zm8.016.059l12.968.907-.07.997-12.968-.907.07-.997z"/></g><g><path d="M557.156 96.01a2.317 2.317 0 0 1 .517-3.235l25.37-18.432a2.324 2.324 0 0 1 3.238.508l1.982 2.728a2.317 2.317 0 0 1-.518 3.236l-25.37 18.432a2.324 2.324 0 0 1-3.237-.508l-1.982-2.728zm3.418-.398a.998.998 0 0 1 .221-1.397.998.998 0 0 1 1.397.221.998.998 0 0 1-.221 1.397.998.998 0 0 1-1.397-.221zm3.236-2.352a.998.998 0 0 1 .221-1.396.998.998 0 0 1 1.397.22.998.998 0 0 1-.221 1.398.998.998 0 0 1-1.397-.222zm3.236-2.35a.998.998 0 0 1 .221-1.398.998.998 0 0 1 1.397.222.998.998 0 0 1-.221 1.396.998.998 0 0 1-1.397-.22zm6.178-5.108l10.518-7.64.587.808-10.517 7.641-.588-.809zM563.034 104.101a2.317 2.317 0 0 1 .517-3.236l25.37-18.432a2.324 2.324 0 0 1 3.237.508l1.983 2.728a2.317 2.317 0 0 1-.518 3.236l-25.37 18.432a2.324 2.324 0 0 1-3.237-.508l-1.982-2.728zm3.418-.4a.998.998 0 0 1 .221-1.396.998.998 0 0 1 1.397.221.998.998 0 0 1-.221 1.397.998.998 0 0 1-1.397-.221zm3.236-2.35a.998.998 0 0 1 .221-1.397.998.998 0 0 1 1.397.221.998.998 0 0 1-.221 1.397.998.998 0 0 1-1.397-.221zm3.236-2.352a.998.998 0 0 1 .221-1.396.998.998 0 0 1 1.397.22.998.998 0 0 1-.221 1.398.998.998 0 0 1-1.397-.222zm6.178-5.106l10.518-7.642.587.81-10.517 7.64-.588-.808zM568.912 112.191a2.317 2.317 0 0 1 .517-3.236l25.37-18.432a2.324 2.324 0 0 1 3.237.508l1.982 2.728a2.317 2.317 0 0 1-.517 3.236l-25.37 18.432a2.324 2.324 0 0 1-3.237-.508l-1.982-2.728zm3.418-.4a.998.998 0 0 1 .221-1.396.998.998 0 0 1 1.397.221.998.998 0 0 1-.221 1.397.998.998 0 0 1-1.397-.221zm3.236-2.35a.998.998 0 0 1 .221-1.397.998.998 0 0 1 1.397.221.998.998 0 0 1-.221 1.397.998.998 0 0 1-1.397-.221zm3.236-2.351a.998.998 0 0 1 .221-1.397.998.998 0 0 1 1.397.221.998.998 0 0 1-.221 1.397.998.998 0 0 1-1.397-.221zm6.178-5.107l10.517-7.641.588.809-10.517 7.64-.588-.808z"/></g><g><path d="M47.473 87.99a2.317 2.317 0 0 1 2.972-1.382l29.468 10.726a2.324 2.324 0 0 1 1.389 2.968l-1.153 3.169a2.317 2.317 0 0 1-2.972 1.38L47.709 94.126a2.324 2.324 0 0 1-1.39-2.968l1.154-3.169zm2.243 2.61a.998.998 0 0 1 1.281-.598c.52.189.788.76.598 1.282a.998.998 0 0 1-1.282.597.998.998 0 0 1-.597-1.281zm3.758 1.368a.998.998 0 0 1 1.282-.598c.519.189.788.76.598 1.282a.998.998 0 0 1-1.282.597.998.998 0 0 1-.598-1.281zm3.759 1.368a.998.998 0 0 1 1.282-.598c.519.189.788.76.597 1.282a.998.998 0 0 1-1.281.597.998.998 0 0 1-.598-1.281zm7.689 2.266l12.216 4.446-.342.94-12.216-4.446.342-.94zM44.053 97.386a2.317 2.317 0 0 1 2.972-1.38l29.468 10.725a2.324 2.324 0 0 1 1.389 2.968l-1.154 3.169a2.317 2.317 0 0 1-2.971 1.38l-29.468-10.725a2.324 2.324 0 0 1-1.39-2.968l1.154-3.169zm2.242 2.61a.998.998 0 0 1 1.282-.597c.519.189.788.759.598 1.282a.998.998 0 0 1-1.282.597.998.998 0 0 1-.598-1.281zm3.76 1.369a.998.998 0 0 1 1.28-.598c.52.189.789.76.598 1.282a.998.998 0 0 1-1.281.597.998.998 0 0 1-.598-1.281zm3.758 1.368a.998.998 0 0 1 1.282-.598c.519.189.787.76.597 1.282a.998.998 0 0 1-1.281.597.998.998 0 0 1-.598-1.281zm7.688 2.266l12.216 4.446-.342.94-12.216-4.446.342-.94zM40.633 106.783a2.317 2.317 0 0 1 2.972-1.38l29.467 10.725a2.324 2.324 0 0 1 1.39 2.968l-1.154 3.169a2.317 2.317 0 0 1-2.972 1.38L40.87 112.92a2.324 2.324 0 0 1-1.39-2.968l1.154-3.169zm2.242 2.61a.998.998 0 0 1 1.282-.597c.519.189.788.759.597 1.282a.998.998 0 0 1-1.281.597.998.998 0 0 1-.598-1.282zm3.759 1.369a.998.998 0 0 1 1.282-.598c.519.189.787.759.597 1.282a.998.998 0 0 1-1.281.597.998.998 0 0 1-.598-1.281zm3.759 1.368a.998.998 0 0 1 1.281-.598c.52.189.788.76.598 1.282a.998.998 0 0 1-1.282.597.998.998 0 0 1-.597-1.281zm7.688 2.266l12.216 4.446-.342.94-12.216-4.446.342-.94z"/></g><g><path d="M12.216 136.566a2.317 2.317 0 0 1 1.389-2.968l29.467-10.726a2.324 2.324 0 0 1 2.972 1.381l1.154 3.169a2.317 2.317 0 0 1-1.39 2.968l-29.467 10.725a2.324 2.324 0 0 1-2.972-1.38l-1.153-3.17zm3.395.558a.998.998 0 0 1 .598-1.282.998.998 0 0 1 1.282.598.998.998 0 0 1-.598 1.282.998.998 0 0 1-1.282-.598zm3.759-1.368a.998.998 0 0 1 .598-1.282.998.998 0 0 1 1.281.598.998.998 0 0 1-.597 1.282.998.998 0 0 1-1.282-.598zm3.759-1.368a.998.998 0 0 1 .597-1.282.998.998 0 0 1 1.282.598.998.998 0 0 1-.597 1.282.998.998 0 0 1-1.282-.598zm7.346-3.206l12.216-4.446.342.94-12.216 4.446-.342-.94zM15.636 145.963a2.317 2.317 0 0 1 1.389-2.968l29.468-10.726a2.324 2.324 0 0 1 2.972 1.38l1.153 3.17a2.317 2.317 0 0 1-1.39 2.968l-29.467 10.725a2.324 2.324 0 0 1-2.972-1.38l-1.153-3.17zm3.395.558a.998.998 0 0 1 .598-1.282.998.998 0 0 1 1.282.598.998.998 0 0 1-.598 1.282.998.998 0 0 1-1.282-.598zm3.76-1.368a.998.998 0 0 1 .597-1.282.998.998 0 0 1 1.282.598.998.998 0 0 1-.598 1.282.998.998 0 0 1-1.282-.598zm3.758-1.368a.998.998 0 0 1 .598-1.282.998.998 0 0 1 1.281.598.998.998 0 0 1-.597 1.282.998.998 0 0 1-1.282-.598zm7.347-3.206l12.216-4.446.342.94-12.216 4.446-.342-.94zM19.056 155.36a2.317 2.317 0 0 1 1.39-2.968l29.467-10.726a2.324 2.324 0 0 1 2.972 1.38l1.153 3.17a2.317 2.317 0 0 1-1.389 2.968l-29.468 10.725a2.324 2.324 0 0 1-2.972-1.38l-1.153-3.17zm3.396.558a.998.998 0 0 1 .597-1.282.998.998 0 0 1 1.282.598.998.998 0 0 1-.598 1.282.998.998 0 0 1-1.281-.598zm3.758-1.368a.998.998 0 0 1 .598-1.282.998.998 0 0 1 1.282.598.998.998 0 0 1-.598 1.282.998.998 0 0 1-1.282-.598zm3.76-1.368a.998.998 0 0 1 .597-1.282.998.998 0 0 1 1.282.598.998.998 0 0 1-.598 1.281.998.998 0 0 1-1.282-.597zm7.346-3.206l12.216-4.447.342.94-12.216 4.446-.342-.94z"/></g><g><path d="M74 132.314A2.317 2.317 0 0 1 76.32 130h31.36a2.324 2.324 0 0 1 2.32 2.314v3.372a2.317 2.317 0 0 1-2.32 2.314H76.32a2.324 2.324 0 0 1-2.32-2.314v-3.372zM77 134c0-.552.444-1 1-1 .552 0 1 .444 1 1 0 .552-.444 1-1 1-.552 0-1-.444-1-1zm4 0c0-.552.444-1 1-1 .552 0 1 .444 1 1 0 .552-.444 1-1 1-.552 0-1-.444-1-1zm4 0c0-.552.444-1 1-1 .552 0 1 .444 1 1 0 .552-.444 1-1 1-.552 0-1-.444-1-1zm8-.5h13v1H93v-1zM74 142.314A2.317 2.317 0 0 1 76.32 140h31.36a2.324 2.324 0 0 1 2.32 2.314v3.372a2.317 2.317 0 0 1-2.32 2.314H76.32a2.324 2.324 0 0 1-2.32-2.314v-3.372zM77 144c0-.552.444-1 1-1 .552 0 1 .444 1 1 0 .552-.444 1-1 1-.552 0-1-.444-1-1zm4 0c0-.552.444-1 1-1 .552 0 1 .444 1 1 0 .552-.444 1-1 1-.552 0-1-.444-1-1zm4 0c0-.552.444-1 1-1 .552 0 1 .444 1 1 0 .552-.444 1-1 1-.552 0-1-.444-1-1zm8-.5h13v1H93v-1zM74 152.314A2.317 2.317 0 0 1 76.32 150h31.36a2.324 2.324 0 0 1 2.32 2.314v3.372a2.317 2.317 0 0 1-2.32 2.314H76.32a2.324 2.324 0 0 1-2.32-2.314v-3.372zM77 154c0-.552.444-1 1-1 .552 0 1 .444 1 1 0 .552-.444 1-1 1-.552 0-1-.444-1-1zm4 0c0-.552.444-1 1-1 .552 0 1 .444 1 1 0 .552-.444 1-1 1-.552 0-1-.444-1-1zm4 0c0-.552.444-1 1-1 .552 0 1 .444 1 1 0 .552-.444 1-1 1-.552 0-1-.444-1-1zm8-.5h13v1H93v-1z"/></g><g><path d="M130.473 109.99a2.317 2.317 0 0 1 2.972-1.382l29.468 10.726a2.324 2.324 0 0 1 1.389 2.968l-1.153 3.169a2.317 2.317 0 0 1-2.972 1.38l-29.468-10.725a2.324 2.324 0 0 1-1.39-2.968l1.154-3.169zm2.243 2.61a.998.998 0 0 1 1.281-.598c.52.189.788.76.598 1.282a.998.998 0 0 1-1.282.597.998.998 0 0 1-.597-1.281zm3.758 1.368a.998.998 0 0 1 1.282-.598c.519.189.788.76.598 1.282a.998.998 0 0 1-1.282.597.998.998 0 0 1-.598-1.281zm3.759 1.368a.998.998 0 0 1 1.282-.598c.519.189.788.76.597 1.282a.998.998 0 0 1-1.281.597.998.998 0 0 1-.598-1.281zm7.689 2.266l12.216 4.446-.342.94-12.216-4.446.342-.94zM127.053 119.386a2.317 2.317 0 0 1 2.972-1.38l29.468 10.725a2.324 2.324 0 0 1 1.389 2.968l-1.154 3.169a2.317 2.317 0 0 1-2.971 1.38l-29.468-10.725a2.324 2.324 0 0 1-1.39-2.968l1.154-3.169zm2.242 2.61a.998.998 0 0 1 1.282-.597c.519.189.788.759.598 1.282a.998.998 0 0 1-1.282.597.998.998 0 0 1-.598-1.281zm3.76 1.369a.998.998 0 0 1 1.28-.598c.52.189.789.76.598 1.282a.998.998 0 0 1-1.281.597.998.998 0 0 1-.598-1.281zm3.758 1.368a.998.998 0 0 1 1.282-.598c.519.189.787.76.597 1.282a.998.998 0 0 1-1.281.597.998.998 0 0 1-.598-1.281zm7.688 2.266l12.216 4.446-.342.94-12.216-4.446.342-.94zM123.633 128.783a2.317 2.317 0 0 1 2.972-1.38l29.467 10.725a2.324 2.324 0 0 1 1.39 2.968l-1.154 3.169a2.317 2.317 0 0 1-2.972 1.38L123.87 134.92a2.324 2.324 0 0 1-1.39-2.968l1.154-3.169zm2.242 2.61a.998.998 0 0 1 1.282-.597c.519.189.788.759.597 1.282a.998.998 0 0 1-1.281.597.998.998 0 0 1-.598-1.282zm3.759 1.369a.998.998 0 0 1 1.282-.598c.519.189.787.759.597 1.282a.998.998 0 0 1-1.281.597.998.998 0 0 1-.598-1.281zm3.759 1.368a.998.998 0 0 1 1.281-.598c.52.189.788.76.598 1.282a.998.998 0 0 1-1.282.597.998.998 0 0 1-.597-1.281zm7.688 2.266l12.216 4.446-.342.94-12.216-4.446.342-.94z"/></g><g><path d="M184.473 101.99a2.317 2.317 0 0 1 2.972-1.382l29.468 10.726a2.324 2.324 0 0 1 1.389 2.968l-1.153 3.169a2.317 2.317 0 0 1-2.972 1.38l-29.468-10.725a2.324 2.324 0 0 1-1.39-2.968l1.154-3.169zm2.243 2.61a.998.998 0 0 1 1.281-.598c.52.189.788.76.598 1.282a.998.998 0 0 1-1.282.597.998.998 0 0 1-.597-1.281zm3.758 1.368a.998.998 0 0 1 1.282-.598c.519.189.788.76.598 1.282a.998.998 0 0 1-1.282.597.998.998 0 0 1-.598-1.281zm3.759 1.368a.998.998 0 0 1 1.282-.598c.519.189.788.76.597 1.282a.998.998 0 0 1-1.281.597.998.998 0 0 1-.598-1.281zm7.689 2.266l12.216 4.446-.342.94-12.216-4.446.342-.94zM181.053 111.386a2.317 2.317 0 0 1 2.972-1.38l29.468 10.725a2.324 2.324 0 0 1 1.389 2.968l-1.154 3.169a2.317 2.317 0 0 1-2.971 1.38l-29.468-10.725a2.324 2.324 0 0 1-1.39-2.968l1.154-3.169zm2.242 2.61a.998.998 0 0 1 1.282-.597c.519.189.788.759.598 1.282a.998.998 0 0 1-1.282.597.998.998 0 0 1-.598-1.281zm3.76 1.369a.998.998 0 0 1 1.28-.598c.52.189.789.76.598 1.282a.998.998 0 0 1-1.281.597.998.998 0 0 1-.598-1.281zm3.758 1.368a.998.998 0 0 1 1.282-.598c.519.189.787.76.597 1.282a.998.998 0 0 1-1.281.597.998.998 0 0 1-.598-1.281zm7.688 2.266l12.216 4.446-.342.94-12.216-4.446.342-.94zM177.633 120.783a2.317 2.317 0 0 1 2.972-1.38l29.467 10.725a2.324 2.324 0 0 1 1.39 2.968l-1.154 3.169a2.317 2.317 0 0 1-2.972 1.38L177.87 126.92a2.324 2.324 0 0 1-1.39-2.968l1.154-3.169zm2.242 2.61a.998.998 0 0 1 1.282-.597c.519.189.788.759.597 1.282a.998.998 0 0 1-1.281.597.998.998 0 0 1-.598-1.282zm3.759 1.369a.998.998 0 0 1 1.282-.598c.519.189.787.759.597 1.282a.998.998 0 0 1-1.281.597.998.998 0 0 1-.598-1.281zm3.759 1.368a.998.998 0 0 1 1.281-.598c.52.189.788.76.598 1.282a.998.998 0 0 1-1.282.597.998.998 0 0 1-.597-1.281zm7.688 2.266l12.216 4.446-.342.94-12.216-4.446.342-.94z"/></g><g><path d="M173.033 159.344a2.317 2.317 0 0 1 .852-3.165l27.158-15.679a2.324 2.324 0 0 1 3.167.844l1.686 2.92a2.317 2.317 0 0 1-.853 3.164l-27.158 15.68a2.324 2.324 0 0 1-3.166-.844l-1.686-2.92zm3.44-.04a.998.998 0 0 1 .367-1.366.998.998 0 0 1 1.366.366.998.998 0 0 1-.366 1.366.998.998 0 0 1-1.366-.366zm3.465-2a.998.998 0 0 1 .366-1.366.998.998 0 0 1 1.366.366.998.998 0 0 1-.366 1.366.998.998 0 0 1-1.366-.366zm3.464-2a.998.998 0 0 1 .366-1.366.998.998 0 0 1 1.366.366.998.998 0 0 1-.366 1.366.998.998 0 0 1-1.366-.366zm6.678-4.433l11.258-6.5.5.866-11.258 6.5-.5-.866zM178.033 168.004a2.317 2.317 0 0 1 .852-3.164l27.158-15.68a2.324 2.324 0 0 1 3.167.844l1.686 2.92a2.317 2.317 0 0 1-.853 3.164l-27.158 15.68a2.324 2.324 0 0 1-3.166-.844l-1.686-2.92zm3.44-.04a.998.998 0 0 1 .367-1.366.998.998 0 0 1 1.366.366.998.998 0 0 1-.366 1.366.998.998 0 0 1-1.366-.366zm3.465-2a.998.998 0 0 1 .366-1.366.998.998 0 0 1 1.366.366.998.998 0 0 1-.366 1.366.998.998 0 0 1-1.366-.366zm3.464-2a.998.998 0 0 1 .366-1.366.998.998 0 0 1 1.366.366.998.998 0 0 1-.366 1.366.998.998 0 0 1-1.366-.366zm6.678-4.433l11.258-6.5.5.866-11.258 6.5-.5-.866zM183.033 176.664a2.317 2.317 0 0 1 .852-3.164l27.158-15.68a2.324 2.324 0 0 1 3.167.844l1.686 2.92a2.317 2.317 0 0 1-.853 3.165l-27.158 15.68a2.324 2.324 0 0 1-3.166-.844l-1.686-2.92zm3.44-.04a.998.998 0 0 1 .367-1.366.998.998 0 0 1 1.366.366.998.998 0 0 1-.366 1.366.998.998 0 0 1-1.366-.366zm3.465-2a.998.998 0 0 1 .366-1.366.998.998 0 0 1 1.366.366.998.998 0 0 1-.366 1.366.998.998 0 0 1-1.366-.366zm3.464-2a.998.998 0 0 1 .366-1.366.998.998 0 0 1 1.366.366.998.998 0 0 1-.366 1.366.998.998 0 0 1-1.366-.366zm6.678-4.433l11.258-6.5.5.866-11.258 6.5-.5-.866z"/></g><g><path d="M233.033 141.344a2.317 2.317 0 0 1 .852-3.165l27.158-15.679a2.324 2.324 0 0 1 3.167.844l1.686 2.92a2.317 2.317 0 0 1-.853 3.164l-27.158 15.68a2.324 2.324 0 0 1-3.166-.844l-1.686-2.92zm3.44-.04a.998.998 0 0 1 .367-1.366.998.998 0 0 1 1.366.366.998.998 0 0 1-.366 1.366.998.998 0 0 1-1.366-.366zm3.465-2a.998.998 0 0 1 .366-1.366.998.998 0 0 1 1.366.366.998.998 0 0 1-.366 1.366.998.998 0 0 1-1.366-.366zm3.464-2a.998.998 0 0 1 .366-1.366.998.998 0 0 1 1.366.366.998.998 0 0 1-.366 1.366.998.998 0 0 1-1.366-.366zm6.678-4.433l11.258-6.5.5.866-11.258 6.5-.5-.866zM238.033 150.004a2.317 2.317 0 0 1 .852-3.164l27.158-15.68a2.324 2.324 0 0 1 3.167.844l1.686 2.92a2.317 2.317 0 0 1-.853 3.164l-27.158 15.68a2.324 2.324 0 0 1-3.166-.844l-1.686-2.92zm3.44-.04a.998.998 0 0 1 .367-1.366.998.998 0 0 1 1.366.366.998.998 0 0 1-.366 1.366.998.998 0 0 1-1.366-.366zm3.465-2a.998.998 0 0 1 .366-1.366.998.998 0 0 1 1.366.366.998.998 0 0 1-.366 1.366.998.998 0 0 1-1.366-.366zm3.464-2a.998.998 0 0 1 .366-1.366.998.998 0 0 1 1.366.366.998.998 0 0 1-.366 1.366.998.998 0 0 1-1.366-.366zm6.678-4.433l11.258-6.5.5.866-11.258 6.5-.5-.866zM243.033 158.664a2.317 2.317 0 0 1 .852-3.164l27.158-15.68a2.324 2.324 0 0 1 3.167.844l1.686 2.92a2.317 2.317 0 0 1-.853 3.165l-27.158 15.68a2.324 2.324 0 0 1-3.166-.844l-1.686-2.92zm3.44-.04a.998.998 0 0 1 .367-1.366.998.998 0 0 1 1.366.366.998.998 0 0 1-.366 1.366.998.998 0 0 1-1.366-.366zm3.465-2a.998.998 0 0 1 .366-1.366.998.998 0 0 1 1.366.366.998.998 0 0 1-.366 1.366.998.998 0 0 1-1.366-.366zm3.464-2a.998.998 0 0 1 .366-1.366.998.998 0 0 1 1.366.366.998.998 0 0 1-.366 1.366.998.998 0 0 1-1.366-.366zm6.678-4.433l11.258-6.5.5.866-11.258 6.5-.5-.866z"/></g><g><path d="M300.889 124.335a2.317 2.317 0 0 1 3.264.29l20.157 24.022c.824.982.69 2.45-.28 3.265l-2.584 2.168a2.317 2.317 0 0 1-3.264-.29l-20.157-24.023a2.324 2.324 0 0 1 .28-3.265l2.584-2.167zm.637 3.382a.998.998 0 0 1 1.408.123.998.998 0 0 1-.123 1.409.998.998 0 0 1-1.409-.123.998.998 0 0 1 .124-1.41zm2.57 3.064a.998.998 0 0 1 1.41.123.998.998 0 0 1-.124 1.41.998.998 0 0 1-1.409-.124.998.998 0 0 1 .124-1.409zm2.572 3.064a.998.998 0 0 1 1.409.123.998.998 0 0 1-.124 1.41.998.998 0 0 1-1.408-.124.998.998 0 0 1 .123-1.409zm5.525 5.807l8.356 9.959-.766.642-8.356-9.958.766-.643zM293.228 130.763a2.317 2.317 0 0 1 3.265.29l20.157 24.022c.824.982.69 2.45-.281 3.265l-2.583 2.168a2.317 2.317 0 0 1-3.265-.29l-20.157-24.023a2.324 2.324 0 0 1 .281-3.265l2.583-2.167zm.637 3.382a.998.998 0 0 1 1.409.123.998.998 0 0 1-.123 1.409.998.998 0 0 1-1.41-.124.998.998 0 0 1 .124-1.408zm2.571 3.064a.998.998 0 0 1 1.41.123.998.998 0 0 1-.124 1.409.998.998 0 0 1-1.409-.123.998.998 0 0 1 .123-1.41zm2.571 3.064a.998.998 0 0 1 1.41.123.998.998 0 0 1-.124 1.41.998.998 0 0 1-1.409-.124.998.998 0 0 1 .123-1.409zm5.526 5.807l8.356 9.959-.766.642-8.356-9.958.766-.643zM285.568 137.19a2.317 2.317 0 0 1 3.264.29l20.157 24.023c.824.982.69 2.45-.28 3.265l-2.584 2.168a2.317 2.317 0 0 1-3.264-.29l-20.157-24.023a2.324 2.324 0 0 1 .28-3.265l2.584-2.167zm.637 3.383a.998.998 0 0 1 1.409.123.998.998 0 0 1-.124 1.409.998.998 0 0 1-1.409-.124.998.998 0 0 1 .124-1.408zm2.57 3.064a.998.998 0 0 1 1.41.123.998.998 0 0 1-.124 1.409.998.998 0 0 1-1.408-.123.998.998 0 0 1 .123-1.41zm2.572 3.064a.998.998 0 0 1 1.409.123.998.998 0 0 1-.123 1.409.998.998 0 0 1-1.41-.123.998.998 0 0 1 .124-1.41zm5.525 5.807l8.357 9.958-.766.643-8.357-9.958.766-.643z"/></g><g><path d="M319.113 105.784a2.317 2.317 0 0 1-.28-3.265l20.156-24.022a2.324 2.324 0 0 1 3.264-.29l2.584 2.167a2.317 2.317 0 0 1 .28 3.265l-20.157 24.022a2.324 2.324 0 0 1-3.264.29l-2.583-2.167zm3.22-1.214a.998.998 0 0 1-.123-1.41.998.998 0 0 1 1.409-.122c.423.355.48.982.123 1.409a.998.998 0 0 1-1.409.123zm2.571-3.064a.998.998 0 0 1-.123-1.41.998.998 0 0 1 1.409-.123c.423.355.48.983.123 1.41a.998.998 0 0 1-1.409.123zm2.571-3.065a.998.998 0 0 1-.123-1.408.998.998 0 0 1 1.409-.124c.423.355.48.983.123 1.41a.998.998 0 0 1-1.409.122zm4.76-6.45l8.356-9.958.766.643L333 92.634l-.766-.642zM326.774 112.212a2.317 2.317 0 0 1-.281-3.265l20.157-24.022a2.324 2.324 0 0 1 3.264-.29l2.583 2.167a2.317 2.317 0 0 1 .281 3.265l-20.157 24.022a2.324 2.324 0 0 1-3.264.29l-2.583-2.167zm3.22-1.214a.998.998 0 0 1-.124-1.41.998.998 0 0 1 1.41-.122c.422.355.48.982.122 1.408a.998.998 0 0 1-1.408.124zm2.57-3.065a.998.998 0 0 1-.123-1.408.998.998 0 0 1 1.41-.124c.422.355.48.983.122 1.41a.998.998 0 0 1-1.408.122zm2.572-3.064a.998.998 0 0 1-.123-1.409.998.998 0 0 1 1.408-.123c.423.355.481.983.124 1.409a.998.998 0 0 1-1.41.123zm4.76-6.45l8.355-9.958.766.643-8.356 9.958-.766-.642zM334.434 118.64a2.317 2.317 0 0 1-.281-3.265l20.157-24.022a2.324 2.324 0 0 1 3.264-.29l2.584 2.167a2.317 2.317 0 0 1 .28 3.265l-20.157 24.022a2.324 2.324 0 0 1-3.264.29l-2.583-2.167zm3.22-1.214a.998.998 0 0 1-.123-1.41.998.998 0 0 1 1.409-.123c.423.355.48.983.123 1.41a.998.998 0 0 1-1.409.123zm2.571-3.065a.998.998 0 0 1-.123-1.408.998.998 0 0 1 1.409-.124c.423.355.48.983.123 1.41a.998.998 0 0 1-1.409.122zm2.571-3.064a.998.998 0 0 1-.123-1.409.998.998 0 0 1 1.409-.123c.423.355.48.983.123 1.409a.998.998 0 0 1-1.409.123zm4.76-6.45l8.356-9.958.766.643-8.356 9.958-.766-.643z"/></g><g><path d="M365.337 114.284a2.317 2.317 0 0 1 3.06-1.17l28.648 12.755a2.324 2.324 0 0 1 1.18 3.058l-1.372 3.08a2.317 2.317 0 0 1-3.061 1.17l-28.648-12.755a2.324 2.324 0 0 1-1.179-3.057l1.372-3.08zm2.054 2.76a.998.998 0 0 1 1.32-.506.998.998 0 0 1 .508 1.32.998.998 0 0 1-1.32.507.998.998 0 0 1-.508-1.32zm3.655 1.628a.998.998 0 0 1 1.32-.507.998.998 0 0 1 .507 1.32.998.998 0 0 1-1.32.507.998.998 0 0 1-.507-1.32zm3.654 1.627a.998.998 0 0 1 1.32-.507.998.998 0 0 1 .507 1.32.998.998 0 0 1-1.32.507.998.998 0 0 1-.507-1.32zm7.512 2.797l11.876 5.287-.407.914-11.876-5.288.407-.913zM361.27 123.42a2.317 2.317 0 0 1 3.06-1.17l28.648 12.754a2.324 2.324 0 0 1 1.179 3.058l-1.372 3.08a2.317 2.317 0 0 1-3.06 1.17l-28.649-12.754a2.324 2.324 0 0 1-1.178-3.058l1.371-3.08zm2.054 2.76a.998.998 0 0 1 1.32-.507.998.998 0 0 1 .507 1.32.998.998 0 0 1-1.32.507.998.998 0 0 1-.507-1.32zm3.654 1.627a.998.998 0 0 1 1.32-.507.998.998 0 0 1 .507 1.32.998.998 0 0 1-1.32.507.998.998 0 0 1-.507-1.32zm3.654 1.627a.998.998 0 0 1 1.32-.507.998.998 0 0 1 .508 1.32.998.998 0 0 1-1.32.507.998.998 0 0 1-.508-1.32zm7.512 2.797l11.876 5.288-.406.913-11.877-5.287.407-.914zM357.202 132.555a2.317 2.317 0 0 1 3.06-1.17l28.649 12.755a2.324 2.324 0 0 1 1.178 3.058l-1.371 3.08a2.317 2.317 0 0 1-3.061 1.17l-28.648-12.755a2.324 2.324 0 0 1-1.179-3.057l1.372-3.081zm2.055 2.76a.998.998 0 0 1 1.32-.506.998.998 0 0 1 .507 1.32.998.998 0 0 1-1.32.507.998.998 0 0 1-.507-1.32zm3.654 1.627a.998.998 0 0 1 1.32-.506.998.998 0 0 1 .507 1.32.998.998 0 0 1-1.32.507.998.998 0 0 1-.507-1.32zm3.654 1.627a.998.998 0 0 1 1.32-.506.998.998 0 0 1 .507 1.32.998.998 0 0 1-1.32.507.998.998 0 0 1-.507-1.32zm7.512 2.798l11.876 5.287-.407.914-11.876-5.288.407-.913z"/></g><g><path d="M416.337 90.284a2.317 2.317 0 0 1 3.06-1.17l28.648 12.755a2.324 2.324 0 0 1 1.18 3.058l-1.372 3.08a2.317 2.317 0 0 1-3.061 1.17l-28.648-12.755a2.324 2.324 0 0 1-1.179-3.057l1.372-3.08zm2.054 2.76a.998.998 0 0 1 1.32-.506.998.998 0 0 1 .508 1.32.998.998 0 0 1-1.32.507.998.998 0 0 1-.508-1.32zm3.655 1.628a.998.998 0 0 1 1.32-.507.998.998 0 0 1 .507 1.32.998.998 0 0 1-1.32.507.998.998 0 0 1-.507-1.32zm3.654 1.627a.998.998 0 0 1 1.32-.507.998.998 0 0 1 .507 1.32.998.998 0 0 1-1.32.507.998.998 0 0 1-.507-1.32zm7.512 2.797l11.876 5.287-.407.914-11.876-5.288.407-.913zM412.27 99.42a2.317 2.317 0 0 1 3.06-1.17l28.648 12.754a2.324 2.324 0 0 1 1.179 3.058l-1.372 3.08a2.317 2.317 0 0 1-3.06 1.17l-28.649-12.754a2.324 2.324 0 0 1-1.178-3.058l1.371-3.08zm2.054 2.76a.998.998 0 0 1 1.32-.507.998.998 0 0 1 .507 1.32.998.998 0 0 1-1.32.507.998.998 0 0 1-.507-1.32zm3.654 1.627a.998.998 0 0 1 1.32-.507.998.998 0 0 1 .507 1.32.998.998 0 0 1-1.32.507.998.998 0 0 1-.507-1.32zm3.654 1.627a.998.998 0 0 1 1.32-.507.998.998 0 0 1 .508 1.32.998.998 0 0 1-1.32.507.998.998 0 0 1-.508-1.32zm7.512 2.797l11.876 5.288-.406.913-11.877-5.287.407-.914zM408.202 108.555a2.317 2.317 0 0 1 3.06-1.17l28.649 12.755a2.324 2.324 0 0 1 1.178 3.058l-1.371 3.08a2.317 2.317 0 0 1-3.061 1.17l-28.648-12.755a2.324 2.324 0 0 1-1.179-3.057l1.372-3.081zm2.055 2.76a.998.998 0 0 1 1.32-.506.998.998 0 0 1 .507 1.32.998.998 0 0 1-1.32.507.998.998 0 0 1-.507-1.32zm3.654 1.627a.998.998 0 0 1 1.32-.506.998.998 0 0 1 .507 1.32.998.998 0 0 1-1.32.507.998.998 0 0 1-.507-1.32zm3.654 1.627a.998.998 0 0 1 1.32-.506.998.998 0 0 1 .507 1.32.998.998 0 0 1-1.32.507.998.998 0 0 1-.507-1.32zm7.512 2.798l11.876 5.287-.407.914-11.876-5.288.407-.913z"/></g><g><path d="M419.771 139.048a2.317 2.317 0 0 1 3.097 1.07l13.747 28.186a2.324 2.324 0 0 1-1.063 3.1l-3.03 1.478a2.317 2.317 0 0 1-3.097-1.07l-13.747-28.186a2.324 2.324 0 0 1 1.062-3.1l3.031-1.478zm-.2 3.435a.998.998 0 0 1 1.337.46.998.998 0 0 1-.46 1.338.998.998 0 0 1-1.338-.46.998.998 0 0 1 .46-1.338zm1.753 3.595a.998.998 0 0 1 1.337.46.998.998 0 0 1-.46 1.338.998.998 0 0 1-1.337-.46.998.998 0 0 1 .46-1.338zm1.754 3.595a.998.998 0 0 1 1.337.46.998.998 0 0 1-.46 1.338.998.998 0 0 1-1.338-.46.998.998 0 0 1 .46-1.338zm3.956 6.972l5.699 11.684-.899.438-5.699-11.684.899-.438zM410.783 143.431a2.317 2.317 0 0 1 3.097 1.072l13.747 28.185a2.324 2.324 0 0 1-1.063 3.1l-3.03 1.478a2.317 2.317 0 0 1-3.097-1.071L406.69 148.01a2.324 2.324 0 0 1 1.062-3.1l3.031-1.479zm-.2 3.436a.998.998 0 0 1 1.337.46.998.998 0 0 1-.46 1.337.998.998 0 0 1-1.338-.46.998.998 0 0 1 .46-1.337zm1.753 3.595a.998.998 0 0 1 1.337.46.998.998 0 0 1-.46 1.338.998.998 0 0 1-1.337-.46.998.998 0 0 1 .46-1.338zm1.754 3.595a.998.998 0 0 1 1.337.46.998.998 0 0 1-.46 1.338.998.998 0 0 1-1.338-.46.998.998 0 0 1 .46-1.338zm3.956 6.971l5.699 11.685-.899.438-5.699-11.684.9-.439zM401.795 147.815a2.317 2.317 0 0 1 3.097 1.071l13.747 28.186a2.324 2.324 0 0 1-1.063 3.1l-3.03 1.478a2.317 2.317 0 0 1-3.097-1.072l-13.747-28.185a2.324 2.324 0 0 1 1.062-3.1l3.031-1.478zm-.2 3.435a.998.998 0 0 1 1.337.46.998.998 0 0 1-.46 1.338.998.998 0 0 1-1.338-.46.998.998 0 0 1 .46-1.338zm1.753 3.596a.998.998 0 0 1 1.337.46.998.998 0 0 1-.46 1.337.998.998 0 0 1-1.337-.46.998.998 0 0 1 .46-1.337zm1.754 3.595a.998.998 0 0 1 1.337.46.998.998 0 0 1-.46 1.337.998.998 0 0 1-1.338-.46.998.998 0 0 1 .46-1.337zm3.956 6.971l5.699 11.684-.899.439-5.699-11.685.9-.438z"/></g><g><path d="M457.156 127.01a2.317 2.317 0 0 1 .517-3.235l25.37-18.432a2.324 2.324 0 0 1 3.238.508l1.982 2.728a2.317 2.317 0 0 1-.518 3.236l-25.37 18.432a2.324 2.324 0 0 1-3.237-.508l-1.982-2.728zm3.418-.398a.998.998 0 0 1 .221-1.397.998.998 0 0 1 1.397.221.998.998 0 0 1-.221 1.397.998.998 0 0 1-1.397-.221zm3.236-2.352a.998.998 0 0 1 .221-1.396.998.998 0 0 1 1.397.22.998.998 0 0 1-.221 1.398.998.998 0 0 1-1.397-.222zm3.236-2.35a.998.998 0 0 1 .221-1.398.998.998 0 0 1 1.397.222.998.998 0 0 1-.221 1.396.998.998 0 0 1-1.397-.22zm6.178-5.108l10.518-7.64.587.808-10.517 7.641-.588-.809zM463.034 135.101a2.317 2.317 0 0 1 .517-3.236l25.37-18.432a2.324 2.324 0 0 1 3.237.508l1.983 2.728a2.317 2.317 0 0 1-.518 3.236l-25.37 18.432a2.324 2.324 0 0 1-3.237-.508l-1.982-2.728zm3.418-.4a.998.998 0 0 1 .221-1.396.998.998 0 0 1 1.397.221.998.998 0 0 1-.221 1.397.998.998 0 0 1-1.397-.221zm3.236-2.35a.998.998 0 0 1 .221-1.397.998.998 0 0 1 1.397.221.998.998 0 0 1-.221 1.397.998.998 0 0 1-1.397-.221zm3.236-2.352a.998.998 0 0 1 .221-1.396.998.998 0 0 1 1.397.22.998.998 0 0 1-.221 1.398.998.998 0 0 1-1.397-.222zm6.178-5.106l10.518-7.642.587.81-10.517 7.64-.588-.808zM468.912 143.191a2.317 2.317 0 0 1 .517-3.236l25.37-18.432a2.324 2.324 0 0 1 3.237.508l1.982 2.728a2.317 2.317 0 0 1-.517 3.236l-25.37 18.432a2.324 2.324 0 0 1-3.237-.508l-1.982-2.728zm3.418-.4a.998.998 0 0 1 .221-1.396.998.998 0 0 1 1.397.221.998.998 0 0 1-.221 1.397.998.998 0 0 1-1.397-.221zm3.236-2.35a.998.998 0 0 1 .221-1.397.998.998 0 0 1 1.397.221.998.998 0 0 1-.221 1.397.998.998 0 0 1-1.397-.221zm3.236-2.351a.998.998 0 0 1 .221-1.397.998.998 0 0 1 1.397.221.998.998 0 0 1-.221 1.397.998.998 0 0 1-1.397-.221zm6.178-5.107l10.517-7.641.588.809-10.517 7.64-.588-.808z"/></g><g><path d="M517.156 136.01a2.317 2.317 0 0 1 .517-3.235l25.37-18.432a2.324 2.324 0 0 1 3.238.508l1.982 2.728a2.317 2.317 0 0 1-.518 3.236l-25.37 18.432a2.324 2.324 0 0 1-3.237-.508l-1.982-2.728zm3.418-.398a.998.998 0 0 1 .221-1.397.998.998 0 0 1 1.397.221.998.998 0 0 1-.221 1.397.998.998 0 0 1-1.397-.221zm3.236-2.352a.998.998 0 0 1 .221-1.396.998.998 0 0 1 1.397.22.998.998 0 0 1-.221 1.398.998.998 0 0 1-1.397-.222zm3.236-2.35a.998.998 0 0 1 .221-1.398.998.998 0 0 1 1.397.222.998.998 0 0 1-.221 1.396.998.998 0 0 1-1.397-.22zm6.178-5.108l10.518-7.64.587.808-10.517 7.641-.588-.809zM523.034 144.101a2.317 2.317 0 0 1 .517-3.236l25.37-18.432a2.324 2.324 0 0 1 3.237.508l1.983 2.728a2.317 2.317 0 0 1-.518 3.236l-25.37 18.432a2.324 2.324 0 0 1-3.237-.508l-1.982-2.728zm3.418-.4a.998.998 0 0 1 .221-1.396.998.998 0 0 1 1.397.221.998.998 0 0 1-.221 1.397.998.998 0 0 1-1.397-.221zm3.236-2.35a.998.998 0 0 1 .221-1.397.998.998 0 0 1 1.397.221.998.998 0 0 1-.221 1.397.998.998 0 0 1-1.397-.221zm3.236-2.352a.998.998 0 0 1 .221-1.396.998.998 0 0 1 1.397.22.998.998 0 0 1-.221 1.398.998.998 0 0 1-1.397-.222zm6.178-5.106l10.518-7.642.587.81-10.517 7.64-.588-.808zM528.912 152.191a2.317 2.317 0 0 1 .517-3.236l25.37-18.432a2.324 2.324 0 0 1 3.237.508l1.982 2.728a2.317 2.317 0 0 1-.517 3.236l-25.37 18.432a2.324 2.324 0 0 1-3.237-.508l-1.982-2.728zm3.418-.4a.998.998 0 0 1 .221-1.396.998.998 0 0 1 1.397.221.998.998 0 0 1-.221 1.397.998.998 0 0 1-1.397-.221zm3.236-2.35a.998.998 0 0 1 .221-1.397.998.998 0 0 1 1.397.221.998.998 0 0 1-.221 1.397.998.998 0 0 1-1.397-.221zm3.236-2.351a.998.998 0 0 1 .221-1.397.998.998 0 0 1 1.397.221.998.998 0 0 1-.221 1.397.998.998 0 0 1-1.397-.221zm6.178-5.107l10.517-7.641.588.809-10.517 7.64-.588-.808z"/></g></g></svg>