<svg xmlns="http://www.w3.org/2000/svg" viewBox="0 0 605 180"><title>error-alt</title><g fill-rule="evenodd"><path d="M25.876 30.464c-4.97-8.61-2.023-19.617 6.588-24.588 8.61-4.97 19.617-2.023 24.589 6.588 4.97 8.61 2.022 19.617-6.589 24.589-8.61 4.97-19.617 2.022-24.588-6.589zm23.588 4.857c7.653-4.419 10.275-14.204 5.857-21.857C50.902 5.811 41.117 3.19 33.464 7.608c-7.653 4.418-10.275 14.203-5.856 21.856 4.418 7.653 14.203 10.275 21.856 5.857zm-5.268-13.125l-3.464 2-5.5-9.526 3.464-2 5.5 9.526zm3.5 6.062l-3.464 2-2-3.464 3.464-2 2 3.464zM60.518 51.508c1.726-9.79 11.06-16.327 20.852-14.6 9.79 1.726 16.328 11.06 14.601 20.851-1.726 9.79-11.06 16.328-20.852 14.601-9.79-1.726-16.328-11.06-14.6-20.852zm14.948 18.883c8.703 1.534 17.001-4.276 18.536-12.979 1.534-8.702-4.277-17-12.979-18.535-8.702-1.535-17 4.276-18.535 12.978-1.535 8.703 4.276 17.001 12.978 18.536zm4.401-13.44l-3.94-.695 1.91-10.833 3.94.695-1.91 10.833zm-1.216 6.893l-3.939-.694.695-3.94 3.939.695-.695 3.94zM115.876 39.464c-4.97-8.61-2.023-19.617 6.588-24.588 8.61-4.97 19.617-2.023 24.589 6.588 4.97 8.61 2.022 19.617-6.589 24.589-8.61 4.97-19.617 2.022-24.588-6.589zm23.588 4.857c7.653-4.419 10.275-14.204 5.857-21.857-4.419-7.653-14.204-10.275-21.857-5.856-7.653 4.418-10.275 14.203-5.856 21.856 4.418 7.653 14.203 10.275 21.856 5.857zm-5.268-13.125l-3.464 2-5.5-9.526 3.464-2 5.5 9.526zm3.5 6.062l-3.464 2-2-3.464 3.464-2 2 3.464zM181.476 28.97c3.4-9.341 13.727-14.158 23.071-10.758 9.342 3.4 14.159 13.728 10.758 23.071-3.4 9.342-13.727 14.16-23.07 10.758-9.342-3.4-14.16-13.727-10.759-23.07zm11.442 21.192c8.304 3.022 17.485-1.26 20.508-9.563 3.022-8.303-1.26-17.485-9.563-20.507-8.304-3.023-17.485 1.259-20.507 9.563-3.023 8.303 1.259 17.485 9.562 20.507zm6.668-12.472l-3.759-1.368 3.762-10.336 3.76 1.368-3.763 10.336zm-2.394 6.578l-3.759-1.368 1.368-3.759 3.759 1.368-1.368 3.76zM246.876 36.464c-4.97-8.61-2.023-19.617 6.588-24.588 8.61-4.97 19.617-2.023 24.589 6.588 4.97 8.61 2.022 19.617-6.589 24.589-8.61 4.97-19.617 2.022-24.588-6.589zm23.588 4.857c7.653-4.419 10.275-14.204 5.857-21.857-4.419-7.653-14.204-10.275-21.857-5.856-7.653 4.418-10.275 14.203-5.856 21.856 4.418 7.653 14.203 10.275 21.856 5.857zm-5.268-13.125l-3.464 2-5.5-9.526 3.464-2 5.5 9.526zm3.5 6.062l-3.464 2-2-3.464 3.464-2 2 3.464zM339.94 27.218c5.12-8.521 16.176-11.28 24.7-6.158 8.52 5.12 11.279 16.176 6.158 24.7-5.12 8.52-16.177 11.279-24.7 6.158-8.521-5.12-11.28-16.177-6.158-24.7zm7.188 22.985c7.574 4.552 17.404 2.1 21.955-5.474 4.551-7.574 2.1-17.404-5.474-21.955-7.574-4.551-17.404-2.1-21.955 5.474-4.551 7.575-2.1 17.404 5.474 21.955zm8.925-10.97l-3.429-2.06 5.666-9.429 3.428 2.06-5.665 9.43zm-3.605 6l-3.43-2.06 2.061-3.428 3.429 2.06-2.06 3.428zM416.152 47.85c-7.15-6.906-7.351-18.3-.444-25.453 6.906-7.15 18.3-7.351 25.452-.444 7.15 6.906 7.351 18.3.444 25.452-6.906 7.151-18.3 7.352-25.452.444zm24.013-1.834c6.139-6.357 5.962-16.486-.394-22.624-6.357-6.139-16.486-5.962-22.624.395-6.139 6.356-5.962 16.485.394 22.624 6.357 6.138 16.486 5.961 22.624-.395zm-8.681-11.164l-2.779 2.877-7.912-7.641 2.778-2.877 7.913 7.64zm5.035 4.863l-2.778 2.877-2.878-2.779 2.779-2.877 2.877 2.779zM494.025 36.465c-5.843-8.042-4.062-19.298 3.982-25.142 8.043-5.844 19.298-4.063 25.143 3.982 5.843 8.042 4.062 19.298-3.983 25.142-8.042 5.843-19.298 4.062-25.142-3.982zm23.967 2.364c7.149-5.194 8.733-15.2 3.54-22.349-5.195-7.149-15.2-8.733-22.35-3.54-7.148 5.195-8.733 15.2-3.54 22.35 5.195 7.148 15.2 8.733 22.35 3.54zm-6.611-12.502l-3.236 2.352-6.466-8.9 3.236-2.35 6.466 8.898zm4.114 5.664l-3.236 2.35-2.35-3.235 3.235-2.352 2.351 3.237zM539.157 40.487c5.559-8.241 16.744-10.417 24.988-4.857 8.241 5.56 10.417 16.745 4.857 24.988-5.559 8.242-16.745 10.418-24.988 4.858-8.242-5.56-10.418-16.745-4.857-24.989zm5.975 23.33c7.326 4.942 17.27 3.009 22.212-4.317 4.941-7.326 3.008-17.27-4.318-22.212-7.325-4.941-17.27-3.008-22.211 4.318-4.942 7.326-3.009 17.27 4.317 22.212zm9.487-10.488l-3.316-2.236 6.151-9.12 3.316 2.237-6.15 9.12zm-3.914 5.804l-3.316-2.237 2.236-3.316 3.316 2.236-2.236 3.317zM5.476 69.97c3.4-9.341 13.727-14.158 23.071-10.758 9.342 3.4 14.159 13.728 10.758 23.071-3.4 9.342-13.727 14.16-23.07 10.758-9.342-3.4-14.16-13.727-10.759-23.07zm11.442 21.192c8.304 3.022 17.485-1.26 20.508-9.563 3.022-8.303-1.26-17.485-9.563-20.507-8.304-3.023-17.485 1.259-20.507 9.563-3.023 8.303 1.259 17.485 9.562 20.507zm6.668-12.472l-3.759-1.368 3.762-10.336 3.76 1.368-3.763 10.336zm-2.394 6.578L17.433 83.9l1.368-3.759 3.759 1.368-1.368 3.76zM105.876 94.464c-4.97-8.61-2.023-19.617 6.588-24.588 8.61-4.97 19.617-2.023 24.589 6.588 4.97 8.61 2.022 19.617-6.589 24.589-8.61 4.97-19.617 2.022-24.588-6.589zm23.588 4.857c7.653-4.419 10.275-14.204 5.857-21.857-4.419-7.653-14.204-10.275-21.857-5.856-7.653 4.418-10.275 14.203-5.856 21.856 4.418 7.653 14.203 10.275 21.856 5.857zm-5.268-13.125l-3.464 2-5.5-9.526 3.464-2 5.5 9.526zm3.5 6.062l-3.464 2-2-3.464 3.464-2 2 3.464zM153 77c0-9.941 8.057-18 18-18 9.941 0 18 8.057 18 18 0 9.941-8.057 18-18 18-9.941 0-18-8.057-18-18zm18 16c8.837 0 16-7.163 16-16s-7.163-16-16-16-16 7.163-16 16 7.163 16 16 16zm2-14h-4V68h4v11zm0 7h-4v-4h4v4zM218.876 84.464c-4.97-8.61-2.023-19.617 6.588-24.588 8.61-4.97 19.617-2.023 24.589 6.588 4.97 8.61 2.022 19.617-6.589 24.589-8.61 4.97-19.617 2.022-24.588-6.589zm23.588 4.857c7.653-4.419 10.275-14.204 5.857-21.857-4.419-7.653-14.204-10.275-21.857-5.856-7.653 4.418-10.275 14.203-5.856 21.856 4.418 7.653 14.203 10.275 21.856 5.857zm-5.268-13.125l-3.464 2-5.5-9.526 3.464-2 5.5 9.526zm3.5 6.062l-3.464 2-2-3.464 3.464-2 2 3.464zM263.907 104.37c-1.726-9.79 4.809-19.125 14.601-20.852 9.79-1.726 19.126 4.809 20.852 14.601 1.727 9.79-4.808 19.126-14.6 20.852-9.79 1.726-19.126-4.808-20.853-14.6zm20.505 12.632c8.703-1.535 14.513-9.833 12.979-18.536-1.535-8.702-9.833-14.513-18.536-12.978-8.702 1.534-14.513 9.833-12.978 18.535 1.534 8.702 9.833 14.513 18.535 12.979zm-.461-14.135l-3.94.695-1.91-10.833 3.94-.695 1.91 10.833zm1.215 6.894l-3.939.694-.695-3.939 3.94-.695.694 3.94zM290.907 64.37c-1.726-9.79 4.809-19.125 14.601-20.852 9.79-1.726 19.126 4.809 20.852 14.601 1.727 9.79-4.808 19.126-14.6 20.852-9.79 1.726-19.126-4.808-20.853-14.6zm20.505 12.632c8.703-1.535 14.513-9.833 12.979-18.536-1.535-8.702-9.833-14.513-18.536-12.978-8.702 1.534-14.513 9.833-12.978 18.535 1.534 8.702 9.833 14.513 18.535 12.979zm-.461-14.135l-3.94.695-1.91-10.833 3.94-.695 1.91 10.833zm1.215 6.894l-3.939.694-.695-3.939 3.94-.695.694 3.94zM371.025 84.465c-5.843-8.042-4.062-19.298 3.982-25.142 8.043-5.844 19.298-4.063 25.143 3.982 5.843 8.042 4.062 19.298-3.983 25.142-8.042 5.843-19.298 4.062-25.142-3.982zm23.967 2.364c7.149-5.194 8.733-15.2 3.54-22.349-5.195-7.149-15.2-8.733-22.35-3.54-7.148 5.195-8.733 15.2-3.54 22.35 5.195 7.148 15.2 8.733 22.35 3.54zm-6.611-12.502l-3.236 2.352-6.466-8.9 3.236-2.35 6.466 8.898zm4.114 5.664l-3.236 2.35-2.35-3.235 3.235-2.352 2.351 3.237zM448.583 62.96c4.044-9.082 14.682-13.167 23.765-9.123 9.082 4.044 13.167 14.682 9.123 23.765-4.043 9.082-14.681 13.167-23.765 9.123-9.082-4.043-13.167-14.681-9.123-23.765zm9.936 21.938c8.073 3.594 17.53-.036 21.125-8.11 3.594-8.072-.036-17.53-8.109-21.124-8.073-3.594-17.53.037-21.124 8.11-3.595 8.072.036 17.53 8.108 21.124zm7.522-11.976l-3.654-1.627 4.474-10.05 3.654 1.628-4.474 10.049zm-2.847 6.395l-3.654-1.627 1.626-3.655 3.655 1.627-1.627 3.655zM498.755 87.014c.694-9.917 9.293-17.394 19.212-16.7 9.917.693 17.394 9.292 16.7 19.21-.693 9.918-9.292 17.395-19.211 16.701-9.917-.693-17.395-9.292-16.7-19.211zm16.84 17.216c8.815.617 16.46-6.03 17.077-14.845.617-8.815-6.03-16.46-14.845-17.077-8.815-.616-16.46 6.03-17.077 14.845-.616 8.815 6.03 16.46 14.845 17.077zm2.972-13.826l-3.99-.28.767-10.972 3.99.279-.767 10.973zm-.488 6.983l-3.99-.28.278-3.99 3.99.28-.278 3.99zM564.025 105.465c-5.843-8.042-4.062-19.298 3.982-25.142 8.043-5.844 19.298-4.063 25.143 3.982 5.843 8.042 4.062 19.298-3.983 25.142-8.042 5.843-19.298 4.062-25.142-3.982zm23.967 2.364c7.149-5.194 8.733-15.2 3.54-22.349-5.195-7.149-15.2-8.733-22.35-3.54-7.148 5.195-8.733 15.2-3.54 22.35 5.195 7.148 15.2 8.733 22.35 3.54zm-6.611-12.502l-3.236 2.352-6.466-8.9 3.236-2.35 6.466 8.898zm4.114 5.664l-3.236 2.35-2.35-3.235 3.235-2.352 2.351 3.237zM43.476 98.97c3.4-9.341 13.727-14.158 23.071-10.758 9.342 3.4 14.159 13.728 10.758 23.071-3.4 9.342-13.727 14.16-23.07 10.758-9.342-3.4-14.16-13.727-10.759-23.07zm11.442 21.192c8.304 3.022 17.485-1.26 20.508-9.563 3.022-8.303-1.26-17.485-9.563-20.507-8.304-3.023-17.485 1.259-20.507 9.563-3.023 8.303 1.259 17.485 9.562 20.507zm6.668-12.472l-3.759-1.368 3.762-10.336 3.76 1.368-3.763 10.336zm-2.394 6.578l-3.759-1.368 1.368-3.759 3.759 1.368-1.368 3.76zM16.212 147.547c-3.4-9.342 1.415-19.67 10.758-23.07 9.342-3.4 19.67 1.414 23.071 10.757 3.4 9.342-1.414 19.67-10.758 23.071-9.341 3.4-19.67-1.414-23.07-10.758zm22.387 8.879c8.304-3.023 12.585-12.204 9.563-20.508-3.022-8.303-12.204-12.585-20.507-9.562-8.304 3.022-12.586 12.203-9.563 20.507 3.022 8.304 12.204 12.585 20.507 9.563zm-2.909-13.84l-3.758 1.368-3.763-10.337 3.76-1.368 3.761 10.337zm2.394 6.578l-3.758 1.368-1.368-3.759 3.758-1.368 1.368 3.759zM74 144c0-9.941 8.057-18 18-18 9.941 0 18 8.057 18 18 0 9.941-8.057 18-18 18-9.941 0-18-8.057-18-18zm18 16c8.837 0 16-7.163 16-16s-7.163-16-16-16-16 7.163-16 16 7.163 16 16 16zm2-14h-4v-11h4v11zm0 7h-4v-4h4v4zM126.476 120.97c3.4-9.341 13.727-14.158 23.071-10.758 9.342 3.4 14.159 13.728 10.758 23.071-3.4 9.342-13.727 14.16-23.07 10.758-9.342-3.4-14.16-13.727-10.759-23.07zm11.442 21.192c8.304 3.022 17.485-1.26 20.508-9.563 3.022-8.303-1.26-17.485-9.563-20.507-8.304-3.023-17.485 1.259-20.507 9.563-3.023 8.303 1.259 17.485 9.562 20.507zm6.668-12.472l-3.759-1.368 3.762-10.336 3.76 1.368-3.763 10.336zm-2.394 6.578l-3.759-1.368 1.368-3.759 3.759 1.368-1.368 3.76zM180.476 112.97c3.4-9.341 13.727-14.158 23.071-10.758 9.342 3.4 14.159 13.728 10.758 23.071-3.4 9.342-13.727 14.16-23.07 10.758-9.342-3.4-14.16-13.727-10.759-23.07zm11.442 21.192c8.304 3.022 17.485-1.26 20.508-9.563 3.022-8.303-1.26-17.485-9.563-20.507-8.304-3.023-17.485 1.259-20.507 9.563-3.023 8.303 1.259 17.485 9.562 20.507zm6.668-12.472l-3.759-1.368 3.762-10.336 3.76 1.368-3.763 10.336zm-2.394 6.578l-3.759-1.368 1.368-3.759 3.759 1.368-1.368 3.76zM178.876 169.464c-4.97-8.61-2.023-19.617 6.588-24.588 8.61-4.97 19.617-2.023 24.589 6.588 4.97 8.61 2.022 19.617-6.589 24.589-8.61 4.97-19.617 2.022-24.588-6.589zm23.588 4.857c7.653-4.419 10.275-14.204 5.857-21.857-4.419-7.653-14.204-10.275-21.857-5.856-7.653 4.418-10.275 14.203-5.856 21.856 4.418 7.653 14.203 10.275 21.856 5.857zm-5.268-13.125l-3.464 2-5.5-9.526 3.464-2 5.5 9.526zm3.5 6.062l-3.464 2-2-3.464 3.464-2 2 3.464zM238.876 151.464c-4.97-8.61-2.023-19.617 6.588-24.588 8.61-4.97 19.617-2.023 24.589 6.588 4.97 8.61 2.022 19.617-6.589 24.589-8.61 4.97-19.617 2.022-24.588-6.589zm23.588 4.857c7.653-4.419 10.275-14.204 5.857-21.857-4.419-7.653-14.204-10.275-21.857-5.856-7.653 4.418-10.275 14.203-5.856 21.856 4.418 7.653 14.203 10.275 21.856 5.857zm-5.268-13.125l-3.464 2-5.5-9.526 3.464-2 5.5 9.526zm3.5 6.062l-3.464 2-2-3.464 3.464-2 2 3.464zM291.937 131.847c7.615-6.39 18.967-5.399 25.359 2.218 6.39 7.615 5.398 18.968-2.219 25.36-7.615 6.39-18.967 5.398-25.359-2.22-6.39-7.615-5.398-18.967 2.219-25.358zm-.687 24.073c5.68 6.77 15.772 7.652 22.542 1.972 6.769-5.68 7.652-15.772 1.972-22.541-5.68-6.77-15.772-7.652-22.542-1.972-6.769 5.68-7.652 15.772-1.972 22.54zm12.01-7.467l-2.57-3.064 8.426-7.07 2.57 3.063-8.426 7.071zm-5.362 4.5l-2.571-3.065 3.064-2.57 2.571 3.063-3.064 2.572zM328.065 113.296c-7.615-6.39-8.61-17.742-2.218-25.36 6.39-7.615 17.741-8.61 25.359-2.218 7.615 6.39 8.61 17.742 2.218 25.36-6.39 7.614-17.742 8.61-25.359 2.218zm23.827-3.504c5.68-6.77 4.797-16.862-1.972-22.542-6.77-5.68-16.861-4.797-22.541 1.972-5.68 6.77-4.797 16.862 1.972 22.542 6.769 5.68 16.861 4.797 22.541-1.972zm-9.439-10.532l-2.571 3.065-8.427-7.071 2.572-3.064 8.426 7.07zm5.362 4.5l-2.57 3.064-3.065-2.571 2.571-3.064 3.064 2.571zM360.583 124.96c4.044-9.082 14.682-13.167 23.765-9.123 9.082 4.044 13.167 14.682 9.123 23.765-4.043 9.082-14.681 13.167-23.765 9.123-9.082-4.043-13.167-14.681-9.123-23.765zm9.936 21.938c8.073 3.594 17.53-.036 21.125-8.11 3.594-8.072-.036-17.53-8.109-21.124-8.073-3.594-17.53.037-21.124 8.11-3.595 8.072.036 17.53 8.108 21.124zm7.522-11.976l-3.654-1.627 4.474-10.05 3.654 1.628-4.474 10.049zm-2.847 6.395l-3.654-1.627 1.626-3.655 3.655 1.627-1.627 3.655zM411.583 100.96c4.044-9.082 14.682-13.167 23.765-9.123 9.082 4.044 13.167 14.682 9.123 23.765-4.043 9.082-14.681 13.167-23.765 9.123-9.082-4.043-13.167-14.681-9.123-23.765zm9.936 21.938c8.073 3.594 17.53-.036 21.125-8.11 3.594-8.072-.036-17.53-8.109-21.124-8.073-3.594-17.53.037-21.124 8.11-3.595 8.072.036 17.53 8.108 21.124zm7.522-11.976l-3.654-1.627 4.474-10.05 3.654 1.628-4.474 10.049zm-2.847 6.395l-3.654-1.627 1.626-3.655 3.655 1.627-1.627 3.655zM409.268 144.17c8.935-4.358 19.71-.649 24.069 8.288 4.358 8.935.649 19.71-8.288 24.069-8.935 4.358-19.71.65-24.069-8.288-4.358-8.935-.65-19.71 8.288-24.069zm-6.49 23.193c3.873 7.942 13.452 11.24 21.394 7.366 7.942-3.873 11.24-13.452 7.367-21.394-3.874-7.943-13.452-11.24-21.395-7.367-7.942 3.874-11.24 13.452-7.366 21.395zm13.46-4.34l-1.754-3.595 9.887-4.822 1.753 3.595-9.887 4.822zm-6.292 3.069l-1.754-3.596 3.596-1.753 1.753 3.595-3.595 1.754zM464.025 136.465c-5.843-8.042-4.062-19.298 3.982-25.142 8.043-5.844 19.298-4.063 25.143 3.982 5.843 8.042 4.062 19.298-3.983 25.142-8.042 5.843-19.298 4.062-25.142-3.982zm23.967 2.364c7.149-5.194 8.733-15.2 3.54-22.349-5.195-7.149-15.2-8.733-22.35-3.54-7.148 5.195-8.733 15.2-3.54 22.35 5.195 7.148 15.2 8.733 22.35 3.54zm-6.611-12.502l-3.236 2.352-6.466-8.9 3.236-2.35 6.466 8.898zm4.114 5.664l-3.236 2.35-2.35-3.235 3.235-2.352 2.351 3.237zM524.025 145.465c-5.843-8.042-4.062-19.298 3.982-25.142 8.043-5.844 19.298-4.063 25.143 3.982 5.843 8.042 4.062 19.298-3.983 25.142-8.042 5.843-19.298 4.062-25.142-3.982zm23.967 2.364c7.149-5.194 8.733-15.2 3.54-22.349-5.195-7.149-15.2-8.733-22.35-3.54-7.148 5.195-8.733 15.2-3.54 22.35 5.195 7.148 15.2 8.733 22.35 3.54zm-6.611-12.502l-3.236 2.352-6.466-8.9 3.236-2.35 6.466 8.898zm4.114 5.664l-3.236 2.35-2.35-3.235 3.235-2.352 2.351 3.237z"/></g></svg>