<svg xmlns="http://www.w3.org/2000/svg" viewBox="0 0 605 180"><title>fabric-alt</title><g fill-rule="evenodd"><g transform="rotate(-30 36.196 -24.053)"><circle cx="18" cy="18" r="18"/><path d="M24.335 25.694c-.12.52-.183.835-.441 1.184a.814.814 0 0 1-.742.332c-.25-.029-.491-.136-.734-.23-2.812-1.082-5.08-2.987-7.372-4.857-.547-.445-1.7-1.477-2.354-2.02 1.594-1.126 2.254-1.823 2.254-1.823 2.568 2.23 5.563 4.84 8.688 6.146.498.208.964.14.701 1.268M21.158 17.313c-.723-.571-1.987-1.52-2.701-2.07-1.815-1.4-3.75-2.568-5.97-3.234-1.202-.36-1.36-1.569-.451-2.636.165-.194.424-.322.673-.27 4.135.866 7.263 3.4 10.747 6.597-1.178.622-2.298 1.613-2.298 1.613M18.668 20.314c2.581-2.613 7.594-5.77 10.121-5.886a.816.816 0 0 1 .732.386c.249.404.33.887.404 1.363.071.46-.168.851-.604.973-3.02.846-5.953 2.903-8.333 4.866-.8-.378-2.32-1.702-2.32-1.702M17.259 15.366c-2.966 2.476-6.184 5.43-9.662 6.488a.815.815 0 0 1-.83-.207c-.284-.3-.393-.608-.508-.908-.402-1.049-.288-1.355.754-1.756 2.446-.942 4.48-2.506 6.45-4.179.298-.253.89-.74 1.216-1.008 1.078.29 2.58 1.57 2.58 1.57M11.916 24.503c.85-.436 2.16-.95 3.013-1.43.69.608 2.286 1.819 2.286 1.819-1.158.774-3.004 1.926-4.289 2.258a.809.809 0 0 1-.837-.294c-.376-.487-.593-1.003-.612-1.617a.805.805 0 0 1 .439-.736M18.811 10.937c1.52-.919 3.23-1.61 4.402-1.86a.798.798 0 0 1 .836.35c.336.529.476 1.06.442 1.641a.832.832 0 0 1-.428.684c-.735.402-2.045.715-2.797 1.043 0 0-1.327-1.119-2.455-1.858M27.853 18.532c2.052.797 2.81 1.067 1.312 3.136-.175.242-.454.244-.746.175-.934-.22-2.591-1.175-3.508-1.71 1.69-1.169 2.942-1.601 2.942-1.601M8.407 17.605c-.507-.145-1.472-.298-1.913-.567a.777.777 0 0 1-.363-.565c-.072-.586.078-1.115.364-1.646a.813.813 0 0 1 .804-.422c.984.109 2.763.853 3.726 1.293-1.395 1.284-2.618 1.907-2.618 1.907"/></g><g transform="rotate(10 -161.24 380.617)"><circle cx="18" cy="18" r="18"/><path d="M24.335 25.694c-.12.52-.183.835-.441 1.184a.814.814 0 0 1-.742.332c-.25-.029-.491-.136-.734-.23-2.812-1.082-5.08-2.987-7.372-4.857-.547-.445-1.7-1.477-2.354-2.02 1.594-1.126 2.254-1.823 2.254-1.823 2.568 2.23 5.563 4.84 8.688 6.146.498.208.964.14.701 1.268M21.158 17.313c-.723-.571-1.987-1.52-2.701-2.07-1.815-1.4-3.75-2.568-5.97-3.234-1.202-.36-1.36-1.569-.451-2.636.165-.194.424-.322.673-.27 4.135.866 7.263 3.4 10.747 6.597-1.178.622-2.298 1.613-2.298 1.613M18.668 20.314c2.581-2.613 7.594-5.77 10.121-5.886a.816.816 0 0 1 .732.386c.249.404.33.887.404 1.363.071.46-.168.851-.604.973-3.02.846-5.953 2.903-8.333 4.866-.8-.378-2.32-1.702-2.32-1.702M17.259 15.366c-2.966 2.476-6.184 5.43-9.662 6.488a.815.815 0 0 1-.83-.207c-.284-.3-.393-.608-.508-.908-.402-1.049-.288-1.355.754-1.756 2.446-.942 4.48-2.506 6.45-4.179.298-.253.89-.74 1.216-1.008 1.078.29 2.58 1.57 2.58 1.57M11.916 24.503c.85-.436 2.16-.95 3.013-1.43.69.608 2.286 1.819 2.286 1.819-1.158.774-3.004 1.926-4.289 2.258a.809.809 0 0 1-.837-.294c-.376-.487-.593-1.003-.612-1.617a.805.805 0 0 1 .439-.736M18.811 10.937c1.52-.919 3.23-1.61 4.402-1.86a.798.798 0 0 1 .836.35c.336.529.476 1.06.442 1.641a.832.832 0 0 1-.428.684c-.735.402-2.045.715-2.797 1.043 0 0-1.327-1.119-2.455-1.858M27.853 18.532c2.052.797 2.81 1.067 1.312 3.136-.175.242-.454.244-.746.175-.934-.22-2.591-1.175-3.508-1.71 1.69-1.169 2.942-1.601 2.942-1.601M8.407 17.605c-.507-.145-1.472-.298-1.913-.567a.777.777 0 0 1-.363-.565c-.072-.586.078-1.115.364-1.646a.813.813 0 0 1 .804-.422c.984.109 2.763.853 3.726 1.293-1.395 1.284-2.618 1.907-2.618 1.907"/></g><g transform="rotate(-30 97.99 -187.495)"><circle cx="18" cy="18" r="18"/><path d="M24.335 25.694c-.12.52-.183.835-.441 1.184a.814.814 0 0 1-.742.332c-.25-.029-.491-.136-.734-.23-2.812-1.082-5.08-2.987-7.372-4.857-.547-.445-1.7-1.477-2.354-2.02 1.594-1.126 2.254-1.823 2.254-1.823 2.568 2.23 5.563 4.84 8.688 6.146.498.208.964.14.701 1.268M21.158 17.313c-.723-.571-1.987-1.52-2.701-2.07-1.815-1.4-3.75-2.568-5.97-3.234-1.202-.36-1.36-1.569-.451-2.636.165-.194.424-.322.673-.27 4.135.866 7.263 3.4 10.747 6.597-1.178.622-2.298 1.613-2.298 1.613M18.668 20.314c2.581-2.613 7.594-5.77 10.121-5.886a.816.816 0 0 1 .732.386c.249.404.33.887.404 1.363.071.46-.168.851-.604.973-3.02.846-5.953 2.903-8.333 4.866-.8-.378-2.32-1.702-2.32-1.702M17.259 15.366c-2.966 2.476-6.184 5.43-9.662 6.488a.815.815 0 0 1-.83-.207c-.284-.3-.393-.608-.508-.908-.402-1.049-.288-1.355.754-1.756 2.446-.942 4.48-2.506 6.45-4.179.298-.253.89-.74 1.216-1.008 1.078.29 2.58 1.57 2.58 1.57M11.916 24.503c.85-.436 2.16-.95 3.013-1.43.69.608 2.286 1.819 2.286 1.819-1.158.774-3.004 1.926-4.289 2.258a.809.809 0 0 1-.837-.294c-.376-.487-.593-1.003-.612-1.617a.805.805 0 0 1 .439-.736M18.811 10.937c1.52-.919 3.23-1.61 4.402-1.86a.798.798 0 0 1 .836.35c.336.529.476 1.06.442 1.641a.832.832 0 0 1-.428.684c-.735.402-2.045.715-2.797 1.043 0 0-1.327-1.119-2.455-1.858M27.853 18.532c2.052.797 2.81 1.067 1.312 3.136-.175.242-.454.244-.746.175-.934-.22-2.591-1.175-3.508-1.71 1.69-1.169 2.942-1.601 2.942-1.601M8.407 17.605c-.507-.145-1.472-.298-1.913-.567a.777.777 0 0 1-.363-.565c-.072-.586.078-1.115.364-1.646a.813.813 0 0 1 .804-.422c.984.109 2.763.853 3.726 1.293-1.395 1.284-2.618 1.907-2.618 1.907"/></g><g transform="rotate(20 59.63 538.087)"><circle cx="18" cy="18" r="18"/><path d="M24.335 25.694c-.12.52-.183.835-.441 1.184a.814.814 0 0 1-.742.332c-.25-.029-.491-.136-.734-.23-2.812-1.082-5.08-2.987-7.372-4.857-.547-.445-1.7-1.477-2.354-2.02 1.594-1.126 2.254-1.823 2.254-1.823 2.568 2.23 5.563 4.84 8.688 6.146.498.208.964.14.701 1.268M21.158 17.313c-.723-.571-1.987-1.52-2.701-2.07-1.815-1.4-3.75-2.568-5.97-3.234-1.202-.36-1.36-1.569-.451-2.636.165-.194.424-.322.673-.27 4.135.866 7.263 3.4 10.747 6.597-1.178.622-2.298 1.613-2.298 1.613M18.668 20.314c2.581-2.613 7.594-5.77 10.121-5.886a.816.816 0 0 1 .732.386c.249.404.33.887.404 1.363.071.46-.168.851-.604.973-3.02.846-5.953 2.903-8.333 4.866-.8-.378-2.32-1.702-2.32-1.702M17.259 15.366c-2.966 2.476-6.184 5.43-9.662 6.488a.815.815 0 0 1-.83-.207c-.284-.3-.393-.608-.508-.908-.402-1.049-.288-1.355.754-1.756 2.446-.942 4.48-2.506 6.45-4.179.298-.253.89-.74 1.216-1.008 1.078.29 2.58 1.57 2.58 1.57M11.916 24.503c.85-.436 2.16-.95 3.013-1.43.69.608 2.286 1.819 2.286 1.819-1.158.774-3.004 1.926-4.289 2.258a.809.809 0 0 1-.837-.294c-.376-.487-.593-1.003-.612-1.617a.805.805 0 0 1 .439-.736M18.811 10.937c1.52-.919 3.23-1.61 4.402-1.86a.798.798 0 0 1 .836.35c.336.529.476 1.06.442 1.641a.832.832 0 0 1-.428.684c-.735.402-2.045.715-2.797 1.043 0 0-1.327-1.119-2.455-1.858M27.853 18.532c2.052.797 2.81 1.067 1.312 3.136-.175.242-.454.244-.746.175-.934-.22-2.591-1.175-3.508-1.71 1.69-1.169 2.942-1.601 2.942-1.601M8.407 17.605c-.507-.145-1.472-.298-1.913-.567a.777.777 0 0 1-.363-.565c-.072-.586.078-1.115.364-1.646a.813.813 0 0 1 .804-.422c.984.109 2.763.853 3.726 1.293-1.395 1.284-2.618 1.907-2.618 1.907"/></g><g transform="rotate(-30 157.892 -433.444)"><circle cx="18" cy="18" r="18"/><path d="M24.335 25.694c-.12.52-.183.835-.441 1.184a.814.814 0 0 1-.742.332c-.25-.029-.491-.136-.734-.23-2.812-1.082-5.08-2.987-7.372-4.857-.547-.445-1.7-1.477-2.354-2.02 1.594-1.126 2.254-1.823 2.254-1.823 2.568 2.23 5.563 4.84 8.688 6.146.498.208.964.14.701 1.268M21.158 17.313c-.723-.571-1.987-1.52-2.701-2.07-1.815-1.4-3.75-2.568-5.97-3.234-1.202-.36-1.36-1.569-.451-2.636.165-.194.424-.322.673-.27 4.135.866 7.263 3.4 10.747 6.597-1.178.622-2.298 1.613-2.298 1.613M18.668 20.314c2.581-2.613 7.594-5.77 10.121-5.886a.816.816 0 0 1 .732.386c.249.404.33.887.404 1.363.071.46-.168.851-.604.973-3.02.846-5.953 2.903-8.333 4.866-.8-.378-2.32-1.702-2.32-1.702M17.259 15.366c-2.966 2.476-6.184 5.43-9.662 6.488a.815.815 0 0 1-.83-.207c-.284-.3-.393-.608-.508-.908-.402-1.049-.288-1.355.754-1.756 2.446-.942 4.48-2.506 6.45-4.179.298-.253.89-.74 1.216-1.008 1.078.29 2.58 1.57 2.58 1.57M11.916 24.503c.85-.436 2.16-.95 3.013-1.43.69.608 2.286 1.819 2.286 1.819-1.158.774-3.004 1.926-4.289 2.258a.809.809 0 0 1-.837-.294c-.376-.487-.593-1.003-.612-1.617a.805.805 0 0 1 .439-.736M18.811 10.937c1.52-.919 3.23-1.61 4.402-1.86a.798.798 0 0 1 .836.35c.336.529.476 1.06.442 1.641a.832.832 0 0 1-.428.684c-.735.402-2.045.715-2.797 1.043 0 0-1.327-1.119-2.455-1.858M27.853 18.532c2.052.797 2.81 1.067 1.312 3.136-.175.242-.454.244-.746.175-.934-.22-2.591-1.175-3.508-1.71 1.69-1.169 2.942-1.601 2.942-1.601M8.407 17.605c-.507-.145-1.472-.298-1.913-.567a.777.777 0 0 1-.363-.565c-.072-.586.078-1.115.364-1.646a.813.813 0 0 1 .804-.422c.984.109 2.763.853 3.726 1.293-1.395 1.284-2.618 1.907-2.618 1.907"/></g><g transform="rotate(31 153.35 635.5)"><circle cx="18" cy="18" r="18"/><path d="M24.335 25.694c-.12.52-.183.835-.441 1.184a.814.814 0 0 1-.742.332c-.25-.029-.491-.136-.734-.23-2.812-1.082-5.08-2.987-7.372-4.857-.547-.445-1.7-1.477-2.354-2.02 1.594-1.126 2.254-1.823 2.254-1.823 2.568 2.23 5.563 4.84 8.688 6.146.498.208.964.14.701 1.268M21.158 17.313c-.723-.571-1.987-1.52-2.701-2.07-1.815-1.4-3.75-2.568-5.97-3.234-1.202-.36-1.36-1.569-.451-2.636.165-.194.424-.322.673-.27 4.135.866 7.263 3.4 10.747 6.597-1.178.622-2.298 1.613-2.298 1.613M18.668 20.314c2.581-2.613 7.594-5.77 10.121-5.886a.816.816 0 0 1 .732.386c.249.404.33.887.404 1.363.071.46-.168.851-.604.973-3.02.846-5.953 2.903-8.333 4.866-.8-.378-2.32-1.702-2.32-1.702M17.259 15.366c-2.966 2.476-6.184 5.43-9.662 6.488a.815.815 0 0 1-.83-.207c-.284-.3-.393-.608-.508-.908-.402-1.049-.288-1.355.754-1.756 2.446-.942 4.48-2.506 6.45-4.179.298-.253.89-.74 1.216-1.008 1.078.29 2.58 1.57 2.58 1.57M11.916 24.503c.85-.436 2.16-.95 3.013-1.43.69.608 2.286 1.819 2.286 1.819-1.158.774-3.004 1.926-4.289 2.258a.809.809 0 0 1-.837-.294c-.376-.487-.593-1.003-.612-1.617a.805.805 0 0 1 .439-.736M18.811 10.937c1.52-.919 3.23-1.61 4.402-1.86a.798.798 0 0 1 .836.35c.336.529.476 1.06.442 1.641a.832.832 0 0 1-.428.684c-.735.402-2.045.715-2.797 1.043 0 0-1.327-1.119-2.455-1.858M27.853 18.532c2.052.797 2.81 1.067 1.312 3.136-.175.242-.454.244-.746.175-.934-.22-2.591-1.175-3.508-1.71 1.69-1.169 2.942-1.601 2.942-1.601M8.407 17.605c-.507-.145-1.472-.298-1.913-.567a.777.777 0 0 1-.363-.565c-.072-.586.078-1.115.364-1.646a.813.813 0 0 1 .804-.422c.984.109 2.763.853 3.726 1.293-1.395 1.284-2.618 1.907-2.618 1.907"/></g><g transform="rotate(-46 243.236 -457.272)"><circle cx="18" cy="18" r="18"/><path d="M24.335 25.694c-.12.52-.183.835-.441 1.184a.814.814 0 0 1-.742.332c-.25-.029-.491-.136-.734-.23-2.812-1.082-5.08-2.987-7.372-4.857-.547-.445-1.7-1.477-2.354-2.02 1.594-1.126 2.254-1.823 2.254-1.823 2.568 2.23 5.563 4.84 8.688 6.146.498.208.964.14.701 1.268M21.158 17.313c-.723-.571-1.987-1.52-2.701-2.07-1.815-1.4-3.75-2.568-5.97-3.234-1.202-.36-1.36-1.569-.451-2.636.165-.194.424-.322.673-.27 4.135.866 7.263 3.4 10.747 6.597-1.178.622-2.298 1.613-2.298 1.613M18.668 20.314c2.581-2.613 7.594-5.77 10.121-5.886a.816.816 0 0 1 .732.386c.249.404.33.887.404 1.363.071.46-.168.851-.604.973-3.02.846-5.953 2.903-8.333 4.866-.8-.378-2.32-1.702-2.32-1.702M17.259 15.366c-2.966 2.476-6.184 5.43-9.662 6.488a.815.815 0 0 1-.83-.207c-.284-.3-.393-.608-.508-.908-.402-1.049-.288-1.355.754-1.756 2.446-.942 4.48-2.506 6.45-4.179.298-.253.89-.74 1.216-1.008 1.078.29 2.58 1.57 2.58 1.57M11.916 24.503c.85-.436 2.16-.95 3.013-1.43.69.608 2.286 1.819 2.286 1.819-1.158.774-3.004 1.926-4.289 2.258a.809.809 0 0 1-.837-.294c-.376-.487-.593-1.003-.612-1.617a.805.805 0 0 1 .439-.736M18.811 10.937c1.52-.919 3.23-1.61 4.402-1.86a.798.798 0 0 1 .836.35c.336.529.476 1.06.442 1.641a.832.832 0 0 1-.428.684c-.735.402-2.045.715-2.797 1.043 0 0-1.327-1.119-2.455-1.858M27.853 18.532c2.052.797 2.81 1.067 1.312 3.136-.175.242-.454.244-.746.175-.934-.22-2.591-1.175-3.508-1.71 1.69-1.169 2.942-1.601 2.942-1.601M8.407 17.605c-.507-.145-1.472-.298-1.913-.567a.777.777 0 0 1-.363-.565c-.072-.586.078-1.115.364-1.646a.813.813 0 0 1 .804-.422c.984.109 2.763.853 3.726 1.293-1.395 1.284-2.618 1.907-2.618 1.907"/></g><g transform="rotate(-36 275.427 -732.994)"><circle cx="18" cy="18" r="18"/><path d="M24.335 25.694c-.12.52-.183.835-.441 1.184a.814.814 0 0 1-.742.332c-.25-.029-.491-.136-.734-.23-2.812-1.082-5.08-2.987-7.372-4.857-.547-.445-1.7-1.477-2.354-2.02 1.594-1.126 2.254-1.823 2.254-1.823 2.568 2.23 5.563 4.84 8.688 6.146.498.208.964.14.701 1.268M21.158 17.313c-.723-.571-1.987-1.52-2.701-2.07-1.815-1.4-3.75-2.568-5.97-3.234-1.202-.36-1.36-1.569-.451-2.636.165-.194.424-.322.673-.27 4.135.866 7.263 3.4 10.747 6.597-1.178.622-2.298 1.613-2.298 1.613M18.668 20.314c2.581-2.613 7.594-5.77 10.121-5.886a.816.816 0 0 1 .732.386c.249.404.33.887.404 1.363.071.46-.168.851-.604.973-3.02.846-5.953 2.903-8.333 4.866-.8-.378-2.32-1.702-2.32-1.702M17.259 15.366c-2.966 2.476-6.184 5.43-9.662 6.488a.815.815 0 0 1-.83-.207c-.284-.3-.393-.608-.508-.908-.402-1.049-.288-1.355.754-1.756 2.446-.942 4.48-2.506 6.45-4.179.298-.253.89-.74 1.216-1.008 1.078.29 2.58 1.57 2.58 1.57M11.916 24.503c.85-.436 2.16-.95 3.013-1.43.69.608 2.286 1.819 2.286 1.819-1.158.774-3.004 1.926-4.289 2.258a.809.809 0 0 1-.837-.294c-.376-.487-.593-1.003-.612-1.617a.805.805 0 0 1 .439-.736M18.811 10.937c1.52-.919 3.23-1.61 4.402-1.86a.798.798 0 0 1 .836.35c.336.529.476 1.06.442 1.641a.832.832 0 0 1-.428.684c-.735.402-2.045.715-2.797 1.043 0 0-1.327-1.119-2.455-1.858M27.853 18.532c2.052.797 2.81 1.067 1.312 3.136-.175.242-.454.244-.746.175-.934-.22-2.591-1.175-3.508-1.71 1.69-1.169 2.942-1.601 2.942-1.601M8.407 17.605c-.507-.145-1.472-.298-1.913-.567a.777.777 0 0 1-.363-.565c-.072-.586.078-1.115.364-1.646a.813.813 0 0 1 .804-.422c.984.109 2.763.853 3.726 1.293-1.395 1.284-2.618 1.907-2.618 1.907"/></g><g transform="rotate(34 232.802 910.995)"><circle cx="18" cy="18" r="18"/><path d="M24.335 25.694c-.12.52-.183.835-.441 1.184a.814.814 0 0 1-.742.332c-.25-.029-.491-.136-.734-.23-2.812-1.082-5.08-2.987-7.372-4.857-.547-.445-1.7-1.477-2.354-2.02 1.594-1.126 2.254-1.823 2.254-1.823 2.568 2.23 5.563 4.84 8.688 6.146.498.208.964.14.701 1.268M21.158 17.313c-.723-.571-1.987-1.52-2.701-2.07-1.815-1.4-3.75-2.568-5.97-3.234-1.202-.36-1.36-1.569-.451-2.636.165-.194.424-.322.673-.27 4.135.866 7.263 3.4 10.747 6.597-1.178.622-2.298 1.613-2.298 1.613M18.668 20.314c2.581-2.613 7.594-5.77 10.121-5.886a.816.816 0 0 1 .732.386c.249.404.33.887.404 1.363.071.46-.168.851-.604.973-3.02.846-5.953 2.903-8.333 4.866-.8-.378-2.32-1.702-2.32-1.702M17.259 15.366c-2.966 2.476-6.184 5.43-9.662 6.488a.815.815 0 0 1-.83-.207c-.284-.3-.393-.608-.508-.908-.402-1.049-.288-1.355.754-1.756 2.446-.942 4.48-2.506 6.45-4.179.298-.253.89-.74 1.216-1.008 1.078.29 2.58 1.57 2.58 1.57M11.916 24.503c.85-.436 2.16-.95 3.013-1.43.69.608 2.286 1.819 2.286 1.819-1.158.774-3.004 1.926-4.289 2.258a.809.809 0 0 1-.837-.294c-.376-.487-.593-1.003-.612-1.617a.805.805 0 0 1 .439-.736M18.811 10.937c1.52-.919 3.23-1.61 4.402-1.86a.798.798 0 0 1 .836.35c.336.529.476 1.06.442 1.641a.832.832 0 0 1-.428.684c-.735.402-2.045.715-2.797 1.043 0 0-1.327-1.119-2.455-1.858M27.853 18.532c2.052.797 2.81 1.067 1.312 3.136-.175.242-.454.244-.746.175-.934-.22-2.591-1.175-3.508-1.71 1.69-1.169 2.942-1.601 2.942-1.601M8.407 17.605c-.507-.145-1.472-.298-1.913-.567a.777.777 0 0 1-.363-.565c-.072-.586.078-1.115.364-1.646a.813.813 0 0 1 .804-.422c.984.109 2.763.853 3.726 1.293-1.395 1.284-2.618 1.907-2.618 1.907"/></g><g transform="rotate(20 -144.632 59.514)"><circle cx="18" cy="18" r="18"/><path d="M24.335 25.694c-.12.52-.183.835-.441 1.184a.814.814 0 0 1-.742.332c-.25-.029-.491-.136-.734-.23-2.812-1.082-5.08-2.987-7.372-4.857-.547-.445-1.7-1.477-2.354-2.02 1.594-1.126 2.254-1.823 2.254-1.823 2.568 2.23 5.563 4.84 8.688 6.146.498.208.964.14.701 1.268M21.158 17.313c-.723-.571-1.987-1.52-2.701-2.07-1.815-1.4-3.75-2.568-5.97-3.234-1.202-.36-1.36-1.569-.451-2.636.165-.194.424-.322.673-.27 4.135.866 7.263 3.4 10.747 6.597-1.178.622-2.298 1.613-2.298 1.613M18.668 20.314c2.581-2.613 7.594-5.77 10.121-5.886a.816.816 0 0 1 .732.386c.249.404.33.887.404 1.363.071.46-.168.851-.604.973-3.02.846-5.953 2.903-8.333 4.866-.8-.378-2.32-1.702-2.32-1.702M17.259 15.366c-2.966 2.476-6.184 5.43-9.662 6.488a.815.815 0 0 1-.83-.207c-.284-.3-.393-.608-.508-.908-.402-1.049-.288-1.355.754-1.756 2.446-.942 4.48-2.506 6.45-4.179.298-.253.89-.74 1.216-1.008 1.078.29 2.58 1.57 2.58 1.57M11.916 24.503c.85-.436 2.16-.95 3.013-1.43.69.608 2.286 1.819 2.286 1.819-1.158.774-3.004 1.926-4.289 2.258a.809.809 0 0 1-.837-.294c-.376-.487-.593-1.003-.612-1.617a.805.805 0 0 1 .439-.736M18.811 10.937c1.52-.919 3.23-1.61 4.402-1.86a.798.798 0 0 1 .836.35c.336.529.476 1.06.442 1.641a.832.832 0 0 1-.428.684c-.735.402-2.045.715-2.797 1.043 0 0-1.327-1.119-2.455-1.858M27.853 18.532c2.052.797 2.81 1.067 1.312 3.136-.175.242-.454.244-.746.175-.934-.22-2.591-1.175-3.508-1.71 1.69-1.169 2.942-1.601 2.942-1.601M8.407 17.605c-.507-.145-1.472-.298-1.913-.567a.777.777 0 0 1-.363-.565c-.072-.586.078-1.115.364-1.646a.813.813 0 0 1 .804-.422c.984.109 2.763.853 3.726 1.293-1.395 1.284-2.618 1.907-2.618 1.907"/></g><g transform="rotate(-30 195.622 -141.335)"><circle cx="18" cy="18" r="18"/><path d="M24.335 25.694c-.12.52-.183.835-.441 1.184a.814.814 0 0 1-.742.332c-.25-.029-.491-.136-.734-.23-2.812-1.082-5.08-2.987-7.372-4.857-.547-.445-1.7-1.477-2.354-2.02 1.594-1.126 2.254-1.823 2.254-1.823 2.568 2.23 5.563 4.84 8.688 6.146.498.208.964.14.701 1.268M21.158 17.313c-.723-.571-1.987-1.52-2.701-2.07-1.815-1.4-3.75-2.568-5.97-3.234-1.202-.36-1.36-1.569-.451-2.636.165-.194.424-.322.673-.27 4.135.866 7.263 3.4 10.747 6.597-1.178.622-2.298 1.613-2.298 1.613M18.668 20.314c2.581-2.613 7.594-5.77 10.121-5.886a.816.816 0 0 1 .732.386c.249.404.33.887.404 1.363.071.46-.168.851-.604.973-3.02.846-5.953 2.903-8.333 4.866-.8-.378-2.32-1.702-2.32-1.702M17.259 15.366c-2.966 2.476-6.184 5.43-9.662 6.488a.815.815 0 0 1-.83-.207c-.284-.3-.393-.608-.508-.908-.402-1.049-.288-1.355.754-1.756 2.446-.942 4.48-2.506 6.45-4.179.298-.253.89-.74 1.216-1.008 1.078.29 2.58 1.57 2.58 1.57M11.916 24.503c.85-.436 2.16-.95 3.013-1.43.69.608 2.286 1.819 2.286 1.819-1.158.774-3.004 1.926-4.289 2.258a.809.809 0 0 1-.837-.294c-.376-.487-.593-1.003-.612-1.617a.805.805 0 0 1 .439-.736M18.811 10.937c1.52-.919 3.23-1.61 4.402-1.86a.798.798 0 0 1 .836.35c.336.529.476 1.06.442 1.641a.832.832 0 0 1-.428.684c-.735.402-2.045.715-2.797 1.043 0 0-1.327-1.119-2.455-1.858M27.853 18.532c2.052.797 2.81 1.067 1.312 3.136-.175.242-.454.244-.746.175-.934-.22-2.591-1.175-3.508-1.71 1.69-1.169 2.942-1.601 2.942-1.601M8.407 17.605c-.507-.145-1.472-.298-1.913-.567a.777.777 0 0 1-.363-.565c-.072-.586.078-1.115.364-1.646a.813.813 0 0 1 .804-.422c.984.109 2.763.853 3.726 1.293-1.395 1.284-2.618 1.907-2.618 1.907"/></g><g transform="translate(153 59)"><circle cx="18" cy="18" r="18"/><path d="M24.335 25.694c-.12.52-.183.835-.441 1.184a.814.814 0 0 1-.742.332c-.25-.029-.491-.136-.734-.23-2.812-1.082-5.08-2.987-7.372-4.857-.547-.445-1.7-1.477-2.354-2.02 1.594-1.126 2.254-1.823 2.254-1.823 2.568 2.23 5.563 4.84 8.688 6.146.498.208.964.14.701 1.268M21.158 17.313c-.723-.571-1.987-1.52-2.701-2.07-1.815-1.4-3.75-2.568-5.97-3.234-1.202-.36-1.36-1.569-.451-2.636.165-.194.424-.322.673-.27 4.135.866 7.263 3.4 10.747 6.597-1.178.622-2.298 1.613-2.298 1.613M18.668 20.314c2.581-2.613 7.594-5.77 10.121-5.886a.816.816 0 0 1 .732.386c.249.404.33.887.404 1.363.071.46-.168.851-.604.973-3.02.846-5.953 2.903-8.333 4.866-.8-.378-2.32-1.702-2.32-1.702M17.259 15.366c-2.966 2.476-6.184 5.43-9.662 6.488a.815.815 0 0 1-.83-.207c-.284-.3-.393-.608-.508-.908-.402-1.049-.288-1.355.754-1.756 2.446-.942 4.48-2.506 6.45-4.179.298-.253.89-.74 1.216-1.008 1.078.29 2.58 1.57 2.58 1.57M11.916 24.503c.85-.436 2.16-.95 3.013-1.43.69.608 2.286 1.819 2.286 1.819-1.158.774-3.004 1.926-4.289 2.258a.809.809 0 0 1-.837-.294c-.376-.487-.593-1.003-.612-1.617a.805.805 0 0 1 .439-.736M18.811 10.937c1.52-.919 3.23-1.61 4.402-1.86a.798.798 0 0 1 .836.35c.336.529.476 1.06.442 1.641a.832.832 0 0 1-.428.684c-.735.402-2.045.715-2.797 1.043 0 0-1.327-1.119-2.455-1.858M27.853 18.532c2.052.797 2.81 1.067 1.312 3.136-.175.242-.454.244-.746.175-.934-.22-2.591-1.175-3.508-1.71 1.69-1.169 2.942-1.601 2.942-1.601M8.407 17.605c-.507-.145-1.472-.298-1.913-.567a.777.777 0 0 1-.363-.565c-.072-.586.078-1.115.364-1.646a.813.813 0 0 1 .804-.422c.984.109 2.763.853 3.726 1.293-1.395 1.284-2.618 1.907-2.618 1.907"/></g><g transform="rotate(-30 233.462 -357.195)"><circle cx="18" cy="18" r="18"/><path d="M24.335 25.694c-.12.52-.183.835-.441 1.184a.814.814 0 0 1-.742.332c-.25-.029-.491-.136-.734-.23-2.812-1.082-5.08-2.987-7.372-4.857-.547-.445-1.7-1.477-2.354-2.02 1.594-1.126 2.254-1.823 2.254-1.823 2.568 2.23 5.563 4.84 8.688 6.146.498.208.964.14.701 1.268M21.158 17.313c-.723-.571-1.987-1.52-2.701-2.07-1.815-1.4-3.75-2.568-5.97-3.234-1.202-.36-1.36-1.569-.451-2.636.165-.194.424-.322.673-.27 4.135.866 7.263 3.4 10.747 6.597-1.178.622-2.298 1.613-2.298 1.613M18.668 20.314c2.581-2.613 7.594-5.77 10.121-5.886a.816.816 0 0 1 .732.386c.249.404.33.887.404 1.363.071.46-.168.851-.604.973-3.02.846-5.953 2.903-8.333 4.866-.8-.378-2.32-1.702-2.32-1.702M17.259 15.366c-2.966 2.476-6.184 5.43-9.662 6.488a.815.815 0 0 1-.83-.207c-.284-.3-.393-.608-.508-.908-.402-1.049-.288-1.355.754-1.756 2.446-.942 4.48-2.506 6.45-4.179.298-.253.89-.74 1.216-1.008 1.078.29 2.58 1.57 2.58 1.57M11.916 24.503c.85-.436 2.16-.95 3.013-1.43.69.608 2.286 1.819 2.286 1.819-1.158.774-3.004 1.926-4.289 2.258a.809.809 0 0 1-.837-.294c-.376-.487-.593-1.003-.612-1.617a.805.805 0 0 1 .439-.736M18.811 10.937c1.52-.919 3.23-1.61 4.402-1.86a.798.798 0 0 1 .836.35c.336.529.476 1.06.442 1.641a.832.832 0 0 1-.428.684c-.735.402-2.045.715-2.797 1.043 0 0-1.327-1.119-2.455-1.858M27.853 18.532c2.052.797 2.81 1.067 1.312 3.136-.175.242-.454.244-.746.175-.934-.22-2.591-1.175-3.508-1.71 1.69-1.169 2.942-1.601 2.942-1.601M8.407 17.605c-.507-.145-1.472-.298-1.913-.567a.777.777 0 0 1-.363-.565c-.072-.586.078-1.115.364-1.646a.813.813 0 0 1 .804-.422c.984.109 2.763.853 3.726 1.293-1.395 1.284-2.618 1.907-2.618 1.907"/></g><g transform="rotate(-10 625.562 -1447.052)"><circle cx="18" cy="18" r="18"/><path d="M24.335 25.694c-.12.52-.183.835-.441 1.184a.814.814 0 0 1-.742.332c-.25-.029-.491-.136-.734-.23-2.812-1.082-5.08-2.987-7.372-4.857-.547-.445-1.7-1.477-2.354-2.02 1.594-1.126 2.254-1.823 2.254-1.823 2.568 2.23 5.563 4.84 8.688 6.146.498.208.964.14.701 1.268M21.158 17.313c-.723-.571-1.987-1.52-2.701-2.07-1.815-1.4-3.75-2.568-5.97-3.234-1.202-.36-1.36-1.569-.451-2.636.165-.194.424-.322.673-.27 4.135.866 7.263 3.4 10.747 6.597-1.178.622-2.298 1.613-2.298 1.613M18.668 20.314c2.581-2.613 7.594-5.77 10.121-5.886a.816.816 0 0 1 .732.386c.249.404.33.887.404 1.363.071.46-.168.851-.604.973-3.02.846-5.953 2.903-8.333 4.866-.8-.378-2.32-1.702-2.32-1.702M17.259 15.366c-2.966 2.476-6.184 5.43-9.662 6.488a.815.815 0 0 1-.83-.207c-.284-.3-.393-.608-.508-.908-.402-1.049-.288-1.355.754-1.756 2.446-.942 4.48-2.506 6.45-4.179.298-.253.89-.74 1.216-1.008 1.078.29 2.58 1.57 2.58 1.57M11.916 24.503c.85-.436 2.16-.95 3.013-1.43.69.608 2.286 1.819 2.286 1.819-1.158.774-3.004 1.926-4.289 2.258a.809.809 0 0 1-.837-.294c-.376-.487-.593-1.003-.612-1.617a.805.805 0 0 1 .439-.736M18.811 10.937c1.52-.919 3.23-1.61 4.402-1.86a.798.798 0 0 1 .836.35c.336.529.476 1.06.442 1.641a.832.832 0 0 1-.428.684c-.735.402-2.045.715-2.797 1.043 0 0-1.327-1.119-2.455-1.858M27.853 18.532c2.052.797 2.81 1.067 1.312 3.136-.175.242-.454.244-.746.175-.934-.22-2.591-1.175-3.508-1.71 1.69-1.169 2.942-1.601 2.942-1.601M8.407 17.605c-.507-.145-1.472-.298-1.913-.567a.777.777 0 0 1-.363-.565c-.072-.586.078-1.115.364-1.646a.813.813 0 0 1 .804-.422c.984.109 2.763.853 3.726 1.293-1.395 1.284-2.618 1.907-2.618 1.907"/></g><g transform="rotate(-10 410.461 -1621.358)"><circle cx="18" cy="18" r="18"/><path d="M24.335 25.694c-.12.52-.183.835-.441 1.184a.814.814 0 0 1-.742.332c-.25-.029-.491-.136-.734-.23-2.812-1.082-5.08-2.987-7.372-4.857-.547-.445-1.7-1.477-2.354-2.02 1.594-1.126 2.254-1.823 2.254-1.823 2.568 2.23 5.563 4.84 8.688 6.146.498.208.964.14.701 1.268M21.158 17.313c-.723-.571-1.987-1.52-2.701-2.07-1.815-1.4-3.75-2.568-5.97-3.234-1.202-.36-1.36-1.569-.451-2.636.165-.194.424-.322.673-.27 4.135.866 7.263 3.4 10.747 6.597-1.178.622-2.298 1.613-2.298 1.613M18.668 20.314c2.581-2.613 7.594-5.77 10.121-5.886a.816.816 0 0 1 .732.386c.249.404.33.887.404 1.363.071.46-.168.851-.604.973-3.02.846-5.953 2.903-8.333 4.866-.8-.378-2.32-1.702-2.32-1.702M17.259 15.366c-2.966 2.476-6.184 5.43-9.662 6.488a.815.815 0 0 1-.83-.207c-.284-.3-.393-.608-.508-.908-.402-1.049-.288-1.355.754-1.756 2.446-.942 4.48-2.506 6.45-4.179.298-.253.89-.74 1.216-1.008 1.078.29 2.58 1.57 2.58 1.57M11.916 24.503c.85-.436 2.16-.95 3.013-1.43.69.608 2.286 1.819 2.286 1.819-1.158.774-3.004 1.926-4.289 2.258a.809.809 0 0 1-.837-.294c-.376-.487-.593-1.003-.612-1.617a.805.805 0 0 1 .439-.736M18.811 10.937c1.52-.919 3.23-1.61 4.402-1.86a.798.798 0 0 1 .836.35c.336.529.476 1.06.442 1.641a.832.832 0 0 1-.428.684c-.735.402-2.045.715-2.797 1.043 0 0-1.327-1.119-2.455-1.858M27.853 18.532c2.052.797 2.81 1.067 1.312 3.136-.175.242-.454.244-.746.175-.934-.22-2.591-1.175-3.508-1.71 1.69-1.169 2.942-1.601 2.942-1.601M8.407 17.605c-.507-.145-1.472-.298-1.913-.567a.777.777 0 0 1-.363-.565c-.072-.586.078-1.115.364-1.646a.813.813 0 0 1 .804-.422c.984.109 2.763.853 3.726 1.293-1.395 1.284-2.618 1.907-2.618 1.907"/></g><g transform="rotate(-36 287.792 -519.716)"><circle cx="18" cy="18" r="18"/><path d="M24.335 25.694c-.12.52-.183.835-.441 1.184a.814.814 0 0 1-.742.332c-.25-.029-.491-.136-.734-.23-2.812-1.082-5.08-2.987-7.372-4.857-.547-.445-1.7-1.477-2.354-2.02 1.594-1.126 2.254-1.823 2.254-1.823 2.568 2.23 5.563 4.84 8.688 6.146.498.208.964.14.701 1.268M21.158 17.313c-.723-.571-1.987-1.52-2.701-2.07-1.815-1.4-3.75-2.568-5.97-3.234-1.202-.36-1.36-1.569-.451-2.636.165-.194.424-.322.673-.27 4.135.866 7.263 3.4 10.747 6.597-1.178.622-2.298 1.613-2.298 1.613M18.668 20.314c2.581-2.613 7.594-5.77 10.121-5.886a.816.816 0 0 1 .732.386c.249.404.33.887.404 1.363.071.46-.168.851-.604.973-3.02.846-5.953 2.903-8.333 4.866-.8-.378-2.32-1.702-2.32-1.702M17.259 15.366c-2.966 2.476-6.184 5.43-9.662 6.488a.815.815 0 0 1-.83-.207c-.284-.3-.393-.608-.508-.908-.402-1.049-.288-1.355.754-1.756 2.446-.942 4.48-2.506 6.45-4.179.298-.253.89-.74 1.216-1.008 1.078.29 2.58 1.57 2.58 1.57M11.916 24.503c.85-.436 2.16-.95 3.013-1.43.69.608 2.286 1.819 2.286 1.819-1.158.774-3.004 1.926-4.289 2.258a.809.809 0 0 1-.837-.294c-.376-.487-.593-1.003-.612-1.617a.805.805 0 0 1 .439-.736M18.811 10.937c1.52-.919 3.23-1.61 4.402-1.86a.798.798 0 0 1 .836.35c.336.529.476 1.06.442 1.641a.832.832 0 0 1-.428.684c-.735.402-2.045.715-2.797 1.043 0 0-1.327-1.119-2.455-1.858M27.853 18.532c2.052.797 2.81 1.067 1.312 3.136-.175.242-.454.244-.746.175-.934-.22-2.591-1.175-3.508-1.71 1.69-1.169 2.942-1.601 2.942-1.601M8.407 17.605c-.507-.145-1.472-.298-1.913-.567a.777.777 0 0 1-.363-.565c-.072-.586.078-1.115.364-1.646a.813.813 0 0 1 .804-.422c.984.109 2.763.853 3.726 1.293-1.395 1.284-2.618 1.907-2.618 1.907"/></g><g transform="rotate(24 118.532 1095.69)"><circle cx="18" cy="18" r="18"/><path d="M24.335 25.694c-.12.52-.183.835-.441 1.184a.814.814 0 0 1-.742.332c-.25-.029-.491-.136-.734-.23-2.812-1.082-5.08-2.987-7.372-4.857-.547-.445-1.7-1.477-2.354-2.02 1.594-1.126 2.254-1.823 2.254-1.823 2.568 2.23 5.563 4.84 8.688 6.146.498.208.964.14.701 1.268M21.158 17.313c-.723-.571-1.987-1.52-2.701-2.07-1.815-1.4-3.75-2.568-5.97-3.234-1.202-.36-1.36-1.569-.451-2.636.165-.194.424-.322.673-.27 4.135.866 7.263 3.4 10.747 6.597-1.178.622-2.298 1.613-2.298 1.613M18.668 20.314c2.581-2.613 7.594-5.77 10.121-5.886a.816.816 0 0 1 .732.386c.249.404.33.887.404 1.363.071.46-.168.851-.604.973-3.02.846-5.953 2.903-8.333 4.866-.8-.378-2.32-1.702-2.32-1.702M17.259 15.366c-2.966 2.476-6.184 5.43-9.662 6.488a.815.815 0 0 1-.83-.207c-.284-.3-.393-.608-.508-.908-.402-1.049-.288-1.355.754-1.756 2.446-.942 4.48-2.506 6.45-4.179.298-.253.89-.74 1.216-1.008 1.078.29 2.58 1.57 2.58 1.57M11.916 24.503c.85-.436 2.16-.95 3.013-1.43.69.608 2.286 1.819 2.286 1.819-1.158.774-3.004 1.926-4.289 2.258a.809.809 0 0 1-.837-.294c-.376-.487-.593-1.003-.612-1.617a.805.805 0 0 1 .439-.736M18.811 10.937c1.52-.919 3.23-1.61 4.402-1.86a.798.798 0 0 1 .836.35c.336.529.476 1.06.442 1.641a.832.832 0 0 1-.428.684c-.735.402-2.045.715-2.797 1.043 0 0-1.327-1.119-2.455-1.858M27.853 18.532c2.052.797 2.81 1.067 1.312 3.136-.175.242-.454.244-.746.175-.934-.22-2.591-1.175-3.508-1.71 1.69-1.169 2.942-1.601 2.942-1.601M8.407 17.605c-.507-.145-1.472-.298-1.913-.567a.777.777 0 0 1-.363-.565c-.072-.586.078-1.115.364-1.646a.813.813 0 0 1 .804-.422c.984.109 2.763.853 3.726 1.293-1.395 1.284-2.618 1.907-2.618 1.907"/></g><g transform="rotate(4 -738.769 7193.745)"><circle cx="18" cy="18" r="18"/><path d="M24.335 25.694c-.12.52-.183.835-.441 1.184a.814.814 0 0 1-.742.332c-.25-.029-.491-.136-.734-.23-2.812-1.082-5.08-2.987-7.372-4.857-.547-.445-1.7-1.477-2.354-2.02 1.594-1.126 2.254-1.823 2.254-1.823 2.568 2.23 5.563 4.84 8.688 6.146.498.208.964.14.701 1.268M21.158 17.313c-.723-.571-1.987-1.52-2.701-2.07-1.815-1.4-3.75-2.568-5.97-3.234-1.202-.36-1.36-1.569-.451-2.636.165-.194.424-.322.673-.27 4.135.866 7.263 3.4 10.747 6.597-1.178.622-2.298 1.613-2.298 1.613M18.668 20.314c2.581-2.613 7.594-5.77 10.121-5.886a.816.816 0 0 1 .732.386c.249.404.33.887.404 1.363.071.46-.168.851-.604.973-3.02.846-5.953 2.903-8.333 4.866-.8-.378-2.32-1.702-2.32-1.702M17.259 15.366c-2.966 2.476-6.184 5.43-9.662 6.488a.815.815 0 0 1-.83-.207c-.284-.3-.393-.608-.508-.908-.402-1.049-.288-1.355.754-1.756 2.446-.942 4.48-2.506 6.45-4.179.298-.253.89-.74 1.216-1.008 1.078.29 2.58 1.57 2.58 1.57M11.916 24.503c.85-.436 2.16-.95 3.013-1.43.69.608 2.286 1.819 2.286 1.819-1.158.774-3.004 1.926-4.289 2.258a.809.809 0 0 1-.837-.294c-.376-.487-.593-1.003-.612-1.617a.805.805 0 0 1 .439-.736M18.811 10.937c1.52-.919 3.23-1.61 4.402-1.86a.798.798 0 0 1 .836.35c.336.529.476 1.06.442 1.641a.832.832 0 0 1-.428.684c-.735.402-2.045.715-2.797 1.043 0 0-1.327-1.119-2.455-1.858M27.853 18.532c2.052.797 2.81 1.067 1.312 3.136-.175.242-.454.244-.746.175-.934-.22-2.591-1.175-3.508-1.71 1.69-1.169 2.942-1.601 2.942-1.601M8.407 17.605c-.507-.145-1.472-.298-1.913-.567a.777.777 0 0 1-.363-.565c-.072-.586.078-1.115.364-1.646a.813.813 0 0 1 .804-.422c.984.109 2.763.853 3.726 1.293-1.395 1.284-2.618 1.907-2.618 1.907"/></g><g transform="rotate(-36 416.607 -806.213)"><circle cx="18" cy="18" r="18"/><path d="M24.335 25.694c-.12.52-.183.835-.441 1.184a.814.814 0 0 1-.742.332c-.25-.029-.491-.136-.734-.23-2.812-1.082-5.08-2.987-7.372-4.857-.547-.445-1.7-1.477-2.354-2.02 1.594-1.126 2.254-1.823 2.254-1.823 2.568 2.23 5.563 4.84 8.688 6.146.498.208.964.14.701 1.268M21.158 17.313c-.723-.571-1.987-1.52-2.701-2.07-1.815-1.4-3.75-2.568-5.97-3.234-1.202-.36-1.36-1.569-.451-2.636.165-.194.424-.322.673-.27 4.135.866 7.263 3.4 10.747 6.597-1.178.622-2.298 1.613-2.298 1.613M18.668 20.314c2.581-2.613 7.594-5.77 10.121-5.886a.816.816 0 0 1 .732.386c.249.404.33.887.404 1.363.071.46-.168.851-.604.973-3.02.846-5.953 2.903-8.333 4.866-.8-.378-2.32-1.702-2.32-1.702M17.259 15.366c-2.966 2.476-6.184 5.43-9.662 6.488a.815.815 0 0 1-.83-.207c-.284-.3-.393-.608-.508-.908-.402-1.049-.288-1.355.754-1.756 2.446-.942 4.48-2.506 6.45-4.179.298-.253.89-.74 1.216-1.008 1.078.29 2.58 1.57 2.58 1.57M11.916 24.503c.85-.436 2.16-.95 3.013-1.43.69.608 2.286 1.819 2.286 1.819-1.158.774-3.004 1.926-4.289 2.258a.809.809 0 0 1-.837-.294c-.376-.487-.593-1.003-.612-1.617a.805.805 0 0 1 .439-.736M18.811 10.937c1.52-.919 3.23-1.61 4.402-1.86a.798.798 0 0 1 .836.35c.336.529.476 1.06.442 1.641a.832.832 0 0 1-.428.684c-.735.402-2.045.715-2.797 1.043 0 0-1.327-1.119-2.455-1.858M27.853 18.532c2.052.797 2.81 1.067 1.312 3.136-.175.242-.454.244-.746.175-.934-.22-2.591-1.175-3.508-1.71 1.69-1.169 2.942-1.601 2.942-1.601M8.407 17.605c-.507-.145-1.472-.298-1.913-.567a.777.777 0 0 1-.363-.565c-.072-.586.078-1.115.364-1.646a.813.813 0 0 1 .804-.422c.984.109 2.763.853 3.726 1.293-1.395 1.284-2.618 1.907-2.618 1.907"/></g><g transform="rotate(20 -207.865 181.768)"><circle cx="18" cy="18" r="18"/><path d="M24.335 25.694c-.12.52-.183.835-.441 1.184a.814.814 0 0 1-.742.332c-.25-.029-.491-.136-.734-.23-2.812-1.082-5.08-2.987-7.372-4.857-.547-.445-1.7-1.477-2.354-2.02 1.594-1.126 2.254-1.823 2.254-1.823 2.568 2.23 5.563 4.84 8.688 6.146.498.208.964.14.701 1.268M21.158 17.313c-.723-.571-1.987-1.52-2.701-2.07-1.815-1.4-3.75-2.568-5.97-3.234-1.202-.36-1.36-1.569-.451-2.636.165-.194.424-.322.673-.27 4.135.866 7.263 3.4 10.747 6.597-1.178.622-2.298 1.613-2.298 1.613M18.668 20.314c2.581-2.613 7.594-5.77 10.121-5.886a.816.816 0 0 1 .732.386c.249.404.33.887.404 1.363.071.46-.168.851-.604.973-3.02.846-5.953 2.903-8.333 4.866-.8-.378-2.32-1.702-2.32-1.702M17.259 15.366c-2.966 2.476-6.184 5.43-9.662 6.488a.815.815 0 0 1-.83-.207c-.284-.3-.393-.608-.508-.908-.402-1.049-.288-1.355.754-1.756 2.446-.942 4.48-2.506 6.45-4.179.298-.253.89-.74 1.216-1.008 1.078.29 2.58 1.57 2.58 1.57M11.916 24.503c.85-.436 2.16-.95 3.013-1.43.69.608 2.286 1.819 2.286 1.819-1.158.774-3.004 1.926-4.289 2.258a.809.809 0 0 1-.837-.294c-.376-.487-.593-1.003-.612-1.617a.805.805 0 0 1 .439-.736M18.811 10.937c1.52-.919 3.23-1.61 4.402-1.86a.798.798 0 0 1 .836.35c.336.529.476 1.06.442 1.641a.832.832 0 0 1-.428.684c-.735.402-2.045.715-2.797 1.043 0 0-1.327-1.119-2.455-1.858M27.853 18.532c2.052.797 2.81 1.067 1.312 3.136-.175.242-.454.244-.746.175-.934-.22-2.591-1.175-3.508-1.71 1.69-1.169 2.942-1.601 2.942-1.601M8.407 17.605c-.507-.145-1.472-.298-1.913-.567a.777.777 0 0 1-.363-.565c-.072-.586.078-1.115.364-1.646a.813.813 0 0 1 .804-.422c.984.109 2.763.853 3.726 1.293-1.395 1.284-2.618 1.907-2.618 1.907"/></g><g transform="rotate(-20 375.455 36.801)"><circle cx="18" cy="18" r="18"/><path d="M24.335 25.694c-.12.52-.183.835-.441 1.184a.814.814 0 0 1-.742.332c-.25-.029-.491-.136-.734-.23-2.812-1.082-5.08-2.987-7.372-4.857-.547-.445-1.7-1.477-2.354-2.02 1.594-1.126 2.254-1.823 2.254-1.823 2.568 2.23 5.563 4.84 8.688 6.146.498.208.964.14.701 1.268M21.158 17.313c-.723-.571-1.987-1.52-2.701-2.07-1.815-1.4-3.75-2.568-5.97-3.234-1.202-.36-1.36-1.569-.451-2.636.165-.194.424-.322.673-.27 4.135.866 7.263 3.4 10.747 6.597-1.178.622-2.298 1.613-2.298 1.613M18.668 20.314c2.581-2.613 7.594-5.77 10.121-5.886a.816.816 0 0 1 .732.386c.249.404.33.887.404 1.363.071.46-.168.851-.604.973-3.02.846-5.953 2.903-8.333 4.866-.8-.378-2.32-1.702-2.32-1.702M17.259 15.366c-2.966 2.476-6.184 5.43-9.662 6.488a.815.815 0 0 1-.83-.207c-.284-.3-.393-.608-.508-.908-.402-1.049-.288-1.355.754-1.756 2.446-.942 4.48-2.506 6.45-4.179.298-.253.89-.74 1.216-1.008 1.078.29 2.58 1.57 2.58 1.57M11.916 24.503c.85-.436 2.16-.95 3.013-1.43.69.608 2.286 1.819 2.286 1.819-1.158.774-3.004 1.926-4.289 2.258a.809.809 0 0 1-.837-.294c-.376-.487-.593-1.003-.612-1.617a.805.805 0 0 1 .439-.736M18.811 10.937c1.52-.919 3.23-1.61 4.402-1.86a.798.798 0 0 1 .836.35c.336.529.476 1.06.442 1.641a.832.832 0 0 1-.428.684c-.735.402-2.045.715-2.797 1.043 0 0-1.327-1.119-2.455-1.858M27.853 18.532c2.052.797 2.81 1.067 1.312 3.136-.175.242-.454.244-.746.175-.934-.22-2.591-1.175-3.508-1.71 1.69-1.169 2.942-1.601 2.942-1.601M8.407 17.605c-.507-.145-1.472-.298-1.913-.567a.777.777 0 0 1-.363-.565c-.072-.586.078-1.115.364-1.646a.813.813 0 0 1 .804-.422c.984.109 2.763.853 3.726 1.293-1.395 1.284-2.618 1.907-2.618 1.907"/></g><g transform="translate(74 126)"><circle cx="18" cy="18" r="18"/><path d="M24.335 25.694c-.12.52-.183.835-.441 1.184a.814.814 0 0 1-.742.332c-.25-.029-.491-.136-.734-.23-2.812-1.082-5.08-2.987-7.372-4.857-.547-.445-1.7-1.477-2.354-2.02 1.594-1.126 2.254-1.823 2.254-1.823 2.568 2.23 5.563 4.84 8.688 6.146.498.208.964.14.701 1.268M21.158 17.313c-.723-.571-1.987-1.52-2.701-2.07-1.815-1.4-3.75-2.568-5.97-3.234-1.202-.36-1.36-1.569-.451-2.636.165-.194.424-.322.673-.27 4.135.866 7.263 3.4 10.747 6.597-1.178.622-2.298 1.613-2.298 1.613M18.668 20.314c2.581-2.613 7.594-5.77 10.121-5.886a.816.816 0 0 1 .732.386c.249.404.33.887.404 1.363.071.46-.168.851-.604.973-3.02.846-5.953 2.903-8.333 4.866-.8-.378-2.32-1.702-2.32-1.702M17.259 15.366c-2.966 2.476-6.184 5.43-9.662 6.488a.815.815 0 0 1-.83-.207c-.284-.3-.393-.608-.508-.908-.402-1.049-.288-1.355.754-1.756 2.446-.942 4.48-2.506 6.45-4.179.298-.253.89-.74 1.216-1.008 1.078.29 2.58 1.57 2.58 1.57M11.916 24.503c.85-.436 2.16-.95 3.013-1.43.69.608 2.286 1.819 2.286 1.819-1.158.774-3.004 1.926-4.289 2.258a.809.809 0 0 1-.837-.294c-.376-.487-.593-1.003-.612-1.617a.805.805 0 0 1 .439-.736M18.811 10.937c1.52-.919 3.23-1.61 4.402-1.86a.798.798 0 0 1 .836.35c.336.529.476 1.06.442 1.641a.832.832 0 0 1-.428.684c-.735.402-2.045.715-2.797 1.043 0 0-1.327-1.119-2.455-1.858M27.853 18.532c2.052.797 2.81 1.067 1.312 3.136-.175.242-.454.244-.746.175-.934-.22-2.591-1.175-3.508-1.71 1.69-1.169 2.942-1.601 2.942-1.601M8.407 17.605c-.507-.145-1.472-.298-1.913-.567a.777.777 0 0 1-.363-.565c-.072-.586.078-1.115.364-1.646a.813.813 0 0 1 .804-.422c.984.109 2.763.853 3.726 1.293-1.395 1.284-2.618 1.907-2.618 1.907"/></g><g transform="rotate(20 -228.75 428.126)"><circle cx="18" cy="18" r="18"/><path d="M24.335 25.694c-.12.52-.183.835-.441 1.184a.814.814 0 0 1-.742.332c-.25-.029-.491-.136-.734-.23-2.812-1.082-5.08-2.987-7.372-4.857-.547-.445-1.7-1.477-2.354-2.02 1.594-1.126 2.254-1.823 2.254-1.823 2.568 2.23 5.563 4.84 8.688 6.146.498.208.964.14.701 1.268M21.158 17.313c-.723-.571-1.987-1.52-2.701-2.07-1.815-1.4-3.75-2.568-5.97-3.234-1.202-.36-1.36-1.569-.451-2.636.165-.194.424-.322.673-.27 4.135.866 7.263 3.4 10.747 6.597-1.178.622-2.298 1.613-2.298 1.613M18.668 20.314c2.581-2.613 7.594-5.77 10.121-5.886a.816.816 0 0 1 .732.386c.249.404.33.887.404 1.363.071.46-.168.851-.604.973-3.02.846-5.953 2.903-8.333 4.866-.8-.378-2.32-1.702-2.32-1.702M17.259 15.366c-2.966 2.476-6.184 5.43-9.662 6.488a.815.815 0 0 1-.83-.207c-.284-.3-.393-.608-.508-.908-.402-1.049-.288-1.355.754-1.756 2.446-.942 4.48-2.506 6.45-4.179.298-.253.89-.74 1.216-1.008 1.078.29 2.58 1.57 2.58 1.57M11.916 24.503c.85-.436 2.16-.95 3.013-1.43.69.608 2.286 1.819 2.286 1.819-1.158.774-3.004 1.926-4.289 2.258a.809.809 0 0 1-.837-.294c-.376-.487-.593-1.003-.612-1.617a.805.805 0 0 1 .439-.736M18.811 10.937c1.52-.919 3.23-1.61 4.402-1.86a.798.798 0 0 1 .836.35c.336.529.476 1.06.442 1.641a.832.832 0 0 1-.428.684c-.735.402-2.045.715-2.797 1.043 0 0-1.327-1.119-2.455-1.858M27.853 18.532c2.052.797 2.81 1.067 1.312 3.136-.175.242-.454.244-.746.175-.934-.22-2.591-1.175-3.508-1.71 1.69-1.169 2.942-1.601 2.942-1.601M8.407 17.605c-.507-.145-1.472-.298-1.913-.567a.777.777 0 0 1-.363-.565c-.072-.586.078-1.115.364-1.646a.813.813 0 0 1 .804-.422c.984.109 2.763.853 3.726 1.293-1.395 1.284-2.618 1.907-2.618 1.907"/></g><g transform="rotate(20 -179.064 577.251)"><circle cx="18" cy="18" r="18"/><path d="M24.335 25.694c-.12.52-.183.835-.441 1.184a.814.814 0 0 1-.742.332c-.25-.029-.491-.136-.734-.23-2.812-1.082-5.08-2.987-7.372-4.857-.547-.445-1.7-1.477-2.354-2.02 1.594-1.126 2.254-1.823 2.254-1.823 2.568 2.23 5.563 4.84 8.688 6.146.498.208.964.14.701 1.268M21.158 17.313c-.723-.571-1.987-1.52-2.701-2.07-1.815-1.4-3.75-2.568-5.97-3.234-1.202-.36-1.36-1.569-.451-2.636.165-.194.424-.322.673-.27 4.135.866 7.263 3.4 10.747 6.597-1.178.622-2.298 1.613-2.298 1.613M18.668 20.314c2.581-2.613 7.594-5.77 10.121-5.886a.816.816 0 0 1 .732.386c.249.404.33.887.404 1.363.071.46-.168.851-.604.973-3.02.846-5.953 2.903-8.333 4.866-.8-.378-2.32-1.702-2.32-1.702M17.259 15.366c-2.966 2.476-6.184 5.43-9.662 6.488a.815.815 0 0 1-.83-.207c-.284-.3-.393-.608-.508-.908-.402-1.049-.288-1.355.754-1.756 2.446-.942 4.48-2.506 6.45-4.179.298-.253.89-.74 1.216-1.008 1.078.29 2.58 1.57 2.58 1.57M11.916 24.503c.85-.436 2.16-.95 3.013-1.43.69.608 2.286 1.819 2.286 1.819-1.158.774-3.004 1.926-4.289 2.258a.809.809 0 0 1-.837-.294c-.376-.487-.593-1.003-.612-1.617a.805.805 0 0 1 .439-.736M18.811 10.937c1.52-.919 3.23-1.61 4.402-1.86a.798.798 0 0 1 .836.35c.336.529.476 1.06.442 1.641a.832.832 0 0 1-.428.684c-.735.402-2.045.715-2.797 1.043 0 0-1.327-1.119-2.455-1.858M27.853 18.532c2.052.797 2.81 1.067 1.312 3.136-.175.242-.454.244-.746.175-.934-.22-2.591-1.175-3.508-1.71 1.69-1.169 2.942-1.601 2.942-1.601M8.407 17.605c-.507-.145-1.472-.298-1.913-.567a.777.777 0 0 1-.363-.565c-.072-.586.078-1.115.364-1.646a.813.813 0 0 1 .804-.422c.984.109 2.763.853 3.726 1.293-1.395 1.284-2.618 1.907-2.618 1.907"/></g><g transform="rotate(-30 372.074 -240.054)"><circle cx="18" cy="18" r="18"/><path d="M24.335 25.694c-.12.52-.183.835-.441 1.184a.814.814 0 0 1-.742.332c-.25-.029-.491-.136-.734-.23-2.812-1.082-5.08-2.987-7.372-4.857-.547-.445-1.7-1.477-2.354-2.02 1.594-1.126 2.254-1.823 2.254-1.823 2.568 2.23 5.563 4.84 8.688 6.146.498.208.964.14.701 1.268M21.158 17.313c-.723-.571-1.987-1.52-2.701-2.07-1.815-1.4-3.75-2.568-5.97-3.234-1.202-.36-1.36-1.569-.451-2.636.165-.194.424-.322.673-.27 4.135.866 7.263 3.4 10.747 6.597-1.178.622-2.298 1.613-2.298 1.613M18.668 20.314c2.581-2.613 7.594-5.77 10.121-5.886a.816.816 0 0 1 .732.386c.249.404.33.887.404 1.363.071.46-.168.851-.604.973-3.02.846-5.953 2.903-8.333 4.866-.8-.378-2.32-1.702-2.32-1.702M17.259 15.366c-2.966 2.476-6.184 5.43-9.662 6.488a.815.815 0 0 1-.83-.207c-.284-.3-.393-.608-.508-.908-.402-1.049-.288-1.355.754-1.756 2.446-.942 4.48-2.506 6.45-4.179.298-.253.89-.74 1.216-1.008 1.078.29 2.58 1.57 2.58 1.57M11.916 24.503c.85-.436 2.16-.95 3.013-1.43.69.608 2.286 1.819 2.286 1.819-1.158.774-3.004 1.926-4.289 2.258a.809.809 0 0 1-.837-.294c-.376-.487-.593-1.003-.612-1.617a.805.805 0 0 1 .439-.736M18.811 10.937c1.52-.919 3.23-1.61 4.402-1.86a.798.798 0 0 1 .836.35c.336.529.476 1.06.442 1.641a.832.832 0 0 1-.428.684c-.735.402-2.045.715-2.797 1.043 0 0-1.327-1.119-2.455-1.858M27.853 18.532c2.052.797 2.81 1.067 1.312 3.136-.175.242-.454.244-.746.175-.934-.22-2.591-1.175-3.508-1.71 1.69-1.169 2.942-1.601 2.942-1.601M8.407 17.605c-.507-.145-1.472-.298-1.913-.567a.777.777 0 0 1-.363-.565c-.072-.586.078-1.115.364-1.646a.813.813 0 0 1 .804-.422c.984.109 2.763.853 3.726 1.293-1.395 1.284-2.618 1.907-2.618 1.907"/></g><g transform="rotate(-30 368.485 -361.016)"><circle cx="18" cy="18" r="18"/><path d="M24.335 25.694c-.12.52-.183.835-.441 1.184a.814.814 0 0 1-.742.332c-.25-.029-.491-.136-.734-.23-2.812-1.082-5.08-2.987-7.372-4.857-.547-.445-1.7-1.477-2.354-2.02 1.594-1.126 2.254-1.823 2.254-1.823 2.568 2.23 5.563 4.84 8.688 6.146.498.208.964.14.701 1.268M21.158 17.313c-.723-.571-1.987-1.52-2.701-2.07-1.815-1.4-3.75-2.568-5.97-3.234-1.202-.36-1.36-1.569-.451-2.636.165-.194.424-.322.673-.27 4.135.866 7.263 3.4 10.747 6.597-1.178.622-2.298 1.613-2.298 1.613M18.668 20.314c2.581-2.613 7.594-5.77 10.121-5.886a.816.816 0 0 1 .732.386c.249.404.33.887.404 1.363.071.46-.168.851-.604.973-3.02.846-5.953 2.903-8.333 4.866-.8-.378-2.32-1.702-2.32-1.702M17.259 15.366c-2.966 2.476-6.184 5.43-9.662 6.488a.815.815 0 0 1-.83-.207c-.284-.3-.393-.608-.508-.908-.402-1.049-.288-1.355.754-1.756 2.446-.942 4.48-2.506 6.45-4.179.298-.253.89-.74 1.216-1.008 1.078.29 2.58 1.57 2.58 1.57M11.916 24.503c.85-.436 2.16-.95 3.013-1.43.69.608 2.286 1.819 2.286 1.819-1.158.774-3.004 1.926-4.289 2.258a.809.809 0 0 1-.837-.294c-.376-.487-.593-1.003-.612-1.617a.805.805 0 0 1 .439-.736M18.811 10.937c1.52-.919 3.23-1.61 4.402-1.86a.798.798 0 0 1 .836.35c.336.529.476 1.06.442 1.641a.832.832 0 0 1-.428.684c-.735.402-2.045.715-2.797 1.043 0 0-1.327-1.119-2.455-1.858M27.853 18.532c2.052.797 2.81 1.067 1.312 3.136-.175.242-.454.244-.746.175-.934-.22-2.591-1.175-3.508-1.71 1.69-1.169 2.942-1.601 2.942-1.601M8.407 17.605c-.507-.145-1.472-.298-1.913-.567a.777.777 0 0 1-.363-.565c-.072-.586.078-1.115.364-1.646a.813.813 0 0 1 .804-.422c.984.109 2.763.853 3.726 1.293-1.395 1.284-2.618 1.907-2.618 1.907"/></g><g transform="rotate(50 23.896 387.954)"><circle cx="18" cy="18" r="18"/><path d="M24.335 25.694c-.12.52-.183.835-.441 1.184a.814.814 0 0 1-.742.332c-.25-.029-.491-.136-.734-.23-2.812-1.082-5.08-2.987-7.372-4.857-.547-.445-1.7-1.477-2.354-2.02 1.594-1.126 2.254-1.823 2.254-1.823 2.568 2.23 5.563 4.84 8.688 6.146.498.208.964.14.701 1.268M21.158 17.313c-.723-.571-1.987-1.52-2.701-2.07-1.815-1.4-3.75-2.568-5.97-3.234-1.202-.36-1.36-1.569-.451-2.636.165-.194.424-.322.673-.27 4.135.866 7.263 3.4 10.747 6.597-1.178.622-2.298 1.613-2.298 1.613M18.668 20.314c2.581-2.613 7.594-5.77 10.121-5.886a.816.816 0 0 1 .732.386c.249.404.33.887.404 1.363.071.46-.168.851-.604.973-3.02.846-5.953 2.903-8.333 4.866-.8-.378-2.32-1.702-2.32-1.702M17.259 15.366c-2.966 2.476-6.184 5.43-9.662 6.488a.815.815 0 0 1-.83-.207c-.284-.3-.393-.608-.508-.908-.402-1.049-.288-1.355.754-1.756 2.446-.942 4.48-2.506 6.45-4.179.298-.253.89-.74 1.216-1.008 1.078.29 2.58 1.57 2.58 1.57M11.916 24.503c.85-.436 2.16-.95 3.013-1.43.69.608 2.286 1.819 2.286 1.819-1.158.774-3.004 1.926-4.289 2.258a.809.809 0 0 1-.837-.294c-.376-.487-.593-1.003-.612-1.617a.805.805 0 0 1 .439-.736M18.811 10.937c1.52-.919 3.23-1.61 4.402-1.86a.798.798 0 0 1 .836.35c.336.529.476 1.06.442 1.641a.832.832 0 0 1-.428.684c-.735.402-2.045.715-2.797 1.043 0 0-1.327-1.119-2.455-1.858M27.853 18.532c2.052.797 2.81 1.067 1.312 3.136-.175.242-.454.244-.746.175-.934-.22-2.591-1.175-3.508-1.71 1.69-1.169 2.942-1.601 2.942-1.601M8.407 17.605c-.507-.145-1.472-.298-1.913-.567a.777.777 0 0 1-.363-.565c-.072-.586.078-1.115.364-1.646a.813.813 0 0 1 .804-.422c.984.109 2.763.853 3.726 1.293-1.395 1.284-2.618 1.907-2.618 1.907"/></g><g transform="rotate(-50 266.214 -286.121)"><circle cx="18" cy="18" r="18"/><path d="M24.335 25.694c-.12.52-.183.835-.441 1.184a.814.814 0 0 1-.742.332c-.25-.029-.491-.136-.734-.23-2.812-1.082-5.08-2.987-7.372-4.857-.547-.445-1.7-1.477-2.354-2.02 1.594-1.126 2.254-1.823 2.254-1.823 2.568 2.23 5.563 4.84 8.688 6.146.498.208.964.14.701 1.268M21.158 17.313c-.723-.571-1.987-1.52-2.701-2.07-1.815-1.4-3.75-2.568-5.97-3.234-1.202-.36-1.36-1.569-.451-2.636.165-.194.424-.322.673-.27 4.135.866 7.263 3.4 10.747 6.597-1.178.622-2.298 1.613-2.298 1.613M18.668 20.314c2.581-2.613 7.594-5.77 10.121-5.886a.816.816 0 0 1 .732.386c.249.404.33.887.404 1.363.071.46-.168.851-.604.973-3.02.846-5.953 2.903-8.333 4.866-.8-.378-2.32-1.702-2.32-1.702M17.259 15.366c-2.966 2.476-6.184 5.43-9.662 6.488a.815.815 0 0 1-.83-.207c-.284-.3-.393-.608-.508-.908-.402-1.049-.288-1.355.754-1.756 2.446-.942 4.48-2.506 6.45-4.179.298-.253.89-.74 1.216-1.008 1.078.29 2.58 1.57 2.58 1.57M11.916 24.503c.85-.436 2.16-.95 3.013-1.43.69.608 2.286 1.819 2.286 1.819-1.158.774-3.004 1.926-4.289 2.258a.809.809 0 0 1-.837-.294c-.376-.487-.593-1.003-.612-1.617a.805.805 0 0 1 .439-.736M18.811 10.937c1.52-.919 3.23-1.61 4.402-1.86a.798.798 0 0 1 .836.35c.336.529.476 1.06.442 1.641a.832.832 0 0 1-.428.684c-.735.402-2.045.715-2.797 1.043 0 0-1.327-1.119-2.455-1.858M27.853 18.532c2.052.797 2.81 1.067 1.312 3.136-.175.242-.454.244-.746.175-.934-.22-2.591-1.175-3.508-1.71 1.69-1.169 2.942-1.601 2.942-1.601M8.407 17.605c-.507-.145-1.472-.298-1.913-.567a.777.777 0 0 1-.363-.565c-.072-.586.078-1.115.364-1.646a.813.813 0 0 1 .804-.422c.984.109 2.763.853 3.726 1.293-1.395 1.284-2.618 1.907-2.618 1.907"/></g><g transform="rotate(24 -71.312 919.686)"><circle cx="18" cy="18" r="18"/><path d="M24.335 25.694c-.12.52-.183.835-.441 1.184a.814.814 0 0 1-.742.332c-.25-.029-.491-.136-.734-.23-2.812-1.082-5.08-2.987-7.372-4.857-.547-.445-1.7-1.477-2.354-2.02 1.594-1.126 2.254-1.823 2.254-1.823 2.568 2.23 5.563 4.84 8.688 6.146.498.208.964.14.701 1.268M21.158 17.313c-.723-.571-1.987-1.52-2.701-2.07-1.815-1.4-3.75-2.568-5.97-3.234-1.202-.36-1.36-1.569-.451-2.636.165-.194.424-.322.673-.27 4.135.866 7.263 3.4 10.747 6.597-1.178.622-2.298 1.613-2.298 1.613M18.668 20.314c2.581-2.613 7.594-5.77 10.121-5.886a.816.816 0 0 1 .732.386c.249.404.33.887.404 1.363.071.46-.168.851-.604.973-3.02.846-5.953 2.903-8.333 4.866-.8-.378-2.32-1.702-2.32-1.702M17.259 15.366c-2.966 2.476-6.184 5.43-9.662 6.488a.815.815 0 0 1-.83-.207c-.284-.3-.393-.608-.508-.908-.402-1.049-.288-1.355.754-1.756 2.446-.942 4.48-2.506 6.45-4.179.298-.253.89-.74 1.216-1.008 1.078.29 2.58 1.57 2.58 1.57M11.916 24.503c.85-.436 2.16-.95 3.013-1.43.69.608 2.286 1.819 2.286 1.819-1.158.774-3.004 1.926-4.289 2.258a.809.809 0 0 1-.837-.294c-.376-.487-.593-1.003-.612-1.617a.805.805 0 0 1 .439-.736M18.811 10.937c1.52-.919 3.23-1.61 4.402-1.86a.798.798 0 0 1 .836.35c.336.529.476 1.06.442 1.641a.832.832 0 0 1-.428.684c-.735.402-2.045.715-2.797 1.043 0 0-1.327-1.119-2.455-1.858M27.853 18.532c2.052.797 2.81 1.067 1.312 3.136-.175.242-.454.244-.746.175-.934-.22-2.591-1.175-3.508-1.71 1.69-1.169 2.942-1.601 2.942-1.601M8.407 17.605c-.507-.145-1.472-.298-1.913-.567a.777.777 0 0 1-.363-.565c-.072-.586.078-1.115.364-1.646a.813.813 0 0 1 .804-.422c.984.109 2.763.853 3.726 1.293-1.395 1.284-2.618 1.907-2.618 1.907"/></g><g transform="rotate(24 10.644 1027.654)"><circle cx="18" cy="18" r="18"/><path d="M24.335 25.694c-.12.52-.183.835-.441 1.184a.814.814 0 0 1-.742.332c-.25-.029-.491-.136-.734-.23-2.812-1.082-5.08-2.987-7.372-4.857-.547-.445-1.7-1.477-2.354-2.02 1.594-1.126 2.254-1.823 2.254-1.823 2.568 2.23 5.563 4.84 8.688 6.146.498.208.964.14.701 1.268M21.158 17.313c-.723-.571-1.987-1.52-2.701-2.07-1.815-1.4-3.75-2.568-5.97-3.234-1.202-.36-1.36-1.569-.451-2.636.165-.194.424-.322.673-.27 4.135.866 7.263 3.4 10.747 6.597-1.178.622-2.298 1.613-2.298 1.613M18.668 20.314c2.581-2.613 7.594-5.77 10.121-5.886a.816.816 0 0 1 .732.386c.249.404.33.887.404 1.363.071.46-.168.851-.604.973-3.02.846-5.953 2.903-8.333 4.866-.8-.378-2.32-1.702-2.32-1.702M17.259 15.366c-2.966 2.476-6.184 5.43-9.662 6.488a.815.815 0 0 1-.83-.207c-.284-.3-.393-.608-.508-.908-.402-1.049-.288-1.355.754-1.756 2.446-.942 4.48-2.506 6.45-4.179.298-.253.89-.74 1.216-1.008 1.078.29 2.58 1.57 2.58 1.57M11.916 24.503c.85-.436 2.16-.95 3.013-1.43.69.608 2.286 1.819 2.286 1.819-1.158.774-3.004 1.926-4.289 2.258a.809.809 0 0 1-.837-.294c-.376-.487-.593-1.003-.612-1.617a.805.805 0 0 1 .439-.736M18.811 10.937c1.52-.919 3.23-1.61 4.402-1.86a.798.798 0 0 1 .836.35c.336.529.476 1.06.442 1.641a.832.832 0 0 1-.428.684c-.735.402-2.045.715-2.797 1.043 0 0-1.327-1.119-2.455-1.858M27.853 18.532c2.052.797 2.81 1.067 1.312 3.136-.175.242-.454.244-.746.175-.934-.22-2.591-1.175-3.508-1.71 1.69-1.169 2.942-1.601 2.942-1.601M8.407 17.605c-.507-.145-1.472-.298-1.913-.567a.777.777 0 0 1-.363-.565c-.072-.586.078-1.115.364-1.646a.813.813 0 0 1 .804-.422c.984.109 2.763.853 3.726 1.293-1.395 1.284-2.618 1.907-2.618 1.907"/></g><g transform="rotate(64 103.676 408.568)"><circle cx="18" cy="18" r="18"/><path d="M24.335 25.694c-.12.52-.183.835-.441 1.184a.814.814 0 0 1-.742.332c-.25-.029-.491-.136-.734-.23-2.812-1.082-5.08-2.987-7.372-4.857-.547-.445-1.7-1.477-2.354-2.02 1.594-1.126 2.254-1.823 2.254-1.823 2.568 2.23 5.563 4.84 8.688 6.146.498.208.964.14.701 1.268M21.158 17.313c-.723-.571-1.987-1.52-2.701-2.07-1.815-1.4-3.75-2.568-5.97-3.234-1.202-.36-1.36-1.569-.451-2.636.165-.194.424-.322.673-.27 4.135.866 7.263 3.4 10.747 6.597-1.178.622-2.298 1.613-2.298 1.613M18.668 20.314c2.581-2.613 7.594-5.77 10.121-5.886a.816.816 0 0 1 .732.386c.249.404.33.887.404 1.363.071.46-.168.851-.604.973-3.02.846-5.953 2.903-8.333 4.866-.8-.378-2.32-1.702-2.32-1.702M17.259 15.366c-2.966 2.476-6.184 5.43-9.662 6.488a.815.815 0 0 1-.83-.207c-.284-.3-.393-.608-.508-.908-.402-1.049-.288-1.355.754-1.756 2.446-.942 4.48-2.506 6.45-4.179.298-.253.89-.74 1.216-1.008 1.078.29 2.58 1.57 2.58 1.57M11.916 24.503c.85-.436 2.16-.95 3.013-1.43.69.608 2.286 1.819 2.286 1.819-1.158.774-3.004 1.926-4.289 2.258a.809.809 0 0 1-.837-.294c-.376-.487-.593-1.003-.612-1.617a.805.805 0 0 1 .439-.736M18.811 10.937c1.52-.919 3.23-1.61 4.402-1.86a.798.798 0 0 1 .836.35c.336.529.476 1.06.442 1.641a.832.832 0 0 1-.428.684c-.735.402-2.045.715-2.797 1.043 0 0-1.327-1.119-2.455-1.858M27.853 18.532c2.052.797 2.81 1.067 1.312 3.136-.175.242-.454.244-.746.175-.934-.22-2.591-1.175-3.508-1.71 1.69-1.169 2.942-1.601 2.942-1.601M8.407 17.605c-.507-.145-1.472-.298-1.913-.567a.777.777 0 0 1-.363-.565c-.072-.586.078-1.115.364-1.646a.813.813 0 0 1 .804-.422c.984.109 2.763.853 3.726 1.293-1.395 1.284-2.618 1.907-2.618 1.907"/></g><g transform="rotate(-36 414.311 -636.828)"><circle cx="18" cy="18" r="18"/><path d="M24.335 25.694c-.12.52-.183.835-.441 1.184a.814.814 0 0 1-.742.332c-.25-.029-.491-.136-.734-.23-2.812-1.082-5.08-2.987-7.372-4.857-.547-.445-1.7-1.477-2.354-2.02 1.594-1.126 2.254-1.823 2.254-1.823 2.568 2.23 5.563 4.84 8.688 6.146.498.208.964.14.701 1.268M21.158 17.313c-.723-.571-1.987-1.52-2.701-2.07-1.815-1.4-3.75-2.568-5.97-3.234-1.202-.36-1.36-1.569-.451-2.636.165-.194.424-.322.673-.27 4.135.866 7.263 3.4 10.747 6.597-1.178.622-2.298 1.613-2.298 1.613M18.668 20.314c2.581-2.613 7.594-5.77 10.121-5.886a.816.816 0 0 1 .732.386c.249.404.33.887.404 1.363.071.46-.168.851-.604.973-3.02.846-5.953 2.903-8.333 4.866-.8-.378-2.32-1.702-2.32-1.702M17.259 15.366c-2.966 2.476-6.184 5.43-9.662 6.488a.815.815 0 0 1-.83-.207c-.284-.3-.393-.608-.508-.908-.402-1.049-.288-1.355.754-1.756 2.446-.942 4.48-2.506 6.45-4.179.298-.253.89-.74 1.216-1.008 1.078.29 2.58 1.57 2.58 1.57M11.916 24.503c.85-.436 2.16-.95 3.013-1.43.69.608 2.286 1.819 2.286 1.819-1.158.774-3.004 1.926-4.289 2.258a.809.809 0 0 1-.837-.294c-.376-.487-.593-1.003-.612-1.617a.805.805 0 0 1 .439-.736M18.811 10.937c1.52-.919 3.23-1.61 4.402-1.86a.798.798 0 0 1 .836.35c.336.529.476 1.06.442 1.641a.832.832 0 0 1-.428.684c-.735.402-2.045.715-2.797 1.043 0 0-1.327-1.119-2.455-1.858M27.853 18.532c2.052.797 2.81 1.067 1.312 3.136-.175.242-.454.244-.746.175-.934-.22-2.591-1.175-3.508-1.71 1.69-1.169 2.942-1.601 2.942-1.601M8.407 17.605c-.507-.145-1.472-.298-1.913-.567a.777.777 0 0 1-.363-.565c-.072-.586.078-1.115.364-1.646a.813.813 0 0 1 .804-.422c.984.109 2.763.853 3.726 1.293-1.395 1.284-2.618 1.907-2.618 1.907"/></g><g transform="rotate(-36 458.161 -724.659)"><circle cx="18" cy="18" r="18"/><path d="M24.335 25.694c-.12.52-.183.835-.441 1.184a.814.814 0 0 1-.742.332c-.25-.029-.491-.136-.734-.23-2.812-1.082-5.08-2.987-7.372-4.857-.547-.445-1.7-1.477-2.354-2.02 1.594-1.126 2.254-1.823 2.254-1.823 2.568 2.23 5.563 4.84 8.688 6.146.498.208.964.14.701 1.268M21.158 17.313c-.723-.571-1.987-1.52-2.701-2.07-1.815-1.4-3.75-2.568-5.97-3.234-1.202-.36-1.36-1.569-.451-2.636.165-.194.424-.322.673-.27 4.135.866 7.263 3.4 10.747 6.597-1.178.622-2.298 1.613-2.298 1.613M18.668 20.314c2.581-2.613 7.594-5.77 10.121-5.886a.816.816 0 0 1 .732.386c.249.404.33.887.404 1.363.071.46-.168.851-.604.973-3.02.846-5.953 2.903-8.333 4.866-.8-.378-2.32-1.702-2.32-1.702M17.259 15.366c-2.966 2.476-6.184 5.43-9.662 6.488a.815.815 0 0 1-.83-.207c-.284-.3-.393-.608-.508-.908-.402-1.049-.288-1.355.754-1.756 2.446-.942 4.48-2.506 6.45-4.179.298-.253.89-.74 1.216-1.008 1.078.29 2.58 1.57 2.58 1.57M11.916 24.503c.85-.436 2.16-.95 3.013-1.43.69.608 2.286 1.819 2.286 1.819-1.158.774-3.004 1.926-4.289 2.258a.809.809 0 0 1-.837-.294c-.376-.487-.593-1.003-.612-1.617a.805.805 0 0 1 .439-.736M18.811 10.937c1.52-.919 3.23-1.61 4.402-1.86a.798.798 0 0 1 .836.35c.336.529.476 1.06.442 1.641a.832.832 0 0 1-.428.684c-.735.402-2.045.715-2.797 1.043 0 0-1.327-1.119-2.455-1.858M27.853 18.532c2.052.797 2.81 1.067 1.312 3.136-.175.242-.454.244-.746.175-.934-.22-2.591-1.175-3.508-1.71 1.69-1.169 2.942-1.601 2.942-1.601M8.407 17.605c-.507-.145-1.472-.298-1.913-.567a.777.777 0 0 1-.363-.565c-.072-.586.078-1.115.364-1.646a.813.813 0 0 1 .804-.422c.984.109 2.763.853 3.726 1.293-1.395 1.284-2.618 1.907-2.618 1.907"/></g></g></svg>