<svg xmlns="http://www.w3.org/2000/svg" viewBox="0 0 605 180"><title>free</title><g fill-rule="evenodd"><path d="M49.114 34.714l-3.907 4.357-5.342-2.39-5.722 1.227-2.917-5.074-5.35-2.37.622-5.819-2.935-5.062 3.924-4.342.6-5.821 5.727-1.206 3.908-4.357 5.341 2.39 5.722-1.227 2.917 5.074 5.35 2.37-.622 5.82 2.935 5.062-3.924 4.341-.6 5.821-5.727 1.206zm-12.23-10.23l-2.064 1.19L36 27.722l-.987.57-2.844-4.925 3.396-1.96.44.76-2.409 1.39.783 1.357 2.064-1.191.44.761zm1.98-1.04L40 25.413l-.988.57-2.844-4.926 1.858-1.072c.561-.324 1.074-.45 1.539-.377.465.073.83.339 1.093.797.148.255.207.512.18.771-.028.26-.138.52-.33.781.34-.082.633-.06.876.068.243.127.45.338.62.633l.21.362c.08.138.18.271.305.4a.685.685 0 0 0 .383.222l.041.071-1.018.588c-.132-.02-.26-.107-.385-.26a3.517 3.517 0 0 1-.318-.457l-.201-.348c-.142-.246-.32-.399-.532-.458-.213-.059-.442-.018-.685.123l-.94.543zm-.44-.761l.852-.493c.278-.16.45-.338.52-.534.068-.196.036-.409-.097-.639-.13-.226-.302-.365-.515-.42-.213-.054-.453-.004-.719.15l-.87.501.829 1.435zm6.946-3.258l-2.04 1.178.813 1.407 2.385-1.377.437.758-3.372 1.947-2.844-4.925 3.366-1.943.44.76-2.379 1.374.715 1.238 2.04-1.178.44.761zm3.979-2.297l-2.04 1.178.812 1.407 2.385-1.376.438.757-3.373 1.948-2.844-4.926 3.366-1.943.44.76-2.378 1.374.714 1.238 2.04-1.178.44.761zM75.588 69.701l-5.794.826-2.555-5.265-5.173-2.737 1.028-5.762-2.576-5.255 4.218-4.057 1.005-5.765 5.797-.804 4.202-4.073 5.161 2.757 5.794-.825 2.556 5.265 5.172 2.737-1.027 5.761 2.575 5.255-4.217 4.058-1.006 5.765-5.796.803-4.202 4.074-5.162-2.758zm-2.793-15.699l-2.347-.414-.41 2.328-1.123-.198.987-5.601 3.863.68-.153.866-2.739-.483-.272 1.543 2.347.414-.153.865zm2.185.477l-.395 2.238-1.123-.198.987-5.6 2.112.372c.639.112 1.113.346 1.422.7.309.355.417.793.325 1.313-.05.29-.17.526-.358.707-.188.18-.44.31-.754.386.313.156.522.36.627.615.105.253.127.548.068.884l-.072.412a2.068 2.068 0 0 0-.023.502.685.685 0 0 0 .15.417l-.014.08-1.158-.204c-.088-.1-.13-.249-.128-.446.004-.198.02-.383.05-.555l.07-.396c.05-.28.012-.51-.113-.692-.126-.183-.327-.298-.604-.347l-1.07-.188zm.152-.866l.97.171c.315.056.562.03.741-.076.179-.106.291-.29.337-.551.045-.256.004-.474-.125-.653-.128-.178-.344-.294-.646-.348l-.989-.174-.288 1.631zm7.416 1.97l-2.32-.41-.282 1.601 2.712.478-.152.862-3.836-.676.988-5.601 3.828.675-.153.865-2.704-.477-.249 1.408 2.32.41-.152.865zm4.524.798l-2.32-.41-.282 1.6 2.712.48-.152.86-3.836-.675.988-5.602 3.828.675-.153.866-2.704-.477-.249 1.408 2.32.41-.152.865zM139.114 43.714l-3.907 4.357-5.342-2.39-5.722 1.227-2.917-5.074-5.35-2.37.622-5.819-2.935-5.062 3.924-4.342.6-5.821 5.727-1.206 3.908-4.357 5.341 2.39 5.722-1.227 2.917 5.074 5.35 2.37-.622 5.82 2.935 5.062-3.924 4.341-.6 5.821-5.727 1.206zm-12.23-10.23l-2.064 1.19L126 36.722l-.987.57-2.844-4.925 3.396-1.96.44.76-2.409 1.39.783 1.357 2.064-1.191.44.761zm1.98-1.04L130 34.413l-.988.57-2.844-4.926 1.858-1.072c.561-.324 1.074-.45 1.539-.377.465.073.83.339 1.093.797.148.255.207.512.18.771-.028.26-.138.52-.33.781.34-.082.633-.06.876.068.243.127.45.338.62.633l.21.362c.08.138.18.271.305.4a.685.685 0 0 0 .383.222l.041.071-1.018.588c-.132-.02-.26-.107-.385-.26a3.517 3.517 0 0 1-.318-.457l-.201-.348c-.142-.246-.32-.399-.532-.458-.213-.059-.442-.018-.685.123l-.94.543zm-.44-.761l.852-.493c.278-.16.45-.338.52-.534.068-.196.036-.409-.097-.639-.13-.226-.302-.365-.515-.42-.213-.054-.453-.004-.719.15l-.87.501.829 1.435zm6.946-3.258l-2.04 1.178.813 1.407 2.385-1.377.437.758-3.372 1.947-2.844-4.925 3.366-1.943.44.76-2.379 1.374.715 1.238 2.04-1.178.44.761zm3.979-2.297l-2.04 1.178.812 1.407 2.385-1.376.438.757-3.373 1.948-2.844-4.926 3.366-1.943.44.76-2.378 1.374.714 1.238 2.04-1.178.44.761zM193.158 49.504l-5.85-.193-1.602-5.628-4.618-3.595 2.012-5.495-1.624-5.623 4.858-3.263 1.991-5.503 5.848.216 4.846-3.282 4.605 3.612 5.849.193 1.602 5.628 4.618 3.594-2.012 5.496 1.624 5.622-4.858 3.263-1.99 5.504-5.85-.216-4.845 3.282-4.604-3.612zm-.024-15.946l-2.24-.815-.808 2.221-1.072-.39 1.946-5.344 3.685 1.341-.3.826-2.614-.951-.536 1.472 2.24.815-.301.825zm2.068.849l-.777 2.136-1.072-.39 1.945-5.344 2.015.733c.61.222 1.036.534 1.279.937.242.403.273.853.092 1.35-.1.276-.259.487-.475.633-.217.146-.487.229-.81.25.281.208.452.446.51.714.06.268.031.562-.086.883l-.143.393c-.054.149-.09.312-.11.49a.685.685 0 0 0 .076.437l-.028.077-1.105-.402c-.069-.114-.085-.268-.047-.463.037-.194.086-.373.145-.537l.138-.378c.097-.267.1-.5.008-.702-.092-.2-.27-.35-.534-.446l-1.02-.371zm.301-.826l.925.337c.301.11.549.127.743.054.194-.073.337-.235.428-.484.089-.245.086-.467-.01-.665-.095-.198-.287-.35-.576-.455l-.944-.343-.566 1.556zm6.96 3.228l-2.213-.806-.556 1.527 2.588.942-.3.822-3.659-1.332 1.945-5.344 3.653 1.33-.3.825-2.581-.94-.49 1.344 2.214.806-.3.826zm4.317 1.57l-2.213-.805-.556 1.527 2.588.942-.3.822-3.66-1.332 1.946-5.344 3.652 1.33-.3.825-2.58-.94-.49 1.344 2.214.806-.3.826zM270.114 40.714l-3.907 4.357-5.342-2.39-5.722 1.227-2.917-5.074-5.35-2.37.622-5.819-2.935-5.062 3.924-4.342.6-5.821 5.727-1.206 3.908-4.357 5.341 2.39 5.722-1.227 2.917 5.074 5.35 2.37-.622 5.82 2.935 5.062-3.924 4.341-.6 5.821-5.727 1.206zm-12.23-10.23l-2.064 1.19L257 33.722l-.987.57-2.844-4.925 3.396-1.96.44.76-2.409 1.39.783 1.357 2.064-1.191.44.761zm1.98-1.04L261 31.413l-.988.57-2.844-4.926 1.858-1.072c.561-.324 1.074-.45 1.539-.377.465.073.83.339 1.093.797.148.255.207.512.18.771-.028.26-.138.52-.33.781.34-.082.633-.06.876.068.243.127.45.338.62.633l.21.362c.08.138.18.271.305.4a.685.685 0 0 0 .383.222l.041.071-1.018.588c-.132-.02-.26-.107-.385-.26a3.517 3.517 0 0 1-.318-.457l-.201-.348c-.142-.246-.32-.399-.532-.458-.213-.059-.442-.018-.685.123l-.94.543zm-.44-.761l.852-.493c.278-.16.45-.338.52-.534.068-.196.036-.409-.097-.639-.13-.226-.302-.365-.515-.42-.213-.054-.453-.004-.719.15l-.87.501.829 1.435zm6.946-3.258l-2.04 1.178.813 1.407 2.385-1.377.437.758-3.372 1.947-2.844-4.925 3.366-1.943.44.76-2.379 1.374.715 1.238 2.04-1.178.44.761zm3.979-2.297l-2.04 1.178.812 1.407 2.385-1.376.438.757-3.373 1.948-2.844-4.926 3.366-1.943.44.76-2.378 1.374.714 1.238 2.04-1.178.44.761zM347.488 49.603l-5.704-1.305-.5-5.831-3.847-4.41 3.024-5.01-.521-5.829 5.39-2.276 3.005-5.022 5.7 1.327 5.383-2.297 3.83 4.424 5.705 1.306.5 5.83 3.847 4.41-3.024 5.01.522 5.83-5.392 2.276-3.004 5.022-5.7-1.327-5.383 2.296-3.83-4.424zm3.02-15.657l-2.043-1.227-1.217 2.026-.978-.588 2.93-4.875 3.36 2.02-.452.753-2.384-1.432-.807 1.342 2.043 1.228-.453.753zm1.868 1.228l-1.17 1.949-.978-.588 2.929-4.875 1.838 1.105c.556.333.914.721 1.076 1.163.161.442.106.89-.166 1.343-.152.252-.348.429-.588.53-.24.102-.522.132-.843.091.237.258.359.524.365.798.007.275-.077.558-.253.85l-.215.359c-.082.136-.15.29-.201.46a.685.685 0 0 0-.01.444l-.042.07-1.008-.606c-.046-.125-.032-.279.042-.463.073-.183.155-.35.245-.5l.207-.344c.147-.243.194-.472.142-.687-.052-.215-.198-.395-.439-.54l-.93-.56zm.453-.753l.844.507c.274.164.514.23.719.195.204-.035.375-.167.512-.394.134-.224.173-.442.117-.654-.056-.213-.215-.399-.479-.557l-.86-.517-.853 1.42zm6.216 4.496l-2.019-1.213-.836 1.393 2.36 1.418-.45.75-3.339-2.006 2.93-4.875 3.331 2.002-.453.753-2.354-1.414-.736 1.225 2.02 1.214-.454.753zm3.938 2.366l-2.019-1.213-.837 1.393 2.36 1.418-.45.75-3.338-2.006 2.93-4.875 3.33 2.002-.452.753-2.354-1.414-.736 1.225 2.019 1.214-.453.753zM439.662 45.53l-2.556 5.264-5.793-.825-5.162 2.757-4.202-4.073-5.797-.804-1.005-5.765-4.218-4.057 2.576-5.255-1.027-5.761 5.172-2.738 2.556-5.265 5.793.826 5.162-2.758 4.202 4.074 5.797.803 1.005 5.765 4.218 4.058-2.576 5.255 1.027 5.761-5.172 2.738zm-14.577-6.464l-1.655 1.714 1.7 1.642-.793.82-4.091-3.95 2.724-2.822.633.61-1.932 2.001 1.126 1.089 1.656-1.715.632.611zm1.617-1.545l1.635 1.58-.792.82-4.092-3.951 1.49-1.543c.45-.466.91-.728 1.376-.786.467-.058.89.097 1.27.464.212.204.34.435.386.692.045.257.01.538-.102.842.305-.173.592-.232.86-.177.27.055.527.201.772.438l.3.29c.115.111.25.21.404.3.154.09.297.126.43.109l.059.057-.817.846c-.132.017-.28-.031-.442-.145a3.517 3.517 0 0 1-.431-.351l-.29-.28c-.204-.197-.417-.295-.637-.293-.221.003-.43.105-.625.307l-.754.781zm-.633-.61l.684-.708c.223-.23.34-.45.352-.657.012-.208-.077-.404-.269-.588-.187-.181-.39-.268-.61-.262-.22.007-.437.12-.65.342l-.698.722 1.191 1.15zm5.78-5.046l-1.636 1.694 1.169 1.129 1.913-1.981.63.608-2.706 2.801-4.091-3.95 2.7-2.796.632.61-1.908 1.975 1.029.994 1.636-1.695.632.61zm3.191-3.305l-1.636 1.695 1.169 1.128 1.913-1.98.63.607-2.706 2.802-4.091-3.951 2.7-2.796.632.61-1.908 1.976 1.029.993 1.636-1.694.632.61zM517.58 38.263l-3.43 4.74-5.563-1.818-5.562 1.819-3.43-4.741-5.57-1.798.011-5.852-3.449-4.728 3.449-4.728-.011-5.852 5.57-1.798 3.43-4.741 5.562 1.819 5.563-1.82 3.43 4.742 5.57 1.798-.012 5.852 3.45 4.728-3.45 4.728.012 5.852-5.57 1.798zm-13.233-8.897l-1.928 1.4 1.39 1.913-.923.67-3.343-4.601 3.173-2.305.516.71-2.25 1.636.92 1.267 1.929-1.4.516.71zm1.86-1.24l1.337 1.839-.923.67-3.343-4.601 1.735-1.26c.525-.382 1.022-.56 1.492-.536.47.024.86.25 1.17.678.173.238.26.487.26.748-.001.261-.083.531-.247.811.33-.117.623-.125.878-.024.255.1.483.29.684.565l.245.338c.094.129.209.25.345.365a.685.685 0 0 0 .405.182l.048.066-.95.691c-.134-.006-.27-.079-.41-.218-.141-.14-.262-.28-.365-.422l-.236-.325c-.167-.23-.36-.363-.578-.4-.218-.035-.44.029-.668.194l-.878.639zm-.516-.711l.796-.579c.26-.188.413-.384.46-.586.049-.202-.005-.41-.162-.625-.153-.211-.338-.332-.556-.364-.218-.032-.45.043-.7.224l-.812.59.974 1.34zm6.568-3.966l-1.906 1.384.956 1.315 2.227-1.619.515.708-3.15 2.29-3.344-4.602 3.144-2.284.517.71-2.222 1.615.84 1.156 1.906-1.384.517.711zm3.716-2.7l-1.905 1.384.955 1.315 2.228-1.619.514.708-3.15 2.29-3.344-4.602 3.145-2.284.516.71-2.221 1.615.84 1.156 1.906-1.384.516.71zM545.524 63.237l-5.629-1.602-.193-5.85-3.612-4.604 3.282-4.845-.215-5.849 5.503-1.99 3.263-4.859 5.622 1.624 5.496-2.012 3.594 4.619 5.629 1.602.193 5.849 3.611 4.605-3.281 4.845.215 5.848-5.503 1.991-3.263 4.858-5.623-1.623-5.495 2.012-3.594-4.619zm3.834-15.478l-1.976-1.332-1.321 1.96-.946-.639 3.18-4.715 3.252 2.193-.491.729-2.306-1.555-.876 1.298 1.975 1.333-.491.728zm1.802 1.324l-1.271 1.885-.946-.638 3.18-4.715 1.778 1.2c.538.362.876.768 1.014 1.218.138.45.06.893-.237 1.331-.164.244-.37.41-.614.5-.246.089-.528.104-.847.046.223.27.331.542.324.817-.008.274-.107.553-.298.835l-.234.347a2.068 2.068 0 0 0-.225.449.685.685 0 0 0-.032.442l-.046.068-.975-.657c-.04-.127-.018-.28.066-.46.083-.18.173-.342.271-.486l.225-.334c.159-.235.218-.461.178-.679-.04-.217-.178-.404-.41-.562l-.901-.607zm.491-.728l.817.55c.265.18.501.257.707.232.207-.024.384-.146.533-.366.145-.216.196-.432.151-.647-.045-.216-.194-.41-.45-.581l-.831-.562-.927 1.374zm5.973 4.815l-1.953-1.317-.908 1.347 2.283 1.54-.49.726-3.228-2.178 3.18-4.715 3.223 2.173-.492.729-2.277-1.536-.8 1.185 1.954 1.317-.492.73zm3.809 2.569l-1.953-1.317-.909 1.347 2.283 1.54-.489.725-3.229-2.177 3.18-4.716 3.223 2.174-.492.728-2.276-1.535-.8 1.185 1.953 1.317-.491.729zM17.158 90.504l-5.85-.193-1.602-5.628-4.618-3.595L7.1 75.593 5.476 69.97l4.858-3.263 1.991-5.503 5.848.216 4.846-3.282 4.605 3.612 5.849.193 1.602 5.628 4.618 3.594-2.012 5.496 1.624 5.622-4.858 3.263-1.99 5.504-5.85-.216-4.845 3.282-4.604-3.612zm-.024-15.946l-2.24-.815-.808 2.221-1.072-.39 1.946-5.344 3.685 1.341-.3.826-2.614-.951-.536 1.472 2.24.815-.301.825zm2.068.849l-.777 2.136-1.072-.39 1.945-5.344 2.015.733c.61.222 1.036.534 1.279.937.242.403.273.853.092 1.35-.1.276-.259.487-.475.633-.217.146-.487.229-.81.25.281.208.452.446.51.714.06.268.031.562-.086.883l-.143.393c-.054.149-.09.312-.11.49a.685.685 0 0 0 .076.437l-.028.077-1.105-.402c-.069-.114-.085-.268-.047-.463.037-.194.086-.373.145-.537l.138-.378c.097-.267.1-.5.008-.702-.092-.2-.27-.35-.534-.446l-1.02-.371zm.301-.826l.925.337c.301.11.549.127.743.054.194-.073.337-.235.428-.484.089-.245.086-.467-.01-.665-.095-.198-.287-.35-.576-.455l-.944-.343-.566 1.556zm6.96 3.228l-2.213-.806-.556 1.527 2.588.942-.3.822-3.659-1.332 1.945-5.344 3.653 1.33-.3.825-2.581-.94-.49 1.344 2.214.806-.3.826zm4.317 1.57l-2.213-.805-.556 1.527 2.588.942-.3.822-3.66-1.332 1.946-5.344 3.652 1.33-.3.825-2.58-.94-.49 1.344 2.214.806-.3.826zM129.114 98.714l-3.907 4.357-5.342-2.39-5.722 1.227-2.917-5.074-5.35-2.37.622-5.819-2.935-5.062 3.924-4.342.6-5.821 5.727-1.206 3.908-4.357 5.341 2.39 5.722-1.227 2.917 5.074 5.35 2.37-.622 5.82 2.935 5.062-3.924 4.341-.6 5.821-5.727 1.206zm-12.23-10.23l-2.064 1.19L116 91.722l-.987.57-2.844-4.925 3.396-1.96.44.76-2.409 1.39.783 1.357 2.064-1.191.44.761zm1.98-1.04L120 89.413l-.988.57-2.844-4.926 1.858-1.072c.561-.324 1.074-.45 1.539-.377.465.073.83.339 1.093.797.148.255.207.512.18.771-.028.26-.138.52-.33.781.34-.082.633-.06.876.068.243.127.45.338.62.633l.21.362c.08.138.18.271.305.4a.685.685 0 0 0 .383.222l.041.071-1.018.588c-.132-.02-.26-.107-.385-.26a3.517 3.517 0 0 1-.318-.457l-.201-.348c-.142-.246-.32-.399-.532-.458-.213-.059-.442-.018-.685.123l-.94.543zm-.44-.761l.852-.493c.278-.16.45-.338.52-.534.068-.196.036-.409-.097-.639-.13-.226-.302-.365-.515-.42-.213-.054-.453-.004-.719.15l-.87.501.829 1.435zm6.946-3.258l-2.04 1.178.813 1.407 2.385-1.377.437.758-3.372 1.947-2.844-4.925 3.366-1.943.44.76-2.379 1.374.715 1.238 2.04-1.178.44.761zm3.979-2.297l-2.04 1.178.812 1.407 2.385-1.376.438.757-3.373 1.948-2.844-4.926 3.366-1.943.44.76-2.378 1.374.714 1.238 2.04-1.178.44.761zM171 92.3l-5.562 1.819-3.431-4.741-5.57-1.798.012-5.852L153 77l3.449-4.728-.011-5.852 5.569-1.798 3.43-4.741L171 61.7l5.562-1.819 3.431 4.741 5.57 1.798-.012 5.852L189 77l-3.449 4.728.011 5.852-5.569 1.798-3.43 4.741L171 92.3zm-5.477-14.976h-2.382v2.363H162V74h3.922v.879h-2.781v1.566h2.382v.88zm2.235.09v2.273h-1.14V74h2.144c.648 0 1.155.148 1.521.443.366.296.549.708.549 1.237 0 .294-.077.547-.23.757-.154.211-.38.382-.676.512.336.1.577.265.724.496.148.232.221.519.221.86v.418c0 .159.022.325.065.498a.685.685 0 0 0 .22.384v.083h-1.176c-.104-.084-.171-.223-.203-.418a3.517 3.517 0 0 1-.047-.555v-.402c0-.284-.077-.505-.232-.663-.155-.157-.373-.236-.654-.236h-1.086zm0-.879h.984c.32 0 .56-.068.717-.203.158-.135.236-.336.236-.602 0-.26-.078-.467-.236-.62-.158-.154-.39-.231-.697-.231h-1.004v1.656zm7.644.653h-2.355v1.624h2.754v.876h-3.895V74h3.887v.879h-2.746v1.43h2.355v.879zm4.594 0h-2.355v1.624h2.754v.876H176.5V74h3.887v.879h-2.746v1.43h2.355v.879zM242.114 88.714l-3.907 4.357-5.342-2.39-5.722 1.227-2.917-5.074-5.35-2.37.622-5.819-2.935-5.062 3.924-4.342.6-5.821 5.727-1.206 3.908-4.357 5.341 2.39 5.722-1.227 2.917 5.074 5.35 2.37-.622 5.82 2.935 5.062-3.924 4.341-.6 5.821-5.727 1.206zm-12.23-10.23l-2.064 1.19L229 81.722l-.987.57-2.844-4.925 3.396-1.96.44.76-2.409 1.39.783 1.357 2.064-1.191.44.761zm1.98-1.04L233 79.413l-.988.57-2.844-4.926 1.858-1.072c.561-.324 1.074-.45 1.539-.377.465.073.83.339 1.093.797.148.255.207.512.18.771-.028.26-.138.52-.33.781.34-.082.633-.06.876.068.243.127.45.338.62.633l.21.362c.08.138.18.271.305.4a.685.685 0 0 0 .383.222l.041.071-1.018.588c-.132-.02-.26-.107-.385-.26a3.517 3.517 0 0 1-.318-.457l-.201-.348c-.142-.246-.32-.399-.532-.458-.213-.059-.442-.018-.685.123l-.94.543zm-.44-.761l.852-.493c.278-.16.45-.338.52-.534.068-.196.036-.409-.097-.639-.13-.226-.302-.365-.515-.42-.213-.054-.453-.004-.719.15l-.87.501.829 1.435zm6.946-3.258l-2.04 1.178.813 1.407 2.385-1.377.437.758-3.372 1.947-2.844-4.925 3.366-1.943.44.76-2.379 1.374.715 1.238 2.04-1.178.44.761zm3.979-2.297l-2.04 1.178.812 1.407 2.385-1.376.438.757-3.373 1.948-2.844-4.926 3.366-1.943.44.76-2.378 1.374.714 1.238 2.04-1.178.44.761zM284.29 116.312l-5.161 2.757-4.202-4.073-5.797-.803-1.005-5.765-4.218-4.058 2.576-5.255-1.027-5.761 5.172-2.738 2.555-5.264 5.794.825 5.162-2.757 4.202 4.073 5.797.804 1.005 5.765 4.217 4.057-2.575 5.255 1.027 5.761-5.172 2.738-2.556 5.265-5.793-.826zm-7.993-13.797l-2.347.414.41 2.327-1.123.198-.987-5.601 3.862-.681.153.866-2.74.483.273 1.542 2.346-.414.153.866zm2.216-.3l.395 2.24-1.124.197-.987-5.6 2.112-.373c.638-.113 1.163-.055 1.575.172.412.228.663.602.755 1.123.051.29.02.551-.095.786-.115.234-.307.441-.577.621.348.04.615.16.8.363.185.203.307.472.366.808l.073.412c.028.156.078.316.15.479a.685.685 0 0 0 .284.34l.014.081-1.158.204c-.117-.064-.207-.19-.272-.376a3.517 3.517 0 0 1-.143-.538l-.07-.396c-.049-.28-.163-.484-.343-.612-.18-.128-.409-.168-.686-.12l-1.07.19zm-.153-.865l.97-.171c.315-.056.539-.164.67-.325.132-.16.175-.371.129-.633-.046-.257-.16-.447-.341-.57-.182-.125-.424-.16-.727-.107l-.988.175.287 1.63zm7.642-.685l-2.32.409.282 1.6 2.712-.478.152.862-3.835.676-.988-5.601 3.828-.675.153.865-2.705.477.249 1.408 2.32-.409.152.866zm4.524-.798l-2.32.41.282 1.6 2.712-.479.152.862-3.835.676-.988-5.6 3.828-.676.153.866-2.705.477.249 1.408 2.32-.41.152.866zM311.29 76.312l-5.161 2.757-4.202-4.073-5.797-.803-1.005-5.765-4.218-4.058 2.576-5.255-1.027-5.761 5.172-2.738 2.555-5.264 5.794.825 5.162-2.757 4.202 4.073 5.797.804 1.005 5.765 4.217 4.057-2.575 5.255 1.027 5.761-5.172 2.738-2.556 5.265-5.793-.826zm-7.993-13.797l-2.347.414.41 2.327-1.123.198-.987-5.601 3.862-.681.153.866-2.74.483.273 1.542 2.346-.414.153.866zm2.216-.3l.395 2.24-1.124.197-.987-5.6 2.112-.373c.638-.113 1.163-.055 1.575.172.412.228.663.602.755 1.123.051.29.02.551-.095.786-.115.234-.307.441-.577.621.348.04.615.16.8.363.185.203.307.472.366.808l.073.412c.028.156.078.316.15.479a.685.685 0 0 0 .284.34l.014.081-1.158.204c-.117-.064-.207-.19-.272-.376a3.517 3.517 0 0 1-.143-.538l-.07-.396c-.049-.28-.163-.484-.343-.612-.18-.128-.409-.168-.686-.12l-1.07.19zm-.153-.865l.97-.171c.315-.056.539-.164.67-.325.132-.16.175-.371.129-.633-.046-.257-.16-.447-.341-.57-.182-.125-.424-.16-.727-.107l-.988.175.287 1.63zm7.642-.685l-2.32.409.282 1.6 2.712-.478.152.862-3.835.676-.988-5.601 3.828-.675.153.865-2.705.477.249 1.408 2.32-.409.152.866zm4.524-.798l-2.32.41.282 1.6 2.712-.479.152.862-3.835.676-.988-5.6 3.828-.676.153.866-2.705.477.249 1.408 2.32-.41.152.866zM394.58 86.263l-3.43 4.74-5.563-1.818-5.562 1.819-3.43-4.741-5.57-1.798.011-5.852-3.449-4.728 3.449-4.728-.011-5.852 5.57-1.798 3.43-4.741 5.562 1.819 5.563-1.82 3.43 4.742 5.57 1.798-.012 5.852 3.45 4.728-3.45 4.728.012 5.852-5.57 1.798zm-13.233-8.897l-1.928 1.4 1.39 1.913-.923.67-3.343-4.601 3.173-2.305.516.71-2.25 1.636.92 1.267 1.929-1.4.516.71zm1.86-1.24l1.337 1.839-.923.67-3.343-4.601 1.735-1.26c.525-.382 1.022-.56 1.492-.536.47.024.86.25 1.17.678.173.238.26.487.26.748-.001.261-.083.531-.247.811.33-.117.623-.125.878-.024.255.1.483.29.684.565l.245.338c.094.129.209.25.345.365a.685.685 0 0 0 .405.182l.048.066-.95.691c-.134-.006-.27-.079-.41-.218-.141-.14-.262-.28-.365-.422l-.236-.325c-.167-.23-.36-.363-.578-.4-.218-.035-.44.029-.668.194l-.878.639zm-.516-.711l.796-.579c.26-.188.413-.384.46-.586.049-.202-.005-.41-.162-.625-.153-.211-.338-.332-.556-.364-.218-.032-.45.043-.7.224l-.812.59.974 1.34zm6.568-3.966l-1.906 1.384.956 1.315 2.227-1.619.515.708-3.15 2.29-3.344-4.602 3.144-2.284.517.71-2.222 1.615.84 1.156 1.906-1.384.517.711zm3.716-2.7l-1.905 1.384.955 1.315 2.228-1.619.514.708-3.15 2.29-3.344-4.602 3.145-2.284.516.71-2.221 1.615.84 1.156 1.906-1.384.516.71zM458.804 84.258l-5.821-.6-1.206-5.727-4.356-3.907 2.39-5.342-1.228-5.722 5.074-2.917 2.37-5.35 5.82.622 5.062-2.935 4.341 3.924 5.822.6 1.205 5.727 4.357 3.908-2.39 5.341 1.227 5.722-5.074 2.917-2.37 5.35-5.819-.622-5.062 2.936-4.342-3.925zm1.088-15.908l-2.177-.97-.96 2.16-1.043-.464 2.314-5.196 3.582 1.595-.357.803-2.54-1.131-.638 1.43 2.177.97-.358.803zm2.005.99l-.925 2.078-1.042-.464 2.314-5.196 1.959.872c.592.264.995.605 1.21 1.024.213.419.213.87-.002 1.353-.12.268-.293.468-.519.598-.226.13-.501.195-.825.193.266.227.42.476.46.748.04.271-.01.563-.148.875l-.17.381a2.068 2.068 0 0 0-.144.482.685.685 0 0 0 .045.44l-.033.076-1.074-.478c-.062-.119-.067-.274-.016-.465.051-.191.112-.366.183-.526l.164-.367c.115-.26.134-.493.057-.7-.078-.207-.245-.367-.502-.482l-.992-.441zm.357-.802l.9.4c.292.13.538.166.737.106.2-.06.353-.21.46-.453.107-.238.119-.46.037-.664-.081-.204-.262-.369-.543-.494l-.917-.408-.674 1.513zm6.719 3.705l-2.152-.958-.661 1.484 2.516 1.12-.356.8-3.558-1.584 2.313-5.196 3.551 1.581-.357.803-2.51-1.117-.58 1.306 2.151.958-.357.803zm4.196 1.868l-2.152-.958-.66 1.485 2.515 1.12-.356.8-3.557-1.585 2.313-5.195 3.55 1.58-.357.803-2.509-1.117-.581 1.306 2.152.959-.358.802zM515.644 103.532l-5.676 1.427-3.091-4.97-5.43-2.181.419-5.837-3.11-4.957 3.77-4.476.396-5.839 5.681-1.405 3.754-4.49 5.422 2.203 5.675-1.427 3.092 4.969 5.43 2.182-.42 5.837 3.111 4.957-3.77 4.476-.397 5.838-5.681 1.405-3.753 4.49-5.422-2.202zm-4.419-15.321l-2.377-.167-.164 2.358-1.138-.08.396-5.673 3.913.273-.062.877-2.774-.194-.11 1.563 2.378.166-.062.877zm2.223.245l-.159 2.268-1.137-.08.396-5.673 2.14.15c.647.045 1.142.227 1.487.548.344.32.498.744.46 1.271-.02.294-.114.54-.282.74-.168.2-.405.355-.71.464.328.122.558.304.688.545.131.242.184.532.16.873l-.029.417c-.01.158 0 .325.03.501s.095.309.193.4l-.005.081-1.173-.082c-.098-.09-.156-.234-.174-.431a3.517 3.517 0 0 1-.008-.557l.028-.401c.02-.283-.042-.509-.185-.677-.144-.168-.356-.261-.637-.281l-1.083-.076zm.061-.877l.982.07c.32.021.563-.03.73-.154.166-.124.259-.318.277-.583.018-.26-.046-.472-.192-.636-.147-.164-.373-.257-.68-.279l-1.001-.07-.116 1.652zm7.58 1.184l-2.349-.164-.113 1.621 2.747.192-.061.873-3.885-.272.397-5.673 3.877.27-.062.878-2.739-.192-.1 1.426 2.35.165-.061.876zm4.583.32l-2.35-.163-.113 1.62 2.747.193-.06.873-3.886-.272.397-5.674 3.877.271-.061.877-2.74-.191-.1 1.426 2.35.164-.06.877zM587.58 107.263l-3.43 4.74-5.563-1.818-5.562 1.819-3.43-4.741-5.57-1.798.011-5.852-3.449-4.728 3.449-4.728-.011-5.852 5.57-1.798 3.43-4.741 5.562 1.819 5.563-1.82 3.43 4.742 5.57 1.798-.012 5.852 3.45 4.728-3.45 4.728.012 5.852-5.57 1.798zm-13.233-8.897l-1.928 1.4 1.39 1.913-.923.67-3.343-4.601 3.173-2.305.516.71-2.25 1.636.92 1.267 1.929-1.4.516.71zm1.86-1.24l1.337 1.839-.923.67-3.343-4.601 1.735-1.26c.525-.382 1.022-.56 1.492-.536.47.024.86.25 1.17.678.173.238.26.487.26.748-.001.261-.083.531-.247.811.33-.117.623-.125.878-.024.255.1.483.29.684.565l.245.338c.094.129.209.25.345.365a.685.685 0 0 0 .405.182l.048.066-.95.691c-.134-.006-.27-.079-.41-.218-.141-.14-.262-.28-.365-.422l-.236-.325c-.167-.23-.36-.363-.578-.4-.218-.035-.44.029-.668.194l-.878.639zm-.516-.711l.796-.579c.26-.188.413-.384.46-.586.049-.202-.005-.41-.162-.625-.153-.211-.338-.332-.556-.364-.218-.032-.45.043-.7.224l-.812.59.974 1.34zm6.568-3.966l-1.906 1.384.956 1.315 2.227-1.619.515.708-3.15 2.29-3.344-4.602 3.144-2.284.517.71-2.222 1.615.84 1.156 1.906-1.384.517.711zm3.716-2.7l-1.905 1.384.955 1.315 2.228-1.619.514.708-3.15 2.29-3.344-4.602 3.145-2.284.516.71-2.221 1.615.84 1.156 1.906-1.384.516.71zM55.158 119.504l-5.85-.193-1.602-5.628-4.618-3.595 2.012-5.495-1.624-5.623 4.858-3.263 1.991-5.503 5.848.216 4.846-3.282 4.605 3.612 5.849.193 1.602 5.628 4.618 3.594-2.012 5.496 1.624 5.622-4.858 3.263-1.99 5.504-5.85-.216-4.845 3.282-4.604-3.612zm-.024-15.946l-2.24-.815-.808 2.221-1.072-.39 1.946-5.344 3.685 1.341-.3.826-2.614-.951-.536 1.472 2.24.815-.301.825zm2.068.849l-.777 2.136-1.072-.39 1.945-5.344 2.015.733c.61.222 1.036.534 1.279.937.242.403.273.853.092 1.35-.1.276-.259.487-.475.633-.217.146-.487.229-.81.25.281.208.452.446.51.714.06.268.031.562-.086.883l-.143.393c-.054.149-.09.312-.11.49a.685.685 0 0 0 .076.437l-.028.077-1.105-.402c-.069-.114-.085-.268-.047-.463.037-.194.086-.373.145-.537l.138-.378c.097-.267.1-.5.008-.702-.092-.2-.27-.35-.534-.446l-1.02-.371zm.301-.826l.925.337c.301.11.549.127.743.054.194-.073.337-.235.428-.484.089-.245.086-.467-.01-.665-.095-.198-.287-.35-.576-.455l-.944-.343-.566 1.556zm6.96 3.228l-2.213-.806-.556 1.527 2.588.942-.3.822-3.659-1.332 1.945-5.344 3.653 1.33-.3.825-2.581-.94-.49 1.344 2.214.806-.3.826zm4.317 1.57l-2.213-.805-.556 1.527 2.588.942-.3.822-3.66-1.332 1.946-5.344 3.652 1.33-.3.825-2.58-.94-.49 1.344 2.214.806-.3.826zM38.36 155.768l-4.605 3.612-4.845-3.282-5.849.215-1.99-5.503-4.859-3.263 1.624-5.622-2.012-5.496 4.619-3.594 1.602-5.629 5.849-.193 4.605-3.611 4.845 3.281 5.848-.215 1.991 5.503 4.858 3.263-1.623 5.623 2.012 5.495-4.619 3.594-1.602 5.629-5.85.193zm-10.269-12.2l-2.239.815.809 2.221-1.072.39-1.945-5.344 3.685-1.342.3.826-2.613.952.536 1.472 2.239-.815.3.825zm2.13-.68l.778 2.137-1.071.39-1.946-5.344 2.015-.734c.61-.222 1.137-.256 1.582-.104.445.153.758.478.938.974.101.277.115.54.043.791-.072.251-.226.488-.46.712.35-.022.633.051.85.219.218.167.385.411.502.732l.143.393c.054.149.131.297.23.446.1.148.213.243.34.286l.028.077-1.105.402c-.126-.043-.238-.15-.334-.323a3.517 3.517 0 0 1-.234-.506l-.137-.378c-.097-.266-.246-.447-.445-.542-.2-.096-.431-.095-.696.001l-1.02.372zm-.3-.825l.925-.337c.301-.11.503-.255.604-.436.102-.181.107-.396.017-.646-.09-.245-.234-.412-.435-.503-.2-.09-.445-.083-.734.022l-.943.343.566 1.557zm7.407-2.002l-2.214.806.556 1.527 2.588-.942.3.822-3.66 1.332-1.946-5.344 3.653-1.33.3.826-2.58.94.489 1.343 2.213-.806.3.826zm4.317-1.571l-2.214.806.556 1.527 2.588-.942.299.822-3.66 1.332-1.945-5.344 3.652-1.33.301.826-2.58.94.489 1.343 2.213-.806.3.826zM92 159.3l-5.562 1.819-3.431-4.741-5.57-1.798.012-5.852L74 144l3.449-4.728-.011-5.852 5.569-1.798 3.43-4.741L92 128.7l5.562-1.819 3.431 4.741 5.57 1.798-.012 5.852L110 144l-3.449 4.728.011 5.852-5.569 1.798-3.43 4.741L92 159.3zm-5.477-14.976h-2.382v2.363H83V141h3.922v.879H84.14v1.566h2.382v.88zm2.235.09v2.273h-1.14V141h2.144c.648 0 1.155.148 1.521.443.366.296.549.708.549 1.237 0 .294-.077.547-.23.757-.154.211-.38.382-.676.512.336.1.577.265.724.496.148.232.221.519.221.86v.418c0 .159.022.325.065.498a.685.685 0 0 0 .22.384v.082H90.98c-.104-.083-.171-.222-.203-.417a3.517 3.517 0 0 1-.047-.555v-.403c0-.283-.077-.504-.232-.662-.155-.157-.373-.236-.654-.236h-1.086zm0-.879h.984c.32 0 .56-.068.717-.203.158-.135.236-.336.236-.602 0-.26-.078-.467-.236-.62-.158-.154-.39-.231-.697-.231h-1.004v1.656zm7.644.652h-2.355v1.625H96.8v.875h-3.895V141h3.887v.879h-2.746v1.43h2.355v.878zm4.594 0h-2.355v1.625h2.754v.875H97.5V141h3.887v.879H98.64v1.43h2.355v.878zM138.158 141.504l-5.85-.193-1.602-5.628-4.618-3.595 2.012-5.495-1.624-5.623 4.858-3.263 1.991-5.503 5.848.216 4.846-3.282 4.605 3.612 5.849.193 1.602 5.628 4.618 3.594-2.012 5.496 1.624 5.622-4.858 3.263-1.99 5.504-5.85-.216-4.845 3.282-4.604-3.612zm-.024-15.946l-2.24-.815-.808 2.221-1.072-.39 1.946-5.344 3.685 1.341-.3.826-2.614-.951-.536 1.472 2.24.815-.301.825zm2.068.849l-.777 2.136-1.072-.39 1.945-5.344 2.015.733c.61.222 1.036.534 1.279.937.242.403.273.853.092 1.35-.1.276-.259.487-.475.633-.217.146-.487.229-.81.25.281.208.452.446.51.714.06.268.031.562-.086.883l-.143.393c-.054.149-.09.312-.11.49a.685.685 0 0 0 .076.437l-.028.077-1.105-.402c-.069-.114-.085-.268-.047-.463.037-.194.086-.373.145-.537l.138-.378c.097-.267.1-.5.008-.702-.092-.2-.27-.35-.534-.446l-1.02-.371zm.301-.826l.925.337c.301.11.549.127.743.054.194-.073.337-.235.428-.484.089-.245.086-.467-.01-.665-.095-.198-.287-.35-.576-.455l-.944-.343-.566 1.556zm6.96 3.228l-2.213-.806-.556 1.527 2.588.942-.3.822-3.659-1.332 1.945-5.344 3.653 1.33-.3.825-2.581-.94-.49 1.344 2.214.806-.3.826zm4.317 1.57l-2.213-.805-.556 1.527 2.588.942-.3.822-3.66-1.332 1.946-5.344 3.652 1.33-.3.825-2.58-.94-.49 1.344 2.214.806-.3.826zM192.158 133.504l-5.85-.193-1.602-5.628-4.618-3.595 2.012-5.495-1.624-5.623 4.858-3.263 1.991-5.503 5.848.216 4.846-3.282 4.605 3.612 5.849.193 1.602 5.628 4.618 3.594-2.012 5.496 1.624 5.622-4.858 3.263-1.99 5.504-5.85-.216-4.845 3.282-4.604-3.612zm-.024-15.946l-2.24-.815-.808 2.221-1.072-.39 1.946-5.344 3.685 1.341-.3.826-2.614-.951-.536 1.472 2.24.815-.301.825zm2.068.849l-.777 2.136-1.072-.39 1.945-5.344 2.015.733c.61.222 1.036.534 1.279.937.242.403.273.853.092 1.35-.1.276-.259.487-.475.633-.217.146-.487.229-.81.25.281.208.452.446.51.714.06.268.031.562-.086.883l-.143.393c-.054.149-.09.312-.11.49a.685.685 0 0 0 .076.437l-.028.077-1.105-.402c-.069-.114-.085-.268-.047-.463.037-.194.086-.373.145-.537l.138-.378c.097-.267.1-.5.008-.702-.092-.2-.27-.35-.534-.446l-1.02-.371zm.301-.826l.925.337c.301.11.549.127.743.054.194-.073.337-.235.428-.484.089-.245.086-.467-.01-.665-.095-.198-.287-.35-.576-.455l-.944-.343-.566 1.556zm6.96 3.228l-2.213-.806-.556 1.527 2.588.942-.3.822-3.659-1.332 1.945-5.344 3.653 1.33-.3.825-2.581-.94-.49 1.344 2.214.806-.3.826zm4.317 1.57l-2.213-.805-.556 1.527 2.588.942-.3.822-3.66-1.332 1.946-5.344 3.652 1.33-.3.825-2.58-.94-.49 1.344 2.214.806-.3.826zM202.114 173.714l-3.907 4.357-5.342-2.39-5.722 1.227-2.917-5.074-5.35-2.37.622-5.819-2.935-5.062 3.924-4.342.6-5.821 5.727-1.206 3.908-4.357 5.341 2.39 5.722-1.227 2.917 5.074 5.35 2.37-.622 5.82 2.935 5.062-3.924 4.341-.6 5.821-5.727 1.206zm-12.23-10.23l-2.064 1.19 1.181 2.047-.987.57-2.844-4.925 3.396-1.96.44.76-2.409 1.39.783 1.357 2.064-1.191.44.761zm1.98-1.04l1.136 1.969-.988.57-2.844-4.926 1.858-1.072c.561-.324 1.074-.45 1.539-.377.465.073.83.339 1.093.797.148.255.207.512.18.771-.028.26-.138.52-.33.781.34-.082.633-.06.876.068.243.127.45.338.62.633l.21.362c.08.138.18.271.305.4a.685.685 0 0 0 .383.222l.041.071-1.018.588c-.132-.02-.26-.107-.385-.26a3.517 3.517 0 0 1-.318-.457l-.201-.348c-.142-.246-.32-.399-.532-.458-.213-.059-.442-.018-.685.123l-.94.543zm-.44-.761l.852-.493c.278-.16.45-.338.52-.534.068-.196.036-.409-.097-.639-.13-.226-.302-.365-.515-.42-.213-.054-.453-.004-.719.15l-.87.501.829 1.435zm6.946-3.258l-2.04 1.178.813 1.407 2.385-1.377.437.758-3.372 1.947-2.844-4.925 3.366-1.943.44.76-2.379 1.374.715 1.238 2.04-1.178.44.761zm3.979-2.297l-2.04 1.178.812 1.407 2.385-1.376.438.757-3.373 1.948-2.844-4.926 3.366-1.943.44.76-2.378 1.374.714 1.238 2.04-1.178.44.761zM262.114 155.714l-3.907 4.357-5.342-2.39-5.722 1.227-2.917-5.074-5.35-2.37.622-5.819-2.935-5.062 3.924-4.342.6-5.821 5.727-1.206 3.908-4.357 5.341 2.39 5.722-1.227 2.917 5.074 5.35 2.37-.622 5.82 2.935 5.062-3.924 4.341-.6 5.821-5.727 1.206zm-12.23-10.23l-2.064 1.19 1.181 2.047-.987.57-2.844-4.925 3.396-1.96.44.76-2.409 1.39.783 1.357 2.064-1.191.44.761zm1.98-1.04l1.136 1.969-.988.57-2.844-4.926 1.858-1.072c.561-.324 1.074-.45 1.539-.377.465.073.83.339 1.093.797.148.255.207.512.18.771-.028.26-.138.52-.33.781.34-.082.633-.06.876.068.243.127.45.338.62.633l.21.362c.08.138.18.271.305.4a.685.685 0 0 0 .383.222l.041.071-1.018.588c-.132-.02-.26-.107-.385-.26a3.517 3.517 0 0 1-.318-.457l-.201-.348c-.142-.246-.32-.399-.532-.458-.213-.059-.442-.018-.685.123l-.94.543zm-.44-.761l.852-.493c.278-.16.45-.338.52-.534.068-.196.036-.409-.097-.639-.13-.226-.302-.365-.515-.42-.213-.054-.453-.004-.719.15l-.87.501.829 1.435zm6.946-3.258l-2.04 1.178.813 1.407 2.385-1.377.437.758-3.372 1.947-2.844-4.925 3.366-1.943.44.76-2.379 1.374.715 1.238 2.04-1.178.44.761zm3.979-2.297l-2.04 1.178.812 1.407 2.385-1.376.438.757-3.373 1.948-2.844-4.926 3.366-1.943.44.76-2.378 1.374.714 1.238 2.04-1.178.44.761zM291.786 155.47l-4.968-3.092 1.426-5.675-2.202-5.422 4.49-3.753 1.405-5.681 5.838-.398 4.476-3.77 4.957 3.11 5.838-.419 2.181 5.43 4.97 3.092-1.427 5.676 2.202 5.422-4.49 3.753-1.405 5.681-5.839.397-4.475 3.77-4.957-3.11-5.838.42-2.182-5.431zm7.952-13.822l-1.531-1.825-1.81 1.52-.734-.875 4.357-3.655 2.521 3.004-.673.565-1.788-2.13-1.2 1.006 1.532 1.825-.674.565zm1.368 1.77l-1.742 1.461-.733-.874 4.357-3.655 1.378 1.642c.417.497.63.98.639 1.45.008.471-.19.876-.595 1.216-.225.19-.468.293-.728.31-.26.018-.536-.044-.827-.188.14.32.17.612.086.874-.083.261-.255.502-.516.721l-.32.269a2.068 2.068 0 0 0-.34.37.685.685 0 0 0-.153.416l-.063.053-.756-.901c-.003-.134.06-.275.19-.424.129-.15.26-.28.394-.393l.309-.259c.217-.182.336-.383.357-.603.021-.22-.058-.438-.24-.653l-.697-.832zm.673-.565l.633.754c.206.245.411.385.616.418.205.034.41-.034.613-.205.2-.168.307-.361.324-.58.016-.22-.074-.447-.272-.683l-.645-.769-1.269 1.065zm4.414 6.275l-1.514-1.804-1.245 1.044 1.77 2.11-.67.562-2.503-2.983 4.357-3.656 2.498 2.978-.673.565-1.765-2.104-1.096.919 1.514 1.804-.673.565zm2.953 3.52l-1.514-1.805-1.245 1.044 1.77 2.11-.67.562-2.503-2.983 4.356-3.656 2.499 2.978-.674.565-1.765-2.104-1.095.919 1.514 1.804-.673.565zM351.356 109.342l-2.182 5.43-5.837-.42-4.957 3.111-4.476-3.77-5.839-.397-1.405-5.681-4.49-3.753 2.203-5.422-1.427-5.676 4.969-3.092 2.182-5.43 5.837.42 4.957-3.111 4.476 3.77 5.839.397 1.404 5.681 4.49 3.753-2.202 5.422 1.427 5.676-4.97 3.092zm-14.993-5.431l-1.531 1.825 1.81 1.52-.733.873-4.357-3.656 2.521-3.004.673.565-1.787 2.13 1.2 1.007 1.531-1.825.673.565zm1.505-1.654l1.742 1.461-.733.874-4.357-3.656 1.378-1.643c.417-.497.856-.79 1.318-.88.462-.09.895.034 1.3.374.225.19.37.41.432.664.063.253.049.535-.042.846.292-.194.574-.272.846-.236.272.036.539.164.8.383l.32.269c.122.102.263.192.423.27.16.08.306.105.437.079l.063.053-.756.9c-.131.027-.281-.011-.451-.113a3.517 3.517 0 0 1-.455-.32l-.308-.259c-.218-.182-.437-.265-.657-.247-.22.017-.42.133-.601.349l-.699.832zm-.673-.565l.633-.754c.206-.246.308-.472.305-.68-.002-.208-.105-.397-.309-.568-.2-.167-.409-.24-.628-.218-.218.022-.427.15-.624.386l-.646.77 1.27 1.064zm5.414-5.437l-1.514 1.804 1.244 1.045 1.77-2.11.671.563-2.503 2.983-4.357-3.656 2.498-2.977.673.565-1.765 2.104 1.095.919 1.514-1.805.674.565zm2.953-3.519l-1.515 1.804 1.245 1.045 1.77-2.11.67.563-2.503 2.983-4.356-3.656 2.498-2.977.673.565-1.765 2.104 1.095.919 1.514-1.805.674.565zM370.804 146.258l-5.821-.6-1.206-5.727-4.356-3.907 2.39-5.342-1.228-5.722 5.074-2.917 2.37-5.35 5.82.622 5.062-2.935 4.341 3.924 5.822.6 1.205 5.727 4.357 3.908-2.39 5.341 1.227 5.722-5.074 2.917-2.37 5.35-5.819-.622-5.062 2.936-4.342-3.925zm1.088-15.908l-2.177-.97-.96 2.16-1.043-.464 2.314-5.196 3.582 1.595-.357.803-2.54-1.131-.638 1.43 2.177.97-.358.803zm2.005.99l-.925 2.078-1.042-.464 2.314-5.196 1.959.872c.592.264.995.605 1.21 1.024.213.419.213.87-.002 1.353-.12.268-.293.468-.519.598-.226.13-.501.195-.825.193.266.227.42.476.46.748.04.271-.01.563-.148.875l-.17.381a2.068 2.068 0 0 0-.144.482.685.685 0 0 0 .045.44l-.033.076-1.074-.478c-.062-.119-.067-.274-.016-.465.051-.191.112-.366.183-.526l.164-.367c.115-.26.134-.493.057-.7-.078-.207-.245-.367-.502-.482l-.992-.441zm.357-.802l.9.4c.292.13.538.166.737.106.2-.06.353-.21.46-.453.107-.238.119-.46.037-.664-.081-.204-.262-.369-.543-.494l-.917-.408-.674 1.513zm6.719 3.705l-2.152-.958-.661 1.484 2.516 1.12-.356.8-3.558-1.584 2.313-5.196 3.551 1.581-.357.803-2.51-1.117-.58 1.306 2.151.958-.357.803zm4.196 1.868l-2.152-.958-.66 1.485 2.515 1.12-.356.8-3.557-1.585 2.313-5.195 3.55 1.58-.357.803-2.509-1.117-.581 1.306 2.152.959-.358.802zM421.804 122.258l-5.821-.6-1.206-5.727-4.356-3.907 2.39-5.342-1.228-5.722 5.074-2.917 2.37-5.35 5.82.622 5.062-2.935 4.341 3.924 5.822.6 1.205 5.727 4.357 3.908-2.39 5.341 1.227 5.722-5.074 2.917-2.37 5.35-5.819-.622-5.062 2.936-4.342-3.925zm1.088-15.908l-2.177-.97-.96 2.16-1.043-.464 2.314-5.196 3.582 1.595-.357.803-2.54-1.131-.638 1.43 2.177.97-.358.803zm2.005.99l-.925 2.078-1.042-.464 2.314-5.196 1.959.872c.592.264.995.605 1.21 1.024.213.419.213.87-.002 1.353-.12.268-.293.468-.519.598-.226.13-.501.195-.825.193.266.227.42.476.46.748.04.271-.01.563-.148.875l-.17.381a2.068 2.068 0 0 0-.144.482.685.685 0 0 0 .045.44l-.033.076-1.074-.478c-.062-.119-.067-.274-.016-.465.051-.191.112-.366.183-.526l.164-.367c.115-.26.134-.493.057-.7-.078-.207-.245-.367-.502-.482l-.992-.441zm.357-.802l.9.4c.292.13.538.166.737.106.2-.06.353-.21.46-.453.107-.238.119-.46.037-.664-.081-.204-.262-.369-.543-.494l-.917-.408-.674 1.513zm6.719 3.705l-2.152-.958-.661 1.484 2.516 1.12-.356.8-3.558-1.584 2.313-5.196 3.551 1.581-.357.803-2.51-1.117-.58 1.306 2.151.958-.357.803zm4.196 1.868l-2.152-.958-.66 1.485 2.515 1.12-.356.8-3.557-1.585 2.313-5.195 3.55 1.58-.357.803-2.509-1.117-.581 1.306 2.152.959-.358.802zM403.407 167.056l-4.074-4.202 2.758-5.162-.826-5.794 5.265-2.555 2.738-5.173 5.761 1.028 5.255-2.576 4.057 4.218 5.765 1.005.804 5.797 4.073 4.202-2.757 5.161.825 5.794-5.264 2.556-2.738 5.172-5.761-1.027-5.255 2.575-4.058-4.217-5.765-1.005-.803-5.797zm11.06-11.488l-1.045-2.141-2.125 1.036-.5-1.025 5.112-2.494 1.72 3.525-.79.386-1.22-2.5-1.407.687 1.044 2.141-.79.385zm.898 2.048l-2.043.997-.5-1.025 5.111-2.494.94 1.928c.285.583.374 1.103.269 1.562-.105.458-.395.803-.87 1.035-.265.129-.526.17-.783.125-.257-.046-.509-.173-.756-.383.058.345.016.635-.128.869-.144.233-.37.425-.676.575l-.376.183c-.142.07-.282.162-.419.276a.685.685 0 0 0-.249.367l-.074.036-.515-1.057c.03-.13.125-.252.286-.365.162-.114.322-.21.478-.286l.362-.176c.255-.124.42-.29.493-.5.074-.208.05-.438-.074-.69l-.476-.977zm.79-.385l.431.885c.14.287.306.473.497.555.19.082.406.065.644-.052.234-.114.386-.275.455-.484.07-.21.036-.452-.098-.728l-.44-.902-1.49.726zm2.765 7.157l-1.033-2.117-1.46.712 1.207 2.475-.787.384-1.707-3.5 5.112-2.494 1.704 3.493-.79.386-1.204-2.468-1.285.626 1.033 2.117-.79.386zm2.013 4.128l-1.032-2.117-1.46.713 1.207 2.475-.787.384-1.707-3.5 5.112-2.494 1.704 3.493-.79.386-1.204-2.469-1.285.627 1.032 2.117-.79.385zM487.58 138.263l-3.43 4.74-5.563-1.818-5.562 1.819-3.43-4.741-5.57-1.798.011-5.852-3.449-4.728 3.449-4.728-.011-5.852 5.57-1.798 3.43-4.741 5.562 1.819 5.563-1.82 3.43 4.742 5.57 1.798-.012 5.852 3.45 4.728-3.45 4.728.012 5.852-5.57 1.798zm-13.233-8.897l-1.928 1.4 1.39 1.913-.923.67-3.343-4.601 3.173-2.305.516.71-2.25 1.636.92 1.267 1.929-1.4.516.71zm1.86-1.24l1.337 1.839-.923.67-3.343-4.601 1.735-1.26c.525-.382 1.022-.56 1.492-.536.47.024.86.25 1.17.678.173.238.26.487.26.748-.001.261-.083.531-.247.811.33-.117.623-.125.878-.024.255.1.483.29.684.565l.245.338c.094.129.209.25.345.365a.685.685 0 0 0 .405.182l.048.066-.95.691c-.134-.006-.27-.079-.41-.218-.141-.14-.262-.28-.365-.422l-.236-.325c-.167-.23-.36-.363-.578-.4-.218-.035-.44.029-.668.194l-.878.639zm-.516-.711l.796-.579c.26-.188.413-.384.46-.586.049-.202-.005-.41-.162-.625-.153-.211-.338-.332-.556-.364-.218-.032-.45.043-.7.224l-.812.59.974 1.34zm6.568-3.966l-1.906 1.384.956 1.315 2.227-1.619.515.708-3.15 2.29-3.344-4.602 3.144-2.284.517.71-2.222 1.615.84 1.156 1.906-1.384.517.711zm3.716-2.7l-1.905 1.384.955 1.315 2.228-1.619.514.708-3.15 2.29-3.344-4.602 3.145-2.284.516.71-2.221 1.615.84 1.156 1.906-1.384.516.71zM547.58 147.263l-3.43 4.74-5.563-1.818-5.562 1.819-3.43-4.741-5.57-1.798.011-5.852-3.449-4.728 3.449-4.728-.011-5.852 5.57-1.798 3.43-4.741 5.562 1.819 5.563-1.82 3.43 4.742 5.57 1.798-.012 5.852 3.45 4.728-3.45 4.728.012 5.852-5.57 1.798zm-13.233-8.897l-1.928 1.4 1.39 1.913-.923.67-3.343-4.601 3.173-2.305.516.71-2.25 1.636.92 1.267 1.929-1.4.516.71zm1.86-1.24l1.337 1.839-.923.67-3.343-4.601 1.735-1.26c.525-.382 1.022-.56 1.492-.536.47.024.86.25 1.17.678.173.238.26.487.26.748-.001.261-.083.531-.247.811.33-.117.623-.125.878-.024.255.1.483.29.684.565l.245.338c.094.129.209.25.345.365a.685.685 0 0 0 .405.182l.048.066-.95.691c-.134-.006-.27-.079-.41-.218-.141-.14-.262-.28-.365-.422l-.236-.325c-.167-.23-.36-.363-.578-.4-.218-.035-.44.029-.668.194l-.878.639zm-.516-.711l.796-.579c.26-.188.413-.384.46-.586.049-.202-.005-.41-.162-.625-.153-.211-.338-.332-.556-.364-.218-.032-.45.043-.7.224l-.812.59.974 1.34zm6.568-3.966l-1.906 1.384.956 1.315 2.227-1.619.515.708-3.15 2.29-3.344-4.602 3.144-2.284.517.71-2.222 1.615.84 1.156 1.906-1.384.517.711zm3.716-2.7l-1.905 1.384.955 1.315 2.228-1.619.514.708-3.15 2.29-3.344-4.602 3.145-2.284.516.71-2.221 1.615.84 1.156 1.906-1.384.516.71z"/></g></svg>