<svg xmlns="http://www.w3.org/2000/svg" viewBox="0 0 605 180"><title>full-color-ansible</title><g fill-rule="evenodd"><path d="M56.916 12.472c4.954 8.58 2.015 19.551-6.566 24.505-8.58 4.954-19.551 2.015-24.505-6.566-4.953-8.58-2.013-19.551 6.566-24.505 8.58-4.954 19.552-2.013 24.505 6.566"/><path d="M37.864 15.281l9.75 7.602-8.835-1.278-.915-6.324zm14.191 8.085L37.279 12.054c-.425-.327-.909-.35-1.337-.103a1.19 1.19 0 0 0-.606 1.224l2.638 20.243 2.321-1.34-1.199-8.282 11.758 1.848c.474.075.774.059 1.077-.116.606-.35.873-1.11.494-1.765a1.697 1.697 0 0 0-.37-.397zM95.862 57.678C94.142 67.435 84.837 73.95 75.08 72.23c-9.756-1.72-16.272-11.024-14.551-20.78 1.72-9.757 11.025-16.273 20.781-14.552 9.758 1.72 16.272 11.025 14.552 20.781"/><path d="M79.462 47.584l2.582 12.09-5.947-6.658 3.365-5.432zm5.673 15.314l-4.048-18.163c-.115-.524-.47-.853-.958-.939a1.19 1.19 0 0 0-1.25.55L67.886 61.547l2.64.465 4.405-7.115 7.819 8.974c.314.361.555.542.9.603.688.121 1.381-.289 1.513-1.034a1.697 1.697 0 0 0-.029-.543zM146.916 21.472c4.954 8.58 2.015 19.551-6.566 24.505-8.58 4.954-19.551 2.015-24.505-6.566-4.953-8.58-2.013-19.551 6.566-24.505 8.58-4.954 19.552-2.013 24.505 6.566"/><path d="M127.864 24.281l9.75 7.602-8.835-1.278-.915-6.324zm14.191 8.085l-14.776-11.312c-.425-.327-.909-.35-1.337-.103a1.19 1.19 0 0 0-.606 1.224l2.638 20.243 2.321-1.34-1.199-8.282 11.758 1.848c.474.075.774.059 1.077-.116.606-.35.873-1.11.494-1.765a1.697 1.697 0 0 0-.37-.397zM215.211 41.184c-3.388 9.31-13.682 14.11-22.992 10.722-9.31-3.389-14.11-13.683-10.722-22.993 3.388-9.31 13.683-14.11 22.993-10.721 9.31 3.388 14.11 13.683 10.721 22.992"/><path d="M200.813 28.395l.444 12.354-4.7-7.588 4.256-4.766zm2.928 16.067l-.832-18.59c-.022-.536-.316-.921-.78-1.09a1.19 1.19 0 0 0-1.328.323L186.99 40.137l2.519.917 5.573-6.242 6.142 10.195c.247.41.453.63.781.75.658.24 1.412-.044 1.67-.756.043-.115.069-.314.066-.539zM277.916 18.472c4.954 8.58 2.015 19.551-6.566 24.505-8.58 4.954-19.551 2.015-24.505-6.566-4.953-8.58-2.013-19.551 6.566-24.505 8.58-4.954 19.552-2.013 24.505 6.566"/><path d="M258.864 21.281l9.75 7.602-8.835-1.278-.915-6.324zm14.191 8.085l-14.776-11.312c-.425-.327-.909-.35-1.337-.103a1.19 1.19 0 0 0-.606 1.224l2.638 20.243 2.321-1.34-1.199-8.282 11.758 1.848c.474.075.774.059 1.077-.116.606-.35.873-1.11.494-1.765a1.697 1.697 0 0 0-.37-.397zM370.724 45.644c-5.103 8.493-16.123 11.24-24.616 6.138-8.492-5.103-11.24-16.124-6.137-24.616 5.102-8.492 16.124-11.24 24.616-6.138 8.493 5.103 11.24 16.124 6.137 24.616"/><path d="M359.031 30.343l-1.922 12.212-3.165-8.346 5.087-3.866zm-.191 16.33l2.73-18.407c.08-.53-.134-.965-.558-1.22a1.19 1.19 0 0 0-1.365.065l-16.426 12.12 2.298 1.381 6.662-5.064 4.084 11.18c.164.45.324.705.624.885.6.36 1.393.226 1.783-.423.063-.105.127-.295.168-.516zM441.031 21.999c7.127 6.882 7.325 18.238.443 25.365-6.882 7.127-18.239 7.326-25.366.443-7.126-6.882-7.325-18.24-.442-25.366 6.882-7.127 18.239-7.324 25.365-.442"/><path d="M423.492 29.95l11.466 4.62-8.844 1.207-2.622-5.827zm15.869 3.86l-17.322-6.8c-.498-.198-.97-.087-1.314.269a1.19 1.19 0 0 0-.244 1.344l8.115 18.731 1.862-1.928-3.435-7.63 11.812-1.465c.475-.058.76-.157 1.002-.408.486-.503.534-1.307-.01-1.833a1.697 1.697 0 0 0-.466-.28zM523.015 15.327c5.824 8.016 4.047 19.234-3.969 25.057-8.015 5.823-19.233 4.047-25.057-3.968-5.823-8.015-4.046-19.234 3.969-25.058 8.015-5.823 19.234-4.046 25.057 3.97"/><path d="M504.361 20.112l10.49 6.54-8.92-.346-1.57-6.194zm14.958 6.557l-15.878-9.705c-.456-.281-.94-.254-1.34.037-.401.291-.6.76-.475 1.281l4.74 19.856 2.168-1.575-2.058-8.111 11.887.609c.478.024.776-.023 1.058-.229.566-.41.753-1.194.308-1.807a1.697 1.697 0 0 0-.41-.356zM568.935 60.5c-5.54 8.214-16.69 10.38-24.903 4.84-8.214-5.54-10.382-16.69-4.841-24.903 5.54-8.213 16.69-10.38 24.903-4.84 8.214 5.54 10.381 16.69 4.841 24.903"/><path d="M558.059 44.607L555.5 56.702l-2.724-8.5 5.283-3.595zm-1.046 16.299l3.69-18.24c.107-.525-.084-.97-.494-1.247a1.19 1.19 0 0 0-1.366-.007l-17.038 11.244 2.223 1.5 6.918-4.709 3.493 11.378c.14.458.287.721.576.917.58.39 1.38.298 1.803-.33.07-.102.142-.288.195-.506zM39.211 82.184c-3.388 9.31-13.682 14.11-22.992 10.722-9.31-3.389-14.11-13.683-10.722-22.993 3.388-9.31 13.683-14.11 22.993-10.721C37.8 62.58 42.6 72.875 39.21 82.184"/><path d="M24.813 69.395l.444 12.354-4.7-7.588 4.256-4.766zm2.928 16.067l-.832-18.59c-.022-.536-.316-.921-.78-1.09a1.19 1.19 0 0 0-1.328.323L10.99 81.137l2.519.917 5.573-6.242 6.142 10.195c.247.41.453.63.781.75.658.24 1.412-.044 1.67-.756.043-.115.069-.314.066-.539zM136.916 76.472c4.954 8.58 2.015 19.551-6.566 24.505-8.58 4.954-19.551 2.015-24.505-6.566-4.953-8.58-2.013-19.551 6.566-24.505 8.58-4.954 19.552-2.013 24.505 6.566"/><path d="M117.864 79.281l9.75 7.602-8.835-1.278-.915-6.324zm14.191 8.085l-14.776-11.312c-.425-.327-.909-.35-1.337-.103a1.19 1.19 0 0 0-.606 1.224l2.638 20.243 2.321-1.34-1.199-8.282 11.758 1.848c.474.075.774.059 1.077-.116.606-.35.873-1.11.494-1.765a1.697 1.697 0 0 0-.37-.397zM188.878 76.939c0 9.908-8.031 17.939-17.939 17.939-9.907 0-17.939-8.031-17.939-17.939C153 67.032 161.032 59 170.939 59c9.908 0 17.939 8.032 17.939 17.939"/><path d="M170.974 69.846l4.642 11.457-7.012-5.523 2.37-5.934zm8.247 14.097l-7.14-17.185c-.205-.496-.612-.758-1.107-.758a1.19 1.19 0 0 0-1.137.758L162 85.608h2.681l3.103-7.772 9.258 7.48c.373.3.641.437.99.437.7 0 1.311-.525 1.311-1.282 0-.123-.043-.318-.122-.528zM249.916 66.472c4.954 8.58 2.015 19.551-6.566 24.505-8.58 4.954-19.551 2.015-24.505-6.566-4.953-8.58-2.013-19.551 6.566-24.505 8.58-4.954 19.552-2.013 24.505 6.566"/><path d="M230.864 69.281l9.75 7.602-8.835-1.278-.915-6.324zm14.191 8.085l-14.776-11.312c-.425-.327-.909-.35-1.337-.103a1.19 1.19 0 0 0-.606 1.224l2.638 20.243 2.321-1.34-1.199-8.282 11.758 1.848c.474.075.774.059 1.077-.116.606-.35.873-1.11.494-1.765a1.697 1.697 0 0 0-.37-.397zM299.23 98.08c1.72 9.757-4.794 19.06-14.552 20.781-9.756 1.72-19.06-4.794-20.781-14.55-1.72-9.757 4.795-19.062 14.551-20.782 9.757-1.72 19.061 4.795 20.782 14.551"/><path d="M280.366 94.203l6.561 10.478-7.864-4.222 1.303-6.256zm10.57 12.451l-10.017-15.683c-.287-.453-.734-.64-1.22-.555a1.19 1.19 0 0 0-.989.944l-4.445 19.924 2.64-.466 1.706-8.192 10.417 5.759c.42.231.707.319 1.051.258.69-.121 1.2-.744 1.069-1.49a1.697 1.697 0 0 0-.212-.499zM326.23 58.08c1.72 9.757-4.794 19.06-14.552 20.781-9.756 1.72-19.06-4.794-20.781-14.55-1.72-9.757 4.795-19.062 14.551-20.782 9.757-1.72 19.061 4.795 20.782 14.551"/><path d="M307.366 54.203l6.561 10.478-7.864-4.222 1.303-6.256zm10.57 12.451l-10.017-15.683c-.287-.453-.734-.64-1.22-.555a1.19 1.19 0 0 0-.989.944l-4.445 19.924 2.64-.466 1.706-8.192 10.417 5.759c.42.231.707.319 1.051.258.69-.121 1.2-.744 1.069-1.49a1.697 1.697 0 0 0-.212-.499zM400.015 63.327c5.824 8.016 4.047 19.234-3.969 25.057-8.015 5.823-19.233 4.047-25.057-3.968-5.823-8.015-4.046-19.234 3.969-25.058 8.015-5.823 19.234-4.046 25.057 3.97"/><path d="M381.361 68.112l10.49 6.54-8.92-.346-1.57-6.194zm14.958 6.557l-15.878-9.705c-.456-.281-.94-.254-1.34.037-.401.291-.6.76-.475 1.281l4.74 19.856 2.168-1.575-2.058-8.111 11.887.609c.478.024.776-.023 1.058-.229.566-.41.753-1.194.308-1.807a1.697 1.697 0 0 0-.41-.356zM481.384 77.497c-4.03 9.051-14.633 13.121-23.684 9.091-9.05-4.03-13.122-14.633-9.092-23.684 4.03-9.05 14.634-13.121 23.685-9.092 9.051 4.03 13.121 14.635 9.091 23.685"/><path d="M467.914 63.735l-.42 12.355-4.159-7.898 4.579-4.457zm1.8 16.232l.466-18.603c.015-.536-.25-.941-.702-1.142a1.19 1.19 0 0 0-1.347.23l-14.827 14.032 2.45 1.09 5.995-5.838 5.416 10.6c.218.426.408.66.727.801.639.285 1.41.055 1.718-.637.05-.112.09-.309.104-.533z"/><g><path d="M534.55 89.456c-.691 9.883-9.263 17.334-19.147 16.643-9.883-.69-17.335-9.263-16.644-19.146.691-9.883 9.264-17.335 19.147-16.644 9.884.691 17.335 9.264 16.644 19.147"/><path d="M517.185 81.13l3.831 11.754-6.61-6 2.779-5.754zm7.243 14.638l-5.925-17.64c-.168-.51-.557-.8-1.05-.834a1.19 1.19 0 0 0-1.187.677l-9.133 18.257 2.674.187 3.637-7.537 8.715 8.108c.35.326.609.48.957.505.698.049 1.344-.431 1.397-1.186a1.697 1.697 0 0 0-.085-.537z"/></g><g><path d="M593.015 84.327c5.824 8.016 4.047 19.234-3.969 25.057-8.015 5.823-19.233 4.047-25.057-3.968-5.823-8.015-4.046-19.234 3.969-25.058 8.015-5.823 19.234-4.046 25.057 3.97"/><path d="M574.361 89.112l10.49 6.54-8.92-.346-1.57-6.194zm14.958 6.557l-15.878-9.705c-.456-.281-.94-.254-1.34.037-.401.291-.6.76-.475 1.281l4.74 19.856 2.168-1.575-2.058-8.111 11.887.609c.478.024.776-.023 1.058-.229.566-.41.753-1.194.308-1.807a1.697 1.697 0 0 0-.41-.356z"/></g><g><path d="M77.211 111.184c-3.388 9.31-13.682 14.11-22.992 10.722-9.31-3.389-14.11-13.683-10.722-22.993 3.388-9.31 13.683-14.11 22.993-10.721 9.31 3.388 14.11 13.683 10.721 22.992"/><path d="M62.813 98.395l.444 12.354-4.7-7.588 4.256-4.766zm2.928 16.067l-.832-18.59c-.022-.536-.316-.921-.78-1.09a1.19 1.19 0 0 0-1.328.323L48.99 110.137l2.519.917 5.573-6.242 6.142 10.195c.247.41.453.63.781.75.658.24 1.412-.044 1.67-.756.043-.115.069-.314.066-.539z"/></g><g><path d="M49.906 135.219c3.388 9.31-1.412 19.603-10.722 22.992-9.31 3.389-19.604-1.411-22.992-10.721-3.389-9.31 1.412-19.605 10.721-22.993 9.31-3.389 19.604 1.412 22.993 10.722"/><path d="M30.656 134.677l8.28 9.178-8.478-2.792.198-6.386zm12.57 10.426L30.64 131.397c-.361-.396-.834-.503-1.299-.334a1.19 1.19 0 0 0-.809 1.1l-.918 20.394 2.52-.917.257-8.364 11.259 3.862c.453.156.752.192 1.08.072.657-.239 1.052-.94.793-1.652a1.697 1.697 0 0 0-.295-.455z"/></g><g><path d="M109.878 143.939c0 9.908-8.031 17.939-17.939 17.939-9.907 0-17.939-8.031-17.939-17.939C74 134.032 82.032 126 91.939 126c9.908 0 17.939 8.032 17.939 17.939"/><path d="M91.974 136.846l4.642 11.457-7.012-5.523 2.37-5.934zm8.247 14.097l-7.14-17.185c-.205-.496-.612-.758-1.107-.758a1.19 1.19 0 0 0-1.137.758L83 152.608h2.681l3.103-7.772 9.258 7.48c.373.3.641.437.99.437.7 0 1.311-.525 1.311-1.282 0-.123-.043-.318-.122-.528z"/></g><g><path d="M160.211 133.184c-3.388 9.31-13.682 14.11-22.992 10.722-9.31-3.389-14.11-13.683-10.722-22.993 3.388-9.31 13.683-14.11 22.993-10.721 9.31 3.388 14.11 13.683 10.721 22.992"/><path d="M145.813 120.395l.444 12.354-4.7-7.588 4.256-4.766zm2.928 16.067l-.832-18.59c-.022-.536-.316-.921-.78-1.09a1.19 1.19 0 0 0-1.328.323l-13.811 15.032 2.519.917 5.573-6.242 6.142 10.195c.247.41.453.63.781.75.658.24 1.412-.044 1.67-.756.043-.115.069-.314.066-.539z"/></g><g><path d="M214.211 125.184c-3.388 9.31-13.682 14.11-22.992 10.722-9.31-3.389-14.11-13.683-10.722-22.993 3.388-9.31 13.683-14.11 22.993-10.721 9.31 3.388 14.11 13.683 10.721 22.992"/><path d="M199.813 112.395l.444 12.354-4.7-7.588 4.256-4.766zm2.928 16.067l-.832-18.59c-.022-.536-.316-.921-.78-1.09a1.19 1.19 0 0 0-1.328.323l-13.811 15.032 2.519.917 5.573-6.242 6.142 10.195c.247.41.453.63.781.75.658.24 1.412-.044 1.67-.756.043-.115.069-.314.066-.539z"/></g><g><path d="M209.916 151.472c4.954 8.58 2.015 19.551-6.566 24.505-8.58 4.954-19.551 2.015-24.505-6.566-4.953-8.58-2.013-19.551 6.566-24.505 8.58-4.954 19.552-2.013 24.505 6.566"/><path d="M190.864 154.281l9.75 7.602-8.835-1.278-.915-6.324zm14.191 8.085l-14.776-11.312c-.425-.327-.909-.35-1.337-.103a1.19 1.19 0 0 0-.606 1.224l2.638 20.243 2.321-1.34-1.199-8.282 11.758 1.848c.474.075.774.059 1.077-.116.606-.35.873-1.11.494-1.765a1.697 1.697 0 0 0-.37-.397z"/></g><g><path d="M269.916 133.472c4.954 8.58 2.015 19.551-6.566 24.505-8.58 4.954-19.551 2.015-24.505-6.566-4.953-8.58-2.013-19.551 6.566-24.505 8.58-4.954 19.552-2.013 24.505 6.566"/><path d="M250.864 136.281l9.75 7.602-8.835-1.278-.915-6.324zm14.191 8.085l-14.776-11.312c-.425-.327-.909-.35-1.337-.103a1.19 1.19 0 0 0-.606 1.224l2.638 20.243 2.321-1.34-1.199-8.282 11.758 1.848c.474.075.774.059 1.077-.116.606-.35.873-1.11.494-1.765a1.697 1.697 0 0 0-.37-.397z"/></g><g><path d="M315.045 159.291c-7.59 6.369-18.904 5.38-25.272-2.21-6.369-7.59-5.38-18.905 2.21-25.274 7.59-6.368 18.905-5.378 25.274 2.211 6.368 7.59 5.378 18.905-2.212 25.273"/><path d="M308.971 141.017l-5.793 10.92-.276-8.921 6.069-2zm-5.498 15.379l8.574-16.517c.249-.474.188-.955-.13-1.334a1.19 1.19 0 0 0-1.311-.384l-19.478 6.113 1.724 2.053 7.947-2.618.222 11.9c.008.479.077.772.301 1.04.45.535 1.245.667 1.824.18.095-.079.217-.238.327-.433z"/></g><g><path d="M351.08 85.772c7.59 6.369 8.58 17.683 2.211 25.273-6.368 7.59-17.683 8.58-25.273 2.212-7.589-6.369-8.579-17.684-2.21-25.273 6.368-7.59 17.683-8.58 25.272-2.212"/><path d="M334.138 94.928l11.761 3.809-8.738 1.82-3.023-5.629zm16.1 2.744l-17.754-5.576c-.51-.163-.974-.019-1.292.36a1.19 1.19 0 0 0-.15 1.358l9.402 18.12 1.723-2.054-3.959-7.372 11.681-2.285c.47-.091.747-.21.972-.477.45-.536.44-1.341-.14-1.828a1.697 1.697 0 0 0-.483-.246z"/></g><g><path d="M393.384 139.497c-4.03 9.051-14.633 13.121-23.684 9.091-9.05-4.03-13.122-14.633-9.092-23.684 4.03-9.05 14.634-13.121 23.685-9.092 9.051 4.03 13.121 14.635 9.091 23.685"/><path d="M379.914 125.735l-.42 12.355-4.159-7.898 4.579-4.457zm1.8 16.232l.466-18.603c.015-.536-.25-.941-.702-1.142a1.19 1.19 0 0 0-1.347.23l-14.827 14.032 2.45 1.09 5.995-5.838 5.416 10.6c.218.426.408.66.727.801.639.285 1.41.055 1.718-.637.05-.112.09-.309.104-.533z"/></g><g><path d="M444.384 115.497c-4.03 9.051-14.633 13.121-23.684 9.091-9.05-4.03-13.122-14.633-9.092-23.684 4.03-9.05 14.634-13.121 23.685-9.092 9.051 4.03 13.121 14.635 9.091 23.685"/><path d="M430.914 101.735l-.42 12.355-4.159-7.898 4.579-4.457zm1.8 16.232l.466-18.603c.015-.536-.25-.941-.702-1.142a1.19 1.19 0 0 0-1.347.23l-14.827 14.032 2.45 1.09 5.995-5.838 5.416 10.6c.218.426.408.66.727.801.639.285 1.41.055 1.718-.637.05-.112.09-.309.104-.533z"/></g><g><path d="M425.05 176.39c-8.905 4.344-19.644.646-23.987-8.26-4.343-8.903-.646-19.643 8.26-23.986 8.904-4.343 19.644-.645 23.987 8.26 4.343 8.904.645 19.644-8.26 23.987"/><path d="M423.577 157.19l-8.263 9.194 1.89-8.723 6.373-.472zm-9.055 13.591l12.315-13.951c.357-.4.414-.882.197-1.327a1.19 1.19 0 0 0-1.18-.69l-20.377 1.22 1.175 2.41 8.345-.619-2.664 11.6c-.107.467-.112.768.041 1.082.307.629 1.046.949 1.726.617.111-.054.268-.179.422-.342z"/></g><g><path d="M493.015 115.327c5.824 8.016 4.047 19.234-3.969 25.057-8.015 5.823-19.233 4.047-25.057-3.968-5.823-8.015-4.046-19.234 3.969-25.058 8.015-5.823 19.234-4.046 25.057 3.97"/><path d="M474.361 120.112l10.49 6.54-8.92-.346-1.57-6.194zm14.958 6.557l-15.878-9.705c-.456-.281-.94-.254-1.34.037-.401.291-.6.76-.475 1.281l4.74 19.856 2.168-1.575-2.058-8.111 11.887.609c.478.024.776-.023 1.058-.229.566-.41.753-1.194.308-1.807a1.697 1.697 0 0 0-.41-.356z"/></g><g><path d="M553.015 124.327c5.824 8.016 4.047 19.234-3.969 25.057-8.015 5.823-19.233 4.047-25.057-3.968-5.823-8.015-4.046-19.234 3.969-25.058 8.015-5.823 19.234-4.046 25.057 3.97"/><path d="M534.361 129.112l10.49 6.54-8.92-.346-1.57-6.194zm14.958 6.557l-15.878-9.705c-.456-.281-.94-.254-1.34.037-.401.291-.6.76-.475 1.281l4.74 19.856 2.168-1.575-2.058-8.111 11.887.609c.478.024.776-.023 1.058-.229.566-.41.753-1.194.308-1.807a1.697 1.697 0 0 0-.41-.356z"/></g></g></svg>