<svg xmlns="http://www.w3.org/2000/svg" xmlns:xlink="http://www.w3.org/1999/xlink" viewBox="0 0 605 180"><title>full-color-solano-labs</title><defs><path id="a" d="M35.773.367H.415v25.305h35.358V.367z"/></defs><g fill-rule="evenodd"><g transform="rotate(-30 45.526 -26.553)"><mask id="b"><use xlink:href="#a"/></mask><path d="M21.74 15.402C16.345 12.719 7.578 11.882 9.036 4.2-2.461 5.61-2.23 19.306 8.363 21.31c-.134-2.308-.224-4.47-.003-3.249.266 1.484.783 2.524 1.55 3.46l.01.002c3.619 4.368 11.3 5.774 14.649 1.833 2.647-3.115.542-6.279-2.83-7.954" mask="url(#b)"/><path d="M28.1 4.781c.233 2.792.407 5.38.114 3.907-.359-1.8-.99-3.05-1.904-4.168-.015 0-.028-.003-.042-.004-3.62-4.368-11.3-5.775-14.65-1.834-2.646 3.116-.541 6.28 2.83 7.955 5.394 2.683 14.161 3.519 12.704 11.202 11.397-1.397 11.27-14.87.949-17.058" mask="url(#b)"/></g><path d="M21.74 15.402C16.345 12.719 7.578 11.882 9.036 4.2-2.461 5.61-2.23 19.306 8.363 21.31c-.134-2.308-.224-4.47-.003-3.249.266 1.484.783 2.524 1.55 3.46l.01.002c3.619 4.368 11.3 5.774 14.649 1.833 2.647-3.115.542-6.279-2.83-7.954" mask="url(#b)" transform="rotate(10 -189.816 378.117)"/><path d="M28.1 4.781c.233 2.792.407 5.38.114 3.907-.359-1.8-.99-3.05-1.904-4.168-.015 0-.028-.003-.042-.004-3.62-4.368-11.3-5.775-14.65-1.834-2.646 3.116-.541 6.28 2.83 7.955 5.394 2.683 14.161 3.519 12.704 11.202 11.397-1.397 11.27-14.87.949-17.058" mask="url(#b)" transform="rotate(10 -189.816 378.117)"/><path d="M21.74 15.402C16.345 12.719 7.578 11.882 9.036 4.2-2.461 5.61-2.23 19.306 8.363 21.31c-.134-2.308-.224-4.47-.003-3.249.266 1.484.783 2.524 1.55 3.46l.01.002c3.619 4.368 11.3 5.774 14.649 1.833 2.647-3.115.542-6.279-2.83-7.954" mask="url(#b)" transform="rotate(-30 107.32 -189.995)"/><path d="M28.1 4.781c.233 2.792.407 5.38.114 3.907-.359-1.8-.99-3.05-1.904-4.168-.015 0-.028-.003-.042-.004-3.62-4.368-11.3-5.775-14.65-1.834-2.646 3.116-.541 6.28 2.83 7.955 5.394 2.683 14.161 3.519 12.704 11.202 11.397-1.397 11.27-14.87.949-17.058" mask="url(#b)" transform="rotate(-30 107.32 -189.995)"/><path d="M21.74 15.402C16.345 12.719 7.578 11.882 9.036 4.2-2.461 5.61-2.23 19.306 8.363 21.31c-.134-2.308-.224-4.47-.003-3.249.266 1.484.783 2.524 1.55 3.46l.01.002c3.619 4.368 11.3 5.774 14.649 1.833 2.647-3.115.542-6.279-2.83-7.954" mask="url(#b)" transform="rotate(20 45.452 535.587)"/><path d="M28.1 4.781c.233 2.792.407 5.38.114 3.907-.359-1.8-.99-3.05-1.904-4.168-.015 0-.028-.003-.042-.004-3.62-4.368-11.3-5.775-14.65-1.834-2.646 3.116-.541 6.28 2.83 7.955 5.394 2.683 14.161 3.519 12.704 11.202 11.397-1.397 11.27-14.87.949-17.058" mask="url(#b)" transform="rotate(20 45.452 535.587)"/><path d="M21.74 15.402C16.345 12.719 7.578 11.882 9.036 4.2-2.461 5.61-2.23 19.306 8.363 21.31c-.134-2.308-.224-4.47-.003-3.249.266 1.484.783 2.524 1.55 3.46l.01.002c3.619 4.368 11.3 5.774 14.649 1.833 2.647-3.115.542-6.279-2.83-7.954" mask="url(#b)" transform="rotate(-30 167.222 -435.944)"/><path d="M28.1 4.781c.233 2.792.407 5.38.114 3.907-.359-1.8-.99-3.05-1.904-4.168-.015 0-.028-.003-.042-.004-3.62-4.368-11.3-5.775-14.65-1.834-2.646 3.116-.541 6.28 2.83 7.955 5.394 2.683 14.161 3.519 12.704 11.202 11.397-1.397 11.27-14.87.949-17.058" mask="url(#b)" transform="rotate(-30 167.222 -435.944)"/><path d="M21.74 15.402C16.345 12.719 7.578 11.882 9.036 4.2-2.461 5.61-2.23 19.306 8.363 21.31c-.134-2.308-.224-4.47-.003-3.249.266 1.484.783 2.524 1.55 3.46l.01.002c3.619 4.368 11.3 5.774 14.649 1.833 2.647-3.115.542-6.279-2.83-7.954" mask="url(#b)" transform="rotate(31 144.335 633)"/><path d="M28.1 4.781c.233 2.792.407 5.38.114 3.907-.359-1.8-.99-3.05-1.904-4.168-.015 0-.028-.003-.042-.004-3.62-4.368-11.3-5.775-14.65-1.834-2.646 3.116-.541 6.28 2.83 7.955 5.394 2.683 14.161 3.519 12.704 11.202 11.397-1.397 11.27-14.87.949-17.058" mask="url(#b)" transform="rotate(31 144.335 633)"/><path d="M21.74 15.402C16.345 12.719 7.578 11.882 9.036 4.2-2.461 5.61-2.23 19.306 8.363 21.31c-.134-2.308-.224-4.47-.003-3.249.266 1.484.783 2.524 1.55 3.46l.01.002c3.619 4.368 11.3 5.774 14.649 1.833 2.647-3.115.542-6.279-2.83-7.954" mask="url(#b)" transform="rotate(-46 249.126 -459.772)"/><path d="M28.1 4.781c.233 2.792.407 5.38.114 3.907-.359-1.8-.99-3.05-1.904-4.168-.015 0-.028-.003-.042-.004-3.62-4.368-11.3-5.775-14.65-1.834-2.646 3.116-.541 6.28 2.83 7.955 5.394 2.683 14.161 3.519 12.704 11.202 11.397-1.397 11.27-14.87.949-17.058" mask="url(#b)" transform="rotate(-46 249.126 -459.772)"/><path d="M21.74 15.402C16.345 12.719 7.578 11.882 9.036 4.2-2.461 5.61-2.23 19.306 8.363 21.31c-.134-2.308-.224-4.47-.003-3.249.266 1.484.783 2.524 1.55 3.46l.01.002c3.619 4.368 11.3 5.774 14.649 1.833 2.647-3.115.542-6.279-2.83-7.954" mask="url(#b)" transform="rotate(-36 283.121 -735.494)"/><path d="M28.1 4.781c.233 2.792.407 5.38.114 3.907-.359-1.8-.99-3.05-1.904-4.168-.015 0-.028-.003-.042-.004-3.62-4.368-11.3-5.775-14.65-1.834-2.646 3.116-.541 6.28 2.83 7.955 5.394 2.683 14.161 3.519 12.704 11.202 11.397-1.397 11.27-14.87.949-17.058" mask="url(#b)" transform="rotate(-36 283.121 -735.494)"/><path d="M21.74 15.402C16.345 12.719 7.578 11.882 9.036 4.2-2.461 5.61-2.23 19.306 8.363 21.31c-.134-2.308-.224-4.47-.003-3.249.266 1.484.783 2.524 1.55 3.46l.01.002c3.619 4.368 11.3 5.774 14.649 1.833 2.647-3.115.542-6.279-2.83-7.954" mask="url(#b)" transform="rotate(34 224.625 908.495)"/><path d="M28.1 4.781c.233 2.792.407 5.38.114 3.907-.359-1.8-.99-3.05-1.904-4.168-.015 0-.028-.003-.042-.004-3.62-4.368-11.3-5.775-14.65-1.834-2.646 3.116-.541 6.28 2.83 7.955 5.394 2.683 14.161 3.519 12.704 11.202 11.397-1.397 11.27-14.87.949-17.058" mask="url(#b)" transform="rotate(34 224.625 908.495)"/><path d="M21.74 15.402C16.345 12.719 7.578 11.882 9.036 4.2-2.461 5.61-2.23 19.306 8.363 21.31c-.134-2.308-.224-4.47-.003-3.249.266 1.484.783 2.524 1.55 3.46l.01.002c3.619 4.368 11.3 5.774 14.649 1.833 2.647-3.115.542-6.279-2.83-7.954" mask="url(#b)" transform="rotate(20 -158.81 57.014)"/><path d="M28.1 4.781c.233 2.792.407 5.38.114 3.907-.359-1.8-.99-3.05-1.904-4.168-.015 0-.028-.003-.042-.004-3.62-4.368-11.3-5.775-14.65-1.834-2.646 3.116-.541 6.28 2.83 7.955 5.394 2.683 14.161 3.519 12.704 11.202 11.397-1.397 11.27-14.87.949-17.058" mask="url(#b)" transform="rotate(20 -158.81 57.014)"/><path d="M21.74 15.402C16.345 12.719 7.578 11.882 9.036 4.2-2.461 5.61-2.23 19.306 8.363 21.31c-.134-2.308-.224-4.47-.003-3.249.266 1.484.783 2.524 1.55 3.46l.01.002c3.619 4.368 11.3 5.774 14.649 1.833 2.647-3.115.542-6.279-2.83-7.954" mask="url(#b)" transform="rotate(-30 204.952 -143.835)"/><path d="M28.1 4.781c.233 2.792.407 5.38.114 3.907-.359-1.8-.99-3.05-1.904-4.168-.015 0-.028-.003-.042-.004-3.62-4.368-11.3-5.775-14.65-1.834-2.646 3.116-.541 6.28 2.83 7.955 5.394 2.683 14.161 3.519 12.704 11.202 11.397-1.397 11.27-14.87.949-17.058" mask="url(#b)" transform="rotate(-30 204.952 -143.835)"/><path d="M21.74 15.402C16.345 12.719 7.578 11.882 9.036 4.2-2.461 5.61-2.23 19.306 8.363 21.31c-.134-2.308-.224-4.47-.003-3.249.266 1.484.783 2.524 1.55 3.46l.01.002c3.619 4.368 11.3 5.774 14.649 1.833 2.647-3.115.542-6.279-2.83-7.954" mask="url(#b)" transform="translate(153 64)"/><path d="M28.1 4.781c.233 2.792.407 5.38.114 3.907-.359-1.8-.99-3.05-1.904-4.168-.015 0-.028-.003-.042-.004-3.62-4.368-11.3-5.775-14.65-1.834-2.646 3.116-.541 6.28 2.83 7.955 5.394 2.683 14.161 3.519 12.704 11.202 11.397-1.397 11.27-14.87.949-17.058" mask="url(#b)" transform="translate(153 64)"/><g><path d="M21.74 15.402C16.345 12.719 7.578 11.882 9.036 4.2-2.461 5.61-2.23 19.306 8.363 21.31c-.134-2.308-.224-4.47-.003-3.249.266 1.484.783 2.524 1.55 3.46l.01.002c3.619 4.368 11.3 5.774 14.649 1.833 2.647-3.115.542-6.279-2.83-7.954" mask="url(#b)" transform="rotate(-30 242.792 -359.695)"/><path d="M28.1 4.781c.233 2.792.407 5.38.114 3.907-.359-1.8-.99-3.05-1.904-4.168-.015 0-.028-.003-.042-.004-3.62-4.368-11.3-5.775-14.65-1.834-2.646 3.116-.541 6.28 2.83 7.955 5.394 2.683 14.161 3.519 12.704 11.202 11.397-1.397 11.27-14.87.949-17.058" mask="url(#b)" transform="rotate(-30 242.792 -359.695)"/></g><g><path d="M21.74 15.402C16.345 12.719 7.578 11.882 9.036 4.2-2.461 5.61-2.23 19.306 8.363 21.31c-.134-2.308-.224-4.47-.003-3.249.266 1.484.783 2.524 1.55 3.46l.01.002c3.619 4.368 11.3 5.774 14.649 1.833 2.647-3.115.542-6.279-2.83-7.954" mask="url(#b)" transform="rotate(-10 654.137 -1449.552)"/><path d="M28.1 4.781c.233 2.792.407 5.38.114 3.907-.359-1.8-.99-3.05-1.904-4.168-.015 0-.028-.003-.042-.004-3.62-4.368-11.3-5.775-14.65-1.834-2.646 3.116-.541 6.28 2.83 7.955 5.394 2.683 14.161 3.519 12.704 11.202 11.397-1.397 11.27-14.87.949-17.058" mask="url(#b)" transform="rotate(-10 654.137 -1449.552)"/></g><g><path d="M21.74 15.402C16.345 12.719 7.578 11.882 9.036 4.2-2.461 5.61-2.23 19.306 8.363 21.31c-.134-2.308-.224-4.47-.003-3.249.266 1.484.783 2.524 1.55 3.46l.01.002c3.619 4.368 11.3 5.774 14.649 1.833 2.647-3.115.542-6.279-2.83-7.954" mask="url(#b)" transform="rotate(-10 439.036 -1623.858)"/><path d="M28.1 4.781c.233 2.792.407 5.38.114 3.907-.359-1.8-.99-3.05-1.904-4.168-.015 0-.028-.003-.042-.004-3.62-4.368-11.3-5.775-14.65-1.834-2.646 3.116-.541 6.28 2.83 7.955 5.394 2.683 14.161 3.519 12.704 11.202 11.397-1.397 11.27-14.87.949-17.058" mask="url(#b)" transform="rotate(-10 439.036 -1623.858)"/></g><g><path d="M21.74 15.402C16.345 12.719 7.578 11.882 9.036 4.2-2.461 5.61-2.23 19.306 8.363 21.31c-.134-2.308-.224-4.47-.003-3.249.266 1.484.783 2.524 1.55 3.46l.01.002c3.619 4.368 11.3 5.774 14.649 1.833 2.647-3.115.542-6.279-2.83-7.954" mask="url(#b)" transform="rotate(-36 295.486 -522.216)"/><path d="M28.1 4.781c.233 2.792.407 5.38.114 3.907-.359-1.8-.99-3.05-1.904-4.168-.015 0-.028-.003-.042-.004-3.62-4.368-11.3-5.775-14.65-1.834-2.646 3.116-.541 6.28 2.83 7.955 5.394 2.683 14.161 3.519 12.704 11.202 11.397-1.397 11.27-14.87.949-17.058" mask="url(#b)" transform="rotate(-36 295.486 -522.216)"/></g><g><path d="M21.74 15.402C16.345 12.719 7.578 11.882 9.036 4.2-2.461 5.61-2.23 19.306 8.363 21.31c-.134-2.308-.224-4.47-.003-3.249.266 1.484.783 2.524 1.55 3.46l.01.002c3.619 4.368 11.3 5.774 14.649 1.833 2.647-3.115.542-6.279-2.83-7.954" mask="url(#b)" transform="rotate(24 106.77 1093.19)"/><path d="M28.1 4.781c.233 2.792.407 5.38.114 3.907-.359-1.8-.99-3.05-1.904-4.168-.015 0-.028-.003-.042-.004-3.62-4.368-11.3-5.775-14.65-1.834-2.646 3.116-.541 6.28 2.83 7.955 5.394 2.683 14.161 3.519 12.704 11.202 11.397-1.397 11.27-14.87.949-17.058" mask="url(#b)" transform="rotate(24 106.77 1093.19)"/></g><g><path d="M21.74 15.402C16.345 12.719 7.578 11.882 9.036 4.2-2.461 5.61-2.23 19.306 8.363 21.31c-.134-2.308-.224-4.47-.003-3.249.266 1.484.783 2.524 1.55 3.46l.01.002c3.619 4.368 11.3 5.774 14.649 1.833 2.647-3.115.542-6.279-2.83-7.954" mask="url(#b)" transform="rotate(4 -810.36 7191.245)"/><path d="M28.1 4.781c.233 2.792.407 5.38.114 3.907-.359-1.8-.99-3.05-1.904-4.168-.015 0-.028-.003-.042-.004-3.62-4.368-11.3-5.775-14.65-1.834-2.646 3.116-.541 6.28 2.83 7.955 5.394 2.683 14.161 3.519 12.704 11.202 11.397-1.397 11.27-14.87.949-17.058" mask="url(#b)" transform="rotate(4 -810.36 7191.245)"/></g><g><path d="M21.74 15.402C16.345 12.719 7.578 11.882 9.036 4.2-2.461 5.61-2.23 19.306 8.363 21.31c-.134-2.308-.224-4.47-.003-3.249.266 1.484.783 2.524 1.55 3.46l.01.002c3.619 4.368 11.3 5.774 14.649 1.833 2.647-3.115.542-6.279-2.83-7.954" mask="url(#b)" transform="rotate(-36 424.302 -808.713)"/><path d="M28.1 4.781c.233 2.792.407 5.38.114 3.907-.359-1.8-.99-3.05-1.904-4.168-.015 0-.028-.003-.042-.004-3.62-4.368-11.3-5.775-14.65-1.834-2.646 3.116-.541 6.28 2.83 7.955 5.394 2.683 14.161 3.519 12.704 11.202 11.397-1.397 11.27-14.87.949-17.058" mask="url(#b)" transform="rotate(-36 424.302 -808.713)"/></g><g><path d="M21.74 15.402C16.345 12.719 7.578 11.882 9.036 4.2-2.461 5.61-2.23 19.306 8.363 21.31c-.134-2.308-.224-4.47-.003-3.249.266 1.484.783 2.524 1.55 3.46l.01.002c3.619 4.368 11.3 5.774 14.649 1.833 2.647-3.115.542-6.279-2.83-7.954" mask="url(#b)" transform="rotate(20 -222.043 179.268)"/><path d="M28.1 4.781c.233 2.792.407 5.38.114 3.907-.359-1.8-.99-3.05-1.904-4.168-.015 0-.028-.003-.042-.004-3.62-4.368-11.3-5.775-14.65-1.834-2.646 3.116-.541 6.28 2.83 7.955 5.394 2.683 14.161 3.519 12.704 11.202 11.397-1.397 11.27-14.87.949-17.058" mask="url(#b)" transform="rotate(20 -222.043 179.268)"/></g><g><path d="M21.74 15.402C16.345 12.719 7.578 11.882 9.036 4.2-2.461 5.61-2.23 19.306 8.363 21.31c-.134-2.308-.224-4.47-.003-3.249.266 1.484.783 2.524 1.55 3.46l.01.002c3.619 4.368 11.3 5.774 14.649 1.833 2.647-3.115.542-6.279-2.83-7.954" mask="url(#b)" transform="rotate(-20 389.633 34.301)"/><path d="M28.1 4.781c.233 2.792.407 5.38.114 3.907-.359-1.8-.99-3.05-1.904-4.168-.015 0-.028-.003-.042-.004-3.62-4.368-11.3-5.775-14.65-1.834-2.646 3.116-.541 6.28 2.83 7.955 5.394 2.683 14.161 3.519 12.704 11.202 11.397-1.397 11.27-14.87.949-17.058" mask="url(#b)" transform="rotate(-20 389.633 34.301)"/></g><g><path d="M21.74 15.402C16.345 12.719 7.578 11.882 9.036 4.2-2.461 5.61-2.23 19.306 8.363 21.31c-.134-2.308-.224-4.47-.003-3.249.266 1.484.783 2.524 1.55 3.46l.01.002c3.619 4.368 11.3 5.774 14.649 1.833 2.647-3.115.542-6.279-2.83-7.954" mask="url(#b)" transform="translate(74 131)"/><path d="M28.1 4.781c.233 2.792.407 5.38.114 3.907-.359-1.8-.99-3.05-1.904-4.168-.015 0-.028-.003-.042-.004-3.62-4.368-11.3-5.775-14.65-1.834-2.646 3.116-.541 6.28 2.83 7.955 5.394 2.683 14.161 3.519 12.704 11.202 11.397-1.397 11.27-14.87.949-17.058" mask="url(#b)" transform="translate(74 131)"/></g><g><path d="M21.74 15.402C16.345 12.719 7.578 11.882 9.036 4.2-2.461 5.61-2.23 19.306 8.363 21.31c-.134-2.308-.224-4.47-.003-3.249.266 1.484.783 2.524 1.55 3.46l.01.002c3.619 4.368 11.3 5.774 14.649 1.833 2.647-3.115.542-6.279-2.83-7.954" mask="url(#b)" transform="rotate(20 -242.927 425.626)"/><path d="M28.1 4.781c.233 2.792.407 5.38.114 3.907-.359-1.8-.99-3.05-1.904-4.168-.015 0-.028-.003-.042-.004-3.62-4.368-11.3-5.775-14.65-1.834-2.646 3.116-.541 6.28 2.83 7.955 5.394 2.683 14.161 3.519 12.704 11.202 11.397-1.397 11.27-14.87.949-17.058" mask="url(#b)" transform="rotate(20 -242.927 425.626)"/></g><g><path d="M21.74 15.402C16.345 12.719 7.578 11.882 9.036 4.2-2.461 5.61-2.23 19.306 8.363 21.31c-.134-2.308-.224-4.47-.003-3.249.266 1.484.783 2.524 1.55 3.46l.01.002c3.619 4.368 11.3 5.774 14.649 1.833 2.647-3.115.542-6.279-2.83-7.954" mask="url(#b)" transform="rotate(20 -193.242 574.751)"/><path d="M28.1 4.781c.233 2.792.407 5.38.114 3.907-.359-1.8-.99-3.05-1.904-4.168-.015 0-.028-.003-.042-.004-3.62-4.368-11.3-5.775-14.65-1.834-2.646 3.116-.541 6.28 2.83 7.955 5.394 2.683 14.161 3.519 12.704 11.202 11.397-1.397 11.27-14.87.949-17.058" mask="url(#b)" transform="rotate(20 -193.242 574.751)"/></g><g><path d="M21.74 15.402C16.345 12.719 7.578 11.882 9.036 4.2-2.461 5.61-2.23 19.306 8.363 21.31c-.134-2.308-.224-4.47-.003-3.249.266 1.484.783 2.524 1.55 3.46l.01.002c3.619 4.368 11.3 5.774 14.649 1.833 2.647-3.115.542-6.279-2.83-7.954" mask="url(#b)" transform="rotate(-30 381.404 -242.554)"/><path d="M28.1 4.781c.233 2.792.407 5.38.114 3.907-.359-1.8-.99-3.05-1.904-4.168-.015 0-.028-.003-.042-.004-3.62-4.368-11.3-5.775-14.65-1.834-2.646 3.116-.541 6.28 2.83 7.955 5.394 2.683 14.161 3.519 12.704 11.202 11.397-1.397 11.27-14.87.949-17.058" mask="url(#b)" transform="rotate(-30 381.404 -242.554)"/></g><g><path d="M21.74 15.402C16.345 12.719 7.578 11.882 9.036 4.2-2.461 5.61-2.23 19.306 8.363 21.31c-.134-2.308-.224-4.47-.003-3.249.266 1.484.783 2.524 1.55 3.46l.01.002c3.619 4.368 11.3 5.774 14.649 1.833 2.647-3.115.542-6.279-2.83-7.954" mask="url(#b)" transform="rotate(-30 377.815 -363.516)"/><path d="M28.1 4.781c.233 2.792.407 5.38.114 3.907-.359-1.8-.99-3.05-1.904-4.168-.015 0-.028-.003-.042-.004-3.62-4.368-11.3-5.775-14.65-1.834-2.646 3.116-.541 6.28 2.83 7.955 5.394 2.683 14.161 3.519 12.704 11.202 11.397-1.397 11.27-14.87.949-17.058" mask="url(#b)" transform="rotate(-30 377.815 -363.516)"/></g><g><path d="M21.74 15.402C16.345 12.719 7.578 11.882 9.036 4.2-2.461 5.61-2.23 19.306 8.363 21.31c-.134-2.308-.224-4.47-.003-3.249.266 1.484.783 2.524 1.55 3.46l.01.002c3.619 4.368 11.3 5.774 14.649 1.833 2.647-3.115.542-6.279-2.83-7.954" mask="url(#b)" transform="rotate(50 18.535 385.454)"/><path d="M28.1 4.781c.233 2.792.407 5.38.114 3.907-.359-1.8-.99-3.05-1.904-4.168-.015 0-.028-.003-.042-.004-3.62-4.368-11.3-5.775-14.65-1.834-2.646 3.116-.541 6.28 2.83 7.955 5.394 2.683 14.161 3.519 12.704 11.202 11.397-1.397 11.27-14.87.949-17.058" mask="url(#b)" transform="rotate(50 18.535 385.454)"/></g><g><path d="M21.74 15.402C16.345 12.719 7.578 11.882 9.036 4.2-2.461 5.61-2.23 19.306 8.363 21.31c-.134-2.308-.224-4.47-.003-3.249.266 1.484.783 2.524 1.55 3.46l.01.002c3.619 4.368 11.3 5.774 14.649 1.833 2.647-3.115.542-6.279-2.83-7.954" mask="url(#b)" transform="rotate(-50 271.575 -288.621)"/><path d="M28.1 4.781c.233 2.792.407 5.38.114 3.907-.359-1.8-.99-3.05-1.904-4.168-.015 0-.028-.003-.042-.004-3.62-4.368-11.3-5.775-14.65-1.834-2.646 3.116-.541 6.28 2.83 7.955 5.394 2.683 14.161 3.519 12.704 11.202 11.397-1.397 11.27-14.87.949-17.058" mask="url(#b)" transform="rotate(-50 271.575 -288.621)"/></g><g><path d="M21.74 15.402C16.345 12.719 7.578 11.882 9.036 4.2-2.461 5.61-2.23 19.306 8.363 21.31c-.134-2.308-.224-4.47-.003-3.249.266 1.484.783 2.524 1.55 3.46l.01.002c3.619 4.368 11.3 5.774 14.649 1.833 2.647-3.115.542-6.279-2.83-7.954" mask="url(#b)" transform="rotate(24 -83.073 917.186)"/><path d="M28.1 4.781c.233 2.792.407 5.38.114 3.907-.359-1.8-.99-3.05-1.904-4.168-.015 0-.028-.003-.042-.004-3.62-4.368-11.3-5.775-14.65-1.834-2.646 3.116-.541 6.28 2.83 7.955 5.394 2.683 14.161 3.519 12.704 11.202 11.397-1.397 11.27-14.87.949-17.058" mask="url(#b)" transform="rotate(24 -83.073 917.186)"/></g><g><path d="M21.74 15.402C16.345 12.719 7.578 11.882 9.036 4.2-2.461 5.61-2.23 19.306 8.363 21.31c-.134-2.308-.224-4.47-.003-3.249.266 1.484.783 2.524 1.55 3.46l.01.002c3.619 4.368 11.3 5.774 14.649 1.833 2.647-3.115.542-6.279-2.83-7.954" mask="url(#b)" transform="rotate(24 -1.118 1025.154)"/><path d="M28.1 4.781c.233 2.792.407 5.38.114 3.907-.359-1.8-.99-3.05-1.904-4.168-.015 0-.028-.003-.042-.004-3.62-4.368-11.3-5.775-14.65-1.834-2.646 3.116-.541 6.28 2.83 7.955 5.394 2.683 14.161 3.519 12.704 11.202 11.397-1.397 11.27-14.87.949-17.058" mask="url(#b)" transform="rotate(24 -1.118 1025.154)"/></g><g><path d="M21.74 15.402C16.345 12.719 7.578 11.882 9.036 4.2-2.461 5.61-2.23 19.306 8.363 21.31c-.134-2.308-.224-4.47-.003-3.249.266 1.484.783 2.524 1.55 3.46l.01.002c3.619 4.368 11.3 5.774 14.649 1.833 2.647-3.115.542-6.279-2.83-7.954" mask="url(#b)" transform="rotate(64 99.676 406.068)"/><path d="M28.1 4.781c.233 2.792.407 5.38.114 3.907-.359-1.8-.99-3.05-1.904-4.168-.015 0-.028-.003-.042-.004-3.62-4.368-11.3-5.775-14.65-1.834-2.646 3.116-.541 6.28 2.83 7.955 5.394 2.683 14.161 3.519 12.704 11.202 11.397-1.397 11.27-14.87.949-17.058" mask="url(#b)" transform="rotate(64 99.676 406.068)"/></g><g><path d="M21.74 15.402C16.345 12.719 7.578 11.882 9.036 4.2-2.461 5.61-2.23 19.306 8.363 21.31c-.134-2.308-.224-4.47-.003-3.249.266 1.484.783 2.524 1.55 3.46l.01.002c3.619 4.368 11.3 5.774 14.649 1.833 2.647-3.115.542-6.279-2.83-7.954" mask="url(#b)" transform="rotate(-36 422.006 -639.328)"/><path d="M28.1 4.781c.233 2.792.407 5.38.114 3.907-.359-1.8-.99-3.05-1.904-4.168-.015 0-.028-.003-.042-.004-3.62-4.368-11.3-5.775-14.65-1.834-2.646 3.116-.541 6.28 2.83 7.955 5.394 2.683 14.161 3.519 12.704 11.202 11.397-1.397 11.27-14.87.949-17.058" mask="url(#b)" transform="rotate(-36 422.006 -639.328)"/></g><g><path d="M21.74 15.402C16.345 12.719 7.578 11.882 9.036 4.2-2.461 5.61-2.23 19.306 8.363 21.31c-.134-2.308-.224-4.47-.003-3.249.266 1.484.783 2.524 1.55 3.46l.01.002c3.619 4.368 11.3 5.774 14.649 1.833 2.647-3.115.542-6.279-2.83-7.954" mask="url(#b)" transform="rotate(-36 465.855 -727.159)"/><path d="M28.1 4.781c.233 2.792.407 5.38.114 3.907-.359-1.8-.99-3.05-1.904-4.168-.015 0-.028-.003-.042-.004-3.62-4.368-11.3-5.775-14.65-1.834-2.646 3.116-.541 6.28 2.83 7.955 5.394 2.683 14.161 3.519 12.704 11.202 11.397-1.397 11.27-14.87.949-17.058" mask="url(#b)" transform="rotate(-36 465.855 -727.159)"/></g></g></svg>