<svg xmlns="http://www.w3.org/2000/svg" viewBox="0 0 605 180"><title>full-color-webhooks</title><g fill-rule="evenodd"><path d="M39.032 19.762c-.03 2.92-.046 5.74-.097 8.56-.013.724.08 1.254.733 1.788 1.802 1.475 1.856 3.892.253 5.482-1.511 1.499-3.93 1.323-5.392-.394-1.295-1.52-.946-3.943.763-5.284.143-.113.301-.207.552-.379l.073-6.417c-2.812-.755-5.076-2.227-6.333-4.946-.888-1.922-1.086-3.912-.528-5.958 1.067-3.919 4.646-6.52 8.685-6.317 3.879.196 7.226 3.006 7.881 6.687l-2.997.788c-.631-1.893-1.765-3.265-3.651-3.912-1.246-.427-2.468-.323-3.657.143-2.385.932-3.719 3.592-3.107 6.126.694 2.877 2.95 4.25 6.822 4.033z"/><path d="M41.22 15.064l5.548 3.282c3.784-4.1 8.745-3.538 11.58-1.507 3.426 2.453 4.668 6.983 2.892 10.742-1.822 3.858-5.872 5.717-10.124 4.567l1.085-2.997c3.659.198 5.937-1.226 6.478-4.274.461-2.6-1.077-5.192-3.581-6.03-2.89-.97-5.266.322-7 3.854-2.384-1.418-4.778-2.808-7.134-4.262-.794-.49-1.456-.659-2.406-.31-1.588.58-3.24-.129-4.102-1.493-.853-1.35-.765-3.066.218-4.282a3.62 3.62 0 0 1 4.129-1.08c1.194.479 1.981 1.338 2.242 2.626.073.36.111.726.176 1.164z"/><path d="M50.986 26.973l-5.552 3.206c.74 2.51.617 4.952-.711 7.227-1.032 1.768-2.52 3.024-4.452 3.757-3.556 1.35-7.916-.061-10.066-3.244-2.435-3.605-1.797-8.427 1.192-11.153l2.21 2.185c-2.21 3.424-2.123 6.082.221 8.114 2.064 1.789 4.968 1.745 7.08-.106 2.156-1.89 2.208-4.636.17-7.82 2.31-1.332 4.607-2.69 6.938-3.988.91-.507 1.551-1.003 1.769-2.195.358-1.962 2.485-3.032 4.408-2.484 1.965.56 3.086 2.638 2.486 4.608a3.61 3.61 0 0 1-4.507 2.397c-.392-.121-.762-.321-1.186-.504zM77.476 51.766c-1.9 2.218-3.726 4.369-5.577 6.496-.475.546-.745 1.012-.588 1.84.432 2.289-1.08 4.175-3.33 4.362-2.12.177-3.86-1.512-3.877-3.767-.015-1.996 1.81-3.629 3.981-3.558.182.006.364.035.666.065l4.181-4.87c-1.669-2.384-2.457-4.968-1.672-7.858.555-2.044 1.683-3.695 3.425-4.904 3.337-2.316 7.75-2.008 10.714.744 2.846 2.643 3.603 6.947 1.739 10.188l-2.803-1.323c.734-1.856.747-3.635-.282-5.344-.68-1.128-1.683-1.833-2.893-2.24-2.426-.82-5.158.36-6.318 2.695-1.318 2.65-.473 5.153 2.634 7.474z"/><path d="M82.172 49.575l2.14 6.08c5.533-.709 8.973 2.91 9.84 6.289 1.047 4.08-.914 8.35-4.69 10.087-3.876 1.785-8.173.605-10.69-3.008l2.757-1.6c2.675 2.504 5.335 2.878 7.71.89 2.024-1.695 2.511-4.669 1.133-6.921-1.592-2.6-4.242-3.137-7.84-1.546-.915-2.619-1.856-5.223-2.726-7.851-.293-.886-.691-1.44-1.643-1.785-1.59-.575-2.4-2.18-2.183-3.78.214-1.582 1.384-2.84 2.92-3.14a3.62 3.62 0 0 1 3.856 1.828c.607 1.133.658 2.297.03 3.452-.175.322-.382.628-.614 1.005z"/><path d="M81.998 64.975l-6.314-1.113c-1.047 2.398-2.71 4.19-5.19 5.079-1.927.69-3.874.697-5.825.016-3.592-1.252-6.025-5.135-5.626-8.955.452-4.327 4.04-7.61 8.082-7.778l.288 3.095c-3.893 1.203-5.536 3.294-5.046 6.358.432 2.696 2.684 4.53 5.491 4.47 2.867-.062 4.672-2.133 5.158-5.88 2.626.462 5.259.898 7.878 1.402 1.022.197 1.833.23 2.766-.544 1.536-1.273 3.853-.725 4.973.93 1.145 1.692.668 4.006-1.057 5.129a3.61 3.61 0 0 1-4.994-1.061c-.222-.345-.377-.736-.584-1.148zM129.032 28.762c-.03 2.92-.046 5.74-.097 8.56-.013.724.08 1.254.733 1.788 1.802 1.475 1.856 3.892.253 5.482-1.511 1.499-3.93 1.323-5.392-.394-1.295-1.52-.946-3.943.763-5.284.143-.113.301-.207.552-.379l.073-6.417c-2.812-.755-5.076-2.227-6.333-4.946-.888-1.922-1.086-3.912-.528-5.958 1.067-3.919 4.646-6.52 8.685-6.317 3.879.196 7.226 3.006 7.881 6.687l-2.997.788c-.631-1.893-1.765-3.265-3.651-3.912-1.246-.427-2.468-.323-3.657.143-2.385.932-3.719 3.592-3.107 6.126.694 2.877 2.95 4.25 6.822 4.033z"/><path d="M131.22 24.064l5.548 3.282c3.784-4.1 8.745-3.538 11.58-1.507 3.426 2.453 4.668 6.983 2.892 10.742-1.822 3.858-5.872 5.717-10.124 4.567l1.085-2.997c3.659.198 5.937-1.226 6.478-4.274.461-2.6-1.077-5.192-3.581-6.03-2.89-.97-5.266.322-7 3.854-2.384-1.418-4.778-2.808-7.134-4.262-.794-.49-1.456-.659-2.406-.31-1.588.58-3.24-.129-4.102-1.493-.853-1.35-.765-3.066.218-4.282a3.62 3.62 0 0 1 4.129-1.08c1.194.479 1.981 1.338 2.242 2.626.073.36.111.726.176 1.164z"/><path d="M140.986 35.973l-5.552 3.206c.74 2.51.617 4.952-.711 7.227-1.032 1.768-2.52 3.024-4.452 3.757-3.556 1.35-7.916-.061-10.066-3.244-2.435-3.605-1.797-8.427 1.192-11.153l2.21 2.185c-2.21 3.424-2.123 6.082.221 8.114 2.064 1.789 4.968 1.745 7.08-.106 2.156-1.89 2.208-4.636.17-7.82 2.31-1.332 4.607-2.69 6.938-3.988.91-.507 1.551-1.003 1.769-2.195.358-1.962 2.485-3.032 4.408-2.484 1.965.56 3.086 2.638 2.486 4.608a3.61 3.61 0 0 1-4.507 2.397c-.392-.121-.762-.321-1.186-.504zM198.131 32.169c-2.256 1.854-4.427 3.655-6.62 5.43-.562.454-.909.866-.898 1.71.028 2.328-1.788 3.923-4.036 3.717-2.12-.194-3.54-2.16-3.165-4.384.332-1.968 2.413-3.26 4.539-2.812.178.037.352.097.644.18l4.963-4.07c-1.23-2.639-1.557-5.32-.282-8.03.901-1.916 2.299-3.346 4.225-4.234 3.688-1.701 7.981-.632 10.421 2.592 2.344 3.097 2.343 7.468-.056 10.336l-2.53-1.79c1.044-1.7 1.367-3.45.65-5.31-.474-1.23-1.34-2.098-2.46-2.71-2.247-1.228-5.143-.54-6.69 1.557-1.758 2.38-1.36 4.992 1.295 7.818z"/><path d="M203.137 30.827l1.052 6.359c5.572.263 8.33 4.424 8.598 7.902.322 4.2-2.35 8.064-6.37 9.12-4.128 1.084-8.154-.823-10.006-4.82l2.993-1.095c2.2 2.93 4.755 3.76 7.438 2.215 2.288-1.318 3.284-4.162 2.318-6.62-1.116-2.836-3.632-3.826-7.453-2.884-.446-2.738-.92-5.465-1.32-8.205-.135-.923-.431-1.538-1.309-2.043-1.466-.843-1.984-2.564-1.493-4.101.486-1.521 1.856-2.557 3.42-2.585a3.62 3.62 0 0 1 3.48 2.469c.402 1.221.25 2.377-.57 3.405-.227.287-.484.551-.778.883z"/><path d="M200.29 45.963l-6.024-2.193c-1.447 2.18-3.397 3.656-5.993 4.1-2.017.346-3.936.014-5.739-.995-3.32-1.857-5.042-6.104-3.986-9.796 1.197-4.182 5.301-6.793 9.31-6.256l-.254 3.097c-4.042.51-6.023 2.284-6.073 5.386-.043 2.73 1.857 4.927 4.632 5.355 2.834.437 4.971-1.289 6.1-4.895 2.506.912 5.023 1.798 7.515 2.75.973.37 1.765.544 2.818-.056 1.734-.987 3.92-.045 4.737 1.78.834 1.865-.038 4.06-1.932 4.866a3.61 3.61 0 0 1-4.734-1.912c-.159-.378-.243-.79-.376-1.231zM260.032 25.762c-.03 2.92-.046 5.74-.097 8.56-.013.724.08 1.254.733 1.788 1.802 1.475 1.856 3.892.253 5.482-1.511 1.499-3.93 1.323-5.392-.394-1.295-1.52-.946-3.943.763-5.284.143-.113.301-.207.552-.379l.073-6.417c-2.812-.755-5.076-2.227-6.333-4.946-.888-1.922-1.086-3.912-.528-5.958 1.067-3.919 4.646-6.52 8.685-6.317 3.879.196 7.226 3.006 7.881 6.687l-2.997.788c-.631-1.893-1.765-3.265-3.651-3.912-1.246-.427-2.468-.323-3.657.143-2.385.932-3.719 3.592-3.107 6.126.694 2.877 2.95 4.25 6.822 4.033z"/><path d="M262.22 21.064l5.548 3.282c3.784-4.1 8.745-3.538 11.58-1.507 3.426 2.453 4.668 6.983 2.892 10.742-1.822 3.858-5.872 5.717-10.124 4.567l1.085-2.997c3.659.198 5.937-1.226 6.478-4.274.461-2.6-1.077-5.192-3.581-6.03-2.89-.97-5.266.322-7 3.854-2.384-1.418-4.778-2.808-7.134-4.262-.794-.49-1.456-.659-2.406-.31-1.588.58-3.24-.129-4.102-1.493-.853-1.35-.765-3.066.218-4.282a3.62 3.62 0 0 1 4.129-1.08c1.194.479 1.981 1.338 2.242 2.626.073.36.111.726.176 1.164z"/><path d="M271.986 32.973l-5.552 3.206c.74 2.51.617 4.952-.711 7.227-1.032 1.768-2.52 3.024-4.452 3.757-3.556 1.35-7.916-.061-10.066-3.244-2.435-3.605-1.797-8.427 1.192-11.153l2.21 2.185c-2.21 3.424-2.123 6.082.221 8.114 2.064 1.789 4.968 1.745 7.08-.106 2.156-1.89 2.208-4.636.17-7.82 2.31-1.332 4.607-2.69 6.938-3.988.91-.507 1.551-1.003 1.769-2.195.358-1.962 2.485-3.032 4.408-2.484 1.965.56 3.086 2.638 2.486 4.608a3.61 3.61 0 0 1-4.507 2.397c-.392-.121-.762-.321-1.186-.504zM355.678 33.536c-2.569 1.39-5.043 2.743-7.534 4.066-.64.34-1.058.678-1.208 1.507-.417 2.292-2.504 3.51-4.672 2.88-2.044-.595-3.062-2.796-2.27-4.907.701-1.87 2.99-2.74 4.992-1.895.168.07.327.163.599.3l5.648-3.048c-.703-2.825-.514-5.52 1.255-7.937 1.25-1.708 2.895-2.846 4.955-3.35 3.945-.966 7.955.903 9.736 4.533 1.71 3.488.874 7.778-2.028 10.135l-2.142-2.24c1.35-1.469 2-3.126 1.651-5.089-.23-1.297-.914-2.314-1.898-3.13-1.971-1.633-4.944-1.51-6.864.254-2.18 2-2.288 4.64-.22 7.92z"/><path d="M360.848 33.173l-.18 6.443c5.419 1.322 7.333 5.933 6.931 9.398-.485 4.185-3.845 7.468-7.993 7.737-4.258.276-7.846-2.364-8.902-6.64l3.147-.505c1.6 3.296 3.95 4.598 6.879 3.594 2.497-.857 4.018-3.46 3.538-6.056-.554-2.997-2.835-4.449-6.765-4.253.084-2.773.139-5.54.27-8.306.043-.932-.13-1.593-.896-2.256-1.278-1.107-1.459-2.895-.683-4.31.767-1.4 2.31-2.156 3.85-1.885a3.62 3.62 0 0 1 2.946 3.087c.16 1.276-.209 2.381-1.21 3.234-.278.238-.58.45-.932.718z"/><path d="M355.166 47.488l-5.495-3.302c-1.837 1.864-4.032 2.94-6.665 2.882-2.047-.046-3.867-.738-5.445-2.072-2.904-2.457-3.784-6.954-2.043-10.377 1.973-3.877 6.5-5.657 10.333-4.365l-.84 2.992c-4.066-.271-6.349 1.093-6.99 4.128-.563 2.672.883 5.19 3.525 6.14 2.7.97 5.126-.316 6.922-3.64 2.286 1.372 4.588 2.723 6.852 4.132.884.55 1.63.871 2.778.484 1.89-.638 3.857.703 4.31 2.65.462 1.99-.812 3.98-2.825 4.41a3.61 3.61 0 0 1-4.282-2.78c-.084-.403-.089-.823-.135-1.282zM425.848 33.935c.777 2.816 1.539 5.532 2.268 8.256.187.7.422 1.183 1.196 1.516 2.14.922 2.857 3.23 1.755 5.2-1.04 1.858-3.412 2.355-5.292 1.108-1.663-1.104-1.996-3.53-.723-5.29.107-.148.232-.282.426-.516l-1.699-6.19c-2.91.05-5.493-.74-7.45-3.008-1.384-1.602-2.122-3.46-2.15-5.581-.054-4.062 2.669-7.548 6.607-8.466 3.783-.882 7.775.897 9.42 4.255l-2.665 1.583c-1.128-1.645-2.596-2.651-4.588-2.754-1.315-.067-2.46.37-3.476 1.146-2.035 1.553-2.584 4.478-1.298 6.746 1.46 2.573 4.008 3.272 7.67 1.995z"/><path d="M426.658 28.816l6.237 1.626c2.507-4.983 7.43-5.81 10.716-4.64 3.97 1.413 6.412 5.426 5.74 9.528-.687 4.212-4.068 7.114-8.472 7.18l.217-3.18c3.571-.818 5.368-2.814 5.049-5.893-.274-2.627-2.467-4.694-5.105-4.81-3.044-.135-4.972 1.762-5.666 5.635-2.682-.706-5.367-1.382-8.033-2.131-.898-.253-1.58-.232-2.398.365-1.367.996-3.15.77-4.355-.304-1.191-1.063-1.58-2.736-.97-4.177a3.62 3.62 0 0 1 3.671-2.175c1.28.13 2.273.74 2.88 1.906.169.325.306.667.489 1.07z"/><path d="M439.328 37.573l-4.454 4.611c1.403 2.21 1.958 4.59 1.309 7.143-.505 1.984-1.589 3.602-3.244 4.839-3.047 2.277-7.627 2.123-10.57-.344-3.334-2.794-4.05-7.606-1.93-11.05l2.727 1.492c-1.179 3.9-.363 6.432 2.45 7.739 2.477 1.15 5.257.308 6.776-2.054 1.552-2.41.845-5.065-1.99-7.563 1.852-1.918 3.685-3.857 5.568-5.747.735-.737 1.215-1.391 1.096-2.597-.197-1.985 1.553-3.6 3.552-3.603 2.043-.004 3.694 1.686 3.66 3.744a3.61 3.61 0 0 1-3.672 3.547c-.41-.009-.82-.099-1.278-.157zM505.99 24.446c.276 2.908.555 5.714.8 8.524.062.721.21 1.239.914 1.701 1.947 1.279 2.253 3.677.825 5.425-1.346 1.65-3.769 1.727-5.403.172-1.447-1.375-1.353-3.822.206-5.335.13-.127.278-.237.51-.434l-.599-6.39c-2.875-.456-5.281-1.684-6.815-4.256-1.084-1.819-1.489-3.777-1.148-5.87.652-4.01 3.94-6.97 7.977-7.19 3.878-.212 7.5 2.233 8.537 5.826l-2.898 1.096c-.826-1.816-2.097-3.062-4.04-3.508-1.284-.295-2.488-.063-3.622.524-2.274 1.177-3.323 3.962-2.45 6.418.99 2.788 3.378 3.919 7.206 3.297z"/><path d="M507.676 19.546l5.86 2.683c3.335-4.472 8.327-4.432 11.36-2.709 3.662 2.082 5.371 6.458 3.998 10.381-1.409 4.028-5.242 6.3-9.59 5.6l.765-3.094c3.66-.185 5.776-1.84 5.996-4.928.186-2.634-1.615-5.05-4.192-5.623-2.975-.66-5.203.872-6.558 4.566-2.52-1.161-5.047-2.293-7.541-3.494-.841-.404-1.517-.503-2.426-.057-1.519.744-3.235.212-4.235-1.055-.99-1.254-1.081-2.97-.23-4.282a3.62 3.62 0 0 1 3.992-1.504c1.238.35 2.11 1.122 2.505 2.376.11.35.186.71.296 1.14z"/><path d="M518.633 30.369l-5.187 3.768c.998 2.42 1.131 4.86.049 7.262-.842 1.866-2.19 3.27-4.035 4.201-3.396 1.714-7.88.767-10.35-2.173-2.798-3.331-2.668-8.194.019-11.217l2.426 1.942c-1.838 3.637-1.475 6.271 1.07 8.047 2.238 1.563 5.122 1.216 7.029-.846 1.947-2.105 1.711-4.841-.648-7.794 2.158-1.567 4.3-3.159 6.482-4.693.852-.598 1.439-1.159 1.53-2.367.152-1.99 2.155-3.276 4.125-2.932 2.012.352 3.345 2.302 2.954 4.323a3.61 3.61 0 0 1-4.232 2.856c-.403-.08-.791-.24-1.232-.377zM554.543 47.62c-2.638 1.254-5.18 2.476-7.736 3.667-.657.305-1.092.62-1.286 1.441-.536 2.267-2.684 3.375-4.816 2.631-2.01-.7-2.911-2.951-2.01-5.019.798-1.83 3.13-2.579 5.084-1.63.164.079.318.18.582.33l5.8-2.748c-.554-2.858-.223-5.539 1.67-7.86 1.337-1.64 3.04-2.69 5.123-3.087 3.99-.758 7.897 1.319 9.485 5.037 1.524 3.572.466 7.813-2.555 10.015l-2.022-2.348c1.424-1.397 2.16-3.018 1.915-4.997-.162-1.306-.792-2.359-1.731-3.224-1.884-1.734-4.86-1.767-6.87-.107-2.28 1.885-2.526 4.515-.633 7.9z"/><path d="M559.725 47.529l-.517 6.424c5.342 1.604 7.012 6.309 6.43 9.748-.703 4.154-4.23 7.256-8.387 7.308-4.267.053-7.712-2.771-8.543-7.097l3.17-.339c1.425 3.375 3.704 4.798 6.68 3.949 2.54-.726 4.194-3.245 3.851-5.863-.396-3.021-2.598-4.59-6.533-4.6.23-2.765.429-5.527.704-8.282.092-.928-.047-1.597-.776-2.299-1.219-1.172-1.306-2.967-.457-4.34.84-1.359 2.42-2.032 3.944-1.681a3.62 3.62 0 0 1 2.78 3.237c.094 1.283-.333 2.367-1.377 3.167-.29.223-.604.417-.97.668z"/><path d="M553.302 61.526l-5.315-3.585c-1.932 1.765-4.181 2.726-6.807 2.53-2.042-.153-3.823-.94-5.329-2.355-2.772-2.605-3.415-7.142-1.497-10.47 2.173-3.768 6.787-5.308 10.547-3.818l-.996 2.945c-4.045-.484-6.397.758-7.195 3.756-.703 2.639.61 5.23 3.199 6.317 2.644 1.11 5.135-.048 7.103-3.275 2.21 1.491 4.438 2.96 6.626 4.486.854.596 1.581.956 2.748.628 1.921-.538 3.815.905 4.165 2.873.358 2.012-1.018 3.931-3.051 4.255a3.61 3.61 0 0 1-4.131-3c-.063-.406-.045-.825-.067-1.287zM22.131 73.169c-2.256 1.854-4.427 3.655-6.62 5.43-.562.454-.909.866-.898 1.71.028 2.328-1.788 3.923-4.036 3.717-2.12-.194-3.54-2.16-3.165-4.384.332-1.968 2.413-3.26 4.539-2.812.178.037.352.097.644.18l4.963-4.07c-1.23-2.639-1.557-5.32-.282-8.03.901-1.916 2.299-3.346 4.225-4.234 3.688-1.701 7.981-.632 10.421 2.592 2.344 3.097 2.343 7.468-.056 10.336l-2.53-1.79c1.044-1.7 1.367-3.45.65-5.31-.474-1.23-1.34-2.098-2.46-2.71-2.247-1.228-5.143-.54-6.69 1.557-1.758 2.38-1.36 4.992 1.295 7.818z"/><path d="M27.137 71.827l1.052 6.359c5.572.263 8.33 4.424 8.598 7.902.322 4.2-2.35 8.064-6.37 9.12-4.128 1.084-8.154-.823-10.006-4.82l2.993-1.095c2.2 2.93 4.755 3.76 7.438 2.215 2.288-1.318 3.284-4.162 2.318-6.62-1.116-2.836-3.632-3.826-7.453-2.884-.446-2.738-.92-5.465-1.32-8.205-.135-.923-.431-1.538-1.309-2.043-1.466-.843-1.984-2.564-1.493-4.101.486-1.521 1.856-2.557 3.42-2.585a3.62 3.62 0 0 1 3.48 2.469c.402 1.221.25 2.377-.57 3.405-.227.287-.484.551-.778.883z"/><path d="M24.29 86.963l-6.024-2.193c-1.447 2.18-3.397 3.656-5.993 4.1-2.017.346-3.936.014-5.739-.995-3.32-1.857-5.042-6.104-3.986-9.796 1.197-4.182 5.301-6.793 9.31-6.256l-.254 3.097c-4.042.51-6.023 2.284-6.073 5.386-.043 2.73 1.857 4.927 4.632 5.355 2.834.437 4.971-1.289 6.1-4.895 2.506.912 5.023 1.798 7.515 2.75.973.37 1.765.544 2.818-.056 1.734-.987 3.92-.045 4.737 1.78.834 1.865-.038 4.06-1.932 4.866a3.61 3.61 0 0 1-4.734-1.912c-.159-.378-.243-.79-.376-1.231zM119.032 83.762c-.03 2.92-.046 5.74-.097 8.56-.013.724.08 1.254.733 1.788 1.802 1.475 1.856 3.892.253 5.482-1.511 1.499-3.93 1.323-5.392-.394-1.295-1.52-.946-3.943.763-5.284.143-.113.301-.207.552-.379l.073-6.417c-2.812-.755-5.076-2.227-6.333-4.946-.888-1.922-1.086-3.912-.528-5.958 1.067-3.919 4.646-6.52 8.685-6.317 3.879.196 7.226 3.006 7.881 6.687l-2.997.788c-.631-1.893-1.765-3.265-3.651-3.912-1.246-.427-2.468-.323-3.657.143-2.385.932-3.719 3.592-3.107 6.126.694 2.877 2.95 4.25 6.822 4.033z"/><path d="M121.22 79.064l5.548 3.282c3.784-4.1 8.745-3.538 11.58-1.507 3.426 2.453 4.668 6.983 2.892 10.742-1.822 3.858-5.872 5.717-10.124 4.567l1.085-2.997c3.659.198 5.937-1.226 6.478-4.274.461-2.6-1.077-5.192-3.581-6.03-2.89-.97-5.266.322-7 3.854-2.384-1.418-4.778-2.808-7.134-4.262-.794-.49-1.456-.659-2.406-.31-1.588.58-3.24-.129-4.102-1.493-.853-1.35-.765-3.066.218-4.282a3.62 3.62 0 0 1 4.129-1.08c1.194.479 1.981 1.338 2.242 2.626.073.36.111.726.176 1.164z"/><path d="M130.986 90.973l-5.552 3.206c.74 2.51.617 4.952-.711 7.227-1.032 1.768-2.52 3.024-4.452 3.757-3.556 1.35-7.916-.061-10.066-3.244-2.435-3.605-1.797-8.427 1.192-11.153l2.21 2.185c-2.21 3.424-2.123 6.082.221 8.114 2.064 1.789 4.968 1.745 7.08-.106 2.156-1.89 2.208-4.636.17-7.82 2.31-1.332 4.607-2.69 6.938-3.988.91-.507 1.551-1.003 1.769-2.195.358-1.962 2.485-3.032 4.408-2.484 1.965.56 3.086 2.638 2.486 4.608a3.61 3.61 0 0 1-4.507 2.397c-.392-.121-.762-.321-1.186-.504z"/><g><path d="M169.745 74.31c-1.487 2.514-2.91 4.948-4.364 7.365-.373.62-.558 1.126-.26 1.914.823 2.179-.338 4.299-2.52 4.874-2.06.543-4.065-.818-4.474-3.037-.362-1.963 1.152-3.888 3.303-4.194.18-.026.364-.03.667-.052l3.272-5.522c-2.058-2.059-3.283-4.466-3.011-7.449.191-2.109 1.015-3.93 2.52-5.424 2.885-2.86 7.285-3.323 10.681-1.128 3.262 2.109 4.755 6.216 3.482 9.731l-2.99-.816c.4-1.954.104-3.71-1.205-5.213-.866-.993-1.976-1.513-3.239-1.705-2.531-.385-5.017 1.252-5.754 3.752-.837 2.838.43 5.156 3.892 6.903z"/><path d="M173.99 71.336l3.163 5.616c5.326-1.659 9.341 1.308 10.782 4.485 1.74 3.837.55 8.381-2.867 10.748-3.508 2.43-7.943 2.015-11.05-1.106l2.437-2.054c3.07 2.001 5.754 1.907 7.747-.462 1.7-2.021 1.663-5.035-.086-7.013-2.018-2.284-4.721-2.353-7.989-.161-1.356-2.42-2.735-4.822-4.047-7.26-.443-.82-.932-1.297-1.929-1.471-1.666-.29-2.742-1.73-2.806-3.344-.064-1.595.87-3.037 2.33-3.599a3.62 3.62 0 0 1 4.115 1.13c.795 1.011 1.047 2.149.63 3.395-.117.348-.268.684-.43 1.096z"/><path d="M176.492 86.532h-6.412c-.614 2.544-1.941 4.598-4.229 5.903-1.777 1.015-3.694 1.36-5.733 1.028-3.755-.61-6.826-4.011-7.096-7.842-.306-4.34 2.658-8.197 6.608-9.063l.821 2.997c-3.624 1.861-4.879 4.206-3.864 7.138.893 2.58 3.43 3.995 6.184 3.448 2.812-.558 4.23-2.91 4.057-6.686 2.667 0 5.336-.028 8.002.013 1.042.017 1.846-.092 2.63-1.016 1.292-1.52 3.669-1.383 5.06.053 1.421 1.467 1.353 3.828-.151 5.234a3.61 3.61 0 0 1-5.102-.178c-.28-.301-.5-.659-.775-1.029z"/></g><g><path d="M232.032 73.762c-.03 2.92-.046 5.74-.097 8.56-.013.724.08 1.254.733 1.788 1.802 1.475 1.856 3.892.253 5.482-1.511 1.499-3.93 1.323-5.392-.394-1.295-1.52-.946-3.943.763-5.284.143-.113.301-.207.552-.379l.073-6.417c-2.812-.755-5.076-2.227-6.333-4.946-.888-1.922-1.086-3.912-.528-5.958 1.067-3.919 4.646-6.52 8.685-6.317 3.879.196 7.226 3.006 7.881 6.687l-2.997.788c-.631-1.893-1.765-3.265-3.651-3.912-1.246-.427-2.468-.323-3.657.143-2.385.932-3.719 3.592-3.107 6.126.694 2.877 2.95 4.25 6.822 4.033z"/><path d="M234.22 69.064l5.548 3.282c3.784-4.1 8.745-3.538 11.58-1.507 3.426 2.453 4.668 6.983 2.892 10.742-1.822 3.858-5.872 5.717-10.124 4.567l1.085-2.997c3.659.198 5.937-1.226 6.478-4.274.461-2.6-1.077-5.192-3.581-6.03-2.89-.97-5.266.322-7 3.854-2.384-1.418-4.778-2.808-7.134-4.262-.794-.49-1.456-.659-2.406-.31-1.588.58-3.24-.129-4.102-1.493-.853-1.35-.765-3.066.218-4.282a3.62 3.62 0 0 1 4.129-1.08c1.194.479 1.981 1.338 2.242 2.626.073.36.111.726.176 1.164z"/><path d="M243.986 80.973l-5.552 3.206c.74 2.51.617 4.952-.711 7.227-1.032 1.768-2.52 3.024-4.452 3.757-3.556 1.35-7.916-.061-10.066-3.244-2.435-3.605-1.797-8.427 1.192-11.153l2.21 2.185c-2.21 3.424-2.123 6.082.221 8.114 2.064 1.789 4.968 1.745 7.08-.106 2.156-1.89 2.208-4.636.17-7.82 2.31-1.332 4.607-2.69 6.938-3.988.91-.507 1.551-1.003 1.769-2.195.358-1.962 2.485-3.032 4.408-2.484 1.965.56 3.086 2.638 2.486 4.608a3.61 3.61 0 0 1-4.507 2.397c-.392-.121-.762-.321-1.186-.504z"/></g><g><path d="M279.93 98.813c-1.027 2.734-2.006 5.38-3.018 8.011-.26.676-.354 1.206.077 1.93 1.189 2.003.413 4.293-1.637 5.238-1.933.893-4.145-.1-4.932-2.214-.698-1.87.46-4.029 2.524-4.704.173-.057.354-.092.648-.167l2.263-6.006c-2.384-1.67-4.008-3.828-4.259-6.813-.177-2.11.318-4.047 1.541-5.78 2.344-3.317 6.597-4.537 10.322-2.965 3.578 1.51 5.763 5.296 5.12 8.979l-3.087-.285c.055-1.994-.541-3.671-2.092-4.924-1.025-.828-2.209-1.147-3.486-1.117-2.56.06-4.723 2.104-5.015 4.695-.332 2.94 1.319 5.003 5.031 6.122z"/><path d="M283.594 95.148l4.09 4.98c4.958-2.557 9.427-.333 11.398 2.545 2.38 3.477 1.997 8.159-.957 11.084-3.032 3.002-7.473 3.363-11.075.829l2.045-2.446c3.37 1.437 5.997.878 7.548-1.8 1.323-2.286.764-5.248-1.302-6.892-2.384-1.899-5.059-1.498-7.896 1.228-1.755-2.148-3.53-4.273-5.246-6.445-.579-.733-1.143-1.117-2.155-1.115-1.691.003-3-1.228-3.344-2.806-.34-1.56.33-3.142 1.67-3.948a3.62 3.62 0 0 1 4.248.398c.958.857 1.405 1.933 1.21 3.234-.055.362-.145.72-.234 1.154z"/><path d="M288.697 109.678l-6.314 1.114c-.163 2.611-1.114 4.864-3.14 6.548-1.574 1.308-3.401 1.98-5.467 2.007-3.804.052-7.419-2.765-8.35-6.49-1.055-4.22 1.194-8.534 4.934-10.074l1.33 2.81c-3.247 2.462-4.075 4.99-2.567 7.7 1.327 2.387 4.071 3.339 6.688 2.322 2.673-1.038 3.662-3.601 2.835-7.29 2.626-.462 5.25-.953 7.883-1.375 1.029-.165 1.801-.412 2.414-1.458 1.007-1.721 3.372-1.999 4.991-.826 1.655 1.198 1.998 3.535.76 5.18a3.61 3.61 0 0 1-5.055.711c-.327-.248-.606-.562-.942-.879z"/></g><g><path d="M306.93 58.813c-1.027 2.734-2.006 5.38-3.018 8.011-.26.676-.354 1.206.077 1.93 1.189 2.003.413 4.293-1.637 5.238-1.933.893-4.145-.1-4.932-2.214-.698-1.87.46-4.029 2.524-4.704.173-.057.354-.092.648-.167l2.263-6.006c-2.384-1.67-4.008-3.828-4.259-6.813-.177-2.11.318-4.047 1.541-5.78 2.344-3.317 6.597-4.537 10.322-2.965 3.578 1.51 5.763 5.296 5.12 8.979l-3.087-.285c.055-1.994-.541-3.671-2.092-4.924-1.025-.828-2.209-1.147-3.486-1.117-2.56.06-4.723 2.104-5.015 4.695-.332 2.94 1.319 5.003 5.031 6.122z"/><path d="M310.594 55.148l4.09 4.98c4.958-2.557 9.427-.333 11.398 2.545 2.38 3.477 1.997 8.159-.957 11.084-3.032 3.002-7.473 3.363-11.075.829l2.045-2.446c3.37 1.437 5.997.878 7.548-1.8 1.323-2.286.764-5.248-1.302-6.892-2.384-1.899-5.059-1.498-7.896 1.228-1.755-2.148-3.53-4.273-5.246-6.445-.579-.733-1.143-1.117-2.155-1.115-1.691.003-3-1.228-3.344-2.806-.34-1.56.33-3.142 1.67-3.948a3.62 3.62 0 0 1 4.248.398c.958.857 1.405 1.933 1.21 3.234-.055.362-.145.72-.234 1.154z"/><path d="M315.697 69.678l-6.314 1.114c-.163 2.611-1.114 4.864-3.14 6.548-1.574 1.308-3.401 1.98-5.467 2.007-3.804.052-7.419-2.765-8.35-6.49-1.055-4.22 1.194-8.534 4.934-10.074l1.33 2.81c-3.247 2.462-4.075 4.99-2.567 7.7 1.327 2.387 4.071 3.339 6.688 2.322 2.673-1.038 3.662-3.601 2.835-7.29 2.626-.462 5.25-.953 7.883-1.375 1.029-.165 1.801-.412 2.414-1.458 1.007-1.721 3.372-1.999 4.991-.826 1.655 1.198 1.998 3.535.76 5.18a3.61 3.61 0 0 1-5.055.711c-.327-.248-.606-.562-.942-.879z"/></g><g><path d="M382.99 72.446c.276 2.908.555 5.714.8 8.524.062.721.21 1.239.914 1.701 1.947 1.279 2.253 3.677.825 5.425-1.346 1.65-3.769 1.727-5.403.172-1.447-1.375-1.353-3.822.206-5.335.13-.127.278-.237.51-.434l-.599-6.39c-2.875-.456-5.281-1.684-6.815-4.256-1.084-1.819-1.489-3.777-1.148-5.87.652-4.01 3.94-6.97 7.977-7.19 3.878-.212 7.5 2.233 8.537 5.826l-2.898 1.096c-.826-1.816-2.097-3.062-4.04-3.508-1.284-.295-2.488-.063-3.622.524-2.274 1.177-3.323 3.962-2.45 6.418.99 2.788 3.378 3.919 7.206 3.297z"/><path d="M384.676 67.546l5.86 2.683c3.335-4.472 8.327-4.432 11.36-2.709 3.662 2.082 5.371 6.458 3.998 10.381-1.409 4.028-5.242 6.3-9.59 5.6l.765-3.094c3.66-.185 5.776-1.84 5.996-4.928.186-2.634-1.615-5.05-4.192-5.623-2.975-.66-5.203.872-6.558 4.566-2.52-1.161-5.047-2.293-7.541-3.494-.841-.404-1.517-.503-2.426-.057-1.519.744-3.235.212-4.235-1.055-.99-1.254-1.081-2.97-.23-4.282a3.62 3.62 0 0 1 3.992-1.504c1.238.35 2.11 1.122 2.505 2.376.11.35.186.71.296 1.14z"/><path d="M395.633 78.369l-5.187 3.768c.998 2.42 1.131 4.86.049 7.262-.842 1.866-2.19 3.27-4.035 4.201-3.396 1.714-7.88.767-10.35-2.173-2.798-3.331-2.668-8.194.019-11.217l2.426 1.942c-1.838 3.637-1.475 6.271 1.07 8.047 2.238 1.563 5.122 1.216 7.029-.846 1.947-2.105 1.711-4.841-.648-7.794 2.158-1.567 4.3-3.159 6.482-4.693.852-.598 1.439-1.159 1.53-2.367.152-1.99 2.155-3.276 4.125-2.932 2.012.352 3.345 2.302 2.954 4.323a3.61 3.61 0 0 1-4.232 2.856c-.403-.08-.791-.24-1.232-.377z"/></g><g><path d="M464.975 67.312c-2.38 1.693-4.672 3.338-6.983 4.954-.593.415-.967.802-1.015 1.644-.134 2.325-2.058 3.789-4.286 3.427-2.101-.342-3.38-2.401-2.851-4.594.468-1.94 2.634-3.083 4.724-2.489.175.05.344.122.63.224 1.686-1.196 3.414-2.42 5.235-3.713-1.043-2.718-1.182-5.415.279-8.03 1.032-1.848 2.526-3.178 4.51-3.93 3.797-1.44 8.005-.073 10.215 3.314 2.122 3.253 1.816 7.613-.777 10.306l-2.4-1.962c1.16-1.622 1.604-3.346 1.02-5.252-.388-1.26-1.19-2.186-2.266-2.875-2.156-1.381-5.092-.897-6.783 1.087-1.919 2.252-1.704 4.885.748 7.89z"/><path d="M470.062 66.323l.606 6.416c5.54.652 8.001 4.995 8.025 8.483.03 4.213-2.906 7.881-6.99 8.654-4.193.793-8.077-1.39-9.646-5.506l3.063-.884c1.99 3.076 4.48 4.082 7.265 2.728 2.375-1.155 3.567-3.923 2.774-6.442-.915-2.907-3.356-4.07-7.233-3.396-.254-2.763-.537-5.517-.745-8.278-.07-.93-.323-1.564-1.163-2.129-1.404-.943-1.801-2.696-1.204-4.196.591-1.483 2.03-2.42 3.593-2.34a3.62 3.62 0 0 1 3.3 2.706c.314 1.247.082 2.389-.807 3.357-.247.27-.522.517-.838.827z"/><path d="M466.167 81.223l-5.857-2.608c-1.596 2.074-3.644 3.41-6.264 3.673-2.037.204-3.928-.26-5.656-1.393-3.183-2.084-4.604-6.441-3.293-10.05 1.485-4.09 5.762-6.408 9.723-5.592l-.469 3.072c-4.068.226-6.168 1.858-6.434 4.949-.233 2.72 1.509 5.044 4.247 5.665 2.797.634 5.05-.939 6.427-4.458 2.436 1.085 4.885 2.145 7.305 3.267.944.439 1.723.666 2.815.142 1.798-.864 3.914.228 4.601 2.106.702 1.918-.32 4.047-2.267 4.72a3.61 3.61 0 0 1-4.588-2.238c-.133-.389-.188-.805-.29-1.255z"/></g><g><path d="M515.647 85.498c-1.658 2.404-3.249 4.734-4.867 7.043-.416.593-.635 1.084-.393 1.891.67 2.231-.637 4.265-2.855 4.687-2.091.398-3.997-1.1-4.25-3.342-.224-1.984 1.42-3.798 3.587-3.954.182-.013.366-.003.67-.005l3.649-5.28c-1.91-2.198-2.964-4.684-2.485-7.641.338-2.09 1.287-3.85 2.894-5.235 3.076-2.652 7.498-2.807 10.732-.38 3.107 2.33 4.31 6.532 2.795 9.95L522.2 82.21c.535-1.921.362-3.693-.84-5.284-.793-1.05-1.865-1.647-3.111-1.927-2.499-.56-5.092.9-6.002 3.342-1.033 2.773.069 5.173 3.4 7.158z"/><path d="M520.088 82.828l2.765 5.822c5.428-1.283 9.227 1.957 10.442 5.226 1.468 3.95-.035 8.4-3.61 10.523-3.668 2.18-8.064 1.456-10.946-1.875l2.575-1.878c2.923 2.21 5.607 2.303 7.76.079 1.837-1.898 2.01-4.906.404-7.002-1.854-2.419-4.546-2.677-7.958-.718-1.184-2.51-2.392-5-3.531-7.524-.385-.85-.839-1.36-1.822-1.603-1.641-.406-2.614-1.917-2.566-3.53.048-1.596 1.08-2.97 2.576-3.428a3.62 3.62 0 0 1 4.026 1.414c.722 1.064.895 2.216.39 3.43-.14.339-.313.664-.505 1.064z"/><path d="M521.525 98.161l-6.396-.447c-.79 2.495-2.258 4.45-4.63 5.594-1.845.888-3.78 1.098-5.792.625-3.703-.87-6.53-4.477-6.531-8.318-.003-4.35 3.223-7.991 7.224-8.58l.61 3.048c-3.746 1.603-5.16 3.855-4.353 6.85.71 2.637 3.143 4.225 5.928 3.871 2.845-.36 4.424-2.608 4.515-6.387 2.66.186 5.324.345 7.981.572 1.038.09 1.847.037 2.694-.83 1.395-1.427 3.756-1.124 5.044.405 1.316 1.563 1.083 3.914-.516 5.21a3.61 3.61 0 0 1-5.077-.532c-.257-.32-.452-.692-.701-1.08z"/></g><g><path d="M575.99 93.446c.276 2.908.555 5.714.8 8.524.062.721.21 1.239.914 1.701 1.947 1.279 2.253 3.677.825 5.425-1.346 1.65-3.769 1.727-5.403.172-1.447-1.375-1.353-3.822.206-5.335.13-.127.278-.237.51-.434l-.599-6.39c-2.875-.456-5.281-1.684-6.815-4.256-1.084-1.819-1.489-3.777-1.148-5.87.652-4.01 3.94-6.97 7.977-7.19 3.878-.212 7.5 2.233 8.537 5.826l-2.898 1.096c-.826-1.816-2.097-3.062-4.04-3.508-1.284-.295-2.488-.063-3.622.524-2.274 1.177-3.323 3.962-2.45 6.418.99 2.788 3.378 3.919 7.206 3.297z"/><path d="M577.676 88.546l5.86 2.683c3.335-4.472 8.327-4.432 11.36-2.709 3.662 2.082 5.371 6.458 3.998 10.381-1.409 4.028-5.242 6.3-9.59 5.6l.765-3.094c3.66-.185 5.776-1.84 5.996-4.928.186-2.634-1.615-5.05-4.192-5.623-2.975-.66-5.203.872-6.558 4.566-2.52-1.161-5.047-2.293-7.541-3.494-.841-.404-1.517-.503-2.426-.057-1.519.744-3.235.212-4.235-1.055-.99-1.254-1.081-2.97-.23-4.282a3.62 3.62 0 0 1 3.992-1.504c1.238.35 2.11 1.122 2.505 2.376.11.35.186.71.296 1.14z"/><path d="M588.633 99.369l-5.187 3.768c.998 2.42 1.131 4.86.049 7.262-.842 1.866-2.19 3.27-4.035 4.201-3.396 1.714-7.88.767-10.35-2.173-2.798-3.331-2.668-8.194.019-11.217l2.426 1.942c-1.838 3.637-1.475 6.271 1.07 8.047 2.238 1.563 5.122 1.216 7.029-.846 1.947-2.105 1.711-4.841-.648-7.794 2.158-1.567 4.3-3.159 6.482-4.693.852-.598 1.439-1.159 1.53-2.367.152-1.99 2.155-3.276 4.125-2.932 2.012.352 3.345 2.302 2.954 4.323a3.61 3.61 0 0 1-4.232 2.856c-.403-.08-.791-.24-1.232-.377z"/></g><g><path d="M60.131 102.169c-2.256 1.854-4.427 3.655-6.62 5.43-.562.454-.909.866-.898 1.71.028 2.328-1.788 3.923-4.036 3.717-2.12-.194-3.54-2.16-3.165-4.384.332-1.968 2.413-3.26 4.539-2.812.178.037.352.097.644.18l4.963-4.07c-1.23-2.639-1.557-5.32-.282-8.03.901-1.916 2.299-3.346 4.225-4.234 3.688-1.701 7.981-.632 10.421 2.592 2.344 3.097 2.343 7.468-.056 10.336l-2.53-1.79c1.044-1.7 1.367-3.45.65-5.31-.474-1.23-1.34-2.098-2.46-2.71-2.247-1.228-5.143-.54-6.69 1.557-1.758 2.38-1.36 4.992 1.295 7.818z"/><path d="M65.137 100.827l1.052 6.359c5.572.263 8.33 4.424 8.598 7.902.322 4.2-2.35 8.064-6.37 9.12-4.128 1.084-8.154-.823-10.006-4.82l2.993-1.095c2.2 2.93 4.755 3.76 7.438 2.215 2.288-1.318 3.284-4.162 2.318-6.62-1.116-2.836-3.632-3.826-7.453-2.884-.446-2.738-.92-5.465-1.32-8.205-.135-.923-.431-1.538-1.309-2.043-1.466-.843-1.984-2.564-1.493-4.101.486-1.521 1.856-2.557 3.42-2.585a3.62 3.62 0 0 1 3.48 2.469c.402 1.221.25 2.377-.57 3.405-.227.287-.484.551-.778.883z"/><path d="M62.29 115.963l-6.024-2.193c-1.447 2.18-3.397 3.656-5.993 4.1-2.017.346-3.936.014-5.739-.995-3.32-1.857-5.042-6.104-3.986-9.796 1.197-4.182 5.301-6.793 9.31-6.256l-.254 3.097c-4.042.51-6.023 2.284-6.073 5.386-.043 2.73 1.857 4.927 4.632 5.355 2.834.437 4.971-1.289 6.1-4.895 2.506.912 5.023 1.798 7.515 2.75.973.37 1.765.544 2.818-.056 1.734-.987 3.92-.045 4.737 1.78.834 1.865-.038 4.06-1.932 4.866a3.61 3.61 0 0 1-4.734-1.912c-.159-.378-.243-.79-.376-1.231z"/></g><g><path d="M31.027 139.292c-.537 2.87-1.042 5.646-1.581 8.414-.139.71-.14 1.248.41 1.887 1.519 1.766 1.153 4.155-.702 5.443-1.749 1.214-4.1.62-5.242-1.324-1.011-1.721-.247-4.048 1.67-5.072.16-.086.332-.152.609-.277l1.186-6.307c-2.638-1.231-4.613-3.075-5.378-5.97-.541-2.047-.39-4.041.514-5.96 1.732-3.673 5.708-5.614 9.65-4.712 3.786.866 6.595 4.214 6.6 7.953l-3.088.256c-.293-1.974-1.17-3.522-2.916-4.487-1.153-.636-2.374-.746-3.626-.494-2.51.504-4.286 2.892-4.124 5.494.184 2.953 2.167 4.698 6.018 5.156z"/><path d="M33.998 135.046l4.894 4.195c4.438-3.38 9.226-1.965 11.666.527 2.947 3.01 3.384 7.688.982 11.08-2.465 3.484-6.775 4.611-10.763 2.74l1.59-2.763c3.568.83 6.058-.176 7.12-3.084.906-2.48-.159-5.3-2.479-6.561-2.677-1.455-5.241-.596-7.562 2.581-2.102-1.81-4.219-3.595-6.286-5.437-.697-.62-1.32-.901-2.316-.723-1.665.296-3.168-.689-3.78-2.182-.606-1.478-.221-3.152.958-4.18a3.62 3.62 0 0 1 4.253-.345c1.093.678 1.72 1.66 1.753 2.975.01.366-.017.734-.03 1.177z"/><path d="M41.548 148.47l-6.025 2.193c.292 2.6-.252 4.984-1.955 6.993-1.323 1.562-3.006 2.54-5.036 2.927-3.737.712-7.786-1.435-9.35-4.942-1.772-3.973-.306-8.612 3.11-10.777l1.796 2.536c-2.77 2.988-3.146 5.62-1.19 8.03 1.722 2.118 4.59 2.58 6.99 1.124 2.452-1.487 2.98-4.183 1.526-7.671 2.506-.912 5.004-1.851 7.525-2.724.984-.34 1.702-.718 2.123-1.854.694-1.87 2.974-2.555 4.773-1.681 1.837.892 2.58 3.134 1.648 4.97a3.61 3.61 0 0 1-4.855 1.578c-.366-.188-.694-.449-1.08-.702z"/></g><g><path d="M90.745 141.31c-1.487 2.514-2.91 4.948-4.364 7.365-.373.62-.558 1.126-.26 1.914.823 2.179-.338 4.299-2.52 4.874-2.06.543-4.065-.818-4.474-3.037-.362-1.963 1.152-3.888 3.303-4.194.18-.026.364-.03.667-.052l3.272-5.522c-2.058-2.059-3.283-4.466-3.011-7.449.191-2.109 1.015-3.93 2.52-5.424 2.885-2.86 7.285-3.323 10.681-1.128 3.262 2.109 4.755 6.216 3.482 9.731l-2.99-.816c.4-1.954.104-3.71-1.205-5.213-.866-.993-1.976-1.513-3.239-1.705-2.531-.385-5.017 1.252-5.754 3.752-.837 2.838.43 5.156 3.892 6.903z"/><path d="M94.99 138.336l3.163 5.616c5.326-1.659 9.341 1.308 10.782 4.485 1.74 3.837.55 8.381-2.867 10.748-3.508 2.43-7.943 2.015-11.05-1.106l2.437-2.054c3.07 2.001 5.754 1.907 7.747-.462 1.7-2.021 1.663-5.035-.086-7.013-2.018-2.284-4.721-2.353-7.989-.161-1.356-2.42-2.735-4.822-4.047-7.26-.443-.82-.932-1.297-1.929-1.471-1.666-.29-2.742-1.73-2.806-3.344-.064-1.595.87-3.037 2.33-3.599a3.62 3.62 0 0 1 4.115 1.13c.795 1.011 1.047 2.149.63 3.395-.117.348-.268.684-.43 1.096z"/><path d="M97.492 153.532H91.08c-.614 2.544-1.941 4.598-4.229 5.903-1.777 1.015-3.694 1.36-5.733 1.028-3.755-.61-6.826-4.011-7.096-7.842-.306-4.34 2.658-8.197 6.608-9.063l.821 2.997c-3.624 1.861-4.879 4.206-3.864 7.138.893 2.58 3.43 3.995 6.184 3.448 2.812-.558 4.23-2.91 4.057-6.686 2.667 0 5.336-.028 8.002.013 1.042.017 1.846-.092 2.63-1.016 1.292-1.52 3.669-1.383 5.06.053 1.421 1.467 1.353 3.828-.151 5.234a3.61 3.61 0 0 1-5.102-.178c-.28-.301-.5-.659-.775-1.029z"/></g><g><path d="M143.131 124.169c-2.256 1.854-4.427 3.655-6.62 5.43-.562.454-.909.866-.898 1.71.028 2.328-1.788 3.923-4.036 3.717-2.12-.194-3.54-2.16-3.165-4.384.332-1.968 2.413-3.26 4.539-2.812.178.037.352.097.644.18l4.963-4.07c-1.23-2.639-1.557-5.32-.282-8.03.901-1.916 2.299-3.346 4.225-4.234 3.688-1.701 7.981-.632 10.421 2.592 2.344 3.097 2.343 7.468-.056 10.336l-2.53-1.79c1.044-1.7 1.367-3.45.65-5.31-.474-1.23-1.34-2.098-2.46-2.71-2.247-1.228-5.143-.54-6.69 1.557-1.758 2.38-1.36 4.992 1.295 7.818z"/><path d="M148.137 122.827l1.052 6.359c5.572.263 8.33 4.424 8.598 7.902.322 4.2-2.35 8.064-6.37 9.12-4.128 1.084-8.154-.823-10.006-4.82l2.993-1.095c2.2 2.93 4.755 3.76 7.438 2.215 2.288-1.318 3.284-4.162 2.318-6.62-1.116-2.836-3.632-3.826-7.453-2.884-.446-2.738-.92-5.465-1.32-8.205-.135-.923-.431-1.538-1.309-2.043-1.466-.843-1.984-2.564-1.493-4.101.486-1.521 1.856-2.557 3.42-2.585a3.62 3.62 0 0 1 3.48 2.469c.402 1.221.25 2.377-.57 3.405-.227.287-.484.551-.778.883z"/><path d="M145.29 137.963l-6.024-2.193c-1.447 2.18-3.397 3.656-5.993 4.1-2.017.346-3.936.014-5.739-.995-3.32-1.857-5.042-6.104-3.986-9.796 1.197-4.182 5.301-6.793 9.31-6.256l-.254 3.097c-4.042.51-6.023 2.284-6.073 5.386-.043 2.73 1.857 4.927 4.632 5.355 2.834.437 4.971-1.289 6.1-4.895 2.506.912 5.023 1.798 7.515 2.75.973.37 1.765.544 2.818-.056 1.734-.987 3.92-.045 4.737 1.78.834 1.865-.038 4.06-1.932 4.866a3.61 3.61 0 0 1-4.734-1.912c-.159-.378-.243-.79-.376-1.231z"/></g><g><path d="M197.131 116.169c-2.256 1.854-4.427 3.655-6.62 5.43-.562.454-.909.866-.898 1.71.028 2.328-1.788 3.923-4.036 3.717-2.12-.194-3.54-2.16-3.165-4.384.332-1.968 2.413-3.26 4.539-2.812.178.037.352.097.644.18l4.963-4.07c-1.23-2.639-1.557-5.32-.282-8.03.901-1.916 2.299-3.346 4.225-4.234 3.688-1.701 7.981-.632 10.421 2.592 2.344 3.097 2.343 7.468-.056 10.336l-2.53-1.79c1.044-1.7 1.367-3.45.65-5.31-.474-1.23-1.34-2.098-2.46-2.71-2.247-1.228-5.143-.54-6.69 1.557-1.758 2.38-1.36 4.992 1.295 7.818z"/><path d="M202.137 114.827l1.052 6.359c5.572.263 8.33 4.424 8.598 7.902.322 4.2-2.35 8.064-6.37 9.12-4.128 1.084-8.154-.823-10.006-4.82l2.993-1.095c2.2 2.93 4.755 3.76 7.438 2.215 2.288-1.318 3.284-4.162 2.318-6.62-1.116-2.836-3.632-3.826-7.453-2.884-.446-2.738-.92-5.465-1.32-8.205-.135-.923-.431-1.538-1.309-2.043-1.466-.843-1.984-2.564-1.493-4.101.486-1.521 1.856-2.557 3.42-2.585a3.62 3.62 0 0 1 3.48 2.469c.402 1.221.25 2.377-.57 3.405-.227.287-.484.551-.778.883z"/><path d="M199.29 129.963l-6.024-2.193c-1.447 2.18-3.397 3.656-5.993 4.1-2.017.346-3.936.014-5.739-.995-3.32-1.857-5.042-6.104-3.986-9.796 1.197-4.182 5.301-6.793 9.31-6.256l-.254 3.097c-4.042.51-6.023 2.284-6.073 5.386-.043 2.73 1.857 4.927 4.632 5.355 2.834.437 4.971-1.289 6.1-4.895 2.506.912 5.023 1.798 7.515 2.75.973.37 1.765.544 2.818-.056 1.734-.987 3.92-.045 4.737 1.78.834 1.865-.038 4.06-1.932 4.866a3.61 3.61 0 0 1-4.734-1.912c-.159-.378-.243-.79-.376-1.231z"/></g><g><path d="M192.032 158.762c-.03 2.92-.046 5.74-.097 8.56-.013.724.08 1.254.733 1.788 1.802 1.475 1.856 3.892.253 5.482-1.511 1.499-3.93 1.323-5.392-.394-1.295-1.52-.946-3.943.763-5.284.143-.113.301-.207.552-.379l.073-6.417c-2.812-.755-5.076-2.227-6.333-4.946-.888-1.922-1.086-3.912-.528-5.958 1.067-3.919 4.646-6.52 8.685-6.317 3.879.196 7.226 3.006 7.881 6.687l-2.997.788c-.631-1.893-1.765-3.265-3.651-3.912-1.246-.427-2.468-.323-3.657.143-2.385.932-3.719 3.592-3.107 6.126.694 2.877 2.95 4.25 6.822 4.033z"/><path d="M194.22 154.064l5.548 3.282c3.784-4.1 8.745-3.538 11.58-1.507 3.426 2.453 4.668 6.983 2.892 10.742-1.822 3.858-5.872 5.717-10.124 4.567l1.085-2.997c3.659.198 5.937-1.226 6.478-4.274.461-2.6-1.077-5.192-3.581-6.03-2.89-.97-5.266.322-7 3.854-2.384-1.418-4.778-2.808-7.134-4.262-.794-.49-1.456-.659-2.406-.31-1.588.58-3.24-.129-4.102-1.493-.853-1.35-.765-3.066.218-4.282a3.62 3.62 0 0 1 4.129-1.08c1.194.479 1.981 1.338 2.242 2.626.073.36.111.726.176 1.164z"/><path d="M203.986 165.973l-5.552 3.206c.74 2.51.617 4.952-.711 7.227-1.032 1.768-2.52 3.024-4.452 3.757-3.556 1.35-7.916-.061-10.066-3.244-2.435-3.605-1.797-8.427 1.192-11.153l2.21 2.185c-2.21 3.424-2.123 6.082.221 8.114 2.064 1.789 4.968 1.745 7.08-.106 2.156-1.89 2.208-4.636.17-7.82 2.31-1.332 4.607-2.69 6.938-3.988.91-.507 1.551-1.003 1.769-2.195.358-1.962 2.485-3.032 4.408-2.484 1.965.56 3.086 2.638 2.486 4.608a3.61 3.61 0 0 1-4.507 2.397c-.392-.121-.762-.321-1.186-.504z"/></g><g><path d="M252.032 140.762c-.03 2.92-.046 5.74-.097 8.56-.013.724.08 1.254.733 1.788 1.802 1.475 1.856 3.892.253 5.482-1.511 1.499-3.93 1.323-5.392-.394-1.295-1.52-.946-3.943.763-5.284.143-.113.301-.207.552-.379l.073-6.417c-2.812-.755-5.076-2.227-6.333-4.946-.888-1.922-1.086-3.912-.528-5.958 1.067-3.919 4.646-6.52 8.685-6.317 3.879.196 7.226 3.006 7.881 6.687l-2.997.788c-.631-1.893-1.765-3.265-3.651-3.912-1.246-.427-2.468-.323-3.657.143-2.385.932-3.719 3.592-3.107 6.126.694 2.877 2.95 4.25 6.822 4.033z"/><path d="M254.22 136.064l5.548 3.282c3.784-4.1 8.745-3.538 11.58-1.507 3.426 2.453 4.668 6.983 2.892 10.742-1.822 3.858-5.872 5.717-10.124 4.567l1.085-2.997c3.659.198 5.937-1.226 6.478-4.274.461-2.6-1.077-5.192-3.581-6.03-2.89-.97-5.266.322-7 3.854-2.384-1.418-4.778-2.808-7.134-4.262-.794-.49-1.456-.659-2.406-.31-1.588.58-3.24-.129-4.102-1.493-.853-1.35-.765-3.066.218-4.282a3.62 3.62 0 0 1 4.129-1.08c1.194.479 1.981 1.338 2.242 2.626.073.36.111.726.176 1.164z"/><path d="M263.986 147.973l-5.552 3.206c.74 2.51.617 4.952-.711 7.227-1.032 1.768-2.52 3.024-4.452 3.757-3.556 1.35-7.916-.061-10.066-3.244-2.435-3.605-1.797-8.427 1.192-11.153l2.21 2.185c-2.21 3.424-2.123 6.082.221 8.114 2.064 1.789 4.968 1.745 7.08-.106 2.156-1.89 2.208-4.636.17-7.82 2.31-1.332 4.607-2.69 6.938-3.988.91-.507 1.551-1.003 1.769-2.195.358-1.962 2.485-3.032 4.408-2.484 1.965.56 3.086 2.638 2.486 4.608a3.61 3.61 0 0 1-4.507 2.397c-.392-.121-.762-.321-1.186-.504z"/></g><g><path d="M304.761 142.944c-2.881.478-5.662.952-8.447 1.392-.715.113-1.221.296-1.634 1.031-1.14 2.031-3.51 2.504-5.354 1.202-1.739-1.228-1.985-3.64-.549-5.378 1.272-1.54 3.72-1.617 5.337-.167.136.122.256.26.468.478l6.333-1.043c.255-2.9 1.312-5.385 3.77-7.095 1.74-1.208 3.665-1.749 5.777-1.555 4.044.371 7.228 3.444 7.729 7.456.481 3.854-1.705 7.639-5.217 8.923l-1.296-2.815c1.754-.95 2.909-2.305 3.218-4.275.205-1.3-.11-2.486-.775-3.576-1.333-2.187-4.184-3.039-6.573-1.996-2.713 1.183-3.674 3.643-2.787 7.418z"/><path d="M309.767 144.284l-2.268 6.034c4.694 3.014 5.002 7.997 3.495 11.142-1.821 3.8-6.067 5.81-10.077 4.713-4.116-1.125-6.65-4.79-6.256-9.177l3.14.548c.441 3.638 2.239 5.633 5.335 5.637 2.64.003 4.925-1.962 5.317-4.574.452-3.013-1.233-5.129-5.012-6.223.982-2.594 1.935-5.194 2.959-7.766.345-.868.396-1.548-.112-2.424-.849-1.463-.437-3.213.757-4.299 1.181-1.074 2.886-1.285 4.255-.528a3.62 3.62 0 0 1 1.78 3.878c-.264 1.259-.973 2.183-2.197 2.664-.34.135-.695.236-1.116.375z"/><path d="M299.735 155.97l-4.121-4.912c-2.344 1.164-4.77 1.468-7.24.555-1.921-.71-3.416-1.956-4.474-3.732-1.946-3.268-1.314-7.807 1.447-10.476 3.127-3.024 7.987-3.233 11.19-.764l-1.768 2.556c-3.756-1.58-6.358-1.034-7.952 1.628-1.403 2.343-.856 5.195 1.334 6.953 2.235 1.796 4.95 1.37 7.73-1.19 1.714 2.043 3.45 4.07 5.133 6.14.657.808 1.257 1.354 2.469 1.36 1.995.013 3.417 1.922 3.212 3.91-.21 2.033-2.063 3.498-4.107 3.249a3.61 3.61 0 0 1-3.143-4.022c.051-.408.184-.806.29-1.256z"/></g><g><path d="M336.767 98.739c.971 2.755 1.92 5.41 2.838 8.077.235.685.503 1.151 1.3 1.43 2.197.77 3.075 3.022 2.112 5.064-.907 1.926-3.24 2.587-5.201 1.474-1.737-.984-2.238-3.381-1.09-5.226.096-.155.211-.298.389-.544l-2.127-6.056c-2.9.253-5.532-.356-7.642-2.481-1.492-1.502-2.359-3.305-2.535-5.418-.337-4.048 2.137-7.716 6.001-8.907 3.712-1.143 7.819.353 9.693 3.588l-2.547 1.766c-1.24-1.563-2.775-2.465-4.768-2.428-1.317.025-2.43.541-3.388 1.385-1.922 1.692-2.266 4.648-.824 6.82 1.636 2.466 4.226 2.985 7.79 1.456z"/><path d="M337.218 93.576l6.335 1.186c2.153-5.145 7.007-6.314 10.366-5.376 4.058 1.134 6.775 4.966 6.392 9.105-.393 4.25-3.563 7.38-7.951 7.754l-.006-3.187c3.506-1.066 5.159-3.183 4.625-6.232-.456-2.601-2.788-4.51-5.428-4.442-3.046.078-4.837 2.104-5.258 6.016-2.726-.517-5.451-1.004-8.162-1.565-.914-.19-1.593-.121-2.368.531-1.293 1.09-3.088.988-4.365 0-1.262-.976-1.767-2.618-1.259-4.098a3.62 3.62 0 0 1 3.51-2.426c1.286.041 2.32.579 3.006 1.7.191.313.352.645.563 1.034z"/><path d="M350.467 101.427l-4.12 4.912c1.553 2.105 2.273 4.442 1.803 7.034-.365 2.014-1.333 3.703-2.898 5.053-2.88 2.484-7.46 2.65-10.569.394-3.52-2.554-4.57-7.304-2.695-10.888l2.824 1.298c-.904 3.973.086 6.441 2.984 7.549 2.55.974 5.265-.06 6.616-2.521 1.38-2.514.49-5.112-2.514-7.406 1.714-2.043 3.409-4.105 5.155-6.122.681-.787 1.115-1.472.911-2.667-.334-1.967 1.3-3.7 3.293-3.842 2.038-.146 3.803 1.424 3.912 3.48a3.61 3.61 0 0 1-3.415 3.794c-.41.02-.826-.041-1.287-.068z"/></g><g><path d="M376.975 129.312c-2.38 1.693-4.672 3.338-6.983 4.954-.593.415-.967.802-1.015 1.644-.134 2.325-2.058 3.789-4.286 3.427-2.101-.342-3.38-2.401-2.851-4.594.468-1.94 2.634-3.083 4.724-2.489.175.05.344.122.63.224 1.686-1.196 3.414-2.42 5.235-3.713-1.043-2.718-1.182-5.415.279-8.03 1.032-1.848 2.526-3.178 4.51-3.93 3.797-1.44 8.005-.073 10.215 3.314 2.122 3.253 1.816 7.613-.777 10.306l-2.4-1.962c1.16-1.622 1.604-3.346 1.02-5.252-.388-1.26-1.19-2.186-2.266-2.875-2.156-1.381-5.092-.897-6.783 1.087-1.919 2.252-1.704 4.885.748 7.89z"/><path d="M382.062 128.323l.606 6.416c5.54.652 8.001 4.995 8.025 8.483.03 4.213-2.906 7.881-6.99 8.654-4.193.793-8.077-1.39-9.646-5.506l3.063-.884c1.99 3.076 4.48 4.082 7.265 2.728 2.375-1.155 3.567-3.923 2.774-6.442-.915-2.907-3.356-4.07-7.233-3.396-.254-2.763-.537-5.517-.745-8.278-.07-.93-.323-1.564-1.163-2.129-1.404-.943-1.801-2.696-1.204-4.196.591-1.483 2.03-2.42 3.593-2.34a3.62 3.62 0 0 1 3.3 2.706c.314 1.247.082 2.389-.807 3.357-.247.27-.522.517-.838.827z"/><path d="M378.167 143.223l-5.857-2.608c-1.596 2.074-3.644 3.41-6.264 3.673-2.037.204-3.928-.26-5.656-1.393-3.183-2.084-4.604-6.441-3.293-10.05 1.485-4.09 5.762-6.408 9.723-5.592l-.469 3.072c-4.068.226-6.168 1.858-6.434 4.949-.233 2.72 1.509 5.044 4.247 5.665 2.797.634 5.05-.939 6.427-4.458 2.436 1.085 4.885 2.145 7.305 3.267.944.439 1.723.666 2.815.142 1.798-.864 3.914.228 4.601 2.106.702 1.918-.32 4.047-2.267 4.72a3.61 3.61 0 0 1-4.588-2.238c-.133-.389-.188-.805-.29-1.255z"/></g><g><path d="M427.975 105.312c-2.38 1.693-4.672 3.338-6.983 4.954-.593.415-.967.802-1.015 1.644-.134 2.325-2.058 3.789-4.286 3.427-2.101-.342-3.38-2.401-2.851-4.594.468-1.94 2.634-3.083 4.724-2.489.175.05.344.122.63.224 1.686-1.196 3.414-2.42 5.235-3.713-1.043-2.718-1.182-5.415.279-8.03 1.032-1.848 2.526-3.178 4.51-3.93 3.797-1.44 8.005-.073 10.215 3.314 2.122 3.253 1.816 7.613-.777 10.306l-2.4-1.962c1.16-1.622 1.604-3.346 1.02-5.252-.388-1.26-1.19-2.186-2.266-2.875-2.156-1.381-5.092-.897-6.783 1.087-1.919 2.252-1.704 4.885.748 7.89z"/><path d="M433.062 104.323l.606 6.416c5.54.652 8.001 4.995 8.025 8.483.03 4.213-2.906 7.881-6.99 8.654-4.193.793-8.077-1.39-9.646-5.506l3.063-.884c1.99 3.076 4.48 4.082 7.265 2.728 2.375-1.155 3.567-3.923 2.774-6.442-.915-2.907-3.356-4.07-7.233-3.396-.254-2.763-.537-5.517-.745-8.278-.07-.93-.323-1.564-1.163-2.129-1.404-.943-1.801-2.696-1.204-4.196.591-1.483 2.03-2.42 3.593-2.34a3.62 3.62 0 0 1 3.3 2.706c.314 1.247.082 2.389-.807 3.357-.247.27-.522.517-.838.827z"/><path d="M429.167 119.223l-5.857-2.608c-1.596 2.074-3.644 3.41-6.264 3.673-2.037.204-3.928-.26-5.656-1.393-3.183-2.084-4.604-6.441-3.293-10.05 1.485-4.09 5.762-6.408 9.723-5.592l-.469 3.072c-4.068.226-6.168 1.858-6.434 4.949-.233 2.72 1.509 5.044 4.247 5.665 2.797.634 5.05-.939 6.427-4.458 2.436 1.085 4.885 2.145 7.305 3.267.944.439 1.723.666 2.815.142 1.798-.864 3.914.228 4.601 2.106.702 1.918-.32 4.047-2.267 4.72a3.61 3.61 0 0 1-4.588-2.238c-.133-.389-.188-.805-.29-1.255z"/></g><g><path d="M419.026 158.04c-2.91-.233-5.724-.445-8.533-.692-.721-.064-1.256-.008-1.834.605-1.597 1.695-4.012 1.58-5.486-.129-1.39-1.612-1.046-4.012.769-5.351 1.606-1.186 4-.67 5.218 1.13.102.15.185.314.339.576l6.397.52c.948-2.752 2.575-4.908 5.375-5.972 1.98-.752 3.978-.81 5.98-.111 3.835 1.338 6.18 5.09 5.696 9.104-.465 3.856-3.502 7-7.22 7.396l-.577-3.045c1.932-.497 3.38-1.533 4.157-3.369.513-1.213.494-2.44.113-3.658-.764-2.444-3.325-3.96-5.895-3.527-2.918.492-4.446 2.646-4.499 6.524z"/><path d="M423.56 160.552l-3.66 5.306c3.824 4.06 2.918 8.97.694 11.656-2.686 3.246-7.292 4.17-10.917 2.136-3.722-2.087-5.293-6.256-3.85-10.418l2.914 1.292c-.452 3.635.81 6.007 3.812 6.76 2.562.641 5.254-.713 6.266-3.152 1.167-2.815.045-5.275-3.358-7.251 1.581-2.28 3.135-4.572 4.75-6.82.545-.758.759-1.406.478-2.379-.47-1.625.353-3.223 1.775-3.988 1.406-.756 3.111-.549 4.256.517a3.62 3.62 0 0 1 .788 4.194c-.56 1.157-1.471 1.883-2.775 2.053-.363.048-.732.06-1.174.094z"/><path d="M410.998 169.463l-2.81-5.762c-2.556.562-4.984.27-7.16-1.213-1.692-1.153-2.841-2.725-3.437-4.703-1.099-3.642.613-7.894 3.938-9.816 3.766-2.177 8.532-1.204 11.043 1.967l-2.335 2.052c-3.261-2.442-5.919-2.542-8.11-.345-1.927 1.934-2.086 4.834-.387 7.07 1.735 2.283 4.47 2.526 7.788.716 1.17 2.396 2.364 4.783 3.496 7.198.441.943.891 1.618 2.066 1.918 1.932.494 2.851 2.691 2.17 4.57-.695 1.922-2.847 2.895-4.77 2.16a3.61 3.61 0 0 1-2.077-4.664c.149-.383.374-.737.585-1.148z"/></g><g><path d="M475.99 124.446c.276 2.908.555 5.714.8 8.524.062.721.21 1.239.914 1.701 1.947 1.279 2.253 3.677.825 5.425-1.346 1.65-3.769 1.727-5.403.172-1.447-1.375-1.353-3.822.206-5.335.13-.127.278-.237.51-.434l-.599-6.39c-2.875-.456-5.281-1.684-6.815-4.256-1.084-1.819-1.489-3.777-1.148-5.87.652-4.01 3.94-6.97 7.977-7.19 3.878-.212 7.5 2.233 8.537 5.826l-2.898 1.096c-.826-1.816-2.097-3.062-4.04-3.508-1.284-.295-2.488-.063-3.622.524-2.274 1.177-3.323 3.962-2.45 6.418.99 2.788 3.378 3.919 7.206 3.297z"/><path d="M477.676 119.546l5.86 2.683c3.335-4.472 8.327-4.432 11.36-2.709 3.662 2.082 5.371 6.458 3.998 10.381-1.409 4.028-5.242 6.3-9.59 5.6l.765-3.094c3.66-.185 5.776-1.84 5.996-4.928.186-2.634-1.615-5.05-4.192-5.623-2.975-.66-5.203.872-6.558 4.566-2.52-1.161-5.047-2.293-7.541-3.494-.841-.404-1.517-.503-2.426-.057-1.519.744-3.235.212-4.235-1.055-.99-1.254-1.081-2.97-.23-4.282a3.62 3.62 0 0 1 3.992-1.504c1.238.35 2.11 1.122 2.505 2.376.11.35.186.71.296 1.14z"/><path d="M488.633 130.369l-5.187 3.768c.998 2.42 1.131 4.86.049 7.262-.842 1.866-2.19 3.27-4.035 4.201-3.396 1.714-7.88.767-10.35-2.173-2.798-3.331-2.668-8.194.019-11.217l2.426 1.942c-1.838 3.637-1.475 6.271 1.07 8.047 2.238 1.563 5.122 1.216 7.029-.846 1.947-2.105 1.711-4.841-.648-7.794 2.158-1.567 4.3-3.159 6.482-4.693.852-.598 1.439-1.159 1.53-2.367.152-1.99 2.155-3.276 4.125-2.932 2.012.352 3.345 2.302 2.954 4.323a3.61 3.61 0 0 1-4.232 2.856c-.403-.08-.791-.24-1.232-.377z"/></g><g><path d="M535.99 133.446c.276 2.908.555 5.714.8 8.524.062.721.21 1.239.914 1.701 1.947 1.279 2.253 3.677.825 5.425-1.346 1.65-3.769 1.727-5.403.172-1.447-1.375-1.353-3.822.206-5.335.13-.127.278-.237.51-.434l-.599-6.39c-2.875-.456-5.281-1.684-6.815-4.256-1.084-1.819-1.489-3.777-1.148-5.87.652-4.01 3.94-6.97 7.977-7.19 3.878-.212 7.5 2.233 8.537 5.826l-2.898 1.096c-.826-1.816-2.097-3.062-4.04-3.508-1.284-.295-2.488-.063-3.622.524-2.274 1.177-3.323 3.962-2.45 6.418.99 2.788 3.378 3.919 7.206 3.297z"/><path d="M537.676 128.546l5.86 2.683c3.335-4.472 8.327-4.432 11.36-2.709 3.662 2.082 5.371 6.458 3.998 10.381-1.409 4.028-5.242 6.3-9.59 5.6l.765-3.094c3.66-.185 5.776-1.84 5.996-4.928.186-2.634-1.615-5.05-4.192-5.623-2.975-.66-5.203.872-6.558 4.566-2.52-1.161-5.047-2.293-7.541-3.494-.841-.404-1.517-.503-2.426-.057-1.519.744-3.235.212-4.235-1.055-.99-1.254-1.081-2.97-.23-4.282a3.62 3.62 0 0 1 3.992-1.504c1.238.35 2.11 1.122 2.505 2.376.11.35.186.71.296 1.14z"/><path d="M548.633 139.369l-5.187 3.768c.998 2.42 1.131 4.86.049 7.262-.842 1.866-2.19 3.27-4.035 4.201-3.396 1.714-7.88.767-10.35-2.173-2.798-3.331-2.668-8.194.019-11.217l2.426 1.942c-1.838 3.637-1.475 6.271 1.07 8.047 2.238 1.563 5.122 1.216 7.029-.846 1.947-2.105 1.711-4.841-.648-7.794 2.158-1.567 4.3-3.159 6.482-4.693.852-.598 1.439-1.159 1.53-2.367.152-1.99 2.155-3.276 4.125-2.932 2.012.352 3.345 2.302 2.954 4.323a3.61 3.61 0 0 1-4.232 2.856c-.403-.08-.791-.24-1.232-.377z"/></g></g></svg>