<svg xmlns="http://www.w3.org/2000/svg" viewBox="0 0 605 180"><title>full-color-deployer</title><g fill-rule="evenodd"><path d="M45.197 35.024l-1.932-7.531L50.053.406 38.773 27.97l6.424 7.055"/><path d="M45.197 35.024l1.435-7.52-3.367-.011 1.932 7.53"/><path d="M46.632 27.504l13.453.045L50.053.406l-6.788 27.087 3.367.01M38.773 27.969L50.053.406l-23.621 30.96 12.34-3.397M72.388 67.42l3.361-7.01L98.36 44.024 72.002 57.887l.386 9.533"/><path d="M72.388 67.42l5.934-4.837-2.573-2.173-3.361 7.01M78.322 62.583l10.275 8.681 9.763-27.24L75.75 60.41l2.572 2.173M72.002 57.887L98.36 44.024l-37.996 8.533 11.638 5.33M135.197 44.024l-1.932-7.531 6.788-27.087-11.28 27.563 6.424 7.055"/><path d="M135.197 44.024l1.435-7.52-3.367-.011 1.932 7.53"/><path d="M136.632 36.504l13.453.045-10.032-27.143-6.788 27.087 3.367.01"/><path d="M128.773 36.969l11.28-27.563-23.621 30.96 12.34-3.397M190.402 46.702l4.528-6.32 25.113-12.211-28.365 9.075-1.276 9.456"/><path d="M190.402 46.702l6.684-3.734-2.156-2.586-4.528 6.32"/><path d="M197.086 42.968l8.612 10.334 14.345-25.131-25.113 12.21 2.156 2.587M191.678 37.246l28.365-9.075-38.9 1.806 10.535 7.27M266.197 41.024l-1.932-7.531 6.788-27.087-11.28 27.563 6.424 7.055"/><path d="M266.197 41.024l1.435-7.52-3.367-.011 1.932 7.53"/><path d="M267.632 33.504l13.453.045-10.032-27.143-6.788 27.087 3.367.01"/><path d="M259.773 33.969l11.28-27.563-23.621 30.96 12.34-3.397M345.318 46.327l5.651-5.34 26.981-7.195-29.576 3.496-3.056 9.04"/><path d="M345.318 46.327l7.274-2.39-1.623-2.95-5.65 5.34M352.592 43.937l6.482 11.788 18.876-21.933-26.98 7.195 1.622 2.95"/><path d="M348.374 37.288l29.576-3.496-38.53-5.65 8.954 9.146M435.981 46.907L432.05 40.2l-.94-27.909-3.247 29.605 8.12 5.011"/><path d="M435.981 46.907l-.692-7.624-3.24.917 3.932 6.707M435.289 39.283l12.943-3.665-17.124-23.327.941 27.909 3.24-.917"/><path d="M427.862 41.896l3.246-29.605-14.172 36.272 10.926-6.667M513.717 38.98l-2.708-7.288 3.92-27.648-8.339 28.591 7.127 6.345"/><path d="M513.717 38.98l.642-7.629-3.35.341 2.708 7.288"/><path d="M514.359 31.351l13.383-1.36-12.814-25.947-3.92 27.648 3.35-.34"/><path d="M506.59 32.635l8.338-28.59-20.255 33.26 11.917-4.67M543.528 59.852l5.923-5.037 27.32-5.773-29.718 1.943-3.525 8.867"/><path d="M543.528 59.852l7.388-2.006-1.465-3.031-5.923 5.037M550.916 57.846l5.857 12.11 19.999-20.914-27.321 5.773 1.465 3.03"/><path d="M547.053 50.985l29.719-1.943-38.182-7.659 8.463 9.602"/><g><path d="M14.402 87.702l4.528-6.32L44.043 69.17l-28.365 9.075-1.276 9.456"/><path d="M14.402 87.702l6.684-3.734-2.156-2.586-4.528 6.32M21.086 83.968l8.612 10.334 14.345-25.131L18.93 81.38l2.156 2.587M15.678 78.246l28.365-9.075-38.9 1.806 10.535 7.27"/></g><g><path d="M125.197 99.024l-1.932-7.531 6.788-27.087-11.28 27.563 6.424 7.055"/><path d="M125.197 99.024l1.435-7.52-3.367-.011 1.932 7.53"/><path d="M126.632 91.504l13.453.045-10.032-27.143-6.788 27.087 3.367.01M118.773 91.969l11.28-27.563-23.621 30.96 12.34-3.397"/></g><g><path d="M167.453 90.61l2.093-7.488 19.422-20.064-23.551 18.23 2.036 9.321"/><path d="M167.453 90.61l5.003-5.795-2.91-1.693-2.093 7.487"/><path d="M172.456 84.815l11.627 6.765 4.885-28.522-19.422 20.064 2.91 1.693M165.417 81.288l23.55-18.23-35.936 15.002 12.386 3.228"/></g><g><path d="M238.197 89.024l-1.932-7.531 6.788-27.087-11.28 27.563 6.424 7.055"/><path d="M238.197 89.024l1.435-7.52-3.367-.011 1.932 7.53"/><path d="M239.632 81.504l13.453.045-10.032-27.143-6.788 27.087 3.367.01M231.773 81.969l11.28-27.563-23.621 30.96 12.34-3.397"/></g><g><path d="M280.504 115.263l.76-7.737 15.643-23.132-20.027 22.043 3.624 8.826"/><path d="M280.504 115.263l3.92-6.575-3.16-1.162-.76 7.737M284.425 108.688l12.625 4.643-.143-28.937-15.642 23.132 3.16 1.162M276.88 106.437l20.027-22.043-32.786 21.014 12.759 1.029"/></g><g><path d="M307.504 75.263l.76-7.737 15.643-23.132-20.027 22.043 3.624 8.826"/><path d="M307.504 75.263l3.92-6.575-3.16-1.162-.76 7.737M311.425 68.688l12.625 4.643-.143-28.937-15.642 23.132 3.16 1.162M303.88 66.437l20.027-22.043-32.786 21.014 12.759 1.029"/></g><g><path d="M390.717 86.98l-2.708-7.288 3.92-27.648-8.339 28.591 7.127 6.345"/><path d="M390.717 86.98l.642-7.629-3.35.341 2.708 7.288"/><path d="M391.359 79.351l13.383-1.36-12.814-25.947-3.92 27.648 3.35-.34"/><path d="M383.59 80.635l8.338-28.59-20.255 33.26 11.917-4.67"/></g><g><path d="M456.251 81.271l4.958-5.99 25.903-10.429-28.93 7.075-1.931 9.344"/><path d="M456.251 81.271l6.928-3.258-1.97-2.731-4.958 5.989"/><path d="M463.179 78.013l7.87 10.909 16.063-24.07-25.903 10.43 1.97 2.73"/><path d="M458.183 71.927l28.93-7.075-38.933-.912 10.003 7.987"/></g><g><path d="M512.223 101.598l2.61-7.324 20.775-18.66-24.766 16.543 1.381 9.441"/><path d="M512.223 101.598l5.396-5.431-2.786-1.893-2.61 7.324"/><path d="M517.619 96.167l11.127 7.56 6.862-28.113-20.775 18.66 2.786 1.893M510.842 92.157l24.766-16.543-36.896 12.459 12.13 4.084"/></g><g><path d="M583.717 107.98l-2.708-7.288 3.92-27.648-8.339 28.591 7.127 6.345"/><path d="M583.717 107.98l.642-7.629-3.35.341 2.708 7.288"/><path d="M584.359 100.351l13.383-1.36-12.814-25.947-3.92 27.648 3.35-.34"/><path d="M576.59 101.635l8.338-28.59-20.255 33.26 11.917-4.67"/></g><g><path d="M52.402 116.702l4.528-6.32L82.043 98.17l-28.365 9.075-1.276 9.456"/><path d="M52.402 116.702l6.684-3.734-2.156-2.586-4.528 6.32"/><path d="M59.086 112.968l8.612 10.334 14.345-25.131-25.113 12.21 2.156 2.587M53.678 107.246l28.365-9.075-38.9 1.806 10.535 7.27"/></g><g><path d="M34.448 155.393l-.594-7.753 11.388-25.496-15.895 25.185 5.101 8.064"/><path d="M34.448 155.393l2.72-7.157-3.314-.596.594 7.753M37.168 148.236l13.24 2.38-5.166-28.472-11.388 25.496 3.314.596"/><path d="M29.347 147.33l15.895-25.186-28.638 26.388 12.743-1.203"/></g><g><path d="M88.453 157.61l2.093-7.488 19.422-20.064-23.551 18.23 2.036 9.321"/><path d="M88.453 157.61l5.003-5.795-2.91-1.693-2.093 7.487"/><path d="M93.456 151.815l11.627 6.765 4.885-28.522-19.422 20.064 2.91 1.693M86.417 148.288l23.55-18.23-35.936 15.002 12.386 3.228"/></g><g><path d="M135.402 138.702l4.528-6.32 25.113-12.211-28.365 9.075-1.276 9.456"/><path d="M135.402 138.702l6.684-3.734-2.156-2.586-4.528 6.32"/><path d="M142.086 134.968l8.612 10.334 14.345-25.131-25.113 12.21 2.156 2.587"/><path d="M136.678 129.246l28.365-9.075-38.9 1.806 10.535 7.27"/></g><g><path d="M189.402 130.702l4.528-6.32 25.113-12.211-28.365 9.075-1.276 9.456"/><path d="M189.402 130.702l6.684-3.734-2.156-2.586-4.528 6.32"/><path d="M196.086 126.968l8.612 10.334 14.345-25.131-25.113 12.21 2.156 2.587M190.678 121.246l28.365-9.075-38.9 1.806 10.535 7.27"/></g><g><path d="M198.197 174.024l-1.932-7.531 6.788-27.087-11.28 27.563 6.424 7.055"/><path d="M198.197 174.024l1.435-7.52-3.367-.011 1.932 7.53"/><path d="M199.632 166.504l13.453.045-10.032-27.143-6.788 27.087 3.367.01"/><path d="M191.773 166.969l11.28-27.563-23.621 30.96 12.34-3.397"/></g><g><path d="M258.197 156.024l-1.932-7.531 6.788-27.087-11.28 27.563 6.424 7.055"/><path d="M258.197 156.024l1.435-7.52-3.367-.011 1.932 7.53"/><path d="M259.632 148.504l13.453.045-10.032-27.143-6.788 27.087 3.367.01"/><path d="M251.773 148.969l11.28-27.563-23.621 30.96 12.34-3.397"/></g><g><path d="M290.801 151.666l7.082-3.21 27.854 1.981-29.103-6.323-5.833 7.552"/><path d="M290.801 151.666l7.655.108-.573-3.318-7.082 3.21"/><path d="M298.456 151.774l2.292 13.255 24.989-14.592-27.854-1.98.573 3.317"/><path d="M296.634 144.114l29.103 6.323-34.592-17.886 5.489 11.563"/></g><g><path d="M347.78 110.972l-4.39-6.416-2.886-27.775-1.173 29.76 8.45 4.431"/><path d="M347.78 110.972l-1.222-7.557-3.168 1.14 4.39 6.417"/><path d="M346.558 103.415l12.656-4.559-18.71-22.075 2.886 27.775 3.168-1.141M339.33 106.54l1.174-29.759-11.607 37.172 10.434-7.413"/></g><g><path d="M368.251 143.271l4.958-5.99 25.903-10.429-28.93 7.075-1.931 9.344"/><path d="M368.251 143.271l6.928-3.258-1.97-2.731-4.958 5.989"/><path d="M375.179 140.013l7.87 10.909 16.063-24.07-25.903 10.43 1.97 2.73"/><path d="M370.183 133.927l28.93-7.075-38.933-.912 10.003 7.987"/></g><g><path d="M419.251 119.271l4.958-5.99 25.903-10.429-28.93 7.075-1.931 9.344"/><path d="M419.251 119.271l6.928-3.258-1.97-2.731-4.958 5.989"/><path d="M426.179 116.013l7.87 10.909 16.063-24.07-25.903 10.43 1.97 2.73"/><path d="M421.183 109.927l28.93-7.075-38.933-.912 10.003 7.987"/></g><g><path d="M403.371 163.126l7.648-1.4 26.547 8.66-26.709-13.176-7.486 5.916"/><path d="M403.371 163.126l7.402 1.957.246-3.358-7.648 1.401"/><path d="M410.773 165.083l-.984 13.416 27.777-8.113-26.547-8.66-.246 3.357M410.857 157.21l26.709 13.176-29.237-25.724 2.528 12.548"/></g><g><path d="M483.717 138.98l-2.708-7.288 3.92-27.648-8.339 28.591 7.127 6.345"/><path d="M483.717 138.98l.642-7.629-3.35.341 2.708 7.288"/><path d="M484.359 131.351l13.383-1.36-12.814-25.947-3.92 27.648 3.35-.34"/><path d="M476.59 132.635l8.338-28.59-20.255 33.26 11.917-4.67"/></g><g><path d="M543.717 147.98l-2.708-7.288 3.92-27.648-8.339 28.591 7.127 6.345"/><path d="M543.717 147.98l.642-7.629-3.35.341 2.708 7.288"/><path d="M544.359 140.351l13.383-1.36-12.814-25.947-3.92 27.648 3.35-.34"/><path d="M536.59 141.635l8.338-28.59-20.255 33.26 11.917-4.67"/></g></g></svg>