<svg xmlns="http://www.w3.org/2000/svg" viewBox="0 0 605 180"><title>full-color-droneio</title><g fill-rule="evenodd"><g transform="rotate(-30 41.794 -25.553)"><path d="M18.032.102C4.514.102.055 11.892.055 16.203h10.96s1.552-5.617 7.017-5.617c5.464 0 7.018 5.617 7.018 5.617h10.895c0-4.311-4.396-16.101-17.913-16.101M31.928 19.01H25.05s-1.203 5.617-7.018 5.617c-5.816 0-7.018-5.618-7.018-5.618h-6.76c0 1.442 5.306 11.631 13.844 11.631s13.83-8.382 13.83-11.63"/><ellipse cx="18" cy="17.73" rx="4.608" ry="4.608"/></g><g transform="rotate(10 -178.386 379.117)"><path d="M18.032.102C4.514.102.055 11.892.055 16.203h10.96s1.552-5.617 7.017-5.617c5.464 0 7.018 5.617 7.018 5.617h10.895c0-4.311-4.396-16.101-17.913-16.101M31.928 19.01H25.05s-1.203 5.617-7.018 5.617c-5.816 0-7.018-5.618-7.018-5.618h-6.76c0 1.442 5.306 11.631 13.844 11.631s13.83-8.382 13.83-11.63"/><ellipse cx="18" cy="17.73" rx="4.608" ry="4.608"/></g><g transform="rotate(-30 103.588 -188.995)"><path d="M18.032.102C4.514.102.055 11.892.055 16.203h10.96s1.552-5.617 7.017-5.617c5.464 0 7.018 5.617 7.018 5.617h10.895c0-4.311-4.396-16.101-17.913-16.101M31.928 19.01H25.05s-1.203 5.617-7.018 5.617c-5.816 0-7.018-5.618-7.018-5.618h-6.76c0 1.442 5.306 11.631 13.844 11.631s13.83-8.382 13.83-11.63"/><ellipse cx="18" cy="17.73" rx="4.608" ry="4.608"/></g><g transform="rotate(20 51.123 536.587)"><path d="M18.032.102C4.514.102.055 11.892.055 16.203h10.96s1.552-5.617 7.017-5.617c5.464 0 7.018 5.617 7.018 5.617h10.895c0-4.311-4.396-16.101-17.913-16.101M31.928 19.01H25.05s-1.203 5.617-7.018 5.617c-5.816 0-7.018-5.618-7.018-5.618h-6.76c0 1.442 5.306 11.631 13.844 11.631s13.83-8.382 13.83-11.63"/><ellipse cx="18" cy="17.73" rx="4.608" ry="4.608"/></g><g transform="rotate(-30 163.49 -434.944)"><path d="M18.032.102C4.514.102.055 11.892.055 16.203h10.96s1.552-5.617 7.017-5.617c5.464 0 7.018 5.617 7.018 5.617h10.895c0-4.311-4.396-16.101-17.913-16.101M31.928 19.01H25.05s-1.203 5.617-7.018 5.617c-5.816 0-7.018-5.618-7.018-5.618h-6.76c0 1.442 5.306 11.631 13.844 11.631s13.83-8.382 13.83-11.63"/><ellipse cx="18" cy="17.73" rx="4.608" ry="4.608"/></g><g transform="rotate(31 147.941 634)"><path d="M18.032.102C4.514.102.055 11.892.055 16.203h10.96s1.552-5.617 7.017-5.617c5.464 0 7.018 5.617 7.018 5.617h10.895c0-4.311-4.396-16.101-17.913-16.101M31.928 19.01H25.05s-1.203 5.617-7.018 5.617c-5.816 0-7.018-5.618-7.018-5.618h-6.76c0 1.442 5.306 11.631 13.844 11.631s13.83-8.382 13.83-11.63"/><ellipse cx="18" cy="17.73" rx="4.608" ry="4.608"/></g><g transform="rotate(-46 246.77 -458.772)"><path d="M18.032.102C4.514.102.055 11.892.055 16.203h10.96s1.552-5.617 7.017-5.617c5.464 0 7.018 5.617 7.018 5.617h10.895c0-4.311-4.396-16.101-17.913-16.101M31.928 19.01H25.05s-1.203 5.617-7.018 5.617c-5.816 0-7.018-5.618-7.018-5.618h-6.76c0 1.442 5.306 11.631 13.844 11.631s13.83-8.382 13.83-11.63"/><ellipse cx="18" cy="17.73" rx="4.608" ry="4.608"/></g><g transform="rotate(-36 280.044 -734.494)"><path d="M18.032.102C4.514.102.055 11.892.055 16.203h10.96s1.552-5.617 7.017-5.617c5.464 0 7.018 5.617 7.018 5.617h10.895c0-4.311-4.396-16.101-17.913-16.101M31.928 19.01H25.05s-1.203 5.617-7.018 5.617c-5.816 0-7.018-5.618-7.018-5.618h-6.76c0 1.442 5.306 11.631 13.844 11.631s13.83-8.382 13.83-11.63"/><ellipse cx="18" cy="17.73" rx="4.608" ry="4.608"/></g><g transform="rotate(34 227.896 909.495)"><path d="M18.032.102C4.514.102.055 11.892.055 16.203h10.96s1.552-5.617 7.017-5.617c5.464 0 7.018 5.617 7.018 5.617h10.895c0-4.311-4.396-16.101-17.913-16.101M31.928 19.01H25.05s-1.203 5.617-7.018 5.617c-5.816 0-7.018-5.618-7.018-5.618h-6.76c0 1.442 5.306 11.631 13.844 11.631s13.83-8.382 13.83-11.63"/><ellipse cx="18" cy="17.73" rx="4.608" ry="4.608"/></g><g transform="rotate(20 -153.138 58.014)"><path d="M18.032.102C4.514.102.055 11.892.055 16.203h10.96s1.552-5.617 7.017-5.617c5.464 0 7.018 5.617 7.018 5.617h10.895c0-4.311-4.396-16.101-17.913-16.101M31.928 19.01H25.05s-1.203 5.617-7.018 5.617c-5.816 0-7.018-5.618-7.018-5.618h-6.76c0 1.442 5.306 11.631 13.844 11.631s13.83-8.382 13.83-11.63"/><ellipse cx="18" cy="17.73" rx="4.608" ry="4.608"/></g><g transform="rotate(-30 201.22 -142.835)"><path d="M18.032.102C4.514.102.055 11.892.055 16.203h10.96s1.552-5.617 7.017-5.617c5.464 0 7.018 5.617 7.018 5.617h10.895c0-4.311-4.396-16.101-17.913-16.101M31.928 19.01H25.05s-1.203 5.617-7.018 5.617c-5.816 0-7.018-5.618-7.018-5.618h-6.76c0 1.442 5.306 11.631 13.844 11.631s13.83-8.382 13.83-11.63"/><ellipse cx="18" cy="17.73" rx="4.608" ry="4.608"/></g><g transform="translate(153 62)"><path d="M18.032.102C4.514.102.055 11.892.055 16.203h10.96s1.552-5.617 7.017-5.617c5.464 0 7.018 5.617 7.018 5.617h10.895c0-4.311-4.396-16.101-17.913-16.101M31.928 19.01H25.05s-1.203 5.617-7.018 5.617c-5.816 0-7.018-5.618-7.018-5.618h-6.76c0 1.442 5.306 11.631 13.844 11.631s13.83-8.382 13.83-11.63"/><ellipse cx="18" cy="17.73" rx="4.608" ry="4.608"/></g><g transform="rotate(-30 239.06 -358.695)"><path d="M18.032.102C4.514.102.055 11.892.055 16.203h10.96s1.552-5.617 7.017-5.617c5.464 0 7.018 5.617 7.018 5.617h10.895c0-4.311-4.396-16.101-17.913-16.101M31.928 19.01H25.05s-1.203 5.617-7.018 5.617c-5.816 0-7.018-5.618-7.018-5.618h-6.76c0 1.442 5.306 11.631 13.844 11.631s13.83-8.382 13.83-11.63"/><ellipse cx="18" cy="17.73" rx="4.608" ry="4.608"/></g><g transform="rotate(-10 642.707 -1448.552)"><path d="M18.032.102C4.514.102.055 11.892.055 16.203h10.96s1.552-5.617 7.017-5.617c5.464 0 7.018 5.617 7.018 5.617h10.895c0-4.311-4.396-16.101-17.913-16.101M31.928 19.01H25.05s-1.203 5.617-7.018 5.617c-5.816 0-7.018-5.618-7.018-5.618h-6.76c0 1.442 5.306 11.631 13.844 11.631s13.83-8.382 13.83-11.63"/><ellipse cx="18" cy="17.73" rx="4.608" ry="4.608"/></g><g transform="rotate(-10 427.606 -1622.858)"><path d="M18.032.102C4.514.102.055 11.892.055 16.203h10.96s1.552-5.617 7.017-5.617c5.464 0 7.018 5.617 7.018 5.617h10.895c0-4.311-4.396-16.101-17.913-16.101M31.928 19.01H25.05s-1.203 5.617-7.018 5.617c-5.816 0-7.018-5.618-7.018-5.618h-6.76c0 1.442 5.306 11.631 13.844 11.631s13.83-8.382 13.83-11.63"/><ellipse cx="18" cy="17.73" rx="4.608" ry="4.608"/></g><g transform="rotate(-36 292.408 -521.216)"><path d="M18.032.102C4.514.102.055 11.892.055 16.203h10.96s1.552-5.617 7.017-5.617c5.464 0 7.018 5.617 7.018 5.617h10.895c0-4.311-4.396-16.101-17.913-16.101M31.928 19.01H25.05s-1.203 5.617-7.018 5.617c-5.816 0-7.018-5.618-7.018-5.618h-6.76c0 1.442 5.306 11.631 13.844 11.631s13.83-8.382 13.83-11.63"/><ellipse cx="18" cy="17.73" rx="4.608" ry="4.608"/></g><g transform="rotate(24 111.475 1094.19)"><path d="M18.032.102C4.514.102.055 11.892.055 16.203h10.96s1.552-5.617 7.017-5.617c5.464 0 7.018 5.617 7.018 5.617h10.895c0-4.311-4.396-16.101-17.913-16.101M31.928 19.01H25.05s-1.203 5.617-7.018 5.617c-5.816 0-7.018-5.618-7.018-5.618h-6.76c0 1.442 5.306 11.631 13.844 11.631s13.83-8.382 13.83-11.63"/><ellipse cx="18" cy="17.73" rx="4.608" ry="4.608"/></g><g transform="rotate(4 -781.723 7192.245)"><path d="M18.032.102C4.514.102.055 11.892.055 16.203h10.96s1.552-5.617 7.017-5.617c5.464 0 7.018 5.617 7.018 5.617h10.895c0-4.311-4.396-16.101-17.913-16.101M31.928 19.01H25.05s-1.203 5.617-7.018 5.617c-5.816 0-7.018-5.618-7.018-5.618h-6.76c0 1.442 5.306 11.631 13.844 11.631s13.83-8.382 13.83-11.63"/><ellipse cx="18" cy="17.73" rx="4.608" ry="4.608"/></g><g transform="rotate(-36 421.224 -807.713)"><path d="M18.032.102C4.514.102.055 11.892.055 16.203h10.96s1.552-5.617 7.017-5.617c5.464 0 7.018 5.617 7.018 5.617h10.895c0-4.311-4.396-16.101-17.913-16.101M31.928 19.01H25.05s-1.203 5.617-7.018 5.617c-5.816 0-7.018-5.618-7.018-5.618h-6.76c0 1.442 5.306 11.631 13.844 11.631s13.83-8.382 13.83-11.63"/><ellipse cx="18" cy="17.73" rx="4.608" ry="4.608"/></g><g transform="rotate(20 -216.372 180.268)"><path d="M18.032.102C4.514.102.055 11.892.055 16.203h10.96s1.552-5.617 7.017-5.617c5.464 0 7.018 5.617 7.018 5.617h10.895c0-4.311-4.396-16.101-17.913-16.101M31.928 19.01H25.05s-1.203 5.617-7.018 5.617c-5.816 0-7.018-5.618-7.018-5.618h-6.76c0 1.442 5.306 11.631 13.844 11.631s13.83-8.382 13.83-11.63"/><ellipse cx="18" cy="17.73" rx="4.608" ry="4.608"/></g><g transform="rotate(-20 383.962 35.301)"><path d="M18.032.102C4.514.102.055 11.892.055 16.203h10.96s1.552-5.617 7.017-5.617c5.464 0 7.018 5.617 7.018 5.617h10.895c0-4.311-4.396-16.101-17.913-16.101M31.928 19.01H25.05s-1.203 5.617-7.018 5.617c-5.816 0-7.018-5.618-7.018-5.618h-6.76c0 1.442 5.306 11.631 13.844 11.631s13.83-8.382 13.83-11.63"/><ellipse cx="18" cy="17.73" rx="4.608" ry="4.608"/></g><g transform="translate(74 129)"><path d="M18.032.102C4.514.102.055 11.892.055 16.203h10.96s1.552-5.617 7.017-5.617c5.464 0 7.018 5.617 7.018 5.617h10.895c0-4.311-4.396-16.101-17.913-16.101M31.928 19.01H25.05s-1.203 5.617-7.018 5.617c-5.816 0-7.018-5.618-7.018-5.618h-6.76c0 1.442 5.306 11.631 13.844 11.631s13.83-8.382 13.83-11.63"/><ellipse cx="18" cy="17.73" rx="4.608" ry="4.608"/></g><g transform="rotate(20 -237.256 426.626)"><path d="M18.032.102C4.514.102.055 11.892.055 16.203h10.96s1.552-5.617 7.017-5.617c5.464 0 7.018 5.617 7.018 5.617h10.895c0-4.311-4.396-16.101-17.913-16.101M31.928 19.01H25.05s-1.203 5.617-7.018 5.617c-5.816 0-7.018-5.618-7.018-5.618h-6.76c0 1.442 5.306 11.631 13.844 11.631s13.83-8.382 13.83-11.63"/><ellipse cx="18" cy="17.73" rx="4.608" ry="4.608"/></g><g transform="rotate(20 -187.571 575.751)"><path d="M18.032.102C4.514.102.055 11.892.055 16.203h10.96s1.552-5.617 7.017-5.617c5.464 0 7.018 5.617 7.018 5.617h10.895c0-4.311-4.396-16.101-17.913-16.101M31.928 19.01H25.05s-1.203 5.617-7.018 5.617c-5.816 0-7.018-5.618-7.018-5.618h-6.76c0 1.442 5.306 11.631 13.844 11.631s13.83-8.382 13.83-11.63"/><ellipse cx="18" cy="17.73" rx="4.608" ry="4.608"/></g><g transform="rotate(-30 377.672 -241.554)"><path d="M18.032.102C4.514.102.055 11.892.055 16.203h10.96s1.552-5.617 7.017-5.617c5.464 0 7.018 5.617 7.018 5.617h10.895c0-4.311-4.396-16.101-17.913-16.101M31.928 19.01H25.05s-1.203 5.617-7.018 5.617c-5.816 0-7.018-5.618-7.018-5.618h-6.76c0 1.442 5.306 11.631 13.844 11.631s13.83-8.382 13.83-11.63"/><ellipse cx="18" cy="17.73" rx="4.608" ry="4.608"/></g><g transform="rotate(-30 374.083 -362.516)"><path d="M18.032.102C4.514.102.055 11.892.055 16.203h10.96s1.552-5.617 7.017-5.617c5.464 0 7.018 5.617 7.018 5.617h10.895c0-4.311-4.396-16.101-17.913-16.101M31.928 19.01H25.05s-1.203 5.617-7.018 5.617c-5.816 0-7.018-5.618-7.018-5.618h-6.76c0 1.442 5.306 11.631 13.844 11.631s13.83-8.382 13.83-11.63"/><ellipse cx="18" cy="17.73" rx="4.608" ry="4.608"/></g><g transform="rotate(50 20.68 386.454)"><path d="M18.032.102C4.514.102.055 11.892.055 16.203h10.96s1.552-5.617 7.017-5.617c5.464 0 7.018 5.617 7.018 5.617h10.895c0-4.311-4.396-16.101-17.913-16.101M31.928 19.01H25.05s-1.203 5.617-7.018 5.617c-5.816 0-7.018-5.618-7.018-5.618h-6.76c0 1.442 5.306 11.631 13.844 11.631s13.83-8.382 13.83-11.63"/><ellipse cx="18" cy="17.73" rx="4.608" ry="4.608"/></g><g transform="rotate(-50 269.43 -287.621)"><path d="M18.032.102C4.514.102.055 11.892.055 16.203h10.96s1.552-5.617 7.017-5.617c5.464 0 7.018 5.617 7.018 5.617h10.895c0-4.311-4.396-16.101-17.913-16.101M31.928 19.01H25.05s-1.203 5.617-7.018 5.617c-5.816 0-7.018-5.618-7.018-5.618h-6.76c0 1.442 5.306 11.631 13.844 11.631s13.83-8.382 13.83-11.63"/><ellipse cx="18" cy="17.73" rx="4.608" ry="4.608"/></g><g transform="rotate(24 -78.369 918.186)"><path d="M18.032.102C4.514.102.055 11.892.055 16.203h10.96s1.552-5.617 7.017-5.617c5.464 0 7.018 5.617 7.018 5.617h10.895c0-4.311-4.396-16.101-17.913-16.101M31.928 19.01H25.05s-1.203 5.617-7.018 5.617c-5.816 0-7.018-5.618-7.018-5.618h-6.76c0 1.442 5.306 11.631 13.844 11.631s13.83-8.382 13.83-11.63"/><ellipse cx="18" cy="17.73" rx="4.608" ry="4.608"/></g><g transform="rotate(24 3.587 1026.154)"><path d="M18.032.102C4.514.102.055 11.892.055 16.203h10.96s1.552-5.617 7.017-5.617c5.464 0 7.018 5.617 7.018 5.617h10.895c0-4.311-4.396-16.101-17.913-16.101M31.928 19.01H25.05s-1.203 5.617-7.018 5.617c-5.816 0-7.018-5.618-7.018-5.618h-6.76c0 1.442 5.306 11.631 13.844 11.631s13.83-8.382 13.83-11.63"/><ellipse cx="18" cy="17.73" rx="4.608" ry="4.608"/></g><g transform="rotate(64 101.276 407.068)"><path d="M18.032.102C4.514.102.055 11.892.055 16.203h10.96s1.552-5.617 7.017-5.617c5.464 0 7.018 5.617 7.018 5.617h10.895c0-4.311-4.396-16.101-17.913-16.101M31.928 19.01H25.05s-1.203 5.617-7.018 5.617c-5.816 0-7.018-5.618-7.018-5.618h-6.76c0 1.442 5.306 11.631 13.844 11.631s13.83-8.382 13.83-11.63"/><ellipse cx="18" cy="17.73" rx="4.608" ry="4.608"/></g><g transform="rotate(-36 418.928 -638.328)"><path d="M18.032.102C4.514.102.055 11.892.055 16.203h10.96s1.552-5.617 7.017-5.617c5.464 0 7.018 5.617 7.018 5.617h10.895c0-4.311-4.396-16.101-17.913-16.101M31.928 19.01H25.05s-1.203 5.617-7.018 5.617c-5.816 0-7.018-5.618-7.018-5.618h-6.76c0 1.442 5.306 11.631 13.844 11.631s13.83-8.382 13.83-11.63"/><ellipse cx="18" cy="17.73" rx="4.608" ry="4.608"/></g><g transform="rotate(-36 462.778 -726.159)"><path d="M18.032.102C4.514.102.055 11.892.055 16.203h10.96s1.552-5.617 7.017-5.617c5.464 0 7.018 5.617 7.018 5.617h10.895c0-4.311-4.396-16.101-17.913-16.101M31.928 19.01H25.05s-1.203 5.617-7.018 5.617c-5.816 0-7.018-5.618-7.018-5.618h-6.76c0 1.442 5.306 11.631 13.844 11.631s13.83-8.382 13.83-11.63"/><ellipse cx="18" cy="17.73" rx="4.608" ry="4.608"/></g></g></svg>