<svg xmlns="http://www.w3.org/2000/svg" viewBox="0 0 605 180"><title>full-color-git</title><g fill-rule="evenodd"><path d="M38.603 18.39l6.978 1.87a2.98 2.98 0 1 0 .315-1.973l-6.619-1.773a2.98 2.98 0 0 0-5.597-1.5l-4.542-1.217 1.478-5.515a3.968 3.968 0 0 1 4.857-2.804l19.173 5.138a3.968 3.968 0 0 1 2.804 4.857l-5.138 19.173a3.968 3.968 0 0 1-4.856 2.804l-19.174-5.138a3.968 3.968 0 0 1-2.804-4.856l3.146-11.74 4.741 1.271a2.982 2.982 0 0 0 3.508 2.38l4.63 8.021a2.982 2.982 0 0 0 3.736 4.543 2.98 2.98 0 0 0-2.004-5.518l-4.632-8.022zM78.029 50.44l4.143 5.918a2.98 2.98 0 1 0 1.51-1.309l-3.93-5.613a2.98 2.98 0 0 0-3.324-4.747l-2.697-3.851 4.676-3.275a3.968 3.968 0 0 1 5.523.974l11.385 16.26a3.968 3.968 0 0 1-.973 5.522l-16.26 11.386a3.968 3.968 0 0 1-5.523-.974L61.174 54.47a3.968 3.968 0 0 1 .974-5.523l9.955-6.97 2.815 4.02a2.982 2.982 0 0 0 1.157 4.079l-1.608 9.12a2.982 2.982 0 0 0-.059 5.882 2.98 2.98 0 0 0 2.012-5.516l1.609-9.122zM128.603 27.39l6.978 1.87a2.98 2.98 0 1 0 .315-1.973l-6.619-1.773a2.98 2.98 0 0 0-5.597-1.5l-4.542-1.217 1.478-5.515a3.968 3.968 0 0 1 4.857-2.804l19.173 5.138a3.968 3.968 0 0 1 2.804 4.857l-5.138 19.173a3.968 3.968 0 0 1-4.856 2.804l-19.174-5.138a3.968 3.968 0 0 1-2.804-4.856l3.146-11.74 4.741 1.271a2.982 2.982 0 0 0 3.508 2.38l4.63 8.021a2.982 2.982 0 0 0 3.736 4.543 2.98 2.98 0 0 0-2.004-5.518l-4.632-8.022zM198.906 30.96l3.053 6.547a2.98 2.98 0 1 0 1.714-1.027l-2.896-6.21a2.98 2.98 0 0 0-2.449-5.252l-1.987-4.262 5.174-2.412a3.968 3.968 0 0 1 5.27 1.918l8.389 17.99a3.968 3.968 0 0 1-1.918 5.27l-17.99 8.388a3.968 3.968 0 0 1-5.27-1.918l-8.389-17.99a3.968 3.968 0 0 1 1.919-5.27l11.014-5.136 2.074 4.45a2.982 2.982 0 0 0 .43 4.218l-3.166 8.7a2.982 2.982 0 0 0-1.08 5.783 2.98 2.98 0 0 0 2.94-5.083l3.168-8.704zM259.603 24.39l6.978 1.87a2.98 2.98 0 1 0 .315-1.973l-6.619-1.773a2.98 2.98 0 0 0-5.597-1.5l-4.542-1.217 1.478-5.515a3.968 3.968 0 0 1 4.857-2.804l19.173 5.138a3.968 3.968 0 0 1 2.804 4.857l-5.138 19.173a3.968 3.968 0 0 1-4.856 2.804l-19.174-5.138a3.968 3.968 0 0 1-2.804-4.856l3.146-11.74 4.741 1.271a2.982 2.982 0 0 0 3.508 2.38l4.63 8.021a2.982 2.982 0 0 0 3.736 4.543 2.98 2.98 0 0 0-2.004-5.518l-4.632-8.022zM356.67 32.497l1.747 7.009a2.98 2.98 0 1 0 1.878-.681l-1.657-6.649a2.98 2.98 0 0 0-1.402-5.622l-1.138-4.563 5.54-1.38a3.968 3.968 0 0 1 4.807 2.888l4.802 19.26a3.968 3.968 0 0 1-2.888 4.806l-19.26 4.802a3.968 3.968 0 0 1-4.807-2.888l-4.802-19.26a3.968 3.968 0 0 1 2.888-4.807l11.792-2.94 1.188 4.763a2.982 2.982 0 0 0-.382 4.222l-4.77 7.938a2.982 2.982 0 0 0-2.162 5.47 2.98 2.98 0 0 0 3.855-4.428l4.77-7.94zM425.059 32.735l7.222-.126a2.98 2.98 0 1 0-.241-1.983l-6.85.12a2.98 2.98 0 0 0-5.794.101l-4.702.082-.1-5.709a3.968 3.968 0 0 1 3.896-4.034l19.847-.346a3.968 3.968 0 0 1 4.034 3.896l.346 19.846a3.968 3.968 0 0 1-3.895 4.034l-19.847.347a3.968 3.968 0 0 1-4.034-3.896l-.212-12.151 4.908-.086a2.982 2.982 0 0 0 4.028 1.322l6.662 6.433a2.982 2.982 0 0 0 4.843 3.337 2.98 2.98 0 0 0-3.448-4.752l-6.663-6.435zM505.421 23.127l7.135 1.13a2.98 2.98 0 1 0 .107-1.995l-6.768-1.071a2.98 2.98 0 0 0-5.723-.906l-4.645-.737.894-5.639a3.968 3.968 0 0 1 4.537-3.296l19.605 3.105a3.968 3.968 0 0 1 3.296 4.537l-3.105 19.605a3.968 3.968 0 0 1-4.537 3.297l-19.605-3.105a3.968 3.968 0 0 1-3.297-4.537l1.902-12.004 4.848.768a2.982 2.982 0 0 0 3.737 2.001l5.444 7.492a2.982 2.982 0 0 0 4.19 4.128 2.98 2.98 0 0 0-2.57-5.279l-5.445-7.494zM555.588 46.635l1.378 7.09a2.98 2.98 0 1 0 1.911-.582l-1.307-6.726a2.98 2.98 0 0 0-1.106-5.688l-.897-4.615 5.604-1.09a3.968 3.968 0 0 1 4.65 3.136l3.787 19.485a3.968 3.968 0 0 1-3.136 4.65l-19.485 3.787a3.968 3.968 0 0 1-4.649-3.136l-3.787-19.485a3.968 3.968 0 0 1 3.136-4.65l11.93-2.318.936 4.818a2.982 2.982 0 0 0-.602 4.196l-5.179 7.678a2.982 2.982 0 0 0-2.446 5.35 2.98 2.98 0 0 0 4.082-4.221l5.18-7.68zM22.906 71.96l3.053 6.547a2.98 2.98 0 1 0 1.714-1.027l-2.896-6.21a2.98 2.98 0 0 0-2.449-5.252l-1.987-4.262 5.174-2.412a3.968 3.968 0 0 1 5.27 1.918l8.389 17.99a3.968 3.968 0 0 1-1.918 5.27l-17.99 8.388a3.968 3.968 0 0 1-5.27-1.918l-8.389-17.99a3.968 3.968 0 0 1 1.919-5.27l11.014-5.136 2.074 4.45a2.982 2.982 0 0 0 .43 4.218l-3.166 8.7a2.982 2.982 0 0 0-1.08 5.783 2.98 2.98 0 0 0 2.94-5.083l3.168-8.704zM118.603 82.39l6.978 1.87a2.98 2.98 0 1 0 .315-1.973l-6.619-1.773a2.98 2.98 0 0 0-5.597-1.5l-4.542-1.217 1.478-5.515a3.968 3.968 0 0 1 4.857-2.804l19.173 5.138a3.968 3.968 0 0 1 2.804 4.857l-5.138 19.173a3.968 3.968 0 0 1-4.856 2.804l-19.174-5.138a3.968 3.968 0 0 1-2.804-4.856l3.146-11.74 4.741 1.271a2.982 2.982 0 0 0 3.508 2.38l4.63 8.021a2.982 2.982 0 0 0 3.736 4.543 2.98 2.98 0 0 0-2.004-5.518l-4.632-8.022zM170.06 72.908l5.107 5.108a2.98 2.98 0 1 0 1.26-1.551l-4.846-4.845a2.98 2.98 0 0 0-4.097-4.097l-3.325-3.326 4.037-4.037a3.968 3.968 0 0 1 5.608 0l14.036 14.036a3.968 3.968 0 0 1 0 5.608L173.804 93.84a3.968 3.968 0 0 1-5.608 0L154.16 79.804a3.968 3.968 0 0 1 0-5.608l8.594-8.594 3.47 3.472a2.982 2.982 0 0 0 1.847 3.816l.001 9.26a2.982 2.982 0 0 0 .964 5.802 2.98 2.98 0 0 0 1.023-5.78v-9.264zM231.603 72.39l6.978 1.87a2.98 2.98 0 1 0 .315-1.973l-6.619-1.773a2.98 2.98 0 0 0-5.597-1.5l-4.542-1.217 1.478-5.515a3.968 3.968 0 0 1 4.857-2.804l19.173 5.138a3.968 3.968 0 0 1 2.804 4.857l-5.138 19.173a3.968 3.968 0 0 1-4.856 2.804l-19.174-5.138a3.968 3.968 0 0 1-2.804-4.856l3.146-11.74 4.741 1.271a2.982 2.982 0 0 0 3.508 2.38l4.63 8.021a2.982 2.982 0 0 0 3.736 4.543 2.98 2.98 0 0 0-2.004-5.518l-4.632-8.022zM279.997 97.378l5.917 4.143a2.98 2.98 0 1 0 .97-1.746l-5.612-3.93a2.98 2.98 0 0 0-4.747-3.324l-3.852-2.697 3.275-4.676a3.968 3.968 0 0 1 5.523-.974l16.26 11.385a3.968 3.968 0 0 1 .974 5.523l-11.386 16.26a3.968 3.968 0 0 1-5.522.973l-16.26-11.385a3.968 3.968 0 0 1-.974-5.523l6.97-9.955 4.022 2.816a2.982 2.982 0 0 0 2.482 3.437l1.608 9.12a2.982 2.982 0 0 0 1.956 5.547 2.98 2.98 0 0 0 .004-5.871l-1.608-9.123zM306.997 57.378l5.917 4.143a2.98 2.98 0 1 0 .97-1.746l-5.612-3.93a2.98 2.98 0 0 0-4.747-3.324l-3.852-2.697 3.275-4.676a3.968 3.968 0 0 1 5.523-.974l16.26 11.385a3.968 3.968 0 0 1 .974 5.523l-11.386 16.26a3.968 3.968 0 0 1-5.522.973l-16.26-11.385a3.968 3.968 0 0 1-.974-5.523l6.97-9.955 4.022 2.816a2.982 2.982 0 0 0 2.482 3.437l1.608 9.12a2.982 2.982 0 0 0 1.956 5.547 2.98 2.98 0 0 0 .004-5.871l-1.608-9.123zM382.421 71.127l7.135 1.13a2.98 2.98 0 1 0 .107-1.995l-6.768-1.071a2.98 2.98 0 0 0-5.723-.906l-4.645-.737.894-5.639a3.968 3.968 0 0 1 4.537-3.296l19.605 3.105a3.968 3.968 0 0 1 3.296 4.537l-3.105 19.605a3.968 3.968 0 0 1-4.537 3.297l-19.605-3.105a3.968 3.968 0 0 1-3.297-4.537l1.902-12.004 4.848.768a2.982 2.982 0 0 0 3.737 2.001l5.444 7.492a2.982 2.982 0 0 0 4.19 4.128 2.98 2.98 0 0 0-2.57-5.279l-5.445-7.494zM465.832 66.16l2.589 6.744a2.98 2.98 0 1 0 1.781-.905l-2.455-6.397a2.98 2.98 0 0 0-2.077-5.41l-1.685-4.39 5.33-2.045a3.968 3.968 0 0 1 5.123 2.28l7.114 18.532a3.968 3.968 0 0 1-2.281 5.123l-18.531 7.114a3.968 3.968 0 0 1-5.124-2.281l-7.113-18.532a3.968 3.968 0 0 1 2.28-5.123l11.347-4.355 1.759 4.583a2.982 2.982 0 0 0 .136 4.237l-3.767 8.46a2.982 2.982 0 0 0-1.48 5.693 2.98 2.98 0 0 0 3.287-4.865l3.767-8.463zM516.058 84.122l4.74 5.451a2.98 2.98 0 1 0 1.364-1.46l-4.496-5.17a2.98 2.98 0 0 0-3.802-4.373l-3.084-3.55 4.309-3.745a3.968 3.968 0 0 1 5.594.391l13.023 14.98a3.968 3.968 0 0 1-.392 5.595l-14.98 13.023a3.968 3.968 0 0 1-5.595-.392l-13.022-14.98a3.968 3.968 0 0 1 .391-5.595l9.172-7.973 3.22 3.705a2.982 2.982 0 0 0 1.577 3.935l-.646 9.239a2.982 2.982 0 0 0 .557 5.855 2.98 2.98 0 0 0 1.424-5.696l.646-9.24zM575.421 92.127l7.135 1.13a2.98 2.98 0 1 0 .107-1.995l-6.768-1.071a2.98 2.98 0 0 0-5.723-.906l-4.645-.737.894-5.639a3.968 3.968 0 0 1 4.537-3.296l19.605 3.105a3.968 3.968 0 0 1 3.296 4.537l-3.105 19.605a3.968 3.968 0 0 1-4.537 3.297l-19.605-3.105a3.968 3.968 0 0 1-3.297-4.537l1.902-12.004 4.848.768a2.982 2.982 0 0 0 3.737 2.001l5.444 7.492a2.982 2.982 0 0 0 4.19 4.128 2.98 2.98 0 0 0-2.57-5.279l-5.445-7.494zM60.906 100.96l3.053 6.547a2.98 2.98 0 1 0 1.714-1.027l-2.896-6.21a2.98 2.98 0 0 0-2.449-5.252l-1.987-4.262 5.174-2.412a3.968 3.968 0 0 1 5.27 1.918l8.389 17.99a3.968 3.968 0 0 1-1.918 5.27l-17.99 8.388a3.968 3.968 0 0 1-5.27-1.918l-8.389-17.99a3.968 3.968 0 0 1 1.919-5.27l11.014-5.136 2.074 4.45a2.982 2.982 0 0 0 .43 4.218l-3.166 8.7a2.982 2.982 0 0 0-1.08 5.783 2.98 2.98 0 0 0 2.94-5.083l3.168-8.704zM30.843 137.867l6.547 3.053a2.98 2.98 0 1 0 .653-1.888l-6.21-2.896a2.98 2.98 0 0 0-5.252-2.449L22.32 131.7l2.412-5.174a3.968 3.968 0 0 1 5.27-1.919l17.99 8.39a3.968 3.968 0 0 1 1.918 5.27l-8.389 17.989a3.968 3.968 0 0 1-5.27 1.918l-17.99-8.389a3.968 3.968 0 0 1-1.917-5.27l5.136-11.014 4.449 2.074a2.982 2.982 0 0 0 3.041 2.954l3.167 8.703a2.982 2.982 0 0 0 2.89 5.122 2.98 2.98 0 0 0-1.015-5.782l-3.169-8.705zM91.06 139.908l5.107 5.108a2.98 2.98 0 1 0 1.26-1.551l-4.846-4.845a2.98 2.98 0 0 0-4.097-4.097l-3.325-3.326 4.037-4.037a3.968 3.968 0 0 1 5.608 0l14.036 14.036a3.968 3.968 0 0 1 0 5.608L94.804 160.84a3.968 3.968 0 0 1-5.608 0L75.16 146.804a3.968 3.968 0 0 1 0-5.608l8.594-8.594 3.47 3.472a2.982 2.982 0 0 0 1.847 3.816l.001 9.26a2.982 2.982 0 0 0 .964 5.802 2.98 2.98 0 0 0 1.023-5.78v-9.264zM143.906 122.96l3.053 6.547a2.98 2.98 0 1 0 1.714-1.027l-2.896-6.21a2.98 2.98 0 0 0-2.449-5.252l-1.987-4.262 5.174-2.412a3.968 3.968 0 0 1 5.27 1.918l8.389 17.99a3.968 3.968 0 0 1-1.918 5.27l-17.99 8.388a3.968 3.968 0 0 1-5.27-1.918l-8.389-17.99a3.968 3.968 0 0 1 1.919-5.27l11.014-5.136 2.074 4.45a2.982 2.982 0 0 0 .43 4.218l-3.166 8.7a2.982 2.982 0 0 0-1.08 5.783 2.98 2.98 0 0 0 2.94-5.083l3.168-8.704zM197.906 114.96l3.053 6.547a2.98 2.98 0 1 0 1.714-1.027l-2.896-6.21a2.98 2.98 0 0 0-2.449-5.252l-1.987-4.262 5.174-2.412a3.968 3.968 0 0 1 5.27 1.918l8.389 17.99a3.968 3.968 0 0 1-1.918 5.27l-17.99 8.388a3.968 3.968 0 0 1-5.27-1.918l-8.389-17.99a3.968 3.968 0 0 1 1.919-5.27l11.014-5.136 2.074 4.45a2.982 2.982 0 0 0 .43 4.218l-3.166 8.7a2.982 2.982 0 0 0-1.08 5.783 2.98 2.98 0 0 0 2.94-5.083l3.168-8.704zM191.603 157.39l6.978 1.87a2.98 2.98 0 1 0 .315-1.973l-6.619-1.773a2.98 2.98 0 0 0-5.597-1.5l-4.542-1.217 1.478-5.515a3.968 3.968 0 0 1 4.857-2.804l19.173 5.138a3.968 3.968 0 0 1 2.804 4.857l-5.138 19.173a3.968 3.968 0 0 1-4.856 2.804l-19.174-5.138a3.968 3.968 0 0 1-2.804-4.856l3.146-11.74 4.741 1.271a2.982 2.982 0 0 0 3.508 2.38l4.63 8.021a2.982 2.982 0 0 0 3.736 4.543 2.98 2.98 0 0 0-2.004-5.518l-4.632-8.022zM251.603 139.39l6.978 1.87a2.98 2.98 0 1 0 .315-1.973l-6.619-1.773a2.98 2.98 0 0 0-5.597-1.5l-4.542-1.217 1.478-5.515a3.968 3.968 0 0 1 4.857-2.804l19.173 5.138a3.968 3.968 0 0 1 2.804 4.857l-5.138 19.173a3.968 3.968 0 0 1-4.856 2.804l-19.174-5.138a3.968 3.968 0 0 1-2.804-4.856l3.146-11.74 4.741 1.271a2.982 2.982 0 0 0 3.508 2.38l4.63 8.021a2.982 2.982 0 0 0 3.736 4.543 2.98 2.98 0 0 0-2.004-5.518l-4.632-8.022zM306.037 142.284l-.63 7.196a2.98 2.98 0 1 0 1.998-.033l.597-6.825a2.98 2.98 0 0 0 .505-5.772l.41-4.685 5.688.498a3.968 3.968 0 0 1 3.604 4.296l-1.73 19.774a3.968 3.968 0 0 1-4.296 3.605l-19.774-1.73a3.968 3.968 0 0 1-3.604-4.296l1.73-19.774a3.968 3.968 0 0 1 4.296-3.605l12.106 1.06-.427 4.89a2.982 2.982 0 0 0-1.736 3.868l-7.094 5.952a2.982 2.982 0 0 0-3.826 4.468 2.98 2.98 0 0 0 5.087-2.932l7.096-5.955zM335.896 97.597l7.196-.63a2.98 2.98 0 1 0-.379-1.962l-6.826.598a2.98 2.98 0 0 0-5.772.505l-4.684.41-.498-5.687a3.968 3.968 0 0 1 3.605-4.296l19.774-1.73a3.968 3.968 0 0 1 4.296 3.604l1.73 19.774a3.968 3.968 0 0 1-3.605 4.296l-19.774 1.73a3.968 3.968 0 0 1-4.296-3.604l-1.06-12.107 4.89-.428a2.982 2.982 0 0 0 4.11 1.038l7.095 5.952a2.982 2.982 0 0 0 5.065 2.992 2.98 2.98 0 0 0-3.771-4.5l-7.096-5.955zM377.832 128.16l2.589 6.744a2.98 2.98 0 1 0 1.781-.905l-2.455-6.397a2.98 2.98 0 0 0-2.077-5.41l-1.685-4.39 5.33-2.045a3.968 3.968 0 0 1 5.123 2.28l7.114 18.532a3.968 3.968 0 0 1-2.281 5.123l-18.531 7.114a3.968 3.968 0 0 1-5.124-2.281l-7.113-18.532a3.968 3.968 0 0 1 2.28-5.123l11.347-4.355 1.759 4.583a2.982 2.982 0 0 0 .136 4.237l-3.767 8.46a2.982 2.982 0 0 0-1.48 5.693 2.98 2.98 0 0 0 3.287-4.865l3.767-8.463zM428.832 104.16l2.589 6.744a2.98 2.98 0 1 0 1.781-.905l-2.455-6.397a2.98 2.98 0 0 0-2.077-5.41l-1.685-4.39 5.33-2.045a3.968 3.968 0 0 1 5.123 2.28l7.114 18.532a3.968 3.968 0 0 1-2.281 5.123l-18.531 7.114a3.968 3.968 0 0 1-5.124-2.281l-7.113-18.532a3.968 3.968 0 0 1 2.28-5.123l11.347-4.355 1.759 4.583a2.982 2.982 0 0 0 .136 4.237l-3.767 8.46a2.982 2.982 0 0 0-1.48 5.693 2.98 2.98 0 0 0 3.287-4.865l3.767-8.463zM420.424 157.71l-2.352 6.83a2.98 2.98 0 1 0 1.946.452l2.23-6.48a2.98 2.98 0 0 0 1.886-5.479l1.532-4.445 5.399 1.858a3.968 3.968 0 0 1 2.458 5.04l-6.462 18.769a3.968 3.968 0 0 1-5.04 2.458l-18.769-6.462a3.968 3.968 0 0 1-2.458-5.04l6.462-18.769a3.968 3.968 0 0 1 5.04-2.458l11.491 3.957-1.598 4.64a2.982 2.982 0 0 0-2.62 3.333l-8.323 4.06a2.982 2.982 0 0 0-4.793 3.41 2.98 2.98 0 0 0 5.645-1.614l8.326-4.06zM475.421 123.127l7.135 1.13a2.98 2.98 0 1 0 .107-1.995l-6.768-1.071a2.98 2.98 0 0 0-5.723-.906l-4.645-.737.894-5.639a3.968 3.968 0 0 1 4.537-3.296l19.605 3.105a3.968 3.968 0 0 1 3.296 4.537l-3.105 19.605a3.968 3.968 0 0 1-4.537 3.297l-19.605-3.105a3.968 3.968 0 0 1-3.297-4.537l1.902-12.004 4.848.768a2.982 2.982 0 0 0 3.737 2.001l5.444 7.492a2.982 2.982 0 0 0 4.19 4.128 2.98 2.98 0 0 0-2.57-5.279l-5.445-7.494zM535.421 132.127l7.135 1.13a2.98 2.98 0 1 0 .107-1.995l-6.768-1.071a2.98 2.98 0 0 0-5.723-.906l-4.645-.737.894-5.639a3.968 3.968 0 0 1 4.537-3.296l19.605 3.105a3.968 3.968 0 0 1 3.296 4.537l-3.105 19.605a3.968 3.968 0 0 1-4.537 3.297l-19.605-3.105a3.968 3.968 0 0 1-3.297-4.537l1.902-12.004 4.848.768a2.982 2.982 0 0 0 3.737 2.001l5.444 7.492a2.982 2.982 0 0 0 4.19 4.128 2.98 2.98 0 0 0-2.57-5.279l-5.445-7.494z"/></g></svg>