<svg xmlns="http://www.w3.org/2000/svg" viewBox="0 0 605 180"><title>full-color-ubuntu</title><g fill-rule="evenodd"><path d="M56.977 12.469c4.96 8.592 2.017 19.58-6.576 24.542-8.593 4.961-19.581 2.017-24.542-6.576-4.962-8.593-2.018-19.581 6.575-24.542 8.594-4.961 19.582-2.017 24.543 6.576zM29.639 25.483a2.398 2.398 0 1 0 2.397 4.154 2.398 2.398 0 0 0-2.397-4.154zm20.282.878a2.398 2.398 0 1 0 4.153 2.398 2.398 2.398 0 0 0-4.153-2.398zM35.35 24.955a6.996 6.996 0 0 1-.286-6.454l-2.987-1.667a10.438 10.438 0 0 0-.704 7.4 3.361 3.361 0 0 1 2.382 1.642 3.36 3.36 0 0 1 .23 2.883 10.436 10.436 0 0 0 6.761 3.091l.05-3.42a6.995 6.995 0 0 1-5.446-3.475zm2.564-9.571a7.006 7.006 0 0 1 9.236 2.04l2.936-1.752a10.388 10.388 0 0 0-6.061-4.305 3.36 3.36 0 0 1-2.608 1.236 3.36 3.36 0 0 1-2.609-1.24 10.42 10.42 0 0 0-6.06 4.308l2.936 1.753a6.977 6.977 0 0 1 2.23-2.04zm7.007 12.136a6.978 6.978 0 0 1-2.882.91l.05 3.42a10.422 10.422 0 0 0 6.76-3.095 3.362 3.362 0 0 1 .232-2.879 3.36 3.36 0 0 1 2.374-1.64 10.387 10.387 0 0 0-.698-7.401l-2.986 1.666a7.005 7.005 0 0 1-2.85 9.019zm-3.504-15.887a2.398 2.398 0 1 0 .002-4.795 2.398 2.398 0 0 0-.002 4.795zM95.91 57.715c-1.723 9.77-11.041 16.296-20.813 14.573-9.772-1.723-16.296-11.042-14.573-20.813 1.723-9.772 11.04-16.297 20.813-14.574 9.771 1.723 16.296 11.042 14.573 20.814zM66.602 50.11a2.398 2.398 0 1 0-.833 4.724 2.398 2.398 0 0 0 .833-4.724zm14.973 13.71a2.398 2.398 0 1 0 1.64 4.507 2.398 2.398 0 0 0-1.64-4.507zM71.317 53.378a6.996 6.996 0 0 1 3.93-5.128l-1.217-3.197a10.438 10.438 0 0 0-5.296 5.217c.639.74.952 1.75.77 2.788a3.36 3.36 0 0 1-1.677 2.357 10.436 10.436 0 0 0 3.191 6.714l2.238-2.589a6.995 6.995 0 0 1-1.939-6.162zm8.117-5.684a7.006 7.006 0 0 1 5.763 7.5l3.375.545a10.388 10.388 0 0 0-1.875-7.194 3.36 3.36 0 0 1-2.792-.73 3.36 3.36 0 0 1-1.203-2.626 10.42 10.42 0 0 0-7.41-.596l1.122 3.23a6.977 6.977 0 0 1 3.02-.129zM77 61.494a6.978 6.978 0 0 1-2.793-1.154l-2.16 2.652a10.422 10.422 0 0 0 7.168 1.975 3.362 3.362 0 0 1 2.029-2.057 3.36 3.36 0 0 1 2.872.27 10.387 10.387 0 0 0 4.223-6.119l-3.358-.643A7.005 7.005 0 0 1 77 61.495zm7.528-14.421a2.398 2.398 0 1 0 3.084-3.673 2.398 2.398 0 0 0-3.084 3.673zM146.977 21.469c4.96 8.592 2.017 19.58-6.576 24.542-8.593 4.961-19.581 2.017-24.542-6.576-4.962-8.593-2.018-19.581 6.575-24.542 8.594-4.961 19.582-2.017 24.543 6.576zm-27.338 13.014a2.398 2.398 0 1 0 2.397 4.154 2.398 2.398 0 0 0-2.397-4.154zm20.282.878a2.398 2.398 0 1 0 4.153 2.398 2.398 2.398 0 0 0-4.153-2.398zm-14.571-1.406a6.996 6.996 0 0 1-.286-6.454l-2.987-1.667a10.438 10.438 0 0 0-.704 7.4 3.361 3.361 0 0 1 2.382 1.642 3.36 3.36 0 0 1 .23 2.883 10.436 10.436 0 0 0 6.761 3.091l.05-3.42a6.995 6.995 0 0 1-5.446-3.475zm2.564-9.571a7.006 7.006 0 0 1 9.236 2.04l2.936-1.752a10.388 10.388 0 0 0-6.061-4.305 3.36 3.36 0 0 1-2.608 1.236 3.36 3.36 0 0 1-2.609-1.24 10.42 10.42 0 0 0-6.06 4.308l2.936 1.753a6.977 6.977 0 0 1 2.23-2.04zm7.007 12.136a6.978 6.978 0 0 1-2.882.91l.05 3.42a10.422 10.422 0 0 0 6.76-3.095 3.362 3.362 0 0 1 .232-2.879 3.36 3.36 0 0 1 2.374-1.64 10.387 10.387 0 0 0-.698-7.401l-2.986 1.666a7.005 7.005 0 0 1-2.85 9.019zm-3.504-15.887a2.398 2.398 0 1 0 .002-4.795 2.398 2.398 0 0 0-.002 4.795zM215.253 41.228c-3.394 9.324-13.703 14.131-23.027 10.738-9.325-3.394-14.132-13.704-10.738-23.027 3.394-9.324 13.703-14.132 23.027-10.738 9.324 3.393 14.132 13.703 10.738 23.027zm-27.542-12.577a2.398 2.398 0 1 0-1.641 4.507 2.398 2.398 0 0 0 1.64-4.507zm12.365 16.102a2.398 2.398 0 1 0 .831 4.723 2.398 2.398 0 0 0-.831-4.723zm-8.29-12.066a6.996 6.996 0 0 1 4.76-4.368l-.643-3.36c-2.452.6-4.652 2.081-6.12 4.219.5.84.633 1.889.273 2.88a3.36 3.36 0 0 1-2.06 2.029c-.25 2.582.484 5.13 1.977 7.166l2.653-2.16a6.995 6.995 0 0 1-.84-6.406zm8.98-4.188a7.006 7.006 0 0 1 4.374 8.387l3.23 1.122c.745-2.54.472-5.164-.598-7.41a3.36 3.36 0 0 1-2.623-1.203 3.36 3.36 0 0 1-.728-2.795 10.42 10.42 0 0 0-7.195-1.874l.544 3.376a6.977 6.977 0 0 1 2.997.397zm-4.792 13.169a6.978 6.978 0 0 1-2.55-1.623l-2.588 2.237a10.422 10.422 0 0 0 6.716 3.19 3.362 3.362 0 0 1 2.355-1.674 3.36 3.36 0 0 1 2.782.764 10.387 10.387 0 0 0 5.221-5.292l-3.195-1.216a7.005 7.005 0 0 1-8.741 3.614zm9.918-12.896a2.398 2.398 0 1 0 3.674-3.082 2.398 2.398 0 0 0-3.674 3.082zM277.977 18.469c4.96 8.592 2.017 19.58-6.576 24.542-8.593 4.961-19.581 2.017-24.542-6.576-4.962-8.593-2.018-19.581 6.575-24.542 8.594-4.961 19.582-2.017 24.543 6.576zm-27.338 13.014a2.398 2.398 0 1 0 2.397 4.154 2.398 2.398 0 0 0-2.397-4.154zm20.282.878a2.398 2.398 0 1 0 4.153 2.398 2.398 2.398 0 0 0-4.153-2.398zm-14.571-1.406a6.996 6.996 0 0 1-.286-6.454l-2.987-1.667a10.438 10.438 0 0 0-.704 7.4 3.361 3.361 0 0 1 2.382 1.642 3.36 3.36 0 0 1 .23 2.883 10.436 10.436 0 0 0 6.761 3.091l.05-3.42a6.995 6.995 0 0 1-5.446-3.475zm2.564-9.571a7.006 7.006 0 0 1 9.236 2.04l2.936-1.752a10.388 10.388 0 0 0-6.061-4.305 3.36 3.36 0 0 1-2.608 1.236 3.36 3.36 0 0 1-2.609-1.24 10.42 10.42 0 0 0-6.06 4.308l2.936 1.753a6.977 6.977 0 0 1 2.23-2.04zm7.007 12.136a6.978 6.978 0 0 1-2.882.91l.05 3.42a10.422 10.422 0 0 0 6.76-3.095 3.362 3.362 0 0 1 .232-2.879 3.36 3.36 0 0 1 2.374-1.64 10.387 10.387 0 0 0-.698-7.401l-2.986 1.666a7.005 7.005 0 0 1-2.85 9.019zm-3.504-15.887a2.398 2.398 0 1 0 .002-4.795 2.398 2.398 0 0 0-.002 4.795zM370.757 45.696c-5.11 8.504-16.148 11.256-24.653 6.146-8.506-5.11-11.257-16.148-6.147-24.653 5.11-8.505 16.148-11.257 24.653-6.147 8.505 5.11 11.257 16.148 6.147 24.654zM346.12 28.094a2.398 2.398 0 1 0-2.47 4.112 2.398 2.398 0 0 0 2.47-4.112zm9.066 18.166a2.398 2.398 0 1 0-.085 4.794 2.398 2.398 0 0 0 .085-4.794zm-5.835-13.426a6.996 6.996 0 0 1 5.506-3.38l.01-3.42a10.438 10.438 0 0 0-6.814 2.973c.332.92.262 1.975-.28 2.878a3.36 3.36 0 0 1-2.41 1.6 10.436 10.436 0 0 0 .573 7.411l3.017-1.614a6.995 6.995 0 0 1 .398-6.448zm9.615-2.398a7.006 7.006 0 0 1 2.692 9.067l2.956 1.718a10.388 10.388 0 0 0 .827-7.388 3.36 3.36 0 0 1-2.345-1.681 3.36 3.36 0 0 1-.181-2.883 10.42 10.42 0 0 0-6.705-3.212l-.11 3.418a6.977 6.977 0 0 1 2.866.961zm-7.218 12.012a6.978 6.978 0 0 1-2.194-2.079l-2.967 1.702a10.422 10.422 0 0 0 5.984 4.412 3.362 3.362 0 0 1 2.632-1.193 3.36 3.36 0 0 1 2.585 1.281 10.387 10.387 0 0 0 6.134-4.199l-2.904-1.803a7.005 7.005 0 0 1-9.27 1.88zm12.197-10.766a2.398 2.398 0 1 0 4.194-2.324 2.398 2.398 0 0 0-4.194 2.324zM441.088 21.979c7.138 6.892 7.336 18.266.444 25.403-6.893 7.138-18.267 7.336-25.404.444-7.138-6.893-7.337-18.266-.444-25.404 6.893-7.138 18.267-7.336 25.404-.443zm-22.692 20.045a2.398 2.398 0 1 0 3.45 3.333 2.398 2.398 0 0 0-3.45-3.333zm19.74-4.747a2.398 2.398 0 1 0 4.652 1.161 2.398 2.398 0 0 0-4.653-1.16zm-14.395 2.665a6.996 6.996 0 0 1-2.054-6.125l-3.331-.779a10.438 10.438 0 0 0 1.364 7.308 3.361 3.361 0 0 1 2.742.921 3.36 3.36 0 0 1 1.016 2.708 10.436 10.436 0 0 0 7.35 1.108l-.894-3.302a6.995 6.995 0 0 1-6.193-1.839zm-.173-9.907a7.006 7.006 0 0 1 9.44-.584l2.339-2.494a10.388 10.388 0 0 0-7.013-2.468 3.36 3.36 0 0 1-2.165 1.907 3.36 3.36 0 0 1-2.85-.472 10.42 10.42 0 0 0-4.638 5.81l3.306.877a6.977 6.977 0 0 1 1.58-2.576zm10.08 9.734a6.978 6.978 0 0 1-2.519 1.67l.99 3.274a10.422 10.422 0 0 0 5.645-4.838 3.362 3.362 0 0 1-.57-2.832 3.36 3.36 0 0 1 1.83-2.23 10.387 10.387 0 0 0-2.711-6.923l-2.41 2.424a7.005 7.005 0 0 1-.255 9.455zm-7.747-14.305a2.398 2.398 0 1 0-1.32-4.61 2.398 2.398 0 0 0 1.32 4.61zM523.075 15.317c5.832 8.027 4.052 19.263-3.975 25.095-8.028 5.833-19.263 4.053-25.095-3.974-5.832-8.028-4.053-19.263 3.974-25.095 8.028-5.833 19.263-4.053 25.096 3.974zm-25.828 15.8A2.398 2.398 0 1 0 500.065 35a2.398 2.398 0 0 0-2.818-3.881zm20.263-1.246a2.398 2.398 0 1 0 4.38 1.951 2.398 2.398 0 0 0-4.38-1.951zm-14.639.125a6.996 6.996 0 0 1-.959-6.389l-3.145-1.346a10.438 10.438 0 0 0 .074 7.434c.976.054 1.92.53 2.54 1.383.62.853.781 1.899.531 2.844 2 1.65 4.524 2.467 7.047 2.367l-.308-3.407a6.995 6.995 0 0 1-5.78-2.886zm1.55-9.787a7.006 7.006 0 0 1 9.399 1.064l2.736-2.05a10.388 10.388 0 0 0-6.477-3.648 3.36 3.36 0 0 1-2.464 1.502 3.36 3.36 0 0 1-2.725-.96 10.42 10.42 0 0 0-5.577 4.917l3.104 1.437a6.977 6.977 0 0 1 2.004-2.262zm8.237 11.337a6.978 6.978 0 0 1-2.77 1.207l.406 3.396a10.422 10.422 0 0 0 6.4-3.785 3.362 3.362 0 0 1-.07-2.887 3.36 3.36 0 0 1 2.19-1.88 10.387 10.387 0 0 0-1.469-7.287l-2.795 1.969a7.005 7.005 0 0 1-1.892 9.267zm-5.145-15.434a2.398 2.398 0 1 0-.5-4.769 2.398 2.398 0 0 0 .5 4.77zM568.965 60.553c-5.549 8.225-16.715 10.396-24.941 4.847-8.226-5.548-10.397-16.715-4.848-24.94 5.548-8.227 16.714-10.397 24.94-4.849 8.227 5.549 10.397 16.715 4.849 24.942zm-23.682-18.867a2.398 2.398 0 1 0-2.683 3.976 2.398 2.398 0 0 0 2.683-3.976zm8.102 18.615a2.398 2.398 0 1 0-.335 4.783 2.398 2.398 0 0 0 .335-4.783zm-5.123-13.713a6.996 6.996 0 0 1 5.675-3.086l.189-3.416a10.438 10.438 0 0 0-6.96 2.612 3.361 3.361 0 0 1-.431 2.86 3.36 3.36 0 0 1-2.49 1.471 10.436 10.436 0 0 0 .184 7.432l3.097-1.455a6.995 6.995 0 0 1 .736-6.418zm9.726-1.891a7.006 7.006 0 0 1 2.215 9.196l2.862 1.87a10.388 10.388 0 0 0 1.212-7.335 3.36 3.36 0 0 1-2.253-1.802 3.36 3.36 0 0 1-.03-2.888 10.42 10.42 0 0 0-6.529-3.559l-.288 3.408c.977.156 1.937.52 2.811 1.11zm-7.836 11.618a6.978 6.978 0 0 1-2.082-2.191l-3.052 1.544a10.422 10.422 0 0 0 5.745 4.72 3.362 3.362 0 0 1 2.69-1.055 3.36 3.36 0 0 1 2.515 1.415 10.387 10.387 0 0 0 6.346-3.872l-2.806-1.953a7.005 7.005 0 0 1-9.356 1.392zM562.895 46.2a2.398 2.398 0 1 0 4.31-2.1 2.398 2.398 0 0 0-4.31 2.1zM39.253 82.228C35.859 91.552 25.55 96.36 16.226 92.966 6.9 89.572 2.094 79.262 5.488 69.939 8.882 60.615 19.19 55.807 28.515 59.2c9.324 3.393 14.132 13.703 10.738 23.027zM11.711 69.651a2.398 2.398 0 1 0-1.641 4.507 2.398 2.398 0 0 0 1.64-4.507zm12.365 16.102a2.398 2.398 0 1 0 .831 4.723 2.398 2.398 0 0 0-.831-4.723zm-8.29-12.066a6.996 6.996 0 0 1 4.76-4.368l-.643-3.36c-2.452.6-4.652 2.081-6.12 4.219.5.84.633 1.889.273 2.88a3.36 3.36 0 0 1-2.06 2.029c-.25 2.582.484 5.13 1.977 7.166l2.653-2.16a6.995 6.995 0 0 1-.84-6.406zm8.98-4.188a7.006 7.006 0 0 1 4.374 8.387l3.23 1.122c.745-2.54.472-5.164-.598-7.41a3.36 3.36 0 0 1-2.623-1.203 3.36 3.36 0 0 1-.728-2.795 10.42 10.42 0 0 0-7.195-1.874l.544 3.376a6.977 6.977 0 0 1 2.997.397zm-4.792 13.169a6.978 6.978 0 0 1-2.55-1.623l-2.588 2.237a10.422 10.422 0 0 0 6.716 3.19 3.362 3.362 0 0 1 2.355-1.674 3.36 3.36 0 0 1 2.782.764 10.387 10.387 0 0 0 5.221-5.292l-3.195-1.216a7.005 7.005 0 0 1-8.741 3.614zm9.918-12.896a2.398 2.398 0 1 0 3.674-3.082 2.398 2.398 0 0 0-3.674 3.082zM136.977 76.469c4.96 8.592 2.017 19.58-6.576 24.542-8.593 4.961-19.581 2.017-24.542-6.576-4.962-8.593-2.018-19.581 6.575-24.542 8.594-4.961 19.582-2.017 24.543 6.576zm-27.338 13.014a2.398 2.398 0 1 0 2.397 4.154 2.398 2.398 0 0 0-2.397-4.154zm20.282.878a2.398 2.398 0 1 0 4.153 2.398 2.398 2.398 0 0 0-4.153-2.398zm-14.571-1.406a6.996 6.996 0 0 1-.286-6.454l-2.987-1.667a10.438 10.438 0 0 0-.704 7.4 3.361 3.361 0 0 1 2.382 1.642 3.36 3.36 0 0 1 .23 2.883 10.436 10.436 0 0 0 6.761 3.091l.05-3.42a6.995 6.995 0 0 1-5.446-3.475zm2.564-9.571a7.006 7.006 0 0 1 9.236 2.04l2.936-1.752a10.388 10.388 0 0 0-6.061-4.305 3.36 3.36 0 0 1-2.608 1.236 3.36 3.36 0 0 1-2.609-1.24 10.42 10.42 0 0 0-6.06 4.308l2.936 1.753a6.977 6.977 0 0 1 2.23-2.04zm7.007 12.136a6.978 6.978 0 0 1-2.882.91l.05 3.42a10.422 10.422 0 0 0 6.76-3.095 3.362 3.362 0 0 1 .232-2.879 3.36 3.36 0 0 1 2.374-1.64 10.387 10.387 0 0 0-.698-7.401l-2.986 1.666a7.005 7.005 0 0 1-2.85 9.019zm-3.504-15.887a2.398 2.398 0 1 0 .002-4.795 2.398 2.398 0 0 0-.002 4.795zM188.932 76.966c0 9.922-8.044 17.966-17.966 17.966-9.923 0-17.966-8.044-17.966-17.966S161.043 59 170.966 59c9.922 0 17.966 8.044 17.966 17.966zm-30.183-2.398a2.398 2.398 0 1 0 0 4.796 2.398 2.398 0 0 0 0-4.796zm17.127 10.901a2.398 2.398 0 1 0 2.396 4.154 2.398 2.398 0 0 0-2.396-4.154zm-11.917-8.503a6.996 6.996 0 0 1 2.98-5.732l-1.754-2.938a10.438 10.438 0 0 0-4.309 6.058 3.361 3.361 0 0 1 1.242 2.612 3.36 3.36 0 0 1-1.242 2.612 10.436 10.436 0 0 0 4.31 6.058l1.753-2.938a6.995 6.995 0 0 1-2.98-5.732zm7.007-7.007a7.006 7.006 0 0 1 6.978 6.386l3.418-.05a10.388 10.388 0 0 0-3.096-6.759 3.36 3.36 0 0 1-2.876-.234 3.36 3.36 0 0 1-1.64-2.377 10.42 10.42 0 0 0-7.402.7l1.667 2.986a6.977 6.977 0 0 1 2.951-.652zm0 14.014a6.978 6.978 0 0 1-2.951-.652l-1.667 2.987a10.422 10.422 0 0 0 7.402.7 3.362 3.362 0 0 1 1.64-2.379 3.36 3.36 0 0 1 2.877-.233 10.387 10.387 0 0 0 3.095-6.759l-3.418-.05a7.005 7.005 0 0 1-6.978 6.386zm4.91-15.51a2.398 2.398 0 1 0 2.398-4.153 2.398 2.398 0 0 0-2.399 4.153zM249.977 66.469c4.96 8.592 2.017 19.58-6.576 24.542-8.593 4.961-19.581 2.017-24.542-6.576-4.962-8.593-2.018-19.581 6.575-24.542 8.594-4.961 19.582-2.017 24.543 6.576zm-27.338 13.014a2.398 2.398 0 1 0 2.397 4.154 2.398 2.398 0 0 0-2.397-4.154zm20.282.878a2.398 2.398 0 1 0 4.153 2.398 2.398 2.398 0 0 0-4.153-2.398zm-14.571-1.406a6.996 6.996 0 0 1-.286-6.454l-2.987-1.667a10.438 10.438 0 0 0-.704 7.4 3.361 3.361 0 0 1 2.382 1.642 3.36 3.36 0 0 1 .23 2.883 10.436 10.436 0 0 0 6.761 3.091l.05-3.42a6.995 6.995 0 0 1-5.446-3.475zm2.564-9.571a7.006 7.006 0 0 1 9.236 2.04l2.936-1.752a10.388 10.388 0 0 0-6.061-4.305 3.36 3.36 0 0 1-2.608 1.236 3.36 3.36 0 0 1-2.609-1.24 10.42 10.42 0 0 0-6.06 4.308l2.936 1.753a6.977 6.977 0 0 1 2.23-2.04zm7.007 12.136a6.978 6.978 0 0 1-2.882.91l.05 3.42a10.422 10.422 0 0 0 6.76-3.095 3.362 3.362 0 0 1 .232-2.879 3.36 3.36 0 0 1 2.374-1.64 10.387 10.387 0 0 0-.698-7.401l-2.986 1.666a7.005 7.005 0 0 1-2.85 9.019zm-3.504-15.887a2.398 2.398 0 1 0 .002-4.795 2.398 2.398 0 0 0-.002 4.795zM299.288 98.098c1.723 9.77-4.802 19.09-14.574 20.812-9.772 1.723-19.09-4.802-20.813-14.573-1.723-9.772 4.802-19.09 14.573-20.813 9.772-1.723 19.09 4.802 20.814 14.574zm-30.141 2.879a2.398 2.398 0 1 0 .832 4.724 2.398 2.398 0 0 0-.832-4.724zm18.759 7.762a2.398 2.398 0 1 0 3.082 3.674 2.398 2.398 0 0 0-3.082-3.674zm-13.212-6.305a6.996 6.996 0 0 1 1.94-6.163l-2.238-2.588a10.438 10.438 0 0 0-3.192 6.714 3.361 3.361 0 0 1 1.677 2.357 3.36 3.36 0 0 1-.77 2.788 10.436 10.436 0 0 0 5.296 5.217l1.217-3.197a6.995 6.995 0 0 1-3.93-5.128zm5.684-8.117a7.006 7.006 0 0 1 7.98 5.076l3.358-.642a10.388 10.388 0 0 0-4.222-6.119 3.36 3.36 0 0 1-2.873.27 3.36 3.36 0 0 1-2.029-2.057 10.42 10.42 0 0 0-7.167 1.975l2.16 2.651a6.977 6.977 0 0 1 2.793-1.154zm2.433 13.8a6.978 6.978 0 0 1-3.02-.13l-1.122 3.232a10.422 10.422 0 0 0 7.411-.596 3.362 3.362 0 0 1 1.203-2.627 3.36 3.36 0 0 1 2.791-.73 10.387 10.387 0 0 0 1.875-7.193l-3.375.544a7.005 7.005 0 0 1-5.763 7.5zm2.141-16.127a2.398 2.398 0 1 0 1.642-4.505 2.398 2.398 0 0 0-1.642 4.505zM326.288 58.098c1.723 9.77-4.802 19.09-14.574 20.812-9.772 1.723-19.09-4.802-20.813-14.573-1.723-9.772 4.802-19.09 14.573-20.813 9.772-1.723 19.09 4.802 20.814 14.574zm-30.141 2.879a2.398 2.398 0 1 0 .832 4.724 2.398 2.398 0 0 0-.832-4.724zm18.759 7.762a2.398 2.398 0 1 0 3.082 3.674 2.398 2.398 0 0 0-3.082-3.674zm-13.212-6.305a6.996 6.996 0 0 1 1.94-6.163l-2.238-2.588a10.438 10.438 0 0 0-3.192 6.714 3.361 3.361 0 0 1 1.677 2.357 3.36 3.36 0 0 1-.77 2.788 10.436 10.436 0 0 0 5.296 5.217l1.217-3.197a6.995 6.995 0 0 1-3.93-5.128zm5.684-8.117a7.006 7.006 0 0 1 7.98 5.076l3.358-.642a10.388 10.388 0 0 0-4.222-6.119 3.36 3.36 0 0 1-2.873.27 3.36 3.36 0 0 1-2.029-2.057 10.42 10.42 0 0 0-7.167 1.975l2.16 2.651a6.977 6.977 0 0 1 2.793-1.154zm2.433 13.8a6.978 6.978 0 0 1-3.02-.13l-1.122 3.232a10.422 10.422 0 0 0 7.411-.596 3.362 3.362 0 0 1 1.203-2.627 3.36 3.36 0 0 1 2.791-.73 10.387 10.387 0 0 0 1.875-7.193l-3.375.544a7.005 7.005 0 0 1-5.763 7.5zm2.141-16.127a2.398 2.398 0 1 0 1.642-4.505 2.398 2.398 0 0 0-1.642 4.505zM400.075 63.317c5.832 8.027 4.052 19.263-3.975 25.095-8.028 5.833-19.263 4.053-25.095-3.974-5.832-8.028-4.053-19.263 3.974-25.095 8.028-5.833 19.263-4.053 25.096 3.974zm-25.828 15.8A2.398 2.398 0 1 0 377.065 83a2.398 2.398 0 0 0-2.818-3.881zm20.263-1.246a2.398 2.398 0 1 0 4.38 1.951 2.398 2.398 0 0 0-4.38-1.951zm-14.639.125a6.996 6.996 0 0 1-.959-6.389l-3.145-1.346a10.438 10.438 0 0 0 .074 7.434c.976.054 1.92.53 2.54 1.383.62.853.781 1.899.531 2.844 2 1.65 4.524 2.467 7.047 2.367l-.308-3.407a6.995 6.995 0 0 1-5.78-2.886zm1.55-9.787a7.006 7.006 0 0 1 9.399 1.064l2.736-2.05a10.388 10.388 0 0 0-6.477-3.648 3.36 3.36 0 0 1-2.464 1.502 3.36 3.36 0 0 1-2.725-.96 10.42 10.42 0 0 0-5.577 4.917l3.104 1.437a6.977 6.977 0 0 1 2.004-2.262zm8.237 11.337a6.978 6.978 0 0 1-2.77 1.207l.406 3.396a10.422 10.422 0 0 0 6.4-3.785 3.362 3.362 0 0 1-.07-2.887 3.36 3.36 0 0 1 2.19-1.88 10.387 10.387 0 0 0-1.469-7.287l-2.795 1.969a7.005 7.005 0 0 1-1.892 9.267zm-5.145-15.434a2.398 2.398 0 1 0-.5-4.769 2.398 2.398 0 0 0 .5 4.77zM481.423 77.544c-4.036 9.064-14.656 13.14-23.72 9.105-9.065-4.036-13.142-14.656-9.106-23.72 4.036-9.065 14.656-13.141 23.72-9.106 9.065 4.036 13.142 14.656 9.106 23.721zm-26.598-14.468a2.398 2.398 0 1 0-1.952 4.382 2.398 2.398 0 0 0 1.952-4.382zm11.212 16.925a2.398 2.398 0 1 0 .5 4.77 2.398 2.398 0 0 0-.5-4.77zm-7.428-12.615a6.996 6.996 0 0 1 5.054-4.024l-.408-3.397a10.438 10.438 0 0 0-6.4 3.781c.44.872.5 1.928.072 2.892a3.36 3.36 0 0 1-2.197 1.88 10.436 10.436 0 0 0 1.473 7.287l2.796-1.97a6.995 6.995 0 0 1-.39-6.449zm9.251-3.55a7.006 7.006 0 0 1 3.777 8.67l3.144 1.346c.92-2.483.831-5.12-.08-7.434a3.36 3.36 0 0 1-2.532-1.383 3.36 3.36 0 0 1-.532-2.84 10.42 10.42 0 0 0-7.046-2.37l.308 3.405a6.977 6.977 0 0 1 2.961.605zm-5.7 12.801a6.978 6.978 0 0 1-2.431-1.796l-2.737 2.05a10.422 10.422 0 0 0 6.477 3.65 3.362 3.362 0 0 1 2.466-1.504 3.36 3.36 0 0 1 2.722.957c2.33-.872 4.35-2.57 5.577-4.916l-3.102-1.436a7.005 7.005 0 0 1-8.972 2.995zm10.793-12.172a2.398 2.398 0 1 0 3.88-2.818 2.398 2.398 0 0 0-3.88 2.818zM534.602 89.487c-.692 9.897-9.277 17.36-19.176 16.668-9.898-.692-17.36-9.277-16.669-19.175.693-9.898 9.277-17.361 19.176-16.67 9.898.693 17.361 9.278 16.67 19.177zm-29.942-4.499a2.398 2.398 0 1 0-.335 4.785 2.398 2.398 0 0 0 .335-4.785zm16.324 12.07a2.398 2.398 0 1 0 2.102 4.31 2.398 2.398 0 0 0-2.102-4.31zm-11.294-9.314a6.996 6.996 0 0 1 3.372-5.51l-1.544-3.053a10.438 10.438 0 0 0-4.722 5.743 3.361 3.361 0 0 1 1.057 2.692 3.36 3.36 0 0 1-1.421 2.519 10.436 10.436 0 0 0 3.876 6.344l1.954-2.809a6.995 6.995 0 0 1-2.572-5.926zm7.479-6.5a7.006 7.006 0 0 1 6.515 6.856l3.414.189a10.388 10.388 0 0 0-2.618-6.959 3.36 3.36 0 0 1-2.852-.433 3.36 3.36 0 0 1-1.47-2.487 10.42 10.42 0 0 0-7.433.182l1.454 3.096a6.977 6.977 0 0 1 2.99-.445zm-.978 13.979a6.978 6.978 0 0 1-2.899-.856l-1.87 2.863a10.422 10.422 0 0 0 7.335 1.214 3.362 3.362 0 0 1 1.802-2.258c.945-.46 2-.439 2.885-.031a10.387 10.387 0 0 0 3.56-6.527l-3.407-.288a7.005 7.005 0 0 1-7.406 5.883zm5.98-15.13a2.398 2.398 0 1 0 2.682-3.975 2.398 2.398 0 0 0-2.683 3.975zM593.075 84.317c5.832 8.027 4.052 19.263-3.975 25.095-8.028 5.833-19.263 4.053-25.095-3.974-5.832-8.028-4.053-19.263 3.974-25.095 8.028-5.833 19.263-4.053 25.096 3.974zm-25.828 15.8a2.398 2.398 0 1 0 2.818 3.882 2.398 2.398 0 0 0-2.818-3.881zm20.263-1.246a2.398 2.398 0 1 0 4.38 1.951 2.398 2.398 0 0 0-4.38-1.951zm-14.639.125a6.996 6.996 0 0 1-.959-6.389l-3.145-1.346a10.438 10.438 0 0 0 .074 7.434c.976.054 1.92.53 2.54 1.383.62.853.781 1.899.531 2.844 2 1.65 4.524 2.467 7.047 2.367l-.308-3.407a6.995 6.995 0 0 1-5.78-2.886zm1.55-9.787a7.006 7.006 0 0 1 9.399 1.064l2.736-2.05a10.388 10.388 0 0 0-6.477-3.648 3.36 3.36 0 0 1-2.464 1.502 3.36 3.36 0 0 1-2.725-.96 10.42 10.42 0 0 0-5.577 4.917l3.104 1.437a6.977 6.977 0 0 1 2.004-2.262zm8.237 11.337a6.978 6.978 0 0 1-2.77 1.207l.406 3.396a10.422 10.422 0 0 0 6.4-3.785 3.362 3.362 0 0 1-.07-2.887 3.36 3.36 0 0 1 2.19-1.88 10.387 10.387 0 0 0-1.469-7.287l-2.795 1.969a7.005 7.005 0 0 1-1.892 9.267zm-5.145-15.434a2.398 2.398 0 1 0-.5-4.769 2.398 2.398 0 0 0 .5 4.77zM77.253 111.228c-3.394 9.324-13.703 14.131-23.027 10.738-9.325-3.394-14.132-13.704-10.738-23.027C46.882 89.615 57.19 84.807 66.515 88.2c9.324 3.393 14.132 13.703 10.738 23.027zM49.711 98.651a2.398 2.398 0 1 0-1.641 4.507 2.398 2.398 0 0 0 1.64-4.507zm12.365 16.102a2.398 2.398 0 1 0 .831 4.723 2.398 2.398 0 0 0-.831-4.723zm-8.29-12.066a6.996 6.996 0 0 1 4.76-4.368l-.643-3.36c-2.452.6-4.652 2.081-6.12 4.219.5.84.633 1.889.273 2.88a3.36 3.36 0 0 1-2.06 2.029c-.25 2.582.484 5.13 1.977 7.166l2.653-2.16a6.995 6.995 0 0 1-.84-6.406zm8.98-4.188a7.006 7.006 0 0 1 4.374 8.387l3.23 1.122c.745-2.54.472-5.164-.598-7.41a3.36 3.36 0 0 1-2.623-1.203 3.36 3.36 0 0 1-.728-2.795 10.42 10.42 0 0 0-7.195-1.874l.544 3.376a6.977 6.977 0 0 1 2.997.397zm-4.792 13.169a6.978 6.978 0 0 1-2.55-1.623l-2.588 2.237a10.422 10.422 0 0 0 6.716 3.19 3.362 3.362 0 0 1 2.355-1.674 3.36 3.36 0 0 1 2.782.764 10.387 10.387 0 0 0 5.221-5.292l-3.195-1.216a7.005 7.005 0 0 1-8.741 3.614zm9.918-12.896a2.398 2.398 0 1 0 3.674-3.082 2.398 2.398 0 0 0-3.674 3.082zM49.966 135.226c3.394 9.323-1.414 19.633-10.738 23.027-9.324 3.394-19.634-1.414-23.027-10.738-3.394-9.324 1.413-19.633 10.737-23.027 9.324-3.394 19.634 1.414 23.028 10.738zm-29.183 8.07a2.398 2.398 0 1 0 1.64 4.507 2.398 2.398 0 0 0-1.64-4.508zm19.822 4.386a2.398 2.398 0 1 0 3.673 3.083 2.398 2.398 0 0 0-3.673-3.083zM26.5 143.767a6.996 6.996 0 0 1 .84-6.406l-2.653-2.16a10.438 10.438 0 0 0-1.978 7.166c.924.321 1.7 1.04 2.06 2.03.361.99.228 2.04-.273 2.879a10.436 10.436 0 0 0 6.121 4.219l.644-3.36a6.995 6.995 0 0 1-4.76-4.368zm4.188-8.98a7.006 7.006 0 0 1 8.74 3.613l3.196-1.216a10.388 10.388 0 0 0-5.22-5.292 3.36 3.36 0 0 1-2.783.764 3.36 3.36 0 0 1-2.355-1.673 10.42 10.42 0 0 0-6.716 3.189l2.587 2.236c.7-.699 1.56-1.261 2.551-1.622zm4.793 13.168c-.991.36-2.01.482-2.997.396l-.544 3.377a10.422 10.422 0 0 0 7.195-1.874 3.362 3.362 0 0 1 .728-2.796 3.36 3.36 0 0 1 2.623-1.202 10.387 10.387 0 0 0 .597-7.41l-3.23 1.122a7.005 7.005 0 0 1-4.372 8.387zm-.692-16.254a2.398 2.398 0 1 0 .834-4.722 2.398 2.398 0 0 0-.834 4.722zM109.932 143.966c0 9.922-8.044 17.966-17.966 17.966-9.923 0-17.966-8.044-17.966-17.966S82.043 126 91.966 126c9.922 0 17.966 8.044 17.966 17.966zm-30.183-2.398a2.398 2.398 0 1 0 0 4.796 2.398 2.398 0 0 0 0-4.796zm17.127 10.901a2.398 2.398 0 1 0 2.396 4.154 2.398 2.398 0 0 0-2.396-4.154zm-11.917-8.503a6.996 6.996 0 0 1 2.98-5.732l-1.754-2.938a10.438 10.438 0 0 0-4.309 6.058 3.361 3.361 0 0 1 1.242 2.612 3.36 3.36 0 0 1-1.242 2.612 10.436 10.436 0 0 0 4.31 6.058l1.753-2.938a6.995 6.995 0 0 1-2.98-5.732zm7.007-7.007a7.006 7.006 0 0 1 6.978 6.386l3.418-.05a10.388 10.388 0 0 0-3.096-6.759 3.36 3.36 0 0 1-2.876-.234 3.36 3.36 0 0 1-1.64-2.377 10.42 10.42 0 0 0-7.402.7l1.667 2.986a6.977 6.977 0 0 1 2.951-.652zm0 14.014a6.978 6.978 0 0 1-2.951-.652l-1.667 2.987a10.422 10.422 0 0 0 7.402.7 3.362 3.362 0 0 1 1.64-2.379 3.36 3.36 0 0 1 2.877-.233 10.387 10.387 0 0 0 3.095-6.759l-3.418-.05a7.005 7.005 0 0 1-6.978 6.386zm4.91-15.51a2.398 2.398 0 1 0 2.398-4.153 2.398 2.398 0 0 0-2.399 4.153zM160.253 133.228c-3.394 9.324-13.703 14.131-23.027 10.738-9.325-3.394-14.132-13.704-10.738-23.027 3.394-9.324 13.703-14.132 23.027-10.738 9.324 3.393 14.132 13.703 10.738 23.027zm-27.542-12.577a2.398 2.398 0 1 0-1.641 4.507 2.398 2.398 0 0 0 1.64-4.507zm12.365 16.102a2.398 2.398 0 1 0 .831 4.723 2.398 2.398 0 0 0-.831-4.723zm-8.29-12.066a6.996 6.996 0 0 1 4.76-4.368l-.643-3.36c-2.452.6-4.652 2.081-6.12 4.219.5.84.633 1.889.273 2.88a3.36 3.36 0 0 1-2.06 2.029c-.25 2.582.484 5.13 1.977 7.166l2.653-2.16a6.995 6.995 0 0 1-.84-6.406zm8.98-4.188a7.006 7.006 0 0 1 4.374 8.387l3.23 1.122c.745-2.54.472-5.164-.598-7.41a3.36 3.36 0 0 1-2.623-1.203 3.36 3.36 0 0 1-.728-2.795 10.42 10.42 0 0 0-7.195-1.874l.544 3.376a6.977 6.977 0 0 1 2.997.397zm-4.792 13.169a6.978 6.978 0 0 1-2.55-1.623l-2.588 2.237a10.422 10.422 0 0 0 6.716 3.19 3.362 3.362 0 0 1 2.355-1.674 3.36 3.36 0 0 1 2.782.764 10.387 10.387 0 0 0 5.221-5.292l-3.195-1.216a7.005 7.005 0 0 1-8.741 3.614zm9.918-12.896a2.398 2.398 0 1 0 3.674-3.082 2.398 2.398 0 0 0-3.674 3.082zM214.253 125.228c-3.394 9.324-13.703 14.131-23.027 10.738-9.325-3.394-14.132-13.704-10.738-23.027 3.394-9.324 13.703-14.132 23.027-10.738 9.324 3.393 14.132 13.703 10.738 23.027zm-27.542-12.577a2.398 2.398 0 1 0-1.641 4.507 2.398 2.398 0 0 0 1.64-4.507zm12.365 16.102a2.398 2.398 0 1 0 .831 4.723 2.398 2.398 0 0 0-.831-4.723zm-8.29-12.066a6.996 6.996 0 0 1 4.76-4.368l-.643-3.36c-2.452.6-4.652 2.081-6.12 4.219.5.84.633 1.889.273 2.88a3.36 3.36 0 0 1-2.06 2.029c-.25 2.582.484 5.13 1.977 7.166l2.653-2.16a6.995 6.995 0 0 1-.84-6.406zm8.98-4.188a7.006 7.006 0 0 1 4.374 8.387l3.23 1.122c.745-2.54.472-5.164-.598-7.41a3.36 3.36 0 0 1-2.623-1.203 3.36 3.36 0 0 1-.728-2.795 10.42 10.42 0 0 0-7.195-1.874l.544 3.376a6.977 6.977 0 0 1 2.997.397zm-4.792 13.169a6.978 6.978 0 0 1-2.55-1.623l-2.588 2.237a10.422 10.422 0 0 0 6.716 3.19 3.362 3.362 0 0 1 2.355-1.674 3.36 3.36 0 0 1 2.782.764 10.387 10.387 0 0 0 5.221-5.292l-3.195-1.216a7.005 7.005 0 0 1-8.741 3.614zm9.918-12.896a2.398 2.398 0 1 0 3.674-3.082 2.398 2.398 0 0 0-3.674 3.082zM209.977 151.469c4.96 8.592 2.017 19.58-6.576 24.542-8.593 4.961-19.581 2.017-24.542-6.576-4.962-8.593-2.018-19.581 6.575-24.542 8.594-4.961 19.582-2.017 24.543 6.576zm-27.338 13.014a2.398 2.398 0 1 0 2.397 4.154 2.398 2.398 0 0 0-2.397-4.154zm20.282.878a2.398 2.398 0 1 0 4.153 2.398 2.398 2.398 0 0 0-4.153-2.398zm-14.571-1.406a6.996 6.996 0 0 1-.286-6.454l-2.987-1.667a10.438 10.438 0 0 0-.704 7.4 3.361 3.361 0 0 1 2.382 1.642 3.36 3.36 0 0 1 .23 2.883 10.436 10.436 0 0 0 6.761 3.091l.05-3.42a6.995 6.995 0 0 1-5.446-3.475zm2.564-9.571a7.006 7.006 0 0 1 9.236 2.04l2.936-1.752a10.388 10.388 0 0 0-6.061-4.305 3.36 3.36 0 0 1-2.608 1.236 3.36 3.36 0 0 1-2.609-1.24 10.42 10.42 0 0 0-6.06 4.308l2.936 1.753a6.977 6.977 0 0 1 2.23-2.04zm7.007 12.136a6.978 6.978 0 0 1-2.882.91l.05 3.42a10.422 10.422 0 0 0 6.76-3.095 3.362 3.362 0 0 1 .232-2.879 3.36 3.36 0 0 1 2.374-1.64 10.387 10.387 0 0 0-.698-7.401l-2.986 1.666a7.005 7.005 0 0 1-2.85 9.019zm-3.504-15.887a2.398 2.398 0 1 0 .002-4.795 2.398 2.398 0 0 0-.002 4.795zM269.977 133.469c4.96 8.592 2.017 19.58-6.576 24.542-8.593 4.961-19.581 2.017-24.542-6.576-4.962-8.593-2.018-19.581 6.575-24.542 8.594-4.961 19.582-2.017 24.543 6.576zm-27.338 13.014a2.398 2.398 0 1 0 2.397 4.154 2.398 2.398 0 0 0-2.397-4.154zm20.282.878a2.398 2.398 0 1 0 4.153 2.398 2.398 2.398 0 0 0-4.153-2.398zm-14.571-1.406a6.996 6.996 0 0 1-.286-6.454l-2.987-1.667a10.438 10.438 0 0 0-.704 7.4 3.361 3.361 0 0 1 2.382 1.642 3.36 3.36 0 0 1 .23 2.883 10.436 10.436 0 0 0 6.761 3.091l.05-3.42a6.995 6.995 0 0 1-5.446-3.475zm2.564-9.571a7.006 7.006 0 0 1 9.236 2.04l2.936-1.752a10.388 10.388 0 0 0-6.061-4.305 3.36 3.36 0 0 1-2.608 1.236 3.36 3.36 0 0 1-2.609-1.24 10.42 10.42 0 0 0-6.06 4.308l2.936 1.753a6.977 6.977 0 0 1 2.23-2.04zm7.007 12.136a6.978 6.978 0 0 1-2.882.91l.05 3.42a10.422 10.422 0 0 0 6.76-3.095 3.362 3.362 0 0 1 .232-2.879 3.36 3.36 0 0 1 2.374-1.64 10.387 10.387 0 0 0-.698-7.401l-2.986 1.666a7.005 7.005 0 0 1-2.85 9.019zm-3.504-15.887a2.398 2.398 0 1 0 .002-4.795 2.398 2.398 0 0 0-.002 4.795zM315.06 159.35c-7.601 6.378-18.934 5.387-25.312-2.214-6.378-7.601-5.386-18.933 2.215-25.311 7.6-6.378 18.933-5.387 25.31 2.214 6.379 7.601 5.388 18.933-2.214 25.312zm-17.564-24.663a2.398 2.398 0 1 0-3.675 3.083 2.398 2.398 0 0 0 3.675-3.083zm2.657 20.127a2.398 2.398 0 1 0-1.64 4.506 2.398 2.398 0 0 0 1.64-4.506zm-1.146-14.594a6.996 6.996 0 0 1 6.307-1.402l1.123-3.232a10.438 10.438 0 0 0-7.41.593 3.361 3.361 0 0 1-1.204 2.63 3.36 3.36 0 0 1-2.799.728 10.436 10.436 0 0 0-1.87 7.195l3.377-.545a6.995 6.995 0 0 1 2.476-5.967zm9.872.864a7.006 7.006 0 0 1-.407 9.45l2.236 2.586a10.388 10.388 0 0 0 3.187-6.716 3.36 3.36 0 0 1-1.67-2.353 3.36 3.36 0 0 1 .768-2.785 10.42 10.42 0 0 0-5.294-5.22l-1.217 3.196a6.977 6.977 0 0 1 2.397 1.842zm-10.735 9.007a6.978 6.978 0 0 1-1.398-2.68l-3.36.643a10.422 10.422 0 0 0 4.222 6.12 3.362 3.362 0 0 1 2.877-.271 3.36 3.36 0 0 1 2.027 2.053 10.387 10.387 0 0 0 7.167-1.973l-2.159-2.65a7.005 7.005 0 0 1-9.376-1.242zm15.037-6.209a2.398 2.398 0 1 0 4.722-.831 2.398 2.398 0 0 0-4.722.831zM351.136 85.748c7.6 6.378 8.592 17.71 2.214 25.312-6.378 7.6-17.71 8.592-25.31 2.214-7.602-6.378-8.593-17.71-2.215-25.311 6.378-7.601 17.71-8.593 25.311-2.215zm-21.238 21.58a2.398 2.398 0 1 0 3.674 3.084 2.398 2.398 0 0 0-3.674-3.084zm19.36-6.112a2.398 2.398 0 1 0 4.722.834 2.398 2.398 0 0 0-4.723-.834zm-14.174 3.662a6.996 6.996 0 0 1-2.476-5.966l-3.378-.545a10.438 10.438 0 0 0 1.87 7.195c.96-.184 1.992.05 2.8.727a3.36 3.36 0 0 1 1.203 2.63 10.436 10.436 0 0 0 7.41.594l-1.123-3.232a6.995 6.995 0 0 1-6.306-1.403zm-.864-9.87a7.006 7.006 0 0 1 9.377-1.242l2.159-2.65a10.388 10.388 0 0 0-7.168-1.973 3.36 3.36 0 0 1-2.027 2.053 3.36 3.36 0 0 1-2.876-.272 10.42 10.42 0 0 0-4.222 6.12l3.36.643a6.977 6.977 0 0 1 1.397-2.68zm10.735 9.007a6.978 6.978 0 0 1-2.397 1.842l1.217 3.197a10.422 10.422 0 0 0 5.294-5.22 3.362 3.362 0 0 1-.767-2.786 3.36 3.36 0 0 1 1.67-2.353 10.387 10.387 0 0 0-3.188-6.716l-2.235 2.586a7.005 7.005 0 0 1 .406 9.45zm-8.726-13.73a2.398 2.398 0 1 0-1.639-4.507 2.398 2.398 0 0 0 1.639 4.507zM393.423 139.544c-4.036 9.064-14.656 13.14-23.72 9.105-9.065-4.036-13.142-14.656-9.106-23.72 4.036-9.065 14.656-13.141 23.72-9.106 9.065 4.036 13.142 14.656 9.106 23.721zm-26.598-14.468a2.398 2.398 0 1 0-1.952 4.382 2.398 2.398 0 0 0 1.952-4.382zm11.212 16.925a2.398 2.398 0 1 0 .5 4.77 2.398 2.398 0 0 0-.5-4.77zm-7.428-12.615a6.996 6.996 0 0 1 5.054-4.024l-.408-3.397a10.438 10.438 0 0 0-6.4 3.781c.44.872.5 1.928.072 2.892a3.36 3.36 0 0 1-2.197 1.88 10.436 10.436 0 0 0 1.473 7.287l2.796-1.97a6.995 6.995 0 0 1-.39-6.449zm9.251-3.55a7.006 7.006 0 0 1 3.777 8.67l3.144 1.346c.92-2.483.831-5.12-.08-7.434a3.36 3.36 0 0 1-2.532-1.383 3.36 3.36 0 0 1-.532-2.84 10.42 10.42 0 0 0-7.046-2.37l.308 3.405a6.977 6.977 0 0 1 2.961.605zm-5.7 12.801a6.978 6.978 0 0 1-2.431-1.796l-2.737 2.05a10.422 10.422 0 0 0 6.477 3.65 3.362 3.362 0 0 1 2.466-1.504 3.36 3.36 0 0 1 2.722.957c2.33-.872 4.35-2.57 5.577-4.916l-3.102-1.436a7.005 7.005 0 0 1-8.972 2.995zm10.793-12.172a2.398 2.398 0 1 0 3.88-2.818 2.398 2.398 0 0 0-3.88 2.818zM444.423 115.544c-4.036 9.064-14.656 13.14-23.72 9.105-9.065-4.036-13.142-14.656-9.106-23.72 4.036-9.065 14.656-13.141 23.72-9.106 9.065 4.036 13.142 14.656 9.106 23.721zm-26.598-14.468a2.398 2.398 0 1 0-1.952 4.382 2.398 2.398 0 0 0 1.952-4.382zm11.212 16.925a2.398 2.398 0 1 0 .5 4.77 2.398 2.398 0 0 0-.5-4.77zm-7.428-12.615a6.996 6.996 0 0 1 5.054-4.024l-.408-3.397a10.438 10.438 0 0 0-6.4 3.781c.44.872.5 1.928.072 2.892a3.36 3.36 0 0 1-2.197 1.88 10.436 10.436 0 0 0 1.473 7.287l2.796-1.97a6.995 6.995 0 0 1-.39-6.449zm9.251-3.55a7.006 7.006 0 0 1 3.777 8.67l3.144 1.346c.92-2.483.831-5.12-.08-7.434a3.36 3.36 0 0 1-2.532-1.383 3.36 3.36 0 0 1-.532-2.84 10.42 10.42 0 0 0-7.046-2.37l.308 3.405a6.977 6.977 0 0 1 2.961.605zm-5.7 12.801a6.978 6.978 0 0 1-2.431-1.796l-2.737 2.05a10.422 10.422 0 0 0 6.477 3.65 3.362 3.362 0 0 1 2.466-1.504 3.36 3.36 0 0 1 2.722.957c2.33-.872 4.35-2.57 5.577-4.916l-3.102-1.436a7.005 7.005 0 0 1-8.972 2.995zm10.793-12.172a2.398 2.398 0 1 0 3.88-2.818 2.398 2.398 0 0 0-3.88 2.818zM425.05 176.451c-8.918 4.35-19.674.646-24.024-8.272-4.35-8.918-.646-19.674 8.272-24.023 8.918-4.35 19.674-.647 24.024 8.271 4.35 8.918.646 19.674-8.272 24.024zm-11.076-28.18a2.398 2.398 0 1 0-4.311 2.103 2.398 2.398 0 0 0 4.311-2.102zm-2.29 20.173a2.398 2.398 0 1 0-2.683 3.975 2.398 2.398 0 0 0 2.682-3.975zm2.418-14.438a6.996 6.996 0 0 1 6.459.165l1.871-2.864a10.438 10.438 0 0 0-7.334-1.218 3.361 3.361 0 0 1-1.803 2.262 3.36 3.36 0 0 1-2.892.028 10.436 10.436 0 0 0-3.556 6.529l3.41.288a6.995 6.995 0 0 1 3.845-5.19zm9.37 3.226a7.006 7.006 0 0 1-2.68 9.07l1.543 3.051a10.388 10.388 0 0 0 4.717-5.745 3.36 3.36 0 0 1-1.05-2.688 3.36 3.36 0 0 1 1.417-2.516 10.42 10.42 0 0 0-3.873-6.346l-1.954 2.807a6.977 6.977 0 0 1 1.88 2.367zm-12.596 6.143a6.978 6.978 0 0 1-.708-2.939l-3.415-.188a10.422 10.422 0 0 0 2.616 6.96 3.362 3.362 0 0 1 2.857.431 3.36 3.36 0 0 1 1.47 2.483c2.345.83 4.983.827 7.432-.18l-1.454-3.095a7.005 7.005 0 0 1-8.798-3.472zm16.093-2.387a2.398 2.398 0 1 0 4.783.336 2.398 2.398 0 0 0-4.783-.336zM493.075 115.317c5.832 8.027 4.052 19.263-3.975 25.095-8.028 5.833-19.263 4.053-25.095-3.974-5.832-8.028-4.053-19.263 3.974-25.095 8.028-5.833 19.263-4.053 25.096 3.974zm-25.828 15.8a2.398 2.398 0 1 0 2.818 3.882 2.398 2.398 0 0 0-2.818-3.881zm20.263-1.246a2.398 2.398 0 1 0 4.38 1.951 2.398 2.398 0 0 0-4.38-1.951zm-14.639.125a6.996 6.996 0 0 1-.959-6.389l-3.145-1.346a10.438 10.438 0 0 0 .074 7.434c.976.054 1.92.53 2.54 1.383.62.853.781 1.899.531 2.844 2 1.65 4.524 2.467 7.047 2.367l-.308-3.407a6.995 6.995 0 0 1-5.78-2.886zm1.55-9.787a7.006 7.006 0 0 1 9.399 1.064l2.736-2.05a10.388 10.388 0 0 0-6.477-3.648 3.36 3.36 0 0 1-2.464 1.502 3.36 3.36 0 0 1-2.725-.96 10.42 10.42 0 0 0-5.577 4.917l3.104 1.437a6.977 6.977 0 0 1 2.004-2.262zm8.237 11.337a6.978 6.978 0 0 1-2.77 1.207l.406 3.396a10.422 10.422 0 0 0 6.4-3.785 3.362 3.362 0 0 1-.07-2.887 3.36 3.36 0 0 1 2.19-1.88 10.387 10.387 0 0 0-1.469-7.287l-2.795 1.969a7.005 7.005 0 0 1-1.892 9.267zm-5.145-15.434a2.398 2.398 0 1 0-.5-4.769 2.398 2.398 0 0 0 .5 4.77zM553.075 124.317c5.832 8.027 4.052 19.263-3.975 25.095-8.028 5.833-19.263 4.053-25.095-3.974-5.832-8.028-4.053-19.263 3.974-25.095 8.028-5.833 19.263-4.053 25.096 3.974zm-25.828 15.8a2.398 2.398 0 1 0 2.818 3.882 2.398 2.398 0 0 0-2.818-3.881zm20.263-1.246a2.398 2.398 0 1 0 4.38 1.951 2.398 2.398 0 0 0-4.38-1.951zm-14.639.125a6.996 6.996 0 0 1-.959-6.389l-3.145-1.346a10.438 10.438 0 0 0 .074 7.434c.976.054 1.92.53 2.54 1.383.62.853.781 1.899.531 2.844 2 1.65 4.524 2.467 7.047 2.367l-.308-3.407a6.995 6.995 0 0 1-5.78-2.886zm1.55-9.787a7.006 7.006 0 0 1 9.399 1.064l2.736-2.05a10.388 10.388 0 0 0-6.477-3.648 3.36 3.36 0 0 1-2.464 1.502 3.36 3.36 0 0 1-2.725-.96 10.42 10.42 0 0 0-5.577 4.917l3.104 1.437a6.977 6.977 0 0 1 2.004-2.262zm8.237 11.337a6.978 6.978 0 0 1-2.77 1.207l.406 3.396a10.422 10.422 0 0 0 6.4-3.785 3.362 3.362 0 0 1-.07-2.887 3.36 3.36 0 0 1 2.19-1.88 10.387 10.387 0 0 0-1.469-7.287l-2.795 1.969a7.005 7.005 0 0 1-1.892 9.267zm-5.145-15.434a2.398 2.398 0 1 0-.5-4.769 2.398 2.398 0 0 0 .5 4.77z"/></g></svg>