<svg xmlns="http://www.w3.org/2000/svg" xmlns:xlink="http://www.w3.org/1999/xlink" viewBox="0 0 605 180"><title>full-color-terminal-alt</title><defs><circle id="a" cx="18" cy="18" r="18"/><path d="M8 10.48A3.482 3.482 0 0 1 11.485 7h29.03A3.483 3.483 0 0 1 44 10.48v24.04A3.482 3.482 0 0 1 40.515 38h-29.03A3.483 3.483 0 0 1 8 34.52V10.48zM10 13h32v21.844c0 .638-.529 1.156-1.158 1.156H11.158A1.16 1.16 0 0 1 10 34.844V13zm3.2 2l1.455 1.455-.734.733-1.454-1.455L13.2 15zm1.455 1.455l.727.727-2.2 2.2-.727-.727 2.2-2.2z" id="c"/></defs><g fill-rule="evenodd"><g transform="rotate(-30 36.196 -24.053)"><mask id="b"><use xlink:href="#a"/></mask><g mask="url(#b)"><circle cx="18" cy="18" r="18"/><path d="M9 12h27v24H9z"/><use xlink:href="#c"/><path d="M18 10c0-.552.444-1 1-1 .552 0 1 .444 1 1 0 .552-.444 1-1 1-.552 0-1-.444-1-1z"/><path d="M18.1 10c0-.497.4-.9.9-.9.497 0 .9.4.9.9 0 .497-.4.9-.9.9-.497 0-.9-.4-.9-.9zM14 10c0-.552.444-1 1-1 .552 0 1 .444 1 1 0 .552-.444 1-1 1-.552 0-1-.444-1-1z"/><path d="M14.1 10c0-.497.4-.9.9-.9.497 0 .9.4.9.9 0 .497-.4.9-.9.9-.497 0-.9-.4-.9-.9zM10 10c0-.552.444-1 1-1 .552 0 1 .444 1 1 0 .552-.444 1-1 1-.552 0-1-.444-1-1z"/><path d="M10.1 10c0-.497.4-.9.9-.9.497 0 .9.4.9.9 0 .497-.4.9-.9.9-.497 0-.9-.4-.9-.9z"/></g></g><g mask="url(#b)" transform="rotate(10 -161.24 380.617)"><circle cx="18" cy="18" r="18"/><path d="M9 12h27v24H9z"/><use xlink:href="#c"/><path d="M18 10c0-.552.444-1 1-1 .552 0 1 .444 1 1 0 .552-.444 1-1 1-.552 0-1-.444-1-1z"/><path d="M18.1 10c0-.497.4-.9.9-.9.497 0 .9.4.9.9 0 .497-.4.9-.9.9-.497 0-.9-.4-.9-.9zM14 10c0-.552.444-1 1-1 .552 0 1 .444 1 1 0 .552-.444 1-1 1-.552 0-1-.444-1-1z"/><path d="M14.1 10c0-.497.4-.9.9-.9.497 0 .9.4.9.9 0 .497-.4.9-.9.9-.497 0-.9-.4-.9-.9zM10 10c0-.552.444-1 1-1 .552 0 1 .444 1 1 0 .552-.444 1-1 1-.552 0-1-.444-1-1z"/><path d="M10.1 10c0-.497.4-.9.9-.9.497 0 .9.4.9.9 0 .497-.4.9-.9.9-.497 0-.9-.4-.9-.9z"/></g><g mask="url(#b)" transform="rotate(-30 97.99 -187.495)"><circle cx="18" cy="18" r="18"/><path d="M9 12h27v24H9z"/><use xlink:href="#c"/><path d="M18 10c0-.552.444-1 1-1 .552 0 1 .444 1 1 0 .552-.444 1-1 1-.552 0-1-.444-1-1z"/><path d="M18.1 10c0-.497.4-.9.9-.9.497 0 .9.4.9.9 0 .497-.4.9-.9.9-.497 0-.9-.4-.9-.9zM14 10c0-.552.444-1 1-1 .552 0 1 .444 1 1 0 .552-.444 1-1 1-.552 0-1-.444-1-1z"/><path d="M14.1 10c0-.497.4-.9.9-.9.497 0 .9.4.9.9 0 .497-.4.9-.9.9-.497 0-.9-.4-.9-.9zM10 10c0-.552.444-1 1-1 .552 0 1 .444 1 1 0 .552-.444 1-1 1-.552 0-1-.444-1-1z"/><path d="M10.1 10c0-.497.4-.9.9-.9.497 0 .9.4.9.9 0 .497-.4.9-.9.9-.497 0-.9-.4-.9-.9z"/></g><g mask="url(#b)" transform="rotate(20 59.63 538.087)"><circle cx="18" cy="18" r="18"/><path d="M9 12h27v24H9z"/><use xlink:href="#c"/><path d="M18 10c0-.552.444-1 1-1 .552 0 1 .444 1 1 0 .552-.444 1-1 1-.552 0-1-.444-1-1z"/><path d="M18.1 10c0-.497.4-.9.9-.9.497 0 .9.4.9.9 0 .497-.4.9-.9.9-.497 0-.9-.4-.9-.9zM14 10c0-.552.444-1 1-1 .552 0 1 .444 1 1 0 .552-.444 1-1 1-.552 0-1-.444-1-1z"/><path d="M14.1 10c0-.497.4-.9.9-.9.497 0 .9.4.9.9 0 .497-.4.9-.9.9-.497 0-.9-.4-.9-.9zM10 10c0-.552.444-1 1-1 .552 0 1 .444 1 1 0 .552-.444 1-1 1-.552 0-1-.444-1-1z"/><path d="M10.1 10c0-.497.4-.9.9-.9.497 0 .9.4.9.9 0 .497-.4.9-.9.9-.497 0-.9-.4-.9-.9z"/></g><g mask="url(#b)" transform="rotate(-30 157.892 -433.444)"><circle cx="18" cy="18" r="18"/><path d="M9 12h27v24H9z"/><use xlink:href="#c"/><path d="M18 10c0-.552.444-1 1-1 .552 0 1 .444 1 1 0 .552-.444 1-1 1-.552 0-1-.444-1-1z"/><path d="M18.1 10c0-.497.4-.9.9-.9.497 0 .9.4.9.9 0 .497-.4.9-.9.9-.497 0-.9-.4-.9-.9zM14 10c0-.552.444-1 1-1 .552 0 1 .444 1 1 0 .552-.444 1-1 1-.552 0-1-.444-1-1z"/><path d="M14.1 10c0-.497.4-.9.9-.9.497 0 .9.4.9.9 0 .497-.4.9-.9.9-.497 0-.9-.4-.9-.9zM10 10c0-.552.444-1 1-1 .552 0 1 .444 1 1 0 .552-.444 1-1 1-.552 0-1-.444-1-1z"/><path d="M10.1 10c0-.497.4-.9.9-.9.497 0 .9.4.9.9 0 .497-.4.9-.9.9-.497 0-.9-.4-.9-.9z"/></g><g mask="url(#b)" transform="rotate(31 153.35 635.5)"><circle cx="18" cy="18" r="18"/><path d="M9 12h27v24H9z"/><use xlink:href="#c"/><path d="M18 10c0-.552.444-1 1-1 .552 0 1 .444 1 1 0 .552-.444 1-1 1-.552 0-1-.444-1-1z"/><path d="M18.1 10c0-.497.4-.9.9-.9.497 0 .9.4.9.9 0 .497-.4.9-.9.9-.497 0-.9-.4-.9-.9zM14 10c0-.552.444-1 1-1 .552 0 1 .444 1 1 0 .552-.444 1-1 1-.552 0-1-.444-1-1z"/><path d="M14.1 10c0-.497.4-.9.9-.9.497 0 .9.4.9.9 0 .497-.4.9-.9.9-.497 0-.9-.4-.9-.9zM10 10c0-.552.444-1 1-1 .552 0 1 .444 1 1 0 .552-.444 1-1 1-.552 0-1-.444-1-1z"/><path d="M10.1 10c0-.497.4-.9.9-.9.497 0 .9.4.9.9 0 .497-.4.9-.9.9-.497 0-.9-.4-.9-.9z"/></g><g mask="url(#b)" transform="rotate(-46 243.236 -457.272)"><circle cx="18" cy="18" r="18"/><path d="M9 12h27v24H9z"/><use xlink:href="#c"/><path d="M18 10c0-.552.444-1 1-1 .552 0 1 .444 1 1 0 .552-.444 1-1 1-.552 0-1-.444-1-1z"/><path d="M18.1 10c0-.497.4-.9.9-.9.497 0 .9.4.9.9 0 .497-.4.9-.9.9-.497 0-.9-.4-.9-.9zM14 10c0-.552.444-1 1-1 .552 0 1 .444 1 1 0 .552-.444 1-1 1-.552 0-1-.444-1-1z"/><path d="M14.1 10c0-.497.4-.9.9-.9.497 0 .9.4.9.9 0 .497-.4.9-.9.9-.497 0-.9-.4-.9-.9zM10 10c0-.552.444-1 1-1 .552 0 1 .444 1 1 0 .552-.444 1-1 1-.552 0-1-.444-1-1z"/><path d="M10.1 10c0-.497.4-.9.9-.9.497 0 .9.4.9.9 0 .497-.4.9-.9.9-.497 0-.9-.4-.9-.9z"/></g><g mask="url(#b)" transform="rotate(-36 275.427 -732.994)"><circle cx="18" cy="18" r="18"/><path d="M9 12h27v24H9z"/><use xlink:href="#c"/><path d="M18 10c0-.552.444-1 1-1 .552 0 1 .444 1 1 0 .552-.444 1-1 1-.552 0-1-.444-1-1z"/><path d="M18.1 10c0-.497.4-.9.9-.9.497 0 .9.4.9.9 0 .497-.4.9-.9.9-.497 0-.9-.4-.9-.9zM14 10c0-.552.444-1 1-1 .552 0 1 .444 1 1 0 .552-.444 1-1 1-.552 0-1-.444-1-1z"/><path d="M14.1 10c0-.497.4-.9.9-.9.497 0 .9.4.9.9 0 .497-.4.9-.9.9-.497 0-.9-.4-.9-.9zM10 10c0-.552.444-1 1-1 .552 0 1 .444 1 1 0 .552-.444 1-1 1-.552 0-1-.444-1-1z"/><path d="M10.1 10c0-.497.4-.9.9-.9.497 0 .9.4.9.9 0 .497-.4.9-.9.9-.497 0-.9-.4-.9-.9z"/></g><g mask="url(#b)" transform="rotate(34 232.802 910.995)"><circle cx="18" cy="18" r="18"/><path d="M9 12h27v24H9z"/><use xlink:href="#c"/><path d="M18 10c0-.552.444-1 1-1 .552 0 1 .444 1 1 0 .552-.444 1-1 1-.552 0-1-.444-1-1z"/><path d="M18.1 10c0-.497.4-.9.9-.9.497 0 .9.4.9.9 0 .497-.4.9-.9.9-.497 0-.9-.4-.9-.9zM14 10c0-.552.444-1 1-1 .552 0 1 .444 1 1 0 .552-.444 1-1 1-.552 0-1-.444-1-1z"/><path d="M14.1 10c0-.497.4-.9.9-.9.497 0 .9.4.9.9 0 .497-.4.9-.9.9-.497 0-.9-.4-.9-.9zM10 10c0-.552.444-1 1-1 .552 0 1 .444 1 1 0 .552-.444 1-1 1-.552 0-1-.444-1-1z"/><path d="M10.1 10c0-.497.4-.9.9-.9.497 0 .9.4.9.9 0 .497-.4.9-.9.9-.497 0-.9-.4-.9-.9z"/></g><g mask="url(#b)" transform="rotate(20 -144.632 59.514)"><circle cx="18" cy="18" r="18"/><path d="M9 12h27v24H9z"/><use xlink:href="#c"/><path d="M18 10c0-.552.444-1 1-1 .552 0 1 .444 1 1 0 .552-.444 1-1 1-.552 0-1-.444-1-1z"/><path d="M18.1 10c0-.497.4-.9.9-.9.497 0 .9.4.9.9 0 .497-.4.9-.9.9-.497 0-.9-.4-.9-.9zM14 10c0-.552.444-1 1-1 .552 0 1 .444 1 1 0 .552-.444 1-1 1-.552 0-1-.444-1-1z"/><path d="M14.1 10c0-.497.4-.9.9-.9.497 0 .9.4.9.9 0 .497-.4.9-.9.9-.497 0-.9-.4-.9-.9zM10 10c0-.552.444-1 1-1 .552 0 1 .444 1 1 0 .552-.444 1-1 1-.552 0-1-.444-1-1z"/><path d="M10.1 10c0-.497.4-.9.9-.9.497 0 .9.4.9.9 0 .497-.4.9-.9.9-.497 0-.9-.4-.9-.9z"/></g><g mask="url(#b)" transform="rotate(-30 195.622 -141.335)"><circle cx="18" cy="18" r="18"/><path d="M9 12h27v24H9z"/><use xlink:href="#c"/><path d="M18 10c0-.552.444-1 1-1 .552 0 1 .444 1 1 0 .552-.444 1-1 1-.552 0-1-.444-1-1z"/><path d="M18.1 10c0-.497.4-.9.9-.9.497 0 .9.4.9.9 0 .497-.4.9-.9.9-.497 0-.9-.4-.9-.9zM14 10c0-.552.444-1 1-1 .552 0 1 .444 1 1 0 .552-.444 1-1 1-.552 0-1-.444-1-1z"/><path d="M14.1 10c0-.497.4-.9.9-.9.497 0 .9.4.9.9 0 .497-.4.9-.9.9-.497 0-.9-.4-.9-.9zM10 10c0-.552.444-1 1-1 .552 0 1 .444 1 1 0 .552-.444 1-1 1-.552 0-1-.444-1-1z"/><path d="M10.1 10c0-.497.4-.9.9-.9.497 0 .9.4.9.9 0 .497-.4.9-.9.9-.497 0-.9-.4-.9-.9z"/></g><g mask="url(#b)" transform="translate(153 59)"><circle cx="18" cy="18" r="18"/><path d="M9 12h27v24H9z"/><use xlink:href="#c"/><path d="M18 10c0-.552.444-1 1-1 .552 0 1 .444 1 1 0 .552-.444 1-1 1-.552 0-1-.444-1-1z"/><path d="M18.1 10c0-.497.4-.9.9-.9.497 0 .9.4.9.9 0 .497-.4.9-.9.9-.497 0-.9-.4-.9-.9zM14 10c0-.552.444-1 1-1 .552 0 1 .444 1 1 0 .552-.444 1-1 1-.552 0-1-.444-1-1z"/><path d="M14.1 10c0-.497.4-.9.9-.9.497 0 .9.4.9.9 0 .497-.4.9-.9.9-.497 0-.9-.4-.9-.9zM10 10c0-.552.444-1 1-1 .552 0 1 .444 1 1 0 .552-.444 1-1 1-.552 0-1-.444-1-1z"/><path d="M10.1 10c0-.497.4-.9.9-.9.497 0 .9.4.9.9 0 .497-.4.9-.9.9-.497 0-.9-.4-.9-.9z"/></g><g mask="url(#b)" transform="rotate(-30 233.462 -357.195)"><circle cx="18" cy="18" r="18"/><path d="M9 12h27v24H9z"/><use xlink:href="#c"/><path d="M18 10c0-.552.444-1 1-1 .552 0 1 .444 1 1 0 .552-.444 1-1 1-.552 0-1-.444-1-1z"/><path d="M18.1 10c0-.497.4-.9.9-.9.497 0 .9.4.9.9 0 .497-.4.9-.9.9-.497 0-.9-.4-.9-.9zM14 10c0-.552.444-1 1-1 .552 0 1 .444 1 1 0 .552-.444 1-1 1-.552 0-1-.444-1-1z"/><path d="M14.1 10c0-.497.4-.9.9-.9.497 0 .9.4.9.9 0 .497-.4.9-.9.9-.497 0-.9-.4-.9-.9zM10 10c0-.552.444-1 1-1 .552 0 1 .444 1 1 0 .552-.444 1-1 1-.552 0-1-.444-1-1z"/><path d="M10.1 10c0-.497.4-.9.9-.9.497 0 .9.4.9.9 0 .497-.4.9-.9.9-.497 0-.9-.4-.9-.9z"/></g><g mask="url(#b)" transform="rotate(-10 625.562 -1447.052)"><circle cx="18" cy="18" r="18"/><path d="M9 12h27v24H9z"/><use xlink:href="#c"/><path d="M18 10c0-.552.444-1 1-1 .552 0 1 .444 1 1 0 .552-.444 1-1 1-.552 0-1-.444-1-1z"/><path d="M18.1 10c0-.497.4-.9.9-.9.497 0 .9.4.9.9 0 .497-.4.9-.9.9-.497 0-.9-.4-.9-.9zM14 10c0-.552.444-1 1-1 .552 0 1 .444 1 1 0 .552-.444 1-1 1-.552 0-1-.444-1-1z"/><path d="M14.1 10c0-.497.4-.9.9-.9.497 0 .9.4.9.9 0 .497-.4.9-.9.9-.497 0-.9-.4-.9-.9zM10 10c0-.552.444-1 1-1 .552 0 1 .444 1 1 0 .552-.444 1-1 1-.552 0-1-.444-1-1z"/><path d="M10.1 10c0-.497.4-.9.9-.9.497 0 .9.4.9.9 0 .497-.4.9-.9.9-.497 0-.9-.4-.9-.9z"/></g><g mask="url(#b)" transform="rotate(-10 410.461 -1621.358)"><circle cx="18" cy="18" r="18"/><path d="M9 12h27v24H9z"/><use xlink:href="#c"/><path d="M18 10c0-.552.444-1 1-1 .552 0 1 .444 1 1 0 .552-.444 1-1 1-.552 0-1-.444-1-1z"/><path d="M18.1 10c0-.497.4-.9.9-.9.497 0 .9.4.9.9 0 .497-.4.9-.9.9-.497 0-.9-.4-.9-.9zM14 10c0-.552.444-1 1-1 .552 0 1 .444 1 1 0 .552-.444 1-1 1-.552 0-1-.444-1-1z"/><path d="M14.1 10c0-.497.4-.9.9-.9.497 0 .9.4.9.9 0 .497-.4.9-.9.9-.497 0-.9-.4-.9-.9zM10 10c0-.552.444-1 1-1 .552 0 1 .444 1 1 0 .552-.444 1-1 1-.552 0-1-.444-1-1z"/><path d="M10.1 10c0-.497.4-.9.9-.9.497 0 .9.4.9.9 0 .497-.4.9-.9.9-.497 0-.9-.4-.9-.9z"/></g><g mask="url(#b)" transform="rotate(-36 287.792 -519.716)"><circle cx="18" cy="18" r="18"/><path d="M9 12h27v24H9z"/><use xlink:href="#c"/><path d="M18 10c0-.552.444-1 1-1 .552 0 1 .444 1 1 0 .552-.444 1-1 1-.552 0-1-.444-1-1z"/><path d="M18.1 10c0-.497.4-.9.9-.9.497 0 .9.4.9.9 0 .497-.4.9-.9.9-.497 0-.9-.4-.9-.9zM14 10c0-.552.444-1 1-1 .552 0 1 .444 1 1 0 .552-.444 1-1 1-.552 0-1-.444-1-1z"/><path d="M14.1 10c0-.497.4-.9.9-.9.497 0 .9.4.9.9 0 .497-.4.9-.9.9-.497 0-.9-.4-.9-.9zM10 10c0-.552.444-1 1-1 .552 0 1 .444 1 1 0 .552-.444 1-1 1-.552 0-1-.444-1-1z"/><path d="M10.1 10c0-.497.4-.9.9-.9.497 0 .9.4.9.9 0 .497-.4.9-.9.9-.497 0-.9-.4-.9-.9z"/></g><g mask="url(#b)" transform="rotate(24 118.532 1095.69)"><circle cx="18" cy="18" r="18"/><path d="M9 12h27v24H9z"/><use xlink:href="#c"/><path d="M18 10c0-.552.444-1 1-1 .552 0 1 .444 1 1 0 .552-.444 1-1 1-.552 0-1-.444-1-1z"/><path d="M18.1 10c0-.497.4-.9.9-.9.497 0 .9.4.9.9 0 .497-.4.9-.9.9-.497 0-.9-.4-.9-.9zM14 10c0-.552.444-1 1-1 .552 0 1 .444 1 1 0 .552-.444 1-1 1-.552 0-1-.444-1-1z"/><path d="M14.1 10c0-.497.4-.9.9-.9.497 0 .9.4.9.9 0 .497-.4.9-.9.9-.497 0-.9-.4-.9-.9zM10 10c0-.552.444-1 1-1 .552 0 1 .444 1 1 0 .552-.444 1-1 1-.552 0-1-.444-1-1z"/><path d="M10.1 10c0-.497.4-.9.9-.9.497 0 .9.4.9.9 0 .497-.4.9-.9.9-.497 0-.9-.4-.9-.9z"/></g><g><g mask="url(#b)" transform="rotate(4 -738.769 7193.745)"><circle cx="18" cy="18" r="18"/><path d="M9 12h27v24H9z"/><use xlink:href="#c"/><path d="M18 10c0-.552.444-1 1-1 .552 0 1 .444 1 1 0 .552-.444 1-1 1-.552 0-1-.444-1-1z"/><path d="M18.1 10c0-.497.4-.9.9-.9.497 0 .9.4.9.9 0 .497-.4.9-.9.9-.497 0-.9-.4-.9-.9zM14 10c0-.552.444-1 1-1 .552 0 1 .444 1 1 0 .552-.444 1-1 1-.552 0-1-.444-1-1z"/><path d="M14.1 10c0-.497.4-.9.9-.9.497 0 .9.4.9.9 0 .497-.4.9-.9.9-.497 0-.9-.4-.9-.9zM10 10c0-.552.444-1 1-1 .552 0 1 .444 1 1 0 .552-.444 1-1 1-.552 0-1-.444-1-1z"/><path d="M10.1 10c0-.497.4-.9.9-.9.497 0 .9.4.9.9 0 .497-.4.9-.9.9-.497 0-.9-.4-.9-.9z"/></g></g><g><g mask="url(#b)" transform="rotate(-36 416.607 -806.213)"><circle cx="18" cy="18" r="18"/><path d="M9 12h27v24H9z"/><use xlink:href="#c"/><path d="M18 10c0-.552.444-1 1-1 .552 0 1 .444 1 1 0 .552-.444 1-1 1-.552 0-1-.444-1-1z"/><path d="M18.1 10c0-.497.4-.9.9-.9.497 0 .9.4.9.9 0 .497-.4.9-.9.9-.497 0-.9-.4-.9-.9zM14 10c0-.552.444-1 1-1 .552 0 1 .444 1 1 0 .552-.444 1-1 1-.552 0-1-.444-1-1z"/><path d="M14.1 10c0-.497.4-.9.9-.9.497 0 .9.4.9.9 0 .497-.4.9-.9.9-.497 0-.9-.4-.9-.9zM10 10c0-.552.444-1 1-1 .552 0 1 .444 1 1 0 .552-.444 1-1 1-.552 0-1-.444-1-1z"/><path d="M10.1 10c0-.497.4-.9.9-.9.497 0 .9.4.9.9 0 .497-.4.9-.9.9-.497 0-.9-.4-.9-.9z"/></g></g><g><g mask="url(#b)" transform="rotate(20 -207.865 181.768)"><circle cx="18" cy="18" r="18"/><path d="M9 12h27v24H9z"/><use xlink:href="#c"/><path d="M18 10c0-.552.444-1 1-1 .552 0 1 .444 1 1 0 .552-.444 1-1 1-.552 0-1-.444-1-1z"/><path d="M18.1 10c0-.497.4-.9.9-.9.497 0 .9.4.9.9 0 .497-.4.9-.9.9-.497 0-.9-.4-.9-.9zM14 10c0-.552.444-1 1-1 .552 0 1 .444 1 1 0 .552-.444 1-1 1-.552 0-1-.444-1-1z"/><path d="M14.1 10c0-.497.4-.9.9-.9.497 0 .9.4.9.9 0 .497-.4.9-.9.9-.497 0-.9-.4-.9-.9zM10 10c0-.552.444-1 1-1 .552 0 1 .444 1 1 0 .552-.444 1-1 1-.552 0-1-.444-1-1z"/><path d="M10.1 10c0-.497.4-.9.9-.9.497 0 .9.4.9.9 0 .497-.4.9-.9.9-.497 0-.9-.4-.9-.9z"/></g></g><g><g mask="url(#b)" transform="rotate(-20 375.455 36.801)"><circle cx="18" cy="18" r="18"/><path d="M9 12h27v24H9z"/><use xlink:href="#c"/><path d="M18 10c0-.552.444-1 1-1 .552 0 1 .444 1 1 0 .552-.444 1-1 1-.552 0-1-.444-1-1z"/><path d="M18.1 10c0-.497.4-.9.9-.9.497 0 .9.4.9.9 0 .497-.4.9-.9.9-.497 0-.9-.4-.9-.9zM14 10c0-.552.444-1 1-1 .552 0 1 .444 1 1 0 .552-.444 1-1 1-.552 0-1-.444-1-1z"/><path d="M14.1 10c0-.497.4-.9.9-.9.497 0 .9.4.9.9 0 .497-.4.9-.9.9-.497 0-.9-.4-.9-.9zM10 10c0-.552.444-1 1-1 .552 0 1 .444 1 1 0 .552-.444 1-1 1-.552 0-1-.444-1-1z"/><path d="M10.1 10c0-.497.4-.9.9-.9.497 0 .9.4.9.9 0 .497-.4.9-.9.9-.497 0-.9-.4-.9-.9z"/></g></g><g><g mask="url(#b)" transform="translate(74 126)"><circle cx="18" cy="18" r="18"/><path d="M9 12h27v24H9z"/><use xlink:href="#c"/><path d="M18 10c0-.552.444-1 1-1 .552 0 1 .444 1 1 0 .552-.444 1-1 1-.552 0-1-.444-1-1z"/><path d="M18.1 10c0-.497.4-.9.9-.9.497 0 .9.4.9.9 0 .497-.4.9-.9.9-.497 0-.9-.4-.9-.9zM14 10c0-.552.444-1 1-1 .552 0 1 .444 1 1 0 .552-.444 1-1 1-.552 0-1-.444-1-1z"/><path d="M14.1 10c0-.497.4-.9.9-.9.497 0 .9.4.9.9 0 .497-.4.9-.9.9-.497 0-.9-.4-.9-.9zM10 10c0-.552.444-1 1-1 .552 0 1 .444 1 1 0 .552-.444 1-1 1-.552 0-1-.444-1-1z"/><path d="M10.1 10c0-.497.4-.9.9-.9.497 0 .9.4.9.9 0 .497-.4.9-.9.9-.497 0-.9-.4-.9-.9z"/></g></g><g><g mask="url(#b)" transform="rotate(20 -228.75 428.126)"><circle cx="18" cy="18" r="18"/><path d="M9 12h27v24H9z"/><use xlink:href="#c"/><path d="M18 10c0-.552.444-1 1-1 .552 0 1 .444 1 1 0 .552-.444 1-1 1-.552 0-1-.444-1-1z"/><path d="M18.1 10c0-.497.4-.9.9-.9.497 0 .9.4.9.9 0 .497-.4.9-.9.9-.497 0-.9-.4-.9-.9zM14 10c0-.552.444-1 1-1 .552 0 1 .444 1 1 0 .552-.444 1-1 1-.552 0-1-.444-1-1z"/><path d="M14.1 10c0-.497.4-.9.9-.9.497 0 .9.4.9.9 0 .497-.4.9-.9.9-.497 0-.9-.4-.9-.9zM10 10c0-.552.444-1 1-1 .552 0 1 .444 1 1 0 .552-.444 1-1 1-.552 0-1-.444-1-1z"/><path d="M10.1 10c0-.497.4-.9.9-.9.497 0 .9.4.9.9 0 .497-.4.9-.9.9-.497 0-.9-.4-.9-.9z"/></g></g><g><g mask="url(#b)" transform="rotate(20 -179.064 577.251)"><circle cx="18" cy="18" r="18"/><path d="M9 12h27v24H9z"/><use xlink:href="#c"/><path d="M18 10c0-.552.444-1 1-1 .552 0 1 .444 1 1 0 .552-.444 1-1 1-.552 0-1-.444-1-1z"/><path d="M18.1 10c0-.497.4-.9.9-.9.497 0 .9.4.9.9 0 .497-.4.9-.9.9-.497 0-.9-.4-.9-.9zM14 10c0-.552.444-1 1-1 .552 0 1 .444 1 1 0 .552-.444 1-1 1-.552 0-1-.444-1-1z"/><path d="M14.1 10c0-.497.4-.9.9-.9.497 0 .9.4.9.9 0 .497-.4.9-.9.9-.497 0-.9-.4-.9-.9zM10 10c0-.552.444-1 1-1 .552 0 1 .444 1 1 0 .552-.444 1-1 1-.552 0-1-.444-1-1z"/><path d="M10.1 10c0-.497.4-.9.9-.9.497 0 .9.4.9.9 0 .497-.4.9-.9.9-.497 0-.9-.4-.9-.9z"/></g></g><g><g mask="url(#b)" transform="rotate(-30 372.074 -240.054)"><circle cx="18" cy="18" r="18"/><path d="M9 12h27v24H9z"/><use xlink:href="#c"/><path d="M18 10c0-.552.444-1 1-1 .552 0 1 .444 1 1 0 .552-.444 1-1 1-.552 0-1-.444-1-1z"/><path d="M18.1 10c0-.497.4-.9.9-.9.497 0 .9.4.9.9 0 .497-.4.9-.9.9-.497 0-.9-.4-.9-.9zM14 10c0-.552.444-1 1-1 .552 0 1 .444 1 1 0 .552-.444 1-1 1-.552 0-1-.444-1-1z"/><path d="M14.1 10c0-.497.4-.9.9-.9.497 0 .9.4.9.9 0 .497-.4.9-.9.9-.497 0-.9-.4-.9-.9zM10 10c0-.552.444-1 1-1 .552 0 1 .444 1 1 0 .552-.444 1-1 1-.552 0-1-.444-1-1z"/><path d="M10.1 10c0-.497.4-.9.9-.9.497 0 .9.4.9.9 0 .497-.4.9-.9.9-.497 0-.9-.4-.9-.9z"/></g></g><g><g mask="url(#b)" transform="rotate(-30 368.485 -361.016)"><circle cx="18" cy="18" r="18"/><path d="M9 12h27v24H9z"/><use xlink:href="#c"/><path d="M18 10c0-.552.444-1 1-1 .552 0 1 .444 1 1 0 .552-.444 1-1 1-.552 0-1-.444-1-1z"/><path d="M18.1 10c0-.497.4-.9.9-.9.497 0 .9.4.9.9 0 .497-.4.9-.9.9-.497 0-.9-.4-.9-.9zM14 10c0-.552.444-1 1-1 .552 0 1 .444 1 1 0 .552-.444 1-1 1-.552 0-1-.444-1-1z"/><path d="M14.1 10c0-.497.4-.9.9-.9.497 0 .9.4.9.9 0 .497-.4.9-.9.9-.497 0-.9-.4-.9-.9zM10 10c0-.552.444-1 1-1 .552 0 1 .444 1 1 0 .552-.444 1-1 1-.552 0-1-.444-1-1z"/><path d="M10.1 10c0-.497.4-.9.9-.9.497 0 .9.4.9.9 0 .497-.4.9-.9.9-.497 0-.9-.4-.9-.9z"/></g></g><g><g mask="url(#b)" transform="rotate(50 23.896 387.954)"><circle cx="18" cy="18" r="18"/><path d="M9 12h27v24H9z"/><use xlink:href="#c"/><path d="M18 10c0-.552.444-1 1-1 .552 0 1 .444 1 1 0 .552-.444 1-1 1-.552 0-1-.444-1-1z"/><path d="M18.1 10c0-.497.4-.9.9-.9.497 0 .9.4.9.9 0 .497-.4.9-.9.9-.497 0-.9-.4-.9-.9zM14 10c0-.552.444-1 1-1 .552 0 1 .444 1 1 0 .552-.444 1-1 1-.552 0-1-.444-1-1z"/><path d="M14.1 10c0-.497.4-.9.9-.9.497 0 .9.4.9.9 0 .497-.4.9-.9.9-.497 0-.9-.4-.9-.9zM10 10c0-.552.444-1 1-1 .552 0 1 .444 1 1 0 .552-.444 1-1 1-.552 0-1-.444-1-1z"/><path d="M10.1 10c0-.497.4-.9.9-.9.497 0 .9.4.9.9 0 .497-.4.9-.9.9-.497 0-.9-.4-.9-.9z"/></g></g><g><g mask="url(#b)" transform="rotate(-50 266.214 -286.121)"><circle cx="18" cy="18" r="18"/><path d="M9 12h27v24H9z"/><use xlink:href="#c"/><path d="M18 10c0-.552.444-1 1-1 .552 0 1 .444 1 1 0 .552-.444 1-1 1-.552 0-1-.444-1-1z"/><path d="M18.1 10c0-.497.4-.9.9-.9.497 0 .9.4.9.9 0 .497-.4.9-.9.9-.497 0-.9-.4-.9-.9zM14 10c0-.552.444-1 1-1 .552 0 1 .444 1 1 0 .552-.444 1-1 1-.552 0-1-.444-1-1z"/><path d="M14.1 10c0-.497.4-.9.9-.9.497 0 .9.4.9.9 0 .497-.4.9-.9.9-.497 0-.9-.4-.9-.9zM10 10c0-.552.444-1 1-1 .552 0 1 .444 1 1 0 .552-.444 1-1 1-.552 0-1-.444-1-1z"/><path d="M10.1 10c0-.497.4-.9.9-.9.497 0 .9.4.9.9 0 .497-.4.9-.9.9-.497 0-.9-.4-.9-.9z"/></g></g><g><g mask="url(#b)" transform="rotate(24 -71.312 919.686)"><circle cx="18" cy="18" r="18"/><path d="M9 12h27v24H9z"/><use xlink:href="#c"/><path d="M18 10c0-.552.444-1 1-1 .552 0 1 .444 1 1 0 .552-.444 1-1 1-.552 0-1-.444-1-1z"/><path d="M18.1 10c0-.497.4-.9.9-.9.497 0 .9.4.9.9 0 .497-.4.9-.9.9-.497 0-.9-.4-.9-.9zM14 10c0-.552.444-1 1-1 .552 0 1 .444 1 1 0 .552-.444 1-1 1-.552 0-1-.444-1-1z"/><path d="M14.1 10c0-.497.4-.9.9-.9.497 0 .9.4.9.9 0 .497-.4.9-.9.9-.497 0-.9-.4-.9-.9zM10 10c0-.552.444-1 1-1 .552 0 1 .444 1 1 0 .552-.444 1-1 1-.552 0-1-.444-1-1z"/><path d="M10.1 10c0-.497.4-.9.9-.9.497 0 .9.4.9.9 0 .497-.4.9-.9.9-.497 0-.9-.4-.9-.9z"/></g></g><g><g mask="url(#b)" transform="rotate(24 10.644 1027.654)"><circle cx="18" cy="18" r="18"/><path d="M9 12h27v24H9z"/><use xlink:href="#c"/><path d="M18 10c0-.552.444-1 1-1 .552 0 1 .444 1 1 0 .552-.444 1-1 1-.552 0-1-.444-1-1z"/><path d="M18.1 10c0-.497.4-.9.9-.9.497 0 .9.4.9.9 0 .497-.4.9-.9.9-.497 0-.9-.4-.9-.9zM14 10c0-.552.444-1 1-1 .552 0 1 .444 1 1 0 .552-.444 1-1 1-.552 0-1-.444-1-1z"/><path d="M14.1 10c0-.497.4-.9.9-.9.497 0 .9.4.9.9 0 .497-.4.9-.9.9-.497 0-.9-.4-.9-.9zM10 10c0-.552.444-1 1-1 .552 0 1 .444 1 1 0 .552-.444 1-1 1-.552 0-1-.444-1-1z"/><path d="M10.1 10c0-.497.4-.9.9-.9.497 0 .9.4.9.9 0 .497-.4.9-.9.9-.497 0-.9-.4-.9-.9z"/></g></g><g><g mask="url(#b)" transform="rotate(64 103.676 408.568)"><circle cx="18" cy="18" r="18"/><path d="M9 12h27v24H9z"/><use xlink:href="#c"/><path d="M18 10c0-.552.444-1 1-1 .552 0 1 .444 1 1 0 .552-.444 1-1 1-.552 0-1-.444-1-1z"/><path d="M18.1 10c0-.497.4-.9.9-.9.497 0 .9.4.9.9 0 .497-.4.9-.9.9-.497 0-.9-.4-.9-.9zM14 10c0-.552.444-1 1-1 .552 0 1 .444 1 1 0 .552-.444 1-1 1-.552 0-1-.444-1-1z"/><path d="M14.1 10c0-.497.4-.9.9-.9.497 0 .9.4.9.9 0 .497-.4.9-.9.9-.497 0-.9-.4-.9-.9zM10 10c0-.552.444-1 1-1 .552 0 1 .444 1 1 0 .552-.444 1-1 1-.552 0-1-.444-1-1z"/><path d="M10.1 10c0-.497.4-.9.9-.9.497 0 .9.4.9.9 0 .497-.4.9-.9.9-.497 0-.9-.4-.9-.9z"/></g></g><g><g mask="url(#b)" transform="rotate(-36 414.311 -636.828)"><circle cx="18" cy="18" r="18"/><path d="M9 12h27v24H9z"/><use xlink:href="#c"/><path d="M18 10c0-.552.444-1 1-1 .552 0 1 .444 1 1 0 .552-.444 1-1 1-.552 0-1-.444-1-1z"/><path d="M18.1 10c0-.497.4-.9.9-.9.497 0 .9.4.9.9 0 .497-.4.9-.9.9-.497 0-.9-.4-.9-.9zM14 10c0-.552.444-1 1-1 .552 0 1 .444 1 1 0 .552-.444 1-1 1-.552 0-1-.444-1-1z"/><path d="M14.1 10c0-.497.4-.9.9-.9.497 0 .9.4.9.9 0 .497-.4.9-.9.9-.497 0-.9-.4-.9-.9zM10 10c0-.552.444-1 1-1 .552 0 1 .444 1 1 0 .552-.444 1-1 1-.552 0-1-.444-1-1z"/><path d="M10.1 10c0-.497.4-.9.9-.9.497 0 .9.4.9.9 0 .497-.4.9-.9.9-.497 0-.9-.4-.9-.9z"/></g></g><g><g mask="url(#b)" transform="rotate(-36 458.161 -724.659)"><circle cx="18" cy="18" r="18"/><path d="M9 12h27v24H9z"/><use xlink:href="#c"/><path d="M18 10c0-.552.444-1 1-1 .552 0 1 .444 1 1 0 .552-.444 1-1 1-.552 0-1-.444-1-1z"/><path d="M18.1 10c0-.497.4-.9.9-.9.497 0 .9.4.9.9 0 .497-.4.9-.9.9-.497 0-.9-.4-.9-.9zM14 10c0-.552.444-1 1-1 .552 0 1 .444 1 1 0 .552-.444 1-1 1-.552 0-1-.444-1-1z"/><path d="M14.1 10c0-.497.4-.9.9-.9.497 0 .9.4.9.9 0 .497-.4.9-.9.9-.497 0-.9-.4-.9-.9zM10 10c0-.552.444-1 1-1 .552 0 1 .444 1 1 0 .552-.444 1-1 1-.552 0-1-.444-1-1z"/><path d="M10.1 10c0-.497.4-.9.9-.9.497 0 .9.4.9.9 0 .497-.4.9-.9.9-.497 0-.9-.4-.9-.9z"/></g></g></g></svg>