<svg xmlns="http://www.w3.org/2000/svg" viewBox="0 0 605 180"><title>full-color-deployer-alt</title><g fill-rule="evenodd"><g transform="rotate(-30 36.196 -24.053)"><circle cx="18" cy="18" r="18"/><path d="M14.635 26.406l1.395-4.992L28.978 8.04l-15.7 12.153 1.357 6.214"/><path d="M14.635 26.406l3.336-3.863-1.94-1.129-1.396 4.992"/><path d="M17.97 22.543l7.752 4.51L28.978 8.04 16.03 21.414l1.94 1.13M13.278 20.192l15.7-12.153-23.958 10 8.258 2.153"/></g><g transform="rotate(10 -161.24 380.617)"><circle cx="18" cy="18" r="18"/><path d="M14.635 26.406l1.395-4.992L28.978 8.04l-15.7 12.153 1.357 6.214"/><path d="M14.635 26.406l3.336-3.863-1.94-1.129-1.396 4.992"/><path d="M17.97 22.543l7.752 4.51L28.978 8.04 16.03 21.414l1.94 1.13M13.278 20.192l15.7-12.153-23.958 10 8.258 2.153"/></g><g transform="rotate(-30 97.99 -187.495)"><circle cx="18" cy="18" r="18"/><path d="M14.635 26.406l1.395-4.992L28.978 8.04l-15.7 12.153 1.357 6.214"/><path d="M14.635 26.406l3.336-3.863-1.94-1.129-1.396 4.992"/><path d="M17.97 22.543l7.752 4.51L28.978 8.04 16.03 21.414l1.94 1.13M13.278 20.192l15.7-12.153-23.958 10 8.258 2.153"/></g><g transform="rotate(20 59.63 538.087)"><circle cx="18" cy="18" r="18"/><path d="M14.635 26.406l1.395-4.992L28.978 8.04l-15.7 12.153 1.357 6.214"/><path d="M14.635 26.406l3.336-3.863-1.94-1.129-1.396 4.992"/><path d="M17.97 22.543l7.752 4.51L28.978 8.04 16.03 21.414l1.94 1.13M13.278 20.192l15.7-12.153-23.958 10 8.258 2.153"/></g><g transform="rotate(-30 157.892 -433.444)"><circle cx="18" cy="18" r="18"/><path d="M14.635 26.406l1.395-4.992L28.978 8.04l-15.7 12.153 1.357 6.214"/><path d="M14.635 26.406l3.336-3.863-1.94-1.129-1.396 4.992"/><path d="M17.97 22.543l7.752 4.51L28.978 8.04 16.03 21.414l1.94 1.13M13.278 20.192l15.7-12.153-23.958 10 8.258 2.153"/></g><g transform="rotate(31 153.35 635.5)"><circle cx="18" cy="18" r="18"/><path d="M14.635 26.406l1.395-4.992L28.978 8.04l-15.7 12.153 1.357 6.214"/><path d="M14.635 26.406l3.336-3.863-1.94-1.129-1.396 4.992"/><path d="M17.97 22.543l7.752 4.51L28.978 8.04 16.03 21.414l1.94 1.13M13.278 20.192l15.7-12.153-23.958 10 8.258 2.153"/></g><g transform="rotate(-46 243.236 -457.272)"><circle cx="18" cy="18" r="18"/><path d="M14.635 26.406l1.395-4.992L28.978 8.04l-15.7 12.153 1.357 6.214"/><path d="M14.635 26.406l3.336-3.863-1.94-1.129-1.396 4.992"/><path d="M17.97 22.543l7.752 4.51L28.978 8.04 16.03 21.414l1.94 1.13M13.278 20.192l15.7-12.153-23.958 10 8.258 2.153"/></g><g transform="rotate(-36 275.427 -732.994)"><circle cx="18" cy="18" r="18"/><path d="M14.635 26.406l1.395-4.992L28.978 8.04l-15.7 12.153 1.357 6.214"/><path d="M14.635 26.406l3.336-3.863-1.94-1.129-1.396 4.992"/><path d="M17.97 22.543l7.752 4.51L28.978 8.04 16.03 21.414l1.94 1.13M13.278 20.192l15.7-12.153-23.958 10 8.258 2.153"/></g><g transform="rotate(34 232.802 910.995)"><circle cx="18" cy="18" r="18"/><path d="M14.635 26.406l1.395-4.992L28.978 8.04l-15.7 12.153 1.357 6.214"/><path d="M14.635 26.406l3.336-3.863-1.94-1.129-1.396 4.992"/><path d="M17.97 22.543l7.752 4.51L28.978 8.04 16.03 21.414l1.94 1.13M13.278 20.192l15.7-12.153-23.958 10 8.258 2.153"/></g><g transform="rotate(20 -144.632 59.514)"><circle cx="18" cy="18" r="18"/><path d="M14.635 26.406l1.395-4.992L28.978 8.04l-15.7 12.153 1.357 6.214"/><path d="M14.635 26.406l3.336-3.863-1.94-1.129-1.396 4.992"/><path d="M17.97 22.543l7.752 4.51L28.978 8.04 16.03 21.414l1.94 1.13M13.278 20.192l15.7-12.153-23.958 10 8.258 2.153"/></g><g transform="rotate(-30 195.622 -141.335)"><circle cx="18" cy="18" r="18"/><path d="M14.635 26.406l1.395-4.992L28.978 8.04l-15.7 12.153 1.357 6.214"/><path d="M14.635 26.406l3.336-3.863-1.94-1.129-1.396 4.992"/><path d="M17.97 22.543l7.752 4.51L28.978 8.04 16.03 21.414l1.94 1.13M13.278 20.192l15.7-12.153-23.958 10 8.258 2.153"/></g><g transform="translate(153 59)"><circle cx="18" cy="18" r="18"/><path d="M14.635 26.406l1.395-4.992L28.978 8.04l-15.7 12.153 1.357 6.214"/><path d="M14.635 26.406l3.336-3.863-1.94-1.129-1.396 4.992"/><path d="M17.97 22.543l7.752 4.51L28.978 8.04 16.03 21.414l1.94 1.13M13.278 20.192l15.7-12.153-23.958 10 8.258 2.153"/></g><g transform="rotate(-30 233.462 -357.195)"><circle cx="18" cy="18" r="18"/><path d="M14.635 26.406l1.395-4.992L28.978 8.04l-15.7 12.153 1.357 6.214"/><path d="M14.635 26.406l3.336-3.863-1.94-1.129-1.396 4.992"/><path d="M17.97 22.543l7.752 4.51L28.978 8.04 16.03 21.414l1.94 1.13M13.278 20.192l15.7-12.153-23.958 10 8.258 2.153"/></g><g transform="rotate(-10 625.562 -1447.052)"><circle cx="18" cy="18" r="18"/><path d="M14.635 26.406l1.395-4.992L28.978 8.04l-15.7 12.153 1.357 6.214"/><path d="M14.635 26.406l3.336-3.863-1.94-1.129-1.396 4.992"/><path d="M17.97 22.543l7.752 4.51L28.978 8.04 16.03 21.414l1.94 1.13M13.278 20.192l15.7-12.153-23.958 10 8.258 2.153"/></g><g transform="rotate(-10 410.461 -1621.358)"><circle cx="18" cy="18" r="18"/><path d="M14.635 26.406l1.395-4.992L28.978 8.04l-15.7 12.153 1.357 6.214"/><path d="M14.635 26.406l3.336-3.863-1.94-1.129-1.396 4.992"/><path d="M17.97 22.543l7.752 4.51L28.978 8.04 16.03 21.414l1.94 1.13M13.278 20.192l15.7-12.153-23.958 10 8.258 2.153"/></g><g transform="rotate(-36 287.792 -519.716)"><circle cx="18" cy="18" r="18"/><path d="M14.635 26.406l1.395-4.992L28.978 8.04l-15.7 12.153 1.357 6.214"/><path d="M14.635 26.406l3.336-3.863-1.94-1.129-1.396 4.992"/><path d="M17.97 22.543l7.752 4.51L28.978 8.04 16.03 21.414l1.94 1.13M13.278 20.192l15.7-12.153-23.958 10 8.258 2.153"/></g><g transform="rotate(24 118.532 1095.69)"><circle cx="18" cy="18" r="18"/><path d="M14.635 26.406l1.395-4.992L28.978 8.04l-15.7 12.153 1.357 6.214"/><path d="M14.635 26.406l3.336-3.863-1.94-1.129-1.396 4.992"/><path d="M17.97 22.543l7.752 4.51L28.978 8.04 16.03 21.414l1.94 1.13M13.278 20.192l15.7-12.153-23.958 10 8.258 2.153"/></g><g transform="rotate(4 -738.769 7193.745)"><circle cx="18" cy="18" r="18"/><path d="M14.635 26.406l1.395-4.992L28.978 8.04l-15.7 12.153 1.357 6.214"/><path d="M14.635 26.406l3.336-3.863-1.94-1.129-1.396 4.992"/><path d="M17.97 22.543l7.752 4.51L28.978 8.04 16.03 21.414l1.94 1.13M13.278 20.192l15.7-12.153-23.958 10 8.258 2.153"/></g><g transform="rotate(-36 416.607 -806.213)"><circle cx="18" cy="18" r="18"/><path d="M14.635 26.406l1.395-4.992L28.978 8.04l-15.7 12.153 1.357 6.214"/><path d="M14.635 26.406l3.336-3.863-1.94-1.129-1.396 4.992"/><path d="M17.97 22.543l7.752 4.51L28.978 8.04 16.03 21.414l1.94 1.13M13.278 20.192l15.7-12.153-23.958 10 8.258 2.153"/></g><g transform="rotate(20 -207.865 181.768)"><circle cx="18" cy="18" r="18"/><path d="M14.635 26.406l1.395-4.992L28.978 8.04l-15.7 12.153 1.357 6.214"/><path d="M14.635 26.406l3.336-3.863-1.94-1.129-1.396 4.992"/><path d="M17.97 22.543l7.752 4.51L28.978 8.04 16.03 21.414l1.94 1.13M13.278 20.192l15.7-12.153-23.958 10 8.258 2.153"/></g><g transform="rotate(-20 375.455 36.801)"><circle cx="18" cy="18" r="18"/><path d="M14.635 26.406l1.395-4.992L28.978 8.04l-15.7 12.153 1.357 6.214"/><path d="M14.635 26.406l3.336-3.863-1.94-1.129-1.396 4.992"/><path d="M17.97 22.543l7.752 4.51L28.978 8.04 16.03 21.414l1.94 1.13M13.278 20.192l15.7-12.153-23.958 10 8.258 2.153"/></g><g transform="translate(74 126)"><circle cx="18" cy="18" r="18"/><path d="M14.635 26.406l1.395-4.992L28.978 8.04l-15.7 12.153 1.357 6.214"/><path d="M14.635 26.406l3.336-3.863-1.94-1.129-1.396 4.992"/><path d="M17.97 22.543l7.752 4.51L28.978 8.04 16.03 21.414l1.94 1.13M13.278 20.192l15.7-12.153-23.958 10 8.258 2.153"/></g><g transform="rotate(20 -228.75 428.126)"><circle cx="18" cy="18" r="18"/><path d="M14.635 26.406l1.395-4.992L28.978 8.04l-15.7 12.153 1.357 6.214"/><path d="M14.635 26.406l3.336-3.863-1.94-1.129-1.396 4.992"/><path d="M17.97 22.543l7.752 4.51L28.978 8.04 16.03 21.414l1.94 1.13M13.278 20.192l15.7-12.153-23.958 10 8.258 2.153"/></g><g transform="rotate(20 -179.064 577.251)"><circle cx="18" cy="18" r="18"/><path d="M14.635 26.406l1.395-4.992L28.978 8.04l-15.7 12.153 1.357 6.214"/><path d="M14.635 26.406l3.336-3.863-1.94-1.129-1.396 4.992"/><path d="M17.97 22.543l7.752 4.51L28.978 8.04 16.03 21.414l1.94 1.13M13.278 20.192l15.7-12.153-23.958 10 8.258 2.153"/></g><g transform="rotate(-30 372.074 -240.054)"><circle cx="18" cy="18" r="18"/><path d="M14.635 26.406l1.395-4.992L28.978 8.04l-15.7 12.153 1.357 6.214"/><path d="M14.635 26.406l3.336-3.863-1.94-1.129-1.396 4.992"/><path d="M17.97 22.543l7.752 4.51L28.978 8.04 16.03 21.414l1.94 1.13M13.278 20.192l15.7-12.153-23.958 10 8.258 2.153"/></g><g transform="rotate(-30 368.485 -361.016)"><circle cx="18" cy="18" r="18"/><path d="M14.635 26.406l1.395-4.992L28.978 8.04l-15.7 12.153 1.357 6.214"/><path d="M14.635 26.406l3.336-3.863-1.94-1.129-1.396 4.992"/><path d="M17.97 22.543l7.752 4.51L28.978 8.04 16.03 21.414l1.94 1.13M13.278 20.192l15.7-12.153-23.958 10 8.258 2.153"/></g><g transform="rotate(50 23.896 387.954)"><circle cx="18" cy="18" r="18"/><path d="M14.635 26.406l1.395-4.992L28.978 8.04l-15.7 12.153 1.357 6.214"/><path d="M14.635 26.406l3.336-3.863-1.94-1.129-1.396 4.992"/><path d="M17.97 22.543l7.752 4.51L28.978 8.04 16.03 21.414l1.94 1.13M13.278 20.192l15.7-12.153-23.958 10 8.258 2.153"/></g><g transform="rotate(-50 266.214 -286.121)"><circle cx="18" cy="18" r="18"/><path d="M14.635 26.406l1.395-4.992L28.978 8.04l-15.7 12.153 1.357 6.214"/><path d="M14.635 26.406l3.336-3.863-1.94-1.129-1.396 4.992"/><path d="M17.97 22.543l7.752 4.51L28.978 8.04 16.03 21.414l1.94 1.13M13.278 20.192l15.7-12.153-23.958 10 8.258 2.153"/></g><g transform="rotate(24 -71.312 919.686)"><circle cx="18" cy="18" r="18"/><path d="M14.635 26.406l1.395-4.992L28.978 8.04l-15.7 12.153 1.357 6.214"/><path d="M14.635 26.406l3.336-3.863-1.94-1.129-1.396 4.992"/><path d="M17.97 22.543l7.752 4.51L28.978 8.04 16.03 21.414l1.94 1.13M13.278 20.192l15.7-12.153-23.958 10 8.258 2.153"/></g><g transform="rotate(24 10.644 1027.654)"><circle cx="18" cy="18" r="18"/><path d="M14.635 26.406l1.395-4.992L28.978 8.04l-15.7 12.153 1.357 6.214"/><path d="M14.635 26.406l3.336-3.863-1.94-1.129-1.396 4.992"/><path d="M17.97 22.543l7.752 4.51L28.978 8.04 16.03 21.414l1.94 1.13M13.278 20.192l15.7-12.153-23.958 10 8.258 2.153"/></g><g transform="rotate(64 103.676 408.568)"><circle cx="18" cy="18" r="18"/><path d="M14.635 26.406l1.395-4.992L28.978 8.04l-15.7 12.153 1.357 6.214"/><path d="M14.635 26.406l3.336-3.863-1.94-1.129-1.396 4.992"/><path d="M17.97 22.543l7.752 4.51L28.978 8.04 16.03 21.414l1.94 1.13M13.278 20.192l15.7-12.153-23.958 10 8.258 2.153"/></g><g transform="rotate(-36 414.311 -636.828)"><circle cx="18" cy="18" r="18"/><path d="M14.635 26.406l1.395-4.992L28.978 8.04l-15.7 12.153 1.357 6.214"/><path d="M14.635 26.406l3.336-3.863-1.94-1.129-1.396 4.992"/><path d="M17.97 22.543l7.752 4.51L28.978 8.04 16.03 21.414l1.94 1.13M13.278 20.192l15.7-12.153-23.958 10 8.258 2.153"/></g><g transform="rotate(-36 458.161 -724.659)"><circle cx="18" cy="18" r="18"/><path d="M14.635 26.406l1.395-4.992L28.978 8.04l-15.7 12.153 1.357 6.214"/><path d="M14.635 26.406l3.336-3.863-1.94-1.129-1.396 4.992"/><path d="M17.97 22.543l7.752 4.51L28.978 8.04 16.03 21.414l1.94 1.13M13.278 20.192l15.7-12.153-23.958 10 8.258 2.153"/></g></g></svg>