<svg xmlns="http://www.w3.org/2000/svg" viewBox="0 0 605 180"><title>full-color-rails-alt</title><g fill-rule="evenodd"><path d="M32.464 5.876c-8.61 4.97-11.559 15.979-6.588 24.588 4.97 8.61 15.979 11.56 24.588 6.589 8.61-4.971 11.56-15.98 6.589-24.589-4.971-8.61-15.98-11.559-24.589-6.588zm21.108 11.386l.776 1.343 2.43-1.404c.5-.287 1.144-1.145.587-2.179l-.3-.52c-.502-.868-1.511-.968-2.18-.582l-1.212.7-.36-.624 2.401-1.386-.78-1.351-2.305 1.33c-.595.344-1.107 1.293-.58 2.206l.27.468c.527.913 1.585.926 2.187.578 1.678-.958-.401.232 1.146-.661l.377.653-2.457 1.429zm-13.216 7.194s1.237-.863.268-2.54c-.968-1.678-2.634-.924-2.634-.924l-2.84 1.64 3.055 5.293 1.428-.824-.738-1.277 1.972.564 2.112-1.219-2.623-.713zm-1.176-.766l-1.137.657-.7-1.21 1.146-.661s.388-.066.667.416c.278.483.024.798.024.798zm3.932-5.605l-1.45.837c-1.034.596-.843 1.734-.586 2.179l2.237 3.875 1.45-.837-.536-.928 1.361-.786.536.928 1.405-.811-2.237-3.875c-.651-1.128-1.823-.788-2.18-.582zm1.61 2.84l-1.368.79-.741-1.284s-.167-.29.286-.551l.498-.288c.402-.231.576.054.576.054l.742 1.284.007-.004zm.435-4.02l1.509-.872 3.034 5.255-1.51.872-3.033-5.256zm5.878 1.801l-2.25-3.897-1.502.867 2.25 3.897.784 1.359 1.502-.867 2.03-1.172-.784-1.359-2.03 1.172zm-21.79 14.392l5.874-3.391s-4.076-4.467-1.553-8.684c.583-.862 2.314-3.82 8.338-3.142.07-.188.144-.35.144-.35s-6.09-1.62-10.147 1.296c-2.06 1.446-3.586 4.95-3.647 8.45-.062 3.5.991 5.821.991 5.821zm6.963-16.204l-.257-.514c-.088.001-.326.02-.871.156l.253.507a13.8 13.8 0 0 1 .875-.149zm.202 1.982l.24.484c.25-.134.513-.246.788-.336l-.236-.477a6.09 6.09 0 0 0-.792.329zm-4.088-.728l.074-.043-.41-.367c-.23.133-.46.285-.688.457l.394.356a7.26 7.26 0 0 1 .63-.403zm1.934 2.526l.467.413c.156-.228.32-.442.497-.633l-.447-.396c-.21.22-.378.427-.517.616zm-4.503-.004l-.63-.319c-.13.204-.264.42-.396.654l.642.322c.125-.23.247-.449.384-.657zm3.453 2.46l.666.329c.019-.259.069-.515.134-.78l-.626-.312a4.745 4.745 0 0 0-.174.764zm.302 3.013l.877.128a6.835 6.835 0 0 1-.346-.959l-.78-.114c.063.33.154.644.249.945zm-5.292-1.645l-.794-.156c-.086.297-.165.59-.229.875l.855.159c.04-.29.096-.59.168-.878zm-.33 4.614l-1.035.182c.043.4.1.862.142 1.106l1.035-.182a29.85 29.85 0 0 1-.142-1.106zm6.599-1.019c.242.385.464.683.63.884l1.076-.196c-.234-.25-.49-.539-.736-.862l-.97.174zM81.37 36.907c-9.79-1.726-19.126 4.811-20.852 14.601-1.726 9.79 4.81 19.126 14.601 20.852 9.79 1.727 19.126-4.81 20.852-14.6 1.726-9.79-4.81-19.126-14.6-20.853zm8.851 22.29l-.27 1.528 2.766.488c.566.1 1.611-.143 1.85-1.293l.103-.591c.174-.988-.535-1.713-1.296-1.848l-1.378-.243.125-.709 2.731.482.271-1.536-2.62-.463c-.677-.119-1.68.279-1.863 1.317l-.094.532c-.183 1.038.62 1.728 1.304 1.849 1.901.344-.456-.08 1.302.23l-.13.742-2.801-.485zm-14.748-2.983s1.502.134 1.838-1.774c.336-1.908-1.425-2.4-1.425-2.4l-3.23-.57-1.061 6.018 1.623.286.256-1.451 1.148 1.699 2.401.423-1.55-2.231zm-.409-1.343l-1.293-.228.242-1.376 1.302.23s.34.199.243.747c-.096.549-.494.627-.494.627zm6.615-1.767l-1.649-.29c-1.175-.208-1.76.786-1.85 1.292l-.776 4.406 1.649.291.186-1.055 1.547.273-.186 1.055 1.598.282.777-4.407c.226-1.283-.89-1.775-1.296-1.847zm-.592 3.212l-1.556-.275.257-1.46s.058-.33.574-.238l.567.1c.456.08.407.41.407.41l-.258 1.461.009.002zm2.917-2.802l1.717.303-1.054 5.976-1.716-.303 1.053-5.976zm3.345 5.16l.782-4.432-1.708-.301-.782 4.431-.272 1.545 1.708.301 2.308.407.273-1.545-2.309-.407zm-25.943-2.982l6.68 1.177s-.251-6.04 4.392-7.65c1-.285 4.229-1.44 8.406 2.953.175-.1.337-.176.337-.176s-3.625-5.156-8.607-5.53c-2.507-.216-5.929 1.488-8.225 4.129-2.297 2.641-2.983 5.097-2.983 5.097zm15.75-7.937l.134-.56c-.07-.056-.263-.194-.769-.44l-.132.551c.263.142.516.291.767.449zm-1.119 1.647l-.127.526c.277.058.55.14.819.25l.126-.518a6.09 6.09 0 0 0-.818-.258zm-2.664-3.185l.085.015-.079-.545a6.862 6.862 0 0 0-.82-.092l.073.526c.25.018.496.053.741.096zm-.142 3.178l.092.617c.266-.075.53-.133.788-.166l-.088-.59a6.236 6.236 0 0 0-.792.14zm-3.447-2.897l-.278-.65c-.23.073-.471.153-.723.247l.284.66c.244-.097.478-.186.717-.257zm1.063 4.104l.3.68c.18-.186.383-.35.604-.512l-.28-.64a4.745 4.745 0 0 0-.624.472zm-1.705 2.502l.59.661c.092-.323.209-.642.352-.956l-.524-.589a8.139 8.139 0 0 0-.418.884zm-2.996-4.662l-.508-.63c-.257.173-.506.346-.738.523l.553.672c.218-.196.453-.39.693-.565zm-3.22 3.323l-.909-.526c-.225.334-.477.725-.601.938l.91.526c.16-.268.41-.65.6-.938zm5.711 3.46c-.062.451-.083.822-.086 1.082l.95.542a11.312 11.312 0 0 1-.009-1.133l-.855-.49zM122.464 14.876c-8.61 4.97-11.559 15.979-6.588 24.588 4.97 8.61 15.979 11.56 24.588 6.589 8.61-4.971 11.56-15.98 6.589-24.589-4.971-8.61-15.98-11.559-24.589-6.588zm21.108 11.386l.776 1.343 2.43-1.404c.5-.287 1.144-1.145.587-2.179l-.3-.52c-.502-.868-1.511-.968-2.18-.582l-1.212.7-.36-.624 2.401-1.386-.78-1.351-2.305 1.33c-.595.344-1.107 1.293-.58 2.206l.27.468c.527.913 1.585.926 2.187.578 1.678-.958-.401.232 1.146-.661l.377.653-2.457 1.429zm-13.216 7.194s1.237-.863.268-2.54c-.968-1.678-2.634-.924-2.634-.924l-2.84 1.64 3.055 5.293 1.428-.824-.738-1.277 1.972.564 2.112-1.219-2.623-.713zm-1.176-.766l-1.137.657-.7-1.21 1.146-.661s.388-.066.667.416c.278.483.024.798.024.798zm3.932-5.605l-1.45.837c-1.034.596-.843 1.734-.586 2.179l2.237 3.875 1.45-.837-.536-.928 1.361-.786.536.928 1.405-.811-2.237-3.875c-.651-1.128-1.823-.788-2.18-.582zm1.61 2.84l-1.368.79-.741-1.284s-.167-.29.286-.551l.498-.288c.402-.231.576.054.576.054l.742 1.284.007-.004zm.435-4.02l1.509-.872 3.034 5.255-1.51.872-3.033-5.256zm5.878 1.801l-2.25-3.897-1.502.867 2.25 3.897.784 1.359 1.502-.867 2.03-1.172-.784-1.359-2.03 1.172zm-21.79 14.392l5.874-3.391s-4.076-4.467-1.553-8.684c.583-.862 2.314-3.82 8.338-3.142.07-.188.144-.35.144-.35s-6.09-1.62-10.147 1.296c-2.06 1.446-3.586 4.95-3.647 8.45-.062 3.5.991 5.821.991 5.821zm6.963-16.204l-.257-.514c-.088.001-.326.02-.871.156l.253.507a13.8 13.8 0 0 1 .875-.149zm.202 1.982l.24.484c.25-.134.513-.246.788-.336l-.236-.477a6.09 6.09 0 0 0-.792.329zm-4.088-.728l.074-.043-.41-.367c-.23.133-.46.285-.688.457l.394.356a7.26 7.26 0 0 1 .63-.403zm1.934 2.526l.467.413c.156-.228.32-.442.497-.633l-.447-.396c-.21.22-.378.427-.517.616zm-4.503-.004l-.63-.319c-.13.204-.264.42-.396.654l.642.322c.125-.23.247-.449.384-.657zm3.453 2.46l.666.329c.019-.259.069-.515.134-.78l-.626-.312a4.745 4.745 0 0 0-.174.764zm.302 3.013l.877.128a6.835 6.835 0 0 1-.346-.959l-.78-.114c.063.33.154.644.249.945zm-5.292-1.645l-.794-.156c-.086.297-.165.59-.229.875l.855.159c.04-.29.096-.59.168-.878zm-.33 4.614l-1.035.182c.043.4.1.862.142 1.106l1.035-.182a29.85 29.85 0 0 1-.142-1.106zm6.599-1.019c.242.385.464.683.63.884l1.076-.196c-.234-.25-.49-.539-.736-.862l-.97.174zM204.547 18.212c-9.342-3.4-19.67 1.417-23.07 10.758-3.4 9.342 1.416 19.671 10.757 23.071 9.342 3.4 19.671-1.416 23.071-10.758 3.4-9.341-1.416-19.67-10.758-23.07zm4.846 23.489l-.53 1.457 2.637.96c.54.197 1.612.14 2.046-.951l.206-.564c.343-.943-.23-1.78-.956-2.044l-1.315-.48.246-.676 2.606.949.534-1.466-2.501-.91c-.646-.235-1.702-.018-2.063.973l-.185.507c-.36.99.31 1.81.964 2.047 1.812.67-.436-.158 1.242.453l-.258.708-2.673-.963zm-14.007-5.5s1.456.393 2.119-1.427c.662-1.82-.986-2.612-.986-2.612l-3.082-1.122-2.09 5.743 1.548.564.505-1.385.835 1.872 2.291.834-1.14-2.467zm-.169-1.393l-1.234-.45.478-1.312 1.242.452s.3.255.11.779c-.19.523-.596.531-.596.531zm6.822-.591l-1.574-.573c-1.121-.408-1.87.469-2.046.952l-1.53 4.205 1.573.572.367-1.007 1.476.538-.366 1.007 1.525.555 1.53-4.205c.446-1.224-.568-1.903-.955-2.044zm-1.142 3.06l-1.484-.54.507-1.394s.114-.314.607-.135l.54.197c.436.158.33.475.33.475l-.508 1.394.008.003zm3.36-2.253l1.638.596-2.075 5.703-1.638-.596 2.075-5.703zm2.398 5.662l1.54-4.229-1.63-.593-1.54 4.229-.536 1.474 1.63.593 2.203.802.536-1.474-2.203-.802zm-25.03-7.441l6.373 2.32s.802-5.993 5.654-6.772c1.034-.107 4.415-.683 7.766 4.368.19-.068.361-.115.361-.115s-2.673-5.707-7.515-6.94c-2.432-.648-6.097.435-8.818 2.637-2.72 2.203-3.822 4.502-3.822 4.502zm16.888-5.082l.229-.528c-.058-.067-.225-.237-.68-.567l-.226.52c.234.186.457.376.677.575zm-1.388 1.429l-.217.495c.264.105.518.234.764.388l.214-.488a6.09 6.09 0 0 0-.76-.395zm-2.07-3.6l.08.03.018-.55a6.862 6.862 0 0 0-.792-.234l-.02.53c.243.062.48.139.714.224zm-.692 3.105l-.017.623c.275-.027.545-.039.805-.026l.016-.596a6.236 6.236 0 0 0-.804 0zm-2.892-3.451l-.16-.688c-.24.031-.491.067-.756.117l.166.699c.257-.053.502-.1.75-.128zm.335 4.226l.176.721c.21-.151.44-.278.684-.399l-.163-.68a4.745 4.745 0 0 0-.697.358zm-2.114 2.168l.466.753c.147-.302.317-.596.512-.88l-.413-.671c-.214.26-.395.531-.565.798zm-2.141-5.112l-.391-.708c-.283.125-.558.253-.817.387l.428.757c.248-.155.513-.305.78-.436zm-3.747 2.713l-.805-.676c-.28.29-.595.632-.755.82l.805.676c.204-.236.517-.569.755-.82zm5.022 4.4c-.139.433-.224.794-.272 1.05l.842.7c.042-.341.098-.722.187-1.118l-.757-.631zM253.464 11.876c-8.61 4.97-11.559 15.979-6.588 24.588 4.97 8.61 15.979 11.56 24.588 6.589 8.61-4.971 11.56-15.98 6.589-24.589-4.971-8.61-15.98-11.559-24.589-6.588zm21.108 11.386l.776 1.343 2.43-1.404c.5-.287 1.144-1.145.587-2.179l-.3-.52c-.502-.868-1.511-.968-2.18-.582l-1.212.7-.36-.624 2.401-1.386-.78-1.351-2.305 1.33c-.595.344-1.107 1.293-.58 2.206l.27.468c.527.913 1.585.926 2.187.578 1.678-.958-.401.232 1.146-.661l.377.653-2.457 1.429zm-13.216 7.194s1.237-.863.268-2.54c-.968-1.678-2.634-.924-2.634-.924l-2.84 1.64 3.055 5.293 1.428-.824-.738-1.277 1.972.564 2.112-1.219-2.623-.713zm-1.176-.766l-1.137.657-.7-1.21 1.146-.661s.388-.066.667.416c.278.483.024.798.024.798zm3.932-5.605l-1.45.837c-1.034.596-.843 1.734-.586 2.179l2.237 3.875 1.45-.837-.536-.928 1.361-.786.536.928 1.405-.811-2.237-3.875c-.651-1.128-1.823-.788-2.18-.582zm1.61 2.84l-1.368.79-.741-1.284s-.167-.29.286-.551l.498-.288c.402-.231.576.054.576.054l.742 1.284.007-.004zm.435-4.02l1.509-.872 3.034 5.255-1.51.872-3.033-5.256zm5.878 1.801l-2.25-3.897-1.502.867 2.25 3.897.784 1.359 1.502-.867 2.03-1.172-.784-1.359-2.03 1.172zm-21.79 14.392l5.874-3.391s-4.076-4.467-1.553-8.684c.583-.862 2.314-3.82 8.338-3.142.07-.188.144-.35.144-.35s-6.09-1.62-10.147 1.296c-2.06 1.446-3.586 4.95-3.647 8.45-.062 3.5.991 5.821.991 5.821zm6.963-16.204l-.257-.514c-.088.001-.326.02-.871.156l.253.507a13.8 13.8 0 0 1 .875-.149zm.202 1.982l.24.484c.25-.134.513-.246.788-.336l-.236-.477a6.09 6.09 0 0 0-.792.329zm-4.088-.728l.074-.043-.41-.367c-.23.133-.46.285-.688.457l.394.356a7.26 7.26 0 0 1 .63-.403zm1.934 2.526l.467.413c.156-.228.32-.442.497-.633l-.447-.396c-.21.22-.378.427-.517.616zm-4.503-.004l-.63-.319c-.13.204-.264.42-.396.654l.642.322c.125-.23.247-.449.384-.657zm3.453 2.46l.666.329c.019-.259.069-.515.134-.78l-.626-.312a4.745 4.745 0 0 0-.174.764zm.302 3.013l.877.128a6.835 6.835 0 0 1-.346-.959l-.78-.114c.063.33.154.644.249.945zm-5.292-1.645l-.794-.156c-.086.297-.165.59-.229.875l.855.159c.04-.29.096-.59.168-.878zm-.33 4.614l-1.035.182c.043.4.1.862.142 1.106l1.035-.182a29.85 29.85 0 0 1-.142-1.106zm6.599-1.019c.242.385.464.683.63.884l1.076-.196c-.234-.25-.49-.539-.736-.862l-.97.174zM364.64 21.06c-8.522-5.12-19.58-2.363-24.7 6.158-5.12 8.521-2.363 19.58 6.158 24.7 8.521 5.12 19.58 2.363 24.7-6.158 5.12-8.522 2.362-19.58-6.159-24.7zm.274 23.981l-.799 1.33 2.407 1.446c.493.296 1.555.445 2.19-.544l.309-.515c.516-.86.114-1.79-.548-2.189l-1.2-.72.371-.618 2.377 1.429.804-1.337-2.282-1.371c-.589-.354-1.667-.342-2.21.561l-.278.463c-.543.904-.041 1.836.555 2.194 1.651 1.002-.398-.239 1.133.68l-.388.647-2.44-1.456zm-12.7-8.07s1.355.663 2.352-.998c.998-1.66-.47-2.752-.47-2.752l-2.81-1.689-3.148 5.239 1.413.849.759-1.264.462 1.998 2.09 1.256-.648-2.64zm.1-1.4l-1.126-.677.72-1.198 1.133.681s.246.308-.04.785c-.288.478-.687.408-.687.408zm6.81.72l-1.436-.862c-1.023-.614-1.925.103-2.19.544l-2.304 3.836 1.435.862.551-.919 1.347.81-.552.918 1.391.836 2.305-3.835c.67-1.117-.195-1.977-.548-2.19zm-1.705 2.787l-1.354-.814.764-1.271s.172-.287.62-.017l.494.296c.397.24.232.53.232.53l-.763 1.271.007.005zm3.728-1.57l1.494.897-3.126 5.202-1.494-.898 3.126-5.201zm1.274 6.015l2.317-3.857-1.486-.894-2.318 3.858-.808 1.344 1.487.893 2.009 1.208.808-1.345-2.01-1.207zm-23.152-12.081l5.814 3.493s1.93-5.73 6.842-5.568c1.036.092 4.464.172 6.79 5.77.199-.031.377-.044.377-.044s-1.536-6.113-6.053-8.247c-2.264-1.1-6.068-.736-9.159.907-3.09 1.642-4.61 3.689-4.61 3.689zm17.548-1.766l.326-.474c-.044-.077-.175-.275-.56-.686l-.32.467c.194.227.376.456.554.693zm-1.635 1.138l-.307.445c.238.153.464.329.676.526l.303-.438a6.09 6.09 0 0 0-.672-.533zm-1.345-3.929l.073.045.122-.537a6.862 6.862 0 0 0-.733-.38l-.12.517c.227.106.444.227.658.355zm-1.272 2.916l-.135.609c.275.025.542.065.795.128l.13-.583a6.236 6.236 0 0 0-.79-.154zm-2.18-3.94l-.026-.705a13.663 13.663 0 0 0-.764-.03l.03.718c.261-.002.512-.002.76.017zm-.478 4.213l.036.741c.235-.108.484-.189.747-.26l-.03-.699a4.745 4.745 0 0 0-.753.218zM347.42 31.8l.313.828c.202-.269.426-.524.671-.767l-.278-.737a8.139 8.139 0 0 0-.706.676zm-1.127-5.427l-.249-.77c-.301.07-.596.142-.875.224l.275.826c.274-.106.562-.202.85-.28zm-4.196 1.949l-.66-.817c-.33.232-.706.506-.898.66l.66.817c.246-.192.617-.46.898-.66zm4.091 5.278c-.22.398-.372.736-.468.978l.693.847c.106-.326.234-.69.398-1.061l-.623-.764zM415.708 22.397c-6.906 7.151-6.707 18.547.444 25.452 7.151 6.906 18.546 6.707 25.452-.444 6.906-7.15 6.707-18.546-.444-25.452-7.151-6.906-18.546-6.707-25.452.444zm23.428 5.127l1.116 1.078 1.95-2.02c.4-.414.784-1.416-.037-2.256l-.432-.417c-.72-.696-1.719-.514-2.256.041l-.972 1.007-.518-.5 1.927-1.995-1.123-1.084-1.848 1.915c-.478.494-.709 1.548.05 2.28l.388.375c.758.733 1.78.453 2.262-.047 1.348-1.384-.322.334.919-.951l.542.524-1.968 2.05zm-10.72 10.559s.95-1.17-.443-2.516-2.787-.161-2.787-.161l-2.278 2.359 4.396 4.245 1.145-1.186-1.06-1.024h2.05l1.694-1.755-2.717.038zm-1.342-.413l-.912.945-1.005-.97.918-.951s.355-.17.756.216c.4.388.243.76.243.76zm2.234-6.471l-1.163 1.204c-.829.858-.332 1.899.038 2.256l3.218 3.108 1.163-1.204-.77-.744 1.091-1.13.77.744 1.128-1.168-3.218-3.108c-.938-.905-1.97-.255-2.257.042zm2.332 2.287l-1.098 1.136-1.066-1.03s-.241-.232.123-.609l.4-.414c.322-.333.568-.107.568-.107l1.067 1.03.006-.006zm-.691-3.986l1.21-1.254 4.366 4.216-1.211 1.254-4.365-4.216zm6.147.112l-3.237-3.126-1.205 1.248 3.237 3.126 1.129 1.09 1.204-1.248 1.629-1.686-1.129-1.09-1.628 1.686zm-16.979 19.84l4.712-4.879s-5.15-3.17-3.887-7.919c.323-.989 1.172-4.31 7.15-5.318.014-.2.041-.377.041-.377s-6.301.122-9.397 4.043c-1.58 1.958-2.082 5.747-1.177 9.128.906 3.381 2.558 5.323 2.558 5.323zm2.227-17.495l-.39-.424c-.084.026-.307.11-.794.391l.384.418a13.8 13.8 0 0 1 .8-.385zm.74 1.849l.365.4c.203-.198.425-.378.665-.54l-.359-.394a6.09 6.09 0 0 0-.67.534zm-4.13.427l.06-.061-.496-.24a6.862 6.862 0 0 0-.535.629l.477.234a7.26 7.26 0 0 1 .494-.562zm2.555 1.895l.563.269c.087-.263.186-.513.303-.746l-.538-.257c-.141.27-.246.514-.328.734zm-4.329 1.238l-.694-.133c-.069.232-.137.476-.2.738l.706.133c.057-.256.113-.5.188-.738zm3.997 1.413l.73.133a4.761 4.761 0 0 1-.085-.787l-.688-.127c-.008.267.009.533.043.781zm1.12 2.813l.879-.119a6.835 6.835 0 0 1-.597-.826l-.78.105c.15.3.325.576.499.84zm-5.54-.123l-.806.07c0 .309.004.612.021.903l.866-.082a8.685 8.685 0 0 1-.081-.89zm.955 4.527l-.945.46c.152.373.335.8.442 1.023l.944-.46a29.85 29.85 0 0 1-.441-1.023zm6.063-2.799c.338.303.633.529.848.676l.98-.485c-.293-.176-.618-.383-.944-.626l-.884.435zM498.007 11.323c-8.042 5.843-9.825 17.1-3.982 25.142 5.843 8.043 17.1 9.825 25.142 3.982 8.043-5.843 9.826-17.1 3.983-25.142-5.844-8.043-17.1-9.826-25.143-3.982zm22.182 9.117l.912 1.255 2.272-1.65c.465-.338 1.017-1.259.354-2.229l-.352-.485c-.59-.812-1.604-.806-2.23-.351l-1.132.822-.423-.582 2.244-1.63-.917-1.262-2.153 1.564c-.556.404-.967 1.401-.347 2.254l.317.437c.62.853 1.674.755 2.236.346 1.568-1.128-.375.273 1.07-.777l.443.61-2.294 1.678zm-12.391 8.536s1.14-.987.001-2.554c-1.138-1.567-2.717-.643-2.717-.643l-2.653 1.928 3.592 4.944 1.334-.969-.867-1.193 2.02.355 1.973-1.433-2.683-.435zm-1.25-.639l-1.062.773-.822-1.13 1.07-.778s.38-.106.707.345c.327.45.107.79.107.79zm3.325-5.985l-1.355.984c-.965.701-.657 1.812-.355 2.228l2.63 3.62 1.355-.984-.63-.867 1.271-.923.63.866 1.313-.953-2.63-3.62c-.766-1.054-1.896-.593-2.23-.351zm1.898 2.657l-1.278.928-.871-1.2s-.197-.27.227-.577l.465-.339c.375-.272.579-.007.579-.007l.871 1.2.007-.005zm.012-4.045l1.41-1.025 3.567 4.91-1.41 1.025-3.567-4.91zm6.035 1.178l-2.646-3.64-1.403 1.019 2.645 3.64.922 1.27 1.404-1.02 1.896-1.378-.922-1.269-1.896 1.378zm-20.167 16.59l5.488-3.987s-4.52-4.015-2.453-8.473c.49-.918 1.903-4.042 7.964-3.996a5.34 5.34 0 0 1 .107-.364s-6.227-.975-9.956 2.35c-1.897 1.653-3.05 5.298-2.744 8.785.304 3.486 1.594 5.685 1.594 5.685zm5.231-16.843l-.31-.485c-.087.011-.321.054-.85.247l.305.478a13.8 13.8 0 0 1 .855-.24zm.409 1.95l.29.457c.234-.16.483-.299.747-.417l-.284-.45a6.09 6.09 0 0 0-.753.41zm-4.142-.296l.07-.05-.447-.323a6.862 6.862 0 0 0-.637.526l.43.313a7.26 7.26 0 0 1 .584-.466zm2.187 2.31l.508.362c.13-.244.271-.473.428-.682l-.486-.347c-.186.241-.332.464-.45.666zm-4.478.467l-.66-.252c-.109.217-.219.445-.326.692l.672.253c.1-.242.198-.472.314-.693zm3.69 2.086l.697.257c-.008-.26.015-.52.052-.79l-.655-.245a4.745 4.745 0 0 0-.093.778zm.616 2.964l.885.035a6.835 6.835 0 0 1-.444-.917l-.787-.032c.096.322.22.624.346.914zm-5.436-1.083l-.805-.072c-.055.305-.103.604-.136.894l.867.069c.01-.293.034-.597.074-.891zm.155 4.624l-1.01.289c.084.394.19.846.256 1.084l1.01-.289a29.85 29.85 0 0 1-.256-1.084zm6.456-1.704c.281.358.533.63.718.813l1.05-.307a11.312 11.312 0 0 1-.821-.78l-.947.274zM564.145 35.63c-8.242-5.559-19.43-3.384-24.988 4.857-5.56 8.242-3.385 19.43 4.857 24.989 8.241 5.559 19.429 3.384 24.988-4.858 5.56-8.241 3.384-19.429-4.857-24.988zm-.98 23.963l-.868 1.286 2.327 1.57c.477.322 1.53.526 2.216-.429l.335-.497c.561-.831.209-1.783-.432-2.215l-1.16-.782.402-.597 2.3 1.55.872-1.293-2.207-1.488c-.57-.384-1.647-.429-2.237.445l-.302.448c-.59.874-.137 1.83.44 2.22 1.597 1.087-.385-.26 1.096.739l-.422.625-2.36-1.582zm-12.26-8.724s1.317.733 2.4-.873c1.083-1.606-.325-2.773-.325-2.773l-2.719-1.834-3.417 5.067 1.366.922.825-1.223.357 2.02 2.021 1.363-.509-2.67zm.173-1.393l-1.09-.735.782-1.158 1.096.74s.23.32-.082.781c-.312.462-.706.372-.706.372zm6.761 1.076l-1.388-.936c-.99-.667-1.928.003-2.215.429l-2.502 3.71 1.388.935.599-.888 1.302.879-.599.888 1.346.907 2.502-3.709c.728-1.08-.091-1.984-.433-2.215zm-1.847 2.693l-1.31-.883.83-1.23s.186-.277.62.016l.477.322c.384.26.205.541.205.541l-.83 1.23.008.004zm3.805-1.372l1.445.974-3.394 5.031-1.445-.974 3.394-5.031zm.957 6.073l2.516-3.73-1.438-.97-2.516 3.73-.877 1.3 1.438.97 1.943 1.311.877-1.3-1.943-1.31zM538.266 44.67l5.624 3.793s2.227-5.62 7.124-5.203c1.03.147 4.448.406 6.478 6.118.2-.02.379-.024.379-.024s-1.214-6.185-5.613-8.553c-2.203-1.217-6.022-1.052-9.194.426-3.172 1.48-4.798 3.443-4.798 3.443zm17.617-.844l.35-.457c-.04-.079-.161-.284-.523-.715l-.345.45c.182.237.352.476.518.722zm-1.692 1.05l-.33.428c.23.166.445.353.646.561l.326-.421a6.09 6.09 0 0 0-.642-.568zm-1.139-3.994l.072.048.15-.529a6.862 6.862 0 0 0-.713-.418l-.147.51c.22.118.432.25.638.39zm-1.422 2.846l-.167.6c.274.04.538.094.787.17l.16-.575a6.236 6.236 0 0 0-.78-.195zm-1.97-4.049l.01-.706c-.24-.028-.493-.053-.762-.069l-.008.718c.262.011.512.025.76.057zm-.699 4.182l-.003.742c.24-.096.493-.163.76-.22l.006-.7a4.745 4.745 0 0 0-.763.178zm-2.575 1.592l.27.844c.215-.258.452-.502.71-.73l-.24-.751c-.27.2-.51.42-.74.637zm-.841-5.478l-.208-.781c-.305.052-.603.11-.886.177l.231.839c.28-.091.572-.173.863-.235zm-4.292 1.726l-.617-.85c-.342.214-.73.469-.931.613l.617.85c.255-.18.64-.426.93-.613zm3.809 5.485c-.24.386-.41.716-.519.953l.648.882c.123-.32.27-.676.453-1.04l-.582-.795zM28.547 59.212c-9.342-3.4-19.67 1.417-23.07 10.758-3.4 9.342 1.416 19.671 10.757 23.071 9.342 3.4 19.671-1.416 23.071-10.758 3.4-9.341-1.416-19.67-10.758-23.07zm4.846 23.489l-.53 1.457 2.637.96c.54.197 1.612.14 2.046-.951l.206-.564c.343-.943-.23-1.78-.956-2.044l-1.315-.48.246-.676 2.606.949.534-1.466-2.501-.91c-.646-.235-1.702-.018-2.063.973l-.185.507c-.36.99.31 1.81.964 2.047 1.812.67-.436-.158 1.242.453l-.258.708-2.673-.963zm-14.007-5.5s1.456.393 2.119-1.427c.662-1.82-.986-2.612-.986-2.612l-3.082-1.122-2.09 5.743 1.548.564.505-1.385.835 1.872 2.291.834-1.14-2.467zm-.169-1.393l-1.234-.45.478-1.312 1.242.452s.3.255.11.779c-.19.523-.596.531-.596.531zm6.822-.591l-1.574-.573c-1.121-.408-1.87.469-2.046.952l-1.53 4.205 1.573.572.367-1.007 1.476.538-.366 1.007 1.525.555 1.53-4.205c.446-1.224-.568-1.903-.955-2.044zm-1.142 3.06l-1.484-.54.507-1.394s.114-.314.607-.135l.54.197c.436.158.33.475.33.475l-.508 1.394.008.003zm3.36-2.253l1.638.596-2.075 5.703-1.638-.596 2.075-5.703zm2.398 5.662l1.54-4.229-1.63-.593-1.54 4.229-.536 1.474 1.63.593 2.203.802.536-1.474-2.203-.802zm-25.03-7.441l6.373 2.32s.802-5.993 5.654-6.772c1.034-.107 4.415-.683 7.766 4.368.19-.068.361-.115.361-.115s-2.673-5.707-7.515-6.94c-2.432-.648-6.097.435-8.818 2.637-2.72 2.203-3.822 4.502-3.822 4.502zm16.888-5.082l.229-.528c-.058-.067-.225-.237-.68-.567l-.226.52c.234.186.457.376.677.575zm-1.388 1.429l-.217.495c.264.105.518.234.764.388l.214-.488a6.09 6.09 0 0 0-.76-.395zm-2.07-3.6l.08.03.018-.55a6.862 6.862 0 0 0-.792-.234l-.02.53c.243.062.48.139.714.224zm-.692 3.105l-.017.623c.275-.027.545-.039.805-.026l.016-.596a6.236 6.236 0 0 0-.804 0zm-2.892-3.451l-.16-.688c-.24.031-.491.067-.756.117l.166.699c.257-.053.502-.1.75-.128zm.335 4.226l.176.721c.21-.151.44-.278.684-.399l-.163-.68a4.745 4.745 0 0 0-.697.358zm-2.114 2.168l.466.753c.147-.302.317-.596.512-.88l-.413-.671c-.214.26-.395.531-.565.798zm-2.141-5.112l-.391-.708c-.283.125-.558.253-.817.387l.428.757c.248-.155.513-.305.78-.436zM7.804 70.64l-.805-.676c-.28.29-.595.632-.755.82l.805.676c.204-.236.517-.569.755-.82zm5.022 4.4c-.139.433-.224.794-.272 1.05l.842.7c.042-.341.098-.722.187-1.118l-.757-.631zM112.464 69.876c-8.61 4.97-11.559 15.979-6.588 24.588 4.97 8.61 15.979 11.56 24.588 6.589 8.61-4.971 11.56-15.98 6.589-24.589-4.971-8.61-15.98-11.559-24.589-6.588zm21.108 11.386l.776 1.343 2.43-1.404c.5-.287 1.144-1.145.587-2.179l-.3-.52c-.502-.868-1.511-.968-2.18-.582l-1.212.7-.36-.624 2.401-1.386-.78-1.351-2.305 1.33c-.595.344-1.107 1.293-.58 2.206l.27.468c.527.913 1.585.926 2.187.578 1.678-.958-.401.232 1.146-.661l.377.653-2.457 1.429zm-13.216 7.194s1.237-.863.268-2.54c-.968-1.678-2.634-.924-2.634-.924l-2.84 1.64 3.055 5.293 1.428-.824-.738-1.277 1.972.564 2.112-1.219-2.623-.713zm-1.176-.766l-1.137.657-.7-1.21 1.146-.661s.388-.066.667.416c.278.483.024.798.024.798zm3.932-5.605l-1.45.837c-1.034.596-.843 1.734-.586 2.179l2.237 3.875 1.45-.837-.536-.928 1.361-.786.536.928 1.405-.811-2.237-3.875c-.651-1.128-1.823-.788-2.18-.582zm1.61 2.84l-1.368.79-.741-1.284s-.167-.29.286-.551l.498-.288c.402-.231.576.054.576.054l.742 1.284.007-.004zm.435-4.02l1.509-.872 3.034 5.255-1.51.872-3.033-5.256zm5.878 1.801l-2.25-3.897-1.502.867 2.25 3.897.784 1.359 1.502-.867 2.03-1.172-.784-1.359-2.03 1.172zm-21.79 14.392l5.874-3.391s-4.076-4.467-1.553-8.684c.583-.862 2.314-3.82 8.338-3.142.07-.188.144-.35.144-.35s-6.09-1.62-10.147 1.296c-2.06 1.446-3.586 4.95-3.647 8.45-.062 3.5.991 5.821.991 5.821zm6.963-16.204l-.257-.514c-.088.001-.326.02-.871.156l.253.507a13.8 13.8 0 0 1 .875-.149zm.202 1.982l.24.484c.25-.134.513-.246.788-.336l-.236-.477a6.09 6.09 0 0 0-.792.329zm-4.088-.728l.074-.043-.41-.367c-.23.133-.46.285-.688.457l.394.356a7.26 7.26 0 0 1 .63-.403zm1.934 2.526l.467.413c.156-.228.32-.442.497-.633l-.447-.396c-.21.22-.378.427-.517.616zm-4.503-.004l-.63-.319c-.13.204-.264.42-.396.654l.642.322c.125-.23.247-.449.384-.657zm3.453 2.46l.666.329c.019-.259.069-.515.134-.78l-.626-.312a4.745 4.745 0 0 0-.174.764zm.302 3.013l.877.128a6.835 6.835 0 0 1-.346-.959l-.78-.114c.063.33.154.644.249.945zm-5.292-1.645l-.794-.156c-.086.297-.165.59-.229.875l.855.159c.04-.29.096-.59.168-.878zm-.33 4.614l-1.035.182c.043.4.1.862.142 1.106l1.035-.182a29.85 29.85 0 0 1-.142-1.106zm6.599-1.019c.242.385.464.683.63.884l1.076-.196c-.234-.25-.49-.539-.736-.862l-.97.174zM171 59c-9.941 0-18 8.059-18 18s8.059 18 18 18 18-8.059 18-18-8.059-18-18-18zm12.587 20.414v1.552h2.807c.576 0 1.563-.42 1.597-1.595v-.6c0-1.002-.824-1.594-1.597-1.594h-1.4v-.72h2.774v-1.56h-2.661c-.687 0-1.606.566-1.606 1.62v.54c0 1.054.91 1.594 1.606 1.594 1.931.009-.464 0 1.322 0v.755l-2.842.008zm-15.043-.377s1.503-.128 1.503-2.066c0-1.937-1.82-2.117-1.82-2.117h-3.28v6.112h1.648V79.49l1.426 1.475h2.438l-1.915-1.929zm-.635-1.251h-1.314v-1.397h1.323s.369.137.369.694c0 .557-.378.703-.378.703zm6.208-2.889h-1.675c-1.193 0-1.597 1.08-1.597 1.594v4.475h1.675v-1.072h1.57v1.072h1.624V76.49c0-1.302-1.185-1.594-1.597-1.594zm-.026 3.266h-1.58V76.68s0-.334.524-.334h.575c.464 0 .472.334.472.334v1.483h.009zm2.387-3.266h1.743v6.069h-1.743v-6.069zm4.19 4.5v-4.5h-1.735v6.069h4.079v-1.569h-2.344zM154.6 80.966h6.783s-1.297-5.906 2.996-8.297c.936-.455 3.915-2.152 8.792 1.448.155-.128.3-.231.3-.231s-4.464-4.449-9.435-3.952c-2.507.223-5.58 2.495-7.384 5.495-1.803 3-2.052 5.537-2.052 5.537zm14.132-10.552l.035-.574c-.078-.043-.292-.146-.833-.3l-.034.566c.283.094.558.197.832.308zm-.815 1.817l-.035.54c.284.009.567.043.85.103l.035-.531a6.09 6.09 0 0 0-.85-.112zm-3.177-2.674h.086l-.172-.523c-.266 0-.54.017-.824.052l.163.505a7.26 7.26 0 0 1 .747-.034zm.412 3.154l.198.592c.248-.12.497-.223.746-.3l-.188-.566c-.292.086-.541.18-.756.274zm-3.898-2.254l-.386-.591c-.215.111-.438.231-.67.368l.395.6c.223-.137.438-.265.661-.377zm1.76 3.857l.412.617c.146-.214.318-.411.507-.608l-.387-.583c-.197.18-.377.377-.532.574zm-1.245 2.76l.696.549c.034-.334.094-.669.18-1.003l-.618-.489a8.139 8.139 0 0 0-.258.943zm-3.76-4.071l-.61-.532c-.223.215-.438.429-.635.643l.66.566c.181-.231.379-.463.585-.677zm-2.593 3.831l-.988-.36c-.163.369-.343.797-.429 1.029l.987.36c.112-.292.292-.712.43-1.029zm6.224 2.417c.018.455.06.823.103 1.08l1.03.369a11.312 11.312 0 0 1-.205-1.114l-.928-.335zM225.464 59.876c-8.61 4.97-11.559 15.979-6.588 24.588 4.97 8.61 15.979 11.56 24.588 6.589 8.61-4.971 11.56-15.98 6.589-24.589-4.971-8.61-15.98-11.559-24.589-6.588zm21.108 11.386l.776 1.343 2.43-1.404c.5-.287 1.144-1.145.587-2.179l-.3-.52c-.502-.868-1.511-.968-2.18-.582l-1.212.7-.36-.624 2.401-1.386-.78-1.351-2.305 1.33c-.595.344-1.107 1.293-.58 2.206l.27.468c.527.913 1.585.926 2.187.578 1.678-.958-.401.232 1.146-.661l.377.653-2.457 1.429zm-13.216 7.194s1.237-.863.268-2.54c-.968-1.678-2.634-.924-2.634-.924l-2.84 1.64 3.055 5.293 1.428-.824-.738-1.277 1.972.564 2.112-1.219-2.623-.713zm-1.176-.766l-1.137.657-.7-1.21 1.146-.661s.388-.066.667.416c.278.483.024.798.024.798zm3.932-5.605l-1.45.837c-1.034.596-.843 1.734-.586 2.179l2.237 3.875 1.45-.837-.536-.928 1.361-.786.536.928 1.405-.811-2.237-3.875c-.651-1.128-1.823-.788-2.18-.582zm1.61 2.84l-1.368.79-.741-1.284s-.167-.29.286-.551l.498-.288c.402-.231.576.054.576.054l.742 1.284.007-.004zm.435-4.02l1.509-.872 3.034 5.255-1.51.872-3.033-5.256zm5.878 1.801l-2.25-3.897-1.502.867 2.25 3.897.784 1.359 1.502-.867 2.03-1.172-.784-1.359-2.03 1.172zm-21.79 14.392l5.874-3.391s-4.076-4.467-1.553-8.684c.583-.862 2.314-3.82 8.338-3.142.07-.188.144-.35.144-.35s-6.09-1.62-10.147 1.296c-2.06 1.446-3.586 4.95-3.647 8.45-.062 3.5.991 5.821.991 5.821zm6.963-16.204l-.257-.514c-.088.001-.326.02-.871.156l.253.507a13.8 13.8 0 0 1 .875-.149zm.202 1.982l.24.484c.25-.134.513-.246.788-.336l-.236-.477a6.09 6.09 0 0 0-.792.329zm-4.088-.728l.074-.043-.41-.367c-.23.133-.46.285-.688.457l.394.356a7.26 7.26 0 0 1 .63-.403zm1.934 2.526l.467.413c.156-.228.32-.442.497-.633l-.447-.396c-.21.22-.378.427-.517.616zm-4.503-.004l-.63-.319c-.13.204-.264.42-.396.654l.642.322c.125-.23.247-.449.384-.657zm3.453 2.46l.666.329c.019-.259.069-.515.134-.78l-.626-.312a4.745 4.745 0 0 0-.174.764zm.302 3.013l.877.128a6.835 6.835 0 0 1-.346-.959l-.78-.114c.063.33.154.644.249.945zm-5.292-1.645l-.794-.156c-.086.297-.165.59-.229.875l.855.159c.04-.29.096-.59.168-.878zm-.33 4.614l-1.035.182c.043.4.1.862.142 1.106l1.035-.182a29.85 29.85 0 0 1-.142-1.106zm6.599-1.019c.242.385.464.683.63.884l1.076-.196c-.234-.25-.49-.539-.736-.862l-.97.174zM278.508 83.518c-9.79 1.726-16.327 11.062-14.6 20.852 1.726 9.79 11.061 16.327 20.851 14.601 9.79-1.726 16.328-11.062 14.601-20.852-1.726-9.79-11.062-16.327-20.852-14.6zm15.94 17.919l.27 1.527 2.765-.487c.567-.1 1.466-.685 1.296-1.847l-.104-.591c-.174-.988-1.089-1.427-1.85-1.293l-1.378.243-.125-.71 2.731-.48-.27-1.537-2.622.462c-.677.12-1.483.836-1.3 1.874l.094.532c.183 1.038 1.173 1.412 1.858 1.291 1.904-.327-.457.08 1.302-.23l.131.744-2.797.502zm-14.879 2.24s1.458-.387 1.121-2.295c-.336-1.908-2.16-1.769-2.16-1.769l-3.23.57 1.061 6.018 1.624-.286-.256-1.452 1.66 1.204 2.4-.423-2.22-1.567zm-.843-1.122l-1.293.228-.243-1.376 1.302-.23s.388.072.484.62c.097.549-.25.758-.25.758zm5.612-3.922l-1.649.29c-1.175.207-1.385 1.341-1.296 1.848l.777 4.406 1.65-.29-.187-1.056 1.547-.273.186 1.055 1.598-.281-.776-4.407c-.227-1.283-1.444-1.364-1.85-1.292zm.542 3.22l-1.556.274-.258-1.46s-.058-.33.458-.42l.567-.1c.456-.08.523.247.523.247l.257 1.46h.009zm1.783-3.63l1.717-.303 1.053 5.976-1.716.303-1.054-5.976zm4.908 3.704l-.782-4.432-1.708.301.782 4.432.272 1.544 1.708-.3 2.309-.408-.273-1.544-2.308.407zm-25.398 6.07l6.68-1.177s-2.303-5.59 1.51-8.691c.842-.61 3.482-2.8 8.91-.1.13-.154.255-.28.255-.28s-5.17-3.606-9.978-2.254c-2.43.655-5.063 3.426-6.318 6.693-1.255 3.268-1.06 5.81-1.06 5.81zm12.085-12.844l-.066-.572c-.083-.029-.313-.093-.872-.15l.064.562c.296.044.584.098.874.16zm-.488 1.93l.06.539c.28-.041.566-.057.855-.047l-.058-.53a6.09 6.09 0 0 0-.857.039zm-3.593-2.081l.085-.015-.26-.485c-.262.046-.53.11-.803.194l.249.47c.24-.07.484-.121.73-.164zm.954 3.035l.297.548c.225-.162.452-.306.684-.425l-.285-.525a6.236 6.236 0 0 0-.696.402zm-4.23-1.544l-.483-.515c-.192.147-.391.304-.596.48l.493.522c.196-.174.385-.338.586-.487zm2.403 3.493l.513.536c.106-.236.241-.46.393-.687l-.482-.507a4.745 4.745 0 0 0-.424.658zm-.747 2.935l.78.419a6.835 6.835 0 0 1 .004-1.019l-.694-.374a8.139 8.139 0 0 0-.09.974zm-4.41-3.357l-.693-.418c-.183.25-.357.499-.514.744l.75.442c.137-.259.291-.521.457-.768zm-1.889 4.223l-1.034-.183c-.097.392-.2.845-.245 1.088l1.035.183c.06-.306.164-.751.244-1.088zm6.55 1.3c.096.444.202.8.29 1.046l1.078.184a11.312 11.312 0 0 1-.396-1.062l-.972-.168zM305.508 43.518c-9.79 1.726-16.327 11.062-14.6 20.852 1.726 9.79 11.061 16.327 20.851 14.601 9.79-1.726 16.328-11.062 14.601-20.852-1.726-9.79-11.062-16.327-20.852-14.6zm15.94 17.919l.27 1.527 2.765-.487c.567-.1 1.466-.685 1.296-1.847l-.104-.591c-.174-.988-1.089-1.427-1.85-1.293l-1.378.243-.125-.71 2.731-.48-.27-1.537-2.622.462c-.677.12-1.483.836-1.3 1.874l.094.532c.183 1.038 1.173 1.412 1.858 1.291 1.904-.327-.457.08 1.302-.23l.131.744-2.797.502zm-14.879 2.24s1.458-.387 1.121-2.295c-.336-1.908-2.16-1.769-2.16-1.769l-3.23.57 1.061 6.018 1.624-.286-.256-1.452 1.66 1.204 2.4-.423-2.22-1.567zm-.843-1.122l-1.293.228-.243-1.376 1.302-.23s.388.072.484.62c.097.549-.25.758-.25.758zm5.612-3.922l-1.649.29c-1.175.207-1.385 1.341-1.296 1.848l.777 4.406 1.65-.29-.187-1.056 1.547-.273.186 1.055 1.598-.281-.776-4.407c-.227-1.283-1.444-1.364-1.85-1.292zm.542 3.22l-1.556.274-.258-1.46s-.058-.33.458-.42l.567-.1c.456-.08.523.247.523.247l.257 1.46h.009zm1.783-3.63l1.717-.303 1.053 5.976-1.716.303-1.054-5.976zm4.908 3.704l-.782-4.432-1.708.301.782 4.432.272 1.544 1.708-.3 2.309-.408-.273-1.544-2.308.407zm-25.398 6.07l6.68-1.177s-2.303-5.59 1.51-8.691c.842-.61 3.482-2.8 8.91-.1.13-.154.255-.28.255-.28s-5.17-3.606-9.978-2.254c-2.43.655-5.063 3.426-6.318 6.693-1.255 3.268-1.06 5.81-1.06 5.81zm12.085-12.844l-.066-.572c-.083-.029-.313-.093-.872-.15l.064.562c.296.044.584.098.874.16zm-.488 1.93l.06.539c.28-.041.566-.057.855-.047l-.058-.53a6.09 6.09 0 0 0-.857.039zm-3.593-2.081l.085-.015-.26-.485c-.262.046-.53.11-.803.194l.249.47c.24-.07.484-.121.73-.164zm.954 3.035l.297.548c.225-.162.452-.306.684-.425l-.285-.525a6.236 6.236 0 0 0-.696.402zm-4.23-1.544l-.483-.515c-.192.147-.391.304-.596.48l.493.522c.196-.174.385-.338.586-.487zm2.403 3.493l.513.536c.106-.236.241-.46.393-.687l-.482-.507a4.745 4.745 0 0 0-.424.658zm-.747 2.935l.78.419a6.835 6.835 0 0 1 .004-1.019l-.694-.374a8.139 8.139 0 0 0-.09.974zm-4.41-3.357l-.693-.418c-.183.25-.357.499-.514.744l.75.442c.137-.259.291-.521.457-.768zm-1.889 4.223l-1.034-.183c-.097.392-.2.845-.245 1.088l1.035.183c.06-.306.164-.751.244-1.088zm6.55 1.3c.096.444.202.8.29 1.046l1.078.184a11.312 11.312 0 0 1-.396-1.062l-.972-.168zM375.007 59.323c-8.042 5.843-9.825 17.1-3.982 25.142 5.843 8.043 17.1 9.825 25.142 3.982 8.043-5.843 9.826-17.1 3.983-25.142-5.844-8.043-17.1-9.826-25.143-3.982zm22.182 9.117l.912 1.255 2.272-1.65c.465-.338 1.017-1.259.354-2.229l-.352-.485c-.59-.812-1.604-.806-2.23-.351l-1.132.822-.423-.582 2.244-1.63-.917-1.262-2.153 1.564c-.556.404-.967 1.401-.347 2.254l.317.437c.62.853 1.674.755 2.236.346 1.568-1.128-.375.273 1.07-.777l.443.61-2.294 1.678zm-12.391 8.536s1.14-.987.001-2.554c-1.138-1.567-2.717-.643-2.717-.643l-2.653 1.928 3.592 4.944 1.334-.969-.867-1.193 2.02.355 1.973-1.433-2.683-.435zm-1.25-.639l-1.062.773-.822-1.13 1.07-.778s.38-.106.707.345c.327.45.107.79.107.79zm3.325-5.985l-1.355.984c-.965.701-.657 1.812-.355 2.228l2.63 3.62 1.355-.984-.63-.867 1.271-.923.63.866 1.313-.953-2.63-3.62c-.766-1.054-1.896-.593-2.23-.351zm1.898 2.657l-1.278.928-.871-1.2s-.197-.27.227-.577l.465-.339c.375-.272.579-.007.579-.007l.871 1.2.007-.005zm.012-4.045l1.41-1.025 3.567 4.91-1.41 1.025-3.567-4.91zm6.035 1.178l-2.646-3.64-1.403 1.019 2.645 3.64.922 1.27 1.404-1.02 1.896-1.378-.922-1.269-1.896 1.378zm-20.167 16.59l5.488-3.987s-4.52-4.015-2.453-8.473c.49-.918 1.903-4.042 7.964-3.996a5.34 5.34 0 0 1 .107-.364s-6.227-.975-9.956 2.35c-1.897 1.653-3.05 5.298-2.744 8.785.304 3.486 1.594 5.685 1.594 5.685zm5.231-16.843l-.31-.485c-.087.011-.321.054-.85.247l.305.478a13.8 13.8 0 0 1 .855-.24zm.409 1.95l.29.457c.234-.16.483-.299.747-.417l-.284-.45a6.09 6.09 0 0 0-.753.41zm-4.142-.296l.07-.05-.447-.323a6.862 6.862 0 0 0-.637.526l.43.313a7.26 7.26 0 0 1 .584-.466zm2.187 2.31l.508.362c.13-.244.271-.473.428-.682l-.486-.347c-.186.241-.332.464-.45.666zm-4.478.467l-.66-.252c-.109.217-.219.445-.326.692l.672.253c.1-.242.198-.472.314-.693zm3.69 2.086l.697.257c-.008-.26.015-.52.052-.79l-.655-.245a4.745 4.745 0 0 0-.093.778zm.616 2.964l.885.035a6.835 6.835 0 0 1-.444-.917l-.787-.032c.096.322.22.624.346.914zm-5.436-1.083l-.805-.072c-.055.305-.103.604-.136.894l.867.069c.01-.293.034-.597.074-.891zm.155 4.624l-1.01.289c.084.394.19.846.256 1.084l1.01-.289a29.85 29.85 0 0 1-.256-1.084zm6.456-1.704c.281.358.533.63.718.813l1.05-.307a11.312 11.312 0 0 1-.821-.78l-.947.274zM472.348 53.837c-9.081-4.043-19.721.041-23.765 9.123-4.043 9.082.041 19.722 9.123 23.765 9.082 4.043 19.722-.04 23.765-9.123 4.043-9.081-.04-19.721-9.123-23.765zm3.196 23.77l-.631 1.417 2.565 1.141c.525.234 1.598.252 2.107-.806l.244-.549c.408-.916-.104-1.791-.81-2.106l-1.279-.569.293-.658 2.534 1.128.634-1.425-2.431-1.082c-.628-.28-1.697-.137-2.126.827l-.22.493c-.429.963.183 1.827.819 2.11 1.76.793-.424-.19 1.207.537l-.306.69-2.6-1.149zm-13.589-6.464s1.425.494 2.213-1.276-.801-2.674-.801-2.674l-2.997-1.334-2.485 5.583 1.505.67.6-1.346.703 1.926 2.227.992-.965-2.54zm-.071-1.401l-1.2-.535.568-1.276 1.208.538s.282.275.055.784c-.227.51-.631.489-.631.489zm6.846-.114l-1.53-.681c-1.09-.486-1.898.337-2.107.807l-1.82 4.087 1.53.681.435-.979 1.436.64-.436.978 1.482.66 1.82-4.087c.53-1.19-.434-1.939-.81-2.106zm-1.352 2.973l-1.443-.643.603-1.355s.136-.305.614-.092l.526.234c.423.189.295.497.295.497l-.603 1.355.008.004zm3.509-2.013l1.592.709-2.468 5.544-1.593-.709 2.469-5.544zm1.997 5.815l1.83-4.11-1.584-.706-1.83 4.11-.638 1.434 1.584.705 2.141.954.638-1.433-2.14-.954zm-24.451-9.17l6.196 2.76s1.218-5.923 6.113-6.361c1.04-.035 4.451-.373 7.442 4.899a5.34 5.34 0 0 1 .369-.09s-2.27-5.88-7.013-7.447c-2.381-.816-6.113.009-8.98 2.016-2.868 2.007-4.127 4.224-4.127 4.224zm17.202-3.89l.265-.51c-.053-.071-.207-.253-.639-.614l-.261.503c.22.202.43.407.635.62zm-1.484 1.328l-.251.48c.255.123.5.27.735.44l.247-.472a6.09 6.09 0 0 0-.731-.448zm-1.814-3.735l.078.035.056-.548a6.862 6.862 0 0 0-.774-.288l-.057.528c.238.078.47.172.697.273zm-.907 3.05l-.06.62c.276-.009.545-.001.804.03l.058-.594a6.236 6.236 0 0 0-.802-.057zm-2.644-3.646l-.112-.697c-.242.014-.495.033-.762.064l.117.709c.26-.035.508-.065.757-.076zm.04 4.24l.125.731c.22-.136.457-.246.71-.35l-.116-.69c-.254.085-.499.192-.72.309zm-2.26 2.015l.411.784c.168-.292.359-.572.573-.843l-.366-.698c-.231.245-.43.503-.619.757zm-1.78-5.25l-.341-.733c-.291.105-.574.214-.842.33l.374.785c.259-.138.533-.27.809-.381zm-3.927 2.446l-.756-.73c-.299.27-.638.588-.81.765l.755.73c.22-.22.556-.53.81-.765zm4.703 4.74c-.17.422-.28.777-.345 1.029l.791.756c.066-.337.148-.713.265-1.102l-.711-.683zM517.967 70.313c-9.917-.693-18.518 6.784-19.212 16.7-.693 9.918 6.784 18.519 16.7 19.212 9.918.694 18.519-6.783 19.212-16.7.694-9.917-6.783-18.518-16.7-19.212zm11.132 21.243l-.108 1.547 2.8.196c.574.04 1.589-.31 1.705-1.479l.042-.598c.07-1-.711-1.648-1.482-1.702l-1.396-.098.05-.718 2.766.193.11-1.556-2.656-.185c-.685-.048-1.641.452-1.715 1.504l-.037.538c-.074 1.052.796 1.654 1.49 1.703 1.927.143-.462-.033 1.32.092l-.053.752-2.836-.19zm-14.98-1.426s1.508-.023 1.644-1.956c.135-1.932-1.669-2.239-1.669-2.239l-3.271-.228-.427 6.096 1.645.115.103-1.47 1.319 1.57 2.432.17-1.775-2.058zm-.546-1.293l-1.31-.091.097-1.394 1.32.092s.358.163.319.719c-.039.555-.426.674-.426.674zm6.394-2.448l-1.67-.117c-1.19-.083-1.669.966-1.704 1.48l-.313 4.463 1.67.116.075-1.068 1.568.11-.075 1.068 1.619.113.312-4.463c.09-1.3-1.07-1.673-1.482-1.702zm-.254 3.256l-1.575-.11.103-1.48s.023-.333.546-.296l.574.04c.462.032.447.366.447.366l-.103 1.48h.008zm2.61-3.091l1.738.121-.423 6.054-1.739-.122.423-6.053zm3.865 4.781l.314-4.49-1.73-.12-.314 4.489-.11 1.565 1.73.12 2.339.164.11-1.565-2.339-.163zm-26.112-.254l6.766.474s-.881-5.982 3.568-8.068c.965-.388 4.055-1.873 8.67 2.058.162-.118.315-.21.315-.21s-4.143-4.75-9.137-4.6c-2.517.047-5.741 2.099-7.75 4.966-2.007 2.867-2.432 5.38-2.432 5.38zm14.833-9.54l.075-.57c-.074-.048-.281-.166-.81-.357l-.074.562c.276.113.543.235.81.365zm-.94 1.756l-.072.537c.282.028.562.082.84.162l.072-.528a6.09 6.09 0 0 0-.84-.17zm-2.982-2.89l.085.007-.135-.534a6.862 6.862 0 0 0-.825-.006l.127.516c.25-.008.5 0 .748.018zm.19 3.176l.156.604c.257-.102.513-.188.766-.247l-.148-.578a6.236 6.236 0 0 0-.773.221zm-3.73-2.52l-.345-.617c-.222.096-.453.2-.694.32l.353.627c.232-.122.455-.235.685-.33zm1.486 3.97l.368.645c.16-.204.346-.389.548-.572l-.345-.609c-.21.166-.403.35-.57.536zM507.5 87.7l.655.595c.058-.33.141-.66.25-.988l-.583-.53c-.133.309-.232.62-.322.923zm-3.468-4.324l-.57-.573c-.238.198-.467.397-.68.597l.62.61c.197-.218.41-.435.63-.634zm-2.854 3.64l-.96-.427c-.188.356-.398.771-.5.996l.96.428c.132-.283.341-.69.5-.996zm6.041 2.846c-.014.455.003.825.028 1.085l1.002.44c-.054-.34-.105-.721-.128-1.126l-.902-.399zM568.007 80.323c-8.042 5.843-9.825 17.1-3.982 25.142 5.843 8.043 17.1 9.825 25.142 3.982 8.043-5.843 9.826-17.1 3.983-25.142-5.844-8.043-17.1-9.826-25.143-3.982zm22.182 9.117l.912 1.255 2.272-1.65c.465-.338 1.017-1.259.354-2.229l-.352-.485c-.59-.812-1.604-.806-2.23-.351l-1.132.822-.423-.582 2.244-1.63-.917-1.262-2.153 1.564c-.556.404-.967 1.401-.347 2.254l.317.437c.62.853 1.674.755 2.236.346 1.568-1.128-.375.273 1.07-.777l.443.61-2.294 1.678zm-12.391 8.536s1.14-.987.001-2.554c-1.138-1.567-2.717-.643-2.717-.643l-2.653 1.928 3.592 4.944 1.334-.969-.867-1.193 2.02.355 1.973-1.433-2.683-.435zm-1.25-.639l-1.062.773-.822-1.13 1.07-.778s.38-.106.707.345c.327.45.107.79.107.79zm3.325-5.985l-1.355.984c-.965.701-.657 1.812-.355 2.228l2.63 3.62 1.355-.984-.63-.867 1.271-.923.63.866 1.313-.953-2.63-3.62c-.766-1.054-1.896-.593-2.23-.351zm1.898 2.657l-1.278.928-.871-1.2s-.197-.27.227-.577l.465-.339c.375-.272.579-.007.579-.007l.871 1.2.007-.005zm.012-4.045l1.41-1.025 3.567 4.91-1.41 1.025-3.567-4.91zm6.035 1.178l-2.646-3.64-1.403 1.019 2.645 3.64.922 1.27 1.404-1.02 1.896-1.378-.922-1.269-1.896 1.378zm-20.167 16.59l5.488-3.987s-4.52-4.015-2.453-8.473c.49-.918 1.903-4.042 7.964-3.996a5.34 5.34 0 0 1 .107-.364s-6.227-.975-9.956 2.35c-1.897 1.653-3.05 5.298-2.744 8.785.304 3.486 1.594 5.685 1.594 5.685zm5.231-16.843l-.31-.485c-.087.011-.321.054-.85.247l.305.478a13.8 13.8 0 0 1 .855-.24zm.409 1.95l.29.457c.234-.16.483-.299.747-.417l-.284-.45a6.09 6.09 0 0 0-.753.41zm-4.142-.296l.07-.05-.447-.323a6.862 6.862 0 0 0-.637.526l.43.313a7.26 7.26 0 0 1 .584-.466zm2.187 2.31l.508.362c.13-.244.271-.473.428-.682l-.486-.347c-.186.241-.332.464-.45.666zm-4.478.467l-.66-.252c-.109.217-.219.445-.326.692l.672.253c.1-.242.198-.472.314-.693zm3.69 2.086l.697.257c-.008-.26.015-.52.052-.79l-.655-.245a4.745 4.745 0 0 0-.093.778zm.616 2.964l.885.035a6.835 6.835 0 0 1-.444-.917l-.787-.032c.096.322.22.624.346.914zm-5.436-1.083l-.805-.072c-.055.305-.103.604-.136.894l.867.069c.01-.293.034-.597.074-.891zm.155 4.624l-1.01.289c.084.394.19.846.256 1.084l1.01-.289a29.85 29.85 0 0 1-.256-1.084zm6.456-1.704c.281.358.533.63.718.813l1.05-.307a11.312 11.312 0 0 1-.821-.78l-.947.274zM66.547 88.212c-9.342-3.4-19.67 1.417-23.07 10.758-3.4 9.342 1.416 19.671 10.757 23.071 9.342 3.4 19.671-1.416 23.071-10.758 3.4-9.341-1.416-19.67-10.758-23.07zm4.846 23.489l-.53 1.457 2.637.96c.54.197 1.612.14 2.046-.951l.206-.564c.343-.943-.23-1.78-.956-2.044l-1.315-.48.246-.676 2.606.949.534-1.466-2.501-.91c-.646-.235-1.702-.018-2.063.973l-.185.507c-.36.99.31 1.81.964 2.047 1.812.67-.436-.158 1.242.453l-.258.708-2.673-.963zm-14.007-5.5s1.456.393 2.119-1.427c.662-1.82-.986-2.612-.986-2.612l-3.082-1.122-2.09 5.743 1.548.564.505-1.385.835 1.872 2.291.834-1.14-2.467zm-.169-1.393l-1.234-.45.478-1.312 1.242.452s.3.255.11.779c-.19.523-.596.531-.596.531zm6.822-.591l-1.574-.573c-1.121-.408-1.87.469-2.046.952l-1.53 4.205 1.573.572.367-1.007 1.476.538-.366 1.007 1.525.555 1.53-4.205c.446-1.224-.568-1.903-.955-2.044zm-1.142 3.06l-1.484-.54.507-1.394s.114-.314.607-.135l.54.197c.436.158.33.475.33.475l-.508 1.394.008.003zm3.36-2.253l1.638.596-2.075 5.703-1.638-.596 2.075-5.703zm2.398 5.662l1.54-4.229-1.63-.593-1.54 4.229-.536 1.474 1.63.593 2.203.802.536-1.474-2.203-.802zm-25.03-7.441l6.373 2.32s.802-5.993 5.654-6.772c1.034-.107 4.415-.683 7.766 4.368.19-.068.361-.115.361-.115s-2.673-5.707-7.515-6.94c-2.432-.648-6.097.435-8.818 2.637-2.72 2.203-3.822 4.502-3.822 4.502zm16.888-5.082l.229-.528c-.058-.067-.225-.237-.68-.567l-.226.52c.234.186.457.376.677.575zm-1.388 1.429l-.217.495c.264.105.518.234.764.388l.214-.488a6.09 6.09 0 0 0-.76-.395zm-2.07-3.6l.08.03.018-.55a6.862 6.862 0 0 0-.792-.234l-.02.53c.243.062.48.139.714.224zm-.692 3.105l-.017.623c.275-.027.545-.039.805-.026l.016-.596a6.236 6.236 0 0 0-.804 0zm-2.892-3.451l-.16-.688c-.24.031-.491.067-.756.117l.166.699c.257-.053.502-.1.75-.128zm.335 4.226l.176.721c.21-.151.44-.278.684-.399l-.163-.68a4.745 4.745 0 0 0-.697.358zm-2.114 2.168l.466.753c.147-.302.317-.596.512-.88l-.413-.671c-.214.26-.395.531-.565.798zm-2.141-5.112l-.391-.708c-.283.125-.558.253-.817.387l.428.757c.248-.155.513-.305.78-.436zm-3.747 2.713l-.805-.676c-.28.29-.595.632-.755.82l.805.676c.204-.236.517-.569.755-.82zm5.022 4.4c-.139.433-.224.794-.272 1.05l.842.7c.042-.341.098-.722.187-1.118l-.757-.631zM26.97 124.476c-9.341 3.4-14.158 13.73-10.758 23.071 3.4 9.342 13.73 14.158 23.071 10.758 9.342-3.4 14.158-13.73 10.758-23.07-3.4-9.342-13.729-14.159-23.07-10.759zm18.81 14.878l.531 1.458 2.638-.96c.54-.197 1.325-.93.956-2.044l-.206-.564c-.343-.942-1.32-1.216-2.046-.952l-1.315.479-.246-.677 2.606-.948-.533-1.466-2.502.91c-.645.235-1.315 1.08-.954 2.071l.185.508c.36.99 1.4 1.187 2.054.949 1.818-.653-.436.158 1.242-.452l.258.708-2.668.98zm-14.264 4.79s1.368-.634.706-2.454c-.663-1.82-2.435-1.367-2.435-1.367l-3.082 1.122 2.09 5.743 1.55-.564-.505-1.386 1.844.898 2.29-.834-2.458-1.157zm-1.025-.958l-1.234.45-.478-1.313 1.242-.453s.394.003.585.526c.19.524-.115.79-.115.79zm4.845-4.837l-1.573.572c-1.121.408-1.131 1.561-.955 2.045l1.53 4.204 1.573-.573-.366-1.006 1.476-.538.367 1.007 1.525-.555-1.53-4.204c-.446-1.225-1.66-1.093-2.047-.952zm1.093 3.077l-1.484.54-.508-1.393s-.114-.314.378-.493l.54-.197c.436-.158.559.153.559.153l.507 1.393.008-.003zm1.126-3.885l1.638-.596 2.075 5.703-1.637.596-2.076-5.703zm5.476 2.796l-1.539-4.229-1.63.593 1.54 4.229.536 1.474 1.63-.593 2.202-.802-.536-1.474-2.203.802zm-23.958 10.389l6.374-2.32s-3.238-5.106-.022-8.821c.724-.747 2.943-3.361 8.757-1.646.101-.174.203-.32.203-.32s-5.717-2.654-10.218-.486c-2.28 1.067-4.391 4.252-5.06 7.688-.668 3.436-.034 5.905-.034 5.905zm9.671-14.749l-.164-.551c-.087-.014-.324-.037-.885.003l.161.543a13.8 13.8 0 0 1 .888.005zm-.145 1.987l.153.52c.27-.09.547-.154.834-.195l-.15-.511a6.09 6.09 0 0 0-.837.186zm-3.9-1.427l.081-.029-.34-.433c-.25.092-.502.202-.757.33l.326.42a7.26 7.26 0 0 1 .69-.288zm1.467 2.824l.388.488c.192-.198.391-.38.599-.538l-.371-.467c-.245.18-.447.355-.616.517zm-4.434-.786l-.566-.423c-.163.178-.332.367-.503.575l.577.429c.162-.205.32-.4.492-.58zm2.973 3.023l.598.439c.064-.251.158-.495.268-.745l-.562-.416a4.745 4.745 0 0 0-.304.722zm-.226 3.02l.841.277a6.835 6.835 0 0 1-.173-1.004l-.748-.248c.003.336.04.66.08.974zm-4.926-2.54l-.755-.291c-.136.277-.265.552-.377.821l.815.306c.09-.28.196-.565.317-.836zm-1.126 4.487h-1.051c-.028.401-.05.866-.052 1.113h1.051c.005-.312.031-.768.052-1.113zm6.676.142c.171.421.338.753.466.98l1.094-.006a11.312 11.312 0 0 1-.575-.977l-.985.003zM92 126c-9.941 0-18 8.059-18 18s8.059 18 18 18 18-8.059 18-18-8.059-18-18-18zm12.587 20.414v1.552h2.807c.576 0 1.563-.42 1.597-1.595v-.6c0-1.002-.824-1.594-1.597-1.594h-1.4v-.72h2.774v-1.56h-2.661c-.687 0-1.606.566-1.606 1.62v.54c0 1.054.91 1.594 1.606 1.594 1.931.009-.464 0 1.322 0v.755l-2.842.008zm-15.043-.377s1.503-.128 1.503-2.066c0-1.937-1.82-2.117-1.82-2.117h-3.28v6.112h1.648v-1.475l1.426 1.475h2.438l-1.915-1.929zm-.635-1.251h-1.314v-1.397h1.323s.369.137.369.694c0 .557-.378.703-.378.703zm6.208-2.889h-1.675c-1.193 0-1.597 1.08-1.597 1.594v4.475h1.675v-1.072h1.57v1.072h1.624v-4.475c0-1.302-1.185-1.594-1.597-1.594zm-.026 3.266h-1.58v-1.483s0-.334.524-.334h.575c.464 0 .472.334.472.334v1.483h.009zm2.387-3.266h1.743v6.069h-1.743v-6.069zm4.19 4.5v-4.5h-1.735v6.069h4.079v-1.569h-2.344zM75.6 147.966h6.783s-1.297-5.906 2.996-8.297c.936-.455 3.915-2.152 8.792 1.448.155-.128.3-.231.3-.231s-4.464-4.449-9.435-3.952c-2.507.223-5.58 2.495-7.384 5.495-1.803 3-2.052 5.537-2.052 5.537zm14.132-10.552l.035-.574c-.078-.043-.292-.146-.833-.3l-.034.566c.283.094.558.197.832.308zm-.815 1.817l-.035.54c.284.009.567.043.85.103l.035-.531a6.09 6.09 0 0 0-.85-.112zm-3.177-2.674h.086l-.172-.523c-.266 0-.54.017-.824.052l.163.505a7.26 7.26 0 0 1 .747-.034zm.412 3.154l.198.592c.248-.12.497-.223.746-.3l-.188-.566c-.292.086-.541.18-.756.274zm-3.898-2.254l-.386-.591c-.215.111-.438.231-.67.368l.395.6c.223-.137.438-.265.661-.377zm1.76 3.857l.412.617c.146-.214.318-.411.507-.608l-.387-.583c-.197.18-.377.377-.532.574zm-1.245 2.76l.696.549c.034-.334.094-.669.18-1.003l-.618-.489a8.139 8.139 0 0 0-.258.943zm-3.76-4.071l-.61-.532c-.223.215-.438.429-.635.643l.66.566c.181-.231.379-.463.585-.677zm-2.593 3.831l-.988-.36c-.163.369-.343.797-.429 1.029l.987.36c.112-.292.292-.712.43-1.029zm6.224 2.417c.018.455.06.823.103 1.08l1.03.369a11.312 11.312 0 0 1-.205-1.114l-.928-.335zM149.547 110.212c-9.342-3.4-19.67 1.417-23.07 10.758-3.4 9.342 1.416 19.671 10.757 23.071 9.342 3.4 19.671-1.416 23.071-10.758 3.4-9.341-1.416-19.67-10.758-23.07zm4.846 23.489l-.53 1.457 2.637.96c.54.197 1.612.14 2.046-.951l.206-.564c.343-.943-.23-1.78-.956-2.044l-1.315-.48.246-.676 2.606.949.534-1.466-2.501-.91c-.646-.235-1.702-.018-2.063.973l-.185.507c-.36.99.31 1.81.964 2.047 1.812.67-.436-.158 1.242.453l-.258.708-2.673-.963zm-14.007-5.5s1.456.393 2.119-1.427c.662-1.82-.986-2.612-.986-2.612l-3.082-1.122-2.09 5.743 1.548.564.505-1.385.835 1.872 2.291.834-1.14-2.467zm-.169-1.393l-1.234-.45.478-1.312 1.242.452s.3.255.11.779c-.19.523-.596.531-.596.531zm6.822-.591l-1.574-.573c-1.121-.408-1.87.469-2.046.952l-1.53 4.205 1.573.572.367-1.007 1.476.538-.366 1.007 1.525.555 1.53-4.205c.446-1.224-.568-1.903-.955-2.044zm-1.142 3.06l-1.484-.54.507-1.394s.114-.314.607-.135l.54.197c.436.158.33.475.33.475l-.508 1.394.008.003zm3.36-2.253l1.638.596-2.075 5.703-1.638-.596 2.075-5.703zm2.398 5.662l1.54-4.229-1.63-.593-1.54 4.229-.536 1.474 1.63.593 2.203.802.536-1.474-2.203-.802zm-25.03-7.441l6.373 2.32s.802-5.993 5.654-6.772c1.034-.107 4.415-.683 7.766 4.368.19-.068.361-.115.361-.115s-2.673-5.707-7.515-6.94c-2.432-.648-6.097.435-8.818 2.637-2.72 2.203-3.822 4.502-3.822 4.502zm16.888-5.082l.229-.528c-.058-.067-.225-.237-.68-.567l-.226.52c.234.186.457.376.677.575zm-1.388 1.429l-.217.495c.264.105.518.234.764.388l.214-.488a6.09 6.09 0 0 0-.76-.395zm-2.07-3.6l.08.03.018-.55a6.862 6.862 0 0 0-.792-.234l-.02.53c.243.062.48.139.714.224zm-.692 3.105l-.017.623c.275-.027.545-.039.805-.026l.016-.596a6.236 6.236 0 0 0-.804 0zm-2.892-3.451l-.16-.688c-.24.031-.491.067-.756.117l.166.699c.257-.053.502-.1.75-.128zm.335 4.226l.176.721c.21-.151.44-.278.684-.399l-.163-.68a4.745 4.745 0 0 0-.697.358zm-2.114 2.168l.466.753c.147-.302.317-.596.512-.88l-.413-.671c-.214.26-.395.531-.565.798zm-2.141-5.112l-.391-.708c-.283.125-.558.253-.817.387l.428.757c.248-.155.513-.305.78-.436zm-3.747 2.713l-.805-.676c-.28.29-.595.632-.755.82l.805.676c.204-.236.517-.569.755-.82zm5.022 4.4c-.139.433-.224.794-.272 1.05l.842.7c.042-.341.098-.722.187-1.118l-.757-.631zM203.547 102.212c-9.342-3.4-19.67 1.417-23.07 10.758-3.4 9.342 1.416 19.671 10.757 23.071 9.342 3.4 19.671-1.416 23.071-10.758 3.4-9.341-1.416-19.67-10.758-23.07zm4.846 23.489l-.53 1.457 2.637.96c.54.197 1.612.14 2.046-.951l.206-.564c.343-.943-.23-1.78-.956-2.044l-1.315-.48.246-.676 2.606.949.534-1.466-2.501-.91c-.646-.235-1.702-.018-2.063.973l-.185.507c-.36.99.31 1.81.964 2.047 1.812.67-.436-.158 1.242.453l-.258.708-2.673-.963zm-14.007-5.5s1.456.393 2.119-1.427c.662-1.82-.986-2.612-.986-2.612l-3.082-1.122-2.09 5.743 1.548.564.505-1.385.835 1.872 2.291.834-1.14-2.467zm-.169-1.393l-1.234-.45.478-1.312 1.242.452s.3.255.11.779c-.19.523-.596.531-.596.531zm6.822-.591l-1.574-.573c-1.121-.408-1.87.469-2.046.952l-1.53 4.205 1.573.572.367-1.007 1.476.538-.366 1.007 1.525.555 1.53-4.205c.446-1.224-.568-1.903-.955-2.044zm-1.142 3.06l-1.484-.54.507-1.394s.114-.314.607-.135l.54.197c.436.158.33.475.33.475l-.508 1.394.008.003zm3.36-2.253l1.638.596-2.075 5.703-1.638-.596 2.075-5.703zm2.398 5.662l1.54-4.229-1.63-.593-1.54 4.229-.536 1.474 1.63.593 2.203.802.536-1.474-2.203-.802zm-25.03-7.441l6.373 2.32s.802-5.993 5.654-6.772c1.034-.107 4.415-.683 7.766 4.368.19-.068.361-.115.361-.115s-2.673-5.707-7.515-6.94c-2.432-.648-6.097.435-8.818 2.637-2.72 2.203-3.822 4.502-3.822 4.502zm16.888-5.082l.229-.528c-.058-.067-.225-.237-.68-.567l-.226.52c.234.186.457.376.677.575zm-1.388 1.429l-.217.495c.264.105.518.234.764.388l.214-.488a6.09 6.09 0 0 0-.76-.395zm-2.07-3.6l.08.03.018-.55a6.862 6.862 0 0 0-.792-.234l-.02.53c.243.062.48.139.714.224zm-.692 3.105l-.017.623c.275-.027.545-.039.805-.026l.016-.596a6.236 6.236 0 0 0-.804 0zm-2.892-3.451l-.16-.688c-.24.031-.491.067-.756.117l.166.699c.257-.053.502-.1.75-.128zm.335 4.226l.176.721c.21-.151.44-.278.684-.399l-.163-.68a4.745 4.745 0 0 0-.697.358zm-2.114 2.168l.466.753c.147-.302.317-.596.512-.88l-.413-.671c-.214.26-.395.531-.565.798zm-2.141-5.112l-.391-.708c-.283.125-.558.253-.817.387l.428.757c.248-.155.513-.305.78-.436zm-3.747 2.713l-.805-.676c-.28.29-.595.632-.755.82l.805.676c.204-.236.517-.569.755-.82zm5.022 4.4c-.139.433-.224.794-.272 1.05l.842.7c.042-.341.098-.722.187-1.118l-.757-.631zM185.464 144.876c-8.61 4.97-11.559 15.979-6.588 24.588 4.97 8.61 15.979 11.56 24.588 6.589 8.61-4.971 11.56-15.98 6.589-24.589-4.971-8.61-15.98-11.559-24.589-6.588zm21.108 11.386l.776 1.343 2.43-1.404c.5-.287 1.144-1.145.587-2.179l-.3-.52c-.502-.868-1.511-.968-2.18-.582l-1.212.7-.36-.624 2.401-1.386-.78-1.351-2.305 1.33c-.595.344-1.107 1.293-.58 2.206l.27.468c.527.913 1.585.926 2.187.578 1.678-.958-.401.232 1.146-.661l.377.653-2.457 1.429zm-13.216 7.194s1.237-.863.268-2.54c-.968-1.678-2.634-.924-2.634-.924l-2.84 1.64 3.055 5.293 1.428-.824-.738-1.277 1.972.564 2.112-1.219-2.623-.713zm-1.176-.766l-1.137.657-.7-1.21 1.146-.661s.388-.066.667.416c.278.483.024.798.024.798zm3.932-5.605l-1.45.837c-1.034.596-.843 1.734-.586 2.179l2.237 3.875 1.45-.837-.536-.928 1.361-.786.536.928 1.405-.811-2.237-3.875c-.651-1.128-1.823-.788-2.18-.582zm1.61 2.84l-1.368.79-.741-1.284s-.167-.29.286-.551l.498-.288c.402-.231.576.054.576.054l.742 1.284.007-.004zm.435-4.02l1.509-.872 3.034 5.255-1.51.872-3.033-5.256zm5.878 1.801l-2.25-3.897-1.502.867 2.25 3.897.784 1.359 1.502-.867 2.03-1.172-.784-1.359-2.03 1.172zm-21.79 14.392l5.874-3.391s-4.076-4.467-1.553-8.684c.583-.862 2.314-3.82 8.338-3.142.07-.188.144-.35.144-.35s-6.09-1.62-10.147 1.296c-2.06 1.446-3.586 4.95-3.647 8.45-.062 3.5.991 5.821.991 5.821zm6.963-16.204l-.257-.514c-.088.001-.326.02-.871.156l.253.507a13.8 13.8 0 0 1 .875-.149zm.202 1.982l.24.484c.25-.134.513-.246.788-.336l-.236-.477a6.09 6.09 0 0 0-.792.329zm-4.088-.728l.074-.043-.41-.367c-.23.133-.46.285-.688.457l.394.356a7.26 7.26 0 0 1 .63-.403zm1.934 2.526l.467.413c.156-.228.32-.442.497-.633l-.447-.396c-.21.22-.378.427-.517.616zm-4.503-.004l-.63-.319c-.13.204-.264.42-.396.654l.642.322c.125-.23.247-.449.384-.657zm3.453 2.46l.666.329c.019-.259.069-.515.134-.78l-.626-.312a4.745 4.745 0 0 0-.174.764zm.302 3.013l.877.128a6.835 6.835 0 0 1-.346-.959l-.78-.114c.063.33.154.644.249.945zm-5.292-1.645l-.794-.156c-.086.297-.165.59-.229.875l.855.159c.04-.29.096-.59.168-.878zm-.33 4.614l-1.035.182c.043.4.1.862.142 1.106l1.035-.182a29.85 29.85 0 0 1-.142-1.106zm6.599-1.019c.242.385.464.683.63.884l1.076-.196c-.234-.25-.49-.539-.736-.862l-.97.174zM245.464 126.876c-8.61 4.97-11.559 15.979-6.588 24.588 4.97 8.61 15.979 11.56 24.588 6.589 8.61-4.971 11.56-15.98 6.589-24.589-4.971-8.61-15.98-11.559-24.589-6.588zm21.108 11.386l.776 1.343 2.43-1.404c.5-.287 1.144-1.145.587-2.179l-.3-.52c-.502-.868-1.511-.968-2.18-.582l-1.212.7-.36-.624 2.401-1.386-.78-1.351-2.305 1.33c-.595.344-1.107 1.293-.58 2.206l.27.468c.527.913 1.585.926 2.187.578 1.678-.958-.401.232 1.146-.661l.377.653-2.457 1.429zm-13.216 7.194s1.237-.863.268-2.54c-.968-1.678-2.634-.924-2.634-.924l-2.84 1.64 3.055 5.293 1.428-.824-.738-1.277 1.972.564 2.112-1.219-2.623-.713zm-1.176-.766l-1.137.657-.7-1.21 1.146-.661s.388-.066.667.416c.278.483.024.798.024.798zm3.932-5.605l-1.45.837c-1.034.596-.843 1.734-.586 2.179l2.237 3.875 1.45-.837-.536-.928 1.361-.786.536.928 1.405-.811-2.237-3.875c-.651-1.128-1.823-.788-2.18-.582zm1.61 2.84l-1.368.79-.741-1.284s-.167-.29.286-.551l.498-.288c.402-.231.576.054.576.054l.742 1.284.007-.004zm.435-4.02l1.509-.872 3.034 5.255-1.51.872-3.033-5.256zm5.878 1.801l-2.25-3.897-1.502.867 2.25 3.897.784 1.359 1.502-.867 2.03-1.172-.784-1.359-2.03 1.172zm-21.79 14.392l5.874-3.391s-4.076-4.467-1.553-8.684c.583-.862 2.314-3.82 8.338-3.142.07-.188.144-.35.144-.35s-6.09-1.62-10.147 1.296c-2.06 1.446-3.586 4.95-3.647 8.45-.062 3.5.991 5.821.991 5.821zm6.963-16.204l-.257-.514c-.088.001-.326.02-.871.156l.253.507a13.8 13.8 0 0 1 .875-.149zm.202 1.982l.24.484c.25-.134.513-.246.788-.336l-.236-.477a6.09 6.09 0 0 0-.792.329zm-4.088-.728l.074-.043-.41-.367c-.23.133-.46.285-.688.457l.394.356a7.26 7.26 0 0 1 .63-.403zm1.934 2.526l.467.413c.156-.228.32-.442.497-.633l-.447-.396c-.21.22-.378.427-.517.616zm-4.503-.004l-.63-.319c-.13.204-.264.42-.396.654l.642.322c.125-.23.247-.449.384-.657zm3.453 2.46l.666.329c.019-.259.069-.515.134-.78l-.626-.312a4.745 4.745 0 0 0-.174.764zm.302 3.013l.877.128a6.835 6.835 0 0 1-.346-.959l-.78-.114c.063.33.154.644.249.945zm-5.292-1.645l-.794-.156c-.086.297-.165.59-.229.875l.855.159c.04-.29.096-.59.168-.878zm-.33 4.614l-1.035.182c.043.4.1.862.142 1.106l1.035-.182a29.85 29.85 0 0 1-.142-1.106zm6.599-1.019c.242.385.464.683.63.884l1.076-.196c-.234-.25-.49-.539-.736-.862l-.97.174zM317.296 134.065c-6.39-7.615-17.744-8.609-25.36-2.218-7.615 6.39-8.608 17.743-2.218 25.359 6.39 7.615 17.744 8.608 25.36 2.218 7.614-6.39 8.608-17.743 2.218-25.359zm-7.548 22.764l-1.188.998 1.804 2.15c.37.44 1.327.927 2.248.199l.46-.386c.768-.644.691-1.656.195-2.248l-.9-1.072.552-.463 1.782 2.125 1.195-1.003-1.71-2.04c-.442-.525-1.466-.865-2.274-.188l-.413.347c-.808.678-.637 1.722-.19 2.255 1.236 1.485-.298-.355.85 1.013l-.577.485-1.834-2.172zm-9.38-11.765s1.064 1.068 2.548-.177.452-2.755.452-2.755l-2.108-2.513-4.682 3.929 1.06 1.262 1.13-.947-.214 2.04 1.567 1.867.247-2.706zm.55-1.291l-.844-1.007 1.07-.898.85 1.013s.132.371-.294.73c-.427.357-.782.162-.782.162zm6.203 2.898l-1.076-1.282c-.767-.915-1.854-.53-2.248-.199l-3.427 2.876 1.076 1.283.82-.69 1.01 1.205-.82.688 1.043 1.243 3.427-2.876c.998-.837.46-1.932.195-2.248zm-2.518 2.08l-1.016-1.21 1.136-.954s.257-.215.593.187l.37.44c.298.355.047.577.047.577l-1.136.953.006.007zm4.036-.271l1.12 1.335-4.649 3.9-1.12-1.334 4.649-3.901zm-.754 6.102l3.447-2.892-1.115-1.33-3.447 2.893-1.201 1.009 1.114 1.328 1.507 1.796 1.202-1.008-1.507-1.796zm-17.957-18.96l4.36 5.196s3.69-4.79 8.282-3.038c.95.425 4.165 1.616 4.542 7.666.197.036.37.082.37.082s.538-6.28-3.038-9.768c-1.782-1.778-5.498-2.672-8.955-2.125-3.457.547-5.561 1.987-5.561 1.987zm17.167 4.044l.462-.343c-.017-.087-.076-.317-.306-.83l-.455.336c.11.278.208.555.299.837zm-1.916.543l-.436.32c.175.223.331.462.467.718l.43-.315a6.09 6.09 0 0 0-.461-.723zm.006-4.153l.055.066.29-.467a6.862 6.862 0 0 0-.569-.599l-.282.45c.18.174.346.36.506.55zm-2.151 2.344l-.326.531c.252.114.49.238.71.38l.312-.509a6.236 6.236 0 0 0-.696-.402zm-.779-4.435l.205-.677a13.663 13.663 0 0 0-.713-.276l-.206.689c.249.082.485.164.714.264zm-1.823 3.827l-.208.713c.258-.026.52-.021.792-.003l.198-.671a4.745 4.745 0 0 0-.782-.039zm-2.915.82l.027.886c.278-.189.573-.357.884-.506l-.023-.788a8.139 8.139 0 0 0-.888.409zm.702-5.497l.015-.809c-.307-.033-.61-.06-.9-.073l-.01.87c.294-.01.598-.008.895.012zm-4.602.476l-.359-.987c-.387.111-.831.249-1.064.332l.36.988a29.85 29.85 0 0 1 1.063-.333zm2.15 6.322a8.694 8.694 0 0 0-.761.774l.38 1.026c.206-.274.445-.576.72-.874l-.34-.926zM325.847 87.937c-6.39 7.615-5.397 18.969 2.218 25.359 7.616 6.39 18.97 5.396 25.36-2.219 6.39-7.615 5.396-18.969-2.22-25.359-7.615-6.39-18.968-5.397-25.358 2.219zm23.728 3.48l1.189.997 1.805-2.15c.37-.441.682-1.468-.195-2.249l-.46-.386c-.768-.644-1.75-.393-2.248.199l-.9 1.072-.55-.463 1.782-2.124-1.195-1.003-1.711 2.039c-.442.526-.599 1.594.209 2.271l.414.347c.807.678 1.806.328 2.253-.205 1.248-1.474-.298.355.85-1.013l.578.485-1.82 2.183zm-9.958 11.28s.868-1.233-.616-2.478c-1.484-1.246-2.792.033-2.792.033l-2.108 2.513 4.681 3.928 1.06-1.263-1.13-.947 2.046-.145 1.568-1.868-2.709.227zm-1.367-.317l-.844 1.006-1.07-.898.85-1.013s.342-.195.769.164c.427.358.295.74.295.74zm1.778-6.612l-1.076 1.282c-.768.915-.2 1.918.194 2.248l3.428 2.876 1.076-1.282-.82-.689L343.84 99l.82.688 1.043-1.243-3.427-2.876c-.998-.837-1.983-.117-2.248.199zm2.485 2.119l-1.016 1.21-1.135-.953s-.257-.215.08-.616l.37-.441c.298-.355.56-.147.56-.147l1.135.953.006-.006zm-.968-3.928l1.12-1.335 4.65 3.9-1.12 1.336-4.65-3.9zm6.14-.317l-3.446-2.893-1.115 1.329 3.447 2.893 1.202 1.008 1.115-1.329 1.506-1.795-1.201-1.009-1.507 1.796zm-15.553 20.976l4.36-5.196s-5.357-2.802-4.43-7.628c.254-1.01.869-4.382 6.761-5.804.001-.201.016-.38.016-.38s-6.278.562-9.092 4.69c-1.44 2.063-1.677 5.878-.538 9.187 1.14 3.31 2.923 5.131 2.923 5.131zm1.001-17.608l-.417-.395c-.083.031-.3.13-.766.445l.412.39c.254-.157.51-.301.771-.44zm.868 1.793l.392.373c.188-.211.397-.406.625-.585l-.385-.368a6.09 6.09 0 0 0-.632.58zm-4.09.715l.055-.066-.511-.205a6.862 6.862 0 0 0-.49.665l.492.2a7.26 7.26 0 0 1 .454-.594zm2.68 1.711l.58.23c.069-.269.15-.525.251-.766l-.555-.219c-.122.279-.21.53-.275.755zm-4.232 1.537l-.701-.084c-.053.236-.104.484-.148.75l.713.083c.039-.259.078-.506.136-.749zm4.086 1.131l.738.081a4.761 4.761 0 0 1-.14-.779l-.695-.079c.01.267.046.532.097.777zm1.314 2.728l.868-.18a6.835 6.835 0 0 1-.653-.783l-.771.16c.17.29.364.552.556.803zm-5.536.264l-.799.125c.021.309.047.611.084.9l.859-.143a8.685 8.685 0 0 1-.144-.882zm1.269 4.449l-.91.525c.177.362.39.775.511.99l.91-.525a29.85 29.85 0 0 1-.511-.99zm5.852-3.215c.36.28.67.483.894.616l.945-.553a11.312 11.312 0 0 1-.986-.558l-.853.495zM384.348 115.837c-9.081-4.043-19.721.041-23.765 9.123-4.043 9.082.041 19.722 9.123 23.765 9.082 4.043 19.722-.04 23.765-9.123 4.043-9.081-.04-19.721-9.123-23.765zm3.196 23.77l-.631 1.417 2.565 1.141c.525.234 1.598.252 2.107-.806l.244-.549c.408-.916-.104-1.791-.81-2.106l-1.279-.569.293-.658 2.534 1.128.634-1.425-2.431-1.082c-.628-.28-1.697-.137-2.126.827l-.22.493c-.429.963.183 1.827.819 2.11 1.76.793-.424-.19 1.207.537l-.306.69-2.6-1.149zm-13.589-6.464s1.425.494 2.213-1.276-.801-2.674-.801-2.674l-2.997-1.334-2.485 5.583 1.505.67.6-1.346.703 1.926 2.227.992-.965-2.54zm-.071-1.401l-1.2-.535.568-1.276 1.208.538s.282.275.055.784c-.227.51-.631.489-.631.489zm6.846-.114l-1.53-.681c-1.09-.486-1.898.337-2.107.807l-1.82 4.087 1.53.681.435-.979 1.436.64-.436.978 1.482.66 1.82-4.087c.53-1.19-.434-1.939-.81-2.106zm-1.352 2.973l-1.443-.643.603-1.355s.136-.305.614-.092l.526.234c.423.189.295.497.295.497l-.603 1.355.008.004zm3.509-2.013l1.592.709-2.468 5.544-1.593-.709 2.469-5.544zm1.997 5.815l1.83-4.11-1.584-.706-1.83 4.11-.638 1.434 1.584.705 2.141.954.638-1.433-2.14-.954zm-24.451-9.17l6.196 2.76s1.218-5.923 6.113-6.361c1.04-.035 4.451-.373 7.442 4.899a5.34 5.34 0 0 1 .369-.09s-2.27-5.88-7.013-7.447c-2.381-.816-6.113.009-8.98 2.016-2.868 2.007-4.127 4.224-4.127 4.224zm17.202-3.89l.265-.51c-.053-.071-.207-.253-.639-.614l-.261.503c.22.202.43.407.635.62zm-1.484 1.328l-.251.48c.255.123.5.27.735.44l.247-.472a6.09 6.09 0 0 0-.731-.448zm-1.814-3.735l.078.035.056-.548a6.862 6.862 0 0 0-.774-.288l-.057.528c.238.078.47.172.697.273zm-.907 3.05l-.06.62c.276-.009.545-.001.804.03l.058-.594a6.236 6.236 0 0 0-.802-.057zm-2.644-3.646l-.112-.697c-.242.014-.495.033-.762.064l.117.709c.26-.035.508-.065.757-.076zm.04 4.24l.125.731c.22-.136.457-.246.71-.35l-.116-.69c-.254.085-.499.192-.72.309zm-2.26 2.015l.411.784c.168-.292.359-.572.573-.843l-.366-.698c-.231.245-.43.503-.619.757zm-1.78-5.25l-.341-.733c-.291.105-.574.214-.842.33l.374.785c.259-.138.533-.27.809-.381zm-3.927 2.446l-.756-.73c-.299.27-.638.588-.81.765l.755.73c.22-.22.556-.53.81-.765zm4.703 4.74c-.17.422-.28.777-.345 1.029l.791.756c.066-.337.148-.713.265-1.102l-.711-.683zM435.348 91.837c-9.081-4.043-19.721.041-23.765 9.123-4.043 9.082.041 19.722 9.123 23.765 9.082 4.043 19.722-.04 23.765-9.123 4.043-9.081-.04-19.721-9.123-23.765zm3.196 23.77l-.631 1.417 2.565 1.141c.525.234 1.598.252 2.107-.806l.244-.549c.408-.916-.104-1.791-.81-2.106l-1.279-.569.293-.658 2.534 1.128.634-1.425-2.431-1.082c-.628-.28-1.697-.137-2.126.827l-.22.493c-.429.963.183 1.827.819 2.11 1.76.793-.424-.19 1.207.537l-.306.69-2.6-1.149zm-13.589-6.464s1.425.494 2.213-1.276-.801-2.674-.801-2.674l-2.997-1.334-2.485 5.583 1.505.67.6-1.346.703 1.926 2.227.992-.965-2.54zm-.071-1.401l-1.2-.535.568-1.276 1.208.538s.282.275.055.784c-.227.51-.631.489-.631.489zm6.846-.114l-1.53-.681c-1.09-.486-1.898.337-2.107.807l-1.82 4.087 1.53.681.435-.979 1.436.64-.436.978 1.482.66 1.82-4.087c.53-1.19-.434-1.939-.81-2.106zm-1.352 2.973l-1.443-.643.603-1.355s.136-.305.614-.092l.526.234c.423.189.295.497.295.497l-.603 1.355.008.004zm3.509-2.013l1.592.709-2.468 5.544-1.593-.709 2.469-5.544zm1.997 5.815l1.83-4.11-1.584-.706-1.83 4.11-.638 1.434 1.584.705 2.141.954.638-1.433-2.14-.954zm-24.451-9.17l6.196 2.76s1.218-5.923 6.113-6.361c1.04-.035 4.451-.373 7.442 4.899a5.34 5.34 0 0 1 .369-.09s-2.27-5.88-7.013-7.447c-2.381-.816-6.113.009-8.98 2.016-2.868 2.007-4.127 4.224-4.127 4.224zm17.202-3.89l.265-.51c-.053-.071-.207-.253-.639-.614l-.261.503c.22.202.43.407.635.62zm-1.484 1.328l-.251.48c.255.123.5.27.735.44l.247-.472a6.09 6.09 0 0 0-.731-.448zm-1.814-3.735l.078.035.056-.548a6.862 6.862 0 0 0-.774-.288l-.057.528c.238.078.47.172.697.273zm-.907 3.05l-.06.62c.276-.009.545-.001.804.03l.058-.594a6.236 6.236 0 0 0-.802-.057zm-2.644-3.646l-.112-.697c-.242.014-.495.033-.762.064l.117.709c.26-.035.508-.065.757-.076zm.04 4.24l.125.731c.22-.136.457-.246.71-.35l-.116-.69c-.254.085-.499.192-.72.309zm-2.26 2.015l.411.784c.168-.292.359-.572.573-.843l-.366-.698c-.231.245-.43.503-.619.757zm-1.78-5.25l-.341-.733c-.291.105-.574.214-.842.33l.374.785c.259-.138.533-.27.809-.381zm-3.927 2.446l-.756-.73c-.299.27-.638.588-.81.765l.755.73c.22-.22.556-.53.81-.765zm4.703 4.74c-.17.422-.28.777-.345 1.029l.791.756c.066-.337.148-.713.265-1.102l-.711-.683zM433.337 152.458c-4.358-8.935-15.134-12.646-24.07-8.288-8.934 4.358-12.645 15.134-8.287 24.07 4.358 8.934 15.134 12.645 24.069 8.287 8.935-4.358 12.646-15.134 8.288-24.069zm-12.83 20.262l-1.395.68 1.23 2.524c.253.517 1.063 1.22 2.133.736l.54-.263c.901-.44 1.071-1.44.733-2.134l-.614-1.258.647-.316 1.216 2.493 1.402-.684-1.167-2.392c-.3-.618-1.212-1.195-2.16-.733l-.485.237c-.948.462-1.034 1.516-.73 2.141.84 1.74-.202-.416.58 1.189l-.677.33-1.254-2.55zm-6.256-13.685s.774 1.294 2.515.445c1.741-.85 1.105-2.565 1.105-2.565l-1.438-2.947-5.493 2.679.723 1.481 1.325-.646-.7 1.927 1.069 2.192.894-2.566zm.846-1.12l-.576-1.18 1.256-.613.58 1.188s.038.392-.463.636c-.5.245-.797-.031-.797-.031zm5.318 4.313l-.734-1.505c-.524-1.072-1.671-.962-2.133-.736l-4.022 1.961.734 1.505.963-.47.689 1.413-.963.47.711 1.458 4.022-1.962c1.17-.57.913-1.764.733-2.134zm-2.947 1.409l-.692-1.42 1.332-.65s.3-.147.53.324l.253.517c.203.416-.094.57-.094.57l-1.333.65.004.009zm3.982.713l.764 1.567-5.455 2.66-.764-1.566 5.455-2.66zm-2.208 5.739l4.044-1.973-.76-1.559-4.044 1.973-1.41.688.76 1.558 1.027 2.107 1.41-.688-1.027-2.106zm-12.837-22.741l2.974 6.096s4.74-3.754 8.77-.944c.819.642 3.65 2.576 2.553 8.537.183.083.34.169.34.169s2.04-5.963-.586-10.213c-1.299-2.156-4.688-3.923-8.175-4.228-3.486-.306-5.876.583-5.876.583zm15.679 8.076l.531-.22c.005-.089.003-.327-.095-.88l-.524.217c.04.296.068.588.088.883zm-1.99.064l-.501.206c.116.258.21.528.28.809l.493-.202a6.09 6.09 0 0 0-.273-.813zm1.01-4.028l.038.077.394-.383a6.862 6.862 0 0 0-.407-.718l-.383.368c.132.212.249.433.358.656zm-2.654 1.753l-.445.437c.217.171.418.35.597.54l.425-.418a6.236 6.236 0 0 0-.577-.559zm.317-4.491l.362-.607c-.194-.144-.4-.292-.625-.44l-.366.618c.221.14.431.277.63.429zm-2.695 3.273l-.374.64c.256.038.509.106.769.19l.354-.604a4.745 4.745 0 0 0-.75-.226zm-3.027.09l-.188.866c.316-.116.643-.208.98-.277l.169-.77a8.139 8.139 0 0 0-.96.182zm2.011-5.164l.21-.781c-.29-.107-.576-.206-.856-.29l-.218.843c.287.06.581.136.864.228zm-4.58-.651l-.11-1.045c-.402.014-.866.04-1.112.065l.11 1.045c.31-.028.767-.05 1.112-.065zm.556 6.654c-.4.215-.713.415-.925.566l.12 1.088c.267-.216.572-.45.911-.674l-.106-.98zM468.007 111.323c-8.042 5.843-9.825 17.1-3.982 25.142 5.843 8.043 17.1 9.825 25.142 3.982 8.043-5.843 9.826-17.1 3.983-25.142-5.844-8.043-17.1-9.826-25.143-3.982zm22.182 9.117l.912 1.255 2.272-1.65c.465-.338 1.017-1.259.354-2.229l-.352-.485c-.59-.812-1.604-.806-2.23-.351l-1.132.822-.423-.582 2.244-1.63-.917-1.262-2.153 1.564c-.556.404-.967 1.401-.347 2.254l.317.437c.62.853 1.674.755 2.236.346 1.568-1.128-.375.273 1.07-.777l.443.61-2.294 1.678zm-12.391 8.536s1.14-.987.001-2.554c-1.138-1.567-2.717-.643-2.717-.643l-2.653 1.928 3.592 4.944 1.334-.969-.867-1.193 2.02.355 1.973-1.433-2.683-.435zm-1.25-.639l-1.062.773-.822-1.13 1.07-.778s.38-.106.707.345c.327.45.107.79.107.79zm3.325-5.985l-1.355.984c-.965.701-.657 1.812-.355 2.228l2.63 3.62 1.355-.984-.63-.867 1.271-.923.63.866 1.313-.953-2.63-3.62c-.766-1.054-1.896-.593-2.23-.351zm1.898 2.657l-1.278.928-.871-1.2s-.197-.27.227-.577l.465-.339c.375-.272.579-.007.579-.007l.871 1.2.007-.005zm.012-4.045l1.41-1.025 3.567 4.91-1.41 1.025-3.567-4.91zm6.035 1.178l-2.646-3.64-1.403 1.019 2.645 3.64.922 1.27 1.404-1.02 1.896-1.378-.922-1.269-1.896 1.378zm-20.167 16.59l5.488-3.987s-4.52-4.015-2.453-8.473c.49-.918 1.903-4.042 7.964-3.996a5.34 5.34 0 0 1 .107-.364s-6.227-.975-9.956 2.35c-1.897 1.653-3.05 5.298-2.744 8.785.304 3.486 1.594 5.685 1.594 5.685zm5.231-16.843l-.31-.485c-.087.011-.321.054-.85.247l.305.478a13.8 13.8 0 0 1 .855-.24zm.409 1.95l.29.457c.234-.16.483-.299.747-.417l-.284-.45a6.09 6.09 0 0 0-.753.41zm-4.142-.296l.07-.05-.447-.323a6.862 6.862 0 0 0-.637.526l.43.313a7.26 7.26 0 0 1 .584-.466zm2.187 2.31l.508.362c.13-.244.271-.473.428-.682l-.486-.347c-.186.241-.332.464-.45.666zm-4.478.467l-.66-.252c-.109.217-.219.445-.326.692l.672.253c.1-.242.198-.472.314-.693zm3.69 2.086l.697.257c-.008-.26.015-.52.052-.79l-.655-.245a4.745 4.745 0 0 0-.093.778zm.616 2.964l.885.035a6.835 6.835 0 0 1-.444-.917l-.787-.032c.096.322.22.624.346.914zm-5.436-1.083l-.805-.072c-.055.305-.103.604-.136.894l.867.069c.01-.293.034-.597.074-.891zm.155 4.624l-1.01.289c.084.394.19.846.256 1.084l1.01-.289a29.85 29.85 0 0 1-.256-1.084zm6.456-1.704c.281.358.533.63.718.813l1.05-.307a11.312 11.312 0 0 1-.821-.78l-.947.274zM528.007 120.323c-8.042 5.843-9.825 17.1-3.982 25.142 5.843 8.043 17.1 9.825 25.142 3.982 8.043-5.843 9.826-17.1 3.983-25.142-5.844-8.043-17.1-9.826-25.143-3.982zm22.182 9.117l.912 1.255 2.272-1.65c.465-.338 1.017-1.259.354-2.229l-.352-.485c-.59-.812-1.604-.806-2.23-.351l-1.132.822-.423-.582 2.244-1.63-.917-1.262-2.153 1.564c-.556.404-.967 1.401-.347 2.254l.317.437c.62.853 1.674.755 2.236.346 1.568-1.128-.375.273 1.07-.777l.443.61-2.294 1.678zm-12.391 8.536s1.14-.987.001-2.554c-1.138-1.567-2.717-.643-2.717-.643l-2.653 1.928 3.592 4.944 1.334-.969-.867-1.193 2.02.355 1.973-1.433-2.683-.435zm-1.25-.639l-1.062.773-.822-1.13 1.07-.778s.38-.106.707.345c.327.45.107.79.107.79zm3.325-5.985l-1.355.984c-.965.701-.657 1.812-.355 2.228l2.63 3.62 1.355-.984-.63-.867 1.271-.923.63.866 1.313-.953-2.63-3.62c-.766-1.054-1.896-.593-2.23-.351zm1.898 2.657l-1.278.928-.871-1.2s-.197-.27.227-.577l.465-.339c.375-.272.579-.007.579-.007l.871 1.2.007-.005zm.012-4.045l1.41-1.025 3.567 4.91-1.41 1.025-3.567-4.91zm6.035 1.178l-2.646-3.64-1.403 1.019 2.645 3.64.922 1.27 1.404-1.02 1.896-1.378-.922-1.269-1.896 1.378zm-20.167 16.59l5.488-3.987s-4.52-4.015-2.453-8.473c.49-.918 1.903-4.042 7.964-3.996a5.34 5.34 0 0 1 .107-.364s-6.227-.975-9.956 2.35c-1.897 1.653-3.05 5.298-2.744 8.785.304 3.486 1.594 5.685 1.594 5.685zm5.231-16.843l-.31-.485c-.087.011-.321.054-.85.247l.305.478a13.8 13.8 0 0 1 .855-.24zm.409 1.95l.29.457c.234-.16.483-.299.747-.417l-.284-.45a6.09 6.09 0 0 0-.753.41zm-4.142-.296l.07-.05-.447-.323a6.862 6.862 0 0 0-.637.526l.43.313a7.26 7.26 0 0 1 .584-.466zm2.187 2.31l.508.362c.13-.244.271-.473.428-.682l-.486-.347c-.186.241-.332.464-.45.666zm-4.478.467l-.66-.252c-.109.217-.219.445-.326.692l.672.253c.1-.242.198-.472.314-.693zm3.69 2.086l.697.257c-.008-.26.015-.52.052-.79l-.655-.245a4.745 4.745 0 0 0-.093.778zm.616 2.964l.885.035a6.835 6.835 0 0 1-.444-.917l-.787-.032c.096.322.22.624.346.914zm-5.436-1.083l-.805-.072c-.055.305-.103.604-.136.894l.867.069c.01-.293.034-.597.074-.891zm.155 4.624l-1.01.289c.084.394.19.846.256 1.084l1.01-.289a29.85 29.85 0 0 1-.256-1.084zm6.456-1.704c.281.358.533.63.718.813l1.05-.307a11.312 11.312 0 0 1-.821-.78l-.947.274z"/></g></svg>