<svg xmlns="http://www.w3.org/2000/svg" viewBox="0 0 605 180"><title>full-color-circleci</title><g fill-rule="evenodd"><g transform="rotate(-30 36.196 -24.053)"><ellipse cx="17.535" cy="17.932" rx="4.252" ry="4.252"/><path d="M.167 13.423c0 .051-.05.154-.05.205 0 .461.358.871.87.871h7.224c.359 0 .615-.205.768-.512a9.326 9.326 0 0 1 8.505-5.482c5.175 0 9.376 4.2 9.376 9.375s-4.201 9.376-9.376 9.376c-3.791 0-7.019-2.254-8.505-5.43-.153-.36-.41-.564-.768-.564H.987a.864.864 0 0 0-.87.87c0 .052 0 .154.05.206 1.998 7.787 9.017 13.525 17.368 13.525 9.888 0 17.932-8.043 17.932-17.931C35.467 8.044 27.423 0 17.535 0 9.185 0 2.165 5.738.167 13.423z"/></g><g transform="rotate(10 -161.24 380.617)"><ellipse cx="17.535" cy="17.932" rx="4.252" ry="4.252"/><path d="M.167 13.423c0 .051-.05.154-.05.205 0 .461.358.871.87.871h7.224c.359 0 .615-.205.768-.512a9.326 9.326 0 0 1 8.505-5.482c5.175 0 9.376 4.2 9.376 9.375s-4.201 9.376-9.376 9.376c-3.791 0-7.019-2.254-8.505-5.43-.153-.36-.41-.564-.768-.564H.987a.864.864 0 0 0-.87.87c0 .052 0 .154.05.206 1.998 7.787 9.017 13.525 17.368 13.525 9.888 0 17.932-8.043 17.932-17.931C35.467 8.044 27.423 0 17.535 0 9.185 0 2.165 5.738.167 13.423z"/></g><g transform="rotate(-30 97.99 -187.495)"><ellipse cx="17.535" cy="17.932" rx="4.252" ry="4.252"/><path d="M.167 13.423c0 .051-.05.154-.05.205 0 .461.358.871.87.871h7.224c.359 0 .615-.205.768-.512a9.326 9.326 0 0 1 8.505-5.482c5.175 0 9.376 4.2 9.376 9.375s-4.201 9.376-9.376 9.376c-3.791 0-7.019-2.254-8.505-5.43-.153-.36-.41-.564-.768-.564H.987a.864.864 0 0 0-.87.87c0 .052 0 .154.05.206 1.998 7.787 9.017 13.525 17.368 13.525 9.888 0 17.932-8.043 17.932-17.931C35.467 8.044 27.423 0 17.535 0 9.185 0 2.165 5.738.167 13.423z"/></g><g transform="rotate(20 59.63 538.087)"><ellipse cx="17.535" cy="17.932" rx="4.252" ry="4.252"/><path d="M.167 13.423c0 .051-.05.154-.05.205 0 .461.358.871.87.871h7.224c.359 0 .615-.205.768-.512a9.326 9.326 0 0 1 8.505-5.482c5.175 0 9.376 4.2 9.376 9.375s-4.201 9.376-9.376 9.376c-3.791 0-7.019-2.254-8.505-5.43-.153-.36-.41-.564-.768-.564H.987a.864.864 0 0 0-.87.87c0 .052 0 .154.05.206 1.998 7.787 9.017 13.525 17.368 13.525 9.888 0 17.932-8.043 17.932-17.931C35.467 8.044 27.423 0 17.535 0 9.185 0 2.165 5.738.167 13.423z"/></g><g transform="rotate(-30 157.892 -433.444)"><ellipse cx="17.535" cy="17.932" rx="4.252" ry="4.252"/><path d="M.167 13.423c0 .051-.05.154-.05.205 0 .461.358.871.87.871h7.224c.359 0 .615-.205.768-.512a9.326 9.326 0 0 1 8.505-5.482c5.175 0 9.376 4.2 9.376 9.375s-4.201 9.376-9.376 9.376c-3.791 0-7.019-2.254-8.505-5.43-.153-.36-.41-.564-.768-.564H.987a.864.864 0 0 0-.87.87c0 .052 0 .154.05.206 1.998 7.787 9.017 13.525 17.368 13.525 9.888 0 17.932-8.043 17.932-17.931C35.467 8.044 27.423 0 17.535 0 9.185 0 2.165 5.738.167 13.423z"/></g><g transform="rotate(31 153.35 635.5)"><ellipse cx="17.535" cy="17.932" rx="4.252" ry="4.252"/><path d="M.167 13.423c0 .051-.05.154-.05.205 0 .461.358.871.87.871h7.224c.359 0 .615-.205.768-.512a9.326 9.326 0 0 1 8.505-5.482c5.175 0 9.376 4.2 9.376 9.375s-4.201 9.376-9.376 9.376c-3.791 0-7.019-2.254-8.505-5.43-.153-.36-.41-.564-.768-.564H.987a.864.864 0 0 0-.87.87c0 .052 0 .154.05.206 1.998 7.787 9.017 13.525 17.368 13.525 9.888 0 17.932-8.043 17.932-17.931C35.467 8.044 27.423 0 17.535 0 9.185 0 2.165 5.738.167 13.423z"/></g><g transform="rotate(-46 243.236 -457.272)"><ellipse cx="17.535" cy="17.932" rx="4.252" ry="4.252"/><path d="M.167 13.423c0 .051-.05.154-.05.205 0 .461.358.871.87.871h7.224c.359 0 .615-.205.768-.512a9.326 9.326 0 0 1 8.505-5.482c5.175 0 9.376 4.2 9.376 9.375s-4.201 9.376-9.376 9.376c-3.791 0-7.019-2.254-8.505-5.43-.153-.36-.41-.564-.768-.564H.987a.864.864 0 0 0-.87.87c0 .052 0 .154.05.206 1.998 7.787 9.017 13.525 17.368 13.525 9.888 0 17.932-8.043 17.932-17.931C35.467 8.044 27.423 0 17.535 0 9.185 0 2.165 5.738.167 13.423z"/></g><g transform="rotate(-36 275.427 -732.994)"><ellipse cx="17.535" cy="17.932" rx="4.252" ry="4.252"/><path d="M.167 13.423c0 .051-.05.154-.05.205 0 .461.358.871.87.871h7.224c.359 0 .615-.205.768-.512a9.326 9.326 0 0 1 8.505-5.482c5.175 0 9.376 4.2 9.376 9.375s-4.201 9.376-9.376 9.376c-3.791 0-7.019-2.254-8.505-5.43-.153-.36-.41-.564-.768-.564H.987a.864.864 0 0 0-.87.87c0 .052 0 .154.05.206 1.998 7.787 9.017 13.525 17.368 13.525 9.888 0 17.932-8.043 17.932-17.931C35.467 8.044 27.423 0 17.535 0 9.185 0 2.165 5.738.167 13.423z"/></g><g transform="rotate(34 232.802 910.995)"><ellipse cx="17.535" cy="17.932" rx="4.252" ry="4.252"/><path d="M.167 13.423c0 .051-.05.154-.05.205 0 .461.358.871.87.871h7.224c.359 0 .615-.205.768-.512a9.326 9.326 0 0 1 8.505-5.482c5.175 0 9.376 4.2 9.376 9.375s-4.201 9.376-9.376 9.376c-3.791 0-7.019-2.254-8.505-5.43-.153-.36-.41-.564-.768-.564H.987a.864.864 0 0 0-.87.87c0 .052 0 .154.05.206 1.998 7.787 9.017 13.525 17.368 13.525 9.888 0 17.932-8.043 17.932-17.931C35.467 8.044 27.423 0 17.535 0 9.185 0 2.165 5.738.167 13.423z"/></g><g transform="rotate(20 -144.632 59.514)"><ellipse cx="17.535" cy="17.932" rx="4.252" ry="4.252"/><path d="M.167 13.423c0 .051-.05.154-.05.205 0 .461.358.871.87.871h7.224c.359 0 .615-.205.768-.512a9.326 9.326 0 0 1 8.505-5.482c5.175 0 9.376 4.2 9.376 9.375s-4.201 9.376-9.376 9.376c-3.791 0-7.019-2.254-8.505-5.43-.153-.36-.41-.564-.768-.564H.987a.864.864 0 0 0-.87.87c0 .052 0 .154.05.206 1.998 7.787 9.017 13.525 17.368 13.525 9.888 0 17.932-8.043 17.932-17.931C35.467 8.044 27.423 0 17.535 0 9.185 0 2.165 5.738.167 13.423z"/></g><g transform="rotate(-30 195.622 -141.335)"><ellipse cx="17.535" cy="17.932" rx="4.252" ry="4.252"/><path d="M.167 13.423c0 .051-.05.154-.05.205 0 .461.358.871.87.871h7.224c.359 0 .615-.205.768-.512a9.326 9.326 0 0 1 8.505-5.482c5.175 0 9.376 4.2 9.376 9.375s-4.201 9.376-9.376 9.376c-3.791 0-7.019-2.254-8.505-5.43-.153-.36-.41-.564-.768-.564H.987a.864.864 0 0 0-.87.87c0 .052 0 .154.05.206 1.998 7.787 9.017 13.525 17.368 13.525 9.888 0 17.932-8.043 17.932-17.931C35.467 8.044 27.423 0 17.535 0 9.185 0 2.165 5.738.167 13.423z"/></g><g transform="translate(153 59)"><ellipse cx="17.535" cy="17.932" rx="4.252" ry="4.252"/><path d="M.167 13.423c0 .051-.05.154-.05.205 0 .461.358.871.87.871h7.224c.359 0 .615-.205.768-.512a9.326 9.326 0 0 1 8.505-5.482c5.175 0 9.376 4.2 9.376 9.375s-4.201 9.376-9.376 9.376c-3.791 0-7.019-2.254-8.505-5.43-.153-.36-.41-.564-.768-.564H.987a.864.864 0 0 0-.87.87c0 .052 0 .154.05.206 1.998 7.787 9.017 13.525 17.368 13.525 9.888 0 17.932-8.043 17.932-17.931C35.467 8.044 27.423 0 17.535 0 9.185 0 2.165 5.738.167 13.423z"/></g><g transform="rotate(-30 233.462 -357.195)"><ellipse cx="17.535" cy="17.932" rx="4.252" ry="4.252"/><path d="M.167 13.423c0 .051-.05.154-.05.205 0 .461.358.871.87.871h7.224c.359 0 .615-.205.768-.512a9.326 9.326 0 0 1 8.505-5.482c5.175 0 9.376 4.2 9.376 9.375s-4.201 9.376-9.376 9.376c-3.791 0-7.019-2.254-8.505-5.43-.153-.36-.41-.564-.768-.564H.987a.864.864 0 0 0-.87.87c0 .052 0 .154.05.206 1.998 7.787 9.017 13.525 17.368 13.525 9.888 0 17.932-8.043 17.932-17.931C35.467 8.044 27.423 0 17.535 0 9.185 0 2.165 5.738.167 13.423z"/></g><g transform="rotate(-10 625.562 -1447.052)"><ellipse cx="17.535" cy="17.932" rx="4.252" ry="4.252"/><path d="M.167 13.423c0 .051-.05.154-.05.205 0 .461.358.871.87.871h7.224c.359 0 .615-.205.768-.512a9.326 9.326 0 0 1 8.505-5.482c5.175 0 9.376 4.2 9.376 9.375s-4.201 9.376-9.376 9.376c-3.791 0-7.019-2.254-8.505-5.43-.153-.36-.41-.564-.768-.564H.987a.864.864 0 0 0-.87.87c0 .052 0 .154.05.206 1.998 7.787 9.017 13.525 17.368 13.525 9.888 0 17.932-8.043 17.932-17.931C35.467 8.044 27.423 0 17.535 0 9.185 0 2.165 5.738.167 13.423z"/></g><g transform="rotate(-10 410.461 -1621.358)"><ellipse cx="17.535" cy="17.932" rx="4.252" ry="4.252"/><path d="M.167 13.423c0 .051-.05.154-.05.205 0 .461.358.871.87.871h7.224c.359 0 .615-.205.768-.512a9.326 9.326 0 0 1 8.505-5.482c5.175 0 9.376 4.2 9.376 9.375s-4.201 9.376-9.376 9.376c-3.791 0-7.019-2.254-8.505-5.43-.153-.36-.41-.564-.768-.564H.987a.864.864 0 0 0-.87.87c0 .052 0 .154.05.206 1.998 7.787 9.017 13.525 17.368 13.525 9.888 0 17.932-8.043 17.932-17.931C35.467 8.044 27.423 0 17.535 0 9.185 0 2.165 5.738.167 13.423z"/></g><g transform="rotate(-36 287.792 -519.716)"><ellipse cx="17.535" cy="17.932" rx="4.252" ry="4.252"/><path d="M.167 13.423c0 .051-.05.154-.05.205 0 .461.358.871.87.871h7.224c.359 0 .615-.205.768-.512a9.326 9.326 0 0 1 8.505-5.482c5.175 0 9.376 4.2 9.376 9.375s-4.201 9.376-9.376 9.376c-3.791 0-7.019-2.254-8.505-5.43-.153-.36-.41-.564-.768-.564H.987a.864.864 0 0 0-.87.87c0 .052 0 .154.05.206 1.998 7.787 9.017 13.525 17.368 13.525 9.888 0 17.932-8.043 17.932-17.931C35.467 8.044 27.423 0 17.535 0 9.185 0 2.165 5.738.167 13.423z"/></g><g transform="rotate(24 118.532 1095.69)"><ellipse cx="17.535" cy="17.932" rx="4.252" ry="4.252"/><path d="M.167 13.423c0 .051-.05.154-.05.205 0 .461.358.871.87.871h7.224c.359 0 .615-.205.768-.512a9.326 9.326 0 0 1 8.505-5.482c5.175 0 9.376 4.2 9.376 9.375s-4.201 9.376-9.376 9.376c-3.791 0-7.019-2.254-8.505-5.43-.153-.36-.41-.564-.768-.564H.987a.864.864 0 0 0-.87.87c0 .052 0 .154.05.206 1.998 7.787 9.017 13.525 17.368 13.525 9.888 0 17.932-8.043 17.932-17.931C35.467 8.044 27.423 0 17.535 0 9.185 0 2.165 5.738.167 13.423z"/></g><g transform="rotate(4 -738.769 7193.745)"><ellipse cx="17.535" cy="17.932" rx="4.252" ry="4.252"/><path d="M.167 13.423c0 .051-.05.154-.05.205 0 .461.358.871.87.871h7.224c.359 0 .615-.205.768-.512a9.326 9.326 0 0 1 8.505-5.482c5.175 0 9.376 4.2 9.376 9.375s-4.201 9.376-9.376 9.376c-3.791 0-7.019-2.254-8.505-5.43-.153-.36-.41-.564-.768-.564H.987a.864.864 0 0 0-.87.87c0 .052 0 .154.05.206 1.998 7.787 9.017 13.525 17.368 13.525 9.888 0 17.932-8.043 17.932-17.931C35.467 8.044 27.423 0 17.535 0 9.185 0 2.165 5.738.167 13.423z"/></g><g transform="rotate(-36 416.607 -806.213)"><ellipse cx="17.535" cy="17.932" rx="4.252" ry="4.252"/><path d="M.167 13.423c0 .051-.05.154-.05.205 0 .461.358.871.87.871h7.224c.359 0 .615-.205.768-.512a9.326 9.326 0 0 1 8.505-5.482c5.175 0 9.376 4.2 9.376 9.375s-4.201 9.376-9.376 9.376c-3.791 0-7.019-2.254-8.505-5.43-.153-.36-.41-.564-.768-.564H.987a.864.864 0 0 0-.87.87c0 .052 0 .154.05.206 1.998 7.787 9.017 13.525 17.368 13.525 9.888 0 17.932-8.043 17.932-17.931C35.467 8.044 27.423 0 17.535 0 9.185 0 2.165 5.738.167 13.423z"/></g><g transform="rotate(20 -207.865 181.768)"><ellipse cx="17.535" cy="17.932" rx="4.252" ry="4.252"/><path d="M.167 13.423c0 .051-.05.154-.05.205 0 .461.358.871.87.871h7.224c.359 0 .615-.205.768-.512a9.326 9.326 0 0 1 8.505-5.482c5.175 0 9.376 4.2 9.376 9.375s-4.201 9.376-9.376 9.376c-3.791 0-7.019-2.254-8.505-5.43-.153-.36-.41-.564-.768-.564H.987a.864.864 0 0 0-.87.87c0 .052 0 .154.05.206 1.998 7.787 9.017 13.525 17.368 13.525 9.888 0 17.932-8.043 17.932-17.931C35.467 8.044 27.423 0 17.535 0 9.185 0 2.165 5.738.167 13.423z"/></g><g transform="rotate(-20 375.455 36.801)"><ellipse cx="17.535" cy="17.932" rx="4.252" ry="4.252"/><path d="M.167 13.423c0 .051-.05.154-.05.205 0 .461.358.871.87.871h7.224c.359 0 .615-.205.768-.512a9.326 9.326 0 0 1 8.505-5.482c5.175 0 9.376 4.2 9.376 9.375s-4.201 9.376-9.376 9.376c-3.791 0-7.019-2.254-8.505-5.43-.153-.36-.41-.564-.768-.564H.987a.864.864 0 0 0-.87.87c0 .052 0 .154.05.206 1.998 7.787 9.017 13.525 17.368 13.525 9.888 0 17.932-8.043 17.932-17.931C35.467 8.044 27.423 0 17.535 0 9.185 0 2.165 5.738.167 13.423z"/></g><g transform="translate(74 126)"><ellipse cx="17.535" cy="17.932" rx="4.252" ry="4.252"/><path d="M.167 13.423c0 .051-.05.154-.05.205 0 .461.358.871.87.871h7.224c.359 0 .615-.205.768-.512a9.326 9.326 0 0 1 8.505-5.482c5.175 0 9.376 4.2 9.376 9.375s-4.201 9.376-9.376 9.376c-3.791 0-7.019-2.254-8.505-5.43-.153-.36-.41-.564-.768-.564H.987a.864.864 0 0 0-.87.87c0 .052 0 .154.05.206 1.998 7.787 9.017 13.525 17.368 13.525 9.888 0 17.932-8.043 17.932-17.931C35.467 8.044 27.423 0 17.535 0 9.185 0 2.165 5.738.167 13.423z"/></g><g transform="rotate(20 -228.75 428.126)"><ellipse cx="17.535" cy="17.932" rx="4.252" ry="4.252"/><path d="M.167 13.423c0 .051-.05.154-.05.205 0 .461.358.871.87.871h7.224c.359 0 .615-.205.768-.512a9.326 9.326 0 0 1 8.505-5.482c5.175 0 9.376 4.2 9.376 9.375s-4.201 9.376-9.376 9.376c-3.791 0-7.019-2.254-8.505-5.43-.153-.36-.41-.564-.768-.564H.987a.864.864 0 0 0-.87.87c0 .052 0 .154.05.206 1.998 7.787 9.017 13.525 17.368 13.525 9.888 0 17.932-8.043 17.932-17.931C35.467 8.044 27.423 0 17.535 0 9.185 0 2.165 5.738.167 13.423z"/></g><g transform="rotate(20 -179.064 577.251)"><ellipse cx="17.535" cy="17.932" rx="4.252" ry="4.252"/><path d="M.167 13.423c0 .051-.05.154-.05.205 0 .461.358.871.87.871h7.224c.359 0 .615-.205.768-.512a9.326 9.326 0 0 1 8.505-5.482c5.175 0 9.376 4.2 9.376 9.375s-4.201 9.376-9.376 9.376c-3.791 0-7.019-2.254-8.505-5.43-.153-.36-.41-.564-.768-.564H.987a.864.864 0 0 0-.87.87c0 .052 0 .154.05.206 1.998 7.787 9.017 13.525 17.368 13.525 9.888 0 17.932-8.043 17.932-17.931C35.467 8.044 27.423 0 17.535 0 9.185 0 2.165 5.738.167 13.423z"/></g><g transform="rotate(-30 372.074 -240.054)"><ellipse cx="17.535" cy="17.932" rx="4.252" ry="4.252"/><path d="M.167 13.423c0 .051-.05.154-.05.205 0 .461.358.871.87.871h7.224c.359 0 .615-.205.768-.512a9.326 9.326 0 0 1 8.505-5.482c5.175 0 9.376 4.2 9.376 9.375s-4.201 9.376-9.376 9.376c-3.791 0-7.019-2.254-8.505-5.43-.153-.36-.41-.564-.768-.564H.987a.864.864 0 0 0-.87.87c0 .052 0 .154.05.206 1.998 7.787 9.017 13.525 17.368 13.525 9.888 0 17.932-8.043 17.932-17.931C35.467 8.044 27.423 0 17.535 0 9.185 0 2.165 5.738.167 13.423z"/></g><g transform="rotate(-30 368.485 -361.016)"><ellipse cx="17.535" cy="17.932" rx="4.252" ry="4.252"/><path d="M.167 13.423c0 .051-.05.154-.05.205 0 .461.358.871.87.871h7.224c.359 0 .615-.205.768-.512a9.326 9.326 0 0 1 8.505-5.482c5.175 0 9.376 4.2 9.376 9.375s-4.201 9.376-9.376 9.376c-3.791 0-7.019-2.254-8.505-5.43-.153-.36-.41-.564-.768-.564H.987a.864.864 0 0 0-.87.87c0 .052 0 .154.05.206 1.998 7.787 9.017 13.525 17.368 13.525 9.888 0 17.932-8.043 17.932-17.931C35.467 8.044 27.423 0 17.535 0 9.185 0 2.165 5.738.167 13.423z"/></g><g transform="rotate(50 23.896 387.954)"><ellipse cx="17.535" cy="17.932" rx="4.252" ry="4.252"/><path d="M.167 13.423c0 .051-.05.154-.05.205 0 .461.358.871.87.871h7.224c.359 0 .615-.205.768-.512a9.326 9.326 0 0 1 8.505-5.482c5.175 0 9.376 4.2 9.376 9.375s-4.201 9.376-9.376 9.376c-3.791 0-7.019-2.254-8.505-5.43-.153-.36-.41-.564-.768-.564H.987a.864.864 0 0 0-.87.87c0 .052 0 .154.05.206 1.998 7.787 9.017 13.525 17.368 13.525 9.888 0 17.932-8.043 17.932-17.931C35.467 8.044 27.423 0 17.535 0 9.185 0 2.165 5.738.167 13.423z"/></g><g transform="rotate(-50 266.214 -286.121)"><ellipse cx="17.535" cy="17.932" rx="4.252" ry="4.252"/><path d="M.167 13.423c0 .051-.05.154-.05.205 0 .461.358.871.87.871h7.224c.359 0 .615-.205.768-.512a9.326 9.326 0 0 1 8.505-5.482c5.175 0 9.376 4.2 9.376 9.375s-4.201 9.376-9.376 9.376c-3.791 0-7.019-2.254-8.505-5.43-.153-.36-.41-.564-.768-.564H.987a.864.864 0 0 0-.87.87c0 .052 0 .154.05.206 1.998 7.787 9.017 13.525 17.368 13.525 9.888 0 17.932-8.043 17.932-17.931C35.467 8.044 27.423 0 17.535 0 9.185 0 2.165 5.738.167 13.423z"/></g><g transform="rotate(24 -71.312 919.686)"><ellipse cx="17.535" cy="17.932" rx="4.252" ry="4.252"/><path d="M.167 13.423c0 .051-.05.154-.05.205 0 .461.358.871.87.871h7.224c.359 0 .615-.205.768-.512a9.326 9.326 0 0 1 8.505-5.482c5.175 0 9.376 4.2 9.376 9.375s-4.201 9.376-9.376 9.376c-3.791 0-7.019-2.254-8.505-5.43-.153-.36-.41-.564-.768-.564H.987a.864.864 0 0 0-.87.87c0 .052 0 .154.05.206 1.998 7.787 9.017 13.525 17.368 13.525 9.888 0 17.932-8.043 17.932-17.931C35.467 8.044 27.423 0 17.535 0 9.185 0 2.165 5.738.167 13.423z"/></g><g transform="rotate(24 10.644 1027.654)"><ellipse cx="17.535" cy="17.932" rx="4.252" ry="4.252"/><path d="M.167 13.423c0 .051-.05.154-.05.205 0 .461.358.871.87.871h7.224c.359 0 .615-.205.768-.512a9.326 9.326 0 0 1 8.505-5.482c5.175 0 9.376 4.2 9.376 9.375s-4.201 9.376-9.376 9.376c-3.791 0-7.019-2.254-8.505-5.43-.153-.36-.41-.564-.768-.564H.987a.864.864 0 0 0-.87.87c0 .052 0 .154.05.206 1.998 7.787 9.017 13.525 17.368 13.525 9.888 0 17.932-8.043 17.932-17.931C35.467 8.044 27.423 0 17.535 0 9.185 0 2.165 5.738.167 13.423z"/></g><g transform="rotate(64 103.676 408.568)"><ellipse cx="17.535" cy="17.932" rx="4.252" ry="4.252"/><path d="M.167 13.423c0 .051-.05.154-.05.205 0 .461.358.871.87.871h7.224c.359 0 .615-.205.768-.512a9.326 9.326 0 0 1 8.505-5.482c5.175 0 9.376 4.2 9.376 9.375s-4.201 9.376-9.376 9.376c-3.791 0-7.019-2.254-8.505-5.43-.153-.36-.41-.564-.768-.564H.987a.864.864 0 0 0-.87.87c0 .052 0 .154.05.206 1.998 7.787 9.017 13.525 17.368 13.525 9.888 0 17.932-8.043 17.932-17.931C35.467 8.044 27.423 0 17.535 0 9.185 0 2.165 5.738.167 13.423z"/></g><g transform="rotate(-36 414.311 -636.828)"><ellipse cx="17.535" cy="17.932" rx="4.252" ry="4.252"/><path d="M.167 13.423c0 .051-.05.154-.05.205 0 .461.358.871.87.871h7.224c.359 0 .615-.205.768-.512a9.326 9.326 0 0 1 8.505-5.482c5.175 0 9.376 4.2 9.376 9.375s-4.201 9.376-9.376 9.376c-3.791 0-7.019-2.254-8.505-5.43-.153-.36-.41-.564-.768-.564H.987a.864.864 0 0 0-.87.87c0 .052 0 .154.05.206 1.998 7.787 9.017 13.525 17.368 13.525 9.888 0 17.932-8.043 17.932-17.931C35.467 8.044 27.423 0 17.535 0 9.185 0 2.165 5.738.167 13.423z"/></g><g transform="rotate(-36 458.161 -724.659)"><ellipse cx="17.535" cy="17.932" rx="4.252" ry="4.252"/><path d="M.167 13.423c0 .051-.05.154-.05.205 0 .461.358.871.87.871h7.224c.359 0 .615-.205.768-.512a9.326 9.326 0 0 1 8.505-5.482c5.175 0 9.376 4.2 9.376 9.375s-4.201 9.376-9.376 9.376c-3.791 0-7.019-2.254-8.505-5.43-.153-.36-.41-.564-.768-.564H.987a.864.864 0 0 0-.87.87c0 .052 0 .154.05.206 1.998 7.787 9.017 13.525 17.368 13.525 9.888 0 17.932-8.043 17.932-17.931C35.467 8.044 27.423 0 17.535 0 9.185 0 2.165 5.738.167 13.423z"/></g></g></svg>