<svg xmlns="http://www.w3.org/2000/svg" viewBox="0 0 605 180"><title>full-color-fabric</title><g fill-rule="evenodd"><path d="M55.215 26.275c.231.765.388 1.222.314 1.868a1.22 1.22 0 0 1-.714.988c-.347.15-.741.192-1.127.253-4.463.703-8.84-.07-13.22-.78-1.043-.17-3.315-.646-4.572-.86 1.226-2.658 1.56-4.059 1.56-4.059 5.01.97 10.857 2.116 15.897 1.468.803-.103 1.357-.54 1.862 1.122M44.802 17.77c-1.368-.2-3.722-.484-5.063-.664-3.407-.457-6.796-.523-10.18.277-1.832.434-2.943-1.018-2.563-3.086.07-.376.31-.735.673-.855 6.02-1.976 11.984-1.032 18.908.509-1.064 1.693-1.775 3.82-1.775 3.82M43.817 23.536c1.394-5.33 5.537-13.19 8.734-15.238.373-.239.849-.257 1.24-.047.626.338 1.093.906 1.546 1.468.438.543.42 1.232-.054 1.717-3.288 3.364-5.556 8.235-7.175 12.572-1.324.109-4.291-.472-4.291-.472M38.276 18.166c-1.995 5.44-3.96 11.692-7.686 15.675a1.223 1.223 0 0 1-1.232.352c-.594-.176-.966-.495-1.341-.798-1.31-1.06-1.391-1.544-.339-2.847 2.472-3.057 3.942-6.616 5.245-10.266.198-.552.601-1.628.824-2.22 1.618-.434 4.529.104 4.529.104M38.188 34.041c.778-1.204 2.093-2.854 2.842-4.117 1.351.273 4.333.649 4.333.649-.923 1.873-2.457 4.754-3.877 6.15a1.213 1.213 0 0 1-1.308.245c-.853-.35-1.523-.857-2.008-1.641a1.207 1.207 0 0 1 .018-1.286M36.971 11.248c1.285-2.334 2.989-4.513 4.323-5.718.367-.331.91-.401 1.348-.172.834.434 1.414 1.02 1.805 1.8.193.385.182.842-.043 1.21-.653 1.073-2.12 2.462-2.85 3.453 0 0-2.564-.46-4.583-.573M54.412 14.332c3.265-.504 4.45-.72 4.057 3.09-.046.447-.407.658-.838.787-1.378.414-4.247.416-5.84.411 1.32-2.788 2.621-4.288 2.621-4.288M28.456 27.713c-.767.192-2.135.717-2.91.698a1.165 1.165 0 0 1-.895-.462c-.534-.707-.735-1.507-.762-2.412a1.22 1.22 0 0 1 .727-1.15c1.36-.596 4.23-.964 5.81-1.115-.848 2.715-1.97 4.441-1.97 4.441M85.686 67.158c-.314.735-.488 1.185-.96 1.633a1.22 1.22 0 0 1-1.183.298c-.361-.108-.69-.33-1.025-.531-3.87-2.33-6.726-5.736-9.625-9.095-.69-.8-2.125-2.625-2.95-3.597 2.647-1.25 3.804-2.107 3.804-2.107 3.213 3.963 6.957 8.6 11.234 11.342.681.438 1.387.46.705 2.057M83.176 53.95c-.92-1.033-2.54-2.764-3.452-3.763-2.315-2.54-4.87-4.77-7.976-6.331-1.682-.846-1.6-2.672.02-4.013.295-.243.71-.364 1.065-.222 5.882 2.356 9.844 6.913 14.158 12.544-1.904.612-3.815 1.784-3.815 1.784M78.715 57.733c4.494-3.187 12.721-6.545 16.485-6.058.44.057.816.348.98.76.263.662.256 1.397.241 2.119-.013.697-.47 1.214-1.145 1.281-4.68.463-9.55 2.737-13.577 5.018-1.084-.768-2.984-3.12-2.984-3.12M77.922 50.058c-5.025 2.885-10.548 6.411-15.963 7.067a1.223 1.223 0 0 1-1.17-.522c-.342-.516-.423-1-.515-1.474-.321-1.653-.073-2.077 1.571-2.398 3.859-.753 7.272-2.535 10.617-4.492.506-.297 1.506-.861 2.058-1.172 1.518.708 3.402 2.99 3.402 2.99M67.65 62.163c1.37-.423 3.438-.842 4.824-1.328.86 1.078 2.903 3.283 2.903 3.283-1.912.841-4.939 2.062-6.924 2.219a1.213 1.213 0 0 1-1.16-.653c-.428-.817-.615-1.636-.482-2.548.066-.458.398-.837.84-.973M81.37 43.92c2.484-.962 5.19-1.537 6.987-1.602.494-.018.954.278 1.143.735.36.868.427 1.69.225 2.54-.1.418-.402.761-.81.899-1.19.401-3.206.523-4.403.812 0 0-1.669-2-3.142-3.384M92.748 57.493c2.824 1.713 3.872 2.31 1.121 4.975-.322.312-.735.242-1.147.064-1.322-.569-3.522-2.411-4.738-3.438 2.803-1.288 4.764-1.6 4.764-1.6M64.263 51.06c-.711-.347-2.096-.824-2.678-1.336a1.165 1.165 0 0 1-.389-.93c.046-.885.406-1.626.967-2.337a1.22 1.22 0 0 1 1.297-.414c1.425.418 3.859 1.98 5.167 2.881-2.395 1.534-4.364 2.135-4.364 2.135M145.215 35.275c.231.765.388 1.222.314 1.868a1.22 1.22 0 0 1-.714.988c-.347.15-.741.192-1.127.253-4.463.703-8.84-.07-13.22-.78-1.043-.17-3.315-.646-4.572-.86 1.226-2.658 1.56-4.059 1.56-4.059 5.01.97 10.857 2.116 15.897 1.468.803-.103 1.357-.54 1.862 1.122M134.802 26.77c-1.368-.2-3.722-.484-5.063-.664-3.407-.457-6.796-.523-10.18.277-1.832.434-2.943-1.018-2.563-3.086.07-.376.31-.735.673-.855 6.02-1.976 11.984-1.032 18.908.509-1.064 1.693-1.775 3.82-1.775 3.82M133.817 32.536c1.394-5.33 5.537-13.19 8.734-15.238.373-.239.849-.257 1.24-.047.626.338 1.093.906 1.546 1.468.438.543.42 1.232-.054 1.717-3.288 3.364-5.556 8.235-7.175 12.572-1.324.109-4.291-.472-4.291-.472M128.276 27.166c-1.995 5.44-3.96 11.692-7.686 15.675a1.223 1.223 0 0 1-1.232.352c-.594-.176-.966-.495-1.341-.798-1.31-1.06-1.391-1.544-.339-2.847 2.472-3.057 3.942-6.616 5.245-10.266.198-.552.601-1.628.824-2.22 1.618-.434 4.529.104 4.529.104M128.188 43.041c.778-1.204 2.093-2.854 2.842-4.117 1.351.273 4.333.649 4.333.649-.923 1.873-2.457 4.754-3.877 6.15a1.213 1.213 0 0 1-1.308.245c-.853-.35-1.523-.857-2.008-1.641a1.207 1.207 0 0 1 .018-1.286M126.971 20.248c1.285-2.334 2.989-4.513 4.323-5.718.367-.331.91-.401 1.348-.172.834.434 1.414 1.02 1.805 1.8.193.385.182.842-.043 1.21-.653 1.073-2.12 2.462-2.85 3.453 0 0-2.564-.46-4.583-.573M144.412 23.332c3.265-.504 4.45-.72 4.057 3.09-.046.447-.407.658-.838.787-1.378.414-4.247.416-5.84.411 1.32-2.788 2.621-4.288 2.621-4.288M118.456 36.713c-.767.192-2.135.717-2.91.698a1.165 1.165 0 0 1-.895-.462c-.534-.707-.735-1.507-.762-2.412a1.22 1.22 0 0 1 .727-1.15c1.36-.596 4.23-.964 5.81-1.115-.848 2.715-1.97 4.441-1.97 4.441M203.544 48.753c-.437.669-.686 1.082-1.23 1.441a1.22 1.22 0 0 1-1.215.088c-.337-.169-.623-.444-.918-.7-3.407-2.968-5.628-6.817-7.899-10.629-.541-.908-1.637-2.954-2.282-4.054 2.825-.77 4.113-1.415 4.113-1.415 2.476 4.461 5.358 9.677 9.094 13.121.595.549 1.286.693.337 2.148M203.366 35.31c-.726-1.177-2.022-3.163-2.746-4.306-1.84-2.904-3.968-5.543-6.755-7.62-1.51-1.125-1.113-2.909.716-3.947.333-.19.762-.236 1.087-.035 5.384 3.342 8.494 8.518 11.765 14.812-1.981.273-4.067 1.095-4.067 1.095M198.316 38.261c4.98-2.359 13.664-4.237 17.287-3.104.423.133.743.485.832.92.144.696.01 1.42-.13 2.128-.134.684-.673 1.114-1.35 1.062-4.69-.357-9.88 1.038-14.242 2.584-.935-.944-2.397-3.59-2.397-3.59M198.868 30.564c-5.45 1.97-11.502 4.482-16.948 4.189a1.223 1.223 0 0 1-1.062-.718c-.247-.568-.242-1.058-.25-1.54-.03-1.685.288-2.059 1.963-2.09 3.93-.072 7.602-1.233 11.235-2.58.55-.204 1.633-.586 2.23-.797 1.373.96 2.832 3.536 2.832 3.536M186.65 40.702c1.422-.179 3.532-.232 4.98-.47.66 1.21 2.29 3.737 2.29 3.737-2.03.497-5.222 1.173-7.204.982a1.213 1.213 0 0 1-1.03-.844c-.28-.878-.32-1.717-.032-2.593.145-.439.537-.755.996-.812M203.329 25.118c2.614-.516 5.378-.611 7.159-.364.49.068.892.44.998.922.203.918.128 1.739-.219 2.54-.17.395-.528.68-.954.745-1.242.189-3.248-.041-4.478.035 0 0-1.296-2.258-2.506-3.878M212.177 40.461c2.484 2.177 3.413 2.947.24 5.094-.371.252-.765.11-1.14-.136-1.204-.79-3.05-2.986-4.07-4.209 2.984-.781 4.97-.749 4.97-.749M185.242 29.179c-.64-.465-1.92-1.175-2.405-1.78a1.165 1.165 0 0 1-.221-.983c.198-.864.682-1.532 1.357-2.134a1.22 1.22 0 0 1 1.35-.183c1.33.66 3.456 2.62 4.588 3.735-2.625 1.095-4.669 1.345-4.669 1.345M276.215 32.275c.231.765.388 1.222.314 1.868a1.22 1.22 0 0 1-.714.988c-.347.15-.741.192-1.127.253-4.463.703-8.84-.07-13.22-.78-1.043-.17-3.315-.646-4.572-.86 1.226-2.658 1.56-4.059 1.56-4.059 5.01.97 10.857 2.116 15.897 1.468.803-.103 1.357-.54 1.862 1.122M265.802 23.77c-1.368-.2-3.722-.484-5.063-.664-3.407-.457-6.796-.523-10.18.277-1.832.434-2.943-1.018-2.563-3.086.07-.376.31-.735.673-.855 6.02-1.976 11.984-1.032 18.908.509-1.064 1.693-1.775 3.82-1.775 3.82M264.817 29.536c1.394-5.33 5.537-13.19 8.734-15.238.373-.239.849-.257 1.24-.047.626.338 1.093.906 1.546 1.468.438.543.42 1.232-.054 1.717-3.288 3.364-5.556 8.235-7.175 12.572-1.324.109-4.291-.472-4.291-.472M259.276 24.166c-1.995 5.44-3.96 11.692-7.686 15.675a1.223 1.223 0 0 1-1.232.352c-.594-.176-.966-.495-1.341-.798-1.31-1.06-1.391-1.544-.339-2.847 2.472-3.057 3.942-6.616 5.245-10.266.198-.552.601-1.628.824-2.22 1.618-.434 4.529.104 4.529.104M259.188 40.041c.778-1.204 2.093-2.854 2.842-4.117 1.351.273 4.333.649 4.333.649-.923 1.873-2.457 4.754-3.877 6.15a1.213 1.213 0 0 1-1.308.245c-.853-.35-1.523-.857-2.008-1.641a1.207 1.207 0 0 1 .018-1.286M257.971 17.248c1.285-2.334 2.989-4.513 4.323-5.718.367-.331.91-.401 1.348-.172.834.434 1.414 1.02 1.805 1.8.193.385.182.842-.043 1.21-.653 1.073-2.12 2.462-2.85 3.453 0 0-2.564-.46-4.583-.573M275.412 20.332c3.265-.504 4.45-.72 4.057 3.09-.046.447-.407.658-.838.787-1.378.414-4.247.416-5.84.411 1.32-2.788 2.621-4.288 2.621-4.288M249.456 33.713c-.767.192-2.135.717-2.91.698a1.165 1.165 0 0 1-.895-.462c-.534-.707-.735-1.507-.762-2.412a1.22 1.22 0 0 1 .727-1.15c1.36-.596 4.23-.964 5.81-1.115-.848 2.715-1.97 4.441-1.97 4.441"/><g><path d="M357.827 50.848c-.556.573-.88.931-1.482 1.18a1.22 1.22 0 0 1-1.21-.146c-.298-.23-.527-.554-.767-.862-2.779-3.563-4.224-7.765-5.726-11.94-.358-.996-1.043-3.213-1.466-4.416 2.92-.217 4.307-.604 4.307-.604 1.58 4.852 3.413 10.522 6.423 14.615.48.653 1.13.926-.079 2.173M360.218 37.617c-.489-1.293-1.382-3.49-1.874-4.75-1.252-3.201-2.838-6.198-5.178-8.769-1.267-1.392-.536-3.068 1.457-3.738.362-.122.793-.086 1.073.174 4.648 4.307 6.713 9.981 8.723 16.784-1.997-.11-4.201.3-4.201.3M354.697 39.551c5.338-1.365 14.222-1.552 17.561.252.39.21.637.617.642 1.06.009.713-.262 1.396-.533 2.065-.263.646-.874.966-1.528.786-4.537-1.246-9.897-.867-14.474-.182-.738-1.104-1.668-3.98-1.668-3.98M356.708 32.101c-5.726.893-12.146 2.205-17.436.878a1.223 1.223 0 0 1-.906-.907c-.134-.605-.035-1.085.048-1.56.293-1.66.677-1.966 2.326-1.676 3.872.679 7.698.24 11.522-.39.579-.095 1.715-.264 2.341-.356 1.164 1.205 2.105 4.011 2.105 4.011M342.78 39.72c1.43.097 3.51.448 4.979.49.416 1.315 1.533 4.105 1.533 4.105-2.086.1-5.35.156-7.259-.41a1.213 1.213 0 0 1-.848-1.025c-.108-.915.012-1.747.462-2.551a1.207 1.207 0 0 1 1.133-.608M362.126 27.606c2.664-.007 5.396.426 7.096 1.009.468.16.792.601.805 1.096.024.94-.207 1.73-.7 2.45a1.248 1.248 0 0 1-1.079.55c-1.255-.051-3.18-.66-4.402-.82 0 0-.841-2.464-1.72-4.285M367.884 44.356c2.023 2.61 2.787 3.543-.736 5.046-.413.176-.773-.037-1.094-.351-1.03-1.005-2.424-3.513-3.191-4.908 3.078-.198 5.02.213 5.02.213M343.597 28.141c-.54-.578-1.662-1.52-2.022-2.206a1.165 1.165 0 0 1-.03-1.007c.36-.81.962-1.373 1.74-1.836a1.22 1.22 0 0 1 1.36.078c1.18.901 2.893 3.232 3.79 4.542-2.785.574-4.838.43-4.838.43"/></g><g><path d="M443.2 35.736c.433.67.71 1.067.817 1.71a1.22 1.22 0 0 1-.414 1.146c-.292.239-.66.388-1.014.553-4.096 1.906-8.516 2.369-12.922 2.893-1.05.125-3.365.294-4.632.435.445-2.894.38-4.332.38-4.332 5.083-.448 11.02-.959 15.686-2.97.743-.321 1.156-.894 2.099.565M430.846 30.43c-1.37.185-3.711.561-5.05.758-3.4.5-6.677 1.37-9.708 3.072-1.642.921-3.11-.167-3.315-2.26-.037-.381.094-.792.41-1.007 5.243-3.56 11.236-4.296 18.317-4.724-.557 1.921-.654 4.161-.654 4.161M431.489 36.244c-.13-5.508 1.687-14.206 4.195-17.054a1.224 1.224 0 0 1 1.179-.387c.695.152 1.3.57 1.891.984.57.402.744 1.069.422 1.666-2.234 4.14-3.07 9.447-3.433 14.062-1.242.47-4.254.73-4.254.73M424.682 32.61c-.418 5.78-.583 12.33-3.067 17.186-.21.41-.627.683-1.087.678-.62-.005-1.066-.21-1.51-.398-1.55-.658-1.763-1.1-1.11-2.643 1.533-3.62 1.965-7.446 2.212-11.314.038-.585.13-1.73.18-2.362 1.436-.862 4.382-1.148 4.382-1.148M428.973 47.894c.416-1.371 1.225-3.32 1.597-4.74 1.375-.111 4.345-.572 4.345-.572-.371 2.056-1.052 5.248-2.033 6.981a1.213 1.213 0 0 1-1.19.596c-.916-.1-1.699-.404-2.381-1.024a1.207 1.207 0 0 1-.338-1.24M421.521 26.32c.592-2.599 1.629-5.163 2.58-6.689.26-.42.764-.636 1.248-.537.92.188 1.64.59 2.23 1.233.293.317.408.76.294 1.175-.333 1.212-1.36 2.95-1.79 4.105 0 0-2.59.265-4.562.712M439.137 24.477c2.999-1.384 4.08-1.92 4.75 1.852.08.442-.21.744-.587.987-1.211.778-3.969 1.571-5.5 2.005.5-3.044 1.337-4.844 1.337-4.844M417.874 44.494c-.684.396-1.854 1.277-2.605 1.473-.339.089-.707.013-.987-.198-.709-.532-1.122-1.245-1.397-2.108-.15-.471 0-.99.381-1.306 1.144-.948 3.8-2.093 5.278-2.673-.067 2.843-.67 4.812-.67 4.812"/></g><g><path d="M522.765 29.232c.31.736.514 1.175.508 1.825a1.22 1.22 0 0 1-.607 1.058c-.329.184-.717.268-1.094.368-4.365 1.166-8.798.854-13.228.606-1.056-.06-3.365-.295-4.638-.376.941-2.773 1.127-4.2 1.127-4.2 5.084.441 11.02.969 15.963-.202.788-.187 1.294-.68 1.97.921M511.52 21.862c-1.38-.056-3.752-.092-5.104-.13-3.436-.1-6.814.19-10.095 1.339-1.776.622-3.034-.705-2.872-2.802.03-.381.23-.763.58-.92 5.78-2.595 11.81-2.28 18.858-1.47-.882 1.794-1.366 3.983-1.366 3.983M511.144 27.7c.829-5.447 4.128-13.698 7.093-16.067a1.224 1.224 0 0 1 1.228-.177c.658.27 1.182.787 1.691 1.298.493.494.548 1.181.127 1.714-2.92 3.689-4.665 8.77-5.823 13.252-1.305.247-4.316-.02-4.316-.02M505.072 22.938c-1.416 5.62-2.716 12.042-6.005 16.392a1.223 1.223 0 0 1-1.189.48c-.609-.113-1.013-.391-1.417-.654-1.413-.918-1.545-1.39-.634-2.796 2.138-3.299 3.228-6.992 4.143-10.758.138-.57.427-1.681.587-2.295 1.564-.6 4.515-.37 4.515-.37M506.643 38.736c.648-1.279 1.784-3.057 2.397-4.392 1.372.13 4.377.192 4.377.192-.722 1.96-1.947 4.985-3.213 6.522a1.213 1.213 0 0 1-1.276.38c-.884-.258-1.603-.693-2.168-1.422a1.207 1.207 0 0 1-.117-1.28M503.051 16.194c1.034-2.455 2.5-4.8 3.701-6.138.33-.368.863-.494 1.323-.312.874.345 1.513.866 1.983 1.602.232.362.269.818.085 1.207-.539 1.136-1.852 2.67-2.475 3.732 0 0-2.597-.189-4.617-.09M520.719 17.439c3.194-.843 4.35-1.182 4.357 2.648.001.45-.336.697-.75.87-1.328.556-4.181.859-5.765 1.02 1.02-2.91 2.158-4.538 2.158-4.538M496.304 33.46c-.743.27-2.049.935-2.822.998-.35.029-.699-.11-.938-.366-.605-.648-.888-1.422-1.01-2.32a1.22 1.22 0 0 1 .603-1.22c1.29-.734 4.105-1.4 5.662-1.715-.56 2.788-1.495 4.622-1.495 4.622"/></g><g><path d="M555.783 65.02c-.585.544-.928.885-1.541 1.102a1.22 1.22 0 0 1-1.201-.209c-.286-.245-.497-.581-.721-.902-2.588-3.703-3.812-7.975-5.094-12.223-.305-1.013-.873-3.263-1.233-4.486 2.928-.064 4.333-.378 4.333-.378 1.324 4.928 2.858 10.686 5.65 14.931.444.677 1.08.984-.193 2.166M558.863 51.933c-.42-1.317-1.197-3.557-1.623-4.841-1.082-3.262-2.509-6.338-4.711-9.028-1.193-1.456-.376-3.092 1.65-3.657.368-.102.796-.044 1.063.23 4.415 4.544 6.181 10.32 7.832 17.218-1.988-.215-4.211.078-4.211.078M553.249 53.576c5.402-1.084 14.283-.806 17.524 1.17.378.231.603.65.585 1.094-.029.71-.334 1.38-.64 2.033-.297.632-.924.918-1.568.705-4.465-1.481-9.837-1.384-14.444-.939-.679-1.142-1.457-4.063-1.457-4.063M555.646 46.241c-5.764.592-12.244 1.567-17.457-.036a1.223 1.223 0 0 1-.858-.953c-.102-.61.022-1.086.13-1.555.38-1.642.778-1.928 2.41-1.552 3.832.88 7.675.642 11.527.213.583-.064 1.726-.173 2.357-.233 1.099 1.264 1.891 4.116 1.891 4.116M541.339 53.122c1.423.171 3.482.63 4.946.75.348 1.333 1.317 4.178 1.317 4.178-2.089-.008-5.35-.124-7.228-.789a1.213 1.213 0 0 1-.794-1.068c-.059-.92.104-1.744.596-2.524a1.207 1.207 0 0 1 1.163-.547M561.292 42.036c2.661.132 5.367.708 7.034 1.379.459.185.76.642.746 1.136-.025.94-.297 1.718-.827 2.411a1.248 1.248 0 0 1-1.106.493c-1.25-.118-3.142-.827-4.353-1.05 0 0-.711-2.505-1.494-4.369M566.166 59.064c1.883 2.713 2.598 3.685-1 5-.42.155-.769-.077-1.074-.407-.976-1.058-2.236-3.635-2.93-5.068 3.085-.037 5.004.475 5.004.475M542.76 41.6c-.508-.605-1.58-1.604-1.903-2.309a1.165 1.165 0 0 1 .023-1.007c.402-.79 1.032-1.32 1.834-1.742a1.22 1.22 0 0 1 1.353.15c1.132.96 2.72 3.378 3.548 4.733-2.811.427-4.855.176-4.855.176"/></g><g><path d="M27.544 89.753c-.437.669-.686 1.082-1.23 1.441a1.22 1.22 0 0 1-1.215.088c-.337-.169-.623-.444-.918-.7-3.407-2.968-5.628-6.817-7.899-10.629C15.741 79.045 14.645 77 14 75.9c2.825-.77 4.113-1.415 4.113-1.415 2.476 4.461 5.358 9.677 9.094 13.121.595.549 1.286.693.337 2.148M27.366 76.31c-.726-1.177-2.022-3.163-2.746-4.306-1.84-2.904-3.968-5.543-6.755-7.62-1.51-1.125-1.113-2.909.716-3.947.333-.19.762-.236 1.087-.035 5.384 3.342 8.494 8.518 11.765 14.812-1.981.273-4.067 1.095-4.067 1.095M22.316 79.261c4.98-2.359 13.664-4.237 17.287-3.104.423.133.743.485.832.92.144.696.01 1.42-.13 2.128-.134.684-.673 1.114-1.35 1.062-4.69-.357-9.88 1.038-14.242 2.584-.935-.944-2.397-3.59-2.397-3.59M22.868 71.564c-5.45 1.97-11.502 4.482-16.948 4.189a1.223 1.223 0 0 1-1.062-.718c-.247-.568-.242-1.058-.25-1.54-.03-1.685.288-2.059 1.963-2.09 3.93-.072 7.602-1.233 11.235-2.58.55-.204 1.633-.586 2.23-.797 1.373.96 2.832 3.536 2.832 3.536M10.65 81.702c1.422-.179 3.532-.232 4.98-.47.66 1.21 2.29 3.737 2.29 3.737-2.03.497-5.222 1.173-7.204.982a1.213 1.213 0 0 1-1.03-.844c-.28-.878-.32-1.717-.032-2.593.145-.439.537-.755.996-.812M27.329 66.118c2.614-.516 5.378-.611 7.159-.364.49.068.892.44.998.922.203.918.128 1.739-.219 2.54-.17.395-.528.68-.954.745-1.242.189-3.248-.041-4.478.035 0 0-1.296-2.258-2.506-3.878M36.177 81.461c2.484 2.177 3.413 2.947.24 5.094-.371.252-.765.11-1.14-.136-1.204-.79-3.05-2.986-4.07-4.209 2.984-.781 4.97-.749 4.97-.749M9.242 70.179c-.64-.465-1.92-1.175-2.405-1.78a1.165 1.165 0 0 1-.221-.983c.198-.864.682-1.532 1.357-2.134a1.22 1.22 0 0 1 1.35-.183c1.33.66 3.456 2.62 4.588 3.735-2.625 1.095-4.669 1.345-4.669 1.345"/></g><g><path d="M135.215 90.275c.231.765.388 1.222.314 1.868a1.22 1.22 0 0 1-.714.988c-.347.15-.741.192-1.127.253-4.463.703-8.84-.07-13.22-.78-1.043-.17-3.315-.646-4.572-.86 1.226-2.658 1.56-4.059 1.56-4.059 5.01.97 10.857 2.116 15.897 1.468.803-.103 1.357-.54 1.862 1.122M124.802 81.77c-1.368-.2-3.722-.484-5.063-.664-3.407-.457-6.796-.523-10.18.277-1.832.434-2.943-1.018-2.563-3.086.07-.376.31-.735.673-.855 6.02-1.976 11.984-1.032 18.908.509-1.064 1.693-1.775 3.82-1.775 3.82M123.817 87.536c1.394-5.33 5.537-13.19 8.734-15.238.373-.239.849-.257 1.24-.047.626.338 1.093.906 1.546 1.468.438.543.42 1.232-.054 1.717-3.288 3.364-5.556 8.235-7.175 12.572-1.324.109-4.291-.472-4.291-.472M118.276 82.166c-1.995 5.44-3.96 11.692-7.686 15.675a1.223 1.223 0 0 1-1.232.352c-.594-.176-.966-.495-1.341-.798-1.31-1.06-1.391-1.544-.339-2.847 2.472-3.057 3.942-6.616 5.245-10.266.198-.552.601-1.628.824-2.22 1.618-.434 4.529.104 4.529.104M118.188 98.041c.778-1.204 2.093-2.854 2.842-4.117 1.351.273 4.333.649 4.333.649-.923 1.873-2.457 4.754-3.877 6.15a1.213 1.213 0 0 1-1.308.245c-.853-.35-1.523-.857-2.008-1.641a1.207 1.207 0 0 1 .018-1.286M116.971 75.248c1.285-2.334 2.989-4.513 4.323-5.718.367-.331.91-.401 1.348-.172.834.434 1.414 1.02 1.805 1.8.193.385.182.842-.043 1.21-.653 1.073-2.12 2.462-2.85 3.453 0 0-2.564-.46-4.583-.573M134.412 78.332c3.265-.504 4.45-.72 4.057 3.09-.046.447-.407.658-.838.787-1.378.414-4.247.416-5.84.411 1.32-2.788 2.621-4.288 2.621-4.288M108.456 91.713c-.767.192-2.135.717-2.91.698a1.165 1.165 0 0 1-.895-.462c-.534-.707-.735-1.507-.762-2.412a1.22 1.22 0 0 1 .727-1.15c1.36-.596 4.23-.964 5.81-1.115-.848 2.715-1.97 4.441-1.97 4.441"/></g><g><path d="M180.503 88.042c-.182.778-.275 1.252-.662 1.775a1.22 1.22 0 0 1-1.113.498c-.374-.044-.737-.204-1.102-.344-4.216-1.623-7.62-4.48-11.058-7.286-.819-.669-2.548-2.216-3.53-3.03 2.39-1.69 3.38-2.735 3.38-2.735 3.853 3.345 8.345 7.26 13.033 9.219.747.312 1.446.211 1.052 1.903M175.738 75.47c-1.085-.857-2.982-2.28-4.053-3.107-2.722-2.099-5.624-3.851-8.954-4.85-1.804-.54-2.04-2.353-.677-3.954.248-.291.635-.482 1.01-.404 6.201 1.298 10.894 5.098 16.12 9.894-1.768.935-3.446 2.42-3.446 2.42M172.002 79.97c3.872-3.919 11.39-8.654 15.182-8.828.443-.02.864.2 1.097.579.374.605.494 1.33.606 2.044.108.69-.252 1.277-.905 1.46-4.53 1.27-8.93 4.354-12.5 7.3-1.201-.568-3.48-2.554-3.48-2.554M169.888 72.55c-4.448 3.714-9.275 8.145-14.493 9.732-.44.133-.927.023-1.244-.311-.426-.45-.59-.912-.762-1.362-.604-1.573-.433-2.033 1.13-2.635 3.67-1.412 6.722-3.76 9.675-6.268.448-.38 1.335-1.11 1.824-1.511 1.618.433 3.87 2.354 3.87 2.354M161.874 86.254c1.276-.654 3.24-1.425 4.52-2.145 1.034.912 3.429 2.729 3.429 2.729-1.737 1.16-4.506 2.889-6.434 3.387-.466.12-.96-.06-1.255-.441-.564-.73-.89-1.504-.918-2.426a1.207 1.207 0 0 1 .658-1.104M172.217 65.906c2.28-1.379 4.845-2.414 6.603-2.79.483-.104.988.107 1.254.524.504.793.714 1.59.662 2.462-.025.43-.264.82-.642 1.027-1.102.602-3.066 1.071-4.195 1.564 0 0-1.99-1.68-3.682-2.787M185.78 77.298c3.078 1.196 4.214 1.601 1.968 4.704-.264.363-.682.366-1.12.263-1.4-.331-3.886-1.764-5.262-2.564 2.536-1.755 4.413-2.403 4.413-2.403M156.61 75.908c-.76-.218-2.207-.447-2.87-.85-.299-.183-.5-.5-.543-.848-.109-.88.117-1.673.546-2.47a1.22 1.22 0 0 1 1.205-.633c1.476.164 4.144 1.28 5.589 1.94-2.092 1.927-3.927 2.86-3.927 2.86"/></g><g><path d="M248.215 80.275c.231.765.388 1.222.314 1.868a1.22 1.22 0 0 1-.714.988c-.347.15-.741.192-1.127.253-4.463.703-8.84-.07-13.22-.78-1.043-.17-3.315-.646-4.572-.86 1.226-2.658 1.56-4.059 1.56-4.059 5.01.97 10.857 2.116 15.897 1.468.803-.103 1.357-.54 1.862 1.122M237.802 71.77c-1.368-.2-3.722-.484-5.063-.664-3.407-.457-6.796-.523-10.18.277-1.832.434-2.943-1.018-2.563-3.086.07-.376.31-.735.673-.855 6.02-1.976 11.984-1.032 18.908.509-1.064 1.693-1.775 3.82-1.775 3.82M236.817 77.536c1.394-5.33 5.537-13.19 8.734-15.238.373-.239.849-.257 1.24-.047.626.338 1.093.906 1.546 1.468.438.543.42 1.232-.054 1.717-3.288 3.364-5.556 8.235-7.175 12.572-1.324.109-4.291-.472-4.291-.472M231.276 72.166c-1.995 5.44-3.96 11.692-7.686 15.675a1.223 1.223 0 0 1-1.232.352c-.594-.176-.966-.495-1.341-.798-1.31-1.06-1.391-1.544-.339-2.847 2.472-3.057 3.942-6.616 5.245-10.266.198-.552.601-1.628.824-2.22 1.618-.434 4.529.104 4.529.104M231.188 88.041c.778-1.204 2.093-2.854 2.842-4.117 1.351.273 4.333.649 4.333.649-.923 1.873-2.457 4.754-3.877 6.15a1.213 1.213 0 0 1-1.308.245c-.853-.35-1.523-.857-2.008-1.641a1.207 1.207 0 0 1 .018-1.286M229.971 65.248c1.285-2.334 2.989-4.513 4.323-5.718.367-.331.91-.401 1.348-.172.834.434 1.414 1.02 1.805 1.8.193.385.182.842-.043 1.21-.653 1.073-2.12 2.462-2.85 3.453 0 0-2.564-.46-4.583-.573M247.412 68.332c3.265-.504 4.45-.72 4.057 3.09-.046.447-.407.658-.838.787-1.378.414-4.247.416-5.84.411 1.32-2.788 2.621-4.288 2.621-4.288M221.456 81.713c-.767.192-2.135.717-2.91.698a1.165 1.165 0 0 1-.895-.462c-.534-.707-.735-1.507-.762-2.412a1.22 1.22 0 0 1 .727-1.15c1.36-.596 4.23-.964 5.81-1.115-.848 2.715-1.97 4.441-1.97 4.441"/></g><g><path d="M292.91 110.468c-.044.798-.054 1.281-.344 1.863a1.22 1.22 0 0 1-1.01.685c-.376.022-.76-.074-1.144-.148-4.435-.867-8.282-3.09-12.155-5.255-.923-.516-2.895-1.74-4.003-2.37 2.06-2.08 2.854-3.282 2.854-3.282 4.375 2.625 9.479 5.701 14.436 6.816.79.178 1.46-.043 1.366 1.691M286.034 98.915c-1.217-.656-3.333-1.728-4.53-2.355-3.046-1.595-6.208-2.817-9.66-3.222-1.87-.22-2.419-1.963-1.354-3.777.193-.33.542-.585.924-.573 6.333.202 11.615 3.13 17.594 6.945-1.579 1.227-2.974 2.982-2.974 2.982M283.136 103.996c3.133-4.532 9.715-10.501 13.419-11.331.433-.097.886.048 1.18.38.474.531.718 1.225.952 1.908.226.66-.026 1.301-.638 1.595-4.24 2.036-8.037 5.838-11.042 9.359-1.282-.35-3.87-1.91-3.87-1.91M279.766 97.055c-3.736 4.43-7.72 9.632-12.583 12.1-.41.21-.909.185-1.279-.09-.498-.368-.739-.795-.987-1.208-.868-1.445-.78-1.927.656-2.791 3.368-2.028 5.966-4.87 8.44-7.853.374-.452 1.12-1.324 1.533-1.805 1.669.146 4.22 1.647 4.22 1.647M274.253 111.943c1.143-.866 2.943-1.966 4.08-2.897 1.176.718 3.85 2.092 3.85 2.092-1.509 1.444-3.936 3.627-5.748 4.453-.438.2-.957.107-1.313-.217-.682-.62-1.137-1.327-1.325-2.23a1.207 1.207 0 0 1 .456-1.201M280.906 90.108c2.006-1.754 4.352-3.22 6.018-3.895a1.197 1.197 0 0 1 1.326.3c.634.693.979 1.441 1.08 2.309.05.427-.118.853-.454 1.122-.981.785-2.834 1.588-3.86 2.27 0 0-2.252-1.309-4.11-2.106M296.24 98.971c3.24.643 4.429.846 2.756 4.291-.197.404-.608.48-1.057.453-1.437-.082-4.134-1.061-5.628-1.61 2.194-2.17 3.93-3.134 3.93-3.134M267.273 102.668c-.787-.082-2.251-.057-2.974-.34a1.165 1.165 0 0 1-.682-.74c-.26-.847-.176-1.667.109-2.527.155-.47.583-.8 1.076-.832 1.483-.095 4.304.54 5.841.94-1.725 2.26-3.37 3.499-3.37 3.499"/></g><g><path d="M319.91 70.468c-.044.798-.054 1.281-.344 1.863a1.22 1.22 0 0 1-1.01.685c-.376.022-.76-.074-1.144-.148-4.435-.867-8.282-3.09-12.155-5.255-.923-.516-2.895-1.74-4.003-2.37 2.06-2.08 2.854-3.282 2.854-3.282 4.375 2.625 9.479 5.701 14.436 6.816.79.178 1.46-.043 1.366 1.691M313.034 58.915c-1.217-.656-3.333-1.728-4.53-2.355-3.046-1.595-6.208-2.817-9.66-3.222-1.87-.22-2.419-1.963-1.354-3.777.193-.33.542-.585.924-.573 6.333.202 11.615 3.13 17.594 6.945-1.579 1.227-2.974 2.982-2.974 2.982M310.136 63.996c3.133-4.532 9.715-10.501 13.419-11.331.433-.097.886.048 1.18.38.474.531.718 1.225.952 1.908.226.66-.026 1.301-.638 1.595-4.24 2.036-8.037 5.838-11.042 9.359-1.282-.35-3.87-1.91-3.87-1.91M306.766 57.055c-3.736 4.43-7.72 9.632-12.583 12.1-.41.21-.909.185-1.279-.09-.498-.368-.739-.795-.987-1.208-.868-1.445-.78-1.927.656-2.791 3.368-2.028 5.966-4.87 8.44-7.853.374-.452 1.12-1.324 1.533-1.805 1.669.146 4.22 1.647 4.22 1.647M301.253 71.943c1.143-.866 2.943-1.966 4.08-2.897 1.176.718 3.85 2.092 3.85 2.092-1.509 1.444-3.936 3.627-5.748 4.453-.438.2-.957.107-1.313-.217-.682-.62-1.137-1.327-1.325-2.23a1.207 1.207 0 0 1 .456-1.201M307.906 50.108c2.006-1.754 4.352-3.22 6.018-3.895a1.197 1.197 0 0 1 1.326.3c.634.693.979 1.441 1.08 2.309.05.427-.118.853-.454 1.122-.981.785-2.834 1.588-3.86 2.27 0 0-2.252-1.309-4.11-2.106M323.24 58.971c3.24.643 4.429.846 2.756 4.291-.197.404-.608.48-1.057.453-1.437-.082-4.134-1.061-5.628-1.61 2.194-2.17 3.93-3.134 3.93-3.134M294.273 62.668c-.787-.082-2.251-.057-2.974-.34a1.165 1.165 0 0 1-.682-.74c-.26-.847-.176-1.667.109-2.527.155-.47.583-.8 1.076-.832 1.483-.095 4.304.54 5.841.94-1.725 2.26-3.37 3.499-3.37 3.499"/></g><g><path d="M399.765 77.232c.31.736.514 1.175.508 1.825a1.22 1.22 0 0 1-.607 1.058c-.329.184-.717.268-1.094.368-4.365 1.166-8.798.854-13.228.606-1.056-.06-3.365-.295-4.638-.376.941-2.773 1.127-4.2 1.127-4.2 5.084.441 11.02.969 15.963-.202.788-.187 1.294-.68 1.97.921M388.52 69.862c-1.38-.056-3.752-.092-5.104-.13-3.436-.1-6.814.19-10.095 1.339-1.776.622-3.034-.705-2.872-2.802.03-.381.23-.763.58-.92 5.78-2.595 11.81-2.28 18.858-1.47-.882 1.794-1.366 3.983-1.366 3.983M388.144 75.7c.829-5.447 4.128-13.698 7.093-16.067a1.224 1.224 0 0 1 1.228-.177c.658.27 1.182.787 1.691 1.298.493.494.548 1.181.127 1.714-2.92 3.689-4.665 8.77-5.823 13.252-1.305.247-4.316-.02-4.316-.02M382.072 70.938c-1.416 5.62-2.716 12.042-6.005 16.392a1.223 1.223 0 0 1-1.189.48c-.609-.113-1.013-.391-1.417-.654-1.413-.918-1.545-1.39-.634-2.796 2.138-3.299 3.228-6.992 4.143-10.758.138-.57.427-1.681.587-2.295 1.564-.6 4.515-.37 4.515-.37M383.643 86.736c.648-1.279 1.784-3.057 2.397-4.392 1.372.13 4.377.192 4.377.192-.722 1.96-1.947 4.985-3.213 6.522a1.213 1.213 0 0 1-1.276.38c-.884-.258-1.603-.693-2.168-1.422a1.207 1.207 0 0 1-.117-1.28M380.051 64.194c1.034-2.455 2.5-4.8 3.701-6.138.33-.368.863-.494 1.323-.312.874.345 1.513.866 1.983 1.602.232.362.269.818.085 1.207-.539 1.136-1.852 2.67-2.475 3.732 0 0-2.597-.189-4.617-.09M397.719 65.439c3.194-.843 4.35-1.182 4.357 2.648.001.45-.336.697-.75.87-1.328.556-4.181.859-5.765 1.02 1.02-2.91 2.158-4.538 2.158-4.538M373.304 81.46c-.743.27-2.049.935-2.822.998-.35.029-.699-.11-.938-.366-.605-.648-.888-1.422-1.01-2.32a1.22 1.22 0 0 1 .603-1.22c1.29-.734 4.105-1.4 5.662-1.715-.56 2.788-1.495 4.622-1.495 4.622"/></g><g><path d="M469.217 84.233c-.482.637-.76 1.032-1.326 1.353a1.22 1.22 0 0 1-1.22.003c-.324-.193-.59-.487-.866-.763-3.192-3.198-5.139-7.193-7.138-11.154-.477-.944-1.427-3.061-1.994-4.204 2.872-.571 4.201-1.124 4.201-1.124 2.16 4.623 4.67 10.027 8.157 13.723.555.59 1.235.781.186 2.166M469.978 70.81c-.643-1.224-1.797-3.296-2.44-4.486-1.632-3.025-3.57-5.806-6.206-8.072-1.428-1.228-.907-2.98.99-3.889.344-.165.776-.182 1.086.042 5.138 3.709 7.88 9.09 10.703 15.596-1.995.134-4.133.81-4.133.81M464.734 73.402c5.132-2.005 13.926-3.273 17.461-1.89.413.162.708.535.767.975.094.705-.09 1.417-.279 2.114-.181.673-.749 1.065-1.42.966-4.655-.683-9.928.346-14.389 1.584-.866-1.007-2.14-3.749-2.14-3.749M465.822 65.763c-5.575 1.584-11.787 3.669-17.199 2.996a1.223 1.223 0 0 1-1.01-.79c-.206-.584-.167-1.073-.142-1.554.088-1.683.432-2.033 2.104-1.947 3.926.202 7.67-.7 11.388-1.791.563-.165 1.67-.47 2.281-.64 1.302 1.055 2.578 3.726 2.578 3.726M452.926 75.023c1.431-.078 3.54.016 5.002-.12.573 1.253 2.022 3.887 2.022 3.887-2.058.354-5.29.806-7.255.477a1.213 1.213 0 0 1-.967-.914c-.218-.895-.201-1.735.148-2.588a1.207 1.207 0 0 1 1.05-.742M470.651 60.641c2.644-.332 5.408-.235 7.167.137.484.102.86.5.932.99.138.929.006 1.742-.396 2.517a1.248 1.248 0 0 1-1.004.677c-1.252.102-3.237-.268-4.469-.277 0 0-1.135-2.344-2.23-4.044M478.408 76.564c2.326 2.345 3.199 3.178-.115 5.098-.389.226-.772.058-1.13-.215-1.145-.872-2.833-3.191-3.765-4.482 3.031-.572 5.01-.4 5.01-.4M452.326 63.43c-.607-.507-1.835-1.305-2.276-1.943-.2-.289-.254-.66-.152-.996.259-.848.787-1.48 1.504-2.034a1.22 1.22 0 0 1 1.358-.088c1.282.75 3.265 2.854 4.316 4.045-2.694.91-4.75 1.016-4.75 1.016"/></g><g><path d="M525.42 99.947c-.235.763-.36 1.23-.784 1.724-.282.33-.718.5-1.144.42-.37-.07-.721-.255-1.075-.42-4.094-1.914-7.289-5.002-10.523-8.04-.77-.724-2.388-2.389-3.31-3.268 2.502-1.52 3.562-2.493 3.562-2.493 3.61 3.605 7.819 7.825 12.358 10.105.724.364 1.428.312.917 1.972M521.544 87.073c-1.022-.93-2.815-2.482-3.826-3.381-2.569-2.284-5.342-4.235-8.594-5.463-1.761-.665-1.871-2.49-.4-3.992.268-.273.668-.437 1.036-.333 6.096 1.728 10.513 5.846 15.391 10.995-1.829.809-3.607 2.174-3.607 2.174M517.503 91.303c4.137-3.64 11.967-7.84 15.762-7.749.443.01.848.261 1.054.654.33.63.4 1.363.461 2.082.06.695-.34 1.257-1.005 1.394-4.607.95-9.21 3.72-12.978 6.409-1.159-.65-3.294-2.79-3.294-2.79M515.912 83.752c-4.696 3.395-9.82 7.479-15.136 8.697a1.223 1.223 0 0 1-1.22-.396c-.393-.478-.524-.951-.665-1.412-.492-1.612-.29-2.059 1.312-2.55 3.758-1.152 6.967-3.28 10.089-5.577.472-.348 1.408-1.014 1.924-1.381 1.584.545 3.696 2.619 3.696 2.619M506.962 96.864c1.318-.563 3.331-1.196 4.658-1.824.968.982 3.23 2.961 3.23 2.961-1.813 1.037-4.696 2.568-6.654 2.93a1.213 1.213 0 0 1-1.221-.528c-.512-.767-.783-1.562-.746-2.483.018-.462.308-.874.733-1.056M518.7 77.287c2.37-1.216 5-2.07 6.78-2.323.49-.07.979.177 1.215.611.447.826.601 1.636.489 2.502-.055.427-.32.8-.712.98-1.142.523-3.134.855-4.294 1.267 0 0-1.869-1.814-3.479-3.037M531.434 89.597c2.988 1.408 4.092 1.892 1.635 4.83-.288.345-.705.318-1.134.184-1.375-.427-3.755-2.03-5.072-2.924 2.653-1.574 4.57-2.09 4.57-2.09M502.433 86.176c-.744-.27-2.17-.6-2.803-1.048a1.165 1.165 0 0 1-.484-.884c-.047-.885.234-1.66.717-2.426a1.22 1.22 0 0 1 1.246-.547c1.462.267 4.045 1.566 5.44 2.325-2.22 1.776-4.116 2.58-4.116 2.58"/></g><g><path d="M592.765 98.232c.31.736.514 1.175.508 1.825a1.22 1.22 0 0 1-.607 1.058c-.329.184-.717.268-1.094.368-4.365 1.166-8.798.854-13.228.606-1.056-.06-3.365-.295-4.638-.376.941-2.773 1.127-4.2 1.127-4.2 5.084.441 11.02.969 15.963-.202.788-.187 1.294-.68 1.97.921M581.52 90.862c-1.38-.056-3.752-.092-5.104-.13-3.436-.1-6.814.19-10.095 1.339-1.776.622-3.034-.705-2.872-2.802.03-.381.23-.763.58-.92 5.78-2.595 11.81-2.28 18.858-1.47-.882 1.794-1.366 3.983-1.366 3.983M581.144 96.7c.829-5.447 4.128-13.698 7.093-16.067a1.224 1.224 0 0 1 1.228-.177c.658.27 1.182.787 1.691 1.298.493.494.548 1.181.127 1.714-2.92 3.689-4.665 8.77-5.823 13.252-1.305.247-4.316-.02-4.316-.02M575.072 91.938c-1.416 5.62-2.716 12.042-6.005 16.392a1.223 1.223 0 0 1-1.189.48c-.609-.113-1.013-.391-1.417-.654-1.413-.918-1.545-1.39-.634-2.796 2.138-3.299 3.228-6.992 4.143-10.758.138-.57.427-1.681.587-2.295 1.564-.6 4.515-.37 4.515-.37M576.643 107.736c.648-1.279 1.784-3.057 2.397-4.392 1.372.13 4.377.192 4.377.192-.722 1.96-1.947 4.985-3.213 6.522a1.213 1.213 0 0 1-1.276.38c-.884-.258-1.603-.693-2.168-1.422a1.207 1.207 0 0 1-.117-1.28M573.051 85.194c1.034-2.455 2.5-4.8 3.701-6.138.33-.368.863-.494 1.323-.312.874.345 1.513.866 1.983 1.602.232.362.269.818.085 1.207-.539 1.136-1.852 2.67-2.475 3.732 0 0-2.597-.189-4.617-.09M590.719 86.439c3.194-.843 4.35-1.182 4.357 2.648.001.45-.336.697-.75.87-1.328.556-4.181.859-5.765 1.02 1.02-2.91 2.158-4.538 2.158-4.538M566.304 102.46c-.743.27-2.049.935-2.822.998-.35.029-.699-.11-.938-.366-.605-.648-.888-1.422-1.01-2.32a1.22 1.22 0 0 1 .603-1.22c1.29-.734 4.105-1.4 5.662-1.715-.56 2.788-1.495 4.622-1.495 4.622"/></g><g><path d="M65.544 118.753c-.437.669-.686 1.082-1.23 1.441a1.22 1.22 0 0 1-1.215.088c-.337-.169-.623-.444-.918-.7-3.407-2.968-5.628-6.817-7.899-10.629-.541-.908-1.637-2.954-2.282-4.054 2.825-.77 4.113-1.415 4.113-1.415 2.476 4.461 5.358 9.677 9.094 13.121.595.549 1.286.693.337 2.148M65.366 105.31c-.726-1.177-2.022-3.163-2.746-4.306-1.84-2.904-3.968-5.543-6.755-7.62-1.51-1.125-1.113-2.909.716-3.947.333-.19.762-.236 1.087-.035 5.384 3.342 8.494 8.518 11.765 14.812-1.981.273-4.067 1.095-4.067 1.095M60.316 108.261c4.98-2.359 13.664-4.237 17.287-3.104.423.133.743.485.832.92.144.696.01 1.42-.13 2.128-.134.684-.673 1.114-1.35 1.062-4.69-.357-9.88 1.038-14.242 2.584-.935-.944-2.397-3.59-2.397-3.59M60.868 100.564c-5.45 1.97-11.502 4.482-16.948 4.189a1.223 1.223 0 0 1-1.062-.718c-.247-.568-.242-1.058-.25-1.54-.03-1.685.288-2.059 1.963-2.09 3.93-.072 7.602-1.233 11.235-2.58.55-.204 1.633-.586 2.23-.797 1.373.96 2.832 3.536 2.832 3.536M48.65 110.702c1.422-.179 3.532-.232 4.98-.47.66 1.21 2.29 3.737 2.29 3.737-2.03.497-5.222 1.173-7.204.982a1.213 1.213 0 0 1-1.03-.844c-.28-.878-.32-1.717-.032-2.593.145-.439.537-.755.996-.812M65.329 95.118c2.614-.516 5.378-.611 7.159-.364.49.068.892.44.998.922.203.918.128 1.739-.219 2.54-.17.395-.528.68-.954.745-1.242.189-3.248-.041-4.478.035 0 0-1.296-2.258-2.506-3.878M74.177 110.461c2.484 2.177 3.413 2.947.24 5.094-.371.252-.765.11-1.14-.136-1.204-.79-3.05-2.986-4.07-4.209 2.984-.781 4.97-.749 4.97-.749M47.242 99.179c-.64-.465-1.92-1.175-2.405-1.78a1.165 1.165 0 0 1-.221-.983c.198-.864.682-1.532 1.357-2.134a1.22 1.22 0 0 1 1.35-.183c1.33.66 3.456 2.62 4.588 3.735-2.625 1.095-4.669 1.345-4.669 1.345"/></g><g><path d="M45.833 148.516c.095.794.17 1.27-.015 1.895a1.22 1.22 0 0 1-.875.849c-.367.087-.763.06-1.153.053-4.518-.083-8.693-1.604-12.883-3.064-.999-.348-3.153-1.212-4.354-1.64 1.669-2.406 2.241-3.727 2.241-3.727 4.765 1.826 10.325 3.969 15.4 4.206.809.038 1.431-.296 1.639 1.428M37.055 138.332c-1.312-.434-3.581-1.123-4.87-1.533-3.276-1.041-6.603-1.695-10.073-1.494-1.88.108-2.722-1.514-1.989-3.485.134-.358.432-.67.81-.725 6.273-.9 11.982 1.065 18.534 3.784-1.342 1.483-2.412 3.453-2.412 3.453M35.084 143.84c2.298-5.008 7.744-12.03 11.247-13.49.41-.17.881-.106 1.23.17.557.44.919 1.081 1.268 1.713.336.61.2 1.286-.352 1.682-3.822 2.742-6.901 7.145-9.25 11.134-1.322-.122-4.143-1.21-4.143-1.21M30.56 137.589c-2.91 5.011-5.93 10.826-10.29 14.102a1.223 1.223 0 0 1-1.276.133c-.554-.276-.866-.655-1.182-1.019-1.105-1.272-1.102-1.762.161-2.862 2.965-2.582 5.03-5.832 6.948-9.2.29-.51.875-1.498 1.197-2.043 1.669-.146 4.442.889 4.442.889M27.716 153.208c.975-1.05 2.557-2.447 3.514-3.561 1.284.503 4.155 1.391 4.155 1.391-1.234 1.685-3.246 4.256-4.887 5.383a1.213 1.213 0 0 1-1.33.015c-.78-.493-1.35-1.109-1.692-1.965a1.207 1.207 0 0 1 .24-1.263M30.476 130.55c1.67-2.076 3.727-3.926 5.25-4.88a1.197 1.197 0 0 1 1.358.063c.745.573 1.215 1.25 1.464 2.087.124.413.033.861-.251 1.184-.83.943-2.516 2.056-3.408 2.905 0 0-2.445-.897-4.413-1.36M47.117 136.616c3.302.07 4.508.063 3.458 3.747-.123.432-.515.577-.961.63-1.43.168-4.256-.328-5.823-.61 1.784-2.516 3.326-3.767 3.326-3.767M19.231 145.286c-.789.056-2.226.335-2.987.182a1.165 1.165 0 0 1-.801-.61c-.403-.79-.462-1.612-.331-2.508.07-.49.435-.89.915-1.007 1.444-.35 4.333-.215 5.916-.088-1.307 2.526-2.712 4.031-2.712 4.031"/></g><g><path d="M101.503 155.042c-.182.778-.275 1.252-.662 1.775a1.22 1.22 0 0 1-1.113.498c-.374-.044-.737-.204-1.102-.344-4.216-1.623-7.62-4.48-11.058-7.286-.819-.669-2.548-2.216-3.53-3.03 2.39-1.69 3.38-2.735 3.38-2.735 3.853 3.345 8.345 7.26 13.033 9.219.747.312 1.446.211 1.052 1.903M96.738 142.47c-1.085-.857-2.982-2.28-4.053-3.107-2.722-2.099-5.624-3.851-8.954-4.85-1.804-.54-2.04-2.353-.677-3.954.248-.291.635-.482 1.01-.404 6.201 1.298 10.894 5.098 16.12 9.894-1.768.935-3.446 2.42-3.446 2.42M93.002 146.97c3.872-3.919 11.39-8.654 15.182-8.828.443-.02.864.2 1.097.579.374.605.494 1.33.606 2.044.108.69-.252 1.277-.905 1.46-4.53 1.27-8.93 4.354-12.5 7.3-1.201-.568-3.48-2.554-3.48-2.554M90.888 139.55c-4.448 3.714-9.275 8.145-14.493 9.732-.44.133-.927.023-1.244-.311-.426-.45-.59-.912-.762-1.362-.604-1.573-.433-2.033 1.13-2.635 3.67-1.412 6.722-3.76 9.675-6.268.448-.38 1.335-1.11 1.824-1.511 1.618.433 3.87 2.354 3.87 2.354M82.874 153.254c1.276-.654 3.24-1.425 4.52-2.145 1.034.912 3.429 2.729 3.429 2.729-1.737 1.16-4.506 2.889-6.434 3.387-.466.12-.96-.06-1.255-.441-.564-.73-.89-1.504-.918-2.426a1.207 1.207 0 0 1 .658-1.104M93.217 132.906c2.28-1.379 4.845-2.414 6.603-2.79.483-.104.988.107 1.254.524.504.793.714 1.59.662 2.462-.025.43-.264.82-.642 1.027-1.102.602-3.066 1.071-4.195 1.564 0 0-1.99-1.68-3.682-2.787M106.78 144.298c3.078 1.196 4.214 1.601 1.968 4.704-.264.363-.682.366-1.12.263-1.4-.331-3.886-1.764-5.262-2.564 2.536-1.755 4.413-2.403 4.413-2.403M77.61 142.908c-.76-.218-2.207-.447-2.87-.85-.299-.183-.5-.5-.543-.848-.109-.88.117-1.673.546-2.47a1.22 1.22 0 0 1 1.205-.633c1.476.164 4.144 1.28 5.589 1.94-2.092 1.927-3.927 2.86-3.927 2.86"/></g><g><path d="M148.544 140.753c-.437.669-.686 1.082-1.23 1.441a1.22 1.22 0 0 1-1.215.088c-.337-.169-.623-.444-.918-.7-3.407-2.968-5.628-6.817-7.899-10.629-.541-.908-1.637-2.954-2.282-4.054 2.825-.77 4.113-1.415 4.113-1.415 2.476 4.461 5.358 9.677 9.094 13.121.595.549 1.286.693.337 2.148M148.366 127.31c-.726-1.177-2.022-3.163-2.746-4.306-1.84-2.904-3.968-5.543-6.755-7.62-1.51-1.125-1.113-2.909.716-3.947.333-.19.762-.236 1.087-.035 5.384 3.342 8.494 8.518 11.765 14.812-1.981.273-4.067 1.095-4.067 1.095M143.316 130.261c4.98-2.359 13.664-4.237 17.287-3.104.423.133.743.485.832.92.144.696.01 1.42-.13 2.128-.134.684-.673 1.114-1.35 1.062-4.69-.357-9.88 1.038-14.242 2.584-.935-.944-2.397-3.59-2.397-3.59M143.868 122.564c-5.45 1.97-11.502 4.482-16.948 4.189a1.223 1.223 0 0 1-1.062-.718c-.247-.568-.242-1.058-.25-1.54-.03-1.685.288-2.059 1.963-2.09 3.93-.072 7.602-1.233 11.235-2.58.55-.204 1.633-.586 2.23-.797 1.373.96 2.832 3.536 2.832 3.536M131.65 132.702c1.422-.179 3.532-.232 4.98-.47.66 1.21 2.29 3.737 2.29 3.737-2.03.497-5.222 1.173-7.204.982a1.213 1.213 0 0 1-1.03-.844c-.28-.878-.32-1.717-.032-2.593.145-.439.537-.755.996-.812M148.329 117.118c2.614-.516 5.378-.611 7.159-.364.49.068.892.44.998.922.203.918.128 1.739-.219 2.54-.17.395-.528.68-.954.745-1.242.189-3.248-.041-4.478.035 0 0-1.296-2.258-2.506-3.878M157.177 132.461c2.484 2.177 3.413 2.947.24 5.094-.371.252-.765.11-1.14-.136-1.204-.79-3.05-2.986-4.07-4.209 2.984-.781 4.97-.749 4.97-.749M130.242 121.179c-.64-.465-1.92-1.175-2.405-1.78a1.165 1.165 0 0 1-.221-.983c.198-.864.682-1.532 1.357-2.134a1.22 1.22 0 0 1 1.35-.183c1.33.66 3.456 2.62 4.588 3.735-2.625 1.095-4.669 1.345-4.669 1.345"/></g><g><path d="M202.544 132.753c-.437.669-.686 1.082-1.23 1.441a1.22 1.22 0 0 1-1.215.088c-.337-.169-.623-.444-.918-.7-3.407-2.968-5.628-6.817-7.899-10.629-.541-.908-1.637-2.954-2.282-4.054 2.825-.77 4.113-1.415 4.113-1.415 2.476 4.461 5.358 9.677 9.094 13.121.595.549 1.286.693.337 2.148M202.366 119.31c-.726-1.177-2.022-3.163-2.746-4.306-1.84-2.904-3.968-5.543-6.755-7.62-1.51-1.125-1.113-2.909.716-3.947.333-.19.762-.236 1.087-.035 5.384 3.342 8.494 8.518 11.765 14.812-1.981.273-4.067 1.095-4.067 1.095M197.316 122.261c4.98-2.359 13.664-4.237 17.287-3.104.423.133.743.485.832.92.144.696.01 1.42-.13 2.128-.134.684-.673 1.114-1.35 1.062-4.69-.357-9.88 1.038-14.242 2.584-.935-.944-2.397-3.59-2.397-3.59M197.868 114.564c-5.45 1.97-11.502 4.482-16.948 4.189a1.223 1.223 0 0 1-1.062-.718c-.247-.568-.242-1.058-.25-1.54-.03-1.685.288-2.059 1.963-2.09 3.93-.072 7.602-1.233 11.235-2.58.55-.204 1.633-.586 2.23-.797 1.373.96 2.832 3.536 2.832 3.536M185.65 124.702c1.422-.179 3.532-.232 4.98-.47.66 1.21 2.29 3.737 2.29 3.737-2.03.497-5.222 1.173-7.204.982a1.213 1.213 0 0 1-1.03-.844c-.28-.878-.32-1.717-.032-2.593.145-.439.537-.755.996-.812M202.329 109.118c2.614-.516 5.378-.611 7.159-.364.49.068.892.44.998.922.203.918.128 1.739-.219 2.54-.17.395-.528.68-.954.745-1.242.189-3.248-.041-4.478.035 0 0-1.296-2.258-2.506-3.878M211.177 124.461c2.484 2.177 3.413 2.947.24 5.094-.371.252-.765.11-1.14-.136-1.204-.79-3.05-2.986-4.07-4.209 2.984-.781 4.97-.749 4.97-.749M184.242 113.179c-.64-.465-1.92-1.175-2.405-1.78a1.165 1.165 0 0 1-.221-.983c.198-.864.682-1.532 1.357-2.134a1.22 1.22 0 0 1 1.35-.183c1.33.66 3.456 2.62 4.588 3.735-2.625 1.095-4.669 1.345-4.669 1.345"/></g><g><path d="M208.215 165.275c.231.765.388 1.222.314 1.868a1.22 1.22 0 0 1-.714.988c-.347.15-.741.192-1.127.253-4.463.703-8.84-.07-13.22-.78-1.043-.17-3.315-.646-4.572-.86 1.226-2.658 1.56-4.059 1.56-4.059 5.01.97 10.857 2.116 15.897 1.468.803-.103 1.357-.54 1.862 1.122M197.802 156.77c-1.368-.2-3.722-.484-5.063-.664-3.407-.457-6.796-.523-10.18.277-1.832.434-2.943-1.018-2.563-3.086.07-.376.31-.735.673-.855 6.02-1.976 11.984-1.032 18.908.509-1.064 1.693-1.775 3.82-1.775 3.82M196.817 162.536c1.394-5.33 5.537-13.19 8.734-15.238.373-.239.849-.257 1.24-.047.626.338 1.093.906 1.546 1.468.438.543.42 1.232-.054 1.717-3.288 3.364-5.556 8.235-7.175 12.572-1.324.109-4.291-.472-4.291-.472M191.276 157.166c-1.995 5.44-3.96 11.692-7.686 15.675a1.223 1.223 0 0 1-1.232.352c-.594-.176-.966-.495-1.341-.798-1.31-1.06-1.391-1.544-.339-2.847 2.472-3.057 3.942-6.616 5.245-10.266.198-.552.601-1.628.824-2.22 1.618-.434 4.529.104 4.529.104M191.188 173.041c.778-1.204 2.093-2.854 2.842-4.117 1.351.273 4.333.649 4.333.649-.923 1.873-2.457 4.754-3.877 6.15a1.213 1.213 0 0 1-1.308.245c-.853-.35-1.523-.857-2.008-1.641a1.207 1.207 0 0 1 .018-1.286M189.971 150.248c1.285-2.334 2.989-4.513 4.323-5.718.367-.331.91-.401 1.348-.172.834.434 1.414 1.02 1.805 1.8.193.385.182.842-.043 1.21-.653 1.073-2.12 2.462-2.85 3.453 0 0-2.564-.46-4.583-.573M207.412 153.332c3.265-.504 4.45-.72 4.057 3.09-.046.447-.407.658-.838.787-1.378.414-4.247.416-5.84.411 1.32-2.788 2.621-4.288 2.621-4.288M181.456 166.713c-.767.192-2.135.717-2.91.698a1.165 1.165 0 0 1-.895-.462c-.534-.707-.735-1.507-.762-2.412a1.22 1.22 0 0 1 .727-1.15c1.36-.596 4.23-.964 5.81-1.115-.848 2.715-1.97 4.441-1.97 4.441"/></g><g><path d="M268.215 147.275c.231.765.388 1.222.314 1.868a1.22 1.22 0 0 1-.714.988c-.347.15-.741.192-1.127.253-4.463.703-8.84-.07-13.22-.78-1.043-.17-3.315-.646-4.572-.86 1.226-2.658 1.56-4.059 1.56-4.059 5.01.97 10.857 2.116 15.897 1.468.803-.103 1.357-.54 1.862 1.122M257.802 138.77c-1.368-.2-3.722-.484-5.063-.664-3.407-.457-6.796-.523-10.18.277-1.832.434-2.943-1.018-2.563-3.086.07-.376.31-.735.673-.855 6.02-1.976 11.984-1.032 18.908.509-1.064 1.693-1.775 3.82-1.775 3.82M256.817 144.536c1.394-5.33 5.537-13.19 8.734-15.238.373-.239.849-.257 1.24-.047.626.338 1.093.906 1.546 1.468.438.543.42 1.232-.054 1.717-3.288 3.364-5.556 8.235-7.175 12.572-1.324.109-4.291-.472-4.291-.472M251.276 139.166c-1.995 5.44-3.96 11.692-7.686 15.675a1.223 1.223 0 0 1-1.232.352c-.594-.176-.966-.495-1.341-.798-1.31-1.06-1.391-1.544-.339-2.847 2.472-3.057 3.942-6.616 5.245-10.266.198-.552.601-1.628.824-2.22 1.618-.434 4.529.104 4.529.104M251.188 155.041c.778-1.204 2.093-2.854 2.842-4.117 1.351.273 4.333.649 4.333.649-.923 1.873-2.457 4.754-3.877 6.15a1.213 1.213 0 0 1-1.308.245c-.853-.35-1.523-.857-2.008-1.641a1.207 1.207 0 0 1 .018-1.286M249.971 132.248c1.285-2.334 2.989-4.513 4.323-5.718.367-.331.91-.401 1.348-.172.834.434 1.414 1.02 1.805 1.8.193.385.182.842-.043 1.21-.653 1.073-2.12 2.462-2.85 3.453 0 0-2.564-.46-4.583-.573M267.412 135.332c3.265-.504 4.45-.72 4.057 3.09-.046.447-.407.658-.838.787-1.378.414-4.247.416-5.84.411 1.32-2.788 2.621-4.288 2.621-4.288M241.456 148.713c-.767.192-2.135.717-2.91.698a1.165 1.165 0 0 1-.895-.462c-.534-.707-.735-1.507-.762-2.412a1.22 1.22 0 0 1 .727-1.15c1.36-.596 4.23-.964 5.81-1.115-.848 2.715-1.97 4.441-1.97 4.441"/></g><g><path d="M301.157 160.012c-.713.361-1.136.595-1.786.634a1.22 1.22 0 0 1-1.096-.532c-.208-.315-.318-.696-.445-1.065-1.467-4.274-1.465-8.717-1.527-13.154-.014-1.058.06-3.377.052-4.652 2.832.745 4.269.831 4.269.831-.086 5.102-.198 11.06 1.315 15.91.24.773.767 1.243-.782 2.028M307.724 148.28c-.04-1.38-.17-3.749-.225-5.1-.141-3.435-.665-6.784-2.04-9.977-.745-1.729.491-3.076 2.594-3.06.382.002.778.176.958.513 2.992 5.586 3.098 11.623 2.783 18.71-1.852-.754-4.07-1.085-4.07-1.085M301.875 148.312c5.492.447 13.952 3.163 16.523 5.955.3.327.401.792.261 1.213-.224.675-.702 1.234-1.176 1.778-.46.526-1.14.628-1.701.245-3.884-2.654-9.075-4.041-13.626-4.883-.338-1.285-.28-4.308-.28-4.308M306.202 141.923c-5.705-1.02-12.202-1.87-16.772-4.847a1.223 1.223 0 0 1-.561-1.152c.07-.616.32-1.038.553-1.46.817-1.474 1.28-1.638 2.745-.827 3.44 1.902 7.2 2.732 11.02 3.382.58.099 1.708.31 2.331.426.708 1.518.684 4.478.684 4.478M290.552 144.593c1.32.557 3.174 1.565 4.548 2.084-.034 1.378.114 4.38.114 4.38-2.005-.584-5.11-1.594-6.73-2.75a1.213 1.213 0 0 1-.469-1.246c.197-.901.58-1.649 1.268-2.262a1.207 1.207 0 0 1 1.269-.206M312.788 139.437c2.522.86 4.964 2.16 6.381 3.264.39.304.553.826.404 1.298-.283.896-.759 1.569-1.46 2.09a1.248 1.248 0 0 1-1.198.168c-1.17-.458-2.793-1.66-3.896-2.208 0 0 .007-2.605-.231-4.612M312.779 157.148c1.063 3.128 1.482 4.258-2.338 4.532-.448.032-.72-.287-.92-.688-.648-1.286-1.149-4.111-1.42-5.68 2.975.815 4.678 1.836 4.678 1.836M295.094 133.91c-.322-.722-1.076-1.978-1.193-2.745a1.165 1.165 0 0 1 .3-.961c.604-.65 1.356-.986 2.243-1.17.484-.1.985.105 1.26.517.822 1.236 1.683 3.997 2.105 5.528-2.82-.364-4.715-1.17-4.715-1.17"/></g><g><path d="M354.202 99.325c.48.64.782 1.015.934 1.648a1.22 1.22 0 0 1-.333 1.173c-.274.258-.63.433-.972.622-3.954 2.187-8.33 2.957-12.69 3.788-1.038.198-3.335.528-4.59.757.242-2.918.078-4.348.078-4.348 5.039-.801 10.926-1.725 15.44-4.058.719-.371 1.09-.972 2.133.418M341.508 94.894c-1.353.28-3.663.819-4.984 1.108-3.358.735-6.566 1.833-9.47 3.742-1.574 1.034-3.115.05-3.465-2.024-.064-.377.039-.796.34-1.033 4.98-3.916 10.908-5.068 17.941-5.99-.421 1.956-.362 4.197-.362 4.197M342.555 100.65c-.513-5.487.692-14.29 2.996-17.307.269-.352.71-.532 1.148-.468.704.104 1.338.477 1.956.85.597.36.816 1.014.537 1.633-1.94 4.285-2.405 9.638-2.444 14.267-1.206.555-4.193 1.024-4.193 1.024M335.511 97.498c-.014 5.795.278 12.341-1.86 17.358-.181.424-.578.725-1.038.753-.618.038-1.078-.135-1.534-.292-1.593-.548-1.835-.975-1.291-2.559 1.276-3.718 1.44-7.565 1.417-11.44-.003-.587.008-1.736.015-2.37 1.372-.96 4.291-1.45 4.291-1.45M340.858 112.446c.32-1.397.99-3.397 1.263-4.84 1.363-.207 4.294-.873 4.294-.873-.227 2.076-.683 5.308-1.54 7.105a1.213 1.213 0 0 1-1.146.678c-.921-.037-1.724-.285-2.448-.856a1.207 1.207 0 0 1-.423-1.214M331.92 91.444c.408-2.633 1.264-5.264 2.106-6.852a1.197 1.197 0 0 1 1.208-.623c.931.123 1.677.475 2.311 1.075.313.295.46.729.374 1.151-.247 1.232-1.15 3.038-1.498 4.22 0 0-2.566.445-4.502 1.029M349.363 88.377c2.896-1.59 3.936-2.2 4.87 1.516.108.435-.159.757-.519 1.026-1.154.86-3.849 1.844-5.347 2.383.287-3.07.996-4.925.996-4.925M329.549 109.828c-.655.443-1.76 1.404-2.496 1.652a1.165 1.165 0 0 1-.999-.129c-.744-.482-1.206-1.164-1.54-2.005a1.22 1.22 0 0 1 .289-1.33c1.075-1.026 3.644-2.353 5.079-3.035.13 2.841-.333 4.847-.333 4.847"/></g><g><path d="M381.217 146.233c-.482.637-.76 1.032-1.326 1.353a1.22 1.22 0 0 1-1.22.003c-.324-.193-.59-.487-.866-.763-3.192-3.198-5.139-7.193-7.138-11.154-.477-.944-1.427-3.061-1.994-4.204 2.872-.571 4.201-1.124 4.201-1.124 2.16 4.623 4.67 10.027 8.157 13.723.555.59 1.235.781.186 2.166M381.978 132.81c-.643-1.224-1.797-3.296-2.44-4.486-1.632-3.025-3.57-5.806-6.206-8.072-1.428-1.228-.907-2.98.99-3.889.344-.165.776-.182 1.086.042 5.138 3.709 7.88 9.09 10.703 15.596-1.995.134-4.133.81-4.133.81M376.734 135.402c5.132-2.005 13.926-3.273 17.461-1.89.413.162.708.535.767.975.094.705-.09 1.417-.279 2.114-.181.673-.749 1.065-1.42.966-4.655-.683-9.928.346-14.389 1.584-.866-1.007-2.14-3.749-2.14-3.749M377.822 127.763c-5.575 1.584-11.787 3.669-17.199 2.996a1.223 1.223 0 0 1-1.01-.79c-.206-.584-.167-1.073-.142-1.554.088-1.683.432-2.033 2.104-1.947 3.926.202 7.67-.7 11.388-1.791.563-.165 1.67-.47 2.281-.64 1.302 1.055 2.578 3.726 2.578 3.726M364.926 137.023c1.431-.078 3.54.016 5.002-.12.573 1.253 2.022 3.887 2.022 3.887-2.058.354-5.29.806-7.255.477a1.213 1.213 0 0 1-.967-.914c-.218-.895-.201-1.735.148-2.588a1.207 1.207 0 0 1 1.05-.742M382.651 122.641c2.644-.332 5.408-.235 7.167.137.484.102.86.5.932.99.138.929.006 1.742-.396 2.517a1.248 1.248 0 0 1-1.004.677c-1.252.102-3.237-.268-4.469-.277 0 0-1.135-2.344-2.23-4.044M390.408 138.564c2.326 2.345 3.199 3.178-.115 5.098-.389.226-.772.058-1.13-.215-1.145-.872-2.833-3.191-3.765-4.482 3.031-.572 5.01-.4 5.01-.4M364.326 125.43c-.607-.507-1.835-1.305-2.276-1.943-.2-.289-.254-.66-.152-.996.259-.848.787-1.48 1.504-2.034a1.22 1.22 0 0 1 1.358-.088c1.282.75 3.265 2.854 4.316 4.045-2.694.91-4.75 1.016-4.75 1.016"/></g><g><path d="M432.217 122.233c-.482.637-.76 1.032-1.326 1.353a1.22 1.22 0 0 1-1.22.003c-.324-.193-.59-.487-.866-.763-3.192-3.198-5.139-7.193-7.138-11.154-.477-.944-1.427-3.061-1.994-4.204 2.872-.571 4.201-1.124 4.201-1.124 2.16 4.623 4.67 10.027 8.157 13.723.555.59 1.235.781.186 2.166M432.978 108.81c-.643-1.224-1.797-3.296-2.44-4.486-1.632-3.025-3.57-5.806-6.206-8.072-1.428-1.228-.907-2.98.99-3.889.344-.165.776-.182 1.086.042 5.138 3.709 7.88 9.09 10.703 15.596-1.995.134-4.133.81-4.133.81M427.734 111.402c5.132-2.005 13.926-3.273 17.461-1.89.413.162.708.535.767.975.094.705-.09 1.417-.279 2.114-.181.673-.749 1.065-1.42.966-4.655-.683-9.928.346-14.389 1.584-.866-1.007-2.14-3.749-2.14-3.749M428.822 103.763c-5.575 1.584-11.787 3.669-17.199 2.996a1.223 1.223 0 0 1-1.01-.79c-.206-.584-.167-1.073-.142-1.554.088-1.683.432-2.033 2.104-1.947 3.926.202 7.67-.7 11.388-1.791.563-.165 1.67-.47 2.281-.64 1.302 1.055 2.578 3.726 2.578 3.726M415.926 113.023c1.431-.078 3.54.016 5.002-.12.573 1.253 2.022 3.887 2.022 3.887-2.058.354-5.29.806-7.255.477a1.213 1.213 0 0 1-.967-.914c-.218-.895-.201-1.735.148-2.588a1.207 1.207 0 0 1 1.05-.742M433.651 98.641c2.644-.332 5.408-.235 7.167.137.484.102.86.5.932.99.138.929.006 1.742-.396 2.517a1.248 1.248 0 0 1-1.004.677c-1.252.102-3.237-.268-4.469-.277 0 0-1.135-2.344-2.23-4.044M441.408 114.564c2.326 2.345 3.199 3.178-.115 5.098-.389.226-.772.058-1.13-.215-1.145-.872-2.833-3.191-3.765-4.482 3.031-.572 5.01-.4 5.01-.4M415.326 101.43c-.607-.507-1.835-1.305-2.276-1.943-.2-.289-.254-.66-.152-.996.259-.848.787-1.48 1.504-2.034a1.22 1.22 0 0 1 1.358-.088c1.282.75 3.265 2.854 4.316 4.045-2.694.91-4.75 1.016-4.75 1.016"/></g><g><path d="M411.4 173.73c-.779.178-1.246.302-1.886.183a1.22 1.22 0 0 1-.935-.781c-.125-.356-.14-.752-.174-1.142-.39-4.501.687-8.812 1.701-13.132.242-1.03.875-3.263 1.175-4.502 2.568 1.408 3.941 1.84 3.941 1.84-1.317 4.929-2.868 10.683-2.573 15.755.047.808.444 1.392-1.25 1.779M420.61 163.936c.295-1.35.743-3.68 1.016-5.004.694-3.367.996-6.744.434-10.174-.305-1.858 1.22-2.866 3.257-2.342.37.095.712.36.806.73 1.552 6.143.194 12.027-1.826 18.827-1.615-1.18-3.686-2.037-3.686-2.037M414.927 162.551c5.22 1.763 12.773 6.444 14.591 9.776.213.39.198.865-.039 1.24-.38.6-.98 1.027-1.572 1.44-.572.399-1.258.334-1.71-.173-3.126-3.515-7.827-6.117-12.04-8.035-.016-1.329.77-4.248.77-4.248M420.671 157.398c-5.288-2.37-11.387-4.765-15.1-8.76a1.223 1.223 0 0 1-.267-1.254c.218-.58.562-.93.89-1.282 1.15-1.232 1.638-1.28 2.864-.14 2.878 2.68 6.325 4.394 9.875 5.95.538.235 1.582.712 2.158.976.32 1.644-.42 4.51-.42 4.51M404.84 156.203c1.147.86 2.701 2.287 3.91 3.122-.367 1.33-.95 4.278-.95 4.278-1.804-1.052-4.572-2.783-5.865-4.297a1.213 1.213 0 0 1-.153-1.322c.408-.827.961-1.46 1.777-1.888.41-.215.911-.17 1.281.107M427.663 156.58c2.239 1.444 4.294 3.295 5.402 4.71.305.39.337.936.078 1.357-.491.801-1.116 1.34-1.922 1.675a1.248 1.248 0 0 1-1.204-.127c-1.024-.727-2.307-2.286-3.245-3.085 0 0 .637-2.525.891-4.53M423.37 173.763c.274 3.291.408 4.49-3.366 3.831-.442-.077-.627-.452-.726-.89-.317-1.404-.12-4.267-.003-5.855 2.69 1.511 4.095 2.914 4.095 2.914M411.832 146.936c-.138-.778-.566-2.18-.494-2.951.033-.35.23-.67.524-.861.743-.483 1.554-.628 2.459-.592.494.02.93.34 1.097.806.5 1.399.667 4.286.706 5.874-2.648-1.036-4.292-2.276-4.292-2.276"/></g><g><path d="M492.765 129.232c.31.736.514 1.175.508 1.825a1.22 1.22 0 0 1-.607 1.058c-.329.184-.717.268-1.094.368-4.365 1.166-8.798.854-13.228.606-1.056-.06-3.365-.295-4.638-.376.941-2.773 1.127-4.2 1.127-4.2 5.084.441 11.02.969 15.963-.202.788-.187 1.294-.68 1.97.921M481.52 121.862c-1.38-.056-3.752-.092-5.104-.13-3.436-.1-6.814.19-10.095 1.339-1.776.622-3.034-.705-2.872-2.802.03-.381.23-.763.58-.92 5.78-2.595 11.81-2.28 18.858-1.47-.882 1.794-1.366 3.983-1.366 3.983M481.144 127.7c.829-5.447 4.128-13.698 7.093-16.067a1.224 1.224 0 0 1 1.228-.177c.658.27 1.182.787 1.691 1.298.493.494.548 1.181.127 1.714-2.92 3.689-4.665 8.77-5.823 13.252-1.305.247-4.316-.02-4.316-.02M475.072 122.938c-1.416 5.62-2.716 12.042-6.005 16.392a1.223 1.223 0 0 1-1.189.48c-.609-.113-1.013-.391-1.417-.654-1.413-.918-1.545-1.39-.634-2.796 2.138-3.299 3.228-6.992 4.143-10.758.138-.57.427-1.681.587-2.295 1.564-.6 4.515-.37 4.515-.37M476.643 138.736c.648-1.279 1.784-3.057 2.397-4.392 1.372.13 4.377.192 4.377.192-.722 1.96-1.947 4.985-3.213 6.522a1.213 1.213 0 0 1-1.276.38c-.884-.258-1.603-.693-2.168-1.422a1.207 1.207 0 0 1-.117-1.28M473.051 116.194c1.034-2.455 2.5-4.8 3.701-6.138.33-.368.863-.494 1.323-.312.874.345 1.513.866 1.983 1.602.232.362.269.818.085 1.207-.539 1.136-1.852 2.67-2.475 3.732 0 0-2.597-.189-4.617-.09M490.719 117.439c3.194-.843 4.35-1.182 4.357 2.648.001.45-.336.697-.75.87-1.328.556-4.181.859-5.765 1.02 1.02-2.91 2.158-4.538 2.158-4.538M466.304 133.46c-.743.27-2.049.935-2.822.998-.35.029-.699-.11-.938-.366-.605-.648-.888-1.422-1.01-2.32a1.22 1.22 0 0 1 .603-1.22c1.29-.734 4.105-1.4 5.662-1.715-.56 2.788-1.495 4.622-1.495 4.622"/></g><g><path d="M552.765 138.232c.31.736.514 1.175.508 1.825a1.22 1.22 0 0 1-.607 1.058c-.329.184-.717.268-1.094.368-4.365 1.166-8.798.854-13.228.606-1.056-.06-3.365-.295-4.638-.376.941-2.773 1.127-4.2 1.127-4.2 5.084.441 11.02.969 15.963-.202.788-.187 1.294-.68 1.97.921M541.52 130.862c-1.38-.056-3.752-.092-5.104-.13-3.436-.1-6.814.19-10.095 1.339-1.776.622-3.034-.705-2.872-2.802.03-.381.23-.763.58-.92 5.78-2.595 11.81-2.28 18.858-1.47-.882 1.794-1.366 3.983-1.366 3.983M541.144 136.7c.829-5.447 4.128-13.698 7.093-16.067a1.224 1.224 0 0 1 1.228-.177c.658.27 1.182.787 1.691 1.298.493.494.548 1.181.127 1.714-2.92 3.689-4.665 8.77-5.823 13.252-1.305.247-4.316-.02-4.316-.02M535.072 131.938c-1.416 5.62-2.716 12.042-6.005 16.392a1.223 1.223 0 0 1-1.189.48c-.609-.113-1.013-.391-1.417-.654-1.413-.918-1.545-1.39-.634-2.796 2.138-3.299 3.228-6.992 4.143-10.758.138-.57.427-1.681.587-2.295 1.564-.6 4.515-.37 4.515-.37M536.643 147.736c.648-1.279 1.784-3.057 2.397-4.392 1.372.13 4.377.192 4.377.192-.722 1.96-1.947 4.985-3.213 6.522a1.213 1.213 0 0 1-1.276.38c-.884-.258-1.603-.693-2.168-1.422a1.207 1.207 0 0 1-.117-1.28M533.051 125.194c1.034-2.455 2.5-4.8 3.701-6.138.33-.368.863-.494 1.323-.312.874.345 1.513.866 1.983 1.602.232.362.269.818.085 1.207-.539 1.136-1.852 2.67-2.475 3.732 0 0-2.597-.189-4.617-.09M550.719 126.439c3.194-.843 4.35-1.182 4.357 2.648.001.45-.336.697-.75.87-1.328.556-4.181.859-5.765 1.02 1.02-2.91 2.158-4.538 2.158-4.538M526.304 142.46c-.743.27-2.049.935-2.822.998-.35.029-.699-.11-.938-.366-.605-.648-.888-1.422-1.01-2.32a1.22 1.22 0 0 1 .603-1.22c1.29-.734 4.105-1.4 5.662-1.715-.56 2.788-1.495 4.622-1.495 4.622"/></g></g></svg>