<svg xmlns="http://www.w3.org/2000/svg" viewBox="0 0 605 180"><title>full-color-slack</title><g fill-rule="evenodd"><path d="M37.962 5.357a3.09 3.09 0 0 0-4.372.223 3.106 3.106 0 0 0 .235 4.38L53.1 27.347a3.091 3.091 0 0 0 4.221-.215c1.185-1.232 1.177-3.247-.086-4.387L37.962 5.357M29.249 15.053a3.092 3.092 0 0 0-4.373.223 3.106 3.106 0 0 0 .236 4.38l19.275 17.388a3.09 3.09 0 0 0 4.22-.215c1.186-1.232 1.178-3.247-.085-4.387L29.249 15.053"/><path d="M56.907 18.035a3.106 3.106 0 0 0-.235-4.38 3.091 3.091 0 0 0-4.372.222L35 33.134a3.106 3.106 0 0 0 .226 4.229c1.233 1.19 3.246 1.188 4.38-.074l17.301-19.254"/><path d="M41.868 34.772l4.135-4.602-4.607-4.156-4.135 4.602 4.607 4.156M50.581 25.075l4.135-4.602-4.607-4.157-4.135 4.602 4.607 4.157M47.201 9.278a3.106 3.106 0 0 0-.235-4.38 3.091 3.091 0 0 0-4.373.222l-17.3 19.257a3.106 3.106 0 0 0 .227 4.229c1.233 1.19 3.245 1.188 4.38-.074L47.2 9.278"/><path d="M32.161 26.015l4.136-4.602-4.607-4.157-4.136 4.604 4.607 4.155M40.874 16.319l4.136-4.603-4.607-4.157-4.136 4.603 4.607 4.157M85.915 40.044a3.09 3.09 0 0 0-3.492-2.64 3.106 3.106 0 0 0-2.635 3.507l3.589 25.709a3.091 3.091 0 0 0 3.372 2.548c1.699-.182 2.988-1.73 2.753-3.415l-3.587-25.71M73.008 41.87a3.092 3.092 0 0 0-3.493-2.639 3.106 3.106 0 0 0-2.635 3.507l3.589 25.71a3.09 3.09 0 0 0 3.372 2.548c1.699-.182 2.988-1.731 2.754-3.416-.01-.064-3.587-25.71-3.587-25.71"/><path d="M92.28 61.933a3.106 3.106 0 0 0 2.634-3.507 3.091 3.091 0 0 0-3.492-2.64l-25.63 3.632a3.106 3.106 0 0 0-2.545 3.385c.18 1.705 1.722 2.997 3.401 2.759l25.631-3.629"/><path d="M70 65.088l6.126-.868-.858-6.145-6.126.868.858 6.145M82.908 63.26l6.126-.867-.858-6.146-6.126.868.858 6.145M90.473 48.986a3.106 3.106 0 0 0 2.635-3.507 3.091 3.091 0 0 0-3.493-2.64l-25.63 3.632a3.106 3.106 0 0 0-2.544 3.385c.179 1.705 1.722 2.996 3.401 2.759l25.63-3.629"/><path d="M68.193 52.14l6.126-.867-.857-6.145-6.127.868.858 6.144M81.1 50.313l6.127-.867-.857-6.147-6.128.868.858 6.146M127.962 14.357a3.09 3.09 0 0 0-4.372.223 3.106 3.106 0 0 0 .235 4.38L143.1 36.347a3.091 3.091 0 0 0 4.221-.215c1.185-1.232 1.177-3.247-.086-4.387l-19.273-17.388M119.249 24.053a3.092 3.092 0 0 0-4.373.223 3.106 3.106 0 0 0 .236 4.38l19.275 17.388a3.09 3.09 0 0 0 4.22-.215c1.186-1.232 1.178-3.247-.085-4.387l-19.273-17.389"/><path d="M146.907 27.035a3.106 3.106 0 0 0-.235-4.38 3.091 3.091 0 0 0-4.372.222L125 42.134a3.106 3.106 0 0 0 .226 4.229c1.233 1.19 3.246 1.188 4.38-.074l17.301-19.254"/><path d="M131.868 43.772l4.135-4.602-4.607-4.156-4.135 4.602 4.607 4.156M140.581 34.075l4.135-4.602-4.607-4.157-4.135 4.602 4.607 4.157M137.201 18.278a3.106 3.106 0 0 0-.235-4.38 3.091 3.091 0 0 0-4.373.222l-17.3 19.257a3.106 3.106 0 0 0 .227 4.229c1.233 1.19 3.245 1.188 4.38-.074L137.2 18.278"/><path d="M122.161 35.015l4.136-4.602-4.607-4.157-4.136 4.604 4.607 4.155M130.874 25.319l4.136-4.603-4.607-4.157-4.136 4.603 4.607 4.157M208.478 22.09a3.09 3.09 0 0 0-2.98-3.206 3.106 3.106 0 0 0-3.205 2.996l-.93 25.942a3.091 3.091 0 0 0 2.878 3.095c1.705.116 3.244-1.186 3.305-2.885l.932-25.942M195.45 21.648a3.092 3.092 0 0 0-2.982-3.205 3.106 3.106 0 0 0-3.204 2.996l-.93 25.941a3.09 3.09 0 0 0 2.879 3.095c1.704.117 3.243-1.185 3.305-2.885l.932-25.942"/><path d="M210.944 44.753a3.106 3.106 0 0 0 3.204-2.997 3.091 3.091 0 0 0-2.98-3.205l-25.872-.875a3.106 3.106 0 0 0-3.094 2.892c-.12 1.71 1.176 3.25 2.87 3.307l25.872.878"/><path d="M188.456 43.99l6.183.21.223-6.2-6.184-.21-.222 6.2M201.485 44.432l6.183.21.223-6.202-6.184-.21-.222 6.202M211.414 31.689a3.106 3.106 0 0 0 3.204-2.997 3.091 3.091 0 0 0-2.981-3.206l-25.872-.874a3.106 3.106 0 0 0-3.093 2.892c-.12 1.71 1.175 3.25 2.87 3.307l25.872.878"/><path d="M188.924 30.926l6.185.21.223-6.2-6.186-.21-.222 6.2M201.953 31.368l6.185.21.222-6.203-6.185-.209-.222 6.202M258.962 11.357a3.09 3.09 0 0 0-4.372.223 3.106 3.106 0 0 0 .235 4.38L274.1 33.347a3.091 3.091 0 0 0 4.221-.215c1.185-1.232 1.177-3.247-.086-4.387l-19.273-17.388M250.249 21.053a3.092 3.092 0 0 0-4.373.223 3.106 3.106 0 0 0 .236 4.38l19.275 17.388a3.09 3.09 0 0 0 4.22-.215c1.186-1.232 1.178-3.247-.085-4.387l-19.273-17.389"/><path d="M277.907 24.035a3.106 3.106 0 0 0-.235-4.38 3.091 3.091 0 0 0-4.372.222L256 39.134a3.106 3.106 0 0 0 .226 4.229c1.233 1.19 3.246 1.188 4.38-.074l17.301-19.254"/><path d="M262.868 40.772l4.135-4.602-4.607-4.156-4.135 4.602 4.607 4.156M271.581 31.075l4.135-4.602-4.607-4.157-4.135 4.602 4.607 4.157M268.201 15.278a3.106 3.106 0 0 0-.235-4.38 3.091 3.091 0 0 0-4.373.222l-17.3 19.257a3.106 3.106 0 0 0 .227 4.229c1.233 1.19 3.245 1.188 4.38-.074L268.2 15.278"/><path d="M253.161 32.015l4.136-4.602-4.607-4.157-4.136 4.604 4.607 4.155M261.874 22.319l4.136-4.603-4.607-4.157-4.136 4.603 4.607 4.157"/><g><path d="M367.758 25.617a3.09 3.09 0 0 0-2.314-3.716 3.106 3.106 0 0 0-3.717 2.33l-5.863 25.287a3.091 3.091 0 0 0 2.235 3.588c1.651.439 3.41-.546 3.795-2.202l5.864-25.287M355.053 22.697a3.092 3.092 0 0 0-2.315-3.716 3.106 3.106 0 0 0-3.716 2.33l-5.863 25.287a3.09 3.09 0 0 0 2.235 3.588c1.651.439 3.41-.545 3.795-2.202l5.864-25.287"/><path d="M365.855 48.333a3.106 3.106 0 0 0 3.717-2.33 3.091 3.091 0 0 0-2.315-3.715l-25.23-5.796a3.106 3.106 0 0 0-3.588 2.249c-.443 1.656.534 3.414 2.187 3.794l25.229 5.798"/><path d="M343.925 43.294l6.03 1.385 1.402-6.044-6.03-1.385-1.402 6.044M356.63 46.213l6.03 1.386 1.402-6.045-6.03-1.386-1.401 6.045M368.808 35.599a3.106 3.106 0 0 0 3.717-2.33 3.091 3.091 0 0 0-2.315-3.716l-25.229-5.795a3.106 3.106 0 0 0-3.588 2.248c-.444 1.656.534 3.415 2.187 3.795l25.228 5.798"/><path d="M346.878 30.559l6.03 1.386 1.402-6.044-6.031-1.386-1.401 6.044M359.583 33.478l6.03 1.386 1.403-6.045-6.032-1.386-1.401 6.045"/></g><g><path d="M420.85 20.383a3.09 3.09 0 0 0-4.142 1.42 3.106 3.106 0 0 0 1.434 4.145l23.32 11.4a3.091 3.091 0 0 0 4-1.37c.798-1.51.235-3.445-1.293-4.192l-23.32-11.403M415.147 32.106a3.092 3.092 0 0 0-4.142 1.42 3.106 3.106 0 0 0 1.434 4.145l23.32 11.4a3.09 3.09 0 0 0 3.999-1.37c.8-1.51.236-3.445-1.292-4.192l-23.32-11.403"/><path d="M442.556 27.348a3.106 3.106 0 0 0-1.434-4.146 3.091 3.091 0 0 0-4.142 1.42L425.658 47.9a3.106 3.106 0 0 0 1.384 4.002c1.514.805 3.447.248 4.19-1.277l11.324-23.278"/><path d="M432.712 47.582l2.707-5.563-5.574-2.726-2.706 5.564 5.573 2.725M438.415 35.86c1.023-2.104 1.974-4.06 2.707-5.564l-5.575-2.726-2.706 5.564 5.574 2.725M430.812 21.606a3.106 3.106 0 0 0-1.434-4.146 3.091 3.091 0 0 0-4.141 1.42l-11.323 23.278a3.106 3.106 0 0 0 1.384 4.003c1.514.804 3.447.248 4.19-1.278l11.324-23.277"/><path d="M420.968 41.84l2.707-5.564-5.574-2.725-2.707 5.565 5.574 2.724M426.67 30.118l2.708-5.565-5.575-2.726-2.707 5.565 5.575 2.726"/></g><g><path d="M503.42 10.232a3.09 3.09 0 0 0-4.324.679 3.106 3.106 0 0 0 .692 4.331l20.986 15.277c1.34.91 3.17.638 4.176-.655 1.05-1.348.83-3.352-.544-4.353L503.42 10.23M495.768 20.786a3.092 3.092 0 0 0-4.325.68 3.106 3.106 0 0 0 .693 4.33l20.986 15.278a3.09 3.09 0 0 0 4.176-.655c1.05-1.349.83-3.353-.544-4.354l-20.986-15.279"/><path d="M523.587 20.86a3.106 3.106 0 0 0-.692-4.332 3.091 3.091 0 0 0-4.325.68l-15.192 20.958a3.106 3.106 0 0 0 .667 4.182c1.351 1.055 3.352.843 4.348-.53l15.194-20.958"/><path d="M510.38 39.077l3.631-5.009-5.016-3.651-3.63 5.01 5.015 3.65M518.032 28.523l3.631-5.01-5.017-3.652-3.63 5.01 5.016 3.652M513.02 13.166a3.106 3.106 0 0 0-.693-4.332 3.091 3.091 0 0 0-4.325.679l-15.193 20.96a3.106 3.106 0 0 0 .668 4.18c1.35 1.056 3.352.844 4.348-.53l15.194-20.957"/><path d="M499.81 31.384l3.633-5.01-5.016-3.652-3.632 5.01 5.016 3.652M507.463 20.83l3.632-5.01-5.017-3.653-3.632 5.01 5.017 3.653"/></g><g><path d="M567.021 40.344a3.09 3.09 0 0 0-2.117-3.832 3.106 3.106 0 0 0-3.833 2.132l-7.178 24.946a3.091 3.091 0 0 0 2.043 3.7c1.627.525 3.435-.366 3.905-2l7.18-24.946M554.486 36.763a3.092 3.092 0 0 0-2.117-3.832 3.106 3.106 0 0 0-3.834 2.133l-7.177 24.945a3.09 3.09 0 0 0 2.043 3.7c1.626.525 3.435-.366 3.905-2l7.18-24.946"/><path d="M563.931 62.93a3.106 3.106 0 0 0 3.834-2.132 3.091 3.091 0 0 0-2.117-3.832l-24.891-7.108a3.106 3.106 0 0 0-3.702 2.058c-.529 1.63.355 3.438 1.986 3.904l24.89 7.11"/><path d="M542.296 56.75l5.948 1.699 1.717-5.963-5.95-1.699-1.715 5.962M554.83 60.33l5.95 1.7 1.716-5.964-5.95-1.7-1.715 5.964M567.547 50.367a3.106 3.106 0 0 0 3.834-2.132 3.091 3.091 0 0 0-2.117-3.832l-24.891-7.107a3.106 3.106 0 0 0-3.702 2.057c-.53 1.63.355 3.438 1.986 3.904l24.89 7.11"/><path d="M545.91 44.187l5.95 1.7 1.717-5.963-5.951-1.7-1.715 5.963M558.445 47.767l5.95 1.7 1.717-5.964-5.95-1.7-1.717 5.964"/></g><g><path d="M32.478 63.09a3.09 3.09 0 0 0-2.98-3.206 3.106 3.106 0 0 0-3.205 2.996l-.93 25.942a3.091 3.091 0 0 0 2.878 3.095c1.705.116 3.244-1.186 3.305-2.885l.932-25.942M19.45 62.648a3.092 3.092 0 0 0-2.982-3.205 3.106 3.106 0 0 0-3.204 2.996l-.93 25.941a3.09 3.09 0 0 0 2.879 3.095c1.704.117 3.243-1.185 3.305-2.885l.932-25.942"/><path d="M34.944 85.753a3.106 3.106 0 0 0 3.204-2.997 3.091 3.091 0 0 0-2.98-3.205l-25.872-.875a3.106 3.106 0 0 0-3.094 2.892c-.12 1.71 1.176 3.25 2.87 3.307l25.872.878"/><path d="M12.456 84.99l6.183.21.223-6.2-6.184-.21-.222 6.2M25.485 85.432l6.183.21.223-6.202-6.184-.21-.222 6.202M35.414 72.689a3.106 3.106 0 0 0 3.204-2.997 3.091 3.091 0 0 0-2.981-3.206l-25.872-.874a3.106 3.106 0 0 0-3.093 2.892c-.12 1.71 1.175 3.25 2.87 3.307l25.872.878"/><path d="M12.924 71.926l6.185.21.223-6.2-6.186-.21-.222 6.2M25.953 72.368l6.185.21.222-6.203-6.185-.209-.222 6.202"/></g><g><path d="M117.962 69.357a3.09 3.09 0 0 0-4.372.223 3.106 3.106 0 0 0 .235 4.38L133.1 91.347a3.091 3.091 0 0 0 4.221-.215c1.185-1.232 1.177-3.247-.086-4.387l-19.273-17.388M109.249 79.053a3.092 3.092 0 0 0-4.373.223 3.106 3.106 0 0 0 .236 4.38l19.275 17.388a3.09 3.09 0 0 0 4.22-.215c1.186-1.232 1.178-3.247-.085-4.387l-19.273-17.389"/><path d="M136.907 82.035a3.106 3.106 0 0 0-.235-4.38 3.091 3.091 0 0 0-4.372.222L115 97.134a3.106 3.106 0 0 0 .226 4.229c1.233 1.19 3.246 1.188 4.38-.074l17.301-19.254"/><path d="M121.868 98.772l4.135-4.602-4.607-4.156-4.135 4.602 4.607 4.156M130.581 89.075l4.135-4.602-4.607-4.157-4.135 4.602 4.607 4.157M127.201 73.278a3.106 3.106 0 0 0-.235-4.38 3.091 3.091 0 0 0-4.373.222l-17.3 19.257a3.106 3.106 0 0 0 .227 4.229c1.233 1.19 3.245 1.188 4.38-.074L127.2 73.278"/><path d="M112.161 90.015l4.136-4.602-4.607-4.157-4.136 4.604 4.607 4.155M120.874 80.319l4.136-4.603-4.607-4.157-4.136 4.603 4.607 4.157"/></g><g><path d="M176.02 61.3a3.09 3.09 0 0 0-3.897-1.993 3.106 3.106 0 0 0-1.986 3.91l7.999 24.696a3.091 3.091 0 0 0 3.763 1.924c1.641-.474 2.642-2.224 2.118-3.842L176.021 61.3M163.626 65.34a3.092 3.092 0 0 0-3.898-1.993 3.106 3.106 0 0 0-1.986 3.912l8 24.695a3.09 3.09 0 0 0 3.762 1.924c1.642-.474 2.643-2.224 2.119-3.842l-7.997-24.696"/><path d="M186.089 81.752a3.106 3.106 0 0 0 1.986-3.912 3.091 3.091 0 0 0-3.898-1.993l-24.61 8.027a3.106 3.106 0 0 0-1.918 3.776c.472 1.647 2.216 2.651 3.829 2.126l24.61-8.024"/><path d="M164.696 88.727l5.882-1.918-1.911-5.903-5.883 1.919 1.912 5.902M177.09 84.685l5.882-1.917-1.911-5.904-5.883 1.918 1.912 5.903M182.062 69.315a3.106 3.106 0 0 0 1.986-3.912 3.091 3.091 0 0 0-3.898-1.992l-24.61 8.026a3.106 3.106 0 0 0-1.918 3.776c.472 1.647 2.216 2.652 3.828 2.126l24.612-8.024"/><path d="M160.668 76.29l5.883-1.918-1.911-5.903-5.884 1.919 1.912 5.902M173.062 72.25l5.883-1.92-1.912-5.903-5.883 1.919 1.912 5.903"/></g><g><path d="M230.962 59.357a3.09 3.09 0 0 0-4.372.223 3.106 3.106 0 0 0 .235 4.38L246.1 81.347a3.091 3.091 0 0 0 4.221-.215c1.185-1.232 1.177-3.247-.086-4.387l-19.273-17.388M222.249 69.053a3.092 3.092 0 0 0-4.373.223 3.106 3.106 0 0 0 .236 4.38l19.275 17.388a3.09 3.09 0 0 0 4.22-.215c1.186-1.232 1.178-3.247-.085-4.387l-19.273-17.389"/><path d="M249.907 72.035a3.106 3.106 0 0 0-.235-4.38 3.091 3.091 0 0 0-4.372.222L228 87.134a3.106 3.106 0 0 0 .226 4.229c1.233 1.19 3.246 1.188 4.38-.074l17.301-19.254"/><path d="M234.868 88.772l4.135-4.602-4.607-4.156-4.135 4.602 4.607 4.156M243.581 79.075l4.135-4.602-4.607-4.157-4.135 4.602 4.607 4.157M240.201 63.278a3.106 3.106 0 0 0-.235-4.38 3.091 3.091 0 0 0-4.373.222l-17.3 19.257a3.106 3.106 0 0 0 .227 4.229c1.233 1.19 3.245 1.188 4.38-.074L240.2 63.278"/><path d="M225.161 80.015l4.136-4.602-4.607-4.157-4.136 4.604 4.607 4.155M233.874 70.319l4.136-4.603-4.607-4.157-4.136 4.603 4.607 4.157"/></g><g><path d="M283.852 84.91a3.09 3.09 0 0 0-4.185-1.285 3.106 3.106 0 0 0-1.277 4.197l12.166 22.93a3.091 3.091 0 0 0 4.04 1.242c1.535-.752 2.216-2.649 1.42-4.151L283.851 84.91M272.348 91.042a3.092 3.092 0 0 0-4.185-1.285 3.106 3.106 0 0 0-1.277 4.197l12.166 22.93a3.09 3.09 0 0 0 4.04 1.242c1.534-.752 2.216-2.649 1.419-4.152l-12.163-22.932"/><path d="M297.319 103.304a3.106 3.106 0 0 0 1.276-4.197 3.091 3.091 0 0 0-4.184-1.286L271.568 110a3.106 3.106 0 0 0-1.233 4.051c.751 1.54 2.643 2.227 4.14 1.429l22.844-12.176"/><path d="M277.462 113.888l5.46-2.91-2.908-5.482-5.46 2.911 2.908 5.48M288.966 107.756l5.46-2.91-2.908-5.483-5.46 2.911 2.908 5.482M291.193 91.755a3.106 3.106 0 0 0 1.277-4.196 3.091 3.091 0 0 0-4.185-1.286L265.442 98.45a3.106 3.106 0 0 0-1.233 4.051c.751 1.54 2.643 2.227 4.14 1.43l22.844-12.177"/><path d="M271.335 102.34l5.46-2.91-2.906-5.482-5.462 2.911 2.908 5.48M282.84 96.208l5.46-2.91c-1.1-2.073-2.12-4-2.908-5.483l-5.46 2.911 2.907 5.482"/></g><g><path d="M310.852 44.91a3.09 3.09 0 0 0-4.185-1.285 3.106 3.106 0 0 0-1.277 4.197l12.166 22.93a3.091 3.091 0 0 0 4.04 1.242c1.535-.752 2.216-2.649 1.42-4.151L310.851 44.91M299.348 51.042a3.092 3.092 0 0 0-4.185-1.285 3.106 3.106 0 0 0-1.277 4.197l12.166 22.93a3.09 3.09 0 0 0 4.04 1.242c1.534-.752 2.216-2.649 1.419-4.152l-12.163-22.932"/><path d="M324.319 63.304a3.106 3.106 0 0 0 1.276-4.197 3.091 3.091 0 0 0-4.184-1.286L298.568 70a3.106 3.106 0 0 0-1.233 4.051c.751 1.54 2.643 2.227 4.14 1.429l22.844-12.176"/><path d="M304.462 73.888l5.46-2.91-2.908-5.482-5.46 2.911 2.908 5.48M315.966 67.756l5.46-2.91-2.908-5.483-5.46 2.911 2.908 5.482M318.193 51.755a3.106 3.106 0 0 0 1.277-4.196 3.091 3.091 0 0 0-4.185-1.286L292.442 58.45a3.106 3.106 0 0 0-1.233 4.051c.751 1.54 2.643 2.227 4.14 1.43l22.844-12.177"/><path d="M298.335 62.34l5.46-2.91-2.906-5.482-5.462 2.911 2.908 5.48M309.84 56.208l5.46-2.91c-1.1-2.073-2.12-4-2.908-5.483l-5.46 2.911 2.907 5.482"/></g><g><path d="M380.42 58.232a3.09 3.09 0 0 0-4.324.679 3.106 3.106 0 0 0 .692 4.331l20.986 15.277c1.34.91 3.17.638 4.176-.655 1.05-1.348.83-3.352-.544-4.353L380.42 58.23M372.768 68.786a3.092 3.092 0 0 0-4.325.68 3.106 3.106 0 0 0 .693 4.33l20.986 15.278a3.09 3.09 0 0 0 4.176-.655c1.05-1.349.83-3.353-.544-4.354l-20.986-15.279"/><path d="M400.587 68.86a3.106 3.106 0 0 0-.692-4.332 3.091 3.091 0 0 0-4.325.68l-15.192 20.958a3.106 3.106 0 0 0 .667 4.182c1.351 1.055 3.352.843 4.348-.53l15.194-20.958"/><path d="M387.38 87.077l3.631-5.009-5.016-3.651-3.63 5.01 5.015 3.65M395.032 76.523l3.631-5.01-5.017-3.652-3.63 5.01 5.016 3.652M390.02 61.166a3.106 3.106 0 0 0-.693-4.332 3.091 3.091 0 0 0-4.325.679l-15.193 20.96a3.106 3.106 0 0 0 .668 4.18c1.35 1.056 3.352.844 4.348-.53l15.194-20.957"/><path d="M376.81 79.384l3.633-5.01-5.016-3.652-3.632 5.01 5.016 3.652M384.463 68.83l3.632-5.01-5.017-3.653-3.632 5.01 5.017 3.653"/></g><g><path d="M476 57.98a3.09 3.09 0 0 0-2.75-3.406 3.106 3.106 0 0 0-3.406 2.765l-2.737 25.814a3.091 3.091 0 0 0 2.655 3.288c1.693.235 3.32-.957 3.499-2.648L476 57.98M463.034 56.63a3.092 3.092 0 0 0-2.75-3.406 3.106 3.106 0 0 0-3.406 2.766l-2.737 25.813a3.09 3.09 0 0 0 2.655 3.289c1.693.234 3.319-.957 3.498-2.648l2.74-25.814"/><path d="M476.879 80.76a3.106 3.106 0 0 0 3.405-2.766 3.091 3.091 0 0 0-2.75-3.406l-25.748-2.678a3.106 3.106 0 0 0-3.287 2.67c-.239 1.697.946 3.324 2.633 3.5l25.747 2.68"/><path d="M454.499 78.43l6.153.64.655-6.17-6.154-.64-.654 6.17M467.465 79.78l6.154.64.655-6.171-6.155-.64-.654 6.17M478.259 67.76a3.106 3.106 0 0 0 3.405-2.766 3.091 3.091 0 0 0-2.75-3.406l-25.748-2.677a3.106 3.106 0 0 0-3.288 2.67c-.238 1.696.946 3.323 2.633 3.499l25.748 2.68"/><path d="M455.877 65.43c1.676.174 3.836.4 6.154.64l.655-6.17-6.155-.64-.654 6.17M468.843 66.78l6.155.64.655-6.171-6.155-.64-.655 6.17"/></g><g><path d="M522.815 72.957a3.09 3.09 0 0 0-3.75-2.26 3.106 3.106 0 0 0-2.254 3.763l6.257 25.193a3.091 3.091 0 0 0 3.62 2.182c1.67-.358 2.791-2.034 2.381-3.684l-6.254-25.194M510.169 76.124a3.092 3.092 0 0 0-3.75-2.26 3.106 3.106 0 0 0-2.254 3.763l6.257 25.193a3.09 3.09 0 0 0 3.62 2.182c1.67-.358 2.791-2.034 2.381-3.685l-6.254-25.193"/><path d="M531.432 94.062a3.106 3.106 0 0 0 2.254-3.763 3.091 3.091 0 0 0-3.75-2.26l-25.11 6.29a3.106 3.106 0 0 0-2.176 3.633c.356 1.676 2.026 2.8 3.67 2.388l25.112-6.288"/><path d="M509.604 99.528l6.002-1.503-1.495-6.022-6.002 1.504 1.495 6.02M522.25 96.36c2.27-.567 4.378-1.095 6.002-1.502l-1.495-6.023-6.002 1.504 1.496 6.022M528.282 81.374a3.106 3.106 0 0 0 2.254-3.763 3.091 3.091 0 0 0-3.75-2.26l-25.11 6.29a3.106 3.106 0 0 0-2.176 3.633c.356 1.677 2.026 2.8 3.671 2.388l25.111-6.288"/><path d="M506.454 86.84l6.002-1.503-1.495-6.021-6.003 1.503 1.496 6.021M519.1 83.674l6.002-1.503-1.495-6.023-6.003 1.503 1.495 6.023"/></g><g><path d="M573.42 79.232a3.09 3.09 0 0 0-4.324.679 3.106 3.106 0 0 0 .692 4.331l20.986 15.277c1.34.91 3.17.638 4.176-.655 1.05-1.348.83-3.352-.544-4.353L573.42 79.23M565.768 89.786a3.092 3.092 0 0 0-4.325.68 3.106 3.106 0 0 0 .693 4.33l20.986 15.278a3.09 3.09 0 0 0 4.176-.655c1.05-1.349.83-3.353-.544-4.354l-20.986-15.279"/><path d="M593.587 89.86a3.106 3.106 0 0 0-.692-4.332 3.091 3.091 0 0 0-4.325.68l-15.192 20.958a3.106 3.106 0 0 0 .667 4.182c1.351 1.055 3.352.843 4.348-.53l15.194-20.958"/><path d="M580.38 108.077l3.631-5.009-5.016-3.651-3.63 5.01 5.015 3.65M588.032 97.523l3.631-5.01-5.017-3.652-3.63 5.01 5.016 3.652M583.02 82.166a3.106 3.106 0 0 0-.693-4.332 3.091 3.091 0 0 0-4.325.679l-15.193 20.96a3.106 3.106 0 0 0 .668 4.18c1.35 1.056 3.352.844 4.348-.53l15.194-20.957"/><path d="M569.81 100.384l3.633-5.01-5.016-3.652-3.632 5.01 5.016 3.652M577.463 89.83l3.632-5.01-5.017-3.653-3.632 5.01 5.017 3.653"/></g><g><path d="M70.478 92.09a3.09 3.09 0 0 0-2.98-3.206 3.106 3.106 0 0 0-3.205 2.996l-.93 25.942a3.091 3.091 0 0 0 2.878 3.095c1.705.116 3.244-1.186 3.305-2.885l.932-25.942M57.45 91.648a3.092 3.092 0 0 0-2.982-3.205 3.106 3.106 0 0 0-3.204 2.996l-.93 25.941a3.09 3.09 0 0 0 2.879 3.095c1.704.117 3.243-1.185 3.305-2.885l.932-25.942"/><path d="M72.944 114.753a3.106 3.106 0 0 0 3.204-2.997 3.091 3.091 0 0 0-2.98-3.205l-25.872-.875a3.106 3.106 0 0 0-3.094 2.892c-.12 1.71 1.176 3.25 2.87 3.307l25.872.878"/><path d="M50.456 113.99l6.183.21.223-6.2-6.184-.21-.222 6.2M63.485 114.432l6.183.21.223-6.202-6.184-.21-.222 6.202M73.414 101.689a3.106 3.106 0 0 0 3.204-2.997 3.091 3.091 0 0 0-2.981-3.206l-25.872-.874a3.106 3.106 0 0 0-3.093 2.892c-.12 1.71 1.175 3.25 2.87 3.307l25.872.878"/><path d="M50.924 100.926l6.185.21.223-6.2-6.186-.21-.222 6.2M63.953 101.368l6.185.21.222-6.203-6.185-.209-.222 6.202"/></g><g><path d="M32.475 124.92a3.09 3.09 0 0 0-4.345-.54 3.106 3.106 0 0 0-.528 4.355l15.962 20.47a3.091 3.091 0 0 0 4.195.521c1.38-1.007 1.722-2.994.677-4.335L32.475 124.92M22.21 132.956a3.092 3.092 0 0 0-4.344-.54 3.106 3.106 0 0 0-.529 4.355l15.963 20.47a3.09 3.09 0 0 0 4.194.521c1.38-1.007 1.723-2.993.677-4.335l-15.96-20.47"/><path d="M48.93 140.695a3.106 3.106 0 0 0 .53-4.355 3.091 3.091 0 0 0-4.345-.54l-20.381 15.96a3.106 3.106 0 0 0-.51 4.205c1.007 1.386 2.989 1.733 4.324.688l20.383-15.958"/><path d="M31.214 154.566l4.871-3.814-3.815-4.893-4.871 3.815 3.815 4.892M41.478 146.53l4.872-3.814-3.816-4.894-4.871 3.814 3.815 4.894M40.893 130.386a3.106 3.106 0 0 0 .529-4.355 3.091 3.091 0 0 0-4.345-.54l-20.381 15.96a3.106 3.106 0 0 0-.51 4.204c1.007 1.387 2.989 1.734 4.324.688l20.383-15.957"/><path d="M23.175 144.257l4.872-3.814-3.815-4.893-4.872 3.815 3.815 4.892M33.44 136.221l4.872-3.815-3.816-4.894-4.872 3.816 3.815 4.893"/></g><g><path d="M97.02 128.3a3.09 3.09 0 0 0-3.897-1.993 3.106 3.106 0 0 0-1.986 3.91l7.999 24.696a3.091 3.091 0 0 0 3.763 1.924c1.641-.474 2.642-2.224 2.118-3.842L97.021 128.3M84.626 132.34a3.092 3.092 0 0 0-3.898-1.993 3.106 3.106 0 0 0-1.986 3.912l8 24.695a3.09 3.09 0 0 0 3.762 1.924c1.642-.474 2.643-2.224 2.119-3.842l-7.997-24.696"/><path d="M107.089 148.752a3.106 3.106 0 0 0 1.986-3.912 3.091 3.091 0 0 0-3.898-1.993l-24.61 8.027a3.106 3.106 0 0 0-1.918 3.776c.472 1.647 2.216 2.651 3.829 2.126l24.61-8.024"/><path d="M85.696 155.727l5.882-1.918-1.911-5.903-5.883 1.919 1.912 5.902M98.09 151.685l5.882-1.917-1.911-5.904-5.883 1.918 1.912 5.903M103.062 136.315a3.106 3.106 0 0 0 1.986-3.912 3.091 3.091 0 0 0-3.898-1.992l-24.61 8.026a3.106 3.106 0 0 0-1.918 3.776c.472 1.647 2.216 2.652 3.828 2.126l24.612-8.024"/><path d="M81.668 143.29l5.883-1.918-1.911-5.903-5.884 1.919 1.912 5.902M94.062 139.25l5.883-1.92-1.912-5.903-5.883 1.919 1.912 5.903"/></g><g><path d="M153.478 114.09a3.09 3.09 0 0 0-2.98-3.206 3.106 3.106 0 0 0-3.205 2.996l-.93 25.942a3.091 3.091 0 0 0 2.878 3.095c1.705.116 3.244-1.186 3.305-2.885l.932-25.942M140.45 113.648a3.092 3.092 0 0 0-2.982-3.205 3.106 3.106 0 0 0-3.204 2.996l-.93 25.941a3.09 3.09 0 0 0 2.879 3.095c1.704.117 3.243-1.185 3.305-2.885l.932-25.942"/><path d="M155.944 136.753a3.106 3.106 0 0 0 3.204-2.997 3.091 3.091 0 0 0-2.98-3.205l-25.872-.875a3.106 3.106 0 0 0-3.094 2.892c-.12 1.71 1.176 3.25 2.87 3.307l25.872.878"/><path d="M133.456 135.99l6.183.21.223-6.2-6.184-.21-.222 6.2M146.485 136.432l6.183.21.223-6.202-6.184-.21-.222 6.202M156.414 123.689a3.106 3.106 0 0 0 3.204-2.997 3.091 3.091 0 0 0-2.981-3.206l-25.872-.874a3.106 3.106 0 0 0-3.093 2.892c-.12 1.71 1.175 3.25 2.87 3.307l25.872.878"/><path d="M133.924 122.926l6.185.21.223-6.2-6.186-.21-.222 6.2M146.953 123.368l6.185.21.222-6.203-6.185-.209-.222 6.202"/></g><g><path d="M207.478 106.09a3.09 3.09 0 0 0-2.98-3.206 3.106 3.106 0 0 0-3.205 2.996l-.93 25.942a3.091 3.091 0 0 0 2.878 3.095c1.705.116 3.244-1.186 3.305-2.885l.932-25.942M194.45 105.648a3.092 3.092 0 0 0-2.982-3.205 3.106 3.106 0 0 0-3.204 2.996l-.93 25.941a3.09 3.09 0 0 0 2.879 3.095c1.704.117 3.243-1.185 3.305-2.885l.932-25.942"/><path d="M209.944 128.753a3.106 3.106 0 0 0 3.204-2.997 3.091 3.091 0 0 0-2.98-3.205l-25.872-.875a3.106 3.106 0 0 0-3.094 2.892c-.12 1.71 1.176 3.25 2.87 3.307l25.872.878"/><path d="M187.456 127.99l6.183.21.223-6.2-6.184-.21-.222 6.2M200.485 128.432l6.183.21.223-6.202-6.184-.21-.222 6.202M210.414 115.689a3.106 3.106 0 0 0 3.204-2.997 3.091 3.091 0 0 0-2.981-3.206l-25.872-.874a3.106 3.106 0 0 0-3.093 2.892c-.12 1.71 1.175 3.25 2.87 3.307l25.872.878"/><path d="M187.924 114.926l6.185.21.223-6.2-6.186-.21-.222 6.2M200.953 115.368l6.185.21.222-6.203-6.185-.209-.222 6.202"/></g><g><path d="M190.962 144.357a3.09 3.09 0 0 0-4.372.223 3.106 3.106 0 0 0 .235 4.38l19.275 17.387a3.091 3.091 0 0 0 4.221-.215c1.185-1.232 1.177-3.247-.086-4.387l-19.273-17.388M182.249 154.053a3.092 3.092 0 0 0-4.373.223 3.106 3.106 0 0 0 .236 4.38l19.275 17.388a3.09 3.09 0 0 0 4.22-.215c1.186-1.232 1.178-3.247-.085-4.387l-19.273-17.389"/><path d="M209.907 157.035a3.106 3.106 0 0 0-.235-4.38 3.091 3.091 0 0 0-4.372.222L188 172.134a3.106 3.106 0 0 0 .226 4.229c1.233 1.19 3.246 1.188 4.38-.074l17.301-19.254"/><path d="M194.868 173.772l4.135-4.602-4.607-4.156-4.135 4.602 4.607 4.156M203.581 164.075l4.135-4.602-4.607-4.157-4.135 4.602 4.607 4.157M200.201 148.278a3.106 3.106 0 0 0-.235-4.38 3.091 3.091 0 0 0-4.373.222l-17.3 19.257a3.106 3.106 0 0 0 .227 4.229c1.233 1.19 3.245 1.188 4.38-.074l17.301-19.254"/><path d="M185.161 165.015l4.136-4.602-4.607-4.157-4.136 4.604 4.607 4.155M193.874 155.319l4.136-4.603-4.607-4.157-4.136 4.603 4.607 4.157"/></g><g><path d="M250.962 126.357a3.09 3.09 0 0 0-4.372.223 3.106 3.106 0 0 0 .235 4.38l19.275 17.387a3.091 3.091 0 0 0 4.221-.215c1.185-1.232 1.177-3.247-.086-4.387l-19.273-17.388M242.249 136.053a3.092 3.092 0 0 0-4.373.223 3.106 3.106 0 0 0 .236 4.38l19.275 17.388a3.09 3.09 0 0 0 4.22-.215c1.186-1.232 1.178-3.247-.085-4.387l-19.273-17.389"/><path d="M269.907 139.035a3.106 3.106 0 0 0-.235-4.38 3.091 3.091 0 0 0-4.372.222L248 154.134a3.106 3.106 0 0 0 .226 4.229c1.233 1.19 3.246 1.188 4.38-.074l17.301-19.254"/><path d="M254.868 155.772l4.135-4.602-4.607-4.156-4.135 4.602 4.607 4.156M263.581 146.075l4.135-4.602-4.607-4.157-4.135 4.602 4.607 4.157M260.201 130.278a3.106 3.106 0 0 0-.235-4.38 3.091 3.091 0 0 0-4.373.222l-17.3 19.257a3.106 3.106 0 0 0 .227 4.229c1.233 1.19 3.245 1.188 4.38-.074l17.301-19.254"/><path d="M245.161 147.015l4.136-4.602-4.607-4.157-4.136 4.604 4.607 4.155M253.874 137.319l4.136-4.603-4.607-4.157-4.136 4.603 4.607 4.157"/></g><g><path d="M318.761 139.39a3.09 3.09 0 0 0-.978-4.268 3.106 3.106 0 0 0-4.273.993l-13.776 22a3.091 3.091 0 0 0 .945 4.12c1.418.954 3.402.596 4.305-.846l13.777-22M307.7 132.492a3.092 3.092 0 0 0-.98-4.267 3.106 3.106 0 0 0-4.273.993l-13.776 22a3.09 3.09 0 0 0 .945 4.12c1.419.954 3.402.596 4.305-.846l13.778-22"/><path d="M309.566 160.248c1.45.905 3.363.46 4.273-.992a3.091 3.091 0 0 0-.979-4.267l-21.968-13.694a3.106 3.106 0 0 0-4.125.958c-.958 1.421-.607 3.402.832 4.3l21.967 13.695"/><path d="M290.472 148.344l5.25 3.273 3.293-5.258-5.25-3.273-3.293 5.258M301.534 155.24l5.25 3.274 3.294-5.26-5.25-3.272-3.294 5.259M316.505 149.17c1.45.903 3.363.459 4.272-.994a3.091 3.091 0 0 0-.979-4.267l-21.968-13.693a3.106 3.106 0 0 0-4.125.958c-.958 1.42-.606 3.402.833 4.3l21.967 13.695"/><path d="M297.41 137.264l5.25 3.274 3.294-5.259-5.252-3.273-3.293 5.258M308.472 144.161l5.25 3.274 3.295-5.26-5.252-3.273-3.293 5.259"/></g><g><path d="M330.835 85.569a3.09 3.09 0 0 0-4.032 1.705 3.106 3.106 0 0 0 1.72 4.035l24.058 9.746a3.091 3.091 0 0 0 3.894-1.645c.692-1.563-.005-3.454-1.582-4.093l-24.058-9.748M325.964 97.66a3.092 3.092 0 0 0-4.032 1.706 3.106 3.106 0 0 0 1.72 4.035l24.058 9.747a3.09 3.09 0 0 0 3.893-1.646c.692-1.563-.005-3.454-1.581-4.093l-24.058-9.748"/><path d="M352.974 91.003a3.106 3.106 0 0 0-1.72-4.036 3.091 3.091 0 0 0-4.032 1.705l-9.67 24.012a3.106 3.106 0 0 0 1.66 3.896c1.565.697 3.455.007 4.09-1.566.023-.06 9.672-24.011 9.672-24.011"/><path d="M344.566 111.874l2.312-5.739-5.75-2.33-2.312 5.74 5.75 2.329M349.437 99.782l2.312-5.739-5.751-2.33-2.312 5.739 5.751 2.33M340.859 86.093a3.106 3.106 0 0 0-1.72-4.035 3.091 3.091 0 0 0-4.032 1.705l-9.671 24.012a3.106 3.106 0 0 0 1.66 3.896c1.565.697 3.455.007 4.09-1.567.023-.06 9.673-24.01 9.673-24.01"/><path d="M332.45 106.966l2.312-5.74-5.75-2.33-2.312 5.74 5.75 2.33M337.321 94.874l2.312-5.74-5.751-2.33-2.312 5.74 5.751 2.33"/></g><g><path d="M388 119.98a3.09 3.09 0 0 0-2.75-3.406 3.106 3.106 0 0 0-3.406 2.765l-2.737 25.814a3.091 3.091 0 0 0 2.655 3.288c1.693.235 3.32-.957 3.499-2.648L388 119.98M375.034 118.63a3.092 3.092 0 0 0-2.75-3.406 3.106 3.106 0 0 0-3.406 2.766l-2.737 25.813a3.09 3.09 0 0 0 2.655 3.289c1.693.234 3.319-.957 3.498-2.648l2.74-25.814"/><path d="M388.879 142.76a3.106 3.106 0 0 0 3.405-2.766 3.091 3.091 0 0 0-2.75-3.406l-25.748-2.678a3.106 3.106 0 0 0-3.287 2.67c-.239 1.697.946 3.324 2.633 3.5l25.747 2.68"/><path d="M366.499 140.43l6.153.64.655-6.17-6.154-.64-.654 6.17M379.465 141.78l6.154.64.655-6.171-6.155-.64-.654 6.17M390.259 129.76a3.106 3.106 0 0 0 3.405-2.766 3.091 3.091 0 0 0-2.75-3.406l-25.748-2.677a3.106 3.106 0 0 0-3.288 2.67c-.238 1.696.946 3.323 2.633 3.499l25.748 2.68"/><path d="M367.877 127.43c1.676.174 3.836.4 6.154.64l.655-6.17-6.155-.64-.654 6.17M380.843 128.78l6.155.64.655-6.171-6.155-.64-.655 6.17"/></g><g><path d="M439 95.98a3.09 3.09 0 0 0-2.75-3.406 3.106 3.106 0 0 0-3.406 2.765l-2.737 25.814a3.091 3.091 0 0 0 2.655 3.288c1.693.235 3.32-.957 3.499-2.648L439 95.98M426.034 94.63a3.092 3.092 0 0 0-2.75-3.406 3.106 3.106 0 0 0-3.406 2.766l-2.737 25.813a3.09 3.09 0 0 0 2.655 3.289c1.693.234 3.319-.957 3.498-2.648l2.74-25.814"/><path d="M439.879 118.76a3.106 3.106 0 0 0 3.405-2.766 3.091 3.091 0 0 0-2.75-3.406l-25.748-2.678a3.106 3.106 0 0 0-3.287 2.67c-.239 1.697.946 3.324 2.633 3.5l25.747 2.68"/><path d="M417.499 116.43l6.153.64.655-6.17-6.154-.64-.654 6.17M430.465 117.78l6.154.64.655-6.171-6.155-.64-.654 6.17M441.259 105.76a3.106 3.106 0 0 0 3.405-2.766 3.091 3.091 0 0 0-2.75-3.406l-25.748-2.677a3.106 3.106 0 0 0-3.288 2.67c-.238 1.696.946 3.323 2.633 3.499l25.748 2.68"/><path d="M418.877 103.43c1.676.174 3.836.4 6.154.64l.655-6.17-6.155-.64-.654 6.17M431.843 104.78l6.155.64.655-6.171-6.155-.64-.655 6.17"/></g><g><path d="M433.47 157.978a3.09 3.09 0 0 0 .083-4.377 3.106 3.106 0 0 0-4.386-.07l-18.689 18.015a3.091 3.091 0 0 0-.08 4.226c1.146 1.267 3.157 1.4 4.382.22l18.69-18.014M424.406 148.61a3.092 3.092 0 0 0 .082-4.377 3.106 3.106 0 0 0-4.386-.07l-18.69 18.014a3.09 3.09 0 0 0-.08 4.226c1.147 1.268 3.158 1.4 4.383.22l18.69-18.013"/><path d="M419.502 175.993a3.106 3.106 0 0 0 4.386.07 3.091 3.091 0 0 0 .083-4.376l-18.003-18.601a3.106 3.106 0 0 0-4.234-.069c-1.274 1.147-1.412 3.155-.233 4.373l18.001 18.603"/><path d="M403.855 159.823l4.302 4.446 4.468-4.305-4.303-4.446-4.467 4.305M412.92 169.192l4.303 4.446 4.468-4.307-4.303-4.446-4.468 4.307M428.915 166.922a3.106 3.106 0 0 0 4.386.07 3.091 3.091 0 0 0 .082-4.377l-18.002-18.6a3.106 3.106 0 0 0-4.235-.07c-1.273 1.147-1.411 3.155-.232 4.374l18 18.603"/><path d="M413.267 150.75l4.303 4.448 4.468-4.306-4.304-4.447-4.467 4.306M422.332 160.12l4.303 4.446 4.469-4.306-4.304-4.447-4.468 4.306"/></g><g><path d="M473.42 110.232a3.09 3.09 0 0 0-4.324.679 3.106 3.106 0 0 0 .692 4.331l20.986 15.277c1.34.91 3.17.638 4.176-.655 1.05-1.348.83-3.352-.544-4.353l-20.986-15.28M465.768 120.786a3.092 3.092 0 0 0-4.325.68 3.106 3.106 0 0 0 .693 4.33l20.986 15.278a3.09 3.09 0 0 0 4.176-.655c1.05-1.349.83-3.353-.544-4.354l-20.986-15.279"/><path d="M493.587 120.86a3.106 3.106 0 0 0-.692-4.332 3.091 3.091 0 0 0-4.325.68l-15.192 20.958a3.106 3.106 0 0 0 .667 4.182c1.351 1.055 3.352.843 4.348-.53l15.194-20.958"/><path d="M480.38 139.077l3.631-5.009-5.016-3.651-3.63 5.01 5.015 3.65M488.032 128.523l3.631-5.01-5.017-3.652-3.63 5.01 5.016 3.652M483.02 113.166a3.106 3.106 0 0 0-.693-4.332 3.091 3.091 0 0 0-4.325.679l-15.193 20.96a3.106 3.106 0 0 0 .668 4.18c1.35 1.056 3.352.844 4.348-.53l15.194-20.957"/><path d="M469.81 131.384l3.633-5.01-5.016-3.652-3.632 5.01 5.016 3.652M477.463 120.83l3.632-5.01-5.017-3.653-3.632 5.01 5.017 3.653"/></g><g><path d="M533.42 119.232a3.09 3.09 0 0 0-4.324.679 3.106 3.106 0 0 0 .692 4.331l20.986 15.277c1.34.91 3.17.638 4.176-.655 1.05-1.348.83-3.352-.544-4.353l-20.986-15.28M525.768 129.786a3.092 3.092 0 0 0-4.325.68 3.106 3.106 0 0 0 .693 4.33l20.986 15.278a3.09 3.09 0 0 0 4.176-.655c1.05-1.349.83-3.353-.544-4.354l-20.986-15.279"/><path d="M553.587 129.86a3.106 3.106 0 0 0-.692-4.332 3.091 3.091 0 0 0-4.325.68l-15.192 20.958a3.106 3.106 0 0 0 .667 4.182c1.351 1.055 3.352.843 4.348-.53l15.194-20.958"/><path d="M540.38 148.077l3.631-5.009-5.016-3.651-3.63 5.01 5.015 3.65M548.032 137.523l3.631-5.01-5.017-3.652-3.63 5.01 5.016 3.652M543.02 122.166a3.106 3.106 0 0 0-.693-4.332 3.091 3.091 0 0 0-4.325.679l-15.193 20.96a3.106 3.106 0 0 0 .668 4.18c1.35 1.056 3.352.844 4.348-.53l15.194-20.957"/><path d="M529.81 140.384l3.633-5.01-5.016-3.652-3.632 5.01 5.016 3.652M537.463 129.83l3.632-5.01-5.017-3.653-3.632 5.01 5.017 3.653"/></g></g></svg>