<svg xmlns="http://www.w3.org/2000/svg" viewBox="0 0 605 180"><title>full-color-twitter</title><g fill-rule="evenodd"><path d="M51.284 2.473a14.768 14.768 0 0 1-3.092 3.128 7.408 7.408 0 0 0 .77-5.162 14.791 14.791 0 0 1-3.166 3.897 7.377 7.377 0 0 0-5.835.676A7.386 7.386 0 0 0 37.257 15.1c.29.501.628.956 1.007 1.362-5.47 2.802-11.653 2.977-17.042.928a7.35 7.35 0 0 0 .99 3.716 7.382 7.382 0 0 0 5.92 3.68 7.356 7.356 0 0 1-3.36.874l.047.08a7.39 7.39 0 0 0 8.752 3.31 7.396 7.396 0 0 1-2.826 1.777 7.393 7.393 0 0 0 8.54.992 14.82 14.82 0 0 1-6.363 7.325c-.516.298-1.043.562-1.578.791 3.879.18 7.852-.701 11.465-2.787C54.574 30.356 55.38 16.896 50.5 8.444c-.16-.278-.325-.55-.496-.817a15.011 15.011 0 0 0 1.28-5.154M97.975 46.398a14.768 14.768 0 0 1-4.38.409 7.408 7.408 0 0 0 3.908-3.46 14.791 14.791 0 0 1-4.93.95 7.377 7.377 0 0 0-4.905-3.233 7.386 7.386 0 0 0-8.556 5.99c-.1.57-.134 1.137-.104 1.692-5.991-1.37-10.84-5.21-13.652-10.243a7.35 7.35 0 0 0-1.63 3.483 7.382 7.382 0 0 0 2.169 6.624 7.356 7.356 0 0 1-3.134-1.49l-.017.09a7.39 7.39 0 0 0 4.577 8.162 7.396 7.396 0 0 1-3.307-.455 7.393 7.393 0 0 0 5.904 6.25 14.82 14.82 0 0 1-9.582 1.52c-.587-.103-1.16-.24-1.717-.407a20.906 20.906 0 0 0 10.573 5.233c13.38 2.36 22.65-7.434 24.344-17.045.056-.316.104-.63.145-.945a15.011 15.011 0 0 0 4.294-3.125M141.284 11.473a14.768 14.768 0 0 1-3.092 3.128 7.408 7.408 0 0 0 .77-5.162 14.791 14.791 0 0 1-3.166 3.897 7.377 7.377 0 0 0-5.835.676 7.386 7.386 0 0 0-2.704 10.089c.29.501.628.956 1.007 1.362-5.47 2.802-11.653 2.977-17.042.928a7.35 7.35 0 0 0 .99 3.716 7.382 7.382 0 0 0 5.92 3.68 7.356 7.356 0 0 1-3.36.874l.047.08a7.39 7.39 0 0 0 8.752 3.31 7.396 7.396 0 0 1-2.826 1.777 7.393 7.393 0 0 0 8.54.992 14.82 14.82 0 0 1-6.363 7.325c-.516.298-1.043.562-1.578.791 3.879.18 7.852-.701 11.465-2.787 11.765-6.793 12.571-20.253 7.691-28.705-.16-.278-.325-.55-.496-.817a15.011 15.011 0 0 0 1.28-5.154M219.251 30.442a14.768 14.768 0 0 1-4.384-.358 7.408 7.408 0 0 0 4.45-2.729c-1.631.307-3.327.344-5.021.08a7.377 7.377 0 0 0-4.268-4.035 7.386 7.386 0 0 0-9.467 4.414 7.415 7.415 0 0 0-.396 1.647c-5.663-2.39-9.771-7.014-11.666-12.458a7.35 7.35 0 0 0-2.21 3.147 7.382 7.382 0 0 0 .986 6.9 7.356 7.356 0 0 1-2.828-2.012l-.032.087a7.39 7.39 0 0 0 3.09 8.832 7.396 7.396 0 0 1-3.177-1.022 7.393 7.393 0 0 0 4.729 7.18 14.82 14.82 0 0 1-9.701-.167c-.56-.204-1.101-.438-1.62-.7a20.906 20.906 0 0 0 9.504 6.99c12.765 4.647 23.595-3.387 26.933-12.558.11-.301.212-.603.307-.906a15.011 15.011 0 0 0 4.771-2.332M272.284 8.473a14.768 14.768 0 0 1-3.092 3.128 7.408 7.408 0 0 0 .77-5.162 14.791 14.791 0 0 1-3.166 3.897 7.377 7.377 0 0 0-5.835.676 7.386 7.386 0 0 0-2.704 10.089c.29.501.628.956 1.007 1.362-5.47 2.802-11.653 2.977-17.042.928a7.35 7.35 0 0 0 .99 3.716 7.382 7.382 0 0 0 5.92 3.68 7.356 7.356 0 0 1-3.36.874l.047.08a7.39 7.39 0 0 0 8.752 3.31 7.396 7.396 0 0 1-2.826 1.777 7.393 7.393 0 0 0 8.54.992 14.82 14.82 0 0 1-6.363 7.325c-.516.298-1.043.562-1.578.791 3.879.18 7.852-.701 11.465-2.787 11.765-6.793 12.571-20.253 7.691-28.705-.16-.278-.325-.55-.496-.817a15.011 15.011 0 0 0 1.28-5.154M376.74 35.87a14.768 14.768 0 0 1-4.236-1.187 7.408 7.408 0 0 0 4.888-1.83c-1.659-.01-3.33-.297-4.943-.88a7.377 7.377 0 0 0-3.42-4.775 7.386 7.386 0 0 0-10.135 2.526 7.415 7.415 0 0 0-.702 1.541c-5.103-3.425-8.254-8.749-9.075-14.455a7.35 7.35 0 0 0-2.77 2.668 7.382 7.382 0 0 0-.35 6.962 7.356 7.356 0 0 1-2.391-2.515l-.048.079a7.39 7.39 0 0 0 1.348 9.259 7.396 7.396 0 0 1-2.924-1.61 7.393 7.393 0 0 0 3.272 7.95 14.82 14.82 0 0 1-9.49-2.014c-.512-.307-.998-.64-1.458-.995a20.906 20.906 0 0 0 7.996 8.675c11.645 6.997 23.809 1.176 28.835-7.19.165-.274.323-.55.474-.83 1.773-.149 3.517-.619 5.128-1.378M432.861 13.94c-.498 1.36-1.2 2.66-2.11 3.858a7.408 7.408 0 0 0-.684-5.174 14.791 14.791 0 0 1-1.968 4.619 7.377 7.377 0 0 0-5.423 2.258 7.386 7.386 0 0 0 .182 10.443c.416.402.867.747 1.343 1.032-4.485 4.201-10.38 6.073-16.126 5.59a7.35 7.35 0 0 0 1.977 3.298 7.382 7.382 0 0 0 6.704 1.907 7.356 7.356 0 0 1-2.988 1.765l.066.065a7.39 7.39 0 0 0 9.325.769 7.396 7.396 0 0 1-2.226 2.487 7.393 7.393 0 0 0 8.483-1.4 14.82 14.82 0 0 1-4.098 8.795c-.414.428-.848.827-1.298 1.195a20.906 20.906 0 0 0 10.252-5.839c9.437-9.772 6.502-22.934-.519-29.714-.23-.222-.464-.438-.702-.648a15.011 15.011 0 0 0-.19-5.307M516.368 5.971a14.768 14.768 0 0 1-2.748 3.435 7.408 7.408 0 0 0 .226-5.215 14.791 14.791 0 0 1-2.741 4.207 7.377 7.377 0 0 0-5.733 1.282 7.386 7.386 0 0 0-1.634 10.316c.34.468.724.886 1.144 1.25-5.147 3.358-11.278 4.178-16.852 2.704a7.35 7.35 0 0 0 1.374 3.592 7.382 7.382 0 0 0 6.271 3.042 7.356 7.356 0 0 1-3.25 1.22c.019.024.037.05.055.075a7.39 7.39 0 0 0 9.05 2.376 7.396 7.396 0 0 1-2.624 2.063 7.393 7.393 0 0 0 8.596.094 14.82 14.82 0 0 1-5.562 7.95c-.482.35-.979.667-1.486.952a20.906 20.906 0 0 0 11.11-3.97c10.99-7.986 10.386-21.457 4.649-29.353-.188-.259-.381-.512-.579-.76.555-1.69.804-3.48.734-5.26M575.453 51.054a14.768 14.768 0 0 1-4.167-1.408 7.408 7.408 0 0 0 4.977-1.572 14.791 14.791 0 0 1-4.89-1.136 7.377 7.377 0 0 0-3.165-4.949 7.386 7.386 0 0 0-10.254 1.993c-.323.48-.584.984-.782 1.502-4.917-3.688-7.784-9.168-8.306-14.91a7.35 7.35 0 0 0-2.905 2.52 7.382 7.382 0 0 0-.714 6.933 7.356 7.356 0 0 1-2.257-2.637l-.052.077a7.39 7.39 0 0 0 .862 9.317 7.396 7.396 0 0 1-2.836-1.76 7.393 7.393 0 0 0 2.852 8.11 14.82 14.82 0 0 1-9.373-2.508 15.025 15.025 0 0 1-1.403-1.07 20.906 20.906 0 0 0 7.531 9.081c11.263 7.597 23.715 2.421 29.172-5.67.18-.266.352-.534.517-.804a15.011 15.011 0 0 0 5.193-1.109M43.251 71.442a14.768 14.768 0 0 1-4.384-.358 7.408 7.408 0 0 0 4.45-2.729c-1.631.307-3.327.344-5.021.08a7.377 7.377 0 0 0-4.268-4.035 7.386 7.386 0 0 0-9.467 4.414 7.415 7.415 0 0 0-.396 1.647c-5.663-2.39-9.771-7.014-11.666-12.458a7.35 7.35 0 0 0-2.21 3.147 7.382 7.382 0 0 0 .986 6.9 7.356 7.356 0 0 1-2.828-2.012l-.032.087a7.39 7.39 0 0 0 3.09 8.832 7.396 7.396 0 0 1-3.177-1.022 7.393 7.393 0 0 0 4.729 7.18 14.82 14.82 0 0 1-9.701-.167c-.56-.204-1.101-.438-1.62-.7a20.906 20.906 0 0 0 9.504 6.99c12.765 4.647 23.595-3.387 26.933-12.558.11-.301.212-.603.307-.906a15.011 15.011 0 0 0 4.771-2.332M131.284 66.473a14.768 14.768 0 0 1-3.092 3.128 7.408 7.408 0 0 0 .77-5.162 14.791 14.791 0 0 1-3.166 3.897 7.377 7.377 0 0 0-5.835.676 7.386 7.386 0 0 0-2.704 10.089c.29.501.628.956 1.007 1.362-5.47 2.802-11.653 2.977-17.042.928a7.35 7.35 0 0 0 .99 3.716 7.382 7.382 0 0 0 5.92 3.68 7.356 7.356 0 0 1-3.36.874l.047.08a7.39 7.39 0 0 0 8.752 3.31 7.396 7.396 0 0 1-2.826 1.777 7.393 7.393 0 0 0 8.54.992 14.82 14.82 0 0 1-6.363 7.325c-.516.298-1.043.562-1.578.791 3.879.18 7.852-.701 11.465-2.787 11.765-6.793 12.571-20.253 7.691-28.705-.16-.278-.325-.55-.496-.817a15.011 15.011 0 0 0 1.28-5.154M189 65.463a14.768 14.768 0 0 1-4.242 1.163 7.408 7.408 0 0 0 3.247-4.086 14.791 14.791 0 0 1-4.69 1.792 7.377 7.377 0 0 0-5.39-2.332 7.386 7.386 0 0 0-7.387 7.386c0 .578.066 1.142.192 1.683-6.139-.308-11.581-3.249-15.224-7.717a7.35 7.35 0 0 0-1 3.713 7.382 7.382 0 0 0 3.286 6.147 7.356 7.356 0 0 1-3.345-.923l-.001.092a7.39 7.39 0 0 0 5.925 7.242 7.396 7.396 0 0 1-3.336.127 7.393 7.393 0 0 0 6.9 5.13 14.82 14.82 0 0 1-9.173 3.16c-.596 0-1.184-.034-1.762-.102a20.906 20.906 0 0 0 11.322 3.318c13.585 0 21.014-11.254 21.014-21.014 0-.32-.007-.639-.021-.956A15.011 15.011 0 0 0 189 65.463M244.284 56.473a14.768 14.768 0 0 1-3.092 3.128 7.408 7.408 0 0 0 .77-5.162 14.791 14.791 0 0 1-3.166 3.897 7.377 7.377 0 0 0-5.835.676 7.386 7.386 0 0 0-2.704 10.089c.29.501.628.956 1.007 1.362-5.47 2.802-11.653 2.977-17.042.928a7.35 7.35 0 0 0 .99 3.716 7.382 7.382 0 0 0 5.92 3.68 7.356 7.356 0 0 1-3.36.874l.047.08a7.39 7.39 0 0 0 8.752 3.31 7.396 7.396 0 0 1-2.826 1.777 7.393 7.393 0 0 0 8.54.992 14.82 14.82 0 0 1-6.363 7.325c-.516.298-1.043.562-1.578.791 3.879.18 7.852-.701 11.465-2.787 11.765-6.793 12.571-20.253 7.691-28.705-.16-.278-.325-.55-.496-.817a15.011 15.011 0 0 0 1.28-5.154M297.357 86.757a14.768 14.768 0 0 1-3.976 1.882 7.408 7.408 0 0 0 2.489-4.588 14.791 14.791 0 0 1-4.308 2.58 7.377 7.377 0 0 0-5.714-1.36 7.386 7.386 0 0 0-5.991 8.555c.1.57.263 1.114.48 1.624-6.098.763-11.968-1.188-16.332-4.956a7.35 7.35 0 0 0-.34 3.83 7.382 7.382 0 0 0 4.304 5.484 7.356 7.356 0 0 1-3.455-.329l.015.092a7.39 7.39 0 0 0 7.093 6.103 7.396 7.396 0 0 1-3.263.704 7.393 7.393 0 0 0 7.685 3.853 14.82 14.82 0 0 1-8.484 4.706c-.587.104-1.173.172-1.753.205a20.906 20.906 0 0 0 11.726 1.301c13.378-2.359 18.74-14.732 17.045-24.343a21.297 21.297 0 0 0-.187-.937 15.011 15.011 0 0 0 2.966-4.406M324.357 46.757a14.768 14.768 0 0 1-3.976 1.882 7.408 7.408 0 0 0 2.489-4.588 14.791 14.791 0 0 1-4.308 2.58 7.377 7.377 0 0 0-5.714-1.36 7.386 7.386 0 0 0-5.991 8.555c.1.57.263 1.114.48 1.624-6.098.763-11.968-1.188-16.332-4.956a7.35 7.35 0 0 0-.34 3.83 7.382 7.382 0 0 0 4.304 5.484 7.356 7.356 0 0 1-3.455-.329l.015.092a7.39 7.39 0 0 0 7.093 6.103 7.396 7.396 0 0 1-3.263.704 7.393 7.393 0 0 0 7.685 3.853 14.82 14.82 0 0 1-8.484 4.706c-.587.104-1.173.172-1.753.205a20.906 20.906 0 0 0 11.726 1.301c13.378-2.359 18.74-14.732 17.045-24.343a21.297 21.297 0 0 0-.187-.937 15.011 15.011 0 0 0 2.966-4.406M393.368 53.971a14.768 14.768 0 0 1-2.748 3.435 7.408 7.408 0 0 0 .226-5.215 14.791 14.791 0 0 1-2.741 4.207 7.377 7.377 0 0 0-5.733 1.282 7.386 7.386 0 0 0-1.634 10.316c.34.468.724.886 1.144 1.25-5.147 3.358-11.278 4.178-16.852 2.704a7.35 7.35 0 0 0 1.374 3.592 7.382 7.382 0 0 0 6.271 3.042 7.356 7.356 0 0 1-3.25 1.22c.019.024.037.05.055.075a7.39 7.39 0 0 0 9.05 2.376 7.396 7.396 0 0 1-2.624 2.063 7.393 7.393 0 0 0 8.596.094 14.82 14.82 0 0 1-5.562 7.95c-.482.35-.979.667-1.486.952a20.906 20.906 0 0 0 11.11-3.97c10.99-7.986 10.386-21.457 4.649-29.353-.188-.259-.381-.512-.579-.76.555-1.69.804-3.48.734-5.26M486.163 67.063a14.768 14.768 0 0 1-4.348-.663 7.408 7.408 0 0 0 4.629-2.412 14.791 14.791 0 0 1-5.014-.27 7.377 7.377 0 0 0-3.976-4.324 7.386 7.386 0 0 0-9.752 3.743 7.415 7.415 0 0 0-.51 1.616c-5.482-2.779-9.258-7.678-10.768-13.242A7.35 7.35 0 0 0 454 54.496a7.382 7.382 0 0 0 .502 6.953 7.356 7.356 0 0 1-2.68-2.205 7.39 7.39 0 0 0 2.429 9.11 7.396 7.396 0 0 1-3.1-1.24 7.393 7.393 0 0 0 4.217 7.491 14.82 14.82 0 0 1-9.666-.842 15.025 15.025 0 0 1-1.567-.811 20.906 20.906 0 0 0 8.993 7.636c12.41 5.526 23.775-1.734 27.744-10.65.13-.292.254-.586.37-.881a15.011 15.011 0 0 0 4.921-1.994M535.472 78.016c-1.362.494-2.81.79-4.313.864a7.408 7.408 0 0 0 3.525-3.85 14.791 14.791 0 0 1-4.804 1.462 7.377 7.377 0 0 0-5.215-2.703 7.386 7.386 0 0 0-7.883 6.852 7.415 7.415 0 0 0 .073 1.692c-6.102-.735-11.326-4.048-14.648-8.76a7.35 7.35 0 0 0-1.256 3.635 7.382 7.382 0 0 0 2.849 6.361 7.356 7.356 0 0 1-3.273-1.154l-.007.092a7.39 7.39 0 0 0 5.405 7.638 7.396 7.396 0 0 1-3.336-.107 7.393 7.393 0 0 0 6.524 5.598 14.82 14.82 0 0 1-9.37 2.514 15.025 15.025 0 0 1-1.75-.225 20.906 20.906 0 0 0 11.062 4.1c13.552.947 21.748-9.761 22.429-19.497.022-.32.037-.638.045-.955a15.011 15.011 0 0 0 3.943-3.557M586.368 74.971a14.768 14.768 0 0 1-2.748 3.435 7.408 7.408 0 0 0 .226-5.215 14.791 14.791 0 0 1-2.741 4.207 7.377 7.377 0 0 0-5.733 1.282 7.386 7.386 0 0 0-1.634 10.316c.34.468.724.886 1.144 1.25-5.147 3.358-11.278 4.178-16.852 2.704a7.35 7.35 0 0 0 1.374 3.592 7.382 7.382 0 0 0 6.271 3.042 7.356 7.356 0 0 1-3.25 1.22c.019.024.037.05.055.075a7.39 7.39 0 0 0 9.05 2.376 7.396 7.396 0 0 1-2.624 2.063 7.393 7.393 0 0 0 8.596.094 14.82 14.82 0 0 1-5.562 7.95c-.482.35-.979.667-1.486.952a20.906 20.906 0 0 0 11.11-3.97c10.99-7.986 10.386-21.457 4.649-29.353-.188-.259-.381-.512-.579-.76.555-1.69.804-3.48.734-5.26M81.251 100.442a14.768 14.768 0 0 1-4.384-.358 7.408 7.408 0 0 0 4.45-2.729c-1.631.307-3.327.344-5.021.08a7.377 7.377 0 0 0-4.268-4.035 7.386 7.386 0 0 0-9.467 4.414 7.415 7.415 0 0 0-.396 1.647c-5.663-2.39-9.771-7.014-11.666-12.458a7.35 7.35 0 0 0-2.21 3.147 7.382 7.382 0 0 0 .986 6.9 7.356 7.356 0 0 1-2.828-2.012l-.032.087a7.39 7.39 0 0 0 3.09 8.832 7.396 7.396 0 0 1-3.177-1.022 7.393 7.393 0 0 0 4.729 7.18 14.82 14.82 0 0 1-9.701-.167c-.56-.204-1.101-.438-1.62-.7a20.906 20.906 0 0 0 9.504 6.99c12.765 4.647 23.595-3.387 26.933-12.558.11-.301.212-.603.307-.906a15.011 15.011 0 0 0 4.771-2.332M46.096 124.393a14.768 14.768 0 0 1-3.589 2.544 7.408 7.408 0 0 0 1.654-4.95 14.791 14.791 0 0 1-3.794 3.288 7.377 7.377 0 0 0-5.864-.348 7.386 7.386 0 0 0-4.414 9.466c.198.544.452 1.052.755 1.517-5.874 1.81-11.993.908-16.945-2.045a7.35 7.35 0 0 0 .33 3.831 7.382 7.382 0 0 0 5.19 4.653 7.356 7.356 0 0 1-3.459.276 7.39 7.39 0 0 0 8.076 4.866 7.396 7.396 0 0 1-3.091 1.26 7.393 7.393 0 0 0 8.237 2.46 14.82 14.82 0 0 1-7.538 6.108c-.56.204-1.124.373-1.69.506 3.787.851 7.854.672 11.773-.754 12.766-4.647 15.898-17.763 12.56-26.934-.11-.3-.225-.598-.347-.89 1-1.473 1.732-3.123 2.156-4.854M110 132.463a14.768 14.768 0 0 1-4.242 1.163 7.408 7.408 0 0 0 3.247-4.086 14.791 14.791 0 0 1-4.69 1.792 7.377 7.377 0 0 0-5.39-2.332 7.386 7.386 0 0 0-7.387 7.386c0 .578.066 1.142.192 1.683-6.139-.308-11.581-3.249-15.224-7.717a7.35 7.35 0 0 0-1 3.713 7.382 7.382 0 0 0 3.286 6.147 7.356 7.356 0 0 1-3.345-.923l-.001.092a7.39 7.39 0 0 0 5.925 7.242 7.396 7.396 0 0 1-3.336.127 7.393 7.393 0 0 0 6.9 5.13 14.82 14.82 0 0 1-9.173 3.16c-.596 0-1.184-.034-1.762-.102a20.906 20.906 0 0 0 11.322 3.318c13.585 0 21.014-11.254 21.014-21.014 0-.32-.007-.639-.021-.956a15.011 15.011 0 0 0 3.685-3.823M164.251 122.442a14.768 14.768 0 0 1-4.384-.358 7.408 7.408 0 0 0 4.45-2.729c-1.631.307-3.327.344-5.021.08a7.377 7.377 0 0 0-4.268-4.035 7.386 7.386 0 0 0-9.467 4.414 7.415 7.415 0 0 0-.396 1.647c-5.663-2.39-9.771-7.014-11.666-12.458a7.35 7.35 0 0 0-2.21 3.147 7.382 7.382 0 0 0 .986 6.9 7.356 7.356 0 0 1-2.828-2.012l-.032.087a7.39 7.39 0 0 0 3.09 8.832 7.396 7.396 0 0 1-3.177-1.022 7.393 7.393 0 0 0 4.729 7.18 14.82 14.82 0 0 1-9.701-.167c-.56-.204-1.101-.438-1.62-.7a20.906 20.906 0 0 0 9.504 6.99c12.765 4.647 23.595-3.387 26.933-12.558.11-.301.212-.603.307-.906a15.011 15.011 0 0 0 4.771-2.332M218.251 114.442a14.768 14.768 0 0 1-4.384-.358 7.408 7.408 0 0 0 4.45-2.729c-1.631.307-3.327.344-5.021.08a7.377 7.377 0 0 0-4.268-4.035 7.386 7.386 0 0 0-9.467 4.414 7.415 7.415 0 0 0-.396 1.647c-5.663-2.39-9.771-7.014-11.666-12.458a7.35 7.35 0 0 0-2.21 3.147 7.382 7.382 0 0 0 .986 6.9 7.356 7.356 0 0 1-2.828-2.012l-.032.087a7.39 7.39 0 0 0 3.09 8.832 7.396 7.396 0 0 1-3.177-1.022 7.393 7.393 0 0 0 4.729 7.18 14.82 14.82 0 0 1-9.701-.167c-.56-.204-1.101-.438-1.62-.7a20.906 20.906 0 0 0 9.504 6.99c12.765 4.647 23.595-3.387 26.933-12.558.11-.301.212-.603.307-.906a15.011 15.011 0 0 0 4.771-2.332M204.284 141.473a14.768 14.768 0 0 1-3.092 3.128 7.408 7.408 0 0 0 .77-5.162 14.791 14.791 0 0 1-3.166 3.897 7.377 7.377 0 0 0-5.835.676 7.386 7.386 0 0 0-2.704 10.089c.29.501.628.956 1.007 1.362-5.47 2.802-11.653 2.977-17.042.928a7.35 7.35 0 0 0 .99 3.716 7.382 7.382 0 0 0 5.92 3.68 7.356 7.356 0 0 1-3.36.874l.047.08a7.39 7.39 0 0 0 8.752 3.31 7.396 7.396 0 0 1-2.826 1.777 7.393 7.393 0 0 0 8.54.992 14.82 14.82 0 0 1-6.363 7.325c-.516.298-1.043.562-1.578.791 3.879.18 7.852-.701 11.465-2.787 11.765-6.793 12.571-20.253 7.691-28.705-.16-.278-.325-.55-.496-.817a15.011 15.011 0 0 0 1.28-5.154M264.284 123.473a14.768 14.768 0 0 1-3.092 3.128 7.408 7.408 0 0 0 .77-5.162 14.791 14.791 0 0 1-3.166 3.897 7.377 7.377 0 0 0-5.835.676 7.386 7.386 0 0 0-2.704 10.089c.29.501.628.956 1.007 1.362-5.47 2.802-11.653 2.977-17.042.928a7.35 7.35 0 0 0 .99 3.716 7.382 7.382 0 0 0 5.92 3.68 7.356 7.356 0 0 1-3.36.874l.047.08a7.39 7.39 0 0 0 8.752 3.31 7.396 7.396 0 0 1-2.826 1.777 7.393 7.393 0 0 0 8.54.992 14.82 14.82 0 0 1-6.363 7.325c-.516.298-1.043.562-1.578.791 3.879.18 7.852-.701 11.465-2.787 11.765-6.793 12.571-20.253 7.691-28.705-.16-.278-.325-.55-.496-.817a15.011 15.011 0 0 0 1.28-5.154M323.915 152.008a14.768 14.768 0 0 1-3.618-2.502c1.68.581 3.542.548 5.218-.138a14.791 14.791 0 0 1-4.388-2.441 7.377 7.377 0 0 0-1.679-5.63 7.386 7.386 0 0 0-10.405-.91 7.415 7.415 0 0 0-1.166 1.229c-3.71-4.9-4.956-10.96-3.874-16.622a7.35 7.35 0 0 0-3.487 1.62 7.382 7.382 0 0 0-2.597 6.469 7.356 7.356 0 0 1-1.443-3.157l-.072.06a7.39 7.39 0 0 0-1.74 9.193 7.396 7.396 0 0 1-2.24-2.474 7.393 7.393 0 0 0 .506 8.583 14.82 14.82 0 0 1-8.318-4.995c-.384-.457-.735-.93-1.054-1.416a20.906 20.906 0 0 0 4.736 10.806c8.732 10.407 22.128 8.864 29.605 2.59.245-.206.485-.416.718-.63 1.725.436 3.527.559 5.298.365M342.368 78.302a14.768 14.768 0 0 1-1.836 3.998 7.408 7.408 0 0 0-1.043-5.115 14.791 14.791 0 0 1-1.641 4.745 7.377 7.377 0 0 0-5.253 2.63 7.386 7.386 0 0 0 .91 10.406c.444.372.918.685 1.413.936-4.182 4.504-9.932 6.783-15.697 6.701a7.35 7.35 0 0 0 2.202 3.153 7.382 7.382 0 0 0 6.82 1.434 7.356 7.356 0 0 1-2.857 1.97l.07.06a7.39 7.39 0 0 0 9.357.116 7.396 7.396 0 0 1-2.047 2.636 7.393 7.393 0 0 0 8.364-1.988 14.82 14.82 0 0 1-3.475 9.059c-.383.457-.787.885-1.211 1.283a20.906 20.906 0 0 0 9.82-6.54c8.732-10.407 4.886-23.331-2.59-29.605a21.297 21.297 0 0 0-.746-.598c.13-1.774-.062-3.57-.56-5.28M398.163 129.063a14.768 14.768 0 0 1-4.348-.663 7.408 7.408 0 0 0 4.629-2.412 14.791 14.791 0 0 1-5.014-.27 7.377 7.377 0 0 0-3.976-4.324 7.386 7.386 0 0 0-9.752 3.743 7.415 7.415 0 0 0-.51 1.616c-5.482-2.779-9.258-7.678-10.768-13.242a7.35 7.35 0 0 0-2.424 2.985 7.382 7.382 0 0 0 .502 6.953 7.356 7.356 0 0 1-2.68-2.205 7.39 7.39 0 0 0 2.429 9.11 7.396 7.396 0 0 1-3.1-1.24 7.393 7.393 0 0 0 4.217 7.491 14.82 14.82 0 0 1-9.666-.842 15.025 15.025 0 0 1-1.567-.811 20.906 20.906 0 0 0 8.993 7.636c12.41 5.526 23.775-1.734 27.744-10.65.13-.292.254-.586.37-.881a15.011 15.011 0 0 0 4.921-1.994M449.163 105.063a14.768 14.768 0 0 1-4.348-.663 7.408 7.408 0 0 0 4.629-2.412 14.791 14.791 0 0 1-5.014-.27 7.377 7.377 0 0 0-3.976-4.324 7.386 7.386 0 0 0-9.752 3.743 7.415 7.415 0 0 0-.51 1.616c-5.482-2.779-9.258-7.678-10.768-13.242A7.35 7.35 0 0 0 417 92.496a7.382 7.382 0 0 0 .502 6.953 7.356 7.356 0 0 1-2.68-2.205 7.39 7.39 0 0 0 2.429 9.11 7.396 7.396 0 0 1-3.1-1.24 7.393 7.393 0 0 0 4.217 7.491 14.82 14.82 0 0 1-9.666-.842 15.025 15.025 0 0 1-1.567-.811 20.906 20.906 0 0 0 8.993 7.636c12.41 5.526 23.775-1.734 27.744-10.65.13-.292.254-.586.37-.881a15.011 15.011 0 0 0 4.921-1.994M435.418 171.47a14.768 14.768 0 0 1-2.905-3.303 7.408 7.408 0 0 0 5.096 1.127 14.791 14.791 0 0 1-3.666-3.43c.7-1.84.664-3.958-.267-5.867a7.386 7.386 0 0 0-9.876-3.401c-.52.253-.999.56-1.43.91-2.413-5.653-2.156-11.833.263-17.066a7.35 7.35 0 0 0-3.776.729 7.382 7.382 0 0 0-4.084 5.648 7.356 7.356 0 0 1-.637-3.412l-.083.04a7.39 7.39 0 0 0-3.912 8.5 7.396 7.396 0 0 1-1.576-2.942 7.393 7.393 0 0 0-1.586 8.45 14.82 14.82 0 0 1-6.862-6.86 15.025 15.025 0 0 1-.68-1.628 20.906 20.906 0 0 0 1.98 11.63c5.956 12.211 19.328 13.955 28.1 9.676.288-.14.57-.286.85-.438a15.011 15.011 0 0 0 5.051 1.637M486.368 105.971a14.768 14.768 0 0 1-2.748 3.435 7.408 7.408 0 0 0 .226-5.215 14.791 14.791 0 0 1-2.741 4.207 7.377 7.377 0 0 0-5.733 1.282 7.386 7.386 0 0 0-1.634 10.316c.34.468.724.886 1.144 1.25-5.147 3.358-11.278 4.178-16.852 2.704a7.35 7.35 0 0 0 1.374 3.592 7.382 7.382 0 0 0 6.271 3.042 7.356 7.356 0 0 1-3.25 1.22c.019.024.037.05.055.075a7.39 7.39 0 0 0 9.05 2.376 7.396 7.396 0 0 1-2.624 2.063 7.393 7.393 0 0 0 8.596.094 14.82 14.82 0 0 1-5.562 7.95c-.482.35-.979.667-1.486.952a20.906 20.906 0 0 0 11.11-3.97c10.99-7.986 10.386-21.457 4.649-29.353-.188-.259-.381-.512-.579-.76.555-1.69.804-3.48.734-5.26M546.368 114.971a14.768 14.768 0 0 1-2.748 3.435 7.408 7.408 0 0 0 .226-5.215 14.791 14.791 0 0 1-2.741 4.207 7.377 7.377 0 0 0-5.733 1.282 7.386 7.386 0 0 0-1.634 10.316c.34.468.724.886 1.144 1.25-5.147 3.358-11.278 4.178-16.852 2.704a7.35 7.35 0 0 0 1.374 3.592 7.382 7.382 0 0 0 6.271 3.042 7.356 7.356 0 0 1-3.25 1.22c.019.024.037.05.055.075a7.39 7.39 0 0 0 9.05 2.376 7.396 7.396 0 0 1-2.624 2.063 7.393 7.393 0 0 0 8.596.094 14.82 14.82 0 0 1-5.562 7.95c-.482.35-.979.667-1.486.952a20.906 20.906 0 0 0 11.11-3.97c10.99-7.986 10.386-21.457 4.649-29.353-.188-.259-.381-.512-.579-.76.555-1.69.804-3.48.734-5.26"/></g></svg>