<svg xmlns="http://www.w3.org/2000/svg" viewBox="0 0 605 180"><title>full-color-fabric-alt</title><g fill-rule="evenodd"><path d="M50.464 37.053c8.61-4.971 11.56-15.98 6.589-24.589-4.971-8.61-15.98-11.559-24.589-6.588-8.61 4.97-11.559 15.979-6.588 24.588 4.97 8.61 15.979 11.56 24.588 6.589zm-.5-.866c8.131-4.695 10.917-15.092 6.223-23.223-4.695-8.13-15.092-10.917-23.223-6.222-8.13 4.694-10.917 15.091-6.222 23.222 4.694 8.131 15.091 10.917 23.222 6.223z"/><path d="M50.798 24.96c.154.51.258.814.21 1.246a.814.814 0 0 1-.477.658c-.23.1-.494.128-.751.169-2.975.468-5.893-.047-8.813-.52-.696-.114-2.21-.43-3.048-.573.817-1.773 1.04-2.706 1.04-2.706 3.34.646 7.238 1.41 10.597.978.536-.069.906-.36 1.242.748M43.856 19.29c-.912-.133-2.482-.322-3.375-.442-2.271-.305-4.531-.35-6.787.184-1.221.29-1.962-.678-1.709-2.057.047-.251.207-.49.449-.57 4.013-1.318 7.99-.688 12.605.339-.71 1.128-1.183 2.546-1.183 2.546M43.2 23.134c.929-3.554 3.69-8.794 5.822-10.158a.816.816 0 0 1 .826-.032c.418.226.73.604 1.031.979.292.362.28.821-.035 1.145-2.193 2.242-3.704 5.49-4.784 8.38-.883.073-2.86-.314-2.86-.314M39.505 19.554c-1.33 3.627-2.64 7.794-5.123 10.45a.815.815 0 0 1-.822.235c-.396-.117-.644-.33-.894-.532-.873-.707-.928-1.03-.226-1.898 1.648-2.039 2.628-4.411 3.497-6.844.132-.369.4-1.085.549-1.48 1.079-.29 3.02.069 3.02.069M39.447 30.138c.518-.803 1.395-1.903 1.894-2.745.901.182 2.89.432 2.89.432-.616 1.25-1.64 3.17-2.586 4.1a.809.809 0 0 1-.872.164c-.569-.233-1.015-.572-1.338-1.094a.805.805 0 0 1 .012-.857M38.636 14.942c.856-1.556 1.992-3.009 2.881-3.812a.798.798 0 0 1 .9-.115c.555.29.941.68 1.202 1.2a.832.832 0 0 1-.028.807c-.436.715-1.413 1.641-1.9 2.302 0 0-1.71-.306-3.055-.382M50.263 16.998c2.176-.336 2.967-.48 2.704 2.06-.03.298-.271.439-.558.525-.92.276-2.832.277-3.893.274.88-1.859 1.747-2.859 1.747-2.859M32.959 25.919c-.512.128-1.423.477-1.94.465a.777.777 0 0 1-.597-.308c-.356-.472-.49-1.004-.508-1.608a.813.813 0 0 1 .485-.767c.907-.397 2.82-.642 3.873-.743-.565 1.81-1.313 2.96-1.313 2.96M75.119 72.36c9.79 1.727 19.126-4.81 20.852-14.6 1.726-9.79-4.81-19.126-14.6-20.853-9.79-1.726-19.127 4.811-20.853 14.601-1.726 9.79 4.81 19.126 14.601 20.852zm.174-.984c9.246 1.63 18.063-4.544 19.693-13.79 1.63-9.246-4.543-18.064-13.79-19.694-9.246-1.63-18.063 4.544-19.693 13.79-1.63 9.246 4.543 18.063 13.79 19.694z"/><path d="M83.147 63.311c-.209.49-.325.79-.64 1.09-.21.198-.51.28-.788.198-.24-.072-.46-.22-.683-.354-2.58-1.554-4.484-3.824-6.417-6.064-.46-.533-1.417-1.75-1.967-2.397 1.765-.833 2.536-1.405 2.536-1.405 2.142 2.642 4.638 5.733 7.49 7.561.454.292.924.306.47 1.371M81.474 54.506c-.613-.688-1.693-1.842-2.3-2.509-1.545-1.693-3.247-3.18-5.318-4.22-1.121-.564-1.067-1.782.013-2.675.197-.163.473-.243.71-.148 3.921 1.57 6.563 4.608 9.439 8.362-1.27.409-2.544 1.19-2.544 1.19M78.5 57.028c2.997-2.125 8.481-4.363 10.99-4.039a.816.816 0 0 1 .654.507c.175.441.17.932.16 1.413-.008.465-.312.81-.763.854-3.12.309-6.366 1.825-9.051 3.345-.723-.511-1.99-2.08-1.99-2.08M77.972 51.911c-3.35 1.924-7.033 4.275-10.642 4.712a.815.815 0 0 1-.78-.348c-.228-.344-.282-.667-.343-.982-.215-1.103-.049-1.385 1.047-1.6 2.572-.502 4.848-1.69 7.078-2.994.337-.198 1.004-.574 1.372-.782 1.012.472 2.268 1.994 2.268 1.994M71.124 59.981c.913-.281 2.292-.56 3.216-.885.573.719 1.935 2.189 1.935 2.189-1.274.56-3.293 1.375-4.616 1.479a.809.809 0 0 1-.773-.435c-.286-.545-.41-1.09-.322-1.699a.805.805 0 0 1 .56-.649M80.27 47.82c1.657-.642 3.46-1.025 4.658-1.068a.798.798 0 0 1 .762.49c.24.578.285 1.126.15 1.692a.832.832 0 0 1-.54.6c-.793.268-2.137.349-2.935.541 0 0-1.113-1.332-2.095-2.256M87.855 56.869c1.883 1.141 2.582 1.539.748 3.316-.215.208-.49.161-.765.043-.881-.38-2.347-1.608-3.158-2.293 1.868-.858 3.175-1.066 3.175-1.066M68.866 52.58c-.474-.232-1.398-.55-1.786-.891a.777.777 0 0 1-.259-.62c.03-.59.27-1.084.645-1.558a.813.813 0 0 1 .864-.276c.95.278 2.573 1.32 3.445 1.92-1.597 1.023-2.91 1.424-2.91 1.424M140.464 46.053c8.61-4.971 11.56-15.98 6.589-24.589-4.971-8.61-15.98-11.559-24.589-6.588-8.61 4.97-11.559 15.979-6.588 24.588 4.97 8.61 15.979 11.56 24.588 6.589zm-.5-.866c8.131-4.695 10.917-15.092 6.223-23.223-4.695-8.13-15.092-10.917-23.223-6.222-8.13 4.694-10.917 15.091-6.222 23.222 4.694 8.131 15.091 10.917 23.222 6.223z"/><path d="M140.798 33.96c.154.51.258.814.21 1.246a.814.814 0 0 1-.477.658c-.23.1-.494.128-.751.169-2.975.468-5.893-.047-8.813-.52-.696-.114-2.21-.43-3.048-.573.817-1.773 1.04-2.706 1.04-2.706 3.34.646 7.238 1.41 10.597.978.536-.069.906-.36 1.242.748M133.856 28.29c-.912-.133-2.482-.322-3.375-.442-2.271-.305-4.531-.35-6.787.184-1.221.29-1.962-.678-1.709-2.057.047-.251.207-.49.449-.57 4.013-1.318 7.99-.688 12.605.339-.71 1.128-1.183 2.546-1.183 2.546M133.2 32.134c.929-3.554 3.69-8.794 5.822-10.158a.816.816 0 0 1 .826-.032c.418.226.73.604 1.031.979.292.362.28.821-.035 1.145-2.193 2.242-3.704 5.49-4.784 8.38-.883.073-2.86-.314-2.86-.314M129.505 28.554c-1.33 3.627-2.64 7.794-5.123 10.45a.815.815 0 0 1-.822.235c-.396-.117-.644-.33-.894-.532-.873-.707-.928-1.03-.226-1.898 1.648-2.039 2.628-4.411 3.497-6.844.132-.369.4-1.085.549-1.48 1.079-.29 3.02.069 3.02.069M129.447 39.138c.518-.803 1.395-1.903 1.894-2.745.901.182 2.89.432 2.89.432-.616 1.25-1.64 3.17-2.586 4.1a.809.809 0 0 1-.872.164c-.569-.233-1.015-.572-1.338-1.094a.805.805 0 0 1 .012-.857M128.636 23.942c.856-1.556 1.992-3.009 2.881-3.812a.798.798 0 0 1 .9-.115c.555.29.941.68 1.202 1.2a.832.832 0 0 1-.028.807c-.436.715-1.413 1.641-1.9 2.302 0 0-1.71-.306-3.055-.382M140.263 25.998c2.176-.336 2.967-.48 2.704 2.06-.03.298-.271.439-.558.525-.92.276-2.832.277-3.893.274.88-1.859 1.747-2.859 1.747-2.859M122.959 34.919c-.512.128-1.423.477-1.94.465a.777.777 0 0 1-.597-.308c-.356-.472-.49-1.004-.508-1.608a.813.813 0 0 1 .485-.767c.907-.397 2.82-.642 3.873-.743-.565 1.81-1.313 2.96-1.313 2.96M192.234 52.041c9.342 3.4 19.671-1.416 23.071-10.758 3.4-9.341-1.416-19.67-10.758-23.07-9.342-3.4-19.67 1.416-23.07 10.757-3.4 9.342 1.416 19.671 10.757 23.071zm.342-.94c8.823 3.212 18.578-1.337 21.79-10.16 3.21-8.822-1.338-18.578-10.161-21.789-8.823-3.211-18.578 1.338-21.79 10.16-3.21 8.823 1.339 18.578 10.161 21.79z"/><path d="M201.712 44.524c-.291.446-.457.722-.82.961a.814.814 0 0 1-.81.059c-.225-.113-.415-.296-.612-.467-2.271-1.979-3.752-4.545-5.266-7.086-.36-.606-1.091-1.97-1.52-2.703 1.882-.514 2.74-.943 2.74-.943 1.652 2.974 3.573 6.451 6.063 8.747.397.366.858.462.225 1.432M201.594 35.562c-.485-.785-1.348-2.109-1.831-2.87-1.226-1.936-2.645-3.696-4.504-5.08-1.006-.75-.741-1.94.478-2.632.222-.126.508-.157.725-.023 3.589 2.228 5.662 5.678 7.843 9.874-1.32.182-2.711.73-2.711.73M198.227 37.53c3.32-1.573 9.11-2.825 11.524-2.07a.816.816 0 0 1 .555.613c.096.465.007.947-.086 1.419-.09.456-.45.743-.9.708-3.127-.238-6.587.692-9.495 1.723-.623-.63-1.598-2.393-1.598-2.393M198.595 32.398c-3.634 1.313-7.668 2.989-11.299 2.793a.815.815 0 0 1-.708-.479c-.164-.378-.161-.705-.167-1.027-.02-1.123.193-1.372 1.309-1.392 2.62-.049 5.068-.823 7.49-1.721.367-.136 1.09-.39 1.487-.531.915.64 1.888 2.357 1.888 2.357M190.45 39.157c.948-.12 2.354-.155 3.32-.313.44.807 1.526 2.49 1.526 2.49-1.352.332-3.481.783-4.803.656a.809.809 0 0 1-.685-.563c-.187-.586-.215-1.145-.022-1.729a.805.805 0 0 1 .664-.541M201.569 28.768c1.742-.344 3.585-.408 4.772-.243a.798.798 0 0 1 .666.615c.135.612.085 1.159-.146 1.693a.832.832 0 0 1-.636.497c-.828.126-2.166-.028-2.985.023 0 0-.864-1.506-1.671-2.585M207.467 38.996c1.657 1.452 2.276 1.965.161 3.396-.248.168-.51.074-.76-.09-.803-.527-2.034-1.991-2.713-2.806 1.989-.521 3.312-.5 3.312-.5M189.511 31.475c-.427-.31-1.28-.783-1.604-1.187a.777.777 0 0 1-.147-.655c.132-.576.455-1.021.905-1.423a.813.813 0 0 1 .9-.122c.887.44 2.304 1.747 3.058 2.49-1.75.73-3.112.897-3.112.897"/><g><path d="M271.464 43.053c8.61-4.971 11.56-15.98 6.589-24.589-4.971-8.61-15.98-11.559-24.589-6.588-8.61 4.97-11.559 15.979-6.588 24.588 4.97 8.61 15.979 11.56 24.588 6.589zm-.5-.866c8.131-4.695 10.917-15.092 6.223-23.223-4.695-8.13-15.092-10.917-23.223-6.222-8.13 4.694-10.917 15.091-6.222 23.222 4.694 8.131 15.091 10.917 23.222 6.223z"/><path d="M271.798 30.96c.154.51.258.814.21 1.246a.814.814 0 0 1-.477.658c-.23.1-.494.128-.751.169-2.975.468-5.893-.047-8.813-.52-.696-.114-2.21-.43-3.048-.573.817-1.773 1.04-2.706 1.04-2.706 3.34.646 7.238 1.41 10.597.978.536-.069.906-.36 1.242.748M264.856 25.29c-.912-.133-2.482-.322-3.375-.442-2.271-.305-4.531-.35-6.787.184-1.221.29-1.962-.678-1.709-2.057.047-.251.207-.49.449-.57 4.013-1.318 7.99-.688 12.605.339-.71 1.128-1.183 2.546-1.183 2.546M264.2 29.134c.929-3.554 3.69-8.794 5.822-10.158a.816.816 0 0 1 .826-.032c.418.226.73.604 1.031.979.292.362.28.821-.035 1.145-2.193 2.242-3.704 5.49-4.784 8.38-.883.073-2.86-.314-2.86-.314M260.505 25.554c-1.33 3.627-2.64 7.794-5.123 10.45a.815.815 0 0 1-.822.235c-.396-.117-.644-.33-.894-.532-.873-.707-.928-1.03-.226-1.898 1.648-2.039 2.628-4.411 3.497-6.844.132-.369.4-1.085.549-1.48 1.079-.29 3.02.069 3.02.069M260.447 36.138c.518-.803 1.395-1.903 1.894-2.745.901.182 2.89.432 2.89.432-.616 1.25-1.64 3.17-2.586 4.1a.809.809 0 0 1-.872.164c-.569-.233-1.015-.572-1.338-1.094a.805.805 0 0 1 .012-.857M259.636 20.942c.856-1.556 1.992-3.009 2.881-3.812a.798.798 0 0 1 .9-.115c.555.29.941.68 1.202 1.2a.832.832 0 0 1-.028.807c-.436.715-1.413 1.641-1.9 2.302 0 0-1.71-.306-3.055-.382M271.263 22.998c2.176-.336 2.967-.48 2.704 2.06-.03.298-.271.439-.558.525-.92.276-2.832.277-3.893.274.88-1.859 1.747-2.859 1.747-2.859M253.959 31.919c-.512.128-1.423.477-1.94.465a.777.777 0 0 1-.597-.308c-.356-.472-.49-1.004-.508-1.608a.813.813 0 0 1 .485-.767c.907-.397 2.82-.642 3.873-.743-.565 1.81-1.313 2.96-1.313 2.96"/></g><g><path d="M346.098 51.918c8.521 5.12 19.58 2.363 24.7-6.158 5.12-8.522 2.362-19.58-6.159-24.7-8.521-5.12-19.58-2.363-24.7 6.158-5.12 8.521-2.362 19.58 6.159 24.7zm.515-.857c8.048 4.835 18.492 2.231 23.327-5.817 4.836-8.047 2.232-18.491-5.816-23.327-8.048-4.836-18.492-2.232-23.327 5.816-4.836 8.048-2.232 18.492 5.816 23.328z"/><path d="M356.836 46.347c-.371.382-.587.621-.988.787a.814.814 0 0 1-.807-.097c-.199-.154-.35-.37-.511-.575-1.853-2.376-2.816-5.177-3.818-7.96-.238-.664-.695-2.142-.977-2.944 1.947-.145 2.871-.402 2.871-.402 1.054 3.234 2.276 7.014 4.282 9.743.32.435.754.617-.052 1.448M358.43 37.527c-.326-.862-.921-2.327-1.25-3.167-.834-2.134-1.891-4.132-3.451-5.846-.845-.928-.358-2.045.97-2.492.242-.081.53-.057.716.116 3.099 2.871 4.476 6.654 5.815 11.19-1.33-.074-2.8.199-2.8.199M354.75 38.816c3.558-.91 9.48-1.035 11.707.168.26.14.424.412.428.707.005.475-.175.93-.356 1.377-.175.43-.582.643-1.019.523-3.024-.83-6.597-.578-9.649-.12-.492-.737-1.112-2.655-1.112-2.655M356.09 33.85c-3.818.595-8.098 1.47-11.624.585a.815.815 0 0 1-.604-.605c-.09-.403-.024-.724.032-1.04.195-1.106.45-1.31 1.55-1.118 2.582.453 5.132.16 7.682-.26.386-.063 1.143-.175 1.56-.237.776.803 1.404 2.674 1.404 2.674M346.804 38.93c.954.064 2.341.297 3.32.326.277.876 1.022 2.736 1.022 2.736-1.39.067-3.566.104-4.84-.273a.809.809 0 0 1-.565-.684c-.072-.61.008-1.164.308-1.7a.805.805 0 0 1 .755-.406M359.702 30.853c1.776-.005 3.597.284 4.73.672a.798.798 0 0 1 .537.73c.016.627-.138 1.154-.467 1.635a.832.832 0 0 1-.719.366c-.837-.034-2.12-.44-2.934-.546 0 0-.561-1.643-1.147-2.857M363.54 42.02c1.349 1.74 1.859 2.362-.49 3.363-.276.118-.515-.025-.73-.234-.687-.67-1.615-2.342-2.127-3.272 2.052-.132 3.347.142 3.347.142M347.349 31.21c-.36-.386-1.108-1.014-1.348-1.472a.777.777 0 0 1-.02-.67c.24-.541.642-.916 1.16-1.225a.813.813 0 0 1 .906.052c.788.601 1.93 2.155 2.528 3.028-1.857.383-3.226.286-3.226.286"/></g><g><path d="M441.604 47.405c6.906-7.15 6.707-18.546-.444-25.452-7.151-6.906-18.546-6.707-25.452.444-6.906 7.151-6.707 18.547.444 25.452 7.151 6.906 18.546 6.707 25.452-.444zm-.72-.695c6.523-6.753 6.335-17.515-.419-24.038-6.754-6.522-17.516-6.334-24.038.42-6.522 6.754-6.334 17.516.42 24.038 6.754 6.522 17.516 6.334 24.038-.42z"/><path d="M438.592 35.69c.289.447.473.71.544 1.139a.814.814 0 0 1-.276.764c-.194.16-.44.259-.675.369-2.731 1.27-5.678 1.579-8.615 1.929-.7.083-2.243.196-3.088.29.296-1.93.254-2.888.254-2.888 3.388-.299 7.346-.64 10.456-1.98.496-.214.771-.597 1.4.376M430.356 32.152c-.913.123-2.474.374-3.367.505-2.267.333-4.451.914-6.472 2.048-1.094.615-2.074-.111-2.21-1.507-.025-.253.063-.528.274-.67 3.495-2.374 7.49-2.864 12.21-3.15-.37 1.28-.435 2.774-.435 2.774M430.784 36.028c-.086-3.672 1.125-9.47 2.797-11.37a.816.816 0 0 1 .786-.257c.463.101.867.379 1.26.656.381.267.497.712.282 1.11-1.49 2.76-2.047 6.299-2.288 9.375-.829.313-2.837.486-2.837.486M426.246 33.605c-.278 3.853-.389 8.22-2.044 11.457a.815.815 0 0 1-.725.453c-.413-.004-.71-.14-1.006-.265-1.034-.44-1.176-.734-.74-1.763 1.021-2.413 1.31-4.964 1.474-7.542.025-.39.086-1.154.12-1.575.957-.575 2.921-.765 2.921-.765M429.107 43.795c.278-.915.817-2.214 1.065-3.16.916-.074 2.896-.382 2.896-.382-.247 1.37-.7 3.499-1.355 4.654a.809.809 0 0 1-.793.398c-.61-.068-1.133-.27-1.588-.683a.805.805 0 0 1-.225-.827M424.14 29.411c.394-1.731 1.085-3.441 1.719-4.458a.798.798 0 0 1 .832-.358c.614.125 1.093.393 1.487.822a.832.832 0 0 1 .196.783c-.222.808-.907 1.967-1.193 2.736 0 0-1.727.177-3.042.475M435.883 28.183c2-.923 2.72-1.28 3.167 1.235.053.294-.14.496-.392.658-.807.519-2.645 1.047-3.667 1.337.334-2.03.892-3.23.892-3.23M421.708 41.528c-.456.264-1.236.851-1.737.982a.777.777 0 0 1-.658-.132c-.472-.355-.748-.83-.932-1.405-.1-.314.001-.66.255-.871.762-.632 2.533-1.395 3.519-1.782-.045 1.895-.447 3.208-.447 3.208"/></g><g><path d="M519.167 40.447c8.043-5.843 9.826-17.1 3.983-25.142-5.844-8.043-17.1-9.826-25.143-3.982-8.042 5.843-9.825 17.1-3.982 25.142 5.843 8.043 17.1 9.825 25.142 3.982zm-.587-.809c7.595-5.518 9.28-16.15 3.76-23.745-5.518-7.596-16.15-9.28-23.745-3.761-7.596 5.518-9.28 16.15-3.761 23.745 5.519 7.596 16.15 9.28 23.746 3.761z"/><path d="M518.235 28.386c.207.49.343.783.339 1.217a.814.814 0 0 1-.405.705c-.22.123-.478.178-.73.246-2.91.777-5.865.569-8.818.403-.704-.04-2.243-.196-3.092-.25.627-1.849.752-2.8.752-2.8 3.388.294 7.346.646 10.641-.135.526-.124.863-.453 1.313.614M510.739 23.473c-.921-.037-2.502-.062-3.403-.088-2.29-.065-4.543.127-6.73.893-1.185.416-2.023-.47-1.915-1.867.02-.254.154-.51.386-.614 3.854-1.73 7.874-1.52 12.572-.98-.587 1.196-.91 2.656-.91 2.656M510.487 27.364c.553-3.631 2.753-9.131 4.73-10.711a.816.816 0 0 1 .818-.118c.439.18.788.525 1.128.866.328.33.364.787.084 1.142-1.946 2.46-3.11 5.847-3.882 8.835-.87.165-2.878-.014-2.878-.014M506.44 24.19c-.944 3.746-1.811 8.028-4.004 10.928a.815.815 0 0 1-.792.32c-.406-.075-.676-.261-.945-.436-.942-.612-1.03-.927-.423-1.864 1.425-2.2 2.152-4.661 2.762-7.172.093-.38.285-1.121.391-1.53 1.043-.4 3.01-.246 3.01-.246M507.487 34.722c.432-.853 1.189-2.038 1.598-2.928.915.087 2.918.128 2.918.128-.482 1.306-1.298 3.324-2.142 4.348a.809.809 0 0 1-.85.254c-.59-.173-1.07-.463-1.446-.949a.805.805 0 0 1-.078-.853M505.092 19.694c.69-1.637 1.667-3.2 2.468-4.092a.798.798 0 0 1 .882-.208c.583.23 1.008.577 1.322 1.068.155.242.179.545.056.805-.359.757-1.234 1.78-1.65 2.488 0 0-1.731-.126-3.078-.06M516.871 20.524c2.13-.562 2.9-.788 2.905 1.766 0 .299-.224.464-.5.58-.886.37-2.788.572-3.844.68.68-1.941 1.439-3.026 1.439-3.026M500.594 31.204c-.495.181-1.365.624-1.88.666a.777.777 0 0 1-.626-.244c-.404-.432-.592-.948-.674-1.546a.813.813 0 0 1 .402-.814c.86-.49 2.737-.933 3.775-1.143-.373 1.858-.997 3.081-.997 3.081"/></g><g><path d="M544.014 65.476c8.241 5.559 19.429 3.384 24.988-4.858 5.56-8.241 3.384-19.429-4.857-24.988-8.242-5.559-19.43-3.384-24.988 4.857-5.56 8.242-3.385 19.43 4.857 24.989zm.56-.83c7.783 5.25 18.349 3.197 23.599-4.587s3.196-18.35-4.587-23.6c-7.784-5.25-18.35-3.196-23.6 4.588-5.25 7.783-3.197 18.35 4.587 23.6z"/><path d="M555.029 60.474c-.39.363-.619.59-1.028.735a.814.814 0 0 1-.8-.14c-.191-.163-.332-.387-.481-.6-1.726-2.47-2.541-5.318-3.396-8.15-.203-.675-.582-2.175-.822-2.99 1.952-.043 2.889-.252 2.889-.252.882 3.285 1.905 7.124 3.766 9.954.296.45.72.656-.128 1.443M557.082 51.75c-.28-.878-.798-2.372-1.082-3.228-.722-2.175-1.673-4.225-3.14-6.018-.796-.972-.251-2.062 1.1-2.439.245-.068.53-.03.708.154 2.944 3.03 4.12 6.879 5.221 11.478-1.325-.143-2.807.053-2.807.053M553.34 52.845c3.6-.723 9.521-.538 11.682.78a.816.816 0 0 1 .39.729c-.02.474-.223.92-.427 1.355-.198.421-.615.613-1.045.47-2.976-.987-6.558-.922-9.63-.626-.452-.76-.97-2.708-.97-2.708M554.938 47.955c-3.844.394-8.163 1.044-11.639-.024a.815.815 0 0 1-.571-.636c-.068-.407.014-.723.086-1.037.253-1.094.519-1.284 1.607-1.034 2.554.587 5.116.428 7.684.142.389-.043 1.151-.115 1.572-.155.732.843 1.26 2.744 1.26 2.744M545.4 52.542c.948.114 2.321.42 3.297.5.231.889.878 2.786.878 2.786-1.393-.006-3.567-.083-4.819-.527a.809.809 0 0 1-.529-.712c-.04-.613.069-1.162.397-1.682a.805.805 0 0 1 .775-.365M558.701 45.151c1.775.088 3.578.472 4.69.92a.798.798 0 0 1 .497.757c-.017.626-.198 1.145-.551 1.608a.832.832 0 0 1-.738.328c-.834-.078-2.094-.551-2.902-.7 0 0-.474-1.67-.996-2.913M561.95 56.503c1.256 1.81 1.733 2.457-.665 3.334-.281.103-.514-.052-.717-.272-.65-.705-1.49-2.423-1.953-3.379 2.056-.024 3.335.317 3.335.317M546.347 44.861c-.34-.404-1.053-1.07-1.269-1.54a.777.777 0 0 1 .016-.67c.267-.528.688-.881 1.222-1.162a.813.813 0 0 1 .902.1c.755.64 1.814 2.251 2.366 3.155-1.875.285-3.237.117-3.237.117"/></g><g><path d="M16.234 93.041c9.342 3.4 19.671-1.416 23.071-10.758 3.4-9.341-1.416-19.67-10.758-23.07-9.342-3.4-19.67 1.416-23.07 10.757-3.4 9.342 1.416 19.671 10.757 23.071zm.342-.94c8.823 3.212 18.578-1.337 21.79-10.16 3.21-8.822-1.338-18.578-10.161-21.789-8.823-3.211-18.578 1.338-21.79 10.16-3.21 8.823 1.339 18.578 10.161 21.79z"/><path d="M25.712 85.524c-.291.446-.457.722-.82.961a.814.814 0 0 1-.81.059c-.225-.113-.415-.296-.612-.467-2.271-1.979-3.752-4.545-5.266-7.086-.36-.606-1.091-1.97-1.52-2.703 1.882-.514 2.74-.943 2.74-.943 1.652 2.974 3.573 6.451 6.063 8.747.397.366.858.462.225 1.432M25.594 76.562c-.485-.785-1.348-2.109-1.831-2.87-1.226-1.936-2.645-3.696-4.504-5.08-1.006-.75-.741-1.94.478-2.632.222-.126.508-.157.725-.023 3.589 2.228 5.662 5.678 7.843 9.874-1.32.182-2.711.73-2.711.73M22.227 78.53c3.32-1.573 9.11-2.825 11.524-2.07a.816.816 0 0 1 .555.613c.096.465.007.947-.086 1.419-.09.456-.45.743-.9.708-3.127-.238-6.587.692-9.495 1.723-.623-.63-1.598-2.393-1.598-2.393M22.595 73.398c-3.634 1.313-7.668 2.989-11.299 2.793a.815.815 0 0 1-.708-.479c-.164-.378-.161-.705-.167-1.027-.02-1.123.193-1.372 1.309-1.392 2.62-.049 5.068-.823 7.49-1.721.367-.136 1.09-.39 1.487-.531.915.64 1.888 2.357 1.888 2.357M14.45 80.157c.948-.12 2.354-.155 3.32-.313.44.807 1.526 2.49 1.526 2.49-1.352.332-3.481.783-4.803.656a.809.809 0 0 1-.685-.563c-.187-.586-.215-1.145-.022-1.729a.805.805 0 0 1 .664-.541M25.569 69.768c1.742-.344 3.585-.408 4.772-.243a.798.798 0 0 1 .666.615c.135.612.085 1.159-.146 1.693a.832.832 0 0 1-.636.497c-.828.126-2.166-.028-2.985.023 0 0-.864-1.506-1.671-2.585M31.467 79.996c1.657 1.452 2.276 1.965.161 3.396-.248.168-.51.074-.76-.09-.803-.527-2.034-1.991-2.713-2.806 1.989-.521 3.312-.5 3.312-.5M13.511 72.475c-.427-.31-1.28-.783-1.604-1.187a.777.777 0 0 1-.147-.655c.132-.576.455-1.021.905-1.423a.813.813 0 0 1 .9-.122c.887.44 2.304 1.747 3.058 2.49-1.75.73-3.112.897-3.112.897"/></g><g><path d="M130.464 101.053c8.61-4.971 11.56-15.98 6.589-24.589-4.971-8.61-15.98-11.559-24.589-6.588-8.61 4.97-11.559 15.979-6.588 24.588 4.97 8.61 15.979 11.56 24.588 6.589zm-.5-.866c8.131-4.695 10.917-15.092 6.223-23.223-4.695-8.13-15.092-10.917-23.223-6.222-8.13 4.694-10.917 15.091-6.222 23.222 4.694 8.131 15.091 10.917 23.222 6.223z"/><path d="M130.798 88.96c.154.51.258.814.21 1.246a.814.814 0 0 1-.477.658c-.23.1-.494.128-.751.169-2.975.468-5.893-.047-8.813-.52-.696-.114-2.21-.43-3.048-.573.817-1.773 1.04-2.706 1.04-2.706 3.34.646 7.238 1.41 10.597.978.536-.069.906-.36 1.242.748M123.856 83.29c-.912-.133-2.482-.322-3.375-.442-2.271-.305-4.531-.35-6.787.184-1.221.29-1.962-.678-1.709-2.057.047-.251.207-.49.449-.57 4.013-1.318 7.99-.688 12.605.339-.71 1.128-1.183 2.546-1.183 2.546M123.2 87.134c.929-3.554 3.69-8.794 5.822-10.158a.816.816 0 0 1 .826-.032c.418.226.73.604 1.031.979.292.362.28.821-.035 1.145-2.193 2.242-3.704 5.49-4.784 8.38-.883.073-2.86-.314-2.86-.314M119.505 83.554c-1.33 3.627-2.64 7.794-5.123 10.45a.815.815 0 0 1-.822.235c-.396-.117-.644-.33-.894-.532-.873-.707-.928-1.03-.226-1.898 1.648-2.039 2.628-4.411 3.497-6.844.132-.369.4-1.085.549-1.48 1.079-.29 3.02.069 3.02.069M119.447 94.138c.518-.803 1.395-1.903 1.894-2.745.901.182 2.89.432 2.89.432-.616 1.25-1.64 3.17-2.586 4.1a.809.809 0 0 1-.872.164c-.569-.233-1.015-.572-1.338-1.094a.805.805 0 0 1 .012-.857M118.636 78.942c.856-1.556 1.992-3.009 2.881-3.812a.798.798 0 0 1 .9-.115c.555.29.941.68 1.202 1.2a.832.832 0 0 1-.028.807c-.436.715-1.413 1.641-1.9 2.302 0 0-1.71-.306-3.055-.382M130.263 80.998c2.176-.336 2.967-.48 2.704 2.06-.03.298-.271.439-.558.525-.92.276-2.832.277-3.893.274.88-1.859 1.747-2.859 1.747-2.859M112.959 89.919c-.512.128-1.423.477-1.94.465a.777.777 0 0 1-.597-.308c-.356-.472-.49-1.004-.508-1.608a.813.813 0 0 1 .485-.767c.907-.397 2.82-.642 3.873-.743-.565 1.81-1.313 2.96-1.313 2.96"/></g><g><path d="M171 95c9.941 0 18-8.059 18-18s-8.059-18-18-18-18 8.059-18 18 8.059 18 18 18zm0-1c9.389 0 17-7.611 17-17s-7.611-17-17-17-17 7.611-17 17 7.611 17 17 17z"/><path d="M177.335 84.694c-.12.52-.183.835-.441 1.184a.814.814 0 0 1-.742.332c-.25-.029-.491-.136-.734-.23-2.812-1.082-5.08-2.987-7.372-4.857-.547-.445-1.7-1.477-2.354-2.02 1.594-1.126 2.254-1.823 2.254-1.823 2.568 2.23 5.563 4.84 8.688 6.146.498.208.964.14.701 1.268M174.158 76.313c-.723-.571-1.987-1.52-2.701-2.07-1.815-1.4-3.75-2.568-5.97-3.234-1.202-.36-1.36-1.569-.451-2.636.165-.194.424-.322.673-.27 4.135.866 7.263 3.4 10.747 6.597-1.178.622-2.298 1.613-2.298 1.613M171.668 79.314c2.581-2.613 7.594-5.77 10.121-5.886a.816.816 0 0 1 .732.386c.249.404.33.887.404 1.363.071.46-.168.851-.604.973-3.02.846-5.953 2.903-8.333 4.866-.8-.378-2.32-1.702-2.32-1.702M170.259 74.366c-2.966 2.476-6.184 5.43-9.662 6.488a.815.815 0 0 1-.83-.207c-.284-.3-.393-.608-.508-.908-.402-1.049-.288-1.355.754-1.756 2.446-.942 4.48-2.506 6.45-4.179.298-.253.89-.74 1.216-1.008 1.078.29 2.58 1.57 2.58 1.57M164.916 83.503c.85-.436 2.16-.95 3.013-1.43.69.608 2.286 1.819 2.286 1.819-1.158.774-3.004 1.926-4.289 2.258a.809.809 0 0 1-.837-.294c-.376-.487-.593-1.003-.612-1.617a.805.805 0 0 1 .439-.736M171.811 69.937c1.52-.919 3.23-1.61 4.402-1.86a.798.798 0 0 1 .836.35c.336.529.476 1.06.442 1.641a.832.832 0 0 1-.428.684c-.735.402-2.045.715-2.797 1.043 0 0-1.327-1.119-2.455-1.858M180.853 77.532c2.052.797 2.81 1.067 1.312 3.136-.175.242-.454.244-.746.175-.934-.22-2.591-1.175-3.508-1.71 1.69-1.169 2.942-1.601 2.942-1.601M161.407 76.605c-.507-.145-1.472-.298-1.913-.567a.777.777 0 0 1-.363-.565c-.072-.586.078-1.115.364-1.646a.813.813 0 0 1 .804-.422c.984.109 2.763.853 3.726 1.293-1.395 1.284-2.618 1.907-2.618 1.907"/></g><g><path d="M243.464 91.053c8.61-4.971 11.56-15.98 6.589-24.589-4.971-8.61-15.98-11.559-24.589-6.588-8.61 4.97-11.559 15.979-6.588 24.588 4.97 8.61 15.979 11.56 24.588 6.589zm-.5-.866c8.131-4.695 10.917-15.092 6.223-23.223-4.695-8.13-15.092-10.917-23.223-6.222-8.13 4.694-10.917 15.091-6.222 23.222 4.694 8.131 15.091 10.917 23.222 6.223z"/><path d="M243.798 78.96c.154.51.258.814.21 1.246a.814.814 0 0 1-.477.658c-.23.1-.494.128-.751.169-2.975.468-5.893-.047-8.813-.52-.696-.114-2.21-.43-3.048-.573.817-1.773 1.04-2.706 1.04-2.706 3.34.646 7.238 1.41 10.597.978.536-.069.906-.36 1.242.748M236.856 73.29c-.912-.133-2.482-.322-3.375-.442-2.271-.305-4.531-.35-6.787.184-1.221.29-1.962-.678-1.709-2.057.047-.251.207-.49.449-.57 4.013-1.318 7.99-.688 12.605.339-.71 1.128-1.183 2.546-1.183 2.546M236.2 77.134c.929-3.554 3.69-8.794 5.822-10.158a.816.816 0 0 1 .826-.032c.418.226.73.604 1.031.979.292.362.28.821-.035 1.145-2.193 2.242-3.704 5.49-4.784 8.38-.883.073-2.86-.314-2.86-.314M232.505 73.554c-1.33 3.627-2.64 7.794-5.123 10.45a.815.815 0 0 1-.822.235c-.396-.117-.644-.33-.894-.532-.873-.707-.928-1.03-.226-1.898 1.648-2.039 2.628-4.411 3.497-6.844.132-.369.4-1.085.549-1.48 1.079-.29 3.02.069 3.02.069M232.447 84.138c.518-.803 1.395-1.903 1.894-2.745.901.182 2.89.432 2.89.432-.616 1.25-1.64 3.17-2.586 4.1a.809.809 0 0 1-.872.164c-.569-.233-1.015-.572-1.338-1.094a.805.805 0 0 1 .012-.857M231.636 68.942c.856-1.556 1.992-3.009 2.881-3.812a.798.798 0 0 1 .9-.115c.555.29.941.68 1.202 1.2a.832.832 0 0 1-.028.807c-.436.715-1.413 1.641-1.9 2.302 0 0-1.71-.306-3.055-.382M243.263 70.998c2.176-.336 2.967-.48 2.704 2.06-.03.298-.271.439-.558.525-.92.276-2.832.277-3.893.274.88-1.859 1.747-2.859 1.747-2.859M225.959 79.919c-.512.128-1.423.477-1.94.465a.777.777 0 0 1-.597-.308c-.356-.472-.49-1.004-.508-1.608a.813.813 0 0 1 .485-.767c.907-.397 2.82-.642 3.873-.743-.565 1.81-1.313 2.96-1.313 2.96"/></g><g><path d="M284.76 118.971c9.79-1.726 16.327-11.062 14.6-20.852-1.726-9.79-11.062-16.327-20.852-14.6-9.79 1.725-16.327 11.061-14.6 20.851 1.726 9.79 11.061 16.327 20.851 14.601zm-.174-.985c9.246-1.63 15.42-10.447 13.79-19.693-1.63-9.247-10.448-15.42-19.694-13.79-9.246 1.63-15.42 10.447-13.79 19.694 1.63 9.246 10.448 15.42 19.694 13.79z"/><path d="M289.209 107.722c-.03.532-.036.854-.23 1.242a.814.814 0 0 1-.672.456c-.251.015-.508-.049-.763-.099-2.957-.577-5.522-2.059-8.104-3.503-.615-.344-1.93-1.16-2.668-1.58 1.374-1.387 1.902-2.187 1.902-2.187 2.917 1.75 6.32 3.8 9.624 4.544.527.118.974-.03.91 1.127M284.625 100.02c-.811-.437-2.222-1.152-3.02-1.57-2.03-1.064-4.139-1.878-6.44-2.148-1.247-.146-1.612-1.309-.903-2.518.13-.22.362-.39.616-.382 4.222.134 7.743 2.086 11.73 4.63-1.053.818-1.983 1.988-1.983 1.988M282.693 103.407c2.089-3.021 6.477-7 8.946-7.554a.816.816 0 0 1 .787.253c.316.355.479.817.635 1.272.15.44-.018.868-.426 1.064-2.827 1.357-5.358 3.892-7.361 6.24-.855-.234-2.58-1.275-2.58-1.275M280.446 98.78c-2.49 2.953-5.146 6.421-8.388 8.067a.815.815 0 0 1-.853-.06c-.332-.246-.492-.53-.658-.806-.578-.963-.52-1.285.437-1.86 2.246-1.353 3.978-3.247 5.627-5.236.25-.301.747-.883 1.022-1.203 1.113.097 2.813 1.098 2.813 1.098M276.771 108.705c.762-.577 1.962-1.31 2.72-1.931.784.479 2.567 1.394 2.567 1.394-1.006.963-2.624 2.418-3.832 2.969a.809.809 0 0 1-.875-.145c-.455-.413-.759-.884-.884-1.486a.805.805 0 0 1 .304-.801M281.207 94.148c1.337-1.169 2.9-2.146 4.011-2.596a.798.798 0 0 1 .884.2c.423.462.653.96.72 1.539a.832.832 0 0 1-.302.748c-.654.523-1.89 1.059-2.574 1.513 0 0-1.5-.872-2.74-1.404M291.43 100.057c2.16.43 2.952.564 1.836 2.861-.13.27-.405.32-.704.302-.958-.055-2.756-.708-3.752-1.074 1.462-1.446 2.62-2.089 2.62-2.089M272.118 102.522c-.525-.055-1.5-.038-1.983-.226a.777.777 0 0 1-.455-.494c-.173-.565-.117-1.112.073-1.685a.813.813 0 0 1 .718-.555c.988-.063 2.869.36 3.894.627-1.15 1.507-2.247 2.333-2.247 2.333"/></g><g><path d="M311.76 78.971c9.79-1.726 16.327-11.062 14.6-20.852-1.726-9.79-11.062-16.327-20.852-14.6-9.79 1.725-16.327 11.061-14.6 20.851 1.726 9.79 11.061 16.327 20.851 14.601zm-.174-.985c9.246-1.63 15.42-10.447 13.79-19.693-1.63-9.247-10.448-15.42-19.694-13.79-9.246 1.63-15.42 10.447-13.79 19.694 1.63 9.246 10.448 15.42 19.694 13.79z"/><path d="M316.209 67.722c-.03.532-.036.854-.23 1.242a.814.814 0 0 1-.672.456c-.251.015-.508-.049-.763-.099-2.957-.577-5.522-2.059-8.104-3.503-.615-.344-1.93-1.16-2.668-1.58 1.374-1.387 1.902-2.187 1.902-2.187 2.917 1.75 6.32 3.8 9.624 4.544.527.118.974-.03.91 1.127M311.625 60.02c-.811-.437-2.222-1.152-3.02-1.57-2.03-1.064-4.139-1.878-6.44-2.148-1.247-.146-1.612-1.309-.903-2.518.13-.22.362-.39.616-.382 4.222.134 7.743 2.086 11.73 4.63-1.053.818-1.983 1.988-1.983 1.988M309.693 63.407c2.089-3.021 6.477-7 8.946-7.554a.816.816 0 0 1 .787.253c.316.355.479.817.635 1.272.15.44-.018.868-.426 1.064-2.827 1.357-5.358 3.892-7.361 6.24-.855-.234-2.58-1.275-2.58-1.275M307.446 58.78c-2.49 2.953-5.146 6.421-8.388 8.067a.815.815 0 0 1-.853-.06c-.332-.246-.492-.53-.658-.806-.578-.963-.52-1.285.437-1.86 2.246-1.353 3.978-3.247 5.627-5.236.25-.301.747-.883 1.022-1.203 1.113.097 2.813 1.098 2.813 1.098M303.771 68.705c.762-.577 1.962-1.31 2.72-1.931.784.479 2.567 1.394 2.567 1.394-1.006.963-2.624 2.418-3.832 2.969a.809.809 0 0 1-.875-.145c-.455-.413-.759-.884-.884-1.486a.805.805 0 0 1 .304-.801M308.207 54.148c1.337-1.169 2.9-2.146 4.011-2.596a.798.798 0 0 1 .884.2c.423.462.653.96.72 1.539a.832.832 0 0 1-.302.748c-.654.523-1.89 1.059-2.574 1.513 0 0-1.5-.872-2.74-1.404M318.43 60.057c2.16.43 2.952.564 1.836 2.861-.13.27-.405.32-.704.302-.958-.055-2.756-.708-3.752-1.074 1.462-1.446 2.62-2.089 2.62-2.089M299.118 62.522c-.525-.055-1.5-.038-1.983-.226a.777.777 0 0 1-.455-.494c-.173-.565-.117-1.112.073-1.685a.813.813 0 0 1 .718-.555c.988-.063 2.869.36 3.894.627-1.15 1.507-2.247 2.333-2.247 2.333"/></g><g><path d="M396.167 88.447c8.043-5.843 9.826-17.1 3.983-25.142-5.844-8.043-17.1-9.826-25.143-3.982-8.042 5.843-9.825 17.1-3.982 25.142 5.843 8.043 17.1 9.825 25.142 3.982zm-.587-.809c7.595-5.518 9.28-16.15 3.76-23.745-5.518-7.596-16.15-9.28-23.745-3.761-7.596 5.518-9.28 16.15-3.761 23.745 5.519 7.596 16.15 9.28 23.746 3.761z"/><path d="M395.235 76.386c.207.49.343.783.339 1.217a.814.814 0 0 1-.405.705c-.22.123-.478.178-.73.246-2.91.777-5.865.569-8.818.403-.704-.04-2.243-.196-3.092-.25.627-1.849.752-2.8.752-2.8 3.388.294 7.346.646 10.641-.135.526-.124.863-.453 1.313.614M387.739 71.473c-.921-.037-2.502-.062-3.403-.088-2.29-.065-4.543.127-6.73.893-1.185.416-2.023-.47-1.915-1.867.02-.254.154-.51.386-.614 3.854-1.73 7.874-1.52 12.572-.98-.587 1.196-.91 2.656-.91 2.656M387.487 75.364c.553-3.631 2.753-9.131 4.73-10.711a.816.816 0 0 1 .818-.118c.439.18.788.525 1.128.866.328.33.364.787.084 1.142-1.946 2.46-3.11 5.847-3.882 8.835-.87.165-2.878-.014-2.878-.014M383.44 72.19c-.944 3.746-1.811 8.028-4.004 10.928a.815.815 0 0 1-.792.32c-.406-.075-.676-.261-.945-.436-.942-.612-1.03-.927-.423-1.864 1.425-2.2 2.152-4.661 2.762-7.172.093-.38.285-1.121.391-1.53 1.043-.4 3.01-.246 3.01-.246M384.487 82.722c.432-.853 1.189-2.038 1.598-2.928.915.087 2.918.128 2.918.128-.482 1.306-1.298 3.324-2.142 4.348a.809.809 0 0 1-.85.254c-.59-.173-1.07-.463-1.446-.949a.805.805 0 0 1-.078-.853M382.092 67.694c.69-1.637 1.667-3.2 2.468-4.092a.798.798 0 0 1 .882-.208c.583.23 1.008.577 1.322 1.068.155.242.179.545.056.805-.359.757-1.234 1.78-1.65 2.488 0 0-1.731-.126-3.078-.06M393.871 68.524c2.13-.562 2.9-.788 2.905 1.766 0 .299-.224.464-.5.58-.886.37-2.788.572-3.844.68.68-1.941 1.439-3.026 1.439-3.026M377.594 79.204c-.495.181-1.365.624-1.88.666a.777.777 0 0 1-.626-.244c-.404-.432-.592-.948-.674-1.546a.813.813 0 0 1 .402-.814c.86-.49 2.737-.933 3.775-1.143-.373 1.858-.997 3.081-.997 3.081"/></g><g><path d="M457.706 86.725c9.082 4.043 19.722-.04 23.765-9.123 4.043-9.081-.04-19.721-9.123-23.765-9.081-4.043-19.721.041-23.765 9.123-4.043 9.082.041 19.722 9.123 23.765zm.407-.914c8.577 3.82 18.626-.038 22.445-8.615 3.818-8.577-.04-18.626-8.616-22.445-8.577-3.819-18.626.038-22.445 8.616-3.819 8.577.039 18.626 8.616 22.444z"/><path d="M467.685 79.887c-.321.425-.507.688-.884.902a.814.814 0 0 1-.813.002c-.216-.129-.394-.325-.578-.51-2.128-2.13-3.426-4.794-4.759-7.435-.318-.63-.951-2.04-1.329-2.802 1.915-.381 2.801-.75 2.801-.75 1.44 3.082 3.114 6.685 5.438 9.15.37.392.823.52.124 1.443M468.192 70.938c-.428-.816-1.198-2.197-1.626-2.99-1.088-2.017-2.38-3.871-4.138-5.382-.952-.818-.605-1.987.66-2.592.23-.11.518-.122.724.028 3.425 2.472 5.253 6.059 7.136 10.397-1.33.09-2.756.54-2.756.54M464.696 72.667c3.421-1.337 9.284-2.183 11.64-1.26a.816.816 0 0 1 .512.65c.063.47-.06.944-.186 1.409-.12.449-.5.71-.947.644-3.103-.456-6.618.23-9.592 1.055-.578-.67-1.427-2.498-1.427-2.498M465.421 67.573c-3.716 1.056-7.857 2.447-11.465 1.998a.815.815 0 0 1-.674-.527c-.137-.389-.111-.715-.095-1.036.06-1.122.288-1.355 1.403-1.298 2.618.135 5.113-.467 7.592-1.194.376-.11 1.114-.314 1.52-.426.869.703 1.72 2.483 1.72 2.483M456.824 73.747c.954-.052 2.36.01 3.335-.08.382.835 1.348 2.59 1.348 2.59-1.372.237-3.527.539-4.837.32a.809.809 0 0 1-.645-.61c-.145-.597-.134-1.157.1-1.726a.805.805 0 0 1 .7-.494M468.641 64.16c1.762-.223 3.605-.158 4.778.09a.798.798 0 0 1 .621.66c.092.62.004 1.162-.264 1.678a.832.832 0 0 1-.669.452c-.835.067-2.158-.18-2.98-.185 0 0-.756-1.563-1.486-2.696M473.812 74.775c1.55 1.563 2.133 2.118-.077 3.398-.259.15-.514.038-.752-.143-.764-.582-1.89-2.128-2.51-2.989 2.02-.38 3.339-.266 3.339-.266M456.424 66.018c-.404-.338-1.223-.87-1.517-1.295a.777.777 0 0 1-.101-.664c.172-.566.524-.987 1.002-1.356a.813.813 0 0 1 .905-.06c.855.501 2.177 1.904 2.878 2.698-1.796.606-3.167.677-3.167.677"/></g><g><path d="M515.456 106.225c9.917.694 18.518-6.783 19.211-16.7.694-9.917-6.783-18.518-16.7-19.212-9.917-.693-18.518 6.784-19.212 16.7-.693 9.918 6.784 18.519 16.7 19.212zm.07-.997c9.365.655 17.489-6.407 18.144-15.773.655-9.366-6.407-17.49-15.773-18.144-9.366-.655-17.49 6.406-18.144 15.772-.655 9.366 6.406 17.49 15.772 18.145z"/><path d="M522.494 96.387c-.157.509-.24.82-.523 1.15a.814.814 0 0 1-.763.28c-.247-.047-.48-.17-.716-.281-2.73-1.275-4.86-3.334-7.016-5.36-.513-.482-1.591-1.592-2.207-2.179 1.669-1.012 2.376-1.662 2.376-1.662 2.407 2.404 5.212 5.217 8.238 6.738.483.242.952.207.611 1.314M519.91 87.804c-.682-.62-1.877-1.655-2.551-2.254-1.712-1.523-3.561-2.823-5.73-3.642-1.173-.443-1.247-1.66-.265-2.661.178-.182.445-.291.69-.222 4.064 1.152 7.008 3.898 10.26 7.33-1.219.54-2.404 1.45-2.404 1.45M517.216 90.624c2.758-2.426 7.978-5.226 10.508-5.166a.816.816 0 0 1 .702.436c.22.42.267.909.308 1.388.04.464-.227.838-.67.93-3.072.633-6.14 2.48-8.652 4.272-.773-.433-2.196-1.86-2.196-1.86M516.155 85.59c-3.13 2.263-6.547 4.986-10.09 5.799a.815.815 0 0 1-.813-.265c-.263-.319-.35-.634-.444-.941-.328-1.074-.193-1.372.874-1.7 2.506-.768 4.645-2.187 6.726-3.718.315-.232.94-.676 1.283-.92 1.056.363 2.464 1.745 2.464 1.745M510.188 94.332c.88-.376 2.221-.797 3.106-1.216.645.654 2.153 1.974 2.153 1.974-1.208.69-3.13 1.711-4.436 1.953a.809.809 0 0 1-.814-.352c-.34-.511-.522-1.041-.497-1.655a.805.805 0 0 1 .488-.704M518.013 81.28c1.58-.81 3.335-1.38 4.521-1.548a.798.798 0 0 1 .81.407c.298.55.4 1.09.326 1.668a.832.832 0 0 1-.475.653c-.761.35-2.09.57-2.863.845 0 0-1.245-1.21-2.319-2.025M526.503 89.487c1.992.939 2.728 1.261 1.09 3.22-.192.23-.47.212-.756.123-.916-.285-2.503-1.354-3.38-1.95 1.768-1.049 3.046-1.393 3.046-1.393M507.169 87.206c-.496-.18-1.447-.4-1.869-.699a.777.777 0 0 1-.322-.589c-.032-.59.156-1.107.478-1.617a.813.813 0 0 1 .83-.365c.975.178 2.697 1.044 3.627 1.55-1.48 1.184-2.744 1.72-2.744 1.72"/></g><g><path d="M589.167 109.447c8.043-5.843 9.826-17.1 3.983-25.142-5.844-8.043-17.1-9.826-25.143-3.982-8.042 5.843-9.825 17.1-3.982 25.142 5.843 8.043 17.1 9.825 25.142 3.982zm-.587-.809c7.595-5.518 9.28-16.15 3.76-23.745-5.518-7.596-16.15-9.28-23.745-3.761-7.596 5.518-9.28 16.15-3.761 23.745 5.519 7.596 16.15 9.28 23.746 3.761z"/><path d="M588.235 97.386c.207.49.343.783.339 1.217a.814.814 0 0 1-.405.705c-.22.123-.478.178-.73.246-2.91.777-5.865.569-8.818.403-.704-.04-2.243-.196-3.092-.25.627-1.849.752-2.8.752-2.8 3.388.294 7.346.646 10.641-.135.526-.124.863-.453 1.313.614M580.739 92.473c-.921-.037-2.502-.062-3.403-.088-2.29-.065-4.543.127-6.73.893-1.185.416-2.023-.47-1.915-1.867.02-.254.154-.51.386-.614 3.854-1.73 7.874-1.52 12.572-.98-.587 1.196-.91 2.656-.91 2.656M580.487 96.364c.553-3.631 2.753-9.131 4.73-10.711a.816.816 0 0 1 .818-.118c.439.18.788.525 1.128.866.328.33.364.787.084 1.142-1.946 2.46-3.11 5.847-3.882 8.835-.87.165-2.878-.014-2.878-.014M576.44 93.19c-.944 3.746-1.811 8.028-4.004 10.928a.815.815 0 0 1-.792.32c-.406-.075-.676-.261-.945-.436-.942-.612-1.03-.927-.423-1.864 1.425-2.2 2.152-4.661 2.762-7.172.093-.38.285-1.121.391-1.53 1.043-.4 3.01-.246 3.01-.246M577.487 103.722c.432-.853 1.189-2.038 1.598-2.928.915.087 2.918.128 2.918.128-.482 1.306-1.298 3.324-2.142 4.348a.809.809 0 0 1-.85.254c-.59-.173-1.07-.463-1.446-.949a.805.805 0 0 1-.078-.853M575.092 88.694c.69-1.637 1.667-3.2 2.468-4.092a.798.798 0 0 1 .882-.208c.583.23 1.008.577 1.322 1.068.155.242.179.545.056.805-.359.757-1.234 1.78-1.65 2.488 0 0-1.731-.126-3.078-.06M586.871 89.524c2.13-.562 2.9-.788 2.905 1.766 0 .299-.224.464-.5.58-.886.37-2.788.572-3.844.68.68-1.941 1.439-3.026 1.439-3.026M570.594 100.204c-.495.181-1.365.624-1.88.666a.777.777 0 0 1-.626-.244c-.404-.432-.592-.948-.674-1.546a.813.813 0 0 1 .402-.814c.86-.49 2.737-.933 3.775-1.143-.373 1.858-.997 3.081-.997 3.081"/></g><g><path d="M54.234 122.041c9.342 3.4 19.671-1.416 23.071-10.758 3.4-9.341-1.416-19.67-10.758-23.07-9.342-3.4-19.67 1.416-23.07 10.757-3.4 9.342 1.416 19.671 10.757 23.071zm.342-.94c8.823 3.212 18.578-1.337 21.79-10.16 3.21-8.822-1.338-18.578-10.161-21.789-8.823-3.211-18.578 1.338-21.79 10.16-3.21 8.823 1.339 18.578 10.161 21.79z"/><path d="M63.712 114.524c-.291.446-.457.722-.82.961a.814.814 0 0 1-.81.059c-.225-.113-.415-.296-.612-.467-2.271-1.979-3.752-4.545-5.266-7.086-.36-.606-1.091-1.97-1.52-2.703 1.882-.514 2.74-.943 2.74-.943 1.652 2.974 3.573 6.451 6.063 8.747.397.366.858.462.225 1.432M63.594 105.562c-.485-.785-1.348-2.109-1.831-2.87-1.226-1.936-2.645-3.696-4.504-5.08-1.006-.75-.741-1.94.478-2.632.222-.126.508-.157.725-.023 3.589 2.228 5.662 5.678 7.843 9.874-1.32.182-2.711.73-2.711.73M60.227 107.53c3.32-1.573 9.11-2.825 11.524-2.07a.816.816 0 0 1 .555.613c.096.465.007.947-.086 1.419-.09.456-.45.743-.9.708-3.127-.238-6.587.692-9.495 1.723-.623-.63-1.598-2.393-1.598-2.393M60.595 102.398c-3.634 1.313-7.668 2.989-11.299 2.793a.815.815 0 0 1-.708-.479c-.164-.378-.161-.705-.167-1.027-.02-1.123.193-1.372 1.309-1.392 2.62-.049 5.068-.823 7.49-1.721.367-.136 1.09-.39 1.487-.531.915.64 1.888 2.357 1.888 2.357M52.45 109.157c.948-.12 2.354-.155 3.32-.313.44.807 1.526 2.49 1.526 2.49-1.352.332-3.481.783-4.803.656a.809.809 0 0 1-.685-.563c-.187-.586-.215-1.145-.022-1.729a.805.805 0 0 1 .664-.541M63.569 98.768c1.742-.344 3.585-.408 4.772-.243a.798.798 0 0 1 .666.615c.135.612.085 1.159-.146 1.693a.832.832 0 0 1-.636.497c-.828.126-2.166-.028-2.985.023 0 0-.864-1.506-1.671-2.585M69.467 108.996c1.657 1.452 2.276 1.965.161 3.396-.248.168-.51.074-.76-.09-.803-.527-2.034-1.991-2.713-2.806 1.989-.521 3.312-.5 3.312-.5M51.511 101.475c-.427-.31-1.28-.783-1.604-1.187a.777.777 0 0 1-.147-.655c.132-.576.455-1.021.905-1.423a.813.813 0 0 1 .9-.122c.887.44 2.304 1.747 3.058 2.49-1.75.73-3.112.897-3.112.897"/></g><g><path d="M39.283 158.305c9.342-3.4 14.158-13.73 10.758-23.07-3.4-9.342-13.729-14.159-23.07-10.759-9.342 3.4-14.159 13.73-10.759 23.071 3.4 9.342 13.73 14.158 23.071 10.758zm-.342-.94c8.823-3.21 13.372-12.966 10.16-21.789-3.21-8.822-12.966-13.371-21.788-10.16-8.823 3.211-13.372 12.966-10.16 21.789 3.21 8.823 12.966 13.372 21.788 10.16z"/><path d="M41.712 146.454c.063.53.113.847-.01 1.263a.814.814 0 0 1-.584.566c-.244.058-.508.04-.769.036-3.011-.056-5.795-1.07-8.588-2.043-.666-.232-2.102-.808-2.903-1.093 1.113-1.604 1.494-2.485 1.494-2.485 3.177 1.217 6.884 2.646 10.267 2.804.54.025.954-.197 1.093.952M35.86 139.665c-.875-.29-2.388-.749-3.247-1.022-2.184-.695-4.402-1.13-6.715-.996-1.254.072-1.815-1.01-1.326-2.324.089-.238.288-.447.54-.483 4.181-.6 7.988.71 12.355 2.523-.894.988-1.607 2.302-1.607 2.302M34.546 143.337c1.532-3.339 5.162-8.02 7.498-8.993a.816.816 0 0 1 .819.112c.372.295.613.721.846 1.143.224.407.133.857-.234 1.121-2.549 1.828-4.601 4.764-6.167 7.423-.882-.082-2.762-.806-2.762-.806M31.53 139.17c-1.94 3.34-3.954 7.217-6.86 9.4a.815.815 0 0 1-.85.09c-.37-.185-.578-.437-.789-.68-.737-.848-.735-1.175.107-1.908 1.977-1.721 3.354-3.888 4.632-6.133.194-.34.583-.999.798-1.363 1.113-.097 2.961.593 2.961.593M29.634 149.582c.65-.7 1.704-1.631 2.342-2.374.856.335 2.77.927 2.77.927-.823 1.123-2.163 2.838-3.258 3.59a.809.809 0 0 1-.887.009c-.52-.328-.9-.74-1.128-1.31a.805.805 0 0 1 .16-.842M31.474 134.476c1.114-1.383 2.484-2.617 3.5-3.253a.798.798 0 0 1 .905.043c.497.382.81.833.976 1.39a.832.832 0 0 1-.168.79c-.553.629-1.676 1.37-2.271 1.937 0 0-1.63-.598-2.942-.907M42.567 138.52c2.202.048 3.006.043 2.306 2.499-.082.288-.343.384-.64.42-.954.112-2.838-.219-3.882-.407 1.188-1.677 2.216-2.511 2.216-2.511M23.977 144.3c-.526.038-1.484.224-1.991.122a.777.777 0 0 1-.534-.407c-.27-.526-.308-1.074-.221-1.671a.813.813 0 0 1 .61-.672c.962-.234 2.888-.143 3.944-.059-.871 1.684-1.808 2.688-1.808 2.688"/></g><g><path d="M92 162c9.941 0 18-8.059 18-18s-8.059-18-18-18-18 8.059-18 18 8.059 18 18 18zm0-1c9.389 0 17-7.611 17-17s-7.611-17-17-17-17 7.611-17 17 7.611 17 17 17z"/><path d="M98.335 151.694c-.12.52-.183.835-.441 1.184a.814.814 0 0 1-.742.332c-.25-.029-.491-.136-.734-.23-2.812-1.082-5.08-2.987-7.372-4.857-.547-.445-1.7-1.477-2.354-2.02 1.594-1.126 2.254-1.823 2.254-1.823 2.568 2.23 5.563 4.84 8.688 6.146.498.208.964.14.701 1.268M95.158 143.313c-.723-.571-1.987-1.52-2.701-2.07-1.815-1.4-3.75-2.568-5.97-3.234-1.202-.36-1.36-1.569-.451-2.636.165-.194.424-.322.673-.27 4.135.866 7.263 3.4 10.747 6.597-1.178.622-2.298 1.613-2.298 1.613M92.668 146.314c2.581-2.613 7.594-5.77 10.121-5.886a.816.816 0 0 1 .732.386c.249.404.33.887.404 1.363.071.46-.168.851-.604.973-3.02.846-5.953 2.903-8.333 4.866-.8-.378-2.32-1.702-2.32-1.702M91.259 141.366c-2.966 2.476-6.184 5.43-9.662 6.488a.815.815 0 0 1-.83-.207c-.284-.3-.393-.608-.508-.908-.402-1.049-.288-1.355.754-1.756 2.446-.942 4.48-2.506 6.45-4.179.298-.253.89-.74 1.216-1.008 1.078.29 2.58 1.57 2.58 1.57M85.916 150.503c.85-.436 2.16-.95 3.013-1.43.69.608 2.286 1.819 2.286 1.819-1.158.774-3.004 1.926-4.289 2.258a.809.809 0 0 1-.837-.294c-.376-.487-.593-1.003-.612-1.617a.805.805 0 0 1 .439-.736M92.811 136.937c1.52-.919 3.23-1.61 4.402-1.86a.798.798 0 0 1 .836.35c.336.529.476 1.06.442 1.641a.832.832 0 0 1-.428.684c-.735.402-2.045.715-2.797 1.043 0 0-1.327-1.119-2.455-1.858M101.853 144.532c2.052.797 2.81 1.067 1.312 3.136-.175.242-.454.244-.746.175-.934-.22-2.591-1.175-3.508-1.71 1.69-1.169 2.942-1.601 2.942-1.601M82.407 143.605c-.507-.145-1.472-.298-1.913-.567a.777.777 0 0 1-.363-.565c-.072-.586.078-1.115.364-1.646a.813.813 0 0 1 .804-.422c.984.109 2.763.853 3.726 1.293-1.395 1.284-2.618 1.907-2.618 1.907"/></g><g><path d="M137.234 144.041c9.342 3.4 19.671-1.416 23.071-10.758 3.4-9.341-1.416-19.67-10.758-23.07-9.342-3.4-19.67 1.416-23.07 10.757-3.4 9.342 1.416 19.671 10.757 23.071zm.342-.94c8.823 3.212 18.578-1.337 21.79-10.16 3.21-8.822-1.338-18.578-10.161-21.789-8.823-3.211-18.578 1.338-21.79 10.16-3.21 8.823 1.339 18.578 10.161 21.79z"/><path d="M146.712 136.524c-.291.446-.457.722-.82.961a.814.814 0 0 1-.81.059c-.225-.113-.415-.296-.612-.467-2.271-1.979-3.752-4.545-5.266-7.086-.36-.606-1.091-1.97-1.52-2.703 1.882-.514 2.74-.943 2.74-.943 1.652 2.974 3.573 6.451 6.063 8.747.397.366.858.462.225 1.432M146.594 127.562c-.485-.785-1.348-2.109-1.831-2.87-1.226-1.936-2.645-3.696-4.504-5.08-1.006-.75-.741-1.94.478-2.632.222-.126.508-.157.725-.023 3.589 2.228 5.662 5.678 7.843 9.874-1.32.182-2.711.73-2.711.73M143.227 129.53c3.32-1.573 9.11-2.825 11.524-2.07a.816.816 0 0 1 .555.613c.096.465.007.947-.086 1.419-.09.456-.45.743-.9.708-3.127-.238-6.587.692-9.495 1.723-.623-.63-1.598-2.393-1.598-2.393M143.595 124.398c-3.634 1.313-7.668 2.989-11.299 2.793a.815.815 0 0 1-.708-.479c-.164-.378-.161-.705-.167-1.027-.02-1.123.193-1.372 1.309-1.392 2.62-.049 5.068-.823 7.49-1.721.367-.136 1.09-.39 1.487-.531.915.64 1.888 2.357 1.888 2.357M135.45 131.157c.948-.12 2.354-.155 3.32-.313.44.807 1.526 2.49 1.526 2.49-1.352.332-3.481.783-4.803.656a.809.809 0 0 1-.685-.563c-.187-.586-.215-1.145-.022-1.729a.805.805 0 0 1 .664-.541M146.569 120.768c1.742-.344 3.585-.408 4.772-.243a.798.798 0 0 1 .666.615c.135.612.085 1.159-.146 1.693a.832.832 0 0 1-.636.497c-.828.126-2.166-.028-2.985.023 0 0-.864-1.506-1.671-2.585M152.467 130.996c1.657 1.452 2.276 1.965.161 3.396-.248.168-.51.074-.76-.09-.803-.527-2.034-1.991-2.713-2.806 1.989-.521 3.312-.5 3.312-.5M134.511 123.475c-.427-.31-1.28-.783-1.604-1.187a.777.777 0 0 1-.147-.655c.132-.576.455-1.021.905-1.423a.813.813 0 0 1 .9-.122c.887.44 2.304 1.747 3.058 2.49-1.75.73-3.112.897-3.112.897"/></g><g><path d="M191.234 136.041c9.342 3.4 19.671-1.416 23.071-10.758 3.4-9.341-1.416-19.67-10.758-23.07-9.342-3.4-19.67 1.416-23.07 10.757-3.4 9.342 1.416 19.671 10.757 23.071zm.342-.94c8.823 3.212 18.578-1.337 21.79-10.16 3.21-8.822-1.338-18.578-10.161-21.789-8.823-3.211-18.578 1.338-21.79 10.16-3.21 8.823 1.339 18.578 10.161 21.79z"/><path d="M200.712 128.524c-.291.446-.457.722-.82.961a.814.814 0 0 1-.81.059c-.225-.113-.415-.296-.612-.467-2.271-1.979-3.752-4.545-5.266-7.086-.36-.606-1.091-1.97-1.52-2.703 1.882-.514 2.74-.943 2.74-.943 1.652 2.974 3.573 6.451 6.063 8.747.397.366.858.462.225 1.432M200.594 119.562c-.485-.785-1.348-2.109-1.831-2.87-1.226-1.936-2.645-3.696-4.504-5.08-1.006-.75-.741-1.94.478-2.632.222-.126.508-.157.725-.023 3.589 2.228 5.662 5.678 7.843 9.874-1.32.182-2.711.73-2.711.73M197.227 121.53c3.32-1.573 9.11-2.825 11.524-2.07a.816.816 0 0 1 .555.613c.096.465.007.947-.086 1.419-.09.456-.45.743-.9.708-3.127-.238-6.587.692-9.495 1.723-.623-.63-1.598-2.393-1.598-2.393M197.595 116.398c-3.634 1.313-7.668 2.989-11.299 2.793a.815.815 0 0 1-.708-.479c-.164-.378-.161-.705-.167-1.027-.02-1.123.193-1.372 1.309-1.392 2.62-.049 5.068-.823 7.49-1.721.367-.136 1.09-.39 1.487-.531.915.64 1.888 2.357 1.888 2.357M189.45 123.157c.948-.12 2.354-.155 3.32-.313.44.807 1.526 2.49 1.526 2.49-1.352.332-3.481.783-4.803.656a.809.809 0 0 1-.685-.563c-.187-.586-.215-1.145-.022-1.729a.805.805 0 0 1 .664-.541M200.569 112.768c1.742-.344 3.585-.408 4.772-.243a.798.798 0 0 1 .666.615c.135.612.085 1.159-.146 1.693a.832.832 0 0 1-.636.497c-.828.126-2.166-.028-2.985.023 0 0-.864-1.506-1.671-2.585M206.467 122.996c1.657 1.452 2.276 1.965.161 3.396-.248.168-.51.074-.76-.09-.803-.527-2.034-1.991-2.713-2.806 1.989-.521 3.312-.5 3.312-.5M188.511 115.475c-.427-.31-1.28-.783-1.604-1.187a.777.777 0 0 1-.147-.655c.132-.576.455-1.021.905-1.423a.813.813 0 0 1 .9-.122c.887.44 2.304 1.747 3.058 2.49-1.75.73-3.112.897-3.112.897"/></g><g><path d="M203.464 176.053c8.61-4.971 11.56-15.98 6.589-24.589-4.971-8.61-15.98-11.559-24.589-6.588-8.61 4.97-11.559 15.979-6.588 24.588 4.97 8.61 15.979 11.56 24.588 6.589zm-.5-.866c8.131-4.695 10.917-15.092 6.223-23.223-4.695-8.13-15.092-10.917-23.223-6.222-8.13 4.694-10.917 15.091-6.222 23.222 4.694 8.131 15.091 10.917 23.222 6.223z"/><path d="M203.798 163.96c.154.51.258.814.21 1.246a.814.814 0 0 1-.477.658c-.23.1-.494.128-.751.169-2.975.468-5.893-.047-8.813-.52-.696-.114-2.21-.43-3.048-.573.817-1.773 1.04-2.706 1.04-2.706 3.34.646 7.238 1.41 10.597.978.536-.069.906-.36 1.242.748M196.856 158.29c-.912-.133-2.482-.322-3.375-.442-2.271-.305-4.531-.35-6.787.184-1.221.29-1.962-.678-1.709-2.057.047-.251.207-.49.449-.57 4.013-1.318 7.99-.688 12.605.339-.71 1.128-1.183 2.546-1.183 2.546M196.2 162.134c.929-3.554 3.69-8.794 5.822-10.158a.816.816 0 0 1 .826-.032c.418.226.73.604 1.031.979.292.362.28.821-.035 1.145-2.193 2.242-3.704 5.49-4.784 8.38-.883.073-2.86-.314-2.86-.314M192.505 158.554c-1.33 3.627-2.64 7.794-5.123 10.45a.815.815 0 0 1-.822.235c-.396-.117-.644-.33-.894-.532-.873-.707-.928-1.03-.226-1.898 1.648-2.039 2.628-4.411 3.497-6.844.132-.369.4-1.085.549-1.48 1.079-.29 3.02.069 3.02.069M192.447 169.138c.518-.803 1.395-1.903 1.894-2.745.901.182 2.89.432 2.89.432-.616 1.25-1.64 3.17-2.586 4.1a.809.809 0 0 1-.872.164c-.569-.233-1.015-.572-1.338-1.094a.805.805 0 0 1 .012-.857M191.636 153.942c.856-1.556 1.992-3.009 2.881-3.812a.798.798 0 0 1 .9-.115c.555.29.941.68 1.202 1.2a.832.832 0 0 1-.028.807c-.436.715-1.413 1.641-1.9 2.302 0 0-1.71-.306-3.055-.382M203.263 155.998c2.176-.336 2.967-.48 2.704 2.06-.03.298-.271.439-.558.525-.92.276-2.832.277-3.893.274.88-1.859 1.747-2.859 1.747-2.859M185.959 164.919c-.512.128-1.423.477-1.94.465a.777.777 0 0 1-.597-.308c-.356-.472-.49-1.004-.508-1.608a.813.813 0 0 1 .485-.767c.907-.397 2.82-.642 3.873-.743-.565 1.81-1.313 2.96-1.313 2.96"/></g><g><path d="M263.464 158.053c8.61-4.971 11.56-15.98 6.589-24.589-4.971-8.61-15.98-11.559-24.589-6.588-8.61 4.97-11.559 15.979-6.588 24.588 4.97 8.61 15.979 11.56 24.588 6.589zm-.5-.866c8.131-4.695 10.917-15.092 6.223-23.223-4.695-8.13-15.092-10.917-23.223-6.222-8.13 4.694-10.917 15.091-6.222 23.222 4.694 8.131 15.091 10.917 23.222 6.223z"/><path d="M263.798 145.96c.154.51.258.814.21 1.246a.814.814 0 0 1-.477.658c-.23.1-.494.128-.751.169-2.975.468-5.893-.047-8.813-.52-.696-.114-2.21-.43-3.048-.573.817-1.773 1.04-2.706 1.04-2.706 3.34.646 7.238 1.41 10.597.978.536-.069.906-.36 1.242.748M256.856 140.29c-.912-.133-2.482-.322-3.375-.442-2.271-.305-4.531-.35-6.787.184-1.221.29-1.962-.678-1.709-2.057.047-.251.207-.49.449-.57 4.013-1.318 7.99-.688 12.605.339-.71 1.128-1.183 2.546-1.183 2.546M256.2 144.134c.929-3.554 3.69-8.794 5.822-10.158a.816.816 0 0 1 .826-.032c.418.226.73.604 1.031.979.292.362.28.821-.035 1.145-2.193 2.242-3.704 5.49-4.784 8.38-.883.073-2.86-.314-2.86-.314M252.505 140.554c-1.33 3.627-2.64 7.794-5.123 10.45a.815.815 0 0 1-.822.235c-.396-.117-.644-.33-.894-.532-.873-.707-.928-1.03-.226-1.898 1.648-2.039 2.628-4.411 3.497-6.844.132-.369.4-1.085.549-1.48 1.079-.29 3.02.069 3.02.069M252.447 151.138c.518-.803 1.395-1.903 1.894-2.745.901.182 2.89.432 2.89.432-.616 1.25-1.64 3.17-2.586 4.1a.809.809 0 0 1-.872.164c-.569-.233-1.015-.572-1.338-1.094a.805.805 0 0 1 .012-.857M251.636 135.942c.856-1.556 1.992-3.009 2.881-3.812a.798.798 0 0 1 .9-.115c.555.29.941.68 1.202 1.2a.832.832 0 0 1-.028.807c-.436.715-1.413 1.641-1.9 2.302 0 0-1.71-.306-3.055-.382M263.263 137.998c2.176-.336 2.967-.48 2.704 2.06-.03.298-.271.439-.558.525-.92.276-2.832.277-3.893.274.88-1.859 1.747-2.859 1.747-2.859M245.959 146.919c-.512.128-1.423.477-1.94.465a.777.777 0 0 1-.597-.308c-.356-.472-.49-1.004-.508-1.608a.813.813 0 0 1 .485-.767c.907-.397 2.82-.642 3.873-.743-.565 1.81-1.313 2.96-1.313 2.96"/></g><g><path d="M289.718 157.206c6.39 7.615 17.744 8.608 25.36 2.218 7.614-6.39 8.608-17.744 2.218-25.359-6.39-7.615-17.744-8.609-25.36-2.218-7.615 6.39-8.608 17.743-2.218 25.359zm.766-.643c6.035 7.192 16.758 8.13 23.95 2.095 7.193-6.035 8.13-16.758 2.096-23.95-6.035-7.192-16.758-8.13-23.95-2.095-7.193 6.035-8.13 16.757-2.096 23.95z"/><path d="M301.685 155.434c-.475.24-.757.396-1.19.423a.814.814 0 0 1-.732-.355c-.138-.21-.211-.464-.296-.71-.978-2.85-.977-5.812-1.018-8.77-.01-.704.04-2.25.034-3.1 1.888.496 2.846.553 2.846.553-.057 3.401-.132 7.373.877 10.607.16.515.512.829-.521 1.352M306.063 147.613c-.027-.92-.113-2.5-.15-3.4-.094-2.29-.443-4.523-1.36-6.652-.497-1.152.327-2.05 1.73-2.04.254.002.518.118.638.343 1.995 3.723 2.065 7.748 1.855 12.473-1.234-.503-2.713-.724-2.713-.724M302.164 147.634c3.66.298 9.301 2.109 11.015 3.97.2.218.267.528.174.809-.15.45-.468.822-.784 1.185-.306.35-.76.419-1.134.164-2.59-1.77-6.05-2.695-9.084-3.256-.225-.857-.187-2.872-.187-2.872M305.048 143.374c-3.803-.68-8.135-1.246-11.18-3.23a.815.815 0 0 1-.375-.769c.047-.41.213-.692.369-.973.544-.982.853-1.092 1.83-.552 2.293 1.269 4.8 1.822 7.347 2.255.386.066 1.138.207 1.553.284.472 1.012.456 2.985.456 2.985M294.615 145.155c.88.37 2.116 1.043 3.032 1.389-.023.919.076 2.92.076 2.92-1.337-.39-3.406-1.063-4.487-1.834a.809.809 0 0 1-.312-.83c.13-.6.386-1.099.845-1.508a.805.805 0 0 1 .846-.137M309.439 141.717c1.681.574 3.309 1.44 4.254 2.176.26.203.369.551.27.866-.19.597-.506 1.046-.974 1.393a.832.832 0 0 1-.799.112c-.78-.305-1.861-1.107-2.597-1.472 0 0 .005-1.736-.154-3.075M309.433 153.525c.709 2.085.988 2.839-1.559 3.021-.299.021-.48-.191-.614-.459-.431-.857-.765-2.74-.946-3.786 1.984.543 3.119 1.224 3.119 1.224M297.643 138.033c-.215-.482-.718-1.319-.795-1.83a.777.777 0 0 1 .2-.641c.402-.433.904-.657 1.495-.78a.813.813 0 0 1 .84.344c.548.825 1.122 2.666 1.404 3.686-1.88-.243-3.144-.78-3.144-.78"/></g><g><path d="M353.424 111.077c6.39-7.615 5.397-18.969-2.218-25.359-7.616-6.39-18.97-5.397-25.36 2.219-6.39 7.615-5.396 18.969 2.22 25.359 7.614 6.39 18.968 5.396 25.358-2.219zm-.766-.643c6.035-7.192 5.097-17.915-2.095-23.95-7.193-6.035-17.915-5.097-23.95 2.096-6.035 7.192-5.097 17.915 2.095 23.95s17.915 5.097 23.95-2.096z"/><path d="M349.602 99.6c.32.426.521.677.623 1.099a.814.814 0 0 1-.223.781c-.182.173-.42.29-.648.415-2.636 1.458-5.553 1.972-8.459 2.526-.693.132-2.224.351-3.06.504.161-1.945.051-2.898.051-2.898 3.36-.535 7.284-1.15 10.293-2.706.48-.247.728-.648 1.423.279M341.14 96.646c-.903.187-2.443.546-3.324.739-2.238.49-4.377 1.221-6.314 2.494-1.048.69-2.076.034-2.31-1.349-.042-.251.027-.531.227-.689 3.32-2.61 7.273-3.379 11.961-3.993-.28 1.304-.24 2.798-.24 2.798M341.837 100.483c-.342-3.657.461-9.526 1.997-11.537a.816.816 0 0 1 .766-.313c.47.07.891.319 1.304.567.398.24.544.676.357 1.088-1.293 2.857-1.602 6.426-1.628 9.512-.805.37-2.796.683-2.796.683M337.141 98.382c-.01 3.863.186 8.227-1.24 11.572a.815.815 0 0 1-.692.502c-.412.025-.718-.09-1.022-.194-1.062-.366-1.224-.65-.861-1.707.85-2.479.96-5.043.945-7.627-.003-.391.005-1.157.01-1.579.914-.64 2.86-.967 2.86-.967M340.706 108.347c.213-.931.66-2.265.842-3.227.908-.137 2.862-.582 2.862-.582-.151 1.384-.455 3.54-1.027 4.737a.809.809 0 0 1-.763.452c-.614-.024-1.15-.19-1.632-.57a.805.805 0 0 1-.282-.81M334.747 94.346c.272-1.756.843-3.51 1.404-4.568a.798.798 0 0 1 .805-.415c.621.082 1.118.316 1.541.716a.832.832 0 0 1 .25.768c-.165.82-.767 2.025-1 2.813 0 0-1.71.297-3 .686M346.376 92.301c1.93-1.06 2.624-1.466 3.246 1.01.073.291-.105.506-.345.685-.77.573-2.566 1.229-3.565 1.589.19-2.048.664-3.284.664-3.284M333.166 106.602c-.436.295-1.173.936-1.663 1.101a.777.777 0 0 1-.666-.086c-.496-.32-.804-.776-1.028-1.337a.813.813 0 0 1 .193-.886c.717-.684 2.43-1.568 3.386-2.023.088 1.894-.222 3.231-.222 3.231"/></g><g><path d="M369.706 148.725c9.082 4.043 19.722-.04 23.765-9.123 4.043-9.081-.04-19.721-9.123-23.765-9.081-4.043-19.721.041-23.765 9.123-4.043 9.082.041 19.722 9.123 23.765zm.407-.914c8.577 3.82 18.626-.038 22.445-8.615 3.818-8.577-.04-18.626-8.616-22.445-8.577-3.819-18.626.038-22.445 8.616-3.819 8.577.039 18.626 8.616 22.444z"/><path d="M379.685 141.887c-.321.425-.507.688-.884.902a.814.814 0 0 1-.813.002c-.216-.129-.394-.325-.578-.51-2.128-2.13-3.426-4.794-4.759-7.435-.318-.63-.951-2.04-1.329-2.802 1.915-.381 2.801-.75 2.801-.75 1.44 3.082 3.114 6.685 5.438 9.15.37.392.823.52.124 1.443M380.192 132.938c-.428-.816-1.198-2.197-1.626-2.99-1.088-2.017-2.38-3.871-4.138-5.382-.952-.818-.605-1.987.66-2.592.23-.11.518-.122.724.028 3.425 2.472 5.253 6.059 7.136 10.397-1.33.09-2.756.54-2.756.54M376.696 134.667c3.421-1.337 9.284-2.183 11.64-1.26a.816.816 0 0 1 .512.65c.063.47-.06.944-.186 1.409-.12.449-.5.71-.947.644-3.103-.456-6.618.23-9.592 1.055-.578-.67-1.427-2.498-1.427-2.498M377.421 129.573c-3.716 1.056-7.857 2.447-11.465 1.998a.815.815 0 0 1-.674-.527c-.137-.389-.111-.715-.095-1.036.06-1.122.288-1.355 1.403-1.298 2.618.135 5.113-.467 7.592-1.194.376-.11 1.114-.314 1.52-.426.869.703 1.72 2.483 1.72 2.483M368.824 135.747c.954-.052 2.36.01 3.335-.08.382.835 1.348 2.59 1.348 2.59-1.372.237-3.527.539-4.837.32a.809.809 0 0 1-.645-.61c-.145-.597-.134-1.157.1-1.726a.805.805 0 0 1 .7-.494M380.641 126.16c1.762-.223 3.605-.158 4.778.09a.798.798 0 0 1 .621.66c.092.62.004 1.162-.264 1.678a.832.832 0 0 1-.669.452c-.835.067-2.158-.18-2.98-.185 0 0-.756-1.563-1.486-2.696M385.812 136.775c1.55 1.563 2.133 2.118-.077 3.398-.259.15-.514.038-.752-.143-.764-.582-1.89-2.128-2.51-2.989 2.02-.38 3.339-.266 3.339-.266M368.424 128.018c-.404-.338-1.223-.87-1.517-1.295a.777.777 0 0 1-.101-.664c.172-.566.524-.987 1.002-1.356a.813.813 0 0 1 .905-.06c.855.501 2.177 1.904 2.878 2.698-1.796.606-3.167.677-3.167.677"/></g><g><path d="M420.706 124.725c9.082 4.043 19.722-.04 23.765-9.123 4.043-9.081-.04-19.721-9.123-23.765-9.081-4.043-19.721.041-23.765 9.123-4.043 9.082.041 19.722 9.123 23.765zm.407-.914c8.577 3.82 18.626-.038 22.445-8.615 3.818-8.577-.04-18.626-8.616-22.445-8.577-3.819-18.626.038-22.445 8.616-3.819 8.577.039 18.626 8.616 22.444z"/><path d="M430.685 117.887c-.321.425-.507.688-.884.902a.814.814 0 0 1-.813.002c-.216-.129-.394-.325-.578-.51-2.128-2.13-3.426-4.794-4.759-7.435-.318-.63-.951-2.04-1.329-2.802 1.915-.381 2.801-.75 2.801-.75 1.44 3.082 3.114 6.685 5.438 9.15.37.392.823.52.124 1.443M431.192 108.938c-.428-.816-1.198-2.197-1.626-2.99-1.088-2.017-2.38-3.871-4.138-5.382-.952-.818-.605-1.987.66-2.592.23-.11.518-.122.724.028 3.425 2.472 5.253 6.059 7.136 10.397-1.33.09-2.756.54-2.756.54M427.696 110.667c3.421-1.337 9.284-2.183 11.64-1.26a.816.816 0 0 1 .512.65c.063.47-.06.944-.186 1.409-.12.449-.5.71-.947.644-3.103-.456-6.618.23-9.592 1.055-.578-.67-1.427-2.498-1.427-2.498M428.421 105.573c-3.716 1.056-7.857 2.447-11.465 1.998a.815.815 0 0 1-.674-.527c-.137-.389-.111-.715-.095-1.036.06-1.122.288-1.355 1.403-1.298 2.618.135 5.113-.467 7.592-1.194.376-.11 1.114-.314 1.52-.426.869.703 1.72 2.483 1.72 2.483M419.824 111.747c.954-.052 2.36.01 3.335-.08.382.835 1.348 2.59 1.348 2.59-1.372.237-3.527.539-4.837.32a.809.809 0 0 1-.645-.61c-.145-.597-.134-1.157.1-1.726a.805.805 0 0 1 .7-.494M431.641 102.16c1.762-.223 3.605-.158 4.778.09a.798.798 0 0 1 .621.66c.092.62.004 1.162-.264 1.678a.832.832 0 0 1-.669.452c-.835.067-2.158-.18-2.98-.185 0 0-.756-1.563-1.486-2.696M436.812 112.775c1.55 1.563 2.133 2.118-.077 3.398-.259.15-.514.038-.752-.143-.764-.582-1.89-2.128-2.51-2.989 2.02-.38 3.339-.266 3.339-.266M419.424 104.018c-.404-.338-1.223-.87-1.517-1.295a.777.777 0 0 1-.101-.664c.172-.566.524-.987 1.002-1.356a.813.813 0 0 1 .905-.06c.855.501 2.177 1.904 2.878 2.698-1.796.606-3.167.677-3.167.677"/></g><g><path d="M400.98 168.24c4.358 8.934 15.134 12.645 24.069 8.287 8.935-4.358 12.646-15.134 8.288-24.069-4.358-8.935-15.134-12.646-24.07-8.288-8.934 4.358-12.645 15.134-8.287 24.07zm.899-.439c4.116 8.439 14.293 11.943 22.732 7.827 8.438-4.116 11.943-14.293 7.827-22.732-4.116-8.438-14.293-11.943-22.732-7.827s-11.943 14.293-7.827 22.732z"/><path d="M413.02 169.416c-.52.118-.83.201-1.257.122a.814.814 0 0 1-.624-.521c-.083-.237-.093-.502-.116-.761-.26-3.001.458-5.875 1.134-8.755.161-.687.583-2.175.784-3.001 1.711.939 2.627 1.226 2.627 1.226-.878 3.286-1.912 7.122-1.715 10.504.03.538.296.928-.833 1.186M419.16 162.886c.197-.9.495-2.453.677-3.336.463-2.244.664-4.495.29-6.782-.204-1.24.813-1.91 2.171-1.562.247.064.475.24.537.487 1.035 4.096.13 8.018-1.217 12.551-1.077-.786-2.458-1.358-2.458-1.358M415.371 161.963c3.48 1.175 8.515 4.296 9.728 6.517a.816.816 0 0 1-.026.827c-.254.4-.654.685-1.049.96-.381.266-.838.223-1.14-.116-2.083-2.343-5.217-4.077-8.026-5.356-.01-.886.513-2.832.513-2.832M419.2 158.528c-3.525-1.58-7.59-3.177-10.067-5.84a.815.815 0 0 1-.177-.836c.145-.387.374-.62.594-.855.766-.822 1.091-.853 1.909-.093 1.918 1.786 4.216 2.93 6.583 3.966.358.157 1.055.475 1.439.65.213 1.097-.28 3.008-.28 3.008M408.647 157.73c.764.574 1.8 1.526 2.606 2.082-.245.887-.633 2.852-.633 2.852-1.203-.7-3.048-1.855-3.91-2.865a.809.809 0 0 1-.102-.88c.272-.552.64-.973 1.185-1.26a.805.805 0 0 1 .854.072M423.862 157.982c1.492.963 2.862 2.197 3.601 3.14.204.26.225.624.052.905-.327.534-.744.893-1.28 1.117a.832.832 0 0 1-.804-.085c-.683-.484-1.538-1.524-2.163-2.056 0 0 .424-1.684.594-3.021M421 169.438c.183 2.194.272 2.993-2.244 2.554-.295-.052-.418-.302-.484-.594-.211-.936-.08-2.844-.002-3.903 1.793 1.007 2.73 1.943 2.73 1.943M413.308 151.553c-.092-.519-.377-1.453-.33-1.968a.777.777 0 0 1 .35-.573c.495-.323 1.036-.419 1.64-.395.329.013.62.227.73.537.334.933.445 2.858.471 3.916-1.765-.69-2.861-1.517-2.861-1.517"/></g><g><path d="M489.167 140.447c8.043-5.843 9.826-17.1 3.983-25.142-5.844-8.043-17.1-9.826-25.143-3.982-8.042 5.843-9.825 17.1-3.982 25.142 5.843 8.043 17.1 9.825 25.142 3.982zm-.587-.809c7.595-5.518 9.28-16.15 3.76-23.745-5.518-7.596-16.15-9.28-23.745-3.761-7.596 5.518-9.28 16.15-3.761 23.745 5.519 7.596 16.15 9.28 23.746 3.761z"/><path d="M488.235 128.386c.207.49.343.783.339 1.217a.814.814 0 0 1-.405.705c-.22.123-.478.178-.73.246-2.91.777-5.865.569-8.818.403-.704-.04-2.243-.196-3.092-.25.627-1.849.752-2.8.752-2.8 3.388.294 7.346.646 10.641-.135.526-.124.863-.453 1.313.614M480.739 123.473c-.921-.037-2.502-.062-3.403-.088-2.29-.065-4.543.127-6.73.893-1.185.416-2.023-.47-1.915-1.867.02-.254.154-.51.386-.614 3.854-1.73 7.874-1.52 12.572-.98-.587 1.196-.91 2.656-.91 2.656M480.487 127.364c.553-3.631 2.753-9.131 4.73-10.711a.816.816 0 0 1 .818-.118c.439.18.788.525 1.128.866.328.33.364.787.084 1.142-1.946 2.46-3.11 5.847-3.882 8.835-.87.165-2.878-.014-2.878-.014M476.44 124.19c-.944 3.746-1.811 8.028-4.004 10.928a.815.815 0 0 1-.792.32c-.406-.075-.676-.261-.945-.436-.942-.612-1.03-.927-.423-1.864 1.425-2.2 2.152-4.661 2.762-7.172.093-.38.285-1.121.391-1.53 1.043-.4 3.01-.246 3.01-.246M477.487 134.722c.432-.853 1.189-2.038 1.598-2.928.915.087 2.918.128 2.918.128-.482 1.306-1.298 3.324-2.142 4.348a.809.809 0 0 1-.85.254c-.59-.173-1.07-.463-1.446-.949a.805.805 0 0 1-.078-.853M475.092 119.694c.69-1.637 1.667-3.2 2.468-4.092a.798.798 0 0 1 .882-.208c.583.23 1.008.577 1.322 1.068.155.242.179.545.056.805-.359.757-1.234 1.78-1.65 2.488 0 0-1.731-.126-3.078-.06M486.871 120.524c2.13-.562 2.9-.788 2.905 1.766 0 .299-.224.464-.5.58-.886.37-2.788.572-3.844.68.68-1.941 1.439-3.026 1.439-3.026M470.594 131.204c-.495.181-1.365.624-1.88.666a.777.777 0 0 1-.626-.244c-.404-.432-.592-.948-.674-1.546a.813.813 0 0 1 .402-.814c.86-.49 2.737-.933 3.775-1.143-.373 1.858-.997 3.081-.997 3.081"/></g><g><path d="M549.167 149.447c8.043-5.843 9.826-17.1 3.983-25.142-5.844-8.043-17.1-9.826-25.143-3.982-8.042 5.843-9.825 17.1-3.982 25.142 5.843 8.043 17.1 9.825 25.142 3.982zm-.587-.809c7.595-5.518 9.28-16.15 3.76-23.745-5.518-7.596-16.15-9.28-23.745-3.761-7.596 5.518-9.28 16.15-3.761 23.745 5.519 7.596 16.15 9.28 23.746 3.761z"/><path d="M548.235 137.386c.207.49.343.783.339 1.217a.814.814 0 0 1-.405.705c-.22.123-.478.178-.73.246-2.91.777-5.865.569-8.818.403-.704-.04-2.243-.196-3.092-.25.627-1.849.752-2.8.752-2.8 3.388.294 7.346.646 10.641-.135.526-.124.863-.453 1.313.614M540.739 132.473c-.921-.037-2.502-.062-3.403-.088-2.29-.065-4.543.127-6.73.893-1.185.416-2.023-.47-1.915-1.867.02-.254.154-.51.386-.614 3.854-1.73 7.874-1.52 12.572-.98-.587 1.196-.91 2.656-.91 2.656M540.487 136.364c.553-3.631 2.753-9.131 4.73-10.711a.816.816 0 0 1 .818-.118c.439.18.788.525 1.128.866.328.33.364.787.084 1.142-1.946 2.46-3.11 5.847-3.882 8.835-.87.165-2.878-.014-2.878-.014M536.44 133.19c-.944 3.746-1.811 8.028-4.004 10.928a.815.815 0 0 1-.792.32c-.406-.075-.676-.261-.945-.436-.942-.612-1.03-.927-.423-1.864 1.425-2.2 2.152-4.661 2.762-7.172.093-.38.285-1.121.391-1.53 1.043-.4 3.01-.246 3.01-.246M537.487 143.722c.432-.853 1.189-2.038 1.598-2.928.915.087 2.918.128 2.918.128-.482 1.306-1.298 3.324-2.142 4.348a.809.809 0 0 1-.85.254c-.59-.173-1.07-.463-1.446-.949a.805.805 0 0 1-.078-.853M535.092 128.694c.69-1.637 1.667-3.2 2.468-4.092a.798.798 0 0 1 .882-.208c.583.23 1.008.577 1.322 1.068.155.242.179.545.056.805-.359.757-1.234 1.78-1.65 2.488 0 0-1.731-.126-3.078-.06M546.871 129.524c2.13-.562 2.9-.788 2.905 1.766 0 .299-.224.464-.5.58-.886.37-2.788.572-3.844.68.68-1.941 1.439-3.026 1.439-3.026M530.594 140.204c-.495.181-1.365.624-1.88.666a.777.777 0 0 1-.626-.244c-.404-.432-.592-.948-.674-1.546a.813.813 0 0 1 .402-.814c.86-.49 2.737-.933 3.775-1.143-.373 1.858-.997 3.081-.997 3.081"/></g></g></svg>