<svg xmlns="http://www.w3.org/2000/svg" viewBox="0 0 605 180"><title>full-color-appveyor</title><g fill-rule="evenodd"><path d="M49.777 37.43a17.953 17.953 0 0 0 9.074-11.307C61.424 16.52 55.725 6.65 46.123 4.077 36.52 1.504 26.65 7.203 24.077 16.805A17.952 17.952 0 0 0 26.261 31.1l6.801-12.864a9.001 9.001 0 0 1 17.301 4.577l.01.003-.596 14.614zm-4.76 1.684c-2.638.533-5.436.48-8.212-.263a17.926 17.926 0 0 1-7.243-3.878l3.106-11.593a9 9 0 0 0 6.467 6.777 9 9 0 0 0 8.988-2.636l-3.106 11.593zm2.243-16.097a6 6 0 1 0-11.591-3.106 6 6 0 0 0 11.59 3.106z"/><path d="M50.464 37.053c8.61-4.971 11.56-15.98 6.589-24.589-4.971-8.61-15.98-11.559-24.589-6.588-8.61 4.97-11.559 15.979-6.588 24.588 4.97 8.61 15.979 11.56 24.588 6.589zm-1-1.732c7.653-4.419 10.275-14.204 5.857-21.857C50.902 5.811 41.117 3.19 33.464 7.608c-7.653 4.418-10.275 14.203-5.856 21.856 4.418 7.653 14.203 10.275 21.856 5.857zM74.35 72.208a17.953 17.953 0 0 0 14.219-2.83c8.143-5.701 10.122-16.925 4.42-25.069-5.702-8.143-16.925-10.122-25.069-4.42a17.952 17.952 0 0 0-7.516 12.354l13.48-5.483a9.001 9.001 0 0 1 10.31 14.628l.006.008-9.85 10.812zm-4.729-1.77a17.926 17.926 0 0 1-6.121-5.48 17.926 17.926 0 0 1-3.056-7.626l9.831-6.884a9 9 0 0 0 .597 9.348 9 9 0 0 0 8.58 3.758l-9.83 6.884zm12.065-10.89a6 6 0 1 0-6.883-9.83 6 6 0 0 0 6.883 9.83z"/><path d="M75.119 72.36c9.79 1.727 19.126-4.81 20.852-14.6 1.726-9.79-4.81-19.126-14.6-20.853-9.79-1.726-19.127 4.811-20.853 14.601-1.726 9.79 4.81 19.126 14.601 20.852zm.347-1.97c8.703 1.535 17.001-4.275 18.536-12.978 1.534-8.702-4.277-17-12.979-18.535-8.702-1.535-17 4.276-18.535 12.978-1.535 8.703 4.276 17.001 12.978 18.536zM139.777 46.43a17.953 17.953 0 0 0 9.074-11.307c2.573-9.603-3.126-19.473-12.728-22.046-9.603-2.573-19.473 3.126-22.046 12.728a17.952 17.952 0 0 0 2.184 14.295l6.801-12.864a9.001 9.001 0 0 1 17.301 4.577l.01.003-.596 14.614zm-4.76 1.684c-2.638.533-5.436.48-8.212-.263a17.926 17.926 0 0 1-7.243-3.878l3.106-11.593a9 9 0 0 0 6.467 6.777 9 9 0 0 0 8.988-2.636l-3.106 11.593zm2.243-16.097a6 6 0 1 0-11.591-3.106 6 6 0 0 0 11.59 3.106z"/><path d="M140.464 46.053c8.61-4.971 11.56-15.98 6.589-24.589-4.971-8.61-15.98-11.559-24.589-6.588-8.61 4.97-11.559 15.979-6.588 24.588 4.97 8.61 15.979 11.56 24.588 6.589zm-1-1.732c7.653-4.419 10.275-14.204 5.857-21.857-4.419-7.653-14.204-10.275-21.857-5.856-7.653 4.418-10.275 14.203-5.856 21.856 4.418 7.653 14.203 10.275 21.856 5.857zM191.504 51.757a17.953 17.953 0 0 0 14.494-.317c9.01-4.2 12.908-14.91 8.706-23.92-4.201-9.01-14.91-12.908-23.92-8.707a17.952 17.952 0 0 0-9.548 10.861l14.227-3.058a9.001 9.001 0 0 1 7.614 16.195l.005.01-11.578 8.936zm-4.35-2.563a17.926 17.926 0 0 1-5.077-6.46 17.926 17.926 0 0 1-1.685-8.041l10.877-5.072a9 9 0 0 0-1.035 9.31 9 9 0 0 0 7.797 5.19l-10.877 5.073zm13.772-8.63a6 6 0 1 0-5.071-10.875 6 6 0 0 0 5.071 10.876z"/><path d="M192.234 52.041c9.342 3.4 19.671-1.416 23.071-10.758 3.4-9.341-1.416-19.67-10.758-23.07-9.342-3.4-19.67 1.416-23.07 10.757-3.4 9.342 1.416 19.671 10.757 23.071zm.684-1.88c8.304 3.023 17.485-1.258 20.508-9.562 3.022-8.303-1.26-17.485-9.563-20.507-8.304-3.023-17.485 1.259-20.507 9.563-3.023 8.303 1.259 17.485 9.562 20.507zM270.777 43.43a17.953 17.953 0 0 0 9.074-11.307c2.573-9.603-3.126-19.473-12.728-22.046-9.603-2.573-19.473 3.126-22.046 12.728a17.952 17.952 0 0 0 2.184 14.295l6.801-12.864a9.001 9.001 0 0 1 17.301 4.577l.01.003-.596 14.614zm-4.76 1.684c-2.638.533-5.436.48-8.212-.263a17.926 17.926 0 0 1-7.243-3.878l3.106-11.593a9 9 0 0 0 6.467 6.777 9 9 0 0 0 8.988-2.636l-3.106 11.593zm2.243-16.097a6 6 0 1 0-11.591-3.106 6 6 0 0 0 11.59 3.106z"/><path d="M271.464 43.053c8.61-4.971 11.56-15.98 6.589-24.589-4.971-8.61-15.98-11.559-24.589-6.588-8.61 4.97-11.559 15.979-6.588 24.588 4.97 8.61 15.979 11.56 24.588 6.589zm-1-1.732c7.653-4.419 10.275-14.204 5.857-21.857-4.419-7.653-14.204-10.275-21.857-5.856-7.653 4.418-10.275 14.203-5.856 21.856 4.418 7.653 14.203 10.275 21.856 5.857zM345.435 51.5a17.953 17.953 0 0 0 14.288 2.454c9.646-2.405 15.516-12.174 13.11-21.82-2.404-9.646-12.173-15.515-21.82-13.11a17.952 17.952 0 0 0-11.443 8.84l14.549-.289a9.001 9.001 0 0 1 4.384 17.351l.002.01-13.07 6.564zm-3.781-3.347a17.926 17.926 0 0 1-3.75-7.31 17.926 17.926 0 0 1-.12-8.215l11.645-2.903a9 9 0 0 0-2.793 8.941 9 9 0 0 0 6.663 6.584l-11.645 2.903zm15.166-5.842a6 6 0 1 0-2.903-11.644 6 6 0 0 0 2.903 11.644z"/><path d="M346.098 51.918c8.521 5.12 19.58 2.363 24.7-6.158 5.12-8.522 2.362-19.58-6.159-24.7-8.521-5.12-19.58-2.363-24.7 6.158-5.12 8.521-2.362 19.58 6.159 24.7zm1.03-1.715c7.574 4.552 17.404 2.1 21.955-5.474 4.551-7.574 2.1-17.404-5.474-21.955-7.574-4.551-17.404-2.1-21.955 5.474-4.551 7.575-2.1 17.404 5.474 21.955zM441.048 47.957a17.953 17.953 0 0 0 5.605-13.37c-.173-9.94-8.372-17.856-18.311-17.683-9.94.174-17.857 8.372-17.683 18.311a17.952 17.952 0 0 0 6.039 13.14l2.992-14.24a9.001 9.001 0 0 1 17.892-.37h.01l3.456 14.212zm-4.112 2.931a17.926 17.926 0 0 1-7.966 2.01 17.926 17.926 0 0 1-8.031-1.73l-.21-12a9 9 0 0 0 8.084 4.732 9 9 0 0 0 7.914-5.012l.21 12zm-2.28-16.091a6 6 0 1 0-12 .209 6 6 0 0 0 12-.21z"/><path d="M441.604 47.405c6.906-7.15 6.707-18.546-.444-25.452-7.151-6.906-18.546-6.707-25.452.444-6.906 7.151-6.707 18.547.444 25.452 7.151 6.906 18.546 6.707 25.452-.444zm-1.439-1.39c6.139-6.356 5.962-16.485-.394-22.623-6.357-6.139-16.486-5.962-22.624.395-6.139 6.356-5.962 16.485.394 22.624 6.357 6.138 16.486 5.961 22.624-.395zM518.523 40.894a17.953 17.953 0 0 0 7.843-12.193c1.555-9.819-5.144-19.04-14.963-20.594-9.819-1.556-19.039 5.143-20.594 14.962a17.952 17.952 0 0 0 3.665 13.989l5.42-13.505a9.001 9.001 0 0 1 17.685 2.744l.01.001.934 14.596zm-4.557 2.173a17.926 17.926 0 0 1-8.195.596 17.926 17.926 0 0 1-7.608-3.1l1.877-11.853a9 9 0 0 0 7.14 6.064 9 9 0 0 0 8.663-3.561l-1.877 11.854zm.547-16.243a6 6 0 1 0-11.852-1.878 6 6 0 0 0 11.852 1.878z"/><path d="M519.167 40.447c8.043-5.843 9.826-17.1 3.983-25.142-5.844-8.043-17.1-9.826-25.143-3.982-8.042 5.843-9.825 17.1-3.982 25.142 5.843 8.043 17.1 9.825 25.142 3.982zm-1.175-1.618c7.149-5.194 8.733-15.2 3.54-22.349-5.195-7.149-15.2-8.733-22.35-3.54-7.148 5.195-8.733 15.2-3.54 22.35 5.195 7.148 15.2 8.733 22.35 3.54zM543.374 65.023a17.953 17.953 0 0 0 14.14 3.2c9.758-1.898 16.132-11.346 14.235-21.105-1.897-9.758-11.346-16.131-21.104-14.234a17.952 17.952 0 0 0-11.891 8.228l14.544.474a9.001 9.001 0 0 1 3.47 17.557l.002.01-13.396 5.87zm-3.6-3.54a17.926 17.926 0 0 1-3.364-7.496 17.926 17.926 0 0 1 .31-8.21l11.782-2.29a9 9 0 0 0-3.257 8.783 9 9 0 0 0 6.31 6.923l-11.782 2.29zm15.45-5.04a6 6 0 1 0-2.29-11.78 6 6 0 0 0 2.29 11.78z"/><path d="M544.014 65.476c8.241 5.559 19.429 3.384 24.988-4.858 5.56-8.241 3.384-19.429-4.857-24.988-8.242-5.559-19.43-3.384-24.988 4.857-5.56 8.242-3.385 19.43 4.857 24.989zm1.118-1.658c7.326 4.94 17.27 3.008 22.212-4.318 4.941-7.326 3.008-17.27-4.318-22.212-7.325-4.941-17.27-3.008-22.211 4.318-4.942 7.326-3.009 17.27 4.317 22.212zM15.504 92.757a17.953 17.953 0 0 0 14.494-.317c9.01-4.2 12.908-14.91 8.706-23.92-4.201-9.01-14.91-12.908-23.92-8.707a17.952 17.952 0 0 0-9.548 10.861l14.227-3.058a9.001 9.001 0 0 1 7.614 16.195l.005.01-11.578 8.936zm-4.35-2.563a17.926 17.926 0 0 1-5.077-6.46 17.926 17.926 0 0 1-1.685-8.041l10.877-5.072a9 9 0 0 0-1.035 9.31 9 9 0 0 0 7.797 5.19l-10.877 5.073zm13.772-8.63a6 6 0 1 0-5.071-10.875 6 6 0 0 0 5.071 10.876z"/><path d="M16.234 93.041c9.342 3.4 19.671-1.416 23.071-10.758 3.4-9.341-1.416-19.67-10.758-23.07-9.342-3.4-19.67 1.416-23.07 10.757-3.4 9.342 1.416 19.671 10.757 23.071zm.684-1.88c8.304 3.023 17.485-1.258 20.508-9.562 3.022-8.303-1.26-17.485-9.563-20.507-8.304-3.023-17.485 1.259-20.507 9.563-3.023 8.303 1.259 17.485 9.562 20.507zM129.777 101.43a17.953 17.953 0 0 0 9.074-11.307c2.573-9.603-3.126-19.473-12.728-22.046-9.603-2.573-19.473 3.126-22.046 12.728a17.952 17.952 0 0 0 2.184 14.295l6.801-12.864a9.001 9.001 0 0 1 17.301 4.577l.01.003-.596 14.614zm-4.76 1.684c-2.638.533-5.436.48-8.212-.263a17.926 17.926 0 0 1-7.243-3.878l3.106-11.593a9 9 0 0 0 6.467 6.777 9 9 0 0 0 8.988-2.636l-3.106 11.593zm2.243-16.097a6 6 0 1 0-11.591-3.106 6 6 0 0 0 11.59 3.106z"/><path d="M130.464 101.053c8.61-4.971 11.56-15.98 6.589-24.589-4.971-8.61-15.98-11.559-24.589-6.588-8.61 4.97-11.559 15.979-6.588 24.588 4.97 8.61 15.979 11.56 24.588 6.589zm-1-1.732c7.653-4.419 10.275-14.204 5.857-21.857-4.419-7.653-14.204-10.275-21.857-5.856-7.653 4.418-10.275 14.203-5.856 21.856 4.418 7.653 14.203 10.275 21.856 5.857zM170.216 94.983a17.953 17.953 0 0 0 13.512-5.255c7.03-7.03 7.03-18.426 0-25.456-7.03-7.03-18.426-7.03-25.456 0a17.952 17.952 0 0 0-5.257 13.471l12.323-7.74a9.001 9.001 0 0 1 12.694 12.615l.007.007-7.823 12.358zm-4.964-.921a17.926 17.926 0 0 1-6.98-4.334 17.926 17.926 0 0 1-4.334-6.98l8.487-8.486a9 9 0 0 0 2.211 9.102 9 9 0 0 0 9.102 2.211l-8.486 8.487zm9.99-12.82a6 6 0 1 0-8.485-8.485 6 6 0 0 0 8.486 8.486z"/><path d="M171 95c9.941 0 18-8.059 18-18s-8.059-18-18-18-18 8.059-18 18 8.059 18 18 18zm0-2c8.837 0 16-7.163 16-16s-7.163-16-16-16-16 7.163-16 16 7.163 16 16 16zM242.777 91.43a17.953 17.953 0 0 0 9.074-11.307c2.573-9.603-3.126-19.473-12.728-22.046-9.603-2.573-19.473 3.126-22.046 12.728a17.952 17.952 0 0 0 2.184 14.295l6.801-12.864a9.001 9.001 0 0 1 17.301 4.577l.01.003-.596 14.614zm-4.76 1.684c-2.638.533-5.436.48-8.212-.263a17.926 17.926 0 0 1-7.243-3.878l3.106-11.593a9 9 0 0 0 6.467 6.777 9 9 0 0 0 8.988-2.636l-3.106 11.593zm2.243-16.097a6 6 0 1 0-11.591-3.106 6 6 0 0 0 11.59 3.106z"/><path d="M243.464 91.053c8.61-4.971 11.56-15.98 6.589-24.589-4.971-8.61-15.98-11.559-24.589-6.588-8.61 4.97-11.559 15.979-6.588 24.588 4.97 8.61 15.979 11.56 24.588 6.589zm-1-1.732c7.653-4.419 10.275-14.204 5.857-21.857-4.419-7.653-14.204-10.275-21.857-5.856-7.653 4.418-10.275 14.203-5.856 21.856 4.418 7.653 14.203 10.275 21.856 5.857zM283.985 119.09a17.953 17.953 0 0 0 12.394-7.521c5.702-8.143 3.722-19.367-4.42-25.07-8.144-5.701-19.368-3.722-25.07 4.421a17.952 17.952 0 0 0-2.838 14.18l10.792-9.762a9.001 9.001 0 0 1 14.692 10.218l.008.006-5.558 13.529zm-5.05-.045a17.926 17.926 0 0 1-7.626-3.056 17.926 17.926 0 0 1-5.48-6.12l6.884-9.832a9 9 0 0 0 3.759 8.58 9 9 0 0 0 9.348.597l-6.884 9.831zm7.614-14.359a6 6 0 1 0-9.83-6.883 6 6 0 0 0 9.83 6.883z"/><path d="M284.76 118.971c9.79-1.726 16.327-11.062 14.6-20.852-1.726-9.79-11.062-16.327-20.852-14.6-9.79 1.725-16.327 11.061-14.6 20.851 1.726 9.79 11.061 16.327 20.851 14.601zm-.348-1.97c8.703-1.534 14.513-9.832 12.979-18.535-1.535-8.702-9.833-14.513-18.536-12.978-8.702 1.534-14.513 9.833-12.978 18.535 1.534 8.702 9.833 14.513 18.535 12.979zM310.985 79.09a17.953 17.953 0 0 0 12.394-7.521c5.702-8.143 3.722-19.367-4.42-25.07-8.144-5.701-19.368-3.722-25.07 4.421a17.952 17.952 0 0 0-2.838 14.18l10.792-9.762a9.001 9.001 0 0 1 14.692 10.218l.008.006-5.558 13.529zm-5.05-.045a17.926 17.926 0 0 1-7.626-3.056 17.926 17.926 0 0 1-5.48-6.12l6.884-9.832a9 9 0 0 0 3.759 8.58 9 9 0 0 0 9.348.597l-6.884 9.831zm7.614-14.359a6 6 0 1 0-9.83-6.883 6 6 0 0 0 9.83 6.883z"/><path d="M311.76 78.971c9.79-1.726 16.327-11.062 14.6-20.852-1.726-9.79-11.062-16.327-20.852-14.6-9.79 1.725-16.327 11.061-14.6 20.851 1.726 9.79 11.061 16.327 20.851 14.601zm-.348-1.97c8.703-1.534 14.513-9.832 12.979-18.535-1.535-8.702-9.833-14.513-18.536-12.978-8.702 1.534-14.513 9.833-12.978 18.535 1.534 8.702 9.833 14.513 18.535 12.979zM395.523 88.894a17.953 17.953 0 0 0 7.843-12.193c1.555-9.819-5.144-19.04-14.963-20.594-9.819-1.556-19.039 5.143-20.594 14.962a17.952 17.952 0 0 0 3.665 13.989l5.42-13.505a9.001 9.001 0 0 1 17.685 2.744l.01.001.934 14.596zm-4.557 2.173a17.926 17.926 0 0 1-8.195.596 17.926 17.926 0 0 1-7.608-3.1l1.877-11.853a9 9 0 0 0 7.14 6.064 9 9 0 0 0 8.663-3.561l-1.877 11.854zm.547-16.243a6 6 0 1 0-11.852-1.878 6 6 0 0 0 11.852 1.878z"/><path d="M396.167 88.447c8.043-5.843 9.826-17.1 3.983-25.142-5.844-8.043-17.1-9.826-25.143-3.982-8.042 5.843-9.825 17.1-3.982 25.142 5.843 8.043 17.1 9.825 25.142 3.982zm-1.175-1.618c7.149-5.194 8.733-15.2 3.54-22.349-5.195-7.149-15.2-8.733-22.35-3.54-7.148 5.195-8.733 15.2-3.54 22.35 5.195 7.148 15.2 8.733 22.35 3.54zM456.997 86.39a17.953 17.953 0 0 0 14.48.696c9.282-3.563 13.917-13.975 10.355-23.255-3.563-9.281-13.975-13.917-23.255-10.354a17.952 17.952 0 0 0-10.282 10.168l14.405-2.059a9.001 9.001 0 0 1 6.466 16.688l.004.01-12.173 8.107zm-4.16-2.86a17.926 17.926 0 0 1-4.614-6.798 17.926 17.926 0 0 1-1.12-8.14l11.204-4.3a9 9 0 0 0-1.682 9.214 9 9 0 0 0 7.416 5.723l-11.205 4.3zm14.34-7.647a6 6 0 1 0-4.3-11.203 6 6 0 0 0 4.3 11.203z"/><path d="M457.706 86.725c9.082 4.043 19.722-.04 23.765-9.123 4.043-9.081-.04-19.721-9.123-23.765-9.081-4.043-19.721.041-23.765 9.123-4.043 9.082.041 19.722 9.123 23.765zm.813-1.827c8.073 3.594 17.53-.036 21.125-8.11 3.594-8.072-.036-17.53-8.109-21.124-8.073-3.594-17.53.037-21.124 8.11-3.595 8.072.036 17.53 8.108 21.124z"/><g><path d="M514.675 106.154c4.838.55 9.881-.854 13.845-4.3 7.503-6.522 8.298-17.891 1.776-25.394-6.522-7.502-17.891-8.297-25.394-1.775a17.952 17.952 0 0 0-6.184 13.071l12.833-6.861a9.001 9.001 0 0 1 11.783 13.47l.007.007-8.666 11.782zm-4.888-1.265a17.926 17.926 0 0 1-6.66-4.81 17.926 17.926 0 0 1-3.837-7.266l9.058-7.874a9 9 0 0 0 1.57 9.235 9 9 0 0 0 8.927 2.84l-9.058 7.875zm10.86-12.091a6 6 0 1 0-7.872-9.057 6 6 0 0 0 7.873 9.057z"/><path d="M515.456 106.225c9.917.694 18.518-6.783 19.211-16.7.694-9.917-6.783-18.518-16.7-19.212-9.917-.693-18.518 6.784-19.212 16.7-.693 9.918 6.784 18.519 16.7 19.212zm.14-1.995c8.814.617 16.46-6.03 17.076-14.845.617-8.815-6.03-16.46-14.845-17.077-8.815-.616-16.46 6.03-17.077 14.845-.616 8.815 6.03 16.46 14.845 17.077z"/></g><g><path d="M588.523 109.894a17.953 17.953 0 0 0 7.843-12.193c1.555-9.819-5.144-19.04-14.963-20.594-9.819-1.556-19.039 5.143-20.594 14.962a17.952 17.952 0 0 0 3.665 13.989l5.42-13.505a9.001 9.001 0 0 1 17.685 2.744l.01.001.934 14.596zm-4.557 2.173a17.926 17.926 0 0 1-8.195.596 17.926 17.926 0 0 1-7.608-3.1l1.877-11.853a9 9 0 0 0 7.14 6.064 9 9 0 0 0 8.663-3.561l-1.877 11.854zm.547-16.243a6 6 0 1 0-11.852-1.878 6 6 0 0 0 11.852 1.878z"/><path d="M589.167 109.447c8.043-5.843 9.826-17.1 3.983-25.142-5.844-8.043-17.1-9.826-25.143-3.982-8.042 5.843-9.825 17.1-3.982 25.142 5.843 8.043 17.1 9.825 25.142 3.982zm-1.175-1.618c7.149-5.194 8.733-15.2 3.54-22.349-5.195-7.149-15.2-8.733-22.35-3.54-7.148 5.195-8.733 15.2-3.54 22.35 5.195 7.148 15.2 8.733 22.35 3.54z"/></g><g><path d="M53.504 121.757a17.953 17.953 0 0 0 14.494-.317c9.01-4.2 12.908-14.91 8.706-23.92-4.201-9.01-14.91-12.908-23.92-8.707a17.952 17.952 0 0 0-9.548 10.861l14.227-3.058a9.001 9.001 0 0 1 7.614 16.195l.005.01-11.578 8.936zm-4.35-2.563a17.926 17.926 0 0 1-5.077-6.46 17.926 17.926 0 0 1-1.685-8.041l10.877-5.072a9 9 0 0 0-1.035 9.31 9 9 0 0 0 7.797 5.19l-10.877 5.073zm13.772-8.63a6 6 0 1 0-5.071-10.875 6 6 0 0 0 5.071 10.876z"/><path d="M54.234 122.041c9.342 3.4 19.671-1.416 23.071-10.758 3.4-9.341-1.416-19.67-10.758-23.07-9.342-3.4-19.67 1.416-23.07 10.757-3.4 9.342 1.416 19.671 10.757 23.071zm.684-1.88c8.304 3.023 17.485-1.258 20.508-9.562 3.022-8.303-1.26-17.485-9.563-20.507-8.304-3.023-17.485 1.259-20.507 9.563-3.023 8.303 1.259 17.485 9.562 20.507z"/></g><g><path d="M38.541 158.557a17.953 17.953 0 0 0 10.9-9.56c4.2-9.009.303-19.719-8.707-23.92-9.01-4.201-19.72-.303-23.92 8.707a17.952 17.952 0 0 0-.333 14.456l8.932-11.487a9.001 9.001 0 0 1 16.243 7.512l.01.004-3.125 14.288zm-4.98.832c-2.69.067-5.437-.47-8.041-1.685a17.926 17.926 0 0 1-6.46-5.076l5.072-10.878a9 9 0 0 0 5.191 7.797 9 9 0 0 0 9.31-1.035l-5.072 10.877zm5.004-15.463a6 6 0 1 0-10.876-5.071 6 6 0 0 0 10.876 5.071z"/><path d="M39.283 158.305c9.342-3.4 14.158-13.73 10.758-23.07-3.4-9.342-13.729-14.159-23.07-10.759-9.342 3.4-14.159 13.73-10.759 23.071 3.4 9.342 13.73 14.158 23.071 10.758zm-.684-1.88c8.304-3.022 12.585-12.203 9.563-20.507-3.022-8.303-12.204-12.585-20.507-9.562-8.304 3.022-12.586 12.203-9.563 20.507 3.022 8.304 12.204 12.585 20.507 9.563z"/></g><g><path d="M91.216 161.983a17.953 17.953 0 0 0 13.512-5.255c7.03-7.03 7.03-18.426 0-25.456-7.03-7.03-18.426-7.03-25.456 0a17.952 17.952 0 0 0-5.257 13.471l12.323-7.74a9.001 9.001 0 0 1 12.694 12.615l.007.007-7.823 12.358zm-4.964-.921a17.926 17.926 0 0 1-6.98-4.334 17.926 17.926 0 0 1-4.334-6.98l8.487-8.486a9 9 0 0 0 2.211 9.102 9 9 0 0 0 9.102 2.211l-8.486 8.487zm9.99-12.82a6 6 0 1 0-8.485-8.485 6 6 0 0 0 8.486 8.486z"/><path d="M92 162c9.941 0 18-8.059 18-18s-8.059-18-18-18-18 8.059-18 18 8.059 18 18 18zm0-2c8.837 0 16-7.163 16-16s-7.163-16-16-16-16 7.163-16 16 7.163 16 16 16z"/></g><g><path d="M136.504 143.757a17.953 17.953 0 0 0 14.494-.317c9.01-4.2 12.908-14.91 8.706-23.92-4.201-9.01-14.91-12.908-23.92-8.707a17.952 17.952 0 0 0-9.548 10.861l14.227-3.058a9.001 9.001 0 0 1 7.614 16.195l.005.01-11.578 8.936zm-4.35-2.563a17.926 17.926 0 0 1-5.077-6.46 17.926 17.926 0 0 1-1.685-8.041l10.877-5.072a9 9 0 0 0-1.035 9.31 9 9 0 0 0 7.797 5.19l-10.877 5.073zm13.772-8.63a6 6 0 1 0-5.071-10.875 6 6 0 0 0 5.071 10.876z"/><path d="M137.234 144.041c9.342 3.4 19.671-1.416 23.071-10.758 3.4-9.341-1.416-19.67-10.758-23.07-9.342-3.4-19.67 1.416-23.07 10.757-3.4 9.342 1.416 19.671 10.757 23.071zm.684-1.88c8.304 3.023 17.485-1.258 20.508-9.562 3.022-8.303-1.26-17.485-9.563-20.507-8.304-3.023-17.485 1.259-20.507 9.563-3.023 8.303 1.259 17.485 9.562 20.507z"/></g><g><path d="M190.504 135.757a17.953 17.953 0 0 0 14.494-.317c9.01-4.2 12.908-14.91 8.706-23.92-4.201-9.01-14.91-12.908-23.92-8.707a17.952 17.952 0 0 0-9.548 10.861l14.227-3.058a9.001 9.001 0 0 1 7.614 16.195l.005.01-11.578 8.936zm-4.35-2.563a17.926 17.926 0 0 1-5.077-6.46 17.926 17.926 0 0 1-1.685-8.041l10.877-5.072a9 9 0 0 0-1.035 9.31 9 9 0 0 0 7.797 5.19l-10.877 5.073zm13.772-8.63a6 6 0 1 0-5.071-10.875 6 6 0 0 0 5.071 10.876z"/><path d="M191.234 136.041c9.342 3.4 19.671-1.416 23.071-10.758 3.4-9.341-1.416-19.67-10.758-23.07-9.342-3.4-19.67 1.416-23.07 10.757-3.4 9.342 1.416 19.671 10.757 23.071zm.684-1.88c8.304 3.023 17.485-1.258 20.508-9.562 3.022-8.303-1.26-17.485-9.563-20.507-8.304-3.023-17.485 1.259-20.507 9.563-3.023 8.303 1.259 17.485 9.562 20.507z"/></g><g><path d="M202.777 176.43a17.953 17.953 0 0 0 9.074-11.307c2.573-9.603-3.126-19.473-12.728-22.046-9.603-2.573-19.473 3.126-22.046 12.728a17.952 17.952 0 0 0 2.184 14.295l6.801-12.864a9.001 9.001 0 0 1 17.301 4.577l.01.003-.596 14.614zm-4.76 1.684c-2.638.533-5.436.48-8.212-.263a17.926 17.926 0 0 1-7.243-3.878l3.106-11.593a9 9 0 0 0 6.467 6.777 9 9 0 0 0 8.988-2.636l-3.106 11.593zm2.243-16.097a6 6 0 1 0-11.591-3.106 6 6 0 0 0 11.59 3.106z"/><path d="M203.464 176.053c8.61-4.971 11.56-15.98 6.589-24.589-4.971-8.61-15.98-11.559-24.589-6.588-8.61 4.97-11.559 15.979-6.588 24.588 4.97 8.61 15.979 11.56 24.588 6.589zm-1-1.732c7.653-4.419 10.275-14.204 5.857-21.857-4.419-7.653-14.204-10.275-21.857-5.856-7.653 4.418-10.275 14.203-5.856 21.856 4.418 7.653 14.203 10.275 21.856 5.857z"/></g><g><path d="M262.777 158.43a17.953 17.953 0 0 0 9.074-11.307c2.573-9.603-3.126-19.473-12.728-22.046-9.603-2.573-19.473 3.126-22.046 12.728a17.952 17.952 0 0 0 2.184 14.295l6.801-12.864a9.001 9.001 0 0 1 17.301 4.577l.01.003-.596 14.614zm-4.76 1.684c-2.638.533-5.436.48-8.212-.263a17.926 17.926 0 0 1-7.243-3.878l3.106-11.593a9 9 0 0 0 6.467 6.777 9 9 0 0 0 8.988-2.636l-3.106 11.593zm2.243-16.097a6 6 0 1 0-11.591-3.106 6 6 0 0 0 11.59 3.106z"/><path d="M263.464 158.053c8.61-4.971 11.56-15.98 6.589-24.589-4.971-8.61-15.98-11.559-24.589-6.588-8.61 4.97-11.559 15.979-6.588 24.588 4.97 8.61 15.979 11.56 24.588 6.589zm-1-1.732c7.653-4.419 10.275-14.204 5.857-21.857-4.419-7.653-14.204-10.275-21.857-5.856-7.653 4.418-10.275 14.203-5.856 21.856 4.418 7.653 14.203 10.275 21.856 5.857z"/></g><g><path d="M289.227 156.594a17.953 17.953 0 0 0 12.711 6.973c9.903.866 18.634-6.46 19.5-16.363.867-9.903-6.459-18.634-16.362-19.5a17.952 17.952 0 0 0-13.699 4.632l13.85 4.464a9.001 9.001 0 0 1-1.503 17.834l-.001.01-14.496 1.95zm-2.485-4.395a17.926 17.926 0 0 1-1.167-8.132 17.926 17.926 0 0 1 2.562-7.807l11.956 1.046a9 9 0 0 0-5.552 7.545 9 9 0 0 0 4.157 8.394l-11.956-1.046zm16.242-.587a6 6 0 1 0 1.046-11.954 6 6 0 0 0-1.046 11.954z"/><path d="M289.718 157.206c6.39 7.615 17.744 8.608 25.36 2.218 7.614-6.39 8.608-17.744 2.218-25.359-6.39-7.615-17.744-8.609-25.36-2.218-7.615 6.39-8.608 17.743-2.218 25.359zm1.532-1.286c5.68 6.77 15.772 7.652 22.542 1.972 6.769-5.68 7.652-15.772 1.972-22.541-5.68-6.77-15.772-7.652-22.542-1.972-6.769 5.68-7.652 15.772-1.972 22.54z"/></g><g><path d="M352.907 111.667a17.953 17.953 0 0 0 4.66-13.729c-.867-9.903-9.597-17.229-19.5-16.363-9.904.867-17.23 9.597-16.363 19.5a17.952 17.952 0 0 0 6.94 12.687l1.992-14.415a9.001 9.001 0 0 1 17.823-1.616h.01l4.438 13.936zm-3.896 3.21a17.926 17.926 0 0 1-7.807 2.561 17.926 17.926 0 0 1-8.132-1.166l-1.047-11.956a9 9 0 0 0 8.395 4.157 9 9 0 0 0 7.545-5.552l1.046 11.956zm-3.399-15.893a6 6 0 1 0-11.954 1.046 6 6 0 0 0 11.954-1.046z"/><path d="M353.424 111.077c6.39-7.615 5.397-18.969-2.218-25.359-7.616-6.39-18.97-5.397-25.36 2.219-6.39 7.615-5.396 18.969 2.22 25.359 7.614 6.39 18.968 5.396 25.358-2.219zm-1.532-1.285c5.68-6.77 4.797-16.862-1.972-22.542-6.77-5.68-16.861-4.797-22.541 1.972-5.68 6.77-4.797 16.862 1.972 22.542 6.769 5.68 16.861 4.797 22.541-1.972z"/></g><g><path d="M368.997 148.39a17.953 17.953 0 0 0 14.48.696c9.282-3.563 13.917-13.975 10.355-23.255-3.563-9.281-13.975-13.917-23.255-10.354a17.952 17.952 0 0 0-10.282 10.168l14.405-2.059a9.001 9.001 0 0 1 6.466 16.688l.004.01-12.173 8.107zm-4.16-2.86a17.926 17.926 0 0 1-4.614-6.798 17.926 17.926 0 0 1-1.12-8.14l11.204-4.3a9 9 0 0 0-1.682 9.214 9 9 0 0 0 7.416 5.723l-11.205 4.3zm14.34-7.647a6 6 0 1 0-4.3-11.203 6 6 0 0 0 4.3 11.203z"/><path d="M369.706 148.725c9.082 4.043 19.722-.04 23.765-9.123 4.043-9.081-.04-19.721-9.123-23.765-9.081-4.043-19.721.041-23.765 9.123-4.043 9.082.041 19.722 9.123 23.765zm.813-1.827c8.073 3.594 17.53-.036 21.125-8.11 3.594-8.072-.036-17.53-8.109-21.124-8.073-3.594-17.53.037-21.124 8.11-3.595 8.072.036 17.53 8.108 21.124z"/></g><g><path d="M419.997 124.39a17.953 17.953 0 0 0 14.48.696c9.282-3.563 13.917-13.975 10.355-23.255-3.563-9.281-13.975-13.917-23.255-10.354a17.952 17.952 0 0 0-10.282 10.168l14.405-2.059a9.001 9.001 0 0 1 6.466 16.688l.004.01-12.173 8.107zm-4.16-2.86a17.926 17.926 0 0 1-4.614-6.798 17.926 17.926 0 0 1-1.12-8.14l11.204-4.3a9 9 0 0 0-1.682 9.214 9 9 0 0 0 7.416 5.723l-11.205 4.3zm14.34-7.647a6 6 0 1 0-4.3-11.203 6 6 0 0 0 4.3 11.203z"/><path d="M420.706 124.725c9.082 4.043 19.722-.04 23.765-9.123 4.043-9.081-.04-19.721-9.123-23.765-9.081-4.043-19.721.041-23.765 9.123-4.043 9.082.041 19.722 9.123 23.765zm.813-1.827c8.073 3.594 17.53-.036 21.125-8.11 3.594-8.072-.036-17.53-8.109-21.124-8.073-3.594-17.53.037-21.124 8.11-3.595 8.072.036 17.53 8.108 21.124z"/></g><g><path d="M400.652 167.528a17.953 17.953 0 0 0 10.646 9.84c9.4 3.237 19.643-1.76 22.88-11.16 3.236-9.399-1.76-19.642-11.16-22.879a17.952 17.952 0 0 0-14.412 1.181l12.359 7.682a9.001 9.001 0 0 1-5.773 16.94l-.004.01-14.536-1.614zm-1.348-4.866c-.348-2.669-.1-5.456.835-8.174a17.926 17.926 0 0 1 4.374-6.955l11.348 3.908a9 9 0 0 0-7.212 5.978 9 9 0 0 0 2.002 9.15l-11.347-3.907zm15.9 3.36a6 6 0 1 0 3.908-11.346 6 6 0 0 0-3.907 11.346z"/><path d="M400.98 168.24c4.358 8.934 15.134 12.645 24.069 8.287 8.935-4.358 12.646-15.134 8.288-24.069-4.358-8.935-15.134-12.646-24.07-8.288-8.934 4.358-12.645 15.134-8.287 24.07zm1.798-.877c3.873 7.942 13.452 11.24 21.394 7.366 7.942-3.873 11.24-13.452 7.367-21.394-3.874-7.943-13.452-11.24-21.395-7.367-7.942 3.874-11.24 13.452-7.366 21.395z"/></g><g><path d="M488.523 140.894a17.953 17.953 0 0 0 7.843-12.193c1.555-9.819-5.144-19.04-14.963-20.594-9.819-1.556-19.039 5.143-20.594 14.962a17.952 17.952 0 0 0 3.665 13.989l5.42-13.505a9.001 9.001 0 0 1 17.685 2.744l.01.001.934 14.596zm-4.557 2.173a17.926 17.926 0 0 1-8.195.596 17.926 17.926 0 0 1-7.608-3.1l1.877-11.853a9 9 0 0 0 7.14 6.064 9 9 0 0 0 8.663-3.561l-1.877 11.854zm.547-16.243a6 6 0 1 0-11.852-1.878 6 6 0 0 0 11.852 1.878z"/><path d="M489.167 140.447c8.043-5.843 9.826-17.1 3.983-25.142-5.844-8.043-17.1-9.826-25.143-3.982-8.042 5.843-9.825 17.1-3.982 25.142 5.843 8.043 17.1 9.825 25.142 3.982zm-1.175-1.618c7.149-5.194 8.733-15.2 3.54-22.349-5.195-7.149-15.2-8.733-22.35-3.54-7.148 5.195-8.733 15.2-3.54 22.35 5.195 7.148 15.2 8.733 22.35 3.54z"/></g><g><path d="M548.523 149.894a17.953 17.953 0 0 0 7.843-12.193c1.555-9.819-5.144-19.04-14.963-20.594-9.819-1.556-19.039 5.143-20.594 14.962a17.952 17.952 0 0 0 3.665 13.989l5.42-13.505a9.001 9.001 0 0 1 17.685 2.744l.01.001.934 14.596zm-4.557 2.173a17.926 17.926 0 0 1-8.195.596 17.926 17.926 0 0 1-7.608-3.1l1.877-11.853a9 9 0 0 0 7.14 6.064 9 9 0 0 0 8.663-3.561l-1.877 11.854zm.547-16.243a6 6 0 1 0-11.852-1.878 6 6 0 0 0 11.852 1.878z"/><path d="M549.167 149.447c8.043-5.843 9.826-17.1 3.983-25.142-5.844-8.043-17.1-9.826-25.143-3.982-8.042 5.843-9.825 17.1-3.982 25.142 5.843 8.043 17.1 9.825 25.142 3.982zm-1.175-1.618c7.149-5.194 8.733-15.2 3.54-22.349-5.195-7.149-15.2-8.733-22.35-3.54-7.148 5.195-8.733 15.2-3.54 22.35 5.195 7.148 15.2 8.733 22.35 3.54z"/></g></g></svg>