<svg xmlns="http://www.w3.org/2000/svg" viewBox="0 0 605 180"><title>full-color-snap</title><g fill-rule="evenodd"><path d="M41.936 34.61a2.343 2.343 0 0 1-1.786.234L27.26 31.396a2.355 2.355 0 0 1-1.43-1.095 2.355 2.355 0 0 1-.233-1.786l3.448-12.891a2.354 2.354 0 0 1 2.888-1.668 2.354 2.354 0 0 1 1.668 2.889l-2.837 10.607 10.6 2.84a2.354 2.354 0 0 1 1.668 2.889 2.357 2.357 0 0 1-1.095 1.43z"/><path d="M52.143 28.718a2.343 2.343 0 0 1-1.786.234 2.354 2.354 0 0 1-1.668-2.889l2.84-10.6-8.327-2.232-2.84 10.6a2.354 2.354 0 0 1-2.89 1.668 2.354 2.354 0 0 1-1.667-2.888L39.25 9.73a2.354 2.354 0 0 1 2.889-1.668l12.884 3.453a2.354 2.354 0 0 1 1.667 2.888l-3.452 12.884a2.357 2.357 0 0 1-1.095 1.43zM70.156 65.008a2.343 2.343 0 0 1-1.519-.969L60.98 53.111a2.355 2.355 0 0 1-.391-1.758c.108-.614.458-1.16.968-1.518l10.928-7.659a2.354 2.354 0 0 1 3.285.58 2.354 2.354 0 0 1-.58 3.284l-8.99 6.303 6.294 8.99a2.354 2.354 0 0 1-.58 3.284 2.357 2.357 0 0 1-1.757.39z"/><path d="M81.762 67.054a2.343 2.343 0 0 1-1.518-.968 2.354 2.354 0 0 1 .58-3.285l8.989-6.294-4.945-7.063-8.99 6.295a2.354 2.354 0 0 1-3.285-.58 2.354 2.354 0 0 1 .58-3.284l10.918-7.652a2.354 2.354 0 0 1 3.284.579l7.65 10.926a2.354 2.354 0 0 1-.578 3.285l-10.927 7.65a2.357 2.357 0 0 1-1.758.391zM131.936 43.61a2.343 2.343 0 0 1-1.786.234l-12.891-3.448a2.355 2.355 0 0 1-1.43-1.095 2.355 2.355 0 0 1-.233-1.786l3.448-12.891a2.354 2.354 0 0 1 2.888-1.668 2.354 2.354 0 0 1 1.668 2.889l-2.837 10.607 10.6 2.84a2.354 2.354 0 0 1 1.668 2.889 2.357 2.357 0 0 1-1.095 1.43z"/><path d="M142.143 37.718a2.343 2.343 0 0 1-1.786.234 2.354 2.354 0 0 1-1.668-2.889l2.84-10.6-8.327-2.232-2.84 10.6a2.354 2.354 0 0 1-2.89 1.668 2.354 2.354 0 0 1-1.667-2.888l3.445-12.88a2.354 2.354 0 0 1 2.889-1.668l12.884 3.453a2.354 2.354 0 0 1 1.667 2.888l-3.452 12.884a2.357 2.357 0 0 1-1.095 1.43zM188.623 43.939a2.343 2.343 0 0 1-1.327-1.218l-5.645-12.092a2.355 2.355 0 0 1-.08-1.799 2.355 2.355 0 0 1 1.218-1.327l12.092-5.645a2.354 2.354 0 0 1 3.134 1.14 2.354 2.354 0 0 1-1.14 3.135l-9.95 4.646 4.638 9.946a2.354 2.354 0 0 1-1.14 3.134 2.357 2.357 0 0 1-1.8.08z"/><path d="M199.698 47.97a2.343 2.343 0 0 1-1.327-1.218 2.354 2.354 0 0 1 1.14-3.134l9.947-4.638-3.644-7.814-9.946 4.638a2.354 2.354 0 0 1-3.134-1.14 2.354 2.354 0 0 1 1.14-3.135l12.082-5.64a2.354 2.354 0 0 1 3.134 1.14l5.637 12.09a2.354 2.354 0 0 1-1.14 3.134l-12.09 5.637a2.357 2.357 0 0 1-1.799.08zM262.936 40.61a2.343 2.343 0 0 1-1.786.234l-12.891-3.448a2.355 2.355 0 0 1-1.43-1.095 2.355 2.355 0 0 1-.233-1.786l3.448-12.891a2.354 2.354 0 0 1 2.888-1.668 2.354 2.354 0 0 1 1.668 2.889l-2.837 10.607 10.6 2.84a2.354 2.354 0 0 1 1.668 2.889 2.357 2.357 0 0 1-1.095 1.43z"/><path d="M273.143 34.718a2.343 2.343 0 0 1-1.786.234 2.354 2.354 0 0 1-1.668-2.889l2.84-10.6-8.327-2.232-2.84 10.6a2.354 2.354 0 0 1-2.89 1.668 2.354 2.354 0 0 1-1.667-2.888l3.445-12.88a2.354 2.354 0 0 1 2.889-1.668l12.884 3.453a2.354 2.354 0 0 1 1.667 2.888l-3.452 12.884a2.357 2.357 0 0 1-1.095 1.43zM344.1 43.275a2.343 2.343 0 0 1-1.071-1.448l-3.234-12.947a2.355 2.355 0 0 1 .265-1.781c.321-.535.843-.92 1.448-1.07l12.947-3.235a2.354 2.354 0 0 1 2.859 1.718 2.354 2.354 0 0 1-1.718 2.859l-10.653 2.662 2.655 10.648a2.354 2.354 0 0 1-1.717 2.86 2.357 2.357 0 0 1-1.782-.266z"/><path d="M354.201 49.345a2.343 2.343 0 0 1-1.07-1.448 2.354 2.354 0 0 1 1.718-2.86l10.648-2.654-2.086-8.366-10.648 2.655a2.354 2.354 0 0 1-2.859-1.718 2.354 2.354 0 0 1 1.718-2.859l12.935-3.23a2.354 2.354 0 0 1 2.86 1.717l3.226 12.942a2.354 2.354 0 0 1-1.718 2.86l-12.942 3.226a2.357 2.357 0 0 1-1.782-.265zM432.733 47.408a2.343 2.343 0 0 1-1.652.717l-13.342.24a2.355 2.355 0 0 1-1.676-.66 2.355 2.355 0 0 1-.717-1.652l-.24-13.342a2.354 2.354 0 0 1 2.318-2.4 2.354 2.354 0 0 1 2.399 2.317l.197 10.979 10.973-.192a2.354 2.354 0 0 1 2.4 2.317 2.357 2.357 0 0 1-.66 1.676z"/><path d="M440.92 38.93a2.343 2.343 0 0 1-1.652.718 2.354 2.354 0 0 1-2.399-2.317l-.192-10.973-8.62.15.191 10.973a2.354 2.354 0 0 1-2.316 2.4 2.354 2.354 0 0 1-2.4-2.318l-.238-13.33a2.354 2.354 0 0 1 2.317-2.4l13.336-.232a2.354 2.354 0 0 1 2.4 2.317l.232 13.336a2.357 2.357 0 0 1-.659 1.676zM510.43 38.91a2.343 2.343 0 0 1-1.75.42l-13.182-2.082a2.355 2.355 0 0 1-1.536-.94 2.355 2.355 0 0 1-.42-1.752l2.082-13.181a2.354 2.354 0 0 1 2.699-1.96 2.354 2.354 0 0 1 1.96 2.698l-1.712 10.846 10.84 1.716a2.354 2.354 0 0 1 1.96 2.699 2.357 2.357 0 0 1-.94 1.536z"/><path d="M519.965 31.983a2.343 2.343 0 0 1-1.751.419 2.354 2.354 0 0 1-1.96-2.698l1.716-10.84-8.515-1.348-1.717 10.839a2.354 2.354 0 0 1-2.698 1.96 2.354 2.354 0 0 1-1.96-2.698l2.08-13.17a2.354 2.354 0 0 1 2.697-1.96l13.175 2.087a2.354 2.354 0 0 1 1.96 2.698l-2.087 13.174a2.357 2.357 0 0 1-.94 1.537zM542.47 56.74a2.343 2.343 0 0 1-.993-1.502l-2.552-13.099a2.355 2.355 0 0 1 .358-1.765c.349-.517.89-.874 1.503-.993l13.098-2.552a2.354 2.354 0 0 1 2.765 1.865 2.354 2.354 0 0 1-1.865 2.765l-10.778 2.101 2.094 10.773a2.354 2.354 0 0 1-1.865 2.765 2.357 2.357 0 0 1-1.765-.358z"/><path d="M552.241 63.33a2.343 2.343 0 0 1-.993-1.502 2.354 2.354 0 0 1 1.865-2.765l10.773-2.094-1.645-8.463-10.773 2.094a2.354 2.354 0 0 1-2.765-1.865 2.354 2.354 0 0 1 1.865-2.766l13.087-2.55a2.354 2.354 0 0 1 2.765 1.866l2.545 13.093a2.354 2.354 0 0 1-1.865 2.765l-13.094 2.545a2.357 2.357 0 0 1-1.765-.357zM12.623 84.939a2.343 2.343 0 0 1-1.327-1.218L5.651 71.63a2.355 2.355 0 0 1-.08-1.799 2.355 2.355 0 0 1 1.218-1.327l12.092-5.645a2.354 2.354 0 0 1 3.134 1.14 2.354 2.354 0 0 1-1.14 3.135l-9.95 4.646 4.638 9.946a2.354 2.354 0 0 1-1.14 3.134 2.357 2.357 0 0 1-1.8.08z"/><path d="M23.698 88.97a2.343 2.343 0 0 1-1.327-1.218 2.354 2.354 0 0 1 1.14-3.134l9.947-4.638-3.644-7.814-9.946 4.638a2.354 2.354 0 0 1-3.134-1.14 2.354 2.354 0 0 1 1.14-3.135l12.082-5.64a2.354 2.354 0 0 1 3.134 1.14l5.637 12.09a2.354 2.354 0 0 1-1.14 3.134l-12.09 5.637a2.357 2.357 0 0 1-1.799.08zM121.936 98.61a2.343 2.343 0 0 1-1.786.234l-12.891-3.448a2.355 2.355 0 0 1-1.43-1.095 2.355 2.355 0 0 1-.233-1.786l3.448-12.891a2.354 2.354 0 0 1 2.888-1.668 2.354 2.354 0 0 1 1.668 2.889l-2.837 10.607 10.6 2.84a2.354 2.354 0 0 1 1.668 2.889 2.357 2.357 0 0 1-1.095 1.43z"/><path d="M132.143 92.718a2.343 2.343 0 0 1-1.786.234 2.354 2.354 0 0 1-1.668-2.889l2.84-10.6-8.327-2.232-2.84 10.6a2.354 2.354 0 0 1-2.89 1.668 2.354 2.354 0 0 1-1.667-2.888l3.445-12.88a2.354 2.354 0 0 1 2.889-1.668l12.884 3.453a2.354 2.354 0 0 1 1.667 2.888l-3.452 12.884a2.357 2.357 0 0 1-1.095 1.43zM164.836 88.621a2.343 2.343 0 0 1-1.664-.69l-9.44-9.432c-.44-.44-.69-1.04-.69-1.663 0-.624.25-1.223.69-1.664l9.432-9.44a2.354 2.354 0 0 1 3.335 0 2.354 2.354 0 0 1 0 3.335l-7.76 7.769 7.76 7.76a2.354 2.354 0 0 1 0 3.335 2.357 2.357 0 0 1-1.663.69z"/><path d="M176.621 88.621a2.343 2.343 0 0 1-1.663-.69 2.354 2.354 0 0 1 0-3.335l7.76-7.76-6.097-6.097-7.76 7.76a2.354 2.354 0 0 1-3.335 0 2.354 2.354 0 0 1 0-3.335l9.423-9.432a2.354 2.354 0 0 1 3.336 0l9.431 9.432a2.354 2.354 0 0 1 0 3.335l-9.431 9.432a2.357 2.357 0 0 1-1.664.69zM234.936 88.61a2.343 2.343 0 0 1-1.786.234l-12.891-3.448a2.355 2.355 0 0 1-1.43-1.095 2.355 2.355 0 0 1-.233-1.786l3.448-12.891a2.354 2.354 0 0 1 2.888-1.668 2.354 2.354 0 0 1 1.668 2.889l-2.837 10.607 10.6 2.84a2.354 2.354 0 0 1 1.668 2.889 2.357 2.357 0 0 1-1.095 1.43z"/><path d="M245.143 82.718a2.343 2.343 0 0 1-1.786.234 2.354 2.354 0 0 1-1.668-2.889l2.84-10.6-8.327-2.232-2.84 10.6a2.354 2.354 0 0 1-2.89 1.668 2.354 2.354 0 0 1-1.667-2.888l3.445-12.88a2.354 2.354 0 0 1 2.889-1.668l12.884 3.453a2.354 2.354 0 0 1 1.667 2.888l-3.452 12.884a2.357 2.357 0 0 1-1.095 1.43zM277.581 113.76a2.343 2.343 0 0 1-1.758-.391l-10.935-7.65a2.355 2.355 0 0 1-.968-1.518 2.355 2.355 0 0 1 .39-1.758l7.65-10.934a2.354 2.354 0 0 1 3.284-.58 2.354 2.354 0 0 1 .58 3.285l-6.294 8.998 8.99 6.294a2.354 2.354 0 0 1 .58 3.285c-.372.53-.93.865-1.519.969z"/><path d="M289.188 111.713a2.343 2.343 0 0 1-1.759-.39 2.354 2.354 0 0 1-.579-3.285l6.295-8.99-7.063-4.945-6.294 8.99a2.354 2.354 0 0 1-3.285.578 2.354 2.354 0 0 1-.579-3.284l7.642-10.925a2.354 2.354 0 0 1 3.285-.58l10.926 7.651a2.354 2.354 0 0 1 .58 3.285l-7.651 10.926c-.371.53-.929.865-1.518.97zM304.581 73.76a2.343 2.343 0 0 1-1.758-.391l-10.935-7.65a2.355 2.355 0 0 1-.968-1.518 2.355 2.355 0 0 1 .39-1.758l7.65-10.934a2.354 2.354 0 0 1 3.284-.58 2.354 2.354 0 0 1 .58 3.285l-6.294 8.998 8.99 6.294a2.354 2.354 0 0 1 .58 3.285c-.372.53-.93.865-1.519.969z"/><path d="M316.188 71.713a2.343 2.343 0 0 1-1.759-.39 2.354 2.354 0 0 1-.579-3.285l6.295-8.99-7.063-4.945-6.294 8.99a2.354 2.354 0 0 1-3.285.578 2.354 2.354 0 0 1-.579-3.284l7.642-10.925a2.354 2.354 0 0 1 3.285-.58l10.926 7.651a2.354 2.354 0 0 1 .58 3.285l-7.651 10.926c-.371.53-.929.865-1.518.97zM387.43 86.91a2.343 2.343 0 0 1-1.75.42l-13.182-2.082a2.355 2.355 0 0 1-1.536-.94 2.355 2.355 0 0 1-.42-1.752l2.082-13.181a2.354 2.354 0 0 1 2.699-1.96 2.354 2.354 0 0 1 1.96 2.698l-1.712 10.846 10.84 1.716a2.354 2.354 0 0 1 1.96 2.699 2.357 2.357 0 0 1-.94 1.536z"/><path d="M396.965 79.983a2.343 2.343 0 0 1-1.751.419 2.354 2.354 0 0 1-1.96-2.698l1.716-10.84-8.515-1.348-1.717 10.839a2.354 2.354 0 0 1-2.698 1.96 2.354 2.354 0 0 1-1.96-2.698l2.08-13.17a2.354 2.354 0 0 1 2.697-1.96l13.175 2.087a2.354 2.354 0 0 1 1.96 2.698l-2.087 13.174a2.357 2.357 0 0 1-.94 1.537zM454.669 78.39a2.343 2.343 0 0 1-1.239-1.307l-4.788-12.456a2.355 2.355 0 0 1 .046-1.8 2.355 2.355 0 0 1 1.308-1.24l12.456-4.787a2.354 2.354 0 0 1 3.046 1.356 2.354 2.354 0 0 1-1.356 3.047l-10.249 3.94 3.933 10.246a2.354 2.354 0 0 1-1.357 3.047 2.357 2.357 0 0 1-1.8-.046z"/><path d="M465.436 83.184a2.343 2.343 0 0 1-1.24-1.307 2.354 2.354 0 0 1 1.357-3.047l10.246-3.933-3.09-8.05-10.245 3.934a2.354 2.354 0 0 1-3.047-1.357 2.354 2.354 0 0 1 1.356-3.047l12.445-4.783a2.354 2.354 0 0 1 3.047 1.356l4.78 12.453a2.354 2.354 0 0 1-1.356 3.047l-12.453 4.78a2.357 2.357 0 0 1-1.8-.046z"/><g><path d="M509.751 99.432a2.343 2.343 0 0 1-1.611-.805l-8.76-10.067a2.355 2.355 0 0 1-.572-1.708 2.355 2.355 0 0 1 .805-1.61l10.067-8.76a2.354 2.354 0 0 1 3.327.233c.857.985.753 2.47-.232 3.327l-8.283 7.208 7.2 8.282c.856.986.752 2.47-.233 3.327a2.357 2.357 0 0 1-1.708.573z"/><path d="M521.508 100.254a2.343 2.343 0 0 1-1.611-.805 2.354 2.354 0 0 1 .232-3.327l8.283-7.2-5.657-6.506-8.282 7.2a2.354 2.354 0 0 1-3.327-.233 2.354 2.354 0 0 1 .232-3.327l10.059-8.752a2.354 2.354 0 0 1 3.327.233l8.751 10.067c.857.985.753 2.47-.233 3.327l-10.066 8.75a2.357 2.357 0 0 1-1.708.573z"/></g><g><path d="M580.43 107.91a2.343 2.343 0 0 1-1.75.42l-13.182-2.082a2.355 2.355 0 0 1-1.536-.94 2.355 2.355 0 0 1-.42-1.752l2.082-13.181a2.354 2.354 0 0 1 2.699-1.96 2.354 2.354 0 0 1 1.96 2.698l-1.712 10.846 10.84 1.716a2.354 2.354 0 0 1 1.96 2.699 2.357 2.357 0 0 1-.94 1.536z"/><path d="M589.965 100.983a2.343 2.343 0 0 1-1.751.419 2.354 2.354 0 0 1-1.96-2.698l1.716-10.84-8.515-1.348-1.717 10.839a2.354 2.354 0 0 1-2.698 1.96 2.354 2.354 0 0 1-1.96-2.698l2.08-13.17a2.354 2.354 0 0 1 2.697-1.96l13.175 2.087a2.354 2.354 0 0 1 1.96 2.698l-2.087 13.174a2.357 2.357 0 0 1-.94 1.537z"/></g><g><path d="M50.623 113.939a2.343 2.343 0 0 1-1.327-1.218l-5.645-12.092a2.355 2.355 0 0 1-.08-1.799 2.355 2.355 0 0 1 1.218-1.327l12.092-5.645a2.354 2.354 0 0 1 3.134 1.14 2.354 2.354 0 0 1-1.14 3.135l-9.95 4.646 4.638 9.946a2.354 2.354 0 0 1-1.14 3.134 2.357 2.357 0 0 1-1.8.08z"/><path d="M61.698 117.97a2.343 2.343 0 0 1-1.327-1.218 2.354 2.354 0 0 1 1.14-3.134l9.947-4.638-3.644-7.814-9.946 4.638a2.354 2.354 0 0 1-3.134-1.14 2.354 2.354 0 0 1 1.14-3.135l12.082-5.64a2.354 2.354 0 0 1 3.134 1.14l5.637 12.09a2.354 2.354 0 0 1-1.14 3.134l-12.09 5.637a2.357 2.357 0 0 1-1.799.08z"/></g><g><path d="M31.309 154.42a2.343 2.343 0 0 1-1.8-.08l-12.096-5.635a2.355 2.355 0 0 1-1.218-1.327 2.355 2.355 0 0 1 .08-1.799l5.634-12.097a2.354 2.354 0 0 1 3.134-1.14 2.354 2.354 0 0 1 1.141 3.134l-4.635 9.954 9.946 4.638a2.354 2.354 0 0 1 1.14 3.134 2.357 2.357 0 0 1-1.326 1.217z"/><path d="M42.384 150.388a2.343 2.343 0 0 1-1.8-.08 2.354 2.354 0 0 1-1.14-3.133l4.638-9.947-7.814-3.643-4.638 9.946a2.354 2.354 0 0 1-3.135 1.14 2.354 2.354 0 0 1-1.14-3.134l5.63-12.086a2.354 2.354 0 0 1 3.133-1.14l12.09 5.637a2.354 2.354 0 0 1 1.14 3.134L43.71 149.17a2.357 2.357 0 0 1-1.327 1.217z"/></g><g><path d="M85.836 155.621a2.343 2.343 0 0 1-1.664-.69l-9.44-9.432c-.44-.44-.69-1.04-.69-1.663 0-.624.25-1.223.69-1.664l9.432-9.44a2.354 2.354 0 0 1 3.335 0 2.354 2.354 0 0 1 0 3.335l-7.76 7.769 7.76 7.76a2.354 2.354 0 0 1 0 3.335 2.357 2.357 0 0 1-1.663.69z"/><path d="M97.621 155.621a2.343 2.343 0 0 1-1.663-.69 2.354 2.354 0 0 1 0-3.335l7.76-7.76-6.097-6.097-7.76 7.76a2.354 2.354 0 0 1-3.335 0 2.354 2.354 0 0 1 0-3.335l9.423-9.432a2.354 2.354 0 0 1 3.336 0l9.431 9.432a2.354 2.354 0 0 1 0 3.335l-9.431 9.432a2.357 2.357 0 0 1-1.664.69z"/></g><g><path d="M133.623 135.939a2.343 2.343 0 0 1-1.327-1.218l-5.645-12.092a2.355 2.355 0 0 1-.08-1.799 2.355 2.355 0 0 1 1.218-1.327l12.092-5.645a2.354 2.354 0 0 1 3.134 1.14 2.354 2.354 0 0 1-1.14 3.135l-9.95 4.646 4.638 9.946a2.354 2.354 0 0 1-1.14 3.134 2.357 2.357 0 0 1-1.8.08z"/><path d="M144.698 139.97a2.343 2.343 0 0 1-1.327-1.218 2.354 2.354 0 0 1 1.14-3.134l9.947-4.638-3.644-7.814-9.946 4.638a2.354 2.354 0 0 1-3.134-1.14 2.354 2.354 0 0 1 1.14-3.135l12.082-5.64a2.354 2.354 0 0 1 3.134 1.14l5.637 12.09a2.354 2.354 0 0 1-1.14 3.134l-12.09 5.637a2.357 2.357 0 0 1-1.799.08z"/></g><g><path d="M187.623 127.939a2.343 2.343 0 0 1-1.327-1.218l-5.645-12.092a2.355 2.355 0 0 1-.08-1.799 2.355 2.355 0 0 1 1.218-1.327l12.092-5.645a2.354 2.354 0 0 1 3.134 1.14 2.354 2.354 0 0 1-1.14 3.135l-9.95 4.646 4.638 9.946a2.354 2.354 0 0 1-1.14 3.134 2.357 2.357 0 0 1-1.8.08z"/><path d="M198.698 131.97a2.343 2.343 0 0 1-1.327-1.218 2.354 2.354 0 0 1 1.14-3.134l9.947-4.638-3.644-7.814-9.946 4.638a2.354 2.354 0 0 1-3.134-1.14 2.354 2.354 0 0 1 1.14-3.135l12.082-5.64a2.354 2.354 0 0 1 3.134 1.14l5.637 12.09a2.354 2.354 0 0 1-1.14 3.134l-12.09 5.637a2.357 2.357 0 0 1-1.799.08z"/></g><g><path d="M194.936 173.61a2.343 2.343 0 0 1-1.786.234l-12.891-3.448a2.355 2.355 0 0 1-1.43-1.095 2.355 2.355 0 0 1-.233-1.786l3.448-12.891a2.354 2.354 0 0 1 2.888-1.668 2.354 2.354 0 0 1 1.668 2.889l-2.837 10.607 10.6 2.84a2.354 2.354 0 0 1 1.668 2.889 2.357 2.357 0 0 1-1.095 1.43z"/><path d="M205.143 167.718a2.343 2.343 0 0 1-1.786.234 2.354 2.354 0 0 1-1.668-2.889l2.84-10.6-8.327-2.232-2.84 10.6a2.354 2.354 0 0 1-2.89 1.668 2.354 2.354 0 0 1-1.667-2.888l3.445-12.88a2.354 2.354 0 0 1 2.889-1.668l12.884 3.453a2.354 2.354 0 0 1 1.667 2.888l-3.452 12.884a2.357 2.357 0 0 1-1.095 1.43z"/></g><g><path d="M254.936 155.61a2.343 2.343 0 0 1-1.786.234l-12.891-3.448a2.355 2.355 0 0 1-1.43-1.095 2.355 2.355 0 0 1-.233-1.786l3.448-12.891a2.354 2.354 0 0 1 2.888-1.668 2.354 2.354 0 0 1 1.668 2.889l-2.837 10.607 10.6 2.84a2.354 2.354 0 0 1 1.668 2.889 2.357 2.357 0 0 1-1.095 1.43z"/><path d="M265.143 149.718a2.343 2.343 0 0 1-1.786.234 2.354 2.354 0 0 1-1.668-2.889l2.84-10.6-8.327-2.232-2.84 10.6a2.354 2.354 0 0 1-2.89 1.668 2.354 2.354 0 0 1-1.667-2.888l3.445-12.88a2.354 2.354 0 0 1 2.889-1.668l12.884 3.453a2.354 2.354 0 0 1 1.667 2.888l-3.452 12.884a2.357 2.357 0 0 1-1.095 1.43z"/></g><g><path d="M290.642 148.383a2.343 2.343 0 0 1-.54-1.718l1.157-13.294a2.355 2.355 0 0 1 .83-1.598 2.355 2.355 0 0 1 1.719-.54l13.294 1.156a2.354 2.354 0 0 1 2.144 2.555 2.354 2.354 0 0 1-2.555 2.144l-10.94-.95-.956 10.932a2.354 2.354 0 0 1-2.555 2.143 2.357 2.357 0 0 1-1.598-.83z"/><path d="M298.218 157.411a2.343 2.343 0 0 1-.54-1.718 2.354 2.354 0 0 1 2.554-2.144l10.933.957.751-8.59-10.932-.956a2.354 2.354 0 0 1-2.144-2.555 2.354 2.354 0 0 1 2.555-2.143l13.282 1.156a2.354 2.354 0 0 1 2.144 2.555l-1.162 13.287a2.354 2.354 0 0 1-2.555 2.144l-13.288-1.162a2.357 2.357 0 0 1-1.598-.83z"/></g><g><path d="M344.575 111.7c-.39.464-.953.773-1.598.83l-13.293 1.169a2.355 2.355 0 0 1-1.718-.54 2.355 2.355 0 0 1-.83-1.599l-1.17-13.293a2.354 2.354 0 0 1 2.144-2.555 2.354 2.354 0 0 1 2.555 2.144l.963 10.938 10.933-.957a2.354 2.354 0 0 1 2.555 2.144 2.357 2.357 0 0 1-.54 1.718z"/><path d="M352.15 102.67c-.39.466-.953.775-1.597.831a2.354 2.354 0 0 1-2.555-2.143l-.957-10.933-8.589.751.957 10.933a2.354 2.354 0 0 1-2.144 2.555 2.354 2.354 0 0 1-2.555-2.144l-1.168-13.281a2.354 2.354 0 0 1 2.144-2.555l13.288-1.163a2.354 2.354 0 0 1 2.555 2.144l1.162 13.288a2.357 2.357 0 0 1-.54 1.718z"/></g><g><path d="M366.669 140.39a2.343 2.343 0 0 1-1.239-1.307l-4.788-12.456a2.355 2.355 0 0 1 .046-1.8 2.355 2.355 0 0 1 1.308-1.24l12.456-4.787a2.354 2.354 0 0 1 3.046 1.356 2.354 2.354 0 0 1-1.356 3.047l-10.249 3.94 3.933 10.246a2.354 2.354 0 0 1-1.357 3.047 2.357 2.357 0 0 1-1.8-.046z"/><path d="M377.436 145.184a2.343 2.343 0 0 1-1.24-1.307 2.354 2.354 0 0 1 1.357-3.047l10.246-3.933-3.09-8.05-10.245 3.934a2.354 2.354 0 0 1-3.047-1.357 2.354 2.354 0 0 1 1.356-3.047l12.445-4.783a2.354 2.354 0 0 1 3.047 1.356l4.78 12.453a2.354 2.354 0 0 1-1.356 3.047l-12.453 4.78a2.357 2.357 0 0 1-1.8-.046z"/></g><g><path d="M417.669 116.39a2.343 2.343 0 0 1-1.239-1.307l-4.788-12.456a2.355 2.355 0 0 1 .046-1.8 2.355 2.355 0 0 1 1.308-1.24l12.456-4.787a2.354 2.354 0 0 1 3.046 1.356 2.354 2.354 0 0 1-1.356 3.047l-10.249 3.94 3.933 10.246a2.354 2.354 0 0 1-1.357 3.047 2.357 2.357 0 0 1-1.8-.046z"/><path d="M428.436 121.184a2.343 2.343 0 0 1-1.24-1.307 2.354 2.354 0 0 1 1.357-3.047l10.246-3.933-3.09-8.05-10.245 3.934a2.354 2.354 0 0 1-3.047-1.357 2.354 2.354 0 0 1 1.356-3.047l12.445-4.783a2.354 2.354 0 0 1 3.047 1.356l4.78 12.453a2.354 2.354 0 0 1-1.356 3.047l-12.453 4.78a2.357 2.357 0 0 1-1.8-.046z"/></g><g><path d="M404.011 159.902a2.343 2.343 0 0 1-.109-1.797l4.34-12.62a2.355 2.355 0 0 1 1.192-1.35 2.355 2.355 0 0 1 1.797-.108l12.62 4.339a2.354 2.354 0 0 1 1.462 2.998 2.354 2.354 0 0 1-2.998 1.462l-10.384-3.57-3.573 10.377a2.354 2.354 0 0 1-2.997 1.462 2.357 2.357 0 0 1-1.35-1.193z"/><path d="M409.177 170.495a2.343 2.343 0 0 1-.108-1.798 2.354 2.354 0 0 1 2.997-1.462l10.377 3.573 2.807-8.152-10.377-3.573a2.354 2.354 0 0 1-1.462-2.997 2.354 2.354 0 0 1 2.998-1.462l12.608 4.335a2.354 2.354 0 0 1 1.462 2.997l-4.342 12.612a2.354 2.354 0 0 1-2.998 1.462l-12.612-4.342a2.357 2.357 0 0 1-1.35-1.193z"/></g><g><path d="M480.43 138.91a2.343 2.343 0 0 1-1.75.42l-13.182-2.082a2.355 2.355 0 0 1-1.536-.94 2.355 2.355 0 0 1-.42-1.752l2.082-13.181a2.354 2.354 0 0 1 2.699-1.96 2.354 2.354 0 0 1 1.96 2.698l-1.712 10.846 10.84 1.716a2.354 2.354 0 0 1 1.96 2.699 2.357 2.357 0 0 1-.94 1.536z"/><path d="M489.965 131.983a2.343 2.343 0 0 1-1.751.419 2.354 2.354 0 0 1-1.96-2.698l1.716-10.84-8.515-1.348-1.717 10.839a2.354 2.354 0 0 1-2.698 1.96 2.354 2.354 0 0 1-1.96-2.698l2.08-13.17a2.354 2.354 0 0 1 2.697-1.96l13.175 2.087a2.354 2.354 0 0 1 1.96 2.698l-2.087 13.174a2.357 2.357 0 0 1-.94 1.537z"/></g><g><path d="M540.43 147.91a2.343 2.343 0 0 1-1.75.42l-13.182-2.082a2.355 2.355 0 0 1-1.536-.94 2.355 2.355 0 0 1-.42-1.752l2.082-13.181a2.354 2.354 0 0 1 2.699-1.96 2.354 2.354 0 0 1 1.96 2.698l-1.712 10.846 10.84 1.716a2.354 2.354 0 0 1 1.96 2.699 2.357 2.357 0 0 1-.94 1.536z"/><path d="M549.965 140.983a2.343 2.343 0 0 1-1.751.419 2.354 2.354 0 0 1-1.96-2.698l1.716-10.84-8.515-1.348-1.717 10.839a2.354 2.354 0 0 1-2.698 1.96 2.354 2.354 0 0 1-1.96-2.698l2.08-13.17a2.354 2.354 0 0 1 2.697-1.96l13.175 2.087a2.354 2.354 0 0 1 1.96 2.698l-2.087 13.174a2.357 2.357 0 0 1-.94 1.537z"/></g></g></svg>