<svg xmlns="http://www.w3.org/2000/svg" viewBox="0 0 605 180"><title>full-color-ruby-alt</title><g fill-rule="evenodd"><path d="M50.464 37.053c8.61-4.971 11.56-15.98 6.589-24.589-4.971-8.61-15.98-11.559-24.589-6.588-8.61 4.97-11.559 15.979-6.588 24.588 4.97 8.61 15.979 11.56 24.588 6.589zM42.2 7.43l-5.63 3.25 7.084 3.023L42.2 7.43zm-8.573 12.062l.925-7.646-5.63 3.25 4.705 4.396zm2.71-6.884l-.99 8.194 8.582-4.955-7.591-3.24zm8.228 5.025l-7.99 4.612 11.56 10.798-3.57-15.41zm1.248-2.873l6.76-3.904-8.471-3.479 1.71 7.383zm.44 1.898l3.601 15.543 3.55-19.671-7.151 4.128zm-19.53 9.123l6.74-3.892-5.536-5.17-1.204 9.062zm8.164-2.561l-7.174 4.142 18.839 6.753L34.887 23.22zM75.119 72.36c9.79 1.727 19.126-4.81 20.852-14.6 1.726-9.79-4.81-19.126-14.6-20.853-9.79-1.726-19.127 4.811-20.853 14.601-1.726 9.79 4.81 19.126 14.601 20.852zm12.71-28.004l-6.402-1.128 3.484 6.868 2.919-5.74zm-14.32 3.73l5.623-5.263-6.402-1.13.78 6.392zm6.501-3.532l-6.026 5.64 9.76 1.721-3.734-7.36zm3.072 9.138l-9.084-1.602 1.915 15.703 7.17-14.101zm2.803-1.4l7.688 1.356-4.253-8.11-3.435 6.755zm-.883 1.738L77.77 68.252l15.363-12.788-8.131-1.434zm-20.824-5.565l7.664 1.352-.917-7.52-6.747 6.168zm7.9 3.286l-8.158-1.438 10.09 17.282-1.932-15.844zM140.464 46.053c8.61-4.971 11.56-15.98 6.589-24.589-4.971-8.61-15.98-11.559-24.589-6.588-8.61 4.97-11.559 15.979-6.588 24.588 4.97 8.61 15.979 11.56 24.588 6.589zM132.2 16.43l-5.63 3.25 7.084 3.023-1.454-6.273zm-8.573 12.062l.925-7.646-5.63 3.25 4.705 4.396zm2.71-6.884l-.99 8.194 8.582-4.955-7.591-3.24zm8.228 5.025l-7.99 4.612 11.56 10.798-3.57-15.41zm1.248-2.873l6.76-3.904-8.471-3.479 1.71 7.383zm.44 1.898l3.601 15.543 3.55-19.671-7.151 4.128zm-19.53 9.123l6.74-3.892-5.536-5.17-1.204 9.062zm8.164-2.561l-7.174 4.142 18.839 6.753-11.665-10.895zM192.234 52.041c9.342 3.4 19.671-1.416 23.071-10.758 3.4-9.341-1.416-19.67-10.758-23.07-9.342-3.4-19.67 1.416-23.07 10.757-3.4 9.342 1.416 19.671 10.757 23.071zm17.38-25.371l-6.108-2.224 2.238 7.37 3.87-5.146zm-14.75 1.186l6.451-4.207-6.108-2.223-.343 6.43zm7.016-2.349l-6.914 4.508 9.312 3.39-2.398-7.898zm1.439 9.532l-8.67-3.155-.84 15.797 9.51-12.642zm3.003-.89l7.335 2.67-2.78-8.727-4.555 6.056zm-1.172 1.557l-9.591 12.75 17.35-9.926-7.759-2.824zm-19.542-9.097l7.314 2.662.403-7.565-7.717 4.903zm7.21 4.608l-7.784-2.833 6.936 18.772.848-15.939zM271.464 43.053c8.61-4.971 11.56-15.98 6.589-24.589-4.971-8.61-15.98-11.559-24.589-6.588-8.61 4.97-11.559 15.979-6.588 24.588 4.97 8.61 15.979 11.56 24.588 6.589zM263.2 13.43l-5.63 3.25 7.084 3.023-1.454-6.273zm-8.573 12.062l.925-7.646-5.63 3.25 4.705 4.396zm2.71-6.884l-.99 8.194 8.582-4.955-7.591-3.24zm8.228 5.025l-7.99 4.612 11.56 10.798-3.57-15.41zm1.248-2.873l6.76-3.904-8.471-3.479 1.71 7.383zm.44 1.898l3.601 15.543 3.55-19.671-7.151 4.128zm-19.53 9.123l6.74-3.892-5.536-5.17-1.204 9.062zm8.164-2.561l-7.174 4.142 18.839 6.753-11.665-10.895zM346.098 51.918c8.521 5.12 19.58 2.363 24.7-6.158 5.12-8.522 2.362-19.58-6.159-24.7-8.521-5.12-19.58-2.363-24.7 6.158-5.12 8.521-2.362 19.58 6.159 24.7zM368 30.329l-5.572-3.348.79 7.66L368 30.33zm-14.706-1.65l7.135-2.899-5.572-3.348-1.563 6.246zm7.335-.968l-7.647 3.106 8.494 5.104-.847-8.21zm-.406 9.632l-7.908-4.751-3.84 15.346 11.748-10.595zm3.118-.301l6.691 4.02-1.064-9.096-5.627 5.076zm-1.448 1.305l-11.848 10.685 18.926-6.433-7.078-4.252zm-17.447-12.658l6.672 4.008 1.838-7.349-8.51 3.34zm6.199 5.899l-7.102-4.267 3.227 19.75 3.875-15.483zM441.604 47.405c6.906-7.15 6.707-18.546-.444-25.452-7.151-6.906-18.546-6.707-25.452.444-6.906 7.151-6.707 18.547.444 25.452 7.151 6.906 18.546 6.707 25.452-.444zm-16.109-26.197l-4.516 4.676 7.643.953-3.127-5.63zm-4.916 13.957l-1.219-7.604-4.515 4.676 5.734 2.928zm.708-7.364l1.306 8.15 6.884-7.129-8.19-1.02zm9.293 2.563L424.172 37l14.089 7.193-7.68-13.83zm.408-3.106l5.423-5.616-9.102-1.01 3.679 6.626zm.946 1.704l7.747 13.948-2.011-19.888-5.736 5.94zm-16.258 14.152l5.406-5.599-6.747-3.444 1.34 9.043zm7.142-4.712l-5.755 5.959 19.97 1.299-14.215-7.258zM519.167 40.447c8.043-5.843 9.826-17.1 3.983-25.142-5.844-8.043-17.1-9.826-25.143-3.982-8.042 5.843-9.825 17.1-3.982 25.142 5.843 8.043 17.1 9.825 25.142 3.982zm-11.314-28.596l-5.26 3.82 7.36 2.266-2.1-6.086zm-7.266 12.891l.12-7.7-5.259 3.821 5.139 3.88zm1.976-7.129l-.129 8.253 8.017-5.825-7.888-2.428zm8.707 4.137l-7.463 5.423 12.626 9.53-5.163-14.953zm.941-2.987l6.316-4.589-8.79-2.575 2.474 7.164zm.636 1.842l5.207 15.081 1.473-19.934-6.68 4.853zm-18.469 11.114l6.297-4.575-6.047-4.564-.25 9.139zm7.852-3.4l-6.702 4.869 19.441 4.747-12.739-9.617zM544.014 65.476c8.241 5.559 19.429 3.384 24.988-4.858 5.56-8.241 3.384-19.429-4.857-24.988-8.242-5.559-19.43-3.384-24.988 4.857-5.56 8.242-3.385 19.43 4.857 24.989zm23.002-20.413l-5.39-3.636.39 7.692 5-4.056zm-14.6-2.419l7.278-2.52-5.39-3.635-1.887 6.155zm7.376-.581l-7.8 2.701 8.216 5.542-.416-8.243zm-.91 9.597l-7.648-5.159-4.637 15.124 12.285-9.965zm3.13-.138l6.471 4.365-.586-9.139-5.885 4.774zm-1.514 1.228l-12.39 10.05 19.235-5.433-6.845-4.617zm-16.76-13.554l6.452 4.352 2.22-7.242-8.673 2.89zm5.88 6.215l-6.868-4.632 2.189 19.893 4.68-15.26zM16.234 93.041c9.342 3.4 19.671-1.416 23.071-10.758 3.4-9.341-1.416-19.67-10.758-23.07-9.342-3.4-19.67 1.416-23.07 10.757-3.4 9.342 1.416 19.671 10.757 23.071zm17.38-25.371l-6.108-2.224 2.238 7.37 3.87-5.146zm-14.75 1.186l6.451-4.207-6.108-2.223-.343 6.43zm7.016-2.349l-6.914 4.508 9.312 3.39-2.398-7.898zm1.439 9.532l-8.67-3.155-.84 15.797 9.51-12.642zm3.003-.89l7.335 2.67-2.78-8.727-4.555 6.056zm-1.172 1.557l-9.591 12.75 17.35-9.926-7.759-2.824zM9.608 67.609l7.314 2.662.403-7.565-7.717 4.903zm7.21 4.608l-7.784-2.833 6.936 18.772.848-15.939zM130.464 101.053c8.61-4.971 11.56-15.98 6.589-24.589-4.971-8.61-15.98-11.559-24.589-6.588-8.61 4.97-11.559 15.979-6.588 24.588 4.97 8.61 15.979 11.56 24.588 6.589zM122.2 71.43l-5.63 3.25 7.084 3.023-1.454-6.273zm-8.573 12.062l.925-7.646-5.63 3.25 4.705 4.396zm2.71-6.884l-.99 8.194 8.582-4.955-7.591-3.24zm8.228 5.025l-7.99 4.612 11.56 10.798-3.57-15.41zm1.248-2.873l6.76-3.904-8.471-3.479 1.71 7.383zm.44 1.898l3.601 15.543 3.55-19.671-7.151 4.128zm-19.53 9.123l6.74-3.892-5.536-5.17-1.204 9.062zm8.164-2.561l-7.174 4.142 18.839 6.753-11.665-10.895zM171 95c9.941 0 18-8.059 18-18s-8.059-18-18-18-18 8.059-18 18 8.059 18 18 18zm7.655-29.786h-6.501l4.623 6.16 1.878-6.16zm-13.456 6.16l4.624-6.16h-6.5l1.876 6.16zm5.79-4.607l-4.956 6.6h9.91l-4.955-6.6zm4.612 8.465h-9.225l4.612 15.132 4.613-15.132zm2.517-1.864h7.807l-5.597-7.249-2.21 7.249zm-.568 1.864l-4.652 15.262 12.909-15.262h-8.257zm-21.475-1.864h7.783l-2.209-7.246-5.574 7.246zm8.352 1.864h-8.285L169.08 90.5l-4.653-15.268zM243.464 91.053c8.61-4.971 11.56-15.98 6.589-24.589-4.971-8.61-15.98-11.559-24.589-6.588-8.61 4.97-11.559 15.979-6.588 24.588 4.97 8.61 15.979 11.56 24.588 6.589zM235.2 61.43l-5.63 3.25 7.084 3.023-1.454-6.273zm-8.573 12.062l.925-7.646-5.63 3.25 4.705 4.396zm2.71-6.884l-.99 8.194 8.582-4.955-7.591-3.24zm8.228 5.025l-7.99 4.612 11.56 10.798-3.57-15.41zm1.248-2.873l6.76-3.904-8.471-3.479 1.71 7.383zm.44 1.898l3.601 15.543 3.55-19.671-7.151 4.128zm-19.53 9.123l6.74-3.892-5.536-5.17-1.204 9.062zm8.164-2.561l-7.174 4.142 18.839 6.753-11.665-10.895zM284.76 118.971c9.79-1.726 16.327-11.062 14.6-20.852-1.726-9.79-11.062-16.327-20.852-14.6-9.79 1.725-16.327 11.061-14.6 20.851 1.726 9.79 11.061 16.327 20.851 14.601zm2.366-30.662l-6.403 1.129 5.623 5.262.78-6.391zm-12.182 8.402l3.484-6.869-6.402 1.13 2.918 5.739zm4.901-5.542l-3.733 7.361 9.76-1.72-6.027-5.64zm6.013 7.536l-9.085 1.602 7.17 14.1 1.915-15.702zm2.155-2.273l7.688-1.356-6.77-6.167-.918 7.523zm-.236 1.934l-1.931 15.838 10.063-17.272-8.132 1.434zm-21.472 1.893l7.665-1.351-3.434-6.753-4.23 8.104zm8.548.386l-8.158 1.439 15.393 12.789-7.235-14.228zM311.76 78.971c9.79-1.726 16.327-11.062 14.6-20.852-1.726-9.79-11.062-16.327-20.852-14.6-9.79 1.725-16.327 11.061-14.6 20.851 1.726 9.79 11.061 16.327 20.851 14.601zm2.366-30.662l-6.403 1.129 5.623 5.262.78-6.391zm-12.182 8.402l3.484-6.869-6.402 1.13 2.918 5.739zm4.901-5.542l-3.733 7.361 9.76-1.72-6.027-5.64zm6.013 7.536l-9.085 1.602 7.17 14.1 1.915-15.702zm2.155-2.273l7.688-1.356-6.77-6.167-.918 7.523zm-.236 1.934l-1.931 15.838 10.063-17.272-8.132 1.434zm-21.472 1.893l7.665-1.351-3.434-6.753-4.23 8.104zm8.548.386l-8.158 1.439 15.393 12.789-7.235-14.228zM396.167 88.447c8.043-5.843 9.826-17.1 3.983-25.142-5.844-8.043-17.1-9.826-25.143-3.982-8.042 5.843-9.825 17.1-3.982 25.142 5.843 8.043 17.1 9.825 25.142 3.982zm-11.314-28.596l-5.26 3.82 7.36 2.266-2.1-6.086zm-7.266 12.891l.12-7.7-5.259 3.821 5.139 3.88zm1.976-7.129l-.129 8.253 8.017-5.825-7.888-2.428zm8.707 4.137l-7.463 5.423 12.626 9.53-5.163-14.953zm.941-2.987l6.316-4.589-8.79-2.575 2.474 7.164zm.636 1.842l5.207 15.081 1.473-19.934-6.68 4.853zm-18.469 11.114l6.297-4.575-6.047-4.564-.25 9.139zm7.852-3.4l-6.702 4.869 19.441 4.747-12.739-9.617zM457.706 86.725c9.082 4.043 19.722-.04 23.765-9.123 4.043-9.081-.04-19.721-9.123-23.765-9.081-4.043-19.721.041-23.765 9.123-4.043 9.082.041 19.722 9.123 23.765zm19.108-24.097l-5.94-2.644 1.72 7.507 4.22-4.863zm-14.797.154l6.728-3.747-5.938-2.644-.79 6.39zm7.162-1.854l-7.212 4.015 9.053 4.03-1.841-8.045zm.77 9.61l-8.427-3.753-1.94 15.7 10.367-11.948zm3.058-.68l7.132 3.175-2.165-8.898-4.967 5.723zm-1.277 1.472l-10.457 12.05 18-8.691-7.543-3.359zm-18.86-10.437l7.11 3.165.93-7.518-8.04 4.353zm6.871 5.1l-7.568-3.37 5.61 19.21 1.958-15.84zM515.456 106.225c9.917.694 18.518-6.783 19.211-16.7.694-9.917-6.783-18.518-16.7-19.212-9.917-.693-18.518 6.784-19.212 16.7-.693 9.918 6.784 18.519 16.7 19.212zm9.713-29.179l-6.485-.453 4.183 6.466 2.302-6.013zm-13.852 5.206l5.042-5.822-6.485-.453 1.443 6.275zm6.097-4.192l-5.404 6.24 9.886.69-4.482-6.93zm4.01 8.767l-9.202-.644 3.545 15.417 5.657-14.773zm2.641-1.684l7.788.544-5.078-7.622-2.71 7.078zm-.697 1.82l-5.705 14.9 13.942-14.324-8.237-.576zm-21.292-3.358l7.764.543-1.698-7.383-6.066 6.84zm8.201 2.442l-8.264-.578 11.842 16.133-3.578-15.555zM589.167 109.447c8.043-5.843 9.826-17.1 3.983-25.142-5.844-8.043-17.1-9.826-25.143-3.982-8.042 5.843-9.825 17.1-3.982 25.142 5.843 8.043 17.1 9.825 25.142 3.982zm-11.314-28.596l-5.26 3.82 7.36 2.266-2.1-6.086zm-7.266 12.891l.12-7.7-5.259 3.821 5.139 3.88zm1.976-7.129l-.129 8.253 8.017-5.825-7.888-2.428zm8.707 4.137l-7.463 5.423 12.626 9.53-5.163-14.953zm.941-2.987l6.316-4.589-8.79-2.575 2.474 7.164zm.636 1.842l5.207 15.081 1.473-19.934-6.68 4.853zm-18.469 11.114l6.297-4.575-6.047-4.564-.25 9.139zm7.852-3.4l-6.702 4.869 19.441 4.747-12.739-9.617zM54.234 122.041c9.342 3.4 19.671-1.416 23.071-10.758 3.4-9.341-1.416-19.67-10.758-23.07-9.342-3.4-19.67 1.416-23.07 10.757-3.4 9.342 1.416 19.671 10.757 23.071zm17.38-25.371l-6.108-2.224 2.238 7.37 3.87-5.146zm-14.75 1.186l6.451-4.207-6.108-2.223-.343 6.43zm7.016-2.349l-6.914 4.508 9.312 3.39-2.398-7.898zm1.439 9.532l-8.67-3.155-.84 15.797 9.51-12.642zm3.003-.89l7.335 2.67-2.78-8.727-4.555 6.056zm-1.172 1.557l-9.591 12.75 17.35-9.926-7.759-2.824zm-19.542-9.097l7.314 2.662.403-7.565-7.717 4.903zm7.21 4.608l-7.784-2.833 6.936 18.772.848-15.939zM39.283 158.305c9.342-3.4 14.158-13.73 10.758-23.07-3.4-9.342-13.729-14.159-23.07-10.759-9.342 3.4-14.159 13.73-10.759 23.071 3.4 9.342 13.73 14.158 23.071 10.758zm-2.994-30.607l-6.109 2.223 6.451 4.206-.342-6.43zm-10.537 10.39l2.238-7.37-6.109 2.224 3.87 5.145zm3.864-6.31l-2.399 7.898 9.313-3.39-6.914-4.507zm7.23 6.378l-8.67 3.155 9.51 12.641-.84-15.796zm1.727-2.613l7.336-2.67-7.738-4.897.402 7.567zm.104 1.946l.848 15.932 6.911-18.756-7.759 2.824zm-20.817 5.593l7.314-2.662-4.554-6.054-2.76 8.716zm8.485-1.104l-7.784 2.833 17.38 9.922-9.596-12.755zM92 162c9.941 0 18-8.059 18-18s-8.059-18-18-18-18 8.059-18 18 8.059 18 18 18zm7.655-29.786h-6.501l4.623 6.16 1.878-6.16zm-13.456 6.16l4.624-6.16h-6.5l1.876 6.16zm5.79-4.607l-4.956 6.6h9.91l-4.955-6.6zm4.612 8.465h-9.225l4.612 15.132 4.613-15.132zm2.517-1.864h7.807l-5.597-7.249-2.21 7.249zm-.568 1.864l-4.652 15.262 12.909-15.262H98.55zm-21.475-1.864h7.783l-2.209-7.246-5.574 7.246zm8.352 1.864h-8.285L90.08 157.5l-4.653-15.268zM137.234 144.041c9.342 3.4 19.671-1.416 23.071-10.758 3.4-9.341-1.416-19.67-10.758-23.07-9.342-3.4-19.67 1.416-23.07 10.757-3.4 9.342 1.416 19.671 10.757 23.071zm17.38-25.371l-6.108-2.224 2.238 7.37 3.87-5.146zm-14.75 1.186l6.451-4.207-6.108-2.223-.343 6.43zm7.016-2.349l-6.914 4.508 9.312 3.39-2.398-7.898zm1.439 9.532l-8.67-3.155-.84 15.797 9.51-12.642zm3.003-.89l7.335 2.67-2.78-8.727-4.555 6.056zm-1.172 1.557l-9.591 12.75 17.35-9.926-7.759-2.824zm-19.542-9.097l7.314 2.662.403-7.565-7.717 4.903zm7.21 4.608l-7.784-2.833 6.936 18.772.848-15.939zM191.234 136.041c9.342 3.4 19.671-1.416 23.071-10.758 3.4-9.341-1.416-19.67-10.758-23.07-9.342-3.4-19.67 1.416-23.07 10.757-3.4 9.342 1.416 19.671 10.757 23.071zm17.38-25.371l-6.108-2.224 2.238 7.37 3.87-5.146zm-14.75 1.186l6.451-4.207-6.108-2.223-.343 6.43zm7.016-2.349l-6.914 4.508 9.312 3.39-2.398-7.898zm1.439 9.532l-8.67-3.155-.84 15.797 9.51-12.642zm3.003-.89l7.335 2.67-2.78-8.727-4.555 6.056zm-1.172 1.557l-9.591 12.75 17.35-9.926-7.759-2.824zm-19.542-9.097l7.314 2.662.403-7.565-7.717 4.903zm7.21 4.608l-7.784-2.833 6.936 18.772.848-15.939zM203.464 176.053c8.61-4.971 11.56-15.98 6.589-24.589-4.971-8.61-15.98-11.559-24.589-6.588-8.61 4.97-11.559 15.979-6.588 24.588 4.97 8.61 15.979 11.56 24.588 6.589zM195.2 146.43l-5.63 3.25 7.084 3.023-1.454-6.273zm-8.573 12.062l.925-7.646-5.63 3.25 4.705 4.396zm2.71-6.884l-.99 8.194 8.582-4.955-7.591-3.24zm8.228 5.025l-7.99 4.612 11.56 10.798-3.57-15.41zm1.248-2.873l6.76-3.904-8.471-3.479 1.71 7.383zm.44 1.898l3.601 15.543 3.55-19.671-7.151 4.128zm-19.53 9.123l6.74-3.892-5.536-5.17-1.204 9.062zm8.164-2.561l-7.174 4.142 18.839 6.753-11.665-10.895zM263.464 158.053c8.61-4.971 11.56-15.98 6.589-24.589-4.971-8.61-15.98-11.559-24.589-6.588-8.61 4.97-11.559 15.979-6.588 24.588 4.97 8.61 15.979 11.56 24.588 6.589zM255.2 128.43l-5.63 3.25 7.084 3.023-1.454-6.273zm-8.573 12.062l.925-7.646-5.63 3.25 4.705 4.396zm2.71-6.884l-.99 8.194 8.582-4.955-7.591-3.24zm8.228 5.025l-7.99 4.612 11.56 10.798-3.57-15.41zm1.248-2.873l6.76-3.904-8.471-3.479 1.71 7.383zm.44 1.898l3.601 15.543 3.55-19.671-7.151 4.128zm-19.53 9.123l6.74-3.892-5.536-5.17-1.204 9.062zm8.164-2.561l-7.174 4.142 18.839 6.753-11.665-10.895zM289.718 157.206c6.39 7.615 17.744 8.608 25.36 2.218 7.614-6.39 8.608-17.744 2.218-25.359-6.39-7.615-17.744-8.609-25.36-2.218-7.615 6.39-8.608 17.743-2.218 25.359zm27.738-13.283l-4.18-4.98-1.745 7.501 5.925-2.52zm-13.367-6.348l7.69-.417-4.179-4.98-3.511 5.397zm7.25 1.474l-8.242.447 6.37 7.591 1.871-8.038zm-3.52 8.974l-5.93-7.066-8.627 13.26 14.557-6.194zm3.046.73l5.018 5.98 1.955-8.946-6.973 2.966zm-1.794.763l-14.68 6.247 19.988.079-5.308-6.326zm-12.375-17.648l5.003 5.962 4.13-6.35-9.133.388zm3.94 7.595l-5.325-6.346-3.38 19.725 8.705-13.379zM353.424 111.077c6.39-7.615 5.397-18.969-2.218-25.359-7.616-6.39-18.97-5.397-25.36 2.219-6.39 7.615-5.396 18.969 2.22 25.359 7.614 6.39 18.968 5.396 25.358-2.219zm-17.897-25.01l-4.178 4.98 7.69.418-3.512-5.398zm-3.93 14.267l-1.747-7.5-4.178 4.979 5.924 2.52zm.192-7.396l1.871 8.039 6.37-7.591-8.241-.448zm9.45 1.908l-5.93 7.067 14.556 6.193-8.627-13.26zm.19-3.127l5.017-5.98-9.15-.372 4.132 6.352zm1.062 1.634l8.7 13.374-3.392-19.699-5.308 6.325zm-15.231 15.252l5.002-5.962-6.97-2.966 1.968 8.928zm6.796-5.199l-5.325 6.346 20.012-.097-14.687-6.249zM369.706 148.725c9.082 4.043 19.722-.04 23.765-9.123 4.043-9.081-.04-19.721-9.123-23.765-9.081-4.043-19.721.041-23.765 9.123-4.043 9.082.041 19.722 9.123 23.765zm19.108-24.097l-5.94-2.644 1.72 7.507 4.22-4.863zm-14.797.154l6.728-3.747-5.938-2.644-.79 6.39zm7.162-1.854l-7.212 4.015 9.053 4.03-1.841-8.045zm.77 9.61l-8.427-3.753-1.94 15.7 10.367-11.948zm3.058-.68l7.132 3.175-2.165-8.898-4.967 5.723zm-1.277 1.472l-10.457 12.05 18-8.691-7.543-3.359zm-18.86-10.437l7.11 3.165.93-7.518-8.04 4.353zm6.871 5.1l-7.568-3.37 5.61 19.21 1.958-15.84zM420.706 124.725c9.082 4.043 19.722-.04 23.765-9.123 4.043-9.081-.04-19.721-9.123-23.765-9.081-4.043-19.721.041-23.765 9.123-4.043 9.082.041 19.722 9.123 23.765zm19.108-24.097l-5.94-2.644 1.72 7.507 4.22-4.863zm-14.797.154l6.728-3.747-5.938-2.644-.79 6.39zm7.162-1.854l-7.212 4.015 9.053 4.03-1.841-8.045zm.77 9.61l-8.427-3.753-1.94 15.7 10.367-11.948zm3.058-.68l7.132 3.175-2.165-8.898-4.967 5.723zm-1.277 1.472l-10.457 12.05 18-8.691-7.543-3.359zm-18.86-10.437l7.11 3.165.93-7.518-8.04 4.353zm6.871 5.1l-7.568-3.37 5.61 19.21 1.958-15.84zM400.98 168.24c4.358 8.934 15.134 12.645 24.069 8.287 8.935-4.358 12.646-15.134 8.288-24.069-4.358-8.935-15.134-12.646-24.07-8.288-8.934 4.358-12.645 15.134-8.287 24.07zm30.127-6.178l-2.85-5.843-3.509 6.856 6.359-1.013zm-11.434-9.394l7.562 1.456-2.85-5.843-4.712 4.387zm6.678 3.184l-8.105-1.56 4.344 8.907 3.76-7.347zm-5.587 7.857l-4.044-8.292-11.578 10.78 15.622-2.488zm2.78 1.445l3.421 7.017 4.062-8.208-7.484 1.191zm-1.925.307l-15.757 2.509 19.376 4.912-3.62-7.421zm-7.739-20.119l3.412 6.996 5.545-5.162-8.957-1.834zm1.986 8.324l-3.632-7.446-8.05 18.321 11.682-10.875zM489.167 140.447c8.043-5.843 9.826-17.1 3.983-25.142-5.844-8.043-17.1-9.826-25.143-3.982-8.042 5.843-9.825 17.1-3.982 25.142 5.843 8.043 17.1 9.825 25.142 3.982zm-11.314-28.596l-5.26 3.82 7.36 2.266-2.1-6.086zm-7.266 12.891l.12-7.7-5.259 3.821 5.139 3.88zm1.976-7.129l-.129 8.253 8.017-5.825-7.888-2.428zm8.707 4.137l-7.463 5.423 12.626 9.53-5.163-14.953zm.941-2.987l6.316-4.589-8.79-2.575 2.474 7.164zm.636 1.842l5.207 15.081 1.473-19.934-6.68 4.853zm-18.469 11.114l6.297-4.575-6.047-4.564-.25 9.139zm7.852-3.4l-6.702 4.869 19.441 4.747-12.739-9.617zM549.167 149.447c8.043-5.843 9.826-17.1 3.983-25.142-5.844-8.043-17.1-9.826-25.143-3.982-8.042 5.843-9.825 17.1-3.982 25.142 5.843 8.043 17.1 9.825 25.142 3.982zm-11.314-28.596l-5.26 3.82 7.36 2.266-2.1-6.086zm-7.266 12.891l.12-7.7-5.259 3.821 5.139 3.88zm1.976-7.129l-.129 8.253 8.017-5.825-7.888-2.428zm8.707 4.137l-7.463 5.423 12.626 9.53-5.163-14.953zm.941-2.987l6.316-4.589-8.79-2.575 2.474 7.164zm.636 1.842l5.207 15.081 1.473-19.934-6.68 4.853zm-18.469 11.114l6.297-4.575-6.047-4.564-.25 9.139zm7.852-3.4l-6.702 4.869 19.441 4.747-12.739-9.617z"/></g></svg>