<svg xmlns="http://www.w3.org/2000/svg" viewBox="0 0 605 180"><title>full-color-codeship</title><g fill-rule="evenodd"><path d="M55.792 13.326c4.552 7.883 1.85 17.963-6.032 22.515-7.884 4.551-17.964 1.85-22.515-6.033-4.552-7.884-1.85-17.964 6.032-22.515 7.884-4.552 17.964-1.85 22.515 6.033"/><path d="M50.45 37.027c-4.158 2.4-9 3.037-13.637 1.795a17.852 17.852 0 0 1-10.912-8.373c-2.4-4.157-3.037-9-1.795-13.636A17.852 17.852 0 0 1 32.48 5.901c4.157-2.4 9-3.037 13.636-1.795a17.853 17.853 0 0 1 10.912 8.373c2.4 4.157 3.037 9 1.795 13.636a17.852 17.852 0 0 1-8.373 10.912zM33.46 7.599A15.905 15.905 0 0 0 26 17.32a15.905 15.905 0 0 0 1.6 12.15 15.905 15.905 0 0 0 9.72 7.458 15.905 15.905 0 0 0 12.15-1.599 15.905 15.905 0 0 0 7.458-9.721 15.905 15.905 0 0 0-1.599-12.149A15.905 15.905 0 0 0 45.608 6a15.905 15.905 0 0 0-12.149 1.6z"/><path d="M34.123 20.379c-.496-.859-.96-1.674-1.438-2.483-.11-.185-.03-.318.063-.46.411-.622.954-1.127 1.483-1.644 2.163-2.114 4.791-3.304 7.723-3.885.768-.152.772-.133 1.158.536l1.181 2.046c-.092.071-.172.037-.246.03-2.014-.155-4.002.02-5.975.43a1.083 1.083 0 0 0-.64.378c-1.276 1.48-2.366 3.082-3.207 4.85-.025.052-.052.102-.102.202M33.308 12.908c-.193-.334-.368-.68-.584-1-.176-.26-.126-.477.031-.707.345-.504.788-.912 1.271-1.275.8-.599 1.708-.947 2.69-1.101.575-.09.643-.049.927.443.372.643.739 1.288 1.116 1.927.101.17.121.247-.11.326a12.659 12.659 0 0 0-4.409 2.557c-.162.145-.214.086-.296-.063-.206-.373-.423-.738-.636-1.107"/><path d="M55.073 18.42c-.622-.03-1.243-.097-1.865-.118-1.255-.042-2.51-.05-3.745.234-.374.087-.754.177-1.033.479-.274.297-.43.66-.564 1.03-.286.793-.463 1.618-.694 2.426-.028.096-.008.22-.123.277-.059-.03-.057-.083-.068-.13-.477-2.03-.551-4.068-.099-6.112.047-.212.013-.285-.21-.327-2.634-.492-5.263-.547-7.893.02a.844.844 0 0 0-.497.281c-1.751 2.05-3.113 4.324-3.996 6.878-.068.196-.016.244.166.298 1.35.407 2.573 1.064 3.694 1.912.486.368.984.726 1.38 1.2.644.68 1.886 2.414 2.035 2.449-1.452.425-1.79.433-2.817.506-1.348.095-2.61.392-3.76 1.153a8.481 8.481 0 0 0-1.764 1.556c-.096.11-.269.395-.162.467.043.04.057.035.104.069a13.687 13.687 0 0 0 4.983 2.28c3.696.855 7.215.375 10.509-1.515 2.163-1.24 3.856-2.978 5.085-5.148 1.75-3.087 2.316-6.38 1.656-9.876-.039-.205-.118-.279-.322-.29zm-12.58 3.715c1.03 1.867 1.294 2.884 1.92 4.293.049.108.157.4.157.4l-.304-.32c-.844-1.121-1.482-1.96-2.318-3.087a27.027 27.027 0 0 1-1.83-2.838c-.327-.58-.433-1.286-.64-1.936-.134-.426-.268-.807-.384-1.287a54.113 54.113 0 0 0 1.696 1.845c.814.84 1.157 1.943 1.703 2.93z"/><path d="M39.553 26.814c.885.312 1.808.382 2.735.39.65.005 1.3-.053 1.93-.24.102-.03.61-.199.732-.255.161-.075.266-.123.49-.24-.394.533-.793 1.008-1.265 1.404-1.425 1.082-2.857 1.715-4.604 1.868-1.073.095-2.14.138-3.16.534a7.881 7.881 0 0 0-3.276 2.406c-.044.054-.033.166-.077.218-.468-.3-.864-.687-1.277-1.055-.101-.09-.101-.09-.052-.292.612-1.788 1.58-3.297 3.317-4.19 1.275-.656 2.633-.805 4.04-.614l.467.066M94.452 57.61c-1.58 8.964-10.13 14.95-19.094 13.37-8.964-1.582-14.95-10.13-13.37-19.095 1.581-8.964 10.13-14.95 19.094-13.37 8.965 1.581 14.95 10.13 13.37 19.094"/><path d="M75.124 72.331a17.852 17.852 0 0 1-11.6-7.39 17.852 17.852 0 0 1-2.977-13.428 17.853 17.853 0 0 1 7.39-11.6 17.852 17.852 0 0 1 13.428-2.976 17.852 17.852 0 0 1 11.6 7.39 17.853 17.853 0 0 1 2.977 13.427 17.852 17.852 0 0 1-7.39 11.6 17.852 17.852 0 0 1-13.428 2.977zm5.9-33.464c-4.21-.742-8.46.2-11.962 2.652a15.905 15.905 0 0 0-6.584 10.335c-.743 4.211.2 8.46 2.652 11.963A15.905 15.905 0 0 0 75.465 70.4c4.211.743 8.46-.199 11.963-2.652a15.905 15.905 0 0 0 6.583-10.334c.743-4.212-.199-8.46-2.652-11.963a15.905 15.905 0 0 0-10.334-6.584z"/><path d="M73.319 49.084c.172-.977.34-1.9.494-2.826.035-.213.181-.264.343-.313.716-.212 1.456-.25 2.194-.306 3.016-.229 5.794.55 8.413 1.988.686.377.677.394.543 1.155l-.41 2.327c-.117-.005-.156-.082-.21-.135-1.441-1.413-3.077-2.557-4.852-3.512a1.083 1.083 0 0 0-.733-.121c-1.929.314-3.794.84-5.574 1.654l-.208.089M77.497 42.837c.067-.38.154-.758.194-1.141.033-.313.21-.447.479-.522.588-.165 1.19-.193 1.793-.16.998.055 1.917.372 2.769.886.498.3.524.376.425.935-.129.731-.262 1.462-.383 2.194-.033.195-.067.267-.295.178a12.659 12.659 0 0 0-5.02-.874c-.217.006-.22-.073-.187-.24.082-.417.15-.837.225-1.256"/><path d="M90.626 61.05c-.457-.424-.889-.874-1.352-1.29-.934-.839-1.891-1.651-3.02-2.227-.342-.175-.69-.35-1.098-.298-.402.051-.754.23-1.096.428-.729.422-1.393.94-2.09 1.411-.083.056-.147.164-.272.133-.026-.061.009-.1.031-.143.94-1.862 2.193-3.47 3.853-4.745.173-.133.193-.21.049-.386-1.701-2.07-3.68-3.802-6.059-5.06a.844.844 0 0 0-.561-.103c-2.66.445-5.164 1.311-7.483 2.7-.177.107-.168.177-.064.336.772 1.179 1.288 2.469 1.601 3.839.136.594.287 1.188.286 1.805.057.936-.107 3.062-.015 3.185-1.386-.608-1.65-.818-2.484-1.423-1.094-.794-2.25-1.376-3.62-1.533a8.481 8.481 0 0 0-2.353.057c-.144.022-.46.13-.425.254.009.058.022.063.036.12a13.687 13.687 0 0 0 2.352 4.95c2.282 3.03 5.285 4.924 9.024 5.594 2.454.44 4.868.197 7.205-.675 3.324-1.24 5.874-3.399 7.616-6.501.102-.182.09-.29-.06-.429zm-12.025-5.24c-.41 2.092-.862 3.04-1.287 4.522-.033.114-.138.407-.138.407l-.027-.44c.074-1.402.125-2.454.209-3.855.067-1.126.215-2.247.422-3.35.122-.656.495-1.264.755-1.894.17-.414.312-.792.533-1.233.02.832.053 1.674.112 2.503.084 1.166-.362 2.232-.579 3.34z"/><path d="M73.341 57.504c.478.808 1.14 1.455 1.845 2.056.495.422 1.03.795 1.633 1.058.097.042.596.24.725.274.171.047.282.077.53.13-.645.156-1.256.264-1.872.264-1.787-.087-3.291-.522-4.728-1.528-.883-.618-1.728-1.271-2.764-1.623a7.881 7.881 0 0 0-4.056-.262c-.068.013-.131.106-.2.117-.164-.53-.22-1.082-.3-1.628-.019-.135-.019-.135.148-.258 1.619-.977 3.33-1.51 5.235-1.078 1.398.317 2.534 1.077 3.489 2.127.106.116.21.234.315.351M145.792 22.326c4.552 7.883 1.85 17.963-6.032 22.515-7.884 4.551-17.964 1.85-22.515-6.033-4.552-7.884-1.85-17.964 6.032-22.515 7.884-4.552 17.964-1.85 22.515 6.033"/><path d="M140.45 46.027c-4.158 2.4-9 3.037-13.637 1.795a17.852 17.852 0 0 1-10.912-8.373c-2.4-4.157-3.037-9-1.795-13.636a17.852 17.852 0 0 1 8.373-10.912c4.157-2.4 9-3.037 13.636-1.795a17.853 17.853 0 0 1 10.912 8.373c2.4 4.157 3.037 9 1.795 13.636a17.852 17.852 0 0 1-8.373 10.912zm-16.99-29.428A15.905 15.905 0 0 0 116 26.32a15.905 15.905 0 0 0 1.6 12.15 15.905 15.905 0 0 0 9.72 7.458 15.905 15.905 0 0 0 12.15-1.599 15.905 15.905 0 0 0 7.458-9.721 15.905 15.905 0 0 0-1.599-12.149 15.905 15.905 0 0 0-9.721-7.46 15.905 15.905 0 0 0-12.149 1.6z"/><path d="M124.123 29.379c-.496-.859-.96-1.674-1.438-2.483-.11-.185-.03-.318.063-.46.411-.622.954-1.127 1.483-1.644 2.163-2.114 4.791-3.304 7.723-3.885.768-.152.772-.133 1.158.536l1.181 2.046c-.092.071-.172.037-.246.03-2.014-.155-4.002.02-5.975.43a1.083 1.083 0 0 0-.64.378c-1.276 1.48-2.366 3.082-3.207 4.85-.025.052-.052.102-.102.202M123.308 21.908c-.193-.334-.368-.68-.584-1-.176-.26-.126-.477.031-.707.345-.504.788-.912 1.271-1.275.8-.599 1.708-.947 2.69-1.101.575-.09.643-.049.927.443.372.643.739 1.288 1.116 1.927.101.17.121.247-.11.326a12.659 12.659 0 0 0-4.409 2.557c-.162.145-.214.086-.296-.063-.206-.373-.423-.738-.636-1.107"/><path d="M145.073 27.42c-.622-.03-1.243-.097-1.865-.118-1.255-.042-2.51-.05-3.745.234-.374.087-.754.177-1.033.479-.274.297-.43.66-.564 1.03-.286.793-.463 1.618-.694 2.426-.028.096-.008.22-.123.277-.059-.03-.057-.083-.068-.13-.477-2.03-.551-4.068-.099-6.112.047-.212.013-.285-.21-.327-2.634-.492-5.263-.547-7.893.02a.844.844 0 0 0-.497.281c-1.751 2.05-3.113 4.324-3.996 6.878-.068.196-.016.244.166.298 1.35.407 2.573 1.064 3.694 1.912.486.368.984.726 1.38 1.2.644.68 1.886 2.414 2.035 2.449-1.452.425-1.79.433-2.817.506-1.348.095-2.61.392-3.76 1.153a8.481 8.481 0 0 0-1.764 1.556c-.096.11-.269.395-.162.467.043.04.057.035.104.069a13.687 13.687 0 0 0 4.983 2.28c3.696.855 7.215.375 10.509-1.515 2.163-1.24 3.856-2.978 5.085-5.148 1.75-3.087 2.316-6.38 1.656-9.876-.039-.205-.118-.279-.322-.29zm-12.58 3.715c1.03 1.867 1.294 2.884 1.92 4.293.049.108.157.4.157.4l-.304-.32c-.844-1.121-1.482-1.96-2.318-3.087a27.027 27.027 0 0 1-1.83-2.838c-.327-.58-.433-1.286-.64-1.936-.134-.426-.268-.807-.384-1.287a54.113 54.113 0 0 0 1.696 1.845c.814.84 1.157 1.943 1.703 2.93z"/><path d="M129.553 35.814c.885.312 1.808.382 2.735.39.65.005 1.3-.053 1.93-.24.102-.03.61-.199.732-.255.161-.075.266-.123.49-.24-.394.533-.793 1.008-1.265 1.404-1.425 1.082-2.857 1.715-4.604 1.868-1.073.095-2.14.138-3.16.534a7.881 7.881 0 0 0-3.276 2.406c-.044.054-.033.166-.077.218-.468-.3-.864-.687-1.277-1.055-.101-.09-.101-.09-.052-.292.612-1.788 1.58-3.297 3.317-4.19 1.275-.656 2.633-.805 4.04-.614l.467.066M213.835 40.872c-3.113 8.554-12.571 12.964-21.125 9.85-8.554-3.113-12.964-12.57-9.851-21.125 3.113-8.554 12.571-12.964 21.125-9.85 8.554 3.113 12.965 12.57 9.851 21.125"/><path d="M192.244 52.013a17.852 17.852 0 0 1-10.14-9.292 17.852 17.852 0 0 1-.6-13.74 17.853 17.853 0 0 1 9.292-10.14 17.852 17.852 0 0 1 13.74-.6 17.852 17.852 0 0 1 10.141 9.291 17.853 17.853 0 0 1 .6 13.741 17.852 17.852 0 0 1-9.292 10.14 17.852 17.852 0 0 1-13.74.6zm11.622-31.93a15.905 15.905 0 0 0-12.241.534 15.905 15.905 0 0 0-8.279 9.034 15.905 15.905 0 0 0 .535 12.242 15.905 15.905 0 0 0 9.034 8.278 15.905 15.905 0 0 0 12.242-.534 15.905 15.905 0 0 0 8.278-9.034 15.905 15.905 0 0 0-.534-12.242 15.905 15.905 0 0 0-9.035-8.279z"/><path d="M194.503 28.806c.34-.932.665-1.812.978-2.697.072-.203.224-.23.392-.248.742-.085 1.477.006 2.214.079 3.01.298 5.61 1.547 7.94 3.419.61.49.598.505.333 1.232l-.808 2.22c-.114-.025-.138-.109-.182-.17-1.174-1.642-2.587-3.052-4.169-4.3a1.083 1.083 0 0 0-.7-.248c-1.955-.026-3.883.168-5.777.661l-.22.052M199.703 23.38c.132-.363.284-.72.39-1.09.085-.303.284-.404.561-.431.608-.06 1.206.017 1.794.154.973.227 1.824.699 2.573 1.352.439.383.45.462.256.996-.253.697-.512 1.393-.758 2.093-.066.187-.112.252-.321.125a12.659 12.659 0 0 0-4.793-1.733c-.215-.032-.203-.11-.141-.268.152-.397.293-.799.439-1.199"/><path d="M209.47 43.595c-.376-.496-.724-1.014-1.108-1.504-.774-.989-1.576-1.955-2.587-2.718-.306-.232-.62-.464-1.03-.484-.404-.02-.782.095-1.153.23-.791.29-1.536.685-2.304 1.028-.09.04-.173.135-.29.083-.015-.064.026-.096.055-.136 1.248-1.67 2.762-3.036 4.619-4.003.192-.1.226-.174.114-.372-1.315-2.333-2.963-4.383-5.087-6.034a.844.844 0 0 0-.536-.2c-2.695-.024-5.313.395-7.837 1.36-.194.074-.197.145-.122.32.556 1.295.84 2.654.91 4.058.03.61.077 1.22-.032 1.828-.106.93-.637 2.996-.568 3.133-1.259-.839-1.482-1.092-2.198-1.832-.94-.972-1.978-1.747-3.3-2.139a8.481 8.481 0 0 0-2.327-.352c-.145-.003-.475.049-.462.177-.001.058.01.065.015.123a13.687 13.687 0 0 0 1.456 5.284c1.721 3.38 4.35 5.767 7.915 7.076 2.341.86 4.76 1.039 7.213.586 3.49-.644 6.376-2.327 8.63-5.08.132-.16.138-.269.014-.432zm-10.932-7.249c-.767 1.99-1.378 2.845-2.054 4.23-.052.107-.206.378-.206.378l.05-.438c.316-1.368.549-2.396.875-3.76.262-1.097.602-2.176.997-3.227.235-.624.707-1.158 1.073-1.734.24-.377.445-.725.739-1.122a54.113 54.113 0 0 0-.324 2.485c-.12 1.164-.744 2.136-1.15 3.188z"/><path d="M193.064 37.102c.33.879.87 1.63 1.46 2.345.414.502.876.962 1.424 1.326.088.058.545.339.666.396.16.075.264.124.498.22-.661.041-1.282.04-1.888-.066-1.745-.396-3.15-1.086-4.39-2.326-.763-.761-1.482-1.551-2.442-2.078a7.881 7.881 0 0 0-3.948-.963c-.069.002-.148.082-.217.082-.07-.552-.029-1.104-.012-1.656.004-.136.004-.136.19-.229 1.763-.68 3.542-.908 5.343-.152 1.321.555 2.308 1.5 3.066 2.7l.25.401M276.792 19.326c4.552 7.883 1.85 17.963-6.032 22.515-7.884 4.551-17.964 1.85-22.515-6.033-4.552-7.884-1.85-17.964 6.032-22.515 7.884-4.552 17.964-1.85 22.515 6.033"/><path d="M271.45 43.027c-4.158 2.4-9 3.037-13.637 1.795a17.852 17.852 0 0 1-10.912-8.373c-2.4-4.157-3.037-9-1.795-13.636a17.852 17.852 0 0 1 8.373-10.912c4.157-2.4 9-3.037 13.636-1.795a17.853 17.853 0 0 1 10.912 8.373c2.4 4.157 3.037 9 1.795 13.636a17.852 17.852 0 0 1-8.373 10.912zm-16.99-29.428A15.905 15.905 0 0 0 247 23.32a15.905 15.905 0 0 0 1.6 12.15 15.905 15.905 0 0 0 9.72 7.458 15.905 15.905 0 0 0 12.15-1.599 15.905 15.905 0 0 0 7.458-9.721 15.905 15.905 0 0 0-1.599-12.149 15.905 15.905 0 0 0-9.721-7.46 15.905 15.905 0 0 0-12.149 1.6z"/><path d="M255.123 26.379c-.496-.859-.96-1.674-1.438-2.483-.11-.185-.03-.318.063-.46.411-.622.954-1.127 1.483-1.644 2.163-2.114 4.791-3.304 7.723-3.885.768-.152.772-.133 1.158.536l1.181 2.046c-.092.071-.172.037-.246.03-2.014-.155-4.002.02-5.975.43a1.083 1.083 0 0 0-.64.378c-1.276 1.48-2.366 3.082-3.207 4.85-.025.052-.052.102-.102.202M254.308 18.908c-.193-.334-.368-.68-.584-1-.176-.26-.126-.477.031-.707.345-.504.788-.912 1.271-1.275.8-.599 1.708-.947 2.69-1.101.575-.09.643-.049.927.443.372.643.739 1.288 1.116 1.927.101.17.121.247-.11.326a12.659 12.659 0 0 0-4.409 2.557c-.162.145-.214.086-.296-.063-.206-.373-.423-.738-.636-1.107"/><path d="M276.073 24.42c-.622-.03-1.243-.097-1.865-.118-1.255-.042-2.51-.05-3.745.234-.374.087-.754.177-1.033.479-.274.297-.43.66-.564 1.03-.286.793-.463 1.618-.694 2.426-.028.096-.008.22-.123.277-.059-.03-.057-.083-.068-.13-.477-2.03-.551-4.068-.099-6.112.047-.212.013-.285-.21-.327-2.634-.492-5.263-.547-7.893.02a.844.844 0 0 0-.497.281c-1.751 2.05-3.113 4.324-3.996 6.878-.068.196-.016.244.166.298 1.35.407 2.573 1.064 3.694 1.912.486.368.984.726 1.38 1.2.644.68 1.886 2.414 2.035 2.449-1.452.425-1.79.433-2.817.506-1.348.095-2.61.392-3.76 1.153a8.481 8.481 0 0 0-1.764 1.556c-.096.11-.269.395-.162.467.043.04.057.035.104.069a13.687 13.687 0 0 0 4.983 2.28c3.696.855 7.215.375 10.509-1.515 2.163-1.24 3.856-2.978 5.085-5.148 1.75-3.087 2.316-6.38 1.656-9.876-.039-.205-.118-.279-.322-.29zm-12.58 3.715c1.03 1.867 1.294 2.884 1.92 4.293.049.108.157.4.157.4l-.304-.32c-.844-1.121-1.482-1.96-2.318-3.087a27.027 27.027 0 0 1-1.83-2.838c-.327-.58-.433-1.286-.64-1.936-.134-.426-.268-.807-.384-1.287a54.113 54.113 0 0 0 1.696 1.845c.814.84 1.157 1.943 1.703 2.93z"/><path d="M260.553 32.814c.885.312 1.808.382 2.735.39.65.005 1.3-.053 1.93-.24.102-.03.61-.199.732-.255.161-.075.266-.123.49-.24-.394.533-.793 1.008-1.265 1.404-1.425 1.082-2.857 1.715-4.604 1.868-1.073.095-2.14.138-3.16.534a7.881 7.881 0 0 0-3.276 2.406c-.044.054-.033.166-.077.218-.468-.3-.864-.687-1.277-1.055-.101-.09-.101-.09-.052-.292.612-1.788 1.58-3.297 3.317-4.19 1.275-.656 2.633-.805 4.04-.614l.467.066M369.433 45.075c-4.688 7.803-14.814 10.327-22.617 5.64-7.802-4.69-10.327-14.815-5.639-22.618 4.689-7.802 14.814-10.327 22.617-5.639 7.803 4.688 10.327 14.814 5.64 22.617"/><path d="M346.113 51.892a17.852 17.852 0 0 1-8.18-11.056 17.852 17.852 0 0 1 2.032-13.603 17.853 17.853 0 0 1 11.056-8.18 17.852 17.852 0 0 1 13.603 2.032 17.852 17.852 0 0 1 8.181 11.056 17.853 17.853 0 0 1-2.033 13.603 17.852 17.852 0 0 1-11.056 8.181 17.852 17.852 0 0 1-13.603-2.033zm17.501-29.126a15.905 15.905 0 0 0-12.119-1.811 15.905 15.905 0 0 0-9.85 7.288 15.905 15.905 0 0 0-1.81 12.119 15.905 15.905 0 0 0 7.288 9.85 15.905 15.905 0 0 0 12.119 1.811 15.905 15.905 0 0 0 9.85-7.288 15.905 15.905 0 0 0 1.81-12.12 15.905 15.905 0 0 0-7.288-9.85z"/><path d="M352.759 29.542c.51-.85.998-1.652 1.474-2.461.11-.186.264-.182.432-.169.745.059 1.45.289 2.158.5 2.898.867 5.212 2.59 7.142 4.872.505.598.49.61.092 1.273l-1.216 2.024c-.108-.045-.116-.132-.147-.2-.84-1.836-1.957-3.49-3.272-5.018a1.083 1.083 0 0 0-.64-.376c-1.914-.398-3.843-.576-5.797-.454-.057.004-.115.005-.226.01M358.898 25.207c.199-.33.416-.652.59-.995.143-.28.357-.342.634-.316.608.057 1.18.247 1.732.494.911.408 1.656 1.034 2.267 1.819.358.459.355.538.062 1.026-.382.636-.769 1.27-1.144 1.91-.1.17-.158.225-.339.06a12.659 12.659 0 0 0-4.374-2.615c-.205-.072-.178-.146-.088-.29.226-.36.44-.728.66-1.093"/><path d="M364.629 46.915c-.275-.559-.518-1.133-.8-1.688-.572-1.118-1.175-2.22-2.022-3.161-.257-.286-.52-.574-.919-.672-.393-.096-.785-.056-1.175.007-.832.133-1.64.379-2.458.568-.097.022-.196.1-.301.027-.003-.066.044-.09.08-.123 1.544-1.401 3.29-2.454 5.298-3.049.208-.062.255-.127.183-.343-.846-2.541-2.072-4.868-3.843-6.894a.844.844 0 0 0-.487-.298c-2.642-.538-5.29-.626-7.953-.16-.204.035-.22.104-.18.29.298 1.377.317 2.766.119 4.158-.087.603-.158 1.212-.38 1.788-.283.893-1.198 2.82-1.156 2.967-1.076-1.064-1.246-1.355-1.808-2.219-.738-1.132-1.609-2.091-2.831-2.728a8.481 8.481 0 0 0-2.217-.79c-.142-.03-.476-.043-.488.085-.012.057-.002.067-.009.125a13.687 13.687 0 0 0 .421 5.464c1.045 3.647 3.17 6.491 6.42 8.456 2.134 1.29 4.475 1.928 6.969 1.952 3.548.034 6.702-1.067 9.44-3.34.16-.133.187-.238.097-.422zm-9.349-9.201c-1.133 1.807-1.895 2.53-2.823 3.76-.071.096-.274.332-.274.332s.122-.384.132-.421c.572-1.282.996-2.247 1.577-3.524a27.027 27.027 0 0 1 1.594-2.977c.35-.568.916-1.002 1.384-1.497.307-.325.576-.627.94-.96-.28.784-.55 1.581-.792 2.377-.34 1.119-1.139 1.954-1.738 2.91z"/><path d="M349.762 37.411c.157.926.543 1.767.986 2.58.31.572.677 1.113 1.145 1.574.075.074.47.437.578.515.144.105.236.173.448.312-.657-.086-1.266-.205-1.841-.425-1.638-.721-2.886-1.667-3.867-3.121-.602-.893-1.157-1.806-1.999-2.505a7.881 7.881 0 0 0-3.692-1.699c-.068-.012-.16.052-.229.038.037-.554.183-1.089.304-1.628.03-.132.03-.132.23-.187 1.861-.332 3.65-.217 5.274.87 1.191.797 1.98 1.913 2.495 3.235l.168.441"/><g><path d="M440.186 23.129c6.548 6.323 6.73 16.757.407 23.305-6.324 6.548-16.758 6.73-23.306.407-6.548-6.323-6.73-16.758-.407-23.306 6.324-6.548 16.758-6.73 23.306-.406"/><path d="M441.583 47.384a17.852 17.852 0 0 1-12.613 5.485 17.852 17.852 0 0 1-12.797-5.041 17.853 17.853 0 0 1-5.485-12.613 17.852 17.852 0 0 1 5.041-12.797 17.852 17.852 0 0 1 12.613-5.484 17.853 17.853 0 0 1 12.797 5.04 17.852 17.852 0 0 1 5.484 12.614 17.852 17.852 0 0 1-5.04 12.796zM417.139 23.78a15.905 15.905 0 0 0-4.49 11.4 15.905 15.905 0 0 0 4.886 11.238 15.905 15.905 0 0 0 11.4 4.49 15.905 15.905 0 0 0 11.238-4.885 15.905 15.905 0 0 0 4.49-11.401 15.905 15.905 0 0 0-4.886-11.237 15.905 15.905 0 0 0-11.4-4.491 15.905 15.905 0 0 0-11.238 4.886z"/><path d="M421.3 35.882c-.713-.69-1.385-1.345-2.066-1.99-.156-.149-.118-.298-.067-.46.224-.712.606-1.347.973-1.99 1.496-2.628 3.695-4.496 6.352-5.863.697-.358.706-.34 1.261.196l1.7 1.641c-.07.095-.155.083-.229.098-1.978.405-3.84 1.122-5.625 2.06a1.083 1.083 0 0 0-.51.539c-.819 1.775-1.426 3.615-1.746 5.546l-.043.223M418.458 28.925c-.278-.268-.542-.553-.837-.8-.242-.201-.253-.424-.165-.688.192-.58.505-1.095.87-1.576.603-.797 1.38-1.382 2.282-1.8.528-.246.605-.225 1.014.17.534.516 1.064 1.035 1.604 1.544.144.137.184.205-.017.344a12.659 12.659 0 0 0-3.533 3.674c-.116.183-.182.14-.302.02-.3-.3-.61-.593-.916-.888"/><path d="M440.898 28.224c-.606.142-1.22.249-1.824.4-1.218.306-2.427.645-3.536 1.258-.336.186-.676.378-.86.745-.183.36-.232.752-.259 1.146-.057.841.001 1.682.001 2.523 0 .1.053.214-.042.3-.065-.013-.077-.064-.101-.106-1.018-1.82-1.65-3.759-1.78-5.848-.013-.217-.065-.278-.292-.256-2.667.253-5.21.924-7.582 2.193a.844.844 0 0 0-.4.408c-1.118 2.453-1.8 5.015-1.945 7.713-.011.207.052.239.242.241 1.41.02 2.766.313 4.078.82.569.22 1.146.426 1.657.772.807.476 2.478 1.801 2.631 1.794-1.279.809-1.6.91-2.569 1.263-1.27.463-2.4 1.096-3.295 2.144a8.481 8.481 0 0 0-1.268 1.983c-.062.131-.149.454-.027.494.053.025.065.017.12.037 1.75.634 3.559.916 5.418.819 3.789-.198 7.038-1.629 9.684-4.353 1.737-1.79 2.885-3.927 3.47-6.352.83-3.45.467-6.77-1.131-9.949-.094-.186-.19-.236-.39-.19zm-11.068 7.039c1.505 1.51 2.039 2.416 3.03 3.597.076.09.26.342.26.342s-.347-.206-.38-.224c-1.12-.846-1.965-1.476-3.08-2.33a27.027 27.027 0 0 1-2.54-2.222c-.476-.469-.772-1.118-1.149-1.685-.247-.373-.481-.702-.724-1.132.702.448 1.417.892 2.138 1.306 1.014.583 1.648 1.549 2.445 2.348z"/><path d="M428.294 40.571c.937.056 1.843-.131 2.736-.38.627-.174 1.235-.409 1.79-.762.089-.056.531-.36.633-.447.134-.116.221-.191.404-.366-.231.621-.484 1.188-.828 1.699-1.072 1.433-2.274 2.436-3.911 3.065-1.006.386-2.02.722-2.891 1.384a7.881 7.881 0 0 0-2.486 3.216c-.027.063.015.168-.014.23-.532-.16-1.02-.422-1.518-.661-.122-.06-.122-.06-.13-.267.095-1.888.61-3.605 2.033-4.943 1.045-.981 2.31-1.498 3.714-1.703l.468-.065"/></g><g><path d="M521.986 16.293c5.35 7.365 3.718 17.672-3.646 23.023-7.364 5.35-17.672 3.718-23.022-3.647-5.35-7.364-3.718-17.672 3.646-23.022 7.364-5.35 17.672-3.718 23.022 3.646"/><path d="M519.15 40.423a17.852 17.852 0 0 1-13.374 3.21 17.852 17.852 0 0 1-11.727-7.185 17.853 17.853 0 0 1-3.21-13.374 17.852 17.852 0 0 1 7.186-11.727 17.852 17.852 0 0 1 13.373-3.211 17.853 17.853 0 0 1 11.727 7.186 17.852 17.852 0 0 1 3.211 13.374 17.852 17.852 0 0 1-7.186 11.727zm-19.973-27.49a15.905 15.905 0 0 0-6.403 10.447 15.905 15.905 0 0 0 2.86 11.915 15.905 15.905 0 0 0 10.449 6.403 15.905 15.905 0 0 0 11.915-2.86 15.905 15.905 0 0 0 6.402-10.449 15.905 15.905 0 0 0-2.86-11.914 15.905 15.905 0 0 0-10.448-6.403 15.905 15.905 0 0 0-11.915 2.86z"/><path d="M501.173 25.573c-.583-.802-1.13-1.565-1.69-2.319-.128-.173-.064-.313.014-.464.345-.662.832-1.22 1.304-1.79 1.93-2.329 4.42-3.787 7.274-4.671.748-.232.754-.213 1.208.412l1.389 1.911c-.085.081-.167.055-.242.057-2.019.055-3.978.437-5.898 1.051-.26.083-.441.22-.596.443-1.114 1.605-2.032 3.312-2.683 5.158-.019.054-.04.108-.08.212M499.582 18.228c-.227-.312-.438-.638-.686-.932-.202-.24-.175-.462-.043-.707.29-.538.688-.99 1.131-1.401.732-.68 1.6-1.121 2.56-1.377.562-.15.635-.116.969.344.436.6.868 1.204 1.311 1.8.118.159.146.233-.076.335a12.659 12.659 0 0 0-4.117 3.005c-.146.16-.204.107-.301-.033-.244-.348-.498-.69-.748-1.034"/><path d="M521.803 21.435c-.622.034-1.246.033-1.866.077-1.253.09-2.503.213-3.7.625-.364.125-.732.254-.978.584-.242.324-.358.7-.453 1.084-.202.818-.291 1.657-.437 2.485-.017.098.015.22-.093.288-.062-.024-.066-.076-.082-.122-.686-1.97-.973-3.988-.736-6.068.024-.216-.017-.285-.244-.303-2.67-.214-5.291.005-7.848.844a.844.844 0 0 0-.464.332c-1.528 2.221-2.645 4.625-3.256 7.258-.047.202.01.244.197.28 1.384.262 2.67.788 3.873 1.514.522.315 1.055.62 1.498 1.049.712.608 2.128 2.204 2.28 2.223-1.4.575-1.734.618-2.749.798-1.33.236-2.554.663-3.618 1.539a8.481 8.481 0 0 0-1.593 1.732c-.084.12-.225.422-.112.482.048.034.06.029.11.057a13.687 13.687 0 0 0 5.195 1.748c3.766.463 7.214-.382 10.293-2.605 2.021-1.46 3.523-3.366 4.52-5.653 1.417-3.253 1.636-6.586.614-9.994-.06-.2-.146-.265-.351-.254zm-12.122 5.01c1.22 1.749 1.588 2.733 2.358 4.068.06.103.198.382.198.382l-.336-.287c-.956-1.027-1.679-1.794-2.628-2.828a27.027 27.027 0 0 1-2.117-2.63c-.386-.544-.565-1.235-.838-1.86-.178-.409-.352-.774-.516-1.24a54.113 54.113 0 0 0 1.879 1.659c.897.75 1.354 1.81 2 2.736z"/><path d="M507.246 31.406c.913.217 1.838.19 2.76.1.648-.062 1.288-.188 1.896-.439.097-.04.586-.262.7-.33.153-.091.252-.15.462-.29-.336.571-.683 1.085-1.11 1.528-1.305 1.226-2.663 2.005-4.384 2.34-1.058.206-2.115.36-3.088.861a7.881 7.881 0 0 0-3.006 2.735c-.038.058-.015.168-.054.225-.496-.25-.931-.593-1.38-.915-.11-.08-.11-.08-.082-.286.421-1.842 1.227-3.444 2.86-4.514 1.2-.785 2.535-1.075 3.954-1.032.157.004.315.011.472.017"/></g><g><path d="M567.675 59.863c-5.09 7.547-15.334 9.538-22.88 4.448-7.547-5.09-9.539-15.334-4.448-22.88 5.09-7.548 15.334-9.539 22.88-4.449 7.547 5.09 9.539 15.335 4.448 22.881"/><path d="M544.03 65.451a17.852 17.852 0 0 1-7.59-11.47 17.852 17.852 0 0 1 2.741-13.477 17.853 17.853 0 0 1 11.47-7.591 17.852 17.852 0 0 1 13.477 2.742 17.852 17.852 0 0 1 7.591 11.469 17.853 17.853 0 0 1-2.742 13.478 17.852 17.852 0 0 1-11.469 7.591 17.852 17.852 0 0 1-13.477-2.742zm19.002-28.17a15.905 15.905 0 0 0-12.007-2.444 15.905 15.905 0 0 0-10.218 6.763 15.905 15.905 0 0 0-2.443 12.008 15.905 15.905 0 0 0 6.763 10.218 15.905 15.905 0 0 0 12.007 2.443 15.905 15.905 0 0 0 10.218-6.763 15.905 15.905 0 0 0 2.443-12.008 15.905 15.905 0 0 0-6.763-10.218z"/><path d="M551.837 43.48c.554-.823 1.083-1.598 1.6-2.381.12-.18.273-.168.441-.146.74.097 1.432.363 2.13.612 2.847 1.017 5.069 2.858 6.876 5.238.473.624.458.636.026 1.276l-1.321 1.959c-.105-.052-.109-.139-.136-.208-.743-1.878-1.772-3.588-3.005-5.182a1.083 1.083 0 0 0-.62-.41c-1.89-.497-3.807-.775-5.765-.756l-.226-.003M558.194 39.472c.216-.32.45-.63.642-.963.157-.273.374-.323.65-.283.604.09 1.165.309 1.703.584.889.456 1.6 1.12 2.17 1.935.332.477.325.556.007 1.028-.415.615-.834 1.228-1.242 1.847-.11.166-.17.217-.342.044a12.659 12.659 0 0 0-4.23-2.842c-.202-.082-.171-.154-.074-.293.245-.349.478-.704.716-1.057"/><path d="M562.781 61.45c-.245-.573-.457-1.16-.71-1.728-.513-1.146-1.057-2.278-1.854-3.263-.241-.299-.489-.6-.882-.719-.388-.116-.781-.097-1.175-.055-.837.09-1.656.293-2.484.44-.097.017-.2.089-.302.01.001-.066.049-.087.087-.118 1.615-1.319 3.414-2.278 5.45-2.768.211-.05.262-.113.201-.333-.712-2.582-1.815-4.97-3.477-7.085a.844.844 0 0 0-.471-.323c-2.61-.676-5.25-.903-7.934-.577-.205.025-.225.093-.195.28.226 1.392.172 2.78-.099 4.159-.117.598-.22 1.202-.473 1.766-.328.877-1.343 2.753-1.309 2.903-1.019-1.12-1.174-1.419-1.69-2.31-.677-1.17-1.497-2.174-2.684-2.874a8.481 8.481 0 0 0-2.173-.904c-.14-.039-.473-.068-.49.06-.016.055-.007.066-.017.123a13.687 13.687 0 0 0 .135 5.479c.853 3.696 2.826 6.648 5.968 8.78 2.064 1.4 4.368 2.16 6.858 2.314 3.541.22 6.748-.715 9.601-2.84.168-.125.2-.229.12-.417zm-8.854-9.678c-1.226 1.745-2.025 2.427-3.016 3.608-.076.09-.291.316-.291.316s.142-.377.154-.413c.638-1.25 1.112-2.192 1.76-3.437.519-1 1.11-1.965 1.747-2.89.379-.548.966-.953 1.46-1.422.324-.308.608-.596.989-.91-.32.769-.633 1.55-.916 2.333-.397 1.1-1.238 1.892-1.887 2.815z"/><path d="M548.433 51.18c.108.933.45 1.793.849 2.63.28.586.618 1.145 1.061 1.63.071.078.447.46.55.545.138.113.227.185.431.335-.652-.12-1.254-.27-1.816-.52-1.598-.807-2.794-1.817-3.698-3.32-.555-.923-1.062-1.864-1.865-2.607a7.881 7.881 0 0 0-3.599-1.89c-.067-.015-.163.044-.23.027.066-.552.24-1.078.389-1.61.037-.13.037-.13.24-.175 1.875-.234 3.656-.025 5.22 1.145 1.148.858 1.877 2.014 2.322 3.361.05.15.097.3.146.45"/></g><g><path d="M37.835 81.872c-3.113 8.554-12.571 12.964-21.125 9.85-8.554-3.113-12.964-12.57-9.851-21.125 3.113-8.554 12.571-12.964 21.125-9.85 8.554 3.113 12.965 12.57 9.851 21.125"/><path d="M16.244 93.013a17.852 17.852 0 0 1-10.14-9.292 17.852 17.852 0 0 1-.6-13.74 17.853 17.853 0 0 1 9.292-10.14 17.852 17.852 0 0 1 13.74-.6 17.852 17.852 0 0 1 10.141 9.291 17.853 17.853 0 0 1 .6 13.741 17.852 17.852 0 0 1-9.292 10.14 17.852 17.852 0 0 1-13.74.6zm11.622-31.93a15.905 15.905 0 0 0-12.241.534 15.905 15.905 0 0 0-8.279 9.034 15.905 15.905 0 0 0 .535 12.242 15.905 15.905 0 0 0 9.034 8.278 15.905 15.905 0 0 0 12.242-.534 15.905 15.905 0 0 0 8.278-9.034 15.905 15.905 0 0 0-.534-12.242 15.905 15.905 0 0 0-9.035-8.279z"/><path d="M18.503 69.806c.34-.932.665-1.812.978-2.697.072-.203.224-.23.392-.248.742-.085 1.477.006 2.214.079 3.01.298 5.61 1.547 7.94 3.419.61.49.598.505.333 1.232l-.808 2.22c-.114-.025-.138-.109-.182-.17-1.174-1.642-2.587-3.052-4.169-4.3a1.083 1.083 0 0 0-.7-.248c-1.955-.026-3.883.168-5.777.661l-.22.052M23.703 64.38c.132-.363.284-.72.39-1.09.085-.303.284-.404.561-.431.608-.06 1.206.017 1.794.154.973.227 1.824.699 2.573 1.352.439.383.45.462.256.996-.253.697-.512 1.393-.758 2.093-.066.187-.112.252-.321.125a12.659 12.659 0 0 0-4.793-1.733c-.215-.032-.203-.11-.141-.268.152-.397.293-.799.439-1.199"/><path d="M33.47 84.595c-.376-.496-.724-1.014-1.108-1.504-.774-.989-1.576-1.955-2.587-2.718-.306-.232-.62-.464-1.03-.484-.404-.02-.782.095-1.153.23-.791.29-1.536.685-2.304 1.028-.09.04-.173.135-.29.083-.015-.064.026-.096.055-.136 1.248-1.67 2.762-3.036 4.619-4.003.192-.1.226-.174.114-.372-1.315-2.333-2.963-4.383-5.087-6.034a.844.844 0 0 0-.536-.2c-2.695-.024-5.313.395-7.837 1.36-.194.074-.197.145-.122.32.556 1.295.84 2.654.91 4.058.03.61.077 1.22-.032 1.828-.106.93-.637 2.996-.568 3.133-1.259-.839-1.482-1.092-2.198-1.832-.94-.972-1.978-1.747-3.3-2.139a8.481 8.481 0 0 0-2.327-.352c-.145-.003-.475.049-.462.177-.001.058.01.065.015.123a13.687 13.687 0 0 0 1.456 5.284c1.721 3.38 4.35 5.767 7.915 7.076 2.341.86 4.76 1.039 7.213.586 3.49-.644 6.376-2.327 8.63-5.08.132-.16.138-.269.014-.432zm-10.932-7.249c-.767 1.99-1.378 2.845-2.054 4.23-.052.107-.206.378-.206.378l.05-.438c.316-1.368.549-2.396.875-3.76.262-1.097.602-2.176.997-3.227.235-.624.707-1.158 1.073-1.734.24-.377.445-.725.739-1.122a54.113 54.113 0 0 0-.324 2.485c-.12 1.164-.744 2.136-1.15 3.188z"/><path d="M17.064 78.102c.33.879.87 1.63 1.46 2.345.414.502.876.962 1.424 1.326.088.058.545.339.666.396.16.075.264.124.498.22-.661.041-1.282.04-1.888-.066-1.745-.396-3.15-1.086-4.39-2.326-.763-.761-1.482-1.551-2.442-2.078a7.881 7.881 0 0 0-3.948-.963c-.069.002-.148.082-.217.082-.07-.552-.029-1.104-.012-1.656.004-.136.004-.136.19-.229 1.763-.68 3.542-.908 5.343-.152 1.321.555 2.308 1.5 3.066 2.7l.25.401"/></g><g><path d="M135.792 77.326c4.552 7.883 1.85 17.963-6.032 22.515-7.884 4.551-17.964 1.85-22.515-6.033-4.552-7.884-1.85-17.964 6.032-22.515 7.884-4.552 17.964-1.85 22.515 6.033"/><path d="M130.45 101.027c-4.158 2.4-9 3.037-13.637 1.795a17.852 17.852 0 0 1-10.912-8.373c-2.4-4.157-3.037-9-1.795-13.636a17.852 17.852 0 0 1 8.373-10.912c4.157-2.4 9-3.037 13.636-1.795a17.853 17.853 0 0 1 10.912 8.373c2.4 4.157 3.037 9 1.795 13.636a17.852 17.852 0 0 1-8.373 10.912zm-16.99-29.428A15.905 15.905 0 0 0 106 81.32a15.905 15.905 0 0 0 1.6 12.15 15.905 15.905 0 0 0 9.72 7.458 15.905 15.905 0 0 0 12.15-1.599 15.905 15.905 0 0 0 7.458-9.721 15.905 15.905 0 0 0-1.599-12.149 15.905 15.905 0 0 0-9.721-7.46 15.905 15.905 0 0 0-12.149 1.6z"/><path d="M114.123 84.379c-.496-.859-.96-1.674-1.438-2.483-.11-.185-.03-.318.063-.46.411-.622.954-1.127 1.483-1.644 2.163-2.114 4.791-3.304 7.723-3.885.768-.152.772-.133 1.158.536l1.181 2.046c-.092.071-.172.037-.246.03-2.014-.155-4.002.02-5.975.43a1.083 1.083 0 0 0-.64.378c-1.276 1.48-2.366 3.082-3.207 4.85-.025.052-.052.102-.102.202M113.308 76.908c-.193-.334-.368-.68-.584-1-.176-.26-.126-.477.031-.707.345-.504.788-.912 1.271-1.275.8-.599 1.708-.947 2.69-1.101.575-.09.643-.049.927.443.372.643.739 1.288 1.116 1.927.101.17.121.247-.11.326a12.659 12.659 0 0 0-4.409 2.557c-.162.145-.214.086-.296-.063-.206-.373-.423-.738-.636-1.107"/><path d="M135.073 82.42c-.622-.03-1.243-.097-1.865-.118-1.255-.042-2.51-.05-3.745.234-.374.087-.754.177-1.033.479-.274.297-.43.66-.564 1.03-.286.793-.463 1.618-.694 2.426-.028.096-.008.22-.123.277-.059-.03-.057-.083-.068-.13-.477-2.03-.551-4.068-.099-6.112.047-.212.013-.285-.21-.327-2.634-.492-5.263-.547-7.893.02a.844.844 0 0 0-.497.281c-1.751 2.05-3.113 4.324-3.996 6.878-.068.196-.016.244.166.298 1.35.407 2.573 1.064 3.694 1.912.486.368.984.726 1.38 1.2.644.68 1.886 2.414 2.035 2.449-1.452.425-1.79.433-2.817.506-1.348.095-2.61.392-3.76 1.153a8.481 8.481 0 0 0-1.764 1.556c-.096.11-.269.395-.162.467.043.04.057.035.104.069a13.687 13.687 0 0 0 4.983 2.28c3.696.855 7.215.375 10.509-1.515 2.163-1.24 3.856-2.978 5.085-5.148 1.75-3.087 2.316-6.38 1.656-9.876-.039-.205-.118-.279-.322-.29zm-12.58 3.715c1.03 1.867 1.294 2.884 1.92 4.293.049.108.157.4.157.4l-.304-.32c-.844-1.121-1.482-1.96-2.318-3.087a27.027 27.027 0 0 1-1.83-2.838c-.327-.58-.433-1.286-.64-1.936-.134-.426-.268-.807-.384-1.287a54.113 54.113 0 0 0 1.696 1.845c.814.84 1.157 1.943 1.703 2.93z"/><path d="M119.553 90.814c.885.312 1.808.382 2.735.39.65.005 1.3-.053 1.93-.24.102-.03.61-.199.732-.255.161-.075.266-.123.49-.24-.394.533-.793 1.008-1.265 1.404-1.425 1.082-2.857 1.715-4.604 1.868-1.073.095-2.14.138-3.16.534a7.881 7.881 0 0 0-3.276 2.406c-.044.054-.033.166-.077.218-.468-.3-.864-.687-1.277-1.055-.101-.09-.101-.09-.052-.292.612-1.788 1.58-3.297 3.317-4.19 1.275-.656 2.633-.805 4.04-.614l.467.066"/></g><g><path d="M187.478 77.116c0 9.103-7.38 16.482-16.482 16.482-9.103 0-16.482-7.38-16.482-16.482 0-9.103 7.379-16.482 16.482-16.482s16.482 7.38 16.482 16.482"/><path d="M171 94.97c-4.8 0-9.313-1.869-12.707-5.263A17.852 17.852 0 0 1 153.03 77c0-4.8 1.869-9.313 5.263-12.707A17.852 17.852 0 0 1 171 59.03c4.8 0 9.313 1.869 12.707 5.263A17.853 17.853 0 0 1 188.97 77c0 4.8-1.869 9.313-5.263 12.707A17.852 17.852 0 0 1 171 94.97zm0-33.98a15.905 15.905 0 0 0-11.32 4.69A15.905 15.905 0 0 0 154.99 77c0 4.276 1.665 8.297 4.69 11.32A15.905 15.905 0 0 0 171 93.01c4.276 0 8.297-1.665 11.32-4.69A15.905 15.905 0 0 0 187.01 77c0-4.276-1.665-8.297-4.69-11.32A15.905 15.905 0 0 0 171 60.99z"/><path d="M165.185 72.39c0-.992.005-1.93-.004-2.87-.002-.214.133-.29.284-.366.668-.334 1.39-.5 2.107-.683 2.93-.75 5.801-.465 8.63.497.742.252.736.27.736 1.043v2.363c-.116.016-.168-.054-.23-.097-1.665-1.141-3.475-1.984-5.388-2.615a1.083 1.083 0 0 0-.743.007c-1.845.644-3.59 1.486-5.203 2.597l-.189.124M168.215 65.512c0-.386.02-.773-.007-1.157-.022-.314.13-.477.381-.597.55-.265 1.139-.397 1.739-.469.991-.12 1.952.033 2.88.391.543.21.581.28.581.848 0 .742-.005 1.484.003 2.226.002.198-.019.275-.259.227a12.659 12.659 0 0 0-5.096.01c-.213.045-.228-.032-.225-.202.008-.426.003-.851.003-1.277"/><path d="M184.307 81.168c-.523-.338-1.027-.706-1.555-1.035-1.066-.664-2.15-1.298-3.36-1.669-.368-.112-.742-.224-1.134-.102-.387.12-.702.356-1.005.61-.644.544-1.209 1.17-1.814 1.754-.071.069-.116.187-.244.178-.036-.056-.008-.1.006-.146.602-1.997 1.557-3.799 2.97-5.343.147-.16.154-.24-.019-.388-2.034-1.743-4.284-3.105-6.845-3.93a.844.844 0 0 0-.57-.004c-2.542.899-4.859 2.187-6.9 3.958-.157.136-.136.203-.006.342.966 1.026 1.697 2.207 2.244 3.502.237.562.489 1.12.595 1.729.218.91.426 3.033.538 3.138-1.47-.358-1.767-.52-2.693-.97-1.215-.591-2.456-.964-3.832-.881a8.481 8.481 0 0 0-2.307.465c-.138.047-.43.208-.374.324.019.055.032.058.056.111.76 1.701 1.814 3.197 3.175 4.467 2.774 2.588 6.061 3.932 9.859 3.942 2.493.007 4.828-.652 6.978-1.916 3.059-1.798 5.195-4.367 6.372-7.725.069-.196.038-.3-.135-.411zm-12.752-3.072c-.04 2.132-.321 3.144-.482 4.677-.013.118-.065.425-.065.425s-.093-.392-.103-.429c-.17-1.393-.304-2.438-.464-3.833a27.027 27.027 0 0 1-.166-3.372c.007-.667.268-1.33.414-1.996.096-.437.17-.834.311-1.307.165.816.343 1.64.546 2.446.285 1.134.03 2.26.01 3.389z"/><path d="M166.67 80.678c.61.713 1.375 1.235 2.173 1.704.561.33 1.153.605 1.792.759.103.025.628.132.761.144.177.016.292.027.545.037-.608.265-1.191.477-1.797.584-1.776.225-3.332.057-4.922-.684-.977-.455-1.922-.952-3.004-1.118a7.881 7.881 0 0 0-4.04.446c-.064.024-.11.127-.176.15-.254-.494-.405-1.027-.578-1.552-.043-.129-.043-.129.1-.28 1.425-1.242 3.018-2.065 4.97-1.97 1.43.07 2.681.62 3.804 1.489.125.096.248.194.372.291"/></g><g><path d="M248.792 67.326c4.552 7.883 1.85 17.963-6.032 22.515-7.884 4.551-17.964 1.85-22.515-6.033-4.552-7.884-1.85-17.964 6.032-22.515 7.884-4.552 17.964-1.85 22.515 6.033"/><path d="M243.45 91.027c-4.158 2.4-9 3.037-13.637 1.795a17.852 17.852 0 0 1-10.912-8.373c-2.4-4.157-3.037-9-1.795-13.636a17.852 17.852 0 0 1 8.373-10.912c4.157-2.4 9-3.037 13.636-1.795a17.853 17.853 0 0 1 10.912 8.373c2.4 4.157 3.037 9 1.795 13.636a17.852 17.852 0 0 1-8.373 10.912zm-16.99-29.428A15.905 15.905 0 0 0 219 71.32a15.905 15.905 0 0 0 1.6 12.15 15.905 15.905 0 0 0 9.72 7.458 15.905 15.905 0 0 0 12.15-1.599 15.905 15.905 0 0 0 7.458-9.721 15.905 15.905 0 0 0-1.599-12.149 15.905 15.905 0 0 0-9.721-7.46 15.905 15.905 0 0 0-12.149 1.6z"/><path d="M227.123 74.379c-.496-.859-.96-1.674-1.438-2.483-.11-.185-.03-.318.063-.46.411-.622.954-1.127 1.483-1.644 2.163-2.114 4.791-3.304 7.723-3.885.768-.152.772-.133 1.158.536l1.181 2.046c-.092.071-.172.037-.246.03-2.014-.155-4.002.02-5.975.43a1.083 1.083 0 0 0-.64.378c-1.276 1.48-2.366 3.082-3.207 4.85-.025.052-.052.102-.102.202M226.308 66.908c-.193-.334-.368-.68-.584-1-.176-.26-.126-.477.031-.707.345-.504.788-.912 1.271-1.275.8-.599 1.708-.947 2.69-1.101.575-.09.643-.049.927.443.372.643.739 1.288 1.116 1.927.101.17.121.247-.11.326a12.659 12.659 0 0 0-4.409 2.557c-.162.145-.214.086-.296-.063-.206-.373-.423-.738-.636-1.107"/><path d="M248.073 72.42c-.622-.03-1.243-.097-1.865-.118-1.255-.042-2.51-.05-3.745.234-.374.087-.754.177-1.033.479-.274.297-.43.66-.564 1.03-.286.793-.463 1.618-.694 2.426-.028.096-.008.22-.123.277-.059-.03-.057-.083-.068-.13-.477-2.03-.551-4.068-.099-6.112.047-.212.013-.285-.21-.327-2.634-.492-5.263-.547-7.893.02a.844.844 0 0 0-.497.281c-1.751 2.05-3.113 4.324-3.996 6.878-.068.196-.016.244.166.298 1.35.407 2.573 1.064 3.694 1.912.486.368.984.726 1.38 1.2.644.68 1.886 2.414 2.035 2.449-1.452.425-1.79.433-2.817.506-1.348.095-2.61.392-3.76 1.153a8.481 8.481 0 0 0-1.764 1.556c-.096.11-.269.395-.162.467.043.04.057.035.104.069a13.687 13.687 0 0 0 4.983 2.28c3.696.855 7.215.375 10.509-1.515 2.163-1.24 3.856-2.978 5.085-5.148 1.75-3.087 2.316-6.38 1.656-9.876-.039-.205-.118-.279-.322-.29zm-12.58 3.715c1.03 1.867 1.294 2.884 1.92 4.293.049.108.157.4.157.4l-.304-.32c-.844-1.121-1.482-1.96-2.318-3.087a27.027 27.027 0 0 1-1.83-2.838c-.327-.58-.433-1.286-.64-1.936-.134-.426-.268-.807-.384-1.287a54.113 54.113 0 0 0 1.696 1.845c.814.84 1.157 1.943 1.703 2.93z"/><path d="M232.553 80.814c.885.312 1.808.382 2.735.39.65.005 1.3-.053 1.93-.24.102-.03.61-.199.732-.255.161-.075.266-.123.49-.24-.394.533-.793 1.008-1.265 1.404-1.425 1.082-2.857 1.715-4.604 1.868-1.073.095-2.14.138-3.16.534a7.881 7.881 0 0 0-3.276 2.406c-.044.054-.033.166-.077.218-.468-.3-.864-.687-1.277-1.055-.101-.09-.101-.09-.052-.292.612-1.788 1.58-3.297 3.317-4.19 1.275-.656 2.633-.805 4.04-.614l.467.066"/></g><g><path d="M297.882 98.498c1.58 8.964-4.406 17.513-13.37 19.093-8.965 1.581-17.513-4.405-19.094-13.37-1.58-8.964 4.405-17.512 13.37-19.093 8.964-1.58 17.513 4.405 19.094 13.37"/><path d="M284.754 118.942a17.852 17.852 0 0 1-13.427-2.977 17.852 17.852 0 0 1-7.39-11.6 17.853 17.853 0 0 1 2.976-13.428 17.852 17.852 0 0 1 11.6-7.39 17.852 17.852 0 0 1 13.428 2.977 17.853 17.853 0 0 1 7.39 11.6 17.852 17.852 0 0 1-2.977 13.428 17.852 17.852 0 0 1-11.6 7.39zm-5.9-33.464a15.905 15.905 0 0 0-10.335 6.584 15.905 15.905 0 0 0-2.652 11.963 15.905 15.905 0 0 0 6.584 10.334 15.905 15.905 0 0 0 11.963 2.652 15.905 15.905 0 0 0 10.334-6.583 15.905 15.905 0 0 0 2.652-11.963 15.905 15.905 0 0 0-6.583-10.335 15.905 15.905 0 0 0-11.963-2.652z"/><path d="M275.107 97.714c-.172-.977-.33-1.902-.502-2.825-.04-.211.08-.31.215-.41.6-.445 1.283-.733 1.957-1.039 2.756-1.246 5.632-1.465 8.586-1.009.773.12.77.14.905.9l.41 2.327c-.111.035-.174-.025-.242-.056-1.839-.834-3.767-1.35-5.762-1.64-.27-.04-.493.004-.73.136-1.705.955-3.278 2.087-4.672 3.461-.041.04-.084.079-.165.155M276.896 90.415c-.067-.38-.114-.765-.207-1.139-.077-.305.045-.491.271-.654.496-.356 1.053-.588 1.63-.763.957-.29 1.93-.307 2.905-.115.571.112.621.174.72.734.129.73.253 1.462.39 2.192.036.194.028.274-.216.268a12.659 12.659 0 0 0-5.017.895c-.202.08-.23.008-.257-.16-.066-.42-.145-.839-.219-1.258"/><path d="M295.463 103.038c-.574-.241-1.134-.516-1.712-.748-1.164-.47-2.342-.906-3.6-1.06-.38-.048-.768-.093-1.133.096-.36.185-.63.472-.883.776-.54.646-.988 1.36-1.482 2.041-.059.08-.082.204-.21.218-.045-.049-.026-.097-.02-.145.246-2.071.874-4.011 1.998-5.777.117-.184.11-.264-.086-.38-2.306-1.362-4.758-2.314-7.423-2.681a.844.844 0 0 0-.564.095c-2.346 1.327-4.404 2.998-6.107 5.096-.131.161-.098.224.054.337 1.129.844 2.054 1.88 2.817 3.06.331.512.677 1.019.887 1.6.373.858.946 2.913 1.075 2.997-1.51-.097-1.83-.205-2.821-.488-1.3-.371-2.586-.524-3.927-.203a8.481 8.481 0 0 0-2.19.86c-.128.07-.388.279-.313.383.028.051.042.052.075.1a13.687 13.687 0 0 0 3.903 3.848c3.18 2.067 6.65 2.82 10.392 2.17 2.457-.426 4.643-1.48 6.54-3.099 2.7-2.302 4.358-5.203 4.934-8.714.034-.205-.015-.302-.204-.382zm-13.092-.81c.33 2.106.23 3.152.337 4.69.008.118.01.43.01.43l-.176-.405c-.41-1.343-.722-2.35-1.122-3.694a27.027 27.027 0 0 1-.75-3.292c-.109-.658.033-1.358.062-2.038.019-.447.023-.851.079-1.342.304.775.622 1.555.962 2.314.478 1.068.423 2.222.598 3.336z"/><path d="M278.008 105.619c.725.596 1.569.977 2.437 1.3.61.228 1.24.396 1.896.436.105.007.642.022.775.01.177-.014.291-.024.542-.058-.552.367-1.09.676-1.668.887-1.71.53-3.272.635-4.966.181-1.04-.278-2.058-.603-3.153-.579a7.881 7.881 0 0 0-3.9 1.14c-.06.036-.088.145-.148.18-.336-.444-.577-.942-.839-1.429-.064-.12-.064-.12.051-.293 1.187-1.47 2.613-2.557 4.55-2.803 1.423-.18 2.75.145 4.006.805l.417.223"/></g><g><path d="M324.882 58.498c1.58 8.964-4.406 17.513-13.37 19.093-8.965 1.581-17.513-4.405-19.094-13.37-1.58-8.964 4.405-17.512 13.37-19.093 8.964-1.58 17.513 4.405 19.094 13.37"/><path d="M311.754 78.942a17.852 17.852 0 0 1-13.427-2.977 17.852 17.852 0 0 1-7.39-11.6 17.853 17.853 0 0 1 2.976-13.428 17.852 17.852 0 0 1 11.6-7.39 17.852 17.852 0 0 1 13.428 2.977 17.853 17.853 0 0 1 7.39 11.6 17.852 17.852 0 0 1-2.977 13.428 17.852 17.852 0 0 1-11.6 7.39zm-5.9-33.464a15.905 15.905 0 0 0-10.335 6.584 15.905 15.905 0 0 0-2.652 11.963 15.905 15.905 0 0 0 6.584 10.334 15.905 15.905 0 0 0 11.963 2.652 15.905 15.905 0 0 0 10.334-6.583 15.905 15.905 0 0 0 2.652-11.963 15.905 15.905 0 0 0-6.583-10.335 15.905 15.905 0 0 0-11.963-2.652z"/><path d="M302.107 57.714c-.172-.977-.33-1.902-.502-2.825-.04-.211.08-.31.215-.41.6-.445 1.283-.733 1.957-1.039 2.756-1.246 5.632-1.465 8.586-1.009.773.12.77.14.905.9l.41 2.327c-.111.035-.174-.025-.242-.056-1.839-.834-3.767-1.35-5.762-1.64-.27-.04-.493.004-.73.136-1.705.955-3.278 2.087-4.672 3.461-.041.04-.084.079-.165.155M303.896 50.415c-.067-.38-.114-.765-.207-1.139-.077-.305.045-.491.271-.654.496-.356 1.053-.588 1.63-.763.957-.29 1.93-.307 2.905-.115.571.112.621.174.72.734.129.73.253 1.462.39 2.192.036.194.028.274-.216.268a12.659 12.659 0 0 0-5.017.895c-.202.08-.23.008-.257-.16-.066-.42-.145-.839-.219-1.258"/><path d="M322.463 63.038c-.574-.241-1.134-.516-1.712-.748-1.164-.47-2.342-.906-3.6-1.06-.38-.048-.768-.093-1.133.096-.36.185-.63.472-.883.776-.54.646-.988 1.36-1.482 2.041-.059.08-.082.204-.21.218-.045-.049-.026-.097-.02-.145.246-2.071.874-4.011 1.998-5.777.117-.184.11-.264-.086-.38-2.306-1.362-4.758-2.314-7.423-2.681a.844.844 0 0 0-.564.095c-2.346 1.327-4.404 2.998-6.107 5.096-.131.161-.098.224.054.337 1.129.844 2.054 1.88 2.817 3.06.331.512.677 1.019.887 1.6.373.858.946 2.913 1.075 2.997-1.51-.097-1.83-.205-2.821-.488-1.3-.371-2.586-.524-3.927-.203a8.481 8.481 0 0 0-2.19.86c-.128.07-.388.279-.313.383.028.051.042.052.075.1a13.687 13.687 0 0 0 3.903 3.848c3.18 2.067 6.65 2.82 10.392 2.17 2.457-.426 4.643-1.48 6.54-3.099 2.7-2.302 4.358-5.203 4.934-8.714.034-.205-.015-.302-.204-.382zm-13.092-.81c.33 2.106.23 3.152.337 4.69.008.118.01.43.01.43l-.176-.405c-.41-1.343-.722-2.35-1.122-3.694a27.027 27.027 0 0 1-.75-3.292c-.109-.658.033-1.358.062-2.038.019-.447.023-.851.079-1.342.304.775.622 1.555.962 2.314.478 1.068.423 2.222.598 3.336z"/><path d="M305.008 65.619c.725.596 1.569.977 2.437 1.3.61.228 1.24.396 1.896.436.105.007.642.022.775.01.177-.014.291-.024.542-.058-.552.367-1.09.676-1.668.887-1.71.53-3.272.635-4.966.181-1.04-.278-2.058-.603-3.153-.579a7.881 7.881 0 0 0-3.9 1.14c-.06.036-.088.145-.148.18-.336-.444-.577-.942-.839-1.429-.064-.12-.064-.12.051-.293 1.187-1.47 2.613-2.557 4.55-2.803 1.423-.18 2.75.145 4.006.805l.417.223"/></g><g><path d="M398.986 64.293c5.35 7.365 3.718 17.672-3.646 23.023-7.364 5.35-17.672 3.718-23.022-3.647-5.35-7.364-3.718-17.672 3.646-23.022 7.364-5.35 17.672-3.718 23.022 3.646"/><path d="M396.15 88.423a17.852 17.852 0 0 1-13.374 3.21 17.852 17.852 0 0 1-11.727-7.185 17.853 17.853 0 0 1-3.21-13.374 17.852 17.852 0 0 1 7.186-11.727 17.852 17.852 0 0 1 13.373-3.211 17.853 17.853 0 0 1 11.727 7.186 17.852 17.852 0 0 1 3.211 13.374 17.852 17.852 0 0 1-7.186 11.727zm-19.973-27.49a15.905 15.905 0 0 0-6.403 10.447 15.905 15.905 0 0 0 2.86 11.915 15.905 15.905 0 0 0 10.449 6.403 15.905 15.905 0 0 0 11.915-2.86 15.905 15.905 0 0 0 6.402-10.449 15.905 15.905 0 0 0-2.86-11.914 15.905 15.905 0 0 0-10.448-6.403 15.905 15.905 0 0 0-11.915 2.86z"/><path d="M378.173 73.573c-.583-.802-1.13-1.565-1.69-2.319-.128-.173-.064-.313.014-.464.345-.662.832-1.22 1.304-1.79 1.93-2.329 4.42-3.787 7.274-4.671.748-.232.754-.213 1.208.412l1.389 1.911c-.085.081-.167.055-.242.057-2.019.055-3.978.437-5.898 1.051-.26.083-.441.22-.596.443-1.114 1.605-2.032 3.312-2.683 5.158-.019.054-.04.108-.08.212M376.582 66.228c-.227-.312-.438-.638-.686-.932-.202-.24-.175-.462-.043-.707.29-.538.688-.99 1.131-1.401.732-.68 1.6-1.121 2.56-1.377.562-.15.635-.116.969.344.436.6.868 1.204 1.311 1.8.118.159.146.233-.076.335a12.659 12.659 0 0 0-4.117 3.005c-.146.16-.204.107-.301-.033-.244-.348-.498-.69-.748-1.034"/><path d="M398.803 69.435c-.622.034-1.246.033-1.866.077-1.253.09-2.503.213-3.7.625-.364.125-.732.254-.978.584-.242.324-.358.7-.453 1.084-.202.818-.291 1.657-.437 2.485-.017.098.015.22-.093.288-.062-.024-.066-.076-.082-.122-.686-1.97-.973-3.988-.736-6.068.024-.216-.017-.285-.244-.303-2.67-.214-5.291.005-7.848.844a.844.844 0 0 0-.464.332c-1.528 2.221-2.645 4.625-3.256 7.258-.047.202.01.244.197.28 1.384.262 2.67.788 3.873 1.514.522.315 1.055.62 1.498 1.049.712.608 2.128 2.204 2.28 2.223-1.4.575-1.734.618-2.749.798-1.33.236-2.554.663-3.618 1.539a8.481 8.481 0 0 0-1.593 1.732c-.084.12-.225.422-.112.482.048.034.06.029.11.057a13.687 13.687 0 0 0 5.195 1.748c3.766.463 7.214-.382 10.293-2.605 2.021-1.46 3.523-3.366 4.52-5.653 1.417-3.253 1.636-6.586.614-9.994-.06-.2-.146-.265-.351-.254zm-12.122 5.01c1.22 1.749 1.588 2.733 2.358 4.068.06.103.198.382.198.382l-.336-.287c-.956-1.027-1.679-1.794-2.628-2.828a27.027 27.027 0 0 1-2.117-2.63c-.386-.544-.565-1.235-.838-1.86-.178-.409-.352-.774-.516-1.24a54.113 54.113 0 0 0 1.879 1.659c.897.75 1.354 1.81 2 2.736z"/><path d="M384.246 79.406c.913.217 1.838.19 2.76.1.648-.062 1.288-.188 1.896-.439.097-.04.586-.262.7-.33.153-.091.252-.15.462-.29-.336.571-.683 1.085-1.11 1.528-1.305 1.226-2.663 2.005-4.384 2.34-1.058.206-2.115.36-3.088.861a7.881 7.881 0 0 0-3.006 2.735c-.038.058-.015.168-.054.225-.496-.25-.931-.593-1.38-.915-.11-.08-.11-.08-.082-.286.421-1.842 1.227-3.444 2.86-4.514 1.2-.785 2.535-1.075 3.954-1.032.157.004.315.011.472.017"/></g><g><path d="M480.033 77.09c-3.702 8.315-13.445 12.055-21.76 8.353-8.317-3.703-12.056-13.446-8.354-21.761 3.702-8.316 13.445-12.056 21.761-8.354 8.316 3.703 12.056 13.445 8.353 21.761"/><path d="M457.718 86.698a17.852 17.852 0 0 1-9.467-9.977 17.852 17.852 0 0 1 .36-13.749 17.853 17.853 0 0 1 9.976-9.468 17.852 17.852 0 0 1 13.75.36 17.852 17.852 0 0 1 9.467 9.977 17.853 17.853 0 0 1-.36 13.75 17.852 17.852 0 0 1-9.977 9.467 17.852 17.852 0 0 1-13.749-.36zm13.821-31.043a15.905 15.905 0 0 0-12.25-.32 15.905 15.905 0 0 0-8.888 8.434 15.905 15.905 0 0 0-.32 12.25 15.905 15.905 0 0 0 8.434 8.888 15.905 15.905 0 0 0 12.25.32 15.905 15.905 0 0 0 8.888-8.434 15.905 15.905 0 0 0 .32-12.25 15.905 15.905 0 0 0-8.434-8.888z"/><path d="M461.59 63.704c.404-.906.79-1.761 1.164-2.622.085-.198.24-.213.408-.22.746-.033 1.473.11 2.203.233 2.981.507 5.489 1.935 7.682 3.965.574.532.561.546.247 1.252l-.96 2.158c-.113-.033-.132-.118-.17-.181-1.058-1.72-2.369-3.226-3.86-4.582a1.083 1.083 0 0 0-.681-.295c-1.948-.162-3.885-.103-5.81.256l-.223.036M467.155 58.654c.157-.353.334-.698.465-1.06.107-.296.313-.383.591-.39.61-.019 1.201.1 1.779.278.954.294 1.77.824 2.472 1.529.41.412.417.491.186 1.01-.302.679-.608 1.355-.903 2.036-.078.182-.129.243-.328.102a12.659 12.659 0 0 0-4.66-2.063c-.213-.046-.195-.123-.123-.277.18-.386.348-.777.521-1.165"/><path d="M475.489 79.501c-.34-.52-.651-1.062-1-1.577-.704-1.04-1.436-2.06-2.392-2.892-.29-.252-.585-.506-.993-.555-.402-.047-.787.04-1.166.15-.81.234-1.58.576-2.371.864-.093.034-.182.123-.295.063-.01-.066.033-.095.064-.132 1.362-1.579 2.968-2.836 4.887-3.672.2-.086.238-.157.14-.363-1.149-2.419-2.65-4.579-4.654-6.374a.844.844 0 0 0-.52-.236c-2.687-.212-5.328.023-7.913.81-.199.06-.206.13-.144.31.464 1.33.652 2.707.625 4.112-.012.61-.009 1.223-.16 1.821-.17.921-.844 2.945-.784 3.086-1.198-.925-1.403-1.193-2.066-1.981-.87-1.035-1.851-1.88-3.142-2.364a8.481 8.481 0 0 0-2.297-.513c-.145-.013-.477.015-.473.144-.006.058.005.066.006.124a13.687 13.687 0 0 0 1.083 5.373c1.482 3.492 3.938 6.056 7.403 7.61 2.275 1.02 4.676 1.369 7.155 1.088 3.526-.399 6.522-1.876 8.962-4.465.143-.152.157-.26.045-.43zm-10.4-7.993c-.904 1.931-1.573 2.742-2.344 4.077-.059.102-.232.362-.232.362s.075-.396.08-.434c.412-1.342.715-2.351 1.136-3.69a27.027 27.027 0 0 1 1.22-3.149c.277-.606.786-1.106 1.19-1.655.266-.36.495-.692.816-1.067-.181.812-.354 1.637-.496 2.456-.201 1.152-.892 2.078-1.37 3.1z"/><path d="M459.575 71.88c.269.9.754 1.687 1.293 2.441.378.53.807 1.021 1.328 1.422.084.064.52.376.637.441.155.087.255.143.482.255-.662-.005-1.281-.049-1.88-.197-1.712-.517-3.066-1.304-4.217-2.627-.707-.813-1.37-1.651-2.29-2.243a7.881 7.881 0 0 0-3.871-1.236c-.07-.004-.153.07-.222.066-.031-.555.048-1.103.103-1.653.013-.135.013-.135.206-.214 1.806-.556 3.596-.66 5.34.22 1.28.646 2.198 1.658 2.87 2.908.075.138.148.278.221.417"/></g><g><path d="M533.141 89.534c-.635 9.081-8.511 15.928-17.592 15.293-9.08-.635-15.927-8.511-15.292-17.592.635-9.08 8.511-15.927 17.592-15.292 9.08.635 15.927 8.51 15.292 17.591"/><path d="M515.458 106.196a17.852 17.852 0 0 1-12.31-6.137 17.852 17.852 0 0 1-4.363-13.043 17.853 17.853 0 0 1 6.137-12.31 17.852 17.852 0 0 1 13.043-4.363 17.852 17.852 0 0 1 12.309 6.137 17.853 17.853 0 0 1 4.364 13.043 17.852 17.852 0 0 1-6.137 12.309 17.852 17.852 0 0 1-13.043 4.364zm2.37-33.898a15.905 15.905 0 0 0-11.62 3.888 15.905 15.905 0 0 0-5.468 10.966 15.905 15.905 0 0 0 3.888 11.62 15.905 15.905 0 0 0 10.966 5.468 15.905 15.905 0 0 0 11.62-3.888 15.905 15.905 0 0 0 5.468-10.966 15.905 15.905 0 0 0-3.888-11.62 15.905 15.905 0 0 0-10.966-5.468z"/><path d="M511.232 83.265c.07-.99.14-1.926.196-2.863.013-.215.153-.281.31-.346.689-.286 1.42-.401 2.149-.534 2.975-.543 5.82-.06 8.574 1.098.722.303.715.321.66 1.092l-.164 2.356c-.116.008-.163-.065-.222-.112-1.582-1.255-3.328-2.221-5.193-2.985a1.083 1.083 0 0 0-.741-.044c-1.886.513-3.686 1.231-5.371 2.227-.05.03-.1.056-.198.11M514.734 76.615c.027-.385.075-.77.074-1.155 0-.314.163-.466.422-.569.568-.225 1.163-.316 1.767-.346.997-.05 1.945.169 2.846.59.527.248.56.32.52.887-.051.74-.108 1.48-.152 2.221-.011.198-.038.273-.274.209a12.659 12.659 0 0 0-5.084-.345c-.215.029-.225-.05-.21-.219.037-.423.062-.848.091-1.273"/><path d="M529.696 93.355c-.499-.373-.976-.775-1.48-1.14-1.017-.737-2.054-1.445-3.236-1.9-.359-.138-.724-.275-1.124-.18-.393.092-.725.306-1.044.539-.681.496-1.288 1.081-1.932 1.622-.076.064-.13.178-.256.16-.032-.058-.002-.1.016-.145.74-1.95 1.818-3.68 3.336-5.122.157-.15.17-.23.008-.39-1.908-1.88-4.057-3.396-6.554-4.397a.844.844 0 0 0-.57-.044c-2.598.72-4.998 1.843-7.159 3.467-.166.125-.149.194-.029.34.891 1.092 1.539 2.321 1.994 3.651.197.577.41 1.152.473 1.766.154.924.213 3.056.318 3.169-1.442-.46-1.726-.642-2.62-1.156-1.17-.675-2.382-1.134-3.76-1.146a8.481 8.481 0 0 0-2.334.303c-.14.037-.443.178-.396.297.015.056.028.06.048.115a13.687 13.687 0 0 0 2.857 4.677c2.586 2.775 5.771 4.345 9.559 4.62 2.487.181 4.862-.313 7.095-1.424 3.177-1.581 5.487-3.994 6.895-7.262.083-.191.059-.297-.105-.42zm-12.507-3.954c-.19 2.124-.54 3.115-.808 4.633-.02.116-.094.42-.094.42l-.073-.436c-.073-1.402-.133-2.454-.195-3.856a27.027 27.027 0 0 1 .069-3.376c.053-.664.36-1.309.553-1.962.126-.43.228-.82.4-1.282.109.825.229 1.659.375 2.477.205 1.152-.127 2.258-.227 3.382z"/><path d="M512.135 91.636c.56.754 1.286 1.328 2.05 1.852.536.368 1.107.684 1.734.882.1.032.617.175.75.197.175.028.288.047.54.074-.625.222-1.222.393-1.834.458-1.787.1-3.328-.176-4.862-1.026-.942-.522-1.851-1.083-2.919-1.325a7.881 7.881 0 0 0-4.06.163c-.066.02-.12.12-.187.138-.219-.511-.332-1.053-.468-1.589-.034-.131-.034-.131.12-.271 1.507-1.14 3.154-1.85 5.094-1.62 1.423.17 2.632.806 3.691 1.75l.35.317"/></g><g><path d="M591.986 85.293c5.35 7.365 3.718 17.672-3.646 23.023-7.364 5.35-17.672 3.718-23.022-3.647-5.35-7.364-3.718-17.672 3.646-23.022 7.364-5.35 17.672-3.718 23.022 3.646"/><path d="M589.15 109.423a17.852 17.852 0 0 1-13.374 3.21 17.852 17.852 0 0 1-11.727-7.185 17.853 17.853 0 0 1-3.21-13.374 17.852 17.852 0 0 1 7.186-11.727 17.852 17.852 0 0 1 13.373-3.211 17.853 17.853 0 0 1 11.727 7.186 17.852 17.852 0 0 1 3.211 13.374 17.852 17.852 0 0 1-7.186 11.727zm-19.973-27.49a15.905 15.905 0 0 0-6.403 10.447 15.905 15.905 0 0 0 2.86 11.915 15.905 15.905 0 0 0 10.449 6.403 15.905 15.905 0 0 0 11.915-2.86 15.905 15.905 0 0 0 6.402-10.449 15.905 15.905 0 0 0-2.86-11.914 15.905 15.905 0 0 0-10.448-6.403 15.905 15.905 0 0 0-11.915 2.86z"/><path d="M571.173 94.573c-.583-.802-1.13-1.565-1.69-2.319-.128-.173-.064-.313.014-.464.345-.662.832-1.22 1.304-1.79 1.93-2.329 4.42-3.787 7.274-4.671.748-.232.754-.213 1.208.412l1.389 1.911c-.085.081-.167.055-.242.057-2.019.055-3.978.437-5.898 1.051-.26.083-.441.22-.596.443-1.114 1.605-2.032 3.312-2.683 5.158-.019.054-.04.108-.08.212M569.582 87.228c-.227-.312-.438-.638-.686-.932-.202-.24-.175-.462-.043-.707.29-.538.688-.99 1.131-1.401.732-.68 1.6-1.121 2.56-1.377.562-.15.635-.116.969.344.436.6.868 1.204 1.311 1.8.118.159.146.233-.076.335a12.659 12.659 0 0 0-4.117 3.005c-.146.16-.204.107-.301-.033-.244-.348-.498-.69-.748-1.034"/><path d="M591.803 90.435c-.622.034-1.246.033-1.866.077-1.253.09-2.503.213-3.7.625-.364.125-.732.254-.978.584-.242.324-.358.7-.453 1.084-.202.818-.291 1.657-.437 2.485-.017.098.015.22-.093.288-.062-.024-.066-.076-.082-.122-.686-1.97-.973-3.988-.736-6.068.024-.216-.017-.285-.244-.303-2.67-.214-5.291.005-7.848.844a.844.844 0 0 0-.464.332c-1.528 2.221-2.645 4.625-3.256 7.258-.047.202.01.244.197.28 1.384.262 2.67.788 3.873 1.514.522.315 1.055.62 1.498 1.049.712.608 2.128 2.204 2.28 2.223-1.4.575-1.734.618-2.749.798-1.33.236-2.554.663-3.618 1.539a8.481 8.481 0 0 0-1.593 1.732c-.084.12-.225.422-.112.482.048.034.06.029.11.057a13.687 13.687 0 0 0 5.195 1.748c3.766.463 7.214-.382 10.293-2.605 2.021-1.46 3.523-3.366 4.52-5.653 1.417-3.253 1.636-6.586.614-9.994-.06-.2-.146-.265-.351-.254zm-12.122 5.01c1.22 1.749 1.588 2.733 2.358 4.068.06.103.198.382.198.382l-.336-.287c-.956-1.027-1.679-1.794-2.628-2.828a27.027 27.027 0 0 1-2.117-2.63c-.386-.544-.565-1.235-.838-1.86-.178-.409-.352-.774-.516-1.24a54.113 54.113 0 0 0 1.879 1.659c.897.75 1.354 1.81 2 2.736z"/><path d="M577.246 100.406c.913.217 1.838.19 2.76.1.648-.062 1.288-.188 1.896-.439.097-.04.586-.262.7-.33.153-.091.252-.15.462-.29-.336.571-.683 1.085-1.11 1.528-1.305 1.226-2.663 2.005-4.384 2.34-1.058.206-2.115.36-3.088.861a7.881 7.881 0 0 0-3.006 2.735c-.038.058-.015.168-.054.225-.496-.25-.931-.593-1.38-.915-.11-.08-.11-.08-.082-.286.421-1.842 1.227-3.444 2.86-4.514 1.2-.785 2.535-1.075 3.954-1.032.157.004.315.011.472.017"/></g><g><path d="M75.835 110.872c-3.113 8.554-12.571 12.964-21.125 9.85-8.554-3.113-12.964-12.57-9.851-21.125 3.113-8.554 12.571-12.964 21.125-9.85 8.554 3.113 12.965 12.57 9.851 21.125"/><path d="M54.244 122.013a17.852 17.852 0 0 1-10.14-9.292 17.852 17.852 0 0 1-.6-13.74 17.853 17.853 0 0 1 9.292-10.14 17.852 17.852 0 0 1 13.74-.6 17.852 17.852 0 0 1 10.141 9.291 17.853 17.853 0 0 1 .6 13.741 17.852 17.852 0 0 1-9.292 10.14 17.852 17.852 0 0 1-13.74.6zm11.622-31.93a15.905 15.905 0 0 0-12.241.534 15.905 15.905 0 0 0-8.279 9.034 15.905 15.905 0 0 0 .535 12.242 15.905 15.905 0 0 0 9.034 8.278 15.905 15.905 0 0 0 12.242-.534 15.905 15.905 0 0 0 8.278-9.034 15.905 15.905 0 0 0-.534-12.242 15.905 15.905 0 0 0-9.035-8.279z"/><path d="M56.503 98.806c.34-.932.665-1.812.978-2.697.072-.203.224-.23.392-.248.742-.085 1.477.006 2.214.079 3.01.298 5.61 1.547 7.94 3.419.61.49.598.505.333 1.232l-.808 2.22c-.114-.025-.138-.109-.182-.17-1.174-1.642-2.587-3.052-4.169-4.3a1.083 1.083 0 0 0-.7-.248c-1.955-.026-3.883.168-5.777.661l-.22.052M61.703 93.38c.132-.363.284-.72.39-1.09.085-.303.284-.404.561-.431.608-.06 1.206.017 1.794.154.973.227 1.824.699 2.573 1.352.439.383.45.462.256.996-.253.697-.512 1.393-.758 2.093-.066.187-.112.252-.321.125a12.659 12.659 0 0 0-4.793-1.733c-.215-.032-.203-.11-.141-.268.152-.397.293-.799.439-1.199"/><path d="M71.47 113.595c-.376-.496-.724-1.014-1.108-1.504-.774-.989-1.576-1.955-2.587-2.718-.306-.232-.62-.464-1.03-.484-.404-.02-.782.095-1.153.23-.791.29-1.536.685-2.304 1.028-.09.04-.173.135-.29.083-.015-.064.026-.096.055-.136 1.248-1.67 2.762-3.036 4.619-4.003.192-.1.226-.174.114-.372-1.315-2.333-2.963-4.383-5.087-6.034a.844.844 0 0 0-.536-.2c-2.695-.024-5.313.395-7.837 1.36-.194.074-.197.145-.122.32.556 1.295.84 2.654.91 4.058.03.61.077 1.22-.032 1.828-.106.93-.637 2.996-.568 3.133-1.259-.839-1.482-1.092-2.198-1.832-.94-.972-1.978-1.747-3.3-2.139a8.481 8.481 0 0 0-2.327-.352c-.145-.003-.475.049-.462.177-.001.058.01.065.015.123a13.687 13.687 0 0 0 1.456 5.284c1.721 3.38 4.35 5.767 7.915 7.076 2.341.86 4.76 1.039 7.213.586 3.49-.644 6.376-2.327 8.63-5.08.132-.16.138-.269.014-.432zm-10.932-7.249c-.767 1.99-1.378 2.845-2.054 4.23-.052.107-.206.378-.206.378l.05-.438c.316-1.368.549-2.396.875-3.76.262-1.097.602-2.176.997-3.227.235-.624.707-1.158 1.073-1.734.24-.377.445-.725.739-1.122a54.113 54.113 0 0 0-.324 2.485c-.12 1.164-.744 2.136-1.15 3.188z"/><path d="M55.064 107.102c.33.879.87 1.63 1.46 2.345.414.502.876.962 1.424 1.326.088.058.545.339.666.396.16.075.264.124.498.22-.661.041-1.282.04-1.888-.066-1.745-.396-3.15-1.086-4.39-2.326-.763-.761-1.482-1.551-2.442-2.078a7.881 7.881 0 0 0-3.948-.963c-.069.002-.148.082-.217.082-.07-.552-.029-1.104-.012-1.656.004-.136.004-.136.19-.229 1.763-.68 3.542-.908 5.343-.152 1.321.555 2.308 1.5 3.066 2.7l.25.401"/></g><g><path d="M48.65 135.864c3.114 8.554-1.296 18.012-9.85 21.125-8.554 3.114-18.012-1.297-21.126-9.85-3.113-8.554 1.297-18.013 9.851-21.126 8.554-3.113 18.012 1.297 21.126 9.85"/><path d="M39.273 158.277a17.852 17.852 0 0 1-13.74-.6 17.852 17.852 0 0 1-9.293-10.14 17.853 17.853 0 0 1 .6-13.74 17.852 17.852 0 0 1 10.14-9.293 17.852 17.852 0 0 1 13.741.6 17.853 17.853 0 0 1 9.292 10.14 17.852 17.852 0 0 1-.6 13.741 17.852 17.852 0 0 1-10.14 9.292zm-11.622-31.93a15.905 15.905 0 0 0-9.034 8.278 15.905 15.905 0 0 0-.535 12.241 15.905 15.905 0 0 0 8.279 9.035 15.905 15.905 0 0 0 12.242.534 15.905 15.905 0 0 0 9.034-8.278 15.905 15.905 0 0 0 .534-12.242 15.905 15.905 0 0 0-8.278-9.034 15.905 15.905 0 0 0-12.242-.535z"/><path d="M26.086 139.047c-.34-.932-.656-1.815-.985-2.694-.076-.202.025-.32.141-.443.514-.541 1.136-.944 1.747-1.362 2.497-1.706 5.292-2.421 8.28-2.484.782-.017.783.003 1.047.729l.808 2.22c-.103.054-.176.006-.248-.013-1.956-.503-3.944-.675-5.959-.615-.272.009-.484.09-.695.261-1.514 1.237-2.866 2.625-4 4.22-.034.047-.07.092-.136.181M26.58 131.548c-.131-.362-.244-.734-.401-1.085-.129-.287-.041-.492.153-.691.427-.437.935-.762 1.474-1.035.89-.452 1.846-.637 2.84-.618.582.011.642.064.836.598.254.697.503 1.396.765 2.09.07.186.076.265-.166.303-1.711.263-3.312.84-4.786 1.753-.184.114-.225.046-.28-.114-.138-.403-.289-.8-.434-1.2"/><path d="M47.057 140.756c-.607-.138-1.206-.312-1.815-.44-1.229-.26-2.464-.485-3.73-.42-.383.02-.772.043-1.1.292-.321.245-.537.575-.734.918-.42.73-.737 1.512-1.105 2.268-.044.089-.046.215-.169.25-.053-.04-.042-.09-.045-.14-.117-2.081.164-4.1.965-6.035.083-.201.062-.279-.151-.359-2.508-.941-5.088-1.453-7.776-1.352a.844.844 0 0 0-.538.192c-2.081 1.714-3.817 3.717-5.13 6.08-.101.18-.058.237.112.322 1.258.635 2.349 1.494 3.306 2.524.415.447.843.886 1.15 1.42.517.782 1.438 2.706 1.58 2.766-1.505.167-1.838.116-2.863.01-1.344-.14-2.638-.067-3.902.482a8.481 8.481 0 0 0-2.009 1.226c-.113.091-.333.343-.24.433.036.045.05.043.09.085a13.687 13.687 0 0 0 4.512 3.112c3.491 1.483 7.04 1.621 10.612.332 2.345-.846 4.314-2.264 5.902-4.187 2.26-2.737 3.388-5.88 3.345-9.438-.002-.209-.067-.296-.267-.341zm-13.034 1.474c.692 2.018.774 3.065 1.147 4.561.028.115.084.422.084.422s-.222-.337-.244-.368c-.636-1.251-1.119-2.188-1.746-3.444a27.027 27.027 0 0 1-1.31-3.112c-.221-.629-.203-1.342-.293-2.017-.059-.443-.125-.842-.155-1.335.434.71.883 1.423 1.35 2.112.655.968.802 2.114 1.167 3.181z"/><path d="M30.316 146.328c.818.46 1.714.69 2.625.858.64.118 1.29.174 1.943.1.105-.012.636-.09.765-.125.172-.045.283-.074.524-.151-.48.456-.956.855-1.489 1.163-1.591.819-3.111 1.193-4.859 1.04-1.073-.093-2.132-.236-3.205-.022a7.881 7.881 0 0 0-3.644 1.8c-.052.045-.06.157-.114.202-.408-.378-.731-.827-1.074-1.261-.084-.107-.084-.107 0-.297.913-1.655 2.129-2.973 3.994-3.551 1.37-.424 2.733-.335 4.085.097.15.048.3.098.449.147"/></g><g><path d="M108.478 144.116c0 9.103-7.38 16.482-16.482 16.482-9.103 0-16.482-7.38-16.482-16.482 0-9.103 7.379-16.482 16.482-16.482s16.482 7.38 16.482 16.482"/><path d="M92 161.97c-4.8 0-9.313-1.869-12.707-5.263A17.852 17.852 0 0 1 74.03 144c0-4.8 1.869-9.313 5.263-12.707A17.852 17.852 0 0 1 92 126.03c4.8 0 9.313 1.869 12.707 5.263A17.853 17.853 0 0 1 109.97 144c0 4.8-1.869 9.313-5.263 12.707A17.852 17.852 0 0 1 92 161.97zm0-33.98a15.905 15.905 0 0 0-11.32 4.69A15.905 15.905 0 0 0 75.99 144c0 4.276 1.665 8.297 4.69 11.32A15.905 15.905 0 0 0 92 160.01c4.276 0 8.297-1.665 11.32-4.69a15.905 15.905 0 0 0 4.69-11.32c0-4.276-1.665-8.297-4.69-11.32A15.905 15.905 0 0 0 92 127.99z"/><path d="M86.185 139.39c0-.992.005-1.93-.004-2.87-.002-.214.133-.29.284-.366.668-.334 1.39-.5 2.107-.683 2.93-.75 5.801-.465 8.63.497.742.252.736.27.736 1.043v2.363c-.116.016-.168-.054-.23-.097-1.665-1.141-3.475-1.984-5.388-2.615a1.083 1.083 0 0 0-.743.007c-1.845.644-3.59 1.486-5.203 2.597l-.189.124M89.215 132.512c0-.386.02-.773-.007-1.157-.022-.314.13-.477.381-.597.55-.265 1.139-.397 1.739-.469.991-.12 1.952.033 2.88.391.543.21.581.28.581.848 0 .742-.005 1.484.003 2.226.002.198-.019.275-.259.227a12.659 12.659 0 0 0-5.096.01c-.213.045-.228-.032-.225-.202.008-.426.003-.851.003-1.277"/><path d="M105.307 148.168c-.523-.338-1.027-.706-1.555-1.035-1.066-.664-2.15-1.298-3.36-1.669-.368-.112-.742-.224-1.134-.102-.387.12-.702.356-1.005.61-.644.544-1.209 1.17-1.814 1.754-.071.069-.116.187-.244.178-.036-.056-.008-.1.006-.146.602-1.997 1.557-3.799 2.97-5.343.147-.16.154-.24-.019-.388-2.034-1.743-4.284-3.105-6.845-3.93a.844.844 0 0 0-.57-.004c-2.542.899-4.859 2.187-6.9 3.958-.157.136-.136.203-.006.342.966 1.026 1.697 2.207 2.244 3.502.237.562.489 1.12.595 1.729.218.91.426 3.033.538 3.138-1.47-.358-1.767-.52-2.693-.97-1.215-.591-2.456-.964-3.832-.881a8.481 8.481 0 0 0-2.307.465c-.138.047-.43.208-.374.324.019.055.032.058.056.111.76 1.701 1.814 3.197 3.175 4.467 2.774 2.588 6.061 3.932 9.859 3.942 2.493.007 4.828-.652 6.978-1.916 3.059-1.798 5.195-4.367 6.372-7.725.069-.196.038-.3-.135-.411zm-12.752-3.072c-.04 2.132-.321 3.144-.482 4.677-.013.118-.065.425-.065.425s-.093-.392-.103-.429c-.17-1.393-.304-2.438-.464-3.833a27.027 27.027 0 0 1-.166-3.372c.007-.667.268-1.33.414-1.996.096-.437.17-.834.311-1.307.165.816.343 1.64.546 2.446.285 1.134.03 2.26.01 3.389z"/><path d="M87.67 147.678c.61.713 1.375 1.235 2.173 1.704.561.33 1.153.605 1.792.759.103.025.628.132.761.144.177.016.292.027.545.037-.608.265-1.191.477-1.797.584-1.776.225-3.332.057-4.922-.684-.977-.455-1.922-.952-3.004-1.118a7.881 7.881 0 0 0-4.04.446c-.064.024-.11.127-.176.15-.254-.494-.405-1.027-.578-1.552-.043-.129-.043-.129.1-.28 1.425-1.242 3.018-2.065 4.97-1.97 1.43.07 2.681.62 3.804 1.489.125.096.248.194.372.291"/></g><g><path d="M158.835 132.872c-3.113 8.554-12.571 12.964-21.125 9.85-8.554-3.113-12.964-12.57-9.851-21.125 3.113-8.554 12.571-12.964 21.125-9.85 8.554 3.113 12.965 12.57 9.851 21.125"/><path d="M137.244 144.013a17.852 17.852 0 0 1-10.14-9.292 17.852 17.852 0 0 1-.6-13.74 17.853 17.853 0 0 1 9.292-10.14 17.852 17.852 0 0 1 13.74-.6 17.852 17.852 0 0 1 10.141 9.291 17.853 17.853 0 0 1 .6 13.741 17.852 17.852 0 0 1-9.292 10.14 17.852 17.852 0 0 1-13.74.6zm11.622-31.93a15.905 15.905 0 0 0-12.241.534 15.905 15.905 0 0 0-8.279 9.034 15.905 15.905 0 0 0 .535 12.242 15.905 15.905 0 0 0 9.034 8.278 15.905 15.905 0 0 0 12.242-.534 15.905 15.905 0 0 0 8.278-9.034 15.905 15.905 0 0 0-.534-12.242 15.905 15.905 0 0 0-9.035-8.279z"/><path d="M139.503 120.806c.34-.932.665-1.812.978-2.697.072-.203.224-.23.392-.248.742-.085 1.477.006 2.214.079 3.01.298 5.61 1.547 7.94 3.419.61.49.598.505.333 1.232l-.808 2.22c-.114-.025-.138-.109-.182-.17-1.174-1.642-2.587-3.052-4.169-4.3a1.083 1.083 0 0 0-.7-.248c-1.955-.026-3.883.168-5.777.661l-.22.052M144.703 115.38c.132-.363.284-.72.39-1.09.085-.303.284-.404.561-.431.608-.06 1.206.017 1.794.154.973.227 1.824.699 2.573 1.352.439.383.45.462.256.996-.253.697-.512 1.393-.758 2.093-.066.187-.112.252-.321.125a12.659 12.659 0 0 0-4.793-1.733c-.215-.032-.203-.11-.141-.268.152-.397.293-.799.439-1.199"/><path d="M154.47 135.595c-.376-.496-.724-1.014-1.108-1.504-.774-.989-1.576-1.955-2.587-2.718-.306-.232-.62-.464-1.03-.484-.404-.02-.782.095-1.153.23-.791.29-1.536.685-2.304 1.028-.09.04-.173.135-.29.083-.015-.064.026-.096.055-.136 1.248-1.67 2.762-3.036 4.619-4.003.192-.1.226-.174.114-.372-1.315-2.333-2.963-4.383-5.087-6.034a.844.844 0 0 0-.536-.2c-2.695-.024-5.313.395-7.837 1.36-.194.074-.197.145-.122.32.556 1.295.84 2.654.91 4.058.03.61.077 1.22-.032 1.828-.106.93-.637 2.996-.568 3.133-1.259-.839-1.482-1.092-2.198-1.832-.94-.972-1.978-1.747-3.3-2.139a8.481 8.481 0 0 0-2.327-.352c-.145-.003-.475.049-.462.177-.001.058.01.065.015.123a13.687 13.687 0 0 0 1.456 5.284c1.721 3.38 4.35 5.767 7.915 7.076 2.341.86 4.76 1.039 7.213.586 3.49-.644 6.376-2.327 8.63-5.08.132-.16.138-.269.014-.432zm-10.932-7.249c-.767 1.99-1.378 2.845-2.054 4.23-.052.107-.206.378-.206.378l.05-.438c.316-1.368.549-2.396.875-3.76.262-1.097.602-2.176.997-3.227.235-.624.707-1.158 1.073-1.734.24-.377.445-.725.739-1.122a54.113 54.113 0 0 0-.324 2.485c-.12 1.164-.744 2.136-1.15 3.188z"/><path d="M138.064 129.102c.33.879.87 1.63 1.46 2.345.414.502.876.962 1.424 1.326.088.058.545.339.666.396.16.075.264.124.498.22-.661.041-1.282.04-1.888-.066-1.745-.396-3.15-1.086-4.39-2.326-.763-.761-1.482-1.551-2.442-2.078a7.881 7.881 0 0 0-3.948-.963c-.069.002-.148.082-.217.082-.07-.552-.029-1.104-.012-1.656.004-.136.004-.136.19-.229 1.763-.68 3.542-.908 5.343-.152 1.321.555 2.308 1.5 3.066 2.7l.25.401"/></g><g><path d="M212.835 124.872c-3.113 8.554-12.571 12.964-21.125 9.85-8.554-3.113-12.964-12.57-9.851-21.125 3.113-8.554 12.571-12.964 21.125-9.85 8.554 3.113 12.965 12.57 9.851 21.125"/><path d="M191.244 136.013a17.852 17.852 0 0 1-10.14-9.292 17.852 17.852 0 0 1-.6-13.74 17.853 17.853 0 0 1 9.292-10.14 17.852 17.852 0 0 1 13.74-.6 17.852 17.852 0 0 1 10.141 9.291 17.853 17.853 0 0 1 .6 13.741 17.852 17.852 0 0 1-9.292 10.14 17.852 17.852 0 0 1-13.74.6zm11.622-31.93a15.905 15.905 0 0 0-12.241.534 15.905 15.905 0 0 0-8.279 9.034 15.905 15.905 0 0 0 .535 12.242 15.905 15.905 0 0 0 9.034 8.278 15.905 15.905 0 0 0 12.242-.534 15.905 15.905 0 0 0 8.278-9.034 15.905 15.905 0 0 0-.534-12.242 15.905 15.905 0 0 0-9.035-8.279z"/><path d="M193.503 112.806c.34-.932.665-1.812.978-2.697.072-.203.224-.23.392-.248.742-.085 1.477.006 2.214.079 3.01.298 5.61 1.547 7.94 3.419.61.49.598.505.333 1.232l-.808 2.22c-.114-.025-.138-.109-.182-.17-1.174-1.642-2.587-3.052-4.169-4.3a1.083 1.083 0 0 0-.7-.248c-1.955-.026-3.883.168-5.777.661l-.22.052M198.703 107.38c.132-.363.284-.72.39-1.09.085-.303.284-.404.561-.431.608-.06 1.206.017 1.794.154.973.227 1.824.699 2.573 1.352.439.383.45.462.256.996-.253.697-.512 1.393-.758 2.093-.066.187-.112.252-.321.125a12.659 12.659 0 0 0-4.793-1.733c-.215-.032-.203-.11-.141-.268.152-.397.293-.799.439-1.199"/><path d="M208.47 127.595c-.376-.496-.724-1.014-1.108-1.504-.774-.989-1.576-1.955-2.587-2.718-.306-.232-.62-.464-1.03-.484-.404-.02-.782.095-1.153.23-.791.29-1.536.685-2.304 1.028-.09.04-.173.135-.29.083-.015-.064.026-.096.055-.136 1.248-1.67 2.762-3.036 4.619-4.003.192-.1.226-.174.114-.372-1.315-2.333-2.963-4.383-5.087-6.034a.844.844 0 0 0-.536-.2c-2.695-.024-5.313.395-7.837 1.36-.194.074-.197.145-.122.32.556 1.295.84 2.654.91 4.058.03.61.077 1.22-.032 1.828-.106.93-.637 2.996-.568 3.133-1.259-.839-1.482-1.092-2.198-1.832-.94-.972-1.978-1.747-3.3-2.139a8.481 8.481 0 0 0-2.327-.352c-.145-.003-.475.049-.462.177-.001.058.01.065.015.123a13.687 13.687 0 0 0 1.456 5.284c1.721 3.38 4.35 5.767 7.915 7.076 2.341.86 4.76 1.039 7.213.586 3.49-.644 6.376-2.327 8.63-5.08.132-.16.138-.269.014-.432zm-10.932-7.249c-.767 1.99-1.378 2.845-2.054 4.23-.052.107-.206.378-.206.378l.05-.438c.316-1.368.549-2.396.875-3.76.262-1.097.602-2.176.997-3.227.235-.624.707-1.158 1.073-1.734.24-.377.445-.725.739-1.122a54.113 54.113 0 0 0-.324 2.485c-.12 1.164-.744 2.136-1.15 3.188z"/><path d="M192.064 121.102c.33.879.87 1.63 1.46 2.345.414.502.876.962 1.424 1.326.088.058.545.339.666.396.16.075.264.124.498.22-.661.041-1.282.04-1.888-.066-1.745-.396-3.15-1.086-4.39-2.326-.763-.761-1.482-1.551-2.442-2.078a7.881 7.881 0 0 0-3.948-.963c-.069.002-.148.082-.217.082-.07-.552-.029-1.104-.012-1.656.004-.136.004-.136.19-.229 1.763-.68 3.542-.908 5.343-.152 1.321.555 2.308 1.5 3.066 2.7l.25.401"/></g><g><path d="M208.792 152.326c4.552 7.883 1.85 17.963-6.032 22.515-7.884 4.551-17.964 1.85-22.515-6.033-4.552-7.884-1.85-17.964 6.032-22.515 7.884-4.552 17.964-1.85 22.515 6.033"/><path d="M203.45 176.027c-4.158 2.4-9 3.037-13.637 1.795a17.852 17.852 0 0 1-10.912-8.373c-2.4-4.157-3.037-9-1.795-13.636a17.852 17.852 0 0 1 8.373-10.912c4.157-2.4 9-3.037 13.636-1.795a17.853 17.853 0 0 1 10.912 8.373c2.4 4.157 3.037 9 1.795 13.636a17.852 17.852 0 0 1-8.373 10.912zm-16.99-29.428a15.905 15.905 0 0 0-7.46 9.721 15.905 15.905 0 0 0 1.6 12.15 15.905 15.905 0 0 0 9.72 7.458 15.905 15.905 0 0 0 12.15-1.599 15.905 15.905 0 0 0 7.458-9.721 15.905 15.905 0 0 0-1.599-12.149 15.905 15.905 0 0 0-9.721-7.46 15.905 15.905 0 0 0-12.149 1.6z"/><path d="M187.123 159.379c-.496-.859-.96-1.674-1.438-2.483-.11-.185-.03-.318.063-.46.411-.622.954-1.127 1.483-1.644 2.163-2.114 4.791-3.304 7.723-3.885.768-.152.772-.133 1.158.536l1.181 2.046c-.092.071-.172.037-.246.03-2.014-.155-4.002.02-5.975.43a1.083 1.083 0 0 0-.64.378c-1.276 1.48-2.366 3.082-3.207 4.85-.025.052-.052.102-.102.202M186.308 151.908c-.193-.334-.368-.68-.584-1-.176-.26-.126-.477.031-.707.345-.504.788-.912 1.271-1.275.8-.599 1.708-.947 2.69-1.101.575-.09.643-.049.927.443.372.643.739 1.288 1.116 1.927.101.17.121.247-.11.326a12.659 12.659 0 0 0-4.409 2.557c-.162.145-.214.086-.296-.063-.206-.373-.423-.738-.636-1.107"/><path d="M208.073 157.42c-.622-.03-1.243-.097-1.865-.118-1.255-.042-2.51-.05-3.745.234-.374.087-.754.177-1.033.479-.274.297-.43.66-.564 1.03-.286.793-.463 1.618-.694 2.426-.028.096-.008.22-.123.277-.059-.03-.057-.083-.068-.13-.477-2.03-.551-4.068-.099-6.112.047-.212.013-.285-.21-.327-2.634-.492-5.263-.547-7.893.02a.844.844 0 0 0-.497.281c-1.751 2.05-3.113 4.324-3.996 6.878-.068.196-.016.244.166.298 1.35.407 2.573 1.064 3.694 1.912.486.368.984.726 1.38 1.2.644.68 1.886 2.414 2.035 2.449-1.452.425-1.79.433-2.817.506-1.348.095-2.61.392-3.76 1.153a8.481 8.481 0 0 0-1.764 1.556c-.096.11-.269.395-.162.467.043.04.057.035.104.069a13.687 13.687 0 0 0 4.983 2.28c3.696.855 7.215.375 10.509-1.515 2.163-1.24 3.856-2.978 5.085-5.148 1.75-3.087 2.316-6.38 1.656-9.876-.039-.205-.118-.279-.322-.29zm-12.58 3.715c1.03 1.867 1.294 2.884 1.92 4.293.049.108.157.4.157.4l-.304-.32c-.844-1.121-1.482-1.96-2.318-3.087a27.027 27.027 0 0 1-1.83-2.838c-.327-.58-.433-1.286-.64-1.936-.134-.426-.268-.807-.384-1.287a54.113 54.113 0 0 0 1.696 1.845c.814.84 1.157 1.943 1.703 2.93z"/><path d="M192.553 165.814c.885.312 1.808.382 2.735.39.65.005 1.3-.053 1.93-.24.102-.03.61-.199.732-.255.161-.075.266-.123.49-.24-.394.533-.793 1.008-1.265 1.404-1.425 1.082-2.857 1.715-4.604 1.868-1.073.095-2.14.138-3.16.534a7.881 7.881 0 0 0-3.276 2.406c-.044.054-.033.166-.077.218-.468-.3-.864-.687-1.277-1.055-.101-.09-.101-.09-.052-.292.612-1.788 1.58-3.297 3.317-4.19 1.275-.656 2.633-.805 4.04-.614l.467.066"/></g><g><path d="M268.792 134.326c4.552 7.883 1.85 17.963-6.032 22.515-7.884 4.551-17.964 1.85-22.515-6.033-4.552-7.884-1.85-17.964 6.032-22.515 7.884-4.552 17.964-1.85 22.515 6.033"/><path d="M263.45 158.027c-4.158 2.4-9 3.037-13.637 1.795a17.852 17.852 0 0 1-10.912-8.373c-2.4-4.157-3.037-9-1.795-13.636a17.852 17.852 0 0 1 8.373-10.912c4.157-2.4 9-3.037 13.636-1.795a17.853 17.853 0 0 1 10.912 8.373c2.4 4.157 3.037 9 1.795 13.636a17.852 17.852 0 0 1-8.373 10.912zm-16.99-29.428a15.905 15.905 0 0 0-7.46 9.721 15.905 15.905 0 0 0 1.6 12.15 15.905 15.905 0 0 0 9.72 7.458 15.905 15.905 0 0 0 12.15-1.599 15.905 15.905 0 0 0 7.458-9.721 15.905 15.905 0 0 0-1.599-12.149 15.905 15.905 0 0 0-9.721-7.46 15.905 15.905 0 0 0-12.149 1.6z"/><path d="M247.123 141.379c-.496-.859-.96-1.674-1.438-2.483-.11-.185-.03-.318.063-.46.411-.622.954-1.127 1.483-1.644 2.163-2.114 4.791-3.304 7.723-3.885.768-.152.772-.133 1.158.536l1.181 2.046c-.092.071-.172.037-.246.03-2.014-.155-4.002.02-5.975.43a1.083 1.083 0 0 0-.64.378c-1.276 1.48-2.366 3.082-3.207 4.85-.025.052-.052.102-.102.202M246.308 133.908c-.193-.334-.368-.68-.584-1-.176-.26-.126-.477.031-.707.345-.504.788-.912 1.271-1.275.8-.599 1.708-.947 2.69-1.101.575-.09.643-.049.927.443.372.643.739 1.288 1.116 1.927.101.17.121.247-.11.326a12.659 12.659 0 0 0-4.409 2.557c-.162.145-.214.086-.296-.063-.206-.373-.423-.738-.636-1.107"/><path d="M268.073 139.42c-.622-.03-1.243-.097-1.865-.118-1.255-.042-2.51-.05-3.745.234-.374.087-.754.177-1.033.479-.274.297-.43.66-.564 1.03-.286.793-.463 1.618-.694 2.426-.028.096-.008.22-.123.277-.059-.03-.057-.083-.068-.13-.477-2.03-.551-4.068-.099-6.112.047-.212.013-.285-.21-.327-2.634-.492-5.263-.547-7.893.02a.844.844 0 0 0-.497.281c-1.751 2.05-3.113 4.324-3.996 6.878-.068.196-.016.244.166.298 1.35.407 2.573 1.064 3.694 1.912.486.368.984.726 1.38 1.2.644.68 1.886 2.414 2.035 2.449-1.452.425-1.79.433-2.817.506-1.348.095-2.61.392-3.76 1.153a8.481 8.481 0 0 0-1.764 1.556c-.096.11-.269.395-.162.467.043.04.057.035.104.069a13.687 13.687 0 0 0 4.983 2.28c3.696.855 7.215.375 10.509-1.515 2.163-1.24 3.856-2.978 5.085-5.148 1.75-3.087 2.316-6.38 1.656-9.876-.039-.205-.118-.279-.322-.29zm-12.58 3.715c1.03 1.867 1.294 2.884 1.92 4.293.049.108.157.4.157.4l-.304-.32c-.844-1.121-1.482-1.96-2.318-3.087a27.027 27.027 0 0 1-1.83-2.838c-.327-.58-.433-1.286-.64-1.936-.134-.426-.268-.807-.384-1.287a54.113 54.113 0 0 0 1.696 1.845c.814.84 1.157 1.943 1.703 2.93z"/><path d="M252.553 147.814c.885.312 1.808.382 2.735.39.65.005 1.3-.053 1.93-.24.102-.03.61-.199.732-.255.161-.075.266-.123.49-.24-.394.533-.793 1.008-1.265 1.404-1.425 1.082-2.857 1.715-4.604 1.868-1.073.095-2.14.138-3.16.534a7.881 7.881 0 0 0-3.276 2.406c-.044.054-.033.166-.077.218-.468-.3-.864-.687-1.277-1.055-.101-.09-.101-.09-.052-.292.612-1.788 1.58-3.297 3.317-4.19 1.275-.656 2.633-.805 4.04-.614l.467.066"/></g><g><path d="M314.01 158.333c-6.973 5.85-17.37 4.941-23.22-2.032-5.852-6.973-4.942-17.37 2.03-23.22 6.974-5.852 17.37-4.942 23.221 2.031 5.852 6.973 4.942 17.37-2.031 23.22"/><path d="M289.74 157.186a17.852 17.852 0 0 1-4.135-13.117 17.852 17.852 0 0 1 6.35-12.2 17.853 17.853 0 0 1 13.118-4.136 17.852 17.852 0 0 1 12.2 6.351 17.852 17.852 0 0 1 4.136 13.117 17.853 17.853 0 0 1-6.35 12.2 17.852 17.852 0 0 1-13.118 4.136 17.852 17.852 0 0 1-12.2-6.35zm26.031-21.842a15.905 15.905 0 0 0-10.869-5.658c-4.26-.372-8.41.936-11.686 3.685a15.905 15.905 0 0 0-5.658 10.869c-.373 4.26.936 8.41 3.685 11.686a15.905 15.905 0 0 0 10.869 5.658c4.26.373 8.41-.936 11.686-3.684a15.905 15.905 0 0 0 5.658-10.87c.373-4.26-.936-8.41-3.685-11.686z"/><path d="M303.301 138.217c.76-.637 1.482-1.236 2.195-1.847.164-.14.309-.086.464-.018.685.297 1.276.744 1.877 1.175 2.458 1.763 4.086 4.145 5.167 6.93.283.73.265.738-.327 1.235l-1.81 1.518c-.086-.078-.066-.163-.073-.237-.196-2.01-.714-3.938-1.46-5.81-.1-.253-.25-.425-.483-.564-1.68-1-3.446-1.796-5.333-2.316l-.217-.066M310.517 136.118c.296-.248.606-.482.882-.75.226-.218.449-.206.703-.091.556.251 1.035.617 1.476 1.03.729.683 1.23 1.517 1.552 2.458.188.55.16.625-.276.99-.568.477-1.14.95-1.704 1.434-.15.129-.222.161-.34-.053a12.659 12.659 0 0 0-3.284-3.897c-.17-.135-.12-.196.011-.303.331-.267.654-.545.98-.818"/><path d="M308.868 158.508c-.078-.617-.12-1.24-.207-1.856-.177-1.243-.388-2.481-.882-3.648-.15-.353-.304-.711-.65-.934-.34-.218-.724-.308-1.114-.376-.83-.145-1.673-.175-2.509-.263-.098-.01-.217.03-.293-.073.02-.063.07-.07.116-.09 1.916-.822 3.91-1.248 6.002-1.158.217.01.282-.036.285-.264.027-2.679-.375-5.278-1.39-7.77a.844.844 0 0 0-.363-.44c-2.323-1.369-4.799-2.315-7.468-2.741-.204-.033-.242.027-.265.215-.166 1.4-.6 2.72-1.24 3.97-.279.543-.545 1.095-.942 1.567-.558.753-2.05 2.277-2.059 2.43-.67-1.356-.737-1.687-.988-2.687-.328-1.31-.84-2.5-1.788-3.501a8.481 8.481 0 0 0-1.839-1.468c-.124-.076-.436-.196-.488-.079-.031.05-.024.062-.05.115a13.687 13.687 0 0 0-1.38 5.304c-.2 3.788.883 7.17 3.316 10.085 1.598 1.915 3.604 3.28 5.954 4.115 3.344 1.186 6.685 1.172 10.013-.085.195-.073.255-.164.23-.368zm-5.843-11.743c-1.66 1.34-2.616 1.775-3.894 2.637-.098.066-.367.224-.367.224l.262-.355c.958-1.026 1.673-1.8 2.638-2.82a27.027 27.027 0 0 1 2.477-2.294c.515-.424 1.192-.65 1.795-.966.397-.207.749-.405 1.201-.602a54.113 54.113 0 0 0-1.522 1.99c-.686.948-1.713 1.477-2.59 2.186z"/><path d="M297.906 144.682c-.153.927-.062 1.847.092 2.761.108.642.278 1.272.57 1.86.047.095.303.566.38.676.1.146.166.24.32.44-.593-.294-1.13-.605-1.602-1-1.313-1.216-2.185-2.516-2.64-4.21-.278-1.041-.506-2.085-1.074-3.02a7.881 7.881 0 0 0-2.938-2.809c-.06-.033-.169-.003-.228-.038.215-.512.526-.97.817-1.44.071-.116.071-.116.279-.103 1.867.293 3.521.984 4.703 2.54.867 1.142 1.249 2.453 1.305 3.871l.016.472"/></g><g><path d="M350.316 86.959c6.973 5.85 7.883 16.247 2.032 23.22-5.852 6.973-16.248 7.883-23.221 2.032-6.973-5.851-7.883-16.248-2.032-23.22 5.852-6.974 16.248-7.883 23.221-2.032"/><path d="M353.401 111.058a17.852 17.852 0 0 1-12.2 6.35 17.852 17.852 0 0 1-13.117-4.135 17.853 17.853 0 0 1-6.35-12.2 17.852 17.852 0 0 1 4.135-13.117 17.852 17.852 0 0 1 12.2-6.35 17.853 17.853 0 0 1 13.117 4.135 17.852 17.852 0 0 1 6.351 12.2 17.852 17.852 0 0 1-4.136 13.117zm-26.03-21.842a15.905 15.905 0 0 0-3.685 11.686 15.905 15.905 0 0 0 5.658 10.87 15.905 15.905 0 0 0 11.687 3.684 15.905 15.905 0 0 0 10.869-5.658 15.905 15.905 0 0 0 3.684-11.686 15.905 15.905 0 0 0-5.658-10.87 15.905 15.905 0 0 0-11.686-3.684 15.905 15.905 0 0 0-10.869 5.658z"/><path d="M332.366 100.998c-.76-.637-1.476-1.245-2.2-1.841-.167-.137-.139-.289-.1-.454.175-.726.512-1.385.832-2.053 1.31-2.726 3.373-4.743 5.929-6.291.67-.406.68-.39 1.271.107l1.81 1.519c-.062.099-.149.093-.221.113-1.945.542-3.754 1.387-5.468 2.447-.232.143-.375.32-.471.574-.693 1.827-1.17 3.705-1.355 5.654l-.027.225M329.045 94.256c-.296-.248-.58-.513-.89-.739-.256-.184-.283-.405-.213-.675.15-.592.428-1.127.758-1.633.546-.837 1.28-1.475 2.15-1.955.51-.282.588-.266 1.024.1.568.476 1.134.957 1.708 1.428.153.126.198.191.007.344a12.659 12.659 0 0 0-3.268 3.911c-.103.191-.172.154-.3.042-.32-.28-.65-.55-.976-.823"/><path d="M351.382 91.992c-.595.184-1.2.333-1.792.527-1.194.39-2.377.812-3.44 1.501-.322.209-.647.424-.806.803-.157.373-.179.766-.178 1.162.002.842.118 1.678.177 2.517.007.098.068.208-.02.301-.066-.008-.082-.058-.11-.099-1.142-1.744-1.908-3.634-2.182-5.71-.028-.215-.085-.271-.31-.234-2.642.438-5.132 1.285-7.41 2.717a.844.844 0 0 0-.37.435c-.945 2.525-1.447 5.127-1.403 7.83.003.207.069.234.258.223 1.407-.08 2.782.12 4.125.533.583.18 1.173.346 1.707.655.838.419 2.598 1.624 2.75 1.606-1.22.896-1.533 1.019-2.474 1.439-1.234.55-2.318 1.261-3.138 2.369a8.481 8.481 0 0 0-1.127 2.066c-.053.136-.117.463.008.495.054.021.065.013.121.029 1.792.51 3.615.665 5.463.438 3.766-.461 6.908-2.115 9.357-5.018 1.608-1.905 2.604-4.118 3.018-6.577.588-3.5-.006-6.787-1.822-9.847-.107-.179-.206-.222-.402-.161zm-10.55 7.794c1.607 1.401 2.202 2.267 3.273 3.376.082.086.284.323.284.323l-.395-.197c-1.177-.765-2.064-1.335-3.235-2.108a27.027 27.027 0 0 1-2.69-2.04c-.506-.434-.847-1.061-1.263-1.601-.272-.355-.529-.667-.801-1.078.731.397 1.476.79 2.224 1.154 1.052.51 1.752 1.43 2.603 2.17z"/><path d="M339.67 105.188c.938-.01 1.83-.26 2.702-.57.614-.217 1.204-.494 1.733-.884.085-.063.505-.397.6-.49.126-.126.208-.207.378-.394-.188.636-.4 1.219-.708 1.752-.969 1.505-2.098 2.589-3.688 3.33-.976.456-1.964.862-2.787 1.583a7.881 7.881 0 0 0-2.255 3.381c-.023.065.026.167.002.232-.542-.123-1.047-.35-1.56-.555-.127-.05-.127-.05-.15-.257-.036-1.89.358-3.639 1.684-5.072.974-1.052 2.2-1.656 3.586-1.958.154-.034.308-.065.462-.098"/></g><g><path d="M392.033 139.09c-3.702 8.315-13.445 12.055-21.76 8.353-8.317-3.703-12.056-13.446-8.354-21.761 3.702-8.316 13.445-12.056 21.761-8.354 8.316 3.703 12.056 13.445 8.353 21.761"/><path d="M369.718 148.698a17.852 17.852 0 0 1-9.467-9.977 17.852 17.852 0 0 1 .36-13.749 17.853 17.853 0 0 1 9.976-9.468 17.852 17.852 0 0 1 13.75.36 17.852 17.852 0 0 1 9.467 9.977 17.853 17.853 0 0 1-.36 13.75 17.852 17.852 0 0 1-9.977 9.467 17.852 17.852 0 0 1-13.749-.36zm13.821-31.043a15.905 15.905 0 0 0-12.25-.32 15.905 15.905 0 0 0-8.888 8.434 15.905 15.905 0 0 0-.32 12.25 15.905 15.905 0 0 0 8.434 8.888 15.905 15.905 0 0 0 12.25.32 15.905 15.905 0 0 0 8.888-8.434 15.905 15.905 0 0 0 .32-12.25 15.905 15.905 0 0 0-8.434-8.888z"/><path d="M373.59 125.704c.404-.906.79-1.761 1.164-2.622.085-.198.24-.213.408-.22.746-.033 1.473.11 2.203.233 2.981.507 5.489 1.935 7.682 3.965.574.532.561.546.247 1.252l-.96 2.158c-.113-.033-.132-.118-.17-.181-1.058-1.72-2.369-3.226-3.86-4.582a1.083 1.083 0 0 0-.681-.295c-1.948-.162-3.885-.103-5.81.256l-.223.036M379.155 120.654c.157-.353.334-.698.465-1.06.107-.296.313-.383.591-.39.61-.019 1.201.1 1.779.278.954.294 1.77.824 2.472 1.529.41.412.417.491.186 1.01-.302.679-.608 1.355-.903 2.036-.078.182-.129.243-.328.102a12.659 12.659 0 0 0-4.66-2.063c-.213-.046-.195-.123-.123-.277.18-.386.348-.777.521-1.165"/><path d="M387.489 141.501c-.34-.52-.651-1.062-1-1.577-.704-1.04-1.436-2.06-2.392-2.892-.29-.252-.585-.506-.993-.555-.402-.047-.787.04-1.166.15-.81.234-1.58.576-2.371.864-.093.034-.182.123-.295.063-.01-.066.033-.095.064-.132 1.362-1.579 2.968-2.836 4.887-3.672.2-.086.238-.157.14-.363-1.149-2.419-2.65-4.579-4.654-6.374a.844.844 0 0 0-.52-.236c-2.687-.212-5.328.023-7.913.81-.199.06-.206.13-.144.31.464 1.33.652 2.707.625 4.112-.012.61-.009 1.223-.16 1.821-.17.921-.844 2.945-.784 3.086-1.198-.925-1.403-1.193-2.066-1.981-.87-1.035-1.851-1.88-3.142-2.364a8.481 8.481 0 0 0-2.297-.513c-.145-.013-.477.015-.473.144-.006.058.005.066.006.124a13.687 13.687 0 0 0 1.083 5.373c1.482 3.492 3.938 6.056 7.403 7.61 2.275 1.02 4.676 1.369 7.155 1.088 3.526-.399 6.522-1.876 8.962-4.465.143-.152.157-.26.045-.43zm-10.4-7.993c-.904 1.931-1.573 2.742-2.344 4.077-.059.102-.232.362-.232.362s.075-.396.08-.434c.412-1.342.715-2.351 1.136-3.69a27.027 27.027 0 0 1 1.22-3.149c.277-.606.786-1.106 1.19-1.655.266-.36.495-.692.816-1.067-.181.812-.354 1.637-.496 2.456-.201 1.152-.892 2.078-1.37 3.1z"/><path d="M371.575 133.88c.269.9.754 1.687 1.293 2.441.378.53.807 1.021 1.328 1.422.084.064.52.376.637.441.155.087.255.143.482.255-.662-.005-1.281-.049-1.88-.197-1.712-.517-3.066-1.304-4.217-2.627-.707-.813-1.37-1.651-2.29-2.243a7.881 7.881 0 0 0-3.871-1.236c-.07-.004-.153.07-.222.066-.031-.555.048-1.103.103-1.653.013-.135.013-.135.206-.214 1.806-.556 3.596-.66 5.34.22 1.28.646 2.198 1.658 2.87 2.908.075.138.148.278.221.417"/></g><g><path d="M443.033 115.09c-3.702 8.315-13.445 12.055-21.76 8.353-8.317-3.703-12.056-13.446-8.354-21.761 3.702-8.316 13.445-12.056 21.761-8.354 8.316 3.703 12.056 13.445 8.353 21.761"/><path d="M420.718 124.698a17.852 17.852 0 0 1-9.467-9.977 17.852 17.852 0 0 1 .36-13.749 17.853 17.853 0 0 1 9.976-9.468 17.852 17.852 0 0 1 13.75.36 17.852 17.852 0 0 1 9.467 9.977 17.853 17.853 0 0 1-.36 13.75 17.852 17.852 0 0 1-9.977 9.467 17.852 17.852 0 0 1-13.749-.36zm13.821-31.043a15.905 15.905 0 0 0-12.25-.32 15.905 15.905 0 0 0-8.888 8.434 15.905 15.905 0 0 0-.32 12.25 15.905 15.905 0 0 0 8.434 8.888 15.905 15.905 0 0 0 12.25.32 15.905 15.905 0 0 0 8.888-8.434 15.905 15.905 0 0 0 .32-12.25 15.905 15.905 0 0 0-8.434-8.888z"/><path d="M424.59 101.704c.404-.906.79-1.761 1.164-2.622.085-.198.24-.213.408-.22.746-.033 1.473.11 2.203.233 2.981.507 5.489 1.935 7.682 3.965.574.532.561.546.247 1.252l-.96 2.158c-.113-.033-.132-.118-.17-.181-1.058-1.72-2.369-3.226-3.86-4.582a1.083 1.083 0 0 0-.681-.295c-1.948-.162-3.885-.103-5.81.256l-.223.036M430.155 96.654c.157-.353.334-.698.465-1.06.107-.296.313-.383.591-.39.61-.019 1.201.1 1.779.278.954.294 1.77.824 2.472 1.529.41.412.417.491.186 1.01-.302.679-.608 1.355-.903 2.036-.078.182-.129.243-.328.102a12.659 12.659 0 0 0-4.66-2.063c-.213-.046-.195-.123-.123-.277.18-.386.348-.777.521-1.165"/><path d="M438.489 117.501c-.34-.52-.651-1.062-1-1.577-.704-1.04-1.436-2.06-2.392-2.892-.29-.252-.585-.506-.993-.555-.402-.047-.787.04-1.166.15-.81.234-1.58.576-2.371.864-.093.034-.182.123-.295.063-.01-.066.033-.095.064-.132 1.362-1.579 2.968-2.836 4.887-3.672.2-.086.238-.157.14-.363-1.149-2.419-2.65-4.579-4.654-6.374a.844.844 0 0 0-.52-.236c-2.687-.212-5.328.023-7.913.81-.199.06-.206.13-.144.31.464 1.33.652 2.707.625 4.112-.012.61-.009 1.223-.16 1.821-.17.921-.844 2.945-.784 3.086-1.198-.925-1.403-1.193-2.066-1.981-.87-1.035-1.851-1.88-3.142-2.364a8.481 8.481 0 0 0-2.297-.513c-.145-.013-.477.015-.473.144-.006.058.005.066.006.124a13.687 13.687 0 0 0 1.083 5.373c1.482 3.492 3.938 6.056 7.403 7.61 2.275 1.02 4.676 1.369 7.155 1.088 3.526-.399 6.522-1.876 8.962-4.465.143-.152.157-.26.045-.43zm-10.4-7.993c-.904 1.931-1.573 2.742-2.344 4.077-.059.102-.232.362-.232.362s.075-.396.08-.434c.412-1.342.715-2.351 1.136-3.69a27.027 27.027 0 0 1 1.22-3.149c.277-.606.786-1.106 1.19-1.655.266-.36.495-.692.816-1.067-.181.812-.354 1.637-.496 2.456-.201 1.152-.892 2.078-1.37 3.1z"/><path d="M422.575 109.88c.269.9.754 1.687 1.293 2.441.378.53.807 1.021 1.328 1.422.084.064.52.376.637.441.155.087.255.143.482.255-.662-.005-1.281-.049-1.88-.197-1.712-.517-3.066-1.304-4.217-2.627-.707-.813-1.37-1.651-2.29-2.243a7.881 7.881 0 0 0-3.871-1.236c-.07-.004-.153.07-.222.066-.031-.555.048-1.103.103-1.653.013-.135.013-.135.206-.214 1.806-.556 3.596-.66 5.34.22 1.28.646 2.198 1.658 2.87 2.908.075.138.148.278.221.417"/></g><g><path d="M424.277 175.21c-8.181 3.99-18.048.593-22.039-7.589-3.99-8.182-.593-18.049 7.589-22.04 8.181-3.99 18.049-.592 22.04 7.59 3.99 8.181.592 18.048-7.59 22.039"/><path d="M401.007 168.226a17.852 17.852 0 0 1-.84-13.728 17.852 17.852 0 0 1 9.114-10.3 17.853 17.853 0 0 1 13.728-.84 17.852 17.852 0 0 1 10.3 9.113 17.852 17.852 0 0 1 .84 13.728 17.853 17.853 0 0 1-9.113 10.301 17.852 17.852 0 0 1-13.728.84 17.852 17.852 0 0 1-10.301-9.114zm30.54-14.896a15.905 15.905 0 0 0-9.176-8.119 15.905 15.905 0 0 0-12.231.748 15.905 15.905 0 0 0-8.12 9.177 15.905 15.905 0 0 0 .749 12.23 15.905 15.905 0 0 0 9.177 8.12 15.905 15.905 0 0 0 12.23-.748 15.905 15.905 0 0 0 8.12-9.177 15.905 15.905 0 0 0-.748-12.23z"/><path d="M418.753 153.101c.891-.434 1.737-.841 2.577-1.26.192-.097.32-.01.454.093.593.454 1.058 1.03 1.538 1.595 1.957 2.305 2.96 5.01 3.336 7.975.098.776.079.779-.616 1.118l-2.123 1.035c-.065-.097-.024-.174-.013-.248.295-1.997.26-3.993-.012-5.99a1.083 1.083 0 0 0-.332-.664c-1.388-1.376-2.91-2.576-4.615-3.538-.05-.028-.098-.059-.194-.116M426.263 152.81c.346-.17.704-.32 1.037-.514.272-.157.485-.092.704.08.478.38.855.85 1.183 1.358.542.839.826 1.77.911 2.76.05.58.004.645-.507.894-.667.325-1.336.647-2 .979-.177.089-.255.103-.317-.133a12.659 12.659 0 0 0-2.244-4.576c-.133-.172-.07-.22.084-.291.386-.18.766-.371 1.149-.558"/><path d="M419.246 174.136c.074-.618.184-1.232.248-1.851.13-1.25.224-2.501.027-3.753-.06-.379-.124-.764-.405-1.063-.277-.295-.628-.475-.99-.635-.77-.341-1.58-.574-2.37-.862-.094-.034-.22-.023-.268-.141.035-.057.086-.052.134-.06 2.06-.334 4.097-.265 6.104.329.209.061.284.032.341-.188.675-2.592.913-5.212.532-7.875a.844.844 0 0 0-.247-.515c-1.922-1.89-4.096-3.407-6.582-4.466-.191-.082-.242-.033-.31.145-.5 1.318-1.24 2.492-2.164 3.552-.401.459-.793.93-1.293 1.292-.723.596-2.54 1.713-2.585 1.86-.323-1.479-.307-1.816-.308-2.846-.002-1.352-.21-2.63-.888-3.83a8.481 8.481 0 0 0-1.43-1.87c-.102-.103-.375-.295-.455-.194-.041.04-.038.055-.075.099a13.687 13.687 0 0 0-2.623 4.812c-1.11 3.628-.877 7.17.778 10.589 1.087 2.244 2.703 4.054 4.782 5.432 2.957 1.96 6.202 2.755 9.736 2.34.207-.024.286-.097.31-.3zm-2.829-12.808c-1.934.898-2.967 1.09-4.416 1.617-.111.04-.41.128-.41.128l.34-.28c1.178-.765 2.059-1.343 3.242-2.098a27.027 27.027 0 0 1 2.958-1.628c.602-.286 1.314-.342 1.976-.502.435-.105.824-.213 1.31-.294a54.113 54.113 0 0 0-1.958 1.563c-.894.753-2.019 1.019-3.042 1.494z"/><path d="M411.954 158.069c-.373.862-.507 1.777-.579 2.7-.05.65-.038 1.302.104 1.944.023.103.157.622.204.747.063.166.104.274.206.505-.505-.43-.95-.86-1.313-1.359-.98-1.497-1.512-2.97-1.543-4.723-.019-1.077.013-2.145-.312-3.19a7.881 7.881 0 0 0-2.171-3.436c-.05-.047-.163-.044-.213-.092.333-.445.746-.814 1.142-1.2.097-.095.097-.095.295-.032 1.741.736 3.18 1.807 3.949 3.602.565 1.317.618 2.682.33 4.072l-.099.462"/></g><g><path d="M491.986 116.293c5.35 7.365 3.718 17.672-3.646 23.023-7.364 5.35-17.672 3.718-23.022-3.647-5.35-7.364-3.718-17.672 3.646-23.022 7.364-5.35 17.672-3.718 23.022 3.646"/><path d="M489.15 140.423a17.852 17.852 0 0 1-13.374 3.21 17.852 17.852 0 0 1-11.727-7.185 17.853 17.853 0 0 1-3.21-13.374 17.852 17.852 0 0 1 7.186-11.727 17.852 17.852 0 0 1 13.373-3.211 17.853 17.853 0 0 1 11.727 7.186 17.852 17.852 0 0 1 3.211 13.374 17.852 17.852 0 0 1-7.186 11.727zm-19.973-27.49a15.905 15.905 0 0 0-6.403 10.447 15.905 15.905 0 0 0 2.86 11.915 15.905 15.905 0 0 0 10.449 6.403 15.905 15.905 0 0 0 11.915-2.86 15.905 15.905 0 0 0 6.402-10.449 15.905 15.905 0 0 0-2.86-11.914 15.905 15.905 0 0 0-10.448-6.403 15.905 15.905 0 0 0-11.915 2.86z"/><path d="M471.173 125.573c-.583-.802-1.13-1.565-1.69-2.319-.128-.173-.064-.313.014-.464.345-.662.832-1.22 1.304-1.79 1.93-2.329 4.42-3.787 7.274-4.671.748-.232.754-.213 1.208.412l1.389 1.911c-.085.081-.167.055-.242.057-2.019.055-3.978.437-5.898 1.051-.26.083-.441.22-.596.443-1.114 1.605-2.032 3.312-2.683 5.158-.019.054-.04.108-.08.212M469.582 118.228c-.227-.312-.438-.638-.686-.932-.202-.24-.175-.462-.043-.707.29-.538.688-.99 1.131-1.401.732-.68 1.6-1.121 2.56-1.377.562-.15.635-.116.969.344.436.6.868 1.204 1.311 1.8.118.159.146.233-.076.335a12.659 12.659 0 0 0-4.117 3.005c-.146.16-.204.107-.301-.033-.244-.348-.498-.69-.748-1.034"/><path d="M491.803 121.435c-.622.034-1.246.033-1.866.077-1.253.09-2.503.213-3.7.625-.364.125-.732.254-.978.584-.242.324-.358.7-.453 1.084-.202.818-.291 1.657-.437 2.485-.017.098.015.22-.093.288-.062-.024-.066-.076-.082-.122-.686-1.97-.973-3.988-.736-6.068.024-.216-.017-.285-.244-.303-2.67-.214-5.291.005-7.848.844a.844.844 0 0 0-.464.332c-1.528 2.221-2.645 4.625-3.256 7.258-.047.202.01.244.197.28 1.384.262 2.67.788 3.873 1.514.522.315 1.055.62 1.498 1.049.712.608 2.128 2.204 2.28 2.223-1.4.575-1.734.618-2.749.798-1.33.236-2.554.663-3.618 1.539a8.481 8.481 0 0 0-1.593 1.732c-.084.12-.225.422-.112.482.048.034.06.029.11.057a13.687 13.687 0 0 0 5.195 1.748c3.766.463 7.214-.382 10.293-2.605 2.021-1.46 3.523-3.366 4.52-5.653 1.417-3.253 1.636-6.586.614-9.994-.06-.2-.146-.265-.351-.254zm-12.122 5.01c1.22 1.749 1.588 2.733 2.358 4.068.06.103.198.382.198.382l-.336-.287c-.956-1.027-1.679-1.794-2.628-2.828a27.027 27.027 0 0 1-2.117-2.63c-.386-.544-.565-1.235-.838-1.86-.178-.409-.352-.774-.516-1.24a54.113 54.113 0 0 0 1.879 1.659c.897.75 1.354 1.81 2 2.736z"/><path d="M477.246 131.406c.913.217 1.838.19 2.76.1.648-.062 1.288-.188 1.896-.439.097-.04.586-.262.7-.33.153-.091.252-.15.462-.29-.336.571-.683 1.085-1.11 1.528-1.305 1.226-2.663 2.005-4.384 2.34-1.058.206-2.115.36-3.088.861a7.881 7.881 0 0 0-3.006 2.735c-.038.058-.015.168-.054.225-.496-.25-.931-.593-1.38-.915-.11-.08-.11-.08-.082-.286.421-1.842 1.227-3.444 2.86-4.514 1.2-.785 2.535-1.075 3.954-1.032.157.004.315.011.472.017"/></g><g><path d="M551.986 125.293c5.35 7.365 3.718 17.672-3.646 23.023-7.364 5.35-17.672 3.718-23.022-3.647-5.35-7.364-3.718-17.672 3.646-23.022 7.364-5.35 17.672-3.718 23.022 3.646"/><path d="M549.15 149.423a17.852 17.852 0 0 1-13.374 3.21 17.852 17.852 0 0 1-11.727-7.185 17.853 17.853 0 0 1-3.21-13.374 17.852 17.852 0 0 1 7.186-11.727 17.852 17.852 0 0 1 13.373-3.211 17.853 17.853 0 0 1 11.727 7.186 17.852 17.852 0 0 1 3.211 13.374 17.852 17.852 0 0 1-7.186 11.727zm-19.973-27.49a15.905 15.905 0 0 0-6.403 10.447 15.905 15.905 0 0 0 2.86 11.915 15.905 15.905 0 0 0 10.449 6.403 15.905 15.905 0 0 0 11.915-2.86 15.905 15.905 0 0 0 6.402-10.449 15.905 15.905 0 0 0-2.86-11.914 15.905 15.905 0 0 0-10.448-6.403 15.905 15.905 0 0 0-11.915 2.86z"/><path d="M531.173 134.573c-.583-.802-1.13-1.565-1.69-2.319-.128-.173-.064-.313.014-.464.345-.662.832-1.22 1.304-1.79 1.93-2.329 4.42-3.787 7.274-4.671.748-.232.754-.213 1.208.412l1.389 1.911c-.085.081-.167.055-.242.057-2.019.055-3.978.437-5.898 1.051-.26.083-.441.22-.596.443-1.114 1.605-2.032 3.312-2.683 5.158-.019.054-.04.108-.08.212M529.582 127.228c-.227-.312-.438-.638-.686-.932-.202-.24-.175-.462-.043-.707.29-.538.688-.99 1.131-1.401.732-.68 1.6-1.121 2.56-1.377.562-.15.635-.116.969.344.436.6.868 1.204 1.311 1.8.118.159.146.233-.076.335a12.659 12.659 0 0 0-4.117 3.005c-.146.16-.204.107-.301-.033-.244-.348-.498-.69-.748-1.034"/><path d="M551.803 130.435c-.622.034-1.246.033-1.866.077-1.253.09-2.503.213-3.7.625-.364.125-.732.254-.978.584-.242.324-.358.7-.453 1.084-.202.818-.291 1.657-.437 2.485-.017.098.015.22-.093.288-.062-.024-.066-.076-.082-.122-.686-1.97-.973-3.988-.736-6.068.024-.216-.017-.285-.244-.303-2.67-.214-5.291.005-7.848.844a.844.844 0 0 0-.464.332c-1.528 2.221-2.645 4.625-3.256 7.258-.047.202.01.244.197.28 1.384.262 2.67.788 3.873 1.514.522.315 1.055.62 1.498 1.049.712.608 2.128 2.204 2.28 2.223-1.4.575-1.734.618-2.749.798-1.33.236-2.554.663-3.618 1.539a8.481 8.481 0 0 0-1.593 1.732c-.084.12-.225.422-.112.482.048.034.06.029.11.057a13.687 13.687 0 0 0 5.195 1.748c3.766.463 7.214-.382 10.293-2.605 2.021-1.46 3.523-3.366 4.52-5.653 1.417-3.253 1.636-6.586.614-9.994-.06-.2-.146-.265-.351-.254zm-12.122 5.01c1.22 1.749 1.588 2.733 2.358 4.068.06.103.198.382.198.382l-.336-.287c-.956-1.027-1.679-1.794-2.628-2.828a27.027 27.027 0 0 1-2.117-2.63c-.386-.544-.565-1.235-.838-1.86-.178-.409-.352-.774-.516-1.24a54.113 54.113 0 0 0 1.879 1.659c.897.75 1.354 1.81 2 2.736z"/><path d="M537.246 140.406c.913.217 1.838.19 2.76.1.648-.062 1.288-.188 1.896-.439.097-.04.586-.262.7-.33.153-.091.252-.15.462-.29-.336.571-.683 1.085-1.11 1.528-1.305 1.226-2.663 2.005-4.384 2.34-1.058.206-2.115.36-3.088.861a7.881 7.881 0 0 0-3.006 2.735c-.038.058-.015.168-.054.225-.496-.25-.931-.593-1.38-.915-.11-.08-.11-.08-.082-.286.421-1.842 1.227-3.444 2.86-4.514 1.2-.785 2.535-1.075 3.954-1.032.157.004.315.011.472.017"/></g></g></svg>