<svg xmlns="http://www.w3.org/2000/svg" viewBox="0 0 605 180"><title>github</title><g fill-rule="evenodd"><path d="M32.463 5.876c-8.607 4.97-11.57 15.957-6.616 24.54 3.964 6.865 11.793 10.11 19.173 8.588.863-.307.87-.951.632-1.363-.213-.37-.79-1.338-1.547-2.63-3.794 3.442-6.453.948-6.453.948-1.746-1.386-3.044-1.274-3.044-1.274-1.971-.146-.438-1.006-.438-1.006 1.628-.794 3.312.223 3.312.223 2.762 1.572 4.624-.418 5.283-1.329-.438-1.085-.43-2.003-.21-2.648-3.688 1.607-8.097 2.374-11.535-3.58-.979-1.696-1.173-3.435-.802-5.096-.388-.3-1.835-1.572-2.221-4.201 0 0 1.067-1.173 5.206-.882a17.292 17.292 0 0 1 3.6-2.777 17.311 17.311 0 0 1 4.205-1.729c1.815-3.73 3.362-4.065 3.362-4.065 2.086 1.647 2.464 3.537 2.53 4.022 1.626.509 3.03 1.548 4.01 3.245 3.446 5.97.56 9.387-2.69 11.776.836.157 1.882.818 2.718 2.267 1.2 2.077 2.148 3.764 2.443 4.274.24.416.8.737 1.503.129 5-5.633 6.103-14.03 2.14-20.893C52.07 3.833 41.072.905 32.463 5.876M81.369 36.907c-9.788-1.726-19.12 4.786-20.841 14.545-1.377 7.807 2.534 15.326 9.166 18.904.859.32 1.278-.17 1.36-.638.075-.42.255-1.533.506-3.009-5.118.198-5.553-3.422-5.553-3.422-.446-2.184-1.513-2.932-1.513-2.932-1.416-1.38.312-1.053.312-1.053 1.757.439 2.394 2.3 2.394 2.3 1.105 2.98 3.81 2.652 4.9 2.378.362-1.113.958-1.811 1.542-2.163-3.858-1.14-7.729-3.386-6.535-10.157.34-1.93 1.31-3.386 2.661-4.42-.104-.48-.395-2.384.999-4.646 0 0 1.571-.213 4.554 2.671a17.292 17.292 0 0 1 4.543.187c1.505.273 2.986.736 4.333 1.378 3.788-1.69 5.19-.953 5.19-.953.538 2.603-.388 4.293-.648 4.708.918 1.435 1.326 3.134.986 5.063-1.197 6.788-5.606 7.55-9.631 7.292.54.658.916 1.836.626 3.484-.417 2.362-.775 4.264-.877 4.844-.083.473.14 1.079 1.069 1.065 7.451-1.1 13.693-6.824 15.069-14.63 1.72-9.759-4.822-19.07-14.612-20.796M122.463 14.876c-8.607 4.97-11.57 15.957-6.616 24.54 3.964 6.865 11.793 10.11 19.173 8.588.863-.307.87-.951.632-1.363-.213-.37-.79-1.338-1.547-2.63-3.794 3.442-6.453.948-6.453.948-1.746-1.386-3.044-1.274-3.044-1.274-1.971-.146-.438-1.006-.438-1.006 1.628-.794 3.312.223 3.312.223 2.762 1.572 4.624-.418 5.283-1.329-.438-1.085-.43-2.003-.21-2.648-3.688 1.607-8.097 2.374-11.535-3.58-.979-1.696-1.173-3.435-.802-5.096-.388-.3-1.835-1.572-2.221-4.201 0 0 1.067-1.173 5.206-.882a17.292 17.292 0 0 1 3.6-2.777 17.311 17.311 0 0 1 4.205-1.729c1.815-3.73 3.362-4.065 3.362-4.065 2.086 1.647 2.464 3.537 2.53 4.022 1.626.509 3.03 1.548 4.01 3.245 3.446 5.97.56 9.387-2.69 11.776.836.157 1.882.818 2.718 2.267 1.2 2.077 2.148 3.764 2.443 4.274.24.416.8.737 1.503.129 5-5.633 6.103-14.03 2.14-20.893-4.955-8.582-15.952-11.51-24.561-6.539M204.545 18.212c-9.339-3.4-19.66 1.393-23.05 10.705-2.71 7.45-.165 15.533 5.745 20.209.79.463 1.288.054 1.45-.393.146-.4.518-1.465 1.021-2.875-5.075-.694-4.874-4.334-4.874-4.334-.06-2.229-.981-3.15-.981-3.15-1.155-1.605.49-.983.49-.983 1.654.737 1.957 2.68 1.957 2.68.571 3.126 3.293 3.274 4.414 3.193.55-1.033 1.257-1.617 1.893-1.863-3.6-1.792-7.023-4.676-4.671-11.137.67-1.84 1.877-3.107 3.388-3.89-.02-.49.024-2.417 1.79-4.402 0 0 1.585.063 4.022 3.42 1.485.117 3 .458 4.441.974a17.311 17.311 0 0 1 4.028 2.11c4.023-1.007 5.275-.038 5.275-.038.079 2.657-1.126 4.16-1.454 4.524.655 1.572.761 3.316.091 5.157-2.357 6.477-6.831 6.463-10.75 5.509.417.741.583 1.967.01 3.54-.82 2.254-1.502 4.065-1.704 4.618-.164.45-.05 1.087.868 1.234 7.53.21 14.67-4.343 17.38-11.79 3.39-9.312-1.436-19.618-10.779-23.018M253.463 11.876c-8.607 4.97-11.57 15.957-6.616 24.54 3.964 6.865 11.793 10.11 19.173 8.588.863-.307.87-.951.632-1.363-.213-.37-.79-1.338-1.547-2.63-3.794 3.442-6.453.948-6.453.948-1.746-1.386-3.044-1.274-3.044-1.274-1.971-.146-.438-1.006-.438-1.006 1.628-.794 3.312.223 3.312.223 2.762 1.572 4.624-.418 5.283-1.329-.438-1.085-.43-2.003-.21-2.648-3.688 1.607-8.097 2.374-11.535-3.58-.979-1.696-1.173-3.435-.802-5.096-.388-.3-1.835-1.572-2.221-4.201 0 0 1.067-1.173 5.206-.882a17.292 17.292 0 0 1 3.6-2.777 17.311 17.311 0 0 1 4.205-1.729c1.815-3.73 3.362-4.065 3.362-4.065 2.086 1.647 2.464 3.537 2.53 4.022 1.626.509 3.03 1.548 4.01 3.245 3.446 5.97.56 9.387-2.69 11.776.836.157 1.882.818 2.718 2.267 1.2 2.077 2.148 3.764 2.443 4.274.24.416.8.737 1.503.129 5-5.633 6.103-14.03 2.14-20.893-4.955-8.582-15.952-11.51-24.561-6.539M364.638 21.059c-8.52-5.119-19.565-2.384-24.67 6.11-4.082 6.796-3.125 15.216 1.784 20.934.687.605 1.253.3 1.498-.109.22-.365.788-1.34 1.551-2.627-4.85-1.65-3.958-5.185-3.958-5.185.366-2.199-.362-3.28-.362-3.28-.828-1.795.668-.87.668-.87 1.483 1.038 1.41 3.004 1.41 3.004-.035 3.177 2.608 3.842 3.724 3.976.737-.909 1.543-1.347 2.214-1.467-3.193-2.446-6.002-5.93-2.46-11.824 1.008-1.679 2.435-2.691 4.068-3.173.074-.484.485-2.367 2.597-3.98 0 0 1.543.365 3.295 4.127a17.292 17.292 0 0 1 4.174 1.802 17.311 17.311 0 0 1 3.551 2.84c4.142-.22 5.186.97 5.186.97-.43 2.622-1.9 3.869-2.291 4.163.343 1.668.114 3.4-.894 5.08-3.55 5.908-7.94 5.04-11.605 3.356.268.807.198 2.042-.664 3.477-1.236 2.056-2.251 3.703-2.554 4.208-.248.411-.257 1.057.616 1.377 7.351 1.643 15.229-1.464 19.31-8.257 5.105-8.495 2.334-19.532-6.188-24.652M415.707 22.399c-6.904 7.149-6.724 18.527.404 25.411 5.703 5.507 14.123 6.469 20.798 2.972.745-.533.574-1.154.232-1.485-.307-.296-1.129-1.068-2.212-2.102-2.698 4.355-5.942 2.69-5.942 2.69-2.06-.85-3.277-.385-3.277-.385-1.936.403-.699-.847-.699-.847 1.347-1.211 3.246-.698 3.246-.698 3.087.75 4.33-1.677 4.711-2.733-.72-.923-.965-1.807-.931-2.488-3.102 2.56-7.129 4.514-12.075-.262-1.409-1.36-2.074-2.979-2.176-4.678-.455-.182-2.197-1.005-3.293-3.426 0 0 .702-1.422 4.761-2.282a17.292 17.292 0 0 1 2.696-3.662 17.311 17.311 0 0 1 3.565-2.821c.717-4.085 2.112-4.835 2.112-4.835 2.459 1.009 3.342 2.721 3.54 3.169 1.704.04 3.34.653 4.749 2.014 4.959 4.788 3.126 8.87.66 12.062.847-.08 2.035.267 3.238 1.43 1.726 1.666 3.103 3.026 3.526 3.435.345.333.973.487 1.48-.29 3.255-6.794 2-15.169-3.7-20.674-7.13-6.884-18.507-6.667-25.413.485M498.006 11.324c-8.04 5.841-9.84 17.078-4.014 25.095 4.66 6.414 12.784 8.823 19.965 6.538.826-.396.766-1.037.486-1.422-.25-.345-.926-1.248-1.813-2.454-3.413 3.82-6.32 1.618-6.32 1.618-1.88-1.196-3.16-.949-3.16-.949-1.975.06-.54-.955-.54-.955 1.536-.96 3.318-.124 3.318-.124 2.91 1.274 4.554-.9 5.114-1.874-.549-1.033-.637-1.947-.485-2.611-3.5 1.983-7.805 3.207-11.846-2.355-1.151-1.585-1.526-3.294-1.33-4.985-.418-.258-1.99-1.371-2.649-3.945 0 0 .938-1.279 5.085-1.421a17.292 17.292 0 0 1 3.29-3.138 17.311 17.311 0 0 1 4.001-2.16c1.416-3.898 2.92-4.394 2.92-4.394 2.246 1.42 2.82 3.26 2.937 3.735 1.67.336 3.175 1.224 4.326 2.808 4.052 5.577 1.538 9.278-1.444 11.994.848.068 1.957.616 2.94 1.97 1.41 1.94 2.53 3.52 2.876 3.995.282.388.873.65 1.509-.029 4.384-6.125 4.603-14.59-.056-21.002-5.825-8.017-17.067-9.779-25.11-3.935M564.143 35.63c-8.239-5.558-19.413-3.405-24.955 4.81-4.433 6.573-3.918 15.032.685 20.998.655.64 1.237.365 1.503-.03.238-.353.856-1.297 1.686-2.543-4.757-1.9-3.682-5.384-3.682-5.384.48-2.177-.189-3.294-.189-3.294-.733-1.837.712-.835.712-.835 1.427 1.115 1.252 3.075 1.252 3.075-.202 3.17 2.403 3.972 3.51 4.165.783-.87 1.611-1.265 2.288-1.35-3.06-2.61-5.683-6.236-1.839-11.936 1.096-1.624 2.573-2.56 4.229-2.956.1-.48.608-2.338 2.802-3.837 0 0 1.522.444 3.074 4.292 1.413.472 2.801 1.17 4.074 2.019a17.311 17.311 0 0 1 3.398 3.02c4.148-.002 5.128 1.241 5.128 1.241-.566 2.597-2.099 3.764-2.506 4.037.256 1.685-.063 3.403-1.159 5.026-3.854 5.715-8.192 4.619-11.764 2.745.226.82.09 2.05-.845 3.437-1.341 1.989-2.442 3.581-2.771 4.069-.269.398-.311 1.043.543 1.408 7.255 2.025 15.285-.665 19.717-7.236 5.541-8.215 3.352-19.382-4.89-24.942M28.545 59.212c-9.339-3.4-19.66 1.393-23.05 10.705-2.71 7.45-.165 15.533 5.745 20.209.79.463 1.288.054 1.45-.393.146-.4.518-1.465 1.021-2.875-5.075-.694-4.874-4.334-4.874-4.334-.06-2.229-.981-3.15-.981-3.15-1.155-1.605.49-.983.49-.983 1.654.737 1.957 2.68 1.957 2.68.571 3.126 3.293 3.274 4.414 3.193.55-1.033 1.257-1.617 1.893-1.863-3.6-1.792-7.023-4.676-4.671-11.137.67-1.84 1.877-3.107 3.388-3.89-.02-.49.024-2.417 1.79-4.402 0 0 1.585.063 4.022 3.42 1.485.117 3 .458 4.441.974a17.311 17.311 0 0 1 4.028 2.11c4.023-1.007 5.275-.038 5.275-.038.079 2.657-1.126 4.16-1.454 4.524.655 1.572.761 3.316.091 5.157-2.357 6.477-6.831 6.463-10.75 5.509.417.741.583 1.967.01 3.54-.82 2.254-1.502 4.065-1.704 4.618-.164.45-.05 1.087.868 1.234 7.53.21 14.67-4.343 17.38-11.79 3.39-9.312-1.436-19.618-10.779-23.018M112.463 69.876c-8.607 4.97-11.57 15.957-6.616 24.54 3.964 6.865 11.793 10.11 19.173 8.588.863-.307.87-.951.632-1.363-.213-.37-.79-1.338-1.547-2.63-3.794 3.442-6.453.948-6.453.948-1.746-1.386-3.044-1.274-3.044-1.274-1.971-.146-.438-1.006-.438-1.006 1.628-.794 3.312.223 3.312.223 2.762 1.572 4.624-.418 5.283-1.329-.438-1.085-.43-2.003-.21-2.648-3.688 1.607-8.097 2.374-11.535-3.58-.979-1.696-1.173-3.435-.802-5.096-.388-.3-1.835-1.572-2.221-4.201 0 0 1.067-1.173 5.206-.882a17.292 17.292 0 0 1 3.6-2.777 17.311 17.311 0 0 1 4.205-1.729c1.815-3.73 3.362-4.065 3.362-4.065 2.086 1.647 2.464 3.537 2.53 4.022 1.626.509 3.03 1.548 4.01 3.245 3.446 5.97.56 9.387-2.69 11.776.836.157 1.882.818 2.718 2.267 1.2 2.077 2.148 3.764 2.443 4.274.24.416.8.737 1.503.129 5-5.633 6.103-14.03 2.14-20.893-4.955-8.582-15.952-11.51-24.561-6.539M170.998 59C161.06 59 153 67.033 153 76.943c0 7.928 5.157 14.653 12.31 17.025.9.165 1.229-.389 1.229-.864 0-.427-.016-1.555-.025-3.052-5.007 1.084-6.063-2.405-6.063-2.405-.819-2.073-1.999-2.625-1.999-2.625-1.634-1.113.124-1.09.124-1.09 1.807.126 2.757 1.849 2.757 1.849 1.605 2.741 4.213 1.95 5.239 1.49.163-1.159.628-1.95 1.142-2.398-3.997-.453-8.199-1.992-8.199-8.868 0-1.959.702-3.561 1.853-4.815-.185-.454-.803-2.279.177-4.748 0 0 1.51-.483 4.95 1.84a17.292 17.292 0 0 1 4.506-.605c1.529.007 3.068.205 4.506.604 3.436-2.322 4.945-1.84 4.945-1.84.982 2.47.364 4.295.18 4.75 1.153 1.253 1.85 2.855 1.85 4.814 0 6.893-4.21 8.41-8.218 8.854.645.554 1.22 1.649 1.22 3.322 0 2.399-.021 4.334-.021 4.923 0 .48.324 1.038 1.237.863 7.147-2.378 12.3-9.098 12.3-17.024C189 67.033 180.94 59 170.998 59M225.463 59.876c-8.607 4.97-11.57 15.957-6.616 24.54 3.964 6.865 11.793 10.11 19.173 8.588.863-.307.87-.951.632-1.363-.213-.37-.79-1.338-1.547-2.63-3.794 3.442-6.453.948-6.453.948-1.746-1.386-3.044-1.274-3.044-1.274-1.971-.146-.438-1.006-.438-1.006 1.628-.794 3.312.223 3.312.223 2.762 1.572 4.624-.418 5.283-1.329-.438-1.085-.43-2.003-.21-2.648-3.688 1.607-8.097 2.374-11.535-3.58-.979-1.696-1.173-3.435-.802-5.096-.388-.3-1.835-1.572-2.221-4.201 0 0 1.067-1.173 5.206-.882a17.292 17.292 0 0 1 3.6-2.777 17.311 17.311 0 0 1 4.205-1.729c1.815-3.73 3.362-4.065 3.362-4.065 2.086 1.647 2.464 3.537 2.53 4.022 1.626.509 3.03 1.548 4.01 3.245 3.446 5.97.56 9.387-2.69 11.776.836.157 1.882.818 2.718 2.267 1.2 2.077 2.148 3.764 2.443 4.274.24.416.8.737 1.503.129 5-5.633 6.103-14.03 2.14-20.893-4.955-8.582-15.952-11.51-24.561-6.539M278.507 83.518c-9.788 1.726-16.33 11.037-14.61 20.797 1.377 7.807 7.623 13.534 15.08 14.628.915.006 1.142-.596 1.06-1.065-.075-.42-.286-1.528-.554-3-4.743 1.936-6.39-1.317-6.39-1.317-1.165-1.899-2.423-2.237-2.423-2.237-1.803-.812-.068-1.096-.068-1.096 1.801-.189 3.036 1.343 3.036 1.343 2.058 2.42 4.488 1.188 5.418.558-.04-1.17.281-2.03.71-2.56-4.016.248-8.421-.539-9.615-7.31-.34-1.929.072-3.629.989-5.063-.262-.415-1.187-2.105-.65-4.707 0 0 1.403-.738 5.193.952a17.292 17.292 0 0 1 4.332-1.378 17.311 17.311 0 0 1 4.543-.187c2.981-2.884 4.55-2.67 4.55-2.67 1.397 2.261 1.105 4.166 1.002 4.645 1.354 1.034 2.318 2.491 2.658 4.42 1.197 6.788-2.684 9.013-6.555 10.146.731.434 1.488 1.412 1.779 3.06.417 2.363.73 4.272.833 4.852.083.473.5.966 1.369.635 6.625-3.583 10.533-11.096 9.157-18.9-1.721-9.76-11.054-16.272-20.844-14.546M305.507 43.518c-9.788 1.726-16.33 11.037-14.61 20.797 1.377 7.807 7.623 13.534 15.08 14.628.915.006 1.142-.596 1.06-1.065-.075-.42-.286-1.528-.554-3-4.743 1.936-6.39-1.317-6.39-1.317-1.165-1.899-2.423-2.237-2.423-2.237-1.803-.812-.068-1.096-.068-1.096 1.801-.189 3.036 1.343 3.036 1.343 2.058 2.42 4.488 1.188 5.418.558-.04-1.17.281-2.03.71-2.56-4.016.248-8.421-.539-9.615-7.31-.34-1.929.072-3.629.989-5.063-.262-.415-1.187-2.105-.65-4.707 0 0 1.403-.738 5.193.952a17.292 17.292 0 0 1 4.332-1.378 17.311 17.311 0 0 1 4.543-.187c2.981-2.884 4.55-2.67 4.55-2.67 1.397 2.261 1.105 4.166 1.002 4.645 1.354 1.034 2.318 2.491 2.658 4.42 1.197 6.788-2.684 9.013-6.555 10.146.731.434 1.488 1.412 1.779 3.06.417 2.363.73 4.272.833 4.852.083.473.5.966 1.369.635 6.625-3.583 10.533-11.096 9.157-18.9-1.721-9.76-11.054-16.272-20.844-14.546M375.006 59.324c-8.04 5.841-9.84 17.078-4.014 25.095 4.66 6.414 12.784 8.823 19.965 6.538.826-.396.766-1.037.486-1.422-.25-.345-.926-1.248-1.813-2.454-3.413 3.82-6.32 1.618-6.32 1.618-1.88-1.196-3.16-.949-3.16-.949-1.975.06-.54-.955-.54-.955 1.536-.96 3.318-.124 3.318-.124 2.91 1.274 4.554-.9 5.114-1.874-.549-1.033-.637-1.947-.485-2.611-3.5 1.983-7.805 3.207-11.846-2.355-1.151-1.585-1.526-3.294-1.33-4.985-.418-.258-1.99-1.371-2.649-3.945 0 0 .938-1.279 5.085-1.421a17.292 17.292 0 0 1 3.29-3.138 17.311 17.311 0 0 1 4.001-2.16c1.416-3.898 2.92-4.394 2.92-4.394 2.246 1.42 2.82 3.26 2.937 3.735 1.67.336 3.175 1.224 4.326 2.808 4.052 5.577 1.538 9.278-1.444 11.994.848.068 1.957.616 2.94 1.97 1.41 1.94 2.53 3.52 2.876 3.995.282.388.873.65 1.509-.029 4.384-6.125 4.603-14.59-.056-21.002-5.825-8.017-17.067-9.779-25.11-3.935M472.347 53.837c-9.08-4.043-19.71.018-23.74 9.071-3.225 7.242-1.249 15.483 4.32 20.56.756.517 1.281.144 1.475-.29.173-.39.618-1.426 1.218-2.797-5.014-1.047-4.56-4.664-4.56-4.664.095-2.227-.759-3.211-.759-3.211-1.04-1.681.557-.946.557-.946 1.599.85 1.766 2.81 1.766 2.81.352 3.158 3.057 3.496 4.18 3.493.62-.992 1.368-1.525 2.02-1.726-3.468-2.04-6.68-5.155-3.884-11.436.797-1.79 2.09-2.968 3.651-3.645.015-.49.193-2.409 2.093-4.266 0 0 1.576.174 3.773 3.694 1.474.22 2.962.664 4.363 1.28 1.394.629 2.72 1.436 3.87 2.385 4.085-.723 5.266.331 5.266.331-.107 2.656-1.414 4.072-1.767 4.411.544 1.615.528 3.362-.268 5.151-2.804 6.297-7.266 5.971-11.109 4.746.364.769.445 2.003-.236 3.531-.975 2.192-1.783 3.951-2.022 4.489-.195.438-.126 1.08.78 1.292 7.496.734 14.937-3.31 18.16-10.55 4.03-9.053-.065-19.67-9.147-23.713M517.965 70.313c-9.914-.693-18.515 6.758-19.206 16.644-.553 7.908 4.122 14.976 11.092 17.842.887.228 1.253-.302 1.286-.777.03-.425.093-1.551.189-3.045-5.07.732-5.88-2.823-5.88-2.823-.673-2.125-1.812-2.758-1.812-2.758-1.552-1.224.2-1.079.2-1.079 1.793.252 2.621 2.037 2.621 2.037 1.41 2.847 4.067 2.24 5.122 1.852.244-1.144.763-1.9 1.307-2.312-3.955-.73-8.04-2.56-7.56-9.418.136-1.954.948-3.504 2.184-4.674-.153-.466-.642-2.33.508-4.725 0 0 1.54-.376 4.809 2.18 1.46-.297 3.01-.388 4.537-.288 1.525.114 3.047.42 4.453.917 3.59-2.076 5.061-1.49 5.061-1.49.808 2.532.065 4.31-.151 4.75 1.063 1.33 1.646 2.978 1.51 4.932-.482 6.876-4.786 8.095-8.816 8.259.605.597 1.103 1.73.986 3.399-.167 2.393-.324 4.322-.365 4.909-.034.479.251 1.059 1.174.948 7.296-1.874 12.904-8.219 13.457-16.125.692-9.886-6.788-18.461-16.706-19.155M568.006 80.324c-8.04 5.841-9.84 17.078-4.014 25.095 4.66 6.414 12.784 8.823 19.965 6.538.826-.396.766-1.037.486-1.422-.25-.345-.926-1.248-1.813-2.454-3.413 3.82-6.32 1.618-6.32 1.618-1.88-1.196-3.16-.949-3.16-.949-1.975.06-.54-.955-.54-.955 1.536-.96 3.318-.124 3.318-.124 2.91 1.274 4.554-.9 5.114-1.874-.549-1.033-.637-1.947-.485-2.611-3.5 1.983-7.805 3.207-11.846-2.355-1.151-1.585-1.526-3.294-1.33-4.985-.418-.258-1.99-1.371-2.649-3.945 0 0 .938-1.279 5.085-1.421a17.292 17.292 0 0 1 3.29-3.138 17.311 17.311 0 0 1 4.001-2.16c1.416-3.898 2.92-4.394 2.92-4.394 2.246 1.42 2.82 3.26 2.937 3.735 1.67.336 3.175 1.224 4.326 2.808 4.052 5.577 1.538 9.278-1.444 11.994.848.068 1.957.616 2.94 1.97 1.41 1.94 2.53 3.52 2.876 3.995.282.388.873.65 1.509-.029 4.384-6.125 4.603-14.59-.056-21.002-5.825-8.017-17.067-9.779-25.11-3.935M66.545 88.212c-9.339-3.4-19.66 1.393-23.05 10.705-2.71 7.45-.165 15.533 5.745 20.209.79.463 1.288.054 1.45-.393.146-.4.518-1.465 1.021-2.875-5.075-.694-4.874-4.334-4.874-4.334-.06-2.229-.981-3.15-.981-3.15-1.155-1.605.49-.983.49-.983 1.654.737 1.957 2.68 1.957 2.68.571 3.126 3.293 3.274 4.414 3.193.55-1.033 1.257-1.617 1.893-1.863-3.6-1.792-7.023-4.676-4.671-11.137.67-1.84 1.877-3.107 3.388-3.89-.02-.49.024-2.417 1.79-4.402 0 0 1.585.063 4.022 3.42 1.485.117 3 .458 4.441.974a17.311 17.311 0 0 1 4.028 2.11c4.023-1.007 5.275-.038 5.275-.038.079 2.657-1.126 4.16-1.454 4.524.655 1.572.761 3.316.091 5.157-2.357 6.477-6.831 6.463-10.75 5.509.417.741.583 1.967.01 3.54-.82 2.254-1.502 4.065-1.704 4.618-.164.45-.05 1.087.868 1.234 7.53.21 14.67-4.343 17.38-11.79 3.39-9.312-1.436-19.618-10.779-23.018M26.969 124.477c-9.34 3.399-14.165 13.704-10.776 23.017 2.711 7.45 9.857 12.005 17.39 11.788.903-.153 1.022-.786.86-1.233-.147-.4-.547-1.455-1.067-2.859-4.334 2.731-6.52-.187-6.52-.187-1.479-1.668-2.777-1.783-2.777-1.783-1.916-.486-.256-1.067-.256-1.067 1.74-.499 3.223.795 3.223.795 2.446 2.027 4.626.391 5.433-.391-.243-1.145-.076-2.047.253-2.644-3.91.941-8.386.932-10.738-5.53-.67-1.84-.558-3.586.095-5.157-.33-.363-1.534-1.867-1.458-4.523 0 0 1.254-.97 5.28.036a17.292 17.292 0 0 1 4.028-2.11 17.311 17.311 0 0 1 4.44-.973c2.436-3.357 4.018-3.42 4.018-3.42 1.768 1.985 1.812 3.912 1.794 4.401 1.513.783 2.715 2.051 3.385 3.892 2.357 6.477-1.08 9.342-4.694 11.13.795.3 1.71 1.132 2.283 2.704.82 2.255 1.462 4.081 1.663 4.634.164.451.66.865 1.458.388 5.903-4.68 8.447-12.756 5.736-20.204-3.39-9.312-13.71-14.104-23.053-10.704M91.998 126C82.06 126 74 134.033 74 143.943c0 7.928 5.157 14.653 12.31 17.025.9.165 1.229-.389 1.229-.864 0-.427-.016-1.555-.025-3.052-5.007 1.084-6.063-2.405-6.063-2.405-.819-2.073-1.999-2.625-1.999-2.625-1.634-1.113.124-1.09.124-1.09 1.807.126 2.757 1.849 2.757 1.849 1.605 2.741 4.213 1.95 5.239 1.49.163-1.159.628-1.95 1.142-2.398-3.997-.453-8.199-1.992-8.199-8.868 0-1.959.702-3.561 1.853-4.815-.185-.454-.803-2.279.177-4.748 0 0 1.51-.483 4.95 1.84a17.292 17.292 0 0 1 4.506-.605c1.529.007 3.068.205 4.506.604 3.436-2.322 4.945-1.84 4.945-1.84.982 2.47.364 4.295.18 4.75 1.153 1.253 1.85 2.855 1.85 4.814 0 6.893-4.21 8.41-8.218 8.854.645.554 1.22 1.649 1.22 3.322 0 2.399-.021 4.334-.021 4.923 0 .48.324 1.038 1.237.863 7.147-2.378 12.3-9.098 12.3-17.024 0-9.91-8.06-17.943-18.002-17.943M149.545 110.212c-9.339-3.4-19.66 1.393-23.05 10.705-2.71 7.45-.165 15.533 5.745 20.209.79.463 1.288.054 1.45-.393.146-.4.518-1.465 1.021-2.875-5.075-.694-4.874-4.334-4.874-4.334-.06-2.229-.981-3.15-.981-3.15-1.155-1.605.49-.983.49-.983 1.654.737 1.957 2.68 1.957 2.68.571 3.126 3.293 3.274 4.414 3.193.55-1.033 1.257-1.617 1.893-1.863-3.6-1.792-7.023-4.676-4.671-11.137.67-1.84 1.877-3.107 3.388-3.89-.02-.49.024-2.417 1.79-4.402 0 0 1.585.063 4.022 3.42 1.485.117 3 .458 4.441.974a17.311 17.311 0 0 1 4.028 2.11c4.023-1.007 5.275-.038 5.275-.038.079 2.657-1.126 4.16-1.454 4.524.655 1.572.761 3.316.091 5.157-2.357 6.477-6.831 6.463-10.75 5.509.417.741.583 1.967.01 3.54-.82 2.254-1.502 4.065-1.704 4.618-.164.45-.05 1.087.868 1.234 7.53.21 14.67-4.343 17.38-11.79 3.39-9.312-1.436-19.618-10.779-23.018M203.545 102.212c-9.339-3.4-19.66 1.393-23.05 10.705-2.71 7.45-.165 15.533 5.745 20.209.79.463 1.288.054 1.45-.393.146-.4.518-1.465 1.021-2.875-5.075-.694-4.874-4.334-4.874-4.334-.06-2.229-.981-3.15-.981-3.15-1.155-1.605.49-.983.49-.983 1.654.737 1.957 2.68 1.957 2.68.571 3.126 3.293 3.274 4.414 3.193.55-1.033 1.257-1.617 1.893-1.863-3.6-1.792-7.023-4.676-4.671-11.137.67-1.84 1.877-3.107 3.388-3.89-.02-.49.024-2.417 1.79-4.402 0 0 1.585.063 4.022 3.42 1.485.117 3 .458 4.441.974a17.311 17.311 0 0 1 4.028 2.11c4.023-1.007 5.275-.038 5.275-.038.079 2.657-1.126 4.16-1.454 4.524.655 1.572.761 3.316.091 5.157-2.357 6.477-6.831 6.463-10.75 5.509.417.741.583 1.967.01 3.54-.82 2.254-1.502 4.065-1.704 4.618-.164.45-.05 1.087.868 1.234 7.53.21 14.67-4.343 17.38-11.79 3.39-9.312-1.436-19.618-10.779-23.018M185.463 144.876c-8.607 4.97-11.57 15.957-6.616 24.54 3.964 6.865 11.793 10.11 19.173 8.588.863-.307.87-.951.632-1.363-.213-.37-.79-1.338-1.547-2.63-3.794 3.442-6.453.948-6.453.948-1.746-1.386-3.044-1.274-3.044-1.274-1.971-.146-.438-1.006-.438-1.006 1.628-.794 3.312.223 3.312.223 2.762 1.572 4.624-.418 5.283-1.329-.438-1.085-.43-2.003-.21-2.648-3.688 1.607-8.097 2.374-11.535-3.58-.979-1.696-1.173-3.435-.802-5.096-.388-.3-1.835-1.572-2.221-4.201 0 0 1.067-1.173 5.206-.882a17.292 17.292 0 0 1 3.6-2.777 17.311 17.311 0 0 1 4.205-1.729c1.815-3.73 3.362-4.065 3.362-4.065 2.086 1.647 2.464 3.537 2.53 4.022 1.626.509 3.03 1.548 4.01 3.245 3.446 5.97.56 9.387-2.69 11.776.836.157 1.882.818 2.718 2.267 1.2 2.077 2.148 3.764 2.443 4.274.24.416.8.737 1.503.129 5-5.633 6.103-14.03 2.14-20.893-4.955-8.582-15.952-11.51-24.561-6.539M245.463 126.876c-8.607 4.97-11.57 15.957-6.616 24.54 3.964 6.865 11.793 10.11 19.173 8.588.863-.307.87-.951.632-1.363-.213-.37-.79-1.338-1.547-2.63-3.794 3.442-6.453.948-6.453.948-1.746-1.386-3.044-1.274-3.044-1.274-1.971-.146-.438-1.006-.438-1.006 1.628-.794 3.312.223 3.312.223 2.762 1.572 4.624-.418 5.283-1.329-.438-1.085-.43-2.003-.21-2.648-3.688 1.607-8.097 2.374-11.535-3.58-.979-1.696-1.173-3.435-.802-5.096-.388-.3-1.835-1.572-2.221-4.201 0 0 1.067-1.173 5.206-.882a17.292 17.292 0 0 1 3.6-2.777 17.311 17.311 0 0 1 4.205-1.729c1.815-3.73 3.362-4.065 3.362-4.065 2.086 1.647 2.464 3.537 2.53 4.022 1.626.509 3.03 1.548 4.01 3.245 3.446 5.97.56 9.387-2.69 11.776.836.157 1.882.818 2.718 2.267 1.2 2.077 2.148 3.764 2.443 4.274.24.416.8.737 1.503.129 5-5.633 6.103-14.03 2.14-20.893-4.955-8.582-15.952-11.51-24.561-6.539M317.295 134.064c-6.389-7.613-17.723-8.624-25.315-2.254-6.073 5.096-7.91 13.369-5.129 20.373.452.796 1.088.692 1.452.386.327-.274 1.18-1.011 2.322-1.98-4.049-3.139-2.055-6.191-2.055-6.191 1.062-1.96.726-3.219.726-3.219-.198-1.967.915-.606.915-.606 1.064 1.466.356 3.301.356 3.301-1.069 2.992 1.214 4.48 2.225 4.971.993-.62 1.898-.771 2.572-.666-2.223-3.353-3.744-7.562 1.523-11.981 1.5-1.26 3.179-1.752 4.88-1.675.228-.434 1.229-2.08 3.75-2.917 0 0 1.341.847 1.773 4.973a17.292 17.292 0 0 1 3.36 3.064 17.311 17.311 0 0 1 2.433 3.84c3.988 1.14 4.587 2.606 4.587 2.606-1.26 2.34-3.055 3.04-3.521 3.19-.219 1.69-1 3.253-2.5 4.512-5.28 4.431-9.147 2.182-12.064-.604-.01.85-.479 1.995-1.76 3.07-1.838 1.543-3.335 2.77-3.786 3.148-.367.309-.586.917.134 1.503 6.416 3.947 14.876 3.574 20.947-1.52 7.592-6.37 8.565-17.708 2.175-25.324M325.845 87.938c-6.388 7.613-5.415 18.951 2.177 25.321 6.073 5.096 14.539 5.468 20.954 1.514.706-.584.492-1.191.128-1.497-.327-.274-1.201-.987-2.353-1.943-2.388 4.532-5.74 3.098-5.74 3.098-2.115-.705-3.296-.155-3.296-.155-1.903.536-.756-.796-.756-.796 1.258-1.303 3.189-.923 3.189-.923 3.132.532 4.202-1.975 4.509-3.056-.783-.87-1.09-1.734-1.103-2.416-2.915 2.77-6.796 5-12.063.58-1.5-1.259-2.277-2.826-2.497-4.514-.467-.15-2.263-.85-3.524-3.188 0 0 .601-1.467 4.59-2.609a17.292 17.292 0 0 1 2.433-3.84 17.311 17.311 0 0 1 3.36-3.064c.43-4.125 1.77-4.97 1.77-4.97 2.523.835 3.524 2.481 3.753 2.914 1.702-.078 3.377.42 4.877 1.678 5.28 4.43 3.737 8.63 1.5 11.986.84-.138 2.048.125 3.33 1.2 1.838 1.543 3.306 2.804 3.757 3.182.368.308 1.004.418 1.457-.393 2.772-7.004.936-15.27-5.135-20.365-7.591-6.37-18.926-5.36-25.317 2.256M384.347 115.837c-9.08-4.043-19.71.018-23.74 9.071-3.225 7.242-1.249 15.483 4.32 20.56.756.517 1.281.144 1.475-.29.173-.39.618-1.426 1.218-2.797-5.014-1.047-4.56-4.664-4.56-4.664.095-2.227-.759-3.211-.759-3.211-1.04-1.681.557-.946.557-.946 1.599.85 1.766 2.81 1.766 2.81.352 3.158 3.057 3.496 4.18 3.493.62-.992 1.368-1.525 2.02-1.726-3.468-2.04-6.68-5.155-3.884-11.436.797-1.79 2.09-2.968 3.651-3.645.015-.49.193-2.409 2.093-4.266 0 0 1.576.174 3.773 3.694 1.474.22 2.962.664 4.363 1.28 1.394.629 2.72 1.436 3.87 2.385 4.085-.723 5.266.331 5.266.331-.107 2.656-1.414 4.072-1.767 4.411.544 1.615.528 3.362-.268 5.151-2.804 6.297-7.266 5.971-11.109 4.746.364.769.445 2.003-.236 3.531-.975 2.192-1.783 3.951-2.022 4.489-.195.438-.126 1.08.78 1.292 7.496.734 14.937-3.31 18.16-10.55 4.03-9.053-.065-19.67-9.147-23.713M435.347 91.837c-9.08-4.043-19.71.018-23.74 9.071-3.225 7.242-1.249 15.483 4.32 20.56.756.517 1.281.144 1.475-.29.173-.39.618-1.426 1.218-2.797-5.014-1.047-4.56-4.664-4.56-4.664.095-2.227-.759-3.211-.759-3.211-1.04-1.681.557-.946.557-.946 1.599.85 1.766 2.81 1.766 2.81.352 3.158 3.057 3.496 4.18 3.493.62-.992 1.368-1.525 2.02-1.726-3.468-2.04-6.68-5.155-3.884-11.436.797-1.79 2.09-2.968 3.651-3.645.015-.49.193-2.409 2.093-4.266 0 0 1.576.174 3.773 3.694 1.474.22 2.962.664 4.363 1.28 1.394.629 2.72 1.436 3.87 2.385 4.085-.723 5.266.331 5.266.331-.107 2.656-1.414 4.072-1.767 4.411.544 1.615.528 3.362-.268 5.151-2.804 6.297-7.266 5.971-11.109 4.746.364.769.445 2.003-.236 3.531-.975 2.192-1.783 3.951-2.022 4.489-.195.438-.126 1.08.78 1.292 7.496.734 14.937-3.31 18.16-10.55 4.03-9.053-.065-19.67-9.147-23.713M433.336 152.456c-4.357-8.932-15.11-12.655-24.018-8.31-7.125 3.475-10.908 11.058-9.905 18.527.246.882.888.934 1.316.725.383-.187 1.39-.695 2.731-1.36-3.169-4.024-.495-6.503-.495-6.503 1.504-1.645 1.483-2.948 1.483-2.948.283-1.956 1.034-.367 1.034-.367.678 1.68-.454 3.29-.454 3.29-1.76 2.644.095 4.64.957 5.361 1.114-.36 2.028-.29 2.657-.024-1.346-3.791-1.804-8.243 4.376-11.257 1.76-.859 3.508-.93 5.14-.445.326-.366 1.696-1.721 4.345-1.923 0 0 1.096 1.146.517 5.255a17.292 17.292 0 0 1 2.518 3.785 17.311 17.311 0 0 1 1.432 4.315c3.594 2.071 3.821 3.638 3.821 3.638-1.789 1.966-3.7 2.21-4.189 2.244-.62 1.586-1.756 2.914-3.516 3.773-6.196 3.022-9.404-.096-11.56-3.505-.216.823-.947 1.82-2.451 2.554-2.156 1.052-3.906 1.88-4.434 2.138-.432.21-.791.747-.234 1.49 5.27 5.382 13.57 7.067 20.693 3.593 8.907-4.344 12.594-15.11 8.236-24.046M468.006 111.324c-8.04 5.841-9.84 17.078-4.014 25.095 4.66 6.414 12.784 8.823 19.965 6.538.826-.396.766-1.037.486-1.422-.25-.345-.926-1.248-1.813-2.454-3.413 3.82-6.32 1.618-6.32 1.618-1.88-1.196-3.16-.949-3.16-.949-1.975.06-.54-.955-.54-.955 1.536-.96 3.318-.124 3.318-.124 2.91 1.274 4.554-.9 5.114-1.874-.549-1.033-.637-1.947-.485-2.611-3.5 1.983-7.805 3.207-11.846-2.355-1.151-1.585-1.526-3.294-1.33-4.985-.418-.258-1.99-1.371-2.649-3.945 0 0 .938-1.279 5.085-1.421a17.292 17.292 0 0 1 3.29-3.138 17.311 17.311 0 0 1 4.001-2.16c1.416-3.898 2.92-4.394 2.92-4.394 2.246 1.42 2.82 3.26 2.937 3.735 1.67.336 3.175 1.224 4.326 2.808 4.052 5.577 1.538 9.278-1.444 11.994.848.068 1.957.616 2.94 1.97 1.41 1.94 2.53 3.52 2.876 3.995.282.388.873.65 1.509-.029 4.384-6.125 4.603-14.59-.056-21.002-5.825-8.017-17.067-9.779-25.11-3.935M528.006 120.324c-8.04 5.841-9.84 17.078-4.014 25.095 4.66 6.414 12.784 8.823 19.965 6.538.826-.396.766-1.037.486-1.422-.25-.345-.926-1.248-1.813-2.454-3.413 3.82-6.32 1.618-6.32 1.618-1.88-1.196-3.16-.949-3.16-.949-1.975.06-.54-.955-.54-.955 1.536-.96 3.318-.124 3.318-.124 2.91 1.274 4.554-.9 5.114-1.874-.549-1.033-.637-1.947-.485-2.611-3.5 1.983-7.805 3.207-11.846-2.355-1.151-1.585-1.526-3.294-1.33-4.985-.418-.258-1.99-1.371-2.649-3.945 0 0 .938-1.279 5.085-1.421a17.292 17.292 0 0 1 3.29-3.138 17.311 17.311 0 0 1 4.001-2.16c1.416-3.898 2.92-4.394 2.92-4.394 2.246 1.42 2.82 3.26 2.937 3.735 1.67.336 3.175 1.224 4.326 2.808 4.052 5.577 1.538 9.278-1.444 11.994.848.068 1.957.616 2.94 1.97 1.41 1.94 2.53 3.52 2.876 3.995.282.388.873.65 1.509-.029 4.384-6.125 4.603-14.59-.056-21.002-5.825-8.017-17.067-9.779-25.11-3.935"/></g></svg>