<svg xmlns="http://www.w3.org/2000/svg" viewBox="0 0 605 180"><title>hamburger</title><g fill-rule="evenodd"><path d="M35.322 34.825c-.5-.866.116-1.799.982-2.299l17.32-10c.76-.438 1.982-.567 2.482.3.5.865-.222 1.86-.982 2.298l-17.32 10c-.866.5-1.982.567-2.482-.299zM31.322 27.897c-.5-.866.116-1.799.982-2.299l17.32-10c.76-.439 1.982-.567 2.482.3.5.865-.222 1.86-.982 2.298l-17.32 10c-.866.5-1.982.567-2.482-.299zM27.322 20.969c-.5-.866.116-1.8.982-2.3.73-.421 16.56-9.56 17.32-10 .76-.438 1.982-.566 2.482.3.5.866-.222 1.86-.982 2.299l-17.32 10c-.866.5-1.982.567-2.482-.3zM64.95 60.92c.175-.984 1.246-1.303 2.231-1.129l19.696 3.473c.864.152 1.883.84 1.71 1.824-.174.985-1.367 1.283-2.23 1.13L66.66 62.745c-.985-.173-1.883-.84-1.71-1.824zM66.34 53.042c.174-.984 1.245-1.303 2.23-1.13l19.696 3.473c.864.153 1.883.84 1.71 1.825-.174.985-1.367 1.282-2.23 1.13l-19.697-3.473c-.985-.174-1.883-.84-1.709-1.825zM67.73 45.164c.173-.985 1.245-1.304 2.23-1.13l19.696 3.473c.864.152 1.882.84 1.709 1.825-.174.984-1.366 1.282-2.23 1.13l-19.697-3.474c-.984-.173-1.882-.84-1.709-1.824zM125.322 43.825c-.5-.866.116-1.799.982-2.299l17.32-10c.76-.438 1.982-.567 2.482.3.5.865-.222 1.86-.982 2.298l-17.32 10c-.866.5-1.982.567-2.482-.299zM121.322 36.897c-.5-.866.116-1.799.982-2.299l17.32-10c.76-.439 1.982-.567 2.482.3.5.865-.222 1.86-.982 2.298l-17.32 10c-.866.5-1.982.567-2.482-.299zM117.322 29.969c-.5-.866.116-1.8.982-2.3.73-.421 16.56-9.56 17.32-10 .76-.438 1.982-.566 2.482.3.5.866-.222 1.86-.982 2.299l-17.32 10c-.866.5-1.982.567-2.482-.3zM184.207 39.01c.342-.94 1.453-1.068 2.393-.726.793.29 17.97 6.54 18.793 6.84.825.301 1.709 1.155 1.367 2.094-.342.94-1.568 1.026-2.393.726l-18.793-6.84c-.94-.342-1.709-1.154-1.367-2.094zM186.943 31.492c.342-.94 1.453-1.067 2.393-.725l18.794 6.84c.824.3 1.708 1.154 1.366 2.094-.342.94-1.568 1.025-2.392.725l-18.794-6.84c-.94-.342-1.709-1.154-1.367-2.094zM189.68 23.975c.342-.94 1.452-1.068 2.392-.726.793.29 17.97 6.54 18.794 6.84.824.3 1.708 1.155 1.366 2.094-.342.94-1.568 1.026-2.392.726l-18.794-6.84c-.94-.343-1.708-1.154-1.366-2.094zM256.322 40.825c-.5-.866.116-1.799.982-2.299l17.32-10c.76-.438 1.982-.567 2.482.3.5.865-.222 1.86-.982 2.298l-17.32 10c-.866.5-1.982.567-2.482-.299zM252.322 33.897c-.5-.866.116-1.799.982-2.299l17.32-10c.76-.439 1.982-.567 2.482.3.5.865-.222 1.86-.982 2.298l-17.32 10c-.866.5-1.982.567-2.482-.299zM248.322 26.969c-.5-.866.116-1.8.982-2.3.73-.421 16.56-9.56 17.32-10 .76-.438 1.982-.566 2.482.3.5.866-.222 1.86-.982 2.299l-17.32 10c-.866.5-1.982.567-2.482-.3zM340.705 37.594c.515-.857 1.63-.77 2.487-.255.723.434 16.39 9.849 17.143 10.3.752.452 1.457 1.459.942 2.316-.515.857-1.735.708-2.487.256l-17.144-10.3c-.857-.516-1.456-1.46-.941-2.317zM344.825 30.737c.515-.857 1.63-.77 2.487-.256l17.143 10.301c.752.452 1.457 1.459.942 2.316-.515.857-1.735.707-2.487.256l-17.143-10.301c-.857-.515-1.457-1.459-.942-2.316zM348.945 23.88c.515-.858 1.63-.771 2.487-.256l17.144 10.3c.752.453 1.456 1.46.941 2.317-.515.857-1.735.707-2.487.255l-17.143-10.3c-.857-.516-1.457-1.46-.942-2.316zM426.434 49.438c-.719-.695-.384-1.761.31-2.48l13.894-14.388c.61-.63 1.749-1.09 2.468-.396.72.694.3 1.85-.31 2.48l-13.893 14.387c-.695.72-1.75 1.092-2.469.397zM420.68 43.88c-.72-.694-.385-1.76.31-2.48l13.893-14.387c.61-.63 1.75-1.091 2.469-.396.719.694.299 1.85-.31 2.48l-13.894 14.387c-.695.72-1.749 1.091-2.468.397zM414.925 38.323c-.72-.694-.384-1.76.31-2.48l13.894-14.387c.609-.631 1.749-1.091 2.468-.397.72.695.299 1.85-.31 2.48l-13.894 14.388c-.694.72-1.749 1.091-2.468.396zM503.875 39.815c-.588-.809-.072-1.801.737-2.39l16.18-11.755c.71-.515 1.912-.77 2.5.038.587.81-.027 1.874-.737 2.39l-16.18 11.755c-.81.588-1.912.771-2.5-.038zM499.173 33.343c-.588-.81-.073-1.801.736-2.39l16.18-11.755c.71-.516 1.913-.771 2.5.038.588.809-.026 1.873-.736 2.39l-16.18 11.755c-.81.588-1.912.77-2.5-.038zM494.47 26.87c-.587-.808-.072-1.8.737-2.388l16.18-11.756c.71-.516 1.912-.771 2.5.038.588.809-.027 1.873-.736 2.389l-16.18 11.756c-.81.587-1.913.77-2.5-.038zM539.378 50.89a23456211465487988 23456211465487988 0 0 1 19.078 11.059c.727.49 1.378 1.532.819 2.361-.56.83-1.77.616-2.497.125l-16.58-11.184c-.83-.559-1.38-1.533-.82-2.362zM543.851 44.257a23456211465487988 23456211465487988 0 0 1 19.078 11.059c.727.49 1.378 1.533.82 2.362-.56.829-1.77.616-2.498.125l-16.58-11.184c-.83-.56-1.379-1.533-.82-2.362zM548.325 37.625c.56-.83 1.668-.685 2.497-.125l16.58 11.184c.728.49 1.379 1.532.82 2.361-.56.83-1.77.616-2.497.126l-16.58-11.184c-.83-.56-1.38-1.533-.82-2.362zM8.207 80.01c.342-.94 1.453-1.068 2.393-.726.793.29 17.97 6.54 18.793 6.84.825.301 1.709 1.155 1.367 2.094-.342.94-1.568 1.026-2.393.726l-18.793-6.84c-.94-.342-1.709-1.154-1.367-2.094zM10.943 72.492c.342-.94 1.453-1.067 2.393-.725l18.794 6.84c.824.3 1.708 1.154 1.366 2.094-.342.94-1.568 1.025-2.392.725l-18.794-6.84c-.94-.342-1.709-1.154-1.367-2.094zM13.68 64.975c.342-.94 1.452-1.068 2.392-.726.793.29 17.97 6.54 18.794 6.84.824.3 1.708 1.155 1.366 2.094-.342.94-1.568 1.026-2.392.726l-18.794-6.84c-.94-.343-1.708-1.154-1.366-2.094zM115.322 98.825c-.5-.866.116-1.799.982-2.299l17.32-10c.76-.438 1.982-.567 2.482.3.5.865-.222 1.86-.982 2.298l-17.32 10c-.866.5-1.982.567-2.482-.299zM111.322 91.897c-.5-.866.116-1.799.982-2.299l17.32-10c.76-.439 1.982-.567 2.482.3.5.865-.222 1.86-.982 2.298l-17.32 10c-.866.5-1.982.567-2.482-.299zM107.322 84.969c-.5-.866.116-1.8.982-2.3.73-.421 16.56-9.56 17.32-10 .76-.438 1.982-.566 2.482.3.5.866-.222 1.86-.982 2.299l-17.32 10c-.866.5-1.982.567-2.482-.3z"/><g><path d="M159 85.5c0-1 1-1.5 2-1.5h20c.877 0 2 .5 2 1.5s-1.123 1.5-2 1.5h-20c-1 0-2-.5-2-1.5zM159 77.5c0-1 1-1.5 2-1.5h20c.877 0 2 .5 2 1.5s-1.123 1.5-2 1.5h-20c-1 0-2-.5-2-1.5zM159 69.5c0-1 1-1.5 2-1.5h20c.877 0 2 .5 2 1.5s-1.123 1.5-2 1.5h-20c-1 0-2-.5-2-1.5z"/></g><g><path d="M228.322 88.825c-.5-.866.116-1.799.982-2.299l17.32-10c.76-.438 1.982-.567 2.482.3.5.865-.222 1.86-.982 2.298l-17.32 10c-.866.5-1.982.567-2.482-.299zM224.322 81.897c-.5-.866.116-1.799.982-2.299l17.32-10c.76-.439 1.982-.567 2.482.3.5.865-.222 1.86-.982 2.298l-17.32 10c-.866.5-1.982.567-2.482-.299zM220.322 74.969c-.5-.866.116-1.8.982-2.3.73-.421 16.56-9.56 17.32-10 .76-.438 1.982-.566 2.482.3.5.866-.222 1.86-.982 2.299l-17.32 10c-.866.5-1.982.567-2.482-.3z"/></g><g><path d="M271.292 111.7c-.174-.986.724-1.652 1.71-1.825l19.695-3.473c.864-.153 2.057.145 2.23 1.13.174.985-.845 1.672-1.709 1.824l-19.696 3.473c-.985.174-2.056-.145-2.23-1.13zM269.903 103.82c-.174-.984.724-1.65 1.71-1.824l19.695-3.473c.864-.152 2.057.145 2.23 1.13.174.985-.845 1.672-1.709 1.825l-19.696 3.473c-.985.173-2.056-.145-2.23-1.13zM268.514 95.942c-.174-.984.724-1.65 1.709-1.824l19.696-3.473c.864-.152 2.057.145 2.23 1.13.174.985-.845 1.672-1.709 1.824l-19.696 3.473c-.985.174-2.057-.145-2.23-1.13z"/></g><g><path d="M298.292 71.7c-.174-.986.724-1.652 1.71-1.825l19.695-3.473c.864-.153 2.057.145 2.23 1.13.174.985-.845 1.672-1.709 1.824l-19.696 3.473c-.985.174-2.056-.145-2.23-1.13zM296.903 63.82c-.174-.984.724-1.65 1.71-1.824l19.695-3.473c.864-.152 2.057.145 2.23 1.13.174.985-.845 1.672-1.709 1.825l-19.696 3.473c-.985.173-2.056-.145-2.23-1.13zM295.514 55.942c-.174-.984.724-1.65 1.709-1.824l19.696-3.473c.864-.152 2.057.145 2.23 1.13.174.985-.845 1.672-1.709 1.824l-19.696 3.473c-.985.174-2.057-.145-2.23-1.13z"/></g><g><path d="M380.875 87.815c-.588-.809-.072-1.801.737-2.39l16.18-11.755c.71-.515 1.912-.77 2.5.038.587.81-.027 1.874-.737 2.39l-16.18 11.755c-.81.588-1.912.771-2.5-.038zM376.173 81.343c-.588-.81-.073-1.801.736-2.39l16.18-11.755c.71-.516 1.913-.771 2.5.038.588.809-.026 1.873-.736 2.39l-16.18 11.755c-.81.588-1.912.77-2.5-.038zM371.47 74.87c-.587-.808-.072-1.8.737-2.388l16.18-11.756c.71-.516 1.912-.771 2.5.038.588.809-.027 1.873-.736 2.389l-16.18 11.756c-.81.587-1.913.77-2.5-.038z"/></g><g><path d="M450.607 73.165c.407-.913 1.524-.963 2.438-.556l18.27 8.134c.802.357 1.624 1.27 1.218 2.184-.407.914-1.636.914-2.438.557l-18.27-8.135c-.914-.407-1.624-1.27-1.218-2.184zM453.861 65.857c.407-.913 1.524-.964 2.438-.557.77.344 17.469 7.778 18.27 8.135.802.357 1.624 1.27 1.217 2.184-.406.913-1.635.913-2.437.557l-18.27-8.135c-.914-.407-1.624-1.27-1.218-2.184zM457.115 58.549c.407-.914 1.524-.964 2.437-.557l18.271 8.135c.802.356 1.624 1.27 1.217 2.183-.406.914-1.635.914-2.437.557l-18.27-8.135c-.914-.406-1.625-1.27-1.218-2.183z"/></g><g><path d="M504.148 95.911c.07-.997 1.102-1.426 2.1-1.356l19.95 1.395c.876.061 1.96.638 1.891 1.636-.07.997-1.225 1.418-2.1 1.356l-19.951-1.395c-.998-.07-1.96-.638-1.89-1.636zM504.706 87.931c.07-.998 1.102-1.427 2.1-1.357l19.95 1.395c.876.061 1.96.639 1.891 1.636-.07.998-1.224 1.418-2.1 1.357l-19.95-1.395c-.998-.07-1.961-.638-1.891-1.636zM505.264 79.95c.07-.997 1.102-1.426 2.1-1.356l19.95 1.395c.876.061 1.96.638 1.891 1.636-.07.997-1.224 1.418-2.1 1.356l-19.95-1.395c-.998-.07-1.961-.638-1.891-1.636z"/></g><g><path d="M573.875 108.815c-.588-.809-.072-1.801.737-2.39l16.18-11.755c.71-.515 1.912-.77 2.5.038.587.81-.027 1.874-.737 2.39l-16.18 11.755c-.81.588-1.912.771-2.5-.038zM569.173 102.343c-.588-.81-.073-1.801.736-2.39l16.18-11.755c.71-.516 1.913-.771 2.5.038.588.809-.026 1.873-.736 2.39l-16.18 11.755c-.81.588-1.912.77-2.5-.038zM564.47 95.87c-.587-.808-.072-1.8.737-2.388l16.18-11.756c.71-.516 1.912-.771 2.5.038.588.809-.027 1.873-.736 2.389l-16.18 11.756c-.81.587-1.913.77-2.5-.038z"/></g><g><path d="M46.207 109.01c.342-.94 1.453-1.068 2.393-.726.793.29 17.97 6.54 18.793 6.84.825.301 1.709 1.155 1.367 2.094-.342.94-1.568 1.026-2.393.726l-18.793-6.84c-.94-.342-1.709-1.154-1.367-2.094zM48.943 101.492c.342-.94 1.453-1.067 2.393-.725l18.794 6.84c.824.3 1.708 1.154 1.366 2.094-.342.94-1.568 1.025-2.392.725l-18.794-6.84c-.94-.342-1.709-1.154-1.367-2.094zM51.68 93.975c.342-.94 1.452-1.068 2.392-.726.793.29 17.97 6.54 18.794 6.84.824.3 1.708 1.155 1.366 2.094-.342.94-1.568 1.026-2.392.726l-18.794-6.84c-.94-.343-1.708-1.154-1.366-2.094z"/></g><g><path d="M24.758 153.482c-.342-.94.426-1.751 1.366-2.093l18.794-6.84c.824-.3 2.05-.215 2.392.725.342.94-.542 1.793-1.366 2.093l-18.794 6.84c-.94.343-2.05.215-2.392-.725zM22.022 145.965c-.342-.94.426-1.752 1.366-2.094l18.794-6.84c.824-.3 2.05-.214 2.392.725.342.94-.542 1.794-1.366 2.094l-18.794 6.84c-.94.342-2.05.214-2.392-.725zM19.285 138.447c-.342-.94.427-1.751 1.367-2.093l18.794-6.84c.824-.3 2.05-.215 2.392.725.342.94-.542 1.793-1.366 2.093l-18.794 6.84c-.94.343-2.05.215-2.393-.725z"/></g><g><path d="M80 152.5c0-1 1-1.5 2-1.5h20c.877 0 2 .5 2 1.5s-1.123 1.5-2 1.5H82c-1 0-2-.5-2-1.5zM80 144.5c0-1 1-1.5 2-1.5h20c.877 0 2 .5 2 1.5s-1.123 1.5-2 1.5H82c-1 0-2-.5-2-1.5zM80 136.5c0-1 1-1.5 2-1.5h20c.877 0 2 .5 2 1.5s-1.123 1.5-2 1.5H82c-1 0-2-.5-2-1.5z"/></g><g><path d="M129.207 131.01c.342-.94 1.453-1.068 2.393-.726.793.29 17.97 6.54 18.793 6.84.825.301 1.709 1.155 1.367 2.094-.342.94-1.568 1.026-2.393.726l-18.793-6.84c-.94-.342-1.709-1.154-1.367-2.094zM131.943 123.492c.342-.94 1.453-1.067 2.393-.725l18.794 6.84c.824.3 1.708 1.154 1.366 2.094-.342.94-1.568 1.025-2.392.725l-18.794-6.84c-.94-.342-1.709-1.154-1.367-2.094zM134.68 115.975c.342-.94 1.452-1.068 2.392-.726.793.29 17.97 6.54 18.794 6.84.824.3 1.708 1.155 1.366 2.094-.342.94-1.568 1.026-2.392.726l-18.794-6.84c-.94-.343-1.708-1.154-1.366-2.094z"/></g><g><path d="M183.207 123.01c.342-.94 1.453-1.068 2.393-.726.793.29 17.97 6.54 18.793 6.84.825.301 1.709 1.155 1.367 2.094-.342.94-1.568 1.026-2.393.726l-18.793-6.84c-.94-.342-1.709-1.154-1.367-2.094zM185.943 115.492c.342-.94 1.453-1.067 2.393-.725l18.794 6.84c.824.3 1.708 1.154 1.366 2.094-.342.94-1.568 1.025-2.392.725l-18.794-6.84c-.94-.342-1.709-1.154-1.367-2.094zM188.68 107.975c.342-.94 1.452-1.068 2.392-.726.793.29 17.97 6.54 18.794 6.84.824.3 1.708 1.155 1.366 2.094-.342.94-1.568 1.026-2.392.726l-18.794-6.84c-.94-.343-1.708-1.154-1.366-2.094z"/></g><g><path d="M188.322 173.825c-.5-.866.116-1.799.982-2.299l17.32-10c.76-.438 1.982-.567 2.482.3.5.865-.222 1.86-.982 2.298l-17.32 10c-.866.5-1.982.567-2.482-.299zM184.322 166.897c-.5-.866.116-1.799.982-2.299l17.32-10c.76-.439 1.982-.567 2.482.3.5.865-.222 1.86-.982 2.298l-17.32 10c-.866.5-1.982.567-2.482-.299zM180.322 159.969c-.5-.866.116-1.8.982-2.3.73-.421 16.56-9.56 17.32-10 .76-.438 1.982-.566 2.482.3.5.866-.222 1.86-.982 2.299l-17.32 10c-.866.5-1.982.567-2.482-.3z"/></g><g><path d="M248.322 155.825c-.5-.866.116-1.799.982-2.299l17.32-10c.76-.438 1.982-.567 2.482.3.5.865-.222 1.86-.982 2.298l-17.32 10c-.866.5-1.982.567-2.482-.299zM244.322 148.897c-.5-.866.116-1.799.982-2.299l17.32-10c.76-.439 1.982-.567 2.482.3.5.865-.222 1.86-.982 2.298l-17.32 10c-.866.5-1.982.567-2.482-.299zM240.322 141.969c-.5-.866.116-1.8.982-2.3.73-.421 16.56-9.56 17.32-10 .76-.438 1.982-.566 2.482.3.5.866-.222 1.86-.982 2.299l-17.32 10c-.866.5-1.982.567-2.482-.3z"/></g><g><path d="M289.282 141.906c.766-.642 1.792-.198 2.435.568l12.856 15.321c.563.672.902 1.854.136 2.497-.766.642-1.87.104-2.435-.568l-12.855-15.321c-.643-.766-.903-1.854-.137-2.497zM295.41 136.764c.767-.643 1.792-.198 2.435.568l12.856 15.321c.564.672.902 1.853.136 2.496s-1.87.104-2.434-.568l-12.856-15.32c-.643-.767-.903-1.854-.137-2.497zM301.539 131.622c.766-.643 1.792-.198 2.434.568l12.856 15.32c.564.673.903 1.854.137 2.497-.766.643-1.871.104-2.435-.568l-12.856-15.32c-.642-.767-.902-1.854-.136-2.497z"/></g><g><path d="M338.433 114.163c-.766-.643-.506-1.73.137-2.496l12.856-15.321c.563-.672 1.668-1.21 2.434-.568.766.643.428 1.824-.136 2.496l-12.856 15.321c-.643.766-1.669 1.211-2.435.568zM332.305 109.02c-.766-.642-.506-1.73.136-2.495l12.856-15.321c.564-.672 1.669-1.211 2.435-.568.766.643.427 1.824-.137 2.496l-12.855 15.321c-.643.766-1.67 1.21-2.435.568zM326.177 103.879c-.767-.643-.507-1.73.136-2.497l12.856-15.32c.564-.673 1.668-1.211 2.434-.568.766.642.428 1.824-.136 2.496l-12.856 15.32c-.643.767-1.668 1.211-2.434.569z"/></g><g><path d="M362.607 135.165c.407-.913 1.524-.963 2.438-.556l18.27 8.134c.802.357 1.624 1.27 1.218 2.184-.407.914-1.636.914-2.438.557l-18.27-8.135c-.914-.407-1.624-1.27-1.218-2.184zM365.861 127.857c.407-.913 1.524-.964 2.438-.557.77.344 17.469 7.778 18.27 8.135.802.357 1.624 1.27 1.217 2.184-.406.913-1.635.913-2.437.557l-18.27-8.135c-.914-.407-1.624-1.27-1.218-2.184zM369.115 120.549c.407-.914 1.524-.964 2.437-.557l18.271 8.135c.802.356 1.624 1.27 1.217 2.183-.406.914-1.635.914-2.437.557l-18.27-8.135c-.914-.406-1.625-1.27-1.218-2.183z"/></g><g><path d="M413.607 111.165c.407-.913 1.524-.963 2.438-.556l18.27 8.134c.802.357 1.624 1.27 1.218 2.184-.407.914-1.636.914-2.438.557l-18.27-8.135c-.914-.407-1.624-1.27-1.218-2.184zM416.861 103.857c.407-.913 1.524-.964 2.438-.557.77.344 17.469 7.778 18.27 8.135.802.357 1.624 1.27 1.217 2.184-.406.913-1.635.913-2.437.557l-18.27-8.135c-.914-.407-1.624-1.27-1.218-2.184zM420.115 96.549c.407-.914 1.524-.964 2.437-.557l18.271 8.135c.802.356 1.624 1.27 1.217 2.183-.406.914-1.635.914-2.437.557l-18.27-8.135c-.914-.406-1.625-1.27-1.218-2.183z"/></g><g><path d="M404.258 153.29c.899-.44 1.787.24 2.225 1.14l8.767 17.975c.385.789.428 2.017-.471 2.455-.899.439-1.84-.351-2.225-1.14l-8.767-17.976c-.439-.898-.428-2.016.471-2.455zM411.448 149.782c.9-.438 1.787.242 2.225 1.14l8.768 17.976c.384.789.427 2.017-.472 2.455-.898.439-1.84-.351-2.225-1.14l-8.767-17.976c-.438-.898-.427-2.016.471-2.455zM418.639 146.275c.899-.438 1.786.242 2.225 1.14l8.767 17.976c.385.789.428 2.017-.471 2.455-.9.439-1.84-.351-2.225-1.14l-8.768-17.976c-.438-.898-.427-2.016.472-2.455z"/></g><g><path d="M473.875 139.815c-.588-.809-.072-1.801.737-2.39l16.18-11.755c.71-.515 1.912-.77 2.5.038.587.81-.027 1.874-.737 2.39l-16.18 11.755c-.81.588-1.912.771-2.5-.038zM469.173 133.343c-.588-.81-.073-1.801.736-2.39l16.18-11.755c.71-.516 1.913-.771 2.5.038.588.809-.026 1.873-.736 2.39l-16.18 11.755c-.81.588-1.912.77-2.5-.038zM464.47 126.87c-.587-.808-.072-1.8.737-2.388l16.18-11.756c.71-.516 1.912-.771 2.5.038.588.809-.027 1.873-.736 2.389l-16.18 11.756c-.81.587-1.913.77-2.5-.038z"/></g><g><path d="M533.875 148.815c-.588-.809-.072-1.801.737-2.39l16.18-11.755c.71-.515 1.912-.77 2.5.038.587.81-.027 1.874-.737 2.39l-16.18 11.755c-.81.588-1.912.771-2.5-.038zM529.173 142.343c-.588-.81-.073-1.801.736-2.39l16.18-11.755c.71-.516 1.913-.771 2.5.038.588.809-.026 1.873-.736 2.39l-16.18 11.755c-.81.588-1.912.77-2.5-.038zM524.47 135.87c-.587-.808-.072-1.8.737-2.388l16.18-11.756c.71-.516 1.912-.771 2.5.038.588.809-.027 1.873-.736 2.389l-16.18 11.756c-.81.587-1.913.77-2.5-.038z"/></g></g></svg>