<svg xmlns="http://www.w3.org/2000/svg" viewBox="0 0 605 180"><title>info</title><g fill-rule="evenodd"><path d="M50.464 37.053c8.61-4.971 11.56-15.98 6.589-24.589-4.971-8.61-15.98-11.559-24.589-6.588-8.61 4.97-11.559 15.979-6.588 24.588 4.97 8.61 15.979 11.56 24.588 6.589zm-4.699-12.716l.248.847c-.42.528-.76.942-1.02 1.242-.26.3-.603.574-1.032.822-.66.38-1.265.516-1.816.405a1.8 1.8 0 0 1-1.256-.908 5.013 5.013 0 0 1-.299-.613 8.21 8.21 0 0 1-.26-.757l-.715-2.798a13.266 13.266 0 0 0-.226-.743 3.349 3.349 0 0 0-.264-.601c-.178-.308-.365-.486-.56-.534-.197-.048-.474.032-.831.238-.176.101-.34.233-.493.394-.152.161-.28.305-.383.43l-.248-.846c.341-.439.677-.84 1.01-1.204a4.41 4.41 0 0 1 1.042-.86c.654-.378 1.25-.511 1.787-.4.537.112.952.42 1.244.926.06.104.154.296.281.574.128.278.222.546.283.804l.71 2.79a7.7 7.7 0 0 0 .232.745c.099.273.185.473.258.6.184.318.38.494.59.527.21.033.49-.052.842-.256a2.46 2.46 0 0 0 .511-.41c.176-.178.297-.316.365-.414zm-5.64-10.168c.242.417.29.865.143 1.341a1.867 1.867 0 0 1-.887 1.1c-.445.258-.912.331-1.401.221a1.617 1.617 0 0 1-1.095-.791c-.241-.418-.288-.868-.14-1.349.147-.48.443-.85.889-1.107a1.858 1.858 0 0 1 1.399-.214c.487.115.852.38 1.093.799zM75.119 72.36c9.79 1.727 19.126-4.81 20.852-14.6 1.726-9.79-4.81-19.126-14.6-20.853-9.79-1.726-19.127 4.811-20.853 14.601-1.726 9.79 4.81 19.126 14.601 20.852zm4.574-12.76l-.355.807c-.662.134-1.188.233-1.58.296-.391.064-.83.052-1.318-.034-.75-.132-1.301-.418-1.652-.857a1.8 1.8 0 0 1-.378-1.502c.038-.219.093-.44.165-.662a8.21 8.21 0 0 1 .286-.747l1.252-2.603c.115-.25.217-.489.305-.715.088-.226.15-.436.183-.63.062-.35.033-.606-.086-.77-.12-.162-.383-.28-.79-.35-.2-.036-.41-.041-.63-.015-.22.025-.41.053-.57.083l.355-.808a19.838 19.838 0 0 1 1.546-.273 4.41 4.41 0 0 1 1.352.01c.744.132 1.286.413 1.626.843.34.43.459.934.357 1.509-.02.119-.072.325-.153.62a4.32 4.32 0 0 1-.3.798l-1.25 2.594a7.7 7.7 0 0 0-.301.72c-.1.272-.162.48-.187.624-.064.363-.027.624.113.784.14.16.409.275.809.346.187.033.406.038.655.014s.431-.051.546-.083zm2.216-11.415a1.623 1.623 0 0 1-.753 1.12c-.419.27-.881.361-1.387.272a1.884 1.884 0 0 1-1.215-.732 1.617 1.617 0 0 1-.33-1.31c.084-.475.337-.85.759-1.123a1.874 1.874 0 0 1 1.392-.277c.507.09.91.335 1.21.736.3.4.408.839.324 1.314zM140.464 46.053c8.61-4.971 11.56-15.98 6.589-24.589-4.971-8.61-15.98-11.559-24.589-6.588-8.61 4.97-11.559 15.979-6.588 24.588 4.97 8.61 15.979 11.56 24.588 6.589zm-4.699-12.716l.248.847c-.42.528-.76.942-1.02 1.242-.26.3-.603.574-1.032.822-.66.38-1.265.516-1.816.405a1.8 1.8 0 0 1-1.256-.908 5.013 5.013 0 0 1-.299-.613 8.21 8.21 0 0 1-.26-.757l-.715-2.798a13.266 13.266 0 0 0-.226-.743 3.349 3.349 0 0 0-.264-.601c-.178-.308-.365-.486-.56-.534-.197-.048-.474.032-.831.238-.176.101-.34.233-.493.394-.152.161-.28.305-.383.43l-.248-.846c.341-.439.677-.84 1.01-1.204a4.41 4.41 0 0 1 1.042-.86c.654-.378 1.25-.511 1.787-.4.537.112.952.42 1.244.926.06.104.154.296.281.574.128.278.222.546.283.804l.71 2.79a7.7 7.7 0 0 0 .232.745c.099.273.185.473.258.6.184.318.38.494.59.527.21.033.49-.052.842-.256a2.46 2.46 0 0 0 .511-.41c.176-.178.297-.316.365-.414zm-5.64-10.168c.242.417.29.865.143 1.341a1.867 1.867 0 0 1-.887 1.1c-.445.258-.912.331-1.401.221a1.617 1.617 0 0 1-1.095-.791c-.241-.418-.288-.868-.14-1.349.147-.48.443-.85.889-1.107a1.858 1.858 0 0 1 1.399-.214c.487.115.852.38 1.093.799zM192.234 52.041c9.342 3.4 19.671-1.416 23.071-10.758 3.4-9.341-1.416-19.67-10.758-23.07-9.342-3.4-19.67 1.416-23.07 10.757-3.4 9.342 1.416 19.671 10.757 23.071zm6.721-11.773l-.49.734c-.675.018-1.21.024-1.607.018a3.972 3.972 0 0 1-1.293-.263c-.716-.26-1.208-.637-1.478-1.13a1.8 1.8 0 0 1-.111-1.546c.076-.209.168-.416.277-.623a8.21 8.21 0 0 1 .412-.686l1.685-2.346c.156-.227.298-.444.424-.651.126-.207.223-.404.29-.588.122-.335.138-.592.048-.773-.089-.181-.328-.343-.715-.484-.191-.07-.397-.11-.619-.124a8.547 8.547 0 0 0-.576-.017l.49-.733a19.838 19.838 0 0 1 1.57-.001c.493.02.936.102 1.33.246.71.258 1.194.629 1.454 1.112.26.483.29.998.09 1.547a8.034 8.034 0 0 1-.258.585 4.32 4.32 0 0 1-.434.734l-1.682 2.336a7.7 7.7 0 0 0-.421.657 4.044 4.044 0 0 0-.293.583c-.126.346-.134.61-.025.791.11.182.355.342.737.481.179.065.393.108.643.128.25.02.433.024.552.013zm4.164-10.856a1.623 1.623 0 0 1-.936.972c-.46.194-.93.203-1.413.027a1.884 1.884 0 0 1-1.07-.931 1.617 1.617 0 0 1-.097-1.348c.165-.453.479-.778.942-.974a1.874 1.874 0 0 1 1.42-.03c.483.175.837.487 1.063.934.226.447.256.897.091 1.35zM271.464 43.053c8.61-4.971 11.56-15.98 6.589-24.589-4.971-8.61-15.98-11.559-24.589-6.588-8.61 4.97-11.559 15.979-6.588 24.588 4.97 8.61 15.979 11.56 24.588 6.589zm-4.699-12.716l.248.847c-.42.528-.76.942-1.02 1.242-.26.3-.603.574-1.032.822-.66.38-1.265.516-1.816.405a1.8 1.8 0 0 1-1.256-.908 5.013 5.013 0 0 1-.299-.613 8.21 8.21 0 0 1-.26-.757l-.715-2.798a13.266 13.266 0 0 0-.226-.743 3.349 3.349 0 0 0-.264-.601c-.178-.308-.365-.486-.56-.534-.197-.048-.474.032-.831.238-.176.101-.34.233-.493.394-.152.161-.28.305-.383.43l-.248-.846c.341-.439.677-.84 1.01-1.204a4.41 4.41 0 0 1 1.042-.86c.654-.378 1.25-.511 1.787-.4.537.112.952.42 1.244.926.06.104.154.296.281.574.128.278.222.546.283.804l.71 2.79a7.7 7.7 0 0 0 .232.745c.099.273.185.473.258.6.184.318.38.494.59.527.21.033.49-.052.842-.256a2.46 2.46 0 0 0 .511-.41c.176-.178.297-.316.365-.414zm-5.64-10.168c.242.417.29.865.143 1.341a1.867 1.867 0 0 1-.887 1.1c-.445.258-.912.331-1.401.221a1.617 1.617 0 0 1-1.095-.791c-.241-.418-.288-.868-.14-1.349.147-.48.443-.85.889-1.107a1.858 1.858 0 0 1 1.399-.214c.487.115.852.38 1.093.799zM346.098 51.918c8.521 5.12 19.58 2.363 24.7-6.158 5.12-8.522 2.362-19.58-6.159-24.7-8.521-5.12-19.58-2.363-24.7 6.158-5.12 8.521-2.362 19.58 6.159 24.7zm8.843-10.274l-.62.626a41.482 41.482 0 0 1-1.582-.289 3.972 3.972 0 0 1-1.218-.505c-.653-.392-1.065-.856-1.236-1.392a1.8 1.8 0 0 1 .186-1.538c.114-.19.245-.376.391-.559a8.21 8.21 0 0 1 .535-.595l2.102-1.98c.197-.193.377-.38.54-.559.164-.18.296-.353.398-.522.183-.305.248-.554.194-.75-.053-.194-.256-.398-.61-.61a2.174 2.174 0 0 0-.584-.24 8.547 8.547 0 0 0-.562-.127l.62-.627c.55.086 1.064.185 1.543.3.48.113.899.278 1.258.494.647.39 1.053.846 1.216 1.37.162.523.094 1.035-.207 1.536a8.034 8.034 0 0 1-.365.524 4.32 4.32 0 0 1-.567.638l-2.096 1.973a7.7 7.7 0 0 0-.54.564c-.19.219-.323.39-.398.516-.19.316-.248.573-.175.772.073.2.283.404.631.613.164.098.366.18.607.248.24.067.42.107.54.119zm6.16-9.863a1.623 1.623 0 0 1-1.105.775 1.867 1.867 0 0 1-1.393-.242 1.884 1.884 0 0 1-.872-1.119c-.14-.48-.086-.927.162-1.34.249-.414.619-.673 1.11-.777a1.874 1.874 0 0 1 1.4.24c.44.265.73.639.866 1.12.136.482.08.93-.168 1.343zM441.604 47.405c6.906-7.15 6.707-18.546-.444-25.452-7.151-6.906-18.546-6.707-25.452.444-6.906 7.151-6.707 18.547.444 25.452 7.151 6.906 18.546 6.707 25.452-.444zm-8.021-10.928l.47.746a41.482 41.482 0 0 1-.637 1.476c-.167.36-.422.717-.766 1.074-.529.547-1.074.844-1.634.89a1.8 1.8 0 0 1-1.457-.527 5.013 5.013 0 0 1-.457-.507 8.21 8.21 0 0 1-.459-.655l-1.457-2.493a13.266 13.266 0 0 0-.423-.653 3.349 3.349 0 0 0-.42-.504c-.255-.247-.484-.366-.686-.358-.201.008-.446.16-.732.457a2.174 2.174 0 0 0-.365.515c-.102.197-.185.37-.25.519l-.471-.746c.206-.515.42-.994.638-1.435a4.41 4.41 0 0 1 .765-1.115c.525-.543 1.06-.835 1.608-.876.547-.041 1.03.141 1.45.547.087.084.23.242.43.474.199.232.363.464.493.695l1.45 2.486c.116.2.26.418.43.653.17.235.307.403.412.504.265.256.503.37.714.345.21-.026.456-.186.739-.478a2.46 2.46 0 0 0 .377-.535c.12-.22.2-.386.238-.499zm-8.224-8.22c.347.335.516.752.506 1.25-.009.499-.192.933-.55 1.303-.357.37-.785.57-1.285.598-.5.03-.924-.124-1.27-.46-.348-.334-.517-.753-.508-1.256.01-.503.193-.94.55-1.31.357-.37.786-.566 1.286-.59.5-.025.924.13 1.27.465zM519.167 40.447c8.043-5.843 9.826-17.1 3.983-25.142-5.844-8.043-17.1-9.826-25.143-3.982-8.042 5.843-9.825 17.1-3.982 25.142 5.843 8.043 17.1 9.825 25.142 3.982zm-6.002-12.155l.335.817c-.363.57-.658 1.017-.885 1.342-.226.326-.54.634-.94.925-.616.448-1.204.645-1.764.593a1.8 1.8 0 0 1-1.344-.772 5.013 5.013 0 0 1-.361-.579 8.21 8.21 0 0 1-.339-.725l-1.002-2.708c-.1-.257-.201-.495-.303-.716-.101-.22-.21-.41-.325-.57-.21-.287-.414-.444-.614-.471-.2-.028-.467.08-.8.323-.165.119-.315.267-.45.443a8.547 8.547 0 0 0-.336.468l-.334-.816c.293-.472.585-.906.877-1.303a4.41 4.41 0 0 1 .947-.964c.611-.444 1.19-.639 1.736-.584.545.054.99.318 1.333.79.071.098.185.278.34.542.157.263.278.52.366.77l.997 2.7a7.7 7.7 0 0 0 .309.717c.127.261.233.45.319.569.216.298.43.452.642.463.212.01.482-.103.811-.342a2.46 2.46 0 0 0 .465-.462c.156-.195.263-.345.32-.45zm-6.671-9.523c.283.39.377.83.281 1.32-.095.489-.351.885-.767 1.187a1.884 1.884 0 0 1-1.37.366 1.617 1.617 0 0 1-1.172-.673c-.283-.39-.377-.833-.28-1.326.096-.494.352-.892.768-1.194a1.858 1.858 0 0 1 1.37-.36c.496.063.886.29 1.17.68zM544.014 65.476c8.241 5.559 19.429 3.384 24.988-4.858 5.56-8.241 3.384-19.429-4.857-24.988-8.242-5.559-19.43-3.384-24.988 4.857-5.56 8.242-3.385 19.43 4.857 24.989zm9.37-9.798l-.654.594c-.66-.147-1.18-.27-1.564-.372a3.972 3.972 0 0 1-1.19-.568c-.632-.426-1.019-.91-1.161-1.454a1.8 1.8 0 0 1 .266-1.527c.124-.184.264-.363.42-.537a8.21 8.21 0 0 1 .565-.567l2.202-1.868c.207-.182.397-.358.57-.529.172-.17.314-.338.424-.5.198-.295.276-.541.233-.739-.043-.197-.235-.411-.577-.642a2.174 2.174 0 0 0-.57-.27 8.547 8.547 0 0 0-.555-.156l.652-.593c.544.114 1.052.24 1.525.379a4.41 4.41 0 0 1 1.23.56c.626.422 1.007.9 1.142 1.43.136.532.04 1.04-.286 1.524-.068.1-.199.269-.393.505a4.32 4.32 0 0 1-.599.607l-2.196 1.86a7.7 7.7 0 0 0-.568.536 4.044 4.044 0 0 0-.425.494c-.206.305-.278.56-.216.762.062.203.262.418.599.645.158.107.355.2.592.28.238.08.415.128.533.146zm6.666-9.526c-.27.4-.651.639-1.143.716a1.867 1.867 0 0 1-1.379-.315 1.884 1.884 0 0 1-.812-1.163 1.617 1.617 0 0 1 .232-1.33c.27-.4.653-.64 1.15-.718.497-.078.958.026 1.384.314.427.287.695.675.806 1.164.111.488.032.932-.238 1.332zM16.234 93.041c9.342 3.4 19.671-1.416 23.071-10.758 3.4-9.341-1.416-19.67-10.758-23.07-9.342-3.4-19.67 1.416-23.07 10.757-3.4 9.342 1.416 19.671 10.757 23.071zm6.721-11.773l-.49.734c-.675.018-1.21.024-1.607.018a3.972 3.972 0 0 1-1.293-.263c-.716-.26-1.208-.637-1.478-1.13a1.8 1.8 0 0 1-.111-1.546c.076-.209.168-.416.277-.623a8.21 8.21 0 0 1 .412-.686l1.685-2.346c.156-.227.298-.444.424-.651.126-.207.223-.404.29-.588.122-.335.138-.592.048-.773-.089-.181-.328-.343-.715-.484-.191-.07-.397-.11-.619-.124a8.547 8.547 0 0 0-.576-.017l.49-.733a19.838 19.838 0 0 1 1.57-.001c.493.02.936.102 1.33.246.71.258 1.194.629 1.454 1.112.26.483.29.998.09 1.547a8.034 8.034 0 0 1-.258.585 4.32 4.32 0 0 1-.434.734l-1.682 2.336a7.7 7.7 0 0 0-.421.657 4.044 4.044 0 0 0-.293.583c-.126.346-.134.61-.025.791.11.182.355.342.737.481.179.065.393.108.643.128.25.02.433.024.552.013zm4.164-10.856a1.623 1.623 0 0 1-.936.972c-.46.194-.93.203-1.413.027a1.884 1.884 0 0 1-1.07-.931 1.617 1.617 0 0 1-.097-1.348c.165-.453.479-.778.942-.974a1.874 1.874 0 0 1 1.42-.03c.483.175.837.487 1.063.934.226.447.256.897.091 1.35zM130.464 101.053c8.61-4.971 11.56-15.98 6.589-24.589-4.971-8.61-15.98-11.559-24.589-6.588-8.61 4.97-11.559 15.979-6.588 24.588 4.97 8.61 15.979 11.56 24.588 6.589zm-4.699-12.716l.248.847c-.42.528-.76.942-1.02 1.242-.26.3-.603.574-1.032.822-.66.38-1.265.516-1.816.405a1.8 1.8 0 0 1-1.256-.908 5.013 5.013 0 0 1-.299-.613 8.21 8.21 0 0 1-.26-.757l-.715-2.798a13.266 13.266 0 0 0-.226-.743 3.349 3.349 0 0 0-.264-.601c-.178-.308-.365-.486-.56-.534-.197-.048-.474.032-.831.238-.176.101-.34.233-.493.394-.152.161-.28.305-.383.43l-.248-.846c.341-.439.677-.84 1.01-1.204a4.41 4.41 0 0 1 1.042-.86c.654-.378 1.25-.511 1.787-.4.537.112.952.42 1.244.926.06.104.154.296.281.574.128.278.222.546.283.804l.71 2.79a7.7 7.7 0 0 0 .232.745c.099.273.185.473.258.6.184.318.38.494.59.527.21.033.49-.052.842-.256a2.46 2.46 0 0 0 .511-.41c.176-.178.297-.316.365-.414zm-5.64-10.168c.242.417.29.865.143 1.341a1.867 1.867 0 0 1-.887 1.1c-.445.258-.912.331-1.401.221a1.617 1.617 0 0 1-1.095-.791c-.241-.418-.288-.868-.14-1.349.147-.48.443-.85.889-1.107a1.858 1.858 0 0 1 1.399-.214c.487.115.852.38 1.093.799zM171 95c9.941 0 18-8.059 18-18s-8.059-18-18-18-18 8.059-18 18 8.059 18 18 18zm2.289-13.362l-.21.857c-.628.248-1.13.437-1.504.567-.375.13-.81.195-1.304.195-.762 0-1.354-.186-1.776-.557a1.8 1.8 0 0 1-.633-1.414c0-.222.015-.449.047-.68a8.21 8.21 0 0 1 .153-.786l.78-2.78c.07-.267.129-.52.176-.757.048-.238.072-.456.072-.653 0-.355-.073-.603-.22-.742-.145-.14-.424-.21-.837-.21-.203 0-.411.032-.624.095a8.547 8.547 0 0 0-.547.181l.21-.857c.513-.21 1.005-.388 1.475-.538a4.41 4.41 0 0 1 1.333-.223c.756 0 1.338.182 1.747.547.41.365.614.84.614 1.424 0 .12-.014.333-.042.638a4.32 4.32 0 0 1-.157.837l-.781 2.771a7.7 7.7 0 0 0-.172.762c-.05.286-.076.501-.076.647 0 .369.083.62.248.753.165.133.45.2.857.2.19 0 .406-.034.647-.1.241-.067.416-.126.524-.177zm.2-11.625c0 .482-.183.893-.548 1.233-.365.34-.804.51-1.318.51-.515 0-.956-.17-1.324-.51a1.617 1.617 0 0 1-.552-1.233c0-.483.184-.895.552-1.238.368-.343.81-.514 1.324-.514s.953.171 1.318.514c.365.343.548.755.548 1.238zM243.464 91.053c8.61-4.971 11.56-15.98 6.589-24.589-4.971-8.61-15.98-11.559-24.589-6.588-8.61 4.97-11.559 15.979-6.588 24.588 4.97 8.61 15.979 11.56 24.588 6.589zm-4.699-12.716l.248.847c-.42.528-.76.942-1.02 1.242-.26.3-.603.574-1.032.822-.66.38-1.265.516-1.816.405a1.8 1.8 0 0 1-1.256-.908 5.013 5.013 0 0 1-.299-.613 8.21 8.21 0 0 1-.26-.757l-.715-2.798a13.266 13.266 0 0 0-.226-.743 3.349 3.349 0 0 0-.264-.601c-.178-.308-.365-.486-.56-.534-.197-.048-.474.032-.831.238-.176.101-.34.233-.493.394-.152.161-.28.305-.383.43l-.248-.846c.341-.439.677-.84 1.01-1.204a4.41 4.41 0 0 1 1.042-.86c.654-.378 1.25-.511 1.787-.4.537.112.952.42 1.244.926.06.104.154.296.281.574.128.278.222.546.283.804l.71 2.79a7.7 7.7 0 0 0 .232.745c.099.273.185.473.258.6.184.318.38.494.59.527.21.033.49-.052.842-.256a2.46 2.46 0 0 0 .511-.41c.176-.178.297-.316.365-.414zm-5.64-10.168c.242.417.29.865.143 1.341a1.867 1.867 0 0 1-.887 1.1c-.445.258-.912.331-1.401.221a1.617 1.617 0 0 1-1.095-.791c-.241-.418-.288-.868-.14-1.349.147-.48.443-.85.889-1.107a1.858 1.858 0 0 1 1.399-.214c.487.115.852.38 1.093.799zM284.76 118.971c9.79-1.726 16.327-11.062 14.6-20.852-1.726-9.79-11.062-16.327-20.852-14.6-9.79 1.725-16.327 11.061-14.6 20.851 1.726 9.79 11.061 16.327 20.851 14.601zm-.067-13.556l-.057.88c-.576.353-1.037.626-1.383.82a3.972 3.972 0 0 1-1.251.418c-.75.133-1.365.053-1.846-.24a1.8 1.8 0 0 1-.869-1.282 5.013 5.013 0 0 1-.071-.68 8.21 8.21 0 0 1 .014-.8l.286-2.873c.022-.274.036-.533.042-.776a3.349 3.349 0 0 0-.043-.654c-.062-.35-.177-.582-.345-.694-.168-.112-.455-.132-.861-.06-.2.035-.4.102-.598.201-.198.1-.368.19-.508.274l.058-.88c.47-.296.923-.558 1.36-.787a4.41 4.41 0 0 1 1.274-.452c.744-.13 1.349-.052 1.815.236.467.289.751.72.852 1.295.021.12.044.331.069.636.025.305.022.59-.01.853l-.287 2.864a7.7 7.7 0 0 0-.037.78c0 .29.013.507.038.65.064.363.189.596.374.698.186.103.479.119.879.048a2.46 2.46 0 0 0 .62-.21c.226-.108.388-.196.485-.265zm-1.822-11.484c.084.475-.024.912-.325 1.31-.3.398-.703.641-1.21.73-.506.09-.97-.001-1.392-.271a1.617 1.617 0 0 1-.758-1.119c-.083-.475.026-.913.33-1.315a1.874 1.874 0 0 1 1.213-.736c.507-.09.97.003 1.388.277.42.275.67.65.754 1.124zM311.76 78.971c9.79-1.726 16.327-11.062 14.6-20.852-1.726-9.79-11.062-16.327-20.852-14.6-9.79 1.725-16.327 11.061-14.6 20.851 1.726 9.79 11.061 16.327 20.851 14.601zm-.067-13.556l-.057.88c-.576.353-1.037.626-1.383.82a3.972 3.972 0 0 1-1.251.418c-.75.133-1.365.053-1.846-.24a1.8 1.8 0 0 1-.869-1.282 5.013 5.013 0 0 1-.071-.68 8.21 8.21 0 0 1 .014-.8l.286-2.873c.022-.274.036-.533.042-.776a3.349 3.349 0 0 0-.043-.654c-.062-.35-.177-.582-.345-.694-.168-.112-.455-.132-.861-.06-.2.035-.4.102-.598.201-.198.1-.368.19-.508.274l.058-.88c.47-.296.923-.558 1.36-.787a4.41 4.41 0 0 1 1.274-.452c.744-.13 1.349-.052 1.815.236.467.289.751.72.852 1.295.021.12.044.331.069.636.025.305.022.59-.01.853l-.287 2.864a7.7 7.7 0 0 0-.037.78c0 .29.013.507.038.65.064.363.189.596.374.698.186.103.479.119.879.048a2.46 2.46 0 0 0 .62-.21c.226-.108.388-.196.485-.265zm-1.822-11.484c.084.475-.024.912-.325 1.31-.3.398-.703.641-1.21.73-.506.09-.97-.001-1.392-.271a1.617 1.617 0 0 1-.758-1.119c-.083-.475.026-.913.33-1.315a1.874 1.874 0 0 1 1.213-.736c.507-.09.97.003 1.388.277.42.275.67.65.754 1.124zM396.167 88.447c8.043-5.843 9.826-17.1 3.983-25.142-5.844-8.043-17.1-9.826-25.143-3.982-8.042 5.843-9.825 17.1-3.982 25.142 5.843 8.043 17.1 9.825 25.142 3.982zm-6.002-12.155l.335.817c-.363.57-.658 1.017-.885 1.342-.226.326-.54.634-.94.925-.616.448-1.204.645-1.764.593a1.8 1.8 0 0 1-1.344-.772 5.013 5.013 0 0 1-.361-.579 8.21 8.21 0 0 1-.339-.725l-1.002-2.708c-.1-.257-.201-.495-.303-.716-.101-.22-.21-.41-.325-.57-.21-.287-.414-.444-.614-.471-.2-.028-.467.08-.8.323-.165.119-.315.267-.45.443a8.547 8.547 0 0 0-.336.468l-.334-.816c.293-.472.585-.906.877-1.303a4.41 4.41 0 0 1 .947-.964c.611-.444 1.19-.639 1.736-.584.545.054.99.318 1.333.79.071.098.185.278.34.542.157.263.278.52.366.77l.997 2.7a7.7 7.7 0 0 0 .309.717c.127.261.233.45.319.569.216.298.43.452.642.463.212.01.482-.103.811-.342a2.46 2.46 0 0 0 .465-.462c.156-.195.263-.345.32-.45zm-6.671-9.523c.283.39.377.83.281 1.32-.095.489-.351.885-.767 1.187a1.884 1.884 0 0 1-1.37.366 1.617 1.617 0 0 1-1.172-.673c-.283-.39-.377-.833-.28-1.326.096-.494.352-.892.768-1.194a1.858 1.858 0 0 1 1.37-.36c.496.063.886.29 1.17.68zM457.706 86.725c9.082 4.043 19.722-.04 23.765-9.123 4.043-9.081-.04-19.721-9.123-23.765-9.081-4.043-19.721.041-23.765 9.123-4.043 9.082.041 19.722 9.123 23.765zm7.526-11.276l-.54.698c-.675-.03-1.21-.06-1.605-.094a3.972 3.972 0 0 1-1.271-.352c-.696-.31-1.161-.72-1.396-1.232a1.8 1.8 0 0 1-.003-1.549c.09-.203.197-.404.32-.602a8.21 8.21 0 0 1 .459-.656l1.844-2.222c.172-.216.328-.422.469-.62.14-.198.25-.387.33-.567.145-.325.179-.58.102-.768-.076-.187-.303-.364-.68-.532a2.174 2.174 0 0 0-.608-.166 8.547 8.547 0 0 0-.574-.058l.54-.697c.555.017 1.077.054 1.567.108.49.055.926.168 1.309.338.69.307 1.147.711 1.373 1.21.226.5.22 1.018-.018 1.551-.049.11-.148.299-.299.565-.15.267-.311.501-.484.702l-1.84 2.214a7.7 7.7 0 0 0-.466.626c-.163.24-.274.427-.333.56-.15.337-.177.6-.08.788.096.19.33.366.701.531.174.078.385.135.633.172.247.038.43.055.55.052zm4.91-10.539c-.195.44-.53.742-1 .904a1.867 1.867 0 0 1-1.413-.071 1.884 1.884 0 0 1-1.002-1.004c-.198-.46-.199-.91-.003-1.35.197-.442.533-.744 1.008-.907.476-.163.949-.14 1.419.069.47.209.801.544.995 1.006.194.461.193.912-.003 1.353zM515.456 106.225c9.917.694 18.518-6.783 19.211-16.7.694-9.917-6.783-18.518-16.7-19.212-9.917-.693-18.518 6.784-19.212 16.7-.693 9.918 6.784 18.519 16.7 19.212zm3.215-13.169l-.269.84c-.644.203-1.157.357-1.54.46a3.972 3.972 0 0 1-1.315.104c-.76-.053-1.337-.28-1.733-.68a1.8 1.8 0 0 1-.533-1.454c.016-.222.048-.447.095-.676a8.21 8.21 0 0 1 .207-.773l.973-2.719c.088-.26.164-.508.229-.743.064-.234.103-.449.116-.645.025-.355-.03-.607-.166-.756-.136-.15-.41-.239-.822-.268a2.174 2.174 0 0 0-.628.052 8.547 8.547 0 0 0-.56.142l.27-.84c.527-.173 1.03-.318 1.51-.434a4.41 4.41 0 0 1 1.345-.13c.753.052 1.321.275 1.704.668.383.392.555.88.514 1.463-.009.12-.038.331-.087.633a4.32 4.32 0 0 1-.216.825l-.972 2.71a7.7 7.7 0 0 0-.224.747c-.07.282-.11.495-.121.641-.026.367.04.623.194.768.156.144.436.23.841.259.19.013.408-.005.653-.055.245-.05.424-.096.535-.139zm1.01-11.583a1.623 1.623 0 0 1-.632 1.191 1.867 1.867 0 0 1-1.35.417 1.884 1.884 0 0 1-1.286-.6 1.617 1.617 0 0 1-.464-1.27c.033-.48.246-.88.637-1.196a1.874 1.874 0 0 1 1.356-.42c.513.036.94.237 1.28.605.34.367.493.791.46 1.273zM589.167 109.447c8.043-5.843 9.826-17.1 3.983-25.142-5.844-8.043-17.1-9.826-25.143-3.982-8.042 5.843-9.825 17.1-3.982 25.142 5.843 8.043 17.1 9.825 25.142 3.982zm-6.002-12.155l.335.817c-.363.57-.658 1.017-.885 1.342-.226.326-.54.634-.94.925-.616.448-1.204.645-1.764.593a1.8 1.8 0 0 1-1.344-.772 5.013 5.013 0 0 1-.361-.579 8.21 8.21 0 0 1-.339-.725l-1.002-2.708c-.1-.257-.201-.495-.303-.716-.101-.22-.21-.41-.325-.57-.21-.287-.414-.444-.614-.471-.2-.028-.467.08-.8.323-.165.119-.315.267-.45.443a8.547 8.547 0 0 0-.336.468l-.334-.816c.293-.472.585-.906.877-1.303a4.41 4.41 0 0 1 .947-.964c.611-.444 1.19-.639 1.736-.584.545.054.99.318 1.333.79.071.098.185.278.34.542.157.263.278.52.366.77l.997 2.7a7.7 7.7 0 0 0 .309.717c.127.261.233.45.319.569.216.298.43.452.642.463.212.01.482-.103.811-.342a2.46 2.46 0 0 0 .465-.462c.156-.195.263-.345.32-.45zm-6.671-9.523c.283.39.377.83.281 1.32-.095.489-.351.885-.767 1.187a1.884 1.884 0 0 1-1.37.366 1.617 1.617 0 0 1-1.172-.673c-.283-.39-.377-.833-.28-1.326.096-.494.352-.892.768-1.194a1.858 1.858 0 0 1 1.37-.36c.496.063.886.29 1.17.68zM54.234 122.041c9.342 3.4 19.671-1.416 23.071-10.758 3.4-9.341-1.416-19.67-10.758-23.07-9.342-3.4-19.67 1.416-23.07 10.757-3.4 9.342 1.416 19.671 10.757 23.071zm6.721-11.773l-.49.734c-.675.018-1.21.024-1.607.018a3.972 3.972 0 0 1-1.293-.263c-.716-.26-1.208-.637-1.478-1.13a1.8 1.8 0 0 1-.111-1.546c.076-.209.168-.416.277-.623a8.21 8.21 0 0 1 .412-.686l1.685-2.346c.156-.227.298-.444.424-.651.126-.207.223-.404.29-.588.122-.335.138-.592.048-.773-.089-.181-.328-.343-.715-.484-.191-.07-.397-.11-.619-.124a8.547 8.547 0 0 0-.576-.017l.49-.733a19.838 19.838 0 0 1 1.57-.001c.493.02.936.102 1.33.246.71.258 1.194.629 1.454 1.112.26.483.29.998.09 1.547a8.034 8.034 0 0 1-.258.585 4.32 4.32 0 0 1-.434.734l-1.682 2.336a7.7 7.7 0 0 0-.421.657 4.044 4.044 0 0 0-.293.583c-.126.346-.134.61-.025.791.11.182.355.342.737.481.179.065.393.108.643.128.25.02.433.024.552.013zm4.164-10.856a1.623 1.623 0 0 1-.936.972c-.46.194-.93.203-1.413.027a1.884 1.884 0 0 1-1.07-.931 1.617 1.617 0 0 1-.097-1.348c.165-.453.479-.778.942-.974a1.874 1.874 0 0 1 1.42-.03c.483.175.837.487 1.063.934.226.447.256.897.091 1.35zM39.283 158.305c9.342-3.4 14.158-13.73 10.758-23.07-3.4-9.342-13.729-14.159-23.07-10.759-9.342 3.4-14.159 13.73-10.759 23.071 3.4 9.342 13.73 14.158 23.071 10.758zm-2.419-13.338l.096.876c-.506.448-.912.797-1.22 1.047-.307.25-.693.46-1.159.63-.715.26-1.335.288-1.859.084a1.8 1.8 0 0 1-1.078-1.112 5.013 5.013 0 0 1-.188-.656 8.21 8.21 0 0 1-.126-.79l-.217-2.88a13.266 13.266 0 0 0-.094-.772 3.349 3.349 0 0 0-.156-.637c-.121-.334-.274-.542-.46-.623-.184-.081-.47-.051-.858.09-.191.07-.376.17-.554.302a8.547 8.547 0 0 0-.452.358l-.097-.877c.412-.373.813-.71 1.203-1.01.39-.301.783-.523 1.176-.667.71-.258 1.32-.286 1.83-.083.509.203.864.58 1.063 1.128.042.113.1.318.178.614.078.296.124.576.14.841l.213 2.87c.016.231.05.49.1.775.05.286.1.497.15.635.125.346.289.553.49.622.2.069.491.034.873-.105.179-.066.37-.17.574-.316.204-.145.348-.26.432-.344zm-3.788-10.993c.165.453.134.902-.093 1.345a1.867 1.867 0 0 1-1.065.93 1.884 1.884 0 0 1-1.418-.026 1.617 1.617 0 0 1-.94-.97c-.166-.453-.134-.904.095-1.352.229-.448.585-.76 1.068-.935a1.858 1.858 0 0 1 1.415.032c.46.197.773.522.938.976zM92 162c9.941 0 18-8.059 18-18s-8.059-18-18-18-18 8.059-18 18 8.059 18 18 18zm2.289-13.362l-.21.857c-.628.248-1.13.437-1.504.567-.375.13-.81.195-1.304.195-.762 0-1.354-.186-1.776-.557a1.8 1.8 0 0 1-.633-1.414c0-.222.015-.449.047-.68a8.21 8.21 0 0 1 .153-.786l.78-2.78c.07-.267.129-.52.176-.757.048-.238.072-.456.072-.653 0-.355-.073-.603-.22-.742-.145-.14-.424-.21-.837-.21-.203 0-.411.032-.624.095a8.547 8.547 0 0 0-.547.181l.21-.857c.513-.21 1.005-.388 1.475-.538a4.41 4.41 0 0 1 1.333-.223c.756 0 1.338.182 1.747.547.41.365.614.84.614 1.424 0 .12-.014.333-.042.638a4.32 4.32 0 0 1-.157.837l-.781 2.771a7.7 7.7 0 0 0-.172.762c-.05.286-.076.501-.076.647 0 .369.083.62.248.753.165.133.45.2.857.2.19 0 .406-.034.647-.1.241-.067.416-.126.524-.177zm.2-11.625c0 .482-.183.893-.548 1.233-.365.34-.804.51-1.318.51-.515 0-.956-.17-1.324-.51a1.617 1.617 0 0 1-.552-1.233c0-.483.184-.895.552-1.238.368-.343.81-.514 1.324-.514s.953.171 1.318.514c.365.343.548.755.548 1.238zM137.234 144.041c9.342 3.4 19.671-1.416 23.071-10.758 3.4-9.341-1.416-19.67-10.758-23.07-9.342-3.4-19.67 1.416-23.07 10.757-3.4 9.342 1.416 19.671 10.757 23.071zm6.721-11.773l-.49.734c-.675.018-1.21.024-1.607.018a3.972 3.972 0 0 1-1.293-.263c-.716-.26-1.208-.637-1.478-1.13a1.8 1.8 0 0 1-.111-1.546c.076-.209.168-.416.277-.623a8.21 8.21 0 0 1 .412-.686l1.685-2.346c.156-.227.298-.444.424-.651.126-.207.223-.404.29-.588.122-.335.138-.592.048-.773-.089-.181-.328-.343-.715-.484-.191-.07-.397-.11-.619-.124a8.547 8.547 0 0 0-.576-.017l.49-.733a19.838 19.838 0 0 1 1.57-.001c.493.02.936.102 1.33.246.71.258 1.194.629 1.454 1.112.26.483.29.998.09 1.547a8.034 8.034 0 0 1-.258.585 4.32 4.32 0 0 1-.434.734l-1.682 2.336a7.7 7.7 0 0 0-.421.657 4.044 4.044 0 0 0-.293.583c-.126.346-.134.61-.025.791.11.182.355.342.737.481.179.065.393.108.643.128.25.02.433.024.552.013zm4.164-10.856a1.623 1.623 0 0 1-.936.972c-.46.194-.93.203-1.413.027a1.884 1.884 0 0 1-1.07-.931 1.617 1.617 0 0 1-.097-1.348c.165-.453.479-.778.942-.974a1.874 1.874 0 0 1 1.42-.03c.483.175.837.487 1.063.934.226.447.256.897.091 1.35zM191.234 136.041c9.342 3.4 19.671-1.416 23.071-10.758 3.4-9.341-1.416-19.67-10.758-23.07-9.342-3.4-19.67 1.416-23.07 10.757-3.4 9.342 1.416 19.671 10.757 23.071zm6.721-11.773l-.49.734c-.675.018-1.21.024-1.607.018a3.972 3.972 0 0 1-1.293-.263c-.716-.26-1.208-.637-1.478-1.13a1.8 1.8 0 0 1-.111-1.546c.076-.209.168-.416.277-.623a8.21 8.21 0 0 1 .412-.686l1.685-2.346c.156-.227.298-.444.424-.651.126-.207.223-.404.29-.588.122-.335.138-.592.048-.773-.089-.181-.328-.343-.715-.484-.191-.07-.397-.11-.619-.124a8.547 8.547 0 0 0-.576-.017l.49-.733a19.838 19.838 0 0 1 1.57-.001c.493.02.936.102 1.33.246.71.258 1.194.629 1.454 1.112.26.483.29.998.09 1.547a8.034 8.034 0 0 1-.258.585 4.32 4.32 0 0 1-.434.734l-1.682 2.336a7.7 7.7 0 0 0-.421.657 4.044 4.044 0 0 0-.293.583c-.126.346-.134.61-.025.791.11.182.355.342.737.481.179.065.393.108.643.128.25.02.433.024.552.013zm4.164-10.856a1.623 1.623 0 0 1-.936.972c-.46.194-.93.203-1.413.027a1.884 1.884 0 0 1-1.07-.931 1.617 1.617 0 0 1-.097-1.348c.165-.453.479-.778.942-.974a1.874 1.874 0 0 1 1.42-.03c.483.175.837.487 1.063.934.226.447.256.897.091 1.35zM203.464 176.053c8.61-4.971 11.56-15.98 6.589-24.589-4.971-8.61-15.98-11.559-24.589-6.588-8.61 4.97-11.559 15.979-6.588 24.588 4.97 8.61 15.979 11.56 24.588 6.589zm-4.699-12.716l.248.847c-.42.528-.76.942-1.02 1.242-.26.3-.603.574-1.032.822-.66.38-1.265.516-1.816.405a1.8 1.8 0 0 1-1.256-.908 5.013 5.013 0 0 1-.299-.613 8.21 8.21 0 0 1-.26-.757l-.715-2.798a13.266 13.266 0 0 0-.226-.743 3.349 3.349 0 0 0-.264-.601c-.178-.308-.365-.486-.56-.534-.197-.048-.474.032-.831.238-.176.101-.34.233-.493.394-.152.161-.28.305-.383.43l-.248-.846c.341-.439.677-.84 1.01-1.204a4.41 4.41 0 0 1 1.042-.86c.654-.378 1.25-.511 1.787-.4.537.112.952.42 1.244.926.06.104.154.296.281.574.128.278.222.546.283.804l.71 2.79a7.7 7.7 0 0 0 .232.745c.099.273.185.473.258.6.184.318.38.494.59.527.21.033.49-.052.842-.256a2.46 2.46 0 0 0 .511-.41c.176-.178.297-.316.365-.414zm-5.64-10.168c.242.417.29.865.143 1.341a1.867 1.867 0 0 1-.887 1.1c-.445.258-.912.331-1.401.221a1.617 1.617 0 0 1-1.095-.791c-.241-.418-.288-.868-.14-1.349.147-.48.443-.85.889-1.107a1.858 1.858 0 0 1 1.399-.214c.487.115.852.38 1.093.799zM263.464 158.053c8.61-4.971 11.56-15.98 6.589-24.589-4.971-8.61-15.98-11.559-24.589-6.588-8.61 4.97-11.559 15.979-6.588 24.588 4.97 8.61 15.979 11.56 24.588 6.589zm-4.699-12.716l.248.847c-.42.528-.76.942-1.02 1.242-.26.3-.603.574-1.032.822-.66.38-1.265.516-1.816.405a1.8 1.8 0 0 1-1.256-.908 5.013 5.013 0 0 1-.299-.613 8.21 8.21 0 0 1-.26-.757l-.715-2.798a13.266 13.266 0 0 0-.226-.743 3.349 3.349 0 0 0-.264-.601c-.178-.308-.365-.486-.56-.534-.197-.048-.474.032-.831.238-.176.101-.34.233-.493.394-.152.161-.28.305-.383.43l-.248-.846c.341-.439.677-.84 1.01-1.204a4.41 4.41 0 0 1 1.042-.86c.654-.378 1.25-.511 1.787-.4.537.112.952.42 1.244.926.06.104.154.296.281.574.128.278.222.546.283.804l.71 2.79a7.7 7.7 0 0 0 .232.745c.099.273.185.473.258.6.184.318.38.494.59.527.21.033.49-.052.842-.256a2.46 2.46 0 0 0 .511-.41c.176-.178.297-.316.365-.414zm-5.64-10.168c.242.417.29.865.143 1.341a1.867 1.867 0 0 1-.887 1.1c-.445.258-.912.331-1.401.221a1.617 1.617 0 0 1-1.095-.791c-.241-.418-.288-.868-.14-1.349.147-.48.443-.85.889-1.107a1.858 1.858 0 0 1 1.399-.214c.487.115.852.38 1.093.799zM289.718 157.206c6.39 7.615 17.744 8.608 25.36 2.218 7.614-6.39 8.608-17.744 2.218-25.359-6.39-7.615-17.744-8.609-25.36-2.218-7.615 6.39-8.608 17.743-2.218 25.359zm11.707-6.836l-.791.39a41.482 41.482 0 0 1-1.401-.788 3.972 3.972 0 0 1-.988-.874c-.49-.583-.728-1.156-.715-1.718a1.8 1.8 0 0 1 .676-1.394c.17-.143.354-.276.552-.4a8.21 8.21 0 0 1 .7-.39l2.632-1.188c.249-.118.48-.235.693-.352.213-.116.395-.238.545-.364.273-.229.415-.444.429-.645.013-.202-.113-.46-.379-.777a2.174 2.174 0 0 0-.473-.417 8.547 8.547 0 0 0-.49-.303l.79-.39c.491.26.945.52 1.36.785a4.41 4.41 0 0 1 1.03.877c.485.579.72 1.142.703 1.69-.017.549-.248 1.01-.696 1.386a8.034 8.034 0 0 1-.516.377 4.32 4.32 0 0 1-.743.418l-2.624 1.183a7.7 7.7 0 0 0-.694.359 4.044 4.044 0 0 0-.545.357c-.282.237-.421.461-.417.674.004.212.137.473.398.785.122.145.286.29.492.431.207.142.364.238.472.288zm9.034-7.32c-.37.31-.801.435-1.296.374a1.867 1.867 0 0 1-1.238-.683 1.884 1.884 0 0 1-.46-1.341c.023-.5.22-.906.589-1.216.37-.31.804-.434 1.303-.373.5.062.914.29 1.245.684.33.394.482.84.454 1.34-.028.5-.227.905-.597 1.215zM353.424 111.077c6.39-7.615 5.397-18.969-2.218-25.359-7.616-6.39-18.97-5.397-25.36 2.219-6.39 7.615-5.396 18.969 2.22 25.359 7.614 6.39 18.968 5.396 25.358-2.219zm-8.764-10.342l.522.711c-.215.641-.392 1.147-.533 1.517-.141.37-.371.745-.69 1.125-.489.583-1.012.917-1.568 1.002a1.8 1.8 0 0 1-1.49-.424c-.17-.143-.333-.3-.49-.474a8.21 8.21 0 0 1-.504-.621l-1.628-2.386c-.16-.225-.315-.432-.467-.621a3.349 3.349 0 0 0-.454-.474c-.272-.229-.509-.332-.71-.31-.2.022-.433.191-.698.507-.131.156-.24.336-.328.54-.088.203-.16.382-.214.535l-.522-.711c.17-.529.35-1.02.537-1.477a4.41 4.41 0 0 1 .685-1.165c.486-.578 1-.907 1.543-.986.543-.08 1.038.07 1.485.444.093.078.246.226.461.443.215.218.396.438.541.66l1.62 2.378a7.7 7.7 0 0 0 .474.621c.186.223.335.381.447.475.282.237.527.334.736.294.208-.041.442-.217.704-.528a2.46 2.46 0 0 0 .34-.56c.103-.228.17-.4.2-.515zm-8.778-7.626c.37.31.568.714.593 1.212.026.498-.127.944-.457 1.338-.33.394-.744.622-1.241.686-.497.064-.93-.06-1.3-.37s-.567-.716-.593-1.218c-.026-.502.126-.95.457-1.344.33-.394.744-.62 1.241-.68.498-.06.93.066 1.3.376zM369.706 148.725c9.082 4.043 19.722-.04 23.765-9.123 4.043-9.081-.04-19.721-9.123-23.765-9.081-4.043-19.721.041-23.765 9.123-4.043 9.082.041 19.722 9.123 23.765zm7.526-11.276l-.54.698c-.675-.03-1.21-.06-1.605-.094a3.972 3.972 0 0 1-1.271-.352c-.696-.31-1.161-.72-1.396-1.232a1.8 1.8 0 0 1-.003-1.549c.09-.203.197-.404.32-.602a8.21 8.21 0 0 1 .459-.656l1.844-2.222c.172-.216.328-.422.469-.62.14-.198.25-.387.33-.567.145-.325.179-.58.102-.768-.076-.187-.303-.364-.68-.532a2.174 2.174 0 0 0-.608-.166 8.547 8.547 0 0 0-.574-.058l.54-.697c.555.017 1.077.054 1.567.108.49.055.926.168 1.309.338.69.307 1.147.711 1.373 1.21.226.5.22 1.018-.018 1.551-.049.11-.148.299-.299.565-.15.267-.311.501-.484.702l-1.84 2.214a7.7 7.7 0 0 0-.466.626c-.163.24-.274.427-.333.56-.15.337-.177.6-.08.788.096.19.33.366.701.531.174.078.385.135.633.172.247.038.43.055.55.052zm4.91-10.539c-.195.44-.53.742-1 .904a1.867 1.867 0 0 1-1.413-.071 1.884 1.884 0 0 1-1.002-1.004c-.198-.46-.199-.91-.003-1.35.197-.442.533-.744 1.008-.907.476-.163.949-.14 1.419.069.47.209.801.544.995 1.006.194.461.193.912-.003 1.353zM420.706 124.725c9.082 4.043 19.722-.04 23.765-9.123 4.043-9.081-.04-19.721-9.123-23.765-9.081-4.043-19.721.041-23.765 9.123-4.043 9.082.041 19.722 9.123 23.765zm7.526-11.276l-.54.698c-.675-.03-1.21-.06-1.605-.094a3.972 3.972 0 0 1-1.271-.352c-.696-.31-1.161-.72-1.396-1.232a1.8 1.8 0 0 1-.003-1.549c.09-.203.197-.404.32-.602a8.21 8.21 0 0 1 .459-.656l1.844-2.222c.172-.216.328-.422.469-.62.14-.198.25-.387.33-.567.145-.325.179-.58.102-.768-.076-.187-.303-.364-.68-.532a2.174 2.174 0 0 0-.608-.166 8.547 8.547 0 0 0-.574-.058l.54-.697c.555.017 1.077.054 1.567.108.49.055.926.168 1.309.338.69.307 1.147.711 1.373 1.21.226.5.22 1.018-.018 1.551-.049.11-.148.299-.299.565-.15.267-.311.501-.484.702l-1.84 2.214a7.7 7.7 0 0 0-.466.626c-.163.24-.274.427-.333.56-.15.337-.177.6-.08.788.096.19.33.366.701.531.174.078.385.135.633.172.247.038.43.055.55.052zm4.91-10.539c-.195.44-.53.742-1 .904a1.867 1.867 0 0 1-1.413-.071 1.884 1.884 0 0 1-1.002-1.004c-.198-.46-.199-.91-.003-1.35.197-.442.533-.744 1.008-.907.476-.163.949-.14 1.419.069.47.209.801.544.995 1.006.194.461.193.912-.003 1.353zM400.98 168.24c4.358 8.934 15.134 12.645 24.069 8.287 8.935-4.358 12.646-15.134 8.288-24.069-4.358-8.935-15.134-12.646-24.07-8.288-8.934 4.358-12.645 15.134-8.287 24.07zm13.013-3.8l-.862.187a41.482 41.482 0 0 1-1.169-1.104 3.972 3.972 0 0 1-.747-1.087c-.334-.685-.427-1.298-.278-1.84a1.8 1.8 0 0 1 .993-1.19c.2-.097.41-.182.633-.255a8.21 8.21 0 0 1 .773-.207l2.84-.517c.271-.054.524-.112.758-.174.235-.061.441-.135.618-.222.32-.155.51-.33.571-.522.062-.192.002-.474-.179-.845a2.174 2.174 0 0 0-.359-.519c-.15-.163-.284-.3-.402-.412l.862-.188c.414.37.79.734 1.13 1.09.34.358.602.724.786 1.1.331.68.422 1.283.274 1.811-.149.528-.486.92-1.01 1.176a8.034 8.034 0 0 1-.593.241 4.32 4.32 0 0 1-.822.226l-2.832.513a7.7 7.7 0 0 0-.76.18c-.279.08-.484.152-.615.216-.331.16-.52.345-.568.552-.047.207.018.492.196.858.084.17.208.35.374.538.165.187.295.318.388.393zm10.536-4.917a1.623 1.623 0 0 1-1.348.048c-.465-.18-.81-.5-1.036-.962a1.884 1.884 0 0 1-.122-1.413c.144-.48.433-.825.866-1.037.434-.211.885-.227 1.355-.046.47.18.817.502 1.042.964.225.462.264.933.116 1.41a1.638 1.638 0 0 1-.873 1.036zM489.167 140.447c8.043-5.843 9.826-17.1 3.983-25.142-5.844-8.043-17.1-9.826-25.143-3.982-8.042 5.843-9.825 17.1-3.982 25.142 5.843 8.043 17.1 9.825 25.142 3.982zm-6.002-12.155l.335.817c-.363.57-.658 1.017-.885 1.342-.226.326-.54.634-.94.925-.616.448-1.204.645-1.764.593a1.8 1.8 0 0 1-1.344-.772 5.013 5.013 0 0 1-.361-.579 8.21 8.21 0 0 1-.339-.725l-1.002-2.708c-.1-.257-.201-.495-.303-.716-.101-.22-.21-.41-.325-.57-.21-.287-.414-.444-.614-.471-.2-.028-.467.08-.8.323-.165.119-.315.267-.45.443a8.547 8.547 0 0 0-.336.468l-.334-.816c.293-.472.585-.906.877-1.303a4.41 4.41 0 0 1 .947-.964c.611-.444 1.19-.639 1.736-.584.545.054.99.318 1.333.79.071.098.185.278.34.542.157.263.278.52.366.77l.997 2.7a7.7 7.7 0 0 0 .309.717c.127.261.233.45.319.569.216.298.43.452.642.463.212.01.482-.103.811-.342a2.46 2.46 0 0 0 .465-.462c.156-.195.263-.345.32-.45zm-6.671-9.523c.283.39.377.83.281 1.32-.095.489-.351.885-.767 1.187a1.884 1.884 0 0 1-1.37.366 1.617 1.617 0 0 1-1.172-.673c-.283-.39-.377-.833-.28-1.326.096-.494.352-.892.768-1.194a1.858 1.858 0 0 1 1.37-.36c.496.063.886.29 1.17.68zM549.167 149.447c8.043-5.843 9.826-17.1 3.983-25.142-5.844-8.043-17.1-9.826-25.143-3.982-8.042 5.843-9.825 17.1-3.982 25.142 5.843 8.043 17.1 9.825 25.142 3.982zm-6.002-12.155l.335.817c-.363.57-.658 1.017-.885 1.342-.226.326-.54.634-.94.925-.616.448-1.204.645-1.764.593a1.8 1.8 0 0 1-1.344-.772 5.013 5.013 0 0 1-.361-.579 8.21 8.21 0 0 1-.339-.725l-1.002-2.708c-.1-.257-.201-.495-.303-.716-.101-.22-.21-.41-.325-.57-.21-.287-.414-.444-.614-.471-.2-.028-.467.08-.8.323-.165.119-.315.267-.45.443a8.547 8.547 0 0 0-.336.468l-.334-.816c.293-.472.585-.906.877-1.303a4.41 4.41 0 0 1 .947-.964c.611-.444 1.19-.639 1.736-.584.545.054.99.318 1.333.79.071.098.185.278.34.542.157.263.278.52.366.77l.997 2.7a7.7 7.7 0 0 0 .309.717c.127.261.233.45.319.569.216.298.43.452.642.463.212.01.482-.103.811-.342a2.46 2.46 0 0 0 .465-.462c.156-.195.263-.345.32-.45zm-6.671-9.523c.283.39.377.83.281 1.32-.095.489-.351.885-.767 1.187a1.884 1.884 0 0 1-1.37.366 1.617 1.617 0 0 1-1.172-.673c-.283-.39-.377-.833-.28-1.326.096-.494.352-.892.768-1.194a1.858 1.858 0 0 1 1.37-.36c.496.063.886.29 1.17.68z"/></g></svg>