<svg xmlns="http://www.w3.org/2000/svg" viewBox="0 0 605 180"><title>lock</title><g fill-rule="evenodd"><path d="M33.668 25.96a3.998 3.998 0 0 1 1.461-5.457l8.67-5.006a3.995 3.995 0 0 1 5.457 1.464l4.004 6.935a3.998 3.998 0 0 1-1.461 5.458l-8.67 5.005a3.995 3.995 0 0 1-5.457-1.463l-4.004-6.935zm7.698 1.334a1 1 0 1 0-1-1.732 1 1 0 0 0 1 1.732zm2.598-1.5a1 1 0 1 0-1-1.732 1 1 0 0 0 1 1.732zm2.598-1.5a1 1 0 1 0-1-1.732 1 1 0 0 0 1 1.732z"/><path d="M35.695 21.314s-5.444-7.228-.252-10.23c5.193-3.002 8.791 5.317 8.791 5.317" stroke="#48639C" stroke-width="2"/><path d="M69.382 53.067a3.998 3.998 0 0 1 4.628-3.242l9.858 1.739a3.995 3.995 0 0 1 3.24 4.629l-1.39 7.886a3.998 3.998 0 0 1-4.628 3.242l-9.858-1.739a3.995 3.995 0 0 1-3.24-4.629l1.39-7.886zm5.04 5.97a1 1 0 1 0 .347-1.97 1 1 0 0 0-.347 1.97zm2.954.52a1 1 0 1 0 .348-1.969 1 1 0 0 0-.348 1.97zm2.955.522a1 1 0 1 0 .347-1.97 1 1 0 0 0-.347 1.97z"/><path d="M73.922 50.81s.475-9.036 6.383-7.998c5.907 1.038 3.316 9.724 3.316 9.724" stroke="#48639C" stroke-width="2"/><path d="M123.668 34.96a3.998 3.998 0 0 1 1.461-5.457l8.67-5.006a3.995 3.995 0 0 1 5.457 1.464l4.004 6.935a3.998 3.998 0 0 1-1.461 5.458l-8.67 5.005a3.995 3.995 0 0 1-5.457-1.463l-4.004-6.935zm7.698 1.334a1 1 0 1 0-1-1.732 1 1 0 0 0 1 1.732zm2.598-1.5a1 1 0 1 0-1-1.732 1 1 0 0 0 1 1.732zm2.598-1.5a1 1 0 1 0-1-1.732 1 1 0 0 0 1 1.732z"/><path d="M125.695 30.314s-5.444-7.228-.252-10.23c5.193-3.002 8.791 5.317 8.791 5.317" stroke="#48639C" stroke-width="2"/><path d="M189.935 32.045a3.998 3.998 0 0 1 5.12-2.389l9.407 3.424a3.995 3.995 0 0 1 2.387 5.121l-2.739 7.525a3.998 3.998 0 0 1-5.12 2.389l-9.407-3.424a3.995 3.995 0 0 1-2.387-5.121l2.739-7.525zm3.927 6.754a1 1 0 1 0 .684-1.88 1 1 0 0 0-.684 1.88zm2.819 1.026a1 1 0 1 0 .684-1.88 1 1 0 0 0-.684 1.88zm2.819 1.026a1 1 0 1 0 .684-1.879 1 1 0 0 0-.684 1.88z"/><path d="M194.798 30.611s2.037-8.817 7.674-6.769c5.638 2.048 1.578 10.152 1.578 10.152" stroke="#48639C" stroke-width="2"/><path d="M254.668 31.96a3.998 3.998 0 0 1 1.461-5.457l8.67-5.006a3.995 3.995 0 0 1 5.457 1.464l4.004 6.935a3.998 3.998 0 0 1-1.461 5.458l-8.67 5.005a3.995 3.995 0 0 1-5.457-1.463l-4.004-6.935zm7.698 1.334a1 1 0 1 0-1-1.732 1 1 0 0 0 1 1.732zm2.598-1.5a1 1 0 1 0-1-1.732 1 1 0 0 0 1 1.732zm2.598-1.5a1 1 0 1 0-1-1.732 1 1 0 0 0 1 1.732z"/><path d="M256.695 27.314s-5.444-7.228-.252-10.23c5.193-3.002 8.791 5.317 8.791 5.317" stroke="#48639C" stroke-width="2"/><path d="M347.656 31.85a3.998 3.998 0 0 1 5.482-1.368l8.581 5.156a3.995 3.995 0 0 1 1.366 5.483l-4.124 6.864a3.998 3.998 0 0 1-5.483 1.368l-8.58-5.156a3.995 3.995 0 0 1-1.366-5.483l4.124-6.864zm2.566 7.38a1 1 0 1 0 1.03-1.715 1 1 0 0 0-1.03 1.715zm2.571 1.545a1 1 0 1 0 1.03-1.715 1 1 0 0 0-1.03 1.715zm2.572 1.545a1 1 0 1 0 1.03-1.715 1 1 0 0 0-1.03 1.715z"/><path d="M352.704 31.37s3.681-8.266 8.824-5.18c5.143 3.086-.388 10.267-.388 10.267" stroke="#48639C" stroke-width="2"/><path d="M422.401 41.373a3.998 3.998 0 0 1-.1-5.65l6.955-7.2a3.995 3.995 0 0 1 5.65-.098l5.76 5.562a3.998 3.998 0 0 1 .099 5.65l-6.954 7.2a3.995 3.995 0 0 1-5.65.098l-5.76-5.562zm7.768-.84a1 1 0 1 0-1.439-1.39 1 1 0 0 0 1.439 1.39zm2.084-2.158a1 1 0 1 0-1.439-1.39 1 1 0 0 0 1.439 1.39zm2.084-2.158a1 1 0 1 0-1.439-1.39 1 1 0 0 0 1.439 1.39z"/><path d="M423.07 36.347s-7.227-5.447-3.063-9.764c4.164-4.317 9.916 2.688 9.916 2.688" stroke="#48639C" stroke-width="2"/><path d="M501.304 31.172a3.998 3.998 0 0 1 .883-5.581l8.098-5.884a3.995 3.995 0 0 1 5.581.885l4.707 6.478a3.998 3.998 0 0 1-.883 5.581l-8.099 5.884a3.995 3.995 0 0 1-5.58-.885l-4.707-6.478zm7.795.521a1 1 0 1 0-1.175-1.618 1 1 0 0 0 1.175 1.618zm2.427-1.763a1 1 0 1 0-1.175-1.618 1 1 0 0 0 1.175 1.618zm2.427-1.763a1 1 0 1 0-1.175-1.618 1 1 0 0 0 1.175 1.618z"/><path d="M502.834 26.338s-6.17-6.619-1.32-10.147c4.85-3.528 9.299 4.369 9.299 4.369" stroke="#48639C" stroke-width="2"/><path d="M546.62 45.517a3.998 3.998 0 0 1 5.547-1.08l8.299 5.599a3.995 3.995 0 0 1 1.077 5.547l-4.478 6.638a3.998 3.998 0 0 1-5.546 1.08l-8.3-5.599a3.995 3.995 0 0 1-1.077-5.546l4.478-6.639zm2.176 7.504a1 1 0 1 0 1.119-1.659 1 1 0 0 0-1.119 1.659zm2.487 1.677a1 1 0 1 0 1.119-1.658 1 1 0 0 0-1.119 1.658zm2.488 1.678a1 1 0 1 0 1.118-1.658 1 1 0 0 0-1.118 1.658z"/><path d="M551.686 45.302s4.11-8.062 9.084-4.711c4.974 3.35-.925 10.232-.925 10.232" stroke="#48639C" stroke-width="2"/><path d="M13.935 73.045a3.998 3.998 0 0 1 5.12-2.389l9.407 3.424a3.995 3.995 0 0 1 2.387 5.121l-2.739 7.525a3.998 3.998 0 0 1-5.12 2.389l-9.407-3.424a3.995 3.995 0 0 1-2.387-5.121l2.739-7.525zm3.927 6.754a1 1 0 1 0 .684-1.88 1 1 0 0 0-.684 1.88zm2.819 1.026a1 1 0 1 0 .684-1.88 1 1 0 0 0-.684 1.88zm2.819 1.026a1 1 0 1 0 .684-1.879 1 1 0 0 0-.684 1.88z"/><path d="M18.798 71.611s2.037-8.817 7.674-6.769c5.638 2.048 1.578 10.152 1.578 10.152" stroke="#48639C" stroke-width="2"/><path d="M113.668 89.96a3.998 3.998 0 0 1 1.461-5.457l8.67-5.006a3.995 3.995 0 0 1 5.457 1.464l4.004 6.935a3.998 3.998 0 0 1-1.461 5.458l-8.67 5.005a3.995 3.995 0 0 1-5.457-1.463l-4.004-6.935zm7.698 1.334a1 1 0 1 0-1-1.732 1 1 0 0 0 1 1.732zm2.598-1.5a1 1 0 1 0-1-1.732 1 1 0 0 0 1 1.732zm2.598-1.5a1 1 0 1 0-1-1.732 1 1 0 0 0 1 1.732z"/><path d="M115.695 85.314s-5.444-7.228-.252-10.23c5.193-3.002 8.791 5.317 8.791 5.317" stroke="#48639C" stroke-width="2"/><path d="M162 76.996A3.998 3.998 0 0 1 165.995 73h10.01A3.995 3.995 0 0 1 180 76.996v8.008A3.998 3.998 0 0 1 176.005 89h-10.01A3.995 3.995 0 0 1 162 85.004v-8.008zM168 82a1 1 0 1 0 0-2 1 1 0 0 0 0 2zm3 0a1 1 0 1 0 0-2 1 1 0 0 0 0 2zm3 0a1 1 0 1 0 0-2 1 1 0 0 0 0 2z"/><path d="M166.08 73.985s-1.102-8.981 4.896-8.985c5.998-.004 4.955 9 4.955 9" stroke="#48639C" stroke-width="2"/><path d="M226.668 79.96a3.998 3.998 0 0 1 1.461-5.457l8.67-5.006a3.995 3.995 0 0 1 5.457 1.464l4.004 6.935a3.998 3.998 0 0 1-1.461 5.458l-8.67 5.005a3.995 3.995 0 0 1-5.457-1.463l-4.004-6.935zm7.698 1.334a1 1 0 1 0-1-1.732 1 1 0 0 0 1 1.732zm2.598-1.5a1 1 0 1 0-1-1.732 1 1 0 0 0 1 1.732zm2.598-1.5a1 1 0 1 0-1-1.732 1 1 0 0 0 1 1.732z"/><path d="M228.695 75.314s-5.444-7.228-.252-10.23c5.193-3.002 8.791 5.317 8.791 5.317" stroke="#48639C" stroke-width="2"/><path d="M272.77 102.804a3.998 3.998 0 0 1 3.24-4.63l9.858-1.738a3.995 3.995 0 0 1 4.628 3.242l1.39 7.886a3.998 3.998 0 0 1-3.24 4.63l-9.858 1.737a3.995 3.995 0 0 1-4.628-3.241l-1.39-7.886zm6.778 3.886a1 1 0 1 0-.348-1.97 1 1 0 0 0 .348 1.97zm2.954-.521a1 1 0 1 0-.347-1.97 1 1 0 0 0 .347 1.97zm2.954-.521a1 1 0 1 0-.347-1.97 1 1 0 0 0 .347 1.97z"/><path d="M276.265 99.13s-2.645-8.654 3.261-9.699c5.906-1.045 6.443 8.003 6.443 8.003" stroke="#48639C" stroke-width="2"/><path d="M299.77 62.804a3.998 3.998 0 0 1 3.24-4.63l9.858-1.738a3.995 3.995 0 0 1 4.628 3.242l1.39 7.886a3.998 3.998 0 0 1-3.24 4.63l-9.858 1.737a3.995 3.995 0 0 1-4.628-3.241l-1.39-7.886zm6.778 3.886a1 1 0 1 0-.348-1.97 1 1 0 0 0 .348 1.97zm2.954-.521a1 1 0 1 0-.347-1.97 1 1 0 0 0 .347 1.97zm2.954-.521a1 1 0 1 0-.347-1.97 1 1 0 0 0 .347 1.97z"/><path d="M303.265 59.13s-2.645-8.654 3.261-9.699c5.906-1.045 6.443 8.003 6.443 8.003" stroke="#48639C" stroke-width="2"/><path d="M378.304 79.172a3.998 3.998 0 0 1 .883-5.581l8.098-5.884a3.995 3.995 0 0 1 5.581.885l4.707 6.478a3.998 3.998 0 0 1-.883 5.581l-8.099 5.884a3.995 3.995 0 0 1-5.58-.885l-4.707-6.478zm7.795.521a1 1 0 1 0-1.175-1.618 1 1 0 0 0 1.175 1.618zm2.427-1.763a1 1 0 1 0-1.175-1.618 1 1 0 0 0 1.175 1.618zm2.427-1.763a1 1 0 1 0-1.175-1.618 1 1 0 0 0 1.175 1.618z"/><path d="M379.834 74.338s-6.17-6.619-1.32-10.147c4.85-3.528 9.299 4.369 9.299 4.369" stroke="#48639C" stroke-width="2"/><path d="M456.807 66.617a3.998 3.998 0 0 1 5.275-2.026l9.145 4.072a3.995 3.995 0 0 1 2.024 5.275l-3.257 7.316a3.998 3.998 0 0 1-5.275 2.025l-9.145-4.071a3.995 3.995 0 0 1-2.024-5.276l3.257-7.315zm3.446 7.012a1 1 0 1 0 .813-1.827 1 1 0 0 0-.813 1.827zm2.74 1.22a1 1 0 1 0 .814-1.827 1 1 0 0 0-.813 1.827zm2.741 1.22a1 1 0 1 0 .814-1.827 1 1 0 0 0-.814 1.827z"/><path d="M461.758 65.526s2.647-8.653 8.128-6.217c5.48 2.436.866 10.237.866 10.237" stroke="#48639C" stroke-width="2"/><g><path d="M507.733 87.638a3.998 3.998 0 0 1 4.264-3.708l9.986.698a3.995 3.995 0 0 1 3.707 4.265l-.559 7.988a3.998 3.998 0 0 1-4.264 3.708l-9.986-.698a3.995 3.995 0 0 1-3.706-4.265l.558-7.988zm5.637 5.41a1 1 0 1 0 .14-1.995 1 1 0 0 0-.14 1.995zm2.992.21a1 1 0 1 0 .14-1.996 1 1 0 0 0-.14 1.995zm2.993.208a1 1 0 1 0 .14-1.995 1 1 0 0 0-.14 1.995z"/><path d="M512.013 84.919s-.472-9.037 5.511-8.622c5.984.415 4.315 9.324 4.315 9.324" stroke="#48639C" stroke-width="2"/></g><g><path d="M571.304 100.172a3.998 3.998 0 0 1 .883-5.581l8.098-5.884a3.995 3.995 0 0 1 5.581.885l4.707 6.478a3.998 3.998 0 0 1-.883 5.581l-8.099 5.884a3.995 3.995 0 0 1-5.58-.885l-4.707-6.478zm7.795.521a1 1 0 1 0-1.175-1.618 1 1 0 0 0 1.175 1.618zm2.427-1.763a1 1 0 1 0-1.175-1.618 1 1 0 0 0 1.175 1.618zm2.427-1.763a1 1 0 1 0-1.175-1.618 1 1 0 0 0 1.175 1.618z"/><path d="M572.834 95.338s-6.17-6.619-1.32-10.147c4.85-3.528 9.299 4.369 9.299 4.369" stroke="#48639C" stroke-width="2"/></g><g><path d="M51.935 102.045a3.998 3.998 0 0 1 5.12-2.389l9.407 3.424a3.995 3.995 0 0 1 2.387 5.121l-2.739 7.525a3.998 3.998 0 0 1-5.12 2.389l-9.407-3.424a3.995 3.995 0 0 1-2.387-5.121l2.739-7.525zm3.927 6.754a1 1 0 1 0 .684-1.88 1 1 0 0 0-.684 1.88zm2.819 1.026a1 1 0 1 0 .684-1.88 1 1 0 0 0-.684 1.88zm2.819 1.026a1 1 0 1 0 .684-1.879 1 1 0 0 0-.684 1.88z"/><path d="M56.798 100.611s2.037-8.817 7.674-6.769c5.638 2.048 1.578 10.152 1.578 10.152" stroke="#48639C" stroke-width="2"/></g><g><path d="M24.668 144.465a3.998 3.998 0 0 1 2.387-5.121l9.407-3.424a3.995 3.995 0 0 1 5.12 2.389l2.74 7.525a3.998 3.998 0 0 1-2.388 5.121l-9.406 3.424a3.995 3.995 0 0 1-5.12-2.389l-2.74-7.525zm7.35 2.65a1 1 0 1 0-.684-1.88 1 1 0 0 0 .684 1.88zm2.819-1.026a1 1 0 1 0-.684-1.88 1 1 0 0 0 .684 1.88zm2.819-1.026a1 1 0 1 0-.684-1.88 1 1 0 0 0 .684 1.88z"/><path d="M27.472 140.24s-4.107-8.062 1.528-10.117c5.635-2.055 7.734 6.762 7.734 6.762" stroke="#48639C" stroke-width="2"/></g><g><path d="M83 143.996A3.998 3.998 0 0 1 86.995 140h10.01a3.995 3.995 0 0 1 3.995 3.996v8.008A3.998 3.998 0 0 1 97.005 156h-10.01A3.995 3.995 0 0 1 83 152.004v-8.008zM89 149a1 1 0 1 0 0-2 1 1 0 0 0 0 2zm3 0a1 1 0 1 0 0-2 1 1 0 0 0 0 2zm3 0a1 1 0 1 0 0-2 1 1 0 0 0 0 2z"/><path d="M87.08 140.985s-1.102-8.981 4.896-8.985c5.998-.004 4.955 9 4.955 9" stroke="#48639C" stroke-width="2"/></g><g><path d="M134.935 124.045a3.998 3.998 0 0 1 5.12-2.389l9.407 3.424a3.995 3.995 0 0 1 2.387 5.121l-2.739 7.525a3.998 3.998 0 0 1-5.12 2.389l-9.407-3.424a3.995 3.995 0 0 1-2.387-5.121l2.739-7.525zm3.927 6.754a1 1 0 1 0 .684-1.88 1 1 0 0 0-.684 1.88zm2.819 1.026a1 1 0 1 0 .684-1.88 1 1 0 0 0-.684 1.88zm2.819 1.026a1 1 0 1 0 .684-1.879 1 1 0 0 0-.684 1.88z"/><path d="M139.798 122.611s2.037-8.817 7.674-6.769c5.638 2.048 1.578 10.152 1.578 10.152" stroke="#48639C" stroke-width="2"/></g><g><path d="M188.935 116.045a3.998 3.998 0 0 1 5.12-2.389l9.407 3.424a3.995 3.995 0 0 1 2.387 5.121l-2.739 7.525a3.998 3.998 0 0 1-5.12 2.389l-9.407-3.424a3.995 3.995 0 0 1-2.387-5.121l2.739-7.525zm3.927 6.754a1 1 0 1 0 .684-1.88 1 1 0 0 0-.684 1.88zm2.819 1.026a1 1 0 1 0 .684-1.88 1 1 0 0 0-.684 1.88zm2.819 1.026a1 1 0 1 0 .684-1.879 1 1 0 0 0-.684 1.88z"/><path d="M193.798 114.611s2.037-8.817 7.674-6.769c5.638 2.048 1.578 10.152 1.578 10.152" stroke="#48639C" stroke-width="2"/></g><g><path d="M186.668 164.96a3.998 3.998 0 0 1 1.461-5.457l8.67-5.006a3.995 3.995 0 0 1 5.457 1.464l4.004 6.935a3.998 3.998 0 0 1-1.461 5.458l-8.67 5.005a3.995 3.995 0 0 1-5.457-1.463l-4.004-6.935zm7.698 1.334a1 1 0 1 0-1-1.732 1 1 0 0 0 1 1.732zm2.598-1.5a1 1 0 1 0-1-1.732 1 1 0 0 0 1 1.732zm2.598-1.5a1 1 0 1 0-1-1.732 1 1 0 0 0 1 1.732z"/><path d="M188.695 160.314s-5.444-7.228-.252-10.23c5.193-3.002 8.791 5.317 8.791 5.317" stroke="#48639C" stroke-width="2"/></g><g><path d="M246.668 146.96a3.998 3.998 0 0 1 1.461-5.457l8.67-5.006a3.995 3.995 0 0 1 5.457 1.464l4.004 6.935a3.998 3.998 0 0 1-1.461 5.458l-8.67 5.005a3.995 3.995 0 0 1-5.457-1.463l-4.004-6.935zm7.698 1.334a1 1 0 1 0-1-1.732 1 1 0 0 0 1 1.732zm2.598-1.5a1 1 0 1 0-1-1.732 1 1 0 0 0 1 1.732zm2.598-1.5a1 1 0 1 0-1-1.732 1 1 0 0 0 1 1.732z"/><path d="M248.695 142.314s-5.444-7.228-.252-10.23c5.193-3.002 8.791 5.317 8.791 5.317" stroke="#48639C" stroke-width="2"/></g><g><path d="M297.725 138.738a3.998 3.998 0 0 1 5.629.492l6.434 7.668a3.995 3.995 0 0 1-.493 5.63l-6.134 5.146a3.998 3.998 0 0 1-5.63-.491l-6.434-7.668a3.995 3.995 0 0 1 .494-5.63l6.134-5.147zm.023 7.813a1 1 0 1 0 1.532-1.285 1 1 0 0 0-1.532 1.285zm1.929 2.298a1 1 0 1 0 1.532-1.285 1 1 0 0 0-1.532 1.285zm1.928 2.298a1 1 0 1 0 1.532-1.285 1 1 0 0 0-1.532 1.285z"/><path d="M302.654 139.928s6.172-6.617 10.03-2.025c3.858 4.593-3.71 9.581-3.71 9.581" stroke="#48639C" stroke-width="2"/></g><g><path d="M333.847 106.399a3.998 3.998 0 0 1-.493-5.629l6.434-7.668a3.995 3.995 0 0 1 5.63-.492l6.134 5.147a3.998 3.998 0 0 1 .493 5.63l-6.434 7.668a3.995 3.995 0 0 1-5.63.491l-6.134-5.147zm7.69-1.38a1 1 0 1 0-1.532-1.286 1 1 0 0 0 1.532 1.286zm1.929-2.298a1 1 0 1 0-1.533-1.286 1 1 0 0 0 1.533 1.286zm1.928-2.298a1 1 0 1 0-1.532-1.286 1 1 0 0 0 1.532 1.286z"/><path d="M334.163 101.338s-7.588-4.929-3.736-9.526c3.853-4.597 10.08 1.99 10.08 1.99" stroke="#48639C" stroke-width="2"/></g><g><path d="M368.807 128.617a3.998 3.998 0 0 1 5.275-2.026l9.145 4.072a3.995 3.995 0 0 1 2.024 5.275l-3.257 7.316a3.998 3.998 0 0 1-5.275 2.025l-9.145-4.071a3.995 3.995 0 0 1-2.024-5.276l3.257-7.315zm3.446 7.012a1 1 0 1 0 .813-1.827 1 1 0 0 0-.813 1.827zm2.74 1.22a1 1 0 1 0 .814-1.827 1 1 0 0 0-.813 1.827zm2.741 1.22a1 1 0 1 0 .814-1.827 1 1 0 0 0-.814 1.827z"/><path d="M373.758 127.526s2.647-8.653 8.128-6.217c5.48 2.436.866 10.237.866 10.237" stroke="#48639C" stroke-width="2"/></g><g><path d="M419.807 104.617a3.998 3.998 0 0 1 5.275-2.026l9.145 4.072a3.995 3.995 0 0 1 2.024 5.275l-3.257 7.316a3.998 3.998 0 0 1-5.275 2.025l-9.145-4.071a3.995 3.995 0 0 1-2.024-5.276l3.257-7.315zm3.446 7.012a1 1 0 1 0 .813-1.827 1 1 0 0 0-.813 1.827zm2.74 1.22a1 1 0 1 0 .814-1.827 1 1 0 0 0-.813 1.827zm2.741 1.22a1 1 0 1 0 .814-1.827 1 1 0 0 0-.814 1.827z"/><path d="M424.758 103.526s2.647-8.653 8.128-6.217c5.48 2.436.866 10.237.866 10.237" stroke="#48639C" stroke-width="2"/></g><g><path d="M413.216 152.258a3.998 3.998 0 0 1 5.343 1.839l4.389 8.997a3.995 3.995 0 0 1-1.84 5.342l-7.198 3.51a3.998 3.998 0 0 1-5.343-1.838l-4.388-8.998a3.995 3.995 0 0 1 1.84-5.342l7.197-3.51zm-1.867 7.586a1 1 0 1 0 1.798-.877 1 1 0 0 0-1.798.877zm1.315 2.697a1 1 0 1 0 1.798-.877 1 1 0 0 0-1.798.877zm1.315 2.696a1 1 0 1 0 1.798-.877 1 1 0 0 0-1.798.877z"/><path d="M417.71 154.605s7.59-4.928 10.223.461c2.633 5.39-5.917 8.4-5.917 8.4" stroke="#48639C" stroke-width="2"/></g><g><path d="M471.304 131.172a3.998 3.998 0 0 1 .883-5.581l8.098-5.884a3.995 3.995 0 0 1 5.581.885l4.707 6.478a3.998 3.998 0 0 1-.883 5.581l-8.099 5.884a3.995 3.995 0 0 1-5.58-.885l-4.707-6.478zm7.795.521a1 1 0 1 0-1.175-1.618 1 1 0 0 0 1.175 1.618zm2.427-1.763a1 1 0 1 0-1.175-1.618 1 1 0 0 0 1.175 1.618zm2.427-1.763a1 1 0 1 0-1.175-1.618 1 1 0 0 0 1.175 1.618z"/><path d="M472.834 126.338s-6.17-6.619-1.32-10.147c4.85-3.528 9.299 4.369 9.299 4.369" stroke="#48639C" stroke-width="2"/></g><g><path d="M531.304 140.172a3.998 3.998 0 0 1 .883-5.581l8.098-5.884a3.995 3.995 0 0 1 5.581.885l4.707 6.478a3.998 3.998 0 0 1-.883 5.581l-8.099 5.884a3.995 3.995 0 0 1-5.58-.885l-4.707-6.478zm7.795.521a1 1 0 1 0-1.175-1.618 1 1 0 0 0 1.175 1.618zm2.427-1.763a1 1 0 1 0-1.175-1.618 1 1 0 0 0 1.175 1.618zm2.427-1.763a1 1 0 1 0-1.175-1.618 1 1 0 0 0 1.175 1.618z"/><path d="M532.834 135.338s-6.17-6.619-1.32-10.147c4.85-3.528 9.299 4.369 9.299 4.369" stroke="#48639C" stroke-width="2"/></g></g></svg>