<svg xmlns="http://www.w3.org/2000/svg" viewBox="0 0 605 180"><title>mail</title><g fill-rule="evenodd"><path d="M44.064 25.967l-5.828-1.186-5.509 15.925a2.591 2.591 0 0 0 1.891-.278l26.692-15.41a2.572 2.572 0 0 0 1.18-1.496l-16.54-3.195-1.886 5.64z"/><path d="M50.201 2.222a2.574 2.574 0 0 0-1.891.278L21.618 17.911a2.564 2.564 0 0 0-1.18 1.5l22.326 4.305 7.437-21.494zM20.517 21.183l10.8 18.707 5.424-15.462zM46.393 18.856l16.101 3.034L51.69 3.176zM77.342 59.755L73.64 55.1l-14.457 8.658c.38.508.95.883 1.628 1.002l30.353 5.352a2.572 2.572 0 0 0 1.864-.386l-10.616-13.08-5.07 3.109z"/><path d="M97.306 45.51a2.574 2.574 0 0 0-1.627-1.003l-30.353-5.352a2.564 2.564 0 0 0-1.868.392l14.335 17.647L97.306 45.51zM62.38 40.954l-3.752 21.272 14.093-8.358zM83.697 55.804L94.08 68.478l3.753-21.28zM134.064 34.967l-5.828-1.186-5.509 15.925a2.591 2.591 0 0 0 1.891-.278l26.692-15.41a2.572 2.572 0 0 0 1.18-1.496l-16.54-3.195-1.886 5.64z"/><path d="M140.201 11.222a2.574 2.574 0 0 0-1.891.278l-26.692 15.411a2.564 2.564 0 0 0-1.18 1.5l22.326 4.305 7.437-21.494zM110.517 30.183l10.8 18.707 5.424-15.462zM136.393 27.856l16.101 3.034-10.804-18.714zM196.612 40.013l-2.837-5.227-15.74 6.016a2.591 2.591 0 0 0 1.428 1.27l28.963 10.542a2.572 2.572 0 0 0 1.903-.057l-8.184-14.724-5.533 2.18z"/><path d="M218.747 29.451a2.574 2.574 0 0 0-1.429-1.27l-28.962-10.54a2.564 2.564 0 0 0-1.908.06l11.053 19.87 21.246-8.12zM185.142 18.9l-7.388 20.298 15.33-5.784zM203.557 37.226l8.026 14.284 7.39-20.305zM265.064 31.967l-5.828-1.186-5.509 15.925a2.591 2.591 0 0 0 1.891-.278l26.692-15.41a2.572 2.572 0 0 0 1.18-1.496l-16.54-3.195-1.886 5.64z"/><path d="M271.201 8.222a2.574 2.574 0 0 0-1.891.278l-26.692 15.411a2.564 2.564 0 0 0-1.18 1.5l22.326 4.305 7.437-21.494zM241.517 27.183l10.8 18.707 5.424-15.462zM267.393 24.856l16.101 3.034L272.69 9.176zM352.69 40.946l-1.787-5.672-16.6 2.902c.174.61.57 1.164 1.16 1.519l26.42 15.874a2.572 2.572 0 0 0 1.879.307l-5.224-16.015-5.848 1.085z"/><path d="M376.434 34.802a2.574 2.574 0 0 0-1.16-1.52l-26.42-15.873a2.564 2.564 0 0 0-1.884-.304l7.06 21.612 22.404-3.915zM345.46 18.032l-11.126 18.515 16.152-2.752zM360.04 39.535l5.152 15.554 11.13-18.523zM432.397 38.513l-5.93.466-.906 16.827a2.591 2.591 0 0 0 1.741-.789l21.41-22.17c.477-.494.715-1.13.723-1.763l-16.78 1.488-.258 5.941z"/><path d="M431.75 13.997c-.635.03-1.26.29-1.74.788L408.6 36.956a2.564 2.564 0 0 0-.72 1.768l22.646-2.017 1.225-22.71zM408.443 40.405L423.98 55.41l.952-16.358zM432.675 31.036l16.314-1.522-15.544-15.011zM511.644 30.092l-5.92-.571-3.815 16.414c.63.079 1.294-.07 1.852-.475l24.935-18.116c.555-.404.9-.988 1.017-1.61l-16.783-1.449-1.286 5.807z"/><path d="M515.265 5.835a2.574 2.574 0 0 0-1.852.475L488.48 24.426c-.556.403-.9.988-1.017 1.615l22.653 1.947 5.15-22.153zM487.725 27.795l12.697 17.475 3.778-15.944zM513.216 22.776l16.33 1.334-12.7-17.482zM551.172 54.864l-1.489-5.758-16.728 2.03c.14.618.508 1.192 1.079 1.577l25.552 17.235c.569.384 1.236.508 1.86.405l-4.378-16.266-5.896.777z"/><path d="M575.204 49.97a2.574 2.574 0 0 0-1.08-1.577l-25.551-17.235a2.564 2.564 0 0 0-1.866-.402l5.918 21.952 22.579-2.737zM545.15 31.602L533.07 49.51l16.275-1.903zM558.584 53.84l4.332 15.801 12.083-17.914z"/><g><path d="M20.612 81.013l-2.837-5.227-15.74 6.016a2.591 2.591 0 0 0 1.428 1.27l28.963 10.542a2.572 2.572 0 0 0 1.903-.057l-8.184-14.724-5.533 2.18z"/><path d="M42.747 70.451a2.574 2.574 0 0 0-1.429-1.27l-28.962-10.54a2.564 2.564 0 0 0-1.908.06l11.053 19.87 21.246-8.12zM9.142 59.9L1.754 80.198l15.33-5.784zM27.557 78.226l8.026 14.284 7.39-20.305z"/></g><g><path d="M124.064 89.967l-5.828-1.186-5.509 15.925a2.591 2.591 0 0 0 1.891-.278l26.692-15.41a2.572 2.572 0 0 0 1.18-1.496l-16.54-3.195-1.886 5.64z"/><path d="M130.201 66.222a2.574 2.574 0 0 0-1.891.278l-26.692 15.411a2.564 2.564 0 0 0-1.18 1.5l22.326 4.305 7.437-21.494zM100.517 85.183l10.8 18.707 5.424-15.462zM126.393 82.856l16.101 3.034-10.804-18.714z"/></g><g><path d="M171 82.2l-4.454-3.942-12.733 11.037a2.591 2.591 0 0 0 1.776.705h30.822c.686 0 1.308-.27 1.769-.705l-12.726-11.037L171 82.2z"/><path d="M188.187 64.705a2.574 2.574 0 0 0-1.776-.705h-30.822c-.686 0-1.308.27-1.771.71L171 79.6l17.187-14.895zM153 66.283v21.6l12.428-10.678zM176.572 77.205L189 87.884V66.275z"/></g><g><path d="M237.064 79.967l-5.828-1.186-5.509 15.925a2.591 2.591 0 0 0 1.891-.278l26.692-15.41a2.572 2.572 0 0 0 1.18-1.496l-16.54-3.195-1.886 5.64z"/><path d="M243.201 56.222a2.574 2.574 0 0 0-1.891.278l-26.692 15.411a2.564 2.564 0 0 0-1.18 1.5l22.326 4.305 7.437-21.494zM213.517 75.183l10.8 18.707 5.424-15.462zM239.393 72.856l16.101 3.034-10.804-18.714z"/></g><g><path d="M282.537 106.366l-5.07-3.109-10.624 13.08a2.591 2.591 0 0 0 1.872.386l30.353-5.352a2.572 2.572 0 0 0 1.62-1.001l-14.45-8.66-3.701 4.656z"/><path d="M296.425 86.151a2.574 2.574 0 0 0-1.872-.385L264.2 91.118a2.564 2.564 0 0 0-1.622 1.007l19.507 11.68 14.34-17.654zM262.046 93.816l3.751 21.273 10.385-12.674zM287.157 100.48l14.093 8.357-3.752-21.28z"/></g><g><path d="M309.537 66.366l-5.07-3.109-10.624 13.08a2.591 2.591 0 0 0 1.872.386l30.353-5.352a2.572 2.572 0 0 0 1.62-1.001l-14.45-8.66-3.701 4.656z"/><path d="M323.425 46.151a2.574 2.574 0 0 0-1.872-.385L291.2 51.118a2.564 2.564 0 0 0-1.622 1.007l19.507 11.68 14.34-17.654zM289.046 53.816l3.751 21.273 10.385-12.674zM314.157 60.48l14.093 8.357-3.752-21.28z"/></g><g><path d="M388.644 78.092l-5.92-.571-3.815 16.414c.63.079 1.294-.07 1.852-.475l24.935-18.116c.555-.404.9-.988 1.017-1.61l-16.783-1.449-1.286 5.807z"/><path d="M392.265 53.835a2.574 2.574 0 0 0-1.852.475L365.48 72.426c-.556.403-.9.988-1.017 1.615l22.653 1.947 5.15-22.153zM364.725 75.795l12.697 17.475 3.778-15.944zM390.216 70.776l16.33 1.334-12.7-17.482z"/></g><g><path d="M462.912 75.032l-2.465-5.413-16.122 4.904a2.591 2.591 0 0 0 1.336 1.366l28.157 12.536c.627.28 1.306.286 1.903.076l-7.137-15.259-5.672 1.79z"/><path d="M485.73 66.04a2.574 2.574 0 0 0-1.337-1.367l-28.156-12.536a2.564 2.564 0 0 0-1.908-.072l9.64 20.591 21.76-6.617zM452.942 53.17l-8.785 19.733 15.696-4.7zM470.034 72.735l7.01 14.81 8.79-19.74z"/></g><g><path d="M516.348 93.457l-4.167-4.243-13.473 10.122a2.591 2.591 0 0 0 1.723.827l30.746 2.15a2.572 2.572 0 0 0 1.814-.58l-11.925-11.898-4.718 3.622z"/><path d="M534.714 77.203a2.574 2.574 0 0 0-1.723-.827l-30.746-2.15a2.564 2.564 0 0 0-1.817.584l16.102 16.053 18.184-13.66zM499.503 76.323l-1.507 21.548 13.142-9.786zM522.256 88.863l11.652 11.519 1.508-21.556z"/></g><g><path d="M581.644 99.092l-5.92-.571-3.815 16.414c.63.079 1.294-.07 1.852-.475l24.935-18.116c.555-.404.9-.988 1.017-1.61l-16.783-1.449-1.286 5.807z"/><path d="M585.265 74.835a2.574 2.574 0 0 0-1.852.475L558.48 93.426c-.556.403-.9.988-1.017 1.615l22.653 1.947 5.15-22.153zM557.725 96.795l12.697 17.475 3.778-15.944zM583.216 91.776l16.33 1.334-12.7-17.482z"/></g><g><path d="M58.612 110.013l-2.837-5.227-15.74 6.016a2.591 2.591 0 0 0 1.428 1.27l28.963 10.542a2.572 2.572 0 0 0 1.903-.057l-8.184-14.724-5.533 2.18z"/><path d="M80.747 99.451a2.574 2.574 0 0 0-1.429-1.27l-28.962-10.54a2.564 2.564 0 0 0-1.908.06l11.053 19.87 21.246-8.12zM47.142 88.9l-7.388 20.298 15.33-5.784zM65.557 107.226l8.026 14.284 7.39-20.305z"/></g><g><path d="M34.905 146.277l-5.533-2.18-8.19 14.726c.583.25 1.262.29 1.91.054l28.962-10.541a2.572 2.572 0 0 0 1.422-1.267l-15.734-6.02-2.837 5.228z"/><path d="M45.072 123.958a2.574 2.574 0 0 0-1.91-.054l-28.963 10.541a2.564 2.564 0 0 0-1.422 1.273l21.24 8.116 11.055-19.876zM12.547 137.476l7.388 20.298 8.026-14.284zM38.433 139.678l15.33 5.784-7.39-20.306z"/></g><g><path d="M92 149.2l-4.454-3.942-12.733 11.037a2.591 2.591 0 0 0 1.776.705h30.822c.686 0 1.308-.27 1.769-.705l-12.726-11.037L92 149.2z"/><path d="M109.187 131.705a2.574 2.574 0 0 0-1.776-.705H76.589c-.686 0-1.308.27-1.771.71L92 146.6l17.187-14.895zM74 133.283v21.6l12.428-10.678zM97.572 144.205L110 154.884v-21.609z"/></g><g><path d="M141.612 132.013l-2.837-5.227-15.74 6.016a2.591 2.591 0 0 0 1.428 1.27l28.963 10.542a2.572 2.572 0 0 0 1.903-.057l-8.184-14.724-5.533 2.18z"/><path d="M163.747 121.451a2.574 2.574 0 0 0-1.429-1.27l-28.962-10.54a2.564 2.564 0 0 0-1.908.06l11.053 19.87 21.246-8.12zM130.142 110.9l-7.388 20.298 15.33-5.784zM148.557 129.226l8.026 14.284 7.39-20.305z"/></g><g><path d="M195.612 124.013l-2.837-5.227-15.74 6.016a2.591 2.591 0 0 0 1.428 1.27l28.963 10.542a2.572 2.572 0 0 0 1.903-.057l-8.184-14.724-5.533 2.18z"/><path d="M217.747 113.451a2.574 2.574 0 0 0-1.429-1.27l-28.962-10.54a2.564 2.564 0 0 0-1.908.06l11.053 19.87 21.246-8.12zM184.142 102.9l-7.388 20.298 15.33-5.784zM202.557 121.226l8.026 14.284 7.39-20.305z"/></g><g><path d="M197.064 164.967l-5.828-1.186-5.509 15.925a2.591 2.591 0 0 0 1.891-.278l26.692-15.41a2.572 2.572 0 0 0 1.18-1.496l-16.54-3.195-1.886 5.64z"/><path d="M203.201 141.222a2.574 2.574 0 0 0-1.891.278l-26.692 15.411a2.564 2.564 0 0 0-1.18 1.5l22.326 4.305 7.437-21.494zM173.517 160.183l10.8 18.707 5.424-15.462zM199.393 157.856l16.101 3.034-10.804-18.714z"/></g><g><path d="M257.064 146.967l-5.828-1.186-5.509 15.925a2.591 2.591 0 0 0 1.891-.278l26.692-15.41a2.572 2.572 0 0 0 1.18-1.496l-16.54-3.195-1.886 5.64z"/><path d="M263.201 123.222a2.574 2.574 0 0 0-1.891.278l-26.692 15.411a2.564 2.564 0 0 0-1.18 1.5l22.326 4.305 7.437-21.494zM233.517 142.183l10.8 18.707 5.424-15.462zM259.393 139.856l16.101 3.034-10.804-18.714z"/></g><g><path d="M299.524 148.978l.156-5.946-16.64-2.66c-.035.634.16 1.286.603 1.814l19.811 23.61a2.572 2.572 0 0 0 1.677.903l.275-16.843-5.882-.878z"/><path d="M323.974 150.898a2.574 2.574 0 0 0-.603-1.814l-19.811-23.61a2.564 2.564 0 0 0-1.683-.901l-.362 22.734 22.459 3.591zM300.147 124.958l-16.548 13.884 16.169 2.657zM306.931 150.036l-.191 16.384 16.553-13.89z"/></g><g><path d="M343.619 102.85l-5.882.878.27 16.849a2.591 2.591 0 0 0 1.681-.909l19.812-23.61a2.572 2.572 0 0 0 .597-1.808l-16.635 2.654.157 5.945z"/><path d="M341.264 78.437a2.574 2.574 0 0 0-1.682.909l-19.811 23.61a2.564 2.564 0 0 0-.595 1.813l22.451-3.59-.363-22.742zM319.855 106.407l16.547 13.885-.191-16.384zM343.374 95.37l16.169-2.656-16.553-13.89z"/></g><g><path d="M374.912 137.032l-2.465-5.413-16.122 4.904a2.591 2.591 0 0 0 1.336 1.366l28.157 12.536c.627.28 1.306.286 1.903.076l-7.137-15.259-5.672 1.79z"/><path d="M397.73 128.04a2.574 2.574 0 0 0-1.337-1.367l-28.156-12.536a2.564 2.564 0 0 0-1.908-.072l9.64 20.591 21.76-6.617zM364.942 115.17l-8.785 19.733 15.696-4.7zM382.034 134.735l7.01 14.81 8.79-19.74z"/></g><g><path d="M425.912 113.032l-2.465-5.413-16.122 4.904a2.591 2.591 0 0 0 1.336 1.366l28.157 12.536c.627.28 1.306.286 1.903.076l-7.137-15.259-5.672 1.79z"/><path d="M448.73 104.04a2.574 2.574 0 0 0-1.337-1.367l-28.156-12.536a2.564 2.564 0 0 0-1.908-.072l9.64 20.591 21.76-6.617zM415.942 91.17l-8.785 19.733 15.696-4.7zM433.034 110.735l7.01 14.81 8.79-19.74z"/></g><g><path d="M412.485 162.628l1.59-5.73-15.502-6.607a2.591 2.591 0 0 0 .145 1.906l13.512 27.701a2.572 2.572 0 0 0 1.408 1.282l4.342-16.277-5.495-2.275z"/><path d="M435.744 170.407a2.574 2.574 0 0 0-.146-1.906l-13.51-27.702a2.564 2.564 0 0 0-1.416-1.281l-5.85 21.97 20.922 8.919zM418.9 139.472l-19.414 9.47 15.045 6.488zM419.416 165.447l-4.15 15.851 19.423-9.473z"/></g><g><path d="M481.644 130.092l-5.92-.571-3.815 16.414c.63.079 1.294-.07 1.852-.475l24.935-18.116c.555-.404.9-.988 1.017-1.61l-16.783-1.449-1.286 5.807z"/><path d="M485.265 105.835a2.574 2.574 0 0 0-1.852.475l-24.934 18.116c-.556.403-.9.988-1.017 1.615l22.653 1.947 5.15-22.153zM457.725 127.795l12.697 17.475 3.778-15.944zM483.216 122.776l16.33 1.334-12.7-17.482z"/></g><g><path d="M541.644 139.092l-5.92-.571-3.815 16.414c.63.079 1.294-.07 1.852-.475l24.935-18.116c.555-.404.9-.988 1.017-1.61l-16.783-1.449-1.286 5.807z"/><path d="M545.265 114.835a2.574 2.574 0 0 0-1.852.475l-24.934 18.116c-.556.403-.9.988-1.017 1.615l22.653 1.947 5.15-22.153zM517.725 136.795l12.697 17.475 3.778-15.944zM543.216 131.776l16.33 1.334-12.7-17.482z"/></g></g></svg>