<svg xmlns="http://www.w3.org/2000/svg" viewBox="0 0 605 180"><title>output</title><g fill-rule="evenodd"><path d="M42.242 13.592l-9.56 5.52-1.285-2.228L44.758 9.17l.643 1.113 7.072 12.248-2.227 1.286-5.52-9.56L39.24 34.73l-2.483-.665 5.485-20.473zm-23.44 4.62a3.86 3.86 0 0 1 1.41-5.263L44.716-1.198A3.86 3.86 0 0 1 49.98.212l14.147 24.504a3.86 3.86 0 0 1-1.41 5.263L38.212 44.126a3.86 3.86 0 0 1-5.263-1.41L18.802 18.212zm1.473-1.449a1.334 1.334 0 0 1 .488-1.822L46.165.275a1.334 1.334 0 0 1 1.823.488l14.665 25.402c.369.638.15 1.454-.488 1.823L36.763 42.653a1.334 1.334 0 0 1-1.822-.488L20.275 16.763zM83.901 49.103L73.03 47.187l.447-2.533 15.194 2.68-.224 1.266-2.455 13.928-2.533-.447 1.917-10.871-17.362 12.157-1.475-2.106 17.362-12.158zM62.975 37.576a3.86 3.86 0 0 1 4.463-3.125l27.865 4.913a3.86 3.86 0 0 1 3.125 4.463l-4.913 27.865a3.86 3.86 0 0 1-4.464 3.125l-27.864-4.913a3.86 3.86 0 0 1-3.126-4.463l4.914-27.865zm2.06-.163c.127-.726.819-1.21 1.545-1.083l28.886 5.094c.726.128 1.21.819 1.082 1.545l-5.093 28.886a1.334 1.334 0 0 1-1.546 1.082l-28.886-5.093a1.334 1.334 0 0 1-1.082-1.546l5.093-28.885zM132.242 22.592l-9.56 5.52-1.285-2.228 13.361-7.714.643 1.113 7.072 12.248-2.227 1.286-5.52-9.56-5.486 20.473-2.483-.665 5.485-20.473zm-23.44 4.62a3.86 3.86 0 0 1 1.41-5.263l24.504-14.147a3.86 3.86 0 0 1 5.263 1.41l14.147 24.504a3.86 3.86 0 0 1-1.41 5.263l-24.504 14.147a3.86 3.86 0 0 1-5.263-1.41l-14.147-24.504zm1.473-1.449a1.334 1.334 0 0 1 .488-1.822l25.402-14.666a1.334 1.334 0 0 1 1.823.488l14.665 25.402c.369.638.15 1.454-.488 1.823l-25.402 14.665a1.334 1.334 0 0 1-1.822-.488l-14.666-25.402zM204.922 30.663l-10.373-3.776.879-2.416 14.498 5.277-.44 1.208-4.837 13.29-2.416-.88 3.775-10.373-19.21 8.958-1.086-2.33 19.21-8.958zm-18.607-14.987a3.86 3.86 0 0 1 4.938-2.302l26.588 9.677a3.86 3.86 0 0 1 2.303 4.938l-9.678 26.588a3.86 3.86 0 0 1-4.937 2.303l-26.589-9.677a3.86 3.86 0 0 1-2.302-4.938l9.677-26.589zm2.057.197a1.334 1.334 0 0 1 1.71-.797l27.562 10.032a1.334 1.334 0 0 1 .798 1.71L208.41 54.38a1.334 1.334 0 0 1-1.71.798l-27.563-10.032a1.334 1.334 0 0 1-.797-1.71l10.032-27.563zM263.242 19.592l-9.56 5.52-1.285-2.228 13.361-7.714.643 1.113 7.072 12.248-2.227 1.286-5.52-9.56-5.486 20.473-2.483-.665 5.485-20.473zm-23.44 4.62a3.86 3.86 0 0 1 1.41-5.263l24.504-14.147a3.86 3.86 0 0 1 5.263 1.41l14.147 24.504a3.86 3.86 0 0 1-1.41 5.263l-24.504 14.147a3.86 3.86 0 0 1-5.263-1.41l-14.147-24.504zm1.473-1.449a1.334 1.334 0 0 1 .488-1.822l25.402-14.666a1.334 1.334 0 0 1 1.823.488l14.665 25.402c.369.638.15 1.454-.488 1.823l-25.402 14.665a1.334 1.334 0 0 1-1.822-.488l-14.666-25.402zM362.631 33.353l-9.462-5.685 1.324-2.205 13.225 7.947-.662 1.102-7.284 12.123-2.204-1.325 5.685-9.462-20.565 5.128-.622-2.495 20.565-5.128zM347.226 15.09a3.86 3.86 0 0 1 5.287-1.318l24.253 14.573a3.86 3.86 0 0 1 1.318 5.287l-14.573 24.253a3.86 3.86 0 0 1-5.287 1.318l-24.253-14.573a3.86 3.86 0 0 1-1.318-5.286l14.573-24.254zm1.981.586a1.334 1.334 0 0 1 1.831-.456l25.142 15.107c.632.38.837 1.198.457 1.83L361.53 57.3a1.334 1.334 0 0 1-1.831.457L334.557 42.65a1.334 1.334 0 0 1-.457-1.83l15.107-25.143zM427.234 27.12l-7.668 7.94-1.85-1.786 10.718-11.099.925.893 10.173 9.825-1.786 1.85-7.94-7.669.37 21.192-2.572.045-.37-21.192zm-21.259 10.902a3.86 3.86 0 0 1-.095-5.448l19.655-20.353a3.86 3.86 0 0 1 5.448-.095l20.354 19.655a3.86 3.86 0 0 1 .095 5.447l-19.655 20.354a3.86 3.86 0 0 1-5.448.095l-20.354-19.655zm1.017-1.799a1.334 1.334 0 0 1-.033-1.887l20.375-21.099a1.334 1.334 0 0 1 1.887-.033l21.1 20.376c.53.511.545 1.356.032 1.886l-20.375 21.1a1.334 1.334 0 0 1-1.887.032l-21.1-20.375zM508.538 17.974l-8.93 6.489-1.512-2.08 12.482-9.07.756 1.04 8.313 11.443-2.08 1.511-6.489-8.93-3.316 20.934-2.54-.402 3.316-20.935zM485.71 25.02a3.86 3.86 0 0 1 .853-5.382l22.89-16.631a3.86 3.86 0 0 1 5.382.852l16.631 22.891a3.86 3.86 0 0 1-.852 5.382l-22.891 16.63a3.86 3.86 0 0 1-5.381-.851L485.709 25.02zm1.314-1.595a1.334 1.334 0 0 1 .295-1.864l23.73-17.24a1.334 1.334 0 0 1 1.863.295l17.24 23.73c.434.595.302 1.43-.294 1.863l-23.73 17.24a1.334 1.334 0 0 1-1.864-.295l-17.24-23.73zM561.496 47.801l-9.151-6.172 1.438-2.132 12.79 8.627-.719 1.066-7.908 11.725-2.132-1.438 6.173-9.151-20.806 4.044-.49-2.524 20.805-4.045zM547.068 28.76a3.86 3.86 0 0 1 5.348-1.04l23.458 15.822a3.86 3.86 0 0 1 1.04 5.349L561.09 72.347a3.86 3.86 0 0 1-5.348 1.04l-23.458-15.823a3.86 3.86 0 0 1-1.04-5.348l15.823-23.457zm1.948.688a1.334 1.334 0 0 1 1.852-.36l24.317 16.402c.61.412.772 1.241.36 1.853l-16.402 24.316c-.412.611-1.24.773-1.852.36l-24.317-16.401a1.334 1.334 0 0 1-.36-1.853l16.402-24.317zM28.922 71.663l-10.373-3.776.879-2.416 14.498 5.277-.44 1.208-4.837 13.29-2.416-.88 3.775-10.373-19.21 8.958-1.086-2.33 19.21-8.958zM10.315 56.676a3.86 3.86 0 0 1 4.938-2.302L41.84 64.05a3.86 3.86 0 0 1 2.303 4.938l-9.678 26.588a3.86 3.86 0 0 1-4.937 2.303L2.94 88.203a3.86 3.86 0 0 1-2.302-4.938l9.677-26.589zm2.057.197a1.334 1.334 0 0 1 1.71-.797l27.562 10.032a1.334 1.334 0 0 1 .798 1.71L32.41 95.38a1.334 1.334 0 0 1-1.71.798L3.137 86.146a1.334 1.334 0 0 1-.797-1.71l10.032-27.563zM122.242 77.592l-9.56 5.52-1.285-2.228 13.361-7.714.643 1.113 7.072 12.248-2.227 1.286-5.52-9.56-5.486 20.473-2.483-.665 5.485-20.473zm-23.44 4.62a3.86 3.86 0 0 1 1.41-5.263l24.504-14.147a3.86 3.86 0 0 1 5.263 1.41l14.147 24.504a3.86 3.86 0 0 1-1.41 5.263l-24.504 14.147a3.86 3.86 0 0 1-5.263-1.41L98.802 82.212zm1.473-1.449a1.334 1.334 0 0 1 .488-1.822l25.402-14.666a1.334 1.334 0 0 1 1.823.488l14.665 25.402c.369.638.15 1.454-.488 1.823l-25.402 14.665a1.334 1.334 0 0 1-1.822-.488l-14.666-25.402zM175.61 70.571h-11.039V68H180v15.429h-2.571v-11.04L162.44 87.378l-1.818-1.818L175.61 70.57zM153 62.853A3.86 3.86 0 0 1 156.853 59h28.294A3.86 3.86 0 0 1 189 62.853v28.294A3.86 3.86 0 0 1 185.147 95h-28.294A3.86 3.86 0 0 1 153 91.147V62.853zm2-.519c0-.737.597-1.334 1.334-1.334h29.332c.737 0 1.334.597 1.334 1.334v29.332c0 .737-.597 1.334-1.334 1.334h-29.332A1.334 1.334 0 0 1 155 91.666V62.334zM235.242 67.592l-9.56 5.52-1.285-2.228 13.361-7.714.643 1.113 7.072 12.248-2.227 1.286-5.52-9.56-5.486 20.473-2.483-.665 5.485-20.473zm-23.44 4.62a3.86 3.86 0 0 1 1.41-5.263l24.504-14.147a3.86 3.86 0 0 1 5.263 1.41l14.147 24.504a3.86 3.86 0 0 1-1.41 5.263l-24.504 14.147a3.86 3.86 0 0 1-5.263-1.41l-14.147-24.504zm1.473-1.449a1.334 1.334 0 0 1 .488-1.822l25.402-14.666a1.334 1.334 0 0 1 1.823.488l14.665 25.402c.369.638.15 1.454-.488 1.823l-25.402 14.665a1.334 1.334 0 0 1-1.822-.488l-14.666-25.402zM285.058 94.113l-10.871 1.917-.447-2.532 15.194-2.68.224 1.267 2.455 13.928-2.532.446-1.917-10.87-12.157 17.361-2.106-1.475 12.157-17.362zm-23.607-3.675a3.86 3.86 0 0 1 3.125-4.463l27.865-4.914a3.86 3.86 0 0 1 4.463 3.126l4.913 27.864a3.86 3.86 0 0 1-3.125 4.464l-27.865 4.913a3.86 3.86 0 0 1-4.463-3.125l-4.913-27.865zm1.88-.858a1.334 1.334 0 0 1 1.082-1.546l28.885-5.093a1.334 1.334 0 0 1 1.546 1.082l5.093 28.886a1.334 1.334 0 0 1-1.082 1.546l-28.886 5.093a1.334 1.334 0 0 1-1.545-1.082L263.33 89.58zM312.058 54.113l-10.871 1.917-.447-2.532 15.194-2.68.224 1.267 2.455 13.928-2.532.446-1.917-10.87-12.157 17.361-2.106-1.475 12.157-17.362zm-23.607-3.675a3.86 3.86 0 0 1 3.125-4.463l27.865-4.914a3.86 3.86 0 0 1 4.463 3.126l4.913 27.864a3.86 3.86 0 0 1-3.125 4.464l-27.865 4.913a3.86 3.86 0 0 1-4.463-3.125l-4.913-27.865zm1.88-.858a1.334 1.334 0 0 1 1.082-1.546l28.885-5.093a1.334 1.334 0 0 1 1.546 1.082l5.093 28.886a1.334 1.334 0 0 1-1.082 1.546l-28.886 5.093a1.334 1.334 0 0 1-1.545-1.082L290.33 49.58zM385.538 65.974l-8.93 6.489-1.512-2.08 12.482-9.07.756 1.04 8.313 11.443-2.08 1.511-6.489-8.93-3.316 20.934-2.54-.402 3.316-20.935zM362.71 73.02a3.86 3.86 0 0 1 .853-5.382l22.89-16.631a3.86 3.86 0 0 1 5.382.852l16.631 22.891a3.86 3.86 0 0 1-.852 5.382l-22.891 16.63a3.86 3.86 0 0 1-5.381-.851L362.709 73.02zm1.314-1.595a1.334 1.334 0 0 1 .295-1.864l23.73-17.24a1.334 1.334 0 0 1 1.863.295l17.24 23.73c.434.595.302 1.43-.294 1.863l-23.73 17.24a1.334 1.334 0 0 1-1.864-.295l-17.24-23.73zM471.854 66.284l-10.085-4.49 1.046-2.35 14.095 6.276-.523 1.174-5.753 12.92-2.349-1.045 4.49-10.085-19.787 7.596-.922-2.4 19.788-7.596zm-17.516-16.248a3.86 3.86 0 0 1 5.086-1.953l25.849 11.509a3.86 3.86 0 0 1 1.952 5.086l-11.508 25.849a3.86 3.86 0 0 1-5.087 1.952l-25.848-11.508a3.86 3.86 0 0 1-1.953-5.087l11.509-25.848zm2.038.34a1.334 1.334 0 0 1 1.761-.677l26.796 11.93c.673.3.976 1.088.676 1.762l-11.93 26.796c-.3.673-1.088.976-1.762.676l-26.795-11.93a1.334 1.334 0 0 1-.677-1.762l11.93-26.795zM521.759 82.178l-11.012-.77.18-2.565 15.39 1.076-.09 1.283-.986 14.108-2.565-.18.77-11.011-15.997 13.905-1.687-1.94 15.997-13.906zm-22.017-9.277a3.86 3.86 0 0 1 4.112-3.575L532.08 71.3a3.86 3.86 0 0 1 3.574 4.112l-1.973 28.226a3.86 3.86 0 0 1-4.112 3.574l-28.226-1.973a3.86 3.86 0 0 1-3.575-4.112l1.974-28.226zm2.031-.378a1.334 1.334 0 0 1 1.424-1.238l29.26 2.046c.735.052 1.29.689 1.238 1.424l-2.046 29.26a1.334 1.334 0 0 1-1.424 1.238l-29.26-2.046a1.334 1.334 0 0 1-1.238-1.424l2.046-29.26zM578.538 86.974l-8.93 6.489-1.512-2.08 12.482-9.07.756 1.04 8.313 11.443-2.08 1.511-6.489-8.93-3.316 20.934-2.54-.402 3.316-20.935zM555.71 94.02a3.86 3.86 0 0 1 .853-5.382l22.89-16.631a3.86 3.86 0 0 1 5.382.852l16.631 22.891a3.86 3.86 0 0 1-.852 5.382l-22.891 16.63a3.86 3.86 0 0 1-5.381-.851L555.709 94.02zm1.314-1.595a1.334 1.334 0 0 1 .295-1.864l23.73-17.24a1.334 1.334 0 0 1 1.863.295l17.24 23.73c.434.595.302 1.43-.294 1.863l-23.73 17.24a1.334 1.334 0 0 1-1.864-.295l-17.24-23.73zM66.922 100.663l-10.373-3.776.879-2.416 14.498 5.277-.44 1.208-4.837 13.29-2.416-.88 3.775-10.373-19.21 8.958-1.086-2.33 19.21-8.958zM48.315 85.676a3.86 3.86 0 0 1 4.938-2.302L79.84 93.05a3.86 3.86 0 0 1 2.303 4.938l-9.678 26.588a3.86 3.86 0 0 1-4.937 2.303l-26.589-9.677a3.86 3.86 0 0 1-2.302-4.938l9.677-26.589zm2.057.197a1.334 1.334 0 0 1 1.71-.797l27.562 10.032a1.334 1.334 0 0 1 .798 1.71L70.41 124.38a1.334 1.334 0 0 1-1.71.798l-27.563-10.032a1.334 1.334 0 0 1-.797-1.71l10.032-27.563zM35.26 133.773l-10.373 3.776-.88-2.417 14.499-5.277.44 1.208 4.837 13.29-2.417.88-3.775-10.373-8.958 19.21-2.33-1.087 8.957-19.21zm-23.886.48a3.86 3.86 0 0 1 2.302-4.938l26.589-9.677a3.86 3.86 0 0 1 4.938 2.302l9.677 26.589a3.86 3.86 0 0 1-2.303 4.937l-26.588 9.678a3.86 3.86 0 0 1-4.938-2.303l-9.677-26.588zm1.702-1.171a1.334 1.334 0 0 1 .797-1.71l27.563-10.032a1.334 1.334 0 0 1 1.71.797L53.178 149.7a1.334 1.334 0 0 1-.798 1.71l-27.562 10.032a1.334 1.334 0 0 1-1.71-.798l-10.032-27.562zM96.61 137.571H85.571V135H101v15.429h-2.571v-11.04L83.44 154.378l-1.818-1.818L96.61 137.57zM74 129.853A3.86 3.86 0 0 1 77.853 126h28.294a3.86 3.86 0 0 1 3.853 3.853v28.294a3.86 3.86 0 0 1-3.853 3.853H77.853A3.86 3.86 0 0 1 74 158.147v-28.294zm2-.519c0-.737.597-1.334 1.334-1.334h29.332c.737 0 1.334.597 1.334 1.334v29.332c0 .737-.597 1.334-1.334 1.334H77.334A1.334 1.334 0 0 1 76 158.666v-29.332zM149.922 122.663l-10.373-3.776.879-2.416 14.498 5.277-.44 1.208-4.837 13.29-2.416-.88 3.775-10.373-19.21 8.958-1.086-2.33 19.21-8.958zm-18.607-14.987a3.86 3.86 0 0 1 4.938-2.302l26.588 9.677a3.86 3.86 0 0 1 2.303 4.938l-9.678 26.588a3.86 3.86 0 0 1-4.937 2.303l-26.589-9.677a3.86 3.86 0 0 1-2.302-4.938l9.677-26.589zm2.057.197a1.334 1.334 0 0 1 1.71-.797l27.562 10.032a1.334 1.334 0 0 1 .798 1.71L153.41 146.38a1.334 1.334 0 0 1-1.71.798l-27.563-10.032a1.334 1.334 0 0 1-.797-1.71l10.032-27.563zM203.922 114.663l-10.373-3.776.879-2.416 14.498 5.277-.44 1.208-4.837 13.29-2.416-.88 3.775-10.373-19.21 8.958-1.086-2.33 19.21-8.958zm-18.607-14.987a3.86 3.86 0 0 1 4.938-2.302l26.588 9.677a3.86 3.86 0 0 1 2.303 4.938l-9.678 26.588a3.86 3.86 0 0 1-4.937 2.303l-26.589-9.677a3.86 3.86 0 0 1-2.302-4.938l9.677-26.589zm2.057.197a1.334 1.334 0 0 1 1.71-.797l27.562 10.032a1.334 1.334 0 0 1 .798 1.71L207.41 138.38a1.334 1.334 0 0 1-1.71.798l-27.563-10.032a1.334 1.334 0 0 1-.797-1.71l10.032-27.563z"/><path d="M195.242 152.592l-9.56 5.52-1.285-2.228 13.361-7.714.643 1.113 7.072 12.248-2.227 1.286-5.52-9.56-5.486 20.473-2.483-.665 5.485-20.473zm-23.44 4.62a3.86 3.86 0 0 1 1.41-5.263l24.504-14.147a3.86 3.86 0 0 1 5.263 1.41l14.147 24.504a3.86 3.86 0 0 1-1.41 5.263l-24.504 14.147a3.86 3.86 0 0 1-5.263-1.41l-14.147-24.504zm1.473-1.449a1.334 1.334 0 0 1 .488-1.822l25.402-14.666a1.334 1.334 0 0 1 1.823.488l14.665 25.402c.369.638.15 1.454-.488 1.823l-25.402 14.665a1.334 1.334 0 0 1-1.822-.488l-14.666-25.402zM255.242 134.592l-9.56 5.52-1.285-2.228 13.361-7.714.643 1.113 7.072 12.248-2.227 1.286-5.52-9.56-5.486 20.473-2.483-.665 5.485-20.473zm-23.44 4.62a3.86 3.86 0 0 1 1.41-5.263l24.504-14.147a3.86 3.86 0 0 1 5.263 1.41l14.147 24.504a3.86 3.86 0 0 1-1.41 5.263l-24.504 14.147a3.86 3.86 0 0 1-5.263-1.41l-14.147-24.504zm1.473-1.449a1.334 1.334 0 0 1 .488-1.822l25.402-14.666a1.334 1.334 0 0 1 1.823.488l14.665 25.402c.369.638.15 1.454-.488 1.823l-25.402 14.665a1.334 1.334 0 0 1-1.822-.488l-14.666-25.402zM311.395 145.035l-7.096-8.456 1.97-1.653 9.917 11.819-.984.826-10.835 9.09-1.652-1.969 8.456-7.096-21.115-1.847.224-2.561 21.115 1.847zm-8.62-22.282a3.86 3.86 0 0 1 5.427.475l18.188 21.675a3.86 3.86 0 0 1-.475 5.427l-21.675 18.188a3.86 3.86 0 0 1-5.428-.475l-18.188-21.675a3.86 3.86 0 0 1 .475-5.428l21.675-18.187zm1.682 1.199a1.334 1.334 0 0 1 1.88.164l18.854 22.47c.473.564.4 1.405-.165 1.88l-22.469 18.853c-.565.474-1.406.4-1.88-.164l-18.854-22.47a1.334 1.334 0 0 1 .165-1.88l22.469-18.853zM337.674 91.843l-7.095 8.456-1.97-1.653 9.917-11.819.985.827 10.834 9.09-1.653 1.97-8.456-7.095 1.847 21.115-2.562.224-1.847-21.115zm-20.446 12.359a3.86 3.86 0 0 1-.475-5.428L334.94 77.1a3.86 3.86 0 0 1 5.428-.475l21.675 18.188a3.86 3.86 0 0 1 .475 5.428l-18.188 21.675a3.86 3.86 0 0 1-5.427.475l-21.675-18.188zm.888-1.865a1.334 1.334 0 0 1-.164-1.88l18.854-22.47a1.334 1.334 0 0 1 1.88-.164l22.469 18.854c.564.474.638 1.315.164 1.88l-18.854 22.47a1.334 1.334 0 0 1-1.88.164l-22.469-18.854zM383.854 128.284l-10.085-4.49 1.046-2.35 14.095 6.276-.523 1.174-5.753 12.92-2.349-1.045 4.49-10.085-19.787 7.596-.922-2.4 19.788-7.596zm-17.516-16.248a3.86 3.86 0 0 1 5.086-1.953l25.849 11.509a3.86 3.86 0 0 1 1.952 5.086l-11.508 25.849a3.86 3.86 0 0 1-5.087 1.952l-25.848-11.508a3.86 3.86 0 0 1-1.953-5.087l11.509-25.848zm2.038.34a1.334 1.334 0 0 1 1.761-.677l26.796 11.93c.673.3.976 1.088.676 1.762l-11.93 26.796c-.3.673-1.088.976-1.762.676l-26.795-11.93a1.334 1.334 0 0 1-.677-1.762l11.93-26.795zM434.854 104.284l-10.085-4.49 1.046-2.35 14.095 6.276-.523 1.174-5.753 12.92-2.349-1.045 4.49-10.085-19.787 7.596-.922-2.4 19.788-7.596zm-17.516-16.248a3.86 3.86 0 0 1 5.086-1.953l25.849 11.509a3.86 3.86 0 0 1 1.952 5.086l-11.508 25.849a3.86 3.86 0 0 1-5.087 1.952l-25.848-11.508a3.86 3.86 0 0 1-1.953-5.087l11.509-25.848zm2.038.34a1.334 1.334 0 0 1 1.761-.677l26.796 11.93c.673.3.976 1.088.676 1.762l-11.93 26.796c-.3.673-1.088.976-1.762.676l-26.795-11.93a1.334 1.334 0 0 1-.677-1.762l11.93-26.795zM424.957 161.674l-4.839-9.921 2.311-1.128 6.764 13.867-1.156.564-12.711 6.2-1.128-2.311 9.922-4.84-20.04-6.9.837-2.431 20.04 6.9zm-2.974-23.705a3.86 3.86 0 0 1 5.152 1.773l12.403 25.432a3.86 3.86 0 0 1-1.773 5.151l-25.432 12.404a3.86 3.86 0 0 1-5.151-1.774l-12.404-25.431a3.86 3.86 0 0 1 1.774-5.152l25.431-12.403zm1.343 1.57a1.334 1.334 0 0 1 1.784.614l12.858 26.363c.323.663.049 1.461-.614 1.784l-26.363 12.858a1.334 1.334 0 0 1-1.784-.614l-12.858-26.363a1.334 1.334 0 0 1 .614-1.784l26.363-12.858zM478.538 117.974l-8.93 6.489-1.512-2.08 12.482-9.07.756 1.04 8.313 11.443-2.08 1.511-6.489-8.93-3.316 20.934-2.54-.402 3.316-20.935zm-22.829 7.046a3.86 3.86 0 0 1 .853-5.382l22.89-16.631a3.86 3.86 0 0 1 5.382.852l16.631 22.891a3.86 3.86 0 0 1-.852 5.382l-22.891 16.63a3.86 3.86 0 0 1-5.381-.851l-16.632-22.891zm1.314-1.595a1.334 1.334 0 0 1 .295-1.864l23.73-17.24a1.334 1.334 0 0 1 1.863.295l17.24 23.73c.434.595.302 1.43-.294 1.863l-23.73 17.24a1.334 1.334 0 0 1-1.864-.295l-17.24-23.73zM538.538 126.974l-8.93 6.489-1.512-2.08 12.482-9.07.756 1.04 8.313 11.443-2.08 1.511-6.489-8.93-3.316 20.934-2.54-.402 3.316-20.935zm-22.829 7.046a3.86 3.86 0 0 1 .853-5.382l22.89-16.631a3.86 3.86 0 0 1 5.382.852l16.631 22.891a3.86 3.86 0 0 1-.852 5.382l-22.891 16.63a3.86 3.86 0 0 1-5.381-.851l-16.632-22.891zm1.314-1.595a1.334 1.334 0 0 1 .295-1.864l23.73-17.24a1.334 1.334 0 0 1 1.863.295l17.24 23.73c.434.595.302 1.43-.294 1.863l-23.73 17.24a1.334 1.334 0 0 1-1.864-.295l-17.24-23.73z"/></g></svg>