<svg xmlns="http://www.w3.org/2000/svg" viewBox="0 0 605 180"><title>phone</title><g fill-rule="evenodd"><path d="M25.346 13.547a3.08 3.08 0 0 1 1.126-4.212l11.984-6.919a3.088 3.088 0 0 1 4.21 1.131l14.916 25.834a3.08 3.08 0 0 1-1.126 4.212l-11.984 6.919a3.088 3.088 0 0 1-4.21-1.131L25.345 13.547zm2.69.659l13.856-8 13 22.516-13.856 8-13-22.516zM49.464 35.32a1 1 0 1 0-1-1.733 1 1 0 0 0 1 1.733zM31.116 9.54a.5.5 0 0 1 .175-.679l4.346-2.509a.5.5 0 0 1 .5.866l-4.346 2.51a.5.5 0 0 1-.675-.188zM70.987 38.209a3.08 3.08 0 0 1 3.57-2.503l13.627 2.403a3.088 3.088 0 0 1 2.499 3.573l-5.18 29.377a3.08 3.08 0 0 1-3.57 2.503l-13.628-2.403a3.088 3.088 0 0 1-2.498-3.573l5.18-29.377zm1.637 2.233l15.757 2.779-4.515 25.605-15.757-2.779 4.515-25.605zm2.842 29.949a1 1 0 1 0 .348-1.97 1 1 0 0 0-.348 1.97zm2.516-31.543a.5.5 0 0 1 .57-.407l4.942.872a.5.5 0 0 1-.174.985l-4.942-.872a.5.5 0 0 1-.396-.578zM115.346 22.547a3.08 3.08 0 0 1 1.126-4.212l11.984-6.919a3.088 3.088 0 0 1 4.21 1.131l14.916 25.834a3.08 3.08 0 0 1-1.126 4.212l-11.984 6.919a3.088 3.088 0 0 1-4.21-1.131l-14.916-25.834zm2.69.659l13.856-8 13 22.516-13.856 8-13-22.516zm21.428 21.115a1 1 0 1 0-1-1.733 1 1 0 0 0 1 1.733zm-18.348-25.78a.5.5 0 0 1 .175-.679l4.346-2.509a.5.5 0 0 1 .5.866l-4.346 2.51a.5.5 0 0 1-.675-.188zM194.095 17.691a3.08 3.08 0 0 1 3.95-1.845l13.004 4.733c1.599.582 2.42 2.359 1.84 3.952l-10.203 28.032a3.08 3.08 0 0 1-3.95 1.845l-13.003-4.733a3.088 3.088 0 0 1-1.84-3.953l10.202-28.031zm1.224 2.484l15.035 5.472-8.892 24.432-15.035-5.472 8.892-24.432zm-2.4 29.987a1 1 0 1 0 .683-1.88 1 1 0 0 0-.684 1.88zm7.954-30.626a.5.5 0 0 1 .632-.302l4.716 1.716a.5.5 0 0 1-.342.94l-4.716-1.717a.5.5 0 0 1-.29-.637zM246.346 19.547a3.08 3.08 0 0 1 1.126-4.212l11.984-6.919a3.088 3.088 0 0 1 4.21 1.131l14.916 25.834a3.08 3.08 0 0 1-1.126 4.212l-11.984 6.919a3.088 3.088 0 0 1-4.21-1.131l-14.916-25.834zm2.69.659l13.856-8 13 22.516-13.856 8-13-22.516zm21.428 21.115a1 1 0 1 0-1-1.733 1 1 0 0 0 1 1.733zm-18.348-25.78a.5.5 0 0 1 .175-.679l4.346-2.509a.5.5 0 0 1 .5.866l-4.346 2.51a.5.5 0 0 1-.675-.188zM354.479 18.554a3.08 3.08 0 0 1 4.23-1.058l11.86 7.127a3.088 3.088 0 0 1 1.053 4.231l-15.364 25.57a3.08 3.08 0 0 1-4.23 1.057l-11.86-7.127a3.088 3.088 0 0 1-1.053-4.23l15.364-25.57zm.728 2.671l13.714 8.241-13.39 22.286-13.715-8.24 13.39-22.287zm-8.08 28.978a1 1 0 1 0 1.031-1.714 1 1 0 0 0-1.03 1.714zm13.653-28.545a.5.5 0 0 1 .678-.176l4.302 2.584a.5.5 0 0 1-.515.857l-4.302-2.584a.5.5 0 0 1-.163-.681zM410.98 31.734a3.08 3.08 0 0 1-.078-4.36l9.612-9.954a3.088 3.088 0 0 1 4.36-.073l21.458 20.722a3.08 3.08 0 0 1 .078 4.36l-9.612 9.953a3.088 3.088 0 0 1-4.36.074L410.98 31.734zm2.767-.109l11.115-11.509 18.703 18.061-11.115 11.51-18.703-18.062zm26.418 14.39a1 1 0 1 0-1.438-1.389 1 1 0 0 0 1.438 1.39zm-24.743-19.723a.5.5 0 0 1-.018-.7l3.485-3.61a.5.5 0 0 1 .72.695l-3.486 3.61a.5.5 0 0 1-.7.005zM491.73 19.696a3.08 3.08 0 0 1 .68-4.307l11.195-8.133c1.376-1 3.309-.687 4.306.685l17.533 24.133a3.08 3.08 0 0 1-.68 4.306l-11.194 8.134c-1.377 1-3.31.687-4.306-.685L491.73 19.696zm2.744.374l12.944-9.405L522.701 31.7l-12.945 9.404-15.282-21.034zm23.518 18.76a1 1 0 1 0-1.176-1.619 1 1 0 0 0 1.176 1.618zm-20.943-23.721a.5.5 0 0 1 .104-.694l4.06-2.95a.5.5 0 0 1 .588.809l-4.06 2.95a.5.5 0 0 1-.692-.115zM554.13 32.596a3.08 3.08 0 0 1 4.279-.835L569.88 39.5a3.088 3.088 0 0 1 .83 4.28L554.028 68.51a3.08 3.08 0 0 1-4.28.835l-11.471-7.738a3.088 3.088 0 0 1-.83-4.28l16.681-24.731zm.587 2.706l13.264 8.947-14.539 21.555-13.264-8.947 14.539-21.555zm-9.585 28.516a1 1 0 1 0 1.119-1.659 1 1 0 0 0-1.119 1.659zm15.128-27.793a.5.5 0 0 1 .686-.14l4.16 2.806a.5.5 0 0 1-.56.829l-4.159-2.806a.5.5 0 0 1-.127-.689zM18.095 58.691a3.08 3.08 0 0 1 3.95-1.845l13.004 4.733c1.599.582 2.42 2.359 1.84 3.952L26.686 93.563a3.08 3.08 0 0 1-3.95 1.845L9.733 90.675a3.088 3.088 0 0 1-1.84-3.953l10.202-28.031zm1.224 2.484l15.035 5.472-8.892 24.432-15.035-5.472 8.892-24.432zm-2.4 29.987a1 1 0 1 0 .683-1.88 1 1 0 0 0-.684 1.88zm7.954-30.626a.5.5 0 0 1 .632-.302l4.716 1.716a.5.5 0 0 1-.342.94l-4.716-1.717a.5.5 0 0 1-.29-.637zM105.346 77.547a3.08 3.08 0 0 1 1.126-4.212l11.984-6.919a3.088 3.088 0 0 1 4.21 1.131l14.916 25.834a3.08 3.08 0 0 1-1.126 4.212l-11.984 6.919a3.088 3.088 0 0 1-4.21-1.131l-14.916-25.834zm2.69.659l13.856-8 13 22.516-13.856 8-13-22.516zm21.428 21.115a1 1 0 1 0-1-1.733 1 1 0 0 0 1 1.733zm-18.348-25.78a.5.5 0 0 1 .175-.679l4.346-2.509a.5.5 0 0 1 .5.866l-4.346 2.51a.5.5 0 0 1-.675-.188zM161 62.085A3.08 3.08 0 0 1 164.081 59h13.838A3.088 3.088 0 0 1 181 62.085v29.83A3.08 3.08 0 0 1 177.919 95H164.08A3.088 3.088 0 0 1 161 91.915v-29.83zM163 64h16v26h-16V64zm8 29a1 1 0 1 0 0-2 1 1 0 0 0 0 2zm-3-31.5a.5.5 0 0 1 .491-.5h5.018a.5.5 0 0 1 0 1h-5.018a.5.5 0 0 1-.491-.5zM218.346 67.547a3.08 3.08 0 0 1 1.126-4.212l11.984-6.919a3.088 3.088 0 0 1 4.21 1.131l14.916 25.834a3.08 3.08 0 0 1-1.126 4.212l-11.984 6.919a3.088 3.088 0 0 1-4.21-1.131l-14.916-25.834zm2.69.659l13.856-8 13 22.516-13.856 8-13-22.516zm21.428 21.115a1 1 0 1 0-1-1.733 1 1 0 0 0 1 1.733zm-18.348-25.78a.5.5 0 0 1 .175-.679l4.346-2.509a.5.5 0 0 1 .5.866l-4.346 2.51a.5.5 0 0 1-.675-.188zM269.196 88.293a3.08 3.08 0 0 1 2.498-3.573l13.628-2.403a3.088 3.088 0 0 1 3.57 2.503l5.18 29.377a3.08 3.08 0 0 1-2.499 3.573l-13.627 2.403a3.088 3.088 0 0 1-3.57-2.503l-5.18-29.377zm2.302 1.538l15.757-2.778 4.515 25.605-15.757 2.778-4.515-25.605zm12.914 27.17a1 1 0 1 0-.347-1.97 1 1 0 0 0 .347 1.97zm-8.424-30.5a.5.5 0 0 1 .397-.578l4.941-.871a.5.5 0 0 1 .174.985l-4.942.871a.5.5 0 0 1-.57-.407zM296.196 48.293a3.08 3.08 0 0 1 2.498-3.573l13.628-2.403a3.088 3.088 0 0 1 3.57 2.503l5.18 29.377a3.08 3.08 0 0 1-2.499 3.573l-13.627 2.403a3.088 3.088 0 0 1-3.57-2.503l-5.18-29.377zm2.302 1.538l15.757-2.778 4.515 25.605-15.757 2.778-4.515-25.605zm12.914 27.17a1 1 0 1 0-.347-1.97 1 1 0 0 0 .347 1.97zm-8.424-30.5a.5.5 0 0 1 .397-.578l4.941-.871a.5.5 0 0 1 .174.985l-4.942.871a.5.5 0 0 1-.57-.407zM368.73 67.696a3.08 3.08 0 0 1 .68-4.307l11.195-8.133c1.376-1 3.309-.687 4.306.685l17.533 24.133a3.08 3.08 0 0 1-.68 4.306l-11.194 8.134c-1.377 1-3.31.687-4.306-.685L368.73 67.696zm2.744.374l12.944-9.405L399.701 79.7l-12.945 9.404-15.282-21.034zm23.518 18.76a1 1 0 1 0-1.176-1.619 1 1 0 0 0 1.176 1.618zm-20.943-23.721a.5.5 0 0 1 .104-.694l4.06-2.95a.5.5 0 0 1 .588.809l-4.06 2.95a.5.5 0 0 1-.692-.115zM461.958 52.588a3.08 3.08 0 0 1 4.07-1.565l12.641 5.628a3.088 3.088 0 0 1 1.56 4.072l-12.133 27.251a3.08 3.08 0 0 1-4.07 1.565l-12.64-5.628a3.088 3.088 0 0 1-1.56-4.072l12.132-27.25zm1.048 2.563l14.617 6.508-10.575 23.752-14.617-6.508 10.575-23.752zm-4.487 29.747a1 1 0 1 0 .814-1.827 1 1 0 0 0-.814 1.827zM468.591 54.9a.5.5 0 0 1 .652-.257l4.584 2.04a.5.5 0 0 1-.407.914l-4.584-2.04a.5.5 0 0 1-.245-.657zM507.776 72.693a3.08 3.08 0 0 1 3.289-2.863l13.804.966a3.088 3.088 0 0 1 2.858 3.292l-2.08 29.758a3.08 3.08 0 0 1-3.29 2.862l-13.803-.965a3.088 3.088 0 0 1-2.859-3.293l2.081-29.757zm1.862 2.05l15.96 1.116-1.813 25.937-15.961-1.116 1.814-25.937zm5.957 29.487a1 1 0 1 0 .14-1.995 1 1 0 0 0-.14 1.995zm-.795-31.632a.5.5 0 0 1 .524-.465l5.006.35a.5.5 0 0 1-.07.998l-5.005-.35a.5.5 0 0 1-.455-.533zM561.73 88.696a3.08 3.08 0 0 1 .68-4.307l11.195-8.133c1.376-1 3.309-.687 4.306.685l17.533 24.133a3.08 3.08 0 0 1-.68 4.306l-11.194 8.134c-1.377 1-3.31.687-4.306-.685L561.73 88.696zm2.744.374l12.944-9.405 15.283 21.035-12.945 9.404-15.282-21.034zm23.518 18.76a1 1 0 1 0-1.176-1.619 1 1 0 0 0 1.176 1.618zm-20.943-23.721a.5.5 0 0 1 .104-.694l4.06-2.95a.5.5 0 0 1 .588.809l-4.06 2.95a.5.5 0 0 1-.692-.115zM56.095 87.691a3.08 3.08 0 0 1 3.95-1.845l13.004 4.733c1.599.582 2.42 2.359 1.84 3.952l-10.203 28.032a3.08 3.08 0 0 1-3.95 1.845l-13.003-4.733a3.088 3.088 0 0 1-1.84-3.953l10.202-28.031zm1.224 2.484l15.035 5.472-8.892 24.432-15.035-5.472 8.892-24.432zm-2.4 29.987a1 1 0 1 0 .683-1.88 1 1 0 0 0-.684 1.88zm7.954-30.626a.5.5 0 0 1 .632-.302l4.716 1.716a.5.5 0 0 1-.342.94l-4.716-1.717a.5.5 0 0 1-.29-.637zM18.629 130.795a3.08 3.08 0 0 1 1.84-3.952l13.003-4.733c1.6-.582 3.37.251 3.95 1.845l10.203 28.031a3.08 3.08 0 0 1-1.84 3.953l-13.003 4.733a3.088 3.088 0 0 1-3.95-1.846l-10.203-28.03zm2.534 1.116l15.035-5.472 8.893 24.432-15.035 5.472-8.893-24.432zm17.436 24.515a1 1 0 1 0-.684-1.88 1 1 0 0 0 .684 1.88zm-13.593-28.574a.5.5 0 0 1 .29-.638l4.716-1.717a.5.5 0 0 1 .342.94l-4.715 1.716a.5.5 0 0 1-.633-.301zM82 129.085A3.08 3.08 0 0 1 85.081 126H98.92a3.088 3.088 0 0 1 3.081 3.085v29.83A3.08 3.08 0 0 1 98.919 162H85.08A3.088 3.088 0 0 1 82 158.915v-29.83zM84 131h16v26H84v-26zm8 29a1 1 0 1 0 0-2 1 1 0 0 0 0 2zm-3-31.5a.5.5 0 0 1 .491-.5h5.018a.5.5 0 0 1 0 1h-5.018a.5.5 0 0 1-.491-.5zM139.095 109.691a3.08 3.08 0 0 1 3.95-1.845l13.004 4.733c1.599.582 2.42 2.359 1.84 3.952l-10.203 28.032a3.08 3.08 0 0 1-3.95 1.845l-13.003-4.733a3.088 3.088 0 0 1-1.84-3.953l10.202-28.031zm1.224 2.484l15.035 5.472-8.892 24.432-15.035-5.472 8.892-24.432zm-2.4 29.987a1 1 0 1 0 .683-1.88 1 1 0 0 0-.684 1.88zm7.954-30.626a.5.5 0 0 1 .632-.302l4.716 1.716a.5.5 0 0 1-.342.94l-4.716-1.717a.5.5 0 0 1-.29-.637zM193.095 101.691a3.08 3.08 0 0 1 3.95-1.845l13.004 4.733c1.599.582 2.42 2.359 1.84 3.952l-10.203 28.032a3.08 3.08 0 0 1-3.95 1.845l-13.003-4.733a3.088 3.088 0 0 1-1.84-3.953l10.202-28.031zm1.224 2.484l15.035 5.472-8.892 24.432-15.035-5.472 8.892-24.432zm-2.4 29.987a1 1 0 1 0 .683-1.88 1 1 0 0 0-.684 1.88zm7.954-30.626a.5.5 0 0 1 .632-.302l4.716 1.716a.5.5 0 0 1-.342.94l-4.716-1.717a.5.5 0 0 1-.29-.637zM178.346 152.547a3.08 3.08 0 0 1 1.126-4.212l11.984-6.919a3.088 3.088 0 0 1 4.21 1.131l14.916 25.834a3.08 3.08 0 0 1-1.126 4.212l-11.984 6.919a3.088 3.088 0 0 1-4.21-1.131l-14.916-25.834zm2.69.659l13.856-8 13 22.516-13.856 8-13-22.516zm21.428 21.115a1 1 0 1 0-1-1.733 1 1 0 0 0 1 1.733zm-18.348-25.78a.5.5 0 0 1 .175-.679l4.346-2.509a.5.5 0 0 1 .5.866l-4.346 2.51a.5.5 0 0 1-.675-.188zM238.346 134.547a3.08 3.08 0 0 1 1.126-4.212l11.984-6.919a3.088 3.088 0 0 1 4.21 1.131l14.916 25.834a3.08 3.08 0 0 1-1.126 4.212l-11.984 6.919a3.088 3.088 0 0 1-4.21-1.131l-14.916-25.834zm2.69.659l13.856-8 13 22.516-13.856 8-13-22.516zm21.428 21.115a1 1 0 1 0-1-1.733 1 1 0 0 0 1 1.733zm-18.348-25.78a.5.5 0 0 1 .175-.679l4.346-2.509a.5.5 0 0 1 .5.866l-4.346 2.51a.5.5 0 0 1-.675-.188zM308.505 128.388a3.08 3.08 0 0 1 4.343.377l8.895 10.6a3.088 3.088 0 0 1-.383 4.344l-22.85 19.174a3.08 3.08 0 0 1-4.344-.377l-8.895-10.6a3.088 3.088 0 0 1 .382-4.344l22.852-19.174zm-.182 2.763l10.285 12.256-19.917 16.713-10.285-12.257 19.917-16.712zM291.25 155.92a1 1 0 1 0 1.532-1.286 1 1 0 0 0-1.532 1.286zm22.202-22.546a.5.5 0 0 1 .699.055l3.225 3.844a.5.5 0 0 1-.766.643l-3.225-3.844a.5.5 0 0 1 .067-.698zM321.782 97.58a3.08 3.08 0 0 1-.383-4.343l8.895-10.6a3.088 3.088 0 0 1 4.344-.378l22.85 19.175a3.08 3.08 0 0 1 .383 4.343l-8.894 10.6a3.088 3.088 0 0 1-4.344.378L321.782 97.58zm2.752-.3l10.285-12.258 19.917 16.713-10.284 12.257-19.918-16.713zm27.358 12.512a1 1 0 1 0-1.532-1.286 1 1 0 0 0 1.532 1.286zm-26.059-17.95a.5.5 0 0 1-.067-.698l3.225-3.844a.5.5 0 0 1 .766.643l-3.225 3.844a.5.5 0 0 1-.699.055zM373.958 114.588a3.08 3.08 0 0 1 4.07-1.565l12.641 5.628a3.088 3.088 0 0 1 1.56 4.072l-12.133 27.251a3.08 3.08 0 0 1-4.07 1.565l-12.64-5.628a3.088 3.088 0 0 1-1.56-4.072l12.132-27.25zm1.048 2.563l14.617 6.508-10.575 23.752-14.617-6.508 10.575-23.752zm-4.487 29.747a1 1 0 1 0 .814-1.827 1 1 0 0 0-.814 1.827zm10.072-29.997a.5.5 0 0 1 .652-.257l4.584 2.04a.5.5 0 0 1-.407.914l-4.584-2.04a.5.5 0 0 1-.245-.657zM424.958 90.588a3.08 3.08 0 0 1 4.07-1.565l12.641 5.628a3.088 3.088 0 0 1 1.56 4.072l-12.133 27.251a3.08 3.08 0 0 1-4.07 1.565l-12.64-5.628a3.088 3.088 0 0 1-1.56-4.072l12.132-27.25zm1.048 2.563l14.617 6.508-10.575 23.752-14.617-6.508 10.575-23.752zm-4.487 29.747a1 1 0 1 0 .814-1.827 1 1 0 0 0-.814 1.827zM431.591 92.9a.5.5 0 0 1 .652-.257l4.584 2.04a.5.5 0 0 1-.407.914l-4.584-2.04a.5.5 0 0 1-.245-.657zM426.18 144.822a3.08 3.08 0 0 1 4.124 1.417l6.066 12.438a3.088 3.088 0 0 1-1.422 4.121l-26.812 13.077a3.08 3.08 0 0 1-4.123-1.417l-6.066-12.437a3.088 3.088 0 0 1 1.422-4.122l26.811-13.077zm-.844 2.637l7.014 14.381-23.369 11.398-7.014-14.38 23.369-11.399zm-22.558 19.904a1 1 0 1 0 1.797-.877 1 1 0 0 0-1.797.877zm26.997-16.505a.5.5 0 0 1 .664.222l2.2 4.51a.5.5 0 0 1-.899.438l-2.2-4.51a.5.5 0 0 1 .235-.66zM461.73 119.696a3.08 3.08 0 0 1 .68-4.307l11.195-8.133c1.376-1 3.309-.687 4.306.685l17.533 24.133a3.08 3.08 0 0 1-.68 4.306l-11.194 8.134c-1.377 1-3.31.687-4.306-.685l-17.534-24.133zm2.744.374l12.944-9.405 15.283 21.035-12.945 9.404-15.282-21.034zm23.518 18.76a1 1 0 1 0-1.176-1.619 1 1 0 0 0 1.176 1.618zm-20.943-23.721a.5.5 0 0 1 .104-.694l4.06-2.95a.5.5 0 0 1 .588.809l-4.06 2.95a.5.5 0 0 1-.692-.115zM521.73 128.696a3.08 3.08 0 0 1 .68-4.307l11.195-8.133c1.376-1 3.309-.687 4.306.685l17.533 24.133a3.08 3.08 0 0 1-.68 4.306l-11.194 8.134c-1.377 1-3.31.687-4.306-.685l-17.534-24.133zm2.744.374l12.944-9.405 15.283 21.035-12.945 9.404-15.282-21.034zm23.518 18.76a1 1 0 1 0-1.176-1.619 1 1 0 0 0 1.176 1.618zm-20.943-23.721a.5.5 0 0 1 .104-.694l4.06-2.95a.5.5 0 0 1 .588.809l-4.06 2.95a.5.5 0 0 1-.692-.115z"/></g></svg>