<svg xmlns="http://www.w3.org/2000/svg" viewBox="0 0 605 180"><title>rails</title><g fill-rule="evenodd"><path d="M42.372 17.824l.005-.014zm12.275-.181l.84 1.455 2.575-1.486c.527-.304 1.205-1.221.6-2.341l-.324-.563a1.696 1.696 0 0 0-2.328-.65l-1.284.74-.39-.675 2.543-1.468-.845-1.464-2.44 1.41c-.63.363-1.166 1.38-.595 2.37l.292.506c.571.989 1.699 1.014 2.336.646 1.776-1.015-.425.245 1.213-.7l.408.707-2.601 1.513zm-13.998 7.61s1.308-.916.26-2.734c-1.05-1.817-2.817-1.022-2.817-1.022l-3.007 1.736 3.31 5.734 1.512-.873-.799-1.383 2.106.628 2.236-1.29-2.8-.796zm-1.26-.838l-1.205.695-.757-1.31 1.213-.7s.413-.067.714.456c.302.522.035.859.035.859zm4.127-5.996l-1.535.886c-1.094.632-.88 1.859-.6 2.341l2.423 4.198 1.535-.886-.58-1.006 1.44-.832.58 1.006 1.489-.86-2.424-4.197c-.706-1.222-1.95-.869-2.328-.65zm1.746 3.077l-1.449.836-.803-1.39s-.181-.314.299-.592l.527-.304c.426-.246.614.063.614.063l.804 1.392.008-.005zm.42-4.327l1.598-.923 3.287 5.693-1.599.923-3.287-5.693zm6.279 2.003l-2.438-4.222-1.59.919 2.438 4.221.85 1.472 1.59-.918 2.149-1.241-.85-1.472-2.15 1.241zM28.908 34.444l6.22-3.591s-4.388-4.854-1.747-9.37c.612-.922 2.425-4.092 8.847-3.296.072-.203.15-.376.15-.376S35.874 16 31.585 19.099c-2.178 1.536-3.766 5.294-3.794 9.064-.029 3.769 1.117 6.28 1.117 6.28zm7.244-17.381l-.28-.557c-.094 0-.346.018-.926.16l.275.548c.31-.061.618-.11.93-.151zm.236 2.136l.261.525c.265-.142.543-.26.835-.353l-.256-.517a6.31 6.31 0 0 0-.84.345zm-4.361-.827l.078-.045-.44-.4c-.245.141-.487.303-.728.485l.423.388c.215-.156.438-.296.667-.428zm2.086 2.741l.501.45c.164-.244.336-.472.523-.676l-.48-.43a6.507 6.507 0 0 0-.544.656zm-4.795-.05l-.675-.351a14.37 14.37 0 0 0-.415.7l.688.354c.13-.247.257-.481.402-.704zm3.703 2.686l.712.36c.018-.277.068-.553.135-.838l-.67-.343a5.097 5.097 0 0 0-.177.821zm.353 3.249l.935.146a7.56 7.56 0 0 1-.378-1.036l-.831-.131c.07.356.17.695.274 1.02zm-5.653-1.83l-.847-.175c-.089.319-.17.634-.235.94l.913.18c.04-.313.096-.634.169-.944zm-.303 4.968l-1.1.185c.05.432.117.93.163 1.192l1.1-.185a32.758 32.758 0 0 1-.163-1.192zm7.017-1.028c.262.417.501.74.68.959l1.144-.2a12.51 12.51 0 0 1-.792-.936l-1.032.177zM81.28 52.43l.012-.009zm9.52 7.75l-.292 1.656 2.927.516c.6.106 1.709-.161 1.965-1.408l.113-.64a1.696 1.696 0 0 0-1.365-1.994l-1.46-.257.136-.769 2.892.51.293-1.664-2.775-.49c-.716-.126-1.78.309-1.979 1.434l-.102.576c-.198 1.125.65 1.868 1.375 1.996 2.012.364-.484-.085 1.378.243l-.142.805-2.964-.514zm-15.615-3.168s1.591.14 1.955-1.927c.365-2.067-1.5-2.594-1.5-2.594l-3.42-.603-1.149 6.52 1.72.303.276-1.572 1.21 1.835 2.542.448-1.634-2.41zm-.427-1.452l-1.37-.241.263-1.49 1.379.242s.359.215.254.809c-.105.594-.526.68-.526.68zm7.016-1.94l-1.745-.308c-1.245-.22-1.869.859-1.966 1.407l-.841 4.774 1.745.308.202-1.143 1.638.289-.201 1.143 1.692.298.842-4.774c.245-1.39-.936-1.918-1.366-1.994zm-.64 3.48l-1.648-.291.279-1.582s.063-.357.609-.26l.6.105c.483.085.43.444.43.444l-.28 1.582.01.001zm3.102-3.046l1.818.32-1.142 6.475-1.817-.32 1.141-6.475zm3.523 5.571l.846-4.8-1.808-.32-.847 4.801-.295 1.674 1.809.319 2.444.43.295-1.673-2.444-.43zm-27.476-3.119l7.073 1.247s-.241-6.539 4.685-8.3c1.061-.313 4.487-1.576 8.895 3.161.186-.109.357-.192.357-.192s-3.818-5.567-9.096-5.95c-2.656-.223-6.288 1.635-8.733 4.504-2.444 2.87-3.181 5.53-3.181 5.53zm16.721-8.659l.144-.606c-.072-.06-.277-.209-.812-.473l-.142.597c.278.153.545.313.81.482zm-1.192 1.79l-.138.569c.294.061.583.15.867.266l.136-.56a6.31 6.31 0 0 0-.865-.276zm-2.81-3.438l.09.016-.08-.59a7.104 7.104 0 0 0-.87-.096l.075.57c.265.018.526.054.785.1zm-.163 3.441l.094.667c.283-.082.562-.146.836-.182l-.09-.639c-.321.038-.599.093-.84.154zm-3.64-3.122l-.292-.702c-.245.08-.5.167-.768.27l.299.713c.259-.105.507-.203.76-.28zm1.109 4.439l.314.734c.192-.202.408-.38.642-.556l-.293-.693c-.24.156-.465.333-.663.515zm-1.817 2.716l.622.713a7.56 7.56 0 0 1 .376-1.037l-.552-.635a8.979 8.979 0 0 0-.446.959zm-3.156-5.036l-.535-.679c-.274.188-.538.377-.784.57l.583.725c.232-.214.481-.425.736-.616zm-3.424 3.611l-.962-.565c-.24.363-.508.787-.641 1.018l.962.566c.17-.29.438-.706.64-1.019zm6.036 3.724a9.63 9.63 0 0 0-.096 1.17l1.005.583a12.51 12.51 0 0 1-.005-1.226l-.904-.527zM132.372 26.824l.005-.014zm12.275-.181l.84 1.455 2.575-1.486c.527-.304 1.205-1.221.6-2.341l-.324-.563a1.696 1.696 0 0 0-2.328-.65l-1.284.74-.39-.675 2.543-1.468-.845-1.464-2.44 1.41c-.63.363-1.166 1.38-.595 2.37l.292.506c.571.989 1.699 1.014 2.336.646 1.776-1.015-.425.245 1.213-.7l.408.707-2.601 1.513zm-13.998 7.61s1.308-.916.26-2.734c-1.05-1.817-2.817-1.022-2.817-1.022l-3.007 1.736 3.31 5.734 1.512-.873-.799-1.383 2.106.628 2.236-1.29-2.8-.796zm-1.26-.838l-1.205.695-.757-1.31 1.213-.7s.413-.067.714.456c.302.522.035.859.035.859zm4.127-5.996l-1.535.886c-1.094.632-.88 1.859-.6 2.341l2.423 4.198 1.535-.886-.58-1.006 1.44-.832.58 1.006 1.489-.86-2.424-4.197c-.706-1.222-1.95-.869-2.328-.65zm1.746 3.077l-1.449.836-.803-1.39s-.181-.314.299-.592l.527-.304c.426-.246.614.063.614.063l.804 1.392.008-.005zm.42-4.327l1.598-.923 3.287 5.693-1.599.923-3.287-5.693zm6.279 2.003l-2.438-4.222-1.59.919 2.438 4.221.85 1.472 1.59-.918 2.149-1.241-.85-1.472-2.15 1.241zm-23.053 15.272l6.22-3.591s-4.388-4.854-1.747-9.37c.612-.922 2.425-4.092 8.847-3.296.072-.203.15-.376.15-.376s-6.504-1.81-10.793 1.288c-2.178 1.536-3.766 5.294-3.794 9.064-.029 3.769 1.117 6.28 1.117 6.28zm7.244-17.381l-.28-.557c-.094 0-.346.018-.926.16l.275.548c.31-.061.618-.11.93-.151zm.236 2.136l.261.525c.265-.142.543-.26.835-.353l-.256-.517a6.31 6.31 0 0 0-.84.345zm-4.361-.827l.078-.045-.44-.4c-.245.141-.487.303-.728.485l.423.388c.215-.156.438-.296.667-.428zm2.086 2.741l.501.45c.164-.244.336-.472.523-.676l-.48-.43a6.507 6.507 0 0 0-.544.656zm-4.795-.05l-.675-.351a14.37 14.37 0 0 0-.415.7l.688.354c.13-.247.257-.481.402-.704zm3.703 2.686l.712.36c.018-.277.068-.553.135-.838l-.67-.343a5.097 5.097 0 0 0-.177.821zm.353 3.249l.935.146a7.56 7.56 0 0 1-.378-1.036l-.831-.131c.07.356.17.695.274 1.02zm-5.653-1.83l-.847-.175c-.089.319-.17.634-.235.94l.913.18c.04-.313.096-.634.169-.944zm-.303 4.968l-1.1.185c.05.432.117.93.163 1.192l1.1-.185a32.758 32.758 0 0 1-.163-1.192zm7.017-1.028c.262.417.501.74.68.959l1.144-.2a12.51 12.51 0 0 1-.792-.936l-1.032.177zM201.762 33.483l.014-.006zm8.03 9.286l-.575 1.58 2.793 1.016c.573.209 1.71.139 2.18-1.044l.222-.611a1.696 1.696 0 0 0-.998-2.201l-1.392-.507.266-.733 2.76 1.004.578-1.588-2.649-.964c-.683-.249-1.807-.005-2.197 1.068l-.2.55c-.391 1.073.314 1.952 1.006 2.204 1.92.708-.46-.168 1.316.479l-.28.768-2.83-1.02zm-14.827-5.831s1.542.413 2.26-1.559c.718-1.972-1.027-2.814-1.027-2.814l-3.263-1.188-2.264 6.221 1.64.597.546-1.5.872 2.016 2.426.884-1.19-2.657zm-.169-1.504l-1.307-.476.518-1.422 1.315.479s.317.273.11.84c-.206.567-.636.579-.636.579zm7.247-.693l-1.666-.606c-1.187-.432-1.99.521-2.18 1.045l-1.657 4.554 1.665.607.397-1.091 1.564.569-.397 1.09 1.614.588 1.658-4.554c.483-1.327-.588-2.052-.998-2.202zm-1.236 3.315l-1.572-.572.55-1.51s.124-.34.645-.15l.572.208c.461.168.346.512.346.512l-.55 1.51.01.002zm3.585-2.46l1.734.632-2.248 6.177-1.734-.63 2.248-6.179zm2.502 6.099l1.667-4.581-1.726-.628-1.667 4.58-.581 1.597 1.725.628 2.332.85.582-1.598-2.332-.848zm-26.517-7.843l6.749 2.456s.898-6.481 6.055-7.361c1.1-.124 4.693-.773 8.211 4.658.202-.075.385-.127.385-.127s-2.794-6.145-7.924-7.44c-2.577-.68-6.477.519-9.383 2.92-2.905 2.401-4.093 4.894-4.093 4.894zm17.97-5.624l.248-.572c-.061-.072-.237-.254-.718-.607l-.244.563c.247.2.482.403.715.616zm-1.484 1.555l-.235.537c.28.111.548.249.808.412l.231-.528a6.31 6.31 0 0 0-.804-.421zm-2.17-3.873l.085.03.023-.594a7.104 7.104 0 0 0-.839-.246l-.025.574c.257.064.508.146.756.236zm-.759 3.36l-.023.674c.293-.032.579-.047.855-.035l.022-.644a6.507 6.507 0 0 0-.854.005zm-3.043-3.706l-.165-.742a14.37 14.37 0 0 0-.803.132l.17.754c.273-.059.535-.112.798-.144zm.322 4.564l.182.777c.224-.165.468-.304.729-.436l-.168-.733a5.097 5.097 0 0 0-.743.392zm-2.261 2.358l.488.81a7.56 7.56 0 0 1 .551-.955l-.434-.721a8.979 8.979 0 0 0-.605.866zm-2.233-5.506l-.41-.762c-.301.137-.594.278-.87.424l.448.816c.265-.17.547-.335.832-.478zm-4 2.961l-.849-.724c-.299.316-.637.687-.808.892l.849.724c.219-.256.554-.619.808-.892zm5.298 4.715a9.63 9.63 0 0 0-.298 1.137l.889.748c.047-.368.11-.78.208-1.209l-.799-.676zM263.372 23.824l.005-.014zm12.275-.181l.84 1.455 2.575-1.486c.527-.304 1.205-1.221.6-2.341l-.324-.563a1.696 1.696 0 0 0-2.328-.65l-1.284.74-.39-.675 2.543-1.468-.845-1.464-2.44 1.41c-.63.363-1.166 1.38-.595 2.37l.292.506c.571.989 1.699 1.014 2.336.646 1.776-1.015-.425.245 1.213-.7l.408.707-2.601 1.513zm-13.998 7.61s1.308-.916.26-2.734c-1.05-1.817-2.817-1.022-2.817-1.022l-3.007 1.736 3.31 5.734 1.512-.873-.799-1.383 2.106.628 2.236-1.29-2.8-.796zm-1.26-.838l-1.205.695-.757-1.31 1.213-.7s.413-.067.714.456c.302.522.035.859.035.859zm4.127-5.996l-1.535.886c-1.094.632-.88 1.859-.6 2.341l2.423 4.198 1.535-.886-.58-1.006 1.44-.832.58 1.006 1.489-.86-2.424-4.197c-.706-1.222-1.95-.869-2.328-.65zm1.746 3.077l-1.449.836-.803-1.39s-.181-.314.299-.592l.527-.304c.426-.246.614.063.614.063l.804 1.392.008-.005zm.42-4.327l1.598-.923 3.287 5.693-1.599.923-3.287-5.693zm6.279 2.003l-2.438-4.222-1.59.919 2.438 4.221.85 1.472 1.59-.918 2.149-1.241-.85-1.472-2.15 1.241zm-23.053 15.272l6.22-3.591s-4.388-4.854-1.747-9.37c.612-.922 2.425-4.092 8.847-3.296.072-.203.15-.376.15-.376s-6.504-1.81-10.793 1.288c-2.178 1.536-3.766 5.294-3.794 9.064-.029 3.769 1.117 6.28 1.117 6.28zm7.244-17.381l-.28-.557c-.094 0-.346.018-.926.16l.275.548c.31-.061.618-.11.93-.151zm.236 2.136l.261.525c.265-.142.543-.26.835-.353l-.256-.517a6.31 6.31 0 0 0-.84.345zm-4.361-.827l.078-.045-.44-.4c-.245.141-.487.303-.728.485l.423.388c.215-.156.438-.296.667-.428zm2.086 2.741l.501.45c.164-.244.336-.472.523-.676l-.48-.43a6.507 6.507 0 0 0-.544.656zm-4.795-.05l-.675-.351a14.37 14.37 0 0 0-.415.7l.688.354c.13-.247.257-.481.402-.704zm3.703 2.686l.712.36c.018-.277.068-.553.135-.838l-.67-.343a5.097 5.097 0 0 0-.177.821zm.353 3.249l.935.146a7.56 7.56 0 0 1-.378-1.036l-.831-.131c.07.356.17.695.274 1.02zm-5.653-1.83l-.847-.175c-.089.319-.17.634-.235.94l.913.18c.04-.313.096-.634.169-.944zm-.303 4.968l-1.1.185c.05.432.117.93.163 1.192l1.1-.185a32.758 32.758 0 0 1-.163-1.192zm7.017-1.028c.262.417.501.74.68.959l1.144-.2a12.51 12.51 0 0 1-.792-.936l-1.032.177zM358.992 35.518c.014-.004.015-.003.015-.003zm6.11 10.648l-.866 1.44 2.548 1.532c.522.314 1.653.462 2.34-.61l.334-.557c.56-.931.141-1.93-.56-2.351l-1.27-.763.402-.669 2.517 1.512.87-1.448-2.416-1.452c-.623-.374-1.772-.35-2.36.63l-.302.5c-.588.98-.063 1.977.568 2.357 1.748 1.061-.421-.253 1.2.72l-.421.701-2.584-1.542zm-13.442-8.553s1.435.7 2.516-1.099-.47-2.959-.47-2.959l-2.977-1.788-3.41 5.675 1.496.899.823-1.37.47 2.147 2.214 1.33-.662-2.835zm.121-1.509l-1.192-.716.78-1.297 1.2.72s.258.33-.052.847c-.311.517-.736.446-.736.446zm7.246.703l-1.52-.913c-1.083-.65-2.051.132-2.338.61l-2.497 4.155 1.52.913.598-.995 1.426.856-.598.995 1.473.885 2.496-4.154c.727-1.21-.186-2.127-.56-2.352zm-1.845 3.019l-1.434-.862.827-1.377s.187-.31.662-.025l.522.314c.42.253.242.568.242.568l-.827 1.377.008.005zm3.988-1.731l1.582.95-3.386 5.636-1.582-.951 3.386-5.635zm1.292 6.463l2.51-4.178-1.573-.946-2.511 4.179-.875 1.456 1.574.946 2.127 1.278.875-1.456-2.127-1.279zM337.929 31.8l6.156 3.699s2.118-6.191 7.349-6.07c1.103.088 4.754.136 7.171 6.139.212-.035.402-.051.402-.051s-1.57-6.566-6.36-8.815c-2.399-1.16-6.456-.727-9.766 1.075-3.31 1.803-4.952 4.023-4.952 4.023zm18.714-2.091l.351-.515c-.046-.082-.184-.294-.588-.733l-.347.507c.204.242.396.487.584.74zm-1.755 1.242l-.332.483c.252.162.49.349.714.559l.328-.475a6.31 6.31 0 0 0-.71-.567zm-1.39-4.215l.077.046.136-.579c-.241-.145-.5-.279-.777-.402l-.134.559c.24.112.471.24.697.376zm-1.387 3.153l-.15.657c.293.025.576.065.845.129l.144-.628a6.507 6.507 0 0 0-.839-.158zm-2.28-4.219l-.02-.76a14.37 14.37 0 0 0-.814-.023l.024.773c.28-.006.546-.008.81.01zm-.554 4.542l.03.798c.251-.12.517-.21.799-.29l-.026-.751c-.28.06-.553.144-.803.243zm-2.67 1.884l.325.889a7.56 7.56 0 0 1 .723-.833l-.288-.791a8.979 8.979 0 0 0-.76.735zm-1.142-5.832l-.256-.826c-.322.078-.637.16-.936.251l.285.886c.293-.117.6-.224.907-.31zm-4.49 2.144l-.696-.872c-.354.253-.756.552-.963.72l.695.873c.264-.21.662-.501.963-.72zm4.3 5.64a9.63 9.63 0 0 0-.509 1.058l.73.905c.116-.353.256-.745.434-1.148l-.655-.816zM428.525 31.152v-.015zm11.75-3.558l1.209 1.168 2.065-2.138c.423-.439.822-1.507-.068-2.417l-.467-.451a1.696 1.696 0 0 0-2.417.016l-1.03 1.066-.56-.541 2.039-2.113-1.216-1.174-1.958 2.028c-.505.523-.74 1.648.082 2.442l.42.406c.822.793 1.913.507 2.424-.023 1.428-1.465-.34.353.973-1.007l.587.567-2.083 2.171zm-11.358 11.174s1.005-1.241-.505-2.7c-1.51-1.457-2.988-.206-2.988-.206l-2.413 2.498 4.763 4.6 1.212-1.256-1.149-1.11 2.198.024 1.793-1.857-2.911.007zm-1.443-.458l-.966 1-1.089-1.051.973-1.007s.378-.178.813.241c.434.42.27.817.27.817zm2.315-6.902l-1.231 1.275c-.878.91-.333 2.03.068 2.416l3.486 3.367 1.232-1.275-.835-.806 1.155-1.197.835.807 1.194-1.236-3.487-3.368c-1.015-.98-2.114-.297-2.417.017zm2.526 2.477l-1.162 1.204-1.155-1.116s-.26-.252.124-.65l.423-.439c.341-.353.608-.108.608-.108l1.156 1.116.006-.007zm-.79-4.275l1.283-1.328 4.729 4.567-1.282 1.328-4.73-4.567zm6.59.195l-3.507-3.387-1.276 1.321 3.507 3.387 1.222 1.18 1.276-1.32 1.724-1.786-1.223-1.18-1.724 1.785zm-17.95 21.034l4.988-5.166s-5.556-3.457-4.262-8.526c.335-1.055 1.203-4.601 7.596-5.607.013-.214.04-.403.04-.403s-6.75.053-10.02 4.214c-1.67 2.077-2.16 6.127-1.149 9.758 1.012 3.631 2.806 5.73 2.806 5.73zm2.171-18.704l-.422-.459c-.09.027-.328.113-.846.409l.415.452c.282-.145.564-.277.853-.402zm.816 1.988l.396.433c.215-.21.45-.4.705-.57l-.389-.426a6.31 6.31 0 0 0-.712.563zm-4.42.408l.063-.066-.534-.263a7.104 7.104 0 0 0-.566.667l.514.256c.163-.209.34-.405.523-.594zm2.761 2.06l.606.294c.09-.28.193-.547.316-.795l-.58-.281a6.507 6.507 0 0 0-.342.781zm-4.624 1.272l-.745-.15a14.37 14.37 0 0 0-.205.786l.758.151c.057-.273.115-.533.192-.787zm4.3 1.562l.785.15a5.133 5.133 0 0 1-.102-.843l-.738-.145c-.005.286.016.572.056.838zm1.236 3.025l.939-.117a7.56 7.56 0 0 1-.65-.892l-.835.103c.165.324.356.622.546.906zm-5.94-.2l-.862.065c.003.331.012.656.034.968l.927-.078a9.352 9.352 0 0 1-.098-.954zm1.08 4.859l-1.007.48c.167.403.368.862.486 1.102l1.006-.481c-.145-.305-.34-.758-.485-1.101zm6.462-2.922c.366.328.685.573.917.734l1.045-.507a12.51 12.51 0 0 1-1.02-.682l-.942.455zM509.11 22.17c.002-.015.002-.014.003-.014zm12.188-1.463l.988 1.36 2.405-1.748c.493-.358 1.071-1.34.353-2.391l-.382-.526a1.696 1.696 0 0 0-2.383-.403l-1.199.87-.458-.63 2.375-1.726-.993-1.368-2.28 1.657c-.589.427-1.015 1.495-.344 2.419l.344.473c.671.924 1.795.831 2.39.398 1.66-1.195-.397.289 1.133-.823l.48.661-2.429 1.777zm-13.125 9.03s1.205-1.047-.028-2.745c-1.234-1.697-2.908-.722-2.908-.722l-2.81 2.04 3.892 5.357 1.412-1.026-.938-1.292 2.16.405 2.088-1.517-2.868-.5zm-1.341-.7l-1.126.817-.89-1.224 1.133-.823s.404-.11.759.378c.355.489.124.852.124.852zm3.478-6.395l-1.434 1.042c-1.023.742-.68 1.94-.353 2.39l2.849 3.922 1.434-1.042-.682-.939 1.346-.978.682.94 1.39-1.01-2.849-3.922c-.83-1.142-2.03-.66-2.383-.403zm2.057 2.878l-1.353.983-.944-1.3s-.213-.293.236-.619l.492-.358c.397-.288.618 0 .618 0l.944 1.3.007-.006zm-.035-4.348l1.493-1.085 3.865 5.32-1.493 1.084-3.865-5.319zm6.455 1.336l-2.866-3.944-1.485 1.08 2.865 3.944.999 1.375 1.486-1.08 2.008-1.459-1-1.374-2.007 1.458zm-21.33 17.598l5.81-4.221s-4.871-4.37-2.717-9.137c.513-.98 1.984-4.322 8.454-4.202.05-.21.11-.39.11-.39s-6.657-1.12-10.599 2.41c-2.005 1.755-3.192 5.659-2.826 9.41.366 3.751 1.768 6.13 1.768 6.13zm5.387-18.043l-.336-.525c-.094.01-.343.054-.905.256l.331.517c.303-.094.604-.175.91-.248zm.458 2.1l.315.495c.248-.169.512-.315.793-.439l-.309-.487a6.31 6.31 0 0 0-.799.431zm-4.424-.366l.074-.054-.48-.351a7.104 7.104 0 0 0-.674.558l.462.341c.197-.177.405-.34.618-.494zm2.362 2.508l.545.395c.137-.26.285-.505.45-.728l-.523-.378a6.507 6.507 0 0 0-.472.71zm-4.775.45l-.707-.278a14.37 14.37 0 0 0-.34.74l.721.28c.104-.26.206-.506.326-.742zm3.964 2.285l.746.284c-.011-.278.01-.558.046-.848l-.702-.27c-.054.28-.083.565-.09.834zm.691 3.194l.945.048a7.56 7.56 0 0 1-.484-.992l-.84-.043c.106.347.241.673.38.987zm-5.814-1.228l-.86-.087c-.055.327-.103.649-.135.96l.926.084c.007-.315.03-.641.07-.957zm.219 4.971l-1.075.3c.095.424.213.912.287 1.168l1.075-.299c-.09-.325-.203-.805-.287-1.169zm6.871-1.755c.304.387.576.684.776.882l1.117-.318a12.51 12.51 0 0 1-.886-.848l-1.007.284zM557.749 49.773l.014-.002zm5.544 10.953l-.94 1.394 2.464 1.662c.505.34 1.627.548 2.368-.486l.364-.539c.607-.9.242-1.92-.436-2.377l-1.229-.83.436-.646 2.435 1.642.945-1.4-2.337-1.577c-.603-.406-1.752-.442-2.39.505l-.328.485c-.638.946-.167 1.97.444 2.382 1.69 1.152-.407-.274 1.16.783l-.456.677-2.5-1.675zm-12.976-9.245s1.397.774 2.57-.965c1.174-1.74-.315-2.98-.315-2.98l-2.879-1.941-3.702 5.488 1.447.976.893-1.324.358 2.168 2.14 1.444-.512-2.866zm.2-1.5l-1.153-.778.847-1.254 1.16.782s.241.342-.096.843c-.338.5-.758.407-.758.407zm7.2 1.081l-1.47-.991c-1.048-.707-2.056.024-2.368.486l-2.71 4.019 1.47.991.648-.962 1.38.93-.65.962 1.425.961 2.71-4.018c.79-1.17-.074-2.134-.436-2.378zm-2.002 2.918l-1.386-.935.898-1.332s.202-.3.662.01l.505.34c.407.275.212.58.212.58l-.898 1.332.007.005zm4.074-1.52l1.53 1.032-3.676 5.45-1.53-1.031 3.676-5.45zm.952 6.523l2.726-4.042-1.523-1.027-2.726 4.042-.95 1.409 1.523 1.026 2.057 1.388.95-1.409-2.057-1.387zm-23.832-14.025l5.954 4.016s2.44-6.072 7.657-5.678c1.096.146 4.74.386 6.84 6.507.213-.024.404-.03.404-.03s-1.224-6.64-5.89-9.136c-2.335-1.284-6.41-1.064-9.81.563-3.4 1.626-5.155 3.758-5.155 3.758zm18.797-1.11l.379-.495c-.042-.084-.168-.303-.55-.762l-.373.488c.192.252.37.507.544.77zm-1.816 1.15l-.358.464c.244.176.472.375.684.596l.352-.457a6.31 6.31 0 0 0-.678-.603zm-1.169-4.283l.076.05.166-.57a7.104 7.104 0 0 0-.755-.442l-.163.55c.234.125.458.265.676.412zm-1.549 3.077l-.185.648c.291.04.572.095.838.173l.176-.62a6.507 6.507 0 0 0-.829-.201zm-2.056-4.333l.02-.76a14.37 14.37 0 0 0-.812-.065l-.017.773c.28.009.546.02.809.052zm-.792 4.507l-.012.798c.258-.106.528-.181.814-.247l.014-.752c-.283.045-.56.115-.816.2zm-2.764 1.741l.278.905a7.56 7.56 0 0 1 .766-.794l-.247-.805c-.29.219-.55.458-.797.694zm-.835-5.883l-.213-.838c-.326.06-.644.126-.947.201l.237.9c.299-.101.612-.192.923-.263zm-4.597 1.906l-.649-.908c-.366.235-.784.513-1 .67l.649.908c.274-.196.687-.466 1-.67zm4 5.857a9.63 9.63 0 0 0-.564 1.03l.681.942c.135-.346.295-.73.494-1.123l-.611-.85zM25.762 74.483l.014-.006zm8.03 9.286l-.575 1.58 2.793 1.016c.573.209 1.71.139 2.18-1.044l.222-.611a1.696 1.696 0 0 0-.998-2.201l-1.392-.507.266-.733 2.76 1.004.578-1.588-2.649-.964c-.683-.249-1.807-.005-2.197 1.068l-.2.55c-.391 1.073.314 1.952 1.006 2.204 1.92.708-.46-.168 1.316.479l-.28.768-2.83-1.02zm-14.827-5.831s1.542.413 2.26-1.559c.718-1.972-1.027-2.814-1.027-2.814l-3.263-1.188-2.264 6.221 1.64.597.546-1.5.872 2.016 2.426.884-1.19-2.657zm-.169-1.504l-1.307-.476.518-1.422 1.315.479s.317.273.11.84c-.206.567-.636.579-.636.579zm7.247-.693l-1.666-.606c-1.187-.432-1.99.521-2.18 1.045l-1.657 4.554 1.665.607.397-1.091 1.564.569-.397 1.09 1.614.588 1.658-4.554c.483-1.327-.588-2.052-.998-2.202zm-1.236 3.315l-1.572-.572.55-1.51s.124-.34.645-.15l.572.208c.461.168.346.512.346.512l-.55 1.51.01.002zm3.585-2.46l1.734.632-2.248 6.177-1.734-.63 2.248-6.179zm2.502 6.099l1.667-4.581-1.726-.628-1.667 4.58-.581 1.597 1.725.628 2.332.85.582-1.598-2.332-.848zM4.377 74.852l6.749 2.456s.898-6.481 6.055-7.361c1.1-.124 4.693-.773 8.211 4.658.202-.075.385-.127.385-.127s-2.794-6.145-7.924-7.44c-2.577-.68-6.477.519-9.383 2.92-2.905 2.401-4.093 4.894-4.093 4.894zm17.97-5.624l.248-.572c-.061-.072-.237-.254-.718-.607l-.244.563c.247.2.482.403.715.616zm-1.484 1.555l-.235.537c.28.111.548.249.808.412l.231-.528a6.31 6.31 0 0 0-.804-.421zm-2.17-3.873l.085.03.023-.594a7.104 7.104 0 0 0-.839-.246l-.025.574c.257.064.508.146.756.236zm-.759 3.36l-.023.674c.293-.032.579-.047.855-.035l.022-.644a6.507 6.507 0 0 0-.854.005zm-3.043-3.706l-.165-.742a14.37 14.37 0 0 0-.803.132l.17.754c.273-.059.535-.112.798-.144zm.322 4.564l.182.777c.224-.165.468-.304.729-.436l-.168-.733a5.097 5.097 0 0 0-.743.392zm-2.261 2.358l.488.81a7.56 7.56 0 0 1 .551-.955l-.434-.721a8.979 8.979 0 0 0-.605.866zm-2.233-5.506l-.41-.762c-.301.137-.594.278-.87.424l.448.816c.265-.17.547-.335.832-.478zm-4 2.961l-.849-.724c-.299.316-.637.687-.808.892l.849.724c.219-.256.554-.619.808-.892zm5.298 4.715a9.63 9.63 0 0 0-.298 1.137l.889.748c.047-.368.11-.78.208-1.209l-.799-.676zM122.372 81.824l.005-.014zm12.275-.181l.84 1.455 2.575-1.486c.527-.304 1.205-1.221.6-2.341l-.324-.563a1.696 1.696 0 0 0-2.328-.65l-1.284.74-.39-.675 2.543-1.468-.845-1.464-2.44 1.41c-.63.363-1.166 1.38-.595 2.37l.292.506c.571.989 1.699 1.014 2.336.646 1.776-1.015-.425.245 1.213-.7l.408.707-2.601 1.513zm-13.998 7.61s1.308-.916.26-2.734c-1.05-1.817-2.817-1.022-2.817-1.022l-3.007 1.736 3.31 5.734 1.512-.873-.799-1.383 2.106.628 2.236-1.29-2.8-.796zm-1.26-.838l-1.205.695-.757-1.31 1.213-.7s.413-.067.714.456c.302.522.035.859.035.859zm4.127-5.996l-1.535.886c-1.094.632-.88 1.859-.6 2.341l2.423 4.198 1.535-.886-.58-1.006 1.44-.832.58 1.006 1.489-.86-2.424-4.197c-.706-1.222-1.95-.869-2.328-.65zm1.746 3.077l-1.449.836-.803-1.39s-.181-.314.299-.592l.527-.304c.426-.246.614.063.614.063l.804 1.392.008-.005zm.42-4.327l1.598-.923 3.287 5.693-1.599.923-3.287-5.693zm6.279 2.003l-2.438-4.222-1.59.919 2.438 4.221.85 1.472 1.59-.918 2.149-1.241-.85-1.472-2.15 1.241zm-23.053 15.272l6.22-3.591s-4.388-4.854-1.747-9.37c.612-.922 2.425-4.092 8.847-3.296.072-.203.15-.376.15-.376s-6.504-1.81-10.793 1.288c-2.178 1.536-3.766 5.294-3.794 9.064-.029 3.769 1.117 6.28 1.117 6.28zm7.244-17.381l-.28-.557c-.094 0-.346.018-.926.16l.275.548c.31-.061.618-.11.93-.151zm.236 2.136l.261.525c.265-.142.543-.26.835-.353l-.256-.517a6.31 6.31 0 0 0-.84.345zm-4.361-.827l.078-.045-.44-.4c-.245.141-.487.303-.728.485l.423.388c.215-.156.438-.296.667-.428zm2.086 2.741l.501.45c.164-.244.336-.472.523-.676l-.48-.43a6.507 6.507 0 0 0-.544.656zm-4.795-.05l-.675-.351a14.37 14.37 0 0 0-.415.7l.688.354c.13-.247.257-.481.402-.704zm3.703 2.686l.712.36c.018-.277.068-.553.135-.838l-.67-.343a5.097 5.097 0 0 0-.177.821zm.353 3.249l.935.146a7.56 7.56 0 0 1-.378-1.036l-.831-.131c.07.356.17.695.274 1.02zm-5.653-1.83l-.847-.175c-.089.319-.17.634-.235.94l.913.18c.04-.313.096-.634.169-.944zm-.303 4.968l-1.1.185c.05.432.117.93.163 1.192l1.1-.185a32.758 32.758 0 0 1-.163-1.192zm7.017-1.028c.262.417.501.74.68.959l1.144-.2a12.51 12.51 0 0 1-.792-.936l-1.032.177zM173.606 74.302l.011-.01zm10.721 5.98v1.68h2.973c.61 0 1.655-.454 1.69-1.726v-.65a1.696 1.696 0 0 0-1.69-1.727h-1.482v-.78h2.937v-1.69h-2.819c-.727 0-1.7.612-1.7 1.755v.585c0 1.142.964 1.727 1.7 1.727 2.046.009-.49 0 1.4 0v.817l-3.009.01zm-15.927-.408s1.59-.14 1.59-2.238c0-2.099-1.926-2.294-1.926-2.294h-3.473v6.62h1.745v-1.596l1.51 1.597h2.581l-2.027-2.09zm-.673-1.356h-1.39v-1.514h1.4s.39.149.39.752c0 .604-.4.762-.4.762zm6.573-3.13h-1.773c-1.263 0-1.69 1.17-1.69 1.728v4.847h1.772v-1.16h1.664v1.16h1.718v-4.847c0-1.412-1.255-1.727-1.691-1.727zm-.027 3.538H172.6V77.32s0-.362.555-.362h.609c.49 0 .5.362.5.362v1.606h.009zm2.527-3.537h1.845v6.574H176.8v-6.574zm4.436 4.875v-4.875H179.4v6.574H183.718v-1.7h-2.482zm-27.6 1.699h7.182s-1.373-6.398 3.173-8.989c.99-.492 4.145-2.33 9.309 1.57.164-.14.318-.251.318-.251s-4.727-4.82-9.99-4.28c-2.655.24-5.91 2.701-7.819 5.951-1.909 3.25-2.173 5.999-2.173 5.999zm14.964-11.43l.036-.623c-.081-.046-.309-.158-.881-.325l-.037.613c.3.102.591.213.882.334zm-.864 1.968l-.036.585c.3.009.6.046.9.111l.036-.576a6.31 6.31 0 0 0-.9-.12zm-3.363-2.897h.09l-.181-.567c-.282 0-.573.019-.873.056l.173.548c.263-.028.527-.037.79-.037zm.436 3.417l.21.64c.263-.13.526-.241.79-.325l-.2-.612c-.309.092-.573.195-.8.297zm-4.127-2.442l-.41-.641c-.227.12-.463.25-.708.4l.418.65c.236-.15.463-.289.7-.41zm1.863 4.178l.437.669c.154-.232.336-.446.536-.66l-.409-.631c-.209.195-.4.409-.564.622zm-1.318 2.99l.737.594c.036-.362.1-.724.19-1.086l-.654-.53c-.118.344-.2.688-.273 1.022zm-3.982-4.41l-.645-.576c-.236.232-.464.464-.673.696l.7.613c.191-.25.4-.501.618-.734zm-2.745 4.15l-1.045-.39c-.173.4-.364.864-.455 1.114l1.045.39c.119-.315.31-.77.455-1.114zm6.59 2.619c.02.492.065.891.11 1.17l1.09.399a12.51 12.51 0 0 1-.217-1.207l-.982-.362zM235.372 71.824l.005-.014zm12.275-.181l.84 1.455 2.575-1.486c.527-.304 1.205-1.221.6-2.341l-.324-.563a1.696 1.696 0 0 0-2.328-.65l-1.284.74-.39-.675 2.543-1.468-.845-1.464-2.44 1.41c-.63.363-1.166 1.38-.595 2.37l.292.506c.571.989 1.699 1.014 2.336.646 1.776-1.015-.425.245 1.213-.7l.408.707-2.601 1.513zm-13.998 7.61s1.308-.916.26-2.734c-1.05-1.817-2.817-1.022-2.817-1.022l-3.007 1.736 3.31 5.734 1.512-.873-.799-1.383 2.106.628 2.236-1.29-2.8-.796zm-1.26-.838l-1.205.695-.757-1.31 1.213-.7s.413-.067.714.456c.302.522.035.859.035.859zm4.127-5.996l-1.535.886c-1.094.632-.88 1.859-.6 2.341l2.423 4.198 1.535-.886-.58-1.006 1.44-.832.58 1.006 1.489-.86-2.424-4.197c-.706-1.222-1.95-.869-2.328-.65zm1.746 3.077l-1.449.836-.803-1.39s-.181-.314.299-.592l.527-.304c.426-.246.614.063.614.063l.804 1.392.008-.005zm.42-4.327l1.598-.923 3.287 5.693-1.599.923-3.287-5.693zm6.279 2.003l-2.438-4.222-1.59.919 2.438 4.221.85 1.472 1.59-.918 2.149-1.241-.85-1.472-2.15 1.241zm-23.053 15.272l6.22-3.591s-4.388-4.854-1.747-9.37c.612-.922 2.425-4.092 8.847-3.296.072-.203.15-.376.15-.376s-6.504-1.81-10.793 1.288c-2.178 1.536-3.766 5.294-3.794 9.064-.029 3.769 1.117 6.28 1.117 6.28zm7.244-17.381l-.28-.557c-.094 0-.346.018-.926.16l.275.548c.31-.061.618-.11.93-.151zm.236 2.136l.261.525c.265-.142.543-.26.835-.353l-.256-.517a6.31 6.31 0 0 0-.84.345zm-4.361-.827l.078-.045-.44-.4c-.245.141-.487.303-.728.485l.423.388c.215-.156.438-.296.667-.428zm2.086 2.741l.501.45c.164-.244.336-.472.523-.676l-.48-.43a6.507 6.507 0 0 0-.544.656zm-4.795-.05l-.675-.351a14.37 14.37 0 0 0-.415.7l.688.354c.13-.247.257-.481.402-.704zm3.703 2.686l.712.36c.018-.277.068-.553.135-.838l-.67-.343a5.097 5.097 0 0 0-.177.821zm.353 3.249l.935.146a7.56 7.56 0 0 1-.378-1.036l-.831-.131c.07.356.17.695.274 1.02zm-5.653-1.83l-.847-.175c-.089.319-.17.634-.235.94l.913.18c.04-.313.096-.634.169-.944zm-.303 4.968l-1.1.185c.05.432.117.93.163 1.192l1.1-.185a32.758 32.758 0 0 1-.163-1.192zm7.017-1.028c.262.417.501.74.68.959l1.144-.2a12.51 12.51 0 0 1-.792-.936l-1.032.177zM283.732 98.135l.009-.012zm11.597 4.028l.291 1.655 2.928-.516c.6-.106 1.55-.736 1.365-1.995l-.113-.64a1.696 1.696 0 0 0-1.965-1.407l-1.459.257-.135-.768 2.891-.51-.293-1.664-2.776.489c-.716.126-1.567.899-1.369 2.024l.102.576c.198 1.124 1.249 1.533 1.974 1.405 2.016-.346-.484.086 1.378-.243l.142.805-2.961.532zm-15.757 2.363s1.543-.413 1.178-2.48c-.364-2.067-2.296-1.924-2.296-1.924l-3.42.603 1.15 6.52 1.719-.303-.278-1.573 1.764 1.31 2.543-.447-2.36-1.706zm-.898-1.218l-1.37.241-.262-1.49 1.379-.243s.41.078.515.672c.105.595-.262.82-.262.82zm5.93-4.223l-1.746.307c-1.244.22-1.462 1.446-1.365 1.995l.841 4.774 1.746-.308-.201-1.143 1.638-.29.202 1.144 1.692-.299-.842-4.773c-.245-1.39-1.535-1.483-1.965-1.407zm.587 3.488l-1.647.291-.279-1.582s-.063-.357.483-.453l.6-.106c.484-.085.555.27.555.27l.28 1.582.008-.002zm1.875-3.922l1.817-.32 1.142 6.473-1.818.32-1.141-6.473zm5.215 4.03l-.846-4.8-1.809.318.847 4.801.295 1.673 1.808-.318 2.445-.431-.295-1.674-2.445.431zm-26.885 6.466l7.072-1.247s-2.462-6.062 1.564-9.403c.89-.657 3.678-3.015 9.44-.07.137-.166.27-.303.27-.303s-5.492-3.925-10.582-2.48c-2.573.698-5.35 3.686-6.666 7.219-1.316 3.532-1.098 6.284-1.098 6.284zm12.751-13.855l-.072-.62c-.089-.03-.332-.101-.925-.166l.07.61c.314.048.62.107.927.176zm-.509 2.088l.066.583c.297-.043.6-.059.906-.047l-.064-.573a6.31 6.31 0 0 0-.908.037zm-3.815-2.269l.09-.015-.278-.527c-.278.05-.56.118-.85.207l.265.51c.255-.074.513-.129.773-.175zm1.023 3.29l.317.595c.237-.174.477-.33.723-.458l-.304-.569c-.288.145-.53.292-.736.432zm-4.489-1.689l-.514-.56a14.37 14.37 0 0 0-.629.517l.525.567c.207-.187.407-.364.618-.524zm2.561 3.792l.546.583c.112-.256.254-.498.414-.743l-.513-.55a5.097 5.097 0 0 0-.447.71zm-.779 3.173l.829.458a7.56 7.56 0 0 1-.001-1.103l-.736-.408a8.979 8.979 0 0 0-.092 1.053zm-4.687-3.652l-.736-.455c-.192.27-.376.538-.541.803l.796.482c.144-.28.307-.563.481-.83zm-1.983 4.565l-1.097-.203c-.101.423-.208.914-.254 1.176l1.097.203c.062-.332.17-.813.254-1.176zm6.946 1.434c.103.481.217.867.31 1.133l1.144.204a12.51 12.51 0 0 1-.425-1.151l-1.03-.186zM310.732 58.135l.009-.012zm11.597 4.028l.291 1.655 2.928-.516c.6-.106 1.55-.736 1.365-1.995l-.113-.64a1.696 1.696 0 0 0-1.965-1.407l-1.459.257-.135-.768 2.891-.51-.293-1.664-2.776.489c-.716.126-1.567.899-1.369 2.024l.102.576c.198 1.124 1.249 1.533 1.974 1.405 2.016-.346-.484.086 1.378-.243l.142.805-2.961.532zm-15.757 2.363s1.543-.413 1.178-2.48c-.364-2.067-2.296-1.924-2.296-1.924l-3.42.603 1.15 6.52 1.719-.303-.278-1.573 1.764 1.31 2.543-.447-2.36-1.706zm-.898-1.218l-1.37.241-.262-1.49 1.379-.243s.41.078.515.672c.105.595-.262.82-.262.82zm5.93-4.223l-1.746.307c-1.244.22-1.462 1.446-1.365 1.995l.841 4.774 1.746-.308-.201-1.143 1.638-.29.202 1.144 1.692-.299-.842-4.773c-.245-1.39-1.535-1.483-1.965-1.407zm.587 3.488l-1.647.291-.279-1.582s-.063-.357.483-.453l.6-.106c.484-.085.555.27.555.27l.28 1.582.008-.002zm1.875-3.922l1.817-.32 1.142 6.473-1.818.32-1.141-6.473zm5.215 4.03l-.846-4.8-1.809.318.847 4.801.295 1.673 1.808-.318 2.445-.431-.295-1.674-2.445.431zm-26.885 6.466l7.072-1.247s-2.462-6.062 1.564-9.403c.89-.657 3.678-3.015 9.44-.07.137-.166.27-.303.27-.303s-5.492-3.925-10.582-2.48c-2.573.698-5.35 3.686-6.666 7.219-1.316 3.532-1.098 6.284-1.098 6.284zm12.751-13.855l-.072-.62c-.089-.03-.332-.101-.925-.166l.07.61c.314.048.62.107.927.176zm-.509 2.088l.066.583c.297-.043.6-.059.906-.047l-.064-.573a6.31 6.31 0 0 0-.908.037zm-3.815-2.269l.09-.015-.278-.527c-.278.05-.56.118-.85.207l.265.51c.255-.074.513-.129.773-.175zm1.023 3.29l.317.595c.237-.174.477-.33.723-.458l-.304-.569c-.288.145-.53.292-.736.432zm-4.489-1.689l-.514-.56a14.37 14.37 0 0 0-.629.517l.525.567c.207-.187.407-.364.618-.524zm2.561 3.792l.546.583c.112-.256.254-.498.414-.743l-.513-.55a5.097 5.097 0 0 0-.447.71zm-.779 3.173l.829.458a7.56 7.56 0 0 1-.001-1.103l-.736-.408a8.979 8.979 0 0 0-.092 1.053zm-4.687-3.652l-.736-.455c-.192.27-.376.538-.541.803l.796.482c.144-.28.307-.563.481-.83zm-1.983 4.565l-1.097-.203c-.101.423-.208.914-.254 1.176l1.097.203c.062-.332.17-.813.254-1.176zm6.946 1.434c.103.481.217.867.31 1.133l1.144.204a12.51 12.51 0 0 1-.425-1.151l-1.03-.186zM386.11 70.17c.002-.015.002-.014.003-.014zm12.188-1.463l.988 1.36 2.405-1.748c.493-.358 1.071-1.34.353-2.391l-.382-.526a1.696 1.696 0 0 0-2.383-.403l-1.199.87-.458-.63 2.375-1.726-.993-1.368-2.28 1.657c-.589.427-1.015 1.495-.344 2.419l.344.473c.671.924 1.795.831 2.39.398 1.66-1.195-.397.289 1.133-.823l.48.661-2.429 1.777zm-13.125 9.03s1.205-1.047-.028-2.745c-1.234-1.697-2.908-.722-2.908-.722l-2.81 2.04 3.892 5.357 1.412-1.026-.938-1.292 2.16.405 2.088-1.517-2.868-.5zm-1.341-.7l-1.126.817-.89-1.224 1.133-.823s.404-.11.759.378c.355.489.124.852.124.852zm3.478-6.395l-1.434 1.042c-1.023.742-.68 1.94-.353 2.39l2.849 3.922 1.434-1.042-.682-.939 1.346-.978.682.94 1.39-1.01-2.849-3.922c-.83-1.142-2.03-.66-2.383-.403zm2.057 2.878l-1.353.983-.944-1.3s-.213-.293.236-.619l.492-.358c.397-.288.618 0 .618 0l.944 1.3.007-.006zm-.035-4.348l1.493-1.085 3.865 5.32-1.493 1.084-3.865-5.319zm6.455 1.336l-2.866-3.944-1.485 1.08 2.865 3.944.999 1.375 1.486-1.08 2.008-1.459-1-1.374-2.007 1.458zm-21.33 17.598l5.81-4.221s-4.871-4.37-2.717-9.137c.513-.98 1.984-4.322 8.454-4.202.05-.21.11-.39.11-.39s-6.657-1.12-10.599 2.41c-2.005 1.755-3.192 5.659-2.826 9.41.366 3.751 1.768 6.13 1.768 6.13zm5.387-18.043l-.336-.525c-.094.01-.343.054-.905.256l.331.517c.303-.094.604-.175.91-.248zm.458 2.1l.315.495c.248-.169.512-.315.793-.439l-.309-.487a6.31 6.31 0 0 0-.799.431zm-4.424-.366l.074-.054-.48-.351a7.104 7.104 0 0 0-.674.558l.462.341c.197-.177.405-.34.618-.494zm2.362 2.508l.545.395c.137-.26.285-.505.45-.728l-.523-.378a6.507 6.507 0 0 0-.472.71zm-4.775.45l-.707-.278a14.37 14.37 0 0 0-.34.74l.721.28c.104-.26.206-.506.326-.742zm3.964 2.285l.746.284c-.011-.278.01-.558.046-.848l-.702-.27c-.054.28-.083.565-.09.834zm.691 3.194l.945.048a7.56 7.56 0 0 1-.484-.992l-.84-.043c.106.347.241.673.38.987zm-5.814-1.228l-.86-.087c-.055.327-.103.649-.135.96l.926.084c.007-.315.03-.641.07-.957zm.219 4.971l-1.075.3c.095.424.213.912.287 1.168l1.075-.299c-.09-.325-.203-.805-.287-1.169zm6.871-1.755c.304.387.576.684.776.882l1.117-.318a12.51 12.51 0 0 1-.886-.848l-1.007.284zM468.505 68.876c.014-.005.014-.005.015-.004zm7.362 9.824l-.683 1.536 2.715 1.209c.557.247 1.697.257 2.248-.89l.264-.594a1.696 1.696 0 0 0-.842-2.266l-1.354-.602.317-.713 2.683 1.194.687-1.544-2.574-1.146c-.665-.296-1.803-.131-2.267.912l-.238.534c-.465 1.044.178 1.97.85 2.27 1.865.84-.448-.2 1.28.57l-.333.746-2.753-1.216zm-14.384-6.851s1.51.52 2.364-1.398c.853-1.917-.828-2.879-.828-2.879l-3.172-1.412-2.693 6.048 1.594.71.65-1.459.729 2.073 2.358 1.05-1.002-2.733zm-.063-1.512l-1.27-.566.615-1.383 1.279.57s.297.294.051.846c-.245.551-.675.533-.675.533zm7.277-.186l-1.62-.72c-1.153-.515-2.02.38-2.246.89l-1.972 4.427 1.62.721.472-1.06 1.52.677-.473 1.06 1.57.699 1.972-4.428c.574-1.29-.444-2.088-.843-2.266zm-1.464 3.221l-1.528-.68.654-1.468s.147-.33.654-.105l.556.248c.449.2.31.534.31.534l-.654 1.467.008.004zm3.748-2.204l1.686.75-2.674 6.007-1.686-.751 2.674-6.006zm2.07 6.258l1.983-4.453-1.678-.747-1.982 4.453-.692 1.553 1.678.746 2.267 1.01.691-1.553-2.267-1.009zm-25.905-9.674l6.561 2.922s1.348-6.403 6.555-6.921c1.105-.047 4.735-.444 7.866 5.22.206-.061.392-.1.392-.1s-2.358-6.325-7.386-7.974c-2.523-.86-6.497.065-9.563 2.257-3.066 2.193-4.425 4.596-4.425 4.596zm18.32-4.356l.286-.553c-.056-.076-.218-.27-.674-.656l-.282.545c.232.216.453.436.67.664zm-1.59 1.447l-.271.52c.27.13.529.286.776.468l.268-.511a6.31 6.31 0 0 0-.773-.477zm-1.895-4.014l.083.037.065-.592a7.104 7.104 0 0 0-.82-.304l-.065.57c.252.083.496.181.737.289zm-.99 3.299l-.07.67c.293-.011.58-.006.854.025l.067-.641a6.507 6.507 0 0 0-.852-.054zm-2.778-3.91l-.113-.752c-.257.018-.526.04-.81.077l.117.764c.277-.04.54-.075.806-.089zm.003 4.575l.127.789c.235-.15.488-.27.758-.384l-.117-.744c-.27.093-.532.21-.768.34zm-2.42 2.196l.43.842a7.56 7.56 0 0 1 .617-.915l-.383-.75a8.979 8.979 0 0 0-.664.823zm-1.844-5.65l-.356-.788c-.31.116-.612.236-.897.363l.39.845c.276-.152.57-.296.863-.42zm-4.196 2.676l-.797-.782c-.32.295-.683.642-.868.834l.796.781c.237-.24.596-.578.869-.833zm4.956 5.073a9.63 9.63 0 0 0-.377 1.113l.835.809c.072-.364.164-.771.291-1.192l-.75-.73zM519.5 85.76l.01-.01zm10.277 6.713l-.117 1.677 2.965.207c.608.043 1.683-.338 1.808-1.605l.045-.648a1.696 1.696 0 0 0-1.566-1.841l-1.479-.104.055-.778 2.929.205.118-1.686-2.811-.196c-.726-.051-1.739.492-1.819 1.632l-.04.583c-.08 1.14.84 1.79 1.575 1.842 2.04.152-.49-.034 1.396.098l-.057.815-3.002-.2zm-15.86-1.519s1.597-.027 1.743-2.12c.147-2.094-1.762-2.423-1.762-2.423l-3.465-.243-.461 6.605 1.74.122.112-1.594L513.218 93l2.576.18-1.877-2.226zm-.576-1.399l-1.388-.097.106-1.51 1.396.098s.38.175.338.777c-.042.603-.452.732-.452.732zm6.775-2.663l-1.769-.124c-1.26-.088-1.768 1.05-1.807 1.605l-.338 4.836 1.768.123.081-1.158 1.66.116-.081 1.158 1.714.12.338-4.835c.098-1.408-1.131-1.81-1.566-1.841zm-.274 3.527l-1.669-.116.112-1.603s.025-.361.578-.322l.608.042c.49.034.474.396.474.396l-.112 1.603h.009zm2.768-3.353l1.84.13-.458 6.557-1.841-.128.459-6.559zm4.085 5.173l.34-4.863-1.832-.128-.34 4.863-.118 1.695 1.831.128 2.476.173.119-1.695-2.476-.173zm-27.651-.23l7.164.5s-.923-6.477 3.792-8.745c1.023-.421 4.298-2.035 9.177 2.215.173-.127.335-.228.335-.228s-4.38-5.137-9.668-4.967c-2.665.056-6.083 2.284-8.214 5.392-2.132 3.11-2.586 5.833-2.586 5.833zm15.724-10.36l.08-.617c-.078-.052-.297-.18-.857-.386l-.08.609c.293.123.575.254.857.395zm-.999 1.904l-.077.581c.299.03.596.089.89.174l.077-.572a6.31 6.31 0 0 0-.89-.183zm-3.153-3.124l.09.006-.141-.578a7.104 7.104 0 0 0-.875-.005l.134.558c.265-.009.53 0 .792.019zm.197 3.439l.164.654c.272-.112.543-.204.812-.27l-.157-.625a6.507 6.507 0 0 0-.819.24zm-3.947-2.724l-.363-.668c-.235.105-.48.218-.735.349l.371.677c.246-.131.483-.254.727-.358zm1.568 4.298l.388.698c.17-.221.367-.422.581-.62l-.364-.66c-.222.18-.427.38-.605.582zm-1.524 2.89l.693.645a7.56 7.56 0 0 1 .267-1.07l-.616-.574a8.979 8.979 0 0 0-.344 1zm-3.664-4.677l-.604-.62c-.252.216-.495.432-.72.649l.656.66c.208-.237.434-.472.668-.689zm-3.029 3.95l-1.015-.463c-.2.387-.423.836-.531 1.08l1.015.462c.14-.307.362-.747.531-1.08zm6.393 3.071a9.63 9.63 0 0 0 .027 1.175l1.06.474a12.51 12.51 0 0 1-.133-1.219l-.954-.43zM579.11 91.17c.002-.015.002-.014.003-.014zm12.188-1.463l.988 1.36 2.405-1.748c.493-.358 1.071-1.34.353-2.391l-.382-.526a1.696 1.696 0 0 0-2.383-.403l-1.199.87-.458-.63 2.375-1.726-.993-1.368-2.28 1.657c-.589.427-1.015 1.495-.344 2.419l.344.473c.671.924 1.795.831 2.39.398 1.66-1.195-.397.289 1.133-.823l.48.661-2.429 1.777zm-13.125 9.03s1.205-1.047-.028-2.745c-1.234-1.697-2.908-.722-2.908-.722l-2.81 2.04 3.892 5.357 1.412-1.026-.938-1.292 2.16.405 2.088-1.517-2.868-.5zm-1.341-.7l-1.126.817-.89-1.224 1.133-.823s.404-.11.759.378c.355.489.124.852.124.852zm3.478-6.395l-1.434 1.042c-1.023.742-.68 1.94-.353 2.39l2.849 3.922 1.434-1.042-.682-.939 1.346-.978.682.94 1.39-1.01-2.849-3.922c-.83-1.142-2.03-.66-2.383-.403zm2.057 2.878l-1.353.983-.944-1.3s-.213-.293.236-.619l.492-.358c.397-.288.618 0 .618 0l.944 1.3.007-.006zm-.035-4.348l1.493-1.085 3.865 5.32-1.493 1.084-3.865-5.319zm6.455 1.336l-2.866-3.944-1.485 1.08 2.865 3.944.999 1.375 1.486-1.08 2.008-1.459-1-1.374-2.007 1.458zm-21.33 17.598l5.81-4.221s-4.871-4.37-2.717-9.137c.513-.98 1.984-4.322 8.454-4.202.05-.21.11-.39.11-.39s-6.657-1.12-10.599 2.41c-2.005 1.755-3.192 5.659-2.826 9.41.366 3.751 1.768 6.13 1.768 6.13zm5.387-18.043l-.336-.525c-.094.01-.343.054-.905.256l.331.517c.303-.094.604-.175.91-.248zm.458 2.1l.315.495c.248-.169.512-.315.793-.439l-.309-.487a6.31 6.31 0 0 0-.799.431zm-4.424-.366l.074-.054-.48-.351a7.104 7.104 0 0 0-.674.558l.462.341c.197-.177.405-.34.618-.494zm2.362 2.508l.545.395c.137-.26.285-.505.45-.728l-.523-.378a6.507 6.507 0 0 0-.472.71zm-4.775.45l-.707-.278a14.37 14.37 0 0 0-.34.74l.721.28c.104-.26.206-.506.326-.742zm3.964 2.285l.746.284c-.011-.278.01-.558.046-.848l-.702-.27c-.054.28-.083.565-.09.834zm.691 3.194l.945.048a7.56 7.56 0 0 1-.484-.992l-.84-.043c.106.347.241.673.38.987zm-5.814-1.228l-.86-.087c-.055.327-.103.649-.135.96l.926.084c.007-.315.03-.641.07-.957zm.219 4.971l-1.075.3c.095.424.213.912.287 1.168l1.075-.299c-.09-.325-.203-.805-.287-1.169zm6.871-1.755c.304.387.576.684.776.882l1.117-.318a12.51 12.51 0 0 1-.886-.848l-1.007.284zM63.762 103.483l.014-.006zm8.03 9.286l-.575 1.58 2.793 1.016c.573.209 1.71.139 2.18-1.044l.222-.611a1.696 1.696 0 0 0-.998-2.201l-1.392-.507.266-.733 2.76 1.004.578-1.588-2.649-.964c-.683-.249-1.807-.005-2.197 1.068l-.2.55c-.391 1.073.314 1.952 1.006 2.204 1.92.708-.46-.168 1.316.479l-.28.768-2.83-1.02zm-14.827-5.831s1.542.413 2.26-1.559c.718-1.972-1.027-2.814-1.027-2.814l-3.263-1.188-2.264 6.221 1.64.597.546-1.5.872 2.016 2.426.884-1.19-2.657zm-.169-1.504l-1.307-.476.518-1.422 1.315.479s.317.273.11.84c-.206.567-.636.579-.636.579zm7.247-.693l-1.666-.606c-1.187-.432-1.99.521-2.18 1.045l-1.657 4.554 1.665.607.397-1.091 1.564.569-.397 1.09 1.614.588 1.658-4.554c.483-1.327-.588-2.052-.998-2.202zm-1.236 3.315l-1.572-.572.55-1.51s.124-.34.645-.15l.572.208c.461.168.346.512.346.512l-.55 1.51.01.002zm3.585-2.46l1.734.632-2.248 6.177-1.734-.63 2.248-6.179zm2.502 6.099l1.667-4.581-1.726-.628-1.667 4.58-.581 1.597 1.725.628 2.332.85.582-1.598-2.332-.848zm-26.517-7.843l6.749 2.456s.898-6.481 6.055-7.361c1.1-.124 4.693-.773 8.211 4.658.202-.075.385-.127.385-.127s-2.794-6.145-7.924-7.44c-2.577-.68-6.477.519-9.383 2.92-2.905 2.401-4.093 4.894-4.093 4.894zm17.97-5.624l.248-.572c-.061-.072-.237-.254-.718-.607l-.244.563c.247.2.482.403.715.616zm-1.484 1.555l-.235.537c.28.111.548.249.808.412l.231-.528a6.31 6.31 0 0 0-.804-.421zm-2.17-3.873l.085.03.023-.594a7.104 7.104 0 0 0-.839-.246l-.025.574c.257.064.508.146.756.236zm-.759 3.36l-.023.674c.293-.032.579-.047.855-.035l.022-.644a6.507 6.507 0 0 0-.854.005zm-3.043-3.706l-.165-.742a14.37 14.37 0 0 0-.803.132l.17.754c.273-.059.535-.112.798-.144zm.322 4.564l.182.777c.224-.165.468-.304.729-.436l-.168-.733a5.097 5.097 0 0 0-.743.392zm-2.261 2.358l.488.81a7.56 7.56 0 0 1 .551-.955l-.434-.721a8.979 8.979 0 0 0-.605.866zm-2.233-5.506l-.41-.762c-.301.137-.594.278-.87.424l.448.816c.265-.17.547-.335.832-.478zm-4 2.961l-.849-.724c-.299.316-.637.687-.808.892l.849.724c.219-.256.554-.619.808-.892zm5.298 4.715a9.63 9.63 0 0 0-.298 1.137l.889.748c.047-.368.11-.78.208-1.209l-.799-.676zM34.653 137.964c.006-.014.007-.013.007-.013zm12.12 1.953l.575 1.58 2.793-1.018c.573-.208 1.4-.993.998-2.201l-.222-.61a1.696 1.696 0 0 0-2.18-1.045l-1.392.506-.267-.733 2.76-1.004-.578-1.588-2.649.964c-.683.249-1.388 1.157-.997 2.23l.2.55c.39 1.073 1.496 1.294 2.188 1.042 1.926-.691-.461.168 1.316-.48l.28.769-2.825 1.038zm-15.107 5.063s1.448-.675.73-2.647c-.718-1.972-2.595-1.496-2.595-1.496l-3.264 1.188 2.265 6.221 1.64-.597-.546-1.5 1.964.984 2.426-.883-2.62-1.27zm-1.095-1.044l-1.307.476-.518-1.422 1.316-.48s.418.007.624.574c.207.567-.115.852-.115.852zm5.106-5.188l-1.666.606c-1.188.432-1.189 1.678-.998 2.201l1.657 4.555 1.666-.606-.397-1.09 1.564-.57.397 1.09 1.614-.587-1.658-4.555c-.482-1.326-1.77-1.193-2.18-1.044zm1.184 3.334l-1.572.572-.55-1.51s-.123-.34.398-.53l.572-.208c.462-.168.594.17.594.17l.55 1.509.008-.003zm1.165-4.19l1.734-.63 2.249 6.177-1.735.632-2.248-6.178zm5.836 3.064l-1.667-4.58-1.726.627 1.667 4.581.582 1.597 1.725-.628 2.332-.849-.58-1.596-2.333.848zm-25.354 11.037l6.748-2.456s-3.478-5.543-.092-9.532c.762-.801 3.098-3.608 9.284-1.71.106-.186.213-.344.213-.344s-6.09-2.911-10.852-.605c-2.412 1.135-4.629 4.56-5.311 8.267-.683 3.707.01 6.38.01 6.38zm10.151-15.86l-.178-.596c-.093-.016-.345-.043-.94-.004l.175.588c.317-.006.629-.001.943.013zm-.138 2.146l.166.562c.285-.094.58-.161.884-.203l-.163-.553a6.31 6.31 0 0 0-.887.194zm-4.151-1.572l.085-.031-.365-.47a7.104 7.104 0 0 0-.8.35l.349.456c.238-.116.483-.215.73-.305zm1.578 3.062l.416.53c.203-.212.413-.407.632-.576l-.398-.507c-.258.193-.471.38-.65.553zm-4.713-.883l-.604-.463c-.172.192-.35.395-.53.618l.616.468c.17-.22.337-.43.518-.623zm3.18 3.289l.639.479c.066-.271.163-.534.278-.803l-.6-.454c-.13.255-.236.521-.317.778zm-.216 3.26l.895.307a7.56 7.56 0 0 1-.192-1.086l-.796-.274c.006.363.047.714.093 1.053zm-5.25-2.783l-.804-.32c-.142.3-.277.595-.394.885l.868.336c.093-.3.204-.608.33-.9zm-1.16 4.84l-1.116-.01c-.026.435-.047.937-.046 1.203l1.116.01c.003-.338.026-.83.046-1.203zm7.089.206c.185.456.364.816.502 1.062l1.162.002a12.51 12.51 0 0 1-.618-1.06l-1.046-.004zM94.606 141.302l.011-.01zm10.721 5.98v1.68h2.973c.61 0 1.655-.454 1.69-1.726v-.65a1.696 1.696 0 0 0-1.69-1.727h-1.482v-.78h2.937v-1.69h-2.819c-.727 0-1.7.612-1.7 1.755v.585c0 1.142.964 1.727 1.7 1.727 2.046.009-.49 0 1.4 0v.817l-3.009.01zm-15.927-.408s1.59-.14 1.59-2.238c0-2.099-1.926-2.294-1.926-2.294H85.59v6.62h1.745v-1.596l1.51 1.597h2.581l-2.027-2.09zm-.673-1.356h-1.39v-1.514h1.4s.39.149.39.752c0 .604-.4.762-.4.762zm6.573-3.13h-1.773c-1.263 0-1.69 1.17-1.69 1.728v4.847h1.772v-1.16h1.664v1.16h1.718v-4.847c0-1.412-1.255-1.727-1.691-1.727zm-.027 3.538H93.6v-1.606s0-.362.555-.362h.609c.49 0 .5.362.5.362v1.606h.009zm2.527-3.537h1.845v6.574H97.8v-6.574zm4.436 4.875v-4.875H100.4v6.574H104.718v-1.7h-2.482zm-27.6 1.699h7.182s-1.373-6.398 3.173-8.989c.99-.492 4.145-2.33 9.309 1.57.164-.14.318-.251.318-.251s-4.727-4.82-9.99-4.28c-2.655.24-5.91 2.701-7.819 5.951-1.909 3.25-2.173 5.999-2.173 5.999zm14.964-11.43l.036-.623c-.081-.046-.309-.158-.881-.325l-.037.613c.3.102.591.213.882.334zm-.864 1.968l-.036.585c.3.009.6.046.9.111l.036-.576a6.31 6.31 0 0 0-.9-.12zm-3.363-2.897h.09l-.181-.567c-.282 0-.573.019-.873.056l.173.548c.263-.028.527-.037.79-.037zm.436 3.417l.21.64c.263-.13.526-.241.79-.325l-.2-.612c-.309.092-.573.195-.8.297zm-4.127-2.442l-.41-.641c-.227.12-.463.25-.708.4l.418.65c.236-.15.463-.289.7-.41zm1.863 4.178l.437.669c.154-.232.336-.446.536-.66l-.409-.631c-.209.195-.4.409-.564.622zm-1.318 2.99l.737.594c.036-.362.1-.724.19-1.086l-.654-.53c-.118.344-.2.688-.273 1.022zm-3.982-4.41l-.645-.576c-.236.232-.464.464-.673.696l.7.613c.191-.25.4-.501.618-.734zm-2.745 4.15l-1.045-.39c-.173.4-.364.864-.455 1.114l1.045.39c.119-.315.31-.77.455-1.114zm6.59 2.619c.02.492.065.891.11 1.17l1.09.399a12.51 12.51 0 0 1-.217-1.207l-.982-.362zM146.762 125.483l.014-.006zm8.03 9.286l-.575 1.58 2.793 1.016c.573.209 1.71.139 2.18-1.044l.222-.611a1.696 1.696 0 0 0-.998-2.201l-1.392-.507.266-.733 2.76 1.004.578-1.588-2.649-.964c-.683-.249-1.807-.005-2.197 1.068l-.2.55c-.391 1.073.314 1.952 1.006 2.204 1.92.708-.46-.168 1.316.479l-.28.768-2.83-1.02zm-14.827-5.831s1.542.413 2.26-1.559c.718-1.972-1.027-2.814-1.027-2.814l-3.263-1.188-2.264 6.221 1.64.597.546-1.5.872 2.016 2.426.884-1.19-2.657zm-.169-1.504l-1.307-.476.518-1.422 1.315.479s.317.273.11.84c-.206.567-.636.579-.636.579zm7.247-.693l-1.666-.606c-1.187-.432-1.99.521-2.18 1.045l-1.657 4.554 1.665.607.397-1.091 1.564.569-.397 1.09 1.614.588 1.658-4.554c.483-1.327-.588-2.052-.998-2.202zm-1.236 3.315l-1.572-.572.55-1.51s.124-.34.645-.15l.572.208c.461.168.346.512.346.512l-.55 1.51.01.002zm3.585-2.46l1.734.632-2.248 6.177-1.734-.63 2.248-6.179zm2.502 6.099l1.667-4.581-1.726-.628-1.667 4.58-.581 1.597 1.725.628 2.332.85.582-1.598-2.332-.848zm-26.517-7.843l6.749 2.456s.898-6.481 6.055-7.361c1.1-.124 4.693-.773 8.211 4.658.202-.075.385-.127.385-.127s-2.794-6.145-7.924-7.44c-2.577-.68-6.477.519-9.383 2.92-2.905 2.401-4.093 4.894-4.093 4.894zm17.97-5.624l.248-.572c-.061-.072-.237-.254-.718-.607l-.244.563c.247.2.482.403.715.616zm-1.484 1.555l-.235.537c.28.111.548.249.808.412l.231-.528a6.31 6.31 0 0 0-.804-.421zm-2.17-3.873l.085.03.023-.594a7.104 7.104 0 0 0-.839-.246l-.025.574c.257.064.508.146.756.236zm-.759 3.36l-.023.674c.293-.032.579-.047.855-.035l.022-.644a6.507 6.507 0 0 0-.854.005zm-3.043-3.706l-.165-.742a14.37 14.37 0 0 0-.803.132l.17.754c.273-.059.535-.112.798-.144zm.322 4.564l.182.777c.224-.165.468-.304.729-.436l-.168-.733a5.097 5.097 0 0 0-.743.392zm-2.261 2.358l.488.81a7.56 7.56 0 0 1 .551-.955l-.434-.721a8.979 8.979 0 0 0-.605.866zm-2.233-5.506l-.41-.762c-.301.137-.594.278-.87.424l.448.816c.265-.17.547-.335.832-.478zm-4 2.961l-.849-.724c-.299.316-.637.687-.808.892l.849.724c.219-.256.554-.619.808-.892zm5.298 4.715a9.63 9.63 0 0 0-.298 1.137l.889.748c.047-.368.11-.78.208-1.209l-.799-.676zM200.762 117.483l.014-.006zm8.03 9.286l-.575 1.58 2.793 1.016c.573.209 1.71.139 2.18-1.044l.222-.611a1.696 1.696 0 0 0-.998-2.201l-1.392-.507.266-.733 2.76 1.004.578-1.588-2.649-.964c-.683-.249-1.807-.005-2.197 1.068l-.2.55c-.391 1.073.314 1.952 1.006 2.204 1.92.708-.46-.168 1.316.479l-.28.768-2.83-1.02zm-14.827-5.831s1.542.413 2.26-1.559c.718-1.972-1.027-2.814-1.027-2.814l-3.263-1.188-2.264 6.221 1.64.597.546-1.5.872 2.016 2.426.884-1.19-2.657zm-.169-1.504l-1.307-.476.518-1.422 1.315.479s.317.273.11.84c-.206.567-.636.579-.636.579zm7.247-.693l-1.666-.606c-1.187-.432-1.99.521-2.18 1.045l-1.657 4.554 1.665.607.397-1.091 1.564.569-.397 1.09 1.614.588 1.658-4.554c.483-1.327-.588-2.052-.998-2.202zm-1.236 3.315l-1.572-.572.55-1.51s.124-.34.645-.15l.572.208c.461.168.346.512.346.512l-.55 1.51.01.002zm3.585-2.46l1.734.632-2.248 6.177-1.734-.63 2.248-6.179zm2.502 6.099l1.667-4.581-1.726-.628-1.667 4.58-.581 1.597 1.725.628 2.332.85.582-1.598-2.332-.848zm-26.517-7.843l6.749 2.456s.898-6.481 6.055-7.361c1.1-.124 4.693-.773 8.211 4.658.202-.075.385-.127.385-.127s-2.794-6.145-7.924-7.44c-2.577-.68-6.477.519-9.383 2.92-2.905 2.401-4.093 4.894-4.093 4.894zm17.97-5.624l.248-.572c-.061-.072-.237-.254-.718-.607l-.244.563c.247.2.482.403.715.616zm-1.484 1.555l-.235.537c.28.111.548.249.808.412l.231-.528a6.31 6.31 0 0 0-.804-.421zm-2.17-3.873l.085.03.023-.594a7.104 7.104 0 0 0-.839-.246l-.025.574c.257.064.508.146.756.236zm-.759 3.36l-.023.674c.293-.032.579-.047.855-.035l.022-.644a6.507 6.507 0 0 0-.854.005zm-3.043-3.706l-.165-.742a14.37 14.37 0 0 0-.803.132l.17.754c.273-.059.535-.112.798-.144zm.322 4.564l.182.777c.224-.165.468-.304.729-.436l-.168-.733a5.097 5.097 0 0 0-.743.392zm-2.261 2.358l.488.81a7.56 7.56 0 0 1 .551-.955l-.434-.721a8.979 8.979 0 0 0-.605.866zm-2.233-5.506l-.41-.762c-.301.137-.594.278-.87.424l.448.816c.265-.17.547-.335.832-.478zm-4 2.961l-.849-.724c-.299.316-.637.687-.808.892l.849.724c.219-.256.554-.619.808-.892zm5.298 4.715a9.63 9.63 0 0 0-.298 1.137l.889.748c.047-.368.11-.78.208-1.209l-.799-.676zM195.372 156.824l.005-.014zm12.275-.181l.84 1.455 2.575-1.486c.527-.304 1.205-1.221.6-2.341l-.324-.563a1.696 1.696 0 0 0-2.328-.65l-1.284.74-.39-.675 2.543-1.468-.845-1.464-2.44 1.41c-.63.363-1.166 1.38-.595 2.37l.292.506c.571.989 1.699 1.014 2.336.646 1.776-1.015-.425.245 1.213-.7l.408.707-2.601 1.513zm-13.998 7.61s1.308-.916.26-2.734c-1.05-1.817-2.817-1.022-2.817-1.022l-3.007 1.736 3.31 5.734 1.512-.873-.799-1.383 2.106.628 2.236-1.29-2.8-.796zm-1.26-.838l-1.205.695-.757-1.31 1.213-.7s.413-.067.714.456c.302.522.035.859.035.859zm4.127-5.996l-1.535.886c-1.094.632-.88 1.859-.6 2.341l2.423 4.198 1.535-.886-.58-1.006 1.44-.832.58 1.006 1.489-.86-2.424-4.197c-.706-1.222-1.95-.869-2.328-.65zm1.746 3.077l-1.449.836-.803-1.39s-.181-.314.299-.592l.527-.304c.426-.246.614.063.614.063l.804 1.392.008-.005zm.42-4.327l1.598-.923 3.287 5.693-1.599.923-3.287-5.693zm6.279 2.003l-2.438-4.222-1.59.919 2.438 4.221.85 1.472 1.59-.918 2.149-1.241-.85-1.472-2.15 1.241zm-23.053 15.272l6.22-3.591s-4.388-4.854-1.747-9.37c.612-.922 2.425-4.092 8.847-3.296.072-.203.15-.376.15-.376s-6.504-1.81-10.793 1.288c-2.178 1.536-3.766 5.294-3.794 9.064-.029 3.769 1.117 6.28 1.117 6.28zm7.244-17.381l-.28-.557c-.094 0-.346.018-.926.16l.275.548c.31-.061.618-.11.93-.151zm.236 2.136l.261.525c.265-.142.543-.26.835-.353l-.256-.517a6.31 6.31 0 0 0-.84.345zm-4.361-.827l.078-.045-.44-.4c-.245.141-.487.303-.728.485l.423.388c.215-.156.438-.296.667-.428zm2.086 2.741l.501.45c.164-.244.336-.472.523-.676l-.48-.43a6.507 6.507 0 0 0-.544.656zm-4.795-.05l-.675-.351a14.37 14.37 0 0 0-.415.7l.688.354c.13-.247.257-.481.402-.704zm3.703 2.686l.712.36c.018-.277.068-.553.135-.838l-.67-.343a5.097 5.097 0 0 0-.177.821zm.353 3.249l.935.146a7.56 7.56 0 0 1-.378-1.036l-.831-.131c.07.356.17.695.274 1.02zm-5.653-1.83l-.847-.175c-.089.319-.17.634-.235.94l.913.18c.04-.313.096-.634.169-.944zm-.303 4.968l-1.1.185c.05.432.117.93.163 1.192l1.1-.185a32.758 32.758 0 0 1-.163-1.192zm7.017-1.028c.262.417.501.74.68.959l1.144-.2a12.51 12.51 0 0 1-.792-.936l-1.032.177zM255.372 138.824l.005-.014zm12.275-.181l.84 1.455 2.575-1.486c.527-.304 1.205-1.221.6-2.341l-.324-.563a1.696 1.696 0 0 0-2.328-.65l-1.284.74-.39-.675 2.543-1.468-.845-1.464-2.44 1.41c-.63.363-1.166 1.38-.595 2.37l.292.506c.571.989 1.699 1.014 2.336.646 1.776-1.015-.425.245 1.213-.7l.408.707-2.601 1.513zm-13.998 7.61s1.308-.916.26-2.734c-1.05-1.817-2.817-1.022-2.817-1.022l-3.007 1.736 3.31 5.734 1.512-.873-.799-1.383 2.106.628 2.236-1.29-2.8-.796zm-1.26-.838l-1.205.695-.757-1.31 1.213-.7s.413-.067.714.456c.302.522.035.859.035.859zm4.127-5.996l-1.535.886c-1.094.632-.88 1.859-.6 2.341l2.423 4.198 1.535-.886-.58-1.006 1.44-.832.58 1.006 1.489-.86-2.424-4.197c-.706-1.222-1.95-.869-2.328-.65zm1.746 3.077l-1.449.836-.803-1.39s-.181-.314.299-.592l.527-.304c.426-.246.614.063.614.063l.804 1.392.008-.005zm.42-4.327l1.598-.923 3.287 5.693-1.599.923-3.287-5.693zm6.279 2.003l-2.438-4.222-1.59.919 2.438 4.221.85 1.472 1.59-.918 2.149-1.241-.85-1.472-2.15 1.241zm-23.053 15.272l6.22-3.591s-4.388-4.854-1.747-9.37c.612-.922 2.425-4.092 8.847-3.296.072-.203.15-.376.15-.376s-6.504-1.81-10.793 1.288c-2.178 1.536-3.766 5.294-3.794 9.064-.029 3.769 1.117 6.28 1.117 6.28zm7.244-17.381l-.28-.557c-.094 0-.346.018-.926.16l.275.548c.31-.061.618-.11.93-.151zm.236 2.136l.261.525c.265-.142.543-.26.835-.353l-.256-.517a6.31 6.31 0 0 0-.84.345zm-4.361-.827l.078-.045-.44-.4c-.245.141-.487.303-.728.485l.423.388c.215-.156.438-.296.667-.428zm2.086 2.741l.501.45c.164-.244.336-.472.523-.676l-.48-.43a6.507 6.507 0 0 0-.544.656zm-4.795-.05l-.675-.351a14.37 14.37 0 0 0-.415.7l.688.354c.13-.247.257-.481.402-.704zm3.703 2.686l.712.36c.018-.277.068-.553.135-.838l-.67-.343a5.097 5.097 0 0 0-.177.821zm.353 3.249l.935.146a7.56 7.56 0 0 1-.378-1.036l-.831-.131c.07.356.17.695.274 1.02zm-5.653-1.83l-.847-.175c-.089.319-.17.634-.235.94l.913.18c.04-.313.096-.634.169-.944zm-.303 4.968l-1.1.185c.05.432.117.93.163 1.192l1.1-.185a32.758 32.758 0 0 1-.163-1.192zm7.017-1.028c.262.417.501.74.68.959l1.144-.2a12.51 12.51 0 0 1-.792-.936l-1.032.177zM307.249 145.897l.015.002zm2.31 12.057l-1.287 1.08 1.91 2.278c.392.467 1.413.975 2.41.185l.499-.418a1.696 1.696 0 0 0 .236-2.405l-.953-1.135.598-.502 1.887 2.25 1.295-1.087-1.812-2.159c-.467-.557-1.562-.908-2.437-.174l-.448.376c-.875.734-.704 1.849-.23 2.413 1.307 1.573-.316-.376.9 1.072l-.626.525-1.942-2.299zm-9.925-12.463s1.13 1.129 2.737-.22c1.608-1.349.519-2.95.519-2.95l-2.233-2.661-5.071 4.256 1.121 1.337 1.224-1.027-.253 2.183 1.66 1.978.296-2.896zm.607-1.387l-.895-1.066 1.16-.972.9 1.072s.137.395-.325.783-.84.183-.84.183zm6.622 3.023l-1.14-1.358c-.812-.968-1.983-.543-2.41-.185L299.6 148.7l1.14 1.358.889-.746 1.069 1.274-.89.746 1.105 1.317 3.713-3.116c1.082-.907.517-2.071.237-2.406zm-2.728 2.254l-1.075-1.282 1.23-1.032s.278-.233.634.192l.392.466c.315.376.044.616.044.616l-1.23 1.033.005.007zm4.335-.338l1.186 1.413-5.036 4.226-1.187-1.414 5.037-4.225zm-.883 6.532l3.734-3.134-1.18-1.407-3.735 3.134-1.301 1.092 1.18 1.407 1.595 1.901 1.302-1.092-1.595-1.901zm-19.043-20.05l4.616 5.5s4.02-5.163 8.925-3.347c1.014.443 4.45 1.678 4.782 8.14.212.036.397.083.397.083s.653-6.72-3.143-10.405c-1.891-1.879-5.868-2.79-9.585-2.163-3.717.626-5.992 2.191-5.992 2.191zm18.375 4.114l.5-.372c-.017-.092-.078-.338-.318-.884l-.493.366c.115.295.216.59.31.89zm-2.063.604l-.472.348c.186.236.35.49.493.761l.465-.342a6.31 6.31 0 0 0-.486-.767zm.057-4.439l.058.07.318-.504a7.104 7.104 0 0 0-.604-.632l-.309.484c.191.184.368.38.537.582zm-2.337 2.531l-.357.572c.27.118.524.249.758.397l.34-.547a6.507 6.507 0 0 0-.741-.422zm-.782-4.731l.228-.726a14.37 14.37 0 0 0-.762-.286l-.23.738c.266.085.52.17.764.274zm-2.003 4.113l-.232.764c.277-.03.558-.029.85-.013l.22-.719a5.097 5.097 0 0 0-.838-.032zm-3.138.912l.018.946c.3-.205.619-.389.955-.552l-.015-.841c-.34.13-.655.288-.958.447zm.82-5.885l.025-.865c-.33-.032-.653-.056-.966-.067l-.02.93c.316-.015.642-.016.96.002zm-4.945.565l-.373-1.052c-.417.125-.896.277-1.146.368l.373 1.052c.318-.113.79-.259 1.146-.368zm2.23 6.732a9.63 9.63 0 0 0-.826.835l.396 1.093c.224-.296.485-.62.784-.943l-.354-.985zM339.243 95.776v-.015zm11.473-4.369l1.288 1.08 1.91-2.276c.392-.467.716-1.56-.236-2.406l-.498-.418a1.696 1.696 0 0 0-2.41.185l-.952 1.135-.598-.5 1.888-2.25-1.295-1.087-1.811 2.16c-.468.556-.623 1.695.251 2.43l.449.376c.875.734 1.942.372 2.415-.192 1.322-1.561-.315.376.9-1.073l.626.525-1.927 2.311zm-10.55 11.939s.915-1.308-.692-2.657c-1.608-1.35-2.996.002-2.996.002l-2.232 2.66 5.071 4.256 1.122-1.337-1.223-1.027 2.193-.13 1.66-1.977-2.904.21zm-1.472-.356l-.894 1.065-1.16-.973.9-1.072s.366-.204.828.184c.463.388.326.796.326.796zm1.828-7.047l-1.14 1.358c-.812.968-.19 2.048.237 2.406l3.713 3.115 1.14-1.358-.89-.746 1.07-1.274.889.746 1.104-1.316-3.713-3.116c-1.081-.907-2.13-.15-2.41.185zm2.693 2.295l-1.075 1.282-1.231-1.033s-.277-.233.079-.658l.391-.466c.316-.376.6-.15.6-.15l1.23 1.032.006-.007zm-1.086-4.21l1.186-1.414 5.037 4.226-1.187 1.414-5.036-4.226zm6.586-.265l-3.734-3.133-1.18 1.406 3.734 3.134 1.302 1.092 1.18-1.406 1.595-1.902-1.302-1.092-1.595 1.901zm-16.439 22.235l4.616-5.501s-5.783-3.061-4.846-8.208c.26-1.076.88-4.674 7.186-6.123a5.669 5.669 0 0 1 .012-.405s-6.73.524-9.7 4.902c-1.522 2.189-1.73 6.264-.467 9.815 1.263 3.552 3.199 5.52 3.199 5.52zm.862-18.81l-.453-.428c-.088.033-.32.136-.816.467l.446.422c.271-.164.544-.316.823-.461zm.953 1.927l.425.404c.2-.224.42-.43.663-.618l-.417-.398c-.249.195-.47.401-.671.612zm-4.382.714l.059-.07-.55-.224c-.182.216-.355.45-.52.704l.531.22c.149-.22.31-.428.48-.63zm2.899 1.863l.625.251c.07-.285.154-.559.26-.814l-.599-.241a6.507 6.507 0 0 0-.286.804zm-4.524 1.592l-.754-.099a14.37 14.37 0 0 0-.15.8l.767.097c.038-.276.077-.54.137-.798zm4.399 1.258l.792.095a5.133 5.133 0 0 1-.16-.834l-.747-.093c.015.286.056.57.115.832zm1.443 2.932l.928-.183a7.56 7.56 0 0 1-.71-.844l-.825.161c.187.311.398.595.607.866zm-5.938.215l-.856.124c.026.33.057.654.1.963l.92-.142a9.352 9.352 0 0 1-.164-.945zm1.415 4.77l-.971.551c.195.389.428.834.561 1.064l.97-.55a32.758 32.758 0 0 1-.56-1.064zm6.242-3.365c.389.303.724.524.966.669l1.007-.58c-.33-.17-.695-.37-1.064-.608l-.909.52zM380.505 130.876c.014-.005.014-.005.015-.004zm7.362 9.824l-.683 1.536 2.715 1.209c.557.247 1.697.257 2.248-.89l.264-.594a1.696 1.696 0 0 0-.842-2.266l-1.354-.602.317-.713 2.683 1.194.687-1.544-2.574-1.146c-.665-.296-1.803-.131-2.267.912l-.238.534c-.465 1.044.178 1.97.85 2.27 1.865.84-.448-.2 1.28.57l-.333.746-2.753-1.216zm-14.384-6.851s1.51.52 2.364-1.398c.853-1.917-.828-2.879-.828-2.879l-3.172-1.412-2.693 6.048 1.594.71.65-1.459.729 2.073 2.358 1.05-1.002-2.733zm-.063-1.512l-1.27-.566.615-1.383 1.279.57s.297.294.051.846c-.245.551-.675.533-.675.533zm7.277-.186l-1.62-.72c-1.153-.515-2.02.38-2.246.89l-1.972 4.427 1.62.721.472-1.06 1.52.677-.473 1.06 1.57.699 1.972-4.428c.574-1.29-.444-2.088-.843-2.266zm-1.464 3.221l-1.528-.68.654-1.468s.147-.33.654-.105l.556.248c.449.2.31.534.31.534l-.654 1.467.008.004zm3.748-2.204l1.686.75-2.674 6.007-1.686-.751 2.674-6.006zm2.07 6.258l1.983-4.453-1.678-.747-1.982 4.453-.692 1.553 1.678.746 2.267 1.01.691-1.553-2.267-1.009zm-25.905-9.674l6.561 2.922s1.348-6.403 6.555-6.921c1.105-.047 4.735-.444 7.866 5.22.206-.061.392-.1.392-.1s-2.358-6.325-7.386-7.974c-2.523-.86-6.497.065-9.563 2.257-3.066 2.193-4.425 4.596-4.425 4.596zm18.32-4.356l.286-.553c-.056-.076-.218-.27-.674-.656l-.282.545c.232.216.453.436.67.664zm-1.59 1.447l-.271.52c.27.13.529.286.776.468l.268-.511a6.31 6.31 0 0 0-.773-.477zm-1.895-4.014l.083.037.065-.592a7.104 7.104 0 0 0-.82-.304l-.065.57c.252.083.496.181.737.289zm-.99 3.299l-.07.67c.293-.011.58-.006.854.025l.067-.641a6.507 6.507 0 0 0-.852-.054zm-2.778-3.91l-.113-.752c-.257.018-.526.04-.81.077l.117.764c.277-.04.54-.075.806-.089zm.003 4.575l.127.789c.235-.15.488-.27.758-.384l-.117-.744c-.27.093-.532.21-.768.34zm-2.42 2.196l.43.842a7.56 7.56 0 0 1 .617-.915l-.383-.75a8.979 8.979 0 0 0-.664.823zm-1.844-5.65l-.356-.788c-.31.116-.612.236-.897.363l.39.845c.276-.152.57-.296.863-.42zm-4.196 2.676l-.797-.782c-.32.295-.683.642-.868.834l.796.781c.237-.24.596-.578.869-.833zm4.956 5.073a9.63 9.63 0 0 0-.377 1.113l.835.809c.072-.364.164-.771.291-1.192l-.75-.73zM431.505 106.876c.014-.005.014-.005.015-.004zm7.362 9.824l-.683 1.536 2.715 1.209c.557.247 1.697.257 2.248-.89l.264-.594a1.696 1.696 0 0 0-.842-2.266l-1.354-.602.317-.713 2.683 1.194.687-1.544-2.574-1.146c-.665-.296-1.803-.131-2.267.912l-.238.534c-.465 1.044.178 1.97.85 2.27 1.865.84-.448-.2 1.28.57l-.333.746-2.753-1.216zm-14.384-6.851s1.51.52 2.364-1.398c.853-1.917-.828-2.879-.828-2.879l-3.172-1.412-2.693 6.048 1.594.71.65-1.459.729 2.073 2.358 1.05-1.002-2.733zm-.063-1.512l-1.27-.566.615-1.383 1.279.57s.297.294.051.846c-.245.551-.675.533-.675.533zm7.277-.186l-1.62-.72c-1.153-.515-2.02.38-2.246.89l-1.972 4.427 1.62.721.472-1.06 1.52.677-.473 1.06 1.57.699 1.972-4.428c.574-1.29-.444-2.088-.843-2.266zm-1.464 3.221l-1.528-.68.654-1.468s.147-.33.654-.105l.556.248c.449.2.31.534.31.534l-.654 1.467.008.004zm3.748-2.204l1.686.75-2.674 6.007-1.686-.751 2.674-6.006zm2.07 6.258l1.983-4.453-1.678-.747-1.982 4.453-.692 1.553 1.678.746 2.267 1.01.691-1.553-2.267-1.009zm-25.905-9.674l6.561 2.922s1.348-6.403 6.555-6.921c1.105-.047 4.735-.444 7.866 5.22.206-.061.392-.1.392-.1s-2.358-6.325-7.386-7.974c-2.523-.86-6.497.065-9.563 2.257-3.066 2.193-4.425 4.596-4.425 4.596zm18.32-4.356l.286-.553c-.056-.076-.218-.27-.674-.656l-.282.545c.232.216.453.436.67.664zm-1.59 1.447l-.271.52c.27.13.529.286.776.468l.268-.511a6.31 6.31 0 0 0-.773-.477zm-1.895-4.014l.083.037.065-.592a7.104 7.104 0 0 0-.82-.304l-.065.57c.252.083.496.181.737.289zm-.99 3.299l-.07.67c.293-.011.58-.006.854.025l.067-.641a6.507 6.507 0 0 0-.852-.054zm-2.778-3.91l-.113-.752c-.257.018-.526.04-.81.077l.117.764c.277-.04.54-.075.806-.089zm.003 4.575l.127.789c.235-.15.488-.27.758-.384l-.117-.744c-.27.093-.532.21-.768.34zm-2.42 2.196l.43.842a7.56 7.56 0 0 1 .617-.915l-.383-.75a8.979 8.979 0 0 0-.664.823zm-1.844-5.65l-.356-.788c-.31.116-.612.236-.897.363l.39.845c.276-.152.57-.296.863-.42zm-4.196 2.676l-.797-.782c-.32.295-.683.642-.868.834l.796.781c.237-.24.596-.578.869-.833zm4.956 5.073a9.63 9.63 0 0 0-.377 1.113l.835.809c.072-.364.164-.771.291-1.192l-.75-.73zM420.726 161.508l.014.006zm-.675 12.258l-1.511.737 1.303 2.672c.267.547 1.134 1.287 2.294.762l.584-.285a1.696 1.696 0 0 0 .811-2.277l-.65-1.331.702-.342 1.287 2.639 1.519-.741-1.236-2.533c-.318-.654-1.296-1.26-2.322-.759l-.526.257c-1.027.5-1.13 1.623-.807 2.285.888 1.842-.215-.441.614 1.258l-.735.358-1.327-2.7zm-6.615-14.495s.822 1.37 2.709.45c1.886-.92 1.216-2.738 1.216-2.738l-1.522-3.122-5.95 2.903.764 1.569 1.436-.7-.774 2.056 1.132 2.32.989-2.738zm.923-1.198l-.61-1.25 1.361-.664.614 1.258s.038.417-.505.681c-.542.265-.86-.025-.86-.025zm5.694 4.535l-.777-1.593c-.554-1.136-1.793-1.007-2.293-.763l-4.357 2.125.777 1.593 1.043-.508.73 1.495-1.044.509.754 1.544 4.356-2.125c1.269-.619 1.003-1.885.811-2.277zm-3.191 1.527l-.734-1.504 1.444-.704s.326-.159.569.34l.267.547c.215.441-.107.608-.107.608l-1.443.704.004.009zm4.287.72l.81 1.659-5.91 2.882-.809-1.659 5.91-2.882zm-2.437 6.125l4.382-2.137-.805-1.65-4.382 2.136-1.527.745.805 1.65 1.088 2.231 1.527-.745-1.088-2.23zm-13.626-24.062l3.148 6.455s5.149-4.039 9.47-1.089c.877.675 3.912 2.704 2.67 9.055.197.086.365.176.365.176s2.26-6.361-.532-10.856c-1.38-2.28-5.02-4.127-8.777-4.418-3.758-.291-6.344.677-6.344.677zm16.833 8.438l.576-.24c.005-.094.006-.347-.095-.935l-.567.236c.04.315.067.625.086.94zm-2.147.087l-.542.224c.123.273.221.56.294.857l.534-.22a6.31 6.31 0 0 0-.286-.861zm1.129-4.293l.04.081.43-.411a7.104 7.104 0 0 0-.433-.76l-.417.395c.14.225.264.458.38.695zm-2.88 1.89l-.484.469c.232.18.448.368.639.568l.463-.448a6.507 6.507 0 0 0-.618-.59zm.386-4.78l.396-.649a14.37 14.37 0 0 0-.67-.462l-.4.66c.237.148.462.291.674.45zm-2.94 3.507l-.409.685c.277.037.548.107.828.193l.388-.645a5.097 5.097 0 0 0-.806-.233zm-3.264.126l-.212.922a7.56 7.56 0 0 1 1.06-.305l.19-.82c-.361.044-.706.121-1.038.203zm2.219-5.513l.234-.832c-.312-.111-.62-.214-.92-.3l-.245.898c.31.062.626.14.93.234zm-4.935-.648l-.107-1.11c-.435.02-.936.051-1.201.08l.108 1.11c.335-.032.828-.06 1.2-.08zm.536 7.072a9.63 9.63 0 0 0-1.004.61l.12 1.156c.29-.232.62-.485.989-.725l-.105-1.041zM479.11 122.17c.002-.015.002-.014.003-.014zm12.188-1.463l.988 1.36 2.405-1.748c.493-.358 1.071-1.34.353-2.391l-.382-.526a1.696 1.696 0 0 0-2.383-.403l-1.199.87-.458-.63 2.375-1.726-.993-1.368-2.28 1.657c-.589.427-1.015 1.495-.344 2.419l.344.473c.671.924 1.795.831 2.39.398 1.66-1.195-.397.289 1.133-.823l.48.661-2.429 1.777zm-13.125 9.03s1.205-1.047-.028-2.745c-1.234-1.697-2.908-.722-2.908-.722l-2.81 2.04 3.892 5.357 1.412-1.026-.938-1.292 2.16.405 2.088-1.517-2.868-.5zm-1.341-.7l-1.126.817-.89-1.224 1.133-.823s.404-.11.759.378c.355.489.124.852.124.852zm3.478-6.395l-1.434 1.042c-1.023.742-.68 1.94-.353 2.39l2.849 3.922 1.434-1.042-.682-.939 1.346-.978.682.94 1.39-1.01-2.849-3.922c-.83-1.142-2.03-.66-2.383-.403zm2.057 2.878l-1.353.983-.944-1.3s-.213-.293.236-.619l.492-.358c.397-.288.618 0 .618 0l.944 1.3.007-.006zm-.035-4.348l1.493-1.085 3.865 5.32-1.493 1.084-3.865-5.319zm6.455 1.336l-2.866-3.944-1.485 1.08 2.865 3.944.999 1.375 1.486-1.08 2.008-1.459-1-1.374-2.007 1.458zm-21.33 17.598l5.81-4.221s-4.871-4.37-2.717-9.137c.513-.98 1.984-4.322 8.454-4.202.05-.21.11-.39.11-.39s-6.657-1.12-10.599 2.41c-2.005 1.755-3.192 5.659-2.826 9.41.366 3.751 1.768 6.13 1.768 6.13zm5.387-18.043l-.336-.525c-.094.01-.343.054-.905.256l.331.517c.303-.094.604-.175.91-.248zm.458 2.1l.315.495c.248-.169.512-.315.793-.439l-.309-.487a6.31 6.31 0 0 0-.799.431zm-4.424-.366l.074-.054-.48-.351a7.104 7.104 0 0 0-.674.558l.462.341c.197-.177.405-.34.618-.494zm2.362 2.508l.545.395c.137-.26.285-.505.45-.728l-.523-.378a6.507 6.507 0 0 0-.472.71zm-4.775.45l-.707-.278a14.37 14.37 0 0 0-.34.74l.721.28c.104-.26.206-.506.326-.742zm3.964 2.285l.746.284c-.011-.278.01-.558.046-.848l-.702-.27c-.054.28-.083.565-.09.834zm.691 3.194l.945.048a7.56 7.56 0 0 1-.484-.992l-.84-.043c.106.347.241.673.38.987zm-5.814-1.228l-.86-.087c-.055.327-.103.649-.135.96l.926.084c.007-.315.03-.641.07-.957zm.219 4.971l-1.075.3c.095.424.213.912.287 1.168l1.075-.299c-.09-.325-.203-.805-.287-1.169zm6.871-1.755c.304.387.576.684.776.882l1.117-.318a12.51 12.51 0 0 1-.886-.848l-1.007.284zM539.11 131.17c.002-.015.002-.014.003-.014zm12.188-1.463l.988 1.36 2.405-1.748c.493-.358 1.071-1.34.353-2.391l-.382-.526a1.696 1.696 0 0 0-2.383-.403l-1.199.87-.458-.63 2.375-1.726-.993-1.368-2.28 1.657c-.589.427-1.015 1.495-.344 2.419l.344.473c.671.924 1.795.831 2.39.398 1.66-1.195-.397.289 1.133-.823l.48.661-2.429 1.777zm-13.125 9.03s1.205-1.047-.028-2.745c-1.234-1.697-2.908-.722-2.908-.722l-2.81 2.04 3.892 5.357 1.412-1.026-.938-1.292 2.16.405 2.088-1.517-2.868-.5zm-1.341-.7l-1.126.817-.89-1.224 1.133-.823s.404-.11.759.378c.355.489.124.852.124.852zm3.478-6.395l-1.434 1.042c-1.023.742-.68 1.94-.353 2.39l2.849 3.922 1.434-1.042-.682-.939 1.346-.978.682.94 1.39-1.01-2.849-3.922c-.83-1.142-2.03-.66-2.383-.403zm2.057 2.878l-1.353.983-.944-1.3s-.213-.293.236-.619l.492-.358c.397-.288.618 0 .618 0l.944 1.3.007-.006zm-.035-4.348l1.493-1.085 3.865 5.32-1.493 1.084-3.865-5.319zm6.455 1.336l-2.866-3.944-1.485 1.08 2.865 3.944.999 1.375 1.486-1.08 2.008-1.459-1-1.374-2.007 1.458zm-21.33 17.598l5.81-4.221s-4.871-4.37-2.717-9.137c.513-.98 1.984-4.322 8.454-4.202.05-.21.11-.39.11-.39s-6.657-1.12-10.599 2.41c-2.005 1.755-3.192 5.659-2.826 9.41.366 3.751 1.768 6.13 1.768 6.13zm5.387-18.043l-.336-.525c-.094.01-.343.054-.905.256l.331.517c.303-.094.604-.175.91-.248zm.458 2.1l.315.495c.248-.169.512-.315.793-.439l-.309-.487a6.31 6.31 0 0 0-.799.431zm-4.424-.366l.074-.054-.48-.351a7.104 7.104 0 0 0-.674.558l.462.341c.197-.177.405-.34.618-.494zm2.362 2.508l.545.395c.137-.26.285-.505.45-.728l-.523-.378a6.507 6.507 0 0 0-.472.71zm-4.775.45l-.707-.278a14.37 14.37 0 0 0-.34.74l.721.28c.104-.26.206-.506.326-.742zm3.964 2.285l.746.284c-.011-.278.01-.558.046-.848l-.702-.27c-.054.28-.083.565-.09.834zm.691 3.194l.945.048a7.56 7.56 0 0 1-.484-.992l-.84-.043c.106.347.241.673.38.987zm-5.814-1.228l-.86-.087c-.055.327-.103.649-.135.96l.926.084c.007-.315.03-.641.07-.957zm.219 4.971l-1.075.3c.095.424.213.912.287 1.168l1.075-.299c-.09-.325-.203-.805-.287-1.169zm6.871-1.755c.304.387.576.684.776.882l1.117-.318a12.51 12.51 0 0 1-.886-.848l-1.007.284z"/></g></svg>