<svg xmlns="http://www.w3.org/2000/svg" viewBox="0 0 605 180"><title>remove</title><g fill-rule="evenodd"><path d="M26.126 30.897c-1.25-2.165.915-3.415.915-3.415l26.846-15.5s2.166-1.25 3.416.915-.916 3.415-.916 3.415l-26.846 15.5s-2.165 1.25-3.415-.915zM60.431 52c.434-2.461 2.896-2.027 2.896-2.027l30.53 5.383s2.461.434 2.027 2.896c-.434 2.462-2.896 2.028-2.896 2.028L62.46 54.897s-2.462-.434-2.028-2.896zM116.126 39.897c-1.25-2.165.915-3.415.915-3.415l26.846-15.5s2.166-1.25 3.416.915-.916 3.415-.916 3.415l-26.846 15.5s-2.165 1.25-3.415-.915zM181.305 29.44c.855-2.349 3.204-1.494 3.204-1.494L213.64 38.55s2.35.855 1.494 3.204c-.855 2.35-3.204 1.494-3.204 1.494L182.8 32.645s-2.35-.855-1.495-3.205zM247.126 36.897c-1.25-2.165.915-3.415.915-3.415l26.846-15.5s2.166-1.25 3.416.915-.916 3.415-.916 3.415l-26.846 15.5s-2.165 1.25-3.415-.915zM339.682 27.647c1.288-2.143 3.43-.856 3.43-.856l26.573 15.967s2.143 1.287.855 3.43c-1.288 2.143-3.43.855-3.43.855l-26.573-15.966s-2.143-1.287-.855-3.43zM416.512 48.197c-1.799-1.737-.062-3.535-.062-3.535l21.535-22.3s1.736-1.798 3.535-.062c1.798 1.737.061 3.535.061 3.535l-21.534 22.3s-1.737 1.798-3.535.062zM494.319 36.87c-1.47-2.023.553-3.492.553-3.492l25.08-18.222s2.022-1.47 3.491.553c1.47 2.023-.553 3.492-.553 3.492l-25.08 18.222s-2.022 1.47-3.491-.553zM538.877 40.902c1.398-2.073 3.47-.675 3.47-.675l25.7 17.335s2.073 1.398.675 3.47c-1.398 2.074-3.47.676-3.47.676l-25.7-17.335s-2.073-1.398-.675-3.471zM5.305 70.44c.855-2.349 3.204-1.494 3.204-1.494L37.64 79.55s2.35.855 1.494 3.204c-.855 2.35-3.204 1.494-3.204 1.494L6.8 73.645s-2.35-.855-1.495-3.205zM106.126 94.897c-1.25-2.165.915-3.415.915-3.415l26.846-15.5s2.166-1.25 3.416.915-.916 3.415-.916 3.415l-26.846 15.5s-2.165 1.25-3.415-.915zM153 77.5c0-2.5 2.5-2.5 2.5-2.5h31s2.5 0 2.5 2.5-2.5 2.5-2.5 2.5h-31s-2.5 0-2.5-2.5zM219.126 84.897c-1.25-2.165.915-3.415.915-3.415l26.846-15.5s2.166-1.25 3.416.915-.916 3.415-.916 3.415l-26.846 15.5s-2.165 1.25-3.415-.915zM263.994 104.863c-.434-2.462 2.028-2.896 2.028-2.896l30.529-5.384s2.462-.434 2.896 2.028c.434 2.462-2.028 2.897-2.028 2.897l-30.529 5.383s-2.462.434-2.896-2.028zM290.994 64.863c-.434-2.462 2.028-2.896 2.028-2.896l30.529-5.384s2.462-.434 2.896 2.028c.434 2.462-2.028 2.897-2.028 2.897L293.89 66.89s-2.462.434-2.896-2.028zM371.319 84.87c-1.47-2.023.553-3.492.553-3.492l25.08-18.222s2.022-1.47 3.491.553c1.47 2.023-.553 3.492-.553 3.492l-25.08 18.222s-2.022 1.47-3.491-.553zM448.38 63.417c1.017-2.284 3.3-1.267 3.3-1.267L480 74.758s2.285 1.017 1.268 3.301c-1.017 2.284-3.301 1.267-3.301 1.267l-28.32-12.609s-2.284-1.016-1.267-3.3zM498.72 87.512c.175-2.493 2.669-2.32 2.669-2.32l30.924 2.163s2.494.175 2.32 2.669c-.175 2.494-2.669 2.32-2.669 2.32L501.04 90.18s-2.494-.175-2.32-2.669zM564.319 105.87c-1.47-2.023.553-3.492.553-3.492l25.08-18.222s2.022-1.47 3.491.553c1.47 2.023-.553 3.492-.553 3.492l-25.08 18.222s-2.022 1.47-3.491-.553zM43.305 99.44c.855-2.349 3.204-1.494 3.204-1.494L75.64 108.55s2.35.855 1.494 3.204c-.855 2.35-3.204 1.494-3.204 1.494L44.8 102.645s-2.35-.855-1.495-3.205zM16.383 148.017c-.855-2.35 1.495-3.204 1.495-3.204l29.13-10.603s2.35-.855 3.204 1.494c.855 2.35-1.494 3.204-1.494 3.204l-29.13 10.603s-2.35.855-3.205-1.494zM74 144.5c0-2.5 2.5-2.5 2.5-2.5h31s2.5 0 2.5 2.5-2.5 2.5-2.5 2.5h-31s-2.5 0-2.5-2.5zM126.305 121.44c.855-2.349 3.204-1.494 3.204-1.494l29.131 10.603s2.35.855 1.494 3.204c-.855 2.35-3.204 1.494-3.204 1.494l-29.13-10.602s-2.35-.855-1.495-3.205zM180.305 113.44c.855-2.349 3.204-1.494 3.204-1.494l29.131 10.603s2.35.855 1.494 3.204c-.855 2.35-3.204 1.494-3.204 1.494l-29.13-10.602s-2.35-.855-1.495-3.205zM179.126 169.897c-1.25-2.165.915-3.415.915-3.415l26.846-15.5s2.166-1.25 3.416.915-.916 3.415-.916 3.415l-26.846 15.5s-2.165 1.25-3.415-.915zM239.126 151.897c-1.25-2.165.915-3.415.915-3.415l26.846-15.5s2.166-1.25 3.416.915-.916 3.415-.916 3.415l-26.846 15.5s-2.165 1.25-3.415-.915zM291.554 132.168c1.915-1.607 3.522.308 3.522.308l19.926 23.747s1.607 1.916-.308 3.523c-1.915 1.606-3.522-.309-3.522-.309l-19.926-23.747s-1.607-1.915.308-3.522zM328.448 113.617c-1.915-1.607-.308-3.522-.308-3.522l19.926-23.747s1.607-1.915 3.523-.308c1.915 1.607.308 3.522.308 3.522l-19.927 23.747s-1.607 1.915-3.522.308zM360.38 125.417c1.017-2.284 3.3-1.267 3.3-1.267L392 136.758s2.285 1.017 1.268 3.301c-1.017 2.284-3.301 1.267-3.301 1.267l-28.32-12.609s-2.284-1.016-1.267-3.3zM411.38 101.417c1.017-2.284 3.3-1.267 3.3-1.267L443 112.758s2.285 1.017 1.268 3.301c-1.017 2.284-3.301 1.267-3.301 1.267l-28.32-12.609s-2.284-1.016-1.267-3.3zM408.818 144.39c2.247-1.096 3.343 1.15 3.343 1.15l13.59 27.863s1.096 2.247-1.151 3.343-3.343-1.15-3.343-1.15l-13.59-27.864s-1.096-2.247 1.151-3.342zM464.319 136.87c-1.47-2.023.553-3.492.553-3.492l25.08-18.222s2.022-1.47 3.491.553c1.47 2.023-.553 3.492-.553 3.492l-25.08 18.222s-2.022 1.47-3.491-.553zM524.319 145.87c-1.47-2.023.553-3.492.553-3.492l25.08-18.222s2.022-1.47 3.491.553c1.47 2.023-.553 3.492-.553 3.492l-25.08 18.222s-2.022 1.47-3.491-.553z"/></g></svg>