<svg xmlns="http://www.w3.org/2000/svg" viewBox="0 0 605 180"><title>repositories</title><g fill-rule="evenodd"><path d="M23.07 13.606a1.998 1.998 0 0 1 .731-2.729L42.86-.126a1.997 1.997 0 0 1 2.729.732l13.501 23.386a1.998 1.998 0 0 1-.73 2.729L39.301 37.724a1.997 1.997 0 0 1-2.728-.732L23.07 13.606m5.197-2.998l15.588-9 13.5 23.382-15.588 9-13.5-23.382m4.598 1.964l1.732-1 1 1.732-1.732 1-1-1.732m4.33-2.5l1.732-1 1 1.732-1.732 1-1-1.732m4.33-2.5l1.732-1 1 1.732-1.732 1-1-1.732m-6.16 9.33l1.732-1 1 1.732-1.732 1-1-1.732m4.33-2.5l1.732-1 1 1.732-1.732 1-1-1.732m4.33-2.5l1.732-1 1 1.732-1.732 1-1-1.732m-6.16 9.33l1.732-1 1 1.732-1.732 1-1-1.732m4.33-2.5l1.732-1 1 1.732-1.732 1-1-1.732m4.33-2.5l1.732-1 1 1.732-1.732 1-1-1.732m1.438 16.49l2.5 4.33-3.85-.663-1.346 3.664-2.5-4.33 5.196-3M69.206 36.791a1.998 1.998 0 0 1 2.313-1.62l21.672 3.82a1.997 1.997 0 0 1 1.62 2.315L90.12 67.9a1.998 1.998 0 0 1-2.313 1.62L66.136 65.7a1.997 1.997 0 0 1-1.62-2.315l4.69-26.594m5.908 1.044l17.727 3.126-4.689 26.59-17.726-3.126 4.688-26.59m2.26 4.46l1.97.347-.348 1.97-1.97-.347.348-1.97m4.924.868l1.97.348-.348 1.97-1.97-.348.348-1.97m4.924.869l1.97.347-.348 1.97-1.97-.348.348-1.97M76.506 47.22l1.97.348-.348 1.97-1.97-.348.348-1.97m4.924.868l1.97.348-.348 1.97-1.97-.348.348-1.97m4.924.869l1.97.347-.348 1.97-1.97-.348.348-1.97m-10.716 3.188l1.97.348-.348 1.97-1.97-.348.348-1.97m4.924.869l1.97.347-.348 1.97-1.97-.348.348-1.97m4.924.869l1.97.347-.348 1.97-1.97-.348.348-1.97m-9.499 13.557l-.868 4.924-2.522-2.983-3.387 1.941.868-4.924 5.91 1.042M113.07 22.606a1.998 1.998 0 0 1 .731-2.729L132.86 8.874a1.997 1.997 0 0 1 2.729.732l13.501 23.386a1.998 1.998 0 0 1-.73 2.729l-19.058 11.003a1.997 1.997 0 0 1-2.728-.732L113.07 22.606m5.197-2.998l15.588-9 13.5 23.382-15.588 9-13.5-23.382m4.598 1.964l1.732-1 1 1.732-1.732 1-1-1.732m4.33-2.5l1.732-1 1 1.732-1.732 1-1-1.732m4.33-2.5l1.732-1 1 1.732-1.732 1-1-1.732m-6.16 9.33l1.732-1 1 1.732-1.732 1-1-1.732m4.33-2.5l1.732-1 1 1.732-1.732 1-1-1.732m4.33-2.5l1.732-1 1 1.732-1.732 1-1-1.732m-6.16 9.33l1.732-1 1 1.732-1.732 1-1-1.732m4.33-2.5l1.732-1 1 1.732-1.732 1-1-1.732m4.33-2.5l1.732-1 1 1.732-1.732 1-1-1.732m1.438 16.49l2.5 4.33-3.85-.663-1.346 3.664-2.5-4.33 5.196-3M192.587 15.986a1.998 1.998 0 0 1 2.56-1.195l20.68 7.527a1.997 1.997 0 0 1 1.192 2.56l-9.235 25.375a1.998 1.998 0 0 1-2.56 1.195l-20.68-7.526a1.997 1.997 0 0 1-1.192-2.561l9.235-25.375m5.638 2.054l16.914 6.156-9.234 25.372-16.915-6.157 9.235-25.371m1.45 4.784l1.88.685-.684 1.879-1.88-.684.685-1.88m4.698 1.71l1.88.685-.684 1.879-1.88-.684.684-1.88m4.699 1.71l1.88.685-.685 1.88-1.88-.685.685-1.88m-11.107 1.279l1.88.684-.685 1.88-1.88-.685.685-1.88m4.698 1.711l1.88.684-.684 1.88-1.88-.685.684-1.879m4.699 1.71l1.88.684-.685 1.88-1.88-.684.685-1.88m-11.107 1.278l1.879.684-.684 1.88-1.88-.684.685-1.88m4.698 1.71l1.88.685-.685 1.879-1.879-.684.684-1.88m4.699 1.71l1.879.685-.684 1.879-1.88-.684.685-1.88m-11.709 11.702l-1.71 4.698-1.966-3.376-3.672 1.324 1.71-4.698 5.638 2.052M244.07 19.606a1.998 1.998 0 0 1 .731-2.729L263.86 5.874a1.997 1.997 0 0 1 2.729.732l13.501 23.386a1.998 1.998 0 0 1-.73 2.729l-19.058 11.003a1.997 1.997 0 0 1-2.728-.732L244.07 19.606m5.197-2.998l15.588-9 13.5 23.382-15.588 9-13.5-23.382m4.598 1.964l1.732-1 1 1.732-1.732 1-1-1.732m4.33-2.5l1.732-1 1 1.732-1.732 1-1-1.732m4.33-2.5l1.732-1 1 1.732-1.732 1-1-1.732m-6.16 9.33l1.732-1 1 1.732-1.732 1-1-1.732m4.33-2.5l1.732-1 1 1.732-1.732 1-1-1.732m4.33-2.5l1.732-1 1 1.732-1.732 1-1-1.732m-6.16 9.33l1.732-1 1 1.732-1.732 1-1-1.732m4.33-2.5l1.732-1 1 1.732-1.732 1-1-1.732m4.33-2.5l1.732-1 1 1.732-1.732 1-1-1.732m1.438 16.49l2.5 4.33-3.85-.663-1.346 3.664-2.5-4.33 5.196-3M353.324 16.592a1.998 1.998 0 0 1 2.741-.684l18.863 11.334a1.997 1.997 0 0 1 .682 2.741L361.703 53.13a1.998 1.998 0 0 1-2.741.684L340.099 42.48a1.997 1.997 0 0 1-.683-2.741l13.908-23.147m5.142 3.092l15.43 9.27-13.907 23.144-15.429-9.27 13.906-23.144m.511 4.974l1.715 1.03-1.03 1.714-1.715-1.03 1.03-1.714m4.286 2.575l1.715 1.03-1.03 1.714-1.715-1.03 1.03-1.714m4.286 2.575l1.714 1.03-1.03 1.714-1.714-1.03 1.03-1.714m-11.147-.864l1.715 1.03-1.03 1.714-1.715-1.03 1.03-1.714m4.286 2.575l1.714 1.03-1.03 1.714-1.714-1.03 1.03-1.714m4.286 2.575l1.714 1.03-1.03 1.714-1.714-1.03 1.03-1.714m-11.147-.865l1.714 1.03-1.03 1.715-1.714-1.03 1.03-1.715m4.286 2.576l1.714 1.03-1.03 1.714-1.714-1.03 1.03-1.714m4.286 2.575l1.714 1.03-1.03 1.714-1.714-1.03 1.03-1.714m-13.726 9.252l-2.575 4.286-1.286-3.69-3.857.6 2.575-4.286 5.143 3.09M408.81 32.418a1.998 1.998 0 0 1-.05-2.825l15.286-15.83a1.997 1.997 0 0 1 2.824-.048l19.425 18.758c.794.767.816 2.032.05 2.825l-15.286 15.83a1.997 1.997 0 0 1-2.825.048L408.81 32.418m4.17-4.315l12.503-12.948 19.423 18.755L432.4 46.86l-19.422-18.756m4.96.62l1.39-1.438 1.439 1.389-1.39 1.439-1.438-1.39m3.473-3.596l1.39-1.439 1.438 1.39-1.39 1.438-1.438-1.39m3.474-3.596l1.389-1.439 1.439 1.39-1.39 1.438-1.438-1.389m-3.35 10.667l1.389-1.439 1.439 1.39-1.39 1.438-1.438-1.39m3.473-3.596l1.39-1.439 1.438 1.39-1.39 1.438-1.438-1.389m3.473-3.597l1.39-1.438 1.438 1.389-1.39 1.439-1.438-1.39m-3.35 10.667l1.39-1.439 1.438 1.39-1.389 1.438-1.439-1.389m3.474-3.597l1.389-1.438 1.439 1.389-1.39 1.439-1.438-1.39m3.473-3.596l1.39-1.44 1.438 1.39-1.39 1.439-1.438-1.39m5.927 15.456l3.597 3.473-3.884.423-.284 3.893-3.597-3.473 4.168-4.316M489.473 19.993a1.998 1.998 0 0 1 .441-2.79l17.804-12.936a1.997 1.997 0 0 1 2.79.443l15.872 21.847c.649.892.45 2.142-.441 2.79l-17.803 12.935a1.997 1.997 0 0 1-2.79-.443l-15.873-21.846m4.856-3.526l14.562-10.58 15.87 21.844L510.2 38.31l-15.87-21.844m4.778 1.473l1.618-1.175 1.175 1.618-1.618 1.175-1.175-1.618m4.045-2.939l1.618-1.175 1.175 1.618-1.618 1.175-1.175-1.618m4.045-2.939l1.618-1.175 1.176 1.618-1.619 1.175-1.175-1.618m-5.151 9.923l1.618-1.175 1.175 1.618-1.618 1.175-1.175-1.618m4.045-2.939l1.618-1.175 1.175 1.618-1.618 1.175-1.175-1.618m4.045-2.939l1.618-1.175 1.175 1.618-1.618 1.175-1.175-1.618m-5.151 9.923l1.618-1.175 1.175 1.618-1.618 1.175-1.175-1.618m4.045-2.939l1.618-1.175 1.175 1.618-1.618 1.175-1.175-1.618m4.045-2.939l1.618-1.175 1.175 1.618-1.618 1.175-1.175-1.618m3.153 16.25l2.94 4.045-3.899-.258-.956 3.785-2.939-4.045 4.854-3.527M553.079 30.577a1.998 1.998 0 0 1 2.773-.54l18.244 12.305a1.997 1.997 0 0 1 .538 2.774l-15.1 22.387a1.998 1.998 0 0 1-2.773.54l-18.244-12.306a1.997 1.997 0 0 1-.538-2.773l15.1-22.387m4.973 3.356L572.975 44l-15.098 22.384-14.923-10.066 15.098-22.384m.25 4.994l1.659 1.118-1.119 1.658-1.658-1.118 1.119-1.658m4.145 2.796l1.658 1.118-1.119 1.658-1.658-1.118 1.119-1.658m4.145 2.796l1.658 1.118-1.118 1.658-1.658-1.118 1.118-1.658m-11.086-1.447l1.658 1.118-1.119 1.659-1.658-1.119 1.119-1.658m4.145 2.796l1.658 1.118-1.119 1.659-1.658-1.119 1.119-1.658m4.145 2.796l1.658 1.118-1.118 1.658-1.658-1.118 1.118-1.658m-11.086-1.447l1.658 1.119-1.119 1.658-1.658-1.119 1.119-1.658m4.145 2.796l1.658 1.119-1.118 1.658-1.659-1.119 1.119-1.658M561 52.81l1.658 1.119-1.118 1.658-1.658-1.119L561 52.81M546.81 61.33l-2.796 4.146-1.09-3.752-3.884.396 2.796-4.145 4.974 3.355M16.587 56.986a1.998 1.998 0 0 1 2.56-1.195l20.68 7.527a1.997 1.997 0 0 1 1.192 2.56l-9.235 25.375a1.998 1.998 0 0 1-2.56 1.195l-20.68-7.526a1.997 1.997 0 0 1-1.192-2.561l9.235-25.375m5.638 2.054l16.914 6.156-9.234 25.372L12.99 84.41l9.235-25.371m1.45 4.784l1.88.685-.684 1.879-1.88-.684.685-1.88m4.698 1.71l1.88.685-.684 1.879-1.88-.684.684-1.88m4.699 1.71l1.88.685-.685 1.88-1.88-.685.685-1.88m-11.107 1.279l1.88.684-.685 1.88-1.88-.685.685-1.88m4.698 1.711l1.88.684-.684 1.88-1.88-.685.684-1.879m4.699 1.71l1.88.684-.685 1.88-1.88-.684.685-1.88m-11.107 1.278l1.879.684-.684 1.88-1.88-.684.685-1.88m4.698 1.71l1.88.685-.685 1.879-1.879-.684.684-1.88m4.699 1.71l1.879.685-.684 1.879-1.88-.684.685-1.88M17.944 88.344l-1.71 4.698-1.966-3.376-3.672 1.324 1.71-4.698 5.638 2.052M103.07 77.606a1.998 1.998 0 0 1 .731-2.729l19.058-11.003a1.997 1.997 0 0 1 2.729.732l13.501 23.386a1.998 1.998 0 0 1-.73 2.729l-19.058 11.003a1.997 1.997 0 0 1-2.728-.732L103.07 77.606m5.197-2.998l15.588-9 13.5 23.382-15.588 9-13.5-23.382m4.598 1.964l1.732-1 1 1.732-1.732 1-1-1.732m4.33-2.5l1.732-1 1 1.732-1.732 1-1-1.732m4.33-2.5l1.732-1 1 1.732-1.732 1-1-1.732m-6.16 9.33l1.732-1 1 1.732-1.732 1-1-1.732m4.33-2.5l1.732-1 1 1.732-1.732 1-1-1.732m4.33-2.5l1.732-1 1 1.732-1.732 1-1-1.732m-6.16 9.33l1.732-1 1 1.732-1.732 1-1-1.732m4.33-2.5l1.732-1 1 1.732-1.732 1-1-1.732m4.33-2.5l1.732-1 1 1.732-1.732 1-1-1.732m1.438 16.49l2.5 4.33-3.85-.663-1.346 3.664-2.5-4.33 5.196-3M159 60.998c0-1.103.895-1.998 1.997-1.998h22.006c1.103 0 1.997.894 1.997 1.998v27.004A1.998 1.998 0 0 1 183.003 90h-22.006A1.997 1.997 0 0 1 159 88.002V60.998m6 .002h18v27h-18V61m3 4h2v2h-2v-2m5 0h2v2h-2v-2m5 0h2v2h-2v-2m-10 5h2v2h-2v-2m5 0h2v2h-2v-2m5 0h2v2h-2v-2m-10 5h2v2h-2v-2m5 0h2v2h-2v-2m5 0h2v2h-2v-2m-7 15v5l-3.002-2.5L165 95v-5h6M216.07 67.606a1.998 1.998 0 0 1 .731-2.729l19.058-11.003a1.997 1.997 0 0 1 2.729.732l13.501 23.386a1.998 1.998 0 0 1-.73 2.729l-19.058 11.003a1.997 1.997 0 0 1-2.728-.732L216.07 67.606m5.197-2.998l15.588-9 13.5 23.382-15.588 9-13.5-23.382m4.598 1.964l1.732-1 1 1.732-1.732 1-1-1.732m4.33-2.5l1.732-1 1 1.732-1.732 1-1-1.732m4.33-2.5l1.732-1 1 1.732-1.732 1-1-1.732m-6.16 9.33l1.732-1 1 1.732-1.732 1-1-1.732m4.33-2.5l1.732-1 1 1.732-1.732 1-1-1.732m4.33-2.5l1.732-1 1 1.732-1.732 1-1-1.732m-6.16 9.33l1.732-1 1 1.732-1.732 1-1-1.732m4.33-2.5l1.732-1 1 1.732-1.732 1-1-1.732m4.33-2.5l1.732-1 1 1.732-1.732 1-1-1.732m1.438 16.49l2.5 4.33-3.85-.663-1.346 3.664-2.5-4.33 5.196-3M267.037 87.57a1.998 1.998 0 0 1 1.62-2.315l21.672-3.821a1.997 1.997 0 0 1 2.313 1.62l4.69 26.594a1.998 1.998 0 0 1-1.62 2.315l-21.672 3.821a1.997 1.997 0 0 1-2.313-1.62l-4.69-26.594m5.91-1.04l17.726-3.126 4.689 26.59-17.727 3.125-4.688-26.59m3.649 3.419l1.97-.347.347 1.97-1.97.347-.347-1.97m4.924-.868l1.97-.348.347 1.97-1.97.347-.347-1.97m4.924-.868l1.97-.347.347 1.97-1.97.347-.347-1.97m-8.98 6.66l1.97-.346.347 1.97-1.97.347-.347-1.97m4.924-.868l1.97-.348.347 1.97-1.97.347-.347-1.97m4.924-.868l1.97-.347.347 1.97-1.97.347-.347-1.97m-8.98 6.661l1.97-.347.347 1.97-1.97.347-.347-1.97m4.924-.868l1.97-.348.347 1.97-1.97.347-.347-1.97m4.924-.868l1.97-.347.347 1.97-1.97.347-.347-1.97m-4.289 15.988l.868 4.924-3.39-1.94-2.518 2.982-.869-4.924 5.91-1.042M294.037 47.57a1.998 1.998 0 0 1 1.62-2.315l21.672-3.821a1.997 1.997 0 0 1 2.313 1.62l4.69 26.594a1.998 1.998 0 0 1-1.62 2.315l-21.672 3.821a1.997 1.997 0 0 1-2.313-1.62l-4.69-26.594m5.91-1.04l17.726-3.126 4.689 26.59-17.727 3.125-4.688-26.59m3.649 3.419l1.97-.347.347 1.97-1.97.347-.347-1.97m4.924-.868l1.97-.348.347 1.97-1.97.347-.347-1.97m4.924-.868l1.97-.347.347 1.97-1.97.347-.347-1.97m-8.98 6.66l1.97-.346.347 1.97-1.97.347-.347-1.97m4.924-.868l1.97-.348.347 1.97-1.97.347-.347-1.97m4.924-.868l1.97-.347.347 1.97-1.97.347-.347-1.97m-8.98 6.661l1.97-.347.347 1.97-1.97.347-.347-1.97m4.924-.868l1.97-.348.347 1.97-1.97.347-.347-1.97m4.924-.868l1.97-.347.347 1.97-1.97.347-.347-1.97m-4.289 15.988l.868 4.924-3.39-1.94-2.518 2.982-.869-4.924 5.91-1.042M366.473 67.993a1.998 1.998 0 0 1 .441-2.79l17.804-12.936a1.997 1.997 0 0 1 2.79.443l15.872 21.847c.649.892.45 2.142-.441 2.79l-17.803 12.935a1.997 1.997 0 0 1-2.79-.443l-15.873-21.846m4.856-3.526l14.562-10.58 15.87 21.844L387.2 86.31l-15.87-21.844m4.778 1.473l1.618-1.175 1.175 1.618-1.618 1.175-1.175-1.618m4.045-2.939l1.618-1.175 1.175 1.618-1.618 1.175-1.175-1.618m4.045-2.939l1.618-1.175 1.176 1.618-1.619 1.175-1.175-1.618m-5.151 9.923l1.618-1.175 1.175 1.618-1.618 1.175-1.175-1.618m4.045-2.939l1.618-1.175 1.175 1.618-1.618 1.175-1.175-1.618m4.045-2.939l1.618-1.175 1.175 1.618-1.618 1.175-1.175-1.618m-5.151 9.923l1.618-1.175 1.175 1.618-1.618 1.175-1.175-1.618m4.045-2.939l1.618-1.175 1.175 1.618-1.618 1.175-1.175-1.618m4.045-2.939l1.618-1.175 1.175 1.618-1.618 1.175-1.175-1.618m3.153 16.25l2.94 4.045-3.899-.258-.956 3.785-2.939-4.045 4.854-3.527M460.573 50.782a1.998 1.998 0 0 1 2.637-1.013l20.104 8.95a1.997 1.997 0 0 1 1.011 2.638l-10.983 24.67a1.998 1.998 0 0 1-2.637 1.012L450.6 78.09a1.997 1.997 0 0 1-1.011-2.638l10.983-24.67m5.48 2.443l16.445 7.321-10.982 24.666-16.444-7.321 10.982-24.666m1.113 4.874l1.828.814-.814 1.827-1.827-.814.813-1.827m4.568 2.034l1.827.814-.813 1.827-1.827-.814.813-1.827m4.568 2.034l1.827.813-.813 1.827-1.828-.813.814-1.827m-11.17.5l1.828.814-.814 1.827-1.827-.814.814-1.827M469.7 64.7l1.828.813-.814 1.827-1.827-.813.813-1.827m4.568 2.033l1.827.814-.813 1.827-1.827-.813.813-1.828m-11.169.5l1.827.814-.813 1.827-1.827-.813.813-1.827m4.568 2.034l1.827.813-.814 1.827-1.827-.813.814-1.827m4.568 2.033l1.827.814-.814 1.827-1.827-.814.814-1.827M459.74 82.157l-2.034 4.568-1.726-3.505-3.755 1.065 2.033-4.568 5.482 2.44M505.857 71.47a1.998 1.998 0 0 1 2.131-1.855l21.953 1.535a1.997 1.997 0 0 1 1.852 2.133l-1.883 26.938a1.998 1.998 0 0 1-2.132 1.854l-21.952-1.535a1.997 1.997 0 0 1-1.853-2.133l1.884-26.938m5.985.42l17.956 1.256-1.883 26.935-17.956-1.256 1.883-26.934m2.714 4.2l1.995.139-.14 1.995-1.995-.14.14-1.995m4.987.349l1.996.14-.14 1.995-1.995-.14.14-1.995m4.987.349l1.995.14-.14 1.994-1.994-.14.14-1.994m-10.325 4.29l1.995.14-.14 1.995-1.995-.14.14-1.995m4.988.349l1.995.14-.14 1.994-1.995-.139.14-1.995m4.987.349l1.996.14-.14 1.994-1.995-.14.14-1.994m-10.325 4.29l1.995.14-.14 1.995-1.994-.14.14-1.995m4.987.349l1.995.14-.14 1.994-1.995-.14.14-1.994m4.988.348l1.995.14-.14 1.995-1.995-.14.14-1.995m-8.03 14.476l-.348 4.987-2.82-2.703-3.166 2.285.349-4.988 5.985.419M559.473 88.993a1.998 1.998 0 0 1 .441-2.79l17.804-12.936a1.997 1.997 0 0 1 2.79.443l15.872 21.847c.649.892.45 2.142-.441 2.79l-17.803 12.935a1.997 1.997 0 0 1-2.79-.443l-15.873-21.846m4.856-3.526l14.562-10.58 15.87 21.844-14.562 10.58-15.87-21.844m4.778 1.473l1.618-1.175 1.175 1.618-1.618 1.175-1.175-1.618m4.045-2.939l1.618-1.175 1.175 1.618-1.618 1.175-1.175-1.618m4.045-2.939l1.618-1.175 1.176 1.618-1.619 1.175-1.175-1.618m-5.151 9.923l1.618-1.175 1.175 1.618-1.618 1.175-1.175-1.618m4.045-2.939l1.618-1.175 1.175 1.618-1.618 1.175-1.175-1.618m4.045-2.939l1.618-1.175 1.175 1.618-1.618 1.175-1.175-1.618m-5.151 9.923l1.618-1.175 1.175 1.618-1.618 1.175-1.175-1.618m4.045-2.939l1.618-1.175 1.175 1.618-1.618 1.175-1.175-1.618m4.045-2.939l1.618-1.175 1.175 1.618-1.618 1.175-1.175-1.618m3.153 16.25l2.94 4.045-3.899-.258-.956 3.785-2.939-4.045 4.854-3.527M54.587 85.986a1.998 1.998 0 0 1 2.56-1.195l20.68 7.527a1.997 1.997 0 0 1 1.192 2.56l-9.235 25.375a1.998 1.998 0 0 1-2.56 1.195l-20.68-7.526a1.997 1.997 0 0 1-1.192-2.561l9.235-25.375m5.638 2.054l16.914 6.156-9.234 25.372-16.915-6.157 9.235-25.371m1.45 4.784l1.88.685-.684 1.879-1.88-.684.685-1.88m4.698 1.71l1.88.685-.684 1.879-1.88-.684.684-1.88m4.699 1.71l1.88.685-.685 1.88-1.88-.685.685-1.88m-11.107 1.279l1.88.684-.685 1.88-1.88-.685.685-1.88m4.698 1.711l1.88.684-.684 1.88-1.88-.685.684-1.879m4.699 1.71l1.88.684-.685 1.88-1.88-.684.685-1.88m-11.107 1.278l1.879.684-.684 1.88-1.88-.684.685-1.88m4.698 1.71l1.88.685-.685 1.879-1.879-.684.684-1.88m4.699 1.71l1.879.685-.684 1.879-1.88-.684.685-1.88m-11.709 11.702l-1.71 4.698-1.966-3.376-3.672 1.324 1.71-4.698 5.638 2.052M16.378 130.458a1.998 1.998 0 0 1 1.193-2.56l20.679-7.527a1.997 1.997 0 0 1 2.56 1.195l9.235 25.375a1.998 1.998 0 0 1-1.193 2.56l-20.679 7.527a1.997 1.997 0 0 1-2.56-1.195l-9.235-25.375m5.638-2.05l16.915-6.157 9.234 25.372-16.914 6.156-9.235-25.371m4.188 2.732l1.879-.684.684 1.88-1.88.684-.683-1.88m4.698-1.71l1.88-.684.683 1.88-1.879.684-.684-1.88m4.698-1.71l1.88-.684.684 1.88-1.88.684-.684-1.88m-7.686 8.119l1.879-.684.684 1.88-1.88.683-.683-1.88m4.698-1.71l1.88-.683.684 1.88-1.88.683-.684-1.88m4.699-1.71l1.879-.683.684 1.879-1.88.684-.683-1.88m-7.687 8.12l1.88-.685.683 1.88-1.88.684-.683-1.88m4.698-1.71l1.88-.684.684 1.88-1.88.684-.684-1.88m4.699-1.71l1.879-.684.684 1.88-1.88.684-.683-1.88m-1.448 16.49l1.71 4.698-3.676-1.322-1.962 3.374-1.71-4.698 5.638-2.052M80 127.998c0-1.103.895-1.998 1.997-1.998h22.006c1.103 0 1.997.894 1.997 1.998v27.004a1.998 1.998 0 0 1-1.997 1.998H81.997A1.997 1.997 0 0 1 80 155.002v-27.004m6 .002h18v27H86v-27m3 4h2v2h-2v-2m5 0h2v2h-2v-2m5 0h2v2h-2v-2m-10 5h2v2h-2v-2m5 0h2v2h-2v-2m5 0h2v2h-2v-2m-10 5h2v2h-2v-2m5 0h2v2h-2v-2m5 0h2v2h-2v-2m-7 15v5l-3.002-2.5L86 162v-5h6M137.587 107.986a1.998 1.998 0 0 1 2.56-1.195l20.68 7.527a1.997 1.997 0 0 1 1.192 2.56l-9.235 25.375a1.998 1.998 0 0 1-2.56 1.195l-20.68-7.526a1.997 1.997 0 0 1-1.192-2.561l9.235-25.375m5.638 2.054l16.914 6.156-9.234 25.372-16.915-6.157 9.235-25.371m1.45 4.784l1.88.685-.684 1.879-1.88-.684.685-1.88m4.698 1.71l1.88.685-.684 1.879-1.88-.684.684-1.88m4.699 1.71l1.88.685-.685 1.88-1.88-.685.685-1.88m-11.107 1.279l1.88.684-.685 1.88-1.88-.685.685-1.88m4.698 1.711l1.88.684-.684 1.88-1.88-.685.684-1.879m4.699 1.71l1.88.684-.685 1.88-1.88-.684.685-1.88m-11.107 1.278l1.879.684-.684 1.88-1.88-.684.685-1.88m4.698 1.71l1.88.685-.685 1.879-1.879-.684.684-1.88m4.699 1.71l1.879.685-.684 1.879-1.88-.684.685-1.88m-11.709 11.702l-1.71 4.698-1.966-3.376-3.672 1.324 1.71-4.698 5.638 2.052M191.587 99.986a1.998 1.998 0 0 1 2.56-1.195l20.68 7.527a1.997 1.997 0 0 1 1.192 2.56l-9.235 25.375a1.998 1.998 0 0 1-2.56 1.195l-20.68-7.526a1.997 1.997 0 0 1-1.192-2.561l9.235-25.375m5.638 2.054l16.914 6.156-9.234 25.372-16.915-6.157 9.235-25.371m1.45 4.784l1.88.685-.684 1.879-1.88-.684.685-1.88m4.698 1.71l1.88.685-.684 1.879-1.88-.684.684-1.88m4.699 1.71l1.88.685-.685 1.88-1.88-.685.685-1.88m-11.107 1.279l1.88.684-.685 1.88-1.88-.685.685-1.88m4.698 1.711l1.88.684-.684 1.88-1.88-.685.684-1.879m4.699 1.71l1.88.684-.685 1.88-1.88-.684.685-1.88m-11.107 1.278l1.879.684-.684 1.88-1.88-.684.685-1.88m4.698 1.71l1.88.685-.685 1.879-1.879-.684.684-1.88m4.699 1.71l1.879.685-.684 1.879-1.88-.684.685-1.88m-11.709 11.702l-1.71 4.698-1.966-3.376-3.672 1.324 1.71-4.698 5.638 2.052M176.07 152.606a1.998 1.998 0 0 1 .731-2.729l19.058-11.003a1.997 1.997 0 0 1 2.729.732l13.501 23.386a1.998 1.998 0 0 1-.73 2.729l-19.058 11.003a1.997 1.997 0 0 1-2.728-.732l-13.502-23.386m5.197-2.998l15.588-9 13.5 23.382-15.588 9-13.5-23.382m4.598 1.964l1.732-1 1 1.732-1.732 1-1-1.732m4.33-2.5l1.732-1 1 1.732-1.732 1-1-1.732m4.33-2.5l1.732-1 1 1.732-1.732 1-1-1.732m-6.16 9.33l1.732-1 1 1.732-1.732 1-1-1.732m4.33-2.5l1.732-1 1 1.732-1.732 1-1-1.732m4.33-2.5l1.732-1 1 1.732-1.732 1-1-1.732m-6.16 9.33l1.732-1 1 1.732-1.732 1-1-1.732m4.33-2.5l1.732-1 1 1.732-1.732 1-1-1.732m4.33-2.5l1.732-1 1 1.732-1.732 1-1-1.732m1.438 16.49l2.5 4.33-3.85-.663-1.346 3.664-2.5-4.33 5.196-3M236.07 134.606a1.998 1.998 0 0 1 .731-2.729l19.058-11.003a1.997 1.997 0 0 1 2.729.732l13.501 23.386a1.998 1.998 0 0 1-.73 2.729l-19.058 11.003a1.997 1.997 0 0 1-2.728-.732l-13.502-23.386m5.197-2.998l15.588-9 13.5 23.382-15.588 9-13.5-23.382m4.598 1.964l1.732-1 1 1.732-1.732 1-1-1.732m4.33-2.5l1.732-1 1 1.732-1.732 1-1-1.732m4.33-2.5l1.732-1 1 1.732-1.732 1-1-1.732m-6.16 9.33l1.732-1 1 1.732-1.732 1-1-1.732m4.33-2.5l1.732-1 1 1.732-1.732 1-1-1.732m4.33-2.5l1.732-1 1 1.732-1.732 1-1-1.732m-6.16 9.33l1.732-1 1 1.732-1.732 1-1-1.732m4.33-2.5l1.732-1 1 1.732-1.732 1-1-1.732m4.33-2.5l1.732-1 1 1.732-1.732 1-1-1.732m1.438 16.49l2.5 4.33-3.85-.663-1.346 3.664-2.5-4.33 5.196-3M308.052 126.157a1.998 1.998 0 0 1 2.814.245l14.145 16.858a1.997 1.997 0 0 1-.247 2.814l-20.686 17.358a1.998 1.998 0 0 1-2.814-.246l-14.145-16.857a1.997 1.997 0 0 1 .247-2.814l20.686-17.358m3.855 4.597l11.57 13.79-20.683 17.355-11.57-13.79 20.683-17.355m-1.136 4.87l1.286 1.532-1.532 1.285-1.286-1.532 1.532-1.285m3.214 3.83l1.286 1.532-1.532 1.286-1.286-1.532 1.532-1.286m3.214 3.83l1.286 1.532-1.532 1.286-1.286-1.532 1.532-1.286m-10.258-4.446l1.285 1.532-1.532 1.285-1.285-1.532 1.532-1.285m3.214 3.83l1.285 1.532-1.532 1.286-1.285-1.533 1.532-1.285m3.214 3.83l1.285 1.532-1.532 1.286-1.285-1.532 1.532-1.286m-10.258-4.446l1.285 1.532-1.532 1.285-1.285-1.532 1.532-1.285m3.214 3.83l1.285 1.532-1.532 1.286-1.285-1.533 1.532-1.285m3.214 3.83l1.285 1.532-1.532 1.286-1.286-1.532 1.533-1.286m-15.99 4.28l-3.83 3.214-.015-3.907-3.843-.69 3.83-3.214 3.857 4.597M319.664 98.414a1.998 1.998 0 0 1-.247-2.814l14.145-16.858a1.997 1.997 0 0 1 2.814-.245l20.686 17.357c.846.71.956 1.97.247 2.814l-14.145 16.858a1.997 1.997 0 0 1-2.814.245l-20.686-17.357m3.858-4.595l11.57-13.79 20.683 17.356-11.57 13.789-20.683-17.355m4.992.273l1.286-1.532 1.532 1.285-1.285 1.532-1.533-1.285m3.214-3.83l1.286-1.533 1.532 1.286-1.286 1.532-1.532-1.286m3.214-3.83l1.286-1.532 1.532 1.286-1.286 1.532-1.532-1.286m-2.597 10.875l1.285-1.532 1.532 1.285-1.285 1.532-1.532-1.285m3.214-3.83l1.285-1.533 1.532 1.286-1.285 1.532-1.532-1.286m3.214-3.83l1.285-1.532 1.532 1.286-1.285 1.532-1.532-1.286m-2.598 10.875l1.285-1.533 1.533 1.286-1.286 1.532-1.532-1.285m3.214-3.83l1.285-1.533 1.532 1.286-1.285 1.532-1.532-1.286m3.214-3.83l1.285-1.532 1.532 1.286-1.285 1.532-1.532-1.286m6.99 15.004l3.831 3.214-3.845.693-.012 3.903-3.83-3.214 3.857-4.596M372.573 112.782a1.998 1.998 0 0 1 2.637-1.013l20.104 8.95a1.997 1.997 0 0 1 1.011 2.638l-10.983 24.67a1.998 1.998 0 0 1-2.637 1.012l-20.104-8.95a1.997 1.997 0 0 1-1.011-2.638l10.983-24.67m5.48 2.443l16.445 7.321-10.982 24.666-16.444-7.321 10.982-24.666m1.113 4.874l1.828.814-.814 1.827-1.827-.814.813-1.827m4.568 2.034l1.827.814-.813 1.827-1.827-.814.813-1.827m4.568 2.034l1.827.813-.813 1.827-1.828-.813.814-1.827m-11.17.5l1.828.814-.814 1.827-1.827-.814.814-1.827m4.567 2.034l1.828.813-.814 1.827-1.827-.813.813-1.827m4.568 2.033l1.827.814-.813 1.827-1.827-.813.813-1.828m-11.169.5l1.827.814-.813 1.827-1.827-.813.813-1.827m4.568 2.034l1.827.813-.814 1.827-1.827-.813.814-1.827m4.568 2.033l1.827.814-.814 1.827-1.827-.814.814-1.827m-12.496 10.856l-2.034 4.568-1.726-3.505-3.755 1.065 2.033-4.568 5.482 2.44M423.573 88.782a1.998 1.998 0 0 1 2.637-1.013l20.104 8.95a1.997 1.997 0 0 1 1.011 2.638l-10.983 24.67a1.998 1.998 0 0 1-2.637 1.012l-20.104-8.95a1.997 1.997 0 0 1-1.011-2.638l10.983-24.67m5.48 2.443l16.445 7.321-10.982 24.666-16.444-7.321 10.982-24.666m1.113 4.874l1.828.814-.814 1.827-1.827-.814.813-1.827m4.568 2.034l1.827.814-.813 1.827-1.827-.814.813-1.827m4.568 2.034l1.827.813-.813 1.827-1.828-.813.814-1.827m-11.17.5l1.828.814-.814 1.827-1.827-.814.814-1.827m4.567 2.034l1.828.813-.814 1.827-1.827-.813.813-1.827m4.568 2.033l1.827.814-.813 1.827-1.827-.813.813-1.828m-11.169.5l1.827.814-.813 1.827-1.827-.813.813-1.827m4.568 2.034l1.827.813-.814 1.827-1.827-.813.814-1.827m4.568 2.033l1.827.814-.814 1.827-1.827-.814.814-1.827m-12.496 10.856l-2.034 4.568-1.726-3.505-3.755 1.065 2.033-4.568 5.482 2.44M426.28 142.548a1.998 1.998 0 0 1 2.672.92l9.646 19.778a1.997 1.997 0 0 1-.92 2.671l-24.27 11.838a1.998 1.998 0 0 1-2.672-.92l-9.647-19.778a1.997 1.997 0 0 1 .92-2.671l24.271-11.838m2.629 5.394l7.89 16.178-24.267 11.836-7.89-16.178 24.267-11.836m-2.28 4.45l.876 1.797-1.797.877-.877-1.797 1.798-.877m2.192 4.494l.876 1.797-1.797.877-.877-1.797 1.798-.877m2.191 4.494l.877 1.797-1.797.877-.877-1.797 1.797-.877m-8.877-6.796l.876 1.797-1.797.877-.877-1.798 1.798-.876m2.192 4.494l.876 1.797-1.797.877-.877-1.798 1.798-.876m2.191 4.494l.877 1.797-1.797.877-.877-1.798 1.797-.876m-8.877-6.796l.877 1.797-1.798.877-.877-1.798 1.798-.876m2.192 4.494l.876 1.797-1.797.877-.877-1.798 1.798-.876m2.191 4.493l.877 1.798-1.797.877-.877-1.798 1.797-.877m-16.55.284l-4.494 2.192.931-3.794-3.561-1.598 4.494-2.192 2.63 5.392M459.473 119.993a1.998 1.998 0 0 1 .441-2.79l17.804-12.936a1.997 1.997 0 0 1 2.79.443l15.872 21.847c.649.892.45 2.142-.441 2.79l-17.803 12.935a1.997 1.997 0 0 1-2.79-.443l-15.873-21.846m4.856-3.526l14.562-10.58 15.87 21.844-14.562 10.58-15.87-21.844m4.778 1.473l1.618-1.175 1.175 1.618-1.618 1.175-1.175-1.618m4.045-2.939l1.618-1.175 1.175 1.618-1.618 1.175-1.175-1.618m4.045-2.939l1.618-1.175 1.176 1.618-1.619 1.175-1.175-1.618m-5.151 9.923l1.618-1.175 1.175 1.618-1.618 1.175-1.175-1.618m4.045-2.939l1.618-1.175 1.175 1.618-1.618 1.175-1.175-1.618m4.045-2.939l1.618-1.175 1.175 1.618-1.618 1.175-1.175-1.618m-5.151 9.923l1.618-1.175 1.175 1.618-1.618 1.175-1.175-1.618m4.045-2.939l1.618-1.175 1.175 1.618-1.618 1.175-1.175-1.618m4.045-2.939l1.618-1.175 1.175 1.618-1.618 1.175-1.175-1.618m3.153 16.25l2.94 4.045-3.899-.258-.956 3.785-2.939-4.045 4.854-3.527M519.473 128.993a1.998 1.998 0 0 1 .441-2.79l17.804-12.936a1.997 1.997 0 0 1 2.79.443l15.872 21.847c.649.892.45 2.142-.441 2.79l-17.803 12.935a1.997 1.997 0 0 1-2.79-.443l-15.873-21.846m4.856-3.526l14.562-10.58 15.87 21.844-14.562 10.58-15.87-21.844m4.778 1.473l1.618-1.175 1.175 1.618-1.618 1.175-1.175-1.618m4.045-2.939l1.618-1.175 1.175 1.618-1.618 1.175-1.175-1.618m4.045-2.939l1.618-1.175 1.176 1.618-1.619 1.175-1.175-1.618m-5.151 9.923l1.618-1.175 1.175 1.618-1.618 1.175-1.175-1.618m4.045-2.939l1.618-1.175 1.175 1.618-1.618 1.175-1.175-1.618m4.045-2.939l1.618-1.175 1.175 1.618-1.618 1.175-1.175-1.618m-5.151 9.923l1.618-1.175 1.175 1.618-1.618 1.175-1.175-1.618m4.045-2.939l1.618-1.175 1.175 1.618-1.618 1.175-1.175-1.618m4.045-2.939l1.618-1.175 1.175 1.618-1.618 1.175-1.175-1.618m3.153 16.25l2.94 4.045-3.899-.258-.956 3.785-2.939-4.045 4.854-3.527"/></g></svg>