<svg xmlns="http://www.w3.org/2000/svg" viewBox="0 0 605 180"><title>root</title><g fill-rule="evenodd"><path d="M50.464 37.053c8.61-4.971 11.56-15.98 6.589-24.589-4.971-8.61-15.98-11.559-24.589-6.588-8.61 4.97-11.559 15.979-6.588 24.588 4.97 8.61 15.979 11.56 24.588 6.589zm-1-1.732c7.653-4.419 10.275-14.204 5.857-21.857C50.902 5.811 41.117 3.19 33.464 7.608c-7.653 4.418-10.275 14.203-5.856 21.856 4.418 7.653 14.203 10.275 21.856 5.857zm-1-1.733c6.696-3.866 8.99-12.428 5.124-19.124-3.866-6.696-12.428-8.99-19.124-5.124-6.696 3.866-8.99 12.428-5.124 19.124 3.866 6.696 12.428 8.99 19.124 5.124zm-5.478-13.69A4 4 0 1 0 39.365 22L42 30.392l6.928-4-5.942-6.494zM75.119 72.36c9.79 1.727 19.126-4.81 20.852-14.6 1.726-9.79-4.81-19.126-14.6-20.853-9.79-1.726-19.127 4.811-20.853 14.601-1.726 9.79 4.81 19.126 14.601 20.852zm.347-1.97c8.703 1.535 17.001-4.275 18.536-12.978 1.534-8.702-4.277-17-12.979-18.535-8.702-1.535-17 4.276-18.535 12.978-1.535 8.703 4.276 17.001 12.978 18.536zm.348-1.969c7.614 1.343 14.875-3.742 16.218-11.356 1.343-7.615-3.742-14.876-11.356-16.218-7.615-1.343-14.876 3.741-16.219 11.356-1.342 7.614 3.742 14.875 11.357 16.218zm4.603-14.009a4 4 0 1 0-4.125-.718l-3.376 8.124 7.879 1.389-.378-8.795zM140.464 46.053c8.61-4.971 11.56-15.98 6.589-24.589-4.971-8.61-15.98-11.559-24.589-6.588-8.61 4.97-11.559 15.979-6.588 24.588 4.97 8.61 15.979 11.56 24.588 6.589zm-1-1.732c7.653-4.419 10.275-14.204 5.857-21.857-4.419-7.653-14.204-10.275-21.857-5.856-7.653 4.418-10.275 14.203-5.856 21.856 4.418 7.653 14.203 10.275 21.856 5.857zm-1-1.733c6.696-3.866 8.99-12.428 5.124-19.124-3.866-6.696-12.428-8.99-19.124-5.124-6.696 3.866-8.99 12.428-5.124 19.124 3.866 6.696 12.428 8.99 19.124 5.124zm-5.478-13.69A4 4 0 1 0 129.365 31L132 39.392l6.928-4-5.942-6.494zM192.234 52.041c9.342 3.4 19.671-1.416 23.071-10.758 3.4-9.341-1.416-19.67-10.758-23.07-9.342-3.4-19.67 1.416-23.07 10.757-3.4 9.342 1.416 19.671 10.757 23.071zm.684-1.88c8.304 3.023 17.485-1.258 20.508-9.562 3.022-8.303-1.26-17.485-9.563-20.507-8.304-3.023-17.485 1.259-20.507 9.563-3.023 8.303 1.259 17.485 9.562 20.507zm.684-1.878c7.266 2.644 15.3-1.102 17.944-8.368 2.645-7.266-1.101-15.3-8.367-17.944-7.266-2.644-15.3 1.102-17.944 8.368-2.645 7.265 1.102 15.3 8.367 17.944zm6.966-12.997a4 4 0 1 0-3.937-1.423l-4.735 7.413 7.517 2.736 1.155-8.726zM271.464 43.053c8.61-4.971 11.56-15.98 6.589-24.589-4.971-8.61-15.98-11.559-24.589-6.588-8.61 4.97-11.559 15.979-6.588 24.588 4.97 8.61 15.979 11.56 24.588 6.589zm-1-1.732c7.653-4.419 10.275-14.204 5.857-21.857-4.419-7.653-14.204-10.275-21.857-5.856-7.653 4.418-10.275 14.203-5.856 21.856 4.418 7.653 14.203 10.275 21.856 5.857zm-1-1.733c6.696-3.866 8.99-12.428 5.124-19.124-3.866-6.696-12.428-8.99-19.124-5.124-6.696 3.866-8.99 12.428-5.124 19.124 3.866 6.696 12.428 8.99 19.124 5.124zm-5.478-13.69A4 4 0 1 0 260.365 28L263 36.392l6.928-4-5.942-6.494zM346.098 51.918c8.521 5.12 19.58 2.363 24.7-6.158 5.12-8.522 2.362-19.58-6.159-24.7-8.521-5.12-19.58-2.363-24.7 6.158-5.12 8.521-2.362 19.58 6.159 24.7zm1.03-1.715c7.574 4.552 17.404 2.1 21.955-5.474 4.551-7.574 2.1-17.404-5.474-21.955-7.574-4.551-17.404-2.1-21.955 5.474-4.551 7.575-2.1 17.404 5.474 21.955zm1.03-1.714c6.628 3.982 15.229 1.838 19.21-4.79 3.983-6.627 1.839-15.228-4.789-19.21-6.628-3.983-15.229-1.838-19.21 4.79-3.983 6.627-1.839 15.228 4.789 19.21zm9.318-11.429a4 4 0 1 0-3.593-2.148l-6.063 6.374 6.857 4.12 2.799-8.346zM441.604 47.405c6.906-7.15 6.707-18.546-.444-25.452-7.151-6.906-18.546-6.707-25.452.444-6.906 7.151-6.707 18.547.444 25.452 7.151 6.906 18.546 6.707 25.452-.444zm-1.439-1.39c6.139-6.356 5.962-16.485-.394-22.623-6.357-6.139-16.486-5.962-22.624.395-6.139 6.356-5.962 16.485.394 22.624 6.357 6.138 16.486 5.961 22.624-.395zm-1.438-1.389c5.37-5.561 5.216-14.424-.346-19.795-5.562-5.372-14.425-5.217-19.796.345-5.37 5.562-5.216 14.425.346 19.796 5.562 5.371 14.425 5.216 19.796-.346zm-9.04-11.65a4 4 0 1 0-2.902 3.018l4.847 7.342 5.557-5.755-7.502-4.604zM519.167 40.447c8.043-5.843 9.826-17.1 3.983-25.142-5.844-8.043-17.1-9.826-25.143-3.982-8.042 5.843-9.825 17.1-3.982 25.142 5.843 8.043 17.1 9.825 25.142 3.982zm-1.175-1.618c7.149-5.194 8.733-15.2 3.54-22.349-5.195-7.149-15.2-8.733-22.35-3.54-7.148 5.195-8.733 15.2-3.54 22.35 5.195 7.148 15.2 8.733 22.35 3.54zm-1.176-1.618c6.256-4.545 7.642-13.3 3.097-19.555-4.544-6.255-13.3-7.642-19.555-3.097-6.255 4.544-7.642 13.3-3.097 19.555 4.545 6.255 13.3 7.642 19.555 3.097zm-6.88-13.043a4 4 0 1 0-3.382 2.468l3.5 8.072 6.472-4.702-6.59-5.838zM544.014 65.476c8.241 5.559 19.429 3.384 24.988-4.858 5.56-8.241 3.384-19.429-4.857-24.988-8.242-5.559-19.43-3.384-24.988 4.857-5.56 8.242-3.385 19.43 4.857 24.989zm1.118-1.658c7.326 4.94 17.27 3.008 22.212-4.318 4.941-7.326 3.008-17.27-4.318-22.212-7.325-4.941-17.27-3.008-22.211 4.318-4.942 7.326-3.009 17.27 4.317 22.212zm1.119-1.659c6.41 4.324 15.111 2.633 19.435-3.777 4.324-6.41 2.632-15.112-3.778-19.436-6.41-4.323-15.111-2.632-19.435 3.778-4.324 6.41-2.632 15.112 3.778 19.435zm9.903-10.925a4 4 0 1 0-3.476-2.334l-6.388 6.048 6.632 4.474 3.232-8.188zM16.234 93.041c9.342 3.4 19.671-1.416 23.071-10.758 3.4-9.341-1.416-19.67-10.758-23.07-9.342-3.4-19.67 1.416-23.07 10.757-3.4 9.342 1.416 19.671 10.757 23.071zm.684-1.88c8.304 3.023 17.485-1.258 20.508-9.562 3.022-8.303-1.26-17.485-9.563-20.507-8.304-3.023-17.485 1.259-20.507 9.563-3.023 8.303 1.259 17.485 9.562 20.507zm.684-1.878c7.266 2.644 15.3-1.102 17.944-8.368 2.645-7.266-1.101-15.3-8.367-17.944-7.266-2.644-15.3 1.102-17.944 8.368-2.645 7.265 1.102 15.3 8.367 17.944zm6.966-12.997a4 4 0 1 0-3.937-1.423l-4.735 7.413 7.517 2.736 1.155-8.726zM130.464 101.053c8.61-4.971 11.56-15.98 6.589-24.589-4.971-8.61-15.98-11.559-24.589-6.588-8.61 4.97-11.559 15.979-6.588 24.588 4.97 8.61 15.979 11.56 24.588 6.589zm-1-1.732c7.653-4.419 10.275-14.204 5.857-21.857-4.419-7.653-14.204-10.275-21.857-5.856-7.653 4.418-10.275 14.203-5.856 21.856 4.418 7.653 14.203 10.275 21.856 5.857zm-1-1.733c6.696-3.866 8.99-12.428 5.124-19.124-3.866-6.696-12.428-8.99-19.124-5.124-6.696 3.866-8.99 12.428-5.124 19.124 3.866 6.696 12.428 8.99 19.124 5.124zm-5.478-13.69A4 4 0 1 0 119.365 86L122 94.392l6.928-4-5.942-6.494zM171 95c9.941 0 18-8.059 18-18s-8.059-18-18-18-18 8.059-18 18 8.059 18 18 18zm0-2c8.837 0 16-7.163 16-16s-7.163-16-16-16-16 7.163-16 16 7.163 16 16 16zm0-2c7.732 0 14-6.268 14-14s-6.268-14-14-14-14 6.268-14 14 6.268 14 14 14zm2.1-14.595a4 4 0 1 0-4.187.01l-1.913 8.585h8l-1.9-8.595zM243.464 91.053c8.61-4.971 11.56-15.98 6.589-24.589-4.971-8.61-15.98-11.559-24.589-6.588-8.61 4.97-11.559 15.979-6.588 24.588 4.97 8.61 15.979 11.56 24.588 6.589zm-1-1.732c7.653-4.419 10.275-14.204 5.857-21.857-4.419-7.653-14.204-10.275-21.857-5.856-7.653 4.418-10.275 14.203-5.856 21.856 4.418 7.653 14.203 10.275 21.856 5.857zm-1-1.733c6.696-3.866 8.99-12.428 5.124-19.124-3.866-6.696-12.428-8.99-19.124-5.124-6.696 3.866-8.99 12.428-5.124 19.124 3.866 6.696 12.428 8.99 19.124 5.124zm-5.478-13.69A4 4 0 1 0 232.365 76L235 84.392l6.928-4-5.942-6.494zM284.76 118.971c9.79-1.726 16.327-11.062 14.6-20.852-1.726-9.79-11.062-16.327-20.852-14.6-9.79 1.725-16.327 11.061-14.6 20.851 1.726 9.79 11.061 16.327 20.851 14.601zm-.348-1.97c8.703-1.534 14.513-9.832 12.979-18.535-1.535-8.702-9.833-14.513-18.536-12.978-8.702 1.534-14.513 9.833-12.978 18.535 1.534 8.702 9.833 14.513 18.535 12.979zm-.347-1.97c7.614-1.342 12.699-8.603 11.356-16.217-1.343-7.615-8.604-12.7-16.218-11.357-7.615 1.343-12.7 8.604-11.356 16.219 1.342 7.614 8.603 12.699 16.218 11.356zm-.466-14.738a4 4 0 1 0-4.121.736l-.394 8.789 7.878-1.39-3.363-8.135zM311.76 78.971c9.79-1.726 16.327-11.062 14.6-20.852-1.726-9.79-11.062-16.327-20.852-14.6-9.79 1.725-16.327 11.061-14.6 20.851 1.726 9.79 11.061 16.327 20.851 14.601zm-.348-1.97c8.703-1.534 14.513-9.832 12.979-18.535-1.535-8.702-9.833-14.513-18.536-12.978-8.702 1.534-14.513 9.833-12.978 18.535 1.534 8.702 9.833 14.513 18.535 12.979zm-.347-1.97c7.614-1.342 12.699-8.603 11.356-16.217-1.343-7.615-8.604-12.7-16.218-11.357-7.615 1.343-12.7 8.604-11.356 16.219 1.342 7.614 8.603 12.699 16.218 11.356zm-.466-14.738a4 4 0 1 0-4.121.736l-.394 8.789 7.878-1.39-3.363-8.135zM396.167 88.447c8.043-5.843 9.826-17.1 3.983-25.142-5.844-8.043-17.1-9.826-25.143-3.982-8.042 5.843-9.825 17.1-3.982 25.142 5.843 8.043 17.1 9.825 25.142 3.982zm-1.175-1.618c7.149-5.194 8.733-15.2 3.54-22.349-5.195-7.149-15.2-8.733-22.35-3.54-7.148 5.195-8.733 15.2-3.54 22.35 5.195 7.148 15.2 8.733 22.35 3.54zm-1.176-1.618c6.256-4.545 7.642-13.3 3.097-19.555-4.544-6.255-13.3-7.642-19.555-3.097-6.255 4.544-7.642 13.3-3.097 19.555 4.545 6.255 13.3 7.642 19.555 3.097zm-6.88-13.043a4 4 0 1 0-3.382 2.468l3.5 8.072 6.472-4.702-6.59-5.838zM457.706 86.725c9.082 4.043 19.722-.04 23.765-9.123 4.043-9.081-.04-19.721-9.123-23.765-9.081-4.043-19.721.041-23.765 9.123-4.043 9.082.041 19.722 9.123 23.765zm.813-1.827c8.073 3.594 17.53-.036 21.125-8.11 3.594-8.072-.036-17.53-8.109-21.124-8.073-3.594-17.53.037-21.124 8.11-3.595 8.072.036 17.53 8.108 21.124zm.814-1.827c7.063 3.145 15.339-.032 18.484-7.096 3.145-7.063-.032-15.339-7.095-18.484-7.064-3.144-15.34.032-18.484 7.096-3.145 7.063.031 15.339 7.095 18.484zm7.856-12.48a4 4 0 1 0-3.828-1.695l-5.242 7.067 7.309 3.253 1.76-8.624zM515.456 106.225c9.917.694 18.518-6.783 19.211-16.7.694-9.917-6.783-18.518-16.7-19.212-9.917-.693-18.518 6.784-19.212 16.7-.693 9.918 6.784 18.519 16.7 19.212zm.14-1.995c8.814.617 16.46-6.03 17.076-14.845.617-8.815-6.03-16.46-14.845-17.077-8.815-.616-16.46 6.03-17.077 14.845-.616 8.815 6.03 16.46 14.845 17.077zm.139-1.995c7.713.54 14.403-5.276 14.942-12.99.54-7.712-5.276-14.402-12.99-14.942-7.712-.539-14.402 5.277-14.942 12.99-.539 7.713 5.276 14.403 12.99 14.942zm3.113-14.413a4 4 0 1 0-4.177-.283l-2.508 8.432 7.98.558-1.295-8.707zM589.167 109.447c8.043-5.843 9.826-17.1 3.983-25.142-5.844-8.043-17.1-9.826-25.143-3.982-8.042 5.843-9.825 17.1-3.982 25.142 5.843 8.043 17.1 9.825 25.142 3.982zm-1.175-1.618c7.149-5.194 8.733-15.2 3.54-22.349-5.195-7.149-15.2-8.733-22.35-3.54-7.148 5.195-8.733 15.2-3.54 22.35 5.195 7.148 15.2 8.733 22.35 3.54zm-1.176-1.618c6.256-4.545 7.642-13.3 3.097-19.555-4.544-6.255-13.3-7.642-19.555-3.097-6.255 4.544-7.642 13.3-3.097 19.555 4.545 6.255 13.3 7.642 19.555 3.097zm-6.88-13.043a4 4 0 1 0-3.382 2.468l3.5 8.072 6.472-4.702-6.59-5.838zM54.234 122.041c9.342 3.4 19.671-1.416 23.071-10.758 3.4-9.341-1.416-19.67-10.758-23.07-9.342-3.4-19.67 1.416-23.07 10.757-3.4 9.342 1.416 19.671 10.757 23.071zm.684-1.88c8.304 3.023 17.485-1.258 20.508-9.562 3.022-8.303-1.26-17.485-9.563-20.507-8.304-3.023-17.485 1.259-20.507 9.563-3.023 8.303 1.259 17.485 9.562 20.507zm.684-1.878c7.266 2.644 15.3-1.102 17.944-8.368 2.645-7.266-1.101-15.3-8.367-17.944-7.266-2.644-15.3 1.102-17.944 8.368-2.645 7.265 1.102 15.3 8.367 17.944zm6.966-12.997a4 4 0 1 0-3.937-1.423l-4.735 7.413 7.517 2.736 1.155-8.726zM39.283 158.305c9.342-3.4 14.158-13.73 10.758-23.07-3.4-9.342-13.729-14.159-23.07-10.759-9.342 3.4-14.159 13.73-10.759 23.071 3.4 9.342 13.73 14.158 23.071 10.758zm-.684-1.88c8.304-3.022 12.585-12.203 9.563-20.507-3.022-8.303-12.204-12.585-20.507-9.562-8.304 3.022-12.586 12.203-9.563 20.507 3.022 8.304 12.204 12.585 20.507 9.563zm-.684-1.879c7.266-2.644 11.012-10.678 8.368-17.944-2.645-7.265-10.679-11.012-17.944-8.367-7.266 2.644-11.012 10.678-8.368 17.944 2.645 7.266 10.678 11.012 17.944 8.367zm-3.018-14.433a4 4 0 1 0-3.931 1.44l1.138 8.723 7.518-2.736-4.725-7.427zM92 162c9.941 0 18-8.059 18-18s-8.059-18-18-18-18 8.059-18 18 8.059 18 18 18zm0-2c8.837 0 16-7.163 16-16s-7.163-16-16-16-16 7.163-16 16 7.163 16 16 16zm0-2c7.732 0 14-6.268 14-14s-6.268-14-14-14-14 6.268-14 14 6.268 14 14 14zm2.1-14.595a4 4 0 1 0-4.187.01l-1.913 8.585h8l-1.9-8.595zM137.234 144.041c9.342 3.4 19.671-1.416 23.071-10.758 3.4-9.341-1.416-19.67-10.758-23.07-9.342-3.4-19.67 1.416-23.07 10.757-3.4 9.342 1.416 19.671 10.757 23.071zm.684-1.88c8.304 3.023 17.485-1.258 20.508-9.562 3.022-8.303-1.26-17.485-9.563-20.507-8.304-3.023-17.485 1.259-20.507 9.563-3.023 8.303 1.259 17.485 9.562 20.507zm.684-1.878c7.266 2.644 15.3-1.102 17.944-8.368 2.645-7.266-1.101-15.3-8.367-17.944-7.266-2.644-15.3 1.102-17.944 8.368-2.645 7.265 1.102 15.3 8.367 17.944zm6.966-12.997a4 4 0 1 0-3.937-1.423l-4.735 7.413 7.517 2.736 1.155-8.726zM191.234 136.041c9.342 3.4 19.671-1.416 23.071-10.758 3.4-9.341-1.416-19.67-10.758-23.07-9.342-3.4-19.67 1.416-23.07 10.757-3.4 9.342 1.416 19.671 10.757 23.071zm.684-1.88c8.304 3.023 17.485-1.258 20.508-9.562 3.022-8.303-1.26-17.485-9.563-20.507-8.304-3.023-17.485 1.259-20.507 9.563-3.023 8.303 1.259 17.485 9.562 20.507zm.684-1.878c7.266 2.644 15.3-1.102 17.944-8.368 2.645-7.266-1.101-15.3-8.367-17.944-7.266-2.644-15.3 1.102-17.944 8.368-2.645 7.265 1.102 15.3 8.367 17.944zm6.966-12.997a4 4 0 1 0-3.937-1.423l-4.735 7.413 7.517 2.736 1.155-8.726zM203.464 176.053c8.61-4.971 11.56-15.98 6.589-24.589-4.971-8.61-15.98-11.559-24.589-6.588-8.61 4.97-11.559 15.979-6.588 24.588 4.97 8.61 15.979 11.56 24.588 6.589zm-1-1.732c7.653-4.419 10.275-14.204 5.857-21.857-4.419-7.653-14.204-10.275-21.857-5.856-7.653 4.418-10.275 14.203-5.856 21.856 4.418 7.653 14.203 10.275 21.856 5.857zm-1-1.733c6.696-3.866 8.99-12.428 5.124-19.124-3.866-6.696-12.428-8.99-19.124-5.124-6.696 3.866-8.99 12.428-5.124 19.124 3.866 6.696 12.428 8.99 19.124 5.124zm-5.478-13.69a4 4 0 1 0-3.621 2.101l2.635 8.393 6.928-4-5.942-6.494zM263.464 158.053c8.61-4.971 11.56-15.98 6.589-24.589-4.971-8.61-15.98-11.559-24.589-6.588-8.61 4.97-11.559 15.979-6.588 24.588 4.97 8.61 15.979 11.56 24.588 6.589zm-1-1.732c7.653-4.419 10.275-14.204 5.857-21.857-4.419-7.653-14.204-10.275-21.857-5.856-7.653 4.418-10.275 14.203-5.856 21.856 4.418 7.653 14.203 10.275 21.856 5.857zm-1-1.733c6.696-3.866 8.99-12.428 5.124-19.124-3.866-6.696-12.428-8.99-19.124-5.124-6.696 3.866-8.99 12.428-5.124 19.124 3.866 6.696 12.428 8.99 19.124 5.124zm-5.478-13.69a4 4 0 1 0-3.621 2.101l2.635 8.393 6.928-4-5.942-6.494zM289.718 157.206c6.39 7.615 17.744 8.608 25.36 2.218 7.614-6.39 8.608-17.744 2.218-25.359-6.39-7.615-17.744-8.609-25.36-2.218-7.615 6.39-8.608 17.743-2.218 25.359zm1.532-1.286c5.68 6.77 15.772 7.652 22.542 1.972 6.769-5.68 7.652-15.772 1.972-22.541-5.68-6.77-15.772-7.652-22.542-1.972-6.769 5.68-7.652 15.772-1.972 22.54zm1.532-1.286c4.97 5.923 13.801 6.696 19.724 1.726s6.696-13.8 1.726-19.724c-4.97-5.923-13.801-6.695-19.724-1.725-5.923 4.97-6.696 13.8-1.726 19.723zm12.531-7.772a4 4 0 1 0-2.698-3.201l-7.808 4.052 5.143 6.129 5.363-6.98zM353.424 111.077c6.39-7.615 5.397-18.969-2.218-25.359-7.616-6.39-18.97-5.397-25.36 2.219-6.39 7.615-5.396 18.969 2.22 25.359 7.614 6.39 18.968 5.396 25.358-2.219zm-1.532-1.285c5.68-6.77 4.797-16.862-1.972-22.542-6.77-5.68-16.861-4.797-22.541 1.972-5.68 6.77-4.797 16.862 1.972 22.542 6.769 5.68 16.861 4.797 22.541-1.972zm-1.532-1.286c4.97-5.923 4.197-14.754-1.726-19.724-5.923-4.97-14.753-4.197-19.723 1.726-4.97 5.923-4.198 14.754 1.725 19.724 5.923 4.97 14.754 4.197 19.724-1.726zm-9.83-10.991a4 4 0 1 0-2.684 3.213l5.347 6.985 5.142-6.128-7.805-4.07zM369.706 148.725c9.082 4.043 19.722-.04 23.765-9.123 4.043-9.081-.04-19.721-9.123-23.765-9.081-4.043-19.721.041-23.765 9.123-4.043 9.082.041 19.722 9.123 23.765zm.813-1.827c8.073 3.594 17.53-.036 21.125-8.11 3.594-8.072-.036-17.53-8.109-21.124-8.073-3.594-17.53.037-21.124 8.11-3.595 8.072.036 17.53 8.108 21.124zm.814-1.827c7.063 3.145 15.339-.032 18.484-7.096 3.145-7.063-.032-15.339-7.095-18.484-7.064-3.144-15.34.032-18.484 7.096-3.145 7.063.031 15.339 7.095 18.484zm7.856-12.48a4 4 0 1 0-3.828-1.695l-5.242 7.067 7.309 3.253 1.76-8.624zM420.706 124.725c9.082 4.043 19.722-.04 23.765-9.123 4.043-9.081-.04-19.721-9.123-23.765-9.081-4.043-19.721.041-23.765 9.123-4.043 9.082.041 19.722 9.123 23.765zm.813-1.827c8.073 3.594 17.53-.036 21.125-8.11 3.594-8.072-.036-17.53-8.109-21.124-8.073-3.594-17.53.037-21.124 8.11-3.595 8.072.036 17.53 8.108 21.124zm.814-1.827c7.063 3.145 15.339-.032 18.484-7.096 3.145-7.063-.032-15.339-7.095-18.484-7.064-3.144-15.34.032-18.484 7.096-3.145 7.063.031 15.339 7.095 18.484zm7.856-12.48a4 4 0 1 0-3.828-1.695l-5.242 7.067 7.309 3.253 1.76-8.624zM400.98 168.24c4.358 8.934 15.134 12.645 24.069 8.287 8.935-4.358 12.646-15.134 8.288-24.069-4.358-8.935-15.134-12.646-24.07-8.288-8.934 4.358-12.645 15.134-8.287 24.07zm1.798-.877c3.873 7.942 13.452 11.24 21.394 7.366 7.942-3.873 11.24-13.452 7.367-21.394-3.874-7.943-13.452-11.24-21.395-7.367-7.942 3.874-11.24 13.452-7.366 21.395zm1.797-.877c3.39 6.95 11.771 9.835 18.72 6.446 6.95-3.39 9.836-11.771 6.446-18.72-3.39-6.95-11.77-9.836-18.72-6.446-6.95 3.389-9.835 11.77-6.446 18.72zm14.04-4.51a4 4 0 1 0-1.844-3.759l-8.557 2.043 3.507 7.19 6.893-5.474zM489.167 140.447c8.043-5.843 9.826-17.1 3.983-25.142-5.844-8.043-17.1-9.826-25.143-3.982-8.042 5.843-9.825 17.1-3.982 25.142 5.843 8.043 17.1 9.825 25.142 3.982zm-1.175-1.618c7.149-5.194 8.733-15.2 3.54-22.349-5.195-7.149-15.2-8.733-22.35-3.54-7.148 5.195-8.733 15.2-3.54 22.35 5.195 7.148 15.2 8.733 22.35 3.54zm-1.176-1.618c6.256-4.545 7.642-13.3 3.097-19.555-4.544-6.255-13.3-7.642-19.555-3.097-6.255 4.544-7.642 13.3-3.097 19.555 4.545 6.255 13.3 7.642 19.555 3.097zm-6.88-13.043a4 4 0 1 0-3.382 2.468l3.5 8.072 6.472-4.702-6.59-5.838zM549.167 149.447c8.043-5.843 9.826-17.1 3.983-25.142-5.844-8.043-17.1-9.826-25.143-3.982-8.042 5.843-9.825 17.1-3.982 25.142 5.843 8.043 17.1 9.825 25.142 3.982zm-1.175-1.618c7.149-5.194 8.733-15.2 3.54-22.349-5.195-7.149-15.2-8.733-22.35-3.54-7.148 5.195-8.733 15.2-3.54 22.35 5.195 7.148 15.2 8.733 22.35 3.54zm-1.176-1.618c6.256-4.545 7.642-13.3 3.097-19.555-4.544-6.255-13.3-7.642-19.555-3.097-6.255 4.544-7.642 13.3-3.097 19.555 4.545 6.255 13.3 7.642 19.555 3.097zm-6.88-13.043a4 4 0 1 0-3.382 2.468l3.5 8.072 6.472-4.702-6.59-5.838z"/></g></svg>