<svg xmlns="http://www.w3.org/2000/svg" viewBox="0 0 605 180"><title>ruby</title><g fill-rule="evenodd"><path d="M42.047 4.102l-6.756 3.9 8.476 3.586zM31.735 18.535l1.133-9.134-6.755 3.9zM35.005 10.305l-1.214 9.79 10.299-5.947zM44.845 16.279l-9.587 5.535L49.073 34.67zM46.35 12.843l8.113-4.684-10.138-4.127zM46.87 15.11l4.264 18.549 4.318-23.504zM23.443 26.069l8.088-4.67-6.616-6.157zM33.233 22.983l-8.61 4.97 22.548 8.003zM89.851 41.708l-7.683-1.354 4.19 8.195zM72.675 46.136l6.739-6.268-7.682-1.355zM80.47 41.934l-7.223 6.718 11.712 2.065zM84.168 52.835l-10.902-1.922 2.318 18.728zM87.529 51.17l9.225 1.627-5.113-9.678zM86.471 53.241l-8.657 16.95 18.415-15.23zM61.48 46.577l9.197 1.622-1.11-8.969zM70.963 50.506l-9.79-1.726L73.3 69.404zM132.047 13.102l-6.756 3.9 8.476 3.586zM121.735 27.535l1.133-9.134-6.755 3.9zM125.005 19.305l-1.214 9.79 10.299-5.947zM134.845 25.279l-9.587 5.535 13.815 12.856zM136.35 21.843l8.113-4.684-10.138-4.127zM136.87 24.11l4.264 18.549 4.318-23.504zM113.443 35.069l8.088-4.67-6.616-6.157zM123.233 31.983l-8.61 4.97 22.548 8.003zM212.065 24.413l-7.33-2.668 2.701 8.798zM194.38 25.791l7.726-5.003-7.33-2.668zM202.787 23.006l-8.279 5.362 11.175 4.068zM204.536 34.384l-10.402-3.786-.97 18.846zM208.135 33.328l8.803 3.204-3.355-10.418zM206.734 35.184l-11.47 15.19 20.78-11.801zM183.28 24.281l8.775 3.195.465-9.026zM191.936 29.798l-9.342-3.4 8.364 22.416zM263.047 10.102l-6.756 3.9 8.476 3.586zM252.735 24.535l1.133-9.134-6.755 3.9zM256.005 16.305l-1.214 9.79 10.299-5.947zM265.845 22.279l-9.587 5.535 13.815 12.856zM267.35 18.843l8.113-4.684-10.138-4.127zM267.87 21.11l4.264 18.549 4.318-23.504zM244.443 32.069l8.088-4.67-6.616-6.157zM254.233 28.983l-8.61 4.97 22.548 8.003z"/><g><path d="M370.836 28.581l-6.687-4.018.974 9.152zM353.214 26.56l8.538-3.437-6.687-4.018zM361.997 25.43l-9.15 3.684 10.193 6.124zM361.543 36.932l-9.489-5.701-4.547 18.315zM365.277 36.583l8.03 4.824-1.305-10.867zM363.548 38.137L349.39 50.859l22.65-7.62zM342.604 22.96l8.006 4.81 2.177-8.772zM350.05 30.026l-8.522-5.12 3.932 23.6z"/></g><g><path d="M424.43 18.051l-5.419 5.612 9.137 1.11zM418.497 34.767l-1.429-9.092-5.419 5.611zM419.372 25.955l1.53 9.744 8.261-8.554zM430.477 28.985l-7.69 7.963 16.823 8.55zM430.976 25.268l6.508-6.739-10.883-1.173zM432.102 27.302l9.211 16.656-2.329-23.783zM412.602 44.295l6.488-6.718-8.057-4.095zM421.162 38.63l-6.906 7.151 23.88 1.478z"/></g><g><path d="M507.352 8.557l-6.311 4.586 8.805 2.68zM498.606 23.989l.172-9.202-6.311 4.585zM500.998 15.462l-.185 9.863 9.62-6.99zM511.408 20.374l-8.956 6.507 15.083 11.343zM512.545 16.8l7.579-5.506L509.61 8.25zM513.3 19l6.18 18.002 1.836-23.826zM491.146 32.348l7.555-5.49-7.222-5.431zM500.56 28.256l-8.043 5.843 23.26 5.602z"/></g><g><path d="M569.94 43.466l-6.468-4.363.493 9.19zM552.447 40.525l8.706-2.986-6.467-4.362zM561.278 39.856l-9.33 3.2 9.858 6.65zM560.222 51.319l-9.177-6.19-5.5 18.052zM563.97 51.165l7.766 5.239L571 45.483zM562.161 52.627L547.358 64.59l23.018-6.423zM542.04 36.374l7.743 5.222 2.634-8.645zM549.106 43.82l-8.242-5.558 2.692 23.773z"/></g><g><path d="M36.065 65.413l-7.33-2.668 2.701 8.798zM18.38 66.791l7.726-5.003-7.33-2.668zM26.787 64.006l-8.279 5.362 11.175 4.068zM28.536 75.384l-10.402-3.786-.97 18.846zM32.135 74.328l8.803 3.204-3.355-10.418zM30.734 76.184l-11.47 15.19 20.78-11.801zM7.28 65.281l8.775 3.195.465-9.026zM15.936 70.798l-9.342-3.4 8.364 22.416z"/></g><g><path d="M122.047 68.102l-6.756 3.9 8.476 3.586zM111.735 82.535l1.133-9.134-6.755 3.9zM115.005 74.305l-1.214 9.79 10.299-5.947zM124.845 80.279l-9.587 5.535 13.815 12.856zM126.35 76.843l8.113-4.684-10.138-4.127zM126.87 79.11l4.264 18.549 4.318-23.504zM103.443 90.069l8.088-4.67-6.616-6.157zM113.233 86.983l-8.61 4.97 22.548 8.003z"/></g><g><path d="M180.186 62.255h-7.802l5.549 7.344zM164.04 69.599l5.547-7.344h-7.8zM170.986 64.107l-5.946 7.87h11.892zM176.52 74.2h-11.07l5.536 18.041zM179.542 71.977h9.367l-6.716-8.643zM178.86 74.2l-5.583 18.196L188.768 74.2zM153.09 71.977h9.34l-2.65-8.64zM163.112 74.2h-9.941l15.526 18.204z"/></g><g><path d="M235.047 58.102l-6.756 3.9 8.476 3.586zM224.735 72.535l1.133-9.134-6.755 3.9zM228.005 64.305l-1.214 9.79 10.299-5.947zM237.845 70.279l-9.587 5.535 13.815 12.856zM239.35 66.843l8.113-4.684-10.138-4.127zM239.87 69.11l4.264 18.549 4.318-23.504zM216.443 80.069l8.088-4.67-6.616-6.157zM226.233 76.983l-8.61 4.97 22.548 8.003z"/></g><g><path d="M288.12 85.13l-7.683 1.354 6.739 6.268zM273.494 95.165l4.188-8.196L270 88.324zM279.381 88.55l-4.489 8.783 11.711-2.065zM286.585 97.528l-10.902 1.923 8.584 16.806zM289.174 94.815l9.225-1.627-8.115-7.345zM288.888 97.122l-2.338 18.89 12.096-20.61zM263.124 99.408l9.198-1.622-4.11-8.048zM273.38 99.857l-9.79 1.726 18.45 15.231z"/></g><g><path d="M315.12 45.13l-7.683 1.354 6.739 6.268zM300.494 55.165l4.188-8.196L297 48.324zM306.381 48.55l-4.489 8.783 11.711-2.065zM313.585 57.528l-10.902 1.923 8.584 16.806zM316.174 54.815l9.225-1.627-8.115-7.345zM315.888 57.122l-2.338 18.89 12.096-20.61zM290.124 59.408l9.198-1.622-4.11-8.048zM300.38 59.857l-9.79 1.726 18.45 15.231z"/></g><g><path d="M384.352 56.557l-6.311 4.586 8.805 2.68zM375.606 71.989l.172-9.202-6.311 4.585zM377.998 63.462l-.185 9.863 9.62-6.99zM388.408 68.374l-8.956 6.507 15.083 11.343zM389.545 64.8l7.579-5.506-10.514-3.044zM390.3 67l6.18 18.002 1.836-23.826zM368.146 80.348l7.555-5.49-7.222-5.431zM377.56 76.256l-8.043 5.843 23.26 5.602z"/></g><g><path d="M479.416 60.547l-7.127-3.173 2.082 8.966zM461.678 60.689l8.056-4.452-7.127-3.173zM470.259 58.497l-8.634 4.771 10.864 4.837zM471.21 69.969l-10.113-4.503-2.282 18.733zM474.874 69.167l8.557 3.81-2.62-10.627zM473.346 70.92l-12.5 14.352 21.552-10.322zM450.71 58.408l8.531 3.799 1.093-8.971zM458.96 64.515l-9.082-4.044 6.78 22.945z"/></g><g><path d="M526.903 74.201l-7.782-.544 5.022 7.713zM510.284 80.4l6.046-6.938-7.781-.544zM517.597 75.407l-6.48 7.436 11.862.83zM522.414 85.861l-11.043-.772 4.263 18.384zM525.583 83.854l9.344.654-6.096-9.09zM524.747 86.024l-6.838 17.763 16.722-17.072zM499.196 82.01l9.316.65-2.041-8.803zM509.038 84.926l-9.917-.694 14.218 19.243z"/></g><g><path d="M577.352 77.557l-6.311 4.586 8.805 2.68zM568.606 92.989l.172-9.202-6.311 4.585zM570.998 84.462l-.185 9.863 9.62-6.99zM581.408 89.374l-8.956 6.507 15.083 11.343zM582.545 85.8l7.579-5.506-10.514-3.044zM583.3 88l6.18 18.002 1.836-23.826zM561.146 101.348l7.555-5.49-7.222-5.431zM570.56 97.256l-8.043 5.843 23.26 5.602z"/></g><g><path d="M74.065 94.413l-7.33-2.668 2.701 8.798zM56.38 95.791l7.726-5.003-7.33-2.668zM64.787 93.006l-8.279 5.362 11.175 4.068zM66.536 104.384l-10.402-3.786-.97 18.846zM70.135 103.328l8.803 3.204-3.355-10.418zM68.734 105.184l-11.47 15.19 20.78-11.801zM45.28 94.281l8.775 3.195.465-9.026zM53.936 99.798l-9.342-3.4 8.364 22.416z"/></g><g><path d="M36.716 124.394l-7.331 2.668 7.725 5.003zM24.054 136.817l2.702-8.798-7.33 2.668zM28.704 129.28l-2.896 9.43 11.175-4.068zM37.357 136.871l-10.402 3.786 11.372 15.06zM39.436 133.75l8.802-3.205-9.267-5.824zM39.555 136.071l.978 19.009 8.333-22.398zM14.58 142.796l8.776-3.194-5.446-7.212zM24.757 141.457l-9.342 3.4 20.816 11.796z"/></g><g><path d="M101.186 129.255h-7.802l5.549 7.344zM85.04 136.599l5.547-7.344h-7.8zM91.986 131.107l-5.946 7.87h11.892zM97.52 141.2H86.45l5.536 18.041zM100.542 138.977h9.367l-6.716-8.643zM99.86 141.2l-5.583 18.196 15.491-18.196zM74.09 138.977h9.34l-2.65-8.64zM84.112 141.2H74.17l15.526 18.204z"/></g><g><path d="M157.065 116.413l-7.33-2.668 2.701 8.798zM139.38 117.791l7.726-5.003-7.33-2.668zM147.787 115.006l-8.279 5.362 11.175 4.068zM149.536 126.384l-10.402-3.786-.97 18.846zM153.135 125.328l8.803 3.204-3.355-10.418zM151.734 127.184l-11.47 15.19 20.78-11.801zM128.28 116.281l8.775 3.195.465-9.026zM136.936 121.798l-9.342-3.4 8.364 22.416z"/></g><g><path d="M211.065 108.413l-7.33-2.668 2.701 8.798zM193.38 109.791l7.726-5.003-7.33-2.668zM201.787 107.006l-8.279 5.362 11.175 4.068zM203.536 118.384l-10.402-3.786-.97 18.846zM207.135 117.328l8.803 3.204-3.355-10.418zM205.734 119.184l-11.47 15.19 20.78-11.801zM182.28 108.281l8.775 3.195.465-9.026zM190.936 113.798l-9.342-3.4 8.364 22.416z"/></g><g><path d="M195.047 143.102l-6.756 3.9 8.476 3.586zM184.735 157.535l1.133-9.134-6.755 3.9zM188.005 149.305l-1.214 9.79 10.299-5.947zM197.845 155.279l-9.587 5.535 13.815 12.856zM199.35 151.843l8.113-4.684-10.138-4.127zM199.87 154.11l4.264 18.549 4.318-23.504zM176.443 165.069l8.088-4.67-6.616-6.157zM186.233 161.983l-8.61 4.97 22.548 8.003z"/></g><g><path d="M255.047 125.102l-6.756 3.9 8.476 3.586zM244.735 139.535l1.133-9.134-6.755 3.9zM248.005 131.305l-1.214 9.79 10.299-5.947zM257.845 137.279l-9.587 5.535 13.815 12.856zM259.35 133.843l8.113-4.684-10.138-4.127zM259.87 136.11l4.264 18.549 4.318-23.504zM236.443 147.069l8.088-4.67-6.616-6.157zM246.233 143.983l-8.61 4.97 22.548 8.003z"/></g><g><path d="M320.706 143.194l-5.014-5.976-2.06 8.97zM304.702 135.546l9.192-.47-5.014-5.976zM313.375 137.337l-9.851.504 7.644 9.11zM309.2 148.065l-7.115-8.48-10.263 15.837zM312.845 148.95l6.022 7.176 2.304-10.7zM310.704 149.856l-17.527 7.42 23.896.17zM295.843 128.687l6.003 7.155 4.915-7.584zM300.582 137.793l-6.39-7.616-3.966 23.595z"/></g><g><path d="M334.245 82.993l-5.015 5.976 9.192.47zM329.491 100.082l-2.059-8.97-5.014 5.975zM329.75 91.23l2.206 9.614 7.644-9.11zM341.039 93.478l-7.116 8.48 17.379 7.357zM341.278 89.735l6.022-7.176-10.938-.41zM342.542 91.686l10.351 15.973-3.982-23.563zM324.276 109.998l6.003-7.155-8.322-3.523zM332.42 103.75l-6.39 7.615 23.925-.192z"/></g><g><path d="M391.416 122.547l-7.127-3.173 2.082 8.966zM373.678 122.689l8.056-4.452-7.127-3.173zM382.259 120.497l-8.634 4.771 10.864 4.837zM383.21 131.969l-10.113-4.503-2.282 18.733zM386.874 131.167l8.557 3.81-2.62-10.627zM385.346 132.92l-12.5 14.352 21.552-10.322zM362.71 120.408l8.531 3.799 1.093-8.971zM370.96 126.515l-9.082-4.044 6.78 22.945z"/></g><g><path d="M442.416 98.547l-7.127-3.173 2.082 8.966zM424.678 98.689l8.056-4.452-7.127-3.173zM433.259 96.497l-8.634 4.771 10.864 4.837zM434.21 107.969l-10.113-4.503-2.282 18.733zM437.874 107.167l8.557 3.81-2.62-10.627zM436.346 108.92l-12.5 14.352 21.552-10.322zM413.71 96.408l8.531 3.799 1.093-8.971zM421.96 102.515l-9.082-4.044 6.78 22.945z"/></g><g><path d="M434.437 162.141l-3.42-7.012-4.168 8.206zM420.759 150.848l9.032 1.767-3.42-7.01zM428.74 154.684l-9.68-1.894 5.213 10.688zM422.095 164.083l-4.853-9.95-13.789 12.885zM425.417 165.824l4.107 8.42 4.824-9.825zM423.12 166.186l-18.801 2.959 23.145 5.946zM413.822 142.05l4.094 8.394 6.603-6.17zM416.217 152.031l-4.358-8.935-9.555 21.935z"/></g><g><path d="M477.352 108.557l-6.311 4.586 8.805 2.68zM468.606 123.989l.172-9.202-6.311 4.585zM470.998 115.462l-.185 9.863 9.62-6.99zM481.408 120.374l-8.956 6.507 15.083 11.343zM482.545 116.8l7.579-5.506-10.514-3.044zM483.3 119l6.18 18.002 1.836-23.826zM461.146 132.348l7.555-5.49-7.222-5.431zM470.56 128.256l-8.043 5.843 23.26 5.602z"/></g><g><path d="M537.352 117.557l-6.311 4.586 8.805 2.68zM528.606 132.989l.172-9.202-6.311 4.585zM530.998 124.462l-.185 9.863 9.62-6.99zM541.408 129.374l-8.956 6.507 15.083 11.343zM542.545 125.8l7.579-5.506-10.514-3.044zM543.3 128l6.18 18.002 1.836-23.826zM521.146 141.348l7.555-5.49-7.222-5.431zM530.56 137.256l-8.043 5.843 23.26 5.602z"/></g></g></svg>