<svg xmlns="http://www.w3.org/2000/svg" viewBox="0 0 605 180"><title>slack</title><g fill-rule="evenodd"><path d="M51.87 19.015l-1.63 1.843 1.908 1.685a1.866 1.866 0 1 1-2.472 2.796l-1.907-1.686-3.36 3.8 1.907 1.686a1.866 1.866 0 0 1-2.472 2.796l-1.907-1.686-1.63 1.843a1.866 1.866 0 1 1-2.796-2.472l1.63-1.843-3.658-3.234-1.63 1.843a1.865 1.865 0 0 1-2.633.161 1.866 1.866 0 0 1-.162-2.634l1.63-1.842-1.908-1.686a1.866 1.866 0 0 1 2.472-2.796l1.907 1.686 3.36-3.8-1.907-1.686a1.866 1.866 0 0 1 2.473-2.796l1.906 1.686 1.63-1.843a1.866 1.866 0 0 1 2.796 2.472l-1.63 1.843 3.658 3.235 1.63-1.843a1.866 1.866 0 0 1 2.795 2.472zm1.404-10.083c-9.4-8.857-15.485-8.676-24.342.723-8.857 9.398-8.676 15.484.723 24.341 9.398 8.857 15.484 8.676 24.341-.722 8.857-9.4 8.676-15.485-.722-24.342zM37.955 21.747l3.658 3.234 3.36-3.8-3.658-3.234-3.36 3.8zM87.79 59.447l-2.432.364.377 2.517a1.866 1.866 0 1 1-3.69.553l-.378-2.517-5.016.75.377 2.518a1.866 1.866 0 0 1-3.691.553l-.377-2.518-2.433.365a1.866 1.866 0 1 1-.553-3.691l2.433-.364-.723-4.83-2.433.365a1.865 1.865 0 0 1-2.121-1.57 1.866 1.866 0 0 1 1.569-2.121l2.432-.364-.377-2.518a1.866 1.866 0 0 1 3.69-.552l.378 2.517 5.016-.751-.377-2.517a1.866 1.866 0 0 1 3.691-.553l.377 2.517 2.433-.364a1.866 1.866 0 0 1 .553 3.691l-2.433.364.723 4.83 2.433-.365a1.866 1.866 0 0 1 .553 3.69zm7.557-6.822c-1.507-12.827-6.285-16.6-19.111-15.093-12.827 1.507-16.6 6.284-15.093 19.11 1.506 12.827 6.284 16.6 19.11 15.094 12.827-1.507 16.6-6.285 15.094-19.111zm-19.973-.03l.724 4.829 5.016-.751-.723-4.83-5.017.752zM141.87 28.015l-1.63 1.843 1.908 1.685a1.866 1.866 0 1 1-2.472 2.796l-1.907-1.686-3.36 3.8 1.907 1.686a1.866 1.866 0 0 1-2.472 2.796l-1.907-1.686-1.63 1.843a1.866 1.866 0 1 1-2.796-2.472l1.63-1.843-3.658-3.234-1.63 1.843a1.865 1.865 0 0 1-2.633.161 1.866 1.866 0 0 1-.162-2.634l1.63-1.842-1.908-1.686a1.866 1.866 0 0 1 2.472-2.796l1.907 1.686 3.36-3.8-1.907-1.686a1.866 1.866 0 0 1 2.473-2.796l1.906 1.686 1.63-1.843a1.866 1.866 0 0 1 2.796 2.472l-1.63 1.843 3.658 3.235 1.63-1.843a1.866 1.866 0 0 1 2.795 2.472zm1.404-10.083c-9.4-8.857-15.485-8.676-24.342.723-8.857 9.398-8.676 15.484.723 24.341 9.398 8.857 15.484 8.676 24.341-.722 8.857-9.4 8.676-15.485-.722-24.342zm-15.319 12.815l3.658 3.234 3.36-3.8-3.658-3.234-3.36 3.8zM206.956 41.524l-2.46-.064-.065 2.545a1.866 1.866 0 1 1-3.73-.097l.065-2.544-5.07-.132-.066 2.545a1.866 1.866 0 0 1-3.731-.097l.066-2.544-2.46-.064a1.866 1.866 0 1 1 .097-3.73l2.46.063.126-4.88-2.46-.065a1.865 1.865 0 0 1-1.816-1.913 1.866 1.866 0 0 1 1.914-1.818l2.458.064.066-2.544a1.866 1.866 0 0 1 3.73.096l-.065 2.545 5.07.131.067-2.544a1.866 1.866 0 0 1 3.73.096l-.065 2.545 2.459.063a1.866 1.866 0 0 1-.097 3.731l-2.459-.063-.127 4.88 2.46.064a1.866 1.866 0 0 1-.097 3.731zm8.626-5.406c.743-12.893-3.307-17.439-16.2-18.182-12.893-.744-17.439 3.306-18.182 16.2-.744 12.893 3.306 17.438 16.2 18.182 12.893.743 17.438-3.307 18.182-16.2zm-19.664-3.497l-.126 4.88 5.07.132.127-4.881-5.07-.131zM272.87 25.015l-1.63 1.843 1.908 1.685a1.866 1.866 0 1 1-2.472 2.796l-1.907-1.686-3.36 3.8 1.907 1.686a1.866 1.866 0 0 1-2.472 2.796l-1.907-1.686-1.63 1.843a1.866 1.866 0 1 1-2.796-2.472l1.63-1.843-3.658-3.234-1.63 1.843a1.865 1.865 0 0 1-2.633.161 1.866 1.866 0 0 1-.162-2.634l1.63-1.842-1.908-1.686a1.866 1.866 0 0 1 2.472-2.796l1.907 1.686 3.36-3.8-1.907-1.686a1.866 1.866 0 0 1 2.473-2.796l1.906 1.686 1.63-1.843a1.866 1.866 0 0 1 2.796 2.472l-1.63 1.843 3.658 3.235 1.63-1.843a1.866 1.866 0 0 1 2.795 2.472zm1.404-10.083c-9.4-8.857-15.485-8.676-24.342.723-8.857 9.398-8.676 15.484.723 24.341 9.398 8.857 15.484 8.676 24.341-.722 8.857-9.4 8.676-15.485-.722-24.342zm-15.319 12.815l3.658 3.234 3.36-3.8-3.658-3.234-3.36 3.8zM362.556 44.403l-2.402-.532-.55 2.485a1.866 1.866 0 1 1-3.644-.806l.55-2.485-4.952-1.097-.55 2.485a1.866 1.866 0 0 1-3.644-.807l.55-2.485-2.402-.532a1.866 1.866 0 1 1 .807-3.643l2.402.532 1.055-4.768-2.402-.532a1.865 1.865 0 0 1-1.418-2.225 1.866 1.866 0 0 1 2.225-1.418l2.402.531.55-2.485a1.866 1.866 0 0 1 3.644.807l-.55 2.485 4.952 1.097.55-2.486a1.866 1.866 0 0 1 3.644.807l-.55 2.485 2.402.532a1.866 1.866 0 0 1-.807 3.644l-2.402-.532-1.055 4.767 2.402.532a1.866 1.866 0 0 1-.807 3.644zm9.499-3.66c3.19-12.515.081-17.75-12.433-20.94-12.515-3.19-17.75-.082-20.94 12.433-3.19 12.514-.081 17.749 12.433 20.939 12.515 3.19 17.75.081 20.94-12.433zm-18.635-7.186l-1.056 4.767 4.953 1.097 1.056-4.768-4.953-1.096zM437.984 29.679l-1.058 2.22 2.297 1.095a1.866 1.866 0 1 1-1.605 3.369l-2.298-1.095-2.183 4.579 2.298 1.095a1.866 1.866 0 0 1-1.605 3.369l-2.298-1.095-1.059 2.22a1.866 1.866 0 1 1-3.369-1.605l1.059-2.22-4.408-2.101-1.058 2.22a1.865 1.865 0 0 1-2.487.881 1.866 1.866 0 0 1-.882-2.487l1.058-2.22-2.298-1.095a1.866 1.866 0 0 1 1.606-3.37l2.298 1.096 2.182-4.58-2.297-1.094a1.866 1.866 0 0 1 1.605-3.37l2.298 1.096 1.058-2.22a1.866 1.866 0 0 1 3.37 1.605l-1.059 2.22 4.408 2.101 1.058-2.22a1.866 1.866 0 0 1 3.369 1.606zm-1.43-10.08c-11.476-5.923-17.276-4.072-23.2 7.405-5.923 11.476-4.072 17.276 7.404 23.199 11.476 5.923 17.276 4.072 23.2-7.404 5.923-11.476 4.072-17.276-7.404-23.2zM425.36 36.142l4.408 2.1 2.182-4.579-4.408-2.1-2.182 4.579zM518.68 22.361l-1.427 2.003 2.072 1.478a1.866 1.866 0 1 1-2.166 3.039l-2.073-1.478-2.944 4.13 2.072 1.478a1.866 1.866 0 0 1-2.166 3.039l-2.072-1.478-1.428 2.004a1.866 1.866 0 1 1-3.04-2.167l1.429-2.003-3.976-2.834-1.428 2.003a1.865 1.865 0 0 1-2.603.436 1.866 1.866 0 0 1-.436-2.603l1.428-2.002-2.073-1.478a1.866 1.866 0 0 1 2.166-3.039l2.073 1.478 2.944-4.13-2.072-1.478a1.866 1.866 0 0 1 2.166-3.039l2.073 1.477 1.428-2.003a1.866 1.866 0 0 1 3.039 2.167l-1.428 2.003 3.976 2.834 1.428-2.003a1.866 1.866 0 0 1 3.038 2.166zm.342-10.174c-10.273-7.826-16.306-7.01-24.132 3.263-7.827 10.273-7.01 16.306 3.262 24.133 10.274 7.826 16.307 7.01 24.133-3.263 7.826-10.273 7.01-16.307-3.263-24.133zm-13.895 14.346l3.976 2.834 2.944-4.13-3.975-2.834-2.945 4.13zM560.842 58.832l-2.37-.656-.68 2.452a1.866 1.866 0 1 1-3.596-.996l.68-2.453-4.889-1.354-.68 2.453a1.866 1.866 0 0 1-3.596-.996l.68-2.453-2.371-.657a1.866 1.866 0 1 1 .996-3.597l2.37.657 1.304-4.705-2.37-.657a1.865 1.865 0 0 1-1.3-2.296 1.866 1.866 0 0 1 2.296-1.3l2.37.656.68-2.453a1.866 1.866 0 0 1 3.596.996l-.679 2.453 4.888 1.355.68-2.453a1.866 1.866 0 0 1 3.597.996l-.68 2.453 2.37.657a1.866 1.866 0 0 1-.996 3.596l-2.37-.656-1.304 4.705 2.371.657a1.866 1.866 0 0 1-.997 3.596zm9.678-3.158c3.84-12.33 1.01-17.721-11.32-21.562-12.33-3.84-17.72-1.01-21.561 11.32-3.84 12.33-1.01 17.721 11.32 21.561s17.72 1.01 21.56-11.32zm-18.233-8.151l-1.304 4.706 4.889 1.354 1.303-4.706-4.888-1.354zM30.956 82.524l-2.46-.064-.065 2.545a1.866 1.866 0 1 1-3.73-.097l.065-2.544-5.07-.132-.066 2.545a1.866 1.866 0 0 1-3.731-.097l.066-2.544-2.46-.064a1.866 1.866 0 1 1 .097-3.73l2.46.063.126-4.88-2.46-.065a1.865 1.865 0 0 1-1.816-1.913 1.866 1.866 0 0 1 1.914-1.818l2.458.064.066-2.544a1.866 1.866 0 0 1 3.73.096l-.065 2.545 5.07.131.067-2.544a1.866 1.866 0 0 1 3.73.096l-.065 2.545 2.459.063a1.866 1.866 0 0 1-.097 3.731l-2.459-.063-.127 4.88 2.46.064a1.866 1.866 0 0 1-.097 3.731zm8.626-5.406c.743-12.893-3.307-17.439-16.2-18.182-12.893-.744-17.439 3.306-18.182 16.2-.744 12.893 3.306 17.438 16.2 18.182 12.893.743 17.438-3.307 18.182-16.2zm-19.664-3.497l-.126 4.88 5.07.132.127-4.881-5.07-.131zM131.87 83.015l-1.63 1.843 1.908 1.685a1.866 1.866 0 1 1-2.472 2.796l-1.907-1.686-3.36 3.8 1.907 1.686a1.866 1.866 0 0 1-2.472 2.796l-1.907-1.686-1.63 1.843a1.866 1.866 0 1 1-2.796-2.472l1.63-1.843-3.658-3.234-1.63 1.843a1.865 1.865 0 0 1-2.633.161 1.866 1.866 0 0 1-.162-2.634l1.63-1.842-1.908-1.686a1.866 1.866 0 0 1 2.472-2.796l1.907 1.686 3.36-3.8-1.907-1.686a1.866 1.866 0 0 1 2.473-2.796l1.906 1.686 1.63-1.843a1.866 1.866 0 0 1 2.796 2.472l-1.63 1.843 3.658 3.235 1.63-1.843a1.866 1.866 0 0 1 2.795 2.472zm1.404-10.083c-9.4-8.857-15.485-8.676-24.342.723-8.857 9.398-8.676 15.484.723 24.341 9.398 8.857 15.484 8.676 24.341-.722 8.857-9.4 8.676-15.485-.722-24.342zm-15.319 12.815l3.658 3.234 3.36-3.8-3.658-3.234-3.36 3.8zM181.237 80.082l-2.333.781.809 2.413a1.866 1.866 0 1 1-3.54 1.186l-.807-2.414-4.81 1.611.808 2.414a1.866 1.866 0 0 1-3.539 1.185l-.808-2.414-2.333.782a1.866 1.866 0 1 1-1.185-3.54l2.333-.78-1.551-4.63-2.333.78a1.865 1.865 0 0 1-2.362-1.176 1.866 1.866 0 0 1 1.177-2.362l2.333-.781-.809-2.414a1.866 1.866 0 0 1 3.539-1.185l.808 2.414 4.81-1.611-.808-2.414a1.866 1.866 0 0 1 3.539-1.185l.808 2.414 2.333-.782a1.866 1.866 0 0 1 1.185 3.54l-2.333.78 1.551 4.63 2.333-.78a1.866 1.866 0 0 1 1.185 3.538zm6.256-8.03c-3.71-12.37-9.071-15.256-21.441-11.545-12.37 3.71-15.256 9.071-11.545 21.441 3.71 12.37 9.071 15.256 21.441 11.545 12.37-3.71 15.256-9.071 11.545-21.441zM167.82 75.49l1.551 4.63 4.81-1.612-1.55-4.63-4.81 1.612zM244.87 73.015l-1.63 1.843 1.908 1.685a1.866 1.866 0 1 1-2.472 2.796l-1.907-1.686-3.36 3.8 1.907 1.686a1.866 1.866 0 0 1-2.472 2.796l-1.907-1.686-1.63 1.843a1.866 1.866 0 1 1-2.796-2.472l1.63-1.843-3.658-3.234-1.63 1.843a1.865 1.865 0 0 1-2.633.161 1.866 1.866 0 0 1-.162-2.634l1.63-1.842-1.908-1.686a1.866 1.866 0 0 1 2.472-2.796l1.907 1.686 3.36-3.8-1.907-1.686a1.866 1.866 0 0 1 2.473-2.796l1.906 1.686 1.63-1.843a1.866 1.866 0 0 1 2.796 2.472l-1.63 1.843 3.658 3.235 1.63-1.843a1.866 1.866 0 0 1 2.795 2.472zm1.404-10.083c-9.4-8.857-15.485-8.676-24.342.723-8.857 9.398-8.676 15.484.723 24.341 9.398 8.857 15.484 8.676 24.341-.722 8.857-9.4 8.676-15.485-.722-24.342zm-15.319 12.815l3.658 3.234 3.36-3.8-3.658-3.234-3.36 3.8zM292.25 102.502l-2.161 1.175 1.215 2.236a1.866 1.866 0 1 1-3.28 1.782l-1.214-2.237-4.458 2.422 1.216 2.236a1.866 1.866 0 0 1-3.28 1.782l-1.215-2.237-2.161 1.175a1.866 1.866 0 1 1-1.782-3.28l2.162-1.174-2.332-4.29-2.161 1.174a1.865 1.865 0 0 1-2.53-.748 1.866 1.866 0 0 1 .748-2.531l2.162-1.174-1.216-2.237a1.866 1.866 0 0 1 3.28-1.782l1.215 2.237 4.457-2.421-1.215-2.237a1.866 1.866 0 0 1 3.28-1.782l1.214 2.237 2.162-1.175a1.866 1.866 0 0 1 1.781 3.28l-2.16 1.174 2.33 4.29 2.162-1.174a1.866 1.866 0 0 1 1.781 3.28zm4.767-8.994c-5.802-11.538-11.583-13.45-23.12-7.647-11.538 5.803-13.45 11.583-7.647 23.12 5.803 11.538 11.583 13.45 23.12 7.647 11.538-5.803 13.45-11.583 7.647-23.12zm-18.778 6.802l2.332 4.29 4.457-2.421-2.331-4.29-4.458 2.421zM319.25 62.502l-2.161 1.175 1.215 2.236a1.866 1.866 0 1 1-3.28 1.782l-1.214-2.237-4.458 2.422 1.216 2.236a1.866 1.866 0 0 1-3.28 1.782l-1.215-2.237-2.161 1.175a1.866 1.866 0 1 1-1.782-3.28l2.162-1.174-2.332-4.29-2.161 1.174a1.865 1.865 0 0 1-2.53-.748 1.866 1.866 0 0 1 .748-2.531l2.162-1.174-1.216-2.237a1.866 1.866 0 0 1 3.28-1.782l1.215 2.237 4.457-2.421-1.215-2.237a1.866 1.866 0 0 1 3.28-1.782l1.214 2.237 2.162-1.175a1.866 1.866 0 0 1 1.781 3.28l-2.16 1.174 2.33 4.29 2.162-1.174a1.866 1.866 0 0 1 1.781 3.28zm4.767-8.994c-5.802-11.538-11.583-13.45-23.12-7.647-11.538 5.803-13.45 11.583-7.647 23.12 5.803 11.538 11.583 13.45 23.12 7.647 11.538-5.803 13.45-11.583 7.647-23.12zM305.24 60.31l2.332 4.29 4.457-2.421-2.331-4.29-4.458 2.421zM395.68 70.361l-1.427 2.003 2.072 1.478a1.866 1.866 0 1 1-2.166 3.039l-2.073-1.478-2.944 4.13 2.072 1.478a1.866 1.866 0 0 1-2.166 3.039l-2.072-1.478-1.428 2.004a1.866 1.866 0 1 1-3.04-2.167l1.429-2.003-3.976-2.834-1.428 2.003a1.865 1.865 0 0 1-2.603.436 1.866 1.866 0 0 1-.436-2.603l1.428-2.002-2.073-1.478a1.866 1.866 0 0 1 2.166-3.039l2.073 1.478 2.944-4.13-2.072-1.478a1.866 1.866 0 0 1 2.166-3.039l2.073 1.477 1.428-2.003a1.866 1.866 0 0 1 3.039 2.167l-1.428 2.003 3.976 2.834 1.428-2.003a1.866 1.866 0 0 1 3.038 2.166zm.342-10.174c-10.273-7.826-16.306-7.01-24.132 3.263-7.827 10.273-7.01 16.306 3.262 24.133 10.274 7.826 16.307 7.01 24.133-3.263 7.826-10.273 7.01-16.307-3.263-24.133zm-13.895 14.346l3.976 2.834 2.944-4.13-3.975-2.834-2.945 4.13zM473.125 77.26l-2.448-.235-.243 2.534a1.866 1.866 0 1 1-3.715-.357l.243-2.533-5.05-.485-.243 2.533a1.866 1.866 0 0 1-3.714-.356l.243-2.534-2.449-.235a1.866 1.866 0 1 1 .357-3.715l2.448.235.467-4.86-2.449-.235a1.865 1.865 0 0 1-1.679-2.036 1.866 1.866 0 0 1 2.036-1.68l2.448.236.244-2.534a1.866 1.866 0 0 1 3.714.357l-.243 2.533 5.05.485.243-2.533a1.866 1.866 0 0 1 3.715.356l-.243 2.534 2.448.235a1.866 1.866 0 0 1-.356 3.715l-2.449-.235-.467 4.86 2.45.235a1.866 1.866 0 0 1-.358 3.715zm8.982-4.79c1.641-12.81-2.082-17.628-14.892-19.269-12.81-1.64-17.627 2.082-19.268 14.892-1.64 12.81 2.082 17.627 14.892 19.268 12.81 1.641 17.627-2.082 19.268-14.892zm-19.371-4.861l-.467 4.86 5.05.485.466-4.86-5.05-.485zM526.708 92.058l-2.381.616.638 2.464a1.866 1.866 0 1 1-3.613.936l-.638-2.464-4.91 1.271.637 2.464a1.866 1.866 0 0 1-3.612.936l-.638-2.464-2.382.616a1.866 1.866 0 1 1-.935-3.613l2.381-.616-1.224-4.727-2.381.617a1.865 1.865 0 0 1-2.274-1.34 1.866 1.866 0 0 1 1.339-2.273l2.38-.617-.638-2.464a1.866 1.866 0 0 1 3.613-.935l.638 2.464 4.91-1.272-.637-2.464a1.866 1.866 0 0 1 3.613-.935l.638 2.464 2.381-.617a1.866 1.866 0 0 1 .936 3.613l-2.382.617 1.224 4.727 2.382-.617a1.866 1.866 0 0 1 .935 3.613zm6.801-7.574c-2.839-12.599-7.985-15.852-20.583-13.013-12.599 2.84-15.852 7.985-13.013 20.584 2.84 12.599 7.985 15.852 20.584 13.013 12.598-2.84 15.852-7.986 13.012-20.584zm-19.865 2.058l1.224 4.726 4.91-1.271-1.223-4.727-4.911 1.272zM588.68 91.361l-1.427 2.003 2.072 1.478a1.866 1.866 0 1 1-2.166 3.039l-2.073-1.478-2.944 4.13 2.072 1.478a1.866 1.866 0 0 1-2.166 3.039l-2.072-1.478-1.428 2.004a1.866 1.866 0 1 1-3.04-2.167l1.429-2.003-3.976-2.834-1.428 2.003a1.865 1.865 0 0 1-2.603.436 1.866 1.866 0 0 1-.436-2.603l1.428-2.002-2.073-1.478a1.866 1.866 0 0 1 2.166-3.039l2.073 1.478 2.944-4.13-2.072-1.478a1.866 1.866 0 0 1 2.166-3.039l2.073 1.477 1.428-2.003a1.866 1.866 0 0 1 3.039 2.167l-1.428 2.003 3.976 2.834 1.428-2.003a1.866 1.866 0 0 1 3.038 2.166zm.342-10.174c-10.273-7.826-16.306-7.01-24.132 3.263-7.827 10.273-7.01 16.306 3.262 24.133 10.274 7.826 16.307 7.01 24.133-3.263 7.826-10.273 7.01-16.307-3.263-24.133zm-13.895 14.346l3.976 2.834 2.944-4.13-3.975-2.834-2.945 4.13zM68.956 111.524l-2.46-.064-.065 2.545a1.866 1.866 0 1 1-3.73-.097l.065-2.544-5.07-.132-.066 2.545a1.866 1.866 0 0 1-3.731-.097l.066-2.544-2.46-.064a1.866 1.866 0 1 1 .097-3.73l2.46.063.126-4.88-2.46-.065a1.865 1.865 0 0 1-1.816-1.913 1.866 1.866 0 0 1 1.914-1.818l2.458.064.066-2.544a1.866 1.866 0 0 1 3.73.096l-.065 2.545 5.07.131.067-2.544a1.866 1.866 0 0 1 3.73.096l-.065 2.545 2.459.063a1.866 1.866 0 0 1-.097 3.731l-2.459-.063-.127 4.88 2.46.064a1.866 1.866 0 0 1-.097 3.731zm8.626-5.406c.743-12.893-3.307-17.439-16.2-18.182-12.893-.744-17.439 3.306-18.182 16.2-.744 12.893 3.306 17.438 16.2 18.182 12.893.743 17.438-3.307 18.182-16.2zm-19.664-3.497l-.126 4.88 5.07.132.127-4.881-5.07-.131zM43.8 140.786l-1.924 1.531 1.585 1.992a1.866 1.866 0 1 1-2.92 2.324l-1.585-1.991-3.97 3.158 1.586 1.992a1.866 1.866 0 0 1-2.92 2.324l-1.585-1.992-1.925 1.532a1.866 1.866 0 1 1-2.324-2.92l1.925-1.532-3.041-3.82-1.925 1.532a1.865 1.865 0 0 1-2.622-.298 1.866 1.866 0 0 1 .298-2.622l1.925-1.532-1.585-1.992a1.866 1.866 0 0 1 2.92-2.324l1.585 1.992 3.969-3.159-1.585-1.991a1.866 1.866 0 0 1 2.92-2.324l1.585 1.991 1.924-1.532a1.866 1.866 0 0 1 2.325 2.92l-1.925 1.532 3.04 3.82 1.925-1.531a1.866 1.866 0 0 1 2.324 2.92zm3.133-9.686c-7.718-10.355-13.742-11.234-24.097-3.516-10.355 7.719-11.233 13.743-3.515 24.097 7.718 10.355 13.742 11.234 24.097 3.516 10.354-7.718 11.233-13.743 3.515-24.097zm-17.311 9.96l3.04 3.82 3.97-3.159-3.04-3.82-3.97 3.16zM102.237 147.082l-2.333.781.809 2.413a1.866 1.866 0 1 1-3.54 1.186l-.807-2.414-4.81 1.611.808 2.414a1.866 1.866 0 0 1-3.539 1.185l-.808-2.414-2.333.782a1.866 1.866 0 1 1-1.185-3.54l2.333-.78-1.551-4.63-2.333.78a1.865 1.865 0 0 1-2.362-1.176 1.866 1.866 0 0 1 1.177-2.362l2.333-.781-.809-2.414a1.866 1.866 0 0 1 3.539-1.185l.808 2.414 4.81-1.611-.808-2.414a1.866 1.866 0 0 1 3.539-1.185l.808 2.414 2.333-.782a1.866 1.866 0 0 1 1.185 3.54l-2.333.78 1.551 4.63 2.333-.78a1.866 1.866 0 0 1 1.185 3.538zm6.256-8.03c-3.71-12.37-9.071-15.256-21.441-11.545-12.37 3.71-15.256 9.071-11.545 21.441 3.71 12.37 9.071 15.256 21.441 11.545 12.37-3.71 15.256-9.071 11.545-21.441zM88.82 142.49l1.551 4.63 4.81-1.612-1.55-4.63-4.81 1.612zM151.956 133.524l-2.46-.064-.065 2.545a1.866 1.866 0 1 1-3.73-.097l.065-2.544-5.07-.132-.066 2.545a1.866 1.866 0 0 1-3.731-.097l.066-2.544-2.46-.064a1.866 1.866 0 1 1 .097-3.73l2.46.063.126-4.88-2.46-.065a1.865 1.865 0 0 1-1.816-1.913 1.866 1.866 0 0 1 1.914-1.818l2.458.064.066-2.544a1.866 1.866 0 0 1 3.73.096l-.065 2.545 5.07.131.067-2.544a1.866 1.866 0 0 1 3.73.096l-.065 2.545 2.459.063a1.866 1.866 0 0 1-.097 3.731l-2.459-.063-.127 4.88 2.46.064a1.866 1.866 0 0 1-.097 3.731zm8.626-5.406c.743-12.893-3.307-17.439-16.2-18.182-12.893-.744-17.439 3.306-18.182 16.2-.744 12.893 3.306 17.438 16.2 18.182 12.893.743 17.438-3.307 18.182-16.2zm-19.664-3.497l-.126 4.88 5.07.132.127-4.881-5.07-.131zM205.956 125.524l-2.46-.064-.065 2.545a1.866 1.866 0 1 1-3.73-.097l.065-2.544-5.07-.132-.066 2.545a1.866 1.866 0 0 1-3.731-.097l.066-2.544-2.46-.064a1.866 1.866 0 1 1 .097-3.73l2.46.063.126-4.88-2.46-.065a1.865 1.865 0 0 1-1.816-1.913 1.866 1.866 0 0 1 1.914-1.818l2.458.064.066-2.544a1.866 1.866 0 0 1 3.73.096l-.065 2.545 5.07.131.067-2.544a1.866 1.866 0 0 1 3.73.096l-.065 2.545 2.459.063a1.866 1.866 0 0 1-.097 3.731l-2.459-.063-.127 4.88 2.46.064a1.866 1.866 0 0 1-.097 3.731zm8.626-5.406c.743-12.893-3.307-17.439-16.2-18.182-12.893-.744-17.439 3.306-18.182 16.2-.744 12.893 3.306 17.438 16.2 18.182 12.893.743 17.438-3.307 18.182-16.2zm-19.664-3.497l-.126 4.88 5.07.132.127-4.881-5.07-.131zM204.87 158.015l-1.63 1.843 1.908 1.685a1.866 1.866 0 1 1-2.472 2.796l-1.907-1.686-3.36 3.8 1.907 1.686a1.866 1.866 0 0 1-2.472 2.796l-1.907-1.686-1.63 1.843a1.866 1.866 0 1 1-2.796-2.472l1.63-1.843-3.658-3.234-1.63 1.843a1.865 1.865 0 0 1-2.633.161 1.866 1.866 0 0 1-.162-2.634l1.63-1.842-1.908-1.686a1.866 1.866 0 0 1 2.472-2.796l1.907 1.686 3.36-3.8-1.907-1.686a1.866 1.866 0 0 1 2.473-2.796l1.906 1.686 1.63-1.843a1.866 1.866 0 0 1 2.796 2.472l-1.63 1.843 3.658 3.235 1.63-1.843a1.866 1.866 0 0 1 2.795 2.472zm1.404-10.083c-9.4-8.857-15.485-8.676-24.342.723-8.857 9.398-8.676 15.484.723 24.341 9.398 8.857 15.484 8.676 24.341-.722 8.857-9.4 8.676-15.485-.722-24.342zm-15.319 12.815l3.658 3.234 3.36-3.8-3.658-3.234-3.36 3.8zM264.87 140.015l-1.63 1.843 1.908 1.685a1.866 1.866 0 1 1-2.472 2.796l-1.907-1.686-3.36 3.8 1.907 1.686a1.866 1.866 0 0 1-2.472 2.796l-1.907-1.686-1.63 1.843a1.866 1.866 0 1 1-2.796-2.472l1.63-1.843-3.658-3.234-1.63 1.843a1.865 1.865 0 0 1-2.633.161 1.866 1.866 0 0 1-.162-2.634l1.63-1.842-1.908-1.686a1.866 1.866 0 0 1 2.472-2.796l1.907 1.686 3.36-3.8-1.907-1.686a1.866 1.866 0 0 1 2.473-2.796l1.906 1.686 1.63-1.843a1.866 1.866 0 0 1 2.796 2.472l-1.63 1.843 3.658 3.235 1.63-1.843a1.866 1.866 0 0 1 2.795 2.472zm1.404-10.083c-9.4-8.857-15.485-8.676-24.342.723-8.857 9.398-8.676 15.484.723 24.341 9.398 8.857 15.484 8.676 24.341-.722 8.857-9.4 8.676-15.485-.722-24.342zm-15.319 12.815l3.658 3.234 3.36-3.8-3.658-3.234-3.36 3.8zM307.726 155.458l-2.098-1.285-1.329 2.171a1.866 1.866 0 1 1-3.183-1.949l1.33-2.17-4.326-2.65-1.33 2.17a1.866 1.866 0 0 1-3.182-1.948l1.33-2.17-2.098-1.286a1.866 1.866 0 1 1 1.949-3.182l2.097 1.285 2.55-4.164-2.097-1.285a1.865 1.865 0 0 1-.617-2.566 1.866 1.866 0 0 1 2.566-.617l2.097 1.285 1.33-2.17a1.866 1.866 0 0 1 3.182 1.948l-1.329 2.17 4.326 2.65 1.329-2.17a1.866 1.866 0 0 1 3.183 1.949l-1.33 2.17 2.098 1.285a1.866 1.866 0 0 1-1.949 3.183l-2.098-1.285-2.55 4.164 2.098 1.285a1.866 1.866 0 0 1-1.95 3.182zm10.173-.369c7.09-10.794 5.856-16.755-4.938-23.846-10.794-7.09-16.756-5.856-23.846 4.938s-5.856 16.756 4.938 23.847c10.794 7.09 16.756 5.855 23.846-4.939zm-15.28-12.86l-2.55 4.164 4.326 2.649 2.55-4.164-4.326-2.65zM348.576 93.646l-.9 2.29 2.368.931a1.866 1.866 0 1 1-1.367 3.473l-2.368-.932-1.858 4.72 2.368.932a1.866 1.866 0 0 1-1.366 3.473l-2.369-.933-.9 2.29a1.866 1.866 0 1 1-3.474-1.367l.901-2.29-4.543-1.787-.901 2.289a1.865 1.865 0 0 1-2.42 1.052 1.866 1.866 0 0 1-1.053-2.42l.901-2.288-2.368-.932a1.866 1.866 0 0 1 1.366-3.473l2.369.932 1.858-4.72-2.369-.932a1.866 1.866 0 0 1 1.367-3.473l2.369.932.9-2.289a1.866 1.866 0 0 1 3.473 1.367l-.9 2.29 4.543 1.787.9-2.289a1.866 1.866 0 0 1 3.473 1.367zm-2.13-9.954c-11.86-5.109-17.518-2.858-22.626 9.004-5.108 11.861-2.857 17.518 9.004 22.626 11.862 5.108 17.518 2.857 22.627-9.004 5.108-11.861 2.857-17.518-9.005-22.626zm-10.011 17.281l4.543 1.788 1.858-4.72-4.543-1.788-1.858 4.72zM385.125 139.26l-2.448-.235-.243 2.534a1.866 1.866 0 1 1-3.715-.357l.243-2.533-5.05-.485-.243 2.533a1.866 1.866 0 0 1-3.714-.356l.243-2.534-2.449-.235a1.866 1.866 0 1 1 .357-3.715l2.448.235.467-4.86-2.449-.235a1.865 1.865 0 0 1-1.679-2.036 1.866 1.866 0 0 1 2.036-1.68l2.448.236.244-2.534a1.866 1.866 0 0 1 3.714.357l-.243 2.533 5.05.485.243-2.533a1.866 1.866 0 0 1 3.715.356l-.243 2.534 2.448.235a1.866 1.866 0 0 1-.356 3.715l-2.449-.235-.467 4.86 2.45.235a1.866 1.866 0 0 1-.358 3.715zm8.982-4.79c1.641-12.81-2.082-17.628-14.892-19.269-12.81-1.64-17.627 2.082-19.268 14.892-1.64 12.81 2.082 17.627 14.892 19.268 12.81 1.641 17.627-2.082 19.268-14.892zm-19.371-4.861l-.467 4.86 5.05.485.466-4.86-5.05-.485zM436.125 115.26l-2.448-.235-.243 2.534a1.866 1.866 0 1 1-3.715-.357l.243-2.533-5.05-.485-.243 2.533a1.866 1.866 0 0 1-3.714-.356l.243-2.534-2.449-.235a1.866 1.866 0 1 1 .357-3.715l2.448.235.467-4.86-2.449-.235a1.865 1.865 0 0 1-1.679-2.036 1.866 1.866 0 0 1 2.036-1.68l2.448.236.244-2.534a1.866 1.866 0 0 1 3.714.357l-.243 2.533 5.05.485.243-2.533a1.866 1.866 0 0 1 3.715.356l-.243 2.534 2.448.235a1.866 1.866 0 0 1-.356 3.715l-2.449-.235-.467 4.86 2.45.235a1.866 1.866 0 0 1-.358 3.715zm8.982-4.79c1.641-12.81-2.082-17.628-14.892-19.269-12.81-1.64-17.627 2.082-19.268 14.892-1.64 12.81 2.082 17.627 14.892 19.268 12.81 1.641 17.627-2.082 19.268-14.892zm-19.371-4.861l-.467 4.86 5.05.485.466-4.86-5.05-.485zM418.876 170.9l-1.725-1.754-1.815 1.785a1.866 1.866 0 1 1-2.616-2.661l1.815-1.785-3.557-3.617-1.815 1.785a1.866 1.866 0 0 1-2.616-2.661l1.815-1.785-1.725-1.754a1.866 1.866 0 1 1 2.661-2.616l1.725 1.754 3.481-3.424-1.724-1.754a1.865 1.865 0 0 1 .022-2.638 1.866 1.866 0 0 1 2.639.022l1.724 1.754 1.815-1.785a1.866 1.866 0 0 1 2.617 2.661l-1.815 1.785 3.556 3.617 1.815-1.785a1.866 1.866 0 0 1 2.617 2.661l-1.815 1.785 1.725 1.754a1.866 1.866 0 0 1-2.662 2.617l-1.724-1.754-3.482 3.423 1.725 1.754a1.866 1.866 0 0 1-2.661 2.616zm9.96 2.104c9.491-8.759 9.735-14.842.977-24.333-8.758-9.491-14.841-9.735-24.332-.977-9.491 8.758-9.736 14.841-.978 24.332 8.759 9.491 14.842 9.736 24.333.978zm-11.715-16.176l-3.482 3.424 3.557 3.617 3.481-3.423-3.556-3.618zM488.68 122.361l-1.427 2.003 2.072 1.478a1.866 1.866 0 1 1-2.166 3.039l-2.073-1.478-2.944 4.13 2.072 1.478a1.866 1.866 0 0 1-2.166 3.039l-2.072-1.478-1.428 2.004a1.866 1.866 0 1 1-3.04-2.167l1.429-2.003-3.976-2.834-1.428 2.003a1.865 1.865 0 0 1-2.603.436 1.866 1.866 0 0 1-.436-2.603l1.428-2.002-2.073-1.478a1.866 1.866 0 0 1 2.166-3.039l2.073 1.478 2.944-4.13-2.072-1.478a1.866 1.866 0 0 1 2.166-3.039l2.073 1.477 1.428-2.003a1.866 1.866 0 0 1 3.039 2.167l-1.428 2.003 3.976 2.834 1.428-2.003a1.866 1.866 0 0 1 3.038 2.166zm.342-10.174c-10.273-7.826-16.306-7.01-24.132 3.263-7.827 10.273-7.01 16.306 3.262 24.133 10.274 7.826 16.307 7.01 24.133-3.263 7.826-10.273 7.01-16.307-3.263-24.133zm-13.895 14.346l3.976 2.834 2.944-4.13-3.975-2.834-2.945 4.13zM548.68 131.361l-1.427 2.003 2.072 1.478a1.866 1.866 0 1 1-2.166 3.039l-2.073-1.478-2.944 4.13 2.072 1.478a1.866 1.866 0 0 1-2.166 3.039l-2.072-1.478-1.428 2.004a1.866 1.866 0 1 1-3.04-2.167l1.429-2.003-3.976-2.834-1.428 2.003a1.865 1.865 0 0 1-2.603.436 1.866 1.866 0 0 1-.436-2.603l1.428-2.002-2.073-1.478a1.866 1.866 0 0 1 2.166-3.039l2.073 1.478 2.944-4.13-2.072-1.478a1.866 1.866 0 0 1 2.166-3.039l2.073 1.477 1.428-2.003a1.866 1.866 0 0 1 3.039 2.167l-1.428 2.003 3.976 2.834 1.428-2.003a1.866 1.866 0 0 1 3.038 2.166zm.342-10.174c-10.273-7.826-16.306-7.01-24.132 3.263-7.827 10.273-7.01 16.306 3.262 24.133 10.274 7.826 16.307 7.01 24.133-3.263 7.826-10.273 7.01-16.307-3.263-24.133zm-13.895 14.346l3.976 2.834 2.944-4.13-3.975-2.834-2.945 4.13z"/></g></svg>