<svg xmlns="http://www.w3.org/2000/svg" viewBox="0 0 605 180"><title>spinner</title><g fill-rule="evenodd"><path d="M56.876 30.77c.529-.878.98-1.796 1.35-2.744l-6.77-1.814c-.046.097-.094.193-.144.288l5.564 4.27zm-.886 1.332c-.161.22-.328.437-.5.651l.5-.651zm-1.548 1.842c-.699.726-1.467 1.4-2.3 2.013l-3.527-6.107c.079-.065.156-.132.233-.2l5.594 4.294zm-28.39-21.785c-.529.877-.98 1.795-1.35 2.743l6.892 1.847c.039-.083.078-.165.119-.246l-5.661-4.344zm.886-1.333c.161-.22.328-.437.5-.65l-.5.65zm1.548-1.841c.7-.727 1.467-1.402 2.301-2.014l3.546 6.142c-.073.063-.145.128-.216.193l-5.631-4.321zm-4.82 9.78a18.031 18.031 0 0 0-.202 3.052l7.107-.936.015-.261-6.92-1.854zm.319 7.018c.242.978.57 1.947.986 2.894l6.219-3.59c-.029-.08-.056-.161-.083-.242l-7.122.938zm-.312-1.555a17.885 17.885 0 0 1-.108-.814l.108.814zm32.284-13.441a17.916 17.916 0 0 0-2.013-2.301l-4.24 5.526c.076.084.15.17.224.256l6.03-3.481zM26.971 32.141a17.916 17.916 0 0 0 2.014 2.301l4.373-5.699a10.946 10.946 0 0 1-.168-.192l-6.22 3.59zM50.769 6.052a18.031 18.031 0 0 0-2.743-1.35l-1.806 6.742c.1.047.2.096.3.146l4.25-5.538zm1.333.886c.22.161.437.328.651.5l-.651-.5zM32.159 36.876c.877.529 1.795.98 2.743 1.35l1.854-6.92a11.017 11.017 0 0 1-.234-.116l-4.363 5.686zm-1.333-.886c-.22-.161-.437-.328-.65-.5l.65.5zM44.162 3.667a18.031 18.031 0 0 0-3.05-.203l.915 6.954c.107.004.214.01.321.018l1.814-6.77zm1.96.41zm-7.356 35.184c1.006.154 2.027.222 3.05.203l-.93-7.074a11.024 11.024 0 0 1-.273-.02l-1.847 6.891zm-1.96-.41zm2.709-35.286c-.272.03-.543.066-.814.108l.814-.108zm-2.37.42c-.978.242-1.946.57-2.894.986l3.526 6.107c.096-.035.192-.07.29-.102l-.921-6.991zm6.269 35.378c.271-.03.543-.065.814-.107l-.814.107zm2.369-.42c.978-.242 1.947-.57 2.894-.986l-3.546-6.142c-.091.032-.183.062-.275.091l.927 7.037zM33.343 5.4a18.289 18.289 0 0 0-1.731 1l1.732-1zM84.07 71.669a18.031 18.031 0 0 0 2.797-1.234l-4.02-5.741c-.098.044-.196.086-.295.127l1.518 6.848zm-1.536.45c-.265.066-.532.125-.801.179l.801-.178zm-2.37.417c-1.002.107-2.024.13-3.056.063l1.224-6.944c.103 0 .205-.001.307-.004l1.526 6.885zM72.42 37.599c-.97.332-1.905.746-2.798 1.234l4.093 5.844c.082-.038.165-.075.249-.112L72.42 37.6zm1.535-.451c.265-.065.532-.125.801-.178l-.801.178zm2.37-.416a17.916 17.916 0 0 1 3.057-.064l-1.232 6.985c-.097.001-.193.004-.29.009l-1.536-6.93zm-9.98 4.395a18.031 18.031 0 0 0-2.116 2.207l6.046 3.85.18-.189-4.11-5.868zm-4.266 5.58a17.916 17.916 0 0 0-1.105 2.85l7.072 1.248c.03-.08.06-.16.092-.239l-6.059-3.86zm.76-1.392c.142-.235.29-.466.441-.693l-.44.693zM96.21 55.77a17.916 17.916 0 0 0-.063-3.057l-6.8 1.507c.004.113.007.227.007.34l6.856 1.21zM60.28 53.497a17.916 17.916 0 0 0 .064 3.057l7.013-1.555c-.003-.085-.004-.17-.005-.255l-7.072-1.247zm35-4.688a18.031 18.031 0 0 0-1.233-2.798l-5.718 4.004c.047.1.093.202.137.305l6.815-1.511zm.452 1.535c.065.265.124.533.177.802l-.177-.802zM61.21 60.46c.332.969.746 1.904 1.233 2.797l5.869-4.109c-.036-.08-.07-.16-.104-.24L61.21 60.46zm-.451-1.535a17.885 17.885 0 0 1-.178-.802l.178.802zm30.992-16.19a18.031 18.031 0 0 0-2.206-2.115l-3.769 5.915c.08.072.158.146.235.22l5.74-4.02zm1.238 1.575zM64.738 66.533c.672.764 1.41 1.472 2.207 2.116l3.833-6.018a11.024 11.024 0 0 1-.195-.19l-5.845 4.092zM63.5 64.958zM88.256 39.67c-.227-.152-.457-.3-.692-.442l.692.442zm-2.084-1.202a17.916 17.916 0 0 0-2.851-1.105l-1.225 6.945c.097.034.192.07.287.107l3.789-5.947zm-17.939 31.13c.227.152.458.3.692.441l-.692-.44zm2.084 1.201c.906.444 1.858.815 2.851 1.106L74.4 64.92c-.09-.034-.18-.07-.269-.107L70.317 70.8zM82.35 37.108a18.289 18.289 0 0 0-1.97-.347l1.97.347zM146.876 39.77c.529-.878.98-1.796 1.35-2.744l-6.77-1.814c-.046.097-.094.193-.144.288l5.564 4.27zm-.886 1.332c-.161.22-.328.437-.5.651l.5-.651zm-1.548 1.842c-.699.726-1.467 1.4-2.3 2.013l-3.527-6.107c.079-.065.156-.132.233-.2l5.594 4.294zm-28.39-21.785c-.529.877-.98 1.795-1.35 2.743l6.892 1.847c.039-.083.078-.165.119-.246l-5.661-4.344zm.886-1.333c.161-.22.328-.437.5-.65l-.5.65zm1.548-1.841c.7-.727 1.467-1.402 2.301-2.014l3.546 6.142c-.073.063-.145.128-.216.193l-5.631-4.321zm-4.82 9.78a18.031 18.031 0 0 0-.202 3.052l7.107-.936.015-.261-6.92-1.854zm.319 7.018c.242.978.57 1.947.986 2.894l6.219-3.59c-.029-.08-.056-.161-.083-.242l-7.122.938zm-.312-1.555a17.885 17.885 0 0 1-.108-.814l.108.814zm32.284-13.441a17.916 17.916 0 0 0-2.013-2.301l-4.24 5.526c.076.084.15.17.224.256l6.03-3.481zm-28.986 21.354a17.916 17.916 0 0 0 2.014 2.301l4.373-5.699a10.946 10.946 0 0 1-.168-.192l-6.22 3.59zm23.798-26.089a18.031 18.031 0 0 0-2.743-1.35l-1.806 6.742c.1.047.2.096.3.146l4.25-5.538zm1.333.886c.22.161.437.328.651.5l-.651-.5zm-19.943 29.938c.877.529 1.795.98 2.743 1.35l1.854-6.92a11.017 11.017 0 0 1-.234-.116l-4.363 5.686zm-1.333-.886c-.22-.161-.437-.328-.65-.5l.65.5zm13.336-32.323a18.031 18.031 0 0 0-3.05-.203l.915 6.954c.107.004.214.01.321.018l1.814-6.77zm1.96.41zm-7.356 35.184c1.006.154 2.027.222 3.05.203l-.93-7.074a11.024 11.024 0 0 1-.273-.02l-1.847 6.891zm-1.96-.41zm2.709-35.286c-.272.03-.543.066-.814.108l.814-.108zm-2.37.42c-.978.242-1.946.57-2.894.986l3.526 6.107c.096-.035.192-.07.29-.102l-.921-6.991zm6.269 35.378c.271-.03.543-.065.814-.107l-.814.107zm2.369-.42c.978-.242 1.947-.57 2.894-.986l-3.546-6.142c-.091.032-.183.062-.275.091l.927 7.037zM123.343 14.4a18.289 18.289 0 0 0-1.731 1l1.732-1zM201.17 52.914a18.031 18.031 0 0 0 2.968-.729l-2.962-6.352c-.103.027-.208.051-.313.075l.306 7.006zm-1.591.178c-.273.018-.546.03-.82.036l.82-.036zm-2.406-.002a17.916 17.916 0 0 1-3.022-.468l2.412-6.627c.1.019.202.035.302.05l.308 7.045zm-1.56-35.75a18.031 18.031 0 0 0-2.97.728l3.015 6.467c.088-.023.177-.046.265-.067l-.31-7.129zm1.59-.178c.272-.019.545-.03.82-.036l-.82.036zm2.405.001c1.006.07 2.017.224 3.022.469l-2.426 6.664a10.938 10.938 0 0 0-.286-.041l-.31-7.092zm-10.59 2.596c-.87.53-1.695 1.133-2.467 1.806l5.284 4.842c.07-.053.14-.104.21-.155l-3.027-6.493zm-5.17 4.754a17.916 17.916 0 0 0-1.585 2.616l6.749 2.456c.043-.074.087-.147.132-.219l-5.297-4.853zm.99-1.239c.18-.206.365-.408.554-.605l-.554.605zm31.048 16.092c.245-1.005.4-2.016.468-3.022l-6.958.304c-.016.113-.033.225-.052.337l6.542 2.381zm-34.99-8.479a17.916 17.916 0 0 0-.469 3.022l7.177-.313c.012-.084.025-.168.04-.252l-6.749-2.457zm35.282 1.461a18.031 18.031 0 0 0-.729-2.969l-6.326 2.95c.029.107.056.215.082.324l6.973-.305zm.178 1.59c.018.273.03.547.036.82l-.036-.82zm-35.753 3.967c.16 1.012.404 2.005.73 2.97l6.492-3.028c-.021-.084-.042-.17-.061-.254l-7.16.312zm-.178-1.59c-.018-.272-.03-.546-.035-.82l.035.82zm33.334-10.561a18.031 18.031 0 0 0-1.806-2.467l-4.738 5.17c.065.086.129.172.192.259l6.352-2.962zm.945 1.766zM183.023 44.5c.53.869 1.133 1.695 1.806 2.467l4.82-5.26a11.024 11.024 0 0 1-.16-.223l-6.466 3.016zm-.946-1.766zm28.772-20.606c-.197-.189-.4-.374-.606-.554l.606.554zm-1.844-1.545A17.916 17.916 0 0 0 206.389 19l-2.412 6.626c.089.051.177.103.264.156l4.764-5.199zm-23.072 27.542c.197.19.399.374.605.555l-.605-.555zm1.844 1.545a17.916 17.916 0 0 0 2.616 1.584l2.425-6.665c-.083-.05-.165-.1-.246-.152l-4.795 5.233zm17.7-31.09a18.289 18.289 0 0 0-1.879-.684l1.88.684zM277.876 36.77c.529-.878.98-1.796 1.35-2.744l-6.77-1.814c-.046.097-.094.193-.144.288l5.564 4.27zm-.886 1.332c-.161.22-.328.437-.5.651l.5-.651zm-1.548 1.842c-.699.726-1.467 1.4-2.3 2.013l-3.527-6.107c.079-.065.156-.132.233-.2l5.594 4.294zm-28.39-21.785c-.529.877-.98 1.795-1.35 2.743l6.892 1.847c.039-.083.078-.165.119-.246l-5.661-4.344zm.886-1.333c.161-.22.328-.437.5-.65l-.5.65zm1.548-1.841c.7-.727 1.467-1.402 2.301-2.014l3.546 6.142c-.073.063-.145.128-.216.193l-5.631-4.321zm-4.82 9.78a18.031 18.031 0 0 0-.202 3.052l7.107-.936.015-.261-6.92-1.854zm.319 7.018c.242.978.57 1.947.986 2.894l6.219-3.59c-.029-.08-.056-.161-.083-.242l-7.122.938zm-.312-1.555a17.885 17.885 0 0 1-.108-.814l.108.814zm32.284-13.441a17.916 17.916 0 0 0-2.013-2.301l-4.24 5.526c.076.084.15.17.224.256l6.03-3.481zm-28.986 21.354a17.916 17.916 0 0 0 2.014 2.301l4.373-5.699a10.946 10.946 0 0 1-.168-.192l-6.22 3.59zm23.798-26.089a18.031 18.031 0 0 0-2.743-1.35l-1.806 6.742c.1.047.2.096.3.146l4.25-5.538zm1.333.886c.22.161.437.328.651.5l-.651-.5zm-19.943 29.938c.877.529 1.795.98 2.743 1.35l1.854-6.92a11.017 11.017 0 0 1-.234-.116l-4.363 5.686zm-1.333-.886c-.22-.161-.437-.328-.65-.5l.65.5zm13.336-32.323a18.031 18.031 0 0 0-3.05-.203l.915 6.954c.107.004.214.01.321.018l1.814-6.77zm1.96.41zm-7.356 35.184c1.006.154 2.027.222 3.05.203l-.93-7.074a11.024 11.024 0 0 1-.273-.02l-1.847 6.891zm-1.96-.41zm2.709-35.286c-.272.03-.543.066-.814.108l.814-.108zm-2.37.42c-.978.242-1.946.57-2.894.986l3.526 6.107c.096-.035.192-.07.29-.102l-.921-6.991zm6.269 35.378c.271-.03.543-.065.814-.107l-.814.107zm2.369-.42c.978-.242 1.947-.57 2.894-.986l-3.546-6.142c-.091.032-.183.062-.275.091l.927 7.037zM254.343 11.4a18.289 18.289 0 0 0-1.731 1l1.732-1zM354.702 54.48a18.031 18.031 0 0 0 3.054-.15l-1.696-6.8c-.107.006-.214.01-.321.013l-1.037 6.937zm-1.595-.13a17.885 17.885 0 0 1-.812-.12l.812.12zm-2.361-.46a17.916 17.916 0 0 1-2.877-1.036l3.632-6.045c.095.037.191.073.287.107l-1.042 6.974zm5.29-35.392a18.031 18.031 0 0 0-3.055.15l1.726 6.922.273-.015 1.055-7.057zm1.594.129c.271.034.542.074.812.121l-.812-.121zm2.361.46c.975.26 1.937.605 2.877 1.037l-3.653 6.08c-.09-.034-.181-.066-.273-.096l1.05-7.02zm-10.89.528c-.955.354-1.88.788-2.767 1.302l4.263 5.761c.078-.038.157-.076.236-.112l-1.733-6.951zm-5.983 3.68a17.916 17.916 0 0 0-2.054 2.265l6.155 3.7c.057-.065.114-.128.172-.19l-4.273-5.775zm1.208-1.027c.217-.168.437-.331.66-.489l-.66.489zm27.407 21.72c.433-.94.777-1.902 1.037-2.876l-6.889-1.03c-.037.107-.075.214-.115.321l5.967 3.586zm-32.73-14.999c-.432.94-.776 1.903-1.036 2.877l7.105 1.062.087-.24-6.155-3.699zm34.356 8.166a18.031 18.031 0 0 0-.149-3.053l-6.772 1.688c.007.111.013.222.018.334l6.903 1.031zm-.129 1.595c-.034.271-.074.542-.12.812l.12-.812zm-35.852-2.928a18.031 18.031 0 0 0 .149 3.054l6.95-1.733a11.017 11.017 0 0 1-.01-.261l-7.09-1.06zm.129-1.595c.034-.27.074-.541.12-.812l-.12.812zm34.736-4.007a18.031 18.031 0 0 0-1.302-2.766l-5.638 4.172c.048.096.094.193.14.29l6.8-1.696zm.59 1.914zm-34.338 10.623c.353.954.788 1.88 1.301 2.767l5.736-4.245c-.039-.082-.077-.165-.114-.248l-6.923 1.726zm-.592-1.914zm32.175-14.737c-.157-.223-.32-.443-.488-.66l.488.66zm-1.516-1.868a17.916 17.916 0 0 0-2.265-2.054l-3.632 6.045c.077.067.154.134.229.203l5.668-4.194zM340.66 46.87c.158.224.32.444.488.66l-.488-.66zm1.516 1.869a17.916 17.916 0 0 0 2.265 2.054l3.653-6.08c-.072-.064-.143-.13-.213-.196l-5.705 4.222zm23.307-27.142a18.289 18.289 0 0 0-1.714-1.03l1.714 1.03zM446.036 39.598c.266-.99.447-1.996.541-3.01l-7.007.123c-.018.106-.038.211-.06.316l6.526 2.57zm-.485 1.525c-.094.256-.194.511-.3.764l.3-.764zm-.98 2.197a17.916 17.916 0 0 1-1.657 2.57l-5.072-4.899c.057-.084.113-.17.168-.255l6.561 2.584zm-33.295-13.115a18.031 18.031 0 0 0-.541 3.009l7.134-.125c.014-.09.03-.18.046-.27l-6.639-2.614zm.485-1.525c.094-.257.194-.511.3-.764l-.3.764zm.98-2.197a17.916 17.916 0 0 1 1.657-2.57l5.101 4.926c-.052.081-.104.163-.154.245l-6.604-2.601zm-1.937 10.73c.13 1.01.346 2.01.647 2.989l6.573-2.859c-.02-.084-.039-.17-.057-.255l-7.163.125zm2.24 6.657a17.916 17.916 0 0 0 1.746 2.511l4.988-5.166c-.05-.07-.098-.139-.146-.21l-6.588 2.865zm-.729-1.408c-.115-.25-.224-.5-.327-.753l.327.753zm27.33-21.82a17.916 17.916 0 0 0-2.57-1.656l-2.553 6.48c.096.06.192.122.287.185l4.836-5.008zM417.667 49.16a17.916 17.916 0 0 0 2.57 1.656l2.633-6.683a10.946 10.946 0 0 1-.214-.14l-4.989 5.167zm15.686-31.639a18.031 18.031 0 0 0-3.01-.541l.122 6.979c.11.017.22.036.33.057l2.558-6.495zm1.525.485c.256.094.51.194.763.3l-.763-.3zM423.959 52.28c.99.267 1.996.447 3.01.542l-.126-7.163c-.085-.015-.171-.03-.257-.048l-2.627 6.67zm-1.525-.484a17.885 17.885 0 0 1-.763-.301l.763.3zm3.91-34.747c-1.01.13-2.01.345-2.988.646l2.796 6.432c.105-.025.21-.049.314-.071l-.122-7.007zm1.998-.146zm2.626 35.849c1.01-.13 2.01-.346 2.988-.646l-2.845-6.544c-.089.02-.178.038-.268.056l.125 7.134zm-1.998.146zm-7.122-34.666c-.252.103-.503.213-.752.328l.752-.328zm-2.161 1.057a17.916 17.916 0 0 0-2.51 1.745l5.072 4.899c.083-.06.166-.12.25-.178l-2.812-6.466zm15.777 32.28c.252-.104.503-.213.752-.328l-.752.327zm2.161-1.057a17.916 17.916 0 0 0 2.51-1.746l-5.101-4.926c-.08.055-.159.11-.24.163l2.831 6.509zm-21.203-28.816a18.289 18.289 0 0 0-1.39 1.439l1.39-1.439zM524.888 33.528c.434-.928.786-1.888 1.055-2.87l-6.922-1.096c-.036.101-.074.202-.113.302l5.98 3.664zm-.742 1.418c-.138.236-.28.47-.43.7l.43-.7zm-1.347 1.993a17.916 17.916 0 0 1-2.078 2.244l-4.145-5.705c.071-.074.141-.148.21-.223l6.013 3.684zm-30.512-18.697a18.031 18.031 0 0 0-1.056 2.87l7.047 1.115c.03-.086.06-.172.093-.257l-6.084-3.728zm.742-1.418c.137-.236.28-.47.429-.7l-.43.7zm1.347-1.994a17.916 17.916 0 0 1 2.078-2.243l4.168 5.738c-.066.07-.13.142-.194.214l-6.052-3.709zm-3.77 10.232a18.031 18.031 0 0 0 .117 3.055l6.97-1.673a11.017 11.017 0 0 1-.012-.262l-7.076-1.12zm1.05 6.945c.343.948.77 1.877 1.282 2.775l5.81-4.22a10.946 10.946 0 0 1-.108-.232l-6.985 1.677zm-.474-1.514c-.07-.265-.134-.531-.192-.798l.192.798zm30.703-16.742a17.916 17.916 0 0 0-2.243-2.078l-3.64 5.94c.085.075.168.152.251.23l5.632-4.092zM495.29 38.02a17.916 17.916 0 0 0 2.244 2.077l3.753-6.125a10.946 10.946 0 0 1-.187-.174l-5.81 4.222zM516.23 9.585a18.031 18.031 0 0 0-2.869-1.056l-1.092 6.894c.105.036.21.074.314.113l3.647-5.951zm1.418.742c.236.137.47.28.7.429l-.7-.43zm-16.704 31.858c.928.434 1.888.787 2.87 1.056l1.12-7.076-.245-.091-3.745 6.111zm-1.418-.742c-.236-.137-.47-.28-.7-.429l.7.43zm9.884-33.54a18.031 18.031 0 0 0-3.055.118l1.637 6.82c.108-.007.215-.012.322-.016l1.096-6.922zm1.993.204zm-3.639 35.76c1.017.047 2.039.008 3.055-.118l-1.665-6.938c-.092.004-.183.007-.274.008l-1.116 7.048zm-1.993-.204zm-.994-35.375c-.267.058-.533.122-.798.192l.798-.192zm-2.312.665c-.948.343-1.876.77-2.775 1.283l4.145 5.705c.092-.045.184-.089.277-.131l-1.647-6.857zm9.932 34.529c.267-.058.533-.122.798-.192l-.798.192zm2.312-.665c.948-.343 1.877-.77 2.776-1.283l-4.169-5.738c-.088.041-.176.08-.264.119l1.657 6.902zm-15.877-32.06a18.289 18.289 0 0 0-1.618 1.175l1.618-1.175zM552.472 68.484c1.02.09 2.043.094 3.058.011l-1.338-6.88c-.107 0-.214 0-.322-.003l-1.398 6.872zm-1.586-.212a17.885 17.885 0 0 1-.804-.164l.804.164zm-2.334-.584c-.96-.31-1.902-.704-2.819-1.185l3.944-5.846c.093.042.187.082.281.121l-1.406 6.91zm7.135-35.067a18.031 18.031 0 0 0-3.058-.01l1.362 7.004c.09-.002.182-.002.273-.001l1.423-6.993zm1.586.213c.269.048.537.103.804.164l-.804-.164zm2.334.584c.96.31 1.902.704 2.818 1.185l-3.966 5.88a10.938 10.938 0 0 0-.268-.11l1.416-6.955zm-10.904-.044c-.972.303-1.919.69-2.831 1.155l3.956 5.977.242-.1-1.367-7.032zm-6.167 3.362c-.774.647-1.5 1.366-2.17 2.155l5.954 4.016.18-.18-3.964-5.991zm1.26-.963c.225-.156.454-.307.685-.453l-.685.453zM570.03 58.9c.481-.916.876-1.86 1.186-2.819l-6.826-1.389c-.042.106-.086.21-.131.315l5.771 3.893zm-31.9-16.692c-.48.916-.875 1.86-1.185 2.819l7.04 1.432c.032-.079.065-.157.099-.235l-5.954-4.016zm33.882 9.953c.09-1.02.093-2.043.01-3.057l-6.851 1.332c.002.11.002.222 0 .333l6.84 1.392zm-.213 1.586c-.048.27-.102.537-.163.805l.163-.805zm-35.65-4.8a18.031 18.031 0 0 0-.01 3.057l7.031-1.367c0-.087 0-.174.003-.261l-7.024-1.43zm.212-1.586c.049-.27.103-.537.164-.805l-.164.805zm34.898-2.184a18.031 18.031 0 0 0-1.155-2.83l-5.848 3.87c.042.099.084.198.124.298l6.88-1.338zm.49 1.942zM536.9 55.93c.304.97.69 1.918 1.156 2.83l5.95-3.938a11.024 11.024 0 0 1-.101-.254L536.9 55.93zm-.49-1.943zm32.902-13.033c-.146-.23-.297-.459-.453-.684l.453.684zm-1.416-1.945a17.916 17.916 0 0 0-2.155-2.17l-3.943 5.847c.074.07.147.143.218.215l5.88-3.892zm-29.05 21.142c.146.232.297.46.454.685l-.453-.685zm1.416 1.946c.647.773 1.366 1.5 2.155 2.17l3.966-5.88a10.939 10.939 0 0 1-.202-.208l-5.919 3.918zm24.697-25.885a18.289 18.289 0 0 0-1.658-1.118l1.658 1.118zM25.17 93.914a18.031 18.031 0 0 0 2.968-.729l-2.962-6.352c-.103.027-.208.051-.313.075l.306 7.006zm-1.591.178c-.273.018-.546.03-.82.036l.82-.036zm-2.406-.002a17.916 17.916 0 0 1-3.022-.468l2.412-6.627c.1.019.202.035.302.05l.308 7.045zm-1.56-35.75a18.031 18.031 0 0 0-2.97.728l3.015 6.467c.088-.023.177-.046.265-.067l-.31-7.129zm1.59-.178c.272-.019.545-.03.82-.036l-.82.036zm2.405.001c1.006.07 2.017.224 3.022.469l-2.426 6.664a10.938 10.938 0 0 0-.286-.041l-.31-7.092zm-10.59 2.596c-.87.53-1.695 1.133-2.467 1.806l5.284 4.842c.07-.053.14-.104.21-.155l-3.027-6.493zm-5.17 4.754a17.916 17.916 0 0 0-1.585 2.616l6.749 2.456c.043-.074.087-.147.132-.219l-5.297-4.853zm.99-1.239c.18-.206.365-.408.554-.605l-.554.605zm31.048 16.092c.245-1.005.4-2.016.468-3.022l-6.958.304c-.016.113-.033.225-.052.337l6.542 2.381zm-34.99-8.479a17.916 17.916 0 0 0-.469 3.022l7.177-.313c.012-.084.025-.168.04-.252l-6.749-2.457zm35.282 1.461a18.031 18.031 0 0 0-.729-2.969l-6.326 2.95c.029.107.056.215.082.324l6.973-.305zm.178 1.59c.018.273.03.547.036.82l-.036-.82zM4.603 78.906c.16 1.012.404 2.005.73 2.97l6.492-3.028c-.021-.084-.042-.17-.061-.254l-7.16.312zm-.178-1.59c-.018-.272-.03-.546-.035-.82l.035.82zM37.76 66.754a18.031 18.031 0 0 0-1.806-2.467l-4.738 5.17c.065.086.129.172.192.259l6.352-2.962zm.945 1.766zM7.023 85.5c.53.869 1.133 1.695 1.806 2.467l4.82-5.26a11.024 11.024 0 0 1-.16-.223L7.023 85.5zm-.946-1.766zM34.85 63.128c-.197-.189-.4-.374-.606-.554l.606.554zm-1.844-1.545A17.916 17.916 0 0 0 30.389 60l-2.412 6.626c.089.051.177.103.264.156l4.764-5.199zM9.933 89.125c.197.19.399.374.605.555l-.605-.555zm1.844 1.545a17.916 17.916 0 0 0 2.616 1.584l2.425-6.665c-.083-.05-.165-.1-.246-.152l-4.795 5.233zm17.7-31.09a18.289 18.289 0 0 0-1.879-.684l1.88.684zM136.876 94.77c.529-.878.98-1.796 1.35-2.744l-6.77-1.814c-.046.097-.094.193-.144.288l5.564 4.27zm-.886 1.332c-.161.22-.328.437-.5.651l.5-.651zm-1.548 1.842c-.699.726-1.467 1.4-2.3 2.013l-3.527-6.107c.079-.065.156-.132.233-.2l5.594 4.294zm-28.39-21.785c-.529.877-.98 1.795-1.35 2.743l6.892 1.847c.039-.083.078-.165.119-.246l-5.661-4.344zm.886-1.333c.161-.22.328-.437.5-.65l-.5.65zm1.548-1.841c.7-.727 1.467-1.402 2.301-2.014l3.546 6.142c-.073.063-.145.128-.216.193l-5.631-4.321zm-4.82 9.78a18.031 18.031 0 0 0-.202 3.052l7.107-.936.015-.261-6.92-1.854zm.319 7.018c.242.978.57 1.947.986 2.894l6.219-3.59c-.029-.08-.056-.161-.083-.242l-7.122.938zm-.312-1.555a17.885 17.885 0 0 1-.108-.814l.108.814zm32.284-13.441a17.916 17.916 0 0 0-2.013-2.301l-4.24 5.526c.076.084.15.17.224.256l6.03-3.481zm-28.986 21.354a17.916 17.916 0 0 0 2.014 2.301l4.373-5.699a10.946 10.946 0 0 1-.168-.192l-6.22 3.59zm23.798-26.089a18.031 18.031 0 0 0-2.743-1.35l-1.806 6.742c.1.047.2.096.3.146l4.25-5.538zm1.333.886c.22.161.437.328.651.5l-.651-.5zm-19.943 29.938c.877.529 1.795.98 2.743 1.35l1.854-6.92a11.017 11.017 0 0 1-.234-.116l-4.363 5.686zm-1.333-.886c-.22-.161-.437-.328-.65-.5l.65.5zm13.336-32.323a18.031 18.031 0 0 0-3.05-.203l.915 6.954c.107.004.214.01.321.018l1.814-6.77zm1.96.41zm-7.356 35.184c1.006.154 2.027.222 3.05.203l-.93-7.074a11.024 11.024 0 0 1-.273-.02l-1.847 6.891zm-1.96-.41zm2.709-35.286c-.272.03-.543.066-.814.108l.814-.108zm-2.37.42c-.978.242-1.946.57-2.894.986l3.526 6.107c.096-.035.192-.07.29-.102l-.921-6.991zm6.269 35.378c.271-.03.543-.065.814-.107l-.814.107zm2.369-.42c.978-.242 1.947-.57 2.894-.986l-3.546-6.142c-.091.032-.183.062-.275.091l.927 7.037zM113.343 69.4a18.289 18.289 0 0 0-1.731 1l1.732-1zM179.695 92.765a18.031 18.031 0 0 0 2.54-1.701l-4.955-4.956c-.09.06-.179.12-.27.177l2.685 6.48zm-1.434.71c-.25.11-.503.216-.758.315l.758-.315zm-2.261.822c-.97.28-1.972.48-3 .593v-7.052c.1-.017.201-.036.301-.056L176 94.297zm-13.695-33.062a18.031 18.031 0 0 0-2.54 1.701l5.045 5.046c.075-.053.15-.104.226-.154l-2.73-6.593zm1.434-.71c.25-.11.503-.216.758-.315l-.758.315zm2.261-.822c.97-.28 1.972-.48 3-.593v7.092c-.095.019-.19.038-.283.06L166 59.702zm-9.064 6.062a18.031 18.031 0 0 0-1.7 2.54l6.621 2.743.145-.218-5.066-5.065zM153.703 72c-.28.97-.48 1.972-.593 3h7.181c.016-.084.032-.167.05-.25L153.702 72zm.507-1.503c.1-.255.204-.508.315-.758l-.315.758zM188.89 75a17.916 17.916 0 0 0-.593-3l-6.435 2.666c.024.11.046.222.066.334h6.962zm-35.78 4c.114 1.028.314 2.03.593 3l6.637-2.75a10.946 10.946 0 0 1-.049-.25h-7.181zm33.655-10.695a18.031 18.031 0 0 0-1.701-2.54l-4.936 4.935c.064.091.127.183.188.277l6.449-2.672zm.71 1.434c.11.25.216.503.315.758l-.315-.758zm-32.24 15.956a18.031 18.031 0 0 0 1.701 2.54l5.066-5.065a11.017 11.017 0 0 1-.145-.218l-6.622 2.743zm-.71-1.434c-.11-.25-.216-.503-.315-.758l.315.758zm27.71-21.325a18.031 18.031 0 0 0-2.54-1.7l-2.684 6.48c.09.057.18.116.269.176l4.955-4.956zm1.493 1.336zm-23.963 26.792a18.031 18.031 0 0 0 2.54 1.7l2.73-6.592c-.075-.05-.15-.101-.225-.154l-5.045 5.046zm-1.493-1.336zm19.989-29.203c-.25-.11-.503-.216-.758-.315l.758.315zM176 59.703c-.97-.28-1.972-.48-3-.593v7.052c.1.017.201.036.301.056L176 59.703zm-12.261 33.772c.25.11.503.216.758.315l-.758-.315zm2.261.822c.97.28 1.972.48 3 .593v-7.092c-.095-.019-.19-.038-.283-.06L166 94.298zm6-35.27a18.289 18.289 0 0 0-2 0h2zM249.876 84.77c.529-.878.98-1.796 1.35-2.744l-6.77-1.814c-.046.097-.094.193-.144.288l5.564 4.27zm-.886 1.332c-.161.22-.328.437-.5.651l.5-.651zm-1.548 1.842c-.699.726-1.467 1.4-2.3 2.013l-3.527-6.107c.079-.065.156-.132.233-.2l5.594 4.294zm-28.39-21.785c-.529.877-.98 1.795-1.35 2.743l6.892 1.847c.039-.083.078-.165.119-.246l-5.661-4.344zm.886-1.333c.161-.22.328-.437.5-.65l-.5.65zm1.548-1.841c.7-.727 1.467-1.402 2.301-2.014l3.546 6.142c-.073.063-.145.128-.216.193l-5.631-4.321zm-4.82 9.78a18.031 18.031 0 0 0-.202 3.052l7.107-.936.015-.261-6.92-1.854zm.319 7.018c.242.978.57 1.947.986 2.894l6.219-3.59c-.029-.08-.056-.161-.083-.242l-7.122.938zm-.312-1.555a17.885 17.885 0 0 1-.108-.814l.108.814zm32.284-13.441a17.916 17.916 0 0 0-2.013-2.301l-4.24 5.526c.076.084.15.17.224.256l6.03-3.481zm-28.986 21.354a17.916 17.916 0 0 0 2.014 2.301l4.373-5.699a10.946 10.946 0 0 1-.168-.192l-6.22 3.59zm23.798-26.089a18.031 18.031 0 0 0-2.743-1.35l-1.806 6.742c.1.047.2.096.3.146l4.25-5.538zm1.333.886c.22.161.437.328.651.5l-.651-.5zm-19.943 29.938c.877.529 1.795.98 2.743 1.35l1.854-6.92a11.017 11.017 0 0 1-.234-.116l-4.363 5.686zm-1.333-.886c-.22-.161-.437-.328-.65-.5l.65.5zm13.336-32.323a18.031 18.031 0 0 0-3.05-.203l.915 6.954c.107.004.214.01.321.018l1.814-6.77zm1.96.41zm-7.356 35.184c1.006.154 2.027.222 3.05.203l-.93-7.074a11.024 11.024 0 0 1-.273-.02l-1.847 6.891zm-1.96-.41zm2.709-35.286c-.272.03-.543.066-.814.108l.814-.108zm-2.37.42c-.978.242-1.946.57-2.894.986l3.526 6.107c.096-.035.192-.07.29-.102l-.921-6.991zm6.269 35.378c.271-.03.543-.065.814-.107l-.814.107zm2.369-.42c.978-.242 1.947-.57 2.894-.986l-3.546-6.142c-.091.032-.183.062-.275.091l.927 7.037zM226.343 59.4a18.289 18.289 0 0 0-1.731 1l1.732-1zM292.934 115.26a18.031 18.031 0 0 0 2.207-2.116l-5.741-4.02c-.077.075-.155.148-.234.22l3.768 5.916zm-1.289.949c-.226.152-.457.299-.692.441l.692-.441zm-2.084 1.201c-.905.444-1.858.815-2.851 1.106l-1.225-6.945c.097-.035.192-.07.287-.108l3.79 5.947zm-19.227-30.18a18.031 18.031 0 0 0-2.207 2.116l5.845 4.092c.064-.064.13-.128.196-.19l-3.834-6.019zm1.288-.95c.227-.152.458-.299.693-.44l-.693.44zm2.085-1.201a17.916 17.916 0 0 1 2.85-1.105l1.232 6.984c-.09.035-.18.07-.269.107l-3.813-5.986zm-7.874 7.543a18.031 18.031 0 0 0-1.234 2.798l6.998 1.55c.034-.08.068-.16.104-.239l-5.868-4.109zm-2.101 6.702a17.916 17.916 0 0 0-.064 3.058l7.072-1.247.005-.256-7.013-1.555zm.238-1.568c.053-.269.113-.536.178-.801l-.178.801zm34.935-1.588a17.916 17.916 0 0 0-1.106-2.85l-5.874 3.742c.043.105.084.21.124.317l6.856-1.209zm-34.542 10.153c.29.993.662 1.945 1.105 2.85l6.059-3.859a10.946 10.946 0 0 1-.092-.238l-7.072 1.247zm31.286-16.376a18.031 18.031 0 0 0-2.116-2.207l-4.004 5.717c.08.079.157.159.233.24l5.887-3.75zm.95 1.288c.151.227.298.458.44.692l-.44-.692zm-28.98 21.312a18.031 18.031 0 0 0 2.116 2.206l4.109-5.868c-.061-.062-.121-.125-.18-.19l-6.045 3.852zm-.95-1.289c-.151-.227-.299-.457-.44-.692l.44.692zm23.587-25.813a18.031 18.031 0 0 0-2.797-1.233l-1.518 6.847c.1.041.198.084.295.127l4.02-5.74zm1.702 1.057zm-18.947 30.546c.893.488 1.829.901 2.798 1.234l1.544-6.967a11.024 11.024 0 0 1-.25-.112l-4.092 5.845zm-1.702-1.057zm14.615-32.23a17.885 17.885 0 0 0-.802-.178l.802.178zm-2.37-.416a17.916 17.916 0 0 0-3.057-.064l1.224 6.945c.103 0 .205 0 .307.003l1.526-6.884zm-6.21 35.388c.265.065.533.124.802.177l-.802-.177zm2.37.416c1.002.107 2.024.13 3.057.063l-1.232-6.984a10.939 10.939 0 0 1-.29-.01l-1.535 6.93zm-.216-35.776a18.289 18.289 0 0 0-1.97.348l1.97-.348zM319.934 75.26a18.031 18.031 0 0 0 2.207-2.116l-5.741-4.02c-.077.075-.155.148-.234.22l3.768 5.916zm-1.289.949c-.226.152-.457.299-.692.441l.692-.441zm-2.084 1.201c-.905.444-1.858.815-2.851 1.106l-1.225-6.945c.097-.035.192-.07.287-.108l3.79 5.947zm-19.227-30.18a18.031 18.031 0 0 0-2.207 2.116l5.845 4.092c.064-.064.13-.128.196-.19l-3.834-6.019zm1.288-.95c.227-.152.458-.299.693-.44l-.693.44zm2.085-1.201a17.916 17.916 0 0 1 2.85-1.105l1.232 6.984c-.09.035-.18.07-.269.107l-3.813-5.986zm-7.874 7.543a18.031 18.031 0 0 0-1.234 2.798l6.998 1.55c.034-.08.068-.16.104-.239l-5.868-4.109zm-2.101 6.702a17.916 17.916 0 0 0-.064 3.058l7.072-1.247.005-.256-7.013-1.555zm.238-1.568c.053-.269.113-.536.178-.801l-.178.801zm34.935-1.588a17.916 17.916 0 0 0-1.106-2.85l-5.874 3.742c.043.105.084.21.124.317l6.856-1.209zm-34.542 10.153c.29.993.662 1.945 1.105 2.85l6.059-3.859a10.946 10.946 0 0 1-.092-.238l-7.072 1.247zm31.286-16.376a18.031 18.031 0 0 0-2.116-2.207l-4.004 5.717c.08.079.157.159.233.24l5.887-3.75zm.95 1.288c.151.227.298.458.44.692l-.44-.692zm-28.98 21.312a18.031 18.031 0 0 0 2.116 2.206l4.109-5.868c-.061-.062-.121-.125-.18-.19l-6.045 3.852zm-.95-1.289c-.151-.227-.299-.457-.44-.692l.44.692zm23.587-25.813a18.031 18.031 0 0 0-2.797-1.233l-1.518 6.847c.1.041.198.084.295.127l4.02-5.74zm1.702 1.057zm-18.947 30.546c.893.488 1.829.901 2.798 1.234l1.544-6.967a11.024 11.024 0 0 1-.25-.112l-4.092 5.845zm-1.702-1.057zm14.615-32.23a17.885 17.885 0 0 0-.802-.178l.802.178zm-2.37-.416a17.916 17.916 0 0 0-3.057-.064l1.224 6.945c.103 0 .205 0 .307.003l1.526-6.884zm-6.21 35.388c.265.065.533.124.802.177l-.802-.177zm2.37.416c1.002.107 2.024.13 3.057.063l-1.232-6.984a10.939 10.939 0 0 1-.29-.01l-1.535 6.93zm-.216-35.776a18.289 18.289 0 0 0-1.97.348l1.97-.348zM401.888 81.528c.434-.928.786-1.888 1.055-2.87l-6.922-1.096c-.036.101-.074.202-.113.302l5.98 3.664zm-.742 1.418c-.138.236-.28.47-.43.7l.43-.7zm-1.347 1.993a17.916 17.916 0 0 1-2.078 2.244l-4.145-5.705c.071-.074.141-.148.21-.223l6.013 3.684zm-30.512-18.697a18.031 18.031 0 0 0-1.056 2.87l7.047 1.115c.03-.086.06-.172.093-.257l-6.084-3.728zm.742-1.418c.137-.236.28-.47.429-.7l-.43.7zm1.347-1.994a17.916 17.916 0 0 1 2.078-2.243l4.168 5.738c-.066.07-.13.142-.194.214l-6.052-3.709zm-3.77 10.232a18.031 18.031 0 0 0 .117 3.055l6.97-1.673a11.017 11.017 0 0 1-.012-.262l-7.076-1.12zm1.05 6.945c.343.948.77 1.877 1.282 2.775l5.81-4.22a10.946 10.946 0 0 1-.108-.232l-6.985 1.677zm-.474-1.514c-.07-.265-.134-.531-.192-.798l.192.798zm30.703-16.742a17.916 17.916 0 0 0-2.243-2.078l-3.64 5.94c.085.075.168.152.251.23l5.632-4.092zM372.29 86.02a17.916 17.916 0 0 0 2.244 2.077l3.753-6.125a10.946 10.946 0 0 1-.187-.174l-5.81 4.222zm20.941-28.434a18.031 18.031 0 0 0-2.869-1.056l-1.092 6.894c.105.036.21.074.314.113l3.647-5.951zm1.418.742c.236.137.47.28.7.429l-.7-.43zm-16.704 31.858c.928.434 1.888.787 2.87 1.056l1.12-7.076-.245-.091-3.745 6.111zm-1.418-.742c-.236-.137-.47-.28-.7-.429l.7.43zm9.884-33.54a18.031 18.031 0 0 0-3.055.118l1.637 6.82c.108-.007.215-.012.322-.016l1.096-6.922zm1.993.204zm-3.639 35.76c1.017.047 2.039.008 3.055-.118l-1.665-6.938c-.092.004-.183.007-.274.008l-1.116 7.048zm-1.993-.204zm-.994-35.375c-.267.058-.533.122-.798.192l.798-.192zm-2.312.665c-.948.343-1.876.77-2.775 1.283l4.145 5.705c.092-.045.184-.089.277-.131l-1.647-6.857zm9.932 34.529c.267-.058.533-.122.798-.192l-.798.192zm2.312-.665c.948-.343 1.877-.77 2.776-1.283l-4.169-5.738c-.088.041-.176.08-.264.119l1.657 6.902zm-15.877-32.06a18.289 18.289 0 0 0-1.618 1.175l1.618-1.175zM466.558 88.22a18.031 18.031 0 0 0 3.013-.521l-2.512-6.543c-.105.019-.211.036-.317.052l-.184 7.011zm-1.599.066c-.273-.001-.546-.008-.82-.022l.82.022zm-2.4-.17a17.916 17.916 0 0 1-2.981-.678l2.868-6.442c.1.025.199.049.298.07l-.184 7.05zm.937-35.773c-1.02.088-2.028.263-3.013.52l2.558 6.662c.089-.018.179-.034.268-.05l.187-7.132zm1.6-.066c.272 0 .546.008.82.021l-.82-.021zm2.399.17c.999.138 1.996.363 2.982.677l-2.885 6.48a10.938 10.938 0 0 0-.283-.062l.186-7.096zm-10.746 1.85a18.031 18.031 0 0 0-2.587 1.63l4.934 5.198.22-.14-2.567-6.688zm-5.49 4.382c-.649.77-1.24 1.605-1.762 2.498l6.56 2.921.148-.209-4.945-5.21zm1.075-1.167c.195-.193.393-.382.595-.565l-.595.565zm29.85 18.219c.315-.986.54-1.983.678-2.982l-6.963-.182c-.023.11-.048.221-.075.332l6.36 2.832zm-34.314-10.9c-.314.986-.539 1.984-.678 2.982l7.182.188c.018-.083.037-.166.057-.248l-6.56-2.921zm35.095 3.92a18.031 18.031 0 0 0-.52-3.014l-6.516 2.502c.021.109.04.219.058.328l6.978.183zm.067 1.598c-.001.273-.008.547-.022.82l.022-.82zm-35.943 1.463c.088 1.02.263 2.028.52 3.013l6.688-2.567c-.015-.086-.03-.172-.043-.258l-7.165-.188zm-.066-1.599c0-.273.008-.547.021-.82l-.021.82zm33.989-8.21a18.031 18.031 0 0 0-1.63-2.587l-5.087 4.828c.06.09.117.18.174.27l6.543-2.511zm.82 1.828zm-32.789 14.728c.467.904 1.012 1.77 1.63 2.587l5.175-4.911a11.024 11.024 0 0 1-.144-.233l-6.661 2.557zm-.82-1.827zm30.139-18.549a17.885 17.885 0 0 0-.565-.595l.565.595zm-1.732-1.67a17.916 17.916 0 0 0-2.5-1.762l-2.867 6.442c.085.057.169.115.252.174l5.115-4.854zM451.693 82.38c.183.202.372.4.565.595l-.565-.595zm1.732 1.67c.771.65 1.605 1.24 2.499 1.762l2.884-6.479c-.079-.055-.157-.112-.235-.17l-5.148 4.887zm19.826-29.78a18.289 18.289 0 0 0-1.827-.813l1.827.813zM524.285 104.602c.929-.432 1.816-.94 2.653-1.52l-4.598-5.289c-.092.054-.186.107-.28.158l2.225 6.651zm-1.48.61c-.257.092-.516.179-.778.26l.778-.26zm-2.313.66c-.986.212-2 .342-3.034.383l.492-7.034c.102-.01.204-.023.305-.036l2.237 6.687zm-11.355-33.935c-.928.431-1.816.94-2.653 1.519l4.681 5.385c.078-.047.157-.093.236-.138l-2.264-6.766zm1.48-.61c.257-.092.517-.179.779-.26l-.779.26zm2.313-.66c.986-.212 2-.342 3.034-.384l-.495 7.075c-.096.012-.191.025-.287.04l-2.252-6.732zm-9.465 5.413a18.031 18.031 0 0 0-1.873 2.416l6.414 3.198c.052-.07.105-.139.16-.207l-4.7-5.407zm-3.66 5.995a17.916 17.916 0 0 0-.8 2.951l7.163.501c.021-.082.043-.165.066-.246l-6.428-3.206zm.611-1.464c.117-.248.239-.493.366-.734l-.366.734zm34.281 6.911a17.916 17.916 0 0 0-.383-3.034l-6.605 2.21c.016.113.03.225.044.338l6.944.486zm-35.972 1.494c.042 1.034.172 2.048.383 3.034l6.812-2.28a10.946 10.946 0 0 1-.031-.253l-7.164-.5zm34.319-8.32a18.031 18.031 0 0 0-1.52-2.654l-5.267 4.58c.057.095.113.191.167.288l6.62-2.215zm.609 1.48c.093.256.18.516.26.778l-.26-.779zm-33.274 13.667c.431.929.94 1.816 1.519 2.653l5.407-4.7a11.017 11.017 0 0 1-.13-.227l-6.796 2.274zm-.61-1.48c-.092-.257-.18-.516-.26-.778l.26.778zm29.131-19.34a18.031 18.031 0 0 0-2.416-1.873l-3.129 6.276c.086.064.172.13.256.195l5.29-4.598zm1.396 1.437zm-25.774 25.055c.749.69 1.556 1.317 2.416 1.874l3.184-6.386a11.024 11.024 0 0 1-.215-.169l-5.385 4.681zm-1.396-1.437zm21.978-27.738c-.242-.127-.487-.25-.735-.366l.735.366zm-2.199-.976a17.916 17.916 0 0 0-2.95-.802l-.493 7.035c.1.024.199.05.297.077l3.146-6.31zm-14.586 32.834c.241.128.486.25.734.366l-.734-.366zm2.198.977c.947.346 1.933.616 2.951.801l.495-7.075a10.939 10.939 0 0 1-.279-.078l-3.167 6.352zm8.446-34.765a18.289 18.289 0 0 0-1.996-.14l1.996.14zM594.888 102.528c.434-.928.786-1.888 1.055-2.87l-6.922-1.096c-.036.101-.074.202-.113.302l5.98 3.664zm-.742 1.418c-.138.236-.28.47-.43.7l.43-.7zm-1.347 1.993a17.916 17.916 0 0 1-2.078 2.244l-4.145-5.705c.071-.074.141-.148.21-.223l6.013 3.684zm-30.512-18.697a18.031 18.031 0 0 0-1.056 2.87l7.047 1.115c.03-.086.06-.172.093-.257l-6.084-3.728zm.742-1.418c.137-.236.28-.47.429-.7l-.43.7zm1.347-1.994a17.916 17.916 0 0 1 2.078-2.243l4.168 5.738c-.066.07-.13.142-.194.214l-6.052-3.709zm-3.77 10.232a18.031 18.031 0 0 0 .117 3.055l6.97-1.673a11.017 11.017 0 0 1-.012-.262l-7.076-1.12zm1.05 6.945c.343.948.77 1.877 1.282 2.775l5.81-4.22a10.946 10.946 0 0 1-.108-.232l-6.985 1.677zm-.474-1.514c-.07-.265-.134-.531-.192-.798l.192.798zm30.703-16.742a17.916 17.916 0 0 0-2.243-2.078l-3.64 5.94c.085.075.168.152.251.23l5.632-4.092zM565.29 107.02a17.916 17.916 0 0 0 2.244 2.077l3.753-6.125a10.946 10.946 0 0 1-.187-.174l-5.81 4.222zm20.941-28.434a18.031 18.031 0 0 0-2.869-1.056l-1.092 6.894c.105.036.21.074.314.113l3.647-5.951zm1.418.742c.236.137.47.28.7.429l-.7-.43zm-16.704 31.858c.928.434 1.888.787 2.87 1.056l1.12-7.076-.245-.091-3.745 6.111zm-1.418-.742c-.236-.137-.47-.28-.7-.429l.7.43zm9.884-33.54a18.031 18.031 0 0 0-3.055.118l1.637 6.82c.108-.007.215-.012.322-.016l1.096-6.922zm1.993.204zm-3.639 35.76c1.017.047 2.039.008 3.055-.118l-1.665-6.938c-.092.004-.183.007-.274.008l-1.116 7.048zm-1.993-.204zm-.994-35.375c-.267.058-.533.122-.798.192l.798-.192zm-2.312.665c-.948.343-1.876.77-2.775 1.283l4.145 5.705c.092-.045.184-.089.277-.131l-1.647-6.857zm9.932 34.529c.267-.058.533-.122.798-.192l-.798.192zm2.312-.665c.948-.343 1.877-.77 2.776-1.283l-4.169-5.738c-.088.041-.176.08-.264.119l1.657 6.902zm-15.877-32.06a18.289 18.289 0 0 0-1.618 1.175l1.618-1.175zM63.17 122.914a18.031 18.031 0 0 0 2.968-.729l-2.962-6.352c-.103.027-.208.051-.313.075l.306 7.006zm-1.591.178c-.273.018-.546.03-.82.036l.82-.036zm-2.406-.002a17.916 17.916 0 0 1-3.022-.468l2.412-6.627c.1.019.202.035.302.05l.308 7.045zm-1.56-35.75a18.031 18.031 0 0 0-2.97.728l3.015 6.467c.088-.023.177-.046.265-.067l-.31-7.129zm1.59-.178c.272-.019.545-.03.82-.036l-.82.036zm2.405.001c1.006.07 2.017.224 3.022.469l-2.426 6.664a10.938 10.938 0 0 0-.286-.041l-.31-7.092zm-10.59 2.596c-.87.53-1.695 1.133-2.467 1.806l5.284 4.842c.07-.053.14-.104.21-.155l-3.027-6.493zm-5.17 4.754a17.916 17.916 0 0 0-1.585 2.616l6.749 2.456c.043-.074.087-.147.132-.219l-5.297-4.853zm.99-1.239c.18-.206.365-.408.554-.605l-.554.605zm31.048 16.092c.245-1.005.4-2.016.468-3.022l-6.958.304c-.016.113-.033.225-.052.337l6.542 2.381zm-34.99-8.479a17.916 17.916 0 0 0-.469 3.022l7.177-.313c.012-.084.025-.168.04-.252l-6.749-2.457zm35.282 1.461a18.031 18.031 0 0 0-.729-2.969l-6.326 2.95c.029.107.056.215.082.324l6.973-.305zm.178 1.59c.018.273.03.547.036.82l-.036-.82zm-35.753 3.967c.16 1.012.404 2.005.73 2.97l6.492-3.028c-.021-.084-.042-.17-.061-.254l-7.16.312zm-.178-1.59c-.018-.272-.03-.546-.035-.82l.035.82zM75.76 95.754a18.031 18.031 0 0 0-1.806-2.467l-4.738 5.17c.065.086.129.172.192.259l6.352-2.962zm.945 1.766zM45.023 114.5c.53.869 1.133 1.695 1.806 2.467l4.82-5.26a11.024 11.024 0 0 1-.16-.223l-6.466 3.016zm-.946-1.766zM72.85 92.128c-.197-.189-.4-.374-.606-.554l.606.554zm-1.844-1.545A17.916 17.916 0 0 0 68.389 89l-2.412 6.626c.089.051.177.103.264.156l4.764-5.199zm-23.072 27.542c.197.19.399.374.605.555l-.605-.555zm1.844 1.545a17.916 17.916 0 0 0 2.616 1.584l2.425-6.665c-.083-.05-.165-.1-.246-.152l-4.795 5.233zm17.7-31.09a18.289 18.289 0 0 0-1.879-.684l1.88.684zM46.689 153.23a18.031 18.031 0 0 0 1.806-2.466l-6.352-2.962c-.063.087-.127.173-.192.258l4.738 5.17zm-1.104 1.16c-.197.188-.399.373-.605.554l.605-.555zm-1.844 1.544a17.916 17.916 0 0 1-2.616 1.584l-2.412-6.627c.089-.05.177-.103.264-.156l4.764 5.2zm-24.176-26.383a18.031 18.031 0 0 0-1.806 2.467l6.467 3.015c.052-.074.105-.148.16-.222l-4.821-5.26zm1.104-1.159c.197-.189.399-.374.605-.554l-.605.554zm1.844-1.545a17.916 17.916 0 0 1 2.616-1.584l2.425 6.665c-.083.05-.165.1-.246.152l-4.795-5.233zm-6.445 8.796c-.325.964-.57 1.957-.729 2.97l7.161.312.061-.254-6.493-3.028zm-.905 6.965c.07 1.006.224 2.017.469 3.022l6.748-2.456a10.946 10.946 0 0 1-.04-.252l-7.177-.314zm-.037-1.585c.005-.275.017-.548.036-.82l-.036.82zm34.128-7.63a17.916 17.916 0 0 0-1.584-2.616l-5.135 4.705c.06.096.12.193.177.292l6.542-2.381zM17 149.389c.458.927.99 1.8 1.583 2.616l5.297-4.854a10.946 10.946 0 0 1-.132-.218L17 149.389zm27.967-21.56a18.031 18.031 0 0 0-2.467-1.806l-2.95 6.326c.091.064.181.129.27.195l5.147-4.715zm1.158 1.104c.19.197.374.399.555.605l-.555-.605zm-24.838 26.02a18.031 18.031 0 0 0 2.467 1.806l3.027-6.493-.21-.156-5.284 4.843zm-1.159-1.104c-.189-.197-.374-.4-.554-.606l.554.606zm18.747-29.517a18.031 18.031 0 0 0-2.97-.729l-.306 7.007c.105.023.21.048.314.074l2.962-6.352zm1.859.745zM27.379 158.45c.964.326 1.958.57 2.97.73l.31-7.13a11.024 11.024 0 0 1-.264-.067l-3.016 6.467zm-1.86-.745zm8.796-34.279c-.272-.018-.546-.03-.82-.035l.82.035zm-2.406.002a17.916 17.916 0 0 0-3.022.468l2.412 6.627c.101-.018.202-.035.303-.05l.307-7.045zm.03 35.929c.272.018.546.03.82.036l-.82-.036zm2.405-.002a17.916 17.916 0 0 0 3.022-.468l-2.425-6.665c-.096.016-.191.03-.287.042l-.31 7.091zM27.92 124.16a18.289 18.289 0 0 0-1.88.684l1.88-.684zM100.695 159.765a18.031 18.031 0 0 0 2.54-1.701l-4.955-4.956c-.09.06-.179.12-.27.177l2.685 6.48zm-1.434.71c-.25.11-.503.216-.758.315l.758-.315zm-2.261.822c-.97.28-1.972.48-3 .593v-7.052c.1-.017.201-.036.301-.056L97 161.297zm-13.695-33.062a18.031 18.031 0 0 0-2.54 1.701l5.045 5.046c.075-.053.15-.104.226-.154l-2.73-6.593zm1.434-.71c.25-.11.503-.216.758-.315l-.758.315zm2.261-.822c.97-.28 1.972-.48 3-.593v7.092c-.095.019-.19.038-.283.06L87 126.702zm-9.064 6.062a18.031 18.031 0 0 0-1.7 2.54l6.621 2.743.145-.218-5.066-5.065zM74.703 139c-.28.97-.48 1.972-.593 3h7.181c.016-.084.032-.167.05-.25L74.702 139zm.507-1.503c.1-.255.204-.508.315-.758l-.315.758zM109.89 142a17.916 17.916 0 0 0-.593-3l-6.435 2.666c.024.11.046.222.066.334h6.962zm-35.78 4c.114 1.028.314 2.03.593 3l6.637-2.75a10.946 10.946 0 0 1-.049-.25H74.11zm33.655-10.695a18.031 18.031 0 0 0-1.701-2.54l-4.936 4.935c.064.091.127.183.188.277l6.449-2.672zm.71 1.434c.11.25.216.503.315.758l-.315-.758zm-32.24 15.956a18.031 18.031 0 0 0 1.701 2.54l5.066-5.065a11.017 11.017 0 0 1-.145-.218l-6.622 2.743zm-.71-1.434c-.11-.25-.216-.503-.315-.758l.315.758zm27.71-21.325a18.031 18.031 0 0 0-2.54-1.7l-2.684 6.48c.09.057.18.116.269.176l4.955-4.956zm1.493 1.336zm-23.963 26.792a18.031 18.031 0 0 0 2.54 1.7l2.73-6.592c-.075-.05-.15-.101-.225-.154l-5.045 5.046zm-1.493-1.336zm19.989-29.203c-.25-.11-.503-.216-.758-.315l.758.315zM97 126.703c-.97-.28-1.972-.48-3-.593v7.052c.1.017.201.036.301.056L97 126.703zm-12.261 33.772c.25.11.503.216.758.315l-.758-.315zm2.261.822c.97.28 1.972.48 3 .593v-7.092c-.095-.019-.19-.038-.283-.06L87 161.298zm6-35.27a18.289 18.289 0 0 0-2 0h2zM146.17 144.914a18.031 18.031 0 0 0 2.968-.729l-2.962-6.352c-.103.027-.208.051-.313.075l.306 7.006zm-1.591.178c-.273.018-.546.03-.82.036l.82-.036zm-2.406-.002a17.916 17.916 0 0 1-3.022-.468l2.412-6.627c.1.019.202.035.302.05l.308 7.045zm-1.56-35.75a18.031 18.031 0 0 0-2.97.728l3.015 6.467c.088-.023.177-.046.265-.067l-.31-7.129zm1.59-.178c.272-.019.545-.03.82-.036l-.82.036zm2.405.001c1.006.07 2.017.224 3.022.469l-2.426 6.664a10.938 10.938 0 0 0-.286-.041l-.31-7.092zm-10.59 2.596c-.87.53-1.695 1.133-2.467 1.806l5.284 4.842c.07-.053.14-.104.21-.155l-3.027-6.493zm-5.17 4.754a17.916 17.916 0 0 0-1.585 2.616l6.749 2.456c.043-.074.087-.147.132-.219l-5.297-4.853zm.99-1.239c.18-.206.365-.408.554-.605l-.554.605zm31.048 16.092c.245-1.005.4-2.016.468-3.022l-6.958.304c-.016.113-.033.225-.052.337l6.542 2.381zm-34.99-8.479a17.916 17.916 0 0 0-.469 3.022l7.177-.313c.012-.084.025-.168.04-.252l-6.749-2.457zm35.282 1.461a18.031 18.031 0 0 0-.729-2.969l-6.326 2.95c.029.107.056.215.082.324l6.973-.305zm.178 1.59c.018.273.03.547.036.82l-.036-.82zm-35.753 3.967c.16 1.012.404 2.005.73 2.97l6.492-3.028c-.021-.084-.042-.17-.061-.254l-7.16.312zm-.178-1.59c-.018-.272-.03-.546-.035-.82l.035.82zm33.334-10.561a18.031 18.031 0 0 0-1.806-2.467l-4.738 5.17c.065.086.129.172.192.259l6.352-2.962zm.945 1.766zm-31.681 16.98c.53.869 1.133 1.695 1.806 2.467l4.82-5.26a11.024 11.024 0 0 1-.16-.223l-6.466 3.016zm-.946-1.766zm28.772-20.606c-.197-.189-.4-.374-.606-.554l.606.554zm-1.844-1.545a17.916 17.916 0 0 0-2.616-1.583l-2.412 6.626c.089.051.177.103.264.156l4.764-5.199zm-23.072 27.542c.197.19.399.374.605.555l-.605-.555zm1.844 1.545a17.916 17.916 0 0 0 2.616 1.584l2.425-6.665c-.083-.05-.165-.1-.246-.152l-4.795 5.233zm17.7-31.09a18.289 18.289 0 0 0-1.879-.684l1.88.684zM200.17 136.914a18.031 18.031 0 0 0 2.968-.729l-2.962-6.352c-.103.027-.208.051-.313.075l.306 7.006zm-1.591.178c-.273.018-.546.03-.82.036l.82-.036zm-2.406-.002a17.916 17.916 0 0 1-3.022-.468l2.412-6.627c.1.019.202.035.302.05l.308 7.045zm-1.56-35.75a18.031 18.031 0 0 0-2.97.728l3.015 6.467c.088-.023.177-.046.265-.067l-.31-7.129zm1.59-.178c.272-.019.545-.03.82-.036l-.82.036zm2.405.001c1.006.07 2.017.224 3.022.469l-2.426 6.664a10.938 10.938 0 0 0-.286-.041l-.31-7.092zm-10.59 2.596c-.87.53-1.695 1.133-2.467 1.806l5.284 4.842c.07-.053.14-.104.21-.155l-3.027-6.493zm-5.17 4.754a17.916 17.916 0 0 0-1.585 2.616l6.749 2.456c.043-.074.087-.147.132-.219l-5.297-4.853zm.99-1.239c.18-.206.365-.408.554-.605l-.554.605zm31.048 16.092c.245-1.005.4-2.016.468-3.022l-6.958.304c-.016.113-.033.225-.052.337l6.542 2.381zm-34.99-8.479a17.916 17.916 0 0 0-.469 3.022l7.177-.313c.012-.084.025-.168.04-.252l-6.749-2.457zm35.282 1.461a18.031 18.031 0 0 0-.729-2.969l-6.326 2.95c.029.107.056.215.082.324l6.973-.305zm.178 1.59c.018.273.03.547.036.82l-.036-.82zm-35.753 3.967c.16 1.012.404 2.005.73 2.97l6.492-3.028c-.021-.084-.042-.17-.061-.254l-7.16.312zm-.178-1.59c-.018-.272-.03-.546-.035-.82l.035.82zm33.334-10.561a18.031 18.031 0 0 0-1.806-2.467l-4.738 5.17c.065.086.129.172.192.259l6.352-2.962zm.945 1.766zm-31.681 16.98c.53.869 1.133 1.695 1.806 2.467l4.82-5.26a11.024 11.024 0 0 1-.16-.223l-6.466 3.016zm-.946-1.766zm28.772-20.606c-.197-.189-.4-.374-.606-.554l.606.554zm-1.844-1.545a17.916 17.916 0 0 0-2.616-1.583l-2.412 6.626c.089.051.177.103.264.156l4.764-5.199zm-23.072 27.542c.197.19.399.374.605.555l-.605-.555zm1.844 1.545a17.916 17.916 0 0 0 2.616 1.584l2.425-6.665c-.083-.05-.165-.1-.246-.152l-4.795 5.233zm17.7-31.09a18.289 18.289 0 0 0-1.879-.684l1.88.684zM209.876 169.77c.529-.878.98-1.796 1.35-2.744l-6.77-1.814c-.046.097-.094.193-.144.288l5.564 4.27zm-.886 1.332c-.161.22-.328.437-.5.651l.5-.651zm-1.548 1.842c-.699.726-1.467 1.4-2.3 2.013l-3.527-6.107c.079-.065.156-.132.233-.2l5.594 4.294zm-28.39-21.785c-.529.877-.98 1.795-1.35 2.743l6.892 1.847c.039-.083.078-.165.119-.246l-5.661-4.344zm.886-1.333c.161-.22.328-.437.5-.65l-.5.65zm1.548-1.841c.7-.727 1.467-1.402 2.301-2.014l3.546 6.142c-.073.063-.145.128-.216.193l-5.631-4.321zm-4.82 9.78a18.031 18.031 0 0 0-.202 3.052l7.107-.936.015-.261-6.92-1.854zm.319 7.018c.242.978.57 1.947.986 2.894l6.219-3.59c-.029-.08-.056-.161-.083-.242l-7.122.938zm-.312-1.555a17.885 17.885 0 0 1-.108-.814l.108.814zm32.284-13.441a17.916 17.916 0 0 0-2.013-2.301l-4.24 5.526c.076.084.15.17.224.256l6.03-3.481zm-28.986 21.354a17.916 17.916 0 0 0 2.014 2.301l4.373-5.699a10.946 10.946 0 0 1-.168-.192l-6.22 3.59zm23.798-26.089a18.031 18.031 0 0 0-2.743-1.35l-1.806 6.742c.1.047.2.096.3.146l4.25-5.538zm1.333.886c.22.161.437.328.651.5l-.651-.5zm-19.943 29.938c.877.529 1.795.98 2.743 1.35l1.854-6.92a11.017 11.017 0 0 1-.234-.116l-4.363 5.686zm-1.333-.886c-.22-.161-.437-.328-.65-.5l.65.5zm13.336-32.323a18.031 18.031 0 0 0-3.05-.203l.915 6.954c.107.004.214.01.321.018l1.814-6.77zm1.96.41zm-7.356 35.184c1.006.154 2.027.222 3.05.203l-.93-7.074a11.024 11.024 0 0 1-.273-.02l-1.847 6.891zm-1.96-.41zm2.709-35.286c-.272.03-.543.066-.814.108l.814-.108zm-2.37.42c-.978.242-1.946.57-2.894.986l3.526 6.107c.096-.035.192-.07.29-.102l-.921-6.991zm6.269 35.378c.271-.03.543-.065.814-.107l-.814.107zm2.369-.42c.978-.242 1.947-.57 2.894-.986l-3.546-6.142c-.091.032-.183.062-.275.091l.927 7.037zm-12.44-33.544a18.289 18.289 0 0 0-1.731 1l1.732-1zM269.876 151.77c.529-.878.98-1.796 1.35-2.744l-6.77-1.814c-.046.097-.094.193-.144.288l5.564 4.27zm-.886 1.332c-.161.22-.328.437-.5.651l.5-.651zm-1.548 1.842c-.699.726-1.467 1.4-2.3 2.013l-3.527-6.107c.079-.065.156-.132.233-.2l5.594 4.294zm-28.39-21.785c-.529.877-.98 1.795-1.35 2.743l6.892 1.847c.039-.083.078-.165.119-.246l-5.661-4.344zm.886-1.333c.161-.22.328-.437.5-.65l-.5.65zm1.548-1.841c.7-.727 1.467-1.402 2.301-2.014l3.546 6.142c-.073.063-.145.128-.216.193l-5.631-4.321zm-4.82 9.78a18.031 18.031 0 0 0-.202 3.052l7.107-.936.015-.261-6.92-1.854zm.319 7.018c.242.978.57 1.947.986 2.894l6.219-3.59c-.029-.08-.056-.161-.083-.242l-7.122.938zm-.312-1.555a17.885 17.885 0 0 1-.108-.814l.108.814zm32.284-13.441a17.916 17.916 0 0 0-2.013-2.301l-4.24 5.526c.076.084.15.17.224.256l6.03-3.481zm-28.986 21.354a17.916 17.916 0 0 0 2.014 2.301l4.373-5.699a10.946 10.946 0 0 1-.168-.192l-6.22 3.59zm23.798-26.089a18.031 18.031 0 0 0-2.743-1.35l-1.806 6.742c.1.047.2.096.3.146l4.25-5.538zm1.333.886c.22.161.437.328.651.5l-.651-.5zm-19.943 29.938c.877.529 1.795.98 2.743 1.35l1.854-6.92a11.017 11.017 0 0 1-.234-.116l-4.363 5.686zm-1.333-.886c-.22-.161-.437-.328-.65-.5l.65.5zm13.336-32.323a18.031 18.031 0 0 0-3.05-.203l.915 6.954c.107.004.214.01.321.018l1.814-6.77zm1.96.41zm-7.356 35.184c1.006.154 2.027.222 3.05.203l-.93-7.074a11.024 11.024 0 0 1-.273-.02l-1.847 6.891zm-1.96-.41zm2.709-35.286c-.272.03-.543.066-.814.108l.814-.108zm-2.37.42c-.978.242-1.946.57-2.894.986l3.526 6.107c.096-.035.192-.07.29-.102l-.921-6.991zm6.269 35.378c.271-.03.543-.065.814-.107l-.814.107zm2.369-.42c.978-.242 1.947-.57 2.894-.986l-3.546-6.142c-.091.032-.183.062-.275.091l.927 7.037zm-12.44-33.544a18.289 18.289 0 0 0-1.731 1l1.732-1zM297.02 162.43c.955.367 1.938.652 2.935.852l.611-6.982c-.103-.029-.206-.06-.308-.092l-3.239 6.221zm-1.467-.642c-.245-.12-.488-.247-.728-.38l.728.38zm-2.082-1.205a17.916 17.916 0 0 1-2.383-1.916l5.402-4.533c.078.066.157.13.237.194l-3.256 6.255zm16.524-31.741a18.031 18.031 0 0 0-2.936-.854l-.622 7.109c.088.023.175.048.263.074l3.295-6.33zm1.466.64c.245.121.488.248.728.38l-.728-.38zm2.082 1.205a17.916 17.916 0 0 1 2.383 1.917l-5.433 4.559c-.075-.061-.15-.121-.227-.18l3.277-6.296zm-10.47-3.047a18.031 18.031 0 0 0-3.039.33l2.156 6.836.26-.03.624-7.136zm-6.854 1.532c-.922.408-1.819.9-2.68 1.473l4.617 5.501c.074-.042.148-.083.223-.123l-2.16-6.851zm1.477-.578c.26-.088.52-.17.783-.247l-.783.247zm18.843 29.46a17.916 17.916 0 0 0 1.916-2.382l-6.178-3.217c-.07.09-.14.179-.213.266l4.475 5.333zm-26.064-24.838a17.916 17.916 0 0 0-1.916 2.383l6.372 3.317c.053-.067.106-.133.16-.198l-4.616-5.502zm29.826 18.907c.368-.956.653-1.938.853-2.936l-6.953-.608c-.03.107-.06.214-.092.32l6.192 3.224zm-.642 1.466c-.12.245-.246.488-.379.728l.38-.728zm-32.946-14.441a18.031 18.031 0 0 0-.853 2.936l7.137.624c.023-.084.048-.167.074-.25l-6.358-3.31zm.641-1.466c.121-.245.247-.488.38-.728l-.38.728zm34.148 7.52a18.031 18.031 0 0 0-.33-3.04l-6.689 2.11c.014.106.027.213.038.32l6.981.61zm-.064 2.002zm-35.926-1.135c.023 1.017.133 2.034.33 3.04l6.805-2.147c-.01-.09-.02-.18-.027-.272l-7.108-.621zm.063-2.002zm35.22-3.46a17.885 17.885 0 0 0-.247-.783l.247.783zm-.824-2.26c-.409-.922-.9-1.818-1.474-2.68l-5.402 4.534c.052.088.102.177.15.267l6.726-2.12zm-33.752 12.316c.076.263.158.524.247.783l-.247-.783zm.824 2.26c.409.922.9 1.819 1.474 2.68l5.433-4.559c-.047-.085-.093-.17-.137-.255l-6.77 2.134zm30.875-18.074a18.289 18.289 0 0 0-1.286-1.532l1.286 1.532zM357.3 102.98c.197-1.005.307-2.022.33-3.04l-6.981.611c-.01.107-.023.213-.037.32l6.689 2.109zm-.376 1.555c-.077.262-.159.523-.247.783l.247-.783zm-.825 2.26c-.409.922-.9 1.818-1.473 2.68l-5.403-4.533c.052-.089.102-.178.15-.267l6.726 2.12zm-34.129-10.76a18.031 18.031 0 0 0-.33 3.039l7.108-.622c.008-.09.017-.182.027-.272l-6.805-2.146zm.377-1.556c.076-.262.159-.523.247-.783l-.247.783zm.825-2.26c.408-.922.9-1.819 1.473-2.68l5.433 4.56c-.047.084-.092.169-.137.254l-6.77-2.134zm-1.184 10.84c.2.997.485 1.98.854 2.936l6.357-3.31-.074-.25-7.137.624zm2.7 6.484a17.916 17.916 0 0 0 1.916 2.383l4.616-5.501a10.946 10.946 0 0 1-.16-.199l-6.373 3.317zm-.826-1.354c-.132-.24-.259-.483-.38-.728l.38.728zm25.74-23.672a17.916 17.916 0 0 0-2.679-1.474l-2.094 6.643c.1.053.2.107.299.164l4.475-5.333zm-19.934 29.98a17.916 17.916 0 0 0 2.68 1.474l2.16-6.852c-.075-.04-.15-.081-.224-.123l-4.616 5.501zm13.44-32.655a18.031 18.031 0 0 0-3.04-.33l.609 6.953c.11.01.221.02.332.034l2.1-6.657zm1.555.377c.263.076.524.158.783.247l-.783-.247zm-8.5 34.953c1.005.197 2.022.307 3.04.33l-.625-7.136a11.017 11.017 0 0 1-.26-.03l-2.155 6.836zm-1.556-.377a17.885 17.885 0 0 1-.783-.247l.783.247zm1.477-34.935c-.998.2-1.98.485-2.936.853l3.238 6.221c.103-.032.205-.063.309-.092l-.611-6.982zm1.983-.285zm5.12 35.579c.998-.2 1.98-.485 2.936-.853l-3.295-6.33c-.087.026-.175.051-.263.075l.622 7.108zm-1.983.284zm-9.522-34.084c-.245.121-.488.247-.728.38l.728-.38zm-2.083 1.205a17.916 17.916 0 0 0-2.383 1.916l5.402 4.533c.079-.066.158-.13.237-.194l-3.256-6.255zm17.99 31.1c.245-.12.488-.246.728-.379l-.728.38zm2.083-1.204a17.916 17.916 0 0 0 2.382-1.916l-5.433-4.56c-.075.062-.15.121-.227.18l3.278 6.296zM326.51 87.188a18.289 18.289 0 0 0-1.285 1.532l1.285-1.532zM378.558 150.22a18.031 18.031 0 0 0 3.013-.521l-2.512-6.543c-.105.019-.211.036-.317.052l-.184 7.011zm-1.599.066c-.273-.001-.546-.008-.82-.022l.82.022zm-2.4-.17a17.916 17.916 0 0 1-2.981-.678l2.868-6.442c.1.025.199.049.298.07l-.184 7.05zm.937-35.773c-1.02.088-2.028.263-3.013.52l2.558 6.662c.089-.018.179-.034.268-.05l.187-7.132zm1.6-.066c.272 0 .546.008.82.021l-.82-.021zm2.399.17c.999.138 1.996.363 2.982.677l-2.885 6.48a10.938 10.938 0 0 0-.283-.062l.186-7.096zm-10.746 1.85a18.031 18.031 0 0 0-2.587 1.63l4.934 5.198.22-.14-2.567-6.688zm-5.49 4.382c-.649.77-1.24 1.605-1.762 2.498l6.56 2.921.148-.209-4.945-5.21zm1.075-1.167c.195-.193.393-.382.595-.565l-.595.565zm29.85 18.219c.315-.986.54-1.983.678-2.982l-6.963-.182c-.023.11-.048.221-.075.332l6.36 2.832zm-34.314-10.9c-.314.986-.539 1.984-.678 2.982l7.182.188c.018-.083.037-.166.057-.248l-6.56-2.921zm35.095 3.92a18.031 18.031 0 0 0-.52-3.014l-6.516 2.502c.021.109.04.219.058.328l6.978.183zm.067 1.598c-.001.273-.008.547-.022.82l.022-.82zm-35.943 1.463c.088 1.02.263 2.028.52 3.013l6.688-2.567c-.015-.086-.03-.172-.043-.258l-7.165-.188zm-.066-1.599c0-.273.008-.547.021-.82l-.021.82zm33.989-8.21a18.031 18.031 0 0 0-1.63-2.587l-5.087 4.828c.06.09.117.18.174.27l6.543-2.511zm.82 1.828zm-32.789 14.728c.467.904 1.012 1.77 1.63 2.587l5.175-4.911a11.024 11.024 0 0 1-.144-.233l-6.661 2.557zm-.82-1.827zm30.139-18.549a17.885 17.885 0 0 0-.565-.595l.565.595zm-1.732-1.67a17.916 17.916 0 0 0-2.5-1.762l-2.867 6.442c.085.057.169.115.252.174l5.115-4.854zm-24.937 25.866c.183.202.372.4.565.595l-.565-.595zm1.732 1.67c.771.65 1.605 1.24 2.499 1.762l2.884-6.479c-.079-.055-.157-.112-.235-.17l-5.148 4.887zm19.826-29.78a18.289 18.289 0 0 0-1.827-.813l1.827.813zM429.558 126.22a18.031 18.031 0 0 0 3.013-.521l-2.512-6.543c-.105.019-.211.036-.317.052l-.184 7.011zm-1.599.066c-.273-.001-.546-.008-.82-.022l.82.022zm-2.4-.17a17.916 17.916 0 0 1-2.981-.678l2.868-6.442c.1.025.199.049.298.07l-.184 7.05zm.937-35.773c-1.02.088-2.028.263-3.013.52l2.558 6.662c.089-.018.179-.034.268-.05l.187-7.132zm1.6-.066c.272 0 .546.008.82.021l-.82-.021zm2.399.17c.999.138 1.996.363 2.982.677l-2.885 6.48a10.938 10.938 0 0 0-.283-.062l.186-7.096zm-10.746 1.85a18.031 18.031 0 0 0-2.587 1.63l4.934 5.198.22-.14-2.567-6.688zm-5.49 4.382c-.649.77-1.24 1.605-1.762 2.498l6.56 2.921.148-.209-4.945-5.21zm1.075-1.167c.195-.193.393-.382.595-.565l-.595.565zm29.85 18.219c.315-.986.54-1.983.678-2.982l-6.963-.182c-.023.11-.048.221-.075.332l6.36 2.832zm-34.314-10.9c-.314.986-.539 1.984-.678 2.982l7.182.188c.018-.083.037-.166.057-.248l-6.56-2.921zm35.095 3.92a18.031 18.031 0 0 0-.52-3.014l-6.516 2.502c.021.109.04.219.058.328l6.978.183zm.067 1.598c-.001.273-.008.547-.022.82l.022-.82zm-35.943 1.463c.088 1.02.263 2.028.52 3.013l6.688-2.567c-.015-.086-.03-.172-.043-.258l-7.165-.188zm-.066-1.599c0-.273.008-.547.021-.82l-.021.82zm33.989-8.21a18.031 18.031 0 0 0-1.63-2.587l-5.087 4.828c.06.09.117.18.174.27l6.543-2.511zm.82 1.828zm-32.789 14.728c.467.904 1.012 1.77 1.63 2.587l5.175-4.911a11.024 11.024 0 0 1-.144-.233l-6.661 2.557zm-.82-1.827zm30.139-18.549a17.885 17.885 0 0 0-.565-.595l.565.595zm-1.732-1.67a17.916 17.916 0 0 0-2.5-1.762l-2.867 6.442c.085.057.169.115.252.174l5.115-4.854zm-24.937 25.866c.183.202.372.4.565.595l-.565-.595zm1.732 1.67c.771.65 1.605 1.24 2.499 1.762l2.884-6.479c-.079-.055-.157-.112-.235-.17l-5.148 4.887zm19.826-29.78a18.289 18.289 0 0 0-1.827-.813l1.827.813zM406.8 175.074a18.031 18.031 0 0 0 2.643 1.538l2.282-6.626a11.016 11.016 0 0 1-.277-.165l-4.647 5.253zm-1.267-.977a17.885 17.885 0 0 1-.615-.544l.615.544zm-1.729-1.672a17.916 17.916 0 0 1-1.849-2.436l6.339-3.092c.06.083.12.165.183.246l-4.673 5.282zm23.712-26.802a18.031 18.031 0 0 0-2.642-1.538l-2.323 6.747c.08.044.158.089.237.135l4.728-5.344zm1.267.977c.209.176.414.358.615.544l-.615-.544zm1.73 1.673a17.916 17.916 0 0 1 1.848 2.436l-6.374 3.109a10.938 10.938 0 0 0-.178-.23l4.704-5.315zm-9.422-5.49a18.031 18.031 0 0 0-3.029-.415l.438 7.154c.086.01.173.022.26.034l2.331-6.773zm-7.021-.172c-.994.173-1.982.433-2.957.781l3.148 6.455.247-.066-.438-7.17zm1.573-.203c.273-.023.546-.04.82-.05l-.82.05zm11.155 33.143a17.916 17.916 0 0 0 2.436-1.848l-5.216-4.615c-.09.07-.18.139-.271.206l3.051 6.257zm-19.28-30.405a17.916 17.916 0 0 0-2.436 1.848l5.38 4.76.204-.154-3.148-6.454zm24.366 25.56a18.031 18.031 0 0 0 1.538-2.642l-6.6-2.273c-.054.098-.11.194-.166.29l5.228 4.625zm-.977 1.268c-.176.208-.358.413-.544.615l.544-.615zm-28.474-21.983a18.031 18.031 0 0 0-1.538 2.642l6.773 2.333.133-.225-5.368-4.75zm.977-1.267c.176-.209.357-.414.544-.615l-.544.615zm31.314 15.558c.223-.993.363-2.006.415-3.03l-7 .429c-.013.106-.026.213-.042.32l6.627 2.28zm-.546 1.927zm-34.585-9.793a18.031 18.031 0 0 0-.415 3.029l7.122-.436c.012-.09.025-.18.04-.27l-6.747-2.323zm.546-1.928zm35.01 5.164c-.01-.272-.027-.546-.05-.819l.05.82zm-.253-2.392a17.916 17.916 0 0 0-.781-2.956l-6.339 3.091c.029.098.056.197.082.296l7.038-.431zm-35.729 3.785c.01.273.027.546.05.82l-.05-.82zm.254 2.392c.173.994.432 1.982.781 2.957l6.375-3.11a10.939 10.939 0 0 1-.072-.28l-7.084.433zm34.33-10.068a18.289 18.289 0 0 0-.877-1.798l.876 1.798zM494.888 133.528c.434-.928.786-1.888 1.055-2.87l-6.922-1.096c-.036.101-.074.202-.113.302l5.98 3.664zm-.742 1.418c-.138.236-.28.47-.43.7l.43-.7zm-1.347 1.993a17.916 17.916 0 0 1-2.078 2.244l-4.145-5.705c.071-.074.141-.148.21-.223l6.013 3.684zm-30.512-18.697a18.031 18.031 0 0 0-1.056 2.87l7.047 1.115c.03-.086.06-.172.093-.257l-6.084-3.728zm.742-1.418c.137-.236.28-.47.429-.7l-.43.7zm1.347-1.994a17.916 17.916 0 0 1 2.078-2.243l4.168 5.738c-.066.07-.13.142-.194.214l-6.052-3.709zm-3.77 10.232a18.031 18.031 0 0 0 .117 3.055l6.97-1.673a11.017 11.017 0 0 1-.012-.262l-7.076-1.12zm1.05 6.945c.343.948.77 1.877 1.282 2.775l5.81-4.22a10.946 10.946 0 0 1-.108-.232l-6.985 1.677zm-.474-1.514c-.07-.265-.134-.531-.192-.798l.192.798zm30.703-16.742a17.916 17.916 0 0 0-2.243-2.078l-3.64 5.94c.085.075.168.152.251.23l5.632-4.092zM465.29 138.02a17.916 17.916 0 0 0 2.244 2.077l3.753-6.125a10.946 10.946 0 0 1-.187-.174l-5.81 4.222zm20.941-28.434a18.031 18.031 0 0 0-2.869-1.056l-1.092 6.894c.105.036.21.074.314.113l3.647-5.951zm1.418.742c.236.137.47.28.7.429l-.7-.43zm-16.704 31.858c.928.434 1.888.787 2.87 1.056l1.12-7.076-.245-.091-3.745 6.111zm-1.418-.742c-.236-.137-.47-.28-.7-.429l.7.43zm9.884-33.54a18.031 18.031 0 0 0-3.055.118l1.637 6.82c.108-.007.215-.012.322-.016l1.096-6.922zm1.993.204zm-3.639 35.76c1.017.047 2.039.008 3.055-.118l-1.665-6.938c-.092.004-.183.007-.274.008l-1.116 7.048zm-1.993-.204zm-.994-35.375c-.267.058-.533.122-.798.192l.798-.192zm-2.312.665c-.948.343-1.876.77-2.775 1.283l4.145 5.705c.092-.045.184-.089.277-.131l-1.647-6.857zm9.932 34.529c.267-.058.533-.122.798-.192l-.798.192zm2.312-.665c.948-.343 1.877-.77 2.776-1.283l-4.169-5.738c-.088.041-.176.08-.264.119l1.657 6.902zm-15.877-32.06a18.289 18.289 0 0 0-1.618 1.175l1.618-1.175zM554.888 142.528c.434-.928.786-1.888 1.055-2.87l-6.922-1.096c-.036.101-.074.202-.113.302l5.98 3.664zm-.742 1.418c-.138.236-.28.47-.43.7l.43-.7zm-1.347 1.993a17.916 17.916 0 0 1-2.078 2.244l-4.145-5.705c.071-.074.141-.148.21-.223l6.013 3.684zm-30.512-18.697a18.031 18.031 0 0 0-1.056 2.87l7.047 1.115c.03-.086.06-.172.093-.257l-6.084-3.728zm.742-1.418c.137-.236.28-.47.429-.7l-.43.7zm1.347-1.994a17.916 17.916 0 0 1 2.078-2.243l4.168 5.738c-.066.07-.13.142-.194.214l-6.052-3.709zm-3.77 10.232a18.031 18.031 0 0 0 .117 3.055l6.97-1.673a11.017 11.017 0 0 1-.012-.262l-7.076-1.12zm1.05 6.945c.343.948.77 1.877 1.282 2.775l5.81-4.22a10.946 10.946 0 0 1-.108-.232l-6.985 1.677zm-.474-1.514c-.07-.265-.134-.531-.192-.798l.192.798zm30.703-16.742a17.916 17.916 0 0 0-2.243-2.078l-3.64 5.94c.085.075.168.152.251.23l5.632-4.092zM525.29 147.02a17.916 17.916 0 0 0 2.244 2.077l3.753-6.125a10.946 10.946 0 0 1-.187-.174l-5.81 4.222zm20.941-28.434a18.031 18.031 0 0 0-2.869-1.056l-1.092 6.894c.105.036.21.074.314.113l3.647-5.951zm1.418.742c.236.137.47.28.7.429l-.7-.43zm-16.704 31.858c.928.434 1.888.787 2.87 1.056l1.12-7.076-.245-.091-3.745 6.111zm-1.418-.742c-.236-.137-.47-.28-.7-.429l.7.43zm9.884-33.54a18.031 18.031 0 0 0-3.055.118l1.637 6.82c.108-.007.215-.012.322-.016l1.096-6.922zm1.993.204zm-3.639 35.76c1.017.047 2.039.008 3.055-.118l-1.665-6.938c-.092.004-.183.007-.274.008l-1.116 7.048zm-1.993-.204zm-.994-35.375c-.267.058-.533.122-.798.192l.798-.192zm-2.312.665c-.948.343-1.876.77-2.775 1.283l4.145 5.705c.092-.045.184-.089.277-.131l-1.647-6.857zm9.932 34.529c.267-.058.533-.122.798-.192l-.798.192zm2.312-.665c.948-.343 1.877-.77 2.776-1.283l-4.169-5.738c-.088.041-.176.08-.264.119l1.657 6.902zm-15.877-32.06a18.289 18.289 0 0 0-1.618 1.175l1.618-1.175z"/></g></svg>