<svg xmlns="http://www.w3.org/2000/svg" viewBox="0 0 605 180"><title>star-alt</title><g fill-rule="evenodd"><path d="M47.69 32.246l-7.212 9.846-5.006-11.13-11.593-3.816 9.039-8.2.046-12.204 10.592 6.061 11.622-3.727-2.492 11.947 7.135 9.901-12.132 1.322zm-1.047-1.811l-5.767 7.875-4.005-8.902-9.272-3.052 7.23-6.56.036-9.761 8.473 4.848 9.295-2.98-1.993 9.555 5.708 7.92-9.705 1.057zM76.083 66.895L64.23 69.802l3.319-11.744-6.428-10.375 12.195-.472 7.88-9.319 4.218 11.452 11.298 4.615-9.588 7.55-.898 12.172-10.143-6.786zm.363-2.06l-9.48 2.325 2.654-9.393-5.141-8.298 9.754-.378 6.303-7.454 3.374 9.16 9.037 3.691-7.67 6.04-.718 9.735-8.113-5.428zM137.69 41.246l-7.212 9.846-5.006-11.13-11.593-3.816 9.039-8.2.046-12.204 10.592 6.061 11.622-3.727-2.492 11.947 7.135 9.901-12.132 1.322zm-1.047-1.811l-5.767 7.875-4.005-8.902-9.272-3.052 7.23-6.56.036-9.761 8.473 4.848 9.295-2.98-1.993 9.555 5.708 7.92-9.705 1.057zM194.133 46.826l-12.178.805 5.308-10.99-4.529-11.332 12.092 1.652 9.379-7.809 2.165 12.01 10.325 6.507-10.754 5.77-2.997 11.831-8.811-8.444zm.715-1.965l-9.74.644 4.245-8.79-3.622-9.065 9.672 1.321 7.501-6.246 1.732 9.607 8.259 5.205-8.602 4.615-2.397 9.463-7.048-6.754zM268.69 38.246l-7.212 9.846-5.006-11.13-11.593-3.816 9.039-8.2.046-12.204 10.592 6.061 11.622-3.727-2.492 11.947 7.135 9.901-12.132 1.322zm-1.047-1.811l-5.767 7.875-4.005-8.902-9.272-3.052 7.23-6.56.036-9.761 8.473 4.848 9.295-2.98-1.993 9.555 5.708 7.92-9.705 1.057zM348.956 47.16l-12.107-1.533 7.307-9.775-2.283-11.988 11.555 3.929 10.696-5.876-.166 12.203 8.893 8.357-11.657 3.613-5.2 11.04-7.038-9.97zm1.077-1.792l-9.684-1.227 5.845-7.818-1.826-9.59 9.242 3.143 8.556-4.7-.133 9.761 7.113 6.685-9.324 2.89-4.159 8.83-5.63-7.974zM437.612 43.55l-4.218 11.452-7.88-9.319-12.195-.472 6.427-10.375-3.319-11.744L428.28 26l10.144-6.785.897 12.17 9.589 7.55-11.298 4.616zm-1.505-1.453l-3.373 9.16-6.303-7.454-9.755-.378 5.141-8.298-2.654-9.393 9.48 2.325 8.114-5.428.718 9.735 7.67 6.04-9.038 3.691zM515.905 35.957l-6.142 10.546-6.143-10.546-11.927-2.583 8.131-9.1-1.23-12.142 11.169 4.921 11.168-4.921-1.23 12.142 8.132 9.1-11.928 2.583zm-1.23-1.692l-4.912 8.435-4.913-8.435-9.54-2.066 6.503-7.279-.983-9.712 8.933 3.936 8.933-3.936-.984 9.712 6.504 7.28-9.54 2.065zM547.117 60.874l-12.01-2.165 7.809-9.378-1.653-12.092 11.333 4.528 10.99-5.308-.805 12.178 8.444 8.811-11.83 2.998-5.77 10.753-6.508-10.325zm1.17-1.733l-9.607-1.732 6.246-7.502-1.321-9.672 9.064 3.622 8.79-4.245-.643 9.74 6.754 7.048-9.463 2.398-4.616 8.601-5.204-8.258zM18.133 87.826l-12.178.805 5.308-10.99L6.734 66.31l12.092 1.652 9.379-7.809 2.165 12.01 10.325 6.507-10.754 5.77-2.997 11.831-8.811-8.444zm.715-1.965l-9.74.644 4.245-8.79-3.622-9.065 9.672 1.321 7.501-6.246 1.732 9.607 8.259 5.205-8.602 4.615-2.397 9.463-7.048-6.754zM127.69 96.246l-7.212 9.846-5.006-11.13-11.593-3.816 9.039-8.2.046-12.204 10.592 6.061 11.622-3.727-2.492 11.947 7.135 9.901-12.132 1.322zm-1.047-1.811l-5.767 7.875-4.005-8.902-9.272-3.052 7.23-6.56.036-9.761 8.473 4.848 9.295-2.98-1.993 9.555 5.708 7.92-9.705 1.057zM171 89.45l-11.168 4.921 1.23-12.142-8.132-9.1 11.928-2.583L171 60l6.142 10.546 11.928 2.583-8.131 9.1 1.229 12.142L171 89.45zm0-2.091l-8.933 3.936.984-9.712-6.505-7.28 9.54-2.065L171 63.803l4.913 8.435 9.54 2.066-6.504 7.279.984 9.712L171 87.359zM240.69 86.246l-7.212 9.846-5.006-11.13-11.593-3.816 9.039-8.2.046-12.204 10.592 6.061 11.622-3.727-2.492 11.947 7.135 9.901-12.132 1.322zm-1.047-1.811l-5.767 7.875-4.005-8.902-9.272-3.052 7.23-6.56.036-9.761 8.473 4.848 9.295-2.98-1.993 9.555 5.708 7.92-9.705 1.057zM283.796 113.505l-10.144 6.786-.898-12.17-9.588-7.551 11.298-4.615 4.218-11.452 7.88 9.319 12.195.472-6.428 10.375 3.32 11.744-11.853-2.908zm-.363-2.06l-8.114 5.429-.718-9.736-7.67-6.039 9.037-3.691 3.374-9.16 6.303 7.454 9.755.377-5.142 8.299 2.655 9.393-9.48-2.325zM310.796 73.505l-10.144 6.786-.898-12.17-9.588-7.551 11.298-4.615 4.218-11.452 7.88 9.319 12.195.472-6.428 10.375 3.32 11.744-11.853-2.908zm-.363-2.06l-8.114 5.429-.718-9.736-7.67-6.039 9.037-3.691 3.374-9.16 6.303 7.454 9.755.377-5.142 8.299 2.655 9.393-9.48-2.325zM392.905 83.957l-6.142 10.546-6.143-10.546-11.927-2.583 8.131-9.1-1.23-12.142 11.169 4.921 11.168-4.921-1.23 12.142 8.132 9.1-11.928 2.583zm-1.23-1.692l-4.912 8.435-4.913-8.435-9.54-2.066 6.503-7.279-.983-9.712 8.933 3.936 8.933-3.936-.984 9.712 6.504 7.28-9.54 2.065zM459.963 81.655l-12.204-.047 6.062-10.592-3.727-11.621 11.947 2.492 9.9-7.136 1.323 12.132 9.846 7.211-11.13 5.007-3.816 11.592-8.2-9.038zm.851-1.91l-9.762-.038 4.849-8.472-2.981-9.296 9.556 1.993 7.92-5.707 1.057 9.704 7.875 5.768-8.903 4.004-3.052 9.273-6.559-7.23zM515.843 100.689l-11.484 4.13 2.073-12.027-7.477-9.645 12.08-1.745 6.862-10.091 5.392 10.948 11.718 3.409-8.746 8.511.38 12.198-10.798-5.688zm.146-2.086l-9.186 3.303 1.658-9.62-5.98-7.715 9.661-1.395 5.49-8.072 4.313 8.757 9.373 2.727-6.996 6.808.303 9.757-8.636-4.55zM585.905 104.957l-6.142 10.546-6.143-10.546-11.927-2.583 8.131-9.1-1.23-12.142 11.169 4.921 11.168-4.921-1.23 12.142 8.132 9.1-11.928 2.583zm-1.23-1.692l-4.912 8.435-4.913-8.435-9.54-2.066 6.503-7.279-.983-9.712 8.933 3.936 8.933-3.936-.984 9.712 6.504 7.28-9.54 2.065zM56.133 116.826l-12.178.805 5.308-10.99-4.529-11.332 12.092 1.652 9.379-7.809 2.165 12.01 10.325 6.507-10.754 5.77-2.997 11.831-8.811-8.444zm.715-1.965l-9.74.644 4.245-8.79-3.622-9.065 9.672 1.321 7.501-6.246 1.732 9.607 8.259 5.205-8.602 4.615-2.397 9.463-7.048-6.754zM37.385 153.09l-8.811 8.444-2.998-11.83-10.754-5.77 10.325-6.507 2.166-12.011 9.378 7.809 12.092-1.652-4.528 11.332 5.308 10.99-12.178-.805zm-.715-1.965l-7.048 6.754-2.398-9.463-8.601-4.616 8.258-5.204 1.732-9.607 7.502 6.246 9.672-1.321-3.623 9.064 4.246 8.79-9.74-.643zM92 156.45l-11.168 4.921 1.23-12.142-8.132-9.1 11.928-2.583L92 127l6.142 10.546 11.928 2.583-8.131 9.1 1.229 12.142L92 156.45zm0-2.091l-8.933 3.936.984-9.712-6.505-7.28 9.54-2.065L92 130.803l4.913 8.435 9.54 2.066-6.504 7.279.984 9.712L92 154.359zM139.133 138.826l-12.178.805 5.308-10.99-4.529-11.332 12.092 1.652 9.379-7.809 2.165 12.01 10.325 6.507-10.754 5.77-2.997 11.831-8.811-8.444zm.715-1.965l-9.74.644 4.245-8.79-3.622-9.065 9.672 1.321 7.501-6.246 1.732 9.607 8.259 5.205-8.602 4.615-2.397 9.463-7.048-6.754zM193.133 130.826l-12.178.805 5.308-10.99-4.529-11.332 12.092 1.652 9.379-7.809 2.165 12.01 10.325 6.507-10.754 5.77-2.997 11.831-8.811-8.444zm.715-1.965l-9.74.644 4.245-8.79-3.622-9.065 9.672 1.321 7.501-6.246 1.732 9.607 8.259 5.205-8.602 4.615-2.397 9.463-7.048-6.754zM200.69 171.246l-7.212 9.846-5.006-11.13-11.593-3.816 9.039-8.2.046-12.204 10.592 6.061 11.622-3.727-2.492 11.947 7.135 9.901-12.132 1.322zm-1.047-1.811l-5.767 7.875-4.005-8.902-9.272-3.052 7.23-6.56.036-9.761 8.473 4.848 9.295-2.98-1.993 9.555 5.708 7.92-9.705 1.057zM260.69 153.246l-7.212 9.846-5.006-11.13-11.593-3.816 9.039-8.2.046-12.204 10.592 6.061 11.622-3.727-2.492 11.947 7.135 9.901-12.132 1.322zm-1.047-1.811l-5.767 7.875-4.005-8.902-9.272-3.052 7.23-6.56.036-9.761 8.473 4.848 9.295-2.98-1.993 9.555 5.708 7.92-9.705 1.057zM293.97 153.638l-10.949-5.392 10.092-6.863 1.744-12.079 9.646 7.477 12.027-2.073-4.13 11.484 5.688 10.797-12.198-.379-8.512 8.747-3.408-11.719zm1.602-1.344l-8.758-4.313 8.072-5.49 1.396-9.66 7.715 5.98 9.62-1.659-3.304 9.186 4.55 8.636-9.757-.303-6.808 6.996-2.726-9.373zM349.173 107.51l-3.41 11.718-8.51-8.746-12.198.379 5.688-10.797-4.13-11.484 12.026 2.073 9.646-7.477 1.745 12.079 10.091 6.863-10.948 5.392zm-1.603-1.345l-2.726 9.374-6.808-6.996-9.757.303 4.55-8.637-3.304-9.185 9.62 1.658 7.715-5.98 1.396 9.661 8.072 5.49-8.758 4.312zM371.963 143.655l-12.204-.047 6.062-10.592-3.727-11.621 11.947 2.492 9.9-7.136 1.323 12.132 9.846 7.211-11.13 5.007-3.816 11.592-8.2-9.038zm.851-1.91l-9.762-.038 4.849-8.472-2.981-9.296 9.556 1.993 7.92-5.707 1.057 9.704 7.875 5.768-8.903 4.004-3.052 9.273-6.559-7.23zM422.963 119.655l-12.204-.047 6.062-10.592-3.727-11.621 11.947 2.492 9.9-7.136 1.323 12.132 9.846 7.211-11.13 5.007-3.816 11.592-8.2-9.038zm.851-1.91l-9.762-.038 4.849-8.472-2.981-9.296 9.556 1.993 7.92-5.707 1.057 9.704 7.875 5.768-8.903 4.004-3.052 9.273-6.559-7.23zM405.968 165.806l-9.319-7.88 11.453-4.218 4.614-11.298 7.55 9.589 12.172.897-6.786 10.144 2.907 11.853-11.744-3.32-10.374 6.428-.473-12.195zm1.88-.916l-7.454-6.304 9.16-3.373 3.692-9.037 6.039 7.67 9.735.717-5.428 8.114 2.326 9.48-9.394-2.654-8.298 5.141-.378-9.754zM485.905 135.957l-6.142 10.546-6.143-10.546-11.927-2.583 8.131-9.1-1.23-12.142 11.169 4.921 11.168-4.921-1.23 12.142 8.132 9.1-11.928 2.583zm-1.23-1.692l-4.912 8.435-4.913-8.435-9.54-2.066 6.503-7.279-.983-9.712 8.933 3.936 8.933-3.936-.984 9.712 6.504 7.28-9.54 2.065zM545.905 144.957l-6.142 10.546-6.143-10.546-11.927-2.583 8.131-9.1-1.23-12.142 11.169 4.921 11.168-4.921-1.23 12.142 8.132 9.1-11.928 2.583zm-1.23-1.692l-4.912 8.435-4.913-8.435-9.54-2.066 6.503-7.279-.983-9.712 8.933 3.936 8.933-3.936-.984 9.712 6.504 7.28-9.54 2.065z"/></g></svg>