<svg xmlns="http://www.w3.org/2000/svg" viewBox="0 0 605 180"><title>star</title><g fill-rule="evenodd"><path d="M47.69 32.246l-7.212 9.846-5.006-11.13-11.593-3.816 9.039-8.2.046-12.204 10.592 6.061 11.622-3.727-2.492 11.947 7.135 9.901zM76.083 66.895L64.23 69.802l3.319-11.744-6.428-10.375 12.195-.472 7.88-9.319 4.218 11.452 11.298 4.615-9.588 7.55-.898 12.172zM137.69 41.246l-7.212 9.846-5.006-11.13-11.593-3.816 9.039-8.2.046-12.204 10.592 6.061 11.622-3.727-2.492 11.947 7.135 9.901zM194.133 46.826l-12.178.805 5.308-10.99-4.529-11.332 12.092 1.652 9.379-7.809 2.165 12.01 10.325 6.507-10.754 5.77-2.997 11.831zM268.69 38.246l-7.212 9.846-5.006-11.13-11.593-3.816 9.039-8.2.046-12.204 10.592 6.061 11.622-3.727-2.492 11.947 7.135 9.901zM348.956 47.16l-12.107-1.533 7.307-9.775-2.283-11.988 11.555 3.929 10.696-5.876-.166 12.203 8.893 8.357-11.657 3.613-5.2 11.04zM437.612 43.55l-4.218 11.452-7.88-9.319-12.195-.472 6.427-10.375-3.319-11.744L428.28 26l10.144-6.785.897 12.17 9.589 7.55zM515.905 35.957l-6.142 10.546-6.143-10.546-11.927-2.583 8.131-9.1-1.23-12.142 11.169 4.921 11.168-4.921-1.23 12.142 8.132 9.1zM547.117 60.874l-12.01-2.165 7.809-9.378-1.653-12.092 11.333 4.528 10.99-5.308-.805 12.178 8.444 8.811-11.83 2.998-5.77 10.753zM18.133 87.826l-12.178.805 5.308-10.99L6.734 66.31l12.092 1.652 9.379-7.809 2.165 12.01 10.325 6.507-10.754 5.77-2.997 11.831zM127.69 96.246l-7.212 9.846-5.006-11.13-11.593-3.816 9.039-8.2.046-12.204 10.592 6.061 11.622-3.727-2.492 11.947 7.135 9.901zM171 89.45l-11.168 4.921 1.23-12.142-8.132-9.1 11.928-2.583L171 60l6.142 10.546 11.928 2.583-8.131 9.1 1.229 12.142zM240.69 86.246l-7.212 9.846-5.006-11.13-11.593-3.816 9.039-8.2.046-12.204 10.592 6.061 11.622-3.727-2.492 11.947 7.135 9.901zM283.796 113.505l-10.144 6.786-.898-12.17-9.588-7.551 11.298-4.615 4.218-11.452 7.88 9.319 12.195.472-6.428 10.375 3.32 11.744zM310.796 73.505l-10.144 6.786-.898-12.17-9.588-7.551 11.298-4.615 4.218-11.452 7.88 9.319 12.195.472-6.428 10.375 3.32 11.744zM392.905 83.957l-6.142 10.546-6.143-10.546-11.927-2.583 8.131-9.1-1.23-12.142 11.169 4.921 11.168-4.921-1.23 12.142 8.132 9.1zM459.963 81.655l-12.204-.047 6.062-10.592-3.727-11.621 11.947 2.492 9.9-7.136 1.323 12.132 9.846 7.211-11.13 5.007-3.816 11.592zM515.843 100.689l-11.484 4.13 2.073-12.027-7.477-9.645 12.08-1.745 6.862-10.091 5.392 10.948 11.718 3.409-8.746 8.511.38 12.198zM585.905 104.957l-6.142 10.546-6.143-10.546-11.927-2.583 8.131-9.1-1.23-12.142 11.169 4.921 11.168-4.921-1.23 12.142 8.132 9.1zM56.133 116.826l-12.178.805 5.308-10.99-4.529-11.332 12.092 1.652 9.379-7.809 2.165 12.01 10.325 6.507-10.754 5.77-2.997 11.831zM37.385 153.09l-8.811 8.444-2.998-11.83-10.754-5.77 10.325-6.507 2.166-12.011 9.378 7.809 12.092-1.652-4.528 11.332 5.308 10.99zM92 156.45l-11.168 4.921 1.23-12.142-8.132-9.1 11.928-2.583L92 127l6.142 10.546 11.928 2.583-8.131 9.1 1.229 12.142zM139.133 138.826l-12.178.805 5.308-10.99-4.529-11.332 12.092 1.652 9.379-7.809 2.165 12.01 10.325 6.507-10.754 5.77-2.997 11.831zM193.133 130.826l-12.178.805 5.308-10.99-4.529-11.332 12.092 1.652 9.379-7.809 2.165 12.01 10.325 6.507-10.754 5.77-2.997 11.831zM200.69 171.246l-7.212 9.846-5.006-11.13-11.593-3.816 9.039-8.2.046-12.204 10.592 6.061 11.622-3.727-2.492 11.947 7.135 9.901zM260.69 153.246l-7.212 9.846-5.006-11.13-11.593-3.816 9.039-8.2.046-12.204 10.592 6.061 11.622-3.727-2.492 11.947 7.135 9.901zM293.97 153.638l-10.949-5.392 10.092-6.863 1.744-12.079 9.646 7.477 12.027-2.073-4.13 11.484 5.688 10.797-12.198-.379-8.512 8.747zM349.173 107.51l-3.41 11.718-8.51-8.746-12.198.379 5.688-10.797-4.13-11.484 12.026 2.073 9.646-7.477 1.745 12.079 10.091 6.863zM371.963 143.655l-12.204-.047 6.062-10.592-3.727-11.621 11.947 2.492 9.9-7.136 1.323 12.132 9.846 7.211-11.13 5.007-3.816 11.592zM422.963 119.655l-12.204-.047 6.062-10.592-3.727-11.621 11.947 2.492 9.9-7.136 1.323 12.132 9.846 7.211-11.13 5.007-3.816 11.592zM405.968 165.806l-9.319-7.88 11.453-4.218 4.614-11.298 7.55 9.589 12.172.897-6.786 10.144 2.907 11.853-11.744-3.32-10.374 6.428zM485.905 135.957l-6.142 10.546-6.143-10.546-11.927-2.583 8.131-9.1-1.23-12.142 11.169 4.921 11.168-4.921-1.23 12.142 8.132 9.1zM545.905 144.957l-6.142 10.546-6.143-10.546-11.927-2.583 8.131-9.1-1.23-12.142 11.169 4.921 11.168-4.921-1.23 12.142 8.132 9.1z"/></g></svg>