<svg xmlns="http://www.w3.org/2000/svg" viewBox="0 0 605 180"><title>support-alt</title><g fill-rule="evenodd"><path d="M50.464 37.053c8.608-4.97 11.559-15.98 6.589-24.589-4.97-8.608-15.98-11.558-24.589-6.588-8.608 4.97-11.558 15.98-6.588 24.588s15.98 11.559 24.588 6.589zm-1-1.732c7.653-4.419 10.275-14.204 5.857-21.857C50.902 5.811 41.117 3.19 33.464 7.608c-7.653 4.418-10.275 14.203-5.856 21.856 4.418 7.653 14.203 10.275 21.856 5.857zm-8.16-10.102c-.551-.971-.84-1.728-.863-2.27-.024-.54.156-1.341.537-2.4.231-.819.366-1.553.406-2.202.04-.65-.104-1.26-.433-1.83-.378-.655-.85-1.061-1.415-1.218-.564-.157-1.174-.046-1.83.333-.562.324-.95.754-1.164 1.289-.215.533-.15 1.102.199 1.704l-2.375 1.371-.065-.043c-.715-1.192-.853-2.365-.414-3.517.441-1.152 1.318-2.107 2.63-2.865 1.42-.82 2.739-1.096 3.951-.832 1.213.265 2.19 1.04 2.933 2.325.496.86.708 1.8.635 2.82a10.707 10.707 0 0 1-.72 3.103c-.19.56-.248 1.021-.17 1.383.079.362.287.836.627 1.425l-2.467 1.424h-.002zm4.922 2.733l-2.517 1.454-1.365-2.364 2.516-1.453 1.365 2.364h.001zM75.119 72.36c9.789 1.726 19.126-4.812 20.852-14.6 1.726-9.79-4.812-19.127-14.6-20.853-9.79-1.726-19.127 4.812-20.853 14.601-1.726 9.79 4.812 19.126 14.601 20.852zm.347-1.97c8.703 1.535 17.001-4.275 18.536-12.978 1.534-8.703-4.276-17-12.979-18.535-8.703-1.535-17 4.276-18.535 12.978-1.535 8.703 4.276 17.001 12.978 18.536zm.242-12.982c.202-1.1.468-1.864.798-2.294.33-.43.982-.927 1.954-1.493.704-.48 1.279-.955 1.727-1.427.449-.472.73-1.032.844-1.679.132-.745.03-1.36-.3-1.843-.332-.483-.87-.79-1.617-.922-.638-.112-1.213-.033-1.72.24-.507.27-.822.748-.943 1.433l-2.7-.476-.022-.075c.218-1.373.867-2.36 1.943-2.96 1.079-.6 2.364-.768 3.856-.504 1.615.284 2.803.92 3.562 1.902.759.983 1.01 2.205.752 3.666a4.828 4.828 0 0 1-1.326 2.569 10.707 10.707 0 0 1-2.546 1.914c-.506.307-.846.622-1.019.95-.172.327-.318.825-.436 1.494l-2.805-.494-.002-.001zm2.014 5.257l-2.863-.505.474-2.688 2.862.504-.474 2.689h.001zM140.464 46.053c8.608-4.97 11.559-15.98 6.589-24.589-4.97-8.608-15.98-11.558-24.589-6.588-8.608 4.97-11.558 15.98-6.588 24.588s15.98 11.559 24.588 6.589zm-1-1.732c7.653-4.419 10.275-14.204 5.857-21.857-4.419-7.653-14.204-10.275-21.857-5.856-7.653 4.418-10.275 14.203-5.856 21.856 4.418 7.653 14.203 10.275 21.856 5.857zm-8.16-10.102c-.551-.971-.84-1.728-.863-2.27-.024-.54.156-1.341.537-2.4.231-.819.366-1.553.406-2.202.04-.65-.104-1.26-.433-1.83-.378-.655-.85-1.061-1.415-1.218-.564-.157-1.174-.046-1.83.333-.562.324-.95.754-1.164 1.289-.215.533-.15 1.102.199 1.704l-2.375 1.371-.065-.043c-.715-1.192-.853-2.365-.414-3.517.441-1.152 1.318-2.107 2.63-2.865 1.42-.82 2.739-1.096 3.951-.832 1.213.265 2.19 1.04 2.933 2.325.496.86.708 1.8.635 2.82a10.707 10.707 0 0 1-.72 3.103c-.19.56-.248 1.021-.17 1.383.079.362.287.836.627 1.425l-2.467 1.424h-.002zm4.922 2.733l-2.517 1.454-1.365-2.364 2.516-1.453 1.365 2.364h.001zM192.234 52.041c9.34 3.4 19.671-1.417 23.071-10.758 3.4-9.34-1.417-19.67-10.758-23.07-9.34-3.4-19.671 1.417-23.07 10.757-3.4 9.341 1.417 19.672 10.757 23.071zm.684-1.88c8.304 3.023 17.485-1.258 20.508-9.562 3.022-8.304-1.259-17.485-9.563-20.507-8.304-3.023-17.485 1.258-20.507 9.563-3.023 8.304 1.258 17.485 9.562 20.507zm2.493-12.743c.39-1.047.784-1.754 1.184-2.12.399-.366 1.128-.743 2.184-1.131.776-.35 1.425-.718 1.948-1.106.524-.387.898-.889 1.123-1.506.259-.712.267-1.335.024-1.868-.242-.533-.72-.929-1.432-1.188-.609-.222-1.188-.243-1.735-.063-.547.178-.94.594-1.178 1.248l-2.576-.938-.01-.078c.455-1.314 1.264-2.173 2.429-2.578 1.166-.402 2.461-.345 3.885.174 1.541.56 2.6 1.393 3.177 2.492.577 1.1.612 2.346.104 3.74-.34.934-.924 1.7-1.752 2.3-.831.6-1.777 1.082-2.84 1.443-.551.214-.941.466-1.168.76-.227.291-.456.756-.689 1.395l-2.676-.974-.002-.002zm1.07 5.527l-2.731-.994.933-2.565 2.731.994-.933 2.565zM271.464 43.053c8.608-4.97 11.559-15.98 6.589-24.589-4.97-8.608-15.98-11.558-24.589-6.588-8.608 4.97-11.558 15.98-6.588 24.588s15.98 11.559 24.588 6.589zm-1-1.732c7.653-4.419 10.275-14.204 5.857-21.857-4.419-7.653-14.204-10.275-21.857-5.856-7.653 4.418-10.275 14.203-5.856 21.856 4.418 7.653 14.203 10.275 21.856 5.857zm-8.16-10.102c-.551-.971-.84-1.728-.863-2.27-.024-.54.156-1.341.537-2.4.231-.819.366-1.553.406-2.202.04-.65-.104-1.26-.433-1.83-.378-.655-.85-1.061-1.415-1.218-.564-.157-1.174-.046-1.83.333-.562.324-.95.754-1.164 1.289-.215.533-.15 1.102.199 1.704l-2.375 1.371-.065-.043c-.715-1.192-.853-2.365-.414-3.517.441-1.152 1.318-2.107 2.63-2.865 1.42-.82 2.739-1.096 3.951-.832 1.213.265 2.19 1.04 2.933 2.325.496.86.708 1.8.635 2.82a10.707 10.707 0 0 1-.72 3.103c-.19.56-.248 1.021-.17 1.383.079.362.287.836.627 1.425l-2.467 1.424h-.002zm4.922 2.733l-2.517 1.454-1.365-2.364 2.516-1.453 1.365 2.364h.001zM346.098 51.918c8.52 5.12 19.58 2.362 24.7-6.158 5.119-8.52 2.361-19.58-6.159-24.7-8.52-5.12-19.58-2.362-24.7 6.158-5.119 8.52-2.361 19.58 6.159 24.7zm1.03-1.715c7.575 4.552 17.404 2.101 21.955-5.474 4.552-7.574 2.1-17.403-5.474-21.955-7.575-4.551-17.404-2.1-21.955 5.474-4.552 7.575-2.1 17.404 5.474 21.955zm4.879-12.034c.582-.953 1.104-1.571 1.566-1.855.462-.283 1.25-.514 2.36-.694.828-.195 1.536-.432 2.123-.713a3.189 3.189 0 0 0 1.39-1.265c.39-.649.516-1.259.38-1.828-.136-.57-.53-1.05-1.179-1.44-.555-.334-1.12-.465-1.69-.393-.572.07-1.037.404-1.395 1l-2.35-1.412.005-.078c.696-1.203 1.656-1.892 2.876-2.067 1.221-.173 2.482.131 3.78.911 1.406.845 2.287 1.864 2.644 3.053.356 1.19.152 2.42-.612 3.692a4.828 4.828 0 0 1-2.159 1.923c-.93.43-1.95.722-3.063.874-.582.105-1.013.278-1.291.523-.278.243-.593.655-.943 1.238l-2.441-1.467-.001-.002zm-.004 5.63l-2.492-1.497 1.406-2.34 2.49 1.497-1.405 2.34zM441.604 47.405c6.905-7.15 6.706-18.547-.444-25.452-7.15-6.905-18.547-6.706-25.452.444-6.905 7.15-6.706 18.547.444 25.452 7.15 6.905 18.547 6.706 25.452-.444zm-1.439-1.39c6.14-6.356 5.962-16.484-.394-22.623-6.357-6.139-16.486-5.962-22.624.395-6.14 6.357-5.962 16.485.394 22.624 6.357 6.138 16.486 5.962 22.624-.395zm-10.628-7.46c-.798-.782-1.283-1.43-1.455-1.944-.172-.513-.22-1.332-.146-2.455-.003-.851-.075-1.594-.217-2.23a3.189 3.189 0 0 0-.92-1.638c-.544-.526-1.11-.786-1.695-.782-.586.005-1.142.28-1.669.825-.45.466-.705.987-.763 1.56-.06.572.16 1.1.661 1.583l-1.904 1.973-.075-.024c-1.016-.949-1.472-2.038-1.368-3.266.107-1.23.686-2.39 1.739-3.48 1.14-1.179 2.33-1.808 3.569-1.888 1.239-.08 2.392.396 3.46 1.427a4.828 4.828 0 0 1 1.388 2.536c.21 1.003.265 2.063.163 3.18-.029.592.043 1.05.218 1.377.175.325.506.724.995 1.196l-1.979 2.05h-.002zm5.485 1.27l-2.02 2.092-1.963-1.897 2.019-2.09 1.963 1.896h.001zM519.167 40.447c8.042-5.842 9.825-17.1 3.983-25.142-5.843-8.042-17.101-9.825-25.143-3.982-8.042 5.842-9.825 17.1-3.982 25.142 5.842 8.042 17.1 9.825 25.142 3.982zm-1.175-1.618c7.15-5.194 8.734-15.2 3.54-22.349-5.195-7.149-15.2-8.734-22.35-3.54-7.149 5.195-8.733 15.2-3.54 22.35 5.195 7.149 15.2 8.733 22.35 3.54zm-9.171-9.193c-.65-.908-1.016-1.63-1.096-2.167-.08-.535.015-1.35.283-2.443.144-.839.202-1.583.173-2.233a3.189 3.189 0 0 0-.62-1.774c-.446-.612-.958-.967-1.535-1.064-.578-.097-1.173.077-1.786.523-.525.38-.867.849-1.023 1.403-.158.553-.033 1.111.376 1.674l-2.218 1.612-.07-.036c-.835-1.11-1.095-2.263-.779-3.455.318-1.191 1.09-2.233 2.316-3.124 1.327-.964 2.61-1.376 3.843-1.24 1.234.137 2.287.805 3.16 2.006.583.803.892 1.716.926 2.738a10.707 10.707 0 0 1-.392 3.161c-.13.577-.14 1.041-.024 1.393.116.351.372.802.772 1.352l-2.304 1.674h-.002zM514 31.84l-2.351 1.709-1.605-2.21 2.351-1.707 1.605 2.208zM544.014 65.476c8.24 5.558 19.43 3.383 24.988-4.858 5.558-8.24 3.383-19.43-4.857-24.988s-19.43-3.383-24.988 4.857c-5.559 8.241-3.384 19.43 4.857 24.989zm1.118-1.658c7.326 4.941 17.27 3.008 22.212-4.318s3.009-17.27-4.318-22.212c-7.326-4.941-17.27-3.008-22.211 4.318-4.942 7.326-3.009 17.27 4.317 22.212zm5.502-11.763c.632-.921 1.185-1.512 1.662-1.77.475-.259 1.274-.448 2.392-.57.838-.151 1.557-.352 2.158-.601a3.189 3.189 0 0 0 1.454-1.19c.424-.628.582-1.23.475-1.806-.106-.576-.473-1.076-1.101-1.5-.538-.362-1.095-.523-1.669-.481-.574.041-1.055.35-1.445.926l-2.273-1.533.01-.078c.758-1.165 1.752-1.803 2.98-1.914 1.229-.108 2.472.261 3.728 1.108 1.36.917 2.186 1.981 2.48 3.187.293 1.206.025 2.425-.805 3.655a4.828 4.828 0 0 1-2.256 1.807c-.952.381-1.986.62-3.104.713-.587.075-1.026.225-1.318.454-.29.229-.625.624-1.006 1.188l-2.36-1.593-.002-.002zm-.299 5.622l-2.41-1.625 1.527-2.264 2.41 1.625-1.527 2.264zM16.234 93.041c9.34 3.4 19.671-1.417 23.071-10.758 3.4-9.34-1.417-19.67-10.758-23.07-9.34-3.4-19.671 1.417-23.07 10.757-3.4 9.341 1.417 19.672 10.757 23.071zm.684-1.88c8.304 3.023 17.485-1.258 20.508-9.562 3.022-8.304-1.259-17.485-9.563-20.507-8.304-3.023-17.485 1.258-20.507 9.563-3.023 8.304 1.258 17.485 9.562 20.507zm2.493-12.743c.39-1.047.784-1.754 1.184-2.12.399-.366 1.128-.743 2.184-1.131.776-.35 1.425-.718 1.948-1.106.524-.387.898-.889 1.123-1.506.259-.712.267-1.335.024-1.868-.242-.533-.72-.929-1.432-1.188-.609-.222-1.188-.243-1.735-.063-.547.178-.94.594-1.178 1.248l-2.576-.938-.01-.078c.455-1.314 1.264-2.173 2.429-2.578 1.166-.402 2.461-.345 3.885.174 1.541.56 2.6 1.393 3.177 2.492.577 1.1.612 2.346.104 3.74-.34.934-.924 1.7-1.752 2.3-.831.6-1.777 1.082-2.84 1.443-.551.214-.941.466-1.168.76-.227.291-.456.756-.689 1.395l-2.676-.974-.002-.002zm1.07 5.527l-2.731-.994.933-2.565 2.731.994-.933 2.565zM130.464 101.053c8.608-4.97 11.559-15.98 6.589-24.589-4.97-8.608-15.98-11.558-24.589-6.588-8.608 4.97-11.558 15.98-6.588 24.588s15.98 11.559 24.588 6.589zm-1-1.732c7.653-4.419 10.275-14.204 5.857-21.857-4.419-7.653-14.204-10.275-21.857-5.856-7.653 4.418-10.275 14.203-5.856 21.856 4.418 7.653 14.203 10.275 21.856 5.857zm-8.16-10.102c-.551-.971-.84-1.728-.863-2.27-.024-.54.156-1.341.537-2.4.231-.819.366-1.553.406-2.202.04-.65-.104-1.26-.433-1.83-.378-.655-.85-1.061-1.415-1.218-.564-.157-1.174-.046-1.83.333-.562.324-.95.754-1.164 1.289-.215.533-.15 1.102.199 1.704l-2.375 1.371-.065-.043c-.715-1.192-.853-2.365-.414-3.517.441-1.152 1.318-2.107 2.63-2.865 1.42-.82 2.739-1.096 3.951-.832 1.213.265 2.19 1.04 2.933 2.325.496.86.708 1.8.635 2.82a10.707 10.707 0 0 1-.72 3.103c-.19.56-.248 1.021-.17 1.383.079.362.287.836.627 1.425l-2.467 1.424h-.002zm4.922 2.733l-2.517 1.454-1.365-2.364 2.516-1.453 1.365 2.364h.001zM171 95c9.94 0 18-8.06 18-18s-8.06-18-18-18-18 8.06-18 18 8.06 18 18 18zm0-2c8.837 0 16-7.163 16-16s-7.163-16-16-16-16 7.163-16 16 7.163 16 16 16zm-2.016-12.828c.008-1.117.137-1.916.387-2.397.25-.48.806-1.084 1.665-1.81.61-.594 1.094-1.162 1.453-1.705.36-.543.54-1.143.54-1.8 0-.757-.206-1.345-.616-1.763-.41-.418-.994-.627-1.752-.627-.648 0-1.2.178-1.652.534-.453.355-.68.88-.68 1.576h-2.742l-.035-.07c-.023-1.39.444-2.475 1.4-3.253.958-.777 2.195-1.166 3.71-1.166 1.64 0 2.92.42 3.838 1.255.918.836 1.377 1.996 1.377 3.48 0 .993-.287 1.913-.86 2.76-.576.848-1.3 1.624-2.175 2.327-.445.39-.725.76-.838 1.113-.113.352-.17.867-.17 1.547h-2.848l-.002-.001zM171.88 85h-2.907v-2.73h2.906V85h.001zM243.464 91.053c8.608-4.97 11.559-15.98 6.589-24.589-4.97-8.608-15.98-11.558-24.589-6.588-8.608 4.97-11.558 15.98-6.588 24.588s15.98 11.559 24.588 6.589zm-1-1.732c7.653-4.419 10.275-14.204 5.857-21.857-4.419-7.653-14.204-10.275-21.857-5.856-7.653 4.418-10.275 14.203-5.856 21.856 4.418 7.653 14.203 10.275 21.856 5.857zm-8.16-10.102c-.551-.971-.84-1.728-.863-2.27-.024-.54.156-1.341.537-2.4.231-.819.366-1.553.406-2.202.04-.65-.104-1.26-.433-1.83-.378-.655-.85-1.061-1.415-1.218-.564-.157-1.174-.046-1.83.333-.562.324-.95.754-1.164 1.289-.215.533-.15 1.102.199 1.704l-2.375 1.371-.065-.043c-.715-1.192-.853-2.365-.414-3.517.441-1.152 1.318-2.107 2.63-2.865 1.42-.82 2.739-1.096 3.951-.832 1.213.265 2.19 1.04 2.933 2.325.496.86.708 1.8.635 2.82a10.707 10.707 0 0 1-.72 3.103c-.19.56-.248 1.021-.17 1.383.079.362.287.836.627 1.425l-2.467 1.424h-.002zm4.922 2.733l-2.517 1.454-1.365-2.364 2.516-1.453 1.365 2.364h.001zM284.76 118.971c9.788-1.726 16.326-11.063 14.6-20.852-1.726-9.789-11.063-16.327-20.852-14.6-9.789 1.725-16.327 11.062-14.6 20.851 1.725 9.79 11.063 16.327 20.851 14.601zm-.348-1.97c8.703-1.534 14.513-9.832 12.979-18.535-1.535-8.702-9.833-14.513-18.536-12.978-8.702 1.534-14.513 9.832-12.978 18.535 1.534 8.703 9.832 14.513 18.535 12.979zM280.2 104.72c-.186-1.102-.198-1.911-.035-2.428.163-.516.606-1.208 1.326-2.072.497-.69.875-1.334 1.134-1.931.26-.598.334-1.22.22-1.867-.132-.745-.437-1.289-.913-1.629-.477-.34-1.088-.445-1.834-.313-.639.112-1.151.383-1.535.813-.384.428-.516.984-.396 1.67l-2.7.476-.047-.063c-.264-1.365.008-2.515.814-3.447.809-.931 1.96-1.53 3.451-1.792 1.616-.285 2.949-.094 3.998.57 1.05.663 1.703 1.726 1.96 3.187.173.978.05 1.934-.367 2.868-.42.935-.998 1.825-1.738 2.669-.37.461-.582.874-.632 1.242-.05.366-.017.883.101 1.553l-2.805.494h-.002zm3.69 4.251l-2.862.505-.474-2.688 2.862-.505.474 2.688zM311.76 78.971c9.788-1.726 16.326-11.063 14.6-20.852-1.726-9.789-11.063-16.327-20.852-14.6-9.789 1.725-16.327 11.062-14.6 20.851 1.725 9.79 11.063 16.327 20.851 14.601zm-.348-1.97c8.703-1.534 14.513-9.832 12.979-18.535-1.535-8.702-9.833-14.513-18.536-12.978-8.702 1.534-14.513 9.832-12.978 18.535 1.534 8.703 9.832 14.513 18.535 12.979zM307.2 64.72c-.186-1.102-.198-1.911-.035-2.428.163-.516.606-1.208 1.326-2.072.497-.69.875-1.334 1.134-1.931.26-.598.334-1.22.22-1.867-.132-.745-.437-1.289-.913-1.629-.477-.34-1.088-.445-1.834-.313-.639.112-1.151.383-1.535.813-.384.428-.516.984-.396 1.67l-2.7.476-.047-.063c-.264-1.365.008-2.515.814-3.447.809-.931 1.96-1.53 3.451-1.792 1.616-.285 2.949-.094 3.998.57 1.05.663 1.703 1.726 1.96 3.187.173.978.05 1.934-.367 2.868-.42.935-.998 1.825-1.738 2.669-.37.461-.582.874-.632 1.242-.05.366-.017.883.101 1.553l-2.805.494h-.002zm3.69 4.251l-2.862.505-.474-2.688 2.862-.505.474 2.688zM396.167 88.447c8.042-5.842 9.825-17.1 3.983-25.142-5.843-8.042-17.101-9.825-25.143-3.982-8.042 5.842-9.825 17.1-3.982 25.142 5.842 8.042 17.1 9.825 25.142 3.982zm-1.175-1.618c7.15-5.194 8.734-15.2 3.54-22.349-5.195-7.149-15.2-8.734-22.35-3.54-7.149 5.195-8.733 15.2-3.54 22.35 5.195 7.149 15.2 8.733 22.35 3.54zm-9.171-9.193c-.65-.908-1.016-1.63-1.096-2.167-.08-.535.015-1.35.283-2.443.144-.839.202-1.583.173-2.233a3.189 3.189 0 0 0-.62-1.774c-.446-.612-.958-.967-1.535-1.064-.578-.097-1.173.077-1.786.523-.525.38-.867.849-1.023 1.403-.158.553-.033 1.111.376 1.674l-2.218 1.612-.07-.036c-.835-1.11-1.095-2.263-.779-3.455.318-1.191 1.09-2.233 2.316-3.124 1.327-.964 2.61-1.376 3.843-1.24 1.234.137 2.287.805 3.16 2.006.583.803.892 1.716.926 2.738a10.707 10.707 0 0 1-.392 3.161c-.13.577-.14 1.041-.024 1.393.116.351.372.802.772 1.352l-2.304 1.674h-.002zM391 79.84l-2.351 1.709-1.605-2.21 2.351-1.707 1.605 2.208zM457.706 86.725c9.08 4.043 19.722-.042 23.765-9.123 4.043-9.08-.042-19.722-9.123-23.765-9.08-4.043-19.722.042-23.765 9.123-4.043 9.08.042 19.722 9.123 23.765zm.813-1.827c8.073 3.594 17.53-.036 21.125-8.11 3.594-8.072-.036-17.53-8.109-21.124-8.073-3.594-17.53.036-21.124 8.11-3.595 8.072.035 17.53 8.108 21.124zm3.376-12.54c.462-1.016.905-1.694 1.329-2.031.423-.337 1.177-.663 2.257-.977.799-.294 1.472-.616 2.021-.966.55-.35.958-.825 1.225-1.425.308-.692.36-1.313.155-1.861-.205-.549-.653-.977-1.346-1.286-.592-.263-1.168-.325-1.726-.184-.558.14-.98.528-1.262 1.163l-2.505-1.115-.004-.078c.545-1.28 1.412-2.08 2.602-2.402 1.191-.32 2.48-.173 3.864.443 1.498.668 2.496 1.572 2.996 2.708.498 1.137.446 2.384-.158 3.74a4.828 4.828 0 0 1-1.908 2.17c-.871.541-1.848.956-2.934 1.242-.565.175-.971.4-1.218.676-.246.276-.508.723-.784 1.344l-2.602-1.158-.002-.002zm.682 5.59l-2.655-1.183 1.11-2.494 2.655 1.182-1.11 2.494zM515.456 106.225c9.915.694 18.518-6.784 19.211-16.7.694-9.916-6.784-18.518-16.7-19.212-9.916-.693-18.519 6.785-19.212 16.7-.693 9.916 6.785 18.52 16.7 19.212zm.14-1.995c8.815.617 16.46-6.03 17.076-14.845.617-8.815-6.03-16.46-14.845-17.077-8.815-.616-16.46 6.03-17.077 14.845-.616 8.816 6.03 16.46 14.845 17.077zm-1.117-12.937c.086-1.114.27-1.902.553-2.364.283-.462.88-1.025 1.787-1.69.65-.55 1.173-1.083 1.569-1.6a3.189 3.189 0 0 0 .664-1.757c.053-.755-.112-1.356-.492-1.802-.38-.445-.947-.695-1.704-.747-.646-.046-1.209.093-1.685.417-.476.323-.74.83-.788 1.525l-2.735-.192-.03-.072c.074-1.388.615-2.438 1.623-3.147 1.01-.709 2.271-1.01 3.782-.905 1.636.115 2.884.623 3.742 1.52.857.898 1.234 2.087 1.13 3.568-.069.99-.42 1.888-1.05 2.693-.634.806-1.41 1.53-2.332 2.17-.471.358-.776.707-.914 1.051-.137.344-.23.853-.277 1.532l-2.841-.199-.002-.001zm2.552 5.018l-2.9-.203.19-2.723 2.9.203-.191 2.723h.001zM589.167 109.447c8.042-5.842 9.825-17.1 3.983-25.142-5.843-8.042-17.101-9.825-25.143-3.982-8.042 5.842-9.825 17.1-3.982 25.142 5.842 8.042 17.1 9.825 25.142 3.982zm-1.175-1.618c7.15-5.194 8.734-15.2 3.54-22.349-5.195-7.149-15.2-8.734-22.35-3.54-7.149 5.195-8.733 15.2-3.54 22.35 5.195 7.149 15.2 8.733 22.35 3.54zm-9.171-9.193c-.65-.908-1.016-1.63-1.096-2.167-.08-.535.015-1.35.283-2.443.144-.839.202-1.583.173-2.233a3.189 3.189 0 0 0-.62-1.774c-.446-.612-.958-.967-1.535-1.064-.578-.097-1.173.077-1.786.523-.525.38-.867.849-1.023 1.403-.158.553-.033 1.111.376 1.674l-2.218 1.612-.07-.036c-.835-1.11-1.095-2.263-.779-3.455.318-1.191 1.09-2.233 2.316-3.124 1.327-.964 2.61-1.376 3.843-1.24 1.234.137 2.287.805 3.16 2.006.583.803.892 1.716.926 2.738a10.707 10.707 0 0 1-.392 3.161c-.13.577-.14 1.041-.024 1.393.116.351.372.802.772 1.352l-2.304 1.674h-.002zm5.18 2.204l-2.351 1.709-1.605-2.21 2.351-1.707 1.605 2.208zM54.234 122.041c9.34 3.4 19.671-1.417 23.071-10.758 3.4-9.34-1.417-19.67-10.758-23.07-9.34-3.4-19.671 1.417-23.07 10.757-3.4 9.341 1.417 19.672 10.757 23.071zm.684-1.88c8.304 3.023 17.485-1.258 20.508-9.562 3.022-8.304-1.259-17.485-9.563-20.507-8.304-3.023-17.485 1.258-20.507 9.563-3.023 8.304 1.258 17.485 9.562 20.507zm2.493-12.743c.39-1.047.784-1.754 1.184-2.12.399-.366 1.128-.743 2.184-1.131.776-.35 1.425-.718 1.948-1.106.524-.387.898-.889 1.123-1.506.259-.712.267-1.335.024-1.868-.242-.533-.72-.929-1.432-1.188-.609-.222-1.188-.243-1.735-.063-.547.178-.94.594-1.178 1.248l-2.576-.938-.01-.078c.455-1.314 1.264-2.173 2.429-2.578 1.166-.402 2.461-.345 3.885.174 1.541.56 2.6 1.393 3.177 2.492.577 1.1.612 2.346.104 3.74-.34.934-.924 1.7-1.752 2.3-.831.6-1.777 1.082-2.84 1.443-.551.214-.941.466-1.168.76-.227.291-.456.756-.689 1.395l-2.676-.974-.002-.002zm1.07 5.527l-2.731-.994.933-2.565 2.731.994-.933 2.565zM39.283 158.305c9.34-3.4 14.158-13.73 10.758-23.07-3.4-9.341-13.73-14.158-23.07-10.759-9.341 3.4-14.158 13.73-10.759 23.071 3.4 9.34 13.73 14.158 23.071 10.758zm-.684-1.88c8.304-3.022 12.585-12.203 9.563-20.507-3.022-8.304-12.203-12.585-20.507-9.562-8.305 3.022-12.586 12.203-9.563 20.507 3.022 8.304 12.203 12.585 20.507 9.563zm-6.282-11.364c-.374-1.052-.526-1.847-.456-2.385.07-.536.387-1.294.946-2.27.37-.767.63-1.466.782-2.1a3.189 3.189 0 0 0-.108-1.875c-.26-.712-.654-1.194-1.182-1.446-.528-.253-1.149-.25-1.86.01-.61.221-1.068.577-1.37 1.066-.305.489-.339 1.06-.1 1.714l-2.577.938-.057-.054c-.497-1.298-.43-2.478.203-3.536.634-1.058 1.664-1.846 3.087-2.364 1.541-.561 2.888-.604 4.036-.134 1.149.472 1.977 1.405 2.484 2.8.34.933.385 1.895.136 2.887-.251.994-.666 1.97-1.248 2.93-.285.52-.421.963-.407 1.333.015.37.137.873.37 1.512l-2.676.974h-.003zm4.373 3.546l-2.732.995-.933-2.566 2.73-.994.934 2.566zM92 162c9.94 0 18-8.06 18-18s-8.06-18-18-18-18 8.06-18 18 8.06 18 18 18zm0-2c8.837 0 16-7.163 16-16s-7.163-16-16-16-16 7.163-16 16 7.163 16 16 16zm-2.016-12.828c.008-1.117.137-1.916.387-2.397.25-.48.806-1.084 1.665-1.81.61-.594 1.094-1.162 1.453-1.705.36-.543.54-1.143.54-1.8 0-.757-.206-1.345-.616-1.763-.41-.418-.994-.627-1.752-.627-.648 0-1.2.178-1.652.534-.453.355-.68.88-.68 1.576h-2.742l-.035-.07c-.023-1.39.444-2.475 1.4-3.253.958-.777 2.195-1.166 3.71-1.166 1.64 0 2.92.42 3.838 1.255.918.836 1.377 1.996 1.377 3.48 0 .993-.287 1.913-.86 2.76-.576.848-1.3 1.624-2.175 2.327-.445.39-.725.76-.838 1.113-.113.352-.17.867-.17 1.547h-2.848l-.002-.001zM92.88 152h-2.907v-2.73h2.906V152h.001zM137.234 144.041c9.34 3.4 19.671-1.417 23.071-10.758 3.4-9.34-1.417-19.67-10.758-23.07-9.34-3.4-19.671 1.417-23.07 10.757-3.4 9.341 1.417 19.672 10.757 23.071zm.684-1.88c8.304 3.023 17.485-1.258 20.508-9.562 3.022-8.304-1.259-17.485-9.563-20.507-8.304-3.023-17.485 1.258-20.507 9.563-3.023 8.304 1.258 17.485 9.562 20.507zm2.493-12.743c.39-1.047.784-1.754 1.184-2.12.399-.366 1.128-.743 2.184-1.131.776-.35 1.425-.718 1.948-1.106.524-.387.898-.889 1.123-1.506.259-.712.267-1.335.024-1.868-.242-.533-.72-.929-1.432-1.188-.609-.222-1.188-.243-1.735-.063-.547.178-.94.594-1.178 1.248l-2.576-.938-.01-.078c.455-1.314 1.264-2.173 2.429-2.578 1.166-.402 2.461-.345 3.885.174 1.541.56 2.6 1.393 3.177 2.492.577 1.1.612 2.346.104 3.74-.34.934-.924 1.7-1.752 2.3-.831.6-1.777 1.082-2.84 1.443-.551.214-.941.466-1.168.76-.227.291-.456.756-.689 1.395l-2.676-.974-.002-.002zm1.07 5.527l-2.731-.994.933-2.565 2.731.994-.933 2.565zM191.234 136.041c9.34 3.4 19.671-1.417 23.071-10.758 3.4-9.34-1.417-19.67-10.758-23.07-9.34-3.4-19.671 1.417-23.07 10.757-3.4 9.341 1.417 19.672 10.757 23.071zm.684-1.88c8.304 3.023 17.485-1.258 20.508-9.562 3.022-8.304-1.259-17.485-9.563-20.507-8.304-3.023-17.485 1.258-20.507 9.563-3.023 8.304 1.258 17.485 9.562 20.507zm2.493-12.743c.39-1.047.784-1.754 1.184-2.12.399-.366 1.128-.743 2.184-1.131.776-.35 1.425-.718 1.948-1.106.524-.387.898-.889 1.123-1.506.259-.712.267-1.335.024-1.868-.242-.533-.72-.929-1.432-1.188-.609-.222-1.188-.243-1.735-.063-.547.178-.94.594-1.178 1.248l-2.576-.938-.01-.078c.455-1.314 1.264-2.173 2.429-2.578 1.166-.402 2.461-.345 3.885.174 1.541.56 2.6 1.393 3.177 2.492.577 1.1.612 2.346.104 3.74-.34.934-.924 1.7-1.752 2.3-.831.6-1.777 1.082-2.84 1.443-.551.214-.941.466-1.168.76-.227.291-.456.756-.689 1.395l-2.676-.974-.002-.002zm1.07 5.527l-2.731-.994.933-2.565 2.731.994-.933 2.565zM203.464 176.053c8.608-4.97 11.559-15.98 6.589-24.589-4.97-8.608-15.98-11.558-24.589-6.588-8.608 4.97-11.558 15.98-6.588 24.588s15.98 11.559 24.588 6.589zm-1-1.732c7.653-4.419 10.275-14.204 5.857-21.857-4.419-7.653-14.204-10.275-21.857-5.856-7.653 4.418-10.275 14.203-5.856 21.856 4.418 7.653 14.203 10.275 21.856 5.857zm-8.16-10.102c-.551-.971-.84-1.728-.863-2.27-.024-.54.156-1.341.537-2.4.231-.819.366-1.553.406-2.202.04-.65-.104-1.26-.433-1.83-.378-.655-.85-1.061-1.415-1.218-.564-.157-1.174-.046-1.83.333-.562.324-.95.754-1.164 1.289-.215.533-.15 1.102.199 1.704l-2.375 1.371-.065-.043c-.715-1.192-.853-2.365-.414-3.517.441-1.152 1.318-2.107 2.63-2.865 1.42-.82 2.739-1.096 3.951-.832 1.213.265 2.19 1.04 2.933 2.325.496.86.708 1.8.635 2.82a10.707 10.707 0 0 1-.72 3.103c-.19.56-.248 1.021-.17 1.383.079.362.287.836.627 1.425l-2.467 1.424h-.002zm4.922 2.733l-2.517 1.454-1.365-2.364 2.516-1.453 1.365 2.364h.001zM263.464 158.053c8.608-4.97 11.559-15.98 6.589-24.589-4.97-8.608-15.98-11.558-24.589-6.588-8.608 4.97-11.558 15.98-6.588 24.588s15.98 11.559 24.588 6.589zm-1-1.732c7.653-4.419 10.275-14.204 5.857-21.857-4.419-7.653-14.204-10.275-21.857-5.856-7.653 4.418-10.275 14.203-5.856 21.856 4.418 7.653 14.203 10.275 21.856 5.857zm-8.16-10.102c-.551-.971-.84-1.728-.863-2.27-.024-.54.156-1.341.537-2.4.231-.819.366-1.553.406-2.202.04-.65-.104-1.26-.433-1.83-.378-.655-.85-1.061-1.415-1.218-.564-.157-1.174-.046-1.83.333-.562.324-.95.754-1.164 1.289-.215.533-.15 1.102.199 1.704l-2.375 1.371-.065-.043c-.715-1.192-.853-2.365-.414-3.517.441-1.152 1.318-2.107 2.63-2.865 1.42-.82 2.739-1.096 3.951-.832 1.213.265 2.19 1.04 2.933 2.325.496.86.708 1.8.635 2.82a10.707 10.707 0 0 1-.72 3.103c-.19.56-.248 1.021-.17 1.383.079.362.287.836.627 1.425l-2.467 1.424h-.002zm4.922 2.733l-2.517 1.454-1.365-2.364 2.516-1.453 1.365 2.364h.001zM289.718 157.206c6.39 7.614 17.745 8.607 25.36 2.218 7.614-6.39 8.607-17.744 2.218-25.359-6.39-7.614-17.745-8.608-25.36-2.218-7.614 6.389-8.607 17.744-2.218 25.359zm1.532-1.286c5.68 6.77 15.772 7.652 22.542 1.972 6.77-5.68 7.652-15.772 1.972-22.541-5.68-6.77-15.772-7.653-22.542-1.972-6.77 5.68-7.652 15.771-1.972 22.54zm8.531-9.79c.861-.712 1.556-1.127 2.085-1.244.529-.117 1.349-.08 2.457.112.847.085 1.593.09 2.24.017a3.189 3.189 0 0 0 1.726-.744c.58-.486.898-1.022.955-1.605.056-.583-.159-1.164-.646-1.745-.417-.496-.908-.805-1.471-.922-.563-.119-1.111.045-1.645.492l-1.762-2.1.031-.072c1.05-.911 2.181-1.251 3.392-1.019 1.21.235 2.304.932 3.278 2.093 1.054 1.256 1.555 2.507 1.505 3.746-.05 1.241-.643 2.338-1.78 3.292a4.828 4.828 0 0 1-2.667 1.116c-1.02.103-2.08.048-3.181-.17-.585-.091-1.048-.068-1.391.073-.343.14-.774.427-1.295.864l-1.83-2.182v-.002zm-1.837 5.322l-1.868-2.227 2.091-1.755 1.868 2.226-2.091 1.755zM353.424 111.077c6.39-7.614 5.396-18.97-2.218-25.359-7.615-6.39-18.97-5.396-25.36 2.219-6.389 7.614-5.395 18.97 2.22 25.359 7.614 6.39 18.969 5.396 25.358-2.219zm-1.532-1.285c5.68-6.77 4.797-16.861-1.972-22.542-6.77-5.68-16.861-4.797-22.541 1.972-5.68 6.77-4.798 16.861 1.972 22.542 6.77 5.68 16.86 4.797 22.541-1.972zm-11.123-6.702c-.85-.724-1.38-1.336-1.587-1.837-.207-.5-.312-1.314-.316-2.439-.063-.849-.187-1.585-.373-2.209a3.189 3.189 0 0 0-1.031-1.57c-.58-.487-1.163-.707-1.747-.662-.584.045-1.119.358-1.606.94-.417.496-.635 1.033-.653 1.608-.02.575.237 1.086.77 1.534l-1.762 2.1-.077-.018c-1.08-.876-1.61-1.93-1.592-3.163.021-1.234.518-2.431 1.492-3.592 1.054-1.256 2.199-1.967 3.428-2.133 1.23-.166 2.415.228 3.551 1.182a4.828 4.828 0 0 1 1.562 2.433c.28.986.408 2.04.384 3.162.013.591.116 1.044.314 1.357.197.313.555.688 1.076 1.125l-1.83 2.181-.003.001zm5.56.885l-1.868 2.227-2.092-1.755 1.868-2.226 2.092 1.755zM369.706 148.725c9.08 4.043 19.722-.042 23.765-9.123 4.043-9.08-.042-19.722-9.123-23.765-9.08-4.043-19.722.042-23.765 9.123-4.043 9.08.042 19.722 9.123 23.765zm.813-1.827c8.073 3.594 17.53-.036 21.125-8.11 3.594-8.072-.036-17.53-8.109-21.124-8.073-3.594-17.53.036-21.124 8.11-3.595 8.072.035 17.53 8.108 21.124zm3.376-12.54c.462-1.016.905-1.694 1.329-2.031.423-.337 1.177-.663 2.257-.977.799-.294 1.472-.616 2.021-.966.55-.35.958-.825 1.225-1.425.308-.692.36-1.313.155-1.861-.205-.549-.653-.977-1.346-1.286-.592-.263-1.168-.325-1.726-.184-.558.14-.98.528-1.262 1.163l-2.505-1.115-.004-.078c.545-1.28 1.412-2.08 2.602-2.402 1.191-.32 2.48-.173 3.864.443 1.498.668 2.496 1.572 2.996 2.708.498 1.137.446 2.384-.158 3.74a4.828 4.828 0 0 1-1.908 2.17c-.871.541-1.848.956-2.934 1.242-.565.175-.971.4-1.218.676-.246.276-.508.723-.784 1.344l-2.602-1.158-.002-.002zm.682 5.59l-2.655-1.183 1.11-2.494 2.655 1.182-1.11 2.494zM420.706 124.725c9.08 4.043 19.722-.042 23.765-9.123 4.043-9.08-.042-19.722-9.123-23.765-9.08-4.043-19.722.042-23.765 9.123-4.043 9.08.042 19.722 9.123 23.765zm.813-1.827c8.073 3.594 17.53-.036 21.125-8.11 3.594-8.072-.036-17.53-8.109-21.124-8.073-3.594-17.53.036-21.124 8.11-3.595 8.072.035 17.53 8.108 21.124zm3.376-12.54c.462-1.016.905-1.694 1.329-2.031.423-.337 1.177-.663 2.257-.977.799-.294 1.472-.616 2.021-.966.55-.35.958-.825 1.225-1.425.308-.692.36-1.313.155-1.861-.205-.549-.653-.977-1.346-1.286-.592-.263-1.168-.325-1.726-.184-.558.14-.98.528-1.262 1.163l-2.505-1.115-.004-.078c.545-1.28 1.412-2.08 2.602-2.402 1.191-.32 2.48-.173 3.864.443 1.498.668 2.496 1.572 2.996 2.708.498 1.137.446 2.384-.158 3.74a4.828 4.828 0 0 1-1.908 2.17c-.871.541-1.848.956-2.934 1.242-.565.175-.971.4-1.218.676-.246.276-.508.723-.784 1.344l-2.602-1.158-.002-.002zm.682 5.59l-2.655-1.183 1.11-2.494 2.655 1.182-1.11 2.494zM400.98 168.24c4.357 8.933 15.135 12.644 24.069 8.287 8.934-4.357 12.645-15.135 8.288-24.069-4.358-8.934-15.135-12.645-24.07-8.288-8.933 4.358-12.644 15.135-8.287 24.07zm1.798-.877c3.873 7.942 13.452 11.24 21.394 7.366 7.943-3.874 11.24-13.452 7.367-21.394-3.874-7.943-13.452-11.24-21.395-7.367-7.942 3.874-11.24 13.452-7.366 21.395zm10.646-7.436c1.007-.482 1.782-.717 2.324-.703.54.015 1.327.25 2.356.703.802.288 1.524.474 2.17.559a3.189 3.189 0 0 0 1.854-.304c.68-.332 1.119-.775 1.315-1.326.196-.552.128-1.169-.205-1.85-.284-.582-.686-1-1.204-1.25-.517-.252-1.089-.226-1.714.079l-1.202-2.464.047-.063c1.24-.63 2.42-.686 3.538-.167 1.118.52 2.01 1.461 2.674 2.823.719 1.474.903 2.809.554 4-.348 1.191-1.19 2.112-2.524 2.763a4.828 4.828 0 0 1-2.857.437 10.707 10.707 0 0 1-3.045-.935c-.546-.229-1.001-.318-1.368-.265-.366.053-.854.227-1.465.525l-1.248-2.56v-.002zm-3.07 4.72l-1.275-2.613 2.454-1.197 1.274 2.612-2.454 1.197zM489.167 140.447c8.042-5.842 9.825-17.1 3.983-25.142-5.843-8.042-17.101-9.825-25.143-3.982-8.042 5.842-9.825 17.1-3.982 25.142 5.842 8.042 17.1 9.825 25.142 3.982zm-1.175-1.618c7.15-5.194 8.734-15.2 3.54-22.349-5.195-7.149-15.2-8.734-22.35-3.54-7.149 5.195-8.733 15.2-3.54 22.35 5.195 7.149 15.2 8.733 22.35 3.54zm-9.171-9.193c-.65-.908-1.016-1.63-1.096-2.167-.08-.535.015-1.35.283-2.443.144-.839.202-1.583.173-2.233a3.189 3.189 0 0 0-.62-1.774c-.446-.612-.958-.967-1.535-1.064-.578-.097-1.173.077-1.786.523-.525.38-.867.849-1.023 1.403-.158.553-.033 1.111.376 1.674l-2.218 1.612-.07-.036c-.835-1.11-1.095-2.263-.779-3.455.318-1.191 1.09-2.233 2.316-3.124 1.327-.964 2.61-1.376 3.843-1.24 1.234.137 2.287.805 3.16 2.006.583.803.892 1.716.926 2.738a10.707 10.707 0 0 1-.392 3.161c-.13.577-.14 1.041-.024 1.393.116.351.372.802.772 1.352l-2.304 1.674h-.002zm5.18 2.204l-2.351 1.709-1.605-2.21 2.351-1.707 1.605 2.208zM549.167 149.447c8.042-5.842 9.825-17.1 3.983-25.142-5.843-8.042-17.101-9.825-25.143-3.982-8.042 5.842-9.825 17.1-3.982 25.142 5.842 8.042 17.1 9.825 25.142 3.982zm-1.175-1.618c7.15-5.194 8.734-15.2 3.54-22.349-5.195-7.149-15.2-8.734-22.35-3.54-7.149 5.195-8.733 15.2-3.54 22.35 5.195 7.149 15.2 8.733 22.35 3.54zm-9.171-9.193c-.65-.908-1.016-1.63-1.096-2.167-.08-.535.015-1.35.283-2.443.144-.839.202-1.583.173-2.233a3.189 3.189 0 0 0-.62-1.774c-.446-.612-.958-.967-1.535-1.064-.578-.097-1.173.077-1.786.523-.525.38-.867.849-1.023 1.403-.158.553-.033 1.111.376 1.674l-2.218 1.612-.07-.036c-.835-1.11-1.095-2.263-.779-3.455.318-1.191 1.09-2.233 2.316-3.124 1.327-.964 2.61-1.376 3.843-1.24 1.234.137 2.287.805 3.16 2.006.583.803.892 1.716.926 2.738a10.707 10.707 0 0 1-.392 3.161c-.13.577-.14 1.041-.024 1.393.116.351.372.802.772 1.352l-2.304 1.674h-.002zm5.18 2.204l-2.351 1.709-1.605-2.21 2.351-1.707 1.605 2.208z"/></g></svg>