<svg xmlns="http://www.w3.org/2000/svg" xmlns:xlink="http://www.w3.org/1999/xlink" viewBox="0 0 605 180"><title>terminal-alt</title><defs><circle id="a" cx="18" cy="18" r="18"/><path d="M35.296 13a17.942 17.942 0 0 0-3.047-6H11.485A3.482 3.482 0 0 0 8 10.48V32.97c.639.428 1.307.815 2 1.16V13h25.296zM32.25 7C28.957 2.742 23.799 0 18 0 8.059 0 0 8.059 0 18c0 6.24 3.176 11.74 8 14.969v1.55C8 36.441 9.56 38 11.485 38h29.03A3.482 3.482 0 0 0 44 34.52V10.48C44 8.56 42.44 7 40.515 7H32.25zm3.047 6A18.01 18.01 0 0 1 36 18c0 9.941-8.059 18-18 18-2.874 0-5.59-.673-8-1.871v.715A1.16 1.16 0 0 0 11.158 36h29.684c.63 0 1.158-.518 1.158-1.156V13h-6.704zM10 10c0-.552.444-1 1-1 .552 0 1 .444 1 1 0 .552-.444 1-1 1-.552 0-1-.444-1-1zm4 0c0-.552.444-1 1-1 .552 0 1 .444 1 1 0 .552-.444 1-1 1-.552 0-1-.444-1-1zm4 0c0-.552.444-1 1-1 .552 0 1 .444 1 1 0 .552-.444 1-1 1-.552 0-1-.444-1-1zm-4.8 5l1.455 1.455-.734.733-1.454-1.455L13.2 15zm1.455 1.455l.727.727-2.2 2.2-.727-.727 2.2-2.2z" id="c"/></defs><g fill-rule="evenodd"><g transform="rotate(-30 36.196 -24.053)"><mask id="b"><use xlink:href="#a"/></mask><g mask="url(#b)"><use xlink:href="#c"/></g></g><g mask="url(#b)" transform="rotate(10 -161.24 380.617)"><use xlink:href="#c"/></g><g mask="url(#b)" transform="rotate(-30 97.99 -187.495)"><use xlink:href="#c"/></g><g mask="url(#b)" transform="rotate(20 59.63 538.087)"><use xlink:href="#c"/></g><g mask="url(#b)" transform="rotate(-30 157.892 -433.444)"><use xlink:href="#c"/></g><g mask="url(#b)" transform="rotate(31 153.35 635.5)"><use xlink:href="#c"/></g><g mask="url(#b)" transform="rotate(-46 243.236 -457.272)"><use xlink:href="#c"/></g><g mask="url(#b)" transform="rotate(-36 275.427 -732.994)"><use xlink:href="#c"/></g><g mask="url(#b)" transform="rotate(34 232.802 910.995)"><use xlink:href="#c"/></g><g mask="url(#b)" transform="rotate(20 -144.632 59.514)"><use xlink:href="#c"/></g><g mask="url(#b)" transform="rotate(-30 195.622 -141.335)"><use xlink:href="#c"/></g><g mask="url(#b)" transform="translate(153 59)"><use xlink:href="#c"/></g><g mask="url(#b)" transform="rotate(-30 233.462 -357.195)"><use xlink:href="#c"/></g><g mask="url(#b)" transform="rotate(-10 625.562 -1447.052)"><use xlink:href="#c"/></g><g mask="url(#b)" transform="rotate(-10 410.461 -1621.358)"><use xlink:href="#c"/></g><g mask="url(#b)" transform="rotate(-36 287.792 -519.716)"><use xlink:href="#c"/></g><g mask="url(#b)" transform="rotate(24 118.532 1095.69)"><use xlink:href="#c"/></g><g><g mask="url(#b)" transform="rotate(4 -738.769 7193.745)"><use xlink:href="#c"/></g></g><g><g mask="url(#b)" transform="rotate(-36 416.607 -806.213)"><use xlink:href="#c"/></g></g><g><g mask="url(#b)" transform="rotate(20 -207.865 181.768)"><use xlink:href="#c"/></g></g><g><g mask="url(#b)" transform="rotate(-20 375.455 36.801)"><use xlink:href="#c"/></g></g><g><g mask="url(#b)" transform="translate(74 126)"><use xlink:href="#c"/></g></g><g><g mask="url(#b)" transform="rotate(20 -228.75 428.126)"><use xlink:href="#c"/></g></g><g><g mask="url(#b)" transform="rotate(20 -179.064 577.251)"><use xlink:href="#c"/></g></g><g><g mask="url(#b)" transform="rotate(-30 372.074 -240.054)"><use xlink:href="#c"/></g></g><g><g mask="url(#b)" transform="rotate(-30 368.485 -361.016)"><use xlink:href="#c"/></g></g><g><g mask="url(#b)" transform="rotate(50 23.896 387.954)"><use xlink:href="#c"/></g></g><g><g mask="url(#b)" transform="rotate(-50 266.214 -286.121)"><use xlink:href="#c"/></g></g><g><g mask="url(#b)" transform="rotate(24 -71.312 919.686)"><use xlink:href="#c"/></g></g><g><g mask="url(#b)" transform="rotate(24 10.644 1027.654)"><use xlink:href="#c"/></g></g><g><g mask="url(#b)" transform="rotate(64 103.676 408.568)"><use xlink:href="#c"/></g></g><g><g mask="url(#b)" transform="rotate(-36 414.311 -636.828)"><use xlink:href="#c"/></g></g><g><g mask="url(#b)" transform="rotate(-36 458.161 -724.659)"><use xlink:href="#c"/></g></g></g></svg>