<svg xmlns="http://www.w3.org/2000/svg" viewBox="0 0 605 180"><title>terminal</title><g fill-rule="evenodd"><path d="M20.116 20.488a3.482 3.482 0 0 1 1.277-4.757L46.535 1.216a3.483 3.483 0 0 1 4.758 1.272l12.02 20.818a3.482 3.482 0 0 1-1.278 4.757L36.893 42.578a3.483 3.483 0 0 1-4.758-1.272L20.116 20.488zm2.992 1.182l27.713-16 10.921 18.917c.32.553.12 1.266-.424 1.58L35.61 41.01a1.16 1.16 0 0 1-1.58-.423L23.108 21.67zm-1.5-2.598a.998.998 0 0 1 .366-1.366.998.998 0 0 1 1.366.366.998.998 0 0 1-.366 1.366.998.998 0 0 1-1.366-.366zm3.464-2a.998.998 0 0 1 .366-1.366.998.998 0 0 1 1.366.366.998.998 0 0 1-.366 1.366.998.998 0 0 1-1.366-.366zm3.464-2a.998.998 0 0 1 .366-1.366.998.998 0 0 1 1.366.366.998.998 0 0 1-.366 1.366.998.998 0 0 1-1.366-.366z"/><path d="M26.879 21.802l1.987.532-.268 1.002-1.988-.532.269-1.002zm1.987.532l.993.267-.805 3.005-.993-.266.805-3.006zM62.518 40.164a3.482 3.482 0 0 1 4.036-2.823l28.59 5.041a3.483 3.483 0 0 1 2.827 4.033l-4.174 23.673a3.482 3.482 0 0 1-4.036 2.823l-28.59-5.04a3.483 3.483 0 0 1-2.827-4.034l4.174-23.673zm1.533 2.828l31.513 5.557-3.793 21.512a1.164 1.164 0 0 1-1.34.937l-29.234-5.154a1.16 1.16 0 0 1-.94-1.34l3.794-21.512zm.52-2.954a.998.998 0 0 1 1.159-.811c.544.096.908.61.811 1.158a.998.998 0 0 1-1.158.811.998.998 0 0 1-.812-1.158zm3.94.694a.998.998 0 0 1 1.158-.81c.544.095.908.61.811 1.158a.998.998 0 0 1-1.158.81.998.998 0 0 1-.811-1.158zm3.939.695a.998.998 0 0 1 1.158-.811c.544.096.908.61.812 1.158a.998.998 0 0 1-1.159.811.998.998 0 0 1-.811-1.158z"/><path d="M66.855 45.517l1.18 1.686-.85.594-1.18-1.685.85-.595zm1.18 1.686l.59.842-2.55 1.785-.589-.843 2.548-1.784zM110.116 29.488a3.482 3.482 0 0 1 1.277-4.757l25.142-14.515a3.483 3.483 0 0 1 4.758 1.272l12.02 20.818a3.482 3.482 0 0 1-1.278 4.757l-25.142 14.515a3.483 3.483 0 0 1-4.758-1.272l-12.019-20.818zm2.992 1.182l27.713-16 10.921 18.917c.32.553.12 1.266-.424 1.58L125.61 50.01a1.16 1.16 0 0 1-1.58-.423L113.108 30.67zm-1.5-2.598a.998.998 0 0 1 .366-1.366.998.998 0 0 1 1.366.366.998.998 0 0 1-.366 1.366.998.998 0 0 1-1.366-.366zm3.464-2a.998.998 0 0 1 .366-1.366.998.998 0 0 1 1.366.366.998.998 0 0 1-.366 1.366.998.998 0 0 1-1.366-.366zm3.464-2a.998.998 0 0 1 .366-1.366.998.998 0 0 1 1.366.366.998.998 0 0 1-.366 1.366.998.998 0 0 1-1.366-.366z"/><path d="M116.879 30.802l1.987.532-.268 1.002-1.988-.532.269-1.002zm1.987.532l.993.267-.805 3.005-.993-.266.805-3.006zM185.416 18.146a3.482 3.482 0 0 1 4.465-2.08l27.28 9.93a3.483 3.483 0 0 1 2.084 4.463l-8.222 22.588a3.482 3.482 0 0 1-4.465 2.08l-27.28-9.93a3.483 3.483 0 0 1-2.084-4.462l8.222-22.589zm1.018 3.051l30.07 10.945-7.471 20.526c-.218.6-.892.906-1.483.69l-27.895-10.152a1.16 1.16 0 0 1-.692-1.482l7.47-20.527zm1.026-2.819a.998.998 0 0 1 1.282-.597c.519.188.787.759.597 1.281a.998.998 0 0 1-1.281.598.998.998 0 0 1-.598-1.282zm3.759 1.368a.998.998 0 0 1 1.281-.597c.52.189.788.759.598 1.281a.998.998 0 0 1-1.282.598.998.998 0 0 1-.597-1.282zm3.758 1.368a.998.998 0 0 1 1.282-.597c.52.189.788.759.598 1.281a.998.998 0 0 1-1.282.598.998.998 0 0 1-.598-1.282z"/><path d="M188.757 24.171l.869 1.865-.94.438-.87-1.865.94-.438zm.869 1.865l.435.932-2.82 1.315-.435-.933 2.82-1.314zM241.116 26.488a3.482 3.482 0 0 1 1.277-4.757l25.142-14.515a3.483 3.483 0 0 1 4.758 1.272l12.02 20.818a3.482 3.482 0 0 1-1.278 4.757l-25.142 14.515a3.483 3.483 0 0 1-4.758-1.272l-12.019-20.818zm2.992 1.182l27.713-16 10.921 18.917c.32.553.12 1.266-.424 1.58L256.61 47.01a1.16 1.16 0 0 1-1.58-.423L244.108 27.67zm-1.5-2.598a.998.998 0 0 1 .366-1.366.998.998 0 0 1 1.366.366.998.998 0 0 1-.366 1.366.998.998 0 0 1-1.366-.366zm3.464-2a.998.998 0 0 1 .366-1.366.998.998 0 0 1 1.366.366.998.998 0 0 1-.366 1.366.998.998 0 0 1-1.366-.366zm3.464-2a.998.998 0 0 1 .366-1.366.998.998 0 0 1 1.366.366.998.998 0 0 1-.366 1.366.998.998 0 0 1-1.366-.366z"/><path d="M247.879 27.802l1.987.532-.268 1.002-1.988-.532.269-1.002zm1.987.532l.993.267-.805 3.005-.993-.266.805-3.006zM345.872 17.344a3.482 3.482 0 0 1 4.78-1.189l24.884 14.952a3.483 3.483 0 0 1 1.194 4.779L364.35 56.49a3.482 3.482 0 0 1-4.78 1.189l-24.884-14.953a3.483 3.483 0 0 1-1.194-4.778l12.38-20.605zm.417 3.19l27.43 16.48-11.25 18.725a1.164 1.164 0 0 1-1.589.394l-25.444-15.288a1.16 1.16 0 0 1-.397-1.588l11.25-18.723zm1.545-2.572a.998.998 0 0 1 1.373-.342.998.998 0 0 1 .342 1.372.998.998 0 0 1-1.373.342.998.998 0 0 1-.342-1.372zm3.429 2.06a.998.998 0 0 1 1.372-.342.998.998 0 0 1 .342 1.372.998.998 0 0 1-1.372.343.998.998 0 0 1-.342-1.373zm3.429 2.06a.998.998 0 0 1 1.372-.342.998.998 0 0 1 .342 1.373.998.998 0 0 1-1.372.342.998.998 0 0 1-.342-1.372z"/><path d="M348.002 23.896l.498 1.996-1.007.251-.497-1.996 1.006-.25zm.498 1.996l.248.998-3.018.753-.25-.998 3.02-.753zM407.866 39.848a3.482 3.482 0 0 1-.083-4.925l20.166-20.883a3.483 3.483 0 0 1 4.925-.089l17.291 16.699a3.482 3.482 0 0 1 .084 4.924l-20.167 20.883a3.483 3.483 0 0 1-4.924.089l-17.292-16.698zm3.201.31l22.23-23.018 15.712 15.174c.46.443.465 1.183.028 1.636l-20.62 21.353a1.16 1.16 0 0 1-1.637.03l-15.713-15.174zm-2.158-2.083a.998.998 0 0 1-.024-1.414.998.998 0 0 1 1.414-.025.998.998 0 0 1 .024 1.414.998.998 0 0 1-1.414.025zm2.779-2.878a.998.998 0 0 1-.025-1.414.998.998 0 0 1 1.414-.024.998.998 0 0 1 .025 1.414.998.998 0 0 1-1.414.024zm2.779-2.877a.998.998 0 0 1-.025-1.414.998.998 0 0 1 1.414-.025.998.998 0 0 1 .025 1.414.998.998 0 0 1-1.414.025z"/><path d="M414.729 39.246l2.057-.036.018 1.037-2.057.036-.018-1.037zm2.057-.036l1.028-.018.054 3.111-1.028.018-.054-3.11zM487.254 27.146a3.482 3.482 0 0 1 .773-4.864l23.487-17.064a3.483 3.483 0 0 1 4.865.768l14.13 19.447a3.482 3.482 0 0 1-.774 4.864l-23.486 17.064a3.483 3.483 0 0 1-4.866-.768l-14.129-19.447zm3.099.862L516.24 9.2l12.84 17.672a1.164 1.164 0 0 1-.257 1.616l-24.015 17.448a1.16 1.16 0 0 1-1.617-.255l-12.84-17.672zm-1.763-2.427a.998.998 0 0 1 .22-1.397.998.998 0 0 1 1.398.222.998.998 0 0 1-.222 1.397.998.998 0 0 1-1.396-.222zm3.236-2.35a.998.998 0 0 1 .22-1.398.998.998 0 0 1 1.398.222.998.998 0 0 1-.222 1.396.998.998 0 0 1-1.396-.22zm3.236-2.352a.998.998 0 0 1 .22-1.397.998.998 0 0 1 1.398.221.998.998 0 0 1-.222 1.397.998.998 0 0 1-1.396-.221z"/><path d="M494.117 27.746l2.032.321-.162 1.025-2.032-.322.162-1.024zm2.032.321l1.016.161-.487 3.073-1.016-.16.487-3.074zM545.598 30.938a3.482 3.482 0 0 1 4.835-.938l24.068 16.234a3.483 3.483 0 0 1 .942 4.835l-13.442 19.928a3.482 3.482 0 0 1-4.835.937l-24.068-16.233a3.483 3.483 0 0 1-.942-4.835l13.442-19.928zm.25 3.206l26.529 17.895-12.215 18.109a1.164 1.164 0 0 1-1.607.311l-24.61-16.6a1.16 1.16 0 0 1-.312-1.605l12.215-18.11zm1.677-2.487a.998.998 0 0 1 1.388-.27c.458.31.581.928.27 1.389a.998.998 0 0 1-1.388.27.998.998 0 0 1-.27-1.389zm3.316 2.237a.998.998 0 0 1 1.388-.27c.458.31.581.927.27 1.389a.998.998 0 0 1-1.388.27.998.998 0 0 1-.27-1.389zm3.316 2.237a.998.998 0 0 1 1.389-.27c.457.309.58.927.27 1.388a.998.998 0 0 1-1.389.27.998.998 0 0 1-.27-1.388z"/><path d="M547.382 37.592l.392 2.02-1.018.197-.392-2.02 1.018-.197zm.392 2.02l.197 1.009-3.054.594-.196-1.01 3.053-.594zM9.416 59.146a3.482 3.482 0 0 1 4.465-2.08l27.28 9.93a3.483 3.483 0 0 1 2.084 4.463l-8.222 22.588a3.482 3.482 0 0 1-4.465 2.08l-27.28-9.93a3.483 3.483 0 0 1-2.084-4.462l8.222-22.589zm1.018 3.051l30.07 10.945-7.471 20.526c-.218.6-.892.906-1.483.69L3.655 84.207a1.16 1.16 0 0 1-.692-1.482l7.47-20.527zm1.026-2.819a.998.998 0 0 1 1.282-.597c.519.188.787.759.597 1.281a.998.998 0 0 1-1.281.598.998.998 0 0 1-.598-1.282zm3.759 1.368a.998.998 0 0 1 1.281-.597c.52.189.788.759.598 1.281a.998.998 0 0 1-1.282.598.998.998 0 0 1-.597-1.282zm3.758 1.368a.998.998 0 0 1 1.282-.597c.52.189.788.759.598 1.281a.998.998 0 0 1-1.282.598.998.998 0 0 1-.598-1.282z"/><path d="M12.757 65.171l.869 1.865-.94.438-.87-1.865.94-.438zm.869 1.865l.435.932-2.82 1.315-.435-.933 2.82-1.314zM100.116 84.488a3.482 3.482 0 0 1 1.277-4.757l25.142-14.515a3.483 3.483 0 0 1 4.758 1.272l12.02 20.818a3.482 3.482 0 0 1-1.278 4.757l-25.142 14.515a3.483 3.483 0 0 1-4.758-1.272l-12.019-20.818zm2.992 1.182l27.713-16 10.921 18.917c.32.553.12 1.266-.424 1.58L115.61 105.01a1.16 1.16 0 0 1-1.58-.423L103.108 85.67zm-1.5-2.598a.998.998 0 0 1 .366-1.366.998.998 0 0 1 1.366.366.998.998 0 0 1-.366 1.366.998.998 0 0 1-1.366-.366zm3.464-2a.998.998 0 0 1 .366-1.366.998.998 0 0 1 1.366.366.998.998 0 0 1-.366 1.366.998.998 0 0 1-1.366-.366zm3.464-2a.998.998 0 0 1 .366-1.366.998.998 0 0 1 1.366.366.998.998 0 0 1-.366 1.366.998.998 0 0 1-1.366-.366z"/><path d="M106.879 85.802l1.987.532-.268 1.002-1.988-.532.269-1.002zm1.987.532l.993.267-.805 3.005-.993-.266.805-3.006zM153 65.48a3.482 3.482 0 0 1 3.485-3.48h29.03A3.483 3.483 0 0 1 189 65.48v24.04a3.482 3.482 0 0 1-3.485 3.48h-29.03A3.483 3.483 0 0 1 153 89.52V65.48zm2 2.52h32v21.844c0 .638-.529 1.156-1.158 1.156h-29.684A1.16 1.16 0 0 1 155 89.844V68zm0-3c0-.552.444-1 1-1 .552 0 1 .444 1 1 0 .552-.444 1-1 1-.552 0-1-.444-1-1zm4 0c0-.552.444-1 1-1 .552 0 1 .444 1 1 0 .552-.444 1-1 1-.552 0-1-.444-1-1zm4 0c0-.552.444-1 1-1 .552 0 1 .444 1 1 0 .552-.444 1-1 1-.552 0-1-.444-1-1z"/><path d="M158.2 70l1.455 1.455-.734.733-1.454-1.455.733-.733zm1.455 1.455l.727.727-2.2 2.2-.727-.727 2.2-2.2zM213.116 74.488a3.482 3.482 0 0 1 1.277-4.757l25.142-14.515a3.483 3.483 0 0 1 4.758 1.272l12.02 20.818a3.482 3.482 0 0 1-1.278 4.757l-25.142 14.515a3.483 3.483 0 0 1-4.758-1.272l-12.019-20.818zm2.992 1.182l27.713-16 10.921 18.917c.32.553.12 1.266-.424 1.58L228.61 95.01a1.16 1.16 0 0 1-1.58-.423L216.108 75.67zm-1.5-2.598a.998.998 0 0 1 .366-1.366.998.998 0 0 1 1.366.366.998.998 0 0 1-.366 1.366.998.998 0 0 1-1.366-.366zm3.464-2a.998.998 0 0 1 .366-1.366.998.998 0 0 1 1.366.366.998.998 0 0 1-.366 1.366.998.998 0 0 1-1.366-.366zm3.464-2a.998.998 0 0 1 .366-1.366.998.998 0 0 1 1.366.366.998.998 0 0 1-.366 1.366.998.998 0 0 1-1.366-.366z"/><path d="M219.879 75.802l1.987.532-.268 1.002-1.988-.532.269-1.002zm1.987.532l.993.267-.805 3.005-.993-.266.805-3.006zM261.907 93.026a3.482 3.482 0 0 1 2.827-4.033l28.59-5.041a3.483 3.483 0 0 1 4.036 2.823l4.174 23.673a3.482 3.482 0 0 1-2.827 4.033l-28.59 5.041a3.483 3.483 0 0 1-4.036-2.823l-4.174-23.673zm2.407 2.134l31.514-5.557 3.793 21.512c.11.629-.32 1.23-.94 1.34l-29.233 5.154a1.16 1.16 0 0 1-1.34-.937l-3.794-21.512zm-.52-2.955a.998.998 0 0 1 .81-1.158.998.998 0 0 1 1.159.811.998.998 0 0 1-.811 1.158.998.998 0 0 1-1.159-.81zm3.938-.694a.998.998 0 0 1 .812-1.159.998.998 0 0 1 1.158.811.998.998 0 0 1-.811 1.159.998.998 0 0 1-1.159-.811zm3.94-.695a.998.998 0 0 1 .81-1.158.998.998 0 0 1 1.16.81.998.998 0 0 1-.812 1.16.998.998 0 0 1-1.158-.812z"/><path d="M267.813 96.574l1.685 1.18-.595.85-1.685-1.18.595-.85zm1.685 1.18l.842.59-1.784 2.548-.843-.59 1.785-2.548zM288.907 53.026a3.482 3.482 0 0 1 2.827-4.033l28.59-5.041a3.483 3.483 0 0 1 4.036 2.823l4.174 23.673a3.482 3.482 0 0 1-2.827 4.033l-28.59 5.041a3.483 3.483 0 0 1-4.036-2.823l-4.174-23.673zm2.407 2.134l31.514-5.557 3.793 21.512c.11.629-.32 1.23-.94 1.34l-29.233 5.154a1.16 1.16 0 0 1-1.34-.937l-3.794-21.512zm-.52-2.955a.998.998 0 0 1 .81-1.158.998.998 0 0 1 1.159.811.998.998 0 0 1-.811 1.158.998.998 0 0 1-1.159-.81zm3.938-.694a.998.998 0 0 1 .812-1.159.998.998 0 0 1 1.158.811.998.998 0 0 1-.811 1.159.998.998 0 0 1-1.159-.811zm3.94-.695a.998.998 0 0 1 .81-1.158.998.998 0 0 1 1.16.81.998.998 0 0 1-.812 1.16.998.998 0 0 1-1.158-.812z"/><path d="M294.813 56.574l1.685 1.18-.595.85-1.685-1.18.595-.85zm1.685 1.18l.842.59-1.784 2.548-.843-.59 1.785-2.548zM364.254 75.146a3.482 3.482 0 0 1 .773-4.864l23.487-17.064a3.483 3.483 0 0 1 4.865.768l14.13 19.447a3.482 3.482 0 0 1-.774 4.864l-23.486 17.064a3.483 3.483 0 0 1-4.866-.768l-14.129-19.447zm3.099.862L393.24 57.2l12.84 17.672a1.164 1.164 0 0 1-.257 1.616l-24.015 17.448a1.16 1.16 0 0 1-1.617-.255l-12.84-17.672zm-1.763-2.427a.998.998 0 0 1 .22-1.397.998.998 0 0 1 1.398.222.998.998 0 0 1-.222 1.397.998.998 0 0 1-1.396-.222zm3.236-2.35a.998.998 0 0 1 .22-1.398.998.998 0 0 1 1.398.222.998.998 0 0 1-.222 1.396.998.998 0 0 1-1.396-.22zm3.236-2.352a.998.998 0 0 1 .22-1.397.998.998 0 0 1 1.398.221.998.998 0 0 1-.222 1.397.998.998 0 0 1-1.396-.221z"/><path d="M371.117 75.746l2.032.321-.162 1.025-2.032-.322.162-1.024zm2.032.321l1.016.161-.487 3.073-1.016-.16.487-3.074zM453.269 52.437a3.482 3.482 0 0 1 4.599-1.763l26.52 11.808a3.483 3.483 0 0 1 1.768 4.597l-9.777 21.96a3.482 3.482 0 0 1-4.599 1.763l-26.521-11.808a3.483 3.483 0 0 1-1.768-4.597l9.778-21.96zm.802 3.114l29.234 13.016-8.885 19.955c-.26.584-.953.842-1.528.586l-27.118-12.074a1.16 1.16 0 0 1-.587-1.527l8.884-19.956zm1.22-2.74a.998.998 0 0 1 1.32-.507.998.998 0 0 1 .507 1.32.998.998 0 0 1-1.32.507.998.998 0 0 1-.507-1.32zm3.655 1.627a.998.998 0 0 1 1.32-.507.998.998 0 0 1 .507 1.32.998.998 0 0 1-1.32.507.998.998 0 0 1-.507-1.32zm3.654 1.627a.998.998 0 0 1 1.32-.507.998.998 0 0 1 .507 1.32.998.998 0 0 1-1.32.507.998.998 0 0 1-.507-1.32z"/><path d="M456.18 58.68l.738 1.92-.968.372-.737-1.92.968-.372zm.738 1.92l.369.96-2.905 1.116-.368-.96 2.904-1.115z"/><g><path d="M499.559 75.523a3.482 3.482 0 0 1 3.718-3.23l28.96 2.025a3.483 3.483 0 0 1 3.234 3.716l-1.677 23.98a3.482 3.482 0 0 1-3.719 3.229l-28.96-2.025a3.483 3.483 0 0 1-3.233-3.716l1.677-23.98zm1.819 2.652l31.922 2.232-1.524 21.79a1.164 1.164 0 0 1-1.235 1.074l-29.612-2.071a1.16 1.16 0 0 1-1.075-1.234l1.524-21.79zm.21-2.993a.998.998 0 0 1 1.067-.927c.55.038.966.512.927 1.067a.998.998 0 0 1-1.067.928.998.998 0 0 1-.928-1.068zm3.99.28a.998.998 0 0 1 1.067-.928c.55.038.966.512.928 1.067a.998.998 0 0 1-1.068.928.998.998 0 0 1-.927-1.068zm3.99.278a.998.998 0 0 1 1.067-.927c.551.038.967.512.928 1.067a.998.998 0 0 1-1.067.928.998.998 0 0 1-.928-1.068z"/><path d="M504.43 80.393l1.35 1.553-.782.68-1.35-1.552.783-.68zm1.35 1.553l.675.776-2.348 2.041-.675-.776 2.348-2.041z"/></g><g><path d="M557.254 96.146a3.482 3.482 0 0 1 .773-4.864l23.487-17.064a3.483 3.483 0 0 1 4.865.768l14.13 19.447a3.482 3.482 0 0 1-.774 4.864l-23.486 17.064a3.483 3.483 0 0 1-4.866-.768l-14.129-19.447zm3.099.862L586.24 78.2l12.84 17.672a1.164 1.164 0 0 1-.257 1.616l-24.015 17.448a1.16 1.16 0 0 1-1.617-.255l-12.84-17.672zm-1.763-2.427a.998.998 0 0 1 .22-1.397.998.998 0 0 1 1.398.222.998.998 0 0 1-.222 1.397.998.998 0 0 1-1.396-.222zm3.236-2.35a.998.998 0 0 1 .22-1.398.998.998 0 0 1 1.398.222.998.998 0 0 1-.222 1.396.998.998 0 0 1-1.396-.22zm3.236-2.352a.998.998 0 0 1 .22-1.397.998.998 0 0 1 1.398.221.998.998 0 0 1-.222 1.397.998.998 0 0 1-1.396-.221z"/><path d="M564.117 96.746l2.032.321-.162 1.025-2.032-.322.162-1.024zm2.032.321l1.016.161-.487 3.073-1.016-.16.487-3.074z"/></g><g><path d="M47.416 88.146a3.482 3.482 0 0 1 4.465-2.08l27.28 9.93a3.483 3.483 0 0 1 2.084 4.463l-8.222 22.588a3.482 3.482 0 0 1-4.465 2.08l-27.28-9.93a3.483 3.483 0 0 1-2.084-4.462l8.222-22.589zm1.018 3.051l30.07 10.945-7.471 20.526c-.218.6-.892.906-1.483.69l-27.895-10.152a1.16 1.16 0 0 1-.692-1.482l7.47-20.527zm1.026-2.819a.998.998 0 0 1 1.282-.597c.519.188.787.759.597 1.281a.998.998 0 0 1-1.281.598.998.998 0 0 1-.598-1.282zm3.759 1.368a.998.998 0 0 1 1.281-.597c.52.189.788.759.598 1.281a.998.998 0 0 1-1.282.598.998.998 0 0 1-.597-1.282zm3.758 1.368a.998.998 0 0 1 1.282-.597c.52.189.788.759.598 1.281a.998.998 0 0 1-1.282.598.998.998 0 0 1-.598-1.282z"/><path d="M50.757 94.171l.869 1.865-.94.438-.87-1.865.94-.438zm.869 1.865l.435.932-2.82 1.315-.435-.933 2.82-1.314z"/></g><g><path d="M12.273 136.723a3.482 3.482 0 0 1 2.083-4.463l27.28-9.93a3.483 3.483 0 0 1 4.466 2.08l8.221 22.588a3.482 3.482 0 0 1-2.084 4.463l-27.28 9.93a3.483 3.483 0 0 1-4.465-2.08l-8.221-22.588zm2.74 1.683l30.07-10.945 7.472 20.526c.218.6-.102 1.268-.693 1.483l-27.894 10.153a1.16 1.16 0 0 1-1.483-.69l-7.471-20.527zm-1.025-2.82a.998.998 0 0 1 .597-1.281.998.998 0 0 1 1.282.598.998.998 0 0 1-.598 1.281.998.998 0 0 1-1.281-.597zm3.758-1.367a.998.998 0 0 1 .598-1.282.998.998 0 0 1 1.282.598.998.998 0 0 1-.598 1.281.998.998 0 0 1-1.282-.597zm3.76-1.368a.998.998 0 0 1 .597-1.282.998.998 0 0 1 1.281.597.998.998 0 0 1-.597 1.282.998.998 0 0 1-1.282-.597z"/><path d="M18.705 139.19l1.864.87-.438.94-1.865-.87.439-.94zm1.864.87l.932.435-1.315 2.82-.932-.435 1.315-2.82z"/></g><g><path d="M74 132.48a3.482 3.482 0 0 1 3.485-3.48h29.03a3.483 3.483 0 0 1 3.485 3.48v24.04a3.482 3.482 0 0 1-3.485 3.48h-29.03A3.483 3.483 0 0 1 74 156.52v-24.04zm2 2.52h32v21.844c0 .638-.529 1.156-1.158 1.156H77.158A1.16 1.16 0 0 1 76 156.844V135zm0-3c0-.552.444-1 1-1 .552 0 1 .444 1 1 0 .552-.444 1-1 1-.552 0-1-.444-1-1zm4 0c0-.552.444-1 1-1 .552 0 1 .444 1 1 0 .552-.444 1-1 1-.552 0-1-.444-1-1zm4 0c0-.552.444-1 1-1 .552 0 1 .444 1 1 0 .552-.444 1-1 1-.552 0-1-.444-1-1z"/><path d="M79.2 137l1.455 1.455-.734.733-1.454-1.455.733-.733zm1.455 1.455l.727.727-2.2 2.2-.727-.727 2.2-2.2z"/></g><g><path d="M130.416 110.146a3.482 3.482 0 0 1 4.465-2.08l27.28 9.93a3.483 3.483 0 0 1 2.084 4.463l-8.222 22.588a3.482 3.482 0 0 1-4.465 2.08l-27.28-9.93a3.483 3.483 0 0 1-2.084-4.462l8.222-22.589zm1.018 3.051l30.07 10.945-7.471 20.526c-.218.6-.892.906-1.483.69l-27.895-10.152a1.16 1.16 0 0 1-.692-1.482l7.47-20.527zm1.026-2.819a.998.998 0 0 1 1.282-.597c.519.188.787.759.597 1.281a.998.998 0 0 1-1.281.598.998.998 0 0 1-.598-1.282zm3.759 1.368a.998.998 0 0 1 1.281-.597c.52.189.788.759.598 1.281a.998.998 0 0 1-1.282.598.998.998 0 0 1-.597-1.282zm3.758 1.368a.998.998 0 0 1 1.282-.597c.52.189.788.759.598 1.281a.998.998 0 0 1-1.282.598.998.998 0 0 1-.598-1.282z"/><path d="M133.757 116.171l.869 1.865-.94.438-.87-1.865.94-.438zm.869 1.865l.435.932-2.82 1.315-.435-.933 2.82-1.314z"/></g><g><path d="M184.416 102.146a3.482 3.482 0 0 1 4.465-2.08l27.28 9.93a3.483 3.483 0 0 1 2.084 4.463l-8.222 22.588a3.482 3.482 0 0 1-4.465 2.08l-27.28-9.93a3.483 3.483 0 0 1-2.084-4.462l8.222-22.589zm1.018 3.051l30.07 10.945-7.471 20.526c-.218.6-.892.906-1.483.69l-27.895-10.152a1.16 1.16 0 0 1-.692-1.482l7.47-20.527zm1.026-2.819a.998.998 0 0 1 1.282-.597c.519.188.787.759.597 1.281a.998.998 0 0 1-1.281.598.998.998 0 0 1-.598-1.282zm3.759 1.368a.998.998 0 0 1 1.281-.597c.52.189.788.759.598 1.281a.998.998 0 0 1-1.282.598.998.998 0 0 1-.597-1.282zm3.758 1.368a.998.998 0 0 1 1.282-.597c.52.189.788.759.598 1.281a.998.998 0 0 1-1.282.598.998.998 0 0 1-.598-1.282z"/><path d="M187.757 108.171l.869 1.865-.94.438-.87-1.865.94-.438zm.869 1.865l.435.932-2.82 1.315-.435-.933 2.82-1.314z"/></g><g><path d="M173.116 159.488a3.482 3.482 0 0 1 1.277-4.757l25.142-14.515a3.483 3.483 0 0 1 4.758 1.272l12.02 20.818a3.482 3.482 0 0 1-1.278 4.757l-25.142 14.515a3.483 3.483 0 0 1-4.758-1.272l-12.019-20.818zm2.992 1.182l27.713-16 10.921 18.917c.32.553.12 1.266-.424 1.58L188.61 180.01a1.16 1.16 0 0 1-1.58-.423l-10.922-18.917zm-1.5-2.598a.998.998 0 0 1 .366-1.366.998.998 0 0 1 1.366.366.998.998 0 0 1-.366 1.366.998.998 0 0 1-1.366-.366zm3.464-2a.998.998 0 0 1 .366-1.366.998.998 0 0 1 1.366.366.998.998 0 0 1-.366 1.366.998.998 0 0 1-1.366-.366zm3.464-2a.998.998 0 0 1 .366-1.366.998.998 0 0 1 1.366.366.998.998 0 0 1-.366 1.366.998.998 0 0 1-1.366-.366z"/><path d="M179.879 160.802l1.987.532-.268 1.002-1.988-.532.269-1.002zm1.987.532l.993.267-.805 3.005-.993-.266.805-3.006z"/></g><g><path d="M233.116 141.488a3.482 3.482 0 0 1 1.277-4.757l25.142-14.515a3.483 3.483 0 0 1 4.758 1.272l12.02 20.818a3.482 3.482 0 0 1-1.278 4.757l-25.142 14.515a3.483 3.483 0 0 1-4.758-1.272l-12.019-20.818zm2.992 1.182l27.713-16 10.921 18.917c.32.553.12 1.266-.424 1.58L248.61 162.01a1.16 1.16 0 0 1-1.58-.423l-10.922-18.917zm-1.5-2.598a.998.998 0 0 1 .366-1.366.998.998 0 0 1 1.366.366.998.998 0 0 1-.366 1.366.998.998 0 0 1-1.366-.366zm3.464-2a.998.998 0 0 1 .366-1.366.998.998 0 0 1 1.366.366.998.998 0 0 1-.366 1.366.998.998 0 0 1-1.366-.366zm3.464-2a.998.998 0 0 1 .366-1.366.998.998 0 0 1 1.366.366.998.998 0 0 1-.366 1.366.998.998 0 0 1-1.366-.366z"/><path d="M239.879 142.802l1.987.532-.268 1.002-1.988-.532.269-1.002zm1.987.532l.993.267-.805 3.005-.993-.266.805-3.006z"/></g><g><path d="M300.761 124.442a3.482 3.482 0 0 1 4.906.432l18.661 22.239a3.483 3.483 0 0 1-.427 4.907l-18.414 15.451a3.482 3.482 0 0 1-4.906-.432L281.92 144.8a3.483 3.483 0 0 1 .427-4.906l18.414-15.452zm-.644 3.152l20.569 24.513-16.733 14.04c-.49.411-1.226.339-1.63-.143l-19.081-22.74a1.16 1.16 0 0 1 .142-1.63l16.733-14.04zm2.298-1.929a.998.998 0 0 1 1.409.123.998.998 0 0 1-.124 1.41.998.998 0 0 1-1.408-.124.998.998 0 0 1 .123-1.409zm2.571 3.064a.998.998 0 0 1 1.409.124.998.998 0 0 1-.123 1.408.998.998 0 0 1-1.41-.123.998.998 0 0 1 .124-1.409zm2.571 3.065a.998.998 0 0 1 1.409.123.998.998 0 0 1-.123 1.409.998.998 0 0 1-1.41-.124.998.998 0 0 1 .124-1.408z"/><path d="M300.642 131.33l-.18 2.05-1.033-.09.18-2.05 1.033.09zm-.18 2.05l-.09 1.024-3.099-.27.09-1.025 3.1.27z"/></g><g><path d="M319.241 105.891a3.482 3.482 0 0 1-.427-4.906l18.661-22.24a3.483 3.483 0 0 1 4.906-.431l18.415 15.451a3.482 3.482 0 0 1 .426 4.907l-18.66 22.24a3.483 3.483 0 0 1-4.907.43l-18.414-15.45zm3.215.088l20.57-24.514 16.733 14.041c.489.41.546 1.148.141 1.63l-19.08 22.74a1.16 1.16 0 0 1-1.63.143l-16.734-14.04zm-2.298-1.929a.998.998 0 0 1-.123-1.409.998.998 0 0 1 1.409-.123c.423.355.48.983.123 1.409a.998.998 0 0 1-1.409.123zm2.571-3.064a.998.998 0 0 1-.123-1.409.998.998 0 0 1 1.409-.123c.423.355.48.983.123 1.409a.998.998 0 0 1-1.409.123zm2.571-3.064a.998.998 0 0 1-.123-1.409.998.998 0 0 1 1.41-.123c.422.355.48.983.122 1.409a.998.998 0 0 1-1.409.123z"/><path d="M326.045 104.813l2.05-.18.09 1.034-2.05.179-.09-1.033zm2.05-.18l1.024-.089.271 3.1-1.024.089-.271-3.1z"/></g><g><path d="M365.269 114.437a3.482 3.482 0 0 1 4.599-1.763l26.52 11.808a3.483 3.483 0 0 1 1.768 4.597l-9.777 21.96a3.482 3.482 0 0 1-4.599 1.763l-26.521-11.808a3.483 3.483 0 0 1-1.768-4.597l9.778-21.96zm.802 3.114l29.234 13.016-8.885 19.955c-.26.584-.953.842-1.528.586l-27.118-12.074a1.16 1.16 0 0 1-.587-1.527l8.884-19.956zm1.22-2.74a.998.998 0 0 1 1.32-.507.998.998 0 0 1 .507 1.32.998.998 0 0 1-1.32.507.998.998 0 0 1-.507-1.32zm3.655 1.627a.998.998 0 0 1 1.32-.507.998.998 0 0 1 .507 1.32.998.998 0 0 1-1.32.507.998.998 0 0 1-.507-1.32zm3.654 1.627a.998.998 0 0 1 1.32-.507.998.998 0 0 1 .507 1.32.998.998 0 0 1-1.32.507.998.998 0 0 1-.507-1.32z"/><path d="M368.18 120.68l.738 1.92-.968.372-.737-1.92.968-.372zm.738 1.92l.369.96-2.905 1.116-.368-.96 2.904-1.115z"/></g><g><path d="M416.269 90.437a3.482 3.482 0 0 1 4.599-1.763l26.52 11.808a3.483 3.483 0 0 1 1.768 4.597l-9.777 21.96a3.482 3.482 0 0 1-4.599 1.763l-26.521-11.808a3.483 3.483 0 0 1-1.768-4.597l9.778-21.96zm.802 3.114l29.234 13.016-8.885 19.955c-.26.584-.953.842-1.528.586l-27.118-12.074a1.16 1.16 0 0 1-.587-1.527l8.884-19.956zm1.22-2.74a.998.998 0 0 1 1.32-.507.998.998 0 0 1 .507 1.32.998.998 0 0 1-1.32.507.998.998 0 0 1-.507-1.32zm3.655 1.627a.998.998 0 0 1 1.32-.507.998.998 0 0 1 .507 1.32.998.998 0 0 1-1.32.507.998.998 0 0 1-.507-1.32zm3.654 1.627a.998.998 0 0 1 1.32-.507.998.998 0 0 1 .507 1.32.998.998 0 0 1-1.32.507.998.998 0 0 1-.507-1.32z"/><path d="M419.18 96.68l.738 1.92-.968.372-.737-1.92.968-.372zm.738 1.92l.369.96-2.905 1.116-.368-.96 2.904-1.115z"/></g><g><path d="M419.621 139.12a3.482 3.482 0 0 1 4.656 1.607l12.726 26.093a3.483 3.483 0 0 1-1.6 4.657l-21.606 10.538a3.482 3.482 0 0 1-4.656-1.606l-12.727-26.093a3.483 3.483 0 0 1 1.601-4.658l21.606-10.537zm-1.387 2.903l14.027 28.761-19.633 9.576a1.164 1.164 0 0 1-1.546-.534l-13.013-26.68a1.16 1.16 0 0 1 .532-1.548l19.633-9.575zm2.696-1.315a.998.998 0 0 1 1.337.46.998.998 0 0 1-.46 1.337.998.998 0 0 1-1.338-.46.998.998 0 0 1 .46-1.337zm1.753 3.595a.998.998 0 0 1 1.338.46.998.998 0 0 1-.46 1.337.998.998 0 0 1-1.338-.46.998.998 0 0 1 .46-1.337zm1.754 3.595a.998.998 0 0 1 1.337.46.998.998 0 0 1-.46 1.337.998.998 0 0 1-1.338-.46.998.998 0 0 1 .46-1.337z"/><path d="M417.839 145.775l-.67 1.945-.98-.337.67-1.945.98.337zm-.67 1.945l-.335.973-2.942-1.013.335-.972 2.942 1.012z"/></g><g><path d="M457.254 127.146a3.482 3.482 0 0 1 .773-4.864l23.487-17.064a3.483 3.483 0 0 1 4.865.768l14.13 19.447a3.482 3.482 0 0 1-.774 4.864l-23.486 17.064a3.483 3.483 0 0 1-4.866-.768l-14.129-19.447zm3.099.862L486.24 109.2l12.84 17.672a1.164 1.164 0 0 1-.257 1.616l-24.015 17.448a1.16 1.16 0 0 1-1.617-.255l-12.84-17.672zm-1.763-2.427a.998.998 0 0 1 .22-1.397.998.998 0 0 1 1.398.222.998.998 0 0 1-.222 1.397.998.998 0 0 1-1.396-.222zm3.236-2.35a.998.998 0 0 1 .22-1.398.998.998 0 0 1 1.398.222.998.998 0 0 1-.222 1.396.998.998 0 0 1-1.396-.22zm3.236-2.352a.998.998 0 0 1 .22-1.397.998.998 0 0 1 1.398.221.998.998 0 0 1-.222 1.397.998.998 0 0 1-1.396-.221z"/><path d="M464.117 127.746l2.032.321-.162 1.025-2.032-.322.162-1.024zm2.032.321l1.016.161-.487 3.073-1.016-.16.487-3.074z"/></g><g><path d="M517.254 136.146a3.482 3.482 0 0 1 .773-4.864l23.487-17.064a3.483 3.483 0 0 1 4.865.768l14.13 19.447a3.482 3.482 0 0 1-.774 4.864l-23.486 17.064a3.483 3.483 0 0 1-4.866-.768l-14.129-19.447zm3.099.862L546.24 118.2l12.84 17.672a1.164 1.164 0 0 1-.257 1.616l-24.015 17.448a1.16 1.16 0 0 1-1.617-.255l-12.84-17.672zm-1.763-2.427a.998.998 0 0 1 .22-1.397.998.998 0 0 1 1.398.222.998.998 0 0 1-.222 1.397.998.998 0 0 1-1.396-.222zm3.236-2.35a.998.998 0 0 1 .22-1.398.998.998 0 0 1 1.398.222.998.998 0 0 1-.222 1.396.998.998 0 0 1-1.396-.22zm3.236-2.352a.998.998 0 0 1 .22-1.397.998.998 0 0 1 1.398.221.998.998 0 0 1-.222 1.397.998.998 0 0 1-1.396-.221z"/><path d="M524.117 136.746l2.032.321-.162 1.025-2.032-.322.162-1.024zm2.032.321l1.016.161-.487 3.073-1.016-.16.487-3.074z"/></g></g></svg>