<svg xmlns="http://www.w3.org/2000/svg" viewBox="0 0 605 180"><title>triggers</title><g fill-rule="evenodd"><path d="M18.802 18.212a3.86 3.86 0 0 1 1.41-5.263L44.716-1.198A3.86 3.86 0 0 1 49.98.212l14.147 24.504a3.86 3.86 0 0 1-1.41 5.263L38.212 44.126a3.86 3.86 0 0 1-5.263-1.41L18.802 18.212zm26.3 5.606l-10.627 6.135a2.571 2.571 0 0 0-.931 3.507 2.56 2.56 0 0 0 3.502.947l10.627-6.136a5.14 5.14 0 0 0 5.144 0 5.141 5.141 0 0 0 2.572-4.546 2.577 2.577 0 0 0-2.494-4.317 5.141 5.141 0 0 0-5.22-.045 5.14 5.14 0 0 0-2.573 4.455zm7.072 3.34a3.857 3.857 0 1 0-3.857-6.681 3.857 3.857 0 0 0 3.857 6.68zM27.54 19.203a2.577 2.577 0 0 0 2.493 4.317 5.141 5.141 0 0 0 5.22.045 5.14 5.14 0 0 0 2.573-4.454l10.627-6.136a2.571 2.571 0 0 0 .931-3.507 2.56 2.56 0 0 0-3.502-.947l-10.627 6.136a5.14 5.14 0 0 0-5.144 0 5.141 5.141 0 0 0-2.571 4.546zm7.071 3.248a3.857 3.857 0 1 0-3.857-6.68 3.857 3.857 0 0 0 3.857 6.68zM62.975 37.576a3.86 3.86 0 0 1 4.463-3.125l27.865 4.913a3.86 3.86 0 0 1 3.125 4.463l-4.913 27.865a3.86 3.86 0 0 1-4.464 3.125l-27.864-4.913a3.86 3.86 0 0 1-3.126-4.463l4.914-27.865zm16.544 21.2l-12.085-2.132a2.571 2.571 0 0 0-2.967 2.088 2.56 2.56 0 0 0 2.074 2.977l12.085 2.13a5.14 5.14 0 0 0 3.94 3.307 5.141 5.141 0 0 0 4.892-1.83 2.577 2.577 0 0 0 .865-4.91 5.141 5.141 0 0 0-3.97-3.39 5.14 5.14 0 0 0-4.834 1.76zm3.27 7.104a3.857 3.857 0 1 0 1.34-7.598 3.857 3.857 0 0 0-1.34 7.598zM69.031 43.95a2.577 2.577 0 0 0-.865 4.91 5.141 5.141 0 0 0 3.971 3.39 5.14 5.14 0 0 0 4.834-1.758l12.085 2.13a2.571 2.571 0 0 0 2.967-2.087 2.56 2.56 0 0 0-2.074-2.977l-12.085-2.131a5.14 5.14 0 0 0-3.94-3.306 5.141 5.141 0 0 0-4.893 1.83zm3.33 7.034a3.857 3.857 0 1 0 1.339-7.597 3.857 3.857 0 0 0-1.34 7.597zM108.802 27.212a3.86 3.86 0 0 1 1.41-5.263l24.504-14.147a3.86 3.86 0 0 1 5.263 1.41l14.147 24.504a3.86 3.86 0 0 1-1.41 5.263l-24.504 14.147a3.86 3.86 0 0 1-5.263-1.41l-14.147-24.504zm26.3 5.606l-10.627 6.135a2.571 2.571 0 0 0-.931 3.507 2.56 2.56 0 0 0 3.502.947l10.627-6.136a5.14 5.14 0 0 0 5.144 0 5.141 5.141 0 0 0 2.572-4.546 2.577 2.577 0 0 0-2.494-4.317 5.141 5.141 0 0 0-5.22-.045 5.14 5.14 0 0 0-2.573 4.455zm7.072 3.34a3.857 3.857 0 1 0-3.857-6.681 3.857 3.857 0 0 0 3.857 6.68zm-24.634-7.955a2.577 2.577 0 0 0 2.493 4.317 5.141 5.141 0 0 0 5.22.045 5.14 5.14 0 0 0 2.573-4.454l10.627-6.136a2.571 2.571 0 0 0 .931-3.507 2.56 2.56 0 0 0-3.502-.947l-10.627 6.136a5.14 5.14 0 0 0-5.144 0 5.141 5.141 0 0 0-2.571 4.546zm7.071 3.248a3.857 3.857 0 1 0-3.857-6.68 3.857 3.857 0 0 0 3.857 6.68zM186.315 15.676a3.86 3.86 0 0 1 4.938-2.302l26.588 9.677a3.86 3.86 0 0 1 2.303 4.938l-9.678 26.588a3.86 3.86 0 0 1-4.937 2.303l-26.589-9.677a3.86 3.86 0 0 1-2.302-4.938l9.677-26.589zm12.611 23.75l-11.531-4.197a2.571 2.571 0 0 0-3.285 1.541 2.56 2.56 0 0 0 1.526 3.292l11.531 4.197a5.14 5.14 0 0 0 3.307 3.94c1.82.662 3.77.234 5.135-.952a2.577 2.577 0 0 0 1.704-4.685 5.141 5.141 0 0 0-3.321-4.028 5.14 5.14 0 0 0-5.066.892zm1.988 7.565a3.857 3.857 0 1 0 2.638-7.25 3.857 3.857 0 0 0-2.638 7.25zm-9.742-23.984a2.577 2.577 0 0 0-1.704 4.685 5.141 5.141 0 0 0 3.322 4.028 5.14 5.14 0 0 0 5.065-.893l11.531 4.197a2.571 2.571 0 0 0 3.285-1.54 2.56 2.56 0 0 0-1.526-3.292l-11.53-4.197a5.14 5.14 0 0 0-3.308-3.94 5.141 5.141 0 0 0-5.135.952zm2.057 7.505a3.857 3.857 0 1 0 2.639-7.25 3.857 3.857 0 0 0-2.639 7.25zM239.802 24.212a3.86 3.86 0 0 1 1.41-5.263l24.504-14.147a3.86 3.86 0 0 1 5.263 1.41l14.147 24.504a3.86 3.86 0 0 1-1.41 5.263l-24.504 14.147a3.86 3.86 0 0 1-5.263-1.41l-14.147-24.504zm26.3 5.606l-10.627 6.135a2.571 2.571 0 0 0-.931 3.507 2.56 2.56 0 0 0 3.502.947l10.627-6.136a5.14 5.14 0 0 0 5.144 0 5.141 5.141 0 0 0 2.572-4.546 2.577 2.577 0 0 0-2.494-4.317 5.141 5.141 0 0 0-5.22-.045 5.14 5.14 0 0 0-2.573 4.455zm7.072 3.34a3.857 3.857 0 1 0-3.857-6.681 3.857 3.857 0 0 0 3.857 6.68zm-24.634-7.955a2.577 2.577 0 0 0 2.493 4.317 5.141 5.141 0 0 0 5.22.045 5.14 5.14 0 0 0 2.573-4.454l10.627-6.136a2.571 2.571 0 0 0 .931-3.507 2.56 2.56 0 0 0-3.502-.947l-10.627 6.136a5.14 5.14 0 0 0-5.144 0 5.141 5.141 0 0 0-2.571 4.546zm7.071 3.248a3.857 3.857 0 1 0-3.857-6.68 3.857 3.857 0 0 0 3.857 6.68zM347.226 15.091a3.86 3.86 0 0 1 5.287-1.318l24.253 14.573a3.86 3.86 0 0 1 1.318 5.287l-14.573 24.253a3.86 3.86 0 0 1-5.287 1.318l-24.253-14.573a3.86 3.86 0 0 1-1.318-5.286l14.573-24.254zm7.848 25.72l-10.519-6.32a2.571 2.571 0 0 0-3.518.886 2.56 2.56 0 0 0 .87 3.523l10.518 6.32a5.14 5.14 0 0 0 2.494 4.498 5.141 5.141 0 0 0 5.223.046 2.577 2.577 0 0 0 2.567-4.274 5.141 5.141 0 0 0-2.492-4.588 5.14 5.14 0 0 0-5.143-.09zm.507 7.805a3.857 3.857 0 1 0 3.973-6.612 3.857 3.857 0 0 0-3.973 6.612zm-4.986-25.402a2.577 2.577 0 0 0-2.567 4.274 5.141 5.141 0 0 0 2.492 4.588 5.14 5.14 0 0 0 5.143.09l10.519 6.32a2.571 2.571 0 0 0 3.518-.886 2.56 2.56 0 0 0-.87-3.522l-10.518-6.32a5.14 5.14 0 0 0-2.494-4.499 5.141 5.141 0 0 0-5.223-.045zm.588 7.76a3.857 3.857 0 1 0 3.973-6.613 3.857 3.857 0 0 0-3.973 6.613zM405.975 38.022a3.86 3.86 0 0 1-.095-5.448l19.655-20.353a3.86 3.86 0 0 1 5.448-.095l20.354 19.655a3.86 3.86 0 0 1 .095 5.447l-19.655 20.354a3.86 3.86 0 0 1-5.448.095l-20.354-19.655zm26.827-1.861l-8.525 8.827a2.571 2.571 0 0 0 .072 3.628 2.56 2.56 0 0 0 3.628-.055l8.524-8.828a5.14 5.14 0 0 0 4.944-1.418 5.141 5.141 0 0 0 1.22-5.078 2.577 2.577 0 0 0-3.587-3.463 5.141 5.141 0 0 0-5.031 1.396 5.14 5.14 0 0 0-1.245 4.99zm7.719 1.261a3.857 3.857 0 1 0-5.55-5.359 3.857 3.857 0 0 0 5.55 5.359zm-25.873-.856a2.577 2.577 0 0 0 3.586 3.462 5.141 5.141 0 0 0 5.031-1.396 5.14 5.14 0 0 0 1.245-4.99l8.525-8.828a2.571 2.571 0 0 0-.072-3.627 2.56 2.56 0 0 0-3.628.055l-8.524 8.827a5.14 5.14 0 0 0-4.944 1.418 5.141 5.141 0 0 0-1.22 5.079zm7.693 1.173a3.857 3.857 0 1 0-5.55-5.358 3.857 3.857 0 0 0 5.55 5.358zM485.71 25.02a3.86 3.86 0 0 1 .852-5.382l22.89-16.631a3.86 3.86 0 0 1 5.382.852l16.631 22.891a3.86 3.86 0 0 1-.852 5.382l-22.891 16.63a3.86 3.86 0 0 1-5.381-.851L485.709 25.02zm26.741 2.825l-9.928 7.213a2.571 2.571 0 0 0-.559 3.585 2.56 2.56 0 0 0 3.582.576l9.928-7.213a5.14 5.14 0 0 0 5.116-.538 5.141 5.141 0 0 0 2.082-4.79 2.577 2.577 0 0 0-2.931-4.033 5.141 5.141 0 0 0-5.197.501 5.14 5.14 0 0 0-2.093 4.7zm7.383 2.583a3.857 3.857 0 1 0-4.535-6.241 3.857 3.857 0 0 0 4.535 6.24zm-25.331-5.336a2.577 2.577 0 0 0 2.93 4.032 5.141 5.141 0 0 0 5.198-.5 5.14 5.14 0 0 0 2.092-4.7l9.928-7.212a2.571 2.571 0 0 0 .56-3.585 2.56 2.56 0 0 0-3.583-.576l-9.928 7.213a5.14 5.14 0 0 0-5.115.538 5.141 5.141 0 0 0-2.082 4.79zm7.372 2.491a3.857 3.857 0 1 0-4.534-6.24 3.857 3.857 0 0 0 4.534 6.24zM547.068 28.759a3.86 3.86 0 0 1 5.348-1.04l23.458 15.822a3.86 3.86 0 0 1 1.04 5.349L561.09 72.347a3.86 3.86 0 0 1-5.348 1.04l-23.458-15.823a3.86 3.86 0 0 1-1.04-5.348l15.823-23.457zm6.49 26.095l-10.173-6.862a2.571 2.571 0 0 0-3.56.7 2.56 2.56 0 0 0 .685 3.564l10.173 6.862a5.14 5.14 0 0 0 2.255 4.623 5.141 5.141 0 0 0 5.213.318 2.577 2.577 0 0 0 2.787-4.133 5.141 5.141 0 0 0-2.248-4.712 5.14 5.14 0 0 0-5.131-.36zm.1 7.821a3.857 3.857 0 1 0 4.313-6.395 3.857 3.857 0 0 0-4.314 6.395zm-3.65-25.629a2.577 2.577 0 0 0-2.788 4.134 5.141 5.141 0 0 0 2.249 4.712 5.14 5.14 0 0 0 5.131.36l10.173 6.862a2.571 2.571 0 0 0 3.56-.701 2.56 2.56 0 0 0-.684-3.563l-10.173-6.862a5.14 5.14 0 0 0-2.255-4.623 5.141 5.141 0 0 0-5.213-.319zm.18 7.78a3.857 3.857 0 1 0 4.314-6.395 3.857 3.857 0 0 0-4.314 6.395zM10.315 56.676a3.86 3.86 0 0 1 4.938-2.302L41.84 64.05a3.86 3.86 0 0 1 2.303 4.938l-9.678 26.588a3.86 3.86 0 0 1-4.937 2.303L2.94 88.203a3.86 3.86 0 0 1-2.302-4.938l9.677-26.589zm12.611 23.75L11.395 76.23A2.571 2.571 0 0 0 8.11 77.77a2.56 2.56 0 0 0 1.526 3.292l11.531 4.197a5.14 5.14 0 0 0 3.307 3.94c1.82.662 3.77.234 5.135-.952a2.577 2.577 0 0 0 1.704-4.685 5.141 5.141 0 0 0-3.321-4.028 5.14 5.14 0 0 0-5.066.892zm1.988 7.565a3.857 3.857 0 1 0 2.638-7.25 3.857 3.857 0 0 0-2.638 7.25zm-9.742-23.984a2.577 2.577 0 0 0-1.704 4.685 5.141 5.141 0 0 0 3.322 4.028 5.14 5.14 0 0 0 5.065-.893l11.531 4.197a2.571 2.571 0 0 0 3.285-1.54 2.56 2.56 0 0 0-1.526-3.292l-11.53-4.197a5.14 5.14 0 0 0-3.308-3.94 5.141 5.141 0 0 0-5.135.952zm2.057 7.505a3.857 3.857 0 1 0 2.639-7.25 3.857 3.857 0 0 0-2.639 7.25zM98.802 82.212a3.86 3.86 0 0 1 1.41-5.263l24.504-14.147a3.86 3.86 0 0 1 5.263 1.41l14.147 24.504a3.86 3.86 0 0 1-1.41 5.263l-24.504 14.147a3.86 3.86 0 0 1-5.263-1.41L98.802 82.212zm26.3 5.606l-10.627 6.135a2.571 2.571 0 0 0-.931 3.507 2.56 2.56 0 0 0 3.502.947l10.627-6.136a5.14 5.14 0 0 0 5.144 0 5.141 5.141 0 0 0 2.572-4.546 2.577 2.577 0 0 0-2.494-4.317 5.141 5.141 0 0 0-5.22-.045 5.14 5.14 0 0 0-2.573 4.455zm7.072 3.34a3.857 3.857 0 1 0-3.857-6.681 3.857 3.857 0 0 0 3.857 6.68zm-24.634-7.955a2.577 2.577 0 0 0 2.493 4.317 5.141 5.141 0 0 0 5.22.045 5.14 5.14 0 0 0 2.573-4.454l10.627-6.136a2.571 2.571 0 0 0 .931-3.507 2.56 2.56 0 0 0-3.502-.947l-10.627 6.136a5.14 5.14 0 0 0-5.144 0 5.141 5.141 0 0 0-2.571 4.546zm7.071 3.248a3.857 3.857 0 1 0-3.857-6.68 3.857 3.857 0 0 0 3.857 6.68zM153 62.853A3.86 3.86 0 0 1 156.853 59h28.294A3.86 3.86 0 0 1 189 62.853v28.294A3.86 3.86 0 0 1 185.147 95h-28.294A3.86 3.86 0 0 1 153 91.147V62.853zm19.974 18.004h-12.272a2.571 2.571 0 0 0-2.56 2.572 2.56 2.56 0 0 0 2.56 2.571h12.272a5.14 5.14 0 0 0 4.455 2.571 5.141 5.141 0 0 0 4.5-2.65 2.577 2.577 0 0 0-.001-4.986 5.141 5.141 0 0 0-4.5-2.65 5.14 5.14 0 0 0-4.454 2.572zm4.455 6.429a3.857 3.857 0 1 0 0-7.715 3.857 3.857 0 0 0 0 7.715zm-17.357-19.207a2.577 2.577 0 0 0 0 4.986 5.141 5.141 0 0 0 4.5 2.65 5.14 5.14 0 0 0 4.454-2.572h12.272a2.571 2.571 0 0 0 2.56-2.572 2.56 2.56 0 0 0-2.56-2.571h-12.272a5.14 5.14 0 0 0-4.455-2.571 5.141 5.141 0 0 0-4.5 2.65zm4.5 6.35a3.857 3.857 0 1 0 0-7.715 3.857 3.857 0 0 0 0 7.715zM211.802 72.212a3.86 3.86 0 0 1 1.41-5.263l24.504-14.147a3.86 3.86 0 0 1 5.263 1.41l14.147 24.504a3.86 3.86 0 0 1-1.41 5.263l-24.504 14.147a3.86 3.86 0 0 1-5.263-1.41l-14.147-24.504zm26.3 5.606l-10.627 6.135a2.571 2.571 0 0 0-.931 3.507 2.56 2.56 0 0 0 3.502.947l10.627-6.136a5.14 5.14 0 0 0 5.144 0 5.141 5.141 0 0 0 2.572-4.546 2.577 2.577 0 0 0-2.494-4.317 5.141 5.141 0 0 0-5.22-.045 5.14 5.14 0 0 0-2.573 4.455zm7.072 3.34a3.857 3.857 0 1 0-3.857-6.681 3.857 3.857 0 0 0 3.857 6.68zm-24.634-7.955a2.577 2.577 0 0 0 2.493 4.317 5.141 5.141 0 0 0 5.22.045 5.14 5.14 0 0 0 2.573-4.454l10.627-6.136a2.571 2.571 0 0 0 .931-3.507 2.56 2.56 0 0 0-3.502-.947l-10.627 6.136a5.14 5.14 0 0 0-5.144 0 5.141 5.141 0 0 0-2.571 4.546zm7.071 3.248a3.857 3.857 0 1 0-3.857-6.68 3.857 3.857 0 0 0 3.857 6.68zM261.45 90.438a3.86 3.86 0 0 1 3.126-4.463l27.865-4.914a3.86 3.86 0 0 1 4.463 3.126l4.913 27.864a3.86 3.86 0 0 1-3.125 4.464l-27.865 4.913a3.86 3.86 0 0 1-4.463-3.125l-4.913-27.865zm22.797 14.262l-12.084 2.131a2.571 2.571 0 0 0-2.075 2.977 2.56 2.56 0 0 0 2.968 2.088l12.084-2.13a5.14 5.14 0 0 0 4.834 1.758 5.141 5.141 0 0 0 3.971-3.392 2.577 2.577 0 0 0-.866-4.91 5.141 5.141 0 0 0-4.891-1.827 5.14 5.14 0 0 0-3.94 3.305zm5.504 5.558a3.857 3.857 0 1 0-1.34-7.597 3.857 3.857 0 0 0 1.34 7.597zm-20.429-15.9a2.577 2.577 0 0 0 .867 4.909 5.141 5.141 0 0 0 4.89 1.828 5.14 5.14 0 0 0 3.941-3.306l12.085-2.131a2.571 2.571 0 0 0 2.074-2.977 2.56 2.56 0 0 0-2.967-2.088l-12.085 2.131a5.14 5.14 0 0 0-4.833-1.759 5.141 5.141 0 0 0-3.972 3.392zm5.534 5.47a3.857 3.857 0 1 0-1.34-7.597 3.857 3.857 0 0 0 1.34 7.598zM288.45 50.438a3.86 3.86 0 0 1 3.126-4.463l27.865-4.914a3.86 3.86 0 0 1 4.463 3.126l4.913 27.864a3.86 3.86 0 0 1-3.125 4.464l-27.865 4.913a3.86 3.86 0 0 1-4.463-3.125l-4.913-27.865zM311.248 64.7l-12.084 2.131a2.571 2.571 0 0 0-2.075 2.977 2.56 2.56 0 0 0 2.968 2.088l12.084-2.13a5.14 5.14 0 0 0 4.834 1.758 5.141 5.141 0 0 0 3.971-3.392 2.577 2.577 0 0 0-.866-4.91 5.141 5.141 0 0 0-4.891-1.827 5.14 5.14 0 0 0-3.94 3.305zm5.504 5.558a3.857 3.857 0 1 0-1.34-7.597 3.857 3.857 0 0 0 1.34 7.597zm-20.429-15.9a2.577 2.577 0 0 0 .867 4.909 5.141 5.141 0 0 0 4.89 1.828 5.14 5.14 0 0 0 3.941-3.306l12.085-2.131a2.571 2.571 0 0 0 2.074-2.977 2.56 2.56 0 0 0-2.967-2.088l-12.085 2.131a5.14 5.14 0 0 0-4.833-1.759 5.141 5.141 0 0 0-3.972 3.392zm5.534 5.47a3.857 3.857 0 1 0-1.34-7.597 3.857 3.857 0 0 0 1.34 7.598zM362.71 73.02a3.86 3.86 0 0 1 .852-5.382l22.89-16.631a3.86 3.86 0 0 1 5.382.852l16.631 22.891a3.86 3.86 0 0 1-.852 5.382l-22.891 16.63a3.86 3.86 0 0 1-5.381-.851L362.709 73.02zm26.741 2.825l-9.928 7.213a2.571 2.571 0 0 0-.559 3.585 2.56 2.56 0 0 0 3.582.576l9.928-7.213a5.14 5.14 0 0 0 5.116-.538 5.141 5.141 0 0 0 2.082-4.79 2.577 2.577 0 0 0-2.931-4.033 5.141 5.141 0 0 0-5.197.501 5.14 5.14 0 0 0-2.093 4.7zm7.383 2.583a3.857 3.857 0 1 0-4.535-6.241 3.857 3.857 0 0 0 4.535 6.24zm-25.331-5.336a2.577 2.577 0 0 0 2.93 4.032 5.141 5.141 0 0 0 5.198-.5 5.14 5.14 0 0 0 2.092-4.7l9.928-7.212a2.571 2.571 0 0 0 .56-3.585 2.56 2.56 0 0 0-3.583-.576l-9.928 7.213a5.14 5.14 0 0 0-5.115.538 5.141 5.141 0 0 0-2.082 4.79zm7.372 2.491a3.857 3.857 0 1 0-4.534-6.24 3.857 3.857 0 0 0 4.534 6.24zM454.338 50.036a3.86 3.86 0 0 1 5.086-1.953l25.849 11.509a3.86 3.86 0 0 1 1.952 5.086l-11.508 25.849a3.86 3.86 0 0 1-5.087 1.952l-25.848-11.508a3.86 3.86 0 0 1-1.953-5.087l11.509-25.848zm10.923 24.572l-11.21-4.992a2.571 2.571 0 0 0-3.384 1.308 2.56 2.56 0 0 0 1.292 3.39l11.21 4.992a5.14 5.14 0 0 0 3.025 4.16 5.141 5.141 0 0 0 5.189-.59 2.577 2.577 0 0 0 2.027-4.555 5.141 5.141 0 0 0-3.033-4.25 5.14 5.14 0 0 0-5.116.537zm1.455 7.684a3.857 3.857 0 1 0 3.138-7.047 3.857 3.857 0 0 0-3.138 7.047zm-8.044-24.605a2.577 2.577 0 0 0-2.027 4.555 5.141 5.141 0 0 0 3.032 4.25 5.14 5.14 0 0 0 5.116-.537l11.21 4.99a2.571 2.571 0 0 0 3.385-1.307 2.56 2.56 0 0 0-1.293-3.39l-11.21-4.992a5.14 5.14 0 0 0-3.024-4.16 5.141 5.141 0 0 0-5.19.59zm1.528 7.63a3.857 3.857 0 1 0 3.138-7.047 3.857 3.857 0 0 0-3.138 7.047zM499.742 72.9a3.86 3.86 0 0 1 4.112-3.574L532.08 71.3a3.86 3.86 0 0 1 3.574 4.112l-1.973 28.226a3.86 3.86 0 0 1-4.112 3.574l-28.226-1.973a3.86 3.86 0 0 1-3.575-4.112l1.974-28.226zm18.67 19.355l-12.242-.856a2.571 2.571 0 0 0-2.733 2.386 2.56 2.56 0 0 0 2.374 2.744l12.241.856a5.14 5.14 0 0 0 4.265 2.876 5.141 5.141 0 0 0 4.674-2.33 2.577 2.577 0 0 0 .347-4.974A5.141 5.141 0 0 0 523.034 90a5.14 5.14 0 0 0-4.623 2.255zm3.995 6.723a3.857 3.857 0 1 0 .538-7.695 3.857 3.857 0 0 0-.538 7.695zm-15.975-20.37a2.577 2.577 0 0 0-.347 4.974 5.141 5.141 0 0 0 4.303 2.956 5.14 5.14 0 0 0 4.623-2.254l12.242.856a2.571 2.571 0 0 0 2.732-2.387 2.56 2.56 0 0 0-2.373-2.743l-12.242-.856a5.14 5.14 0 0 0-4.264-2.876 5.141 5.141 0 0 0-4.674 2.33zm4.046 6.648a3.857 3.857 0 1 0 .538-7.696 3.857 3.857 0 0 0-.538 7.696zM555.71 94.02a3.86 3.86 0 0 1 .852-5.382l22.89-16.631a3.86 3.86 0 0 1 5.382.852l16.631 22.891a3.86 3.86 0 0 1-.852 5.382l-22.891 16.63a3.86 3.86 0 0 1-5.381-.851L555.709 94.02zm26.741 2.825l-9.928 7.213a2.571 2.571 0 0 0-.559 3.585 2.56 2.56 0 0 0 3.582.576l9.928-7.213a5.14 5.14 0 0 0 5.116-.538 5.141 5.141 0 0 0 2.082-4.79 2.577 2.577 0 0 0-2.931-4.033 5.141 5.141 0 0 0-5.197.501 5.14 5.14 0 0 0-2.093 4.7zm7.383 2.583a3.857 3.857 0 1 0-4.535-6.241 3.857 3.857 0 0 0 4.535 6.24zm-25.331-5.336a2.577 2.577 0 0 0 2.93 4.032 5.141 5.141 0 0 0 5.198-.5 5.14 5.14 0 0 0 2.092-4.7l9.928-7.212a2.571 2.571 0 0 0 .56-3.585 2.56 2.56 0 0 0-3.583-.576l-9.928 7.213a5.14 5.14 0 0 0-5.115.538 5.141 5.141 0 0 0-2.082 4.79zm7.372 2.491a3.857 3.857 0 1 0-4.534-6.24 3.857 3.857 0 0 0 4.534 6.24zM48.315 85.676a3.86 3.86 0 0 1 4.938-2.302L79.84 93.05a3.86 3.86 0 0 1 2.303 4.938l-9.678 26.588a3.86 3.86 0 0 1-4.937 2.303l-26.589-9.677a3.86 3.86 0 0 1-2.302-4.938l9.677-26.589zm12.611 23.75l-11.531-4.197a2.571 2.571 0 0 0-3.285 1.541 2.56 2.56 0 0 0 1.526 3.292l11.531 4.197a5.14 5.14 0 0 0 3.307 3.94c1.82.662 3.77.234 5.135-.952a2.577 2.577 0 0 0 1.704-4.685 5.141 5.141 0 0 0-3.321-4.028 5.14 5.14 0 0 0-5.066.892zm1.988 7.565a3.857 3.857 0 1 0 2.638-7.25 3.857 3.857 0 0 0-2.638 7.25zm-9.742-23.984a2.577 2.577 0 0 0-1.704 4.685 5.141 5.141 0 0 0 3.322 4.028 5.14 5.14 0 0 0 5.065-.893l11.531 4.197a2.571 2.571 0 0 0 3.285-1.54 2.56 2.56 0 0 0-1.526-3.292l-11.53-4.197a5.14 5.14 0 0 0-3.308-3.94 5.141 5.141 0 0 0-5.135.952zm2.057 7.505a3.857 3.857 0 1 0 2.639-7.25 3.857 3.857 0 0 0-2.639 7.25zM11.374 134.253a3.86 3.86 0 0 1 2.302-4.938l26.589-9.677a3.86 3.86 0 0 1 4.938 2.302l9.677 26.589a3.86 3.86 0 0 1-2.303 4.937l-26.588 9.678a3.86 3.86 0 0 1-4.938-2.303l-9.677-26.588zM36.3 144.34l-11.531 4.197a2.571 2.571 0 0 0-1.526 3.292 2.56 2.56 0 0 0 3.285 1.54l11.53-4.196a5.14 5.14 0 0 0 5.066.893 5.141 5.141 0 0 0 3.322-4.03 2.577 2.577 0 0 0-1.706-4.685 5.141 5.141 0 0 0-5.134-.95 5.14 5.14 0 0 0-3.306 3.94zm6.385 4.517a3.857 3.857 0 1 0-2.639-7.249 3.857 3.857 0 0 0 2.639 7.25zm-22.88-12.111a2.577 2.577 0 0 0 1.706 4.684 5.141 5.141 0 0 0 5.134.951 5.14 5.14 0 0 0 3.307-3.94l11.531-4.197a2.571 2.571 0 0 0 1.526-3.292 2.56 2.56 0 0 0-3.285-1.54l-11.531 4.197a5.14 5.14 0 0 0-5.066-.893 5.141 5.141 0 0 0-3.322 4.03zm6.4 4.427a3.857 3.857 0 1 0-2.638-7.249 3.857 3.857 0 0 0 2.638 7.249zM74 129.853A3.86 3.86 0 0 1 77.853 126h28.294a3.86 3.86 0 0 1 3.853 3.853v28.294a3.86 3.86 0 0 1-3.853 3.853H77.853A3.86 3.86 0 0 1 74 158.147v-28.294zm19.974 18.004H81.702a2.571 2.571 0 0 0-2.56 2.572 2.56 2.56 0 0 0 2.56 2.571h12.272a5.14 5.14 0 0 0 4.455 2.571 5.141 5.141 0 0 0 4.5-2.65 2.577 2.577 0 0 0-.001-4.986 5.141 5.141 0 0 0-4.5-2.65 5.14 5.14 0 0 0-4.454 2.572zm4.455 6.429a3.857 3.857 0 1 0 0-7.715 3.857 3.857 0 0 0 0 7.715zm-17.357-19.207a2.577 2.577 0 0 0 0 4.986 5.141 5.141 0 0 0 4.5 2.65 5.14 5.14 0 0 0 4.454-2.572h12.272a2.571 2.571 0 0 0 2.56-2.572 2.56 2.56 0 0 0-2.56-2.571H90.026a5.14 5.14 0 0 0-4.455-2.571 5.141 5.141 0 0 0-4.5 2.65zm4.5 6.35a3.857 3.857 0 1 0 0-7.715 3.857 3.857 0 0 0 0 7.715zM131.315 107.676a3.86 3.86 0 0 1 4.938-2.302l26.588 9.677a3.86 3.86 0 0 1 2.303 4.938l-9.678 26.588a3.86 3.86 0 0 1-4.937 2.303l-26.589-9.677a3.86 3.86 0 0 1-2.302-4.938l9.677-26.589zm12.611 23.75l-11.531-4.197a2.571 2.571 0 0 0-3.285 1.541 2.56 2.56 0 0 0 1.526 3.292l11.531 4.197a5.14 5.14 0 0 0 3.307 3.94c1.82.662 3.77.234 5.135-.952a2.577 2.577 0 0 0 1.704-4.685 5.141 5.141 0 0 0-3.321-4.028 5.14 5.14 0 0 0-5.066.892zm1.988 7.565a3.857 3.857 0 1 0 2.638-7.25 3.857 3.857 0 0 0-2.638 7.25zm-9.742-23.984a2.577 2.577 0 0 0-1.704 4.685 5.141 5.141 0 0 0 3.322 4.028 5.14 5.14 0 0 0 5.065-.893l11.531 4.197a2.571 2.571 0 0 0 3.285-1.54 2.56 2.56 0 0 0-1.526-3.292l-11.53-4.197a5.14 5.14 0 0 0-3.308-3.94 5.141 5.141 0 0 0-5.135.952zm2.057 7.505a3.857 3.857 0 1 0 2.639-7.25 3.857 3.857 0 0 0-2.639 7.25zM185.315 99.676a3.86 3.86 0 0 1 4.938-2.302l26.588 9.677a3.86 3.86 0 0 1 2.303 4.938l-9.678 26.588a3.86 3.86 0 0 1-4.937 2.303l-26.589-9.677a3.86 3.86 0 0 1-2.302-4.938l9.677-26.589zm12.611 23.75l-11.531-4.197a2.571 2.571 0 0 0-3.285 1.541 2.56 2.56 0 0 0 1.526 3.292l11.531 4.197a5.14 5.14 0 0 0 3.307 3.94c1.82.662 3.77.234 5.135-.952a2.577 2.577 0 0 0 1.704-4.685 5.141 5.141 0 0 0-3.321-4.028 5.14 5.14 0 0 0-5.066.892zm1.988 7.565a3.857 3.857 0 1 0 2.638-7.25 3.857 3.857 0 0 0-2.638 7.25zm-9.742-23.984a2.577 2.577 0 0 0-1.704 4.685 5.141 5.141 0 0 0 3.322 4.028 5.14 5.14 0 0 0 5.065-.893l11.531 4.197a2.571 2.571 0 0 0 3.285-1.54 2.56 2.56 0 0 0-1.526-3.292l-11.53-4.197a5.14 5.14 0 0 0-3.308-3.94 5.141 5.141 0 0 0-5.135.952zm2.057 7.505a3.857 3.857 0 1 0 2.639-7.25 3.857 3.857 0 0 0-2.639 7.25z"/><path d="M171.802 157.212a3.86 3.86 0 0 1 1.41-5.263l24.504-14.147a3.86 3.86 0 0 1 5.263 1.41l14.147 24.504a3.86 3.86 0 0 1-1.41 5.263l-24.504 14.147a3.86 3.86 0 0 1-5.263-1.41l-14.147-24.504zm26.3 5.606l-10.627 6.135a2.571 2.571 0 0 0-.931 3.507 2.56 2.56 0 0 0 3.502.947l10.627-6.136a5.14 5.14 0 0 0 5.144 0 5.141 5.141 0 0 0 2.572-4.546 2.577 2.577 0 0 0-2.494-4.317 5.141 5.141 0 0 0-5.22-.045 5.14 5.14 0 0 0-2.573 4.455zm7.072 3.34a3.857 3.857 0 1 0-3.857-6.681 3.857 3.857 0 0 0 3.857 6.68zm-24.634-7.955a2.577 2.577 0 0 0 2.493 4.317 5.141 5.141 0 0 0 5.22.045 5.14 5.14 0 0 0 2.573-4.454l10.627-6.136a2.571 2.571 0 0 0 .931-3.507 2.56 2.56 0 0 0-3.502-.947l-10.627 6.136a5.14 5.14 0 0 0-5.144 0 5.141 5.141 0 0 0-2.571 4.546zm7.071 3.248a3.857 3.857 0 1 0-3.857-6.68 3.857 3.857 0 0 0 3.857 6.68zM231.802 139.212a3.86 3.86 0 0 1 1.41-5.263l24.504-14.147a3.86 3.86 0 0 1 5.263 1.41l14.147 24.504a3.86 3.86 0 0 1-1.41 5.263l-24.504 14.147a3.86 3.86 0 0 1-5.263-1.41l-14.147-24.504zm26.3 5.606l-10.627 6.135a2.571 2.571 0 0 0-.931 3.507 2.56 2.56 0 0 0 3.502.947l10.627-6.136a5.14 5.14 0 0 0 5.144 0 5.141 5.141 0 0 0 2.572-4.546 2.577 2.577 0 0 0-2.494-4.317 5.141 5.141 0 0 0-5.22-.045 5.14 5.14 0 0 0-2.573 4.455zm7.072 3.34a3.857 3.857 0 1 0-3.857-6.681 3.857 3.857 0 0 0 3.857 6.68zm-24.634-7.955a2.577 2.577 0 0 0 2.493 4.317 5.141 5.141 0 0 0 5.22.045 5.14 5.14 0 0 0 2.573-4.454l10.627-6.136a2.571 2.571 0 0 0 .931-3.507 2.56 2.56 0 0 0-3.502-.947l-10.627 6.136a5.14 5.14 0 0 0-5.144 0 5.141 5.141 0 0 0-2.571 4.546zm7.071 3.248a3.857 3.857 0 1 0-3.857-6.68 3.857 3.857 0 0 0 3.857 6.68zM302.774 122.753a3.86 3.86 0 0 1 5.428.475l18.188 21.675a3.86 3.86 0 0 1-.475 5.427l-21.675 18.188a3.86 3.86 0 0 1-5.428-.475l-18.188-21.675a3.86 3.86 0 0 1 .475-5.428l21.675-18.187zm-.953 26.874l-7.888-9.4a2.571 2.571 0 0 0-3.615-.309 2.56 2.56 0 0 0-.325 3.614l7.888 9.4a5.14 5.14 0 0 0 .894 5.066 5.141 5.141 0 0 0 4.923 1.743 2.577 2.577 0 0 0 3.819-3.205 5.141 5.141 0 0 0-.863-5.15 5.14 5.14 0 0 0-4.833-1.76zm-2.061 7.544a3.857 3.857 0 1 0 5.91-4.958 3.857 3.857 0 0 0-5.91 4.958zm3.556-25.641a2.577 2.577 0 0 0-3.819 3.205 5.141 5.141 0 0 0 .863 5.15 5.14 5.14 0 0 0 4.833 1.759l7.888 9.4a2.571 2.571 0 0 0 3.615.308 2.56 2.56 0 0 0 .325-3.613l-7.888-9.4a5.14 5.14 0 0 0-.894-5.066 5.141 5.141 0 0 0-4.923-1.743zm-1.971 7.528a3.857 3.857 0 1 0 5.91-4.959 3.857 3.857 0 0 0-5.91 4.959zM317.228 104.202a3.86 3.86 0 0 1-.475-5.428L334.94 77.1a3.86 3.86 0 0 1 5.428-.475l21.675 18.188a3.86 3.86 0 0 1 .475 5.428l-18.188 21.675a3.86 3.86 0 0 1-5.427.475l-21.675-18.188zm26.63-3.728l-7.887 9.4a2.571 2.571 0 0 0 .324 3.614 2.56 2.56 0 0 0 3.616-.308l7.887-9.4a5.14 5.14 0 0 0 4.834-1.76 5.141 5.141 0 0 0 .862-5.15 2.577 2.577 0 0 0-3.82-3.205 5.141 5.141 0 0 0-4.922 1.744 5.14 5.14 0 0 0-.893 5.065zm7.789.72a3.857 3.857 0 1 0-5.91-4.959 3.857 3.857 0 0 0 5.91 4.959zm-25.87.95a2.577 2.577 0 0 0 3.82 3.205 5.141 5.141 0 0 0 4.921-1.744 5.14 5.14 0 0 0 .894-5.065l7.888-9.4a2.571 2.571 0 0 0-.325-3.614 2.56 2.56 0 0 0-3.615.308l-7.888 9.4a5.14 5.14 0 0 0-4.833 1.76 5.141 5.141 0 0 0-.862 5.15zm7.756.635a3.857 3.857 0 1 0-5.91-4.959 3.857 3.857 0 0 0 5.91 4.959zM366.338 112.036a3.86 3.86 0 0 1 5.086-1.953l25.849 11.509a3.86 3.86 0 0 1 1.952 5.086l-11.508 25.849a3.86 3.86 0 0 1-5.087 1.952l-25.848-11.508a3.86 3.86 0 0 1-1.953-5.087l11.509-25.848zm10.923 24.572l-11.21-4.992a2.571 2.571 0 0 0-3.384 1.308 2.56 2.56 0 0 0 1.292 3.39l11.21 4.992a5.14 5.14 0 0 0 3.025 4.16 5.141 5.141 0 0 0 5.189-.59 2.577 2.577 0 0 0 2.027-4.555 5.141 5.141 0 0 0-3.033-4.25 5.14 5.14 0 0 0-5.116.537zm1.455 7.684a3.857 3.857 0 1 0 3.138-7.047 3.857 3.857 0 0 0-3.138 7.047zm-8.044-24.605a2.577 2.577 0 0 0-2.027 4.555 5.141 5.141 0 0 0 3.032 4.25 5.14 5.14 0 0 0 5.116-.537l11.21 4.99a2.571 2.571 0 0 0 3.385-1.307 2.56 2.56 0 0 0-1.293-3.39l-11.21-4.992a5.14 5.14 0 0 0-3.024-4.16 5.141 5.141 0 0 0-5.19.59zm1.528 7.63a3.857 3.857 0 1 0 3.138-7.047 3.857 3.857 0 0 0-3.138 7.047zM417.338 88.036a3.86 3.86 0 0 1 5.086-1.953l25.849 11.509a3.86 3.86 0 0 1 1.952 5.086l-11.508 25.849a3.86 3.86 0 0 1-5.087 1.952l-25.848-11.508a3.86 3.86 0 0 1-1.953-5.087l11.509-25.848zm10.923 24.572l-11.21-4.992a2.571 2.571 0 0 0-3.384 1.308 2.56 2.56 0 0 0 1.292 3.39l11.21 4.992a5.14 5.14 0 0 0 3.025 4.16 5.141 5.141 0 0 0 5.189-.59 2.577 2.577 0 0 0 2.027-4.555 5.141 5.141 0 0 0-3.033-4.25 5.14 5.14 0 0 0-5.116.537zm1.455 7.684a3.857 3.857 0 1 0 3.138-7.047 3.857 3.857 0 0 0-3.138 7.047zm-8.044-24.605a2.577 2.577 0 0 0-2.027 4.555 5.141 5.141 0 0 0 3.032 4.25 5.14 5.14 0 0 0 5.116-.537l11.21 4.99a2.571 2.571 0 0 0 3.385-1.307 2.56 2.56 0 0 0-1.293-3.39l-11.21-4.992a5.14 5.14 0 0 0-3.024-4.16 5.141 5.141 0 0 0-5.19.59zm1.528 7.63a3.857 3.857 0 1 0 3.138-7.047 3.857 3.857 0 0 0-3.138 7.047zM421.983 137.969a3.86 3.86 0 0 1 5.152 1.773l12.403 25.432a3.86 3.86 0 0 1-1.773 5.151l-25.432 12.404a3.86 3.86 0 0 1-5.151-1.774l-12.404-25.431a3.86 3.86 0 0 1 1.774-5.152l25.431-12.403zm-7.426 25.845l-5.38-11.03a2.571 2.571 0 0 0-3.433-1.173 2.56 2.56 0 0 0-1.189 3.428l5.38 11.029a5.14 5.14 0 0 0-.359 5.131 5.141 5.141 0 0 0 4.355 2.883 2.577 2.577 0 0 0 4.48-2.187 5.141 5.141 0 0 0 .41-5.205 5.14 5.14 0 0 0-4.264-2.876zm-3.825 6.822a3.857 3.857 0 1 0 6.933-3.382 3.857 3.857 0 0 0-6.933 3.382zm9.653-24.02a2.577 2.577 0 0 0-4.48 2.186 5.141 5.141 0 0 0-.41 5.205 5.14 5.14 0 0 0 4.265 2.877l5.38 11.03a2.571 2.571 0 0 0 3.432 1.172 2.56 2.56 0 0 0 1.19-3.427l-5.38-11.03a5.14 5.14 0 0 0 .359-5.13 5.141 5.141 0 0 0-4.356-2.883zm-3.734 6.827a3.857 3.857 0 1 0 6.934-3.381 3.857 3.857 0 0 0-6.934 3.381zM455.71 125.02a3.86 3.86 0 0 1 .852-5.382l22.89-16.631a3.86 3.86 0 0 1 5.382.852l16.631 22.891a3.86 3.86 0 0 1-.852 5.382l-22.891 16.63a3.86 3.86 0 0 1-5.381-.851l-16.632-22.891zm26.741 2.825l-9.928 7.213a2.571 2.571 0 0 0-.559 3.585 2.56 2.56 0 0 0 3.582.576l9.928-7.213a5.14 5.14 0 0 0 5.116-.538 5.141 5.141 0 0 0 2.082-4.79 2.577 2.577 0 0 0-2.931-4.033 5.141 5.141 0 0 0-5.197.501 5.14 5.14 0 0 0-2.093 4.7zm7.383 2.583a3.857 3.857 0 1 0-4.535-6.241 3.857 3.857 0 0 0 4.535 6.24zm-25.331-5.336a2.577 2.577 0 0 0 2.93 4.032 5.141 5.141 0 0 0 5.198-.5 5.14 5.14 0 0 0 2.092-4.7l9.928-7.212a2.571 2.571 0 0 0 .56-3.585 2.56 2.56 0 0 0-3.583-.576l-9.928 7.213a5.14 5.14 0 0 0-5.115.538 5.141 5.141 0 0 0-2.082 4.79zm7.372 2.491a3.857 3.857 0 1 0-4.534-6.24 3.857 3.857 0 0 0 4.534 6.24zM515.71 134.02a3.86 3.86 0 0 1 .852-5.382l22.89-16.631a3.86 3.86 0 0 1 5.382.852l16.631 22.891a3.86 3.86 0 0 1-.852 5.382l-22.891 16.63a3.86 3.86 0 0 1-5.381-.851l-16.632-22.891zm26.741 2.825l-9.928 7.213a2.571 2.571 0 0 0-.559 3.585 2.56 2.56 0 0 0 3.582.576l9.928-7.213a5.14 5.14 0 0 0 5.116-.538 5.141 5.141 0 0 0 2.082-4.79 2.577 2.577 0 0 0-2.931-4.033 5.141 5.141 0 0 0-5.197.501 5.14 5.14 0 0 0-2.093 4.7zm7.383 2.583a3.857 3.857 0 1 0-4.535-6.241 3.857 3.857 0 0 0 4.535 6.24zm-25.331-5.336a2.577 2.577 0 0 0 2.93 4.032 5.141 5.141 0 0 0 5.198-.5 5.14 5.14 0 0 0 2.092-4.7l9.928-7.212a2.571 2.571 0 0 0 .56-3.585 2.56 2.56 0 0 0-3.583-.576l-9.928 7.213a5.14 5.14 0 0 0-5.115.538 5.141 5.141 0 0 0-2.082 4.79zm7.372 2.491a3.857 3.857 0 1 0-4.534-6.24 3.857 3.857 0 0 0 4.534 6.24z"/></g></svg>