<svg xmlns="http://www.w3.org/2000/svg" viewBox="0 0 605 180"><title>twitter-alt</title><g fill-rule="evenodd"><path d="M50.464 37.053c8.61-4.971 11.56-15.98 6.589-24.589-4.971-8.61-15.98-11.559-24.589-6.588-8.61 4.97-11.559 15.979-6.588 24.588 4.97 8.61 15.979 11.56 24.588 6.589zm-2.453-28.25a9.845 9.845 0 0 1-2.062 2.086 4.939 4.939 0 0 0 .513-3.442 9.861 9.861 0 0 1-2.11 2.598 4.924 4.924 0 0 0-5.021 8.084 13.979 13.979 0 0 1-11.362.62 4.9 4.9 0 0 0 .66 2.477 4.922 4.922 0 0 0 3.947 2.454c-.712.381-1.48.57-2.24.582l.031.054a4.927 4.927 0 0 0 5.835 2.206 4.93 4.93 0 0 1-1.884 1.185 4.929 4.929 0 0 0 5.693.661 9.88 9.88 0 0 1-4.242 4.883c-.344.199-.695.375-1.051.528 2.585.12 5.234-.468 7.642-1.858 7.844-4.529 8.381-13.502 5.128-19.137a14.198 14.198 0 0 0-.33-.545c.485-1.082.775-2.25.853-3.436zM75.119 72.36c9.79 1.727 19.126-4.81 20.852-14.6 1.726-9.79-4.81-19.126-14.6-20.853-9.79-1.726-19.127 4.811-20.853 14.601-1.726 9.79 4.81 19.126 14.601 20.852zm16.279-23.217a9.845 9.845 0 0 1-2.92.273 4.939 4.939 0 0 0 2.605-2.307 9.861 9.861 0 0 1-3.286.634 4.924 4.924 0 0 0-9.043 2.966 13.979 13.979 0 0 1-9.102-6.83 4.9 4.9 0 0 0-1.086 2.323 4.922 4.922 0 0 0 1.446 4.416 4.904 4.904 0 0 1-2.09-.994l-.011.061a4.927 4.927 0 0 0 3.051 5.44 4.93 4.93 0 0 1-2.204-.302 4.929 4.929 0 0 0 3.936 4.166 9.88 9.88 0 0 1-6.388 1.014c-.392-.07-.774-.16-1.145-.272a13.937 13.937 0 0 0 7.049 3.49c8.919 1.572 15.1-4.957 16.229-11.365.037-.21.07-.42.097-.63a10.008 10.008 0 0 0 2.862-2.083zM140.464 46.053c8.61-4.971 11.56-15.98 6.589-24.589-4.971-8.61-15.98-11.559-24.589-6.588-8.61 4.97-11.559 15.979-6.588 24.588 4.97 8.61 15.979 11.56 24.588 6.589zm-2.453-28.25a9.845 9.845 0 0 1-2.062 2.086 4.939 4.939 0 0 0 .513-3.442 9.861 9.861 0 0 1-2.11 2.598 4.924 4.924 0 0 0-5.021 8.084 13.979 13.979 0 0 1-11.362.62 4.9 4.9 0 0 0 .66 2.477 4.922 4.922 0 0 0 3.947 2.454c-.712.381-1.48.57-2.24.582l.031.054a4.927 4.927 0 0 0 5.835 2.206 4.93 4.93 0 0 1-1.884 1.185 4.929 4.929 0 0 0 5.693.661 9.88 9.88 0 0 1-4.242 4.883c-.344.199-.695.375-1.051.528 2.585.12 5.234-.468 7.642-1.858 7.844-4.529 8.381-13.502 5.128-19.137a14.198 14.198 0 0 0-.33-.545c.485-1.082.775-2.25.853-3.436zM192.234 52.041c9.342 3.4 19.671-1.416 23.071-10.758 3.4-9.341-1.416-19.67-10.758-23.07-9.342-3.4-19.67 1.416-23.07 10.757-3.4 9.342 1.416 19.671 10.757 23.071zm20.064-20.037a9.845 9.845 0 0 1-2.923-.239 4.939 4.939 0 0 0 2.966-1.82 9.861 9.861 0 0 1-3.347.054 4.924 4.924 0 0 0-9.42 1.35 13.979 13.979 0 0 1-7.778-8.305 4.9 4.9 0 0 0-1.473 2.098 4.922 4.922 0 0 0 .657 4.6 4.904 4.904 0 0 1-1.885-1.341l-.022.058a4.927 4.927 0 0 0 2.06 5.888 4.93 4.93 0 0 1-2.118-.682 4.929 4.929 0 0 0 3.153 4.787 9.88 9.88 0 0 1-6.467-.111 10.017 10.017 0 0 1-1.08-.466 13.937 13.937 0 0 0 6.336 4.66c8.51 3.097 15.73-2.259 17.955-8.373.074-.2.142-.402.205-.603a10.008 10.008 0 0 0 3.18-1.555zM271.464 43.053c8.61-4.971 11.56-15.98 6.589-24.589-4.971-8.61-15.98-11.559-24.589-6.588-8.61 4.97-11.559 15.979-6.588 24.588 4.97 8.61 15.979 11.56 24.588 6.589zm-2.453-28.25a9.845 9.845 0 0 1-2.062 2.086 4.939 4.939 0 0 0 .513-3.442 9.861 9.861 0 0 1-2.11 2.598 4.924 4.924 0 0 0-5.021 8.084 13.979 13.979 0 0 1-11.362.62 4.9 4.9 0 0 0 .66 2.477 4.922 4.922 0 0 0 3.947 2.454c-.712.381-1.48.57-2.24.582l.031.054a4.927 4.927 0 0 0 5.835 2.206 4.93 4.93 0 0 1-1.884 1.185 4.929 4.929 0 0 0 5.693.661 9.88 9.88 0 0 1-4.242 4.883c-.344.199-.695.375-1.051.528 2.585.12 5.234-.468 7.642-1.858 7.844-4.529 8.381-13.502 5.128-19.137a14.198 14.198 0 0 0-.33-.545c.485-1.082.775-2.25.853-3.436zM346.098 51.918c8.521 5.12 19.58 2.363 24.7-6.158 5.12-8.522 2.362-19.58-6.159-24.7-8.521-5.12-19.58-2.363-24.7 6.158-5.12 8.521-2.362 19.58 6.159 24.7zm23.518-15.841a9.845 9.845 0 0 1-2.824-.792 4.939 4.939 0 0 0 3.26-1.22 9.861 9.861 0 0 1-3.296-.586 4.924 4.924 0 0 0-9.505-.472 13.979 13.979 0 0 1-6.05-9.637 4.9 4.9 0 0 0-1.847 1.778 4.922 4.922 0 0 0-.233 4.641 4.904 4.904 0 0 1-1.594-1.676l-.032.053a4.927 4.927 0 0 0 .899 6.172 4.93 4.93 0 0 1-1.95-1.073c-.47 2 .355 4.157 2.182 5.3a9.88 9.88 0 0 1-6.328-1.343c-.34-.204-.664-.426-.971-.663a13.937 13.937 0 0 0 5.33 5.783c7.764 4.665 15.873.784 19.224-4.793.11-.183.215-.367.316-.553 1.182-.1 2.344-.413 3.419-.92zM441.604 47.405c6.906-7.15 6.707-18.546-.444-25.452-7.151-6.906-18.546-6.707-25.452.444-6.906 7.151-6.707 18.547.444 25.452 7.151 6.906 18.546 6.707 25.452-.444zM431.46 20.926a9.845 9.845 0 0 1-1.406 2.573 4.939 4.939 0 0 0-.456-3.45 9.861 9.861 0 0 1-1.313 3.08 4.924 4.924 0 0 0-2.598 9.155 13.979 13.979 0 0 1-10.75 3.727 4.9 4.9 0 0 0 1.317 2.2 4.922 4.922 0 0 0 4.47 1.27 4.904 4.904 0 0 1-1.992 1.177l.044.043a4.927 4.927 0 0 0 6.217.513 4.93 4.93 0 0 1-1.484 1.658 4.929 4.929 0 0 0 5.654-.934 9.88 9.88 0 0 1-2.731 5.863c-.276.286-.565.552-.866.798a13.937 13.937 0 0 0 6.835-3.893c6.291-6.515 4.335-15.29-.346-19.81-.153-.148-.31-.292-.468-.432a10.008 10.008 0 0 0-.127-3.538zM519.167 40.447c8.043-5.843 9.826-17.1 3.983-25.142-5.844-8.043-17.1-9.826-25.143-3.982-8.042 5.843-9.825 17.1-3.982 25.142 5.843 8.043 17.1 9.825 25.142 3.982zm-5.392-27.838a9.845 9.845 0 0 1-1.833 2.29c.465-1.09.53-2.33.15-3.477a9.861 9.861 0 0 1-1.826 2.805 4.924 4.924 0 0 0-4.148 8.565 13.979 13.979 0 0 1-11.235 1.803 4.9 4.9 0 0 0 .915 2.395 4.922 4.922 0 0 0 4.181 2.028 4.904 4.904 0 0 1-2.166.812l.036.05a4.927 4.927 0 0 0 6.033 1.585 4.93 4.93 0 0 1-1.749 1.375 4.929 4.929 0 0 0 5.731.063 9.88 9.88 0 0 1-3.708 5.3c-.322.233-.653.445-.991.635a13.937 13.937 0 0 0 7.407-2.647c7.327-5.324 6.923-14.305 3.099-19.569a14.198 14.198 0 0 0-.386-.507c.37-1.127.536-2.319.49-3.506zM544.014 65.476c8.241 5.559 19.429 3.384 24.988-4.858 5.56-8.241 3.384-19.429-4.857-24.988-8.242-5.559-19.43-3.384-24.988 4.857-5.56 8.242-3.385 19.43 4.857 24.989zm24.315-14.589a9.845 9.845 0 0 1-2.778-.939c1.183.064 2.37-.3 3.318-1.047a9.861 9.861 0 0 1-3.26-.758 4.924 4.924 0 0 0-9.467-.969 13.979 13.979 0 0 1-5.538-9.94 4.9 4.9 0 0 0-1.937 1.68 4.922 4.922 0 0 0-.476 4.622 4.904 4.904 0 0 1-1.504-1.758l-.035.051a4.927 4.927 0 0 0 .575 6.211 4.93 4.93 0 0 1-1.891-1.173 4.929 4.929 0 0 0 1.901 5.407 9.88 9.88 0 0 1-6.248-1.672c-.33-.223-.642-.461-.936-.714a13.937 13.937 0 0 0 5.02 6.054c7.51 5.065 15.81 1.614 19.45-3.78.118-.177.233-.356.343-.536a10.008 10.008 0 0 0 3.463-.739zM16.234 93.041c9.342 3.4 19.671-1.416 23.071-10.758 3.4-9.341-1.416-19.67-10.758-23.07-9.342-3.4-19.67 1.416-23.07 10.757-3.4 9.342 1.416 19.671 10.757 23.071zm20.064-20.037a9.845 9.845 0 0 1-2.923-.239 4.939 4.939 0 0 0 2.966-1.82 9.861 9.861 0 0 1-3.347.054 4.924 4.924 0 0 0-9.42 1.35 13.979 13.979 0 0 1-7.778-8.305 4.9 4.9 0 0 0-1.473 2.098 4.922 4.922 0 0 0 .657 4.6 4.904 4.904 0 0 1-1.885-1.341l-.022.058a4.927 4.927 0 0 0 2.06 5.888 4.93 4.93 0 0 1-2.118-.682 4.929 4.929 0 0 0 3.153 4.787A9.88 9.88 0 0 1 9.7 79.34a10.017 10.017 0 0 1-1.08-.466 13.937 13.937 0 0 0 6.336 4.66c8.51 3.097 15.73-2.259 17.955-8.373.074-.2.142-.402.205-.603a10.008 10.008 0 0 0 3.18-1.555zM130.464 101.053c8.61-4.971 11.56-15.98 6.589-24.589-4.971-8.61-15.98-11.559-24.589-6.588-8.61 4.97-11.559 15.979-6.588 24.588 4.97 8.61 15.979 11.56 24.588 6.589zm-2.453-28.25a9.845 9.845 0 0 1-2.062 2.086 4.939 4.939 0 0 0 .513-3.442 9.861 9.861 0 0 1-2.11 2.598 4.924 4.924 0 0 0-5.021 8.084 13.979 13.979 0 0 1-11.362.62 4.9 4.9 0 0 0 .66 2.477 4.922 4.922 0 0 0 3.947 2.454c-.712.381-1.48.57-2.24.582l.031.054a4.927 4.927 0 0 0 5.835 2.206 4.93 4.93 0 0 1-1.884 1.185 4.929 4.929 0 0 0 5.693.661 9.88 9.88 0 0 1-4.242 4.883c-.344.199-.695.375-1.051.528 2.585.12 5.234-.468 7.642-1.858 7.844-4.529 8.381-13.502 5.128-19.137a14.198 14.198 0 0 0-.33-.545c.485-1.082.775-2.25.853-3.436zM171 95c9.941 0 18-8.059 18-18s-8.059-18-18-18-18 8.059-18 18 8.059 18 18 18zm12-25.691a9.845 9.845 0 0 1-2.828.775 4.939 4.939 0 0 0 2.165-2.724 9.861 9.861 0 0 1-3.127 1.195 4.924 4.924 0 0 0-8.39 4.49 13.979 13.979 0 0 1-10.15-5.144 4.9 4.9 0 0 0-.666 2.476c0 1.708.87 3.215 2.19 4.098a4.904 4.904 0 0 1-2.23-.616v.062a4.927 4.927 0 0 0 3.95 4.828 4.93 4.93 0 0 1-2.224.084 4.929 4.929 0 0 0 4.6 3.42 9.88 9.88 0 0 1-6.115 2.107c-.398 0-.79-.023-1.175-.068a13.937 13.937 0 0 0 7.548 2.212c9.057 0 14.01-7.503 14.01-14.01 0-.213-.005-.425-.015-.636a10.008 10.008 0 0 0 2.457-2.55zM243.464 91.053c8.61-4.971 11.56-15.98 6.589-24.589-4.971-8.61-15.98-11.559-24.589-6.588-8.61 4.97-11.559 15.979-6.588 24.588 4.97 8.61 15.979 11.56 24.588 6.589zm-2.453-28.25a9.845 9.845 0 0 1-2.062 2.086 4.939 4.939 0 0 0 .513-3.442 9.861 9.861 0 0 1-2.11 2.598 4.924 4.924 0 0 0-5.021 8.084 13.979 13.979 0 0 1-11.362.62 4.9 4.9 0 0 0 .66 2.477 4.922 4.922 0 0 0 3.947 2.454c-.712.381-1.48.57-2.24.582l.031.054a4.927 4.927 0 0 0 5.835 2.206 4.93 4.93 0 0 1-1.884 1.185 4.929 4.929 0 0 0 5.693.661 9.88 9.88 0 0 1-4.242 4.883c-.344.199-.695.375-1.051.528 2.585.12 5.234-.468 7.642-1.858 7.844-4.529 8.381-13.502 5.128-19.137a14.198 14.198 0 0 0-.33-.545c.485-1.082.775-2.25.853-3.436zM284.76 118.971c9.79-1.726 16.327-11.062 14.6-20.852-1.726-9.79-11.062-16.327-20.852-14.6-9.79 1.725-16.327 11.061-14.6 20.851 1.726 9.79 11.061 16.327 20.851 14.601zm7.356-27.384a9.845 9.845 0 0 1-2.65 1.254 4.939 4.939 0 0 0 1.659-3.058 9.861 9.861 0 0 1-2.872 1.72 4.924 4.924 0 0 0-7.483 5.88 13.979 13.979 0 0 1-10.888-3.305 4.9 4.9 0 0 0-.227 2.553 4.922 4.922 0 0 0 2.869 3.656c-.8.115-1.586.029-2.304-.22l.01.062a4.927 4.927 0 0 0 4.729 4.069 4.93 4.93 0 0 1-2.175.469 4.929 4.929 0 0 0 5.123 2.569 9.88 9.88 0 0 1-5.656 3.137c-.391.07-.781.114-1.169.136a13.937 13.937 0 0 0 7.818.868c8.919-1.572 12.493-9.821 11.364-16.229-.038-.21-.08-.418-.125-.625.827-.85 1.498-1.85 1.977-2.936zM311.76 78.971c9.79-1.726 16.327-11.062 14.6-20.852-1.726-9.79-11.062-16.327-20.852-14.6-9.79 1.725-16.327 11.061-14.6 20.851 1.726 9.79 11.061 16.327 20.851 14.601zm7.356-27.384a9.845 9.845 0 0 1-2.65 1.254 4.939 4.939 0 0 0 1.659-3.058 9.861 9.861 0 0 1-2.872 1.72 4.924 4.924 0 0 0-7.483 5.88 13.979 13.979 0 0 1-10.888-3.305 4.9 4.9 0 0 0-.227 2.553 4.922 4.922 0 0 0 2.869 3.656c-.8.115-1.586.029-2.304-.22l.01.062a4.927 4.927 0 0 0 4.729 4.069 4.93 4.93 0 0 1-2.175.469 4.929 4.929 0 0 0 5.123 2.569 9.88 9.88 0 0 1-5.656 3.137c-.391.07-.781.114-1.169.136a13.937 13.937 0 0 0 7.818.868c8.919-1.572 12.493-9.821 11.364-16.229-.038-.21-.08-.418-.125-.625.827-.85 1.498-1.85 1.977-2.936zM396.167 88.447c8.043-5.843 9.826-17.1 3.983-25.142-5.844-8.043-17.1-9.826-25.143-3.982-8.042 5.843-9.825 17.1-3.982 25.142 5.843 8.043 17.1 9.825 25.142 3.982zm-5.392-27.838a9.845 9.845 0 0 1-1.833 2.29c.465-1.09.53-2.33.15-3.477a9.861 9.861 0 0 1-1.826 2.805 4.924 4.924 0 0 0-4.148 8.565 13.979 13.979 0 0 1-11.235 1.803 4.9 4.9 0 0 0 .915 2.395 4.922 4.922 0 0 0 4.181 2.028 4.904 4.904 0 0 1-2.166.812l.036.05a4.927 4.927 0 0 0 6.033 1.585 4.93 4.93 0 0 1-1.749 1.375 4.929 4.929 0 0 0 5.731.063 9.88 9.88 0 0 1-3.708 5.3c-.322.233-.653.445-.991.635a13.937 13.937 0 0 0 7.407-2.647c7.327-5.324 6.923-14.305 3.099-19.569a14.198 14.198 0 0 0-.386-.507c.37-1.127.536-2.319.49-3.506zM457.706 86.725c9.082 4.043 19.722-.04 23.765-9.123 4.043-9.081-.04-19.721-9.123-23.765-9.081-4.043-19.721.041-23.765 9.123-4.043 9.082.041 19.722 9.123 23.765zm21.412-18.59a9.845 9.845 0 0 1-2.899-.441 4.939 4.939 0 0 0 3.086-1.608 9.861 9.861 0 0 1-3.342-.18 4.924 4.924 0 0 0-9.492.69 13.979 13.979 0 0 1-7.18-8.828 4.9 4.9 0 0 0-1.615 1.99 4.922 4.922 0 0 0 .334 4.635 4.904 4.904 0 0 1-1.787-1.47 4.927 4.927 0 0 0 1.62 6.074 4.93 4.93 0 0 1-2.066-.828 4.929 4.929 0 0 0 2.81 4.995 9.88 9.88 0 0 1-6.443-.562 10.017 10.017 0 0 1-1.045-.54 13.937 13.937 0 0 0 5.995 5.09c8.274 3.684 15.85-1.155 18.497-7.1.087-.194.169-.39.246-.587a10.008 10.008 0 0 0 3.281-1.33zM515.456 106.225c9.917.694 18.518-6.783 19.211-16.7.694-9.917-6.783-18.518-16.7-19.212-9.917-.693-18.518 6.784-19.212 16.7-.693 9.918 6.784 18.519 16.7 19.212zm13.763-24.791a9.845 9.845 0 0 1-2.876.576 4.939 4.939 0 0 0 2.35-2.566 9.861 9.861 0 0 1-3.202.974 4.924 4.924 0 0 0-8.683 3.895 13.979 13.979 0 0 1-9.766-5.84 4.9 4.9 0 0 0-.838 2.422 4.922 4.922 0 0 0 1.9 4.241 4.904 4.904 0 0 1-2.182-.77l-.005.062a4.927 4.927 0 0 0 3.603 5.092 4.93 4.93 0 0 1-2.224-.071 4.929 4.929 0 0 0 4.35 3.732 9.88 9.88 0 0 1-6.247 1.676 10.017 10.017 0 0 1-1.167-.15 13.937 13.937 0 0 0 7.375 2.732c9.035.632 14.499-6.507 14.952-12.997.015-.213.025-.426.03-.637a10.008 10.008 0 0 0 2.63-2.371zM589.167 109.447c8.043-5.843 9.826-17.1 3.983-25.142-5.844-8.043-17.1-9.826-25.143-3.982-8.042 5.843-9.825 17.1-3.982 25.142 5.843 8.043 17.1 9.825 25.142 3.982zm-5.392-27.838a9.845 9.845 0 0 1-1.833 2.29c.465-1.09.53-2.33.15-3.477a9.861 9.861 0 0 1-1.826 2.805 4.924 4.924 0 0 0-4.148 8.565 13.979 13.979 0 0 1-11.235 1.803 4.9 4.9 0 0 0 .915 2.395 4.922 4.922 0 0 0 4.181 2.028 4.904 4.904 0 0 1-2.166.812l.036.05a4.927 4.927 0 0 0 6.033 1.585 4.93 4.93 0 0 1-1.749 1.375 4.929 4.929 0 0 0 5.731.063 9.88 9.88 0 0 1-3.708 5.3c-.322.233-.653.445-.991.635a13.937 13.937 0 0 0 7.407-2.647c7.327-5.324 6.923-14.305 3.099-19.569a14.198 14.198 0 0 0-.386-.507c.37-1.127.536-2.319.49-3.506zM54.234 122.041c9.342 3.4 19.671-1.416 23.071-10.758 3.4-9.341-1.416-19.67-10.758-23.07-9.342-3.4-19.67 1.416-23.07 10.757-3.4 9.342 1.416 19.671 10.757 23.071zm20.064-20.037a9.845 9.845 0 0 1-2.923-.239 4.939 4.939 0 0 0 2.966-1.82 9.861 9.861 0 0 1-3.347.054 4.924 4.924 0 0 0-9.42 1.35 13.979 13.979 0 0 1-7.778-8.305 4.9 4.9 0 0 0-1.473 2.098 4.922 4.922 0 0 0 .657 4.6 4.904 4.904 0 0 1-1.885-1.341l-.022.058a4.927 4.927 0 0 0 2.06 5.888 4.93 4.93 0 0 1-2.118-.682 4.929 4.929 0 0 0 3.153 4.787 9.88 9.88 0 0 1-6.467-.111 10.017 10.017 0 0 1-1.08-.466 13.937 13.937 0 0 0 6.336 4.66c8.51 3.097 15.73-2.259 17.955-8.373.074-.2.142-.402.205-.603a10.008 10.008 0 0 0 3.18-1.555zM39.283 158.305c9.342-3.4 14.158-13.73 10.758-23.07-3.4-9.342-13.729-14.159-23.07-10.759-9.342 3.4-14.159 13.73-10.759 23.071 3.4 9.342 13.73 14.158 23.071 10.758zm2.49-28.246a9.845 9.845 0 0 1-2.393 1.696 4.939 4.939 0 0 0 1.103-3.3 9.861 9.861 0 0 1-2.53 2.192 4.924 4.924 0 0 0-6.349 7.09 13.979 13.979 0 0 1-11.295-1.363 4.9 4.9 0 0 0 .22 2.554 4.922 4.922 0 0 0 3.46 3.101 4.904 4.904 0 0 1-2.307.185l.021.058a4.927 4.927 0 0 0 5.363 3.186 4.93 4.93 0 0 1-2.06.84 4.929 4.929 0 0 0 5.491 1.64 9.88 9.88 0 0 1-5.025 4.072c-.374.136-.75.248-1.128.337 2.526.567 5.237.448 7.85-.503 8.51-3.098 10.598-11.842 8.373-17.956-.073-.2-.15-.398-.231-.593a10.008 10.008 0 0 0 1.437-3.236zM92 162c9.941 0 18-8.059 18-18s-8.059-18-18-18-18 8.059-18 18 8.059 18 18 18zm12-25.691a9.845 9.845 0 0 1-2.828.775 4.939 4.939 0 0 0 2.165-2.724 9.861 9.861 0 0 1-3.127 1.195 4.924 4.924 0 0 0-8.39 4.49 13.979 13.979 0 0 1-10.15-5.144 4.9 4.9 0 0 0-.666 2.476c0 1.708.87 3.215 2.19 4.098a4.904 4.904 0 0 1-2.23-.616v.062a4.927 4.927 0 0 0 3.95 4.828 4.93 4.93 0 0 1-2.224.084 4.929 4.929 0 0 0 4.6 3.42 9.88 9.88 0 0 1-6.115 2.107c-.398 0-.79-.023-1.175-.068a13.937 13.937 0 0 0 7.548 2.212c9.057 0 14.01-7.503 14.01-14.01 0-.213-.005-.425-.015-.636a10.008 10.008 0 0 0 2.457-2.55zM137.234 144.041c9.342 3.4 19.671-1.416 23.071-10.758 3.4-9.341-1.416-19.67-10.758-23.07-9.342-3.4-19.67 1.416-23.07 10.757-3.4 9.342 1.416 19.671 10.757 23.071zm20.064-20.037a9.845 9.845 0 0 1-2.923-.239 4.939 4.939 0 0 0 2.966-1.82 9.861 9.861 0 0 1-3.347.054 4.924 4.924 0 0 0-9.42 1.35 13.979 13.979 0 0 1-7.778-8.305 4.9 4.9 0 0 0-1.473 2.098 4.922 4.922 0 0 0 .657 4.6 4.904 4.904 0 0 1-1.885-1.341l-.022.058a4.927 4.927 0 0 0 2.06 5.888 4.93 4.93 0 0 1-2.118-.682 4.929 4.929 0 0 0 3.153 4.787 9.88 9.88 0 0 1-6.467-.111 10.017 10.017 0 0 1-1.08-.466 13.937 13.937 0 0 0 6.336 4.66c8.51 3.097 15.73-2.259 17.955-8.373.074-.2.142-.402.205-.603a10.008 10.008 0 0 0 3.18-1.555zM191.234 136.041c9.342 3.4 19.671-1.416 23.071-10.758 3.4-9.341-1.416-19.67-10.758-23.07-9.342-3.4-19.67 1.416-23.07 10.757-3.4 9.342 1.416 19.671 10.757 23.071zm20.064-20.037a9.845 9.845 0 0 1-2.923-.239 4.939 4.939 0 0 0 2.966-1.82 9.861 9.861 0 0 1-3.347.054 4.924 4.924 0 0 0-9.42 1.35 13.979 13.979 0 0 1-7.778-8.305 4.9 4.9 0 0 0-1.473 2.098 4.922 4.922 0 0 0 .657 4.6 4.904 4.904 0 0 1-1.885-1.341l-.022.058a4.927 4.927 0 0 0 2.06 5.888 4.93 4.93 0 0 1-2.118-.682 4.929 4.929 0 0 0 3.153 4.787 9.88 9.88 0 0 1-6.467-.111 10.017 10.017 0 0 1-1.08-.466 13.937 13.937 0 0 0 6.336 4.66c8.51 3.097 15.73-2.259 17.955-8.373.074-.2.142-.402.205-.603a10.008 10.008 0 0 0 3.18-1.555zM203.464 176.053c8.61-4.971 11.56-15.98 6.589-24.589-4.971-8.61-15.98-11.559-24.589-6.588-8.61 4.97-11.559 15.979-6.588 24.588 4.97 8.61 15.979 11.56 24.588 6.589zm-2.453-28.25a9.845 9.845 0 0 1-2.062 2.086 4.939 4.939 0 0 0 .513-3.442 9.861 9.861 0 0 1-2.11 2.598 4.924 4.924 0 0 0-5.021 8.084 13.979 13.979 0 0 1-11.362.62 4.9 4.9 0 0 0 .66 2.477 4.922 4.922 0 0 0 3.947 2.454c-.712.381-1.48.57-2.24.582l.031.054a4.927 4.927 0 0 0 5.835 2.206 4.93 4.93 0 0 1-1.884 1.185 4.929 4.929 0 0 0 5.693.661 9.88 9.88 0 0 1-4.242 4.883c-.344.199-.695.375-1.051.528 2.585.12 5.234-.468 7.642-1.858 7.844-4.529 8.381-13.502 5.128-19.137a14.198 14.198 0 0 0-.33-.545c.485-1.082.775-2.25.853-3.436zM263.464 158.053c8.61-4.971 11.56-15.98 6.589-24.589-4.971-8.61-15.98-11.559-24.589-6.588-8.61 4.97-11.559 15.979-6.588 24.588 4.97 8.61 15.979 11.56 24.588 6.589zm-2.453-28.25a9.845 9.845 0 0 1-2.062 2.086 4.939 4.939 0 0 0 .513-3.442 9.861 9.861 0 0 1-2.11 2.598 4.924 4.924 0 0 0-5.021 8.084 13.979 13.979 0 0 1-11.362.62 4.9 4.9 0 0 0 .66 2.477 4.922 4.922 0 0 0 3.947 2.454c-.712.381-1.48.57-2.24.582l.031.054a4.927 4.927 0 0 0 5.835 2.206 4.93 4.93 0 0 1-1.884 1.185 4.929 4.929 0 0 0 5.693.661 9.88 9.88 0 0 1-4.242 4.883c-.344.199-.695.375-1.051.528 2.585.12 5.234-.468 7.642-1.858 7.844-4.529 8.381-13.502 5.128-19.137a14.198 14.198 0 0 0-.33-.545c.485-1.082.775-2.25.853-3.436zM289.718 157.206c6.39 7.615 17.744 8.608 25.36 2.218 7.614-6.39 8.608-17.744 2.218-25.359-6.39-7.615-17.744-8.609-25.36-2.218-7.615 6.39-8.608 17.743-2.218 25.359zm27.394-7.322a9.845 9.845 0 0 1-2.412-1.668 4.939 4.939 0 0 0 3.479-.092 9.861 9.861 0 0 1-2.925-1.628 4.924 4.924 0 0 0-8.834-3.54 13.979 13.979 0 0 1-2.583-11.082 4.9 4.9 0 0 0-2.324 1.08 4.922 4.922 0 0 0-1.732 4.313 4.904 4.904 0 0 1-.962-2.104l-.047.04a4.927 4.927 0 0 0-1.16 6.128 4.93 4.93 0 0 1-1.494-1.649 4.929 4.929 0 0 0 .337 5.721 9.88 9.88 0 0 1-5.545-3.33c-.255-.304-.49-.619-.702-.943a13.937 13.937 0 0 0 3.157 7.204c5.821 6.938 14.752 5.909 19.737 1.727.163-.138.323-.278.478-.42 1.15.29 2.351.372 3.532.243zM353.424 111.077c6.39-7.615 5.397-18.969-2.218-25.359-7.616-6.39-18.97-5.397-25.36 2.219-6.39 7.615-5.396 18.969 2.22 25.359 7.614 6.39 18.968 5.396 25.358-2.219zm-11.967-25.706a9.845 9.845 0 0 1-1.224 2.664 4.939 4.939 0 0 0-.695-3.409 9.861 9.861 0 0 1-1.095 3.163 4.924 4.924 0 0 0-1.953 9.314 13.979 13.979 0 0 1-10.464 4.468 4.9 4.9 0 0 0 1.468 2.102 4.922 4.922 0 0 0 4.547.956 4.904 4.904 0 0 1-1.905 1.313l.047.04a4.927 4.927 0 0 0 6.237.078 4.93 4.93 0 0 1-1.365 1.757c1.902.778 4.161.3 5.576-1.325a9.88 9.88 0 0 1-2.316 6.039c-.255.304-.525.59-.807.856a13.937 13.937 0 0 0 6.546-4.36c5.822-6.938 3.258-15.555-1.727-19.737-.163-.138-.329-.27-.497-.399a10.008 10.008 0 0 0-.373-3.52zM369.706 148.725c9.082 4.043 19.722-.04 23.765-9.123 4.043-9.081-.04-19.721-9.123-23.765-9.081-4.043-19.721.041-23.765 9.123-4.043 9.082.041 19.722 9.123 23.765zm21.412-18.59a9.845 9.845 0 0 1-2.899-.441 4.939 4.939 0 0 0 3.086-1.608 9.861 9.861 0 0 1-3.342-.18 4.924 4.924 0 0 0-9.492.69 13.979 13.979 0 0 1-7.18-8.828 4.9 4.9 0 0 0-1.615 1.99 4.922 4.922 0 0 0 .334 4.635 4.904 4.904 0 0 1-1.787-1.47 4.927 4.927 0 0 0 1.62 6.074 4.93 4.93 0 0 1-2.066-.828 4.929 4.929 0 0 0 2.81 4.995 9.88 9.88 0 0 1-6.443-.562 10.017 10.017 0 0 1-1.045-.54 13.937 13.937 0 0 0 5.995 5.09c8.274 3.684 15.85-1.155 18.497-7.1.087-.194.169-.39.246-.587a10.008 10.008 0 0 0 3.281-1.33zM420.706 124.725c9.082 4.043 19.722-.04 23.765-9.123 4.043-9.081-.04-19.721-9.123-23.765-9.081-4.043-19.721.041-23.765 9.123-4.043 9.082.041 19.722 9.123 23.765zm21.412-18.59a9.845 9.845 0 0 1-2.899-.441 4.939 4.939 0 0 0 3.086-1.608 9.861 9.861 0 0 1-3.342-.18 4.924 4.924 0 0 0-9.492.69 13.979 13.979 0 0 1-7.18-8.828 4.9 4.9 0 0 0-1.615 1.99 4.922 4.922 0 0 0 .334 4.635 4.904 4.904 0 0 1-1.787-1.47 4.927 4.927 0 0 0 1.62 6.074 4.93 4.93 0 0 1-2.066-.828 4.929 4.929 0 0 0 2.81 4.995 9.88 9.88 0 0 1-6.443-.562 10.017 10.017 0 0 1-1.045-.54 13.937 13.937 0 0 0 5.995 5.09c8.274 3.684 15.85-1.155 18.497-7.1.087-.194.169-.39.246-.587a10.008 10.008 0 0 0 3.281-1.33zM400.98 168.24c4.358 8.934 15.134 12.645 24.069 8.287 8.935-4.358 12.646-15.134 8.288-24.069-4.358-8.935-15.134-12.646-24.07-8.288-8.934 4.358-12.645 15.134-8.287 24.07zm28.352-.477a9.845 9.845 0 0 1-1.937-2.202 4.939 4.939 0 0 0 3.397.751 9.861 9.861 0 0 1-2.444-2.286 4.924 4.924 0 0 0-7.714-5.573 13.979 13.979 0 0 1 .174-11.377 4.9 4.9 0 0 0-2.517.486 4.922 4.922 0 0 0-2.723 3.766 4.904 4.904 0 0 1-.424-2.275 4.927 4.927 0 0 0-2.664 5.693 4.93 4.93 0 0 1-1.05-1.961 4.929 4.929 0 0 0-1.058 5.633 9.88 9.88 0 0 1-4.575-4.573c-.174-.357-.325-.72-.453-1.085-.3 2.57.102 5.254 1.32 7.753 3.97 8.14 12.885 9.303 18.733 6.45.192-.093.381-.19.567-.291 1.045.56 2.19.93 3.368 1.09zM489.167 140.447c8.043-5.843 9.826-17.1 3.983-25.142-5.844-8.043-17.1-9.826-25.143-3.982-8.042 5.843-9.825 17.1-3.982 25.142 5.843 8.043 17.1 9.825 25.142 3.982zm-5.392-27.838a9.845 9.845 0 0 1-1.833 2.29c.465-1.09.53-2.33.15-3.477a9.861 9.861 0 0 1-1.826 2.805 4.924 4.924 0 0 0-4.148 8.565 13.979 13.979 0 0 1-11.235 1.803 4.9 4.9 0 0 0 .915 2.395 4.922 4.922 0 0 0 4.181 2.028 4.904 4.904 0 0 1-2.166.812l.036.05a4.927 4.927 0 0 0 6.033 1.585 4.93 4.93 0 0 1-1.749 1.375 4.929 4.929 0 0 0 5.731.063 9.88 9.88 0 0 1-3.708 5.3c-.322.233-.653.445-.991.635a13.937 13.937 0 0 0 7.407-2.647c7.327-5.324 6.923-14.305 3.099-19.569a14.198 14.198 0 0 0-.386-.507c.37-1.127.536-2.319.49-3.506zM549.167 149.447c8.043-5.843 9.826-17.1 3.983-25.142-5.844-8.043-17.1-9.826-25.143-3.982-8.042 5.843-9.825 17.1-3.982 25.142 5.843 8.043 17.1 9.825 25.142 3.982zm-5.392-27.838a9.845 9.845 0 0 1-1.833 2.29c.465-1.09.53-2.33.15-3.477a9.861 9.861 0 0 1-1.826 2.805 4.924 4.924 0 0 0-4.148 8.565 13.979 13.979 0 0 1-11.235 1.803 4.9 4.9 0 0 0 .915 2.395 4.922 4.922 0 0 0 4.181 2.028 4.904 4.904 0 0 1-2.166.812l.036.05a4.927 4.927 0 0 0 6.033 1.585 4.93 4.93 0 0 1-1.749 1.375 4.929 4.929 0 0 0 5.731.063 9.88 9.88 0 0 1-3.708 5.3c-.322.233-.653.445-.991.635a13.937 13.937 0 0 0 7.407-2.647c7.327-5.324 6.923-14.305 3.099-19.569a14.198 14.198 0 0 0-.386-.507c.37-1.127.536-2.319.49-3.506z"/></g></svg>