<svg xmlns="http://www.w3.org/2000/svg" viewBox="0 0 605 180"><title>user</title><g fill-rule="evenodd"><path d="M31.434 15.977c.81 1.168 1.984 2.62 1.984 2.62s-.343.555.28 1.633c1.734 2.605 1.972.912 2.844 1.99 2.1 2.597 2.837 1.493 3.738 3.053 1.5 2.598 1.121 4.436-1.418 7.822-2.547 3.399-4.983 7.231-3.164 10.382l.91 1.576 28.579-16.5-.91-1.576c-1.82-3.15-6.358-2.956-10.575-2.448-4.202.507-5.98-.085-7.48-2.685-.9-1.56.42-1.643-.777-4.762-.496-1.296 1.088-.654-.298-3.46-.622-1.078-1.275-1.058-1.275-1.058s-.671-1.742-1.28-3.027c-.64-1.347-2.961-3.67-6.468-2.77-.838-.23-1.687-.876-.555-2.67-3.652 1.888-3.413 4.212-4.523 6.663-.926 2.123-.27 4.259.388 5.217zM74.089 43.983c-.13 1.416-.166 3.283-.166 3.283s-.619.205-.835 1.43c-.345 3.11.925 1.966.9 3.353-.06 3.34 1.214 2.968.901 4.741-.52 2.955-1.992 4.12-6.114 5.08-4.136.967-8.465 2.337-9.097 5.92l-.316 1.792 32.499 5.73.316-1.791c.631-3.583-2.97-6.352-6.528-8.673-3.545-2.313-4.525-3.909-4.004-6.865.313-1.773 1.379-.988 2.466-4.148.453-1.31 1.253.2 1.996-2.841.216-1.226-.297-1.63-.297-1.63s.606-1.767.965-3.142c.376-1.443.09-4.715-3.174-6.279-.494-.715-.73-1.756 1.291-2.403-4.011-.9-5.322 1.033-7.748 2.197-2.073 1.031-2.944 3.089-3.055 4.246zM121.434 24.977c.81 1.168 1.984 2.62 1.984 2.62s-.343.555.28 1.633c1.734 2.605 1.972.912 2.844 1.99 2.1 2.597 2.837 1.493 3.738 3.053 1.5 2.598 1.121 4.436-1.418 7.822-2.547 3.399-4.983 7.231-3.164 10.382l.91 1.576 28.579-16.5-.91-1.576c-1.82-3.15-6.358-2.956-10.575-2.448-4.202.507-5.98-.085-7.48-2.685-.9-1.56.42-1.643-.777-4.762-.496-1.296 1.088-.654-.298-3.46-.622-1.078-1.275-1.058-1.275-1.058s-.671-1.742-1.28-3.027c-.64-1.347-2.961-3.67-6.468-2.77-.838-.23-1.687-.876-.555-2.67-3.652 1.888-3.413 4.212-4.523 6.663-.926 2.123-.27 4.259.388 5.217zM196.147 23.916c-.374 1.372-.733 3.204-.733 3.204s-.645.095-1.07 1.264c-.88 3.003.57 2.097.304 3.458-.64 3.279.68 3.134.064 4.826-1.026 2.819-2.678 3.71-6.904 3.942-4.24.233-8.742.83-9.987 4.25l-.622 1.709 31.01 11.287.622-1.71c1.245-3.419-1.822-6.77-4.922-9.674-3.09-2.894-3.778-4.635-2.751-7.456.615-1.692 1.53-.734 3.149-3.657.673-1.212 1.2.414 2.459-2.452.426-1.169-.01-1.656-.01-1.656s.903-1.635 1.497-2.927c.62-1.356.907-4.627-2.036-6.735-.363-.79-.414-1.855 1.688-2.142-3.793-1.584-5.42.093-8.012.819-2.22.655-3.435 2.53-3.746 3.65zM252.434 21.977c.81 1.168 1.984 2.62 1.984 2.62s-.343.555.28 1.633c1.734 2.605 1.972.912 2.844 1.99 2.1 2.597 2.837 1.493 3.738 3.053 1.5 2.598 1.121 4.436-1.418 7.822-2.547 3.399-4.983 7.231-3.164 10.382l.91 1.576 28.579-16.5-.91-1.576c-1.82-3.15-6.358-2.956-10.575-2.448-4.202.507-5.98-.085-7.48-2.685-.9-1.56.42-1.643-.777-4.762-.496-1.296 1.088-.654-.298-3.46-.622-1.078-1.275-1.058-1.275-1.058s-.671-1.742-1.28-3.027c-.64-1.347-2.961-3.67-6.468-2.77-.838-.23-1.687-.876-.555-2.67-3.652 1.888-3.413 4.212-4.523 6.663-.926 2.123-.27 4.259.388 5.217zM355.305 25.056c-.629 1.275-1.33 3.006-1.33 3.006s-.652-.03-1.293 1.036c-1.437 2.78.16 2.166-.36 3.452-1.254 3.097.068 3.206-.86 4.75-1.544 2.57-3.335 3.131-7.528 2.552-4.207-.58-8.74-.853-10.614 2.266l-.937 1.56 28.287 16.995.937-1.559c1.873-3.118-.497-6.994-2.987-10.436-2.48-3.43-2.823-5.27-1.278-7.844.928-1.543 1.642-.429 3.79-2.988.892-1.062 1.098.635 2.881-1.938.641-1.066.307-1.628.307-1.628s1.198-1.432 2.027-2.587c.868-1.213 1.774-4.37-.713-7-.205-.844-.052-1.9 2.066-1.78-3.422-2.279-5.338-.943-8.02-.726-2.306.22-3.856 1.829-4.375 2.87zM417.502 32.39c1.101.9 2.63 1.974 2.63 1.974s-.177.627.718 1.492c2.386 2.026 2.147.332 3.283 1.128 2.735 1.918 3.139.654 4.434 1.905 2.158 2.084 2.301 3.955.793 7.91-1.51 3.969-2.796 8.325-.179 10.852l1.309 1.264 22.923-23.739-1.308-1.263c-2.617-2.528-6.927-1.09-10.84.562-3.9 1.644-5.772 1.566-7.93-.52-1.296-1.25-.05-1.696-2.06-4.364-.834-1.108.865-.928-1.24-3.244-.895-.864-1.518-.665-1.518-.665s-1.125-1.49-2.064-2.557c-.987-1.118-3.859-2.711-6.981-.88-.869.01-1.863-.377-1.27-2.413-2.99 2.821-2.12 4.99-2.511 7.652-.305 2.295.914 4.168 1.811 4.907zM498.039 21.476c.928 1.077 2.246 2.4 2.246 2.4s-.282.587.449 1.593c1.998 2.41 2.057.7 3.037 1.682 2.36 2.364 2.978 1.189 4.036 2.646 1.764 2.427 1.58 4.294-.592 7.927-2.178 3.646-4.2 7.713-2.061 10.656l1.07 1.472 26.697-19.397-1.07-1.472c-2.138-2.943-6.632-2.276-10.773-1.329-4.126.943-5.955.54-7.72-1.888-1.058-1.457.247-1.679-1.27-4.656-.628-1.236 1.014-.763-.658-3.41-.73-1.006-1.378-.918-1.378-.918s-.85-1.663-1.59-2.877c-.777-1.272-3.329-3.34-6.722-2.078-.857-.142-1.77-.695-.831-2.598-3.435 2.26-2.954 4.546-3.802 7.1-.699 2.207.176 4.263.932 5.147zM554.615 39.133c-.695 1.24-1.487 2.931-1.487 2.931s-.648-.064-1.344.967c-1.581 2.701.045 2.172-.542 3.429-1.413 3.027-.098 3.205-1.105 4.698-1.678 2.487-3.496 2.953-7.652 2.155-4.171-.8-8.684-1.309-10.718 1.707l-1.018 1.509 27.359 18.453 1.017-1.508c2.034-3.017-.13-7.01-2.436-10.578-2.297-3.555-2.544-5.412-.866-7.9 1.007-1.493 1.662-.343 3.94-2.786.947-1.014 1.064.691 2.98-1.785.696-1.031.391-1.61.391-1.61s1.272-1.367 2.16-2.477c.93-1.165 2-4.27-.346-7.027-.16-.854.048-1.9 2.157-1.67-3.298-2.455-5.282-1.221-7.972-1.144-2.314.098-3.946 1.624-4.518 2.636zM20.147 64.916c-.374 1.372-.733 3.204-.733 3.204s-.645.095-1.07 1.264c-.88 3.003.57 2.097.304 3.458-.64 3.279.68 3.134.064 4.826-1.026 2.819-2.678 3.71-6.904 3.942-4.24.233-8.742.83-9.987 4.25L1.2 87.569l31.01 11.287.622-1.71c1.245-3.419-1.822-6.77-4.922-9.674-3.09-2.894-3.778-4.635-2.751-7.456.615-1.692 1.53-.734 3.149-3.657.673-1.212 1.2.414 2.459-2.452.426-1.169-.01-1.656-.01-1.656s.903-1.635 1.497-2.927c.62-1.356.907-4.627-2.036-6.735-.363-.79-.414-1.855 1.688-2.142-3.793-1.584-5.42.093-8.012.819-2.22.655-3.435 2.53-3.746 3.65zM111.434 79.977c.81 1.168 1.984 2.62 1.984 2.62s-.343.555.28 1.633c1.734 2.605 1.972.912 2.844 1.99 2.1 2.597 2.837 1.493 3.738 3.053 1.5 2.598 1.121 4.436-1.418 7.822-2.547 3.399-4.983 7.231-3.164 10.382l.91 1.576 28.579-16.5-.91-1.576c-1.82-3.15-6.358-2.956-10.575-2.448-4.202.507-5.98-.085-7.48-2.685-.9-1.56.42-1.643-.777-4.762-.496-1.296 1.088-.654-.298-3.46-.622-1.078-1.275-1.058-1.275-1.058s-.671-1.742-1.28-3.027c-.64-1.347-2.961-3.67-6.468-2.77-.838-.23-1.687-.876-.555-2.67-3.652 1.888-3.413 4.212-4.523 6.663-.926 2.123-.27 4.259.388 5.217zM165.058 67.233c.117 1.417.407 3.261.407 3.261s-.574.31-.574 1.554c.2 3.123 1.252 1.775 1.468 3.145.521 3.3 1.71 2.713 1.71 4.514 0 3-1.246 4.402-5.138 6.065-3.905 1.67-7.931 3.77-7.931 7.409V95h33v-1.82c0-3.637-4.028-5.739-7.935-7.407-3.892-1.662-5.135-3.063-5.135-6.065 0-1.8 1.186-1.213 1.709-4.513.218-1.37 1.268-.022 1.472-3.145 0-1.245-.576-1.554-.576-1.554s.29-1.844.405-3.262c.12-1.486-.73-4.658-4.216-5.632-.61-.618-1.023-1.602.854-2.59-4.107-.191-5.062 1.941-7.249 3.51-1.863 1.374-2.363 3.552-2.271 4.71zM224.434 69.977c.81 1.168 1.984 2.62 1.984 2.62s-.343.555.28 1.633c1.734 2.605 1.972.912 2.844 1.99 2.1 2.597 2.837 1.493 3.738 3.053 1.5 2.598 1.121 4.436-1.418 7.822-2.547 3.399-4.983 7.231-3.164 10.382l.91 1.576 28.579-16.5-.91-1.576c-1.82-3.15-6.358-2.956-10.575-2.448-4.202.507-5.98-.085-7.48-2.685-.9-1.56.42-1.643-.777-4.762-.496-1.296 1.088-.654-.298-3.46-.622-1.078-1.275-1.058-1.275-1.058s-.671-1.742-1.28-3.027c-.64-1.347-2.961-3.67-6.468-2.77-.838-.23-1.687-.876-.555-2.67-3.652 1.888-3.413 4.212-4.523 6.663-.926 2.123-.27 4.259.388 5.217zM274.086 92.658c.361 1.375.967 3.141.967 3.141s-.512.404-.295 1.63c.739 3.041 1.541 1.53 1.992 2.842 1.086 3.16 2.155 2.374 2.468 4.148.521 2.954-.463 4.552-4.007 6.865-3.556 2.323-7.156 5.091-6.524 8.674l.316 1.792 32.498-5.73-.316-1.792c-.631-3.583-4.963-4.953-9.1-5.917-4.122-.962-5.59-2.126-6.11-5.082-.313-1.773.957-1.4.899-4.741-.023-1.387 1.245-.242.903-3.353-.216-1.226-.837-1.43-.837-1.43s-.035-1.867-.167-3.283c-.14-1.484-1.527-4.461-5.13-4.814-.71-.503-1.286-1.4.391-2.7-4.077.526-4.648 2.791-6.53 4.715-1.595 1.678-1.71 3.91-1.418 5.035zM301.086 52.658c.361 1.375.967 3.141.967 3.141s-.512.404-.295 1.63c.739 3.041 1.541 1.53 1.992 2.842 1.086 3.16 2.155 2.374 2.468 4.148.521 2.954-.463 4.552-4.007 6.865-3.556 2.323-7.156 5.091-6.524 8.674l.316 1.792 32.498-5.73-.316-1.792c-.631-3.583-4.963-4.953-9.1-5.917-4.122-.962-5.59-2.126-6.11-5.082-.313-1.773.957-1.4.899-4.741-.023-1.387 1.245-.242.903-3.353-.216-1.226-.837-1.43-.837-1.43s-.035-1.867-.167-3.283c-.14-1.484-1.527-4.461-5.13-4.814-.71-.503-1.286-1.4.391-2.7-4.077.526-4.648 2.791-6.53 4.715-1.595 1.678-1.71 3.91-1.418 5.035zM375.039 69.476c.928 1.077 2.246 2.4 2.246 2.4s-.282.587.449 1.593c1.998 2.41 2.057.7 3.037 1.682 2.36 2.364 2.978 1.189 4.036 2.646 1.764 2.427 1.58 4.294-.592 7.927-2.178 3.646-4.2 7.713-2.061 10.656l1.07 1.472 26.697-19.397-1.07-1.472c-2.138-2.943-6.632-2.276-10.773-1.329-4.126.943-5.955.54-7.72-1.888-1.058-1.457.247-1.679-1.27-4.656-.628-1.236 1.014-.763-.658-3.41-.73-1.006-1.378-.918-1.378-.918s-.85-1.663-1.59-2.877c-.777-1.272-3.329-3.34-6.722-2.078-.857-.142-1.77-.695-.831-2.598-3.435 2.26-2.954 4.546-3.802 7.1-.699 2.207.176 4.263.932 5.147zM463.571 58.941c-.469 1.343-.954 3.146-.954 3.146s-.65.049-1.157 1.185c-1.087 2.935.422 2.132.063 3.471-.867 3.226.46 3.174-.273 4.819-1.22 2.74-2.93 3.514-7.162 3.45-4.246-.062-8.779.22-10.259 3.543l-.74 1.662 30.147 13.422.74-1.661c1.48-3.324-1.345-6.882-4.236-9.995-2.879-3.102-3.445-4.887-2.224-7.63.733-1.644 1.577-.625 3.397-3.427.756-1.163 1.168.496 2.624-2.275.506-1.137.106-1.653.106-1.653s1.015-1.568 1.697-2.815c.713-1.31 1.228-4.553-1.562-6.86-.306-.814-.282-1.88 1.834-2.02-3.673-1.844-5.413-.285-8.05.258-2.26.499-3.603 2.284-3.99 3.38zM511.465 78.111c.018 1.422.178 3.282.178 3.282s-.594.269-.68 1.51c-.02 3.13 1.125 1.859 1.245 3.24.29 3.328 1.517 2.825 1.391 4.622-.209 2.992-1.55 4.304-5.549 5.692-4.012 1.393-8.175 3.208-8.429 6.838l-.126 1.814 32.92 2.302.126-1.814c.254-3.63-3.618-6.007-7.399-7.943-3.766-1.93-4.908-3.415-4.7-6.409.127-1.796 1.269-1.128 2.02-4.383.313-1.351 1.267.067 1.688-3.035.087-1.241-.466-1.59-.466-1.59s.418-1.82.632-3.225c.223-1.475-.403-4.699-3.813-5.913-.566-.66-.91-1.67 1.032-2.524-4.083-.477-5.184 1.583-7.476 2.995-1.954 1.242-2.605 3.379-2.594 4.541zM568.039 90.476c.928 1.077 2.246 2.4 2.246 2.4s-.282.587.449 1.593c1.998 2.41 2.057.7 3.037 1.682 2.36 2.364 2.978 1.189 4.036 2.646 1.764 2.427 1.58 4.294-.592 7.927-2.178 3.646-4.2 7.713-2.061 10.656l1.07 1.472 26.697-19.397-1.07-1.472c-2.138-2.943-6.632-2.276-10.773-1.329-4.126.943-5.955.54-7.72-1.888-1.058-1.457.247-1.679-1.27-4.656-.628-1.236 1.014-.763-.658-3.41-.73-1.006-1.378-.918-1.378-.918s-.85-1.663-1.59-2.877c-.777-1.272-3.329-3.34-6.722-2.078-.857-.142-1.77-.695-.831-2.598-3.435 2.26-2.954 4.546-3.802 7.1-.699 2.207.176 4.263.932 5.147zM58.147 93.916c-.374 1.372-.733 3.204-.733 3.204s-.645.095-1.07 1.264c-.88 3.003.57 2.097.304 3.458-.64 3.279.68 3.134.064 4.826-1.026 2.819-2.678 3.71-6.904 3.942-4.24.233-8.742.83-9.987 4.25l-.622 1.709 31.01 11.287.622-1.71c1.245-3.419-1.822-6.77-4.922-9.674-3.09-2.894-3.778-4.635-2.751-7.456.615-1.692 1.53-.734 3.149-3.657.673-1.212 1.2.414 2.459-2.452.426-1.169-.01-1.656-.01-1.656s.903-1.635 1.497-2.927c.62-1.356.907-4.627-2.036-6.735-.363-.79-.414-1.855 1.688-2.142-3.793-1.584-5.42.093-8.012.819-2.22.655-3.435 2.53-3.746 3.65zM24.202 134.245c.595 1.291 1.498 2.926 1.498 2.926s-.433.486-.008 1.656c1.256 2.866 1.784 1.24 2.456 2.453 1.618 2.923 2.535 1.964 3.151 3.656 1.026 2.819.334 4.563-2.754 7.457-3.099 2.905-6.163 6.256-4.92 9.675l.623 1.71 31.01-11.287-.622-1.71c-1.245-3.418-5.748-4.015-9.99-4.247-4.226-.23-5.873-1.122-6.9-3.943-.616-1.692.7-1.545.062-4.825-.263-1.362 1.185-.454.308-3.46-.426-1.168-1.072-1.262-1.072-1.262s-.36-1.833-.735-3.204c-.397-1.437-2.28-4.128-5.889-3.85-.785-.372-1.51-1.156-.083-2.726-3.924 1.225-4.093 3.555-5.612 5.776-1.28 1.93-1.005 4.147-.523 5.205zM86.058 134.233c.117 1.417.407 3.261.407 3.261s-.574.31-.574 1.554c.2 3.123 1.252 1.775 1.468 3.145.521 3.3 1.71 2.713 1.71 4.514 0 3-1.246 4.402-5.138 6.065-3.905 1.67-7.931 3.77-7.931 7.409V162h33v-1.82c0-3.637-4.028-5.739-7.935-7.407-3.892-1.662-5.135-3.063-5.135-6.065 0-1.8 1.186-1.213 1.709-4.513.218-1.37 1.269-.022 1.472-3.145 0-1.245-.576-1.554-.576-1.554s.29-1.844.406-3.262c.119-1.486-.73-4.658-4.217-5.632-.61-.618-1.023-1.602.854-2.59-4.107-.191-5.062 1.941-7.249 3.51-1.862 1.374-2.363 3.552-2.271 4.71zM141.147 115.916c-.374 1.372-.733 3.204-.733 3.204s-.645.095-1.07 1.264c-.88 3.003.57 2.097.304 3.458-.64 3.279.68 3.134.064 4.826-1.026 2.819-2.678 3.71-6.904 3.942-4.24.233-8.742.83-9.987 4.25l-.622 1.709 31.01 11.287.622-1.71c1.245-3.419-1.822-6.77-4.922-9.674-3.09-2.894-3.778-4.635-2.751-7.456.615-1.692 1.53-.734 3.149-3.657.673-1.212 1.2.414 2.459-2.452.426-1.169-.01-1.656-.01-1.656s.903-1.635 1.497-2.927c.62-1.356.907-4.627-2.036-6.735-.363-.79-.414-1.855 1.688-2.142-3.793-1.584-5.42.093-8.012.819-2.22.655-3.435 2.53-3.746 3.65zM195.147 107.916c-.374 1.372-.733 3.204-.733 3.204s-.645.095-1.07 1.264c-.88 3.003.57 2.097.304 3.458-.64 3.279.68 3.134.064 4.826-1.026 2.819-2.678 3.71-6.904 3.942-4.24.233-8.742.83-9.987 4.25l-.622 1.709 31.01 11.287.622-1.71c1.245-3.419-1.822-6.77-4.922-9.674-3.09-2.894-3.778-4.635-2.751-7.456.615-1.692 1.53-.734 3.149-3.657.673-1.212 1.2.414 2.459-2.452.426-1.169-.01-1.656-.01-1.656s.903-1.635 1.497-2.927c.62-1.356.907-4.627-2.036-6.735-.363-.79-.414-1.855 1.688-2.142-3.793-1.584-5.42.093-8.012.819-2.22.655-3.435 2.53-3.746 3.65zM184.434 154.977c.81 1.168 1.984 2.62 1.984 2.62s-.343.555.28 1.633c1.734 2.605 1.972.912 2.844 1.99 2.1 2.597 2.837 1.493 3.738 3.053 1.5 2.598 1.121 4.436-1.418 7.822-2.547 3.399-4.983 7.231-3.164 10.382l.91 1.576 28.579-16.5-.91-1.576c-1.82-3.15-6.358-2.956-10.575-2.448-4.202.507-5.98-.085-7.48-2.685-.9-1.56.42-1.643-.777-4.762-.496-1.296 1.088-.654-.298-3.46-.622-1.078-1.275-1.058-1.275-1.058s-.671-1.742-1.28-3.027c-.64-1.347-2.961-3.67-6.468-2.77-.838-.23-1.687-.876-.555-2.67-3.652 1.888-3.413 4.212-4.523 6.663-.926 2.123-.27 4.259.388 5.217zM244.434 136.977c.81 1.168 1.984 2.62 1.984 2.62s-.343.555.28 1.633c1.734 2.605 1.972.912 2.844 1.99 2.1 2.597 2.837 1.493 3.738 3.053 1.5 2.598 1.121 4.436-1.418 7.822-2.547 3.399-4.983 7.231-3.164 10.382l.91 1.576 28.579-16.5-.91-1.576c-1.82-3.15-6.358-2.956-10.575-2.448-4.202.507-5.98-.085-7.48-2.685-.9-1.56.42-1.643-.777-4.762-.496-1.296 1.088-.654-.298-3.46-.622-1.078-1.275-1.058-1.275-1.058s-.671-1.742-1.28-3.027c-.64-1.347-2.961-3.67-6.468-2.77-.838-.23-1.687-.876-.555-2.67-3.652 1.888-3.413 4.212-4.523 6.663-.926 2.123-.27 4.259.388 5.217zM307.17 134.805c-1.01 1-2.237 2.408-2.237 2.408s-.606-.24-1.56.56c-2.264 2.16-.555 2.1-1.465 3.146-2.193 2.52-.978 3.054-2.358 4.211-2.298 1.929-4.174 1.875-7.949-.038-3.79-1.918-7.987-3.651-10.774-1.313l-1.393 1.17 21.212 25.28 1.393-1.17c2.787-2.339 1.808-6.775.574-10.84-1.228-4.05-.954-5.903 1.346-7.832 1.38-1.158 1.691.129 4.555-1.592 1.19-.714.832.958 3.356-.894.953-.8.82-1.44.82-1.44s1.6-.964 2.76-1.786c1.214-.864 3.099-3.554 1.603-6.85.081-.866.57-1.814 2.534-1.011-2.494-3.269-4.741-2.63-7.348-3.298-2.25-.542-4.24.474-5.07 1.289zM328.333 97.78c1.161.822 2.76 1.786 2.76 1.786s-.131.638.822 1.438c2.521 1.854 2.165.182 3.353.897 2.863 1.722 3.178.433 4.557 1.59 2.298 1.929 2.571 3.785 1.343 7.835-1.23 4.065-2.21 8.5.578 10.839l1.394 1.169 21.212-25.28-1.394-1.169c-2.787-2.339-6.986-.604-10.775 1.317-3.775 1.913-5.647 1.965-7.947.035-1.38-1.157-.167-1.688-2.359-4.21-.909-1.047.799-.986-1.463-3.15-.953-.8-1.56-.557-1.56-.557s-1.227-1.408-2.238-2.407c-1.062-1.047-4.038-2.436-7.025-.39-.866.07-1.885-.246-1.435-2.32-2.786 3.024-1.767 5.126-1.972 7.81-.143 2.31 1.203 4.093 2.15 4.768zM375.571 120.941c-.469 1.343-.954 3.146-.954 3.146s-.65.049-1.157 1.185c-1.087 2.935.422 2.132.063 3.471-.867 3.226.46 3.174-.273 4.819-1.22 2.74-2.93 3.514-7.162 3.45-4.246-.062-8.779.22-10.259 3.543l-.74 1.662 30.147 13.422.74-1.661c1.48-3.324-1.345-6.882-4.236-9.995-2.879-3.102-3.445-4.887-2.224-7.63.733-1.644 1.577-.625 3.397-3.427.756-1.163 1.168.496 2.624-2.275.506-1.137.106-1.653.106-1.653s1.015-1.568 1.697-2.815c.713-1.31 1.228-4.553-1.562-6.86-.306-.814-.282-1.88 1.834-2.02-3.673-1.844-5.413-.285-8.05.258-2.26.499-3.603 2.284-3.99 3.38zM426.571 96.941c-.469 1.343-.954 3.146-.954 3.146s-.65.049-1.157 1.185c-1.087 2.935.422 2.132.063 3.471-.867 3.226.46 3.174-.273 4.819-1.22 2.74-2.93 3.514-7.162 3.45-4.246-.062-8.779.22-10.259 3.543l-.74 1.662 30.147 13.422.74-1.661c1.48-3.324-1.345-6.882-4.236-9.995-2.879-3.102-3.445-4.887-2.224-7.63.733-1.644 1.577-.625 3.397-3.427.756-1.163 1.168.496 2.624-2.275.506-1.137.106-1.653.106-1.653s1.015-1.568 1.697-2.815c.713-1.31 1.228-4.553-1.562-6.86-.306-.814-.282-1.88 1.834-2.02-3.673-1.844-5.413-.285-8.05.258-2.26.499-3.603 2.284-3.99 3.38zM423.332 150.726c-1.222.727-2.753 1.796-2.753 1.796s-.53-.38-1.648.165c-2.72 1.549-1.047 1.904-2.183 2.699-2.738 1.914-1.688 2.726-3.307 3.515-2.696 1.316-4.503.81-7.704-1.96-3.212-2.777-6.866-5.475-10.136-3.88l-1.635.798 14.466 29.66 1.635-.798c3.27-1.595 3.393-6.136 3.18-10.378-.212-4.228.502-5.959 3.2-7.275 1.619-.79 1.61.535 4.805-.442 1.327-.405.576 1.13 3.473-.056 1.118-.546 1.144-1.198 1.144-1.198s1.785-.549 3.109-1.066c1.388-.545 3.867-2.698 3.214-6.259.288-.82.992-1.622 2.702-.368-1.628-3.775-3.963-3.698-6.331-4.977-2.053-1.071-4.23-.566-5.23.024zM468.039 121.476c.928 1.077 2.246 2.4 2.246 2.4s-.282.587.449 1.593c1.998 2.41 2.057.7 3.037 1.682 2.36 2.364 2.978 1.189 4.036 2.646 1.764 2.427 1.58 4.294-.592 7.927-2.178 3.646-4.2 7.713-2.061 10.656l1.07 1.472 26.697-19.397-1.07-1.472c-2.138-2.943-6.632-2.276-10.773-1.329-4.126.943-5.955.54-7.72-1.888-1.058-1.457.247-1.679-1.27-4.656-.628-1.236 1.014-.763-.658-3.41-.73-1.006-1.378-.918-1.378-.918s-.85-1.663-1.59-2.877c-.777-1.272-3.329-3.34-6.722-2.078-.857-.142-1.77-.695-.831-2.598-3.435 2.26-2.954 4.546-3.802 7.1-.699 2.207.176 4.263.932 5.147zM528.039 130.476c.928 1.077 2.246 2.4 2.246 2.4s-.282.587.449 1.593c1.998 2.41 2.057.7 3.037 1.682 2.36 2.364 2.978 1.189 4.036 2.646 1.764 2.427 1.58 4.294-.592 7.927-2.178 3.646-4.2 7.713-2.061 10.656l1.07 1.472 26.697-19.397-1.07-1.472c-2.138-2.943-6.632-2.276-10.773-1.329-4.126.943-5.955.54-7.72-1.888-1.058-1.457.247-1.679-1.27-4.656-.628-1.236 1.014-.763-.658-3.41-.73-1.006-1.378-.918-1.378-.918s-.85-1.663-1.59-2.877c-.777-1.272-3.329-3.34-6.722-2.078-.857-.142-1.77-.695-.831-2.598-3.435 2.26-2.954 4.546-3.802 7.1-.699 2.207.176 4.263.932 5.147z"/></g></svg>