<svg xmlns="http://www.w3.org/2000/svg" viewBox="0 0 605 180"><title>video</title><g fill-rule="evenodd"><path d="M21.699 16.71L41.167 5.47a3.258 3.258 0 0 1 4.452 1.19l11.243 19.474a3.257 3.257 0 0 1-1.195 4.45L36.2 41.824c-1.56.9-3.552.368-4.451-1.19L20.504 21.16a3.257 3.257 0 0 1 1.195-4.45zm8.477 11.848a9.798 9.798 0 0 1 3.596-13.417 9.798 9.798 0 0 1 13.418 3.595 9.798 9.798 0 0 1-3.596 13.418 9.798 9.798 0 0 1-13.418-3.596zm3.241-1.87a6.066 6.066 0 0 1 2.226-8.307 6.066 6.066 0 0 1 8.306 2.226 6.066 6.066 0 0 1-2.226 8.306 6.066 6.066 0 0 1-8.306-2.226zM49.688 9.708l6.568 11.376 4.583.554c.694.084 1.117-.681.74-1.336L53.026 5.492c-.378-.656-1.253-.672-1.527-.029L49.688 9.71zM66.16 38.287l22.138 3.904a3.258 3.258 0 0 1 2.645 3.772L87.038 68.11a3.257 3.257 0 0 1-3.775 2.641l-22.14-3.904a3.258 3.258 0 0 1-2.644-3.773l3.905-22.145a3.257 3.257 0 0 1 3.775-2.641zm-1.122 14.526a9.798 9.798 0 0 1 11.379-7.968c5.342.942 8.916 6 7.967 11.38a9.798 9.798 0 0 1-11.379 7.967 9.798 9.798 0 0 1-7.967-11.38zm3.685.65a6.066 6.066 0 0 1 7.044-4.933 6.066 6.066 0 0 1 4.932 7.044 6.066 6.066 0 0 1-7.044 4.933 6.066 6.066 0 0 1-4.932-7.044zM92.1 50.915L89.82 63.852l3.154 3.37c.478.51 1.294.196 1.425-.549l2.97-16.842c.132-.745-.528-1.32-1.151-1.004L92.1 50.915zM111.699 25.71l19.468-11.24a3.258 3.258 0 0 1 4.452 1.19l11.243 19.474a3.257 3.257 0 0 1-1.195 4.45L126.2 50.824c-1.56.9-3.552.368-4.451-1.19L110.504 30.16a3.257 3.257 0 0 1 1.195-4.45zm8.477 11.848a9.798 9.798 0 0 1 3.596-13.417 9.798 9.798 0 0 1 13.418 3.595 9.798 9.798 0 0 1-3.596 13.418 9.798 9.798 0 0 1-13.418-3.596zm3.241-1.87a6.066 6.066 0 0 1 2.226-8.307 6.066 6.066 0 0 1 8.306 2.226 6.066 6.066 0 0 1-2.226 8.306 6.066 6.066 0 0 1-8.306-2.226zm16.271-16.979l6.568 11.376 4.583.554c.694.084 1.117-.681.74-1.336l-8.552-14.811c-.378-.656-1.253-.672-1.527-.029l-1.812 4.246zM189.328 16.93l21.124 7.688a3.258 3.258 0 0 1 1.95 4.175l-7.691 21.132a3.257 3.257 0 0 1-4.177 1.945l-21.125-7.69a3.258 3.258 0 0 1-1.95-4.174l7.692-21.131a3.257 3.257 0 0 1 4.177-1.945zM185.7 31.04a9.798 9.798 0 0 1 12.59-5.87 9.798 9.798 0 0 1 5.87 12.59 9.798 9.798 0 0 1-12.59 5.87 9.798 9.798 0 0 1-5.87-12.59zm3.516 1.28a6.066 6.066 0 0 1 7.793-3.634 6.066 6.066 0 0 1 3.635 7.793 6.066 6.066 0 0 1-7.794 3.635 6.066 6.066 0 0 1-3.634-7.794zm23.465 1.551l-4.493 12.344 2.522 3.867c.382.585 1.24.417 1.499-.294l5.849-16.07c.259-.711-.29-1.392-.96-1.188l-4.417 1.341zM242.699 22.71l19.468-11.24a3.258 3.258 0 0 1 4.452 1.19l11.243 19.474a3.257 3.257 0 0 1-1.195 4.45L257.2 47.824c-1.56.9-3.552.368-4.451-1.19L241.504 27.16a3.257 3.257 0 0 1 1.195-4.45zm8.477 11.848a9.798 9.798 0 0 1 3.596-13.417 9.798 9.798 0 0 1 13.418 3.595 9.798 9.798 0 0 1-3.596 13.418 9.798 9.798 0 0 1-13.418-3.596zm3.241-1.87a6.066 6.066 0 0 1 2.226-8.307 6.066 6.066 0 0 1 8.306 2.226 6.066 6.066 0 0 1-2.226 8.306 6.066 6.066 0 0 1-8.306-2.226zm16.271-16.979l6.568 11.376 4.583.554c.694.084 1.117-.681.74-1.336l-8.552-14.811c-.378-.656-1.253-.672-1.527-.029l-1.812 4.246zM349.944 16.897l19.27 11.578a3.258 3.258 0 0 1 1.117 4.47l-11.582 19.276a3.257 3.257 0 0 1-4.471 1.112l-19.27-11.578a3.258 3.258 0 0 1-1.117-4.47l11.582-19.276a3.257 3.257 0 0 1 4.471-1.112zm-6.253 13.159a9.798 9.798 0 0 1 13.479-3.36 9.798 9.798 0 0 1 3.36 13.478 9.798 9.798 0 0 1-13.478 3.36 9.798 9.798 0 0 1-3.36-13.478zm3.208 1.927a6.066 6.066 0 0 1 8.344-2.08 6.066 6.066 0 0 1 2.08 8.344 6.066 6.066 0 0 1-8.344 2.08 6.066 6.066 0 0 1-2.08-8.344zm22.738 6l-6.766 11.26 1.738 4.277c.263.647 1.137.646 1.527-.002l8.808-14.66c.39-.648-.02-1.42-.715-1.349l-4.592.474zM408.346 35.78l15.616-16.172a3.258 3.258 0 0 1 4.607-.083l16.176 15.621a3.257 3.257 0 0 1 .078 4.607l-15.616 16.171a3.258 3.258 0 0 1-4.607.083l-16.176-15.62a3.257 3.257 0 0 1-.078-4.608zm11.415 9.052a9.798 9.798 0 0 1-.242-13.889 9.798 9.798 0 0 1 13.889-.242 9.798 9.798 0 0 1 .242 13.889 9.798 9.798 0 0 1-13.889.242zm2.6-2.692a6.066 6.066 0 0 1-.15-8.598 6.066 6.066 0 0 1 8.597-.15 6.066 6.066 0 0 1 .15 8.598 6.066 6.066 0 0 1-8.598.15zm10.96-20.805l9.45 9.125 4.558-.73c.69-.112.886-.964.342-1.49l-12.303-11.88c-.544-.525-1.389-.3-1.475.394l-.571 4.58zM488.433 23.223l18.187-13.214a3.258 3.258 0 0 1 4.551.718L524.39 28.92a3.257 3.257 0 0 1-.723 4.55l-18.187 13.214a3.258 3.258 0 0 1-4.551-.718L487.71 27.773a3.257 3.257 0 0 1 .723-4.55zm9.67 10.897a9.798 9.798 0 0 1 2.173-13.72 9.798 9.798 0 0 1 13.72 2.173 9.798 9.798 0 0 1-2.173 13.72 9.798 9.798 0 0 1-13.72-2.173zm3.027-2.2a6.066 6.066 0 0 1 1.345-8.493 6.066 6.066 0 0 1 8.494 1.346 6.066 6.066 0 0 1-1.345 8.493 6.066 6.066 0 0 1-8.494-1.345zm14.408-18.585l7.72 10.627 4.617.072c.699.01 1.04-.795.595-1.407L518.417 8.791c-.444-.612-1.316-.537-1.521.132l-1.358 4.412zM549.688 30.704l18.637 12.57a3.258 3.258 0 0 1 .882 4.523L556.632 66.44a3.257 3.257 0 0 1-4.524.877l-18.637-12.571a3.258 3.258 0 0 1-.881-4.523l12.575-18.643a3.257 3.257 0 0 1 4.523-.876zm-6.933 12.814a9.798 9.798 0 0 1 13.636-2.651 9.798 9.798 0 0 1 2.65 13.636 9.798 9.798 0 0 1-13.636 2.65 9.798 9.798 0 0 1-2.65-13.635zm3.102 2.092a6.066 6.066 0 0 1 8.441-1.64 6.066 6.066 0 0 1 1.641 8.44 6.066 6.066 0 0 1-8.441 1.641 6.066 6.066 0 0 1-1.64-8.441zm22.393 7.182l-7.345 10.89 1.51 4.362c.23.66 1.103.705 1.526.078l9.563-14.178c.423-.627.055-1.42-.644-1.385l-4.61.233zM13.328 57.93l21.124 7.688a3.258 3.258 0 0 1 1.95 4.175L28.71 90.925a3.257 3.257 0 0 1-4.177 1.945L3.409 85.18a3.258 3.258 0 0 1-1.95-4.174l7.692-21.131a3.257 3.257 0 0 1 4.177-1.945zM9.7 72.04a9.798 9.798 0 0 1 12.59-5.87 9.798 9.798 0 0 1 5.87 12.59 9.798 9.798 0 0 1-12.59 5.87 9.798 9.798 0 0 1-5.87-12.59zm3.516 1.28a6.066 6.066 0 0 1 7.793-3.634 6.066 6.066 0 0 1 3.635 7.793 6.066 6.066 0 0 1-7.794 3.635 6.066 6.066 0 0 1-3.634-7.794zm23.465 1.551L32.19 87.215l2.522 3.867c.382.585 1.24.417 1.499-.294l5.849-16.07c.259-.711-.29-1.392-.96-1.188l-4.417 1.341zM101.699 80.71l19.468-11.24a3.258 3.258 0 0 1 4.452 1.19l11.243 19.474a3.257 3.257 0 0 1-1.195 4.45l-19.468 11.24c-1.56.9-3.552.368-4.451-1.19L100.504 85.16a3.257 3.257 0 0 1 1.195-4.45zm8.477 11.848a9.798 9.798 0 0 1 3.596-13.417 9.798 9.798 0 0 1 13.418 3.595 9.798 9.798 0 0 1-3.596 13.418 9.798 9.798 0 0 1-13.418-3.596zm3.241-1.87a6.066 6.066 0 0 1 2.226-8.307 6.066 6.066 0 0 1 8.306 2.226 6.066 6.066 0 0 1-2.226 8.306 6.066 6.066 0 0 1-8.306-2.226zm16.271-16.979l6.568 11.376 4.583.554c.694.084 1.117-.681.74-1.336l-8.552-14.811c-.378-.656-1.253-.672-1.527-.029l-1.812 4.246zM156.26 63h22.48c1.8 0 3.26 1.458 3.26 3.256v22.488A3.257 3.257 0 0 1 178.74 92h-22.48c-1.8 0-3.26-1.458-3.26-3.256V66.256A3.257 3.257 0 0 1 156.26 63zm1.417 14.5a9.798 9.798 0 0 1 9.823-9.823 9.798 9.798 0 0 1 9.823 9.823 9.798 9.798 0 0 1-9.823 9.823 9.798 9.798 0 0 1-9.823-9.823zm3.742 0a6.066 6.066 0 0 1 6.081-6.08 6.066 6.066 0 0 1 6.08 6.08 6.066 6.066 0 0 1-6.08 6.08 6.066 6.066 0 0 1-6.08-6.08zM184 70.932v13.136l3.692 2.771c.56.42 1.308-.031 1.308-.788V68.95c0-.757-.749-1.208-1.308-.788L184 70.932zM214.699 70.71l19.468-11.24a3.258 3.258 0 0 1 4.452 1.19l11.243 19.474a3.257 3.257 0 0 1-1.195 4.45L229.2 95.824c-1.56.9-3.552.368-4.451-1.19L213.504 75.16a3.257 3.257 0 0 1 1.195-4.45zm8.477 11.848a9.798 9.798 0 0 1 3.596-13.417 9.798 9.798 0 0 1 13.418 3.595 9.798 9.798 0 0 1-3.596 13.418 9.798 9.798 0 0 1-13.418-3.596zm3.241-1.87a6.066 6.066 0 0 1 2.226-8.307 6.066 6.066 0 0 1 8.306 2.226 6.066 6.066 0 0 1-2.226 8.306 6.066 6.066 0 0 1-8.306-2.226zm16.271-16.979l6.568 11.376 4.583.554c.694.084 1.117-.681.74-1.336l-8.552-14.811c-.378-.656-1.253-.672-1.527-.029l-1.812 4.246zM264.686 90.017l22.14-3.904a3.258 3.258 0 0 1 3.775 2.641l3.905 22.146a3.257 3.257 0 0 1-2.645 3.773l-22.139 3.903a3.258 3.258 0 0 1-3.775-2.64l-3.905-22.146a3.257 3.257 0 0 1 2.644-3.773zm3.914 14.033a9.798 9.798 0 0 1 7.968-11.379 9.798 9.798 0 0 1 11.38 7.968 9.798 9.798 0 0 1-7.969 11.38 9.798 9.798 0 0 1-11.379-7.969zm3.686-.65a6.066 6.066 0 0 1 4.932-7.043 6.066 6.066 0 0 1 7.044 4.932 6.066 6.066 0 0 1-4.932 7.044 6.066 6.066 0 0 1-7.044-4.932zm21.097-10.389l2.28 12.937 4.118 2.088c.623.316 1.282-.258 1.151-1.003l-2.97-16.843c-.131-.745-.947-1.06-1.425-.549l-3.154 3.37zM291.686 50.017l22.14-3.904a3.258 3.258 0 0 1 3.775 2.641l3.905 22.146a3.257 3.257 0 0 1-2.645 3.773l-22.139 3.903a3.258 3.258 0 0 1-3.775-2.64l-3.905-22.146a3.257 3.257 0 0 1 2.644-3.773zM295.6 64.05a9.798 9.798 0 0 1 7.968-11.379 9.798 9.798 0 0 1 11.38 7.968 9.798 9.798 0 0 1-7.969 11.38A9.798 9.798 0 0 1 295.6 64.05zm3.686-.65a6.066 6.066 0 0 1 4.932-7.043 6.066 6.066 0 0 1 7.044 4.932 6.066 6.066 0 0 1-4.932 7.044 6.066 6.066 0 0 1-7.044-4.932zm21.097-10.389l2.28 12.937 4.118 2.088c.623.316 1.282-.258 1.151-1.003l-2.97-16.843c-.131-.745-.947-1.06-1.425-.549l-3.154 3.37zM365.433 71.223l18.187-13.214a3.258 3.258 0 0 1 4.551.718L401.39 76.92a3.257 3.257 0 0 1-.723 4.55l-18.187 13.214a3.258 3.258 0 0 1-4.551-.718L364.71 75.773a3.257 3.257 0 0 1 .723-4.55zm9.67 10.897a9.798 9.798 0 0 1 2.173-13.72 9.798 9.798 0 0 1 13.72 2.173 9.798 9.798 0 0 1-2.173 13.72 9.798 9.798 0 0 1-13.72-2.173zm3.027-2.2a6.066 6.066 0 0 1 1.345-8.493 6.066 6.066 0 0 1 8.494 1.346 6.066 6.066 0 0 1-1.345 8.493 6.066 6.066 0 0 1-8.494-1.345zm14.408-18.585l7.72 10.627 4.617.072c.699.01 1.04-.795.595-1.407l-10.053-13.836c-.444-.612-1.316-.537-1.521.132l-1.358 4.412zM457.256 51.496l20.537 9.144a3.258 3.258 0 0 1 1.653 4.3L470.3 85.484a3.257 3.257 0 0 1-4.303 1.649l-20.537-9.144a3.258 3.258 0 0 1-1.653-4.3l9.146-20.544a3.257 3.257 0 0 1 4.303-1.649zm-4.603 13.823a9.798 9.798 0 0 1 12.969-4.978A9.798 9.798 0 0 1 470.6 73.31a9.798 9.798 0 0 1-12.969 4.978 9.798 9.798 0 0 1-4.978-12.969zm3.419 1.522a6.066 6.066 0 0 1 8.028-3.082 6.066 6.066 0 0 1 3.081 8.029 6.066 6.066 0 0 1-8.028 3.081 6.066 6.066 0 0 1-3.081-8.028zm23.3 3.184l-5.343 12 2.245 4.034c.34.61 1.208.503 1.516-.188l6.956-15.624c.307-.69-.193-1.408-.875-1.252l-4.5 1.03zM502.983 73.275l22.426 1.568a3.258 3.258 0 0 1 3.025 3.476l-1.569 22.433a3.257 3.257 0 0 1-3.479 3.02l-22.425-1.567a3.258 3.258 0 0 1-3.025-3.476l1.569-22.433a3.257 3.257 0 0 1 3.478-3.02zm.403 14.564a9.798 9.798 0 0 1 10.484-9.114 9.798 9.798 0 0 1 9.114 10.484 9.798 9.798 0 0 1-10.484 9.114 9.798 9.798 0 0 1-9.114-10.484zm3.733.26a6.066 6.066 0 0 1 6.49-5.64 6.066 6.066 0 0 1 5.642 6.49 6.066 6.066 0 0 1-6.49 5.64 6.066 6.066 0 0 1-5.642-6.49zm22.984-4.976l-.916 13.104 3.49 3.022c.528.458 1.306.06 1.359-.695l1.193-17.06c.053-.755-.663-1.258-1.25-.878l-3.876 2.507zM558.433 92.223l18.187-13.214a3.258 3.258 0 0 1 4.551.718L594.39 97.92a3.257 3.257 0 0 1-.723 4.55l-18.187 13.214a3.258 3.258 0 0 1-4.551-.718L557.71 96.773a3.257 3.257 0 0 1 .723-4.55zm9.67 10.897a9.798 9.798 0 0 1 2.173-13.72 9.798 9.798 0 0 1 13.72 2.173 9.798 9.798 0 0 1-2.173 13.72 9.798 9.798 0 0 1-13.72-2.173zm3.027-2.2a6.066 6.066 0 0 1 1.345-8.493 6.066 6.066 0 0 1 8.494 1.346 6.066 6.066 0 0 1-1.345 8.493 6.066 6.066 0 0 1-8.494-1.345zm14.408-18.585l7.72 10.627 4.617.072c.699.01 1.04-.795.595-1.407l-10.053-13.836c-.444-.612-1.316-.537-1.521.132l-1.358 4.412zM51.328 86.93l21.124 7.688a3.258 3.258 0 0 1 1.95 4.175l-7.691 21.132a3.257 3.257 0 0 1-4.177 1.945l-21.125-7.69a3.258 3.258 0 0 1-1.95-4.174l7.692-21.131a3.257 3.257 0 0 1 4.177-1.945zM47.7 101.04a9.798 9.798 0 0 1 12.59-5.87 9.798 9.798 0 0 1 5.87 12.59 9.798 9.798 0 0 1-12.59 5.87 9.798 9.798 0 0 1-5.87-12.59zm3.516 1.28a6.066 6.066 0 0 1 7.793-3.634 6.066 6.066 0 0 1 3.635 7.793 6.066 6.066 0 0 1-7.794 3.635 6.066 6.066 0 0 1-3.634-7.794zm23.465 1.551l-4.493 12.344 2.522 3.867c.382.585 1.24.417 1.499-.294l5.849-16.07c.259-.711-.29-1.392-.96-1.188l-4.417 1.341zM14.487 133.276l21.125-7.688a3.258 3.258 0 0 1 4.177 1.945l7.691 21.131a3.257 3.257 0 0 1-1.95 4.175l-21.124 7.689a3.258 3.258 0 0 1-4.177-1.945l-7.691-21.132a3.257 3.257 0 0 1 1.95-4.175zm6.292 13.141a9.798 9.798 0 0 1 5.87-12.59 9.798 9.798 0 0 1 12.59 5.871 9.798 9.798 0 0 1-5.87 12.59 9.798 9.798 0 0 1-12.59-5.87zm3.516-1.28a6.066 6.066 0 0 1 3.634-7.793 6.066 6.066 0 0 1 7.794 3.634 6.066 6.066 0 0 1-3.634 7.794 6.066 6.066 0 0 1-7.794-3.635zm18.972-13.895l4.493 12.344 4.417 1.342c.67.203 1.219-.477.96-1.188l-5.85-16.071c-.258-.711-1.116-.88-1.498-.293l-2.522 3.866zM77.26 130h22.48c1.8 0 3.26 1.458 3.26 3.256v22.488A3.257 3.257 0 0 1 99.74 159H77.26c-1.8 0-3.26-1.458-3.26-3.256v-22.488A3.257 3.257 0 0 1 77.26 130zm1.417 14.5a9.798 9.798 0 0 1 9.823-9.823 9.798 9.798 0 0 1 9.823 9.823 9.798 9.798 0 0 1-9.823 9.823 9.798 9.798 0 0 1-9.823-9.823zm3.742 0a6.066 6.066 0 0 1 6.081-6.08 6.066 6.066 0 0 1 6.08 6.08 6.066 6.066 0 0 1-6.08 6.08 6.066 6.066 0 0 1-6.08-6.08zM105 137.932v13.136l3.692 2.771c.56.42 1.308-.031 1.308-.788V135.95c0-.757-.749-1.208-1.308-.788L105 137.932zM134.328 108.93l21.124 7.688a3.258 3.258 0 0 1 1.95 4.175l-7.691 21.132a3.257 3.257 0 0 1-4.177 1.945l-21.125-7.69a3.258 3.258 0 0 1-1.95-4.174l7.692-21.131a3.257 3.257 0 0 1 4.177-1.945zm-3.627 14.11a9.798 9.798 0 0 1 12.59-5.87 9.798 9.798 0 0 1 5.87 12.59 9.798 9.798 0 0 1-12.59 5.87 9.798 9.798 0 0 1-5.87-12.59zm3.516 1.28a6.066 6.066 0 0 1 7.793-3.634 6.066 6.066 0 0 1 3.635 7.793 6.066 6.066 0 0 1-7.794 3.635 6.066 6.066 0 0 1-3.634-7.794zm23.465 1.551l-4.493 12.344 2.522 3.867c.382.585 1.24.417 1.499-.294l5.849-16.07c.259-.711-.29-1.392-.96-1.188l-4.417 1.341zM188.328 100.93l21.124 7.688a3.258 3.258 0 0 1 1.95 4.175l-7.691 21.132a3.257 3.257 0 0 1-4.177 1.945l-21.125-7.69a3.258 3.258 0 0 1-1.95-4.174l7.692-21.131a3.257 3.257 0 0 1 4.177-1.945zm-3.627 14.11a9.798 9.798 0 0 1 12.59-5.87 9.798 9.798 0 0 1 5.87 12.59 9.798 9.798 0 0 1-12.59 5.87 9.798 9.798 0 0 1-5.87-12.59zm3.516 1.28a6.066 6.066 0 0 1 7.793-3.634 6.066 6.066 0 0 1 3.635 7.793 6.066 6.066 0 0 1-7.794 3.635 6.066 6.066 0 0 1-3.634-7.794zm23.465 1.551l-4.493 12.344 2.522 3.867c.382.585 1.24.417 1.499-.294l5.849-16.07c.259-.711-.29-1.392-.96-1.188l-4.417 1.341zM174.699 155.71l19.468-11.24a3.258 3.258 0 0 1 4.452 1.19l11.243 19.474a3.257 3.257 0 0 1-1.195 4.45l-19.468 11.24c-1.56.9-3.552.368-4.451-1.19l-11.244-19.474a3.257 3.257 0 0 1 1.195-4.45zm8.477 11.848a9.798 9.798 0 0 1 3.596-13.417 9.798 9.798 0 0 1 13.418 3.595 9.798 9.798 0 0 1-3.596 13.418 9.798 9.798 0 0 1-13.418-3.596zm3.241-1.87a6.066 6.066 0 0 1 2.226-8.307 6.066 6.066 0 0 1 8.306 2.226 6.066 6.066 0 0 1-2.226 8.306 6.066 6.066 0 0 1-8.306-2.226zm16.271-16.979l6.568 11.376 4.583.554c.694.084 1.117-.681.74-1.336l-8.552-14.811c-.378-.656-1.253-.672-1.527-.029l-1.812 4.246zM234.699 137.71l19.468-11.24a3.258 3.258 0 0 1 4.452 1.19l11.243 19.474a3.257 3.257 0 0 1-1.195 4.45l-19.468 11.24c-1.56.9-3.552.368-4.451-1.19l-11.244-19.474a3.257 3.257 0 0 1 1.195-4.45zm8.477 11.848a9.798 9.798 0 0 1 3.596-13.417 9.798 9.798 0 0 1 13.418 3.595 9.798 9.798 0 0 1-3.596 13.418 9.798 9.798 0 0 1-13.418-3.596zm3.241-1.87a6.066 6.066 0 0 1 2.226-8.307 6.066 6.066 0 0 1 8.306 2.226 6.066 6.066 0 0 1-2.226 8.306 6.066 6.066 0 0 1-8.306-2.226zm16.271-16.979l6.568 11.376 4.583.554c.694.084 1.117-.681.74-1.336l-8.552-14.811c-.378-.656-1.253-.672-1.527-.029l-1.812 4.246zM304.757 125.345l14.45 17.22a3.258 3.258 0 0 1-.4 4.59l-17.226 14.456a3.257 3.257 0 0 1-4.59-.404l-14.45-17.222a3.258 3.258 0 0 1 .4-4.59l17.226-14.454a3.257 3.257 0 0 1 4.59.404zM294.56 135.75a9.798 9.798 0 0 1 13.839 1.21 9.798 9.798 0 0 1-1.211 13.84 9.798 9.798 0 0 1-13.838-1.212 9.798 9.798 0 0 1 1.21-13.838zm2.406 2.867a6.066 6.066 0 0 1 8.566.749 6.066 6.066 0 0 1-.75 8.567 6.066 6.066 0 0 1-8.566-.75 6.066 6.066 0 0 1 .75-8.566zm19.546 13.075l-10.063 8.444.25 4.61c.038.698.865.981 1.445.495l13.1-10.993c.58-.486.445-1.35-.236-1.509l-4.496-1.047zM319.436 101.8l14.45-17.221a3.258 3.258 0 0 1 4.59-.404l17.226 14.454a3.257 3.257 0 0 1 .4 4.59l-14.45 17.221a3.258 3.258 0 0 1-4.59.405l-17.227-14.455a3.257 3.257 0 0 1-.4-4.59zm12.019 8.234a9.798 9.798 0 0 1-1.21-13.838 9.798 9.798 0 0 1 13.837-1.211 9.798 9.798 0 0 1 1.211 13.838 9.798 9.798 0 0 1-13.838 1.211zm2.405-2.866a6.066 6.066 0 0 1-.75-8.567 6.066 6.066 0 0 1 8.567-.75 6.066 6.066 0 0 1 .75 8.567 6.066 6.066 0 0 1-8.567.75zm9.483-21.52l10.063 8.444 4.496-1.047c.681-.159.817-1.023.237-1.509l-13.1-10.993c-.58-.486-1.408-.203-1.446.495l-.25 4.61zM369.256 113.496l20.537 9.144a3.258 3.258 0 0 1 1.653 4.3l-9.146 20.544a3.257 3.257 0 0 1-4.303 1.649l-20.537-9.144a3.258 3.258 0 0 1-1.653-4.3l9.146-20.544a3.257 3.257 0 0 1 4.303-1.649zm-4.603 13.823a9.798 9.798 0 0 1 12.969-4.978 9.798 9.798 0 0 1 4.978 12.969 9.798 9.798 0 0 1-12.969 4.978 9.798 9.798 0 0 1-4.978-12.969zm3.419 1.522a6.066 6.066 0 0 1 8.028-3.082 6.066 6.066 0 0 1 3.081 8.029 6.066 6.066 0 0 1-8.028 3.081 6.066 6.066 0 0 1-3.081-8.028zm23.3 3.184l-5.343 12 2.245 4.034c.34.61 1.208.503 1.516-.188l6.956-15.624c.307-.69-.193-1.408-.875-1.252l-4.5 1.03zM420.256 89.496l20.537 9.144a3.258 3.258 0 0 1 1.653 4.3l-9.146 20.544a3.257 3.257 0 0 1-4.303 1.649l-20.537-9.144a3.258 3.258 0 0 1-1.653-4.3l9.146-20.544a3.257 3.257 0 0 1 4.303-1.649zm-4.603 13.823a9.798 9.798 0 0 1 12.969-4.978 9.798 9.798 0 0 1 4.978 12.969 9.798 9.798 0 0 1-12.969 4.978 9.798 9.798 0 0 1-4.978-12.969zm3.419 1.522a6.066 6.066 0 0 1 8.028-3.082 6.066 6.066 0 0 1 3.081 8.029 6.066 6.066 0 0 1-8.028 3.081 6.066 6.066 0 0 1-3.081-8.028zm23.3 3.184l-5.343 12 2.245 4.034c.34.61 1.208.503 1.516-.188l6.956-15.624c.307-.69-.193-1.408-.875-1.252l-4.5 1.03zM423.28 140.963l9.855 20.205a3.258 3.258 0 0 1-1.498 4.358l-20.212 9.858a3.257 3.257 0 0 1-4.355-1.503l-9.855-20.205a3.258 3.258 0 0 1 1.497-4.358l20.212-9.857a3.257 3.257 0 0 1 4.356 1.502zm-12.411 7.63a9.798 9.798 0 0 1 13.134 4.523 9.798 9.798 0 0 1-4.522 13.135 9.798 9.798 0 0 1-13.135-4.523 9.798 9.798 0 0 1 4.523-13.134zm1.64 3.364a6.066 6.066 0 0 1 8.13 2.8 6.066 6.066 0 0 1-2.799 8.13 6.066 6.066 0 0 1-8.13-2.8 6.066 6.066 0 0 1 2.799-8.13zm15.802 17.416l-11.807 5.758-.872 4.534c-.132.686.602 1.161 1.282.83l15.371-7.497c.68-.332.758-1.203.135-1.522l-4.109-2.103zM458.433 123.223l18.187-13.214a3.258 3.258 0 0 1 4.551.718l13.218 18.193a3.257 3.257 0 0 1-.723 4.55l-18.187 13.214a3.258 3.258 0 0 1-4.551-.718l-13.218-18.193a3.257 3.257 0 0 1 .723-4.55zm9.67 10.897a9.798 9.798 0 0 1 2.173-13.72 9.798 9.798 0 0 1 13.72 2.173 9.798 9.798 0 0 1-2.173 13.72 9.798 9.798 0 0 1-13.72-2.173zm3.027-2.2a6.066 6.066 0 0 1 1.345-8.493 6.066 6.066 0 0 1 8.494 1.346 6.066 6.066 0 0 1-1.345 8.493 6.066 6.066 0 0 1-8.494-1.345zm14.408-18.585l7.72 10.627 4.617.072c.699.01 1.04-.795.595-1.407l-10.053-13.836c-.444-.612-1.316-.537-1.521.132l-1.358 4.412zM518.433 132.223l18.187-13.214a3.258 3.258 0 0 1 4.551.718l13.218 18.193a3.257 3.257 0 0 1-.723 4.55l-18.187 13.214a3.258 3.258 0 0 1-4.551-.718l-13.218-18.193a3.257 3.257 0 0 1 .723-4.55zm9.67 10.897a9.798 9.798 0 0 1 2.173-13.72 9.798 9.798 0 0 1 13.72 2.173 9.798 9.798 0 0 1-2.173 13.72 9.798 9.798 0 0 1-13.72-2.173zm3.027-2.2a6.066 6.066 0 0 1 1.345-8.493 6.066 6.066 0 0 1 8.494 1.346 6.066 6.066 0 0 1-1.345 8.493 6.066 6.066 0 0 1-8.494-1.345zm14.408-18.585l7.72 10.627 4.617.072c.699.01 1.04-.795.595-1.407l-10.053-13.836c-.444-.612-1.316-.537-1.521.132l-1.358 4.412z"/></g></svg>